<svg width="24" height="24" viewBox="0 0 24 24" fill="none" xmlns="http://www.w3.org/2000/svg">
<path d="M4 4C4 2.89543 4.89543 2 6 2H18C19.1046 2 20 2.89543 20 4V20C20 21.1046 19.1046 22 18 22H6C4.89543 22 4 21.1046 4 20V4Z" fill="#6AA668"/>
<path fill-rule="evenodd" clip-rule="evenodd" d="M18 18H6V8.5H18V18ZM7 17H10V15.5H7V17ZM10.5 17H13.5V15.5H10.5V17ZM14 17H17V15.5H14V17ZM7 15H10V13.5H7V15ZM10.5 15H13.5V13.5H10.5V15ZM14 15H17V13.5H14V15ZM7 11.5V13H10V11.5H7ZM10.5 11.5V13H13.5V11.5H10.5ZM14 11.5V13H17V11.5H14ZM7 11H10V9.5H7V11ZM10.5 11H13.5V9.5H10.5V11ZM14 11H17V9.5H14V11Z" fill="#FEFFF0"/>
</svg>
