<svg width="24" height="24" viewBox="0 0 24 24" fill="none" xmlns="http://www.w3.org/2000/svg">
<path d="M11.72 22C7.04999 22 4.35999 21.84 2.55999 20.98C1.77999 20.61 1.24999 19.95 1.06999 19.13C0.859991 18.21 1.12999 17.19 1.77999 16.39L7.72999 9.04C8.04999 8.64 8.22999 8.14 8.22999 7.62V3.69C7.98999 3.72 7.85999 3.74 7.84999 3.74C7.43999 3.81 7.05999 3.53 6.98999 3.12C6.91999 2.71 7.19999 2.33 7.60999 2.26C7.66999 2.25 9.19999 2 11.73 2C14.26 2 15.79 2.25 15.85 2.26C16.26 2.33 16.53 2.71 16.47 3.12C16.4 3.53 16.01 3.8 15.61 3.74C15.61 3.74 15.48 3.72 15.23 3.69V7.62C15.23 8.13 15.41 8.64 15.73 9.04L17.33 11.02C17.33 11.02 17.35 11.04 17.36 11.06L21.68 16.4C22.33 17.2 22.59 18.23 22.39 19.14C22.21 19.96 21.68 20.61 20.9 20.99C19.1 21.85 16.4 22.01 11.74 22.01L11.72 22ZM8.25999 10.75L2.93999 17.33C2.57999 17.78 2.41999 18.33 2.52999 18.8C2.60999 19.17 2.84999 19.45 3.20999 19.63C4.73999 20.37 7.37999 20.5 11.72 20.5C16.06 20.5 18.7 20.36 20.23 19.63C20.59 19.46 20.83 19.17 20.91 18.8C21.02 18.33 20.86 17.78 20.5 17.33L16.39 12.25C13.9 12.21 12.72 11.79 11.68 11.42C10.76 11.09 9.94999 10.8 8.24999 10.76L8.25999 10.75ZM9.31999 9.31C10.62 9.43 11.42 9.72 12.2 10C13 10.29 13.76 10.56 15.13 10.68L14.56 9.97C14.02 9.3 13.73 8.47 13.73 7.61V3.56C12.61 3.49 10.85 3.49 9.72999 3.56V7.62C9.72999 8.21 9.58999 8.79 9.32999 9.31H9.31999ZM11.72 19.25C11.31 19.25 10.97 18.91 10.97 18.5V16.75H9.21999C8.80999 16.75 8.46999 16.41 8.46999 16C8.46999 15.59 8.80999 15.25 9.21999 15.25H10.97V13.5C10.97 13.09 11.31 12.75 11.72 12.75C12.13 12.75 12.47 13.09 12.47 13.5V15.25H14.22C14.63 15.25 14.97 15.59 14.97 16C14.97 16.41 14.63 16.75 14.22 16.75H12.47V18.5C12.47 18.91 12.13 19.25 11.72 19.25Z" fill="#020617"/>
</svg>
