<svg width="24" height="24" viewBox="0 0 24 24" fill="none" xmlns="http://www.w3.org/2000/svg">
<path fill-rule="evenodd" clip-rule="evenodd" d="M15.97 9.04L21.92 16.39H21.93C22.51 17.11 22.79 18.01 22.68 18.87C22.57 19.75 22.05 20.54 21.14 20.98C20.16 21.45 18.92 21.69 17.43 21.83C15.94 21.97 14.12 22 11.98 22C9.84 22 8.03 21.97 6.53 21.83C5.04 21.7 3.8 21.45 2.82 20.98C1.91 20.54 1.39 19.75 1.28 18.87C1.17 18.01 1.45 17.11 2.03 16.39L7.97 9.04C8.29 8.63 8.47 8.14 8.47 7.62V3.69C8.24 3.72 8.09 3.74 8.09 3.74C7.69 3.81 7.3 3.53 7.23 3.12C7.16 2.71 7.44 2.33 7.85 2.26C7.91 2.25 9.44 2 11.97 2C14.5 2 16.03 2.25 16.09 2.26C16.5 2.33 16.77 2.71 16.71 3.12C16.65 3.49 16.33 3.75 15.97 3.75C15.97 3.75 15.89 3.75 15.85 3.74C15.85 3.74 15.71 3.72 15.47 3.69V7.62C15.47 8.14 15.65 8.64 15.97 9.04ZM20.49 19.63C20.92 19.42 21.14 19.07 21.19 18.68H21.17C21.22 18.27 21.09 17.77 20.74 17.33L19.4609 15.75C14.6742 15.7472 12.7196 15.24 11.1911 14.7084C11.0105 14.6456 10.8421 14.5849 10.6801 14.5266C10.1613 14.3397 9.70862 14.1767 9.13449 14.0429C8.41101 13.8744 7.49047 13.7544 6.078 13.7501L3.18 17.33C2.83 17.77 2.7 18.27 2.75 18.68C2.8 19.08 3.02 19.42 3.45 19.63C4.19 19.98 5.22 20.21 6.65 20.34C8.07 20.47 9.82 20.5 11.97 20.5C14.12 20.5 15.87 20.47 17.29 20.34C18.72 20.21 19.75 19.98 20.49 19.63ZM18.2362 14.237C14.4779 14.1565 12.8982 13.714 11.6839 13.2916C11.5346 13.2397 11.3854 13.1859 11.2345 13.1315C10.6997 12.9386 10.1425 12.7376 9.47489 12.5821C8.86385 12.4397 8.16148 12.3339 7.26546 12.2833L9.13 9.98C9.67 9.31 9.96 8.48 9.96 7.62V3.56C10.52 3.53 11.19 3.5 11.96 3.5C12.73 3.5 13.4 3.53 13.96 3.56V7.62C13.96 8.48 14.25 9.31 14.79 9.98L18.2362 14.237Z" fill="#020617"/>
</svg>
