<svg width="24" height="24" viewBox="0 0 24 24" fill="none" xmlns="http://www.w3.org/2000/svg">
<path fill-rule="evenodd" clip-rule="evenodd" d="M10.5 5.25C8.01472 5.25 6 7.26472 6 9.75C6 10.0365 6.02669 10.3162 6.07751 10.5867C6.1469 10.9561 5.93213 11.3199 5.57515 11.4375C4.07863 11.9307 3 13.3404 3 15C3 17.0711 4.67893 18.75 6.75 18.75H18C19.6569 18.75 21 17.4069 21 15.75C21 14.4695 20.1974 13.3746 19.0653 12.9444C18.6851 12.8 18.4893 12.3788 18.6239 11.9951C18.7054 11.7629 18.75 11.5124 18.75 11.25C18.75 10.0074 17.7426 9 16.5 9C16.2563 9 16.023 9.03849 15.805 9.10917C15.6092 9.17267 15.3959 9.1529 15.2151 9.05447C15.0343 8.95605 14.9019 8.78763 14.8489 8.5887C14.337 6.66576 12.5829 5.25 10.5 5.25ZM4.5 9.75C4.5 6.43629 7.18629 3.75 10.5 3.75C13.028 3.75 15.1893 5.31282 16.0733 7.52408C16.2135 7.50816 16.3559 7.5 16.5 7.5C18.5711 7.5 20.25 9.17893 20.25 11.25C20.25 11.4459 20.2349 11.6386 20.2058 11.827C21.5744 12.5981 22.5 14.0653 22.5 15.75C22.5 18.2353 20.4853 20.25 18 20.25H6.75C3.85051 20.25 1.5 17.8995 1.5 15C1.5 12.8968 2.73627 11.084 4.52024 10.2459C4.50683 10.0822 4.5 9.91686 4.5 9.75ZM12 9C12.4142 9 12.75 9.33579 12.75 9.75V14.6893L14.4697 12.9697C14.7626 12.6768 15.2374 12.6768 15.5303 12.9697C15.8232 13.2626 15.8232 13.7374 15.5303 14.0303L12.5303 17.0303C12.2374 17.3232 11.7626 17.3232 11.4697 17.0303L8.46967 14.0303C8.17678 13.7374 8.17678 13.2626 8.46967 12.9697C8.76256 12.6768 9.23744 12.6768 9.53033 12.9697L11.25 14.6893V9.75C11.25 9.33579 11.5858 9 12 9Z" fill="#020617"/>
</svg>
