<svg width="24" height="24" viewBox="0 0 24 24" fill="none" xmlns="http://www.w3.org/2000/svg">
<path fill-rule="evenodd" clip-rule="evenodd" d="M2.25 6C2.25 4.34315 3.59315 3 5.25 3H18.75C20.4069 3 21.75 4.34315 21.75 6V18C21.75 19.6569 20.4069 21 18.75 21H5.25C3.59315 21 2.25 19.6569 2.25 18V6ZM5.25 4.5C4.42157 4.5 3.75 5.17157 3.75 6V18C3.75 18.8284 4.42157 19.5 5.25 19.5H18.75C19.5784 19.5 20.25 18.8284 20.25 18V6C20.25 5.17157 19.5784 4.5 18.75 4.5H5.25ZM6.15 7.05C6.39853 6.71863 6.86863 6.65147 7.2 6.9L10.2 9.15C10.3889 9.29164 10.5 9.51393 10.5 9.75C10.5 9.98607 10.3889 10.2084 10.2 10.35L7.2 12.6C6.86863 12.8485 6.39853 12.7814 6.15 12.45C5.90147 12.1186 5.96863 11.6485 6.3 11.4L8.5 9.75L6.3 8.1C5.96863 7.85147 5.90147 7.38137 6.15 7.05ZM10.5 12C10.5 11.5858 10.8358 11.25 11.25 11.25H14.25C14.6642 11.25 15 11.5858 15 12C15 12.4142 14.6642 12.75 14.25 12.75H11.25C10.8358 12.75 10.5 12.4142 10.5 12Z" fill="#020617"/>
</svg>
