<svg width="24" height="24" viewBox="0 0 24 24" fill="none" xmlns="http://www.w3.org/2000/svg">
<path fill-rule="evenodd" clip-rule="evenodd" d="M6.00003 4.5C5.17161 4.5 4.50003 5.17157 4.50003 6V9H19.5C19.5 8.17157 18.8285 7.5 18 7.5H14.1214C13.5246 7.5 12.9523 7.26295 12.5304 6.84099L10.409 4.71967C10.2684 4.57902 10.0776 4.5 9.87871 4.5H6.00003ZM21 9.20556V9C21 7.34315 19.6569 6 18 6H14.1214C13.9224 6 13.7317 5.92098 13.591 5.78033L11.4697 3.65901C11.0477 3.23705 10.4755 3 9.87871 3H6.00003C4.34318 3 3.00003 4.34315 3.00003 6V9.20556C1.74761 9.6961 0.921046 11.0004 1.12446 12.4243L1.9816 18.4243C2.19274 19.9022 3.4585 21 4.95145 21H19.0486C20.5416 21 21.8073 19.9022 22.0185 18.4243L22.8756 12.4243C23.079 11.0004 22.2525 9.6961 21 9.20556ZM4.09431 10.5C4.01502 10.5 3.93794 10.506 3.86334 10.5174C3.06701 10.6391 2.49149 11.3869 2.60938 12.2121L3.46652 18.2121C3.57209 18.9511 4.20497 19.5 4.95145 19.5H19.0486C19.7951 19.5 20.428 18.9511 20.5335 18.2121L21.3907 12.2121C21.5086 11.3869 20.9331 10.6391 20.1367 10.5174C20.0621 10.506 19.985 10.5 19.9058 10.5H4.09431Z" fill="#020617"/>
</svg>
