<svg width="24" height="24" viewBox="0 0 24 24" fill="none" xmlns="http://www.w3.org/2000/svg">
<path fill-rule="evenodd" clip-rule="evenodd" d="M6.50377 4.75C6.07917 4.75 5.70853 4.91931 5.48312 5.1992C3.92945 7.1284 3 9.57964 3 12.25C3 12.6576 3.02164 13.0598 3.06379 13.4557C3.12477 14.0285 3.65799 14.5 4.37227 14.5H9.7C10.1142 14.5 10.45 14.8358 10.45 15.25C10.45 15.6642 10.1142 16 9.7 16H9.0541C9.07813 16.2815 9.03299 16.5763 8.90066 16.8545C8.48371 17.731 8.25 18.7122 8.25 19.75C8.25 20.5784 8.92157 21.25 9.75 21.25L9.75 20.6166C9.75 19.9487 9.87744 19.287 10.1255 18.6668C10.5145 17.6944 11.2966 17.0073 12.1219 16.5678C13.1428 16.0241 14.0366 15.2717 14.7458 14.3675C15.3315 13.6206 16.226 13.0323 17.2799 13.0013C17.7425 11.9715 18 10.8292 18 9.625C18 8.42125 17.7427 7.27942 17.2805 6.25H16.4803C15.916 6.25 15.3554 6.15903 14.8201 5.98059L11.7056 4.94244C11.3232 4.81498 10.9228 4.75 10.5198 4.75L6.50377 4.75ZM17.159 4.75L16.4803 4.75C16.0772 4.75 15.6768 4.68502 15.2944 4.55756L12.1799 3.51941C11.6446 3.34097 11.084 3.25 10.5198 3.25L6.50377 3.25C5.69244 3.25 4.86468 3.57566 4.31487 4.25836C2.55431 6.44445 1.5 9.22512 1.5 12.25C1.5 12.7107 1.52447 13.166 1.57222 13.6145C1.72862 15.0835 3.03329 16 4.37227 16H7.49999C7.4996 15.9997 7.50005 16.0001 7.49999 16C7.50458 16.003 7.51961 16.015 7.53425 16.0418C7.56755 16.1027 7.56555 16.1692 7.54609 16.2101C7.03542 17.2837 6.75 18.4846 6.75 19.75C6.75 21.4069 8.09315 22.75 9.75 22.75C10.5784 22.75 11.25 22.0784 11.25 21.25V20.6166C11.25 20.1395 11.341 19.6669 11.5182 19.2239C11.737 18.677 12.208 18.2214 12.827 17.8918C14.0338 17.2491 15.0889 16.3606 15.9261 15.2932C16.1267 15.0374 16.3622 14.8361 16.6138 14.7004C16.6526 15.3659 17.1425 16 17.9479 16H19.0006C20.0899 16 21.1807 15.4031 21.6163 14.2979C22.1869 12.8499 22.5 11.2731 22.5 9.625C22.5 8.32993 22.3067 7.07866 21.9468 5.89917C21.5757 4.68283 20.4194 4 19.2571 4H18.3493C17.7823 4 17.3658 4.32573 17.159 4.75ZM18.5868 5.5C19.1729 6.75363 19.5 8.15209 19.5 9.625C19.5 11.2343 19.1095 12.7546 18.4175 14.0942C18.3466 14.2314 18.2726 14.3667 18.1955 14.5H19.0006C19.5755 14.5 20.0462 14.1908 20.2207 13.7479C20.7235 12.4722 21 11.0818 21 9.625C21 8.47991 20.8292 7.37609 20.5121 6.33692C20.3645 5.85321 19.8722 5.5 19.2571 5.5H18.5868Z" fill="#020617"/>
</svg>
