<svg width="24" height="24" viewBox="0 0 24 24" fill="none" xmlns="http://www.w3.org/2000/svg">
<path d="M21.93 11.14C21.78 9.78 20.58 8.75 19.13 8.75H16.26C16.16 8.71 16.06 8.68 15.95 8.68C15.93 8.63 15.93 8.58 15.95 8.54C16.48 7.43 16.75 6.24 16.75 5C16.75 3.35 15.4 2 13.75 2C12.92 2 12.25 2.67 12.25 3.5V4.13C12.25 4.61 12.16 5.07 11.98 5.52C11.71 6.18 11.12 6.61 10.67 6.85C9.46 7.5 8.42 8.37 7.57 9.45C7.31 9.78 7.01 10.01 6.68 10.14C6.44 9.74 6.02 9.5 5.55 9.5H4.5C3.31 9.5 2.29 10.17 1.88 11.2C1.3 12.69 1 14.26 1 15.87C1 17.14 1.18 18.4 1.55 19.6C1.9 20.74 2.98 21.5 4.24 21.5H5.15C5.61 21.5 6.03 21.27 6.28 20.87C6.45 20.6 6.52 20.3 6.49 20H7.03C7.44 20 7.84 20.06 8.22 20.19L11.33 21.23C11.87 21.41 12.43 21.5 12.99 21.5H17C17.88 21.5 18.67 21.13 19.19 20.49C21 18.24 22 15.4 22 12.5C22 12.05 21.98 11.59 21.93 11.14ZM4.01 15.88C4.01 17.14 4.24 18.36 4.71 19.52C4.72 19.53 4.72 19.54 4.72 19.55C4.78 19.7 4.85 19.85 4.92 20H4.25C3.66 20 3.15 19.66 3 19.16C2.67 18.1 2.51 16.99 2.51 15.87C2.51 14.45 2.77 13.06 3.29 11.75C3.47 11.3 3.95 11 4.51 11H5.31C4.46 12.48 4.01 14.16 4.01 15.88ZM18.03 19.55C17.8 19.84 17.43 20 17.01 20H12.99C12.58 20 12.18 19.94 11.8 19.81L8.69 18.77C8.15 18.59 7.6 18.5 7.03 18.5H5.93C5.64 17.66 5.5 16.78 5.5 15.88C5.5 14.41 5.89 12.97 6.63 11.71C7.44 11.57 8.19 11.1 8.76 10.38C9.46 9.48 10.37 8.72 11.38 8.18C12.35 7.67 13.04 6.94 13.38 6.08C13.63 5.46 13.76 4.8 13.76 4.13V3.5C14.59 3.5 15.26 4.17 15.26 5C15.26 6.02 15.04 6.99 14.61 7.9C14.49 8.16 14.44 8.46 14.46 8.75H13.76C13.35 8.75 13.01 9.09 13.01 9.5C13.01 9.91 13.35 10.25 13.76 10.25H19.14C19.82 10.25 20.39 10.69 20.45 11.29C20.49 11.69 20.51 12.1 20.51 12.5C20.51 15.09 19.65 17.53 18.03 19.55Z" fill="#020617"/>
</svg>
