<svg width="24" height="24" viewBox="0 0 24 24" fill="none" xmlns="http://www.w3.org/2000/svg">
<path fill-rule="evenodd" clip-rule="evenodd" d="M12 3.75C7.44365 3.75 3.75 7.44365 3.75 12C3.75 16.5563 7.44365 20.25 12 20.25C16.5563 20.25 20.25 16.5563 20.25 12C20.25 7.44365 16.5563 3.75 12 3.75ZM2.25 12C2.25 6.61522 6.61522 2.25 12 2.25C17.3848 2.25 21.75 6.61522 21.75 12C21.75 17.3848 17.3848 21.75 12 21.75C6.61522 21.75 2.25 17.3848 2.25 12ZM11.25 8.25C11.25 7.83579 11.5858 7.5 12 7.5H12.0075C12.4217 7.5 12.7575 7.83579 12.7575 8.25V8.2575C12.7575 8.67171 12.4217 9.0075 12.0075 9.0075H12C11.5858 9.0075 11.25 8.67171 11.25 8.2575V8.25ZM10.9561 10.5584C12.1023 9.98532 13.3929 11.0206 13.0821 12.2639L12.3731 15.0999L12.4146 15.0792C12.7851 14.8939 13.2356 15.0441 13.4208 15.4146C13.6061 15.7851 13.4559 16.2356 13.0854 16.4208L13.0439 16.4416C11.8977 17.0147 10.6071 15.9794 10.9179 14.7361L11.6269 11.9001L11.5854 11.9208C11.2149 12.1061 10.7644 11.9559 10.5792 11.5854C10.3939 11.2149 10.5441 10.7644 10.9146 10.5792L10.9561 10.5584Z" fill="#020617"/>
</svg>
