<svg width="24" height="24" viewBox="0 0 24 24" fill="none" xmlns="http://www.w3.org/2000/svg">
<path fill-rule="evenodd" clip-rule="evenodd" d="M20.6705 3.3295C20.2312 2.89017 19.5188 2.89017 19.0795 3.3295L17.9223 4.48667L19.5133 6.07766L20.6705 4.9205C21.1098 4.48116 21.1098 3.76884 20.6705 3.3295ZM18.4527 7.13832L16.8617 5.54733L8.46085 13.9482C8.02029 14.3887 7.69644 14.9321 7.51857 15.5292L7.11458 16.8854L8.47078 16.4814C9.0679 16.3036 9.61129 15.9797 10.0519 15.5391L18.4527 7.13832ZM18.0188 2.26884C19.044 1.24372 20.706 1.24372 21.7312 2.26884C22.7563 3.29397 22.7563 4.95603 21.7312 5.98116L11.1125 16.5998C10.4957 17.2166 9.73498 17.67 8.899 17.919L6.21411 18.7188C5.95019 18.7974 5.6644 18.7251 5.46967 18.5303C5.27494 18.3356 5.20259 18.0498 5.28121 17.7859L6.08099 15.101C6.33001 14.265 6.7834 13.5043 7.40019 12.8875L18.0188 2.26884ZM5.25 6.74999C4.42157 6.74999 3.75 7.42156 3.75 8.24999V18.75C3.75 19.5784 4.42157 20.25 5.25 20.25H15.75C16.5784 20.25 17.25 19.5784 17.25 18.75V14C17.25 13.5858 17.5858 13.25 18 13.25C18.4142 13.25 18.75 13.5858 18.75 14V18.75C18.75 20.4068 17.4069 21.75 15.75 21.75H5.25C3.59315 21.75 2.25 20.4068 2.25 18.75V8.24999C2.25 6.59314 3.59315 5.24999 5.25 5.24999H10C10.4142 5.24999 10.75 5.58578 10.75 5.99999C10.75 6.4142 10.4142 6.74999 10 6.74999H5.25Z" fill="#020617"/>
</svg>
