<svg width="24" height="24" viewBox="0 0 24 24" fill="none" xmlns="http://www.w3.org/2000/svg">
<path fill-rule="evenodd" clip-rule="evenodd" d="M7.92305 4.5C6.70491 4.5 5.64683 5.33802 5.36783 6.52377L3.64128 13.8616C4.12878 13.6298 4.67424 13.5 5.25 13.5H18.75C19.3258 13.5 19.8712 13.6298 20.3587 13.8616L18.6322 6.52377C18.3532 5.33802 17.2951 4.5 16.077 4.5H7.92305ZM21 17.25C21 16.0074 19.9926 15 18.75 15H5.25C4.00736 15 3 16.0074 3 17.25C3 18.4926 4.00736 19.5 5.25 19.5H18.75C19.9926 19.5 21 18.4926 21 17.25ZM1.5 17.25C1.5 19.3211 3.17893 21 5.25 21H18.75C20.8211 21 22.5 19.3211 22.5 17.25V17.0223C22.5 16.6174 22.4532 16.2139 22.3604 15.8198L20.0923 6.18021C19.6539 4.31689 17.9912 3 16.077 3H7.92305C6.00884 3 4.34613 4.31689 3.9077 6.18021L1.63956 15.8198C1.54683 16.2139 1.5 16.6174 1.5 17.0223V17.25ZM15 17.25C15 16.8358 15.3358 16.5 15.75 16.5H15.7575C16.1717 16.5 16.5075 16.8358 16.5075 17.25V17.2575C16.5075 17.6717 16.1717 18.0075 15.7575 18.0075H15.75C15.3358 18.0075 15 17.6717 15 17.2575V17.25ZM18 17.25C18 16.8358 18.3358 16.5 18.75 16.5H18.7575C19.1717 16.5 19.5075 16.8358 19.5075 17.25V17.2575C19.5075 17.6717 19.1717 18.0075 18.7575 18.0075H18.75C18.3358 18.0075 18 17.6717 18 17.2575V17.25Z" fill="#020617"/>
</svg>
