<svg width="24" height="24" viewBox="0 0 24 24" fill="none" xmlns="http://www.w3.org/2000/svg">
<path fill-rule="evenodd" clip-rule="evenodd" d="M12 3.75C7.44365 3.75 3.75 7.44365 3.75 12C3.75 16.5563 7.44365 20.25 12 20.25C16.5563 20.25 20.25 16.5563 20.25 12C20.25 7.44365 16.5563 3.75 12 3.75ZM2.25 12C2.25 6.61522 6.61522 2.25 12 2.25C17.3848 2.25 21.75 6.61522 21.75 12C21.75 17.3848 17.3848 21.75 12 21.75C6.61522 21.75 2.25 17.3848 2.25 12ZM9.21967 9.21967C9.51256 8.92678 9.98744 8.92678 10.2803 9.21967L12 10.9393L13.7197 9.21967C14.0126 8.92678 14.4874 8.92678 14.7803 9.21967C15.0732 9.51256 15.0732 9.98744 14.7803 10.2803L13.0607 12L14.7803 13.7197C15.0732 14.0126 15.0732 14.4874 14.7803 14.7803C14.4874 15.0732 14.0126 15.0732 13.7197 14.7803L12 13.0607L10.2803 14.7803C9.98744 15.0732 9.51256 15.0732 9.21967 14.7803C8.92678 14.4874 8.92678 14.0126 9.21967 13.7197L10.9393 12L9.21967 10.2803C8.92678 9.98744 8.92678 9.51256 9.21967 9.21967Z" fill="#020617"/>
</svg>
