<svg width="24" height="24" viewBox="0 0 24 24" fill="none" xmlns="http://www.w3.org/2000/svg">
<path d="M14 2L20 8H14V2Z" fill="#FFC3DF"/>
<path d="M4 4C4 2.89543 4.89543 2 6 2H14V6C14 7.10457 14.8954 8 16 8H20V20C20 21.1046 19.1046 22 18 22H6C4.89543 22 4 21.1046 4 20V4Z" fill="#ED756C"/>
<path fill-rule="evenodd" clip-rule="evenodd" d="M8 18H7V13H8.5C9.32843 13 10 13.6716 10 14.5C10 15.3284 9.32843 16 8.5 16H8V18ZM8 15H8.5C8.77614 15 9 14.7761 9 14.5C9 14.2239 8.77614 14 8.5 14H8V15Z" fill="white"/>
<path d="M15 18H16V16H17V15H16V14.5C16 14.2239 16.2239 14 16.5 14H17V13H16.5C15.6716 13 15 13.6716 15 14.5V18Z" fill="white"/>
<path fill-rule="evenodd" clip-rule="evenodd" d="M11 18V13H12.5C13.3284 13 14 13.6716 14 14.5V16.5C14 17.3284 13.3284 18 12.5 18H11ZM12.5 17C12.7761 17 13 16.7761 13 16.5V14.5C13 14.2239 12.7761 14 12.5 14H12V17H12.5Z" fill="white"/>
</svg>
