<svg width="24" height="24" viewBox="0 0 24 24" fill="none" xmlns="http://www.w3.org/2000/svg">
<path fill-rule="evenodd" clip-rule="evenodd" d="M11.4697 1.71967C11.7626 1.42678 12.2374 1.42678 12.5303 1.71967L15.5303 4.71967C15.8232 5.01256 15.8232 5.48744 15.5303 5.78033C15.2374 6.07322 14.7626 6.07322 14.4697 5.78033L12.75 4.06066L12.75 15C12.75 15.4142 12.4142 15.75 12 15.75C11.5858 15.75 11.25 15.4142 11.25 15L11.25 4.06066L9.53033 5.78033C9.23744 6.07322 8.76256 6.07322 8.46967 5.78033C8.17678 5.48744 8.17678 5.01256 8.46967 4.71967L11.4697 1.71967ZM7.5 9C6.67157 9 6 9.67157 6 10.5V19.5C6 20.3284 6.67157 21 7.5 21H16.5C17.3284 21 18 20.3284 18 19.5V10.5C18 9.67157 17.3284 9 16.5 9H15C14.5858 9 14.25 8.66421 14.25 8.25C14.25 7.83579 14.5858 7.5 15 7.5H16.5C18.1569 7.5 19.5 8.84315 19.5 10.5V19.5C19.5 21.1569 18.1569 22.5 16.5 22.5H7.5C5.84315 22.5 4.5 21.1569 4.5 19.5V10.5C4.5 8.84315 5.84315 7.5 7.5 7.5H9C9.41421 7.5 9.75 7.83579 9.75 8.25C9.75 8.66421 9.41421 9 9 9H7.5Z" fill="#020617"/>
</svg>
