<svg width="24" height="24" viewBox="0 0 24 24" fill="none" xmlns="http://www.w3.org/2000/svg">
<path d="M12 6C12.4142 6 12.75 6.33579 12.75 6.75V9.25H15.25C15.6642 9.25 16 9.58579 16 10C16 10.4142 15.6642 10.75 15.25 10.75L12.75 10.75V13.25C12.75 13.6642 12.4142 14 12 14C11.5858 14 11.25 13.6642 11.25 13.25V10.75H8.75C8.33579 10.75 8 10.4142 8 10C8 9.58579 8.33579 9.25 8.75 9.25H11.25V6.75C11.25 6.33579 11.5858 6 12 6Z" fill="#020617"/>
<path fill-rule="evenodd" clip-rule="evenodd" d="M12.0003 2.25C9.57113 2.25 7.18302 2.42773 4.84836 2.771C2.87004 3.06188 1.5 4.79455 1.5 6.74064V12.7593C1.5 14.7054 2.87004 16.4381 4.84836 16.729C5.99452 16.8975 7.15358 17.0261 8.32408 17.1134C8.44853 17.1227 8.5569 17.1874 8.62092 17.2835L11.376 21.416C11.5151 21.6247 11.7492 21.75 12 21.75C12.2508 21.75 12.4849 21.6247 12.624 21.416L15.379 17.2835C15.4431 17.1875 15.5514 17.1228 15.6759 17.1135C16.8464 17.0262 18.0054 16.8976 19.1516 16.7291C21.1299 16.4382 22.5 14.7056 22.5 12.7595V6.74056C22.5 4.79445 21.1299 3.06177 19.1516 2.77091C16.8171 2.4277 14.4292 2.25 12.0003 2.25ZM5.06657 4.25505C7.32921 3.92236 9.64439 3.75 12.0003 3.75C14.356 3.75 16.6709 3.92233 18.9334 4.25496C20.1232 4.42988 21 5.48447 21 6.74056V12.7595C21 14.0155 20.1232 15.0701 18.9334 15.2451C17.8226 15.4084 16.6991 15.533 15.5644 15.6176C14.9884 15.6606 14.4565 15.9631 14.131 16.4515L12 19.6479L9.869 16.4514C9.54344 15.9631 9.01156 15.6605 8.43563 15.6176C7.30089 15.533 6.17741 15.4083 5.06656 15.2449C3.87679 15.07 3 14.0154 3 12.7593V6.74064C3 5.48457 3.87679 4.42999 5.06657 4.25505Z" fill="#020617"/>
</svg>
