<svg width="24" height="24" viewBox="0 0 24 24" fill="none" xmlns="http://www.w3.org/2000/svg">
<path fill-rule="evenodd" clip-rule="evenodd" d="M4.91307 2.65823C6.9877 2.38888 9.10296 2.25 11.2503 2.25C13.3974 2.25 15.5124 2.38885 17.5869 2.65815C19.5953 2.91888 21 4.66663 21 6.63731V8.02357C21.9113 8.53322 22.5 9.5169 22.5 10.6082V14.8938C22.5 16.4015 21.372 17.7085 19.8307 17.8342C19.7206 17.8432 19.6103 17.8518 19.5 17.8601V20.25C19.5 20.5533 19.3173 20.8268 19.037 20.9429C18.7568 21.059 18.4342 20.9948 18.2197 20.7803L15.4384 17.999C14.17 17.9912 12.9131 17.9357 11.6692 17.8341C11.4677 17.8177 11.2724 17.7807 11.0853 17.7253L7.28033 21.5303C7.06583 21.7448 6.74324 21.809 6.46299 21.6929C6.18273 21.5768 6 21.3033 6 21V16.9705C5.63649 16.9316 5.27417 16.8887 4.91308 16.8418C2.90466 16.581 1.5 14.8333 1.5 12.8626V6.63738C1.5 4.66672 2.90466 2.91899 4.91307 2.65823ZM9.78068 16.9087C9.29126 16.3755 9 15.662 9 14.8937V10.6082C9 9.10282 10.1248 7.7966 11.6641 7.66884C13.0114 7.55702 14.3741 7.5 15.75 7.5C17.0116 7.5 18.2622 7.54794 19.5 7.64213V6.63731C19.5 5.36516 18.6012 4.30241 17.3938 4.14567C15.3832 3.88466 13.3327 3.75 11.2503 3.75C9.16771 3.75 7.11695 3.88469 5.1062 4.14575C3.8988 4.3025 3 5.36524 3 6.63738V12.8626C3 14.1348 3.8988 15.1975 5.1062 15.3543C5.67416 15.428 6.2453 15.4917 6.81944 15.545C7.20508 15.5809 7.5 15.9045 7.5 16.2918V19.1893L9.78068 16.9087ZM15.75 9C14.4156 9 13.0942 9.0553 11.7881 9.1637C11.0652 9.2237 10.5 9.84364 10.5 10.6082V14.8937C10.5 15.4548 10.8079 15.9434 11.2577 16.1832C11.4175 16.2684 11.5969 16.3232 11.7912 16.3391C13.0963 16.4456 14.4166 16.5 15.75 16.5C15.9489 16.5 16.1397 16.579 16.2803 16.7197L18 18.4393V17.1592C18 16.7627 18.3087 16.4347 18.7046 16.4106C19.0403 16.3903 19.375 16.3664 19.7087 16.3392C20.4332 16.2801 21 15.6594 21 14.8938V10.6082C21 9.95738 20.5872 9.40739 20.0203 9.22499C19.923 9.19368 19.8199 9.17268 19.7119 9.16371C18.4058 9.0553 17.0844 9 15.75 9Z" fill="#020617"/>
</svg>
