<svg width="24" height="24" viewBox="0 0 24 24" fill="none" xmlns="http://www.w3.org/2000/svg">
<path fill-rule="evenodd" clip-rule="evenodd" d="M12 3.75C7.44365 3.75 3.75 7.44365 3.75 12C3.75 16.5563 7.44365 20.25 12 20.25C16.5563 20.25 20.25 16.5563 20.25 12C20.25 7.44365 16.5563 3.75 12 3.75ZM2.25 12C2.25 6.61522 6.61522 2.25 12 2.25C17.3848 2.25 21.75 6.61522 21.75 12C21.75 17.3848 17.3848 21.75 12 21.75C6.61522 21.75 2.25 17.3848 2.25 12ZM15.4359 9.1397C15.773 9.38046 15.8511 9.84887 15.6103 10.1859L11.8603 15.4359C11.7322 15.6153 11.5316 15.7293 11.3119 15.7474C11.0921 15.7656 10.8756 15.6862 10.7197 15.5303L8.46967 13.2803C8.17678 12.9874 8.17678 12.5126 8.46967 12.2197C8.76256 11.9268 9.23744 11.9268 9.53033 12.2197L11.1543 13.8436L14.3897 9.31407C14.6305 8.97701 15.0989 8.89894 15.4359 9.1397Z" fill="#020617"/>
</svg>
