<svg width="24" height="24" viewBox="0 0 24 24" fill="none" xmlns="http://www.w3.org/2000/svg">
<path fill-rule="evenodd" clip-rule="evenodd" d="M10.5 3C9.81411 3 9.23394 3.46099 9.0561 4.09149C9.01971 4.2205 9 4.35733 9 4.5H15C15 4.35733 14.9803 4.2205 14.9439 4.09149C14.7661 3.46099 14.1859 3 13.5 3H10.5ZM16.1935 3.17789C15.7049 2.18436 14.6831 1.5 13.5 1.5H10.5C9.31692 1.5 8.29511 2.18436 7.80654 3.17789C7.30895 3.22029 6.81347 3.27017 6.32022 3.32741C4.82283 3.50119 3.75 4.78722 3.75 6.25699V19.5C3.75 21.1569 5.09315 22.5 6.75 22.5H17.25C18.9069 22.5 20.25 21.1569 20.25 19.5V6.25699C20.25 4.78722 19.1772 3.50119 17.6798 3.32741C17.1865 3.27017 16.6911 3.22029 16.1935 3.17789ZM7.51459 4.71007C7.17303 4.74223 6.83253 4.77802 6.49314 4.81741C5.78933 4.89909 5.25 5.51078 5.25 6.25699V19.5C5.25 20.3284 5.92157 21 6.75 21H17.25C18.0784 21 18.75 20.3284 18.75 19.5V6.25699C18.75 5.51078 18.2107 4.89909 17.5069 4.81741C17.1675 4.77802 16.827 4.74223 16.4854 4.71007C16.3832 5.43905 15.7571 6 15 6H9C8.24287 6 7.61676 5.43905 7.51459 4.71007Z" fill="#020617"/>
</svg>
