<svg width="24" height="24" viewBox="0 0 24 24" fill="none" xmlns="http://www.w3.org/2000/svg">
<path fill-rule="evenodd" clip-rule="evenodd" d="M8.85373 3.81684C9.00442 2.91274 9.78665 2.25009 10.7032 2.25009H13.2972C14.2138 2.25009 14.996 2.91274 15.1467 3.81684L15.3602 5.09789C15.3791 5.21138 15.4632 5.34321 15.6277 5.43427C15.7101 5.4799 15.7916 5.52704 15.8721 5.57563C16.033 5.67281 16.1893 5.67984 16.2972 5.63942L17.5141 5.18354C18.3724 4.86198 19.3374 5.20809 19.7957 6.00186L21.0926 8.2483C21.5509 9.04208 21.3682 10.0508 20.6605 10.6334L19.6562 11.4602C19.5673 11.5334 19.4954 11.6718 19.4989 11.8587C19.4998 11.9057 19.5002 11.9529 19.5002 12.0001C19.5002 12.0473 19.4998 12.0944 19.4989 12.1414C19.4954 12.3284 19.5673 12.4668 19.6562 12.54L20.6605 13.3668C21.3682 13.9493 21.5509 14.9581 21.0926 15.7519L19.7957 17.9983C19.3374 18.7921 18.3724 19.1382 17.5141 18.8166L16.2972 18.3608C16.1893 18.3203 16.033 18.3274 15.8721 18.4245C15.7916 18.4731 15.7101 18.5203 15.6277 18.5659C15.4632 18.657 15.3791 18.7888 15.3602 18.9023L15.1467 20.1833C14.996 21.0874 14.2138 21.7501 13.2972 21.7501H10.7032C9.78665 21.7501 9.00441 21.0874 8.85373 20.1833L8.64022 18.9023C8.62131 18.7888 8.53723 18.657 8.37272 18.5659C8.29029 18.5203 8.20881 18.4731 8.12833 18.4245C7.96739 18.3274 7.81109 18.3203 7.7032 18.3608L6.48633 18.8166C5.62801 19.1382 4.66303 18.7921 4.20474 17.9983L2.90776 15.7519C2.44947 14.9581 2.63223 13.9493 3.33986 13.3668L3.81654 13.9458L3.33986 13.3668L4.34421 12.54C4.43311 12.4668 4.50497 12.3284 4.50151 12.1414C4.50064 12.0944 4.5002 12.0473 4.5002 12.0001C4.5002 11.9529 4.50064 11.9058 4.50151 11.8587C4.50497 11.6718 4.43311 11.5334 4.34421 11.4602L3.33986 10.6334C2.63223 10.0509 2.44947 9.04209 2.90776 8.24832L4.20474 6.00188C4.66303 5.2081 5.62801 4.862 6.48633 5.18355L7.70319 5.63943C7.81107 5.67985 7.96737 5.67282 8.12831 5.57564C8.2088 5.52704 8.29028 5.47991 8.37272 5.43427C8.53723 5.34321 8.62131 5.21138 8.64022 5.09789L8.85373 3.81684ZM10.7032 3.75009C10.5199 3.75009 10.3635 3.88262 10.3333 4.06344L10.1198 5.34449C10.014 5.97909 9.59818 6.4704 9.09916 6.74663C9.03324 6.78312 8.96807 6.82082 8.90368 6.8597C8.41455 7.15506 7.78019 7.27008 7.17695 7.04409L5.9601 6.58821C5.78843 6.5239 5.59544 6.59312 5.50378 6.75188L4.2068 8.99832C4.11514 9.15707 4.15169 9.35882 4.29322 9.47533L5.29757 10.3022C5.79368 10.7106 6.01182 11.3158 6.00125 11.8865C6.00055 11.9243 6.0002 11.9621 6.0002 12.0001C6.0002 12.038 6.00055 12.0759 6.00125 12.1137C6.01182 12.6844 5.79368 13.2896 5.29757 13.698L4.29322 14.5249L3.96088 14.1212L4.29322 14.5249C4.15169 14.6414 4.11514 14.8431 4.2068 15.0019L5.50378 17.2483C5.59544 17.4071 5.78843 17.4763 5.9601 17.412L7.17697 16.9561C7.7802 16.7301 8.41457 16.8451 8.9037 17.1405C8.96808 17.1794 9.03324 17.2171 9.09916 17.2536C9.59818 17.5298 10.014 18.0211 10.1198 18.6557L10.3333 19.9367C10.3635 20.1176 10.5199 20.2501 10.7032 20.2501H13.2972C13.4805 20.2501 13.6369 20.1176 13.6671 19.9367L13.8806 18.6557C13.9864 18.0211 14.4022 17.5298 14.9012 17.2536C14.9672 17.2171 15.0323 17.1794 15.0967 17.1405C15.5859 16.8451 16.2202 16.7301 16.8235 16.9561L18.0403 17.412C18.212 17.4763 18.405 17.4071 18.4966 17.2483L19.7936 15.0019C19.8853 14.8431 19.8487 14.6414 19.7072 14.5248L18.7028 13.698C18.2067 13.2896 17.9886 12.6844 17.9992 12.1137C17.9999 12.0759 18.0002 12.038 18.0002 12.0001C18.0002 11.9621 17.9999 11.9243 17.9992 11.8865C17.9886 11.3158 18.2067 10.7106 18.7028 10.3021L19.7072 9.47532C19.8487 9.35881 19.8853 9.15706 19.7936 8.9983L18.4966 6.75187C18.405 6.59311 18.212 6.52389 18.0403 6.5882L16.8234 7.04408C16.2202 7.27007 15.5858 7.15505 15.0967 6.85969C15.0323 6.82081 14.9672 6.78312 14.9012 6.74663C14.4022 6.4704 13.9864 5.97909 13.8806 5.34449L13.6671 4.06344C13.6369 3.88262 13.4805 3.75009 13.2972 3.75009H10.7032ZM12 9.75001C10.7573 9.75001 9.74997 10.7574 9.74997 12C9.74997 13.2427 10.7573 14.25 12 14.25C13.2426 14.25 14.25 13.2427 14.25 12C14.25 10.7574 13.2426 9.75001 12 9.75001ZM8.24997 12C8.24997 9.92894 9.9289 8.25001 12 8.25001C14.071 8.25001 15.75 9.92894 15.75 12C15.75 14.0711 14.071 15.75 12 15.75C9.9289 15.75 8.24997 14.0711 8.24997 12Z" fill="#020617"/>
</svg>
