<svg width="24" height="24" viewBox="0 0 24 24" fill="none" xmlns="http://www.w3.org/2000/svg">
<path fill-rule="evenodd" clip-rule="evenodd" d="M5.625 3C5.41789 3 5.25 3.16789 5.25 3.375V20.625C5.25 20.8321 5.41789 21 5.625 21H18.375C18.5821 21 18.75 20.8321 18.75 20.625V11.625C18.75 10.1753 17.5747 9 16.125 9H14.625C13.5895 9 12.75 8.16053 12.75 7.125V5.625C12.75 4.17525 11.5747 3 10.125 3H5.625ZM5.625 1.5C4.58947 1.5 3.75 2.33947 3.75 3.375V20.625C3.75 21.6605 4.58947 22.5 5.625 22.5H18.375C19.4105 22.5 20.25 21.6605 20.25 20.625V11.25C20.25 5.86522 15.8848 1.5 10.5 1.5H5.625ZM13.757 3.66785C14.0715 4.25019 14.25 4.91675 14.25 5.625V7.125C14.25 7.33211 14.4179 7.5 14.625 7.5H16.125C16.8332 7.5 17.4998 7.6785 18.0822 7.99296C17.2488 6.05549 15.6945 4.50123 13.757 3.66785ZM12 10.5C12.4142 10.5 12.75 10.8358 12.75 11.25V13.5H15C15.4142 13.5 15.75 13.8358 15.75 14.25C15.75 14.6642 15.4142 15 15 15H12.75V17.25C12.75 17.6642 12.4142 18 12 18C11.5858 18 11.25 17.6642 11.25 17.25V15H9C8.58579 15 8.25 14.6642 8.25 14.25C8.25 13.8358 8.58579 13.5 9 13.5H11.25V11.25C11.25 10.8358 11.5858 10.5 12 10.5Z" fill="#020617"/>
</svg>
