<svg width="24" height="24" viewBox="0 0 24 24" fill="none" xmlns="http://www.w3.org/2000/svg">
<path fill-rule="evenodd" clip-rule="evenodd" d="M12 3.75C7.44365 3.75 3.75 7.44365 3.75 12C3.75 16.5563 7.44365 20.25 12 20.25C16.5563 20.25 20.25 16.5563 20.25 12C20.25 7.44365 16.5563 3.75 12 3.75ZM2.25 12C2.25 6.61522 6.61522 2.25 12 2.25C17.3848 2.25 21.75 6.61522 21.75 12C21.75 17.3848 17.3848 21.75 12 21.75C6.61522 21.75 2.25 17.3848 2.25 12ZM12 8.25C12.4142 8.25 12.75 8.58579 12.75 9V12.75C12.75 13.1642 12.4142 13.5 12 13.5C11.5858 13.5 11.25 13.1642 11.25 12.75V9C11.25 8.58579 11.5858 8.25 12 8.25ZM11.25 15.75C11.25 15.3358 11.5858 15 12 15H12.0075C12.4217 15 12.7575 15.3358 12.7575 15.75V15.7575C12.7575 16.1717 12.4217 16.5075 12.0075 16.5075H12C11.5858 16.5075 11.25 16.1717 11.25 15.7575V15.75Z" fill="#020617"/>
</svg>
