<svg width="24" height="24" viewBox="0 0 24 24" fill="none" xmlns="http://www.w3.org/2000/svg">
<path fill-rule="evenodd" clip-rule="evenodd" d="M2.73432 2.59839C2.92771 2.40192 3.2133 2.32738 3.47804 2.40429C10.1767 4.35019 16.3974 7.41815 21.9233 11.3908C22.1193 11.5317 22.2355 11.7583 22.2355 11.9997C22.2355 12.2411 22.1193 12.4678 21.9233 12.6087C16.3974 16.5814 10.1767 19.6494 3.47814 21.5954C3.2134 21.6723 2.92781 21.5978 2.73441 21.4013C2.54102 21.2048 2.471 20.9181 2.55207 20.6546L5.21504 12L2.55198 3.34508C2.47091 3.08159 2.54093 2.79486 2.73432 2.59839ZM6.55367 12.75L4.40041 19.7481C10.0795 17.9504 15.3886 15.3199 20.1845 11.9997C15.3886 8.67961 10.0794 6.04921 4.40031 4.2516L6.55367 11.25L13.5 11.25C13.9142 11.25 14.25 11.5858 14.25 12C14.25 12.4142 13.9142 12.75 13.5 12.75L6.55367 12.75Z" fill="#020617"/>
</svg>
