<svg width="24" height="24" viewBox="0 0 24 24" fill="none" xmlns="http://www.w3.org/2000/svg">
<path fill-rule="evenodd" clip-rule="evenodd" d="M12 3.75C7.44365 3.75 3.75 7.44365 3.75 12C3.75 16.5563 7.44365 20.25 12 20.25C16.5563 20.25 20.25 16.5563 20.25 12C20.25 7.44365 16.5563 3.75 12 3.75ZM2.25 12C2.25 6.61522 6.61522 2.25 12 2.25C17.3848 2.25 21.75 6.61522 21.75 12C21.75 17.3848 17.3848 21.75 12 21.75C6.61522 21.75 2.25 17.3848 2.25 12ZM13.6277 8.08328C12.7389 7.30557 11.2616 7.30557 10.3728 8.08328C10.0611 8.35604 9.58724 8.32445 9.31447 8.01272C9.04171 7.701 9.0733 7.22717 9.38503 6.95441C10.8394 5.68186 13.1611 5.68186 14.6154 6.95441C16.1285 8.27835 16.1285 10.4717 14.6154 11.7956C14.3588 12.0202 14.0761 12.2041 13.778 12.3484C13.1018 12.6756 12.7502 13.1222 12.7502 13.5V14.25C12.7502 14.6642 12.4144 15 12.0002 15C11.586 15 11.2502 14.6642 11.2502 14.25V13.5C11.2502 12.221 12.3095 11.3926 13.1246 10.9982C13.3073 10.9098 13.4765 10.799 13.6277 10.6667C14.4577 9.94041 14.4577 8.8096 13.6277 8.08328ZM11.25 17.25C11.25 16.8358 11.5858 16.5 12 16.5H12.0075C12.4217 16.5 12.7575 16.8358 12.7575 17.25V17.2575C12.7575 17.6717 12.4217 18.0075 12.0075 18.0075H12C11.5858 18.0075 11.25 17.6717 11.25 17.2575V17.25Z" fill="#020617"/>
</svg>
