<svg width="24" height="24" viewBox="0 0 24 24" fill="none" xmlns="http://www.w3.org/2000/svg">
<path fill-rule="evenodd" clip-rule="evenodd" d="M11.6444 1.58965C11.8664 1.47012 12.1336 1.47012 12.3556 1.58965L22.1056 6.83965C22.3485 6.97046 22.5 7.22409 22.5 7.5C22.5 7.77591 22.3485 8.02954 22.1056 8.16035L19.1534 9.75L22.1056 11.3396C22.3485 11.4705 22.5 11.7241 22.5 12C22.5 12.2759 22.3485 12.5295 22.1056 12.6604L19.1534 14.25L22.1056 15.8396C22.3485 15.9705 22.5 16.2241 22.5 16.5C22.5 16.7759 22.3485 17.0295 22.1056 17.1604L12.3556 22.4104C12.1336 22.5299 11.8664 22.5299 11.6444 22.4104L1.89443 17.1604C1.65149 17.0295 1.5 16.7759 1.5 16.5C1.5 16.2241 1.65149 15.9705 1.89443 15.8396L4.84663 14.25L1.89443 12.6604C1.65149 12.5295 1.5 12.2759 1.5 12C1.5 11.7241 1.65149 11.4705 1.89443 11.3396L4.84663 9.75L1.89443 8.16035C1.65149 8.02954 1.5 7.77591 1.5 7.5C1.5 7.22409 1.65149 6.97046 1.89443 6.83965L11.6444 1.58965ZM6.42857 10.6018L3.83195 12L12 16.3982L20.1681 12L17.5714 10.6018L12.3556 13.4104C12.1336 13.5299 11.8664 13.5299 11.6444 13.4104L6.42857 10.6018ZM6.42857 15.1018L3.83195 16.5L12 20.8982L20.1681 16.5L17.5714 15.1018L12.3556 17.9104C12.1336 18.0299 11.8664 18.0299 11.6444 17.9104L6.42857 15.1018ZM3.83194 7.5L12 11.8982L20.1681 7.5L12 3.10182L3.83194 7.5Z" fill="#020617"/>
</svg>
