<svg width="24" height="24" viewBox="0 0 24 24" fill="none" xmlns="http://www.w3.org/2000/svg">
<path fill-rule="evenodd" clip-rule="evenodd" d="M12 3C11.4523 3 10.9068 3.00876 10.3634 3.02614C9.60878 3.05028 9 3.68393 9 4.47819V4.59082C9.99236 4.53056 10.9927 4.5 12 4.5C13.0073 4.5 14.0076 4.53056 15 4.59082V4.47819C15 3.68393 14.3912 3.05028 13.6366 3.02614C13.0932 3.00876 12.5477 3 12 3ZM16.5 4.70498V4.47819C16.5 2.91371 15.2875 1.57818 13.6846 1.52691C13.1252 1.50901 12.5636 1.5 12 1.5C11.4364 1.5 10.8748 1.50901 10.3154 1.52691C8.71253 1.57818 7.5 2.91371 7.5 4.47819V4.70498C6.54527 4.79237 5.59846 4.90731 4.66036 5.04898C4.31302 5.10143 3.96689 5.15755 3.62199 5.2173C3.21385 5.28799 2.94031 5.67617 3.01101 6.0843C3.0817 6.49244 3.46988 6.76598 3.87801 6.69529C3.94762 6.68323 4.01727 6.67132 4.08698 6.65957L5.09241 19.7301C5.21264 21.2931 6.51596 22.5 8.08357 22.5H15.9164C17.484 22.5 18.7874 21.2931 18.9076 19.7301L19.913 6.65957C19.9827 6.67132 20.0524 6.68323 20.122 6.69529C20.5301 6.76598 20.9183 6.49244 20.989 6.0843C21.0597 5.67617 20.7861 5.28799 20.378 5.2173C20.0331 5.15755 19.687 5.10143 19.3396 5.04898C18.4015 4.90731 17.4547 4.79237 16.5 4.70498ZM18.426 6.43321C17.5227 6.3104 16.6111 6.21311 15.6922 6.14209C14.474 6.04796 13.2427 6 12 6C10.7573 6 9.52602 6.04796 8.30778 6.14209C7.38885 6.21311 6.47735 6.3104 5.574 6.43321L6.58799 19.615C6.6481 20.3965 7.29977 21 8.08357 21H15.9164C16.7002 21 17.3519 20.3965 17.412 19.615L18.426 6.43321ZM9.23079 8.25055C9.6447 8.23463 9.99314 8.55727 10.0091 8.97118L10.3552 17.9712C10.3711 18.3851 10.0485 18.7335 9.63459 18.7494C9.22069 18.7654 8.87224 18.4427 8.85632 18.0288L8.51017 9.02882C8.49425 8.61492 8.81688 8.26647 9.23079 8.25055ZM14.7692 8.25055C15.1831 8.26647 15.5058 8.61492 15.4898 9.02882L15.1437 18.0288C15.1278 18.4427 14.7793 18.7654 14.3654 18.7494C13.9515 18.7335 13.6289 18.3851 13.6448 17.9712L13.9909 8.97118C14.0069 8.55727 14.3553 8.23463 14.7692 8.25055Z" fill="#020617"/>
</svg>
