<svg id="Слой_1" style="enable-background:new 0 0 421.8 361.1;" version="1.1" viewBox="0 0 421.8 361.1" x="0px" xml:space="preserve" xmlns="http://www.w3.org/2000/svg" xmlns:xlink="http://www.w3.org/1999/xlink" y="0px">
 <style type="text/css">
  .st0{fill:#FF642D;}
 </style>
 <g>
  <path class="st0" d="M295.7,179.5c0,4.9-2.5,5.7-8.7,5.7c-6.6,0-7.8-1.1-8.5-6.1c-1.3-12.7-9.9-23.5-24.3-24.7
		c-4.6-0.4-5.7-2.1-5.7-7.8c0-5.3,0.8-7.8,4.9-7.8C278.4,138.9,295.7,159,295.7,179.5z M332.1,179.5c0-38.1-25.8-78.4-85.4-78.4
		H128.3c-2.4,0-3.9,1.2-3.9,3.4c0,1.2,0.9,2.3,1.7,2.9c4.3,3.4,10.7,7.2,19.1,11.4c8.2,4.1,14.6,6.8,21,9.4c2.7,1.1,3.7,2.3,3.7,3.8
		c0,2.1-1.5,3.4-4.4,3.4h-94c-2.8,0-4.1,1.8-4.1,3.6c0,1.5,0.5,2.8,1.8,4.1c7.6,8,19.8,17.6,37.5,28.7c15.5,9.7,34.7,20.2,50,27.5
		c2.6,1.2,3.4,2.6,3.4,4.1c-0.1,1.7-1.4,3.1-4.4,3.1h-43.1c-2.4,0-3.8,1.3-3.8,3.3c0,1.1,0.9,2.5,2.1,3.6
		c9.8,8.9,25.5,18.6,46.4,27.5c27.9,11.9,56.2,19,88,19C305.6,259.9,332.1,214.8,332.1,179.5z M253.4,233.6
		c-29.6,0-54.3-24.1-54.3-54.1c0-29.6,24.7-53.3,54.3-53.3c30.4,0,54.1,23.7,54.1,53.3C307.4,209.5,283.7,233.6,253.4,233.6z">
  </path>
 </g>
</svg>
