<svg width="24" height="25" viewBox="0 0 24 25" fill="none" xmlns="http://www.w3.org/2000/svg">
<path fill-rule="evenodd" clip-rule="evenodd" d="M14.9736 2.28374C15.8053 2.03595 16.707 2.01634 17.5 2.47417C18.2929 2.93206 18.7266 3.72284 18.9277 4.56694C19.1282 5.40839 19.1243 6.39431 18.9746 7.43316C18.9464 7.62922 18.9102 7.82857 18.8711 8.03179C19.0671 8.0997 19.258 8.16899 19.4424 8.24273C20.4168 8.6325 21.2729 9.12209 21.9014 9.71636C22.5317 10.3126 22.9998 11.084 23 11.9996C23 12.9152 22.5317 13.6865 21.9014 14.2828C21.2729 14.8771 20.4169 15.3666 19.4424 15.7564C19.2581 15.8301 19.0671 15.8994 18.8711 15.9673C18.9102 16.1709 18.9463 16.3706 18.9746 16.5669C19.1243 17.6058 19.1282 18.5917 18.9277 19.4332C18.7266 20.2773 18.293 21.068 17.5 21.5259C16.707 21.9838 15.8053 21.9642 14.9736 21.7164C14.1447 21.4693 13.2926 20.9728 12.4678 20.3238C12.312 20.2012 12.1566 20.0707 12 19.9351C11.8434 20.0707 11.688 20.2012 11.5322 20.3238C10.7074 20.9728 9.85531 21.4693 9.02637 21.7164C8.19474 21.9642 7.29299 21.9838 6.5 21.5259C5.70704 21.068 5.27345 20.2773 5.07227 19.4332C4.87178 18.5917 4.87572 17.6058 5.02539 16.5669C5.05367 16.3707 5.0888 16.1708 5.12793 15.9673C4.93227 15.8995 4.74165 15.83 4.55762 15.7564C3.58313 15.3666 2.72709 14.8771 2.09863 14.2828C1.46826 13.6865 1 12.9152 1 11.9996C1.00015 11.084 1.46825 10.3126 2.09863 9.71636C2.7271 9.12209 3.58318 8.6325 4.55762 8.24273C4.74169 8.1691 4.93223 8.09961 5.12793 8.03179C5.08887 7.82863 5.05363 7.62916 5.02539 7.43316C4.87572 6.39431 4.8718 5.40839 5.07227 4.56694C5.27344 3.72283 5.70707 2.93206 6.5 2.47417C7.29299 2.01634 8.19474 2.03595 9.02637 2.28374C9.85532 2.53084 10.7074 3.02727 11.5322 3.67632C11.6879 3.7988 11.8436 3.92859 12 4.06402C12.1564 3.92858 12.3121 3.7988 12.4678 3.67632C13.2926 3.02727 14.1447 2.53084 14.9736 2.28374ZM7.06055 16.5015C7.03945 16.62 7.02139 16.7366 7.00488 16.8511C6.87662 17.7414 6.89522 18.4567 7.01758 18.9703C7.13928 19.4804 7.33666 19.7002 7.5 19.7945C7.66339 19.8888 7.95245 19.95 8.45508 19.8003C8.96101 19.6495 9.58906 19.3077 10.2959 18.7515C10.3866 18.6801 10.4775 18.6052 10.5693 18.5279C10.1047 18.0143 9.64666 17.4506 9.20117 16.8453C8.45436 16.7621 7.73747 16.6471 7.06055 16.5015ZM16.9385 16.5015C16.2615 16.6471 15.5447 16.7621 14.7979 16.8453C14.3523 17.4506 13.8944 18.0143 13.4297 18.5279C13.5217 18.6054 13.6132 18.68 13.7041 18.7515C14.4109 19.3077 15.039 19.6495 15.5449 19.8003C16.0476 19.95 16.3366 19.8888 16.5 19.7945C16.6633 19.7002 16.8607 19.4804 16.9824 18.9703C17.1048 18.4567 17.1234 17.7414 16.9951 16.8511C16.9786 16.7366 16.9596 16.62 16.9385 16.5015ZM12 16.9996C11.9619 16.9996 11.9238 16.9978 11.8857 16.9976C11.9235 17.0406 11.9612 17.0833 11.999 17.1255C12.037 17.0832 12.0753 17.0408 12.1133 16.9976C12.0756 16.9978 12.0378 16.9996 12 16.9996ZM12 8.99956C11.4183 8.99956 10.8509 9.02188 10.3018 9.06109C9.9938 9.51631 9.69271 9.99666 9.40234 10.4996C9.1119 11.0026 8.84581 11.5041 8.60547 11.9986C8.84608 12.4937 9.11148 12.9958 9.40234 13.4996C9.69267 14.0024 9.99384 14.4828 10.3018 14.938C10.8509 14.9772 11.4183 14.9996 12 14.9996C12.5814 14.9996 13.1484 14.9772 13.6973 14.938C14.0053 14.4827 14.3072 14.0026 14.5977 13.4996C14.8884 12.9959 15.153 12.4936 15.3936 11.9986C15.1533 11.5042 14.888 11.0025 14.5977 10.4996C14.3072 9.9965 14.0053 9.51645 13.6973 9.06109C13.1485 9.02193 12.5814 8.99956 12 8.99956ZM16.3301 14.4996C16.311 14.5326 16.2907 14.5653 16.2715 14.5982C16.3279 14.5869 16.3838 14.5747 16.4395 14.563C16.4217 14.5089 16.4042 14.4545 16.3857 14.4C16.3669 14.4329 16.3491 14.4666 16.3301 14.4996ZM7.55957 14.563C7.61519 14.5747 7.6712 14.5859 7.72754 14.5972C7.70858 14.5647 7.68878 14.5322 7.66992 14.4996C7.6508 14.4664 7.63222 14.4331 7.61328 14.4C7.59484 14.4545 7.57728 14.5089 7.55957 14.563ZM18.3682 9.97319C18.1558 10.6324 17.8972 11.311 17.5957 11.9996C17.897 12.6877 18.1558 13.366 18.3682 14.025C18.4812 13.984 18.5919 13.9429 18.6992 13.9C19.5342 13.5659 20.1438 13.1924 20.5273 12.8296C20.9083 12.4691 21 12.1882 21 11.9996C20.9999 11.8109 20.9082 11.5298 20.5273 11.1695C20.1438 10.8068 19.5342 10.4331 18.6992 10.0992C18.5918 10.0562 18.4814 10.0142 18.3682 9.97319ZM5.63086 9.97319C5.51795 10.0141 5.40796 10.0563 5.30078 10.0992C4.46585 10.4331 3.85624 10.8068 3.47266 11.1695C3.09178 11.5298 3.00014 11.8109 3 11.9996C3 12.1882 3.09166 12.4691 3.47266 12.8296C3.8562 13.1924 4.46576 13.5659 5.30078 13.9C5.40782 13.9428 5.51811 13.9841 5.63086 14.025C5.84322 13.3661 6.102 12.6877 6.40332 11.9996C6.10189 11.3111 5.84324 10.6324 5.63086 9.97319ZM7.55957 9.43609C7.57719 9.48989 7.59495 9.54398 7.61328 9.59819C7.63201 9.56543 7.65101 9.53231 7.66992 9.49956C7.68884 9.4668 7.70852 9.43452 7.72754 9.40191C7.67121 9.41318 7.61518 9.4244 7.55957 9.43609ZM16.3301 9.49956C16.3489 9.53217 16.3671 9.56558 16.3857 9.59819C16.4041 9.54397 16.4218 9.4899 16.4395 9.43609C16.3838 9.42439 16.3279 9.41221 16.2715 9.40093C16.2907 9.43393 16.3109 9.46641 16.3301 9.49956ZM8.45508 4.19976C7.9524 4.05004 7.66338 4.11132 7.5 4.20562C7.33665 4.29993 7.13928 4.51966 7.01758 5.02984C6.89522 5.54339 6.87662 6.25874 7.00488 7.14898C7.02135 7.26315 7.03952 7.37947 7.06055 7.49761C7.73748 7.35199 8.45436 7.23606 9.20117 7.15288C9.64668 6.5476 10.1047 5.98378 10.5693 5.47027C10.4778 5.39322 10.3863 5.31972 10.2959 5.24859C9.58906 4.69239 8.96101 4.35057 8.45508 4.19976ZM16.5 4.20562C16.3366 4.11132 16.0476 4.05004 15.5449 4.19976C15.039 4.35057 14.4109 4.69239 13.7041 5.24859C13.6135 5.31987 13.5214 5.39305 13.4297 5.47027C13.8944 5.98378 14.3523 6.54758 14.7979 7.15288C15.5447 7.23603 16.2615 7.35202 16.9385 7.49761C16.9595 7.37941 16.9786 7.26321 16.9951 7.14898C17.1234 6.25874 17.1048 5.54339 16.9824 5.02984C16.8607 4.51965 16.6634 4.29993 16.5 4.20562ZM11.8867 7.00054C11.9244 7.00038 11.9622 6.99956 12 6.99956C12.0375 6.99956 12.0749 7.00038 12.1123 7.00054C12.0745 6.95752 12.0368 6.9148 11.999 6.87261C11.9614 6.91464 11.9244 6.95769 11.8867 7.00054Z" fill="black"/>
</svg>
