<svg width="24" height="24" viewBox="0 0 24 24" fill="none" xmlns="http://www.w3.org/2000/svg">
<path d="M2 5.00087C8.66658 4.98813 15.3334 4.9878 22 5.00087V20.9991C15.3334 21.0123 8.66658 21.0126 2 20.9991V5.00087ZM4 7V19H20V7H4ZM14 16C15.6569 16 17 14.6569 17 13C17 11.3431 15.6569 10 14 10C12.3431 10 11 11.3431 11 13C11 14.6569 12.3431 16 14 16ZM14 18C11.2386 18 9 15.7614 9 13C9 10.2386 11.2386 8 14 8C16.7614 8 19 10.2386 19 13C19 15.7614 16.7614 18 14 18ZM5 2H10V4H5V2Z" fill="#111418"/>
</svg>
