<svg width="24" height="24" viewBox="0 0 24 24" fill="none" xmlns="http://www.w3.org/2000/svg">
<path d="M9.82975 5L7.82975 7H4.00132V19H20.0013V7H16.1729L14.1729 5H9.82975ZM9.00132 3H15.0013L17.0013 5H21.5013C22.0536 5 22.0013 4.94772 22.0013 5.5L22.0013 20.5C22.0013 21.0523 22.0536 21 21.5013 21H2.50134C1.94906 21 2.00132 21.0523 2.00132 20.5V5.5C2.00132 4.94772 1.94906 5 2.50134 5H7.00132L9.00132 3ZM12.0013 18C8.96375 18 6.50132 15.5376 6.50132 12.5C6.50132 9.46243 8.96375 7 12.0013 7C15.0389 7 17.5013 9.46243 17.5013 12.5C17.5013 15.5376 15.0389 18 12.0013 18ZM12.0013 16C13.9343 16 15.5013 14.433 15.5013 12.5C15.5013 10.567 13.9343 9 12.0013 9C10.0683 9 8.50132 10.567 8.50132 12.5C8.50132 14.433 10.0683 16 12.0013 16Z" fill="#111418"/>
</svg>
