<svg width="24" height="24" viewBox="0 0 24 24" fill="none" xmlns="http://www.w3.org/2000/svg">
<path d="M14 3C18.4183 3 22 6.58172 22 11C22 15.4183 18.4183 19 14 19V22.5C9 20.5 2 17.5 2 11C2 6.58172 5.58172 3 10 3H14ZM10 5C6.68629 5 4 7.68629 4 11C4 13.4077 5.25445 15.2576 7.33789 16.8477C8.7085 17.8936 10.3399 18.7461 12 19.4912V17H14C17.3137 17 20 14.3137 20 11C20 7.68629 17.3137 5 14 5H10ZM8 10C8.82843 10 9.5 10.6716 9.5 11.5C9.5 12.3284 8.82843 13 8 13C7.17157 13 6.5 12.3284 6.5 11.5C6.5 10.6716 7.17157 10 8 10ZM12 10C12.8284 10 13.5 10.6716 13.5 11.5C13.5 12.3284 12.8284 13 12 13C11.1716 13 10.5 12.3284 10.5 11.5C10.5 10.6716 11.1716 10 12 10ZM16 10C16.8284 10 17.5 10.6716 17.5 11.5C17.5 12.3284 16.8284 13 16 13C15.1716 13 14.5 12.3284 14.5 11.5C14.5 10.6716 15.1716 10 16 10Z" fill="#111418"/>
</svg>
