<svg width="24" height="24" viewBox="0 0 24 24" fill="none" xmlns="http://www.w3.org/2000/svg">
<path d="M22 17.0022C21.999 19.8731 19.9816 22.2726 17.2872 22.8616L16.6492 20.9476C17.8532 20.7511 18.8765 20.0171 19.4649 19H18C16.3431 19 15 17.6569 15 16C15 15.3333 15 14.6667 15 14C15 12.3431 16.3431 11 18 11H19.9381C19.446 7.05369 16.0796 4 12 4C7.92038 4 4.55399 7.05369 4.06189 11H6C7.65685 11 9 12.3431 9 14C9 14.6667 9 15.3333 9 16C9 17.6569 7.65685 19 6 19H4C2.89543 19 2 18.1046 2 17V12C2 6.47715 6.47715 2 12 2C17.5228 2 22 6.47715 22 12V12.9987V13V17V17.0022ZM20 17V13H18C17.4477 13 17 13.4477 17 14V16C17 16.5523 17.4477 17 18 17H20ZM4 13V17H6C6.55228 17 7 16.5523 7 16V14C7 13.4477 6.55228 13 6 13H4Z" fill="#111418"/>
</svg>
