<svg width="24" height="24" viewBox="0 0 24 24" fill="none" xmlns="http://www.w3.org/2000/svg">
<path d="M14.5998 8.00033H21C22.1046 8.00033 23 8.89576 23 10.0003V12.1047C23 12.3659 22.9488 12.6246 22.8494 12.8662L19.755 20.3811C19.6007 20.7558 19.2355 21.0003 18.8303 21.0003H1C1.00013 17.0003 1.00013 13.0003 1 9.00033H5.48185C5.80678 9.00033 6.11144 8.84246 6.29882 8.57701L11.7522 0.851355C11.8947 0.649486 12.1633 0.581978 12.3843 0.692483L14.1984 1.59951C15.25 2.12534 15.7931 3.31292 15.5031 4.45235L14.5998 8.00033ZM7.00001 10.5878V19.0003H18.1606L21 12.1047V10.0003H14.5998C13.2951 10.0003 12.3398 8.77128 12.6616 7.50691L13.5649 3.95894C13.6229 3.73105 13.5143 3.49353 13.3039 3.38837L12.6428 3.0578L7.93276 9.73038C7.68286 10.0844 7.36342 10.3746 7.00001 10.5878ZM5.00001 11.0003H3.00001V19.0003H5.00001V11.0003Z" fill="#111418"/>
</svg>
