<svg width="24" height="24" viewBox="0 0 24 24" fill="none" xmlns="http://www.w3.org/2000/svg">
<path fill-rule="evenodd" clip-rule="evenodd" d="M9.3483 5.71455C9.82325 5.81535 10.3186 5.73994 10.7421 5.50238L15.3514 2.91641L15.706 7.94358C15.7431 8.46954 15.9864 8.95958 16.383 9.30708L20.4018 12.8286L15.5717 14.7413C15.0584 14.9446 14.6519 15.3511 14.4486 15.8644L12.5357 20.6948L9.01417 16.6759C8.66668 16.2793 8.17664 16.036 7.65067 15.9989L2.6235 15.6443L5.20949 11.0349C5.44704 10.6115 5.52246 10.1162 5.42169 9.64126L4.36407 4.65675L9.3483 5.71455ZM11.0637 7.61518L13.5784 6.20439L13.7689 8.90535C13.806 9.43132 14.0493 9.92136 14.4459 10.2688L16.6209 12.1747L14.0308 13.2004C13.5175 13.4037 13.111 13.8101 12.9077 14.3235L11.8819 16.9139L9.97594 14.7388C9.62845 14.3422 9.13841 14.0989 8.61244 14.0618L5.91149 13.8713L7.32227 11.3566C7.55982 10.9332 7.63524 10.4379 7.53447 9.96294L6.95927 7.25207L9.66994 7.82736C10.1449 7.92816 10.6403 7.85274 11.0637 7.61518Z" fill="#111418"/>
<path d="M17.4348 16.0208L16.0206 17.435L20.2633 21.6776L21.6775 20.2634L17.4348 16.0208Z" fill="#111418"/>
</svg>
