<svg width="24" height="24" viewBox="0 0 24 24" fill="none" xmlns="http://www.w3.org/2000/svg">
<path d="M4.92893 19.0711C1.02369 15.1658 1.02372 8.83414 4.92893 4.92893C8.83418 1.02369 15.1658 1.02369 19.0711 4.92893C22.9763 8.83414 22.9763 15.1658 19.0711 19.0711C15.1659 22.9763 8.83414 22.9763 4.92893 19.0711ZM6.34315 17.6569C9.46736 20.7811 14.5326 20.7811 17.6569 17.6569C20.781 14.5327 20.7811 9.46736 17.6569 6.34315C14.5327 3.21895 9.46734 3.21895 6.34315 6.34315C3.21894 9.46736 3.21895 14.5327 6.34315 17.6569ZM13 11L17 11L17 13L13 13V17H11V13L7.00003 13L7.00002 11L11 11L11 7H13L13 11Z" fill="#111418"/>
</svg>
