<svg width="24" height="24" viewBox="0 0 24 24" fill="none" xmlns="http://www.w3.org/2000/svg">
<path d="M12 2C17.5228 2 22 6.47715 22 12C22 17.5228 17.5228 22 12 22H2L4.92871 19.0713C3.11908 17.2616 2 14.7614 2 12C2 6.47715 6.47715 2 12 2ZM12 4C7.58172 4 4 7.58172 4 12C4 14.1524 4.85088 16.1652 6.34277 17.6572L7.75781 19.0713L6.82812 20H12C16.4183 20 20 16.4183 20 12C20 7.58172 16.4183 4 12 4ZM16 13C16 15.2091 14.2091 17 12 17C9.79086 17 8 15.2091 8 13H16ZM8.75 9C9.40589 9 10.0235 9.30845 10.374 9.83301C10.604 10.1774 10.5113 10.6439 10.167 10.874C9.82261 11.1038 9.356 11.0112 9.12598 10.667C9.07712 10.594 8.94841 10.5 8.75 10.5C8.55165 10.5001 8.42276 10.594 8.37402 10.667C8.1439 11.0112 7.67735 11.104 7.33301 10.874C6.98897 10.6439 6.89619 10.1773 7.12598 9.83301C7.47638 9.30844 8.09418 9.00012 8.75 9ZM15.25 9C15.9059 9 16.5235 9.30845 16.874 9.83301C17.104 10.1774 17.0113 10.6439 16.667 10.874C16.3226 11.1038 15.856 11.0112 15.626 10.667C15.5771 10.594 15.4484 10.5 15.25 10.5C15.0516 10.5001 14.9228 10.594 14.874 10.667C14.6439 11.0112 14.1774 11.104 13.833 10.874C13.489 10.6439 13.3962 10.1773 13.626 9.83301C13.9764 9.30844 14.5942 9.00012 15.25 9Z" fill="#111418"/>
</svg>
