<svg width="24" height="24" viewBox="0 0 24 24" fill="none" xmlns="http://www.w3.org/2000/svg">
<path d="M17 9.20001L23 5V19L17 14.8V19C11.6667 19 6.33333 19 1 19V5.00001C6.33333 4.99999 11.6667 4.99999 17 5.00001V9.20001ZM17 12C17 12.2248 17.1097 12.4355 17.2939 12.5644L21 15.1587V8.84132L17.2939 11.4356C17.1097 11.5645 17 11.7752 17 12ZM3 7.00001V17H15V7.00001H3ZM4 9.50001C4 8.67158 4.67157 8.00001 5.5 8.00001C6.32843 8.00001 7 8.67158 7 9.50001C7 10.3284 6.32843 11 5.5 11C4.67157 11 4 10.3284 4 9.50001Z" fill="#111418"/>
</svg>
