<svg width="24" height="24" viewBox="0 0 24 24" fill="none" xmlns="http://www.w3.org/2000/svg">
<path d="M6.60282 10.0001L10 7.22056V16.7796L6.60282 14.0001H3V10.0001H6.60282ZM1 16.0001H5.88889L12 21L12 3L5.88889 8.00007H1C1 10.6667 1 13.3334 1 16.0001ZM23 12C23 15.292 21.5539 18.2463 19.2622 20.2622L17.8445 18.8444C19.7758 17.1937 21 14.7398 21 12C21 9.26016 19.7758 6.80629 17.8445 5.15557L19.2622 3.73779C21.5539 5.75368 23 8.70795 23 12ZM18 12C18 10.0883 17.106 8.38548 15.7133 7.28673L14.2842 8.71584C15.3213 9.43855 16 10.64 16 12C16 13.36 15.3213 14.5614 14.2842 15.2841L15.7133 16.7132C17.106 15.6145 18 13.9116 18 12Z" fill="#111418"/>
</svg>
