<svg fill="none" height="64" viewBox="0 0 160 64" width="160" xmlns="http://www.w3.org/2000/svg" xmlns:xlink="http://www.w3.org/1999/xlink"><clipPath id="a"><path d="m30.71 22h98.5805v20h-98.5805z"/></clipPath><g clip-path="url(#a)" fill="#0540ff"><path d="m37.8723 42.0008c-.3766-.0008-.7467-.0978-1.0752-.2818-.3285-.1841-.6045-.4491-.8018-.7698-.1973-.3208-.3093-.6866-.3253-1.0628-.0161-.3763.0643-.7503.2335-1.0867l4.8777-9.6817c.2697-.5121.7296-.8979 1.2808-1.0744.5512-.1764 1.1497-.1295 1.6666.1308.5169.2602.9111.713 1.0976 1.2609.1865.5478.1506 1.147-.1002 1.6687l-4.8787 9.6801c-.1844.3657-.4669.6729-.8159.8873-.3489.2144-.7506.3275-1.1602.3268z" opacity=".35"/><path d="m117.248 41.9997c-.377-.0008-.747-.0979-1.075-.282-.329-.1841-.605-.4491-.802-.7698s-.309-.6866-.325-1.0627c-.016-.3762.064-.7502.234-1.0866l4.878-9.6801c.268-.5146.728-.9028 1.28-1.0809.553-.178 1.153-.1314 1.671.1296s.912.7156 1.098 1.2653c.185.5497.147 1.1503-.107 1.672l-4.879 9.6801c-.184.3655-.466.6726-.814.8872-.349.2146-.75.3281-1.159.3279z" opacity=".35"/><path d="m47.7066 41.9992c-.4063-.0001-.8048-.1124-1.1515-.3245-.3466-.2121-.628-.5158-.813-.8776l-4.9561-9.6796c-.1322-.258-.2124-.5394-.2358-.8283-.0234-.289.0103-.5797.0992-.8556.1795-.5572.5731-1.0202 1.094-1.2872.521-.2671 1.1267-.3162 1.6839-.1367.2759.0889.5316.2313.7525.419.2208.1878.4026.4172.5348.6751l2.979 5.8127 2.9236-5.8012c.2637-.5231.7244-.92 1.2808-1.1035.5563-.1834 1.1628-.1383 1.6859.1254s.92.7244 1.1034 1.2808c.1835.5564.1384 1.1628-.1253 1.6859l-4.8788 9.6802c-.1833.3639-.4639.67-.8106.8842s-.7459.3282-1.1534.3293z"/><path d="m37.8761 41.9982c-.4067.0002-.8055-.1119-1.1524-.3241-.347-.2121-.6286-.5159-.8137-.878l-4.9567-9.678c-.2669-.521-.316-1.1267-.1364-1.6838.1796-.5572.5732-1.0201 1.0942-1.2871.5209-.267 1.1266-.316 1.6838-.1364.5571.1796 1.0201.5731 1.287 1.0941l4.9561 9.6802c.1719.3363.2547.7112.2404 1.0887s-.1252.745-.3221 1.0674-.4732.5889-.8024.774c-.3293.1852-.7006.2828-1.0783.2835z"/><path d="m107.413 41.9996c-.377-.0008-.747-.0979-1.075-.282-.329-.1841-.605-.4491-.802-.7698-.197-.3208-.309-.6866-.325-1.0628-.016-.3761.064-.7502.234-1.0865l4.877-9.6802c.183-.364.464-.67.81-.8843.347-.2142.746-.3281 1.154-.3292h.007c.406 0 .804.1123 1.151.3244.346.2121.628.5158.813.8776l4.956 9.6802c.267.5209.316 1.1266.136 1.6838-.179.5571-.573 1.0201-1.094 1.2871-.521.2669-1.127.316-1.684.1364s-1.02-.5732-1.287-1.0941l-2.976-5.8138-2.921 5.8012c-.184.3651-.467.6717-.815.8857-.349.214-.75.3269-1.159.3263z"/><path d="m127.086 41.9982c-.406.0002-.805-.1119-1.152-.324-.347-.2122-.628-.516-.814-.878l-4.956-9.6802c-.132-.258-.212-.5394-.235-.8283-.024-.2889.01-.5796.099-.8555s.231-.5315.419-.7524c.188-.2208.417-.4025.675-.5347s.539-.2123.828-.2357.58.0103.856.0993c.276.0889.531.2313.752.419.221.1878.403.4172.535.6751l4.956 9.6802c.172.3364.255.7112.24 1.0887-.014.3775-.125.745-.322 1.0674s-.473.5889-.802.7741c-.329.1851-.701.2827-1.079.2834z"/><path d="m86.4769 38.1448-4.4638-3.4896 4.4142-2.9612c.4606-.3088.7798-.788.8871-1.3321.1074-.5441-.0058-1.1086-.3146-1.5693s-.788-.7798-1.3321-.8872c-.5441-.1073-1.1086.0058-1.5693.3147l-6.1341 4.1125v-8.1446c0-.5802-.2305-1.1367-.6408-1.547-.4102-.4103-.9667-.6408-1.5469-.6408s-1.1367.2305-1.5469.6408c-.4103.4103-.6408.9668-.6408 1.547v15.5655c0 .5802.2305 1.1366.6408 1.5469.4102.4103.9667.6408 1.5469.6408s1.1367-.2305 1.5469-.6408c.4103-.4103.6408-.9667.6408-1.5469v-2.9524l5.9371 4.6363c.2154.1767.464.3085.7311.3878s.5474.1043.8243.0737c.277-.0306.545-.1162.7884-.2519.2433-.1357.4571-.3186.6288-.5381.1716-.2195.2977-.471.3707-.7399s.0915-.5497.0545-.8258c-.037-.2762-.1289-.5422-.2702-.7823s-.3292-.4496-.5526-.6161z"/><path d="m70.2407 34.9132c-.0092-1.5321-.5207-3.0189-1.4559-4.2325s-2.2427-2.087-3.7219-2.4864c-1.4791-.3993-3.0485-.3025-4.4674.2755s-2.6091 1.6054-3.3882 2.9247-1.104 2.8577-.9249 4.3793c.179 1.5217.8521 2.9426 1.9161 4.0451 1.0639 1.1024 2.4601 1.8255 3.9744 2.0584 1.5144.233 3.0633-.0371 4.4094-.7689.2465.3496.5979.6115 1.0033.7479s.8436.1401 1.2513.0107c.4076-.1295.7635-.3854 1.0159-.7307s.3883-.762.3879-1.1897zm-7.0032 3.0976c-.605 0-1.1964-.1794-1.6995-.5155-.503-.3361-.8951-.8139-1.1266-1.3728-.2315-.559-.2921-1.174-.1741-1.7674s.4094-1.1385.8372-1.5663.9728-.7191 1.5662-.8371c.5934-.1181 1.2084-.0575 1.7674.174.5589.2316 1.0367.6236 1.3728 1.1267.3361.503.5155 1.0944.5155 1.6994 0 .8113-.3222 1.5894-.8959 2.1631-.5737.5736-1.3517.8959-2.163.8959z"/><path d="m103.231 34.9132c-.01-1.5321-.521-3.0189-1.456-4.2325-.936-1.2136-2.2431-2.087-3.7223-2.4864-1.4792-.3993-3.0485-.3025-4.4674.2755-1.419.578-2.6092 1.6054-3.3882 2.9247-.7791 1.3193-1.104 2.8577-.925 4.3793.179 1.5217.8521 2.9426 1.9161 4.0451 1.064 1.1024 2.4602 1.8255 3.9745 2.0584 1.5143.233 3.0633-.0371 4.4094-.7689.2467.3492.5979.6108 1.0029.747.406.1362.844.1398 1.251.0104.408-.1294.763-.3851 1.016-.7302.252-.345.388-.7614.389-1.189zm-7.0037 3.0976c-.6051 0-1.1965-.1794-1.6995-.5155-.5031-.3361-.8951-.8139-1.1267-1.3728-.2315-.559-.2921-1.174-.174-1.7674.118-.5934.4094-1.1385.8372-1.5663s.9728-.7191 1.5662-.8371c.5934-.1181 1.2084-.0575 1.7674.174.5589.2316 1.0366.6236 1.3728 1.1267.3361.503.5155 1.0944.5155 1.6994 0 .8113-.3223 1.5894-.896 2.1631-.5736.5736-1.3517.8959-2.1629.8959z"/></g></svg>