<svg width="1512" height="892" viewBox="0 0 1512 892" fill="none" xmlns="http://www.w3.org/2000/svg">
<g clip-path="url(#clip0_2393_1934)">
<path d="M72 0H0V892H72V0Z" fill="url(#paint0_linear_2393_1934)" fill-opacity="0.6"/>
<path d="M144 74H72V892H144V74Z" fill="url(#paint1_linear_2393_1934)" fill-opacity="0.6"/>
<path d="M216 149H144V892H216V149Z" fill="url(#paint2_linear_2393_1934)" fill-opacity="0.6"/>
<path d="M288 223H216V892H288V223Z" fill="url(#paint3_linear_2393_1934)" fill-opacity="0.6"/>
<path d="M360 287H288V892H360V287Z" fill="url(#paint4_linear_2393_1934)" fill-opacity="0.6"/>
<path d="M432 352H360V892H432V352Z" fill="url(#paint5_linear_2393_1934)" fill-opacity="0.6"/>
<path d="M504 344H432V892H504V344Z" fill="url(#paint6_linear_2393_1934)" fill-opacity="0.6"/>
<path d="M576 344H504V892H576V344Z" fill="url(#paint7_linear_2393_1934)" fill-opacity="0.6"/>
<path d="M648 344H576V892H648V344Z" fill="url(#paint8_linear_2393_1934)" fill-opacity="0.6"/>
<path d="M720 344H648V892H720V344Z" fill="url(#paint9_linear_2393_1934)" fill-opacity="0.6"/>
<path d="M792 344H720V892H792V344Z" fill="url(#paint10_linear_2393_1934)" fill-opacity="0.6"/>
<path d="M864 344H792V892H864V344Z" fill="url(#paint11_linear_2393_1934)" fill-opacity="0.6"/>
<path d="M936 344H864V892H936V344Z" fill="url(#paint12_linear_2393_1934)" fill-opacity="0.6"/>
<path d="M1008 344H936V892H1008V344Z" fill="url(#paint13_linear_2393_1934)" fill-opacity="0.6"/>
<path d="M1080 344H1008V892H1080V344Z" fill="url(#paint14_linear_2393_1934)" fill-opacity="0.6"/>
<path d="M1152 352H1080V892H1152V352Z" fill="url(#paint15_linear_2393_1934)" fill-opacity="0.6"/>
<path d="M1224 287H1152V892H1224V287Z" fill="url(#paint16_linear_2393_1934)" fill-opacity="0.6"/>
<path d="M1296 223H1224V892H1296V223Z" fill="url(#paint17_linear_2393_1934)" fill-opacity="0.6"/>
<path d="M1368 149H1296V892H1368V149Z" fill="url(#paint18_linear_2393_1934)" fill-opacity="0.6"/>
<path d="M1440 74H1368V892H1440V74Z" fill="url(#paint19_linear_2393_1934)" fill-opacity="0.6"/>
<path d="M1512 0H1440V892H1512V0Z" fill="url(#paint20_linear_2393_1934)" fill-opacity="0.6"/>
</g>
<defs>
<linearGradient id="paint0_linear_2393_1934" x1="36" y1="0" x2="36" y2="892" gradientUnits="userSpaceOnUse">
<stop offset="0.13" stop-color="white" stop-opacity="0"/>
<stop offset="0.41" stop-color="#CAEBFF"/>
<stop offset="1" stop-color="white" stop-opacity="0"/>
</linearGradient>
<linearGradient id="paint1_linear_2393_1934" x1="108" y1="74" x2="108" y2="892" gradientUnits="userSpaceOnUse">
<stop offset="0.13" stop-color="white" stop-opacity="0"/>
<stop offset="0.41" stop-color="#CAEBFF"/>
<stop offset="1" stop-color="white" stop-opacity="0"/>
</linearGradient>
<linearGradient id="paint2_linear_2393_1934" x1="180" y1="149" x2="180" y2="892" gradientUnits="userSpaceOnUse">
<stop offset="0.13" stop-color="white" stop-opacity="0"/>
<stop offset="0.41" stop-color="#CAEBFF"/>
<stop offset="1" stop-color="white" stop-opacity="0"/>
</linearGradient>
<linearGradient id="paint3_linear_2393_1934" x1="252" y1="223" x2="252" y2="892" gradientUnits="userSpaceOnUse">
<stop offset="0.13" stop-color="white" stop-opacity="0"/>
<stop offset="0.41" stop-color="#CAEBFF"/>
<stop offset="1" stop-color="white" stop-opacity="0"/>
</linearGradient>
<linearGradient id="paint4_linear_2393_1934" x1="324" y1="287" x2="324" y2="892" gradientUnits="userSpaceOnUse">
<stop offset="0.13" stop-color="white" stop-opacity="0"/>
<stop offset="0.41" stop-color="#CAEBFF"/>
<stop offset="1" stop-color="white" stop-opacity="0"/>
</linearGradient>
<linearGradient id="paint5_linear_2393_1934" x1="396" y1="352" x2="396" y2="892" gradientUnits="userSpaceOnUse">
<stop offset="0.13" stop-color="white" stop-opacity="0"/>
<stop offset="0.41" stop-color="#CAEBFF"/>
<stop offset="1" stop-color="white" stop-opacity="0"/>
</linearGradient>
<linearGradient id="paint6_linear_2393_1934" x1="468" y1="344" x2="468" y2="892" gradientUnits="userSpaceOnUse">
<stop offset="0.13" stop-color="white" stop-opacity="0"/>
<stop offset="0.41" stop-color="#CAEBFF"/>
<stop offset="1" stop-color="white" stop-opacity="0"/>
</linearGradient>
<linearGradient id="paint7_linear_2393_1934" x1="540" y1="344" x2="540" y2="892" gradientUnits="userSpaceOnUse">
<stop offset="0.13" stop-color="white" stop-opacity="0"/>
<stop offset="0.41" stop-color="#CAEBFF"/>
<stop offset="1" stop-color="white" stop-opacity="0"/>
</linearGradient>
<linearGradient id="paint8_linear_2393_1934" x1="612" y1="344" x2="612" y2="892" gradientUnits="userSpaceOnUse">
<stop offset="0.13" stop-color="white" stop-opacity="0"/>
<stop offset="0.41" stop-color="#CAEBFF"/>
<stop offset="1" stop-color="white" stop-opacity="0"/>
</linearGradient>
<linearGradient id="paint9_linear_2393_1934" x1="684" y1="344" x2="684" y2="892" gradientUnits="userSpaceOnUse">
<stop offset="0.13" stop-color="white" stop-opacity="0"/>
<stop offset="0.41" stop-color="#CAEBFF"/>
<stop offset="1" stop-color="white" stop-opacity="0"/>
</linearGradient>
<linearGradient id="paint10_linear_2393_1934" x1="756" y1="344" x2="756" y2="892" gradientUnits="userSpaceOnUse">
<stop offset="0.13" stop-color="white" stop-opacity="0"/>
<stop offset="0.41" stop-color="#CAEBFF"/>
<stop offset="1" stop-color="white" stop-opacity="0"/>
</linearGradient>
<linearGradient id="paint11_linear_2393_1934" x1="828" y1="344" x2="828" y2="892" gradientUnits="userSpaceOnUse">
<stop offset="0.13" stop-color="white" stop-opacity="0"/>
<stop offset="0.41" stop-color="#CAEBFF"/>
<stop offset="1" stop-color="white" stop-opacity="0"/>
</linearGradient>
<linearGradient id="paint12_linear_2393_1934" x1="900" y1="344" x2="900" y2="892" gradientUnits="userSpaceOnUse">
<stop offset="0.13" stop-color="white" stop-opacity="0"/>
<stop offset="0.41" stop-color="#CAEBFF"/>
<stop offset="1" stop-color="white" stop-opacity="0"/>
</linearGradient>
<linearGradient id="paint13_linear_2393_1934" x1="972" y1="344" x2="972" y2="892" gradientUnits="userSpaceOnUse">
<stop offset="0.13" stop-color="white" stop-opacity="0"/>
<stop offset="0.41" stop-color="#CAEBFF"/>
<stop offset="1" stop-color="white" stop-opacity="0"/>
</linearGradient>
<linearGradient id="paint14_linear_2393_1934" x1="1044" y1="344" x2="1044" y2="892" gradientUnits="userSpaceOnUse">
<stop offset="0.13" stop-color="white" stop-opacity="0"/>
<stop offset="0.41" stop-color="#CAEBFF"/>
<stop offset="1" stop-color="white" stop-opacity="0"/>
</linearGradient>
<linearGradient id="paint15_linear_2393_1934" x1="1116" y1="352" x2="1116" y2="892" gradientUnits="userSpaceOnUse">
<stop offset="0.13" stop-color="white" stop-opacity="0"/>
<stop offset="0.41" stop-color="#CAEBFF"/>
<stop offset="1" stop-color="white" stop-opacity="0"/>
</linearGradient>
<linearGradient id="paint16_linear_2393_1934" x1="1188" y1="287" x2="1188" y2="892" gradientUnits="userSpaceOnUse">
<stop offset="0.13" stop-color="white" stop-opacity="0"/>
<stop offset="0.41" stop-color="#CAEBFF"/>
<stop offset="1" stop-color="white" stop-opacity="0"/>
</linearGradient>
<linearGradient id="paint17_linear_2393_1934" x1="1260" y1="223" x2="1260" y2="892" gradientUnits="userSpaceOnUse">
<stop offset="0.13" stop-color="white" stop-opacity="0"/>
<stop offset="0.41" stop-color="#CAEBFF"/>
<stop offset="1" stop-color="white" stop-opacity="0"/>
</linearGradient>
<linearGradient id="paint18_linear_2393_1934" x1="1332" y1="149" x2="1332" y2="892" gradientUnits="userSpaceOnUse">
<stop offset="0.13" stop-color="white" stop-opacity="0"/>
<stop offset="0.41" stop-color="#CAEBFF"/>
<stop offset="1" stop-color="white" stop-opacity="0"/>
</linearGradient>
<linearGradient id="paint19_linear_2393_1934" x1="1404" y1="74" x2="1404" y2="892" gradientUnits="userSpaceOnUse">
<stop offset="0.13" stop-color="white" stop-opacity="0"/>
<stop offset="0.41" stop-color="#CAEBFF"/>
<stop offset="1" stop-color="white" stop-opacity="0"/>
</linearGradient>
<linearGradient id="paint20_linear_2393_1934" x1="1476" y1="0" x2="1476" y2="892" gradientUnits="userSpaceOnUse">
<stop offset="0.13" stop-color="white" stop-opacity="0"/>
<stop offset="0.41" stop-color="#CAEBFF"/>
<stop offset="1" stop-color="white" stop-opacity="0"/>
</linearGradient>
<clipPath id="clip0_2393_1934">
<rect width="1512" height="892" fill="white"/>
</clipPath>
</defs>
</svg>
