<svg fill="none" height="16" viewBox="0 0 16 16" width="16" xmlns="http://www.w3.org/2000/svg" xmlns:xlink="http://www.w3.org/1999/xlink"><clipPath id="a"><rect height="16" rx="2" width="16"/></clipPath><clipPath id="b"><path d="m0 0h16v16h-16z"/></clipPath><g clip-path="url(#a)"><rect fill="#fff" height="16" rx="2" width="16"/><g clip-path="url(#b)"><path d="m-4 0h24v16h-24z" fill="#00349a"/><g fill="#fecc00"><path d="m12.596 9.69531c.0759.04864.2064.54169.2375.64759.2198.0142.5361.0079.7561-.0041-.1792.1405-.4206.3139-.6067.4432.0793.2218.1423.4956.2375.7067-.1961-.146-.396-.2989-.6007-.4318-.0917.0448-.4679.3346-.5884.4175l.22-.691c-.1925-.1481-.4038-.2851-.588-.4403.2296.0127.4944.0009.7328.0084.0613-.2075.1575-.45023.1999-.65619z"/><path d="m7.98799 1.71094c.06863.05964.20108.52369.22836.63565.23784.00369.51428.00535.74855-.00728-.16319.14127-.41955.30902-.60332.45277.07933.1949.16454.48565.23271.69362-.19522-.14631-.38158-.28879-.58408-.42531-.11208.03614-.45936.32927-.60486.41575.07823-.22898.15441-.45866.2285-.68901-.18294-.14838-.40222-.2913-.59308-.44247.23406.00853.49352.00136.73284.0054.0704-.21339.14185-.42643.21438-.63912z"/><path d="m3.3796 9.69531c.0496.04433.1896.55209.2167.64979.24954.0009.49669.0031.74616-.0073-.18753.1547-.39887.2941-.59333.4454.06488.2243.14528.4693.21972.6911l-.56675-.4161c-.10437.0226-.50765.344-.62208.431.08122-.1961.16983-.5025.2341-.7118-.163-.1021-.43497-.315-.59908-.4351.24655.0039.49312.0054.7397.0044.07256-.2012.14283-.45972.22486-.65139z"/><path d="m5.33252 2.41406c.04096.03038.19824.5671.22302.64696.25118-.00182.5024-.0006.75358.00368-.20654.12994-.42041.29236-.61558.4388.07917.21772.15189.45581.22353.67752-.18431-.11733-.3987-.29175-.58913-.4204-.18678.14236-.4425.31761-.60726.47011.08283-.18701.17755-.57829.26062-.72587-.20011-.13434-.41051-.29884-.61631-.4405.24664-.00502.49334-.00549.74-.00142.06744-.20103.14681-.45789.22753-.64888z"/><path d="m10.6483 2.41406c.0807.07047.2023.52914.2346.64775l.7536-.0004c-.2086.15267-.4105.28654-.6141.44837.0907.18755.1626.49502.2492.71058-.1938-.16342-.3697-.28909-.5758-.4385l-.006-.00531c-.07-.01071-.5221.34684-.6116.41222.0731-.23041.1495-.45972.2293-.68788-.2005-.14689-.40388-.29975-.61219-.43447.24789-.00637.49589-.00819.74389-.00544.0733-.21662.1453-.42726.2091-.64692z"/><path d="m2.65323 7.02344c.07255.09239.19413.53314.23002.66404.24803.00207.50103-.00168.74947-.00284-.1998.13549-.40822.3037-.6095.42908.08253.20712.16368.49045.23412.70909-.19486-.15712-.38108-.29089-.58528-.43523-.03131.00251-.51591.36367-.58945.41264.06339-.21806.14934-.4621.22054-.68016-.13542-.11544-.44108-.32468-.59465-.42573.20534-.01683.51517-.00828.72882-.00761.07985-.21817.14416-.44219.21591-.66328z"/><path d="m13.3339 7.02344c.0309.02351.1956.57417.2228.66062l.742.00246c-.1878.12657-.4259.28815-.5978.43429.0492.18296.1537.49507.217.67016-.124-.0685-.5225-.3885-.5942-.40597-.195.14245-.3955.2857-.5836.43642.0558-.17262.1697-.56261.2388-.70442-.1616-.09966-.4349-.3107-.5993-.42825.2155-.01403.5085-.00514.7255-.00255.0703-.21256.1461-.45776.2288-.66276z"/><path d="m5.32837 11.6484c.04944.0365.19619.5623.22803.666.24188-.0006.48375.0001.72561.0024-.18331.1356-.39136.2864-.58137.4101.05417.1936.1504.5136.22119.6924-.11193-.0601-.47611-.3327-.57621-.4177-.19012.1215-.41456.2949-.59983.4309.05724-.1865.15652-.5316.23288-.6987-.11459-.0587-.45536-.3198-.60294-.4168.24321-.0039.48647-.004.72969-.0005.07081-.2239.14514-.4466.22295-.6681z"/><path d="m3.37974 4.375c.04755.04745.19972.5645.22315.6598.22033.00103.5249.01017.7361-.02021-.19255.15218-.3906.29725-.59375.43493.064.20565.15508.5169.23615.70715-.20004-.1447-.39885-.29109-.59643-.43915-.0558.02629-.51883.38312-.60052.44531.07572-.23594.1541-.47102.23511-.70519-.16353-.1138-.42131-.30062-.56789-.42434l.69848.00281c.06405-.20809.14994-.46013.2296-.66111z"/><path d="m7.9856 12.3672c.06741.0435.20414.5512.23692.6635.23352.0008.49227.0066.72289-.0089-.1759.1453-.39184.2849-.57595.432.05972.2177.15056.4807.21806.7008-.18117-.1514-.39111-.292-.58029-.4399-.07172.0262-.51113.3737-.59533.4388.04872-.202.15486-.4907.2177-.7072-.18769-.136-.3824-.2738-.56417-.4166.23562-.0002.47123.0008.70684.0032.05021-.1908.15038-.4669.21333-.6657z"/><path d="m10.6447 11.6484c.0796.0468.208.5499.2388.6654l.7458-.0014c-.1992.1257-.4122.3069-.6057.4175.0851.2167.1579.473.2262.6984-.1963-.1351-.3657-.283-.5725-.4104-.002-.0006-.0039-.0017-.006-.0018-.053-.0042-.5094.3532-.591.4055.0676-.2291.1512-.4622.2205-.6955-.1817-.1144-.40233-.2824-.58596-.4093.23769-.0075.48426-.0041.72286-.0036.0773-.2189.1464-.4407.207-.6648z"/><path d="m12.599 4.36719c.0745.06303.2128.54184.2426.65958.2367.0014.4775.00554.7136-.00594-.1397.12505-.4205.31998-.58.43765.087.20233.1708.48568.2383.70033-.1842-.15339-.3883-.29579-.5816-.43948-.0417.00092-.5234.36447-.6134.42067.0891-.20777.1667-.4782.2356-.69853-.1897-.12194-.3995-.28611-.5808-.42231.1969.01836.5057.0072.718.01187.0384-.17494.1553-.45831.2077-.66384z"/></g></g></g></svg>