<svg fill="none" height="70" viewBox="0 0 816 70" width="816" xmlns="http://www.w3.org/2000/svg" xmlns:xlink="http://www.w3.org/1999/xlink"><filter id="a" color-interpolation-filters="sRGB" filterUnits="userSpaceOnUse" height="55.2803" width="55.2803" x="16.2773" y="8.07275"><feFlood flood-opacity="0" result="BackgroundImageFix"/><feColorMatrix in="SourceAlpha" result="hardAlpha" type="matrix" values="0 0 0 0 0 0 0 0 0 0 0 0 0 0 0 0 0 0 127 0"/><feOffset dy="1"/><feGaussianBlur stdDeviation=".5"/><feComposite in2="hardAlpha" operator="out"/><feColorMatrix type="matrix" values="0 0 0 0 0 0 0 0 0 0 0 0 0 0 0 0 0 0 0.08 0"/><feBlend in2="BackgroundImageFix" mode="normal" result="effect1_dropShadow_16736_29152"/><feBlend in="BackgroundImageFix" in2="effect1_dropShadow_16736_29152" mode="normal" result="BackgroundImageFix"/><feBlend in="SourceGraphic" in2="BackgroundImageFix" mode="normal" result="shape"/></filter><filter id="b" color-interpolation-filters="sRGB" filterUnits="userSpaceOnUse" height="55.2803" width="55.2803" x="82.4746" y="8.07275"><feFlood flood-opacity="0" result="BackgroundImageFix"/><feColorMatrix in="SourceAlpha" result="hardAlpha" type="matrix" values="0 0 0 0 0 0 0 0 0 0 0 0 0 0 0 0 0 0 127 0"/><feOffset dy="1"/><feGaussianBlur stdDeviation=".5"/><feComposite in2="hardAlpha" operator="out"/><feColorMatrix type="matrix" values="0 0 0 0 0 0 0 0 0 0 0 0 0 0 0 0 0 0 0.08 0"/><feBlend in2="BackgroundImageFix" mode="normal" result="effect1_dropShadow_16736_29152"/><feBlend in="BackgroundImageFix" in2="effect1_dropShadow_16736_29152" mode="normal" result="BackgroundImageFix"/><feBlend in="SourceGraphic" in2="BackgroundImageFix" mode="normal" result="shape"/></filter><filter id="c" color-interpolation-filters="sRGB" filterUnits="userSpaceOnUse" height="55.2803" width="55.2803" x="148.671" y="8.07275"><feFlood flood-opacity="0" result="BackgroundImageFix"/><feColorMatrix in="SourceAlpha" result="hardAlpha" type="matrix" values="0 0 0 0 0 0 0 0 0 0 0 0 0 0 0 0 0 0 127 0"/><feOffset dy="1"/><feGaussianBlur stdDeviation=".5"/><feComposite in2="hardAlpha" operator="out"/><feColorMatrix type="matrix" values="0 0 0 0 0 0 0 0 0 0 0 0 0 0 0 0 0 0 0.08 0"/><feBlend in2="BackgroundImageFix" mode="normal" result="effect1_dropShadow_16736_29152"/><feBlend in="BackgroundImageFix" in2="effect1_dropShadow_16736_29152" mode="normal" result="BackgroundImageFix"/><feBlend in="SourceGraphic" in2="BackgroundImageFix" mode="normal" result="shape"/></filter><filter id="d" color-interpolation-filters="sRGB" filterUnits="userSpaceOnUse" height="55.2803" width="55.2803" x="214.868" y="8.07275"><feFlood flood-opacity="0" result="BackgroundImageFix"/><feColorMatrix in="SourceAlpha" result="hardAlpha" type="matrix" values="0 0 0 0 0 0 0 0 0 0 0 0 0 0 0 0 0 0 127 0"/><feOffset dy="1"/><feGaussianBlur stdDeviation=".5"/><feComposite in2="hardAlpha" operator="out"/><feColorMatrix type="matrix" values="0 0 0 0 0 0 0 0 0 0 0 0 0 0 0 0 0 0 0.08 0"/><feBlend in2="BackgroundImageFix" mode="normal" result="effect1_dropShadow_16736_29152"/><feBlend in="BackgroundImageFix" in2="effect1_dropShadow_16736_29152" mode="normal" result="BackgroundImageFix"/><feBlend in="SourceGraphic" in2="BackgroundImageFix" mode="normal" result="shape"/></filter><filter id="e" color-interpolation-filters="sRGB" filterUnits="userSpaceOnUse" height="55.2803" width="55.2803" x="281.064" y="8.07275"><feFlood flood-opacity="0" result="BackgroundImageFix"/><feColorMatrix in="SourceAlpha" result="hardAlpha" type="matrix" values="0 0 0 0 0 0 0 0 0 0 0 0 0 0 0 0 0 0 127 0"/><feOffset dy="1"/><feGaussianBlur stdDeviation=".5"/><feComposite in2="hardAlpha" operator="out"/><feColorMatrix type="matrix" values="0 0 0 0 0 0 0 0 0 0 0 0 0 0 0 0 0 0 0.08 0"/><feBlend in2="BackgroundImageFix" mode="normal" result="effect1_dropShadow_16736_29152"/><feBlend in="BackgroundImageFix" in2="effect1_dropShadow_16736_29152" mode="normal" result="BackgroundImageFix"/><feBlend in="SourceGraphic" in2="BackgroundImageFix" mode="normal" result="shape"/></filter><filter id="f" color-interpolation-filters="sRGB" filterUnits="userSpaceOnUse" height="55.2803" width="55.2803" x="347.262" y="8.07275"><feFlood flood-opacity="0" result="BackgroundImageFix"/><feColorMatrix in="SourceAlpha" result="hardAlpha" type="matrix" values="0 0 0 0 0 0 0 0 0 0 0 0 0 0 0 0 0 0 127 0"/><feOffset dy="1"/><feGaussianBlur stdDeviation=".5"/><feComposite in2="hardAlpha" operator="out"/><feColorMatrix type="matrix" values="0 0 0 0 0 0 0 0 0 0 0 0 0 0 0 0 0 0 0.08 0"/><feBlend in2="BackgroundImageFix" mode="normal" result="effect1_dropShadow_16736_29152"/><feBlend in="BackgroundImageFix" in2="effect1_dropShadow_16736_29152" mode="normal" result="BackgroundImageFix"/><feBlend in="SourceGraphic" in2="BackgroundImageFix" mode="normal" result="shape"/></filter><filter id="g" color-interpolation-filters="sRGB" filterUnits="userSpaceOnUse" height="55.2803" width="55.2803" x="413.458" y="8.07275"><feFlood flood-opacity="0" result="BackgroundImageFix"/><feColorMatrix in="SourceAlpha" result="hardAlpha" type="matrix" values="0 0 0 0 0 0 0 0 0 0 0 0 0 0 0 0 0 0 127 0"/><feOffset dy="1"/><feGaussianBlur stdDeviation=".5"/><feComposite in2="hardAlpha" operator="out"/><feColorMatrix type="matrix" values="0 0 0 0 0 0 0 0 0 0 0 0 0 0 0 0 0 0 0.08 0"/><feBlend in2="BackgroundImageFix" mode="normal" result="effect1_dropShadow_16736_29152"/><feBlend in="BackgroundImageFix" in2="effect1_dropShadow_16736_29152" mode="normal" result="BackgroundImageFix"/><feBlend in="SourceGraphic" in2="BackgroundImageFix" mode="normal" result="shape"/></filter><filter id="h" color-interpolation-filters="sRGB" filterUnits="userSpaceOnUse" height="55.2803" width="55.2803" x="479.655" y="8.07275"><feFlood flood-opacity="0" result="BackgroundImageFix"/><feColorMatrix in="SourceAlpha" result="hardAlpha" type="matrix" values="0 0 0 0 0 0 0 0 0 0 0 0 0 0 0 0 0 0 127 0"/><feOffset dy="1"/><feGaussianBlur stdDeviation=".5"/><feComposite in2="hardAlpha" operator="out"/><feColorMatrix type="matrix" values="0 0 0 0 0 0 0 0 0 0 0 0 0 0 0 0 0 0 0.08 0"/><feBlend in2="BackgroundImageFix" mode="normal" result="effect1_dropShadow_16736_29152"/><feBlend in="BackgroundImageFix" in2="effect1_dropShadow_16736_29152" mode="normal" result="BackgroundImageFix"/><feBlend in="SourceGraphic" in2="BackgroundImageFix" mode="normal" result="shape"/></filter><filter id="i" color-interpolation-filters="sRGB" filterUnits="userSpaceOnUse" height="55.2803" width="55.2803" x="545.852" y="8.07275"><feFlood flood-opacity="0" result="BackgroundImageFix"/><feColorMatrix in="SourceAlpha" result="hardAlpha" type="matrix" values="0 0 0 0 0 0 0 0 0 0 0 0 0 0 0 0 0 0 127 0"/><feOffset dy="1"/><feGaussianBlur stdDeviation=".5"/><feComposite in2="hardAlpha" operator="out"/><feColorMatrix type="matrix" values="0 0 0 0 0 0 0 0 0 0 0 0 0 0 0 0 0 0 0.08 0"/><feBlend in2="BackgroundImageFix" mode="normal" result="effect1_dropShadow_16736_29152"/><feBlend in="BackgroundImageFix" in2="effect1_dropShadow_16736_29152" mode="normal" result="BackgroundImageFix"/><feBlend in="SourceGraphic" in2="BackgroundImageFix" mode="normal" result="shape"/></filter><filter id="j" color-interpolation-filters="sRGB" filterUnits="userSpaceOnUse" height="55.2803" width="55.2803" x="612.049" y="8.07275"><feFlood flood-opacity="0" result="BackgroundImageFix"/><feColorMatrix in="SourceAlpha" result="hardAlpha" type="matrix" values="0 0 0 0 0 0 0 0 0 0 0 0 0 0 0 0 0 0 127 0"/><feOffset dy="1"/><feGaussianBlur stdDeviation=".5"/><feComposite in2="hardAlpha" operator="out"/><feColorMatrix type="matrix" values="0 0 0 0 0 0 0 0 0 0 0 0 0 0 0 0 0 0 0.08 0"/><feBlend in2="BackgroundImageFix" mode="normal" result="effect1_dropShadow_16736_29152"/><feBlend in="BackgroundImageFix" in2="effect1_dropShadow_16736_29152" mode="normal" result="BackgroundImageFix"/><feBlend in="SourceGraphic" in2="BackgroundImageFix" mode="normal" result="shape"/></filter><filter id="k" color-interpolation-filters="sRGB" filterUnits="userSpaceOnUse" height="55.2803" width="55.2803" x="678.245" y="8.07275"><feFlood flood-opacity="0" result="BackgroundImageFix"/><feColorMatrix in="SourceAlpha" result="hardAlpha" type="matrix" values="0 0 0 0 0 0 0 0 0 0 0 0 0 0 0 0 0 0 127 0"/><feOffset dy="1"/><feGaussianBlur stdDeviation=".5"/><feComposite in2="hardAlpha" operator="out"/><feColorMatrix type="matrix" values="0 0 0 0 0 0 0 0 0 0 0 0 0 0 0 0 0 0 0.08 0"/><feBlend in2="BackgroundImageFix" mode="normal" result="effect1_dropShadow_16736_29152"/><feBlend in="BackgroundImageFix" in2="effect1_dropShadow_16736_29152" mode="normal" result="BackgroundImageFix"/><feBlend in="SourceGraphic" in2="BackgroundImageFix" mode="normal" result="shape"/></filter><filter id="l" color-interpolation-filters="sRGB" filterUnits="userSpaceOnUse" height="55.2803" width="55.2803" x="744.442" y="8.07275"><feFlood flood-opacity="0" result="BackgroundImageFix"/><feColorMatrix in="SourceAlpha" result="hardAlpha" type="matrix" values="0 0 0 0 0 0 0 0 0 0 0 0 0 0 0 0 0 0 127 0"/><feOffset dy="1"/><feGaussianBlur stdDeviation=".5"/><feComposite in2="hardAlpha" operator="out"/><feColorMatrix type="matrix" values="0 0 0 0 0 0 0 0 0 0 0 0 0 0 0 0 0 0 0.08 0"/><feBlend in2="BackgroundImageFix" mode="normal" result="effect1_dropShadow_16736_29152"/><feBlend in="BackgroundImageFix" in2="effect1_dropShadow_16736_29152" mode="normal" result="BackgroundImageFix"/><feBlend in="SourceGraphic" in2="BackgroundImageFix" mode="normal" result="shape"/></filter><linearGradient id="m" gradientUnits="userSpaceOnUse" x1="-74.5" x2="887.5" y1="35" y2="35.171"><stop offset="0" stop-opacity="0"/><stop offset=".485577"/><stop offset="1" stop-opacity="0"/></linearGradient><linearGradient id="n"><stop offset=".18" stop-color="#0052cc"/><stop offset="1" stop-color="#2684ff"/></linearGradient><linearGradient id="o" gradientUnits="userSpaceOnUse" x1="386.412" x2="380.644" xlink:href="#n" y1="48.2669" y2="34.8158"/><linearGradient id="p" gradientUnits="userSpaceOnUse" x1="363.493" x2="369.272" xlink:href="#n" y1="20.9036" y2="34.3694"/><clipPath id="q"><path d="m362.12 22.5703h25.5638v24.2856h-25.5638z"/></clipPath><clipPath id="r"><path d="m624.352 19.3745h30.6765v30.6765h-30.6765z"/></clipPath><mask id="s" height="69" maskUnits="userSpaceOnUse" width="806" x="0" y="0"><path d="m0 0h806v69h-806z" fill="url(#m)"/></mask><g mask="url(#s)"><g filter="url(#a)"><rect fill="#fff" fill-opacity=".9" height="53.2803" rx="9.68733" shape-rendering="crispEdges" width="53.2803" x="17.2773" y="8.07275"/><path d="m33.3126 23.0335 14.1452-1.0448c1.7376-.149 2.1839-.0485 3.2765.7457l4.5153 3.1809c.7447.5471.9927.6961.9927 1.2918v17.4455c0 1.0933-.397 1.7401-1.7869 1.8388l-16.4263.9949c-1.043.0494-1.5397-.0997-2.086-.7958l-3.3251-4.3238c-.5964-.7958-.8436-1.3915-.8436-2.0878v-15.507c0-.894.397-1.6394 1.5382-1.7384z" fill="#fff"/><path clip-rule="evenodd" d="m47.4578 21.989-14.1452 1.0448c-1.1412.0987-1.5382.8444-1.5382 1.7381v15.507c0 .6961.2472 1.2917.8436 2.0878l3.3251 4.3236c.5463.6961 1.043.8454 2.086.7958l16.4265-.9945c1.3889-.0989 1.7869-.7457 1.7869-1.8388v-17.4455c0-.5649-.2231-.7278-.8801-1.2099l-4.6281-3.263c-1.0923-.7942-1.5389-.8947-3.2765-.7457zm-9.0573 4.9328c-1.3413.0902-1.6455.1107-2.4073-.5087l-1.9367-1.5405c-.1968-.1994-.0979-.4481.398-.4977l13.5982-.9937c1.1419-.0997 1.7365.2983 2.1831.646l2.3322 1.6898c.0997.0503.3477.3476.0493.3476l-14.0429.8454zm-1.5637 17.582v-14.8099c0-.6467.1986-.9451.7933-.9952l16.1292-.9443c.547-.0493.7942.2983.7942.9441v14.7112c0 .6467-.0997 1.1938-.9926 1.2431l-15.4347.8948c-.8929.0493-1.2891-.248-1.2891-1.0438zm15.236-14.0159c.099.4474 0 .8948-.4473.9459l-.7439.1475v10.9344c-.646.3477-1.2407.5463-1.7376.5463-.7943 0-.9927-.2487-1.5875-.9937l-4.8648-7.6538v7.4051l1.5389.3484s0 .8948-1.2416.8948l-3.423.1986c-.0997-.1994 0-.6961.3469-.795l.894-.248v-9.7909l-1.2406-.1005c-.0997-.4474.1482-1.0934.8436-1.1435l3.6727-.2472 5.0616 7.7528v-6.8588l-1.2902-.1483c-.0997-.5478.2973-.9458.7933-.9944z" fill="#000" fill-rule="evenodd"/></g><g filter="url(#b)"><rect fill="#fff" fill-opacity=".9" height="53.2803" rx="9.68733" shape-rendering="crispEdges" width="53.2803" x="83.4746" y="8.07275"/><path d="m119.488 35.9856c-.002.2244-.093.4387-.252.5966-.16.1578-.375.2463-.6.2463-.224 0-.44-.0885-.599-.2463-.16-.1579-.251-.3722-.253-.5966v-7.664c.002-.2244.093-.4388.253-.5966.159-.1578.375-.2464.599-.2464.225 0 .44.0886.6.2464.159.1578.25.3722.252.5966zm-.297 5.3337c-.132.1127-3.288 2.7616-9.076 2.7616s-8.944-2.649-9.076-2.7617c-.172-.1471-.278-.3563-.295-.5817-.017-.2253.056-.4483.203-.6199.146-.1713.355-.2775.58-.2951s.448.0547.619.201c.05.042 2.869 2.353 7.969 2.353 5.164 0 7.939-2.3277 7.967-2.3512.356-.3062.895-.2651 1.201.0924.147.1716.22.3946.203.6199s-.123.4346-.295.5817zm-18.45-12.9977c.003-.2244.094-.4388.253-.5966.16-.1578.375-.2464.6-.2464.224 0 .439.0886.599.2464.159.1578.25.3722.253.5966v7.664c-.003.2244-.094.4387-.253.5966-.16.1578-.375.2463-.599.2463-.225 0-.44-.0885-.6-.2463-.159-.1579-.25-.3722-.253-.5966zm4.261-1.7043c.004-.2237.095-.4371.254-.5941.16-.157.375-.245.598-.245.224 0 .439.088.598.245.16.157.251.3704.254.5941v11.384c-.003.2237-.094.4371-.254.5941-.159.157-.374.245-.598.245-.223 0-.438-.088-.598-.245-.159-.157-.25-.3704-.254-.5941zm4.261-.4312c0-.1119.022-.2227.065-.3261.042-.1033.105-.1973.184-.2764s.173-.1419.277-.1847c.103-.0428.214-.0649.326-.0649s.223.022.326.0648c.103.0429.197.1056.277.1848.079.0791.141.173.184.2764s.065.2142.065.3261v12.3558c-.002.2244-.093.4388-.253.5967-.159.1578-.375.2463-.599.2463s-.44-.0885-.599-.2463c-.16-.1579-.251-.3723-.253-.5967zm4.26.4312c.004-.2237.095-.4371.255-.5941.159-.157.374-.245.598-.245.223 0 .438.088.598.245.159.157.25.3704.254.5941v11.384c-.004.2237-.095.4371-.254.5941-.16.157-.375.245-.598.245-.224 0-.439-.088-.598-.245-.16-.157-.251-.3704-.255-.5941zm6.178-4.6866h-19.173c-1.7643 0-3.195 1.4306-3.195 3.1954v19.1729c0 1.7647 1.4307 3.1955 3.195 3.1955h19.173c1.765 0 3.196-1.4308 3.196-3.1955v-19.1729c0-1.7648-1.431-3.1954-3.196-3.1954z" fill="#1f8ded"/></g><g filter="url(#c)"><rect fill="#fff" fill-opacity=".9" height="53.2803" rx="9.68733" shape-rendering="crispEdges" width="53.2803" x="149.671" y="8.07275"/><path d="m168.918 38.0914c0 1.4858-1.2 2.6867-2.685 2.6867-1.484 0-2.684-1.2009-2.684-2.6867s1.2-2.6866 2.684-2.6866h2.685zm1.342 0c0-1.4858 1.2-2.6866 2.685-2.6866 1.484 0 2.684 1.2008 2.684 2.6866v6.7166c0 1.4858-1.2 2.6867-2.684 2.6867-1.485 0-2.685-1.2009-2.685-2.6867z" fill="#e01e5a"/><path d="m172.945 27.3039c-1.484 0-2.684-1.2008-2.684-2.6866s1.2-2.6866 2.684-2.6866c1.485 0 2.685 1.2008 2.685 2.6866v2.6866zm0 1.3637c1.485 0 2.685 1.2009 2.685 2.6867s-1.2 2.6866-2.685 2.6866h-6.731c-1.485 0-2.685-1.2008-2.685-2.6866s1.2-2.6867 2.685-2.6867z" fill="#36c5f0"/><path d="m183.703 31.3543c0-1.4858 1.2-2.6867 2.685-2.6867s2.684 1.2009 2.684 2.6867-1.199 2.6866-2.684 2.6866h-2.685zm-1.342 0c0 1.4858-1.2 2.6866-2.684 2.6866-1.485 0-2.685-1.2008-2.685-2.6866v-6.737c0-1.4858 1.2-2.6866 2.685-2.6866 1.484 0 2.684 1.2008 2.684 2.6866z" fill="#2eb67d"/><path d="m179.677 42.1214c1.484 0 2.684 1.2008 2.684 2.6866s-1.2 2.6867-2.684 2.6867c-1.485 0-2.685-1.2009-2.685-2.6867v-2.6866zm0-1.3433c-1.485 0-2.685-1.2009-2.685-2.6867s1.2-2.6866 2.685-2.6866h6.731c1.485 0 2.685 1.2008 2.685 2.6866s-1.2 2.6867-2.685 2.6867z" fill="#ecb22e"/></g><g filter="url(#d)"><rect fill="#fff" fill-opacity=".9" height="53.2803" rx="9.68733" shape-rendering="crispEdges" width="53.2803" x="215.868" y="8.07275"/><path d="m238.694 38.3369c.34-.1955.725-.2535 1.084-.1846.755.1198 1.334.7746 1.334 1.5645v6.2588c0 .8727-.71 1.5829-1.582 1.583-.875 0-1.585-.7102-1.585-1.583v-3.5342l-3.072 1.7725c-.76.4397-1.731.1799-2.171-.5821-.44-.7599-.178-1.7323.582-2.1699zm5.421.583c.44-.76 1.412-1.0205 2.172-.583l5.409 3.125c.762.4376 1.023 1.41.583 2.1699-.438.76-1.412 1.0219-2.172.5821l-3.031-1.75v3.5117c0 .8728-.71 1.583-1.582 1.583-.875-.0002-1.584-.7103-1.584-1.583v-6.1074c-.033-.32.034-.649.205-.9483zm8.791-8.6826c.76-.4397 1.734-.1792 2.172.583.439.7599.179 1.7314-.583 2.169l-3.063 1.7685 3.063 1.7695c.759.4399 1.022 1.4111.583 2.1709-.44.76-1.412 1.0205-2.172.583l-5.41-3.125c-.514-.2948-.799-.8366-.794-1.3916-.009-.557.276-1.1049.794-1.4042zm-21.623-.1748c.269 0 .538.0713.773.207l5.41 3.1231c.489.2832.786.8088.777 1.373.004.5594-.293 1.0794-.777 1.3604l-5.41 3.123c-.235.1358-.504.207-.775.2071-.553 0-1.07-.2964-1.346-.7754-.207-.3593-.263-.779-.154-1.1797.106-.4007.364-.7342.723-.9414l3.119-1.8008-3.119-1.7988c-.741-.4283-.997-1.3796-.569-2.1211.276-.479.793-.7764 1.348-.7764zm11.494 1.7363c.12.0001.288.0692.373.1543l2.143 2.1465c.086.0852.155.251.155.3731v.5459c0 .1197-.069.2855-.155.373l-2.143 2.1445c-.085.0851-.253.1542-.373.1543h-.546c-.12 0-.288-.0692-.373-.1543l-2.147-2.1445c-.085-.0875-.154-.2533-.154-.373v-.5459c0-.1221.069-.2879.154-.3731l2.147-2.1465c.085-.0851.253-.1543.373-.1543zm-.286 1.9141c-.088.0001-.209.0508-.274.1152l-.631.6309c-.062.0622-.113.1846-.113.2744v.0225c0 .0898.051.2122.113.2744l.631.6328c.065.0621.186.1131.274.1133h.023c.09-.0001.212-.0512.275-.1133l.632-.6328c.063-.0622.114-.1846.114-.2744v-.0225c0-.0875-.051-.2099-.114-.2744l-.632-.6309c-.063-.0644-.185-.1152-.275-.1152zm-2.961-11.7822c.872.0001 1.582.7099 1.582 1.5849v6.2588c0 .4606-.196.8759-.512 1.166-.497.4856-1.275.6051-1.906.2393l-5.41-3.1231c-.76-.4399-1.022-1.4119-.582-2.1718.44-.7597 1.411-1.0197 2.171-.5801l3.072 1.7734v-3.5625c0-.8751.71-1.5849 1.585-1.5849zm5.965 0c.872.0002 1.582.71 1.582 1.5849v3.5391l3.03-1.75c.76-.4399 1.732-.1798 2.172.5801s.177 1.7343-.583 2.1718l-5.409 3.1231c-.76.4398-1.732.1796-2.172-.5801-.173-.2993-.235-.6314-.205-.9492v-6.1348c0-.8751.709-1.5849 1.585-1.5849z" fill="#29b5e8"/></g><g filter="url(#e)"><rect fill="#fff" fill-opacity=".9" height="53.2803" rx="9.68733" shape-rendering="crispEdges" width="53.2803" x="282.064" y="8.07275"/><path d="m297.232 23.2412h10.8345v10.8345h-10.8345z" fill="#f25022"/><path d="m297.232 35.3506h10.8345v10.8345h-10.8345z" fill="#00a4ef"/><path d="m309.342 23.2412h10.8345v10.8345h-10.8345z" fill="#7fba00"/><path d="m309.342 35.3506h10.8345v10.8345h-10.8345z" fill="#ffb900"/></g><g filter="url(#f)"><rect fill="#fff" fill-opacity=".9" height="53.2803" rx="9.68733" shape-rendering="crispEdges" width="53.2803" x="348.262" y="8.07275"/><g clip-path="url(#q)"><path d="m363.047 41.1097c-.264.4266-.561.9204-.814 1.3153-.225.3771-.104.863.273 1.0936l5.287 3.2174c.185.1128.409.1485.622.097.212-.0515.394-.1851.505-.3701.211-.3504.485-.8046.781-1.2906 2.095-3.4183 4.201-2.9997 8.001-1.2064l5.243 2.4653c.198.093.428.1029.633.0277.206-.0762.372-.2306.461-.4295l2.518-5.6303c.178-.4018-.003-.8709-.407-1.054-1.106-.5146-3.306-1.5399-5.287-2.485-7.127-3.4233-13.183-3.2016-17.816 4.2496z" fill="url(#o)"/><path d="m386.757 28.3332c.265-.4266.562-.9204.814-1.3153.225-.3771.104-.863-.272-1.0936l-5.288-3.2164c-.188-.1247-.419-.1673-.638-.1168-.22.0504-.409.189-.522.382-.211.3503-.484.8046-.78 1.2905-2.096 3.4184-4.202 2.9997-8.001 1.2064l-5.227-2.4524c-.198-.093-.427-.1029-.632-.0277-.207.0762-.373.2306-.462.4295l-2.517 5.6303c-.179.4018.003.8709.406 1.054 1.106.5146 3.306 1.5399 5.287 2.4851 7.143 3.4183 13.199 3.1887 17.832-4.2547z" fill="url(#p)"/></g></g><g filter="url(#g)"><rect fill="#fff" fill-opacity=".9" height="53.2803" rx="9.68733" shape-rendering="crispEdges" width="53.2803" x="414.458" y="8.07275"/><path clip-rule="evenodd" d="m441.099 21.9307c-7.062 0-12.782 5.7559-12.782 12.8625 0 5.6916 3.659 10.499 8.74 12.2033.639.1125.879-.2733.879-.611 0-.3055-.016-1.3184-.016-2.3956-3.212.5949-4.042-.7879-4.298-1.5114-.144-.3698-.767-1.5113-1.31-1.8168-.448-.2412-1.087-.8361-.016-.8521 1.006-.0161 1.725.9325 1.965 1.3184 1.15 1.9454 2.988 1.3988 3.723 1.0611.112-.836.447-1.3988.815-1.7203-2.844-.3216-5.816-1.431-5.816-6.3509 0-1.3988.495-2.5564 1.31-3.4568-.128-.3216-.575-1.64.128-3.4086 0 0 1.07-.3376 3.515 1.3184 1.022-.2894 2.109-.4341 3.195-.4341 1.087 0 2.173.1447 3.196.4341 2.444-1.6721 3.515-1.3184 3.515-1.3184.703 1.7686.255 3.087.128 3.4086.814.9004 1.31 2.0419 1.31 3.4568 0 4.936-2.988 6.0293-5.832 6.3509.463.4019.863 1.1737.863 2.3795 0 1.7204-.016 3.1031-.016 3.5372 0 .3377.239.7396.879.611 5.048-1.7043 8.707-6.5277 8.707-12.2033 0-7.1066-5.72-12.8625-12.782-12.8625z" fill="#111418" fill-rule="evenodd"/></g><g filter="url(#h)"><rect fill="#fff" fill-opacity=".9" height="53.2803" rx="9.68733" shape-rendering="crispEdges" width="53.2803" x="480.655" y="8.07275"/><path d="m518.705 33.4133h-7.275c-.344 0-.625.2918-.615.6357 0 .0626.011.1251.032.1876l1.751 4.5337c.062.1563-.021.3335-.178.3856-.041.0104-.083.0209-.125.0209l-2.24-.1355c-.105-.0104-.198.0417-.261.125l-1.74 2.4701c-.094.1459-.282.1876-.417.0938 0 0 0 0-.011 0l-2.574-1.7509c-.104-.073-.24-.073-.334 0l-3.564 2.4179c-.135.0938-.323.0626-.417-.0729-.052-.073-.062-.1668-.042-.2502l.991-3.5539c.041-.1459-.032-.3023-.178-.3544l-1.886-.7712c-.156-.0626-.229-.2293-.167-.3857.011-.0312.031-.0521.052-.0833l1.668-2.0636c.083-.1043.083-.2502.01-.3544l-1.396-2.0323c-.094-.1355-.063-.3231.073-.4169.041-.0313.093-.0521.156-.0521l2.178-.1668c.167-.0104.282-.1459.282-.3126l-.167-3.0538c-.011-.1667.125-.3126.292-.323.041 0 .083.0104.125.0208l2.699 1.1152c.115.0521.25.0208.334-.0834l1.855-2.0844c.114-.1251.302-.1355.427-.0209.031.0313.052.0625.073.1042l1.115 2.8766c.125.3022.48.4481.782.3231.042-.0209.094-.0417.125-.073l4.377-3.2517c.261-.198.323-.5628.125-.8338-.125-.1772-.344-.271-.562-.2397l-2.887.3856c-.136.0208-.261-.0625-.313-.1876l-1.522-3.8979c-.125-.3022-.469-.4482-.771-.3335-.083.0313-.156.0834-.219.1563l-3.293 3.5748c-.084.0938-.219.1147-.334.073l-4.335-1.8343c-.303-.1251-.657.0104-.792.3231-.032.0625-.042.1355-.042.2084l-.156 4.4711c-.011.1564-.126.271-.282.2919l-3.96.2605c-.334.0209-.574.3023-.553.6358.011.1042.042.2084.105.2918l2.636 3.8875c.073.1146.073.2605-.02.3648l-2.679 3.0745c-.219.2502-.188.6254.052.8338.052.0417.104.073.156.1042l3.096 1.3341c.135.0521.208.2084.167.3439l-1.96 7.6603c-.083.3231.115.6462.428.7296.177.0417.354.0104.5-.0938l7.368-5.2841c.105-.0729.24-.0729.344 0l3.356 2.3554c.271.1876.646.1251.834-.1459l.01-.0104 2.095-3.2205c.063-.0938.177-.1459.292-.125l5.013.6045c.407.0625.813-.2814.667-.6566l-2.084-5.4092c-.063-.1563.021-.3335.177-.396l3.814-1.8031c.563-.2814.365-1.1568-.281-1.1568z" fill="#8039e9"/></g><g filter="url(#i)"><rect fill="#fff" fill-opacity=".9" height="53.2803" rx="9.68733" shape-rendering="crispEdges" width="53.2803" x="546.852" y="8.07275"/><path d="m561.35 45.5778h4.474v-10.8647l-6.391-4.7932v13.7406c0 1.0609.859 1.9173 1.917 1.9173z" fill="#4285f4"/><path d="m581.162 45.5778h4.474c1.061 0 1.917-.8596 1.917-1.9173v-13.7406l-6.391 4.7932" fill="#34a853"/><path d="m581.162 26.4051v8.3083l6.391-4.7932v-2.5564c0-2.3711-2.707-3.7227-4.601-2.3008" fill="#fbbc04"/><path d="m565.823 34.7135v-8.3082l7.669 5.7518 7.67-5.7518v8.3082l-7.67 5.7519" fill="#ea4335"/><path d="m559.433 27.3638v2.5564l6.391 4.7932v-8.3083l-1.79-1.3421c-1.898-1.4219-4.601-.0703-4.601 2.3008z" fill="#c5221f"/></g><g filter="url(#j)"><rect fill="#fff" fill-opacity=".9" height="53.2803" rx="9.68733" shape-rendering="crispEdges" width="53.2803" x="613.049" y="8.07275"/><g clip-path="url(#r)"><path clip-rule="evenodd" d="m637.089 26.8332c.99-1.0309 2.368-1.6692 3.891-1.6692 2.03 0 3.789 1.1278 4.737 2.8082.84-.3759 1.751-.57 2.672-.5695 3.655 0 6.621 2.9887 6.621 6.6767 0 3.6879-2.966 6.6766-6.621 6.6766-.446 0-.881-.0449-1.308-.1297-.829 1.4775-2.413 2.4812-4.218 2.4812-.735.0015-1.46-.1652-2.12-.4872-.84 1.9737-2.797 3.3609-5.075 3.3609-2.38 0-4.399-1.5-5.177-3.609-.346.0731-.699.1098-1.053.1096-2.831 0-5.121-2.3233-5.121-5.1767 0-1.9173 1.031-3.5864 2.561-4.4887-.325-.7474-.492-1.5536-.491-2.3684 0-3.2932 2.673-5.9548 5.966-5.9548 1.929 0 3.654.9191 4.737 2.3458" fill="#00a1e0" fill-rule="evenodd"/></g></g><g filter="url(#k)"><rect fill="#fff" fill-opacity=".9" height="53.2803" rx="9.68733" shape-rendering="crispEdges" width="53.2803" x="679.245" y="8.07275"/><path clip-rule="evenodd" d="m710.708 40.2947c-1.781 0-3.225-1.4381-3.225-3.2118 0-1.7741 1.444-3.2122 3.225-3.2122 1.782 0 3.226 1.4381 3.226 3.2122 0 1.7737-1.444 3.2118-3.226 3.2118zm.966-9.3957v-2.8574c.749-.3522 1.274-1.1067 1.274-1.9823v-.066c0-1.2085-.993-2.1972-2.207-2.1972h-.066c-1.213 0-2.206.9887-2.206 2.1972v.066c0 .8756.524 1.6304 1.273 1.9826v2.8571c-1.115.1717-2.134.6297-2.974 1.3037l-7.879-6.1028c.052-.1988.089-.4034.089-.6185.001-1.3685-1.111-2.4795-2.486-2.4814-1.374-.0015-2.49 1.1065-2.492 2.4752s1.111 2.4798 2.486 2.4814c.448.0006.862-.1261 1.226-.332l7.75 6.0036c-.659.9906-1.045 2.1771-1.045 3.4547 0 1.3373.424 2.5744 1.141 3.5918l-2.357 2.347c-.186-.0558-.379-.0946-.584-.0946-1.13 0-2.046.9116-2.046 2.0363 0 1.1249.916 2.0366 2.046 2.0366 1.129 0 2.045-.9117 2.045-2.0366 0-.2034-.039-.3961-.095-.5816l2.331-2.3214c1.058.8041 2.376 1.2874 3.81 1.2874 3.475 0 6.292-2.805 6.292-6.2649 0-3.1323-2.311-5.72-5.326-6.1839z" fill="#ff7a59" fill-rule="evenodd"/></g><g filter="url(#l)"><rect fill="#fff" fill-opacity=".9" height="53.2803" rx="9.68733" shape-rendering="crispEdges" width="53.2803" x="745.442" y="8.07275"/><path d="m760.149 44.4244 1.24 2.2376c.258.4711.629.8412 1.063 1.1104l4.429-8.0082h-8.858c0 .5215.129 1.0431.387 1.5141z" fill="#0066da"/><path d="m772.084 30.3432-4.429-8.0082c-.435.2691-.806.6393-1.063 1.1103l-8.182 14.8052c-.253.4609-.386.9829-.387 1.5142h8.858z" fill="#00ac47"/><path d="m781.715 47.7724c.435-.2692.805-.6393 1.063-1.1104l.515-.9253 2.464-4.4584c.258-.471.387-.9926.387-1.5141h-8.859l1.885 3.8695z" fill="#ea4335"/><path d="m772.083 30.3427 4.429-8.0083c-.435-.2691-.934-.4037-1.449-.4037h-5.959c-.516 0-1.015.1514-1.45.4037z" fill="#00832d"/><path d="m777.285 39.7642h-10.404l-4.429 8.0082c.435.2692.934.4038 1.45.4038h16.363c.515 0 1.014-.1514 1.449-.4038z" fill="#2684fc"/><path d="m781.666 30.8479-4.091-7.4026c-.258-.471-.628-.8412-1.063-1.1103l-4.429 8.0082 5.202 9.4215h8.842c0-.5216-.129-1.0431-.387-1.5142z" fill="#ffba00"/></g></g></svg>