<svg width="816" height="70" viewBox="0 0 816 70" fill="none" xmlns="http://www.w3.org/2000/svg">
<mask id="mask0_16736_29152" style="mask-type:alpha" maskUnits="userSpaceOnUse" x="0" y="0" width="806" height="69">
<rect width="806" height="69" fill="url(#paint0_linear_16736_29152)"/>
</mask>
<g mask="url(#mask0_16736_29152)">
<g filter="url(#filter0_d_16736_29152)">
<rect x="17.2773" y="8.07275" width="53.2803" height="53.2803" rx="9.68733" fill="white" fill-opacity="0.9" shape-rendering="crispEdges"/>
<path d="M33.3126 23.0335L47.4578 21.9887C49.1954 21.8397 49.6417 21.9402 50.7343 22.7344L55.2496 25.9153C55.9943 26.4624 56.2423 26.6114 56.2423 27.2071V44.6526C56.2423 45.7459 55.8453 46.3927 54.4554 46.4914L38.0291 47.4863C36.9861 47.5357 36.4894 47.3866 35.9431 46.6905L32.618 42.3667C32.0216 41.5709 31.7744 40.9752 31.7744 40.2789V24.7719C31.7744 23.8779 32.1714 23.1325 33.3126 23.0335Z" fill="white"/>
<path fill-rule="evenodd" clip-rule="evenodd" d="M47.4578 21.989L33.3126 23.0338C32.1714 23.1325 31.7744 23.8782 31.7744 24.7719V40.2789C31.7744 40.975 32.0216 41.5706 32.618 42.3667L35.9431 46.6903C36.4894 47.3864 36.9861 47.5357 38.0291 47.4861L54.4556 46.4916C55.8445 46.3927 56.2425 45.7459 56.2425 44.6528V27.2073C56.2425 26.6424 56.0194 26.4795 55.3624 25.9974L50.7343 22.7344C49.642 21.9402 49.1954 21.8397 47.4578 21.9887V21.989ZM38.4005 26.9218C37.0592 27.012 36.755 27.0325 35.9932 26.4131L34.0565 24.8726C33.8597 24.6732 33.9586 24.4245 34.4545 24.3749L48.0527 23.3812C49.1946 23.2815 49.7892 23.6795 50.2358 24.0272L52.568 25.717C52.6677 25.7673 52.9157 26.0646 52.6173 26.0646L38.5744 26.91L38.4005 26.9218ZM36.8368 44.5038V29.6939C36.8368 29.0472 37.0354 28.7488 37.6301 28.6987L53.7593 27.7544C54.3063 27.7051 54.5535 28.0527 54.5535 28.6985V43.4097C54.5535 44.0564 54.4538 44.6035 53.5609 44.6528L38.1262 45.5476C37.2333 45.5969 36.8371 45.2996 36.8371 44.5038H36.8368ZM52.0728 30.4879C52.1718 30.9353 52.0728 31.3827 51.6255 31.4338L50.8816 31.5813V42.5157C50.2356 42.8634 49.6409 43.062 49.144 43.062C48.3497 43.062 48.1513 42.8133 47.5565 42.0683L42.6917 34.4145V41.8196L44.2306 42.168C44.2306 42.168 44.2306 43.0628 42.989 43.0628L39.566 43.2614C39.4663 43.062 39.566 42.5653 39.9129 42.4664L40.8069 42.2184V32.4275L39.5663 32.327C39.4666 31.8796 39.7145 31.2336 40.4099 31.1835L44.0826 30.9363L49.1442 38.6891V31.8303L47.854 31.682C47.7543 31.1342 48.1513 30.7362 48.6473 30.6876L52.0728 30.4879Z" fill="black"/>
</g>
<g filter="url(#filter1_d_16736_29152)">
<rect x="83.4746" y="8.07275" width="53.2803" height="53.2803" rx="9.68733" fill="white" fill-opacity="0.9" shape-rendering="crispEdges"/>
<path d="M119.488 35.9856C119.486 36.21 119.395 36.4243 119.236 36.5822C119.076 36.74 118.861 36.8285 118.636 36.8285C118.412 36.8285 118.196 36.74 118.037 36.5822C117.877 36.4243 117.786 36.21 117.784 35.9856V28.3216C117.786 28.0972 117.877 27.8828 118.037 27.725C118.196 27.5672 118.412 27.4786 118.636 27.4786C118.861 27.4786 119.076 27.5672 119.236 27.725C119.395 27.8828 119.486 28.0972 119.488 28.3216V35.9856ZM119.191 41.3193C119.059 41.432 115.903 44.0809 110.115 44.0809C104.327 44.0809 101.171 41.4319 101.039 41.3192C100.867 41.1721 100.761 40.9629 100.744 40.7375C100.727 40.5122 100.8 40.2892 100.947 40.1176C101.093 39.9463 101.302 39.8401 101.527 39.8225C101.752 39.8049 101.975 39.8772 102.146 40.0235C102.196 40.0655 105.015 42.3765 110.115 42.3765C115.279 42.3765 118.054 40.0488 118.082 40.0253C118.438 39.7191 118.977 39.7602 119.283 40.1177C119.43 40.2893 119.503 40.5123 119.486 40.7376C119.469 40.9629 119.363 41.1722 119.191 41.3193ZM100.741 28.3216C100.744 28.0972 100.835 27.8828 100.994 27.725C101.154 27.5672 101.369 27.4786 101.594 27.4786C101.818 27.4786 102.033 27.5672 102.193 27.725C102.352 27.8828 102.443 28.0972 102.446 28.3216V35.9856C102.443 36.21 102.352 36.4243 102.193 36.5822C102.033 36.74 101.818 36.8285 101.594 36.8285C101.369 36.8285 101.154 36.74 100.994 36.5822C100.835 36.4243 100.744 36.21 100.741 35.9856V28.3216ZM105.002 26.6173C105.006 26.3936 105.097 26.1802 105.256 26.0232C105.416 25.8662 105.631 25.7782 105.854 25.7782C106.078 25.7782 106.293 25.8662 106.452 26.0232C106.612 26.1802 106.703 26.3936 106.706 26.6173V38.0013C106.703 38.225 106.612 38.4384 106.452 38.5954C106.293 38.7524 106.078 38.8404 105.854 38.8404C105.631 38.8404 105.416 38.7524 105.256 38.5954C105.097 38.4384 105.006 38.225 105.002 38.0013V26.6173ZM109.263 26.1861C109.263 26.0742 109.285 25.9634 109.328 25.86C109.37 25.7567 109.433 25.6627 109.512 25.5836C109.591 25.5045 109.685 25.4417 109.789 25.3989C109.892 25.3561 110.003 25.334 110.115 25.334C110.227 25.334 110.338 25.356 110.441 25.3988C110.544 25.4417 110.638 25.5044 110.718 25.5836C110.797 25.6627 110.859 25.7566 110.902 25.86C110.945 25.9634 110.967 26.0742 110.967 26.1861V38.5419C110.965 38.7663 110.874 38.9807 110.714 39.1386C110.555 39.2964 110.339 39.3849 110.115 39.3849C109.891 39.3849 109.675 39.2964 109.516 39.1386C109.356 38.9807 109.265 38.7663 109.263 38.5419V26.1861ZM113.523 26.6173C113.527 26.3936 113.618 26.1802 113.778 26.0232C113.937 25.8662 114.152 25.7782 114.376 25.7782C114.599 25.7782 114.814 25.8662 114.974 26.0232C115.133 26.1802 115.224 26.3936 115.228 26.6173V38.0013C115.224 38.225 115.133 38.4384 114.974 38.5954C114.814 38.7524 114.599 38.8404 114.376 38.8404C114.152 38.8404 113.937 38.7524 113.778 38.5954C113.618 38.4384 113.527 38.225 113.523 38.0013V26.6173ZM119.701 21.9307H100.528C98.7637 21.9307 97.333 23.3613 97.333 25.1261V44.299C97.333 46.0637 98.7637 47.4945 100.528 47.4945H119.701C121.466 47.4945 122.897 46.0637 122.897 44.299V25.1261C122.897 23.3613 121.466 21.9307 119.701 21.9307Z" fill="#1F8DED"/>
</g>
<g filter="url(#filter2_d_16736_29152)">
<rect x="149.671" y="8.07275" width="53.2803" height="53.2803" rx="9.68733" fill="white" fill-opacity="0.9" shape-rendering="crispEdges"/>
<path d="M168.918 38.0914C168.918 39.5772 167.718 40.7781 166.233 40.7781C164.749 40.7781 163.549 39.5772 163.549 38.0914C163.549 36.6056 164.749 35.4048 166.233 35.4048H168.918V38.0914ZM170.26 38.0914C170.26 36.6056 171.46 35.4048 172.945 35.4048C174.429 35.4048 175.629 36.6056 175.629 38.0914V44.808C175.629 46.2938 174.429 47.4947 172.945 47.4947C171.46 47.4947 170.26 46.2938 170.26 44.808V38.0914Z" fill="#E01E5A"/>
<path d="M172.945 27.3039C171.461 27.3039 170.261 26.1031 170.261 24.6173C170.261 23.1315 171.461 21.9307 172.945 21.9307C174.43 21.9307 175.63 23.1315 175.63 24.6173V27.3039H172.945ZM172.945 28.6676C174.43 28.6676 175.63 29.8685 175.63 31.3543C175.63 32.8401 174.43 34.0409 172.945 34.0409H166.214C164.729 34.0409 163.529 32.8401 163.529 31.3543C163.529 29.8685 164.729 28.6676 166.214 28.6676H172.945Z" fill="#36C5F0"/>
<path d="M183.703 31.3543C183.703 29.8685 184.903 28.6676 186.388 28.6676C187.873 28.6676 189.072 29.8685 189.072 31.3543C189.072 32.8401 187.873 34.0409 186.388 34.0409H183.703V31.3543ZM182.361 31.3543C182.361 32.8401 181.161 34.0409 179.677 34.0409C178.192 34.0409 176.992 32.8401 176.992 31.3543V24.6173C176.992 23.1315 178.192 21.9307 179.677 21.9307C181.161 21.9307 182.361 23.1315 182.361 24.6173V31.3543Z" fill="#2EB67D"/>
<path d="M179.677 42.1214C181.161 42.1214 182.361 43.3222 182.361 44.808C182.361 46.2938 181.161 47.4947 179.677 47.4947C178.192 47.4947 176.992 46.2938 176.992 44.808V42.1214H179.677ZM179.677 40.7781C178.192 40.7781 176.992 39.5772 176.992 38.0914C176.992 36.6056 178.192 35.4048 179.677 35.4048H186.408C187.893 35.4048 189.093 36.6056 189.093 38.0914C189.093 39.5772 187.893 40.7781 186.408 40.7781H179.677Z" fill="#ECB22E"/>
</g>
<g filter="url(#filter3_d_16736_29152)">
<rect x="215.868" y="8.07275" width="53.2803" height="53.2803" rx="9.68733" fill="white" fill-opacity="0.9" shape-rendering="crispEdges"/>
<path d="M238.694 38.3369C239.034 38.1414 239.419 38.0834 239.778 38.1523C240.533 38.2721 241.112 38.9269 241.112 39.7168V45.9756C241.112 46.8483 240.402 47.5585 239.53 47.5586C238.655 47.5586 237.945 46.8484 237.945 45.9756V42.4414L234.873 44.2139C234.113 44.6536 233.142 44.3938 232.702 43.6318C232.262 42.8719 232.524 41.8995 233.284 41.4619L238.694 38.3369ZM244.115 38.9199C244.555 38.1599 245.527 37.8994 246.287 38.3369L251.696 41.4619C252.458 41.8995 252.719 42.8719 252.279 43.6318C251.841 44.3918 250.867 44.6537 250.107 44.2139L247.076 42.4639V45.9756C247.076 46.8484 246.366 47.5586 245.494 47.5586C244.619 47.5584 243.91 46.8483 243.91 45.9756V39.8682C243.877 39.5482 243.944 39.2192 244.115 38.9199ZM252.906 30.2373C253.666 29.7976 254.64 30.0581 255.078 30.8203C255.517 31.5802 255.257 32.5517 254.495 32.9893L251.432 34.7578L254.495 36.5273C255.254 36.9672 255.517 37.9384 255.078 38.6982C254.638 39.4582 253.666 39.7187 252.906 39.2812L247.496 36.1562C246.982 35.8614 246.697 35.3196 246.702 34.7646C246.693 34.2076 246.978 33.6597 247.496 33.3604L252.906 30.2373ZM231.283 30.0625C231.552 30.0625 231.821 30.1338 232.056 30.2695L237.466 33.3926C237.955 33.6758 238.252 34.2014 238.243 34.7656C238.247 35.325 237.95 35.845 237.466 36.126L232.056 39.249C231.821 39.3848 231.552 39.456 231.281 39.4561C230.728 39.4561 230.211 39.1597 229.935 38.6807C229.728 38.3214 229.672 37.9017 229.781 37.501C229.887 37.1003 230.145 36.7668 230.504 36.5596L233.623 34.7588L230.504 32.96C229.763 32.5317 229.507 31.5804 229.935 30.8389C230.211 30.3599 230.728 30.0625 231.283 30.0625ZM242.777 31.7988C242.897 31.7989 243.065 31.868 243.15 31.9531L245.293 34.0996C245.379 34.1848 245.448 34.3506 245.448 34.4727V35.0186C245.448 35.1383 245.379 35.3041 245.293 35.3916L243.15 37.5361C243.065 37.6212 242.897 37.6903 242.777 37.6904H242.231C242.111 37.6904 241.943 37.6212 241.858 37.5361L239.711 35.3916C239.626 35.3041 239.557 35.1383 239.557 35.0186V34.4727C239.557 34.3506 239.626 34.1848 239.711 34.0996L241.858 31.9531C241.943 31.868 242.111 31.7988 242.231 31.7988H242.777ZM242.491 33.7129C242.403 33.713 242.282 33.7637 242.217 33.8281L241.586 34.459C241.524 34.5212 241.473 34.6436 241.473 34.7334V34.7559C241.473 34.8457 241.524 34.9681 241.586 35.0303L242.217 35.6631C242.282 35.7252 242.403 35.7762 242.491 35.7764H242.514C242.604 35.7763 242.726 35.7252 242.789 35.6631L243.421 35.0303C243.484 34.9681 243.535 34.8457 243.535 34.7559V34.7334C243.535 34.6459 243.484 34.5235 243.421 34.459L242.789 33.8281C242.726 33.7637 242.604 33.7129 242.514 33.7129H242.491ZM239.53 21.9307C240.402 21.9308 241.112 22.6406 241.112 23.5156V29.7744C241.112 30.235 240.916 30.6503 240.6 30.9404C240.103 31.426 239.325 31.5455 238.694 31.1797L233.284 28.0566C232.524 27.6167 232.262 26.6447 232.702 25.8848C233.142 25.1251 234.113 24.8651 234.873 25.3047L237.945 27.0781V23.5156C237.945 22.6405 238.655 21.9307 239.53 21.9307ZM245.495 21.9307C246.367 21.9309 247.077 22.6407 247.077 23.5156V27.0547L250.107 25.3047C250.867 24.8648 251.839 25.1249 252.279 25.8848C252.719 26.6447 252.456 27.6191 251.696 28.0566L246.287 31.1797C245.527 31.6195 244.555 31.3593 244.115 30.5996C243.942 30.3003 243.88 29.9682 243.91 29.6504V23.5156C243.91 22.6405 244.619 21.9307 245.495 21.9307Z" fill="#29B5E8"/>
</g>
<g filter="url(#filter4_d_16736_29152)">
<rect x="282.064" y="8.07275" width="53.2803" height="53.2803" rx="9.68733" fill="white" fill-opacity="0.9" shape-rendering="crispEdges"/>
<rect x="297.232" y="23.2412" width="10.8345" height="10.8345" fill="#F25022"/>
<rect x="297.232" y="35.3506" width="10.8345" height="10.8345" fill="#00A4EF"/>
<rect x="309.342" y="23.2412" width="10.8345" height="10.8345" fill="#7FBA00"/>
<rect x="309.342" y="35.3506" width="10.8345" height="10.8345" fill="#FFB900"/>
</g>
<g filter="url(#filter5_d_16736_29152)">
<rect x="348.262" y="8.07275" width="53.2803" height="53.2803" rx="9.68733" fill="white" fill-opacity="0.9" shape-rendering="crispEdges"/>
<g clip-path="url(#clip0_16736_29152)">
<path d="M363.047 41.1097C362.783 41.5363 362.486 42.0301 362.233 42.425C362.008 42.8021 362.129 43.288 362.506 43.5186L367.793 46.736C367.978 46.8488 368.202 46.8845 368.415 46.833C368.627 46.7815 368.809 46.6479 368.92 46.4629C369.131 46.1125 369.405 45.6583 369.701 45.1723C371.796 41.754 373.902 42.1726 377.702 43.9659L382.945 46.4312C383.143 46.5242 383.373 46.5341 383.578 46.4589C383.784 46.3827 383.95 46.2283 384.039 46.0294L386.557 40.3991C386.735 39.9973 386.554 39.5282 386.15 39.3451C385.044 38.8305 382.844 37.8052 380.863 36.8601C373.736 33.4368 367.68 33.6585 363.047 41.1097Z" fill="url(#paint1_linear_16736_29152)"/>
<path d="M386.757 28.3332C387.022 27.9066 387.319 27.4128 387.571 27.0179C387.796 26.6408 387.675 26.1549 387.299 25.9243L382.011 22.7079C381.823 22.5832 381.592 22.5406 381.373 22.5911C381.153 22.6415 380.964 22.7801 380.851 22.9731C380.64 23.3234 380.367 23.7777 380.071 24.2636C377.975 27.682 375.869 27.2633 372.07 25.47L366.843 23.0176C366.645 22.9246 366.416 22.9147 366.211 22.9899C366.004 23.0661 365.838 23.2205 365.749 23.4194L363.232 29.0497C363.053 29.4515 363.235 29.9206 363.638 30.1037C364.744 30.6183 366.944 31.6436 368.925 32.5888C376.068 36.0071 382.124 35.7775 386.757 28.3341V28.3332Z" fill="url(#paint2_linear_16736_29152)"/>
</g>
</g>
<g filter="url(#filter6_d_16736_29152)">
<rect x="414.458" y="8.07275" width="53.2803" height="53.2803" rx="9.68733" fill="white" fill-opacity="0.9" shape-rendering="crispEdges"/>
<path fill-rule="evenodd" clip-rule="evenodd" d="M441.099 21.9307C434.037 21.9307 428.317 27.6866 428.317 34.7932C428.317 40.4848 431.976 45.2922 437.057 46.9965C437.696 47.109 437.936 46.7232 437.936 46.3855C437.936 46.08 437.92 45.0671 437.92 43.9899C434.708 44.5848 433.878 43.202 433.622 42.4785C433.478 42.1087 432.855 40.9672 432.312 40.6617C431.864 40.4205 431.225 39.8256 432.296 39.8096C433.302 39.7935 434.021 40.7421 434.261 41.128C435.411 43.0734 437.249 42.5268 437.984 42.1891C438.096 41.3531 438.431 40.7903 438.799 40.4688C435.955 40.1472 432.983 39.0378 432.983 34.1179C432.983 32.7191 433.478 31.5615 434.293 30.6611C434.165 30.3395 433.718 29.0211 434.421 27.2525C434.421 27.2525 435.491 26.9149 437.936 28.5709C438.958 28.2815 440.045 28.1368 441.131 28.1368C442.218 28.1368 443.304 28.2815 444.327 28.5709C446.771 26.8988 447.842 27.2525 447.842 27.2525C448.545 29.0211 448.097 30.3395 447.97 30.6611C448.784 31.5615 449.28 32.703 449.28 34.1179C449.28 39.0539 446.292 40.1472 443.448 40.4688C443.911 40.8707 444.311 41.6425 444.311 42.8483C444.311 44.5687 444.295 45.9514 444.295 46.3855C444.295 46.7232 444.534 47.1251 445.174 46.9965C450.222 45.2922 453.881 40.4688 453.881 34.7932C453.881 27.6866 448.161 21.9307 441.099 21.9307Z" fill="#111418"/>
</g>
<g filter="url(#filter7_d_16736_29152)">
<rect x="480.655" y="8.07275" width="53.2803" height="53.2803" rx="9.68733" fill="white" fill-opacity="0.9" shape-rendering="crispEdges"/>
<path d="M518.705 33.4133H511.43C511.086 33.4133 510.805 33.7051 510.815 34.049C510.815 34.1116 510.826 34.1741 510.847 34.2366L512.598 38.7703C512.66 38.9266 512.577 39.1038 512.42 39.1559C512.379 39.1663 512.337 39.1768 512.295 39.1768L510.055 39.0413C509.95 39.0309 509.857 39.083 509.794 39.1663L508.054 41.6364C507.96 41.7823 507.772 41.824 507.637 41.7302C507.637 41.7302 507.637 41.7302 507.626 41.7302L505.052 39.9793C504.948 39.9063 504.812 39.9063 504.718 39.9793L501.154 42.3972C501.019 42.491 500.831 42.4598 500.737 42.3243C500.685 42.2513 500.675 42.1575 500.695 42.0741L501.686 38.5202C501.727 38.3743 501.654 38.2179 501.508 38.1658L499.622 37.3946C499.466 37.332 499.393 37.1653 499.455 37.0089C499.466 36.9777 499.486 36.9568 499.507 36.9256L501.175 34.862C501.258 34.7577 501.258 34.6118 501.185 34.5076L499.789 32.4753C499.695 32.3398 499.726 32.1522 499.862 32.0584C499.903 32.0271 499.955 32.0063 500.018 32.0063L502.196 31.8395C502.363 31.8291 502.478 31.6936 502.478 31.5269L502.311 28.4731C502.3 28.3064 502.436 28.1605 502.603 28.1501C502.644 28.1501 502.686 28.1605 502.728 28.1709L505.427 29.2861C505.542 29.3382 505.677 29.3069 505.761 29.2027L507.616 27.1183C507.73 26.9932 507.918 26.9828 508.043 27.0974C508.074 27.1287 508.095 27.1599 508.116 27.2016L509.231 30.0782C509.356 30.3804 509.711 30.5263 510.013 30.4013C510.055 30.3804 510.107 30.3596 510.138 30.3283L514.515 27.0766C514.776 26.8786 514.838 26.5138 514.64 26.2428C514.515 26.0656 514.296 25.9718 514.078 26.0031L511.191 26.3887C511.055 26.4095 510.93 26.3262 510.878 26.2011L509.356 22.3032C509.231 22.001 508.887 21.855 508.585 21.9697C508.502 22.001 508.429 22.0531 508.366 22.126L505.073 25.7008C504.989 25.7946 504.854 25.8155 504.739 25.7738L500.404 23.9395C500.101 23.8144 499.747 23.9499 499.612 24.2626C499.58 24.3251 499.57 24.3981 499.57 24.471L499.414 28.9421C499.403 29.0985 499.288 29.2131 499.132 29.234L495.172 29.4945C494.838 29.5154 494.598 29.7968 494.619 30.1303C494.63 30.2345 494.661 30.3387 494.724 30.4221L497.36 34.3096C497.433 34.4242 497.433 34.5701 497.34 34.6744L494.661 37.7489C494.442 37.9991 494.473 38.3743 494.713 38.5827C494.765 38.6244 494.817 38.6557 494.869 38.6869L497.965 40.021C498.1 40.0731 498.173 40.2294 498.132 40.3649L496.172 48.0252C496.089 48.3483 496.287 48.6714 496.6 48.7548C496.777 48.7965 496.954 48.7652 497.1 48.661L504.468 43.3769C504.573 43.304 504.708 43.304 504.812 43.3769L508.168 45.7323C508.439 45.9199 508.814 45.8574 509.002 45.5864L509.012 45.576L511.107 42.3555C511.17 42.2617 511.284 42.2096 511.399 42.2305L516.412 42.835C516.819 42.8975 517.225 42.5536 517.079 42.1784L514.995 36.7692C514.932 36.6129 515.016 36.4357 515.172 36.3732L518.986 34.5701C519.549 34.2887 519.351 33.4133 518.705 33.4133Z" fill="#8039E9"/>
</g>
<g filter="url(#filter8_d_16736_29152)">
<rect x="546.852" y="8.07275" width="53.2803" height="53.2803" rx="9.68733" fill="white" fill-opacity="0.9" shape-rendering="crispEdges"/>
<path d="M561.35 45.5778H565.824V34.7131L559.433 29.9199V43.6605C559.433 44.7214 560.292 45.5778 561.35 45.5778Z" fill="#4285F4"/>
<path d="M581.162 45.5778H585.636C586.697 45.5778 587.553 44.7182 587.553 43.6605V29.9199L581.162 34.7131" fill="#34A853"/>
<path d="M581.162 26.4051V34.7134L587.553 29.9202V27.3638C587.553 24.9927 584.846 23.6411 582.952 25.063" fill="#FBBC04"/>
<path d="M565.823 34.7135V26.4053L573.492 32.1571L581.162 26.4053V34.7135L573.492 40.4654" fill="#EA4335"/>
<path d="M559.433 27.3638V29.9202L565.824 34.7134V26.4051L564.034 25.063C562.136 23.6411 559.433 24.9927 559.433 27.3638Z" fill="#C5221F"/>
</g>
<g filter="url(#filter9_d_16736_29152)">
<rect x="613.049" y="8.07275" width="53.2803" height="53.2803" rx="9.68733" fill="white" fill-opacity="0.9" shape-rendering="crispEdges"/>
<g clip-path="url(#clip1_16736_29152)">
<path fill-rule="evenodd" clip-rule="evenodd" d="M637.089 26.8332C638.079 25.8023 639.457 25.164 640.98 25.164C643.01 25.164 644.769 26.2918 645.717 27.9722C646.557 27.5963 647.468 27.4022 648.389 27.4027C652.044 27.4027 655.01 30.3914 655.01 34.0794C655.01 37.7673 652.044 40.756 648.389 40.756C647.943 40.756 647.508 40.7111 647.081 40.6263C646.252 42.1038 644.668 43.1075 642.863 43.1075C642.128 43.109 641.403 42.9423 640.743 42.6203C639.903 44.594 637.946 45.9812 635.668 45.9812C633.288 45.9812 631.269 44.4812 630.491 42.3722C630.145 42.4453 629.792 42.482 629.438 42.4818C626.607 42.4818 624.317 40.1585 624.317 37.3051C624.317 35.3878 625.348 33.7187 626.878 32.8164C626.553 32.069 626.386 31.2628 626.387 30.448C626.387 27.1548 629.06 24.4932 632.353 24.4932C634.282 24.4932 636.007 25.4123 637.09 26.839" fill="#00A1E0"/>
</g>
</g>
<g filter="url(#filter10_d_16736_29152)">
<rect x="679.245" y="8.07275" width="53.2803" height="53.2803" rx="9.68733" fill="white" fill-opacity="0.9" shape-rendering="crispEdges"/>
<path fill-rule="evenodd" clip-rule="evenodd" d="M710.708 40.2947C708.927 40.2947 707.483 38.8566 707.483 37.0829C707.483 35.3088 708.927 33.8707 710.708 33.8707C712.49 33.8707 713.934 35.3088 713.934 37.0829C713.934 38.8566 712.49 40.2947 710.708 40.2947ZM711.674 30.899V28.0416C712.423 27.6894 712.948 26.9349 712.948 26.0593V25.9933C712.948 24.7848 711.955 23.7961 710.741 23.7961H710.675C709.462 23.7961 708.469 24.7848 708.469 25.9933V26.0593C708.469 26.9349 708.993 27.6897 709.742 28.0419V30.899C708.627 31.0707 707.608 31.5287 706.768 32.2027L698.889 26.0999C698.941 25.9011 698.978 25.6965 698.978 25.4814C698.979 24.1129 697.867 23.0019 696.492 23C695.118 22.9985 694.002 24.1065 694 25.4752C693.998 26.8439 695.111 27.955 696.486 27.9566C696.934 27.9572 697.348 27.8305 697.712 27.6246L705.462 33.6282C704.803 34.6188 704.417 35.8053 704.417 37.0829C704.417 38.4202 704.841 39.6573 705.558 40.6747L703.201 43.0217C703.015 42.9659 702.822 42.9271 702.617 42.9271C701.487 42.9271 700.571 43.8387 700.571 44.9634C700.571 46.0883 701.487 47 702.617 47C703.746 47 704.662 46.0883 704.662 44.9634C704.662 44.76 704.623 44.5673 704.567 44.3818L706.898 42.0604C707.956 42.8645 709.274 43.3478 710.708 43.3478C714.183 43.3478 717 40.5428 717 37.0829C717 33.9506 714.689 31.3629 711.674 30.899Z" fill="#FF7A59"/>
</g>
<g filter="url(#filter11_d_16736_29152)">
<rect x="745.442" y="8.07275" width="53.2803" height="53.2803" rx="9.68733" fill="white" fill-opacity="0.9" shape-rendering="crispEdges"/>
<path d="M760.149 44.4244L761.389 46.662C761.647 47.1331 762.018 47.5032 762.452 47.7724L766.881 39.7642H758.023C758.023 40.2857 758.152 40.8073 758.41 41.2783L760.149 44.4244Z" fill="#0066DA"/>
<path d="M772.084 30.3432L767.655 22.335C767.22 22.6041 766.849 22.9743 766.592 23.4453L758.41 38.2505C758.157 38.7114 758.024 39.2334 758.023 39.7647H766.881L772.084 30.3432Z" fill="#00AC47"/>
<path d="M781.715 47.7724C782.15 47.5032 782.52 47.1331 782.778 46.662L783.293 45.7367L785.757 41.2783C786.015 40.8073 786.144 40.2857 786.144 39.7642H777.285L779.17 43.6337L781.715 47.7724Z" fill="#EA4335"/>
<path d="M772.083 30.3427L776.512 22.3344C776.077 22.0653 775.578 21.9307 775.063 21.9307H769.104C768.588 21.9307 768.089 22.0821 767.654 22.3344L772.083 30.3427Z" fill="#00832D"/>
<path d="M777.285 39.7642H766.881L762.452 47.7724C762.887 48.0416 763.386 48.1762 763.902 48.1762H780.265C780.78 48.1762 781.279 48.0248 781.714 47.7724L777.285 39.7642Z" fill="#2684FC"/>
<path d="M781.666 30.8479L777.575 23.4453C777.317 22.9743 776.947 22.6041 776.512 22.335L772.083 30.3432L777.285 39.7647H786.127C786.127 39.2431 785.998 38.7216 785.74 38.2505L781.666 30.8479Z" fill="#FFBA00"/>
</g>
</g>
<defs>
<filter id="filter0_d_16736_29152" x="16.2773" y="8.07275" width="55.2803" height="55.2803" filterUnits="userSpaceOnUse" color-interpolation-filters="sRGB">
<feFlood flood-opacity="0" result="BackgroundImageFix"/>
<feColorMatrix in="SourceAlpha" type="matrix" values="0 0 0 0 0 0 0 0 0 0 0 0 0 0 0 0 0 0 127 0" result="hardAlpha"/>
<feOffset dy="1"/>
<feGaussianBlur stdDeviation="0.5"/>
<feComposite in2="hardAlpha" operator="out"/>
<feColorMatrix type="matrix" values="0 0 0 0 0 0 0 0 0 0 0 0 0 0 0 0 0 0 0.08 0"/>
<feBlend mode="normal" in2="BackgroundImageFix" result="effect1_dropShadow_16736_29152"/>
<feBlend mode="normal" in="BackgroundImageFix" in2="effect1_dropShadow_16736_29152" result="BackgroundImageFix"/>
<feBlend mode="normal" in="SourceGraphic" in2="BackgroundImageFix" result="shape"/>
</filter>
<filter id="filter1_d_16736_29152" x="82.4746" y="8.07275" width="55.2803" height="55.2803" filterUnits="userSpaceOnUse" color-interpolation-filters="sRGB">
<feFlood flood-opacity="0" result="BackgroundImageFix"/>
<feColorMatrix in="SourceAlpha" type="matrix" values="0 0 0 0 0 0 0 0 0 0 0 0 0 0 0 0 0 0 127 0" result="hardAlpha"/>
<feOffset dy="1"/>
<feGaussianBlur stdDeviation="0.5"/>
<feComposite in2="hardAlpha" operator="out"/>
<feColorMatrix type="matrix" values="0 0 0 0 0 0 0 0 0 0 0 0 0 0 0 0 0 0 0.08 0"/>
<feBlend mode="normal" in2="BackgroundImageFix" result="effect1_dropShadow_16736_29152"/>
<feBlend mode="normal" in="BackgroundImageFix" in2="effect1_dropShadow_16736_29152" result="BackgroundImageFix"/>
<feBlend mode="normal" in="SourceGraphic" in2="BackgroundImageFix" result="shape"/>
</filter>
<filter id="filter2_d_16736_29152" x="148.671" y="8.07275" width="55.2803" height="55.2803" filterUnits="userSpaceOnUse" color-interpolation-filters="sRGB">
<feFlood flood-opacity="0" result="BackgroundImageFix"/>
<feColorMatrix in="SourceAlpha" type="matrix" values="0 0 0 0 0 0 0 0 0 0 0 0 0 0 0 0 0 0 127 0" result="hardAlpha"/>
<feOffset dy="1"/>
<feGaussianBlur stdDeviation="0.5"/>
<feComposite in2="hardAlpha" operator="out"/>
<feColorMatrix type="matrix" values="0 0 0 0 0 0 0 0 0 0 0 0 0 0 0 0 0 0 0.08 0"/>
<feBlend mode="normal" in2="BackgroundImageFix" result="effect1_dropShadow_16736_29152"/>
<feBlend mode="normal" in="BackgroundImageFix" in2="effect1_dropShadow_16736_29152" result="BackgroundImageFix"/>
<feBlend mode="normal" in="SourceGraphic" in2="BackgroundImageFix" result="shape"/>
</filter>
<filter id="filter3_d_16736_29152" x="214.868" y="8.07275" width="55.2803" height="55.2803" filterUnits="userSpaceOnUse" color-interpolation-filters="sRGB">
<feFlood flood-opacity="0" result="BackgroundImageFix"/>
<feColorMatrix in="SourceAlpha" type="matrix" values="0 0 0 0 0 0 0 0 0 0 0 0 0 0 0 0 0 0 127 0" result="hardAlpha"/>
<feOffset dy="1"/>
<feGaussianBlur stdDeviation="0.5"/>
<feComposite in2="hardAlpha" operator="out"/>
<feColorMatrix type="matrix" values="0 0 0 0 0 0 0 0 0 0 0 0 0 0 0 0 0 0 0.08 0"/>
<feBlend mode="normal" in2="BackgroundImageFix" result="effect1_dropShadow_16736_29152"/>
<feBlend mode="normal" in="BackgroundImageFix" in2="effect1_dropShadow_16736_29152" result="BackgroundImageFix"/>
<feBlend mode="normal" in="SourceGraphic" in2="BackgroundImageFix" result="shape"/>
</filter>
<filter id="filter4_d_16736_29152" x="281.064" y="8.07275" width="55.2803" height="55.2803" filterUnits="userSpaceOnUse" color-interpolation-filters="sRGB">
<feFlood flood-opacity="0" result="BackgroundImageFix"/>
<feColorMatrix in="SourceAlpha" type="matrix" values="0 0 0 0 0 0 0 0 0 0 0 0 0 0 0 0 0 0 127 0" result="hardAlpha"/>
<feOffset dy="1"/>
<feGaussianBlur stdDeviation="0.5"/>
<feComposite in2="hardAlpha" operator="out"/>
<feColorMatrix type="matrix" values="0 0 0 0 0 0 0 0 0 0 0 0 0 0 0 0 0 0 0.08 0"/>
<feBlend mode="normal" in2="BackgroundImageFix" result="effect1_dropShadow_16736_29152"/>
<feBlend mode="normal" in="BackgroundImageFix" in2="effect1_dropShadow_16736_29152" result="BackgroundImageFix"/>
<feBlend mode="normal" in="SourceGraphic" in2="BackgroundImageFix" result="shape"/>
</filter>
<filter id="filter5_d_16736_29152" x="347.262" y="8.07275" width="55.2803" height="55.2803" filterUnits="userSpaceOnUse" color-interpolation-filters="sRGB">
<feFlood flood-opacity="0" result="BackgroundImageFix"/>
<feColorMatrix in="SourceAlpha" type="matrix" values="0 0 0 0 0 0 0 0 0 0 0 0 0 0 0 0 0 0 127 0" result="hardAlpha"/>
<feOffset dy="1"/>
<feGaussianBlur stdDeviation="0.5"/>
<feComposite in2="hardAlpha" operator="out"/>
<feColorMatrix type="matrix" values="0 0 0 0 0 0 0 0 0 0 0 0 0 0 0 0 0 0 0.08 0"/>
<feBlend mode="normal" in2="BackgroundImageFix" result="effect1_dropShadow_16736_29152"/>
<feBlend mode="normal" in="BackgroundImageFix" in2="effect1_dropShadow_16736_29152" result="BackgroundImageFix"/>
<feBlend mode="normal" in="SourceGraphic" in2="BackgroundImageFix" result="shape"/>
</filter>
<filter id="filter6_d_16736_29152" x="413.458" y="8.07275" width="55.2803" height="55.2803" filterUnits="userSpaceOnUse" color-interpolation-filters="sRGB">
<feFlood flood-opacity="0" result="BackgroundImageFix"/>
<feColorMatrix in="SourceAlpha" type="matrix" values="0 0 0 0 0 0 0 0 0 0 0 0 0 0 0 0 0 0 127 0" result="hardAlpha"/>
<feOffset dy="1"/>
<feGaussianBlur stdDeviation="0.5"/>
<feComposite in2="hardAlpha" operator="out"/>
<feColorMatrix type="matrix" values="0 0 0 0 0 0 0 0 0 0 0 0 0 0 0 0 0 0 0.08 0"/>
<feBlend mode="normal" in2="BackgroundImageFix" result="effect1_dropShadow_16736_29152"/>
<feBlend mode="normal" in="BackgroundImageFix" in2="effect1_dropShadow_16736_29152" result="BackgroundImageFix"/>
<feBlend mode="normal" in="SourceGraphic" in2="BackgroundImageFix" result="shape"/>
</filter>
<filter id="filter7_d_16736_29152" x="479.655" y="8.07275" width="55.2803" height="55.2803" filterUnits="userSpaceOnUse" color-interpolation-filters="sRGB">
<feFlood flood-opacity="0" result="BackgroundImageFix"/>
<feColorMatrix in="SourceAlpha" type="matrix" values="0 0 0 0 0 0 0 0 0 0 0 0 0 0 0 0 0 0 127 0" result="hardAlpha"/>
<feOffset dy="1"/>
<feGaussianBlur stdDeviation="0.5"/>
<feComposite in2="hardAlpha" operator="out"/>
<feColorMatrix type="matrix" values="0 0 0 0 0 0 0 0 0 0 0 0 0 0 0 0 0 0 0.08 0"/>
<feBlend mode="normal" in2="BackgroundImageFix" result="effect1_dropShadow_16736_29152"/>
<feBlend mode="normal" in="BackgroundImageFix" in2="effect1_dropShadow_16736_29152" result="BackgroundImageFix"/>
<feBlend mode="normal" in="SourceGraphic" in2="BackgroundImageFix" result="shape"/>
</filter>
<filter id="filter8_d_16736_29152" x="545.852" y="8.07275" width="55.2803" height="55.2803" filterUnits="userSpaceOnUse" color-interpolation-filters="sRGB">
<feFlood flood-opacity="0" result="BackgroundImageFix"/>
<feColorMatrix in="SourceAlpha" type="matrix" values="0 0 0 0 0 0 0 0 0 0 0 0 0 0 0 0 0 0 127 0" result="hardAlpha"/>
<feOffset dy="1"/>
<feGaussianBlur stdDeviation="0.5"/>
<feComposite in2="hardAlpha" operator="out"/>
<feColorMatrix type="matrix" values="0 0 0 0 0 0 0 0 0 0 0 0 0 0 0 0 0 0 0.08 0"/>
<feBlend mode="normal" in2="BackgroundImageFix" result="effect1_dropShadow_16736_29152"/>
<feBlend mode="normal" in="BackgroundImageFix" in2="effect1_dropShadow_16736_29152" result="BackgroundImageFix"/>
<feBlend mode="normal" in="SourceGraphic" in2="BackgroundImageFix" result="shape"/>
</filter>
<filter id="filter9_d_16736_29152" x="612.049" y="8.07275" width="55.2803" height="55.2803" filterUnits="userSpaceOnUse" color-interpolation-filters="sRGB">
<feFlood flood-opacity="0" result="BackgroundImageFix"/>
<feColorMatrix in="SourceAlpha" type="matrix" values="0 0 0 0 0 0 0 0 0 0 0 0 0 0 0 0 0 0 127 0" result="hardAlpha"/>
<feOffset dy="1"/>
<feGaussianBlur stdDeviation="0.5"/>
<feComposite in2="hardAlpha" operator="out"/>
<feColorMatrix type="matrix" values="0 0 0 0 0 0 0 0 0 0 0 0 0 0 0 0 0 0 0.08 0"/>
<feBlend mode="normal" in2="BackgroundImageFix" result="effect1_dropShadow_16736_29152"/>
<feBlend mode="normal" in="BackgroundImageFix" in2="effect1_dropShadow_16736_29152" result="BackgroundImageFix"/>
<feBlend mode="normal" in="SourceGraphic" in2="BackgroundImageFix" result="shape"/>
</filter>
<filter id="filter10_d_16736_29152" x="678.245" y="8.07275" width="55.2803" height="55.2803" filterUnits="userSpaceOnUse" color-interpolation-filters="sRGB">
<feFlood flood-opacity="0" result="BackgroundImageFix"/>
<feColorMatrix in="SourceAlpha" type="matrix" values="0 0 0 0 0 0 0 0 0 0 0 0 0 0 0 0 0 0 127 0" result="hardAlpha"/>
<feOffset dy="1"/>
<feGaussianBlur stdDeviation="0.5"/>
<feComposite in2="hardAlpha" operator="out"/>
<feColorMatrix type="matrix" values="0 0 0 0 0 0 0 0 0 0 0 0 0 0 0 0 0 0 0.08 0"/>
<feBlend mode="normal" in2="BackgroundImageFix" result="effect1_dropShadow_16736_29152"/>
<feBlend mode="normal" in="BackgroundImageFix" in2="effect1_dropShadow_16736_29152" result="BackgroundImageFix"/>
<feBlend mode="normal" in="SourceGraphic" in2="BackgroundImageFix" result="shape"/>
</filter>
<filter id="filter11_d_16736_29152" x="744.442" y="8.07275" width="55.2803" height="55.2803" filterUnits="userSpaceOnUse" color-interpolation-filters="sRGB">
<feFlood flood-opacity="0" result="BackgroundImageFix"/>
<feColorMatrix in="SourceAlpha" type="matrix" values="0 0 0 0 0 0 0 0 0 0 0 0 0 0 0 0 0 0 127 0" result="hardAlpha"/>
<feOffset dy="1"/>
<feGaussianBlur stdDeviation="0.5"/>
<feComposite in2="hardAlpha" operator="out"/>
<feColorMatrix type="matrix" values="0 0 0 0 0 0 0 0 0 0 0 0 0 0 0 0 0 0 0.08 0"/>
<feBlend mode="normal" in2="BackgroundImageFix" result="effect1_dropShadow_16736_29152"/>
<feBlend mode="normal" in="BackgroundImageFix" in2="effect1_dropShadow_16736_29152" result="BackgroundImageFix"/>
<feBlend mode="normal" in="SourceGraphic" in2="BackgroundImageFix" result="shape"/>
</filter>
<linearGradient id="paint0_linear_16736_29152" x1="-74.5" y1="35" x2="887.5" y2="35.171" gradientUnits="userSpaceOnUse">
<stop stop-opacity="0"/>
<stop offset="0.485577"/>
<stop offset="1" stop-opacity="0"/>
</linearGradient>
<linearGradient id="paint1_linear_16736_29152" x1="386.412" y1="48.2669" x2="380.644" y2="34.8158" gradientUnits="userSpaceOnUse">
<stop offset="0.18" stop-color="#0052CC"/>
<stop offset="1" stop-color="#2684FF"/>
</linearGradient>
<linearGradient id="paint2_linear_16736_29152" x1="363.493" y1="20.9036" x2="369.272" y2="34.3694" gradientUnits="userSpaceOnUse">
<stop offset="0.18" stop-color="#0052CC"/>
<stop offset="1" stop-color="#2684FF"/>
</linearGradient>
<clipPath id="clip0_16736_29152">
<rect width="25.5638" height="24.2856" fill="white" transform="translate(362.12 22.5703)"/>
</clipPath>
<clipPath id="clip1_16736_29152">
<rect width="30.6765" height="30.6765" fill="white" transform="translate(624.352 19.3745)"/>
</clipPath>
</defs>
</svg>
