<svg fill="none" height="98" viewBox="0 0 300 98" width="300" xmlns="http://www.w3.org/2000/svg" xmlns:xlink="http://www.w3.org/1999/xlink"><filter id="a" color-interpolation-filters="sRGB" filterUnits="userSpaceOnUse" height="104.95" width="587.95" x="6.52486" y="9.26243"><feFlood flood-opacity="0" result="BackgroundImageFix"/><feColorMatrix in="SourceAlpha" result="hardAlpha" type="matrix" values="0 0 0 0 0 0 0 0 0 0 0 0 0 0 0 0 0 0 127 0"/><feOffset dy="1.73757"/><feGaussianBlur stdDeviation="1.73757"/><feComposite in2="hardAlpha" operator="out"/><feColorMatrix type="matrix" values="0 0 0 0 0 0 0 0 0 0 0 0 0 0 0 0 0 0 0.08 0"/><feBlend in2="BackgroundImageFix" mode="normal" result="effect1_dropShadow_1618_70587"/><feBlend in="SourceGraphic" in2="effect1_dropShadow_1618_70587" mode="normal" result="shape"/></filter><clipPath id="b"><path d="m0 0h300v98h-300z"/></clipPath><g clip-path="url(#b)"><path d="m0 0h300v98h-300z" fill="#ede9fe"/><g filter="url(#a)"><rect fill="#fff" height="98" rx="8" shape-rendering="crispEdges" width="581" x="10" y="11"/><path d="m33.333 38.5222c-.4427.1859-.9075.3231-1.3944.4117-.487.0973-1.0049.146-1.5538.146-1.0181 0-1.8902-.1903-2.6162-.571-.7171-.3718-1.2704-.9163-1.66-1.6334-.3807-.7172-.571-1.5759-.571-2.5764 0-.903.1417-1.7264.425-2.47.2833-.7437.6861-1.3856 1.2084-1.9256.5312-.5489 1.1554-.9695 1.8725-1.2616.7171-.3011 1.5095-.4516 2.3771-.4516 1.0005 0 1.8725.1948 2.6162.5844.7437.3895 1.3191.9384 1.7264 1.6467.4073.7082.6109 1.5449.6109 2.5099 0 .7083-.1063 1.3324-.3187 1.8725-.2125.54-.5047.965-.8765 1.2749-.3719.301-.8012.4515-1.2882.4515-.4072 0-.7437-.1195-1.0093-.3586-.2567-.239-.3984-.5622-.4249-.9694l.1992-.0531c-.1063.2567-.2745.4957-.5047.7171-.2301.2213-.4913.3984-.7835.5312-.2921.1239-.5932.1859-.903.1859-.5224 0-.965-.1018-1.328-.3054-.3542-.2037-.6242-.487-.8101-.85-.1859-.3629-.2789-.7835-.2789-1.2616 0-.5931.1151-1.1332.3453-1.6201.239-.487.5666-.8721.9827-1.1554.425-.2921.9208-.4382 1.4874-.4382.4692 0 .8676.1062 1.1952.3187.3364.2036.5489.4737.6374.8101l-.1328.1328.093-1.2351h.9694l-.2125 2.7888c-.0088.1948-.0265.4161-.0531.664-.0177.2479-.0265.4516-.0265.6109 0 .1948.0531.3453.1593.4515.1063.1063.2656.1594.4781.1594.4515 0 .8057-.239 1.0624-.7171s.3851-1.1332.3851-1.9655c0-.8233-.1549-1.5227-.4648-2.0982-.3098-.5755-.7658-1.0093-1.3678-1.3014-.5932-.3011-1.3236-.4516-2.1912-.4516-.726 0-1.39.124-1.992.3719s-1.12.602-1.5538 1.0624c-.4338.4515-.7702.9916-1.0093 1.6201-.2301.6286-.3452 1.328-.3452 2.0983 0 .8233.1505 1.5272.4515 2.1115.3098.5755.7569 1.0137 1.3413 1.3147.5843.301 1.2925.4515 2.1248.4515.478 0 .9473-.0487 1.4076-.146.4693-.0886.8987-.2169 1.2882-.3852zm-2.7357-2.8154c.4426 0 .8012-.1062 1.0757-.3187.2833-.2213.4913-.5002.6241-.8366.1417-.3453.2125-.6995.2125-1.0624 0-.3099-.0531-.5888-.1594-.8367-.0973-.2567-.2611-.4559-.4913-.5976-.2214-.1505-.5179-.2257-.8898-.2257-.3984 0-.7348.1062-1.0093.3187-.2656.2036-.4692.4781-.6108.8233-.1417.3365-.2125.7083-.2125 1.1156 0 .4603.1062.8455.3187 1.1553.2213.3099.602.4648 1.1421.4648zm10.5742 2.1248c-.726 0-1.359-.1372-1.8991-.4117-.54-.2744-.9694-.6507-1.2881-1.1288-.3099-.4869-.4914-1.0491-.5445-1.6865l1.1952-.0797c.062.4692.1992.8676.4117 1.1952s.4958.5755.8499.7437c.363.1682.7968.2523 1.3014.2523.4427 0 .819-.0575 1.1288-.1726.3099-.1151.5445-.2833.7039-.5047.1682-.2213.2523-.4913.2523-.8101 0-.2921-.0708-.5489-.2125-.7702-.1328-.2302-.394-.4382-.7835-.6242-.3807-.1947-.9473-.3851-1.6998-.571-.726-.1859-1.3059-.3895-1.7397-.6109-.425-.2213-.7348-.4913-.9296-.8101-.1859-.3187-.2789-.7127-.2789-1.1819 0-.5312.1239-.996.3718-1.3944.2568-.4072.6198-.7215 1.089-.9429.4692-.2301 1.027-.3452 1.6733-.3452.6905 0 1.2837.1328 1.7795.3984.4958.2567.8898.6108 1.1819 1.0624.2922.4515.4737.965.5445 1.5404l-1.1952.0797c-.0531-.3807-.1771-.7171-.3718-1.0093-.186-.301-.4427-.5356-.7703-.7038s-.726-.2523-1.1952-.2523c-.5843 0-1.0491.1416-1.3944.4249-.3453.2745-.5179.6375-.5179 1.089 0 .2922.0664.5356.1992.7304.1417.1859.3895.3541.7437.5046.3541.1417.8632.2966 1.5272.4648.7879.1948 1.4121.4294 1.8725.7039.4692.2656.8012.5754.996.9296.2036.3541.3054.7569.3054 1.2085 0 .5489-.1417 1.0269-.425 1.4342-.2833.3984-.6728.7083-1.1686.9296-.4958.2125-1.0668.3187-1.7131.3187zm6.858-.0531c-.726 0-1.3059-.1682-1.7397-.5046-.425-.3365-.6375-.8057-.6375-1.4077s.1771-1.0757.5312-1.421c.3542-.3453.9164-.5887 1.6866-.7304l2.4966-.4648c0-.5932-.1416-1.0358-.4249-1.328-.2745-.2921-.6906-.4382-1.2483-.4382-.487 0-.8721.1106-1.1554.332-.2833.2125-.4781.5223-.5843.9296l-1.1819-.093c.1328-.664.4515-1.1996.9561-1.6069.5135-.4161 1.1687-.6241 1.9655-.6241.903 0 1.5936.2567 2.0716.7702.4781.5047.7172 1.2041.7172 2.0983v2.9083c0 .1593.0265.2744.0796.3453.062.0619.1594.0929.2922.0929h.2789v.9827c-.0354.0089-.093.0133-.1727.0133-.0796.0089-.1637.0133-.2523.0133-.3187 0-.5799-.0487-.7835-.1461-.1948-.1062-.3364-.2656-.425-.4781-.0885-.2213-.1328-.509-.1328-.8632l.1328.0266c-.0619.301-.2124.5755-.4515.8234-.239.239-.5356.4293-.8897.571-.3542.1328-.7304.1992-1.1288.1992zm.1062-.9827c.4692 0 .8676-.0886 1.1952-.2656.3364-.1859.5932-.4338.7702-.7437.1771-.3187.2656-.6729.2656-1.0624v-.5046l-2.2841.4249c-.4781.0886-.8101.2258-.996.4117-.1771.1771-.2656.4117-.2656.7038 0 .3276.1151.5844.3453.7703.239.177.5621.2656.9694.2656zm4.9916.8233v-7.0384h.9827l.0532 1.7796-.1063-.0399c.0886-.602.2789-1.0402.5711-1.3147.301-.2833.6994-.425 1.1952-.425h.6905v1.0624h-.6773c-.3541 0-.6507.0664-.8897.1992-.2302.124-.4073.3143-.5312.5711-.1151.2479-.1727.5666-.1727.9561v4.2496zm6.1336.1594c-.726 0-1.3059-.1682-1.7397-.5046-.4249-.3365-.6374-.8057-.6374-1.4077s.1771-1.0757.5312-1.421.9163-.5887 1.6866-.7304l2.4966-.4648c0-.5932-.1417-1.0358-.425-1.328-.2744-.2921-.6905-.4382-1.2483-.4382-.4869 0-.872.1106-1.1553.332-.2834.2125-.4781.5223-.5844.9296l-1.1819-.093c.1328-.664.4515-1.1996.9562-1.6069.5135-.4161 1.1686-.6241 1.9654-.6241.9031 0 1.5936.2567 2.0717.7702.4781.5047.7171 1.2041.7171 2.0983v2.9083c0 .1593.0266.2744.0797.3453.062.0619.1594.0929.2922.0929h.2788v.9827c-.0354.0089-.0929.0133-.1726.0133-.0797.0089-.1638.0133-.2523.0133-.3187 0-.5799-.0487-.7835-.1461-.1948-.1062-.3365-.2656-.425-.4781-.0885-.2213-.1328-.509-.1328-.8632l.1328.0266c-.062.301-.2125.5755-.4515.8234-.2391.239-.5357.4293-.8898.571-.3541.1328-.7304.1992-1.1288.1992zm.1063-.9827c.4692 0 .8676-.0886 1.1952-.2656.3364-.1859.5931-.4338.7702-.7437.1771-.3187.2656-.6729.2656-1.0624v-.5046l-2.2842.4249c-.478.0886-.81.2258-.996.4117-.177.1771-.2656.4117-.2656.7038 0 .3276.1151.5844.3453.7703.2391.177.5622.2656.9695.2656zm4.9397.8233v-9.4288h1.1155v3.9442l-.1328-.0266c.0886-.3895.2391-.7082.4515-.9561.2125-.2479.4737-.4294.7836-.5445.3098-.1239.6507-.1859 1.0225-.1859.5047 0 .9296.1151 1.2749.3453.3541.2213.6197.5356.7968.9428.1859.3984.2789.8588.2789 1.3812v4.5284h-1.1155v-4.2097c0-.6817-.124-1.1864-.3719-1.5139-.239-.3276-.6064-.4914-1.1022-.4914-.5666 0-1.0226.1726-1.3679.5179-.3452.3453-.5179.8455-.5179 1.5007v4.1964zm17.8358.9031c-.4427.1859-.9075.3231-1.3944.4117-.487.0973-1.0049.146-1.5538.146-1.0181 0-1.8902-.1903-2.6162-.571-.7171-.3718-1.2704-.9163-1.66-1.6334-.3806-.7172-.571-1.5759-.571-2.5764 0-.903.1417-1.7264.425-2.47.2833-.7437.6861-1.3856 1.2084-1.9256.5312-.5489 1.1554-.9695 1.8725-1.2616.7171-.3011 1.5095-.4516 2.3771-.4516 1.0005 0 1.8725.1948 2.6162.5844.7437.3895 1.3192.9384 1.7264 1.6467.4073.7082.6109 1.5449.6109 2.5099 0 .7083-.1063 1.3324-.3187 1.8725-.2125.54-.5047.965-.8765 1.2749-.3719.301-.8012.4515-1.2882.4515-.4072 0-.7437-.1195-1.0093-.3586-.2567-.239-.3984-.5622-.4249-.9694l.1992-.0531c-.1063.2567-.2745.4957-.5047.7171-.2301.2213-.4913.3984-.7835.5312-.2921.1239-.5931.1859-.903.1859-.5224 0-.965-.1018-1.328-.3054-.3541-.2037-.6242-.487-.8101-.85-.1859-.3629-.2789-.7835-.2789-1.2616 0-.5931.1151-1.1332.3453-1.6201.239-.487.5666-.8721.9827-1.1554.425-.2921.9208-.4382 1.4874-.4382.4692 0 .8676.1062 1.1952.3187.3364.2036.5489.4737.6374.8101l-.1328.1328.093-1.2351h.9694l-.2125 2.7888c-.0088.1948-.0265.4161-.0531.664-.0177.2479-.0265.4516-.0265.6109 0 .1948.0531.3453.1593.4515.1063.1063.2656.1594.4781.1594.4515 0 .8057-.239 1.0624-.7171.2568-.4781.3851-1.1332.3851-1.9655 0-.8233-.1549-1.5227-.4648-2.0982-.3098-.5755-.7658-1.0093-1.3678-1.3014-.5932-.3011-1.3236-.4516-2.1912-.4516-.726 0-1.39.124-1.992.3719s-1.12.602-1.5538 1.0624c-.4338.4515-.7702.9916-1.0093 1.6201-.2301.6286-.3452 1.328-.3452 2.0983 0 .8233.1505 1.5272.4515 2.1115.3099.5755.7569 1.0137 1.3413 1.3147.5843.301 1.2926.4515 2.1248.4515.478 0 .9473-.0487 1.4076-.146.4693-.0886.8987-.2169 1.2882-.3852zm-2.7357-2.8154c.4427 0 .8012-.1062 1.0757-.3187.2833-.2213.4913-.5002.6241-.8366.1417-.3453.2125-.6995.2125-1.0624 0-.3099-.0531-.5888-.1594-.8367-.0973-.2567-.2611-.4559-.4913-.5976-.2213-.1505-.5179-.2257-.8898-.2257-.3984 0-.7348.1062-1.0093.3187-.2656.2036-.4692.4781-.6108.8233-.1417.3365-.2125.7083-.2125 1.1156 0 .4603.1062.8455.3187 1.1553.2213.3099.602.4648 1.1421.4648zm10.0031 2.1248c-.5843 0-1.1022-.1372-1.5537-.4117-.4515-.2833-.8057-.6728-1.0624-1.1686-.2479-.4958-.3763-1.0668-.3851-1.7131l1.1686-.0797c.0089.726.1726 1.2837.4914 1.6733.3187.3895.7658.5843 1.3412.5843.6021 0 1.0624-.2081 1.3812-.6242.3275-.4161.4913-1.0048.4913-1.7662v-6.1354h1.1421v6.1354c0 .7171-.1239 1.3413-.3718 1.8725-.2479.5223-.5976.9252-1.0492 1.2085-.4426.2833-.9738.4249-1.5936.4249zm7.5787-.0531c-.6463 0-1.2129-.1505-1.6999-.4515-.4869-.301-.8632-.726-1.1288-1.2749-.2656-.5578-.3984-1.2085-.3984-1.9522 0-.7525.1328-1.4032.3984-1.9521s.6419-.9739 1.1288-1.2749c.487-.301 1.0536-.4515 1.6999-.4515s1.2085.1505 1.6865.4515c.487.301.8632.726 1.1288 1.2749.2659.5489.3989 1.1996.3989 1.9521 0 .7437-.133 1.3944-.3989 1.9522-.2656.5489-.6418.9739-1.1288 1.2749-.478.301-1.0402.4515-1.6865.4515zm0-1.0624c.6463 0 1.1465-.2302 1.5006-.6906.363-.4692.5445-1.1111.5445-1.9256s-.1815-1.4519-.5445-1.9123c-.3541-.4692-.8543-.7038-1.5006-.7038s-1.151.2346-1.5139.7038c-.363.4604-.5445 1.0978-.5445 1.9123s.1815 1.4564.5445 1.9256c.3629.4604.8676.6906 1.5139.6906zm4.4682.903v-9.4288h1.116v3.9442l-.133-.0266c.088-.3895.239-.7082.451-.9561.213-.2479.474-.4294.784-.5445.31-.1239.651-.1859 1.023-.1859.504 0 .929.1151 1.274.3453.355.2213.62.5356.797.9428.186.3984.279.8588.279 1.3812v4.5284h-1.115v-4.2097c0-.6817-.124-1.1864-.372-1.5139-.239-.3276-.607-.4914-1.103-.4914-.566 0-1.022.1726-1.367.5179-.346.3453-.518.8455-.518 1.5007v4.1964zm7.192 0v-7.0384h1.022l.04 1.7928-.133-.1195c.089-.4161.244-.7569.465-1.0225.221-.2745.487-.4781.797-.6109.319-.1328.659-.1992 1.022-.1992.54 0 .983.1195 1.328.3585.355.2391.616.5622.784.9695.177.3984.265.8455.265 1.3413v4.5284h-1.115v-4.2097c0-.4338-.053-.7968-.159-1.089-.098-.301-.257-.5268-.478-.6773-.222-.1593-.51-.239-.864-.239-.54 0-.987.1726-1.341.5179-.345.3364-.518.8322-.518 1.4874v4.2097z" fill="#6aa668"/><path d="m120.562 37.6191-2.178-7.0384h1.221l1.647 5.8698 1.673-5.8698h1.196l1.673 5.8698 1.66-5.8698h1.222l-2.178 7.0384h-1.408l-1.567-5.3518-1.567 5.3518zm9.077 0v-9.4288h1.116v3.9442l-.133-.0266c.089-.3895.239-.7082.452-.9561.212-.2479.473-.4294.783-.5445.31-.1239.651-.1859 1.023-.1859.504 0 .929.1151 1.275.3453.354.2213.619.5356.796.9428.186.3984.279.8588.279 1.3812v4.5284h-1.115v-4.2097c0-.6817-.124-1.1864-.372-1.5139-.239-.3276-.607-.4914-1.102-.4914-.567 0-1.023.1726-1.368.5179-.346.3453-.518.8455-.518 1.5007v4.1964zm9.22.1594c-.726 0-1.305-.1682-1.739-.5046-.425-.3365-.638-.8057-.638-1.4077s.177-1.0757.532-1.421c.354-.3453.916-.5887 1.686-.7304l2.497-.4648c0-.5932-.142-1.0358-.425-1.328-.275-.2921-.691-.4382-1.249-.4382-.486 0-.872.1106-1.155.332-.283.2125-.478.5223-.584.9296l-1.182-.093c.133-.664.451-1.1996.956-1.6069.514-.4161 1.169-.6241 1.965-.6241.904 0 1.594.2567 2.072.7702.478.5047.717 1.2041.717 2.0983v2.9083c0 .1593.027.2744.08.3453.062.0619.159.0929.292.0929h.279v.9827c-.035.0089-.093.0133-.173.0133-.079.0089-.163.0133-.252.0133-.319 0-.58-.0487-.783-.1461-.195-.1062-.337-.2656-.425-.4781-.089-.2213-.133-.509-.133-.8632l.133.0266c-.062.301-.213.5755-.452.8234-.239.239-.536.4293-.89.571-.354.1328-.73.1992-1.129.1992zm.107-.9827c.469 0 .867-.0886 1.195-.2656.336-.1859.593-.4338.77-.7437.177-.3187.266-.6729.266-1.0624v-.5046l-2.284.4249c-.478.0886-.81.2258-.996.4117-.177.1771-.266.4117-.266.7038 0 .3276.115.5844.345.7703.239.177.562.2656.97.2656zm7.217.8233c-.637 0-1.111-.146-1.42-.4382-.301-.2922-.452-.7481-.452-1.3678v-6.8791h1.116v6.8525c0 .3187.07.5401.212.664s.359.1859.651.1859h1.009v.9827zm-2.908-6.0556v-.9828h4.024v.9828zm5.015.1593-.213-2.4701v-1.0624h1.169v1.0624l-.213 2.4701zm4.78 6.0557c-.628 0-1.164-.1018-1.607-.3054-.434-.2037-.774-.4825-1.022-.8367-.239-.363-.377-.7746-.412-1.235l1.169-.0797c.07.425.252.7658.544 1.0226.292.2479.735.3718 1.328.3718.478 0 .859-.0753 1.142-.2258.292-.1593.438-.4116.438-.7569 0-.1859-.044-.3409-.132-.4648-.089-.124-.262-.2302-.518-.3187-.257-.0974-.638-.1904-1.142-.2789-.673-.124-1.204-.2745-1.594-.4515-.381-.186-.655-.4117-.823-.6773-.16-.2745-.239-.5976-.239-.9695 0-.6285.23-1.142.69-1.5404.461-.4073 1.116-.6109 1.966-.6109.575 0 1.058.1062 1.447.3187.399.2036.708.4781.93.8234.23.3364.38.7082.451 1.1155l-1.168.0797c-.053-.2479-.151-.4648-.293-.6508-.141-.1947-.327-.3452-.557-.4515-.23-.1151-.505-.1726-.824-.1726-.504 0-.876.0974-1.115.2921-.239.1948-.359.4427-.359.7437 0 .2302.053.4206.16.5711.115.1416.296.2611.544.3585.248.0886.58.1682.996.2391.717.1239 1.275.2744 1.673.4515.399.177.678.394.837.6507s.239.571.239.9429c0 .4338-.124.8056-.372 1.1155-.239.301-.566.5312-.982.6906-.408.1593-.873.239-1.395.239zm9.766-.1594c-.637 0-1.111-.146-1.421-.4382-.301-.2922-.451-.7481-.451-1.3678v-6.8791h1.115v6.8525c0 .3187.071.5401.213.664s.358.1859.651.1859h1.009v.9827zm-2.908-6.0556v-.9828h4.024v.9828zm5.189 6.0556v-9.4288h1.116v3.9442l-.133-.0266c.088-.3895.239-.7082.451-.9561.213-.2479.474-.4294.784-.5445.31-.1239.651-.1859 1.022-.1859.505 0 .93.1151 1.275.3453.354.2213.62.5356.797.9428.186.3984.279.8588.279 1.3812v4.5284h-1.115v-4.2097c0-.6817-.124-1.1864-.372-1.5139-.239-.3276-.607-.4914-1.103-.4914-.566 0-1.022.1726-1.367.5179-.346.3453-.518.8455-.518 1.5007v4.1964zm10.044.1594c-.664 0-1.239-.1505-1.726-.4515-.478-.301-.85-.726-1.116-1.2749-.256-.5578-.385-1.2085-.385-1.9522 0-.7436.129-1.3899.385-1.9388.266-.5489.633-.9739 1.103-1.2749.478-.3099 1.04-.4648 1.686-.4648.611 0 1.151.1461 1.62.4382.47.2833.833.6994 1.089 1.2483.266.5489.399 1.2174.399 2.0053v.332h-5.113c.044.7526.243 1.3192.597 1.6999.363.3807.85.571 1.461.571.461 0 .837-.1062 1.129-.3187.301-.2214.509-.5091.624-.8632l1.195.0929c-.185.6286-.54 1.1465-1.062 1.5538-.513.3984-1.142.5976-1.886.5976zm-2.058-4.316h3.891c-.053-.6817-.252-1.1819-.598-1.5006-.336-.3188-.765-.4781-1.288-.4781-.54 0-.987.1682-1.341.5046-.345.3276-.567.819-.664 1.4741zm12.039 4.316c-.611 0-1.142-.1505-1.594-.4515-.442-.301-.783-.726-1.022-1.2749s-.359-1.1996-.359-1.9522c0-.7525.12-1.4032.359-1.9521s.58-.9739 1.022-1.2749c.452-.301.983-.4515 1.594-.4515.469 0 .898.1018 1.288.3054.39.1948.682.4737.876.8367v-3.3732h1.116v9.4288h-1.009l-.04-1.0624c-.195.3807-.491.6817-.89.9031-.398.2125-.845.3187-1.341.3187zm.226-1.0624c.416 0 .765-.1062 1.049-.3187.292-.2125.513-.5135.664-.9031.15-.3984.225-.8632.225-1.3944 0-.5489-.075-1.0181-.225-1.4076-.151-.3896-.372-.6862-.664-.8898-.284-.2125-.633-.3187-1.049-.3187-.62 0-1.116.2346-1.488.7038-.363.4604-.544 1.0978-.544 1.9123 0 .8057.181 1.4431.544 1.9124.372.4692.868.7038 1.488.7038zm7.529 1.0624c-.664 0-1.24-.1505-1.727-.4515-.478-.301-.849-.726-1.115-1.2749-.257-.5578-.385-1.2085-.385-1.9522 0-.7436.128-1.3899.385-1.9388.266-.5489.633-.9739 1.102-1.2749.478-.3099 1.04-.4648 1.687-.4648.611 0 1.151.1461 1.62.4382.469.2833.832.6994 1.089 1.2483.265.5489.398 1.2174.398 2.0053v.332h-5.113c.045.7526.244 1.3192.598 1.6999.363.3807.85.571 1.461.571.46 0 .836-.1062 1.129-.3187.301-.2214.509-.5091.624-.8632l1.195.0929c-.186.6286-.54 1.1465-1.062 1.5538-.514.3984-1.142.5976-1.886.5976zm-2.059-4.316h3.891c-.053-.6817-.252-1.1819-.597-1.5006-.337-.3188-.766-.4781-1.288-.4781-.54 0-.987.1682-1.342.5046-.345.3276-.566.819-.664 1.4741zm8.439 4.316c-.726 0-1.306-.1682-1.739-.5046-.425-.3365-.638-.8057-.638-1.4077s.177-1.0757.531-1.421.917-.5887 1.687-.7304l2.497-.4648c0-.5932-.142-1.0358-.425-1.328-.275-.2921-.691-.4382-1.249-.4382-.487 0-.872.1106-1.155.332-.283.2125-.478.5223-.584.9296l-1.182-.093c.132-.664.451-1.1996.956-1.6069.513-.4161 1.168-.6241 1.965-.6241.903 0 1.594.2567 2.072.7702.478.5047.717 1.2041.717 2.0983v2.9083c0 .1593.027.2744.08.3453.062.0619.159.0929.292.0929h.279v.9827c-.036.0089-.093.0133-.173.0133-.08.0089-.164.0133-.252.0133-.319 0-.58-.0487-.784-.1461-.194-.1062-.336-.2656-.425-.4781-.088-.2213-.132-.509-.132-.8632l.132.0266c-.062.301-.212.5755-.451.8234-.239.239-.536.4293-.89.571-.354.1328-.73.1992-1.129.1992zm.106-.9827c.47 0 .868-.0886 1.196-.2656.336-.1859.593-.4338.77-.7437.177-.3187.266-.6729.266-1.0624v-.5046l-2.285.4249c-.478.0886-.81.2258-.996.4117-.177.1771-.265.4117-.265.7038 0 .3276.115.5844.345.7703.239.177.562.2656.969.2656zm7.463.9827c-.611 0-1.142-.1505-1.594-.4515-.442-.301-.783-.726-1.022-1.2749s-.359-1.1996-.359-1.9522c0-.7525.12-1.4032.359-1.9521s.58-.9739 1.022-1.2749c.452-.301.983-.4515 1.594-.4515.469 0 .898.1018 1.288.3054.39.1948.682.4737.876.8367v-3.3732h1.116v9.4288h-1.009l-.04-1.0624c-.195.3807-.492.6817-.89.9031-.398.2125-.845.3187-1.341.3187zm.226-1.0624c.416 0 .765-.1062 1.049-.3187.292-.2125.513-.5135.664-.9031.15-.3984.225-.8632.225-1.3944 0-.5489-.075-1.0181-.225-1.4076-.151-.3896-.372-.6862-.664-.8898-.284-.2125-.633-.3187-1.049-.3187-.62 0-1.116.2346-1.488.7038-.363.4604-.544 1.0978-.544 1.9123 0 .8057.181 1.4431.544 1.9124.372.4692.868.7038 1.488.7038zm6.161.903c-.407 0-.739-.1062-.996-.3187s-.385-.5489-.385-1.0093v-8.1008h1.115v8.0079c0 .1416.036.2523.107.332.079.0708.19.1062.332.1062h.61v.9827zm1.79 0v-7.0384h1.115v7.0384zm-.027-8.1406v-1.3014h1.169v1.3014zm3.133 8.1406v-7.0384h1.023l.04 1.7928-.133-.1195c.088-.4161.243-.7569.465-1.0225.221-.2745.487-.4781.796-.6109.319-.1328.66-.1992 1.023-.1992.54 0 .983.1195 1.328.3585.354.2391.615.5622.784.9695.177.3984.265.8455.265 1.3413v4.5284h-1.115v-4.2097c0-.4338-.054-.7968-.16-1.089-.097-.301-.256-.5268-.478-.6773-.221-.1593-.509-.239-.863-.239-.54 0-.987.1726-1.341.5179-.346.3364-.518.8322-.518 1.4874v4.2097zm10.044.1594c-.664 0-1.239-.1505-1.726-.4515-.478-.301-.85-.726-1.116-1.2749-.256-.5578-.385-1.2085-.385-1.9522 0-.7436.129-1.3899.385-1.9388.266-.5489.633-.9739 1.103-1.2749.478-.3099 1.04-.4648 1.686-.4648.611 0 1.151.1461 1.62.4382.47.2833.833.6994 1.089 1.2483.266.5489.399 1.2174.399 2.0053v.332h-5.113c.044.7526.243 1.3192.598 1.6999.363.3807.85.571 1.46.571.461 0 .837-.1062 1.129-.3187.301-.2214.509-.5091.624-.8632l1.196.0929c-.186.6286-.541 1.1465-1.063 1.5538-.513.3984-1.142.5976-1.886.5976zm-2.058-4.316h3.891c-.053-.6817-.252-1.1819-.598-1.5006-.336-.3188-.765-.4781-1.288-.4781-.54 0-.987.1682-1.341.5046-.345.3276-.567.819-.664 1.4741zm10.233 4.1566v-7.6758c0-.5223.15-.9429.451-1.2616.301-.3276.771-.4914 1.408-.4914h1.116v.9828h-1.036c-.275 0-.483.0752-.624.2257-.133.1505-.2.3586-.2.6242v7.5961zm-.956-6.0556v-.9828h3.838v.9828zm7.404 6.215c-.646 0-1.212-.1505-1.699-.4515s-.864-.726-1.129-1.2749c-.266-.5578-.399-1.2085-.399-1.9522 0-.7525.133-1.4032.399-1.9521.265-.5489.642-.9739 1.129-1.2749s1.053-.4515 1.699-.4515c.647 0 1.209.1505 1.687.4515.487.301.863.726 1.129 1.2749.265.5489.398 1.1996.398 1.9521 0 .7437-.133 1.3944-.398 1.9522-.266.5489-.642.9739-1.129 1.2749-.478.301-1.04.4515-1.687.4515zm0-1.0624c.647 0 1.147-.2302 1.501-.6906.363-.4692.545-1.1111.545-1.9256s-.182-1.4519-.545-1.9123c-.354-.4692-.854-.7038-1.501-.7038-.646 0-1.151.2346-1.514.7038-.362.4604-.544 1.0978-.544 1.9123s.182 1.4564.544 1.9256c.363.4604.868.6906 1.514.6906zm4.469.903v-7.0384h.983l.053 1.7796-.107-.0399c.089-.602.279-1.0402.571-1.3147.301-.2833.7-.425 1.196-.425h.69v1.0624h-.677c-.354 0-.651.0664-.89.1992-.23.124-.407.3143-.531.5711-.115.2479-.173.5666-.173.9561v4.2496zm-218.6863 20c-.6374 0-1.1111-.146-1.4209-.4382-.3011-.2922-.4516-.7481-.4516-1.3678v-6.8791h1.1156v6.8525c0 .3187.0708.5401.2124.664.1417.1239.3586.1859.6508.1859h1.0092v.9827zm-2.9083-6.0556v-.9828h4.0238v.9828zm5.1891 6.0556v-9.4288h1.1155v3.9442l-.1328-.0266c.0885-.3895.239-.7082.4515-.9561s.4737-.4294.7835-.5445c.3099-.1239.6507-.1859 1.0226-.1859.5046 0 .9296.1151 1.2749.3453.3541.2213.6197.5356.7968.9428.1859.3984.2788.8588.2788 1.3812v4.5284h-1.1155v-4.2097c0-.6817-.1239-1.1864-.3718-1.5139-.2391-.3276-.6065-.4914-1.1023-.4914-.5666 0-1.0225.1726-1.3678.5179s-.5179.8455-.5179 1.5007v4.1964zm7.3211 0v-7.0384h1.1155v7.0384zm-.0266-8.1406v-1.3014h1.1687v1.3014zm5.4365 8.3c-.6286 0-1.1642-.1018-1.6069-.3054-.4338-.2037-.7746-.4825-1.0225-.8367-.2391-.363-.3763-.7746-.4117-1.235l1.1686-.0797c.0709.425.2524.7658.5445 1.0226.2922.2479.7348.3718 1.328.3718.4781 0 .8588-.0753 1.1421-.2258.2922-.1593.4382-.4116.4382-.7569 0-.1859-.0442-.3409-.1328-.4648-.0885-.124-.2611-.2302-.5179-.3187-.2567-.0974-.6374-.1904-1.1421-.2789-.6728-.124-1.204-.2745-1.5936-.4515-.3807-.186-.6551-.4117-.8233-.6773-.1594-.2745-.2391-.5976-.2391-.9695 0-.6285.2302-1.142.6906-1.5404.4604-.4073 1.1155-.6109 1.9654-.6109.5755 0 1.058.1062 1.4476.3187.3984.2036.7082.4781.9296.8234.2301.3364.3806.7082.4515 1.1155l-1.1687.0797c-.0531-.2479-.1505-.4648-.2921-.6508-.1417-.1947-.3276-.3452-.5578-.4515-.2302-.1151-.5046-.1726-.8233-.1726-.5047 0-.8765.0974-1.1156.2921-.239.1948-.3585.4427-.3585.7437 0 .2302.0531.4206.1593.5711.1151.1416.2966.2611.5445.3585.2479.0886.5799.1682.996.2391.7171.1239 1.2749.2744 1.6733.4515.3984.177.6773.394.8366.6507.1594.2567.2391.571.2391.9429 0 .4338-.124.8056-.3719 1.1155-.239.301-.5666.5312-.9827.6906-.4072.1593-.872.239-1.3944.239zm5.649-2.8286c0-.6375.0974-1.1421.2922-1.514.2036-.3807.5356-.7127.996-.996.3452-.2124.6064-.3984.7835-.5577.1859-.1682.3098-.3409.3718-.5179.062-.186.093-.4117.093-.6773 0-.4604-.155-.8411-.4648-1.1421-.301-.301-.7216-.4515-1.2616-.4515-.6552 0-1.1598.1682-1.5139.5046-.3453.3364-.5534.8234-.6242 1.4608l-1.1952-.0797c.0531-.5843.2213-1.1022.5046-1.5537s.664-.8057 1.1421-1.0624c.4781-.2568 1.0403-.3851 1.6866-.3851.5754 0 1.0801.1151 1.5139.3452.4427.2302.7879.5489 1.0358.9562s.3719.8765.3719 1.4077c0 .3718-.062.695-.1859.9694-.1151.2745-.2966.5268-.5445.757s-.5622.4692-.9429.7171c-.3541.2302-.5976.4737-.7304.7304-.124.2567-.1859.6197-.1859 1.089zm-.2125 2.6692v-1.5006h1.5007v1.5006z" fill="#2a3241"/><g fill="#545d6c"><path d="m33.8026 79.1734c1.1634-1.1635 3.0498-1.1635 4.2132 0 1.1634 1.1634 1.1634 3.0497 0 4.2131l-3.0641 3.0642c-.7404.7404-1.9408.7404-2.6812 0-.7403-.7404-.7403-1.9408 0-2.6812l3.2557-3.2556 1.1491 1.1491-3.3345 3.3379c-.1047.1048-.1047.2746.0001.3793.1047.1047.2745.1048.3792.0001l3.1467-3.1428c.5288-.5288.5288-1.3863 0-1.9151-.5289-.5288-1.3863-.5288-1.9152 0l-3.0641 3.0641c-.9519.9519-.9519 2.4953 0 3.4472s2.4953.9519 3.4472 0l3.2556-3.2557 1.1491 1.1491-3.2556 3.2556c-1.5866 1.5865-4.1588 1.5865-5.7453 0s-1.5865-4.1587 0-5.7452z"/><path d="m58.6118 84.2324c1.3462.0001 2.4375 1.0914 2.4375 2.4375-.0002 1.346-1.0915 2.4375-2.4375 2.4375s-2.4372-1.0915-2.4375-2.4375c0-1.3462 1.0913-2.4375 2.4375-2.4375zm8.125 4.6035h-5.417l2.709-4.333zm-5.958-5.416h-4.334v-4.334h4.334zm3.791-2.709h1.625v1.084h-1.625v1.625h-1.083v-1.625h-1.625v-1.084h1.625v-1.625h1.083z"/><path d="m88.8502 85.208c1.3751.0001 2.4902 1.1152 2.4902 2.4902v1.9366h-6.6406v-1.9366c.0001-1.3751 1.1151-2.4902 2.4902-2.4902zm.2764-6.0859h.83c1.3752 0 2.4903 1.115 2.4903 2.4902v.5527c-.0002 1.3751-1.1152 2.4903-2.4903 2.4903h-3.873c-1.3751 0-2.49-1.1152-2.4902-2.4903v-.5527c0-1.3752 1.115-2.4902 2.4902-2.4902h.8301v-.5537h2.2129zm-3.3203 1.1064c-.6109.0003-1.1063.4956-1.1065 1.1065.0002.6108.4956 1.1071 1.1065 1.1074.611 0 1.1072-.4964 1.1074-1.1074-.0003-.611-.4964-1.1065-1.1074-1.1065zm4.4267 0c-.6109.0002-1.1062.4956-1.1064 1.1065.0002.6109.4955 1.1072 1.1064 1.1074.6111 0 1.1072-.4964 1.1074-1.1074-.0002-.611-.4963-1.1065-1.1074-1.1065z"/></g></g></g></svg>