<svg xmlns="http://www.w3.org/2000/svg" viewBox="0 0 512 512" x="0px" y="0px"><g><path d="M453.657,226.343A8,8,0,0,0,440,232v16H424V104a24.027,24.027,0,0,0-24-24H360V96h40a8.009,8.009,0,0,1,8,8V256a8,8,0,0,0,8,8h32a8,8,0,0,0,8-8v-4.687L476.686,272,456,292.687V288a8,8,0,0,0-8-8H416a8,8,0,0,0-8,8V440a8.009,8.009,0,0,1-8,8H360v16h40a24.027,24.027,0,0,0,24-24V296h16v16a8,8,0,0,0,13.657,5.657l40-40a8,8,0,0,0,0-11.314Z"></path><path d="M360,416v16h24a8,8,0,0,0,8-8V288a8,8,0,0,0-8-8H360v16h16V416Z"></path><path d="M392,120a8,8,0,0,0-8-8H360v16h16V248H360v16h24a8,8,0,0,0,8-8Z"></path><path d="M56,440a24.027,24.027,0,0,0,24,24h48v16a8,8,0,0,0,13.657,5.657l26.481-26.481A40.045,40.045,0,0,0,208,496h96a40.045,40.045,0,0,0,40-40V392a40.045,40.045,0,0,0-40-40H208a40.045,40.045,0,0,0-40,40v28.686l-26.343-26.343A8,8,0,0,0,128,400v16H104V296h24v16a8,8,0,0,0,13.657,5.657l26.481-26.481A40.045,40.045,0,0,0,208,328h96a40.045,40.045,0,0,0,40-40V224a40.045,40.045,0,0,0-40-40H208a40.045,40.045,0,0,0-40,40v28.686l-26.343-26.343A8,8,0,0,0,128,232v16H104V128h24v16a8,8,0,0,0,13.657,5.657l26.481-26.481A40.045,40.045,0,0,0,208,160h96a40.045,40.045,0,0,0,40-40V56a40.045,40.045,0,0,0-40-40H208a40.045,40.045,0,0,0-40,40V84.686L141.657,58.343A8,8,0,0,0,128,64V80H80a24.027,24.027,0,0,0-24,24V248H16v16H64a8,8,0,0,0,8-8V104a8.009,8.009,0,0,1,8-8h56a8,8,0,0,0,8-8V83.313L164.687,104,144,124.687V120a8,8,0,0,0-8-8H96a8,8,0,0,0-8,8V256a8,8,0,0,0,8,8h40a8,8,0,0,0,8-8v-4.687L164.687,272,144,292.687V288a8,8,0,0,0-8-8H96a8,8,0,0,0-8,8V424a8,8,0,0,0,8,8h40a8,8,0,0,0,8-8v-4.687L164.687,440,144,460.687V456a8,8,0,0,0-8-8H80a8.009,8.009,0,0,1-8-8V288a8,8,0,0,0-8-8H16v16H56Zm152-72h96a24,24,0,0,1,0,48H208a24,24,0,0,1,0-48Zm-24,72V423.978A39.788,39.788,0,0,0,208,432h96a39.788,39.788,0,0,0,24-8.022V456a24.028,24.028,0,0,1-24,24H208a24.028,24.028,0,0,1-24-24Zm24-240h96a24,24,0,0,1,0,48H208a24,24,0,0,1,0-48Zm-24,72V255.978A39.788,39.788,0,0,0,208,264h96a39.788,39.788,0,0,0,24-8.022V288a24.028,24.028,0,0,1-24,24H208a24.028,24.028,0,0,1-24-24ZM208,32h96a24,24,0,0,1,0,48H208a24,24,0,0,1,0-48Zm-24,72V87.978A39.788,39.788,0,0,0,208,96h96a39.788,39.788,0,0,0,24-8.022V120a24.028,24.028,0,0,1-24,24H208a24.028,24.028,0,0,1-24-24Z"></path><rect x="248" y="112" width="16" height="16"></rect><rect x="280" y="112" width="16" height="16"></rect><rect x="216" y="112" width="16" height="16"></rect><rect x="248" y="280" width="16" height="16"></rect><rect x="280" y="280" width="16" height="16"></rect><rect x="216" y="280" width="16" height="16"></rect><rect x="248" y="448" width="16" height="16"></rect><rect x="280" y="448" width="16" height="16"></rect><rect x="216" y="448" width="16" height="16"></rect></g></svg>