<svg xmlns="http://www.w3.org/2000/svg" viewBox="0 0 128 128" x="0px" y="0px"><title>5</title><g data-name="1"><path d="M19.95891,117.24932h98.44475V112.0681h-7.77184V42.12045H89.90655V112.0681H87.31594V70.61756H66.59067V112.0681H64.00006V57.66437H43.27479V112.0681H40.68418V80.98026H19.95891V112.0681H14.77768V13.62323H9.59634V117.24932H19.95891Zm75.12887-69.9474h10.36258V112.0681H95.08778ZM71.7719,75.799H82.13447V112.0681H71.7719ZM48.456,62.8456H58.81883v49.2225H48.456ZM25.14014,86.1616H35.503v25.9065H25.14014Zm1.48514-28.96516-2.97016-4.24535L50.6799,34.0347l20.5128,7.69243,27.08981-24.8324-8.90737.80928-.47058-5.161,19.74628-1.79235L106.06513,30.4082l-5.13571-.67562,1.23123-9.36274L72.35123,47.69512l-20.93762-7.8516Z"></path></g></svg>