<svg xmlns="http://www.w3.org/2000/svg" xmlns:xlink="http://www.w3.org/1999/xlink" version="1.1" x="0px" y="0px" viewBox="0 0 480 480" style="enable-background:new 0 0 480 480;" xml:space="preserve"><style type="text/css">
	.st0{fill-rule:evenodd;clip-rule:evenodd;}
</style><path class="st0" d="M365.54,208.53c4.37,0,8.33,1.77,11.2,4.64c2.87,2.87,4.64,6.83,4.64,11.2c0,4.37-1.77,8.33-4.64,11.2  s-6.83,4.64-11.2,4.64c-4.37,0-8.33-1.77-11.2-4.64c-1.82-1.82-3.2-4.08-3.96-6.61h-27.14v-0.01c-1.35,0-2.69-0.57-3.64-1.67  l-18.65-21.77h-56.03l0.06,49.96h50.44c0.78-2.44,2.13-4.63,3.9-6.4c2.87-2.87,6.83-4.64,11.2-4.64c4.37,0,8.33,1.77,11.2,4.64  c2.87,2.87,4.64,6.83,4.64,11.2c0,4.37-1.77,8.33-4.64,11.2c-2.87,2.87-6.83,4.64-11.2,4.64c-4.37,0-8.33-1.77-11.2-4.64  c-1.77-1.77-3.12-3.96-3.9-6.4h-50.43l0.06,50.06h43.52c2.65,0,4.8,2.15,4.8,4.8c0,0.17-0.01,0.33-0.03,0.5l-0.54,35.79  c2.51,0.76,4.75,2.13,6.55,3.94c2.86,2.86,4.62,6.8,4.62,11.16c0,4.36-1.77,8.31-4.62,11.16c-2.86,2.86-6.8,4.62-11.16,4.62  c-4.36,0-8.31-1.77-11.16-4.62c-2.86-2.86-4.62-6.8-4.62-11.16c0-4.36,1.77-8.31,4.62-11.16c1.72-1.72,3.84-3.05,6.21-3.83  l0.47-31.59h-38.66l0.07,59.49c0.08,22.39,6.6,34.57,15.7,39.43c6.57,3.51,14.73,3.3,22.85,0.43c8.55-3.03,16.95-8.96,23.51-16.65  c11.61-13.62,17.28-32.74,7.2-50.74c-1.29-2.31-0.47-5.23,1.84-6.52c2.31-1.29,5.23-0.47,6.52,1.84c3.22,5.76,5.15,11.59,5.99,17.36  c11.04,6.98,22.86,4.56,32.35-2.57c4.99-3.75,9.38-8.78,12.75-14.47c3.37-5.68,5.69-11.96,6.55-18.21  c1.73-12.62-2.62-25.25-16.67-32.34c-2.36-1.19-3.31-4.07-2.12-6.43c1.19-2.36,4.07-3.31,6.43-2.12c5.8,2.93,10.34,6.57,13.76,10.7  c12.93,0.17,23.43-9.24,29.69-21.99c2.93-5.99,4.93-12.71,5.83-19.56c0.89-6.8,0.68-13.71-0.81-20.13  c-3.23-14-12.7-25.7-30.28-28.51c-2.61-0.41-4.39-2.87-3.97-5.47c0.41-2.61,2.87-4.39,5.47-3.97c3.02,0.48,5.85,1.18,8.49,2.05  c8.56-9.63,9.38-23.24,5.18-36.35c-2.35-7.31-6.25-14.46-11.26-20.73c-4.98-6.24-11.04-11.57-17.71-15.27  c-12.47-6.91-27.25-8.08-41.33,1.39c-2.2,1.47-5.17,0.88-6.64-1.31c-1.47-2.2-0.88-5.17,1.31-6.64c4.21-2.84,8.47-4.9,12.73-6.3  c2.99-18.06-12.63-39.65-32.09-53.52c-8.2-5.85-17.07-10.26-25.5-12.42c-7.95-2.03-15.42-2.02-21.35,0.8  c-8.54,4.06-14.32,14.34-14.44,33.31c0,0.62-0.12,1.21-0.34,1.75l0.05,45.29h50.8v-14.75c-2.44-0.78-4.63-2.13-6.4-3.9  c-2.87-2.87-4.64-6.83-4.64-11.2c0-4.37,1.77-8.33,4.64-11.2s6.83-4.64,11.2-4.64c4.37,0,8.33,1.77,11.2,4.64s4.64,6.83,4.64,11.2  c0,4.37-1.77,8.33-4.64,11.2c-1.77,1.77-3.96,3.12-6.4,3.9v19.55c0,2.65-2.15,4.8-4.8,4.8c-0.34,0-0.68-0.04-1-0.1  c-0.32,0.07-0.65,0.1-1,0.1h-53.6l0.06,49.96h58.23c1.58,0,2.99,0.77,3.86,1.95l18.43,21.51h25.08c0.79-2.36,2.11-4.47,3.83-6.19  C357.21,210.3,361.17,208.53,365.54,208.53L365.54,208.53z M304.85,102.08c1.13,1.13,1.83,2.69,1.83,4.41c0,1.72-0.7,3.28-1.83,4.41  c-1.13,1.13-2.69,1.83-4.41,1.83c-1.72,0-3.28-0.7-4.41-1.83c-1.13-1.13-1.83-2.69-1.83-4.41c0-1.72,0.7-3.28,1.83-4.41  c1.13-1.13,2.69-1.83,4.41-1.83C302.16,100.25,303.72,100.95,304.85,102.08L304.85,102.08z M314.93,255.85  c1.13,1.13,1.83,2.69,1.83,4.41c0,1.72-0.7,3.28-1.83,4.41c-1.13,1.13-2.69,1.83-4.41,1.83c-1.72,0-3.28-0.7-4.41-1.83  c-1.13-1.13-1.83-2.69-1.83-4.41c0-1.72,0.7-3.28,1.83-4.41c1.13-1.13,2.69-1.83,4.41-1.83  C312.24,254.03,313.8,254.73,314.93,255.85L314.93,255.85z M292.57,366.93c1.12,1.12,1.81,2.67,1.81,4.38s-0.69,3.26-1.81,4.38  c-1.12,1.12-2.67,1.81-4.38,1.81c-1.71,0-3.26-0.69-4.38-1.81c-1.12-1.12-1.81-2.67-1.81-4.38s0.69-3.26,1.81-4.38  c1.12-1.12,2.67-1.81,4.38-1.81C289.9,365.12,291.45,365.81,292.57,366.93L292.57,366.93z M240,412.21  c-3.7,9.77-9.45,16.2-16.32,19.87c-9.14,4.88-20,4.75-30.53,1.03c-10.1-3.58-19.96-10.51-27.59-19.46  c-7.98-9.36-13.59-20.95-14.61-33.28c-13.23,5.73-26.73,2.34-37.76-5.93c-6.03-4.52-11.28-10.52-15.27-17.24  c-3.99-6.73-6.74-14.25-7.78-21.81c-1.05-7.66-0.37-15.32,2.52-22.26c-14.39-2.09-25.79-12.89-32.71-27  c-3.39-6.93-5.7-14.66-6.73-22.52c-1.03-7.91-0.78-15.98,0.96-23.5c2.81-12.2,9.41-23.01,20.59-29.67  c-9.34-12.17-10.14-28.14-5.25-43.37c2.71-8.43,7.16-16.62,12.87-23.77c5.73-7.18,12.76-13.34,20.56-17.67  c8.85-4.91,18.66-7.47,28.73-6.54c-1.25-21.09,15.55-44.42,36.39-59.27c9.16-6.53,19.12-11.47,28.68-13.92  c10.04-2.57,19.73-2.42,27.84,1.44c6.56,3.12,11.93,8.55,15.43,16.78c3.5-8.22,8.88-13.65,15.43-16.78  c8.1-3.86,17.8-4.01,27.83-1.44c9.56,2.44,19.53,7.39,28.68,13.92c20.84,14.85,37.64,38.18,36.39,59.27  c10.06-0.93,19.87,1.63,28.73,6.54c7.81,4.33,14.83,10.49,20.56,17.67c5.71,7.14,10.16,15.34,12.87,23.77  c4.89,15.23,4.08,31.2-5.25,43.37c11.17,6.66,17.77,17.47,20.59,29.67c1.74,7.53,1.99,15.59,0.96,23.5  c-1.03,7.86-3.33,15.59-6.73,22.52c-6.91,14.11-18.32,24.91-32.71,27c2.89,6.94,3.57,14.61,2.52,22.26  c-1.04,7.56-3.8,15.08-7.78,21.81c-3.98,6.72-9.24,12.72-15.27,17.24c-11.02,8.27-24.52,11.66-37.76,5.93  c-1.03,12.33-6.63,23.92-14.61,33.28c-7.63,8.95-17.5,15.89-27.59,19.46c-10.53,3.73-21.4,3.86-30.53-1.03  C249.45,428.41,243.7,421.98,240,412.21L240,412.21z M151.27,369.35c0.84-5.77,2.77-11.6,5.99-17.36c1.29-2.31,4.22-3.13,6.52-1.84  c2.31,1.29,3.13,4.22,1.84,6.52c-10.08,18-4.42,37.12,7.2,50.74c6.56,7.69,14.96,13.62,23.51,16.65c8.11,2.87,16.27,3.09,22.85-0.43  c9.1-4.86,15.62-17.04,15.7-39.43l0.34-293.16c-0.22-0.54-0.33-1.13-0.34-1.75c-0.11-18.97-5.9-29.24-14.44-33.31  c-5.93-2.82-13.39-2.84-21.35-0.8c-8.43,2.15-17.29,6.57-25.5,12.42c-19.46,13.87-35.08,35.46-32.09,53.52  c4.26,1.39,8.52,3.46,12.73,6.3c2.2,1.47,2.78,4.44,1.31,6.64c-1.47,2.2-4.44,2.78-6.64,1.31c-14.07-9.47-28.86-8.3-41.33-1.39  c-6.68,3.7-12.73,9.03-17.71,15.27c-5.01,6.28-8.91,13.43-11.26,20.73c-4.21,13.11-3.39,26.71,5.18,36.35  c2.64-0.88,5.47-1.57,8.49-2.05c2.61-0.41,5.06,1.37,5.47,3.97c0.41,2.61-1.37,5.06-3.97,5.47c-17.58,2.82-27.05,14.51-30.28,28.51  c-1.48,6.42-1.69,13.33-0.81,20.13c0.89,6.85,2.89,13.57,5.83,19.56c6.25,12.76,16.75,22.16,29.69,21.99  c3.43-4.13,7.96-7.77,13.76-10.7c2.36-1.19,5.24-0.24,6.43,2.12c1.19,2.36,0.24,5.24-2.12,6.43c-14.05,7.09-18.41,19.72-16.67,32.34  c0.86,6.24,3.18,12.52,6.55,18.21c3.37,5.69,7.76,10.72,12.75,14.47C128.41,373.91,140.23,376.33,151.27,369.35L151.27,369.35z   M130.73,189.99c3.2,3.26,5.6,7.23,7.06,11.52c1.7,5,2.1,10.42,0.96,15.69c-1.14,5.26-3.82,10.37-8.3,14.76  c-4.01,3.92-9.47,7.29-16.57,9.71c-2.51,0.85-3.85,3.57-3,6.07c0.85,2.51,3.57,3.85,6.07,3c8.53-2.9,15.21-7.06,20.21-11.96  c5.9-5.78,9.45-12.56,10.96-19.56c1.51-6.99,0.98-14.18-1.26-20.79c-1.91-5.63-5.09-10.84-9.31-15.16  c-1.85-1.88-4.88-1.91-6.77-0.06C128.91,185.07,128.88,188.1,130.73,189.99L130.73,189.99z M182.96,113.13  c1.25,4.41,1.48,9.05,0.71,13.51c-0.89,5.19-3.13,10.15-6.64,14.23c-3.51,4.07-8.3,7.28-14.33,8.99  c-5.41,1.54-11.82,1.89-19.21,0.62c-2.61-0.45-5.09,1.31-5.53,3.92c-0.45,2.61,1.31,5.09,3.92,5.53c8.89,1.53,16.73,1.07,23.45-0.85  c7.95-2.26,14.31-6.53,18.98-11.96c4.67-5.42,7.64-11.99,8.82-18.88c1.01-5.86,0.71-11.95-0.94-17.75c-0.72-2.55-3.38-4.02-5.93-3.3  C183.72,107.93,182.24,110.58,182.96,113.13L182.96,113.13z M141.33,325.06c4.12-2.03,8.63-3.09,13.15-3.14  c5.29-0.06,10.58,1.25,15.22,3.97c4.63,2.71,8.65,6.86,11.43,12.49c2.49,5.05,3.99,11.29,4.08,18.77c0.02,2.64,2.18,4.76,4.82,4.74  c2.64-0.02,4.76-2.18,4.74-4.82c-0.1-9.04-1.96-16.67-5.05-22.93c-3.65-7.4-8.99-12.88-15.18-16.5c-6.18-3.62-13.17-5.35-20.13-5.28  c-5.96,0.07-11.91,1.45-17.31,4.11c-2.37,1.17-3.34,4.04-2.18,6.41C136.09,325.26,138.96,326.23,141.33,325.06L141.33,325.06z   M163.72,238.28c4.44,1.14,8.56,3.28,12.03,6.18c4.06,3.4,7.22,7.82,8.97,12.89c1.75,5.06,2.1,10.82,0.54,16.93  c-1.39,5.45-4.32,11.17-9.13,16.91c-1.7,2.03-1.43,5.05,0.6,6.75c2.03,1.7,5.05,1.43,6.75-0.6c5.8-6.91,9.35-13.92,11.08-20.69  c2.04-7.97,1.55-15.61-0.8-22.4c-2.34-6.78-6.52-12.66-11.85-17.13c-4.56-3.82-9.98-6.64-15.81-8.13c-2.57-0.65-5.18,0.9-5.83,3.47  C159.6,235.02,161.15,237.63,163.72,238.28L163.72,238.28z M369.96,219.96c1.13,1.13,1.83,2.69,1.83,4.41c0,1.72-0.7,3.28-1.83,4.41  c-1.13,1.13-2.69,1.83-4.41,1.83c-1.72,0-3.28-0.7-4.41-1.83c-1.13-1.13-1.83-2.69-1.83-4.41c0-1.72,0.7-3.28,1.83-4.41  c1.13-1.13,2.69-1.83,4.41-1.83C367.27,218.13,368.83,218.83,369.96,219.96z"></path></svg>