<svg xmlns="http://www.w3.org/2000/svg" xmlns:xlink="http://www.w3.org/1999/xlink" version="1.1" x="0px" y="0px" viewBox="0 0 64 64" style="enable-background:new 0 0 64 64;" xml:space="preserve"><style type="text/css">
	.st0{display:none;}
	.st1{display:inline;}
	.st2{fill:none;stroke:#B3B3B3;stroke-width:0.1;stroke-miterlimit:10;}
</style><g class="st0"><g class="st1"><rect x="2" y="2" class="st2" width="60" height="60"></rect><line class="st2" x1="32" y1="2" x2="32" y2="62"></line><line class="st2" x1="62" y1="32" x2="2" y2="32"></line><line class="st2" x1="2" y1="2" x2="62" y2="62"></line><rect x="10" y="10" class="st2" width="44" height="44"></rect><line class="st2" x1="62" y1="2" x2="2" y2="62"></line><line class="st2" x1="2" y1="32" x2="32" y2="2"></line><line class="st2" x1="32" y1="2" x2="62" y2="32"></line><line class="st2" x1="62" y1="32" x2="32" y2="62"></line><line class="st2" x1="32" y1="62" x2="2" y2="32"></line><circle class="st2" cx="32" cy="32" r="21"></circle></g></g><path d="M33.4,40v2.4c0,0.8-0.3,1.5-0.9,2.1L31,46l1.5,1.6c0.6,0.5,0.9,1.3,0.9,2.1V52c0,2.2,1.8,4,4,4H39v-2h-1.6c-1.1,0-2-0.9-2-2  v-2.4c0-1.3-0.6-2.6-1.5-3.5L33.8,46l0.1-0.2c1-0.9,1.5-2.2,1.5-3.5V40c0-1.1,0.9-2,2-2H39v-2h-1.6C35.2,36,33.4,37.8,33.4,40z"></path><path d="M48.6,42.3V40c0-2.2-1.8-4-4-4H43v2h1.6c1.1,0,2,0.9,2,2v2.5c0,1.3,0.6,2.6,1.5,3.5l0.1,0.1l-0.1,0.1  c-1,0.9-1.5,2.2-1.5,3.5V52c0,1.1-0.9,2-2,2H43v2h1.6c2.2,0,4-1.8,4-4v-2.4c0-0.8,0.3-1.5,0.9-2.1L51,46l-1.5-1.6  C48.9,43.9,48.6,43.1,48.6,42.3z"></path><path d="M47.5,2H11v12H7v18h4v30h46V14.7L47.5,2z M48,6l6,8h-6V6z M9,16h23v14H9V16z M13,60V32h21V14H13V4h33v12h9v44H13z"></path><path d="M17,25c0,0.6-0.4,1-1,1s-1-0.4-1-1v-1h-2v1c0,1.7,1.3,3,3,3s3-1.3,3-3v-7h-2V25z"></path><path d="M24,20h1c0.6,0,1,0.4,1,1h2c0-1.7-1.3-3-3-3h-1c-1.7,0-3,1.3-3,3s1.3,3,3,3h1c0.6,0,1,0.4,1,1s-0.4,1-1,1h-1  c-0.6,0-1-0.4-1-1h-2c0,1.7,1.3,3,3,3h1c1.7,0,3-1.3,3-3s-1.3-3-3-3h-1c-0.6,0-1-0.4-1-1S23.4,20,24,20z"></path></svg>