<svg xmlns="http://www.w3.org/2000/svg" xmlns:xlink="http://www.w3.org/1999/xlink" version="1.1" x="0px" y="0px" viewBox="0 0 64 64" style="enable-background:new 0 0 64 64;" xml:space="preserve"><style type="text/css">
	.st0{display:none;}
	.st1{display:inline;}
	.st2{fill:none;stroke:#B3B3B3;stroke-width:0.1;stroke-miterlimit:10;}
</style><g class="st0"><g class="st1"><rect x="2" y="2" class="st2" width="60" height="60"></rect><line class="st2" x1="32" y1="2" x2="32" y2="62"></line><line class="st2" x1="62" y1="32" x2="2" y2="32"></line><line class="st2" x1="2" y1="2" x2="62" y2="62"></line><rect x="10" y="10" class="st2" width="44" height="44"></rect><line class="st2" x1="62" y1="2" x2="2" y2="62"></line><line class="st2" x1="2" y1="32" x2="32" y2="2"></line><line class="st2" x1="32" y1="2" x2="62" y2="32"></line><line class="st2" x1="62" y1="32" x2="32" y2="62"></line><line class="st2" x1="32" y1="62" x2="2" y2="32"></line><circle class="st2" cx="32" cy="32" r="21"></circle></g></g><path d="M28.6,46.9c0.2,0.7,0.8,1.2,1.5,1.2c0.8,0,1.5-0.7,1.5-1.5v-2.5l1.3-2l3.5-6v-2l-1.8-1l-3.8-1.5h-2l-2-1.3l-0.6-1.2  c-0.2-0.6,0-1.2,0.6-1.4l1.7-0.6c0.2,0,0.4-0.1,0.5-0.2l3.8-2.6c0.2-0.2,0.4-0.5,0.4-0.8v-1.1c0-0.3,0-0.5-0.2-0.7l-1.4-1.5  c-0.1-0.1-0.2-0.2-0.3-0.3l-2.2-1.6c-0.2-0.2-0.5-0.4-0.6-0.7l-0.4-0.8c-0.2-0.4-0.7-0.7-1.2-0.5L24.7,17l-4,0.5h-3l-3.9-0.8  c-0.3,0-0.7,0-1,0.1l-2,0.7c-0.5,0.1-0.8,0.6-0.7,1l0.4,1.9c0,0.3,0.2,0.6,0.5,0.7l1.2,0.6c0.3,0.2,0.5,0.2,0.8,0.1l2.2-0.7  c0.3,0,0.6,0,0.8,0.1l1.3,0.5c0.2,0.1,0.4,0.3,0.5,0.6l0.7,2.2c0.1,0.3,0.3,0.6,0.5,0.8l1.7,1.7l5,5l1,2l2,3l-1,5L28.6,46.9z"></path><path d="M37.8,20.6h0.9c0.3,0,0.6-0.2,0.8-0.4c0-1.3,0.8-2.5,2.3-3.7c0.1-0.2,0.3-0.4,0.5-0.6L43,14c0.1-0.4,0-0.8-0.3-1.1l-1-0.9  c-0.4-0.3-0.8-0.5-1.3-0.5h-3.2l-4.4,0.4c-0.4,0-0.7,0.3-0.8,0.6l-0.5,1.3c-0.2,0.4-0.1,0.9,0.2,1.2l1.5,1.3l1.8,1  c0.1,0.1,0.3,0.2,0.4,0.3l1.6,2.5C37.2,20.4,37.5,20.6,37.8,20.6z"></path><path d="M19.8,13l4.4-0.9c0,0,1.1-1.8,0-2c-1.1-0.2-1.9-0.7-3-1c-1.1-0.3-2,1-2,1c-1,0.7-0.8,1.7-0.5,2.4  C18.9,12.9,19.4,13.1,19.8,13z"></path><path d="M28,52C14.7,52,4,41.3,4,28S14.7,4,28,4c11.7,0,21.5,8.4,23.6,19.5c0.8,0.2,1.5,0.5,2.2,0.8C52,11.7,41.1,2,28,2  C13.6,2,2,13.6,2,28s11.6,26,26,26c6.1,0,11.7-2.1,16.1-5.6c-0.7-0.2-1.5-0.5-2.1-0.9C38,50.3,33.2,52,28,52z"></path><path d="M60.9,56.6l-2.7-6.5c-0.6-1.5-2.4-2.3-3.9-1.6l-1.1-2.8c3.5-1.8,5.8-5.5,5.8-9.7c0-6.1-4.9-11-11-11s-11,4.9-11,11  s4.9,11,11,11c1.2,0,2.3-0.2,3.4-0.5l1.1,2.8c-0.7,0.3-1.3,0.9-1.6,1.6c-0.3,0.7-0.3,1.6,0,2.3l2.7,6.5c0.3,0.7,0.9,1.3,1.6,1.6  c0.4,0.2,0.8,0.2,1.1,0.2s0.8-0.1,1.1-0.2l1.8-0.8c0.7-0.3,1.3-0.9,1.6-1.6C61.1,58.2,61.2,57.4,60.9,56.6z M48,45c-5,0-9-4-9-9  s4-9,9-9s9,4,9,9S53,45,48,45z"></path></svg>