<svg fill="none" height="64" viewBox="0 0 460 64" width="460" xmlns="http://www.w3.org/2000/svg" xmlns:xlink="http://www.w3.org/1999/xlink"><linearGradient id="a" gradientUnits="userSpaceOnUse" x1="0" x2="460" y1="32" y2="32"><stop offset="0" stop-color="#fff" stop-opacity="0"/><stop offset=".514423" stop-color="#fff"/><stop offset="1" stop-color="#fff" stop-opacity="0"/></linearGradient><mask id="b" height="64" maskUnits="userSpaceOnUse" width="460" x="0" y="0"><path d="m0 0h460v64h-460z" fill="url(#a)"/></mask><g mask="url(#b)"><path d="m0 32c0-3.9524 0-5.9286.434446-7.5499 1.178954-4.4 4.615684-7.8367 9.015614-9.0157 1.62134-.4344 3.59754-.4344 7.54994-.4344s5.9286 0 7.5499.4344c4.4 1.179 7.8367 4.6157 9.0157 9.0157.4344 1.6213.4344 3.5975.4344 7.5499s0 5.9286-.4344 7.5499c-1.179 4.4-4.6157 7.8367-9.0157 9.0157-1.6213.4344-3.5975.4344-7.5499.4344s-5.9286 0-7.54994-.4344c-4.39993-1.179-7.83666-4.6157-9.015614-9.0157-.434446-1.6213-.434446-3.5975-.434446-7.5499z" fill="#fff"/><path d="m17 15.2656c3.9695 0 5.9024.0027 7.4814.4258 4.308 1.1545 7.6727 4.5192 8.8272 8.8272.4231 1.579.4258 3.5119.4258 7.4814s-.0027 5.9024-.4258 7.4814c-1.1545 4.308-4.5192 7.6727-8.8272 8.8272-1.579.4231-3.5119.4258-7.4814.4258s-5.9024-.0027-7.48145-.4258c-4.30798-1.1545-7.6727-4.5192-8.827144-8.8272-.423113-1.579-.425781-3.5119-.425781-7.4814s.002668-5.9024.425781-7.4814c1.154454-4.308 4.519164-7.6727 8.827144-8.8272 1.57905-.4231 3.51195-.4258 7.48145-.4258z" stroke="#2a3241" stroke-opacity=".1" stroke-width=".53125"/><path d="m10.3662 32.6666h3.652c.1193 2.1792.8201 4.2035 1.9498 5.9206-2.9763-.4626-5.3013-2.8938-5.6018-5.9206zm0-1.3334c.3005-3.0268 2.6255-5.4581 5.6018-5.9206-1.1297 1.717-1.8305 3.7414-1.9498 5.9206zm13.2675 0h-3.652c-.1193-2.1792-.82-4.2036-1.9498-5.9206 2.9763.4625 5.3013 2.8938 5.6018 5.9206zm0 1.3334c-.3005 3.0268-2.6255 5.458-5.6018 5.9206 1.1298-1.7171 1.8305-3.7414 1.9498-5.9206zm-8.2799 0h3.2923c-.1144 1.8552-.703 3.5821-1.6462 5.061-.9431-1.4789-1.5317-3.2058-1.6461-5.061zm0-1.3334c.1144-1.8552.703-3.5821 1.6461-5.061.9432 1.4789 1.5318 3.2058 1.6462 5.061z" fill="#2a3241"/><path d="m40 32c0-4.6499 0-6.9748.5111-8.8823 1.387-5.1764 5.4302-9.2196 10.6066-10.6066 1.9075-.5111 4.2324-.5111 8.8823-.5111s6.9748 0 8.8823.5111c5.1764 1.387 9.2196 5.4302 10.6066 10.6066.5111 1.9075.5111 4.2324.5111 8.8823s0 6.9748-.5111 8.8823c-1.387 5.1764-5.4302 9.2196-10.6066 10.6066-1.9075.5111-4.2324.5111-8.8823.5111s-6.9748 0-8.8823-.5111c-5.1764-1.387-9.2196-5.4302-10.6066-10.6066-.5111-1.9075-.5111-4.2324-.5111-8.8823z" fill="#fff"/><path d="m60 12.3125c4.67 0 6.944.0022 8.8018.5 5.0683 1.3581 9.0276 5.3174 10.3857 10.3857.4978 1.8578.5 4.1318.5 8.8018s-.0022 6.944-.5 8.8018c-1.3581 5.0683-5.3174 9.0276-10.3857 10.3857-1.8578.4978-4.1318.5-8.8018.5s-6.944-.0022-8.8018-.5c-5.0683-1.3581-9.0276-5.3174-10.3857-10.3857-.4978-1.8578-.5-4.1318-.5-8.8018s.0022-6.944.5-8.8018c1.3581-5.0683 5.3174-9.0276 10.3857-10.3857 1.8578-.4978 4.1318-.5 8.8018-.5z" stroke="#2a3241" stroke-opacity=".1" stroke-width=".625"/><path d="m65.668 27.948-5.668-3.2815-5.6681 3.2815 5.6681 3.2815zm-12.0014 1.1555v6.563l5.6667 3.2807v-6.563zm7 9.8437 5.6667-3.2807v-6.563l-5.6667 3.2807z" fill="#2a3241"/><path d="m86 32c0-5.3473 0-8.021.5878-10.2146 1.595-5.9529 6.2447-10.6026 12.1976-12.19762 2.1936-.58778 4.8676-.58778 10.2146-.58778s8.021 0 10.215.58778c5.952 1.59502 10.602 6.24472 12.197 12.19762.588 2.1936.588 4.8673.588 10.2146s0 8.021-.588 10.2146c-1.595 5.9529-6.245 10.6026-12.197 12.1976-2.194.5878-4.868.5878-10.215.5878s-8.021 0-10.2146-.5878c-5.9529-1.595-10.6026-6.2447-12.1976-12.1976-.5878-2.1936-.5878-4.8673-.5878-10.2146z" fill="#fff"/><path d="m109 9.35938c5.37 0 7.986.00274 10.122.57519 5.829 1.56193 10.382 6.11483 11.943 11.94333.573 2.1364.576 4.7516.576 10.1221s-.003 7.9857-.576 10.1221c-1.561 5.8285-6.114 10.3814-11.943 11.9433-2.136.5725-4.752.5752-10.122.5752s-7.986-.0027-10.1221-.5752c-5.8285-1.5619-10.3814-6.1148-11.9433-11.9433-.5725-2.1364-.5752-4.7516-.5752-10.1221s.0027-7.9857.5752-10.1221c1.5619-5.8285 6.1148-10.3814 11.9433-11.94333 2.1361-.57245 4.7521-.57519 10.1221-.57519z" stroke="#2a3241" stroke-opacity=".1" stroke-width=".71875"/><path d="m113.64 40.0292c-1.925.7876-3.719 1.1376-5.6 1.1376-5.798 0-9.1234-2.9534-9.1234-8.1165 0-6.1476 4.2884-10.2168 10.7414-10.2168 5.601 0 9.386 3.0628 9.386 7.7009 0 3.8942-2.035 6.1694-5.01 6.1694-1.51 0-2.516-.6344-2.953-1.6408-.722 1.072-2.101 1.7721-3.348 1.7721-2.472 0-3.96-1.5533-3.96-4.1567 0-3.1285 1.816-5.3163 4.42-5.3163 1.181 0 2.166.3938 2.734 1.072l.088-.8751h3.063l-.438 4.1349c-.065.7001-.131 1.4001-.131 1.8596 0 .525.416.8751 1.006.8751 1.313 0 2.122-1.2252 2.122-3.5004 0-3.9817-2.297-5.907-7.11-5.907-4.878 0-8.204 3.1066-8.204 7.8322 0 3.8504 2.472 6.1257 6.804 6.1257 1.86 0 3.194-.2407 4.922-.9626zm-4.944-5.8194c1.05 0 1.772-.9845 1.772-2.3847 0-1.1595-.525-1.8377-1.422-1.8377-1.05 0-1.772.9845-1.772 2.4066 0 1.1376.525 1.8158 1.422 1.8158z" fill="#2a3241"/><path d="m138 32c0-6.2773 0-9.416.69-11.9911 1.872-6.9881 7.331-12.44644 14.319-14.3189 2.575-.69 5.714-.69 11.991-.69s9.416 0 11.991.69c6.988 1.87246 12.447 7.3308 14.319 14.3189.69 2.5751.69 5.7138.69 11.9911s0 9.416-.69 11.9911c-1.872 6.9881-7.331 12.4464-14.319 14.3189-2.575.69-5.714.69-11.991.69s-9.416 0-11.991-.69c-6.988-1.8725-12.447-7.3308-14.319-14.3189-.69-2.5751-.69-5.7138-.69-11.9911z" fill="#fff"/><path d="m165 5.42188c6.304 0 9.374.00378 11.882.67578 6.842 1.83345 12.187 7.17794 14.02 14.02054.672 2.5079.676 5.5773.676 11.8818s-.004 9.3739-.676 11.8818c-1.833 6.8426-7.178 12.1871-14.02 14.0205-2.508.672-5.578.6758-11.882.6758s-9.374-.0038-11.882-.6758c-6.842-1.8334-12.187-7.1779-14.02-14.0205-.672-2.5079-.676-5.5773-.676-11.8818s.004-9.3739.676-11.8818c1.833-6.8426 7.178-12.18709 14.02-14.02054 2.508-.672 5.578-.67578 11.882-.67578z" stroke="#2a3241" stroke-opacity=".1" stroke-width=".84375"/><path clip-rule="evenodd" d="m168.097 21.8666c.867-.2568 1.806-.2771 2.632.1974s1.278 1.2939 1.487 2.1686c.209.872.205 1.8937.049 2.9702-.029.2032-.067.4098-.108.6204.205.0703.403.1421.595.2185 1.015.404 1.907.9113 2.562 1.5271.657.6179 1.144 1.4173 1.144 2.366 0 .9489-.487 1.7481-1.144 2.366-.655.6159-1.546 1.1232-2.562 1.5271-.192.0764-.391.1483-.595.2186.041.2109.079.4179.108.6214.156 1.0765.16 2.0982-.049 2.9701-.209.8748-.661 1.6942-1.487 2.1687s-1.765.4541-2.632.1974c-.863-.2561-1.751-.7706-2.61-1.4431-.162-.1271-.324-.2623-.487-.4028-.163.1405-.325.2757-.487.4028-.86.6725-1.747 1.187-2.611 1.4431-.866.2567-1.805.2771-2.631-.1974s-1.278-1.2939-1.487-2.1687c-.209-.8719-.205-1.8936-.049-2.9701.029-.2034.066-.4105.107-.6214-.204-.0703-.403-.1423-.595-.2186-1.015-.4039-1.906-.9112-2.561-1.5271-.657-.6179-1.144-1.4171-1.144-2.366 0-.9487.487-1.7481 1.144-2.366.655-.6158 1.546-1.1231 2.561-1.5271.192-.0763.391-.1483.595-.2185-.041-.2106-.078-.4173-.107-.6204-.156-1.0765-.16-2.0982.049-2.9702.209-.8747.661-1.6941 1.487-2.1686s1.765-.4542 2.631-.1974c.864.2561 1.751.7705 2.611 1.4431.162.1269.324.2614.487.4018.163-.1404.325-.2749.487-.4018.859-.6726 1.747-1.187 2.61-1.4431zm-8.242 14.7335c-.022.1227-.041.2436-.058.3623-.134.9225-.115 1.6638.013 2.196.127.5286.332.7563.502.8541.171.0977.472.1612.995.006.527-.1562 1.182-.5105 1.918-1.0868.094-.074.189-.1516.285-.2318-.484-.5322-.961-1.1163-1.425-1.7436-.778-.0862-1.525-.2053-2.23-.3562zm10.289 0c-.705.1508-1.452.27-2.23.3562-.464.6273-.941 1.2114-1.425 1.7436.096.0803.191.1576.286.2318.736.5763 1.391.9306 1.918 1.0868.523.1552.824.0917.994-.006.171-.0978.376-.3255.503-.8541.127-.5322.147-1.2735.013-2.196-.017-.1187-.037-.2395-.059-.3623zm-5.144.5161c-.04 0-.079-.0019-.119-.002.039.0445.079.0888.118.1325.039-.0439.079-.0878.119-.1325-.039.0001-.079.002-.118.002zm0-8.2902c-.606 0-1.197.0232-1.769.0638-.321.4717-.634.9695-.937 1.4906-.302.5213-.58 1.041-.83 1.5534.251.5131.527 1.0334.83 1.5554.302.5211.616 1.019.937 1.4907.572.0406 1.163.0637 1.769.0637s1.196-.0231 1.768-.0637c.321-.4719.635-.9694.938-1.4907.303-.5219.578-1.0424.829-1.5554-.25-.5122-.527-1.0322-.829-1.5534-.303-.5213-.617-1.0187-.938-1.4906-.572-.0406-1.162-.0638-1.768-.0638zm4.51 5.6995c-.019.0343-.041.0681-.061.1022.059-.0117.117-.0243.175-.0364-.018-.0561-.036-.1125-.056-.169-.019.0342-.038.069-.058.1032zm-9.135.0658c.057.0121.116.0237.174.0354-.019-.0337-.04-.0673-.06-.1012-.019-.0343-.039-.0689-.059-.1032-.019.0565-.037.1129-.055.169zm11.258-4.7563c-.221.6831-.49 1.3864-.804 2.0998.314.7132.583 1.4161.804 2.0989.118-.0424.234-.0851.345-.1295.87-.3462 1.505-.7333 1.905-1.1092.396-.3735.492-.6647.492-.8602s-.096-.4868-.492-.8601c-.4-.3759-1.035-.7631-1.905-1.1092-.112-.0445-.227-.0881-.345-.1305zm-13.268 0c-.117.0423-.232.0861-.343.1305-.87.3461-1.505.7333-1.905 1.1092-.396.3733-.492.6646-.492.8601s.095.4867.492.8602c.4.3759 1.035.763 1.905 1.1092.111.0443.226.0872.343.1295.222-.6828.491-1.3857.805-2.0989-.314-.7134-.583-1.4167-.805-2.0998zm2.01-.5566c.018.0557.036.1118.055.168.02-.034.04-.0683.059-.1022.02-.034.041-.0674.06-.1012-.058.0116-.117.0233-.174.0354zm9.135.0658c.02.0338.039.0684.058.1022.02-.0562.038-.1123.056-.168-.058-.0121-.116-.0248-.175-.0364.02.0341.042.0678.061.1022zm-8.203-5.4921c-.523-.1551-.824-.0916-.995.0061-.17.0977-.375.3254-.502.8541-.128.5322-.147 1.2735-.013 2.196.017.1183.036.2389.058.3613.705-.1509 1.452-.271 2.23-.3572.464-.6273.941-1.2115 1.425-1.7437-.096-.0798-.191-.156-.285-.2297-.736-.5764-1.391-.9306-1.918-1.0869zm8.38.0061c-.17-.0977-.471-.1612-.994-.0061-.527.1563-1.182.5105-1.918 1.0869-.094.0739-.19.1497-.286.2297.484.5322.961 1.1164 1.425 1.7437.778.0861 1.525.2063 2.23.3572.022-.1225.042-.2429.059-.3613.134-.9225.114-1.6638-.013-2.196-.127-.5287-.332-.7564-.503-.8541zm-4.805 2.8963c.039-.0002.079-.001.118-.001s.078.0008.117.001c-.039-.0446-.079-.0889-.118-.1326-.039.0436-.078.0882-.117.1326z" fill="#2a3241" fill-rule="evenodd"/><path d="m198 32c0-7.4398 0-11.1597.818-14.2117 2.219-8.28217 8.688-14.75131 16.97-16.970519 3.052-.817781 6.772-.817781 14.212-.817781s11.16 0 14.212.817781c8.282 2.219209 14.751 8.688349 16.97 16.970519.818 3.052.818 6.7719.818 14.2117s0 11.1597-.818 14.2117c-2.219 8.2822-8.688 14.7513-16.97 16.9705-3.052.8178-6.772.8178-14.212.8178s-11.16 0-14.212-.8178c-8.282-2.2192-14.751-8.6883-16.97-16.9705-.818-3.052-.818-6.7719-.818-14.2117z" fill="#fff"/><path d="m230 .5c7.472 0 11.11.004384 14.082.80078 8.11 2.17298 14.444 8.50753 16.617 16.61722.797 2.9723.801 6.6102.801 14.082s-.004 11.1097-.801 14.082c-2.173 8.1097-8.507 14.4442-16.617 16.6172-2.972.7964-6.61.8008-14.082.8008s-11.11-.0044-14.082-.8008c-8.11-2.173-14.444-8.5075-16.617-16.6172-.797-2.9723-.801-6.6102-.801-14.082s.004-11.1097.801-14.082c2.173-8.10969 8.507-14.44424 16.617-16.61722 2.972-.796396 6.61-.80078 14.082-.80078z" stroke="#2a3241" stroke-opacity=".1"/><path d="m225 22c0-2.0711 1.679-3.75 3.75-3.75s3.75 1.6789 3.75 3.75c0 .4383-.075.859-.213 1.25h5.213c.69 0 1.25.5596 1.25 1.25v5.2134c.391-.1382.812-.2134 1.25-.2134 2.071 0 3.75 1.6789 3.75 3.75s-1.679 3.75-3.75 3.75c-.438 0-.859-.0753-1.25-.2134v5.2134c0 .6904-.56 1.25-1.25 1.25h-17.5c-.69 0-1.25-.5596-1.25-1.25v-17.5c0-.6904.56-1.25 1.25-1.25h5.213c-.138-.391-.213-.8117-.213-1.25z" fill="#2a3241"/><path d="m268 32c0-6.2773 0-9.416.69-11.9911 1.872-6.9881 7.331-12.44644 14.319-14.3189 2.575-.69 5.714-.69 11.991-.69s9.416 0 11.991.69c6.988 1.87246 12.447 7.3308 14.319 14.3189.69 2.5751.69 5.7138.69 11.9911s0 9.416-.69 11.9911c-1.872 6.9881-7.331 12.4464-14.319 14.3189-2.575.69-5.714.69-11.991.69s-9.416 0-11.991-.69c-6.988-1.8725-12.447-7.3308-14.319-14.3189-.69-2.5751-.69-5.7138-.69-11.9911z" fill="#fff"/><path d="m295 5.42188c6.304 0 9.374.00378 11.882.67578 6.842 1.83345 12.187 7.17794 14.02 14.02054.672 2.5079.676 5.5773.676 11.8818s-.004 9.3739-.676 11.8818c-1.833 6.8426-7.178 12.1871-14.02 14.0205-2.508.672-5.578.6758-11.882.6758s-9.374-.0038-11.882-.6758c-6.842-1.8334-12.187-7.1779-14.02-14.0205-.672-2.5079-.676-5.5773-.676-11.8818s.004-9.3739.676-11.8818c1.833-6.8426 7.178-12.18709 14.02-14.02054 2.508-.672 5.578-.67578 11.882-.67578z" stroke="#2a3241" stroke-opacity=".1" stroke-width=".84375"/><path d="m292.491 20.0547v2.1092h6.328v-2.1092h2.109v2.1092h5.273v18.9825c-7.031 0-14.061 0-21.092 0v-18.9825h5.273v-2.1092zm11.601 10.5458h-16.874v8.4367h16.874zm-13.71-6.3275h-3.164v4.2184h16.874v-4.2184h-3.164v2.1092h-2.109v-2.1092h-6.328v2.1092h-2.109z" fill="#2a3241"/><path d="m328 32c0-5.3473 0-8.021.588-10.2146 1.595-5.9529 6.245-10.6026 12.197-12.19762 2.194-.58778 4.868-.58778 10.215-.58778s8.021 0 10.215.58778c5.952 1.59502 10.602 6.24472 12.197 12.19762.588 2.1936.588 4.8673.588 10.2146s0 8.021-.588 10.2146c-1.595 5.9529-6.245 10.6026-12.197 12.1976-2.194.5878-4.868.5878-10.215.5878s-8.021 0-10.215-.5878c-5.952-1.595-10.602-6.2447-12.197-12.1976-.588-2.1936-.588-4.8673-.588-10.2146z" fill="#fff"/><path d="m351 9.35938c5.37 0 7.986.00274 10.122.57519 5.829 1.56193 10.382 6.11483 11.943 11.94333.573 2.1364.576 4.7516.576 10.1221s-.003 7.9857-.576 10.1221c-1.561 5.8285-6.114 10.3814-11.943 11.9433-2.136.5725-4.752.5752-10.122.5752s-7.986-.0027-10.122-.5752c-5.829-1.5619-10.382-6.1148-11.943-11.9433-.573-2.1364-.576-4.7516-.576-10.1221s.003-7.9857.576-10.1221c1.561-5.8285 6.114-10.3814 11.943-11.94333 2.136-.57245 4.752-.57519 10.122-.57519z" stroke="#2a3241" stroke-opacity=".1" stroke-width=".71875"/><path d="m351 21.9165c2.531 0 4.583 2.052 4.583 4.5833v3.6667c0 2.5313-2.052 4.5833-4.583 4.5833s-4.584-2.052-4.584-4.5833v-3.6667c0-2.5313 2.053-4.5833 4.584-4.5833zm-8.2 9.1667h1.848c.445 3.1096 3.119 5.5 6.352 5.5 3.232 0 5.907-2.3904 6.352-5.5h1.847c-.422 3.8239-3.459 6.8602-7.282 7.283v3.717h-1.834v-3.717c-3.824-.4228-6.86-3.4591-7.283-7.283z" fill="#2a3241"/><path d="m380 32c0-4.6499 0-6.9748.511-8.8823 1.387-5.1764 5.43-9.2196 10.607-10.6066 1.907-.5111 4.232-.5111 8.882-.5111s6.975 0 8.882.5111c5.177 1.387 9.22 5.4302 10.607 10.6066.511 1.9075.511 4.2324.511 8.8823s0 6.9748-.511 8.8823c-1.387 5.1764-5.43 9.2196-10.607 10.6066-1.907.5111-4.232.5111-8.882.5111s-6.975 0-8.882-.5111c-5.177-1.387-9.22-5.4302-10.607-10.6066-.511-1.9075-.511-4.2324-.511-8.8823z" fill="#fff"/><path d="m400 12.3125c4.67 0 6.944.0022 8.802.5 5.068 1.3581 9.027 5.3174 10.386 10.3857.497 1.8578.5 4.1318.5 8.8018s-.003 6.944-.5 8.8018c-1.359 5.0683-5.318 9.0276-10.386 10.3857-1.858.4978-4.132.5-8.802.5s-6.944-.0022-8.802-.5c-5.068-1.3581-9.027-5.3174-10.386-10.3857-.497-1.8578-.5-4.1318-.5-8.8018s.003-6.944.5-8.8018c1.359-5.0683 5.318-9.0276 10.386-10.3857 1.858-.4978 4.132-.5 8.802-.5z" stroke="#2a3241" stroke-opacity=".1" stroke-width=".625"/><path d="m393.333 28.5069v8.8263h13.334v-8.8263l-6.667 6.0606z" fill="#2a3241"/><path d="m406.667 26.7049v-.0384h-13.334v.0384l6.667 6.0606z" fill="#2a3241"/><path d="m426 32c0-3.9524 0-5.9286.434-7.5499 1.179-4.4 4.616-7.8367 9.016-9.0157 1.621-.4344 3.598-.4344 7.55-.4344s5.929 0 7.55.4344c4.4 1.179 7.837 4.6157 9.016 9.0157.434 1.6213.434 3.5975.434 7.5499s0 5.9286-.434 7.5499c-1.179 4.4-4.616 7.8367-9.016 9.0157-1.621.4344-3.598.4344-7.55.4344s-5.929 0-7.55-.4344c-4.4-1.179-7.837-4.6157-9.016-9.0157-.434-1.6213-.434-3.5975-.434-7.5499z" fill="#fff"/><path d="m443 15.2656c3.969 0 5.902.0027 7.481.4258 4.308 1.1545 7.673 4.5192 8.828 8.8272.423 1.579.425 3.5119.425 7.4814s-.002 5.9024-.425 7.4814c-1.155 4.308-4.52 7.6727-8.828 8.8272-1.579.4231-3.512.4258-7.481.4258s-5.902-.0027-7.481-.4258c-4.308-1.1545-7.673-4.5192-8.828-8.8272-.423-1.579-.425-3.5119-.425-7.4814s.002-5.9024.425-7.4814c1.155-4.308 4.52-7.6727 8.828-8.8272 1.579-.4231 3.512-.4258 7.481-.4258z" stroke="#2a3241" stroke-opacity=".1" stroke-width=".53125"/><path d="m449 26.0713v12h-12c0-4 0-8 0-12zm-6.541 6.7723-4.126.727v3.1674h4.812zm5.208-5.439h-4.813l1.645 9.3334h3.168zm-6.167 0h-3.167v4.812l3.895-.6861z" fill="#2a3241"/></g></svg>