<svg fill="none" height="96" viewBox="0 0 246 96" width="246" xmlns="http://www.w3.org/2000/svg" xmlns:xlink="http://www.w3.org/1999/xlink"><linearGradient id="a" gradientUnits="userSpaceOnUse" x1="-95.1431" x2="251.198" y1="180.386" y2="174.672"><stop offset=".341346" stop-color="#1c91ff"/><stop offset=".461538" stop-color="#8b5cf6"/><stop offset=".591346" stop-color="#e14322"/><stop offset=".716346" stop-color="#6aa668"/></linearGradient><path d="m3.9523 14v-4.416l-3.95199532-6.944h2.68799532l2.48 4.576 2.46401-4.576h2.68799l-3.93599 6.944v4.416zm7.1253 0v-11.36h7.904v2.048h-5.472v2.608h5.28v2.016h-5.28v2.64h5.6v2.048zm9.0731 0 4.096-11.36h2.88l4.096 11.36h-2.528l-.832-2.416h-4.368l-.832 2.416zm4.032-4.416h3.008l-1.504-4.384zm8.1136 4.416v-11.36h4.976c.832 0 1.552.13867 2.16.416.6187.27733 1.0933.672 1.424 1.184.3307.50133.496 1.09867.496 1.792 0 .52267-.112.98667-.336 1.392-.2133.40533-.512.736-.896.992-.3733.256-.8053.416-1.296.48l-.048-.144c.7573 0 1.3333.16533 1.728.496.3947.32.6187.816.672 1.488l.288 3.264h-2.48l-.208-2.88c-.032-.4373-.1707-.7573-.416-.96-.2347-.21333-.64-.32-1.216-.32h-2.416v4.16zm2.432-6.192h2.272c.5867 0 1.04-.13333 1.36-.4.3307-.27733.496-.66667.496-1.168 0-.512-.1653-.896-.496-1.152-.3307-.26667-.8107-.4-1.44-.4h-2.192zm12.3649 6.192v-11.36h2.432v11.36zm4.5781 0v-11.36h2.688l4.512 7.84v-7.84h2.432v11.36h-2.72l-4.48-7.568v7.568zm15.6406 0v-11.36h4.976c.832 0 1.552.13867 2.16.416.6187.27733 1.0934.672 1.424 1.184.3307.50133.496 1.09867.496 1.792 0 .52267-.112.98667-.336 1.392-.2133.40533-.512.736-.896.992-.3733.256-.8053.416-1.296.48l-.048-.144c.7574 0 1.3334.16533 1.728.496.3947.32.6187.816.672 1.488l.288 3.264h-2.48l-.208-2.88c-.032-.4373-.1706-.7573-.416-.96-.2346-.21333-.64-.32-1.216-.32h-2.416v4.16zm2.432-6.192h2.272c.5867 0 1.04-.13333 1.36-.4.3307-.27733.496-.66667.496-1.168 0-.512-.1653-.896-.496-1.152-.3306-.26667-.8106-.4-1.44-.4h-2.192zm8.7243 6.192v-11.36h7.904v2.048h-5.472v2.608h5.28v2.016h-5.28v2.64h5.6v2.048zm13.2941 0-4.096-11.36h2.512l3.024 8.624 3.024-8.624h2.512l-4.112 11.36zm8.034 0v-11.36h2.4317v11.36zm4.5777 0v-11.36h7.904v2.048h-5.472v2.608h5.28v2.016h-5.28v2.64h5.6v2.048zm12.559 0-3.072-11.36h2.544l1.952 8 1.968-8h2.128l1.984 8 1.936-8h2.544l-3.056 11.36h-2.624l-1.856-7.264-1.856 7.264z" fill="#1c222d"/><path d="m3.9523 14v-4.416l-3.95199532-6.944h2.68799532l2.48 4.576 2.46401-4.576h2.68799l-3.93599 6.944v4.416zm7.1253 0v-11.36h7.904v2.048h-5.472v2.608h5.28v2.016h-5.28v2.64h5.6v2.048zm9.0731 0 4.096-11.36h2.88l4.096 11.36h-2.528l-.832-2.416h-4.368l-.832 2.416zm4.032-4.416h3.008l-1.504-4.384zm8.1136 4.416v-11.36h4.976c.832 0 1.552.13867 2.16.416.6187.27733 1.0933.672 1.424 1.184.3307.50133.496 1.09867.496 1.792 0 .52267-.112.98667-.336 1.392-.2133.40533-.512.736-.896.992-.3733.256-.8053.416-1.296.48l-.048-.144c.7573 0 1.3333.16533 1.728.496.3947.32.6187.816.672 1.488l.288 3.264h-2.48l-.208-2.88c-.032-.4373-.1707-.7573-.416-.96-.2347-.21333-.64-.32-1.216-.32h-2.416v4.16zm2.432-6.192h2.272c.5867 0 1.04-.13333 1.36-.4.3307-.27733.496-.66667.496-1.168 0-.512-.1653-.896-.496-1.152-.3307-.26667-.8107-.4-1.44-.4h-2.192zm12.3649 6.192v-11.36h2.432v11.36zm4.5781 0v-11.36h2.688l4.512 7.84v-7.84h2.432v11.36h-2.72l-4.48-7.568v7.568zm15.6406 0v-11.36h4.976c.832 0 1.552.13867 2.16.416.6187.27733 1.0934.672 1.424 1.184.3307.50133.496 1.09867.496 1.792 0 .52267-.112.98667-.336 1.392-.2133.40533-.512.736-.896.992-.3733.256-.8053.416-1.296.48l-.048-.144c.7574 0 1.3334.16533 1.728.496.3947.32.6187.816.672 1.488l.288 3.264h-2.48l-.208-2.88c-.032-.4373-.1706-.7573-.416-.96-.2346-.21333-.64-.32-1.216-.32h-2.416v4.16zm2.432-6.192h2.272c.5867 0 1.04-.13333 1.36-.4.3307-.27733.496-.66667.496-1.168 0-.512-.1653-.896-.496-1.152-.3306-.26667-.8106-.4-1.44-.4h-2.192zm8.7243 6.192v-11.36h7.904v2.048h-5.472v2.608h5.28v2.016h-5.28v2.64h5.6v2.048zm13.2941 0-4.096-11.36h2.512l3.024 8.624 3.024-8.624h2.512l-4.112 11.36zm8.034 0v-11.36h2.4317v11.36zm4.5777 0v-11.36h7.904v2.048h-5.472v2.608h5.28v2.016h-5.28v2.64h5.6v2.048zm12.559 0-3.072-11.36h2.544l1.952 8 1.968-8h2.128l1.984 8 1.936-8h2.544l-3.056 11.36h-2.624l-1.856-7.264-1.856 7.264z" fill="url(#a)"/><path d="m217.977 95.6722c-5.602 0-10.336-.8372-14.199-2.5115-3.864-1.6742-6.858-4.0569-8.983-7.1478-2.125-3.091-3.349-6.6972-3.671-10.8185l14.875-.6761c.58 2.9622 1.868 5.1838 3.864 6.6649 2.061 1.4167 4.765 2.125 8.114 2.125 3.735 0 6.665-1.0625 8.79-3.1875 2.189-2.1251 3.284-5.0551 3.284-8.79 0-2.447-.515-4.5721-1.545-6.3752-.966-1.803-2.351-3.2197-4.154-4.2501-1.803-1.0303-3.96-1.5454-6.472-1.5454-2.769 0-5.151.6117-7.148 1.8352-1.996 1.2235-3.38 2.769-4.153 4.6365h-14.682l4.733-40.0862h43.757v12.364h-31.297l-2.511 19.9947-1.642-1.4489c1.095-1.6742 2.447-3.0909 4.057-4.2501 1.674-1.2235 3.606-2.1572 5.795-2.8012 2.19-.7083 4.605-1.0625 7.245-1.0625 4.765 0 8.854.9982 12.267 2.9944 3.478 1.9963 6.15 4.7331 8.017 8.2104 1.868 3.4774 2.802 7.4055 2.802 11.7844 0 4.9584-1.127 9.2729-3.381 12.9435-2.254 3.6705-5.409 6.5039-9.466 8.5002-4.057 1.9318-8.822 2.8978-14.296 2.8978z" fill="#fe9c1a"/><path d="m128.211 94.1266c0-5.86.773-10.9472 2.318-15.2617 1.61-4.3145 4.186-8.1782 7.728-11.5912 3.606-3.4129 8.371-6.6649 14.295-9.7559 3.156-1.6099 5.635-3.0266 7.438-4.2501 1.868-1.2879 3.188-2.5758 3.96-3.8637.773-1.2879 1.16-2.8012 1.16-4.5399 0-1.6743-.387-3.1232-1.16-4.3467-.708-1.2879-1.77-2.286-3.187-2.9944-1.417-.7727-3.188-1.1591-5.313-1.1591-3.477 0-6.246 1.0303-8.307 3.091-1.996 1.9963-3.252 4.9263-3.767 8.79l-15.068-.8694c.643-7.2766 3.284-12.9756 7.92-17.0969 4.701-4.1857 11.044-6.2786 19.029-6.2786 5.28 0 9.756.8693 13.426 2.608 3.735 1.7387 6.569 4.1535 8.501 7.2445 1.996 3.091 2.994 6.6971 2.994 10.8184 0 3.6062-.612 6.6328-1.835 9.0798-1.159 2.447-3.059 4.7009-5.699 6.7615-2.64 2.0607-6.118 4.2501-10.432 6.5684-5.538 2.9621-9.627 5.6989-12.268 8.2104-2.64 2.447-4.057 4.6042-4.25 6.4717h34.484v12.3639z" fill="#0c84fe"/><path d="m90.1027 95.6721c-6.0532 0-11.2692-1.4167-15.6481-4.2501-4.3789-2.8978-7.7597-7.0191-10.1423-12.3639-2.3182-5.3448-3.4773-11.72-3.4773-19.1254 0-7.4055 1.1913-13.7807 3.5739-19.1255 2.3826-5.4092 5.7312-9.5627 10.0457-12.4605 4.3789-2.8978 9.5949-4.3467 15.6481-4.3467 5.9888 0 11.1403 1.4489 15.4553 4.3467 4.378 2.8978 7.759 7.0513 10.142 12.4605 2.382 5.3448 3.574 11.72 3.574 19.1255 0 7.341-1.192 13.684-3.574 19.0288-2.318 5.3448-5.667 9.4661-10.046 12.3639s-9.5625 4.3467-15.5513 4.3467zm0-12.3639c4.5077 0 7.9528-1.9641 10.3353-5.8922 2.447-3.9281 3.671-9.7559 3.671-17.4833 0-5.2161-.548-9.5628-1.642-13.0401-1.031-3.4774-2.6084-6.0854-4.7334-7.8241-2.0607-1.803-4.6043-2.7046-7.6309-2.7046-3.091 0-5.699.9016-7.8241 2.7046-2.0606 1.7387-3.6383 4.3467-4.733 7.8241-1.0303 3.4773-1.5455 7.824-1.5455 13.0401 0 7.7274 1.1913 13.5552 3.5739 17.4833 2.4471 3.9281 5.9566 5.8922 10.5287 5.8922z" fill="#e14322"/><path d="m.112305 94.1266c0-5.86.772745-10.9472 2.318235-15.2617 1.60989-4.3145 4.1857-8.1782 7.72746-11.5912 3.6061-3.4129 8.3714-6.6649 14.2958-9.7559 3.1554-1.6099 5.6346-3.0266 7.4377-4.2501 1.8674-1.2879 3.1875-2.5758 3.9603-3.8637.7727-1.2879 1.1591-2.8012 1.1591-4.5399 0-1.6743-.3864-3.1232-1.1591-4.3467-.7084-1.2879-1.7709-2.286-3.1876-2.9944-1.4167-.7727-3.1876-1.1591-5.3126-1.1591-3.4774 0-6.2464 1.0303-8.307 3.091-1.9963 1.9963-3.252 4.9263-3.7672 8.79l-15.068502-.8694c.643955-7.2766 3.284162-12.9756 7.920642-17.0969 4.70086-4.1857 11.04386-6.2786 19.02886-6.2786 5.2804 0 9.7559.8693 13.4264 2.608 3.735 1.7387 6.5684 4.1535 8.5002 7.2445 1.9963 3.091 2.9944 6.6971 2.9944 10.8184 0 3.6062-.6117 6.6328-1.8352 9.0798-1.1592 2.447-3.0588 4.7009-5.699 6.7615-2.6403 2.0607-6.1176 4.2501-10.4321 6.5684-5.538 2.9621-9.6271 5.6989-12.2673 8.2104-2.6402 2.447-4.0569 4.6042-4.2501 6.4717h34.4837v12.3639z" fill="#418b5c"/><path d="m217.977 95.6721c-5.602 0-10.336-.8371-14.199-2.5114-3.864-1.6743-6.858-4.0569-8.983-7.1479s-3.349-6.6971-3.671-10.8185l14.875-.6761c.58 2.9622 1.868 5.1838 3.864 6.6649 2.061 1.4167 4.765 2.1251 8.114 2.1251 3.735 0 6.665-1.0626 8.79-3.1876 2.189-2.1251 3.284-5.055 3.284-8.79 0-2.447-.515-4.5721-1.545-6.3751-.966-1.8031-2.351-3.2198-4.154-4.2501-.485-.277-.995-.5167-1.531-.7192h-9.993c-.74.2701-1.439.6064-2.096 1.009-1.996 1.2235-3.38 2.769-4.153 4.6364h-14.682l.666-5.6454h20.265 9.993 19.727c1.715 3.3677 2.572 7.1492 2.572 11.3444 0 4.9585-1.127 9.273-3.381 12.9435s-5.409 6.5039-9.466 8.5002c-4.057 1.9319-8.822 2.8978-14.296 2.8978z" fill="#ffc170"/><path d="m74.4546 91.422c4.3789 2.8334 9.5949 4.2501 15.6481 4.2501 5.9888 0 11.1723-1.4489 15.5513-4.3467s7.728-7.0191 10.046-12.3639c2.383-5.3449 3.574-11.6878 3.574-19.0289h-15.165c0 7.7275-1.224 13.5553-3.671 17.4834-2.3825 3.9281-5.8276 5.8922-10.3353 5.8922-4.5721 0-8.0816-1.9641-10.5287-5.8922-2.3826-3.9281-3.5739-9.7559-3.5739-17.4834h-15.1651c0 7.4055 1.1591 13.7806 3.4773 19.1255 2.3826 5.3448 5.7634 9.4661 10.1423 12.3639z" fill="#ffc3df"/><path d="m2.43054 78.865c-1.54549 4.3145-2.318235 9.4018-2.318235 15.2617h51.967095v-12.3639h-34.4837c.1932-1.8674 1.6099-4.0247 4.2501-6.4717 2.6402-2.5114 6.7293-5.2482 12.2673-8.2104 4.3145-2.3183 7.7918-4.5077 10.4321-6.5684h-25.3864c-3.5399 2.1789-6.5402 4.4328-9.0008 6.7616-3.54176 3.4129-6.11757 7.2766-7.72746 11.5911z" fill="#b2c93d"/><path d="m130.529 78.865c-1.545 4.3145-2.318 9.4018-2.318 15.2617h51.967v-12.3639h-34.484c.193-1.8674 1.61-4.0247 4.25-6.4717 2.641-2.5114 6.73-5.2482 12.268-8.2104 4.314-2.3183 7.792-4.5077 10.432-6.5684h-25.387c-3.539 2.1789-6.54 4.4328-9 6.7616-3.542 3.4129-6.118 7.2766-7.728 11.5911z" fill="#9fdbff"/></svg>