<svg width="610" height="344" viewBox="0 0 610 344" fill="none" xmlns="http://www.w3.org/2000/svg">
<g clip-path="url(#clip0_1407_20769)">
<circle cx="73.6788" cy="61.6788" r="39.6788" fill="white" stroke="#CAEBFF" stroke-width="2"/>
<path d="M60.925 70.8851L62.355 73.4652C62.6521 74.0084 63.0793 74.4352 63.5807 74.7456L68.6877 65.5114H58.4736C58.4736 66.1127 58.6222 66.7141 58.9193 67.2573L60.925 70.8851Z" fill="#0066DA"/>
<path d="M74.6862 54.6476L69.5791 45.4133C69.0777 45.7237 68.6506 46.1505 68.3534 46.6937L58.9193 63.7654C58.6277 64.2969 58.474 64.8987 58.4736 65.5114H68.6877L74.6862 54.6476Z" fill="#00AC47"/>
<path d="M85.7914 74.7456C86.2928 74.4352 86.7199 74.0084 87.0171 73.4652L87.6113 72.3982L90.4527 67.2573C90.7499 66.7141 90.8984 66.1127 90.8984 65.5114H80.6836L82.8572 69.9733L85.7914 74.7456Z" fill="#EA4335"/>
<path d="M74.6862 54.6476L79.7932 45.4133C79.2918 45.103 78.7161 44.9478 78.1218 44.9478H71.2505C70.6562 44.9478 70.0805 45.1224 69.5791 45.4133L74.6862 54.6476Z" fill="#00832D"/>
<path d="M80.685 65.5114H68.6881L63.5811 74.7456C64.0825 75.056 64.6582 75.2112 65.2525 75.2112H84.1207C84.715 75.2112 85.2907 75.0366 85.7921 74.7456L80.685 65.5114Z" fill="#2684FC"/>
<path d="M85.7363 55.2295L81.0193 46.6937C80.7221 46.1505 80.295 45.7237 79.7936 45.4133L74.6865 54.6476L80.685 65.5114H90.8805C90.8805 64.91 90.7319 64.3086 90.4348 63.7654L85.7363 55.2295Z" fill="#FFBA00"/>
<circle cx="305.036" cy="61.6788" r="39.6788" fill="white" stroke="#CAEBFF" stroke-width="2"/>
<path fill-rule="evenodd" clip-rule="evenodd" d="M305.358 41.1666C293.847 41.1666 284.524 50.5483 284.524 62.1314C284.524 71.4082 290.488 79.2438 298.769 82.0216C299.811 82.2051 300.201 81.5761 300.201 81.0258C300.201 80.5279 300.175 78.8769 300.175 77.1211C294.941 78.0907 293.587 75.837 293.17 74.6578C292.936 74.055 291.92 72.1944 291.035 71.6965C290.306 71.3034 289.264 70.3338 291.009 70.3076C292.649 70.2814 293.821 71.8275 294.212 72.4565C296.087 75.6274 299.082 74.7364 300.28 74.1861C300.462 72.8234 301.009 71.9062 301.608 71.382C296.972 70.8579 292.129 69.0497 292.129 61.0307C292.129 58.7508 292.936 56.864 294.264 55.3964C294.056 54.8723 293.326 52.7234 294.472 49.8408C294.472 49.8408 296.217 49.2905 300.201 51.9897C301.868 51.518 303.639 51.2821 305.41 51.2821C307.181 51.2821 308.951 51.518 310.618 51.9897C314.603 49.2643 316.347 49.8408 316.347 49.8408C317.493 52.7234 316.764 54.8723 316.556 55.3964C317.884 56.864 318.691 58.7246 318.691 61.0307C318.691 69.0759 313.821 70.8579 309.186 71.382C309.941 72.0372 310.592 73.2951 310.592 75.2605C310.592 78.0645 310.566 80.3183 310.566 81.0258C310.566 81.5761 310.957 82.2313 311.998 82.0216C320.228 79.2438 326.191 71.382 326.191 62.1314C326.191 50.5483 316.868 41.1666 305.358 41.1666Z" fill="#020617"/>
<circle cx="536.394" cy="61.6788" r="39.6788" fill="white" stroke="#CAEBFF" stroke-width="2"/>
<g clip-path="url(#clip1_1407_20769)">
<path fill-rule="evenodd" clip-rule="evenodd" d="M534.402 51.6004C535.544 50.4118 537.133 49.6757 538.889 49.6757C541.23 49.6757 543.259 50.9762 544.351 52.9139C545.321 52.4804 546.371 52.2566 547.433 52.2572C551.647 52.2572 555.067 55.7034 555.067 59.956C555.067 64.2085 551.647 67.6548 547.433 67.6548C546.918 67.6548 546.416 67.603 545.925 67.5052C544.969 69.2088 543.142 70.3663 541.061 70.3663C540.214 70.3679 539.377 70.1758 538.616 69.8045C537.647 72.0803 535.391 73.6799 532.764 73.6799C530.02 73.6799 527.692 71.9502 526.795 69.5184C526.395 69.6026 525.988 69.645 525.58 69.6448C522.316 69.6448 519.676 66.9658 519.676 63.6756C519.676 61.4648 520.864 59.5401 522.628 58.4997C522.254 57.6379 522.061 56.7082 522.062 55.7687C522.062 51.9713 525.144 48.9022 528.942 48.9022C531.165 48.9022 533.155 49.9621 534.404 51.6072" fill="#00A1E0"/>
</g>
<circle cx="73.6788" cy="274.679" r="39.6788" fill="white" stroke="#CAEBFF" stroke-width="2"/>
<path d="M65.1626 278.582C65.1626 280.296 63.779 281.68 62.0672 281.68C60.3553 281.68 58.9717 280.296 58.9717 278.582C58.9717 276.869 60.3553 275.484 62.0672 275.484H65.1626V278.582ZM66.7104 278.582C66.7104 276.869 68.094 275.484 69.8058 275.484C71.5177 275.484 72.9013 276.869 72.9013 278.582V286.327C72.9013 288.04 71.5177 289.425 69.8058 289.425C68.094 289.425 66.7104 288.04 66.7104 286.327V278.582Z" fill="#E01E5A"/>
<path d="M69.8059 266.144C68.094 266.144 66.7104 264.759 66.7104 263.046C66.7104 261.332 68.094 259.948 69.8059 259.948C71.5177 259.948 72.9013 261.332 72.9013 263.046V266.144H69.8059ZM69.8059 267.716C71.5177 267.716 72.9013 269.101 72.9013 270.814C72.9013 272.527 71.5177 273.912 69.8059 273.912H62.0437C60.3318 273.912 58.9482 272.527 58.9482 270.814C58.9482 269.101 60.3318 267.716 62.0437 267.716H69.8059Z" fill="#36C5F0"/>
<path d="M82.2104 270.814C82.2104 269.101 83.594 267.716 85.3058 267.716C87.0177 267.716 88.4013 269.101 88.4013 270.814C88.4013 272.527 87.0177 273.912 85.3058 273.912H82.2104V270.814ZM80.6626 270.814C80.6626 272.527 79.279 273.912 77.5672 273.912C75.8553 273.912 74.4717 272.527 74.4717 270.814V263.046C74.4717 261.332 75.8553 259.948 77.5672 259.948C79.279 259.948 80.6626 261.332 80.6626 263.046V270.814Z" fill="#2EB67D"/>
<path d="M77.5672 283.229C79.279 283.229 80.6626 284.614 80.6626 286.327C80.6626 288.04 79.279 289.425 77.5672 289.425C75.8553 289.425 74.4717 288.04 74.4717 286.327V283.229H77.5672ZM77.5672 281.68C75.8553 281.68 74.4717 280.296 74.4717 278.582C74.4717 276.869 75.8553 275.484 77.5672 275.484H85.3293C87.0412 275.484 88.4248 276.869 88.4248 278.582C88.4248 280.296 87.0412 281.68 85.3293 281.68H77.5672Z" fill="#ECB22E"/>
<rect x="266.157" y="235.567" width="78.4" height="78.2242" rx="12" fill="white"/>
<rect x="266.157" y="235.567" width="78.4" height="78.2242" rx="12" stroke="#CAEBFF" stroke-width="1.6"/>
<path d="M317.357 286.635H305.357V298.591H317.357V286.635Z" fill="#FFAA0D"/>
<path fill-rule="evenodd" clip-rule="evenodd" d="M293.357 286.635C290.044 286.635 287.357 283.958 287.357 280.657C287.357 277.355 290.044 274.679 293.357 274.679H329.357V286.635H293.357Z" fill="#3B82F6"/>
<path fill-rule="evenodd" clip-rule="evenodd" d="M281.357 298.591V286.635H293.357C296.671 286.635 299.357 289.311 299.357 292.613C299.357 295.914 296.671 298.591 293.357 298.591H281.357Z" fill="#9FDBFF"/>
<path d="M293.357 274.679C299.985 274.679 305.357 269.326 305.357 262.723C305.357 256.12 299.985 250.767 293.357 250.767C286.73 250.767 281.357 256.12 281.357 262.723C281.357 269.326 286.73 274.679 293.357 274.679Z" fill="#E2F78C"/>
<path d="M317.357 274.679C323.985 274.679 329.357 269.326 329.357 262.723C329.357 256.12 323.985 250.767 317.357 250.767C310.73 250.767 305.357 256.12 305.357 262.723C305.357 269.326 310.73 274.679 317.357 274.679Z" fill="#FFC3DF"/>
<path d="M293.357 250.767H281.357V274.679H293.357V250.767Z" fill="#418B5C"/>
<path d="M329.357 250.767H305.357V262.723H329.357V250.767Z" fill="#E14322"/>
<circle cx="537.036" cy="274.679" r="39.6788" fill="white" stroke="#CAEBFF" stroke-width="2"/>
<path d="M524.816 261.219L541.126 260.014C543.13 259.842 543.645 259.958 544.904 260.874L550.111 264.542C550.97 265.173 551.256 265.345 551.256 266.031V286.148C551.256 287.408 550.798 288.154 549.195 288.268L530.254 289.415C529.052 289.472 528.479 289.3 527.849 288.498L524.015 283.512C523.327 282.594 523.042 281.907 523.042 281.104V263.223C523.042 262.193 523.5 261.333 524.816 261.219Z" fill="white"/>
<path fill-rule="evenodd" clip-rule="evenodd" d="M541.126 260.015L524.816 261.219C523.5 261.333 523.042 262.193 523.042 263.223V281.104C523.042 281.907 523.327 282.594 524.015 283.512L527.849 288.497C528.479 289.3 529.052 289.472 530.254 289.415L549.195 288.268C550.797 288.154 551.256 287.408 551.256 286.148V266.032C551.256 265.38 550.999 265.193 550.241 264.637L544.904 260.874C543.645 259.958 543.13 259.842 541.126 260.014V260.015ZM530.683 265.702C529.136 265.807 528.785 265.83 527.907 265.116L525.673 263.34C525.446 263.11 525.561 262.823 526.132 262.766L541.812 261.62C543.129 261.505 543.815 261.964 544.33 262.365L547.019 264.313C547.134 264.371 547.42 264.714 547.076 264.714L530.883 265.689L530.683 265.702ZM528.879 285.976V268.899C528.879 268.153 529.108 267.809 529.794 267.751L548.393 266.663C549.023 266.606 549.308 267.007 549.308 267.751V284.715C549.308 285.46 549.193 286.091 548.164 286.148L530.366 287.18C529.337 287.237 528.88 286.894 528.88 285.976H528.879ZM546.448 269.815C546.562 270.33 546.448 270.846 545.932 270.905L545.074 271.075V283.684C544.329 284.085 543.644 284.314 543.071 284.314C542.155 284.314 541.926 284.027 541.24 283.168L535.631 274.342V282.881L537.405 283.283C537.405 283.283 537.405 284.315 535.973 284.315L532.026 284.544C531.911 284.314 532.026 283.741 532.426 283.627L533.457 283.341V272.051L532.027 271.935C531.912 271.419 532.198 270.674 532.999 270.617L537.234 270.332L543.071 279.271V271.362L541.583 271.191C541.468 270.56 541.926 270.101 542.498 270.045L546.448 269.815Z" fill="black"/>
<line x1="114" y1="278" x2="266" y2="278" stroke="#CAEBFF" stroke-width="2"/>
<line x1="345" y1="278" x2="498" y2="278" stroke="#CAEBFF" stroke-width="2"/>
<line x1="103.675" y1="88.2623" x2="268.675" y2="239.262" stroke="#CAEBFF" stroke-width="2"/>
<line x1="306" y1="101.998" x2="306" y2="234.002" stroke="#CAEBFF" stroke-width="2"/>
<line x1="341.33" y1="239.258" x2="507.33" y2="89.258" stroke="#CAEBFF" stroke-width="2"/>
</g>
<defs>
<clipPath id="clip0_1407_20769">
<rect width="610" height="344" rx="16" fill="white"/>
</clipPath>
<clipPath id="clip1_1407_20769">
<rect width="35.3728" height="35.3728" fill="white" transform="translate(519.715 43)"/>
</clipPath>
</defs>
</svg>
