<svg width="24" height="24" viewBox="0 0 24 24" fill="none" xmlns="http://www.w3.org/2000/svg">
<path d="M12 5C8.13401 5 5 8.13401 5 12C5 12.3395 5.02417 12.6734 5.07089 13H3.05493C3.01863 12.6717 3 12.338 3 12C3 7.02944 7.02944 3 12 3C14.6125 3 16.965 4.1131 18.6091 5.89092L20.5 4V9H15.5L17.1935 7.30653C15.9125 5.89002 14.0602 5 12 5Z" fill="#020617"/>
<path d="M6.80653 16.6935L8.5 15H3.5L3.5 20L5.39092 18.1091C7.03504 19.8869 9.38753 21 12 21C16.9706 21 21 16.9706 21 12C21 11.662 20.9814 11.3283 20.9451 11H18.9291C18.9758 11.3266 19 11.6605 19 12C19 15.866 15.866 19 12 19C9.9398 19 8.08747 18.11 6.80653 16.6935Z" fill="#020617"/>
</svg>
