<svg width="24" height="24" viewBox="0 0 24 24" fill="none" xmlns="http://www.w3.org/2000/svg">
<path d="M15.8277 7.75735L12.9993 10.5858L10.1709 7.75735L8.75668 9.17156L11.5851 12L8.75668 14.8284L10.1709 16.2426L12.9993 13.4142L15.8277 16.2426L17.242 14.8284L14.4135 12L17.242 9.17156L15.8277 7.75735Z" fill="#020617"/>
<path fill-rule="evenodd" clip-rule="evenodd" d="M8.10849 3C7.07412 3 6.11271 3.53286 5.5645 4.41L1.8145 10.41C1.20649 11.3828 1.20649 12.6172 1.81449 13.59L5.5645 19.59C6.11271 20.4671 7.07412 21 8.10849 21H22V3H8.10849ZM7.26049 5.47C7.44323 5.17762 7.7637 5 8.10849 5H20V19H8.10849C7.7637 19 7.44323 18.8224 7.26049 18.53L3.51049 12.53C3.30782 12.2057 3.30782 11.7943 3.51049 11.47L7.26049 5.47Z" fill="#020617"/>
</svg>
