<svg width="24" height="24" viewBox="0 0 24 24" fill="none" xmlns="http://www.w3.org/2000/svg">
<path d="M15.8277 7.75735L12.9993 10.5858L10.1709 7.75735L8.75671 9.17156L11.5851 12L8.75671 14.8284L10.1709 16.2426L12.9993 13.4142L15.8277 16.2426L17.242 14.8284L14.4135 12L17.242 9.17156L15.8277 7.75735Z" fill="#020617"/>
<path fill-rule="evenodd" clip-rule="evenodd" d="M8.10852 3C7.07415 3 6.11274 3.53286 5.56453 4.41L1.81453 10.41C1.20652 11.3828 1.20652 12.6172 1.81453 13.59L5.56453 19.59C6.11274 20.4671 7.07415 21 8.10852 21H22V3H8.10852ZM7.26052 5.47C7.44326 5.17762 7.76373 5 8.10852 5H20V19H8.10852C7.76373 19 7.44326 18.8224 7.26052 18.53L3.51052 12.53C3.30785 12.2057 3.30785 11.7943 3.51052 11.47L7.26052 5.47Z" fill="#020617"/>
</svg>
