<svg width="24" height="24" viewBox="0 0 24 24" fill="none" xmlns="http://www.w3.org/2000/svg">
<path fill-rule="evenodd" clip-rule="evenodd" d="M22.0049 6C22.0049 4.34315 20.6618 3 19.0049 3H5.00494C3.34809 3 2.00494 4.34314 2.00494 6L2.00494 18.0001C2.00494 19.6569 3.34809 21.0001 5.00494 21.0001H19.0049C20.6618 21.0001 22.0049 19.6569 22.0049 18.0001V6ZM4.00494 12H20.0049V18C20.0049 18.5523 19.5572 19 19.0049 19H5.00494C4.45266 19 4.00494 18.5523 4.00494 18V12ZM20.0049 6.00002V8.00002H4.00494V6.00002C4.00494 5.44774 4.45266 5.00002 5.00494 5.00002H19.0049C19.5572 5.00002 20.0049 5.44774 20.0049 6.00002Z" fill="#020617"/>
</svg>
