<svg width="24" height="24" viewBox="0 0 24 24" fill="none" xmlns="http://www.w3.org/2000/svg">
<path fill-rule="evenodd" clip-rule="evenodd" d="M11.5949 17.985C10.8028 18.4143 9.99269 18.8 9.2 19.1523C8.51254 19.4578 7.83817 19.7382 7.2 20V16.7692C3.22353 16.7692 0 13.463 0 9.38462C0 5.3062 3.22353 2 7.2 2H10.8C14.315 2 17.2417 4.58342 17.8736 8H18.4C21.4928 8 24 10.5715 24 13.7436C24 16.9157 21.55 19.4872 18.4 19.4872V22C18.4 22 17.4991 21.6535 16.4 21.1571C15.5614 20.7783 14.6074 20.3122 13.85 19.8462C13.0981 19.3835 12.2817 18.7774 11.5949 17.985ZM9.2 14.7692H7.2C4.37553 14.7692 2 12.4065 2 9.38462C2 6.36273 4.37553 4 7.2 4H10.8C13.1754 4 15.2332 5.67111 15.8276 8H15.6C12.5072 8 10 10.5715 10 13.7436C10 14.7114 10.1955 15.5565 10.5169 16.2943C10.0858 16.5244 9.64507 16.7433 9.2 16.9529V14.7692ZM18.4 17.4872H16.4V18.9494C15.8595 18.6871 15.3323 18.41 14.8982 18.1428C13.355 17.1932 12 15.8654 12 13.7436C12 11.628 13.6592 10 15.6 10H18.4C20.3408 10 22 11.628 22 13.7436C22 15.8727 20.3848 17.4872 18.4 17.4872Z" fill="#020617"/>
</svg>
