<svg width="24" height="24" viewBox="0 0 24 24" fill="none" xmlns="http://www.w3.org/2000/svg">
<path d="M6 11C6 10.175 6.675 9.5 7.5 9.5C8.325 9.5 9 10.175 9 11C9 11.825 8.325 12.5 7.5 12.5C6.675 12.5 6 11.825 6 11Z" fill="#020617"/>
<path d="M15 11C15 10.175 15.675 9.5 16.5 9.5C17.325 9.5 18 10.175 18 11C18 11.825 17.325 12.5 16.5 12.5C15.675 12.5 15 11.825 15 11Z" fill="#020617"/>
<path d="M10.5 11C10.5 10.175 11.175 9.5 12 9.5C12.825 9.5 13.5 10.175 13.5 11C13.5 11.825 12.825 12.5 12 12.5C11.175 12.5 10.5 11.825 10.5 11Z" fill="#020617"/>
<path fill-rule="evenodd" clip-rule="evenodd" d="M14 3H10C5.58172 3 2 6.58172 2 11C2 17.5 9 20.5 14 22.5V19C18.4183 19 22 15.4183 22 11C22 6.58172 18.4183 3 14 3ZM14 17H12V19.4798C6.46208 16.9656 4 14.61 4 11C4 7.68629 6.68629 5 10 5H14C17.3137 5 20 7.68629 20 11C20 14.3137 17.3137 17 14 17Z" fill="#020617"/>
</svg>
