<svg width="24" height="24" viewBox="0 0 24 24" fill="none" xmlns="http://www.w3.org/2000/svg">
<path d="M14.5 9.5L18 6L19.5 7.5L14.5 12.5L11 9L12.5 7.5L14.5 9.5Z" fill="#020617"/>
<path fill-rule="evenodd" clip-rule="evenodd" d="M17 21V17H20.9895C21.548 17 21.9969 16.5489 21.997 15.9925L21.9998 3.0075C21.9998 2.4489 21.5489 2 20.9925 2L8.0073 2C7.4488 2 6.9998 2.4511 6.9998 3.0075V7L3 7C2.4477 7 2 7.4477 2 8L2 21C2 21.5523 2.4477 22 3 22H16C16.5523 22 17 21.5523 17 21ZM8.0071 17H15V20H4L4 9H6.9998L6.9998 15.9925C6.9998 16.5511 7.4508 17 8.0071 17ZM19.9996 4L19.9972 15L8.9998 15L8.9998 4L19.9996 4Z" fill="#020617"/>
</svg>
