<svg width="24" height="24" viewBox="0 0 24 24" fill="none" xmlns="http://www.w3.org/2000/svg">
<path d="M17 17V21C17 21.5523 16.5523 22 16 22H3C2.4477 22 2 21.5523 2 21L2 8C2 7.4477 2.4477 7 3 7L6.9998 7V3.0075C6.9998 2.4511 7.4488 2 8.0073 2L20.9925 2C21.5489 2 21.9998 2.4489 21.9998 3.0075L21.997 15.9925C21.9969 16.5489 21.548 17 20.9895 17H17ZM15 17L8.0071 17C7.4508 17 6.9998 16.5511 6.9998 15.9925L6.9998 9L4 9L4 20H15V17ZM19.9972 15L19.9996 4L8.9998 4L8.9998 15L19.9972 15Z" fill="#020617"/>
</svg>
