<svg width="24" height="24" viewBox="0 0 24 24" fill="none" xmlns="http://www.w3.org/2000/svg">
<path d="M16 13L12 17L8 13L11 13V9H13V13L16 13Z" fill="#020617"/>
<path fill-rule="evenodd" clip-rule="evenodd" d="M9.5 21H16.5C20.0899 21 23 18.0899 23 14.5C23 10.982 20.2051 8.11671 16.7146 8.00348C15.2131 5.59939 12.5433 4 9.5 4C4.80558 4 1 7.80558 1 12.5C1 17.1944 4.80558 21 9.5 21ZM3 12.5C3 8.91015 5.91015 6 9.5 6C12.2429 6 14.589 7.69894 15.5433 10.1019C15.8516 10.0352 16.1717 10 16.5 10C18.9853 10 21 12.0147 21 14.5C21 16.9853 18.9853 19 16.5 19H9.5C5.91015 19 3 16.0899 3 12.5Z" fill="#020617"/>
</svg>
