<svg width="24" height="24" viewBox="0 0 24 24" fill="none" xmlns="http://www.w3.org/2000/svg">
<path d="M8.79291 11.7071L10.5858 13.5L8.79291 15.2929L10.2071 16.7071L12 14.9142L13.7929 16.7071L15.2071 15.2929L13.4142 13.5L15.2071 11.7071L13.7929 10.2929L12 12.0858L10.2071 10.2929L8.79291 11.7071Z" fill="#020617"/>
<path fill-rule="evenodd" clip-rule="evenodd" d="M16.5 21H9.5C4.80558 21 1 17.1944 1 12.5C1 7.80558 4.80558 4 9.5 4C12.5433 4 15.2131 5.59939 16.7146 8.00348C20.2051 8.11671 23 10.982 23 14.5C23 18.0899 20.0899 21 16.5 21ZM9.5 6C5.91015 6 3 8.91015 3 12.5C3 16.0899 5.91015 19 9.5 19H16.5C18.9853 19 21 16.9853 21 14.5C21 12.0147 18.9853 10 16.5 10C16.1717 10 15.8516 10.0352 15.5433 10.1019C14.589 7.69894 12.2429 6 9.5 6Z" fill="#020617"/>
</svg>
