<svg width="24" height="24" viewBox="0 0 24 24" fill="none" xmlns="http://www.w3.org/2000/svg">
<path d="M8 6H11V8H8V6Z" fill="#020617"/>
<path d="M8 10H11V12H8V10Z" fill="#020617"/>
<path d="M8 14H11V16H8V14Z" fill="#020617"/>
<path d="M13 14H16V16H13V14Z" fill="#020617"/>
<path d="M13 10H16V12H13V10Z" fill="#020617"/>
<path d="M13 6H16V8H13V6Z" fill="#020617"/>
<path fill-rule="evenodd" clip-rule="evenodd" d="M23 21H20V2H4V21H1V23H23V21ZM18 4V21L16 21V18H12V21H10V18H8V21L6 21V4H18Z" fill="#020617"/>
</svg>
