<svg width="24" height="24" viewBox="0 0 24 24" fill="none" xmlns="http://www.w3.org/2000/svg">
<path fill-rule="evenodd" clip-rule="evenodd" d="M6.9998 3V6H4.00942C3.45264 6 3.0027 6.44811 3.0026 7.00087L3 20.9991C3 21.5554 3.45059 22 4.00666 22H15.993C16.5499 22 16.9998 21.5519 16.9998 20.9991V18H19.9998C20.5521 18 20.9998 17.5523 20.9998 17V6L16.9998 2H7.9998C7.44752 2 6.9998 2.44772 6.9998 3ZM5.00019 20L5.00242 8H12V11H14.9998V20H5.00019ZM16.9998 16H18.9998V7H16V4H8.99982V6H13L16.9998 10V16Z" fill="#020617"/>
</svg>
