<svg width="24" height="24" viewBox="0 0 24 24" fill="none" xmlns="http://www.w3.org/2000/svg">
<path fill-rule="evenodd" clip-rule="evenodd" d="M7 2C9.76142 2 12 4.23858 12 7C12 9.76142 9.76142 12 7 12H17H22V17H17V22H12V17H7C5.61929 17 4.5 15.8807 4.5 14.5C4.5 13.12 5.6181 12.0012 6.99779 12H2V2H7ZM10 7C10 8.65685 8.65685 10 7 10H4V4L7 4C8.65685 4 10 5.34315 10 7ZM7 14C6.72386 14 6.5 14.2239 6.5 14.5C6.5 14.7761 6.72386 15 7 15H14V21H15V15H20V14H7Z" fill="#020617"/>
<path fill-rule="evenodd" clip-rule="evenodd" d="M7 17C8.38071 17 9.5 18.1193 9.5 19.5C9.5 20.8807 8.38071 22 7 22H2V17H7ZM4 19H7C7.27614 19 7.5 19.2239 7.5 19.5C7.5 19.7761 7.27614 20 7 20H4V19Z" fill="#020617"/>
<path fill-rule="evenodd" clip-rule="evenodd" d="M17 12C19.7614 12 22 9.76142 22 7V2H12V7C12 9.76142 14.2386 12 17 12ZM14 7C14 8.65685 15.3431 10 17 10C18.6569 10 20 8.65685 20 7V4H14V7Z" fill="#020617"/>
</svg>
