<svg width="24" height="24" viewBox="0 0 24 24" fill="none" xmlns="http://www.w3.org/2000/svg">
<path fill-rule="evenodd" clip-rule="evenodd" d="M8 2H6V5.12602C4.27477 5.57006 3 7.13616 3 9C3 10.8638 4.27477 12.4299 6 12.874V22H8V12.874C9.72523 12.4299 11 10.8638 11 9C11 7.13616 9.72523 5.57006 8 5.12602V2ZM9 9C9 10.1046 8.10457 11 7 11C5.89543 11 5 10.1046 5 9C5 7.89543 5.89543 7 7 7C8.10457 7 9 7.89543 9 9Z" fill="#020617"/>
<path fill-rule="evenodd" clip-rule="evenodd" d="M18 2H16V11.126C14.2748 11.5701 13 13.1362 13 15C13 16.8638 14.2748 18.4299 16 18.874V22H18V18.874C19.7252 18.4299 21 16.8638 21 15C21 13.1362 19.7252 11.5701 18 11.126V2ZM17 17C18.1046 17 19 16.1046 19 15C19 13.8954 18.1046 13 17 13C15.8954 13 15 13.8954 15 15C15 16.1046 15.8954 17 17 17Z" fill="#020617"/>
</svg>
