<svg width="24" height="24" viewBox="0 0 24 24" fill="none" xmlns="http://www.w3.org/2000/svg">
<path d="M10.5858 3C11.4913 3 12.3597 3.35971 13 4V4C13.6403 4.64029 14.5087 5 15.4142 5H21C21 9.33333 21 13.6667 21 18H14.4142C13.5087 18 12.6403 17.6403 12 17V17C11.3597 16.3597 10.4913 16 9.58579 16H5V22H3V3H10.5858ZM11.7639 6C11.1236 5.35971 10.2552 5 9.34969 5H5V14H10.8219C11.7274 14 12.5958 14.3597 13.2361 15V15C13.8764 15.6403 14.7448 16 15.6503 16H19V7H14.1781C13.2726 7 12.4042 6.64029 11.7639 6V6Z" fill="#020617"/>
</svg>
