<svg width="24" height="24" viewBox="0 0 24 24" fill="none" xmlns="http://www.w3.org/2000/svg">
<path d="M8.5 4C7.675 4 7 4.675 7 5.5C7 6.325 7.675 7 8.5 7C9.325 7 10 6.325 10 5.5C10 4.675 9.325 4 8.5 4Z" fill="#020617"/>
<path d="M16 4C15.175 4 14.5 4.675 14.5 5.5C14.5 6.325 15.175 7 16 7C16.825 7 17.5 6.325 17.5 5.5C17.5 4.675 16.825 4 16 4Z" fill="#020617"/>
<path d="M8.5 10.5C7.675 10.5 7 11.175 7 12C7 12.825 7.675 13.5 8.5 13.5C9.325 13.5 10 12.825 10 12C10 11.175 9.325 10.5 8.5 10.5Z" fill="#020617"/>
<path d="M16 10.5C15.175 10.5 14.5 11.175 14.5 12C14.5 12.825 15.175 13.5 16 13.5C16.825 13.5 17.5 12.825 17.5 12C17.5 11.175 16.825 10.5 16 10.5Z" fill="#020617"/>
<path d="M7 18.5C7 17.675 7.675 17 8.5 17C9.325 17 10 17.675 10 18.5C10 19.325 9.325 20 8.5 20C7.675 20 7 19.325 7 18.5Z" fill="#020617"/>
<path d="M14.5 18.5C14.5 17.675 15.175 17 16 17C16.825 17 17.5 17.675 17.5 18.5C17.5 19.325 16.825 20 16 20C15.175 20 14.5 19.325 14.5 18.5Z" fill="#020617"/>
</svg>
