<svg width="24" height="24" viewBox="0 0 24 24" fill="none" xmlns="http://www.w3.org/2000/svg">
<path fill-rule="evenodd" clip-rule="evenodd" d="M18.8269 6.17009C17.3215 4.66153 14.9009 4.61309 13.337 6.01687L12.0019 7.21524L10.6661 6.01781C9.09682 4.6112 6.68058 4.66256 5.17157 6.17157C3.67624 7.66691 3.61224 10.0532 4.97994 11.6232L11.9999 18.6543L19.0201 11.6232C20.3873 10.0538 20.3258 7.67203 18.8269 6.17009ZM20.4786 12.993L11.9999 21.485L3.52138 12.993C1.41705 10.637 1.49571 7.01901 3.75736 4.75736C6.02157 2.49315 9.64519 2.41687 12.001 4.52853C14.35 2.42 17.98 2.49 20.2426 4.75736C22.5053 7.02472 22.583 10.637 20.4786 12.993Z" fill="#020617"/>
</svg>
