<svg width="24" height="24" viewBox="0 0 24 24" fill="none" xmlns="http://www.w3.org/2000/svg">
<path d="M5.2071 12.2929L3.7928 13.7071L6.0857 16H1V18H6.0857L3.7928 20.2929L5.2071 21.7071L9.9142 17L5.2071 12.2929Z" fill="#020617"/>
<path fill-rule="evenodd" clip-rule="evenodd" d="M16 15H14C13.4477 15 13 15.4477 13 16V18C13 18.5523 13.4477 19 14 19H16C16.5523 19 17 18.5523 17 18V16C17 15.4477 16.5523 15 16 15ZM14 13C12.3431 13 11 14.3431 11 16V18C11 19.6569 12.3431 21 14 21H16C17.6569 21 19 19.6569 19 18V16C19 14.3431 17.6569 13 16 13H14Z" fill="#020617"/>
<path fill-rule="evenodd" clip-rule="evenodd" d="M18 5H16C15.4477 5 15 5.44772 15 6V8C15 8.55228 15.4477 9 16 9H18C18.5523 9 19 8.55228 19 8V6C19 5.44772 18.5523 5 18 5ZM16 3C14.3431 3 13 4.34315 13 6V8C13 9.65685 14.3431 11 16 11H18C19.6569 11 21 9.65685 21 8V6C21 4.34315 19.6569 3 18 3H16Z" fill="#020617"/>
<path fill-rule="evenodd" clip-rule="evenodd" d="M8 5H6C5.44772 5 5 5.44772 5 6V8C5 8.55228 5.44772 9 6 9H8C8.55228 9 9 8.55228 9 8V6C9 5.44772 8.55228 5 8 5ZM6 3C4.34315 3 3 4.34315 3 6V8C3 9.65685 4.34315 11 6 11H8C9.65685 11 11 9.65685 11 8V6C11 4.34315 9.65685 3 8 3H6Z" fill="#020617"/>
</svg>
