<svg width="24" height="24" viewBox="0 0 24 24" fill="none" xmlns="http://www.w3.org/2000/svg">
<path d="M21.0001 11.5029H12.0001V13.5029H21.0001V11.5029Z" fill="#020617"/>
<path d="M21.0001 18.0029H12.0001V20.0029H21.0001V18.0029Z" fill="#020617"/>
<path d="M5.99999 21.3314L9.7071 17.6243L8.29289 16.21L5.99999 18.5029L4.71 17.21L3.29 18.62L5.99999 21.3314Z" fill="#020617"/>
<path d="M5.99999 14.8313L9.7071 11.1242L8.29289 9.71002L5.99999 12.0029L4.71 10.71L3.29 12.12L5.99999 14.8313Z" fill="#020617"/>
<path d="M21.0001 5.0029H12.0001V7.0029H21.0001V5.0029Z" fill="#020617"/>
<path d="M5.99999 8.33134L9.7071 4.62424L8.29289 3.21002L5.99999 5.50292L4.70998 4.21L3.28998 5.62L5.99999 8.33134Z" fill="#020617"/>
</svg>
