<svg width="24" height="24" viewBox="0 0 24 24" fill="none" xmlns="http://www.w3.org/2000/svg">
<path d="M12 22C6.47715 22 2 17.5228 2 12C2 6.47715 6.47715 2 12 2C14.5501 2 16.8773 2.95454 18.6437 4.52582L17.3339 5.99931L17.2909 5.99931C15.8807 4.75499 14.0285 4 12 4C7.58172 4 4 7.58172 4 12C4 16.4183 7.58172 20 12 20C14.029 20 15.8816 19.2446 17.2919 17.9998H17.3332L18.6437 19.4742C16.8773 21.0455 14.5501 22 12 22Z" fill="#020617"/>
<path d="M19 16V13H11V11H19V8L24 12L19 16Z" fill="#020617"/>
</svg>
