<svg width="24" height="24" viewBox="0 0 24 24" fill="none" xmlns="http://www.w3.org/2000/svg">
<path fill-rule="evenodd" clip-rule="evenodd" d="M7.29283 2.70706L9.58575 4.99998L3.70705 10.8787C2.53547 12.0502 2.53548 13.9497 3.70705 15.1213L8.87864 20.2929C10.0502 21.4645 11.9497 21.4645 13.1213 20.2929L20.4142 13L8.70705 1.29285L7.29283 2.70706ZM5.12126 12.2929L11 6.41419L17.5858 13L11.7071 18.8787C11.3165 19.2692 10.6834 19.2692 10.2929 18.8787L5.12126 13.7071C4.73074 13.3166 4.73074 12.6834 5.12126 12.2929Z" fill="#020617"/>
<path d="M20.9955 16.9644L19.2277 18.7321C18.2514 19.7084 18.2514 21.2914 19.2277 22.2677C20.204 23.244 21.7869 23.244 22.7632 22.2677C23.7395 21.2914 23.7395 19.7084 22.7632 18.7321L20.9955 16.9644Z" fill="#020617"/>
</svg>
