<svg width="24" height="24" viewBox="0 0 24 24" fill="none" xmlns="http://www.w3.org/2000/svg">
<path d="M7 5C7 2.79086 8.79086 1 11 1C13.2091 1 15 2.79086 15 5C16.3333 5 17.6667 5 19 5V9C21.2091 9 23 10.7909 23 13C23 15.2091 21.2091 17 19 17V21C13.6667 21 8.33333 21 3 21V5C4.33333 5 5.66667 5 7 5ZM11 3C9.89543 3 9 3.89543 9 5C9 5.23554 9.0403 5.45952 9.11355 5.66675C9.22172 5.97282 9.5 7 9.5 7C8 7 6.5 7 5 7V19H17C17 17.5 17 16 17 14.5C17 14.5 18.0272 14.7783 18.3332 14.8865C18.5405 14.9597 18.7645 15 19 15C20.1046 15 21 14.1046 21 13C21 11.8954 20.1046 11 19 11C18.7645 11 18.5405 11.0403 18.3332 11.1135C18.0272 11.2217 17 11.5 17 11.5C17 10 17 8.5 17 7C15.5 7 14 7 12.5 7C12.5 7 12.7783 5.97282 12.8865 5.66675C12.9597 5.45952 13 5.23555 13 5C13 3.89543 12.1046 3 11 3Z" fill="#020617"/>
</svg>
