<svg width="24" height="24" viewBox="0 0 24 24" fill="none" xmlns="http://www.w3.org/2000/svg">
<path d="M19 0H21V3H24V5H21V8H19V5H16V3H19V0Z" fill="#020617"/>
<path d="M14 2.20004C13.3538 2.06886 12.6849 2 12 2C6.47715 2 2 6.47715 2 12C2 17.5228 6.47715 22 12 22C17.5228 22 22 17.5228 22 12C22 11.3151 21.9311 10.6462 21.8 10H19.748C19.9125 10.6392 20 11.3094 20 12C20 16.4183 16.4183 20 12 20C7.58172 20 4 16.4183 4 12C4 7.58172 7.58172 4 12 4C12.6906 4 13.3608 4.08751 14 4.25203V2.20004Z" fill="#020617"/>
<path d="M11 17C13.2091 17 15 15.2091 15 13H7C7 15.2091 8.79086 17 11 17Z" fill="#020617"/>
<path d="M7 11C6.17157 11 5.5 10.3284 5.5 9.5C5.5 8.67157 6.17157 8 7 8C7.82843 8 8.5 8.67157 8.5 9.5C8.5 10.3284 7.82843 11 7 11Z" fill="#020617"/>
<path d="M13.5 9.5C13.5 10.3284 14.1716 11 15 11C15.8284 11 16.5 10.3284 16.5 9.5C16.5 8.67157 15.8284 8 15 8C14.1716 8 13.5 8.67157 13.5 9.5Z" fill="#020617"/>
</svg>
