<svg width="24" height="24" viewBox="0 0 24 24" fill="none" xmlns="http://www.w3.org/2000/svg">
<path d="M14 2C14 3.10457 13.1046 4 12 4C10.8954 4 10 3.10457 10 2C10 0.895431 10.8954 0 12 0C13.1046 0 14 0.895431 14 2Z" fill="#020617"/>
<path d="M9 12.5C9.82843 12.5 10.5 11.8284 10.5 11C10.5 10.1716 9.82843 9.5 9 9.5C8.17157 9.5 7.5 10.1716 7.5 11C7.5 11.8284 8.17157 12.5 9 12.5Z" fill="#020617"/>
<path d="M16.5 11C16.5 11.8284 15.8284 12.5 15 12.5C14.1716 12.5 13.5 11.8284 13.5 11C13.5 10.1716 14.1716 9.5 15 9.5C15.8284 9.5 16.5 10.1716 16.5 11Z" fill="#020617"/>
<path d="M12 16C13.0297 16 14.0335 15.8888 15 15.6778V14H9V15.6778C9.96647 15.8888 10.9703 16 12 16Z" fill="#020617"/>
<path fill-rule="evenodd" clip-rule="evenodd" d="M18 5C19.6569 5 21 6.34315 21 8V18C21 19.6569 19.6569 21 18 21H6C4.34315 21 3 19.6569 3 18V8C3 6.34315 4.34315 5 6 5H18ZM6 7C5.44772 7 5 7.44772 5 8V18C5 18.5523 5.44772 19 6 19H18C18.5523 19 19 18.5523 19 18V8C19 7.44772 18.5523 7 18 7H6Z" fill="#020617"/>
<path d="M0 10H2V16H0V10Z" fill="#020617"/>
<path d="M22 10H24V16H22V10Z" fill="#020617"/>
</svg>
