<svg width="24" height="24" viewBox="0 0 24 24" fill="none" xmlns="http://www.w3.org/2000/svg">
<path d="M18 3.5C18.5523 3.5 19 3.05228 19 2.5C19 1.94772 18.5523 1.5 18 1.5C17.4477 1.5 17 1.94772 17 2.5C17 3.05228 17.4477 3.5 18 3.5Z" fill="#020617"/>
<path d="M8.5 5.5C8.5 6.32843 7.82843 7 7 7C6.17157 7 5.5 6.32843 5.5 5.5C5.5 4.67157 6.17157 4 7 4C7.82843 4 8.5 4.67157 8.5 5.5Z" fill="#020617"/>
<path d="M19 14.5C19 15.0523 18.5523 15.5 18 15.5C17.4477 15.5 17 15.0523 17 14.5C17 13.9477 17.4477 13.5 18 13.5C18.5523 13.5 19 13.9477 19 14.5Z" fill="#020617"/>
<path d="M8.5 14.25C8 14.75 7 14.75 7 14.75C7 14.75 6 14.75 5.5 14.25V13.75H8.5V14.25Z" fill="#020617"/>
<path d="M6.25 12C6.25 12.4142 5.91421 12.75 5.5 12.75C5.08579 12.75 4.75 12.4142 4.75 12C4.75 11.5858 5.08579 11.25 5.5 11.25C5.91421 11.25 6.25 11.5858 6.25 12Z" fill="#020617"/>
<path d="M8.5 12.75C8.91421 12.75 9.25 12.4142 9.25 12C9.25 11.5858 8.91421 11.25 8.5 11.25C8.08579 11.25 7.75 11.5858 7.75 12C7.75 12.4142 8.08579 12.75 8.5 12.75Z" fill="#020617"/>
<path fill-rule="evenodd" clip-rule="evenodd" d="M14 6C14 4.89543 14.8954 4 16 4H20C21.1046 4 22 4.89427 22 5.99884V9.00039C22 10.105 21.1046 11 20 11H16.5C16.104 11 15.7295 10.9079 15.3968 10.744C14.8289 10.4643 14.1348 10.3023 13.5956 10.6338C13.2255 10.8614 13 11.2647 13 11.6991V13.9384C13 14.8562 13.6246 15.6561 14.5149 15.8787L14.7611 15.9403C14.9198 15.9799 15.0827 16 15.2462 16H20C21.1046 16 22 16.8954 22 18V21C22 22.1046 21.1046 23 20 23H16C14.8954 23 14 22.1046 14 21V19.255C14 18.6618 13.6867 18.1128 13.1761 17.8111C12.5277 17.4279 11.7132 17.5762 11.0034 17.8281C10.6897 17.9394 10.3519 18 10 18H4C2.34315 18 1 16.6569 1 15V11C1 9.34315 2.34315 8 4 8H10C10.4891 8 10.9509 8.11705 11.3588 8.32467C11.952 8.62656 12.6668 8.79321 13.2521 8.4762C13.7129 8.22658 14 7.74458 14 7.22047V6ZM3 11C3 10.4477 3.44772 10 4 10H10C10.5523 10 11 10.4477 11 11V15C11 15.5523 10.5523 16 10 16H4C3.44772 16 3 15.5523 3 15V11ZM17.25 6.75C17.25 7.16421 16.9142 7.5 16.5 7.5C16.0858 7.5 15.75 7.16421 15.75 6.75C15.75 6.33579 16.0858 6 16.5 6C16.9142 6 17.25 6.33579 17.25 6.75ZM18 9.5C18 9.5 19 9.5 19.5 9V8.5H16.5V9C17 9.5 18 9.5 18 9.5ZM18 21.5C18 21.5 19 21.5 19.5 21V20.5H16.5V21C17 21.5 18 21.5 18 21.5ZM16.5 19.5C16.9142 19.5 17.25 19.1642 17.25 18.75C17.25 18.3358 16.9142 18 16.5 18C16.0858 18 15.75 18.3358 15.75 18.75C15.75 19.1642 16.0858 19.5 16.5 19.5ZM19.5 19.5C19.9142 19.5 20.25 19.1642 20.25 18.75C20.25 18.3358 19.9142 18 19.5 18C19.0858 18 18.75 18.3358 18.75 18.75C18.75 19.1642 19.0858 19.5 19.5 19.5ZM20.25 6.75C20.25 7.16421 19.9142 7.5 19.5 7.5C19.0858 7.5 18.75 7.16421 18.75 6.75C18.75 6.33579 19.0858 6 19.5 6C19.9142 6 20.25 6.33579 20.25 6.75Z" fill="#020617"/>
</svg>
