<svg width="24" height="24" viewBox="0 0 24 24" fill="none" xmlns="http://www.w3.org/2000/svg">
<path d="M15 17H17V19H15V17Z" fill="#020617"/>
<path fill-rule="evenodd" clip-rule="evenodd" d="M21 19C21 20.1649 20.336 21.1748 19.3659 21.6717C18.9562 21.8816 18.4919 22 18 22H6C4.34315 22 3 20.6569 3 19V5C3 3.34315 4.34315 2 6 2H18C19.6569 2 21 3.34315 21 5V19ZM19 5.00001C19 4.44773 18.5523 4.00001 18 4.00001H6C5.44772 4.00001 5 4.44773 5 5.00001V14.1707C5.31278 14.0602 5.64936 14 6 14H18C18.3506 14 18.6872 14.0602 19 14.1707V5.00001ZM5 17V19C5 19 5 19 5 19C5 19.4231 5.26277 19.7849 5.63401 19.9309C5.6604 19.9413 5.68733 19.9506 5.71476 19.9587C5.72847 19.9628 5.74231 19.9666 5.75626 19.9701C5.83428 19.9896 5.91593 20 6 20H18C18.1381 20 18.2696 19.972 18.3892 19.9214C18.7482 19.7696 19 19.4142 19 19C19 19 19 19 19 19V17C19 16.4477 18.5523 16 18 16H6C5.44772 16 5 16.4477 5 17Z" fill="#020617"/>
</svg>
