<svg width="24" height="24" viewBox="0 0 24 24" fill="none" xmlns="http://www.w3.org/2000/svg">
<path d="M11.0001 5.82828L8.63613 8.19228L7.22192 6.77808L12.0001 1.99988L16.7782 6.77808L15.364 8.19228L13.0001 5.82828V11.9999H11.0001L11.0001 5.82828Z" fill="#020617"/>
<path fill-rule="evenodd" clip-rule="evenodd" d="M16 11H23V18H16V11ZM21 16H18V13H21V16Z" fill="#020617"/>
<path fill-rule="evenodd" clip-rule="evenodd" d="M7 21L11.9998 13.5L17 21H7ZM10.737 19H13.2629L11.9999 17.1056L10.737 19Z" fill="#020617"/>
<path fill-rule="evenodd" clip-rule="evenodd" d="M5 10.5C7.17444 10.5 8.94365 12.2351 8.99868 14.3962C8.99956 14.4307 9 14.4653 9 14.5C9 16.201 7.93822 17.654 6.44128 18.2325C5.99412 18.4053 5.50812 18.5 5 18.5C2.79086 18.5 1 16.7091 1 14.5C1 12.2909 2.79086 10.5 5 10.5ZM7 14.5C7 15.6046 6.10457 16.5 5 16.5C3.89543 16.5 3 15.6046 3 14.5C3 13.3954 3.89543 12.5 5 12.5C6.10457 12.5 7 13.3954 7 14.5Z" fill="#020617"/>
</svg>
