<svg width="24" height="24" viewBox="0 0 24 24" fill="none" xmlns="http://www.w3.org/2000/svg">
<path fill-rule="evenodd" clip-rule="evenodd" d="M2.00012 7C5.3329 4.99912 8.6659 2.99861 12 1C15.334 2.99901 18.6671 4.99929 22 7C18.6663 8.99925 15.3332 10.9997 12 12.9998C8.66678 10.9997 5.33374 8.99939 2.00012 7ZM12 3.33221L5.88733 6.99983L12 10.6674L18.1127 6.99983L12 3.33221Z" fill="#020617"/>
<path d="M4.08278 10.7497L2.00012 12C5.33374 13.9994 8.66678 15.9997 12 17.9998C15.3332 15.9997 18.6663 13.9992 22 12L19.9172 10.7497L12 15.5L4.08278 10.7497Z" fill="#020617"/>
<path d="M2.00012 17L4.08277 15.7497L12 20.5L19.9172 15.7497L22 17C18.6663 18.9992 15.3332 20.9997 12 22.9998C8.66678 20.9997 5.33374 18.9993 2.00012 17Z" fill="#020617"/>
</svg>
