<svg width="24" height="24" viewBox="0 0 24 24" fill="none" xmlns="http://www.w3.org/2000/svg">
<path d="M15 11C16.1046 11 17 10.1046 17 9C17 7.89543 16.1046 7 15 7C13.8954 7 13 7.89543 13 9C13 10.1046 13.8954 11 15 11Z" fill="#020617"/>
<path fill-rule="evenodd" clip-rule="evenodd" d="M11 2L1 12L12 23L22 13L21.2442 5.44236C21.1022 4.0216 19.9784 2.89784 18.5576 2.75576L11 2ZM19.9156 12.256L12 20.1716L3.82843 12L11.744 4.08438L18.3586 4.74584C18.8322 4.7932 19.2068 5.16778 19.2542 5.64137L19.9156 12.256Z" fill="#020617"/>
</svg>
