<svg width="24" height="24" viewBox="0 0 24 24" fill="none" xmlns="http://www.w3.org/2000/svg">
<path fill-rule="evenodd" clip-rule="evenodd" d="M9 13C11.7614 13 14 10.7614 14 8C14 5.23858 11.7614 3 9 3C6.23858 3 4 5.23858 4 8C4 10.7614 6.23858 13 9 13ZM9 11C10.6569 11 12 9.65685 12 8C12 6.34315 10.6569 5 9 5C7.34315 5 6 6.34315 6 8C6 9.65685 7.34315 11 9 11Z" fill="#020617"/>
<path d="M1 22C1 17.5817 4.58172 14 9 14C13.4183 14 17 17.5817 17 22H15C15 18.6863 12.3137 16 9 16C5.68629 16 3 18.6863 3 22H1Z" fill="#020617"/>
<path d="M22 13L18 9V12H14V14H18V17L22 13Z" fill="#020617"/>
</svg>
