<svg width="24" height="24" viewBox="0 0 24 24" fill="none" xmlns="http://www.w3.org/2000/svg">
<path fill-rule="evenodd" clip-rule="evenodd" d="M17 8C17 10.7614 14.7614 13 12 13C9.23858 13 7 10.7614 7 8C7 5.23858 9.23858 3 12 3C14.7614 3 17 5.23858 17 8ZM15 8C15 9.65685 13.6569 11 12 11C10.3431 11 9 9.65685 9 8C9 6.34315 10.3431 5 12 5C13.6569 5 15 6.34315 15 8Z" fill="#020617"/>
<path d="M12 14C7.58172 14 4 17.5817 4 22H6C6 18.6863 8.68629 16 12 16C15.3137 16 18 18.6863 18 22H20C20 17.5817 16.4183 14 12 14Z" fill="#020617"/>
</svg>
