<svg width="24" height="24" viewBox="0 0 24 24" fill="none" xmlns="http://www.w3.org/2000/svg">
<path d="M13.5 13L12 2H11.888C6.43362 2.01592 2.01592 6.43362 2 11.888V12L13.5 13Z" fill="#FFAA0D"/>
<path d="M12.112 2H12V12L17 14L22 12V11.888C21.9841 6.43362 17.5664 2.01592 12.112 2Z" fill="#FFD046"/>
<path d="M22 12V12.11C21.9843 17.5656 17.5656 21.9843 12.11 22H11.89C6.4344 21.9843 2.01566 17.5656 2 12.11V12H22Z" fill="#E38122"/>
<path d="M2.83318 7H11.1668C11.627 7 12 7.37303 12 7.83318V16.1668C12 16.627 11.627 17 11.1668 17H2.83318C2.37303 17 2 16.627 2 16.1668V7.83318C2 7.37303 2.37303 7 2.83318 7Z" fill="#713912"/>
<path d="M7.07145 9.00563C7.58213 8.96602 8.08842 9.1365 8.49976 9.48656C8.84285 9.83855 9.02617 10.3522 8.99698 10.8797C9.00258 11.2463 8.91756 11.6073 8.7518 11.9207C8.58397 12.2287 8.34219 12.4743 8.05561 12.6278C7.72798 12.8029 7.36978 12.8894 7.00854 12.8806H6.01625V15H5V9.00563H7.07145ZM6.0154 11.965H6.89002C7.1673 11.9884 7.44242 11.8941 7.66323 11.6999C7.84587 11.4986 7.9416 11.2146 7.92468 10.9244C7.92468 10.2638 7.59063 9.93355 6.92255 9.93355H6.01541V11.965H6.0154Z" fill="white"/>
</svg>
