<svg fill="none" height="121" viewBox="0 0 300 121" width="300" xmlns="http://www.w3.org/2000/svg"><g fill="#343ced"><path d="m145.573 77.632c-1.651 1.5717-3.565 2.8816-5.744 3.7984-2.113.9168-4.49 1.3752-6.999 1.3752-1.32 0-2.575-.1306-3.762-.3925-1.189-.2618-2.377-.6549-3.5-1.1133-1.122-.5237-2.178-1.1133-3.169-1.7683-.99-.7208-1.915-1.5064-2.707-2.3579l31.228-11.9841 13.271-5.1081c-.726-4.5843-2.377-8.9065-4.885-12.6395-5.678-8.5134-15.45-14.0798-26.476-14.0798-17.495 0-31.756 14.1455-31.756 31.4996 0 1.6376.132 3.2094.396 4.7811.727 4.5839 2.377 8.9066 4.886 12.6391 1.452 2.0954 3.103 4.0602 5.017 5.7632 1.915 1.7029 3.962 3.2087 6.273 4.4533 2.244 1.244 4.687 2.2267 7.262 2.881 2.575.6549 5.216.9827 7.989.9827 4.357 0 8.583-.8515 12.346-2.4885 3.829-1.5717 7.196-3.9296 10.101-6.7453 2.905-2.8816 5.216-6.2216 6.801-10.02.659-1.5717 1.188-3.2747 1.584-4.977h-14.393c-.858 2.0954-2.113 3.929-3.763 5.5007zm-12.676-30.7794c5.149 0 9.837 2.2268 13.138 5.6321l-31.228 11.9845c.197-9.6926 8.252-17.6166 18.09-17.6166z"/><path d="m88.1071 70.1102-.0661-69.397065h-13.8125l.0662 69.067465c0 14.5785 9.7813 24.9353 24.0563 25.9906v-13.5892c-6.0136-.9893-10.2439-5.739-10.2439-12.0718z"/><path d="m87.9548 70.2403-.0662-69.397038h-13.8124l.0661 69.067438c0 14.5785 9.7814 24.9353 24.0564 25.9906v-13.5891c-6.0137-.9894-10.2439-5.739-10.2439-12.0719z"/><path d="m234.192 63.7452c-.67-16.7652-14.814-30.2557-32.175-30.2557-17.764 0-32.243 14.1456-32.243 31.4996 0 17.3541 14.479 31.5004 32.243 31.5004 6.837 0 13.205-2.096 18.433-5.6979v5.1083h13.876l-.134-32.0241zm-32.175 19.2538c-10.122 0-18.367-8.0552-18.367-17.944 0-9.8887 8.245-17.9439 18.367-17.9439s18.367 8.055 18.367 17.9439c0 9.889-8.245 17.944-18.367 17.944z"/><path d="m270.376 33.1318c-16.361 0-29.624 13.2136-29.624 29.5134v33.4192h14.083v-33.4414c0-8.4761 6.897-15.3473 15.405-15.3473h.272c8.508 0 15.405 6.8712 15.405 15.3473v33.4414h14.083v-33.4192c0-16.2998-13.263-29.5134-29.624-29.5134z"/><path d="m77.6465 97.0557c-.9346 1.3241-1.9296 2.6122-2.9795 3.8453-1.0502 1.24-2.1495 2.426-3.3027 3.569-1.1473 1.143-2.3492 2.231-3.5997 3.271-1.2442 1.04-2.5367 2.02-3.872 2.946-1.3294.931-2.7021 1.801-4.1104 2.612-1.402.804-2.8464 1.548-4.3213 2.231-1.4688.684-2.9682 1.301-4.5039 1.851-1.5173.556-3.0713 1.04-4.6494 1.451-1.5599.417-3.1445.769-4.7529 1.047-1.5904.278-3.1992.49-4.832.623-1.6025.139-3.2234.211-4.8623.211-1.639 0-3.2599-.072-4.8624-.211-1.6328-.133-3.2477-.345-4.832-.623-1.6083-.278-3.1982-.63-4.7519-1.047l3.5752-13.292c1.1714.321 2.3673.581 3.5752.786 1.1957.212 2.4096.369 3.6357.472 1.2079.103 2.4279.157 3.6602.157 1.2322 0 2.4522-.054 3.6601-.157 1.226-.103 2.44-.26 3.6357-.472 1.2079-.205 2.4038-.465 3.5752-.786 1.1898-.308 2.3557-.672 3.503-1.089 1.1532-.411 2.2821-.876 3.3867-1.39 1.1108-.514 2.1978-1.07 3.2539-1.681 1.0623-.605 2.1-1.265 3.1016-1.9601 1.0076-.6954 1.9792-1.4327 2.914-2.2129.9409-.7801 1.8449-1.6031 2.7129-2.4619.868-.8647 1.7002-1.7533 2.4893-2.6846.7891-.9312 1.542-1.8986 2.2461-2.8964zm-12.374-63.9248-8.961 11.4257c4.6249 5.5097 7.4101 12.6046 7.4102 20.3487 0 17.5306-14.2642 31.742-31.8604 31.7422-17.5963 0-31.8613-14.2116-31.8613-31.7422.0002487-17.5305 14.2651-31.7412 31.8613-31.7412 4.7993 0 9.3499 1.0587 13.4317 2.9521l9.0273-11.5098zm-33.4112 13.665c-10.0389 0-18.1775 8.108-18.1777 18.1094 0 10.0015 8.1387 18.1103 18.1777 18.1103 10.0389-.0002 18.1768-8.1089 18.1768-18.1103-.0003-10.0013-8.138-18.1092-18.1768-18.1094z"/></g></svg>