<svg fill="none" height="22" viewBox="0 0 112 22" width="112" xmlns="http://www.w3.org/2000/svg" xmlns:xlink="http://www.w3.org/1999/xlink"><clipPath id="a"><path d="m0 0h111.833v22h-111.833z"/></clipPath><g clip-path="url(#a)"><path d="m11.2067 11.9361c.2022-.3461.201-.7744-.0032-1.1193l-3.32809-5.61873-2.7809-4.660441c-.42945-.719693-1.47287-.716739-1.89823.00537l-2.388324 4.054471c-.203577.34559-.203576.77444.000001 1.12004l3.003923 5.09949c.2031.3448.20361.7725.00134 1.1178l-2.3658 4.0383c-.43093.7355.09953 1.6611.95204 1.6611h4.8429c.39206 0 .75467-.2081.95254-.5465z" fill="#4469fc"/><g fill="#1a1c21"><path d="m18.1372 17.5056v-15.13875h3.2006v12.49985h6.4902v2.6389z"/><path d="m32.2928 17.7199c-.7244 0-1.3699-.1256-1.9367-.3769-.5667-.2563-1.0151-.6333-1.3453-1.131-.3252-.5027-.4879-1.1285-.4879-1.8775 0-.6309.1158-1.1606.3475-1.5894.2316-.4287.5469-.7736.9461-1.0348s.8525-.4583 1.3601-.5914c.5125-.133 1.0497-.2267 1.6115-.2809.6604-.069 1.1926-.133 1.5967-.1922.404-.064.6973-.1577.8796-.2809s.2735-.3055.2735-.54695v-.04437c0-.46814-.1478-.83036-.4436-1.08661-.2907-.25626-.7046-.38438-1.2418-.38438-.5666 0-1.0176.12566-1.3527.37699-.3351.2464-.5569.55684-.6653.93139l-2.9124-.23659c.1478-.68988.4386-1.28616.8723-1.78881.4336-.50758.9929-.89689 1.6779-1.16793.6899-.27596 1.4882-.41395 2.395-.41395.6308 0 1.2345.07392 1.8111.22176.5814.14784 1.0964.37699 1.5448.68746.4534.31045.8107.70962 1.0719 1.19748.2611.48295.3918 1.06195.3918 1.73708v7.65813h-2.9864v-1.5745h-.0887c-.1823.3548-.4262.6677-.7318.9388-.3055.2661-.6726.4755-1.1014.6283-.4288.1478-.9239.2217-1.4858.2217zm.9018-2.1732c.4632 0 .8723-.0912 1.2271-.2735.3548-.1873.6332-.4386.8353-.7539.202-.3155.3031-.6728.3031-1.0719v-1.2049c-.0986.064-.2341.1232-.4066.1774-.1675.0493-.3573.0961-.5692.1404-.2119.0395-.4238.0764-.6357.111-.2119.0295-.4041.0566-.5766.0813-.3696.0541-.6923.1404-.9683.2587-.276.1182-.4904.2783-.6431.4805-.1528.1971-.2292.4435-.2292.7392 0 .4287.1553.7564.4657.9831.3154.2217.7146.3326 1.1975.3326z"/><path d="m43.4474 10.9415v6.5641h-3.1491v-11.35407h3.0012v2.00322h.133c.2514-.66035.6727-1.18271 1.2641-1.56709.5913-.38931 1.3084-.58397 2.151-.58397.7885 0 1.476.17248 2.0624.51744.5864.34495 1.0422.83775 1.3674 1.47838.3254.63571.488 1.39467.488 2.27669v7.2294h-3.149v-6.6676c.0049-.6948-.1725-1.23693-.5323-1.62624-.3597-.3942-.8549-.59131-1.4857-.59131-.4239 0-.7983.09116-1.1236.27349-.3203.18234-.5717.44844-.754.79834-.1774.34492-.2686.76142-.2734 1.24922z"/><path d="m57.5288 21.9999c-1.0202 0-1.8949-.1405-2.6242-.4214-.7244-.2759-1.301-.6529-1.7297-1.131-.4288-.4779-.7072-1.0151-.8353-1.6114l2.9124-.3918c.0887.2267.2291.4387.4213.6357.1923.1971.446.3549.7614.4731.3203.1232.7096.1848 1.1679.1848.6851 0 1.2493-.1675 1.6928-.5027.4484-.3301.6727-.8845.6727-1.6631v-2.0771h-.1331c-.138.3154-.3449.6135-.6209.8944s-.6308.51-1.0645.6875c-.4337.1773-.951.2661-1.5523.2661-.8525 0-1.6287-.1972-2.3284-.5914-.6949-.3992-1.2493-1.0078-1.6632-1.8258-.409-.823-.6135-1.8628-.6135-3.1194 0-1.2862.2094-2.36052.6283-3.22291.4188-.8624.9757-1.50797 1.6705-1.9367.6998-.42873 1.4661-.6431 2.2989-.6431.6357 0 1.1679.10842 1.5967.32525.4288.2119.7737.47801 1.0349.79833.2661.31539.4706.62585.6135.93139h.1183v-1.90713h3.1268v11.46487c0 .9659-.2366 1.7741-.7097 2.4246s-1.1285 1.1384-1.9662 1.4636c-.8328.3302-1.7913.4953-2.8754.4953zm.0664-7.0224c.5077 0 .9364-.1257 1.2863-.3769.3547-.2563.6258-.621.8131-1.0941.1922-.478.2883-1.0496.2883-1.7149s-.0937-1.2419-.2809-1.7297c-.1873-.49282-.4583-.87471-.8132-1.14578-.3548-.27103-.7859-.40655-1.2936-.40655-.5173 0-.9535.14044-1.3083.42133-.3549.276-.6234.66036-.8058 1.1532-.1823.4928-.2734 1.0619-.2734 1.7075 0 .6554.0911 1.2221.2734 1.7002.1873.4731.4559.8402.8058 1.1013.3548.2563.791.3844 1.3083.3844z"/><path d="m68.9382 17.6904c-.8624 0-1.6435-.2218-2.3433-.6653-.6949-.4485-1.2468-1.1064-1.6558-1.9736-.4041-.8723-.6061-1.9417-.6061-3.2082 0-1.3009.2095-2.38267.6283-3.24504.4189-.86731.9758-1.51534 1.6706-1.94408.6998-.43366 1.466-.65049 2.2989-.65049.6357 0 1.1655.10841 1.5893.32524.4287.21191.7736.47802 1.0349.79834.2661.31539.4681.62585.6061.93139h.096v-5.69181h3.1416v15.13875h-3.1046v-1.8184h-.133c-.1479.3153-.3573.6283-.6283.9387-.2661.3056-.6135.5593-1.0424.7614-.4237.2021-.9412.3031-1.5522.3031zm.9978-2.5059c.5077 0 .9364-.138 1.2863-.414.3548-.2809.6258-.6726.8131-1.1752.1922-.5027.2883-1.0916.2883-1.7667 0-.6752-.0936-1.2616-.2809-1.7593-.1873-.49775-.4583-.88211-.8132-1.15319-.3547-.27103-.7859-.40655-1.2936-.40655-.5173 0-.9535.14045-1.3083.42134-.3548.28086-.6233.67017-.8057 1.1679-.1823.4978-.2735 1.0743-.2735 1.7298 0 .6603.0912 1.2442.2735 1.7518.1872.5027.4558.897.8057 1.1828.3548.2809.791.4213 1.3083.4213z"/><path d="m82.2832 17.7273c-1.1482 0-2.1412-.2439-2.979-.7318-.8329-.4928-1.4759-1.1778-1.9293-2.0549-.4534-.8821-.6801-1.9047-.6801-3.0677 0-1.1728.2267-2.19786.6801-3.07505.4534-.88211 1.0964-1.56709 1.9293-2.05497.8378-.49279 1.8308-.73919 2.979-.73919s2.1387.2464 2.9716.73919c.8377.48788 1.4832 1.17286 1.9366 2.05497.4534.87719.6801 1.90225.6801 3.07505 0 1.163-.2267 2.1856-.6801 3.0677-.4534.8771-1.0989 1.5621-1.9366 2.0549-.8329.4879-1.8234.7318-2.9716.7318zm.0148-2.4393c.5223 0 .9584-.1479 1.3083-.4435.3499-.3007.6135-.7097.7909-1.2271.1824-.5174.2735-1.1064.2735-1.7666 0-.6604-.0911-1.2493-.2735-1.7667-.1774-.5175-.441-.92651-.7909-1.22712-.3499-.3006-.786-.45091-1.3083-.45091-.5273 0-.9709.15031-1.3306.45091-.3548.30061-.6234.70962-.8057 1.22712-.1774.5174-.2662 1.1063-.2662 1.7667 0 .6602.0888 1.2492.2662 1.7666.1823.5174.4509.9264.8057 1.2271.3597.2956.8033.4435 1.3306.4435z"/><path d="m94.2181 17.7273c-1.1632 0-2.1633-.2464-3.0015-.7392-.8328-.4977-1.4735-1.1876-1.9219-2.0697-.4436-.8821-.6653-1.8972-.6653-3.0455 0-1.163.2242-2.1831.6726-3.06027.4534-.8821 1.0966-1.56955 1.9293-2.06235.8327-.49772 1.8236-.74659 2.9712-.74659.991 0 1.8581.17987 2.6025.53962.7443.35973 1.3328.86485 1.7664 1.51535.4336.65048.6728 1.41435.7168 2.29154h-2.9709c-.0843-.56671-.3062-1.02257-.6655-1.36755-.3548-.34988-.8204-.52483-1.397-.52483-.4877 0-.9139.13305-1.2788.39916-.3602.26119-.6407.64307-.8424 1.14582-.2026.5026-.3034 1.1112-.3034 1.8258 0 .7243.0981 1.3403.2952 1.848.2026.5075.4858.8944.8506 1.1605.3649.2661.7911.3992 1.2788.3992.3593 0 .682-.074.968-.2219.2906-.1477.5298-.3621.7168-.643.1925-.2858.3181-.6284.3777-1.0275h2.9709c-.0486.8674-.2851 1.6311-.7095 2.2915-.4189.6554-.9973 1.1679-1.7371 1.5375-.7388.3696-1.6133.5544-2.6235.5544z"/><path d="m103.324 14.2383.008-3.7773h.458l3.637-4.30947h3.615l-4.886 5.70657h-.747zm-2.852 3.2673v-15.13875h3.148v15.13875zm7.096 0-3.342-4.9453 2.1-2.2249 4.93 7.1702z"/></g></g></svg>