<svg height="1em" viewBox="0 0 24 24" width="1em" xmlns="http://www.w3.org/2000/svg"><path clip-rule="evenodd" d="m24 8.4c0 1.325-1.102 2.4-2.462 2.4-1.146 0-2.11-.765-2.384-1.8h-3.436c-.602 0-1.115.424-1.214 1.003l-.101.592a2.38 2.38 0 0 1 -.8 1.405c.412.354.704.844.8 1.405l.1.592a1.222 1.222 0 0 0 1.216 1.003h.975c.273-1.035 1.237-1.8 2.384-1.8 1.36 0 2.461 1.075 2.461 2.4s-1.103 2.4-2.461 2.4c-1.147 0-2.11-.765-2.384-1.8h-.975c-1.204 0-2.23-.848-2.428-2.005l-.101-.592a1.222 1.222 0 0 0 -1.214-1.003h-1.006c-.308.984-1.246 1.7-2.356 1.7s-2.048-.716-2.355-1.7h-1.442c-.308.984-1.246 1.7-2.355 1.7-1.36 0-2.462-1.075-2.462-2.4s1.102-2.4 2.462-2.4c1.183 0 2.172.815 2.408 1.9h1.337c.236-1.085 1.225-1.9 2.408-1.9 1.184 0 2.172.815 2.408 1.9h.952c.601 0 1.115-.424 1.213-1.003l.102-.592c.198-1.157 1.225-2.005 2.428-2.005h3.436c.274-1.035 1.238-1.8 2.384-1.8 1.36 0 2.462 1.075 2.462 2.4zm-1.23 0c0 .663-.552 1.2-1.232 1.2s-1.23-.537-1.23-1.2.55-1.2 1.23-1.2 1.231.537 1.231 1.2zm-20.309 4.7c.68 0 1.23-.537 1.23-1.2s-.55-1.2-1.23-1.2-1.231.537-1.231 1.2.55 1.2 1.23 1.2zm6.153 0c.68 0 1.231-.537 1.231-1.2s-.55-1.2-1.23-1.2-1.231.537-1.231 1.2.55 1.2 1.23 1.2zm10.462 3.7c.68 0 1.23-.537 1.23-1.2s-.55-1.2-1.23-1.2-1.23.537-1.23 1.2.55 1.2 1.23 1.2z" fill="#ea4b71" fill-rule="evenodd"/></svg>