<svg width="420" height="595" viewBox="0 0 420 595" fill="none" xmlns="http://www.w3.org/2000/svg">
<g clip-path="url(#clip0_2177_1307)">
<rect width="420" height="595" fill="white"/>
<path d="M242.777 58.8772H231.9V69.7544H242.777V58.8772Z" fill="#FE9C1A"/>
<path d="M177.513 69.7544C183.521 69.7544 188.391 64.8845 188.391 58.8772C188.391 52.8699 183.521 48 177.513 48C171.506 48 166.636 52.8699 166.636 58.8772C166.636 64.8845 171.506 69.7544 177.513 69.7544Z" fill="#E2F78C"/>
<path d="M199.268 69.7544C205.275 69.7544 210.145 64.8845 210.145 58.8772C210.145 52.8699 205.275 48 199.268 48C193.261 48 188.391 52.8699 188.391 58.8772C188.391 64.8845 193.261 69.7544 199.268 69.7544Z" fill="#FFC3DF"/>
<path d="M177.513 48H166.636V69.7544H177.513V48Z" fill="#418B5C"/>
<path d="M210.145 48H188.391V58.8772H210.145V48Z" fill="#E14322"/>
<path d="M253.654 48V58.877H221.022C218.019 58.8769 215.584 56.4421 215.584 53.4385C215.584 50.4349 218.019 48.0001 221.022 48H253.654Z" fill="#1C91FF"/>
<path fill-rule="evenodd" clip-rule="evenodd" d="M210.145 69.7544V58.8772H221.022C224.026 58.8772 226.461 61.3122 226.461 64.3158C226.461 67.3195 224.026 69.7544 221.022 69.7544H210.145Z" fill="#9FDBFF"/>
<path d="M74.8733 155.24V131.36H66.2333V126.84H88.6733V131.36H80.0733V155.24H74.8733ZM88.77 155.24V126.84H93.89V136.72C95.05 134.48 97.33 133.4 99.97 133.4C104.69 133.4 107.21 136.76 107.21 141.52V155.24H102.09V142.76C102.09 139.28 100.93 137.56 98.45 137.56C95.65 137.56 93.89 139.4 93.89 142.88V155.24H88.77ZM119.241 155.72C112.841 155.72 108.761 151.32 108.761 144.56C108.761 137.84 112.841 133.4 119.121 133.4C125.241 133.4 129.241 137.64 129.241 144.84V146H114.081C114.241 149.76 116.201 151.64 119.281 151.64C121.561 151.64 123.081 150.56 123.721 148.68L128.961 149C127.801 153.16 124.161 155.72 119.241 155.72ZM114.081 142.56H123.961C123.721 139.08 121.841 137.44 119.121 137.44C116.361 137.44 114.481 139.24 114.081 142.56ZM136.479 155.24L146.719 126.84H153.079L163.319 155.24H157.879L155.519 148.52H144.279L141.919 155.24H136.479ZM145.799 144.08H153.999L149.919 132.08L145.799 144.08ZM164.017 155.24V126.84H169.217V155.24H164.017ZM180.504 155.24V126.84H199.624V131.36H185.704V138.76H199.144V143.24H185.704V150.72H199.944V155.24H180.504ZM202.429 155.24V133.88H207.069L207.189 137.52C208.349 134.6 210.749 133.4 213.589 133.4C218.309 133.4 220.869 136.72 220.869 141.52V155.24H215.749V143.16C215.749 139.56 214.789 137.56 212.029 137.56C209.269 137.56 207.549 139.56 207.549 143.16V155.24H202.429ZM231.244 155.24C227.004 155.24 225.044 153.36 225.044 149.12V137.84H221.684V133.88H225.044V128.88H230.164V133.88H235.804V137.84H230.164V148.64C230.164 150.64 231.004 151.28 232.804 151.28H235.804V155.24H231.244ZM246.163 155.72C239.763 155.72 235.683 151.32 235.683 144.56C235.683 137.84 239.763 133.4 246.043 133.4C252.163 133.4 256.163 137.64 256.163 144.84V146H241.003C241.163 149.76 243.123 151.64 246.203 151.64C248.483 151.64 250.003 150.56 250.643 148.68L255.883 149C254.723 153.16 251.083 155.72 246.163 155.72ZM241.003 142.56H250.883C250.643 139.08 248.763 137.44 246.043 137.44C243.283 137.44 241.403 139.24 241.003 142.56ZM257.881 155.24V133.88H262.681L262.801 138.04C263.641 135.16 265.281 133.88 267.921 133.88H269.881V138.28H267.881C264.601 138.28 263.001 139.64 263.001 142.92V155.24H257.881ZM270.675 161.24V133.88H275.595L275.675 137.08C276.915 134.68 279.235 133.4 282.075 133.4C288.155 133.4 291.155 138.4 291.155 144.56C291.155 150.72 288.115 155.72 282.035 155.72C279.315 155.72 276.955 154.44 275.795 152.32V161.24H270.675ZM280.835 151.56C283.955 151.56 285.835 148.96 285.835 144.56C285.835 140.16 283.955 137.56 280.835 137.56C277.715 137.56 275.795 139.92 275.795 144.56C275.795 149.2 277.675 151.56 280.835 151.56ZM292.844 155.24V133.88H297.644L297.764 138.04C298.604 135.16 300.244 133.88 302.884 133.88H304.844V138.28H302.844C299.564 138.28 297.964 139.64 297.964 142.92V155.24H292.844ZM305.792 131.04V126.48H311.112V131.04H305.792ZM305.872 155.24V133.88H310.992V155.24H305.872ZM322.619 155.72C316.099 155.72 313.019 152.72 312.699 148.52L317.939 148.28C318.299 150.52 319.579 151.8 322.659 151.8C325.019 151.8 326.339 151.08 326.339 149.4C326.339 147.96 325.619 147.32 321.819 146.64C315.339 145.52 313.419 143.76 313.419 140.12C313.419 136.16 316.539 133.4 322.459 133.4C328.619 133.4 331.339 136.64 331.699 140.6L326.499 140.84C326.379 138.84 325.179 137.32 322.379 137.32C319.939 137.32 318.699 138.4 318.699 139.96C318.699 141.68 319.699 142.36 322.899 142.88C329.499 143.88 331.659 145.76 331.659 149.32C331.659 153.44 328.099 155.72 322.619 155.72ZM342.614 155.72C336.214 155.72 332.134 151.32 332.134 144.56C332.134 137.84 336.214 133.4 342.494 133.4C348.614 133.4 352.614 137.64 352.614 144.84V146H337.454C337.614 149.76 339.574 151.64 342.654 151.64C344.934 151.64 346.454 150.56 347.094 148.68L352.334 149C351.174 153.16 347.534 155.72 342.614 155.72ZM337.454 142.56H347.334C347.094 139.08 345.214 137.44 342.494 137.44C339.734 137.44 337.854 139.24 337.454 142.56Z" fill="black"/>
<path d="M130.264 194.231C129.816 194.231 129.592 194.071 129.592 193.751C129.592 193.399 129.912 193.175 130.552 193.079L131.512 192.935C132.216 192.839 132.696 192.679 132.952 192.455C133.24 192.199 133.448 191.735 133.576 191.063L140.104 162.839C140.232 162.295 140.248 161.879 140.152 161.591C140.056 161.303 139.64 161.095 138.904 160.967L137.944 160.775C137.528 160.679 137.32 160.503 137.32 160.247C137.32 159.863 137.608 159.671 138.184 159.671H147.544C150.2 159.671 152.232 160.391 153.64 161.831C155.048 163.271 155.752 165.079 155.752 167.255C155.752 169.271 155.224 171.143 154.168 172.871C153.144 174.567 151.704 175.943 149.848 176.999C148.024 178.055 145.88 178.583 143.416 178.583H140.584C140.072 178.583 139.736 178.855 139.576 179.399L136.888 190.871C136.728 191.575 136.76 192.055 136.984 192.311C137.24 192.567 137.768 192.743 138.568 192.839L140.872 193.127C141.16 193.159 141.304 193.319 141.304 193.607C141.304 194.023 141.016 194.231 140.44 194.231H130.264ZM140.68 174.743C140.488 175.575 140.568 176.231 140.92 176.711C141.304 177.159 142.088 177.383 143.272 177.383C144.872 177.383 146.232 177.047 147.352 176.375C148.504 175.703 149.432 174.839 150.136 173.783C150.872 172.695 151.4 171.543 151.72 170.327C152.072 169.079 152.248 167.895 152.248 166.775C152.248 165.015 151.784 163.591 150.856 162.503C149.928 161.415 148.568 160.871 146.776 160.871C144.824 160.871 143.704 161.511 143.416 162.791L140.68 174.743ZM157.372 194.711C156.316 194.711 155.564 194.327 155.116 193.559C154.668 192.759 154.652 191.463 155.068 189.671L161.164 163.511C161.324 162.935 161.324 162.535 161.164 162.311C161.036 162.087 160.748 161.959 160.3 161.927L158.86 161.783C158.38 161.751 158.172 161.543 158.236 161.159C158.3 160.871 158.524 160.695 158.908 160.631C160.06 160.439 161.084 160.215 161.98 159.959C162.876 159.671 163.596 159.303 164.14 158.855C164.396 158.663 164.636 158.567 164.86 158.567C165.244 158.567 165.388 158.807 165.292 159.287L158.188 189.719C158.028 190.423 157.996 190.983 158.092 191.399C158.22 191.783 158.524 191.975 159.004 191.975C159.58 191.975 160.204 191.559 160.876 190.727C161.58 189.863 162.364 188.247 163.228 185.879C163.356 185.463 163.58 185.255 163.9 185.255C164.38 185.255 164.508 185.543 164.284 186.119C163.612 188.295 162.86 190.023 162.028 191.303C161.228 192.551 160.428 193.431 159.628 193.943C158.828 194.455 158.076 194.711 157.372 194.711ZM169.624 194.663C168.472 194.663 167.576 194.167 166.936 193.175C166.296 192.183 165.976 190.727 165.976 188.807C165.976 186.983 166.232 185.159 166.744 183.335C167.256 181.479 167.96 179.719 168.856 178.055C169.752 176.391 170.76 174.919 171.88 173.639C173.032 172.359 174.232 171.351 175.48 170.615C176.76 169.847 178.024 169.463 179.272 169.463C179.88 169.463 180.456 169.591 181 169.847C181.544 170.071 181.992 170.439 182.344 170.951C182.536 171.239 182.728 171.383 182.92 171.383C183.112 171.383 183.304 171.239 183.496 170.951C183.848 170.439 184.136 170.119 184.36 169.991C184.584 169.831 184.792 169.751 184.984 169.751C185.4 169.751 185.56 169.975 185.464 170.423L181.192 188.807C180.712 190.887 181.032 191.927 182.152 191.927C182.888 191.927 183.544 191.431 184.12 190.439C184.728 189.447 185.336 187.911 185.944 185.831C186.04 185.479 186.248 185.303 186.568 185.303C186.792 185.303 186.936 185.399 187 185.591C187.064 185.783 187.064 186.007 187 186.263C186.392 189.271 185.576 191.431 184.552 192.743C183.528 194.023 182.296 194.663 180.856 194.663C179.608 194.663 178.712 194.135 178.168 193.079C177.656 192.023 177.608 190.583 178.024 188.759L178.648 186.119C178.712 185.895 178.664 185.767 178.504 185.735C178.376 185.703 178.264 185.783 178.168 185.975C176.408 189.207 174.84 191.463 173.464 192.743C172.12 194.023 170.84 194.663 169.624 194.663ZM170.824 192.215C171.592 192.215 172.44 191.751 173.368 190.823C174.296 189.895 175.208 188.695 176.104 187.223C177.032 185.751 177.88 184.167 178.648 182.471C179.416 180.775 180.024 179.143 180.472 177.575C180.952 176.007 181.192 174.679 181.192 173.591C181.192 171.639 180.504 170.663 179.128 170.663C178.296 170.663 177.416 171.047 176.488 171.815C175.56 172.551 174.664 173.559 173.8 174.839C172.968 176.119 172.2 177.575 171.496 179.207C170.824 180.807 170.28 182.487 169.864 184.247C169.448 185.975 169.24 187.671 169.24 189.335C169.24 190.455 169.368 191.223 169.624 191.639C169.912 192.023 170.312 192.215 170.824 192.215ZM185.431 204.551C184.215 204.551 183.271 204.231 182.599 203.591C181.927 202.983 181.591 202.231 181.591 201.335C181.591 200.663 181.767 200.151 182.119 199.799C182.471 199.479 182.855 199.319 183.271 199.319C183.879 199.319 184.311 199.479 184.567 199.799C184.823 200.119 185.015 200.487 185.143 200.903C185.271 201.351 185.479 201.735 185.767 202.055C186.023 202.375 186.455 202.535 187.063 202.535C188.247 202.535 189.415 202.055 190.567 201.095C191.719 200.167 192.663 198.871 193.399 197.207C194.135 195.575 194.455 193.735 194.359 191.687L193.639 174.455C193.607 173.623 193.463 173.047 193.207 172.727C192.951 172.375 192.631 172.199 192.247 172.199C191.543 172.199 190.871 172.631 190.231 173.495C189.591 174.327 189.063 175.927 188.647 178.295C188.551 178.711 188.343 178.919 188.023 178.919C187.575 178.919 187.399 178.631 187.495 178.055C187.879 175.847 188.407 174.119 189.079 172.871C189.783 171.623 190.519 170.743 191.287 170.231C192.087 169.719 192.823 169.463 193.495 169.463C194.487 169.463 195.271 169.815 195.847 170.519C196.423 171.191 196.743 172.359 196.807 174.023L197.479 192.455C197.479 192.679 197.543 192.823 197.671 192.887C197.831 192.919 197.975 192.839 198.103 192.647C199.223 191.079 200.231 189.463 201.127 187.799C202.055 186.103 202.791 184.439 203.335 182.807C203.879 181.175 204.151 179.671 204.151 178.295C204.151 176.951 204.007 175.895 203.719 175.127C203.431 174.327 203.127 173.655 202.807 173.111C202.519 172.567 202.375 171.975 202.375 171.335C202.375 170.087 202.919 169.463 204.007 169.463C205.543 169.463 206.311 171.159 206.311 174.551C206.311 176.407 205.991 178.439 205.351 180.647C204.711 182.823 203.831 185.047 202.711 187.319C201.623 189.559 200.359 191.703 198.919 193.751C197.511 195.799 196.023 197.639 194.455 199.271C192.919 200.903 191.367 202.183 189.799 203.111C188.263 204.071 186.807 204.551 185.431 204.551ZM213.317 194.663C212.229 194.663 211.253 194.375 210.389 193.799C209.557 193.191 208.965 192.295 208.613 191.111C208.293 189.895 208.341 188.391 208.757 186.599L214.133 163.511C214.293 162.935 214.293 162.535 214.133 162.311C214.005 162.087 213.717 161.959 213.269 161.927L211.829 161.783C211.349 161.751 211.141 161.543 211.205 161.159C211.269 160.871 211.493 160.695 211.877 160.631C213.029 160.439 214.053 160.215 214.949 159.959C215.845 159.671 216.565 159.303 217.109 158.855C217.365 158.663 217.605 158.567 217.829 158.567C218.213 158.567 218.357 158.807 218.261 159.287L213.893 178.151C213.861 178.375 213.909 178.503 214.037 178.535C214.165 178.567 214.277 178.487 214.373 178.295C216.133 174.935 217.701 172.631 219.077 171.383C220.485 170.103 221.797 169.463 223.013 169.463C224.197 169.463 225.125 169.959 225.797 170.951C226.501 171.943 226.853 173.399 226.853 175.319C226.853 177.143 226.581 178.983 226.037 180.839C225.525 182.663 224.805 184.407 223.877 186.071C222.981 187.735 221.941 189.207 220.757 190.487C219.605 191.767 218.389 192.791 217.109 193.559C215.829 194.295 214.565 194.663 213.317 194.663ZM213.461 193.463C214.293 193.463 215.173 193.095 216.101 192.359C217.029 191.591 217.925 190.583 218.789 189.335C219.685 188.055 220.485 186.631 221.189 185.063C221.893 183.463 222.453 181.831 222.869 180.167C223.285 178.471 223.493 176.839 223.493 175.271C223.493 174.055 223.365 173.207 223.109 172.727C222.853 172.215 222.405 171.959 221.765 171.959C221.061 171.959 220.261 172.391 219.365 173.255C218.469 174.119 217.557 175.271 216.629 176.711C215.701 178.119 214.837 179.655 214.037 181.319C213.237 182.983 212.597 184.631 212.117 186.263C211.637 187.863 211.397 189.287 211.397 190.535C211.397 192.487 212.085 193.463 213.461 193.463ZM234.853 194.663C232.869 194.663 231.301 193.847 230.149 192.215C228.997 190.551 228.421 188.311 228.421 185.495C228.421 183.415 228.757 181.415 229.429 179.495C230.101 177.575 230.981 175.863 232.069 174.359C233.189 172.855 234.421 171.671 235.765 170.807C237.141 169.911 238.517 169.463 239.893 169.463C241.877 169.463 243.445 170.279 244.597 171.911C245.749 173.543 246.325 175.783 246.325 178.631C246.325 180.711 245.989 182.711 245.317 184.631C244.645 186.551 243.749 188.263 242.629 189.767C241.541 191.271 240.309 192.471 238.933 193.367C237.589 194.231 236.229 194.663 234.853 194.663ZM234.757 193.511C235.781 193.511 236.773 193.015 237.733 192.023C238.725 191.031 239.621 189.719 240.421 188.087C241.221 186.455 241.861 184.647 242.341 182.663C242.821 180.647 243.061 178.631 243.061 176.615C243.061 172.615 242.021 170.615 239.941 170.615C238.949 170.615 237.957 171.111 236.965 172.103C235.973 173.063 235.077 174.359 234.277 175.991C233.509 177.623 232.885 179.447 232.405 181.463C231.925 183.447 231.685 185.447 231.685 187.463C231.685 191.495 232.709 193.511 234.757 193.511ZM254.728 194.663C252.744 194.663 251.176 193.847 250.024 192.215C248.872 190.551 248.296 188.311 248.296 185.495C248.296 183.415 248.632 181.415 249.304 179.495C249.976 177.575 250.856 175.863 251.944 174.359C253.064 172.855 254.296 171.671 255.64 170.807C257.016 169.911 258.392 169.463 259.768 169.463C261.752 169.463 263.32 170.279 264.472 171.911C265.624 173.543 266.2 175.783 266.2 178.631C266.2 180.711 265.864 182.711 265.192 184.631C264.52 186.551 263.624 188.263 262.504 189.767C261.416 191.271 260.184 192.471 258.808 193.367C257.464 194.231 256.104 194.663 254.728 194.663ZM254.632 193.511C255.656 193.511 256.648 193.015 257.608 192.023C258.6 191.031 259.496 189.719 260.296 188.087C261.096 186.455 261.736 184.647 262.216 182.663C262.696 180.647 262.936 178.631 262.936 176.615C262.936 172.615 261.896 170.615 259.816 170.615C258.824 170.615 257.832 171.111 256.84 172.103C255.848 173.063 254.952 174.359 254.152 175.991C253.384 177.623 252.76 179.447 252.28 181.463C251.8 183.447 251.56 185.447 251.56 187.463C251.56 191.495 252.584 193.511 254.632 193.511ZM282.475 194.663C280.843 194.663 279.515 193.335 278.491 190.679L275.851 183.719C275.531 182.951 275.131 182.567 274.651 182.567C274.171 182.567 273.755 182.967 273.403 183.767C273.083 184.471 272.731 185.431 272.347 186.647C271.995 187.831 271.659 189.127 271.339 190.535L270.619 193.703C270.523 194.055 270.299 194.231 269.947 194.231H268.075C267.627 194.231 267.451 194.023 267.547 193.607L274.555 163.511C274.683 162.967 274.683 162.583 274.555 162.359C274.427 162.103 274.139 161.959 273.691 161.927L272.251 161.783C271.771 161.719 271.563 161.511 271.627 161.159C271.691 160.871 271.915 160.695 272.299 160.631C273.675 160.407 274.779 160.151 275.611 159.863C276.443 159.575 277.083 159.239 277.531 158.855C277.787 158.663 278.011 158.567 278.203 158.567C278.619 158.567 278.779 158.807 278.683 159.287L274.219 178.295C274.187 178.519 274.235 178.647 274.363 178.679C274.491 178.711 274.603 178.631 274.699 178.439L276.283 175.607C278.587 171.511 281.179 169.463 284.059 169.463C285.147 169.463 286.011 169.751 286.651 170.327C287.291 170.903 287.611 171.687 287.611 172.679C287.611 174.247 286.843 175.815 285.307 177.383C283.803 178.951 281.819 180.231 279.355 181.223C278.587 181.511 278.363 182.023 278.683 182.759L281.467 189.863C281.787 190.663 282.107 191.239 282.427 191.591C282.747 191.911 283.147 192.071 283.627 192.071C284.363 192.071 284.923 191.623 285.307 190.727C285.691 189.799 286.027 188.199 286.315 185.927C286.379 185.511 286.571 185.303 286.891 185.303C287.243 185.303 287.403 185.623 287.371 186.263C287.211 188.951 286.699 191.031 285.835 192.503C285.003 193.943 283.883 194.663 282.475 194.663ZM275.131 180.407C275.003 180.695 274.987 180.919 275.083 181.079C275.211 181.207 275.419 181.239 275.707 181.175C278.363 180.503 280.507 179.399 282.139 177.863C283.771 176.327 284.587 174.631 284.587 172.775C284.587 171.559 284.123 170.951 283.195 170.951C282.107 170.951 280.843 171.799 279.403 173.495C277.963 175.159 276.539 177.463 275.131 180.407Z" fill="#1C91FF"/>
<path d="M128.382 231.515L131.966 221.575H133.884L137.468 231.515H135.858L134.948 228.925H130.888L129.992 231.515H128.382ZM131.364 227.553H134.486L132.918 223.017L131.364 227.553ZM142.832 231.515C142.338 231.515 141.941 231.389 141.642 231.137C141.353 230.885 141.208 230.484 141.208 229.933V221.575H142.692V229.793C142.692 230.129 142.865 230.297 143.21 230.297H143.798V231.515H142.832ZM147.63 231.683C146.902 231.683 146.272 231.524 145.74 231.207C145.217 230.88 144.811 230.428 144.522 229.849C144.242 229.261 144.102 228.575 144.102 227.791C144.102 227.007 144.242 226.326 144.522 225.747C144.811 225.159 145.217 224.706 145.74 224.389C146.262 224.062 146.878 223.899 147.588 223.899C148.26 223.899 148.852 224.058 149.366 224.375C149.879 224.683 150.276 225.131 150.556 225.719C150.845 226.307 150.99 227.016 150.99 227.847V228.225H145.642C145.679 228.953 145.87 229.499 146.216 229.863C146.57 230.227 147.046 230.409 147.644 230.409C148.082 230.409 148.442 230.311 148.722 230.115C149.011 229.91 149.216 229.63 149.338 229.275L150.878 229.373C150.682 230.073 150.294 230.633 149.716 231.053C149.146 231.473 148.451 231.683 147.63 231.683ZM145.642 227.105H149.422C149.375 226.442 149.184 225.952 148.848 225.635C148.512 225.318 148.092 225.159 147.588 225.159C147.056 225.159 146.617 225.327 146.272 225.663C145.936 225.99 145.726 226.47 145.642 227.105ZM154.23 231.683C153.455 231.683 152.834 231.506 152.368 231.151C151.91 230.796 151.682 230.297 151.682 229.653C151.682 229.018 151.873 228.519 152.256 228.155C152.648 227.791 153.25 227.53 154.062 227.371L156.624 226.881C156.624 225.733 156.087 225.159 155.014 225.159C154.538 225.159 154.164 225.266 153.894 225.481C153.623 225.696 153.436 226.004 153.334 226.405L151.808 226.307C151.948 225.56 152.293 224.972 152.844 224.543C153.404 224.114 154.127 223.899 155.014 223.899C156.022 223.899 156.787 224.17 157.31 224.711C157.842 225.243 158.108 225.994 158.108 226.965V229.863C158.108 230.04 158.136 230.166 158.192 230.241C158.257 230.306 158.36 230.339 158.5 230.339H158.766V231.515C158.635 231.543 158.453 231.557 158.22 231.557C157.8 231.557 157.464 231.473 157.212 231.305C156.969 231.128 156.815 230.829 156.75 230.409V230.367C156.563 230.759 156.241 231.076 155.784 231.319C155.326 231.562 154.808 231.683 154.23 231.683ZM154.468 230.507C155.14 230.507 155.667 230.316 156.05 229.933C156.432 229.55 156.624 229.065 156.624 228.477V228.001L154.44 228.421C153.992 228.505 153.674 228.64 153.488 228.827C153.31 229.004 153.222 229.233 153.222 229.513C153.222 229.83 153.329 230.078 153.544 230.255C153.768 230.423 154.076 230.507 154.468 230.507ZM162.11 231.683C161.475 231.683 160.925 231.524 160.458 231.207C159.991 230.89 159.632 230.442 159.38 229.863C159.128 229.275 159.002 228.584 159.002 227.791C159.002 226.998 159.128 226.312 159.38 225.733C159.632 225.145 159.991 224.692 160.458 224.375C160.925 224.058 161.475 223.899 162.11 223.899C162.623 223.899 163.081 224.006 163.482 224.221C163.883 224.436 164.187 224.734 164.392 225.117V221.575H165.876V231.515H164.49L164.448 230.395C164.243 230.806 163.93 231.123 163.51 231.347C163.099 231.571 162.633 231.683 162.11 231.683ZM162.502 230.395C163.109 230.395 163.575 230.166 163.902 229.709C164.229 229.252 164.392 228.612 164.392 227.791C164.392 226.96 164.229 226.321 163.902 225.873C163.575 225.416 163.109 225.187 162.502 225.187C161.905 225.187 161.429 225.42 161.074 225.887C160.719 226.344 160.542 226.979 160.542 227.791C160.542 228.584 160.719 229.219 161.074 229.695C161.429 230.162 161.905 230.395 162.502 230.395ZM170.411 231.683C169.683 231.683 169.053 231.524 168.521 231.207C167.998 230.88 167.592 230.428 167.303 229.849C167.023 229.261 166.883 228.575 166.883 227.791C166.883 227.007 167.023 226.326 167.303 225.747C167.592 225.159 167.998 224.706 168.521 224.389C169.044 224.062 169.66 223.899 170.369 223.899C171.041 223.899 171.634 224.058 172.147 224.375C172.66 224.683 173.057 225.131 173.337 225.719C173.626 226.307 173.771 227.016 173.771 227.847V228.225H168.423C168.46 228.953 168.652 229.499 168.997 229.863C169.352 230.227 169.828 230.409 170.425 230.409C170.864 230.409 171.223 230.311 171.503 230.115C171.792 229.91 171.998 229.63 172.119 229.275L173.659 229.373C173.463 230.073 173.076 230.633 172.497 231.053C171.928 231.473 171.232 231.683 170.411 231.683ZM168.423 227.105H172.203C172.156 226.442 171.965 225.952 171.629 225.635C171.293 225.318 170.873 225.159 170.369 225.159C169.837 225.159 169.398 225.327 169.053 225.663C168.717 225.99 168.507 226.47 168.423 227.105ZM174.775 231.515V224.067H176.133L176.175 225.481C176.315 224.996 176.529 224.641 176.819 224.417C177.117 224.184 177.495 224.067 177.953 224.067H178.667V225.397H177.953C177.383 225.397 176.959 225.537 176.679 225.817C176.399 226.097 176.259 226.531 176.259 227.119V231.515H174.775ZM179.574 225.355L179.35 222.709V221.575H180.722V222.709L180.512 225.355H179.574ZM184.615 231.683C183.533 231.683 182.721 231.45 182.179 230.983C181.638 230.507 181.339 229.9 181.283 229.163L182.809 229.093C182.875 229.504 183.043 229.83 183.313 230.073C183.584 230.316 184.018 230.437 184.615 230.437C185.082 230.437 185.437 230.362 185.679 230.213C185.931 230.064 186.057 229.826 186.057 229.499C186.057 229.312 186.015 229.158 185.931 229.037C185.847 228.916 185.684 228.813 185.441 228.729C185.199 228.636 184.839 228.547 184.363 228.463C183.635 228.323 183.066 228.16 182.655 227.973C182.254 227.777 181.969 227.539 181.801 227.259C181.633 226.97 181.549 226.62 181.549 226.209C181.549 225.537 181.806 224.986 182.319 224.557C182.833 224.118 183.575 223.899 184.545 223.899C185.227 223.899 185.787 224.016 186.225 224.249C186.664 224.473 186.995 224.772 187.219 225.145C187.443 225.518 187.579 225.92 187.625 226.349L186.099 226.433C186.071 226.078 185.936 225.775 185.693 225.523C185.46 225.271 185.068 225.145 184.517 225.145C184.032 225.145 183.673 225.238 183.439 225.425C183.206 225.612 183.089 225.854 183.089 226.153C183.089 226.48 183.197 226.727 183.411 226.895C183.635 227.054 184.051 227.18 184.657 227.273C185.413 227.394 186.001 227.553 186.421 227.749C186.851 227.936 187.154 228.174 187.331 228.463C187.509 228.743 187.597 229.084 187.597 229.485C187.597 230.185 187.322 230.726 186.771 231.109C186.221 231.492 185.502 231.683 184.615 231.683ZM194.665 233.783C193.778 233.783 193.055 233.587 192.495 233.195C191.935 232.803 191.576 232.285 191.417 231.641L192.957 231.543C193.06 231.86 193.237 232.108 193.489 232.285C193.75 232.462 194.142 232.551 194.665 232.551C195.281 232.551 195.752 232.42 196.079 232.159C196.415 231.898 196.583 231.501 196.583 230.969V229.891C196.396 230.274 196.107 230.577 195.715 230.801C195.323 231.025 194.889 231.137 194.413 231.137C193.788 231.137 193.232 230.988 192.747 230.689C192.262 230.381 191.884 229.956 191.613 229.415C191.342 228.864 191.207 228.234 191.207 227.525C191.207 226.816 191.338 226.19 191.599 225.649C191.87 225.098 192.243 224.669 192.719 224.361C193.195 224.053 193.741 223.899 194.357 223.899C194.889 223.899 195.356 224.02 195.757 224.263C196.168 224.506 196.462 224.832 196.639 225.243V224.067H198.067V230.927C198.067 231.842 197.759 232.546 197.143 233.041C196.536 233.536 195.71 233.783 194.665 233.783ZM194.651 229.877C195.23 229.877 195.692 229.667 196.037 229.247C196.392 228.827 196.574 228.248 196.583 227.511C196.592 226.783 196.42 226.209 196.065 225.789C195.71 225.369 195.239 225.159 194.651 225.159C194.044 225.159 193.573 225.374 193.237 225.803C192.91 226.223 192.747 226.792 192.747 227.511C192.747 228.239 192.915 228.818 193.251 229.247C193.596 229.667 194.063 229.877 194.651 229.877ZM202.123 231.683C201.367 231.683 200.77 231.436 200.331 230.941C199.892 230.446 199.673 229.751 199.673 228.855V224.067H201.157V228.477C201.157 229.149 201.274 229.644 201.507 229.961C201.74 230.278 202.095 230.437 202.571 230.437C203.112 230.437 203.532 230.264 203.831 229.919C204.139 229.564 204.293 229.07 204.293 228.435V224.067H205.777V231.515H204.391L204.377 230.297C203.976 231.221 203.224 231.683 202.123 231.683ZM207.198 231.515V224.067H208.682V231.515H207.198ZM207.17 222.989V221.505H208.71V222.989H207.17ZM212.79 231.683C212.155 231.683 211.604 231.524 211.138 231.207C210.671 230.89 210.312 230.442 210.06 229.863C209.808 229.275 209.682 228.584 209.682 227.791C209.682 226.998 209.808 226.312 210.06 225.733C210.312 225.145 210.671 224.692 211.138 224.375C211.604 224.058 212.155 223.899 212.79 223.899C213.303 223.899 213.76 224.006 214.162 224.221C214.563 224.436 214.866 224.734 215.072 225.117V221.575H216.556V231.515H215.17L215.128 230.395C214.922 230.806 214.61 231.123 214.19 231.347C213.779 231.571 213.312 231.683 212.79 231.683ZM213.182 230.395C213.788 230.395 214.255 230.166 214.582 229.709C214.908 229.252 215.072 228.612 215.072 227.791C215.072 226.96 214.908 226.321 214.582 225.873C214.255 225.416 213.788 225.187 213.182 225.187C212.584 225.187 212.108 225.42 211.754 225.887C211.399 226.344 211.222 226.979 211.222 227.791C211.222 228.584 211.399 229.219 211.754 229.695C212.108 230.162 212.584 230.395 213.182 230.395ZM221.091 231.683C220.363 231.683 219.733 231.524 219.201 231.207C218.678 230.88 218.272 230.428 217.983 229.849C217.703 229.261 217.563 228.575 217.563 227.791C217.563 227.007 217.703 226.326 217.983 225.747C218.272 225.159 218.678 224.706 219.201 224.389C219.723 224.062 220.339 223.899 221.049 223.899C221.721 223.899 222.313 224.058 222.827 224.375C223.34 224.683 223.737 225.131 224.017 225.719C224.306 226.307 224.451 227.016 224.451 227.847V228.225H219.103C219.14 228.953 219.331 229.499 219.677 229.863C220.031 230.227 220.507 230.409 221.105 230.409C221.543 230.409 221.903 230.311 222.183 230.115C222.472 229.91 222.677 229.63 222.799 229.275L224.339 229.373C224.143 230.073 223.755 230.633 223.177 231.053C222.607 231.473 221.912 231.683 221.091 231.683ZM219.103 227.105H222.883C222.836 226.442 222.645 225.952 222.309 225.635C221.973 225.318 221.553 225.159 221.049 225.159C220.517 225.159 220.078 225.327 219.733 225.663C219.397 225.99 219.187 226.47 219.103 227.105ZM231.351 231.515C230.642 231.515 230.119 231.356 229.783 231.039C229.447 230.712 229.279 230.199 229.279 229.499V225.285H228.145V224.067H229.279V222.317H230.763V224.067H232.737V225.285H230.763V229.387C230.763 229.732 230.838 229.97 230.987 230.101C231.137 230.232 231.365 230.297 231.673 230.297H232.737V231.515H231.351ZM236.598 231.683C235.889 231.683 235.268 231.524 234.736 231.207C234.204 230.88 233.794 230.428 233.504 229.849C233.215 229.27 233.07 228.584 233.07 227.791C233.07 226.998 233.215 226.312 233.504 225.733C233.794 225.154 234.204 224.706 234.736 224.389C235.268 224.062 235.889 223.899 236.598 223.899C237.308 223.899 237.928 224.062 238.46 224.389C238.992 224.706 239.403 225.154 239.692 225.733C239.982 226.312 240.126 226.998 240.126 227.791C240.126 228.584 239.982 229.27 239.692 229.849C239.403 230.428 238.992 230.88 238.46 231.207C237.928 231.524 237.308 231.683 236.598 231.683ZM236.598 230.395C237.233 230.395 237.723 230.166 238.068 229.709C238.414 229.252 238.586 228.612 238.586 227.791C238.586 226.979 238.414 226.344 238.068 225.887C237.723 225.42 237.233 225.187 236.598 225.187C235.973 225.187 235.483 225.42 235.128 225.887C234.783 226.344 234.61 226.979 234.61 227.791C234.61 228.612 234.783 229.252 235.128 229.709C235.483 230.166 235.973 230.395 236.598 230.395ZM247.877 231.683C247.355 231.683 246.893 231.571 246.491 231.347C246.099 231.123 245.801 230.806 245.595 230.395L245.553 231.515H244.167V221.575H245.651V225.117C245.838 224.79 246.127 224.506 246.519 224.263C246.911 224.02 247.364 223.899 247.877 223.899C248.521 223.899 249.081 224.058 249.557 224.375C250.033 224.692 250.397 225.145 250.649 225.733C250.911 226.312 251.041 226.998 251.041 227.791C251.041 228.584 250.911 229.275 250.649 229.863C250.397 230.442 250.033 230.89 249.557 231.207C249.081 231.524 248.521 231.683 247.877 231.683ZM247.639 230.395C248.209 230.395 248.661 230.162 248.997 229.695C249.333 229.228 249.501 228.594 249.501 227.791C249.501 226.97 249.333 226.33 248.997 225.873C248.671 225.416 248.223 225.187 247.653 225.187C247.028 225.187 246.538 225.416 246.183 225.873C245.829 226.33 245.651 226.97 245.651 227.791C245.651 228.594 245.824 229.228 246.169 229.695C246.524 230.162 247.014 230.395 247.639 230.395ZM254.498 231.683C253.742 231.683 253.145 231.436 252.706 230.941C252.267 230.446 252.048 229.751 252.048 228.855V224.067H253.532V228.477C253.532 229.149 253.649 229.644 253.882 229.961C254.115 230.278 254.47 230.437 254.946 230.437C255.487 230.437 255.907 230.264 256.206 229.919C256.514 229.564 256.668 229.07 256.668 228.435V224.067H258.152V231.515H256.766L256.752 230.297C256.351 231.221 255.599 231.683 254.498 231.683ZM259.573 231.515V224.067H261.057V231.515H259.573ZM259.545 222.989V221.505H261.085V222.989H259.545ZM264.17 231.515C263.675 231.515 263.279 231.389 262.98 231.137C262.691 230.885 262.546 230.484 262.546 229.933V221.575H264.03V229.793C264.03 230.129 264.203 230.297 264.548 230.297H265.136V231.515H264.17ZM268.548 231.683C267.913 231.683 267.362 231.524 266.896 231.207C266.429 230.89 266.07 230.442 265.818 229.863C265.566 229.275 265.44 228.584 265.44 227.791C265.44 226.998 265.566 226.312 265.818 225.733C266.07 225.145 266.429 224.692 266.896 224.375C267.362 224.058 267.913 223.899 268.548 223.899C269.061 223.899 269.518 224.006 269.92 224.221C270.321 224.436 270.624 224.734 270.83 225.117V221.575H272.314V231.515H270.928L270.886 230.395C270.68 230.806 270.368 231.123 269.948 231.347C269.537 231.571 269.07 231.683 268.548 231.683ZM268.94 230.395C269.546 230.395 270.013 230.166 270.34 229.709C270.666 229.252 270.83 228.612 270.83 227.791C270.83 226.96 270.666 226.321 270.34 225.873C270.013 225.416 269.546 225.187 268.94 225.187C268.342 225.187 267.866 225.42 267.512 225.887C267.157 226.344 266.98 226.979 266.98 227.791C266.98 228.584 267.157 229.219 267.512 229.695C267.866 230.162 268.342 230.395 268.94 230.395ZM273.673 231.515V224.067H275.157V231.515H273.673ZM273.645 222.989V221.505H275.185V222.989H273.645ZM276.837 231.515V224.067H278.195L278.223 225.369C278.419 224.856 278.718 224.482 279.119 224.249C279.52 224.016 279.978 223.899 280.491 223.899C281.042 223.899 281.504 224.025 281.877 224.277C282.25 224.52 282.53 224.856 282.717 225.285C282.913 225.705 283.011 226.186 283.011 226.727V231.515H281.527V227.175C281.527 226.522 281.415 226.022 281.191 225.677C280.976 225.322 280.608 225.145 280.085 225.145C279.553 225.145 279.124 225.322 278.797 225.677C278.48 226.022 278.321 226.522 278.321 227.175V231.515H276.837ZM287.441 233.783C286.554 233.783 285.831 233.587 285.271 233.195C284.711 232.803 284.351 232.285 284.193 231.641L285.733 231.543C285.835 231.86 286.013 232.108 286.265 232.285C286.526 232.462 286.918 232.551 287.441 232.551C288.057 232.551 288.528 232.42 288.855 232.159C289.191 231.898 289.359 231.501 289.359 230.969V229.891C289.172 230.274 288.883 230.577 288.491 230.801C288.099 231.025 287.665 231.137 287.189 231.137C286.563 231.137 286.008 230.988 285.523 230.689C285.037 230.381 284.659 229.956 284.389 229.415C284.118 228.864 283.983 228.234 283.983 227.525C283.983 226.816 284.113 226.19 284.375 225.649C284.645 225.098 285.019 224.669 285.495 224.361C285.971 224.053 286.517 223.899 287.133 223.899C287.665 223.899 288.131 224.02 288.533 224.263C288.943 224.506 289.237 224.832 289.415 225.243V224.067H290.843V230.927C290.843 231.842 290.535 232.546 289.919 233.041C289.312 233.536 288.486 233.783 287.441 233.783ZM287.427 229.877C288.005 229.877 288.467 229.667 288.813 229.247C289.167 228.827 289.349 228.248 289.359 227.511C289.368 226.783 289.195 226.209 288.841 225.789C288.486 225.369 288.015 225.159 287.427 225.159C286.82 225.159 286.349 225.374 286.013 225.803C285.686 226.223 285.523 226.792 285.523 227.511C285.523 228.239 285.691 228.818 286.027 229.247C286.372 229.667 286.839 229.877 287.427 229.877ZM129.208 249.615V248.397H130.118C130.37 248.397 130.557 248.36 130.678 248.285C130.8 248.21 130.893 248.084 130.958 247.907L131.196 247.291H130.734L128.046 240.067H129.614L131.658 245.919L133.604 240.067H135.186L132.218 248.383C132.069 248.812 131.845 249.125 131.546 249.321C131.257 249.517 130.851 249.615 130.328 249.615H129.208ZM138.71 247.683C138 247.683 137.38 247.524 136.848 247.207C136.316 246.88 135.905 246.428 135.616 245.849C135.326 245.27 135.182 244.584 135.182 243.791C135.182 242.998 135.326 242.312 135.616 241.733C135.905 241.154 136.316 240.706 136.848 240.389C137.38 240.062 138 239.899 138.71 239.899C139.419 239.899 140.04 240.062 140.572 240.389C141.104 240.706 141.514 241.154 141.804 241.733C142.093 242.312 142.238 242.998 142.238 243.791C142.238 244.584 142.093 245.27 141.804 245.849C141.514 246.428 141.104 246.88 140.572 247.207C140.04 247.524 139.419 247.683 138.71 247.683ZM138.71 246.395C139.344 246.395 139.834 246.166 140.18 245.709C140.525 245.252 140.698 244.612 140.698 243.791C140.698 242.979 140.525 242.344 140.18 241.887C139.834 241.42 139.344 241.187 138.71 241.187C138.084 241.187 137.594 241.42 137.24 241.887C136.894 242.344 136.722 242.979 136.722 243.791C136.722 244.612 136.894 245.252 137.24 245.709C137.594 246.166 138.084 246.395 138.71 246.395ZM145.688 247.683C144.932 247.683 144.334 247.436 143.896 246.941C143.457 246.446 143.238 245.751 143.238 244.855V240.067H144.722V244.477C144.722 245.149 144.838 245.644 145.072 245.961C145.305 246.278 145.66 246.437 146.136 246.437C146.677 246.437 147.097 246.264 147.396 245.919C147.704 245.564 147.858 245.07 147.858 244.435V240.067H149.342V247.515H147.956L147.942 246.297C147.54 247.221 146.789 247.683 145.688 247.683ZM150.941 247.515V240.067H152.299L152.341 241.481C152.481 240.996 152.695 240.641 152.985 240.417C153.283 240.184 153.661 240.067 154.119 240.067H154.833V241.397H154.119C153.549 241.397 153.125 241.537 152.845 241.817C152.565 242.097 152.425 242.531 152.425 243.119V247.515H150.941ZM158.085 247.515L161.669 237.575H163.587L167.171 247.515H165.561L164.651 244.925H160.591L159.695 247.515H158.085ZM161.067 243.553H164.189L162.621 239.017L161.067 243.553ZM167.847 247.515V237.575H169.359V247.515H167.847ZM178.221 247.739C177.259 247.739 176.433 247.534 175.743 247.123C175.052 246.703 174.52 246.106 174.147 245.331C173.773 244.556 173.587 243.632 173.587 242.559C173.587 241.486 173.773 240.562 174.147 239.787C174.52 239.003 175.052 238.401 175.743 237.981C176.433 237.561 177.259 237.351 178.221 237.351C179.191 237.351 180.022 237.561 180.713 237.981C181.413 238.401 181.945 239.003 182.309 239.787C182.682 240.562 182.869 241.486 182.869 242.559C182.869 243.632 182.682 244.556 182.309 245.331C181.945 246.106 181.413 246.703 180.713 247.123C180.022 247.534 179.191 247.739 178.221 247.739ZM178.221 246.353C179.182 246.353 179.933 246.022 180.475 245.359C181.025 244.687 181.301 243.754 181.301 242.559C181.301 241.364 181.025 240.431 180.475 239.759C179.933 239.078 179.182 238.737 178.221 238.737C177.269 238.737 176.517 239.078 175.967 239.759C175.425 240.431 175.155 241.364 175.155 242.559C175.155 243.754 175.425 244.687 175.967 245.359C176.517 246.022 177.269 246.353 178.221 246.353ZM184.034 249.615V240.067H185.434L185.462 241.201C185.677 240.772 185.98 240.45 186.372 240.235C186.774 240.011 187.222 239.899 187.716 239.899C188.444 239.899 189.042 240.081 189.508 240.445C189.984 240.8 190.334 241.271 190.558 241.859C190.792 242.447 190.908 243.091 190.908 243.791C190.908 244.491 190.792 245.135 190.558 245.723C190.334 246.311 189.984 246.787 189.508 247.151C189.042 247.506 188.444 247.683 187.716 247.683C187.24 247.683 186.806 247.58 186.414 247.375C186.022 247.16 185.724 246.871 185.518 246.507V249.615H184.034ZM187.45 246.395C188.048 246.395 188.514 246.166 188.85 245.709C189.196 245.252 189.368 244.612 189.368 243.791C189.368 242.97 189.196 242.33 188.85 241.873C188.514 241.416 188.048 241.187 187.45 241.187C186.853 241.187 186.382 241.406 186.036 241.845C185.691 242.284 185.518 242.932 185.518 243.791C185.518 244.65 185.691 245.298 186.036 245.737C186.382 246.176 186.853 246.395 187.45 246.395ZM194.981 247.683C194.253 247.683 193.623 247.524 193.091 247.207C192.569 246.88 192.163 246.428 191.873 245.849C191.593 245.261 191.453 244.575 191.453 243.791C191.453 243.007 191.593 242.326 191.873 241.747C192.163 241.159 192.569 240.706 193.091 240.389C193.614 240.062 194.23 239.899 194.939 239.899C195.611 239.899 196.204 240.058 196.717 240.375C197.231 240.683 197.627 241.131 197.907 241.719C198.197 242.307 198.341 243.016 198.341 243.847V244.225H192.993C193.031 244.953 193.222 245.499 193.567 245.863C193.922 246.227 194.398 246.409 194.995 246.409C195.434 246.409 195.793 246.311 196.073 246.115C196.363 245.91 196.568 245.63 196.689 245.275L198.229 245.373C198.033 246.073 197.646 246.633 197.067 247.053C196.498 247.473 195.803 247.683 194.981 247.683ZM192.993 243.105H196.773C196.727 242.442 196.535 241.952 196.199 241.635C195.863 241.318 195.443 241.159 194.939 241.159C194.407 241.159 193.969 241.327 193.623 241.663C193.287 241.99 193.077 242.47 192.993 243.105ZM199.345 247.515V240.067H200.703L200.745 241.481C200.885 240.996 201.1 240.641 201.389 240.417C201.688 240.184 202.066 240.067 202.523 240.067H203.237V241.397H202.523C201.954 241.397 201.529 241.537 201.249 241.817C200.969 242.097 200.829 242.531 200.829 243.119V247.515H199.345ZM205.907 247.683C205.133 247.683 204.512 247.506 204.045 247.151C203.588 246.796 203.359 246.297 203.359 245.653C203.359 245.018 203.551 244.519 203.933 244.155C204.325 243.791 204.927 243.53 205.739 243.371L208.301 242.881C208.301 241.733 207.765 241.159 206.691 241.159C206.215 241.159 205.842 241.266 205.571 241.481C205.301 241.696 205.114 242.004 205.011 242.405L203.485 242.307C203.625 241.56 203.971 240.972 204.521 240.543C205.081 240.114 205.805 239.899 206.691 239.899C207.699 239.899 208.465 240.17 208.987 240.711C209.519 241.243 209.785 241.994 209.785 242.965V245.863C209.785 246.04 209.813 246.166 209.869 246.241C209.935 246.306 210.037 246.339 210.177 246.339H210.443V247.515C210.313 247.543 210.131 247.557 209.897 247.557C209.477 247.557 209.141 247.473 208.889 247.305C208.647 247.128 208.493 246.829 208.427 246.409V246.367C208.241 246.759 207.919 247.076 207.461 247.319C207.004 247.562 206.486 247.683 205.907 247.683ZM206.145 246.507C206.817 246.507 207.345 246.316 207.727 245.933C208.11 245.55 208.301 245.065 208.301 244.477V244.001L206.117 244.421C205.669 244.505 205.352 244.64 205.165 244.827C204.988 245.004 204.899 245.233 204.899 245.513C204.899 245.83 205.007 246.078 205.221 246.255C205.445 246.423 205.753 246.507 206.145 246.507ZM213.424 247.515C212.714 247.515 212.192 247.356 211.856 247.039C211.52 246.712 211.352 246.199 211.352 245.499V241.285H210.218V240.067H211.352V238.317H212.836V240.067H214.81V241.285H212.836V245.387C212.836 245.732 212.91 245.97 213.06 246.101C213.209 246.232 213.438 246.297 213.746 246.297H214.81V247.515H213.424ZM218.671 247.683C217.961 247.683 217.341 247.524 216.809 247.207C216.277 246.88 215.866 246.428 215.577 245.849C215.287 245.27 215.143 244.584 215.143 243.791C215.143 242.998 215.287 242.312 215.577 241.733C215.866 241.154 216.277 240.706 216.809 240.389C217.341 240.062 217.961 239.899 218.671 239.899C219.38 239.899 220.001 240.062 220.533 240.389C221.065 240.706 221.475 241.154 221.765 241.733C222.054 242.312 222.199 242.998 222.199 243.791C222.199 244.584 222.054 245.27 221.765 245.849C221.475 246.428 221.065 246.88 220.533 247.207C220.001 247.524 219.38 247.683 218.671 247.683ZM218.671 246.395C219.305 246.395 219.795 246.166 220.141 245.709C220.486 245.252 220.659 244.612 220.659 243.791C220.659 242.979 220.486 242.344 220.141 241.887C219.795 241.42 219.305 241.187 218.671 241.187C218.045 241.187 217.555 241.42 217.201 241.887C216.855 242.344 216.683 242.979 216.683 243.791C216.683 244.612 216.855 245.252 217.201 245.709C217.555 246.166 218.045 246.395 218.671 246.395ZM223.198 247.515V240.067H224.556L224.598 241.481C224.738 240.996 224.953 240.641 225.242 240.417C225.541 240.184 225.919 240.067 226.376 240.067H227.09V241.397H226.376C225.807 241.397 225.382 241.537 225.102 241.817C224.822 242.097 224.682 242.531 224.682 243.119V247.515H223.198ZM232.639 247.515L230.371 240.067H231.925L233.521 245.891L235.159 240.067H236.559L238.197 245.891L239.807 240.067H241.361L239.093 247.515H237.427L235.859 242.195L234.291 247.515H232.639ZM244.903 247.683C244.194 247.683 243.573 247.524 243.041 247.207C242.509 246.88 242.098 246.428 241.809 245.849C241.52 245.27 241.375 244.584 241.375 243.791C241.375 242.998 241.52 242.312 241.809 241.733C242.098 241.154 242.509 240.706 243.041 240.389C243.573 240.062 244.194 239.899 244.903 239.899C245.612 239.899 246.233 240.062 246.765 240.389C247.297 240.706 247.708 241.154 247.997 241.733C248.286 242.312 248.431 242.998 248.431 243.791C248.431 244.584 248.286 245.27 247.997 245.849C247.708 246.428 247.297 246.88 246.765 247.207C246.233 247.524 245.612 247.683 244.903 247.683ZM244.903 246.395C245.538 246.395 246.028 246.166 246.373 245.709C246.718 245.252 246.891 244.612 246.891 243.791C246.891 242.979 246.718 242.344 246.373 241.887C246.028 241.42 245.538 241.187 244.903 241.187C244.278 241.187 243.788 241.42 243.433 241.887C243.088 242.344 242.915 242.979 242.915 243.791C242.915 244.612 243.088 245.252 243.433 245.709C243.788 246.166 244.278 246.395 244.903 246.395ZM249.431 247.515V240.067H250.789L250.831 241.481C250.971 240.996 251.186 240.641 251.475 240.417C251.774 240.184 252.152 240.067 252.609 240.067H253.323V241.397H252.609C252.04 241.397 251.615 241.537 251.335 241.817C251.055 242.097 250.915 242.531 250.915 243.119V247.515H249.431ZM254.044 247.515V237.575H255.528V243.749L258.874 240.067H260.75L257.838 243.203L260.862 247.515H259.154L256.844 244.127L255.528 245.527V247.515H254.044ZM262.025 247.515V241.285H260.989V240.067H262.025V239.591C262.025 238.975 262.197 238.485 262.543 238.121C262.888 237.757 263.425 237.575 264.153 237.575H265.483V238.793H264.363C263.793 238.793 263.509 239.087 263.509 239.675V240.067H265.371V241.285H263.509V247.515H262.025ZM269.016 247.683C268.307 247.683 267.686 247.524 267.154 247.207C266.622 246.88 266.212 246.428 265.922 245.849C265.633 245.27 265.488 244.584 265.488 243.791C265.488 242.998 265.633 242.312 265.922 241.733C266.212 241.154 266.622 240.706 267.154 240.389C267.686 240.062 268.307 239.899 269.016 239.899C269.726 239.899 270.346 240.062 270.878 240.389C271.41 240.706 271.821 241.154 272.11 241.733C272.4 242.312 272.544 242.998 272.544 243.791C272.544 244.584 272.4 245.27 272.11 245.849C271.821 246.428 271.41 246.88 270.878 247.207C270.346 247.524 269.726 247.683 269.016 247.683ZM269.016 246.395C269.651 246.395 270.141 246.166 270.486 245.709C270.832 245.252 271.004 244.612 271.004 243.791C271.004 242.979 270.832 242.344 270.486 241.887C270.141 241.42 269.651 241.187 269.016 241.187C268.391 241.187 267.901 241.42 267.546 241.887C267.201 242.344 267.028 242.979 267.028 243.791C267.028 244.612 267.201 245.252 267.546 245.709C267.901 246.166 268.391 246.395 269.016 246.395ZM273.544 247.515V240.067H274.902L274.944 241.481C275.084 240.996 275.299 240.641 275.588 240.417C275.887 240.184 276.265 240.067 276.722 240.067H277.436V241.397H276.722C276.153 241.397 275.728 241.537 275.448 241.817C275.168 242.097 275.028 242.531 275.028 243.119V247.515H273.544ZM281.059 247.683C280.35 247.683 279.729 247.524 279.197 247.207C278.665 246.88 278.255 246.428 277.965 245.849C277.676 245.261 277.531 244.575 277.531 243.791C277.531 243.007 277.676 242.326 277.965 241.747C278.255 241.159 278.665 240.706 279.197 240.389C279.729 240.062 280.35 239.899 281.059 239.899C281.965 239.899 282.716 240.137 283.313 240.613C283.911 241.08 284.27 241.742 284.391 242.601L282.837 242.685C282.763 242.2 282.567 241.831 282.249 241.579C281.932 241.318 281.535 241.187 281.059 241.187C280.434 241.187 279.944 241.42 279.589 241.887C279.244 242.344 279.071 242.979 279.071 243.791C279.071 244.612 279.244 245.252 279.589 245.709C279.944 246.166 280.434 246.395 281.059 246.395C281.535 246.395 281.932 246.264 282.249 246.003C282.567 245.732 282.763 245.326 282.837 244.785L284.391 244.869C284.27 245.728 283.911 246.414 283.313 246.927C282.725 247.431 281.974 247.683 281.059 247.683ZM288.311 247.683C287.583 247.683 286.953 247.524 286.421 247.207C285.899 246.88 285.493 246.428 285.203 245.849C284.923 245.261 284.783 244.575 284.783 243.791C284.783 243.007 284.923 242.326 285.203 241.747C285.493 241.159 285.899 240.706 286.421 240.389C286.944 240.062 287.56 239.899 288.269 239.899C288.941 239.899 289.534 240.058 290.047 240.375C290.561 240.683 290.957 241.131 291.237 241.719C291.527 242.307 291.671 243.016 291.671 243.847V244.225H286.323C286.361 244.953 286.552 245.499 286.897 245.863C287.252 246.227 287.728 246.409 288.325 246.409C288.764 246.409 289.123 246.311 289.403 246.115C289.693 245.91 289.898 245.63 290.019 245.275L291.559 245.373C291.363 246.073 290.976 246.633 290.397 247.053C289.828 247.473 289.133 247.683 288.311 247.683ZM286.323 243.105H290.103C290.057 242.442 289.865 241.952 289.529 241.635C289.193 241.318 288.773 241.159 288.269 241.159C287.737 241.159 287.299 241.327 286.953 241.663C286.617 241.99 286.407 242.47 286.323 243.105Z" fill="black"/>
<g clip-path="url(#clip1_2177_1307)">
<path d="M505.495 634.432L505.495 302L-85.495 302L-85.495 634.432L505.495 634.432Z" fill="#0A63B6"/>
<path d="M424.234 302L424.234 314.312C424.234 317.578 422.937 320.709 420.628 323.018C418.319 325.327 415.187 326.625 411.921 326.625C408.656 326.625 405.524 325.327 403.215 323.018C400.906 320.709 399.609 317.578 399.609 314.312L399.609 302L424.234 302Z" fill="#1C91FF"/>
<path d="M399.609 353.712L399.609 341.399C399.609 338.134 400.906 335.002 403.215 332.693C405.524 330.384 408.656 329.087 411.922 329.087C415.187 329.087 418.319 330.384 420.628 332.693C422.937 335.002 424.234 338.134 424.234 341.399L424.234 353.712L399.609 353.712Z" fill="#1C91FF"/>
<path d="M399.609 380.799L399.609 368.487C399.609 365.221 400.906 362.09 403.215 359.781C405.524 357.472 408.656 356.174 411.922 356.174C415.187 356.174 418.319 357.472 420.628 359.781C422.937 362.09 424.234 365.221 424.234 368.487L424.234 380.799L399.609 380.799Z" fill="#1C91FF"/>
<path d="M424.234 383.262C424.234 389.793 421.639 396.056 417.021 400.674C412.403 405.292 406.14 407.887 399.609 407.887L399.609 383.262L424.234 383.262Z" fill="#9FDBFF"/>
<path d="M399.609 422.661C399.609 429.461 405.122 434.973 411.921 434.973C418.721 434.973 424.234 429.461 424.234 422.661C424.234 415.861 418.721 410.348 411.921 410.348C405.122 410.348 399.609 415.861 399.609 422.661Z" fill="#9FDBFF"/>
<path d="M411.922 462.059C418.722 462.059 424.234 456.547 424.234 449.747C424.234 442.947 418.722 437.435 411.922 437.435C405.122 437.435 399.609 442.947 399.609 449.747C399.609 456.547 405.122 462.059 411.922 462.059Z" fill="#9FDBFF"/>
<path d="M411.921 464.523C405.122 464.523 399.609 470.035 399.609 476.835C399.609 483.635 405.122 489.147 411.921 489.147C418.721 489.147 424.234 483.635 424.234 476.835C424.234 470.035 418.721 464.523 411.921 464.523Z" fill="#9FDBFF"/>
<path d="M424.234 516.234L411.921 516.234C408.656 516.234 405.524 514.937 403.215 512.628C400.906 510.319 399.609 507.187 399.609 503.921C399.609 500.656 400.906 497.524 403.215 495.215C405.524 492.906 408.656 491.609 411.921 491.609L424.234 491.609L424.234 516.234Z" fill="#E2F78C"/>
<path d="M424.234 543.321L411.922 543.321C408.656 543.321 405.524 542.024 403.215 539.715C400.906 537.406 399.609 534.274 399.609 531.009C399.609 527.743 400.906 524.611 403.215 522.302C405.524 519.993 408.656 518.696 411.922 518.696L424.234 518.696L424.234 543.321Z" fill="#1C91FF"/>
<path d="M424.234 545.784C424.234 552.315 421.639 558.578 417.021 563.196C412.403 567.814 406.14 570.409 399.609 570.409L399.609 545.784L424.234 545.784Z" fill="#9FDBFF"/>
<path d="M411.922 572.87C405.122 572.87 399.609 578.383 399.609 585.183C399.609 591.982 405.122 597.495 411.922 597.495C418.721 597.495 424.234 591.982 424.234 585.183C424.234 578.383 418.721 572.87 411.922 572.87Z" fill="#FE9C1A"/>
<path d="M397.147 314.312C397.147 307.512 391.634 302 384.834 302C378.035 302 372.522 307.512 372.522 314.312C372.522 321.112 378.035 326.624 384.834 326.624C391.634 326.624 397.147 321.112 397.147 314.312Z" fill="#9FDBFF"/>
<path d="M397.147 341.399C397.147 334.6 391.634 329.087 384.835 329.087C378.035 329.087 372.522 334.6 372.522 341.399C372.522 348.199 378.035 353.712 384.835 353.712C391.634 353.712 397.147 348.199 397.147 341.399Z" fill="#9FDBFF"/>
<path d="M372.522 356.174C379.053 356.174 385.316 358.769 389.934 363.387C394.552 368.005 397.147 374.268 397.147 380.799L372.522 380.799L372.522 356.174Z" fill="#9FDBFF"/>
<path d="M372.522 407.885L372.522 395.573C372.522 392.308 373.819 389.176 376.128 386.867C378.437 384.558 381.569 383.261 384.835 383.261C388.1 383.261 391.232 384.558 393.541 386.867C395.85 389.176 397.147 392.308 397.147 395.573L397.147 407.885L372.522 407.885Z" fill="#1C91FF"/>
<path d="M397.147 422.66C397.147 415.861 391.634 410.348 384.835 410.348C378.035 410.348 372.522 415.861 372.522 422.66C372.522 429.46 378.035 434.973 384.835 434.973C391.634 434.973 397.147 429.46 397.147 422.66Z" fill="#9FDBFF"/>
<path d="M384.834 462.059C391.634 462.059 397.147 456.547 397.147 449.747C397.147 442.947 391.634 437.435 384.834 437.435C378.035 437.435 372.522 442.947 372.522 449.747C372.522 456.547 378.035 462.059 384.834 462.059Z" fill="#9FDBFF"/>
<path d="M384.835 489.147C391.634 489.147 397.147 483.634 397.147 476.834C397.147 470.035 391.634 464.522 384.835 464.522C378.035 464.522 372.522 470.035 372.522 476.834C372.522 483.634 378.035 489.147 384.835 489.147Z" fill="#9FDBFF"/>
<path d="M372.522 503.921C372.522 510.721 378.035 516.234 384.835 516.234C391.634 516.234 397.147 510.721 397.147 503.921C397.147 497.122 391.634 491.609 384.835 491.609C378.035 491.609 372.522 497.122 372.522 503.921Z" fill="#9FDBFF"/>
<path d="M384.834 518.696C378.035 518.696 372.522 524.209 372.522 531.009C372.522 537.808 378.035 543.321 384.834 543.321C391.634 543.321 397.147 537.808 397.147 531.009C397.147 524.209 391.634 518.696 384.834 518.696Z" fill="#9FDBFF"/>
<path d="M397.147 570.409C390.616 570.409 384.353 567.814 379.735 563.196C375.117 558.578 372.522 552.315 372.522 545.784L397.147 545.784L397.147 570.409Z" fill="#9FDBFF"/>
<path d="M372.522 597.495L372.522 585.183C372.522 581.917 373.819 578.785 376.128 576.476C378.437 574.167 381.569 572.87 384.835 572.87C388.1 572.87 391.232 574.167 393.541 576.476C395.85 578.785 397.147 581.917 397.147 585.183L397.147 597.495L372.522 597.495Z" fill="#1C91FF"/>
<path d="M370.06 302L370.06 314.312C370.06 317.578 368.763 320.709 366.454 323.018C364.145 325.327 361.013 326.625 357.747 326.625C354.482 326.625 351.35 325.327 349.041 323.018C346.732 320.709 345.435 317.578 345.435 314.312L345.435 302L370.06 302Z" fill="#1C91FF"/>
<path d="M345.435 329.087L357.747 329.087C361.013 329.087 364.145 330.385 366.454 332.694C368.763 335.003 370.06 338.134 370.06 341.4C370.06 344.665 368.763 347.797 366.454 350.106C364.145 352.415 361.013 353.712 357.747 353.712L345.435 353.712L345.435 329.087Z" fill="#1C91FF"/>
<path d="M345.435 380.799L345.435 368.487C345.435 365.221 346.732 362.09 349.041 359.781C351.35 357.472 354.482 356.174 357.747 356.174C361.013 356.174 364.145 357.472 366.454 359.781C368.763 362.09 370.06 365.221 370.06 368.487L370.06 380.799L345.435 380.799Z" fill="#1C91FF"/>
<path d="M345.435 407.885L345.435 395.573C345.435 392.308 346.732 389.176 349.041 386.867C351.35 384.558 354.482 383.261 357.747 383.261C361.013 383.261 364.145 384.558 366.454 386.867C368.763 389.176 370.06 392.308 370.06 395.573L370.06 407.885L345.435 407.885Z" fill="#FFC3DF"/>
<path d="M370.06 434.973L357.747 434.973C354.482 434.973 351.35 433.676 349.041 431.367C346.732 429.058 345.435 425.926 345.435 422.66C345.435 419.395 346.732 416.263 349.041 413.954C351.35 411.645 354.482 410.348 357.747 410.348L370.06 410.348L370.06 434.973Z" fill="#1C91FF"/>
<path d="M345.435 437.436C351.966 437.436 358.229 440.03 362.847 444.648C367.465 449.266 370.06 455.529 370.06 462.06L345.435 462.06L345.435 437.436Z" fill="#9FDBFF"/>
<path d="M345.435 489.147L345.435 476.835C345.435 473.57 346.732 470.438 349.041 468.129C351.35 465.82 354.482 464.523 357.748 464.523C361.013 464.523 364.145 465.82 366.454 468.129C368.763 470.438 370.06 473.57 370.06 476.835L370.06 489.147L345.435 489.147Z" fill="#FFC3DF"/>
<path d="M345.435 516.234L345.435 503.921C345.435 500.656 346.732 497.524 349.041 495.215C351.35 492.906 354.482 491.609 357.748 491.609C361.013 491.609 364.145 492.906 366.454 495.215C368.763 497.524 370.06 500.656 370.06 503.921L370.06 516.234L345.435 516.234Z" fill="#1C91FF"/>
<path d="M370.06 543.321C363.529 543.321 357.266 540.727 352.648 536.109C348.03 531.491 345.435 525.227 345.435 518.697L370.06 518.697L370.06 543.321Z" fill="#9FDBFF"/>
<path d="M357.747 570.409C364.547 570.409 370.06 564.896 370.06 558.096C370.06 551.297 364.547 545.784 357.747 545.784C350.948 545.784 345.435 551.297 345.435 558.096C345.435 564.896 350.948 570.409 357.747 570.409Z" fill="#9FDBFF"/>
<path d="M370.06 597.495L357.747 597.495C354.482 597.495 351.35 596.198 349.041 593.889C346.732 591.58 345.435 588.448 345.435 585.183C345.435 581.917 346.732 578.785 349.041 576.476C351.35 574.167 354.482 572.87 357.747 572.87L370.06 572.87L370.06 597.495Z" fill="#1C91FF"/>
<path d="M342.973 302C342.973 308.531 340.378 314.794 335.76 319.412C331.142 324.03 324.879 326.625 318.348 326.625L318.348 302L342.973 302Z" fill="#9FDBFF"/>
<path d="M342.973 341.399C342.973 334.599 337.46 329.087 330.66 329.087C323.861 329.087 318.348 334.599 318.348 341.399C318.348 348.199 323.861 353.712 330.66 353.712C337.46 353.712 342.973 348.199 342.973 341.399Z" fill="#9FDBFF"/>
<path d="M330.66 380.798C337.46 380.798 342.973 375.286 342.973 368.486C342.973 361.686 337.46 356.174 330.66 356.174C323.86 356.174 318.348 361.686 318.348 368.486C318.348 375.286 323.86 380.798 330.66 380.798Z" fill="#9FDBFF"/>
<path d="M342.973 407.885L330.66 407.885C327.395 407.885 324.263 406.588 321.954 404.279C319.645 401.97 318.348 398.839 318.348 395.573C318.348 392.308 319.645 389.176 321.954 386.867C324.263 384.558 327.395 383.261 330.66 383.261L342.973 383.261L342.973 407.885Z" fill="#1C91FF"/>
<path d="M342.973 410.348L342.973 422.661C342.973 425.926 341.676 429.058 339.367 431.367C337.058 433.676 333.926 434.973 330.66 434.973C327.395 434.973 324.263 433.676 321.954 431.367C319.645 429.058 318.348 425.926 318.348 422.661L318.348 410.348L342.973 410.348Z" fill="#1C91FF"/>
<path d="M318.348 462.059L318.348 449.747C318.348 446.482 319.645 443.35 321.954 441.041C324.263 438.732 327.395 437.435 330.66 437.435C333.926 437.435 337.057 438.732 339.366 441.041C341.675 443.35 342.973 446.482 342.973 449.747L342.973 462.059L318.348 462.059Z" fill="#1C91FF"/>
<path d="M318.348 489.147L318.348 476.835C318.348 473.57 319.645 470.438 321.954 468.129C324.263 465.82 327.395 464.523 330.66 464.523C333.926 464.523 337.057 465.82 339.366 468.129C341.675 470.438 342.973 473.57 342.973 476.835L342.973 489.147L318.348 489.147Z" fill="#1C91FF"/>
<path d="M342.973 516.234C336.442 516.234 330.179 513.639 325.561 509.021C320.943 504.403 318.348 498.14 318.348 491.609L342.973 491.609L342.973 516.234Z" fill="#9FDBFF"/>
<path d="M318.348 543.321L318.348 531.009C318.348 527.743 319.645 524.611 321.954 522.302C324.263 519.993 327.395 518.696 330.66 518.696C333.926 518.696 337.058 519.993 339.367 522.302C341.676 524.611 342.973 527.743 342.973 531.009L342.973 543.321L318.348 543.321Z" fill="#1C91FF"/>
<path d="M342.973 545.784C342.973 552.315 340.378 558.578 335.76 563.196C331.142 567.814 324.879 570.409 318.348 570.409L318.348 545.784L342.973 545.784Z" fill="#9FDBFF"/>
<path d="M318.348 597.495L318.348 585.183C318.348 581.917 319.645 578.785 321.954 576.476C324.263 574.167 327.395 572.87 330.66 572.87C333.926 572.87 337.058 574.167 339.367 576.476C341.676 578.785 342.973 581.917 342.973 585.183L342.973 597.495L318.348 597.495Z" fill="#1C91FF"/>
<path d="M315.886 326.625C309.355 326.625 303.091 324.03 298.473 319.412C293.855 314.794 291.261 308.531 291.261 302L315.886 302L315.886 326.625Z" fill="#9FDBFF"/>
<path d="M291.261 329.087L303.573 329.087C306.839 329.087 309.97 330.385 312.279 332.694C314.588 335.003 315.886 338.134 315.886 341.4C315.886 344.665 314.588 347.797 312.279 350.106C309.97 352.415 306.839 353.712 303.573 353.712L291.261 353.712L291.261 329.087Z" fill="#1C91FF"/>
<path d="M315.886 380.799L303.573 380.799C300.308 380.799 297.176 379.502 294.867 377.193C292.558 374.884 291.261 371.752 291.261 368.487C291.261 365.221 292.558 362.09 294.867 359.781C297.176 357.472 300.308 356.174 303.573 356.174L315.886 356.174L315.886 380.799Z" fill="#1C91FF"/>
<path d="M315.886 407.887C309.355 407.887 303.091 405.292 298.473 400.674C293.855 396.056 291.261 389.793 291.261 383.262L315.886 383.262L315.886 407.887Z" fill="#9FDBFF"/>
<path d="M315.886 422.66C315.886 415.861 310.373 410.348 303.573 410.348C296.773 410.348 291.261 415.861 291.261 422.66C291.261 429.46 296.773 434.973 303.573 434.973C310.373 434.973 315.886 429.46 315.886 422.66Z" fill="#9FDBFF"/>
<path d="M315.886 437.435L315.886 449.747C315.886 453.013 314.588 456.144 312.279 458.453C309.97 460.762 306.839 462.059 303.573 462.059C300.308 462.059 297.176 460.762 294.867 458.453C292.558 456.144 291.261 453.013 291.261 449.747L291.261 437.435L315.886 437.435Z" fill="#1C91FF"/>
<path d="M315.886 464.523L315.886 476.835C315.886 480.101 314.588 483.232 312.279 485.541C309.97 487.85 306.839 489.147 303.573 489.147C300.308 489.147 297.176 487.85 294.867 485.541C292.558 483.232 291.261 480.101 291.261 476.835L291.261 464.523L315.886 464.523Z" fill="#1C91FF"/>
<path d="M315.886 516.234C309.355 516.234 303.092 513.639 298.474 509.021C293.856 504.403 291.261 498.14 291.261 491.609L315.886 491.609L315.886 516.234Z" fill="#9FDBFF"/>
<path d="M291.261 543.321L291.261 531.009C291.261 527.743 292.558 524.611 294.867 522.302C297.176 519.993 300.308 518.696 303.573 518.696C306.839 518.696 309.971 519.993 312.28 522.302C314.589 524.611 315.886 527.743 315.886 531.009L315.886 543.321L291.261 543.321Z" fill="#1C91FF"/>
<path d="M291.261 570.407C291.261 563.877 293.855 557.613 298.474 552.995C303.092 548.377 309.355 545.783 315.886 545.783L315.886 570.407L291.261 570.407Z" fill="#9FDBFF"/>
<path d="M315.886 572.87L315.886 585.183C315.886 588.448 314.588 591.58 312.279 593.889C309.97 596.198 306.839 597.495 303.573 597.495C300.308 597.495 297.176 596.198 294.867 593.889C292.558 591.58 291.261 588.448 291.261 585.183L291.261 572.87L315.886 572.87Z" fill="#1C91FF"/>
<path d="M288.799 314.312C288.799 307.512 283.286 302 276.486 302C269.686 302 264.174 307.512 264.174 314.312C264.174 321.112 269.686 326.624 276.486 326.624C283.286 326.624 288.799 321.112 288.799 314.312Z" fill="#9FDBFF"/>
<path d="M288.799 329.087L288.799 341.399C288.799 344.665 287.501 347.797 285.192 350.106C282.883 352.415 279.752 353.712 276.486 353.712C273.221 353.712 270.089 352.415 267.78 350.106C265.471 347.797 264.174 344.665 264.174 341.399L264.174 329.087L288.799 329.087Z" fill="#1C91FF"/>
<path d="M288.799 368.487C288.799 361.687 283.286 356.174 276.486 356.174C269.686 356.174 264.174 361.687 264.174 368.487C264.174 375.287 269.686 380.799 276.486 380.799C283.286 380.799 288.799 375.287 288.799 368.487Z" fill="#9FDBFF"/>
<path d="M276.486 383.261C269.686 383.261 264.174 388.773 264.174 395.573C264.174 402.373 269.686 407.885 276.486 407.885C283.286 407.885 288.799 402.373 288.799 395.573C288.799 388.773 283.286 383.261 276.486 383.261Z" fill="#9FDBFF"/>
<path d="M288.799 434.973C282.268 434.973 276.004 432.379 271.386 427.761C266.768 423.143 264.174 416.879 264.174 410.348L288.799 410.348L288.799 434.973Z" fill="#E2F78C"/>
<path d="M264.174 462.06L264.174 449.748C264.174 446.483 265.471 443.351 267.78 441.042C270.089 438.733 273.221 437.436 276.486 437.436C279.752 437.436 282.883 438.733 285.192 441.042C287.501 443.351 288.799 446.483 288.799 449.748L288.799 462.06L264.174 462.06Z" fill="#1C91FF"/>
<path d="M276.486 464.523C269.687 464.523 264.174 470.035 264.174 476.835C264.174 483.635 269.687 489.147 276.486 489.147C283.286 489.147 288.799 483.635 288.799 476.835C288.799 470.035 283.286 464.523 276.486 464.523Z" fill="#9FDBFF"/>
<path d="M288.799 491.609L288.799 503.921C288.799 507.187 287.502 510.319 285.193 512.628C282.884 514.937 279.752 516.234 276.486 516.234C273.221 516.234 270.089 514.937 267.78 512.628C265.471 510.319 264.174 507.187 264.174 503.921L264.174 491.609L288.799 491.609Z" fill="#1C91FF"/>
<path d="M276.486 518.696C269.686 518.696 264.174 524.209 264.174 531.009C264.174 537.808 269.686 543.321 276.486 543.321C283.286 543.321 288.799 537.808 288.799 531.009C288.799 524.209 283.286 518.696 276.486 518.696Z" fill="#9FDBFF"/>
<path d="M264.174 570.407L264.174 558.095C264.174 554.83 265.471 551.698 267.78 549.389C270.089 547.08 273.221 545.783 276.486 545.783C279.752 545.783 282.883 547.08 285.192 549.389C287.501 551.698 288.799 554.83 288.799 558.095L288.799 570.407L264.174 570.407Z" fill="#1C91FF"/>
<path d="M264.174 572.87C270.705 572.87 276.968 575.465 281.586 580.083C286.204 584.701 288.799 590.964 288.799 597.495L264.174 597.495L264.174 572.87Z" fill="#9FDBFF"/>
<path d="M261.712 326.625C255.181 326.625 248.917 324.03 244.299 319.412C239.681 314.794 237.087 308.531 237.087 302L261.712 302L261.712 326.625Z" fill="#9FDBFF"/>
<path d="M237.087 329.087L249.399 329.087C252.665 329.087 255.796 330.385 258.105 332.694C260.414 335.003 261.712 338.134 261.712 341.4C261.712 344.665 260.414 347.797 258.105 350.106C255.796 352.415 252.665 353.712 249.399 353.712L237.087 353.712L237.087 329.087Z" fill="#E2F78C"/>
<path d="M249.399 356.174C242.599 356.174 237.087 361.687 237.087 368.487C237.087 375.287 242.599 380.799 249.399 380.799C256.199 380.799 261.712 375.287 261.712 368.487C261.712 361.687 256.199 356.174 249.399 356.174Z" fill="#E2F78C"/>
<path d="M249.399 407.887C256.199 407.887 261.712 402.374 261.712 395.574C261.712 388.775 256.199 383.262 249.399 383.262C242.599 383.262 237.087 388.775 237.087 395.574C237.087 402.374 242.599 407.887 249.399 407.887Z" fill="#9FDBFF"/>
<path d="M261.712 410.348L261.712 422.66C261.712 425.926 260.414 429.058 258.105 431.367C255.796 433.676 252.665 434.973 249.399 434.973C246.134 434.973 243.002 433.676 240.693 431.367C238.384 429.058 237.087 425.926 237.087 422.66L237.087 410.348L261.712 410.348Z" fill="#E2F78C"/>
<path d="M261.712 449.748C261.712 442.948 256.199 437.436 249.399 437.436C242.6 437.436 237.087 442.948 237.087 449.748C237.087 456.548 242.6 462.06 249.399 462.06C256.199 462.06 261.712 456.548 261.712 449.748Z" fill="#9FDBFF"/>
<path d="M249.399 489.147C256.199 489.147 261.712 483.634 261.712 476.834C261.712 470.035 256.199 464.522 249.399 464.522C242.599 464.522 237.087 470.035 237.087 476.834C237.087 483.634 242.599 489.147 249.399 489.147Z" fill="#9FDBFF"/>
<path d="M261.712 503.921C261.712 497.122 256.199 491.609 249.399 491.609C242.599 491.609 237.087 497.122 237.087 503.921C237.087 510.721 242.599 516.234 249.399 516.234C256.199 516.234 261.712 510.721 261.712 503.921Z" fill="#9FDBFF"/>
<path d="M261.712 543.321L249.399 543.321C246.134 543.321 243.002 542.024 240.693 539.715C238.384 537.406 237.087 534.274 237.087 531.009C237.087 527.743 238.384 524.611 240.693 522.302C243.002 519.993 246.134 518.696 249.399 518.696L261.712 518.696L261.712 543.321Z" fill="#1C91FF"/>
<path d="M249.399 545.783C242.599 545.783 237.087 551.295 237.087 558.095C237.087 564.895 242.599 570.407 249.399 570.407C256.199 570.407 261.712 564.895 261.712 558.095C261.712 551.295 256.199 545.783 249.399 545.783Z" fill="#FE9C1A"/>
<path d="M237.087 585.183C237.087 591.983 242.599 597.495 249.399 597.495C256.199 597.495 261.712 591.983 261.712 585.183C261.712 578.383 256.199 572.87 249.399 572.87C242.599 572.87 237.087 578.383 237.087 585.183Z" fill="#9FDBFF"/>
<path d="M222.312 302C215.512 302 210 307.512 210 314.312C210 321.112 215.512 326.624 222.312 326.624C229.112 326.624 234.625 321.112 234.625 314.312C234.625 307.512 229.112 302 222.312 302Z" fill="#9FDBFF"/>
<path d="M234.625 329.087L234.625 341.4C234.625 344.665 233.327 347.797 231.018 350.106C228.709 352.415 225.578 353.712 222.312 353.712C219.047 353.712 215.915 352.415 213.606 350.106C211.297 347.797 210 344.665 210 341.4L210 329.087L234.625 329.087Z" fill="#1C91FF"/>
<path d="M210 356.174L222.312 356.174C225.578 356.174 228.709 357.471 231.018 359.78C233.327 362.089 234.625 365.221 234.625 368.486C234.625 371.751 233.327 374.883 231.018 377.192C228.709 379.501 225.578 380.798 222.312 380.798L210 380.798L210 356.174Z" fill="#1C91FF"/>
<path d="M210 395.574C210 402.374 215.512 407.887 222.312 407.887C229.112 407.887 234.625 402.374 234.625 395.574C234.625 388.775 229.112 383.262 222.312 383.262C215.512 383.262 210 388.775 210 395.574Z" fill="#9FDBFF"/>
<path d="M234.625 434.973C228.094 434.973 221.83 432.379 217.212 427.761C212.594 423.143 210 416.879 210 410.348L234.625 410.348L234.625 434.973Z" fill="#9FDBFF"/>
<path d="M210 449.747C210 456.547 215.513 462.059 222.312 462.059C229.112 462.059 234.625 456.547 234.625 449.747C234.625 442.947 229.112 437.435 222.312 437.435C215.513 437.435 210 442.947 210 449.747Z" fill="#9FDBFF"/>
<path d="M210 489.147L210 476.835C210 473.57 211.297 470.438 213.606 468.129C215.915 465.82 219.047 464.523 222.312 464.523C225.578 464.523 228.709 465.82 231.018 468.129C233.327 470.438 234.625 473.57 234.625 476.835L234.625 489.147L210 489.147Z" fill="#1C91FF"/>
<path d="M222.312 491.609C215.512 491.609 210 497.122 210 503.921C210 510.721 215.512 516.234 222.312 516.234C229.112 516.234 234.625 510.721 234.625 503.921C234.625 497.122 229.112 491.609 222.312 491.609Z" fill="#9FDBFF"/>
<path d="M234.625 518.696L234.625 531.009C234.625 534.274 233.327 537.406 231.018 539.715C228.709 542.024 225.578 543.321 222.312 543.321C219.047 543.321 215.915 542.024 213.606 539.715C211.297 537.406 210 534.274 210 531.009L210 518.696L234.625 518.696Z" fill="#1C91FF"/>
<path d="M222.312 545.783C215.512 545.783 210 551.295 210 558.095C210 564.895 215.512 570.407 222.312 570.407C229.112 570.407 234.625 564.895 234.625 558.095C234.625 551.295 229.112 545.783 222.312 545.783Z" fill="#9FDBFF"/>
<path d="M210 597.495L210 585.183C210 581.917 211.297 578.785 213.606 576.476C215.915 574.167 219.047 572.87 222.312 572.87C225.578 572.87 228.709 574.167 231.018 576.476C233.327 578.785 234.625 581.917 234.625 585.183L234.625 597.495L210 597.495Z" fill="#1C91FF"/>
<path d="M207.538 314.312C207.538 307.512 202.025 302 195.225 302C188.425 302 182.913 307.512 182.913 314.312C182.913 321.112 188.425 326.624 195.225 326.624C202.025 326.624 207.538 321.112 207.538 314.312Z" fill="#9FDBFF"/>
<path d="M182.913 353.712C182.913 347.181 185.507 340.917 190.125 336.299C194.743 331.681 201.007 329.087 207.538 329.087L207.538 353.712L182.913 353.712Z" fill="#9FDBFF"/>
<path d="M207.538 356.174C207.538 362.704 204.943 368.968 200.325 373.586C195.707 378.204 189.444 380.798 182.913 380.798L182.913 356.174L207.538 356.174Z" fill="#9FDBFF"/>
<path d="M182.913 383.262L195.225 383.262C198.491 383.262 201.622 384.559 203.931 386.868C206.24 389.177 207.538 392.309 207.538 395.574C207.538 398.84 206.24 401.972 203.931 404.281C201.622 406.59 198.491 407.887 195.225 407.887L182.913 407.887L182.913 383.262Z" fill="#1C91FF"/>
<path d="M195.225 410.348C188.425 410.348 182.913 415.861 182.913 422.66C182.913 429.46 188.425 434.973 195.225 434.973C202.025 434.973 207.538 429.46 207.538 422.66C207.538 415.861 202.025 410.348 195.225 410.348Z" fill="#9FDBFF"/>
<path d="M207.538 462.06L195.225 462.06C191.96 462.06 188.828 460.763 186.519 458.454C184.21 456.145 182.913 453.013 182.913 449.748C182.913 446.483 184.21 443.351 186.519 441.042C188.828 438.733 191.96 437.436 195.225 437.436L207.538 437.436L207.538 462.06Z" fill="#FFC3DF"/>
<path d="M182.913 464.523C189.444 464.523 195.707 467.117 200.325 471.735C204.943 476.353 207.538 482.617 207.538 489.147L182.913 489.147L182.913 464.523Z" fill="#9FDBFF"/>
<path d="M207.538 503.921C207.538 497.122 202.025 491.609 195.225 491.609C188.425 491.609 182.913 497.122 182.913 503.921C182.913 510.721 188.425 516.234 195.225 516.234C202.025 516.234 207.538 510.721 207.538 503.921Z" fill="#9FDBFF"/>
<path d="M195.225 518.696C188.425 518.696 182.913 524.209 182.913 531.009C182.913 537.808 188.425 543.321 195.225 543.321C202.025 543.321 207.537 537.808 207.537 531.009C207.537 524.209 202.025 518.696 195.225 518.696Z" fill="#9FDBFF"/>
<path d="M182.913 545.784L195.225 545.784C198.491 545.784 201.622 547.081 203.931 549.39C206.24 551.699 207.537 554.831 207.537 558.096C207.537 561.362 206.24 564.494 203.931 566.803C201.622 569.112 198.491 570.409 195.225 570.409L182.913 570.409L182.913 545.784Z" fill="#1C91FF"/>
<path d="M207.537 597.495L195.225 597.495C191.96 597.495 188.828 596.198 186.519 593.889C184.21 591.58 182.913 588.448 182.913 585.183C182.913 581.917 184.21 578.786 186.519 576.477C188.828 574.168 191.96 572.87 195.225 572.87L207.537 572.87L207.537 597.495Z" fill="#1C91FF"/>
<path d="M155.826 302C162.357 302 168.62 304.594 173.238 309.212C177.856 313.83 180.451 320.094 180.451 326.624L155.826 326.624L155.826 302Z" fill="#9FDBFF"/>
<path d="M155.826 353.712C155.826 347.181 158.42 340.918 163.038 336.3C167.656 331.682 173.92 329.087 180.45 329.087L180.45 353.712L155.826 353.712Z" fill="#9FDBFF"/>
<path d="M155.826 368.486C155.826 375.286 161.338 380.798 168.138 380.798C174.938 380.798 180.451 375.286 180.451 368.486C180.451 361.686 174.938 356.174 168.138 356.174C161.338 356.174 155.826 361.686 155.826 368.486Z" fill="#9FDBFF"/>
<path d="M155.826 407.885C155.826 401.355 158.42 395.091 163.038 390.473C167.656 385.855 173.92 383.261 180.451 383.261L180.451 407.885L155.826 407.885Z" fill="#E2F78C"/>
<path d="M155.826 410.348C162.357 410.348 168.62 412.943 173.238 417.561C177.856 422.179 180.451 428.442 180.451 434.973L155.826 434.973L155.826 410.348Z" fill="#9FDBFF"/>
<path d="M168.138 437.436C161.338 437.436 155.826 442.948 155.826 449.748C155.826 456.548 161.338 462.06 168.138 462.06C174.938 462.06 180.451 456.548 180.451 449.748C180.451 442.948 174.938 437.436 168.138 437.436Z" fill="#9FDBFF"/>
<path d="M180.45 489.147C173.92 489.147 167.656 486.552 163.038 481.934C158.42 477.316 155.826 471.053 155.826 464.522L180.451 464.522L180.45 489.147Z" fill="#FE9C1A"/>
<path d="M155.826 503.921C155.826 510.721 161.338 516.234 168.138 516.234C174.938 516.234 180.45 510.721 180.45 503.921C180.45 497.122 174.938 491.609 168.138 491.609C161.338 491.609 155.826 497.122 155.826 503.921Z" fill="#9FDBFF"/>
<path d="M155.826 543.321L155.826 531.009C155.826 527.743 157.123 524.611 159.432 522.302C161.741 519.993 164.873 518.696 168.138 518.696C171.404 518.696 174.535 519.993 176.844 522.302C179.153 524.611 180.45 527.743 180.45 531.009L180.45 543.321L155.826 543.321Z" fill="#1C91FF"/>
<path d="M180.45 570.407L168.138 570.407C164.873 570.407 161.741 569.11 159.432 566.801C157.123 564.492 155.826 561.361 155.826 558.095C155.826 554.83 157.123 551.698 159.432 549.389C161.741 547.08 164.873 545.783 168.138 545.783L180.45 545.783L180.45 570.407Z" fill="#1C91FF"/>
<path d="M155.826 572.87L168.138 572.87C171.404 572.87 174.535 574.168 176.844 576.477C179.153 578.786 180.45 581.917 180.45 585.183C180.45 588.448 179.153 591.58 176.844 593.889C174.535 596.198 171.404 597.495 168.138 597.495L155.826 597.495L155.826 572.87Z" fill="#1C91FF"/>
<path d="M128.739 302L141.051 302C144.317 302 147.448 303.297 149.757 305.606C152.066 307.915 153.363 311.047 153.363 314.312C153.363 317.578 152.066 320.709 149.757 323.018C147.448 325.327 144.317 326.625 141.051 326.625L128.739 326.625L128.739 302Z" fill="#1C91FF"/>
<path d="M128.739 329.087L141.051 329.087C144.317 329.087 147.448 330.385 149.757 332.694C152.066 335.003 153.363 338.134 153.363 341.4C153.363 344.665 152.066 347.797 149.757 350.106C147.448 352.415 144.317 353.712 141.051 353.712L128.739 353.712L128.739 329.087Z" fill="#1C91FF"/>
<path d="M153.363 356.174L153.363 368.486C153.363 371.751 152.066 374.883 149.757 377.192C147.448 379.501 144.317 380.798 141.051 380.798C137.786 380.798 134.654 379.501 132.345 377.192C130.036 374.883 128.739 371.751 128.739 368.486L128.739 356.174L153.363 356.174Z" fill="#1C91FF"/>
<path d="M153.363 383.262L153.363 395.574C153.363 398.84 152.066 401.972 149.757 404.281C147.448 406.59 144.317 407.887 141.051 407.887C137.786 407.887 134.654 406.59 132.345 404.281C130.036 401.972 128.739 398.84 128.739 395.574L128.739 383.262L153.363 383.262Z" fill="#1C91FF"/>
<path d="M153.363 434.973L141.051 434.973C137.786 434.973 134.654 433.676 132.345 431.367C130.036 429.058 128.739 425.926 128.739 422.66C128.739 419.395 130.036 416.263 132.345 413.954C134.654 411.645 137.786 410.348 141.051 410.348L153.363 410.348L153.363 434.973Z" fill="#1C91FF"/>
<path d="M128.739 462.06C128.739 455.529 131.333 449.266 135.951 444.648C140.569 440.03 146.833 437.436 153.363 437.436L153.363 462.06L128.739 462.06Z" fill="#9FDBFF"/>
<path d="M153.363 489.147C146.833 489.147 140.569 486.552 135.951 481.934C131.333 477.316 128.739 471.053 128.739 464.522L153.363 464.522L153.363 489.147Z" fill="#9FDBFF"/>
<path d="M141.051 516.234C147.851 516.234 153.363 510.721 153.363 503.921C153.363 497.122 147.851 491.609 141.051 491.609C134.251 491.609 128.739 497.122 128.739 503.921C128.739 510.721 134.251 516.234 141.051 516.234Z" fill="#9FDBFF"/>
<path d="M141.051 543.321C147.851 543.321 153.363 537.809 153.363 531.009C153.363 524.209 147.851 518.697 141.051 518.697C134.251 518.697 128.739 524.209 128.739 531.009C128.739 537.809 134.251 543.321 141.051 543.321Z" fill="#9FDBFF"/>
<path d="M128.739 570.407C128.739 563.877 131.333 557.613 135.951 552.995C140.569 548.377 146.833 545.783 153.363 545.783L153.363 570.407L128.739 570.407Z" fill="#E2F78C"/>
<path d="M128.739 585.183C128.739 591.983 134.251 597.495 141.051 597.495C147.851 597.495 153.363 591.983 153.363 585.183C153.363 578.383 147.851 572.87 141.051 572.87C134.251 572.87 128.739 578.383 128.739 585.183Z" fill="#9FDBFF"/>
<path d="M101.652 326.624C101.652 320.094 104.246 313.83 108.864 309.212C113.482 304.594 119.746 302 126.277 302L126.277 326.624L101.652 326.624Z" fill="#9FDBFF"/>
<path d="M101.652 329.087C108.183 329.087 114.446 331.682 119.064 336.3C123.682 340.918 126.276 347.181 126.276 353.712L101.652 353.712L101.652 329.087Z" fill="#9FDBFF"/>
<path d="M101.652 380.798L101.652 368.486C101.652 365.221 102.949 362.089 105.258 359.78C107.567 357.471 110.699 356.174 113.964 356.174C117.23 356.174 120.361 357.471 122.67 359.78C124.979 362.089 126.276 365.221 126.276 368.486L126.276 380.798L101.652 380.798Z" fill="#1C91FF"/>
<path d="M101.652 383.262L113.964 383.262C117.23 383.262 120.361 384.559 122.67 386.868C124.979 389.177 126.277 392.309 126.277 395.574C126.277 398.84 124.979 401.972 122.67 404.281C120.361 406.59 117.23 407.887 113.964 407.887L101.652 407.887L101.652 383.262Z" fill="#1C91FF"/>
<path d="M101.652 410.348C108.183 410.348 114.446 412.943 119.064 417.561C123.682 422.179 126.276 428.442 126.276 434.973L101.652 434.973L101.652 410.348Z" fill="#9FDBFF"/>
<path d="M126.277 437.435L126.277 449.747C126.277 453.012 124.979 456.144 122.67 458.453C120.361 460.762 117.23 462.059 113.964 462.059C110.699 462.059 107.567 460.762 105.258 458.453C102.949 456.144 101.652 453.012 101.652 449.747L101.652 437.435L126.277 437.435Z" fill="#1C91FF"/>
<path d="M126.276 489.147L113.964 489.147C110.699 489.147 107.567 487.85 105.258 485.541C102.949 483.232 101.652 480.101 101.652 476.835C101.652 473.57 102.949 470.438 105.258 468.129C107.567 465.82 110.699 464.523 113.964 464.523L126.276 464.523L126.276 489.147Z" fill="#1C91FF"/>
<path d="M126.276 491.609L126.276 503.921C126.276 507.187 124.979 510.319 122.67 512.628C120.361 514.937 117.23 516.234 113.964 516.234C110.699 516.234 107.567 514.937 105.258 512.628C102.949 510.319 101.652 507.187 101.652 503.921L101.652 491.609L126.276 491.609Z" fill="#1C91FF"/>
<path d="M126.276 518.697L126.276 531.009C126.276 534.274 124.979 537.406 122.67 539.715C120.361 542.024 117.23 543.321 113.964 543.321C110.699 543.321 107.567 542.024 105.258 539.715C102.949 537.406 101.652 534.274 101.652 531.009L101.652 518.697L126.276 518.697Z" fill="#E2F78C"/>
<path d="M101.652 545.784L113.964 545.784C117.23 545.784 120.361 547.081 122.67 549.39C124.979 551.699 126.276 554.831 126.276 558.096C126.276 561.362 124.979 564.494 122.67 566.803C120.361 569.112 117.23 570.409 113.964 570.409L101.652 570.409L101.652 545.784Z" fill="#1C91FF"/>
<path d="M126.276 572.87L126.276 585.183C126.276 588.448 124.979 591.58 122.67 593.889C120.361 596.198 117.23 597.495 113.964 597.495C110.699 597.495 107.567 596.198 105.258 593.889C102.949 591.58 101.652 588.448 101.652 585.183L101.652 572.87L126.276 572.87Z" fill="#1C91FF"/>
<path d="M74.5648 326.624C74.5648 320.094 77.1592 313.83 81.7772 309.212C86.3952 304.594 92.6585 302 99.1894 302L99.1894 326.624L74.5648 326.624Z" fill="#9FDBFF"/>
<path d="M74.5649 341.4C74.5649 348.2 80.0773 353.712 86.8772 353.712C93.6771 353.712 99.1895 348.2 99.1895 341.4C99.1895 334.6 93.6771 329.087 86.8772 329.087C80.0773 329.087 74.5649 334.6 74.5649 341.4Z" fill="#9FDBFF"/>
<path d="M74.5648 380.799L74.5648 368.487C74.5648 365.221 75.862 362.09 78.171 359.781C80.48 357.472 83.6117 356.174 86.8771 356.174C90.1425 356.174 93.2742 357.472 95.5832 359.781C97.8922 362.09 99.1894 365.221 99.1894 368.487L99.1894 380.799L74.5648 380.799Z" fill="#1C91FF"/>
<path d="M74.5648 407.885C74.5648 401.355 77.1591 395.091 81.7772 390.473C86.3952 385.855 92.6585 383.261 99.1894 383.261L99.1894 407.885L74.5648 407.885Z" fill="#FE9C1A"/>
<path d="M99.1894 422.66C99.1894 415.861 93.677 410.348 86.8771 410.348C80.0772 410.348 74.5648 415.861 74.5648 422.66C74.5648 429.46 80.0772 434.973 86.8771 434.973C93.677 434.973 99.1894 429.46 99.1894 422.66Z" fill="#FE9C1A"/>
<path d="M99.1894 437.435C99.1894 443.966 96.595 450.229 91.977 454.847C87.359 459.465 81.0957 462.059 74.5648 462.059L74.5648 437.435L99.1894 437.435Z" fill="#9FDBFF"/>
<path d="M74.5648 464.522L86.8771 464.522C90.1425 464.522 93.2742 465.819 95.5832 468.128C97.8922 470.437 99.1894 473.569 99.1894 476.834C99.1894 480.1 97.8922 483.232 95.5832 485.541C93.2742 487.85 90.1425 489.147 86.8771 489.147L74.5648 489.147L74.5648 464.522Z" fill="#1C91FF"/>
<path d="M86.8771 516.234C93.677 516.234 99.1894 510.721 99.1894 503.921C99.1894 497.122 93.677 491.609 86.8771 491.609C80.0772 491.609 74.5648 497.122 74.5648 503.921C74.5648 510.721 80.0772 516.234 86.8771 516.234Z" fill="#9FDBFF"/>
<path d="M74.5648 518.696C81.0957 518.696 87.359 521.291 91.977 525.909C96.595 530.527 99.1894 536.79 99.1894 543.321L74.5648 543.321L74.5648 518.696Z" fill="#9FDBFF"/>
<path d="M74.5648 570.407L74.5648 558.095C74.5648 554.83 75.862 551.698 78.171 549.389C80.48 547.08 83.6117 545.783 86.8771 545.783C90.1425 545.783 93.2742 547.08 95.5832 549.389C97.8922 551.698 99.1894 554.83 99.1894 558.095L99.1894 570.407L74.5648 570.407Z" fill="#1C91FF"/>
<path d="M74.5648 597.495L74.5648 585.183C74.5648 581.917 75.862 578.786 78.171 576.477C80.48 574.168 83.6117 572.87 86.8771 572.87C90.1425 572.87 93.2742 574.168 95.5832 576.477C97.8922 578.786 99.1894 581.917 99.1894 585.183L99.1894 597.495L74.5648 597.495Z" fill="#1C91FF"/>
<path d="M72.1024 326.625C65.5715 326.625 59.3082 324.03 54.6901 319.412C50.0721 314.794 47.4778 308.531 47.4778 302L72.1024 302L72.1024 326.625Z" fill="#9FDBFF"/>
<path d="M47.4778 329.087C54.0086 329.087 60.272 331.682 64.89 336.3C69.508 340.918 72.1024 347.181 72.1024 353.712L47.4778 353.712L47.4778 329.087Z" fill="#E2F78C"/>
<path d="M59.7901 356.174C52.9902 356.174 47.4778 361.687 47.4778 368.487C47.4778 375.287 52.9902 380.799 59.7901 380.799C66.5899 380.799 72.1023 375.287 72.1023 368.487C72.1023 361.687 66.5899 356.174 59.7901 356.174Z" fill="#9FDBFF"/>
<path d="M72.1024 383.262C72.1024 389.793 69.508 396.056 64.89 400.674C60.272 405.292 54.0087 407.887 47.4778 407.887L47.4778 383.262L72.1024 383.262Z" fill="#9FDBFF"/>
<path d="M47.4778 410.348C54.0086 410.348 60.272 412.943 64.89 417.561C69.508 422.179 72.1023 428.442 72.1023 434.973L47.4778 434.973L47.4778 410.348Z" fill="#9FDBFF"/>
<path d="M72.1024 449.748C72.1024 442.948 66.59 437.436 59.7901 437.436C52.9902 437.436 47.4778 442.948 47.4778 449.748C47.4778 456.548 52.9902 462.06 59.7901 462.06C66.59 462.06 72.1024 456.548 72.1024 449.748Z" fill="#9FDBFF"/>
<path d="M72.1024 464.523L72.1024 476.835C72.1024 480.101 70.8052 483.232 68.4962 485.541C66.1872 487.85 63.0555 489.147 59.7901 489.147C56.5247 489.147 53.393 487.85 51.084 485.541C48.775 483.232 47.4778 480.101 47.4778 476.835L47.4778 464.523L72.1024 464.523Z" fill="#1C91FF"/>
<path d="M47.4778 491.609L59.7901 491.609C63.0555 491.609 66.1872 492.906 68.4962 495.215C70.8052 497.524 72.1024 500.656 72.1024 503.921C72.1024 507.187 70.8052 510.319 68.4962 512.628C66.1872 514.937 63.0555 516.234 59.7901 516.234L47.4778 516.234L47.4778 491.609Z" fill="#1C91FF"/>
<path d="M59.7901 543.321C66.59 543.321 72.1024 537.809 72.1024 531.009C72.1024 524.209 66.59 518.697 59.7901 518.697C52.9902 518.697 47.4778 524.209 47.4778 531.009C47.4778 537.809 52.9902 543.321 59.7901 543.321Z" fill="#9FDBFF"/>
<path d="M47.4778 570.409L47.4778 558.096C47.4778 554.831 48.775 551.699 51.084 549.39C53.393 547.081 56.5247 545.784 59.7901 545.784C63.0555 545.784 66.1872 547.081 68.4962 549.39C70.8052 551.699 72.1024 554.831 72.1024 558.096L72.1024 570.409L47.4778 570.409Z" fill="#1C91FF"/>
<path d="M59.79 572.87C52.9901 572.87 47.4777 578.383 47.4777 585.183C47.4777 591.983 52.9901 597.495 59.79 597.495C66.5899 597.495 72.1023 591.983 72.1023 585.183C72.1023 578.383 66.5899 572.87 59.79 572.87Z" fill="#9FDBFF"/>
<path d="M20.3907 302L32.703 302C35.9684 302 39.1001 303.297 41.4091 305.606C43.7181 307.915 45.0153 311.047 45.0153 314.312C45.0153 317.578 43.7181 320.709 41.4091 323.018C39.1001 325.327 35.9684 326.625 32.703 326.625L20.3907 326.625L20.3907 302Z" fill="#1C91FF"/>
<path d="M20.3907 353.712L20.3907 341.399C20.3907 338.134 21.6879 335.002 23.9969 332.693C26.3059 330.384 29.4376 329.087 32.703 329.087C35.9684 329.087 39.1001 330.384 41.4091 332.693C43.7181 335.002 45.0153 338.134 45.0153 341.399L45.0153 353.712L20.3907 353.712Z" fill="#1C91FF"/>
<path d="M45.0153 380.799L32.703 380.799C29.4376 380.799 26.3059 379.502 23.9969 377.193C21.6879 374.884 20.3907 371.752 20.3907 368.487C20.3907 365.221 21.6879 362.09 23.9969 359.781C26.3059 357.472 29.4376 356.174 32.703 356.174L45.0153 356.174L45.0153 380.799Z" fill="#1C91FF"/>
<path d="M45.0153 407.885L32.703 407.885C29.4376 407.885 26.3059 406.588 23.9969 404.279C21.6879 401.97 20.3907 398.839 20.3907 395.573C20.3907 392.308 21.6879 389.176 23.9969 386.867C26.3059 384.558 29.4376 383.261 32.703 383.261L45.0153 383.261L45.0153 407.885Z" fill="#FFC3DF"/>
<path d="M20.3907 422.661C20.3907 429.461 25.9031 434.973 32.703 434.973C39.5029 434.973 45.0153 429.461 45.0153 422.661C45.0153 415.861 39.5029 410.348 32.703 410.348C25.9031 410.348 20.3907 415.861 20.3907 422.661Z" fill="#9FDBFF"/>
<path d="M20.3908 462.059L20.3908 449.747C20.3908 446.482 21.688 443.35 23.997 441.041C26.306 438.732 29.4377 437.435 32.7031 437.435C35.9685 437.435 39.1002 438.732 41.4092 441.041C43.7182 443.35 45.0154 446.482 45.0154 449.747L45.0154 462.059L20.3908 462.059Z" fill="#1C91FF"/>
<path d="M45.0153 476.835C45.0153 470.035 39.5029 464.523 32.703 464.523C25.9032 464.523 20.3908 470.035 20.3908 476.835C20.3908 483.635 25.9032 489.147 32.703 489.147C39.5029 489.147 45.0153 483.635 45.0153 476.835Z" fill="#9FDBFF"/>
<path d="M20.3908 516.234L20.3908 503.921C20.3908 500.656 21.6879 497.524 23.9969 495.215C26.3059 492.906 29.4376 491.609 32.703 491.609C35.9685 491.609 39.1001 492.906 41.4092 495.215C43.7182 497.524 45.0153 500.656 45.0153 503.921L45.0153 516.234L20.3908 516.234Z" fill="#1C91FF"/>
<path d="M20.3907 543.321L20.3907 531.009C20.3907 527.743 21.6879 524.611 23.9969 522.302C26.3059 519.993 29.4376 518.696 32.703 518.696C35.9685 518.696 39.1001 519.993 41.4091 522.302C43.7181 524.611 45.0153 527.743 45.0153 531.009L45.0153 543.321L20.3907 543.321Z" fill="#1C91FF"/>
<path d="M20.3907 570.409L20.3907 558.096C20.3907 554.831 21.6879 551.699 23.9969 549.39C26.3059 547.081 29.4376 545.784 32.703 545.784C35.9685 545.784 39.1001 547.081 41.4091 549.39C43.7181 551.699 45.0153 554.831 45.0153 558.096L45.0153 570.409L20.3907 570.409Z" fill="#1C91FF"/>
<path d="M20.3907 597.495L20.3907 585.183C20.3907 581.917 21.6879 578.786 23.9969 576.477C26.3059 574.168 29.4376 572.87 32.703 572.87C35.9684 572.87 39.1001 574.168 41.4091 576.477C43.7181 578.786 45.0153 581.917 45.0153 585.183L45.0153 597.495L20.3907 597.495Z" fill="#E2F78C"/>
<path d="M17.9283 314.312C17.9283 307.512 12.4159 302 5.616 302C-1.18389 302 -6.69629 307.512 -6.69629 314.312C-6.69629 321.112 -1.18389 326.624 5.616 326.624C12.4159 326.624 17.9283 321.112 17.9283 314.312Z" fill="#9FDBFF"/>
<path d="M-6.69636 329.087L5.61593 329.087C8.88135 329.087 12.013 330.385 14.322 332.694C16.631 335.003 17.9282 338.134 17.9282 341.4C17.9282 344.665 16.631 347.797 14.322 350.106C12.013 352.415 8.88135 353.712 5.61593 353.712L-6.69636 353.712L-6.69636 329.087Z" fill="#E2F78C"/>
<path d="M17.9282 368.487C17.9282 361.687 12.4158 356.174 5.61594 356.174C-1.18395 356.174 -6.69635 361.687 -6.69635 368.487C-6.69635 375.287 -1.18395 380.799 5.61594 380.799C12.4158 380.799 17.9282 375.287 17.9282 368.487Z" fill="#9FDBFF"/>
<path d="M-6.69629 383.262L5.616 383.262C8.88142 383.262 12.0131 384.559 14.3221 386.868C16.6311 389.177 17.9283 392.309 17.9283 395.574C17.9283 398.84 16.6311 401.972 14.3221 404.281C12.0131 406.59 8.88142 407.887 5.616 407.887L-6.69629 407.887L-6.69629 383.262Z" fill="#1C91FF"/>
<path d="M-6.69629 434.973L-6.69629 422.661C-6.69629 419.395 -5.39911 416.264 -3.09011 413.955C-0.781104 411.646 2.35058 410.348 5.616 410.348C8.88142 410.348 12.0131 411.646 14.3221 413.955C16.6311 416.264 17.9283 419.395 17.9283 422.661L17.9283 434.973L-6.69629 434.973Z" fill="#1C91FF"/>
<path d="M17.9282 462.059C11.3974 462.059 5.13404 459.465 0.516038 454.847C-4.10197 450.229 -6.69633 443.966 -6.69633 437.435L17.9282 437.435L17.9282 462.059Z" fill="#9FDBFF"/>
<path d="M-6.69631 489.147L-6.69631 476.835C-6.69631 473.57 -5.39913 470.438 -3.09012 468.129C-0.781122 465.82 2.35056 464.523 5.61598 464.523C8.8814 464.523 12.0131 465.82 14.3221 468.129C16.6311 470.438 17.9283 473.57 17.9283 476.835L17.9283 489.147L-6.69631 489.147Z" fill="#1C91FF"/>
<path d="M17.9283 503.921C17.9283 497.122 12.4159 491.609 5.61599 491.609C-1.1839 491.609 -6.6963 497.122 -6.6963 503.921C-6.6963 510.721 -1.1839 516.234 5.61599 516.234C12.4159 516.234 17.9283 510.721 17.9283 503.921Z" fill="#FE9C1A"/>
<path d="M-6.69637 543.321C-6.69637 536.79 -4.102 530.527 0.516004 525.909C5.13401 521.291 11.3974 518.696 17.9282 518.696L17.9282 543.321L-6.69637 543.321Z" fill="#9FDBFF"/>
<path d="M17.9282 545.783L17.9282 558.095C17.9282 561.361 16.631 564.492 14.322 566.801C12.013 569.11 8.88134 570.407 5.61592 570.407C2.3505 570.407 -0.781183 569.11 -3.09018 566.801C-5.39919 564.492 -6.69637 561.361 -6.69637 558.095L-6.69637 545.783L17.9282 545.783Z" fill="#1C91FF"/>
<path d="M17.9282 572.87L17.9282 585.183C17.9282 588.448 16.631 591.58 14.322 593.889C12.013 596.198 8.88134 597.495 5.61592 597.495C2.3505 597.495 -0.781183 596.198 -3.09018 593.889C-5.39919 591.58 -6.69637 588.448 -6.69637 585.183L-6.69637 572.87L17.9282 572.87Z" fill="#FFC3DF"/>
</g>
</g>
<defs>
<clipPath id="clip0_2177_1307">
<rect width="420" height="595" fill="white"/>
</clipPath>
<clipPath id="clip1_2177_1307">
<rect width="332.432" height="590.99" fill="white" transform="translate(505.495 302) rotate(90)"/>
</clipPath>
</defs>
</svg>
