<svg fill="none" height="595" viewBox="0 0 420 595" width="420" xmlns="http://www.w3.org/2000/svg" xmlns:xlink="http://www.w3.org/1999/xlink"><clipPath id="a"><path d="m0 0h420v595h-420z"/></clipPath><clipPath id="b"><path d="m0 0h332.432v590.99h-332.432z" transform="matrix(0 1 -1 0 505.495 302)"/></clipPath><g clip-path="url(#a)"><path d="m0 0h420v595h-420z" fill="#fff"/><path d="m242.777 58.8772h-10.877v10.8772h10.877z" fill="#fe9c1a"/><path d="m177.513 69.7544c6.008 0 10.878-4.8699 10.878-10.8772s-4.87-10.8772-10.878-10.8772c-6.007 0-10.877 4.8699-10.877 10.8772s4.87 10.8772 10.877 10.8772z" fill="#e2f78c"/><path d="m199.268 69.7544c6.007 0 10.877-4.8699 10.877-10.8772s-4.87-10.8772-10.877-10.8772-10.877 4.8699-10.877 10.8772 4.87 10.8772 10.877 10.8772z" fill="#ffc3df"/><path d="m177.513 48h-10.877v21.7544h10.877z" fill="#418b5c"/><path d="m210.145 48h-21.754v10.8772h21.754z" fill="#e14322"/><path d="m253.654 48v10.877h-32.632c-3.003-.0001-5.438-2.4349-5.438-5.4385s2.435-5.4384 5.438-5.4385z" fill="#1c91ff"/><path clip-rule="evenodd" d="m210.145 69.7544v-10.8772h10.877c3.004 0 5.439 2.435 5.439 5.4386 0 3.0037-2.435 5.4386-5.439 5.4386z" fill="#9fdbff" fill-rule="evenodd"/><path d="m74.8733 155.24v-23.88h-8.64v-4.52h22.44v4.52h-8.6v23.88zm13.8967 0v-28.4h5.12v9.88c1.16-2.24 3.44-3.32 6.08-3.32 4.72 0 7.24 3.36 7.24 8.12v13.72h-5.12v-12.48c0-3.48-1.16-5.2-3.64-5.2-2.8 0-4.56 1.84-4.56 5.32v12.36zm30.471.48c-6.4 0-10.48-4.4-10.48-11.16 0-6.72 4.08-11.16 10.36-11.16 6.12 0 10.12 4.24 10.12 11.44v1.16h-15.16c.16 3.76 2.12 5.64 5.2 5.64 2.28 0 3.8-1.08 4.44-2.96l5.24.32c-1.16 4.16-4.8 6.72-9.72 6.72zm-5.16-13.16h9.88c-.24-3.48-2.12-5.12-4.84-5.12-2.76 0-4.64 1.8-5.04 5.12zm22.398 12.68 10.24-28.4h6.36l10.24 28.4h-5.44l-2.36-6.72h-11.24l-2.36 6.72zm9.32-11.16h8.2l-4.08-12zm18.218 11.16v-28.4h5.2v28.4zm16.487 0v-28.4h19.12v4.52h-13.92v7.4h13.44v4.48h-13.44v7.48h14.24v4.52zm21.925 0v-21.36h4.64l.12 3.64c1.16-2.92 3.56-4.12 6.4-4.12 4.72 0 7.28 3.32 7.28 8.12v13.72h-5.12v-12.08c0-3.6-.96-5.6-3.72-5.6s-4.48 2-4.48 5.6v12.08zm28.815 0c-4.24 0-6.2-1.88-6.2-6.12v-11.28h-3.36v-3.96h3.36v-5h5.12v5h5.64v3.96h-5.64v10.8c0 2 .84 2.64 2.64 2.64h3v3.96zm14.919.48c-6.4 0-10.48-4.4-10.48-11.16 0-6.72 4.08-11.16 10.36-11.16 6.12 0 10.12 4.24 10.12 11.44v1.16h-15.16c.16 3.76 2.12 5.64 5.2 5.64 2.28 0 3.8-1.08 4.44-2.96l5.24.32c-1.16 4.16-4.8 6.72-9.72 6.72zm-5.16-13.16h9.88c-.24-3.48-2.12-5.12-4.84-5.12-2.76 0-4.64 1.8-5.04 5.12zm16.878 12.68v-21.36h4.8l.12 4.16c.84-2.88 2.48-4.16 5.12-4.16h1.96v4.4h-2c-3.28 0-4.88 1.36-4.88 4.64v12.32zm12.794 6v-27.36h4.92l.08 3.2c1.24-2.4 3.56-3.68 6.4-3.68 6.08 0 9.08 5 9.08 11.16s-3.04 11.16-9.12 11.16c-2.72 0-5.08-1.28-6.24-3.4v8.92zm10.16-9.68c3.12 0 5-2.6 5-7s-1.88-7-5-7-5.04 2.36-5.04 7 1.88 7 5.04 7zm12.009 3.68v-21.36h4.8l.12 4.16c.84-2.88 2.48-4.16 5.12-4.16h1.96v4.4h-2c-3.28 0-4.88 1.36-4.88 4.64v12.32zm12.948-24.2v-4.56h5.32v4.56zm.08 24.2v-21.36h5.12v21.36zm16.747.48c-6.52 0-9.6-3-9.92-7.2l5.24-.24c.36 2.24 1.64 3.52 4.72 3.52 2.36 0 3.68-.72 3.68-2.4 0-1.44-.72-2.08-4.52-2.76-6.48-1.12-8.4-2.88-8.4-6.52 0-3.96 3.12-6.72 9.04-6.72 6.16 0 8.88 3.24 9.24 7.2l-5.2.24c-.12-2-1.32-3.52-4.12-3.52-2.44 0-3.68 1.08-3.68 2.64 0 1.72 1 2.4 4.2 2.92 6.6 1 8.76 2.88 8.76 6.44 0 4.12-3.56 6.4-9.04 6.4zm19.995 0c-6.4 0-10.48-4.4-10.48-11.16 0-6.72 4.08-11.16 10.36-11.16 6.12 0 10.12 4.24 10.12 11.44v1.16h-15.16c.16 3.76 2.12 5.64 5.2 5.64 2.28 0 3.8-1.08 4.44-2.96l5.24.32c-1.16 4.16-4.8 6.72-9.72 6.72zm-5.16-13.16h9.88c-.24-3.48-2.12-5.12-4.84-5.12-2.76 0-4.64 1.8-5.04 5.12z" fill="#000"/><path d="m130.264 194.231c-.448 0-.672-.16-.672-.48 0-.352.32-.576.96-.672l.96-.144c.704-.096 1.184-.256 1.44-.48.288-.256.496-.72.624-1.392l6.528-28.224c.128-.544.144-.96.048-1.248s-.512-.496-1.248-.624l-.96-.192c-.416-.096-.624-.272-.624-.528 0-.384.288-.576.864-.576h9.36c2.656 0 4.688.72 6.096 2.16s2.112 3.248 2.112 5.424c0 2.016-.528 3.888-1.584 5.616-1.024 1.696-2.464 3.072-4.32 4.128-1.824 1.056-3.968 1.584-6.432 1.584h-2.832c-.512 0-.848.272-1.008.816l-2.688 11.472c-.16.704-.128 1.184.096 1.44.256.256.784.432 1.584.528l2.304.288c.288.032.432.192.432.48 0 .416-.288.624-.864.624zm10.416-19.488c-.192.832-.112 1.488.24 1.968.384.448 1.168.672 2.352.672 1.6 0 2.96-.336 4.08-1.008 1.152-.672 2.08-1.536 2.784-2.592.736-1.088 1.264-2.24 1.584-3.456.352-1.248.528-2.432.528-3.552 0-1.76-.464-3.184-1.392-4.272s-2.288-1.632-4.08-1.632c-1.952 0-3.072.64-3.36 1.92zm16.692 19.968c-1.056 0-1.808-.384-2.256-1.152-.448-.8-.464-2.096-.048-3.888l6.096-26.16c.16-.576.16-.976 0-1.2-.128-.224-.416-.352-.864-.384l-1.44-.144c-.48-.032-.688-.24-.624-.624.064-.288.288-.464.672-.528 1.152-.192 2.176-.416 3.072-.672.896-.288 1.616-.656 2.16-1.104.256-.192.496-.288.72-.288.384 0 .528.24.432.72l-7.104 30.432c-.16.704-.192 1.264-.096 1.68.128.384.432.576.912.576.576 0 1.2-.416 1.872-1.248.704-.864 1.488-2.48 2.352-4.848.128-.416.352-.624.672-.624.48 0 .608.288.384.864-.672 2.176-1.424 3.904-2.256 5.184-.8 1.248-1.6 2.128-2.4 2.64s-1.552.768-2.256.768zm12.252-.048c-1.152 0-2.048-.496-2.688-1.488s-.96-2.448-.96-4.368c0-1.824.256-3.648.768-5.472.512-1.856 1.216-3.616 2.112-5.28s1.904-3.136 3.024-4.416c1.152-1.28 2.352-2.288 3.6-3.024 1.28-.768 2.544-1.152 3.792-1.152.608 0 1.184.128 1.728.384.544.224.992.592 1.344 1.104.192.288.384.432.576.432s.384-.144.576-.432c.352-.512.64-.832.864-.96.224-.16.432-.24.624-.24.416 0 .576.224.48.672l-4.272 18.384c-.48 2.08-.16 3.12.96 3.12.736 0 1.392-.496 1.968-1.488.608-.992 1.216-2.528 1.824-4.608.096-.352.304-.528.624-.528.224 0 .368.096.432.288s.064.416 0 .672c-.608 3.008-1.424 5.168-2.448 6.48-1.024 1.28-2.256 1.92-3.696 1.92-1.248 0-2.144-.528-2.688-1.584-.512-1.056-.56-2.496-.144-4.32l.624-2.64c.064-.224.016-.352-.144-.384-.128-.032-.24.048-.336.24-1.76 3.232-3.328 5.488-4.704 6.768-1.344 1.28-2.624 1.92-3.84 1.92zm1.2-2.448c.768 0 1.616-.464 2.544-1.392s1.84-2.128 2.736-3.6c.928-1.472 1.776-3.056 2.544-4.752s1.376-3.328 1.824-4.896c.48-1.568.72-2.896.72-3.984 0-1.952-.688-2.928-2.064-2.928-.832 0-1.712.384-2.64 1.152-.928.736-1.824 1.744-2.688 3.024-.832 1.28-1.6 2.736-2.304 4.368-.672 1.6-1.216 3.28-1.632 5.04-.416 1.728-.624 3.424-.624 5.088 0 1.12.128 1.888.384 2.304.288.384.688.576 1.2.576zm14.607 12.336c-1.216 0-2.16-.32-2.832-.96-.672-.608-1.008-1.36-1.008-2.256 0-.672.176-1.184.528-1.536.352-.32.736-.48 1.152-.48.608 0 1.04.16 1.296.48s.448.688.576 1.104c.128.448.336.832.624 1.152.256.32.688.48 1.296.48 1.184 0 2.352-.48 3.504-1.44 1.152-.928 2.096-2.224 2.832-3.888.736-1.632 1.056-3.472.96-5.52l-.72-17.232c-.032-.832-.176-1.408-.432-1.728-.256-.352-.576-.528-.96-.528-.704 0-1.376.432-2.016 1.296-.64.832-1.168 2.432-1.584 4.8-.096.416-.304.624-.624.624-.448 0-.624-.288-.528-.864.384-2.208.912-3.936 1.584-5.184.704-1.248 1.44-2.128 2.208-2.64.8-.512 1.536-.768 2.208-.768.992 0 1.776.352 2.352 1.056.576.672.896 1.84.96 3.504l.672 18.432c0 .224.064.368.192.432.16.032.304-.048.432-.24 1.12-1.568 2.128-3.184 3.024-4.848.928-1.696 1.664-3.36 2.208-4.992s.816-3.136.816-4.512c0-1.344-.144-2.4-.432-3.168-.288-.8-.592-1.472-.912-2.016-.288-.544-.432-1.136-.432-1.776 0-1.248.544-1.872 1.632-1.872 1.536 0 2.304 1.696 2.304 5.088 0 1.856-.32 3.888-.96 6.096-.64 2.176-1.52 4.4-2.64 6.672-1.088 2.24-2.352 4.384-3.792 6.432-1.408 2.048-2.896 3.888-4.464 5.52-1.536 1.632-3.088 2.912-4.656 3.84-1.536.96-2.992 1.44-4.368 1.44zm27.886-9.888c-1.088 0-2.064-.288-2.928-.864-.832-.608-1.424-1.504-1.776-2.688-.32-1.216-.272-2.72.144-4.512l5.376-23.088c.16-.576.16-.976 0-1.2-.128-.224-.416-.352-.864-.384l-1.44-.144c-.48-.032-.688-.24-.624-.624.064-.288.288-.464.672-.528 1.152-.192 2.176-.416 3.072-.672.896-.288 1.616-.656 2.16-1.104.256-.192.496-.288.72-.288.384 0 .528.24.432.72l-4.368 18.864c-.032.224.016.352.144.384s.24-.048.336-.24c1.76-3.36 3.328-5.664 4.704-6.912 1.408-1.28 2.72-1.92 3.936-1.92 1.184 0 2.112.496 2.784 1.488.704.992 1.056 2.448 1.056 4.368 0 1.824-.272 3.664-.816 5.52-.512 1.824-1.232 3.568-2.16 5.232-.896 1.664-1.936 3.136-3.12 4.416-1.152 1.28-2.368 2.304-3.648 3.072-1.28.736-2.544 1.104-3.792 1.104zm.144-1.2c.832 0 1.712-.368 2.64-1.104.928-.768 1.824-1.776 2.688-3.024.896-1.28 1.696-2.704 2.4-4.272.704-1.6 1.264-3.232 1.68-4.896.416-1.696.624-3.328.624-4.896 0-1.216-.128-2.064-.384-2.544-.256-.512-.704-.768-1.344-.768-.704 0-1.504.432-2.4 1.296s-1.808 2.016-2.736 3.456c-.928 1.408-1.792 2.944-2.592 4.608s-1.44 3.312-1.92 4.944c-.48 1.6-.72 3.024-.72 4.272 0 1.952.688 2.928 2.064 2.928zm21.392 1.2c-1.984 0-3.552-.816-4.704-2.448-1.152-1.664-1.728-3.904-1.728-6.72 0-2.08.336-4.08 1.008-6s1.552-3.632 2.64-5.136c1.12-1.504 2.352-2.688 3.696-3.552 1.376-.896 2.752-1.344 4.128-1.344 1.984 0 3.552.816 4.704 2.448s1.728 3.872 1.728 6.72c0 2.08-.336 4.08-1.008 6s-1.568 3.632-2.688 5.136c-1.088 1.504-2.32 2.704-3.696 3.6-1.344.864-2.704 1.296-4.08 1.296zm-.096-1.152c1.024 0 2.016-.496 2.976-1.488.992-.992 1.888-2.304 2.688-3.936s1.44-3.44 1.92-5.424c.48-2.016.72-4.032.72-6.048 0-4-1.04-6-3.12-6-.992 0-1.984.496-2.976 1.488-.992.96-1.888 2.256-2.688 3.888-.768 1.632-1.392 3.456-1.872 5.472-.48 1.984-.72 3.984-.72 6 0 4.032 1.024 6.048 3.072 6.048zm19.971 1.152c-1.984 0-3.552-.816-4.704-2.448-1.152-1.664-1.728-3.904-1.728-6.72 0-2.08.336-4.08 1.008-6s1.552-3.632 2.64-5.136c1.12-1.504 2.352-2.688 3.696-3.552 1.376-.896 2.752-1.344 4.128-1.344 1.984 0 3.552.816 4.704 2.448s1.728 3.872 1.728 6.72c0 2.08-.336 4.08-1.008 6s-1.568 3.632-2.688 5.136c-1.088 1.504-2.32 2.704-3.696 3.6-1.344.864-2.704 1.296-4.08 1.296zm-.096-1.152c1.024 0 2.016-.496 2.976-1.488.992-.992 1.888-2.304 2.688-3.936s1.44-3.44 1.92-5.424c.48-2.016.72-4.032.72-6.048 0-4-1.04-6-3.12-6-.992 0-1.984.496-2.976 1.488-.992.96-1.888 2.256-2.688 3.888-.768 1.632-1.392 3.456-1.872 5.472-.48 1.984-.72 3.984-.72 6 0 4.032 1.024 6.048 3.072 6.048zm27.843 1.152c-1.632 0-2.96-1.328-3.984-3.984l-2.64-6.96c-.32-.768-.72-1.152-1.2-1.152s-.896.4-1.248 1.2c-.32.704-.672 1.664-1.056 2.88-.352 1.184-.688 2.48-1.008 3.888l-.72 3.168c-.096.352-.32.528-.672.528h-1.872c-.448 0-.624-.208-.528-.624l7.008-30.096c.128-.544.128-.928 0-1.152-.128-.256-.416-.4-.864-.432l-1.44-.144c-.48-.064-.688-.272-.624-.624.064-.288.288-.464.672-.528 1.376-.224 2.48-.48 3.312-.768s1.472-.624 1.92-1.008c.256-.192.48-.288.672-.288.416 0 .576.24.48.72l-4.464 19.008c-.032.224.016.352.144.384s.24-.048.336-.24l1.584-2.832c2.304-4.096 4.896-6.144 7.776-6.144 1.088 0 1.952.288 2.592.864s.96 1.36.96 2.352c0 1.568-.768 3.136-2.304 4.704-1.504 1.568-3.488 2.848-5.952 3.84-.768.288-.992.8-.672 1.536l2.784 7.104c.32.8.64 1.376.96 1.728.32.32.72.48 1.2.48.736 0 1.296-.448 1.68-1.344.384-.928.72-2.528 1.008-4.8.064-.416.256-.624.576-.624.352 0 .512.32.48.96-.16 2.688-.672 4.768-1.536 6.24-.832 1.44-1.952 2.16-3.36 2.16zm-7.344-14.256c-.128.288-.144.512-.048.672.128.128.336.16.624.096 2.656-.672 4.8-1.776 6.432-3.312s2.448-3.232 2.448-5.088c0-1.216-.464-1.824-1.392-1.824-1.088 0-2.352.848-3.792 2.544-1.44 1.664-2.864 3.968-4.272 6.912z" fill="#1c91ff"/><path d="m128.382 231.515 3.584-9.94h1.918l3.584 9.94h-1.61l-.91-2.59h-4.06l-.896 2.59zm2.982-3.962h3.122l-1.568-4.536zm11.468 3.962c-.494 0-.891-.126-1.19-.378-.289-.252-.434-.653-.434-1.204v-8.358h1.484v8.218c0 .336.173.504.518.504h.588v1.218zm4.798.168c-.728 0-1.358-.159-1.89-.476-.523-.327-.929-.779-1.218-1.358-.28-.588-.42-1.274-.42-2.058s.14-1.465.42-2.044c.289-.588.695-1.041 1.218-1.358.522-.327 1.138-.49 1.848-.49.672 0 1.264.159 1.778.476.513.308.91.756 1.19 1.344.289.588.434 1.297.434 2.128v.378h-5.348c.037.728.228 1.274.574 1.638.354.364.83.546 1.428.546.438 0 .798-.098 1.078-.294.289-.205.494-.485.616-.84l1.54.098c-.196.7-.584 1.26-1.162 1.68-.57.42-1.265.63-2.086.63zm-1.988-4.578h3.78c-.047-.663-.238-1.153-.574-1.47s-.756-.476-1.26-.476c-.532 0-.971.168-1.316.504-.336.327-.546.807-.63 1.442zm8.588 4.578c-.775 0-1.396-.177-1.862-.532-.458-.355-.686-.854-.686-1.498 0-.635.191-1.134.574-1.498.392-.364.994-.625 1.806-.784l2.562-.49c0-1.148-.537-1.722-1.61-1.722-.476 0-.85.107-1.12.322-.271.215-.458.523-.56.924l-1.526-.098c.14-.747.485-1.335 1.036-1.764.56-.429 1.283-.644 2.17-.644 1.008 0 1.773.271 2.296.812.532.532.798 1.283.798 2.254v2.898c0 .177.028.303.084.378.065.065.168.098.308.098h.266v1.176c-.131.028-.313.042-.546.042-.42 0-.756-.084-1.008-.252-.243-.177-.397-.476-.462-.896v-.042c-.187.392-.509.709-.966.952-.458.243-.976.364-1.554.364zm.238-1.176c.672 0 1.199-.191 1.582-.574.382-.383.574-.868.574-1.456v-.476l-2.184.42c-.448.084-.766.219-.952.406-.178.177-.266.406-.266.686 0 .317.107.565.322.742.224.168.532.252.924.252zm7.642 1.176c-.635 0-1.185-.159-1.652-.476s-.826-.765-1.078-1.344c-.252-.588-.378-1.279-.378-2.072s.126-1.479.378-2.058c.252-.588.611-1.041 1.078-1.358s1.017-.476 1.652-.476c.513 0 .971.107 1.372.322s.705.513.91.896v-3.542h1.484v9.94h-1.386l-.042-1.12c-.205.411-.518.728-.938.952-.411.224-.877.336-1.4.336zm.392-1.288c.607 0 1.073-.229 1.4-.686s.49-1.097.49-1.918c0-.831-.163-1.47-.49-1.918-.327-.457-.793-.686-1.4-.686-.597 0-1.073.233-1.428.7-.355.457-.532 1.092-.532 1.904 0 .793.177 1.428.532 1.904.355.467.831.7 1.428.7zm7.909 1.288c-.728 0-1.358-.159-1.89-.476-.523-.327-.929-.779-1.218-1.358-.28-.588-.42-1.274-.42-2.058s.14-1.465.42-2.044c.289-.588.695-1.041 1.218-1.358.523-.327 1.139-.49 1.848-.49.672 0 1.265.159 1.778.476.513.308.91.756 1.19 1.344.289.588.434 1.297.434 2.128v.378h-5.348c.037.728.229 1.274.574 1.638.355.364.831.546 1.428.546.439 0 .798-.098 1.078-.294.289-.205.495-.485.616-.84l1.54.098c-.196.7-.583 1.26-1.162 1.68-.569.42-1.265.63-2.086.63zm-1.988-4.578h3.78c-.047-.663-.238-1.153-.574-1.47s-.756-.476-1.26-.476c-.532 0-.971.168-1.316.504-.336.327-.546.807-.63 1.442zm6.352 4.41v-7.448h1.358l.042 1.414c.14-.485.354-.84.644-1.064.298-.233.676-.35 1.134-.35h.714v1.33h-.714c-.57 0-.994.14-1.274.42s-.42.714-.42 1.302v4.396zm4.799-6.16-.224-2.646v-1.134h1.372v1.134l-.21 2.646zm5.041 6.328c-1.082 0-1.894-.233-2.436-.7-.541-.476-.84-1.083-.896-1.82l1.526-.07c.066.411.234.737.504.98.271.243.705.364 1.302.364.467 0 .822-.075 1.064-.224.252-.149.378-.387.378-.714 0-.187-.042-.341-.126-.462s-.247-.224-.49-.308c-.242-.093-.602-.182-1.078-.266-.728-.14-1.297-.303-1.708-.49-.401-.196-.686-.434-.854-.714-.168-.289-.252-.639-.252-1.05 0-.672.257-1.223.77-1.652.514-.439 1.256-.658 2.226-.658.682 0 1.242.117 1.68.35.439.224.77.523.994.896s.36.775.406 1.204l-1.526.084c-.028-.355-.163-.658-.406-.91-.233-.252-.625-.378-1.176-.378-.485 0-.844.093-1.078.28-.233.187-.35.429-.35.728 0 .327.108.574.322.742.224.159.64.285 1.246.378.756.121 1.344.28 1.764.476.43.187.733.425.91.714.178.28.266.621.266 1.022 0 .7-.275 1.241-.826 1.624-.55.383-1.269.574-2.156.574zm10.05 2.1c-.887 0-1.61-.196-2.17-.588s-.919-.91-1.078-1.554l1.54-.098c.103.317.28.565.532.742.261.177.653.266 1.176.266.616 0 1.087-.131 1.414-.392.336-.261.504-.658.504-1.19v-1.078c-.187.383-.476.686-.868.91s-.826.336-1.302.336c-.625 0-1.181-.149-1.666-.448-.485-.308-.863-.733-1.134-1.274-.271-.551-.406-1.181-.406-1.89s.131-1.335.392-1.876c.271-.551.644-.98 1.12-1.288s1.022-.462 1.638-.462c.532 0 .999.121 1.4.364.411.243.705.569.882.98v-1.176h1.428v6.86c0 .915-.308 1.619-.924 2.114-.607.495-1.433.742-2.478.742zm-.014-3.906c.579 0 1.041-.21 1.386-.63.355-.42.537-.999.546-1.736.009-.728-.163-1.302-.518-1.722s-.826-.63-1.414-.63c-.607 0-1.078.215-1.414.644-.327.42-.49.989-.49 1.708 0 .728.168 1.307.504 1.736.345.42.812.63 1.4.63zm7.472 1.806c-.756 0-1.353-.247-1.792-.742s-.658-1.19-.658-2.086v-4.788h1.484v4.41c0 .672.117 1.167.35 1.484s.588.476 1.064.476c.541 0 .961-.173 1.26-.518.308-.355.462-.849.462-1.484v-4.368h1.484v7.448h-1.386l-.014-1.218c-.401.924-1.153 1.386-2.254 1.386zm5.075-.168v-7.448h1.484v7.448zm-.028-8.526v-1.484h1.54v1.484zm5.62 8.694c-.635 0-1.186-.159-1.652-.476-.467-.317-.826-.765-1.078-1.344-.252-.588-.378-1.279-.378-2.072s.126-1.479.378-2.058c.252-.588.611-1.041 1.078-1.358.466-.317 1.017-.476 1.652-.476.513 0 .97.107 1.372.322.401.215.704.513.91.896v-3.542h1.484v9.94h-1.386l-.042-1.12c-.206.411-.518.728-.938.952-.411.224-.878.336-1.4.336zm.392-1.288c.606 0 1.073-.229 1.4-.686.326-.457.49-1.097.49-1.918 0-.831-.164-1.47-.49-1.918-.327-.457-.794-.686-1.4-.686-.598 0-1.074.233-1.428.7-.355.457-.532 1.092-.532 1.904 0 .793.177 1.428.532 1.904.354.467.83.7 1.428.7zm7.909 1.288c-.728 0-1.358-.159-1.89-.476-.523-.327-.929-.779-1.218-1.358-.28-.588-.42-1.274-.42-2.058s.14-1.465.42-2.044c.289-.588.695-1.041 1.218-1.358.522-.327 1.138-.49 1.848-.49.672 0 1.264.159 1.778.476.513.308.91.756 1.19 1.344.289.588.434 1.297.434 2.128v.378h-5.348c.037.728.228 1.274.574 1.638.354.364.83.546 1.428.546.438 0 .798-.098 1.078-.294.289-.205.494-.485.616-.84l1.54.098c-.196.7-.584 1.26-1.162 1.68-.57.42-1.265.63-2.086.63zm-1.988-4.578h3.78c-.047-.663-.238-1.153-.574-1.47s-.756-.476-1.26-.476c-.532 0-.971.168-1.316.504-.336.327-.546.807-.63 1.442zm12.248 4.41c-.709 0-1.232-.159-1.568-.476-.336-.327-.504-.84-.504-1.54v-4.214h-1.134v-1.218h1.134v-1.75h1.484v1.75h1.974v1.218h-1.974v4.102c0 .345.075.583.224.714.15.131.378.196.686.196h1.064v1.218zm5.247.168c-.709 0-1.33-.159-1.862-.476-.532-.327-.942-.779-1.232-1.358-.289-.579-.434-1.265-.434-2.058s.145-1.479.434-2.058c.29-.579.7-1.027 1.232-1.344.532-.327 1.153-.49 1.862-.49.71 0 1.33.163 1.862.49.532.317.943.765 1.232 1.344.29.579.434 1.265.434 2.058s-.144 1.479-.434 2.058c-.289.579-.7 1.031-1.232 1.358-.532.317-1.152.476-1.862.476zm0-1.288c.635 0 1.125-.229 1.47-.686.346-.457.518-1.097.518-1.918 0-.812-.172-1.447-.518-1.904-.345-.467-.835-.7-1.47-.7-.625 0-1.115.233-1.47.7-.345.457-.518 1.092-.518 1.904 0 .821.173 1.461.518 1.918.355.457.845.686 1.47.686zm11.279 1.288c-.522 0-.984-.112-1.386-.336-.392-.224-.69-.541-.896-.952l-.042 1.12h-1.386v-9.94h1.484v3.542c.187-.327.476-.611.868-.854s.845-.364 1.358-.364c.644 0 1.204.159 1.68.476s.84.77 1.092 1.358c.262.579.392 1.265.392 2.058s-.13 1.484-.392 2.072c-.252.579-.616 1.027-1.092 1.344s-1.036.476-1.68.476zm-.238-1.288c.57 0 1.022-.233 1.358-.7s.504-1.101.504-1.904c0-.821-.168-1.461-.504-1.918-.326-.457-.774-.686-1.344-.686-.625 0-1.115.229-1.47.686-.354.457-.532 1.097-.532 1.918 0 .803.173 1.437.518 1.904.355.467.845.7 1.47.7zm6.859 1.288c-.756 0-1.353-.247-1.792-.742s-.658-1.19-.658-2.086v-4.788h1.484v4.41c0 .672.117 1.167.35 1.484s.588.476 1.064.476c.541 0 .961-.173 1.26-.518.308-.355.462-.849.462-1.484v-4.368h1.484v7.448h-1.386l-.014-1.218c-.401.924-1.153 1.386-2.254 1.386zm5.075-.168v-7.448h1.484v7.448zm-.028-8.526v-1.484h1.54v1.484zm4.625 8.526c-.495 0-.891-.126-1.19-.378-.289-.252-.434-.653-.434-1.204v-8.358h1.484v8.218c0 .336.173.504.518.504h.588v1.218zm4.378.168c-.635 0-1.186-.159-1.652-.476-.467-.317-.826-.765-1.078-1.344-.252-.588-.378-1.279-.378-2.072s.126-1.479.378-2.058c.252-.588.611-1.041 1.078-1.358.466-.317 1.017-.476 1.652-.476.513 0 .97.107 1.372.322.401.215.704.513.91.896v-3.542h1.484v9.94h-1.386l-.042-1.12c-.206.411-.518.728-.938.952-.411.224-.878.336-1.4.336zm.392-1.288c.606 0 1.073-.229 1.4-.686.326-.457.49-1.097.49-1.918 0-.831-.164-1.47-.49-1.918-.327-.457-.794-.686-1.4-.686-.598 0-1.074.233-1.428.7-.355.457-.532 1.092-.532 1.904 0 .793.177 1.428.532 1.904.354.467.83.7 1.428.7zm4.733 1.12v-7.448h1.484v7.448zm-.028-8.526v-1.484h1.54v1.484zm3.192 8.526v-7.448h1.358l.028 1.302c.196-.513.495-.887.896-1.12s.859-.35 1.372-.35c.551 0 1.013.126 1.386.378.373.243.653.579.84 1.008.196.42.294.901.294 1.442v4.788h-1.484v-4.34c0-.653-.112-1.153-.336-1.498-.215-.355-.583-.532-1.106-.532-.532 0-.961.177-1.288.532-.317.345-.476.845-.476 1.498v4.34zm10.604 2.268c-.887 0-1.61-.196-2.17-.588s-.92-.91-1.078-1.554l1.54-.098c.102.317.28.565.532.742.261.177.653.266 1.176.266.616 0 1.087-.131 1.414-.392.336-.261.504-.658.504-1.19v-1.078c-.187.383-.476.686-.868.91s-.826.336-1.302.336c-.626 0-1.181-.149-1.666-.448-.486-.308-.864-.733-1.134-1.274-.271-.551-.406-1.181-.406-1.89s.13-1.335.392-1.876c.27-.551.644-.98 1.12-1.288s1.022-.462 1.638-.462c.532 0 .998.121 1.4.364.41.243.704.569.882.98v-1.176h1.428v6.86c0 .915-.308 1.619-.924 2.114-.607.495-1.433.742-2.478.742zm-.014-3.906c.578 0 1.04-.21 1.386-.63.354-.42.536-.999.546-1.736.009-.728-.164-1.302-.518-1.722-.355-.42-.826-.63-1.414-.63-.607 0-1.078.215-1.414.644-.327.42-.49.989-.49 1.708 0 .728.168 1.307.504 1.736.345.42.812.63 1.4.63zm-158.219 19.738v-1.218h.91c.252 0 .439-.037.56-.112.122-.075.215-.201.28-.378l.238-.616h-.462l-2.688-7.224h1.568l2.044 5.852 1.946-5.852h1.582l-2.968 8.316c-.149.429-.373.742-.672.938-.289.196-.695.294-1.218.294zm9.502-1.932c-.71 0-1.33-.159-1.862-.476-.532-.327-.943-.779-1.232-1.358-.29-.579-.434-1.265-.434-2.058s.144-1.479.434-2.058c.289-.579.7-1.027 1.232-1.344.532-.327 1.152-.49 1.862-.49.709 0 1.33.163 1.862.49.532.317.942.765 1.232 1.344.289.579.434 1.265.434 2.058s-.145 1.479-.434 2.058c-.29.579-.7 1.031-1.232 1.358-.532.317-1.153.476-1.862.476zm0-1.288c.634 0 1.124-.229 1.47-.686.345-.457.518-1.097.518-1.918 0-.812-.173-1.447-.518-1.904-.346-.467-.836-.7-1.47-.7-.626 0-1.116.233-1.47.7-.346.457-.518 1.092-.518 1.904 0 .821.172 1.461.518 1.918.354.457.844.686 1.47.686zm6.978 1.288c-.756 0-1.354-.247-1.792-.742-.439-.495-.658-1.19-.658-2.086v-4.788h1.484v4.41c0 .672.116 1.167.35 1.484.233.317.588.476 1.064.476.541 0 .961-.173 1.26-.518.308-.355.462-.849.462-1.484v-4.368h1.484v7.448h-1.386l-.014-1.218c-.402.924-1.153 1.386-2.254 1.386zm5.253-.168v-7.448h1.358l.042 1.414c.14-.485.354-.84.644-1.064.298-.233.676-.35 1.134-.35h.714v1.33h-.714c-.57 0-.994.14-1.274.42s-.42.714-.42 1.302v4.396zm7.144 0 3.584-9.94h1.918l3.584 9.94h-1.61l-.91-2.59h-4.06l-.896 2.59zm2.982-3.962h3.122l-1.568-4.536zm6.78 3.962v-9.94h1.512v9.94zm10.374.224c-.962 0-1.788-.205-2.478-.616-.691-.42-1.223-1.017-1.596-1.792-.374-.775-.56-1.699-.56-2.772s.186-1.997.56-2.772c.373-.784.905-1.386 1.596-1.806.69-.42 1.516-.63 2.478-.63.97 0 1.801.21 2.492.63.7.42 1.232 1.022 1.596 1.806.373.775.56 1.699.56 2.772s-.187 1.997-.56 2.772c-.364.775-.896 1.372-1.596 1.792-.691.411-1.522.616-2.492.616zm0-1.386c.961 0 1.712-.331 2.254-.994.55-.672.826-1.605.826-2.8s-.276-2.128-.826-2.8c-.542-.681-1.293-1.022-2.254-1.022-.952 0-1.704.341-2.254 1.022-.542.672-.812 1.605-.812 2.8s.27 2.128.812 2.8c.55.663 1.302.994 2.254.994zm5.813 3.262v-9.548h1.4l.028 1.134c.215-.429.518-.751.91-.966.402-.224.85-.336 1.344-.336.728 0 1.326.182 1.792.546.476.355.826.826 1.05 1.414.234.588.35 1.232.35 1.932s-.116 1.344-.35 1.932c-.224.588-.574 1.064-1.05 1.428-.466.355-1.064.532-1.792.532-.476 0-.91-.103-1.302-.308-.392-.215-.69-.504-.896-.868v3.108zm3.416-3.22c.598 0 1.064-.229 1.4-.686.346-.457.518-1.097.518-1.918s-.172-1.461-.518-1.918c-.336-.457-.802-.686-1.4-.686-.597 0-1.068.219-1.414.658-.345.439-.518 1.087-.518 1.946s.173 1.507.518 1.946c.346.439.817.658 1.414.658zm7.531 1.288c-.728 0-1.358-.159-1.89-.476-.522-.327-.928-.779-1.218-1.358-.28-.588-.42-1.274-.42-2.058s.14-1.465.42-2.044c.29-.588.696-1.041 1.218-1.358.523-.327 1.139-.49 1.848-.49.672 0 1.265.159 1.778.476.514.308.91.756 1.19 1.344.29.588.434 1.297.434 2.128v.378h-5.348c.038.728.229 1.274.574 1.638.355.364.831.546 1.428.546.439 0 .798-.098 1.078-.294.29-.205.495-.485.616-.84l1.54.098c-.196.7-.583 1.26-1.162 1.68-.569.42-1.264.63-2.086.63zm-1.988-4.578h3.78c-.046-.663-.238-1.153-.574-1.47s-.756-.476-1.26-.476c-.532 0-.97.168-1.316.504-.336.327-.546.807-.63 1.442zm6.352 4.41v-7.448h1.358l.042 1.414c.14-.485.355-.84.644-1.064.299-.233.677-.35 1.134-.35h.714v1.33h-.714c-.569 0-.994.14-1.274.42s-.42.714-.42 1.302v4.396zm6.562.168c-.774 0-1.395-.177-1.862-.532-.457-.355-.686-.854-.686-1.498 0-.635.192-1.134.574-1.498.392-.364.994-.625 1.806-.784l2.562-.49c0-1.148-.536-1.722-1.61-1.722-.476 0-.849.107-1.12.322-.27.215-.457.523-.56.924l-1.526-.098c.14-.747.486-1.335 1.036-1.764.56-.429 1.284-.644 2.17-.644 1.008 0 1.774.271 2.296.812.532.532.798 1.283.798 2.254v2.898c0 .177.028.303.084.378.066.065.168.098.308.098h.266v1.176c-.13.028-.312.042-.546.042-.42 0-.756-.084-1.008-.252-.242-.177-.396-.476-.462-.896v-.042c-.186.392-.508.709-.966.952-.457.243-.975.364-1.554.364zm.238-1.176c.672 0 1.2-.191 1.582-.574.383-.383.574-.868.574-1.456v-.476l-2.184.42c-.448.084-.765.219-.952.406-.177.177-.266.406-.266.686 0 .317.108.565.322.742.224.168.532.252.924.252zm7.279 1.008c-.71 0-1.232-.159-1.568-.476-.336-.327-.504-.84-.504-1.54v-4.214h-1.134v-1.218h1.134v-1.75h1.484v1.75h1.974v1.218h-1.974v4.102c0 .345.074.583.224.714.149.131.378.196.686.196h1.064v1.218zm5.247.168c-.71 0-1.33-.159-1.862-.476-.532-.327-.943-.779-1.232-1.358-.29-.579-.434-1.265-.434-2.058s.144-1.479.434-2.058c.289-.579.7-1.027 1.232-1.344.532-.327 1.152-.49 1.862-.49.709 0 1.33.163 1.862.49.532.317.942.765 1.232 1.344.289.579.434 1.265.434 2.058s-.145 1.479-.434 2.058c-.29.579-.7 1.031-1.232 1.358-.532.317-1.153.476-1.862.476zm0-1.288c.634 0 1.124-.229 1.47-.686.345-.457.518-1.097.518-1.918 0-.812-.173-1.447-.518-1.904-.346-.467-.836-.7-1.47-.7-.626 0-1.116.233-1.47.7-.346.457-.518 1.092-.518 1.904 0 .821.172 1.461.518 1.918.354.457.844.686 1.47.686zm4.527 1.12v-7.448h1.358l.042 1.414c.14-.485.355-.84.644-1.064.299-.233.677-.35 1.134-.35h.714v1.33h-.714c-.569 0-.994.14-1.274.42s-.42.714-.42 1.302v4.396zm9.441 0-2.268-7.448h1.554l1.596 5.824 1.638-5.824h1.4l1.638 5.824 1.61-5.824h1.554l-2.268 7.448h-1.666l-1.568-5.32-1.568 5.32zm12.264.168c-.709 0-1.33-.159-1.862-.476-.532-.327-.943-.779-1.232-1.358s-.434-1.265-.434-2.058.145-1.479.434-2.058.7-1.027 1.232-1.344c.532-.327 1.153-.49 1.862-.49s1.33.163 1.862.49c.532.317.943.765 1.232 1.344s.434 1.265.434 2.058-.145 1.479-.434 2.058-.7 1.031-1.232 1.358c-.532.317-1.153.476-1.862.476zm0-1.288c.635 0 1.125-.229 1.47-.686s.518-1.097.518-1.918c0-.812-.173-1.447-.518-1.904-.345-.467-.835-.7-1.47-.7-.625 0-1.115.233-1.47.7-.345.457-.518 1.092-.518 1.904 0 .821.173 1.461.518 1.918.355.457.845.686 1.47.686zm4.528 1.12v-7.448h1.358l.042 1.414c.14-.485.355-.84.644-1.064.299-.233.677-.35 1.134-.35h.714v1.33h-.714c-.569 0-.994.14-1.274.42s-.42.714-.42 1.302v4.396zm4.613 0v-9.94h1.484v6.174l3.346-3.682h1.876l-2.912 3.136 3.024 4.312h-1.708l-2.31-3.388-1.316 1.4v1.988zm7.981 0v-6.23h-1.036v-1.218h1.036v-.476c0-.616.172-1.106.518-1.47.345-.364.882-.546 1.61-.546h1.33v1.218h-1.12c-.57 0-.854.294-.854.882v.392h1.862v1.218h-1.862v6.23zm6.991.168c-.709 0-1.33-.159-1.862-.476-.532-.327-.942-.779-1.232-1.358-.289-.579-.434-1.265-.434-2.058s.145-1.479.434-2.058c.29-.579.7-1.027 1.232-1.344.532-.327 1.153-.49 1.862-.49.71 0 1.33.163 1.862.49.532.317.943.765 1.232 1.344.29.579.434 1.265.434 2.058s-.144 1.479-.434 2.058c-.289.579-.7 1.031-1.232 1.358-.532.317-1.152.476-1.862.476zm0-1.288c.635 0 1.125-.229 1.47-.686.346-.457.518-1.097.518-1.918 0-.812-.172-1.447-.518-1.904-.345-.467-.835-.7-1.47-.7-.625 0-1.115.233-1.47.7-.345.457-.518 1.092-.518 1.904 0 .821.173 1.461.518 1.918.355.457.845.686 1.47.686zm4.528 1.12v-7.448h1.358l.042 1.414c.14-.485.355-.84.644-1.064.299-.233.677-.35 1.134-.35h.714v1.33h-.714c-.569 0-.994.14-1.274.42s-.42.714-.42 1.302v4.396zm7.515.168c-.709 0-1.33-.159-1.862-.476-.532-.327-.942-.779-1.232-1.358-.289-.588-.434-1.274-.434-2.058s.145-1.465.434-2.044c.29-.588.7-1.041 1.232-1.358.532-.327 1.153-.49 1.862-.49.906 0 1.657.238 2.254.714.598.467.957 1.129 1.078 1.988l-1.554.084c-.074-.485-.27-.854-.588-1.106-.317-.261-.714-.392-1.19-.392-.625 0-1.115.233-1.47.7-.345.457-.518 1.092-.518 1.904 0 .821.173 1.461.518 1.918.355.457.845.686 1.47.686.476 0 .873-.131 1.19-.392.318-.271.514-.677.588-1.218l1.554.084c-.121.859-.48 1.545-1.078 2.058-.588.504-1.339.756-2.254.756zm7.252 0c-.728 0-1.358-.159-1.89-.476-.522-.327-.928-.779-1.218-1.358-.28-.588-.42-1.274-.42-2.058s.14-1.465.42-2.044c.29-.588.696-1.041 1.218-1.358.523-.327 1.139-.49 1.848-.49.672 0 1.265.159 1.778.476.514.308.91.756 1.19 1.344.29.588.434 1.297.434 2.128v.378h-5.348c.038.728.229 1.274.574 1.638.355.364.831.546 1.428.546.439 0 .798-.098 1.078-.294.29-.205.495-.485.616-.84l1.54.098c-.196.7-.583 1.26-1.162 1.68-.569.42-1.264.63-2.086.63zm-1.988-4.578h3.78c-.046-.663-.238-1.153-.574-1.47s-.756-.476-1.26-.476c-.532 0-.97.168-1.316.504-.336.327-.546.807-.63 1.442z" fill="#000"/><g clip-path="url(#b)"><path d="m505.495 634.432v-332.432h-590.99v332.432z" fill="#0a63b6"/><path d="m424.234 302v12.312c0 3.266-1.297 6.397-3.606 8.706s-5.441 3.607-8.707 3.607c-3.265 0-6.397-1.298-8.706-3.607s-3.606-5.44-3.606-8.706v-12.312z" fill="#1c91ff"/><path d="m399.609 353.712v-12.313c0-3.265 1.297-6.397 3.606-8.706s5.441-3.606 8.707-3.606c3.265 0 6.397 1.297 8.706 3.606s3.606 5.441 3.606 8.706v12.313z" fill="#1c91ff"/><path d="m399.609 380.799v-12.312c0-3.266 1.297-6.397 3.606-8.706s5.441-3.607 8.707-3.607c3.265 0 6.397 1.298 8.706 3.607s3.606 5.44 3.606 8.706v12.312z" fill="#1c91ff"/><path d="m424.234 383.262c0 6.531-2.595 12.794-7.213 17.412s-10.881 7.213-17.412 7.213v-24.625z" fill="#9fdbff"/><path d="m399.609 422.661c0 6.8 5.513 12.312 12.312 12.312 6.8 0 12.313-5.512 12.313-12.312s-5.513-12.313-12.313-12.313c-6.799 0-12.312 5.513-12.312 12.313z" fill="#9fdbff"/><path d="m411.922 462.059c6.8 0 12.312-5.512 12.312-12.312s-5.512-12.312-12.312-12.312-12.313 5.512-12.313 12.312 5.513 12.312 12.313 12.312z" fill="#9fdbff"/><path d="m411.921 464.523c-6.799 0-12.312 5.512-12.312 12.312s5.513 12.312 12.312 12.312c6.8 0 12.313-5.512 12.313-12.312s-5.513-12.312-12.313-12.312z" fill="#9fdbff"/><path d="m424.234 516.234h-12.313c-3.265 0-6.397-1.297-8.706-3.606s-3.606-5.441-3.606-8.707c0-3.265 1.297-6.397 3.606-8.706s5.441-3.606 8.706-3.606h12.313z" fill="#e2f78c"/><path d="m424.234 543.321h-12.312c-3.266 0-6.398-1.297-8.707-3.606s-3.606-5.441-3.606-8.706c0-3.266 1.297-6.398 3.606-8.707s5.441-3.606 8.707-3.606h12.312z" fill="#1c91ff"/><path d="m424.234 545.784c0 6.531-2.595 12.794-7.213 17.412s-10.881 7.213-17.412 7.213v-24.625z" fill="#9fdbff"/><path d="m411.922 572.87c-6.8 0-12.313 5.513-12.313 12.313 0 6.799 5.513 12.312 12.313 12.312 6.799 0 12.312-5.513 12.312-12.312 0-6.8-5.513-12.313-12.312-12.313z" fill="#fe9c1a"/><path d="m397.147 314.312c0-6.8-5.513-12.312-12.313-12.312-6.799 0-12.312 5.512-12.312 12.312s5.513 12.312 12.312 12.312c6.8 0 12.313-5.512 12.313-12.312z" fill="#9fdbff"/><path d="m397.147 341.399c0-6.799-5.513-12.312-12.312-12.312-6.8 0-12.313 5.513-12.313 12.312 0 6.8 5.513 12.313 12.313 12.313 6.799 0 12.312-5.513 12.312-12.313z" fill="#9fdbff"/><path d="m372.522 356.174c6.531 0 12.794 2.595 17.412 7.213s7.213 10.881 7.213 17.412h-24.625z" fill="#9fdbff"/><path d="m372.522 407.885v-12.312c0-3.265 1.297-6.397 3.606-8.706s5.441-3.606 8.707-3.606c3.265 0 6.397 1.297 8.706 3.606s3.606 5.441 3.606 8.706v12.312z" fill="#1c91ff"/><path d="m397.147 422.66c0-6.799-5.513-12.312-12.312-12.312-6.8 0-12.313 5.513-12.313 12.312 0 6.8 5.513 12.313 12.313 12.313 6.799 0 12.312-5.513 12.312-12.313z" fill="#9fdbff"/><path d="m384.834 462.059c6.8 0 12.313-5.512 12.313-12.312s-5.513-12.312-12.313-12.312c-6.799 0-12.312 5.512-12.312 12.312s5.513 12.312 12.312 12.312z" fill="#9fdbff"/><path d="m384.835 489.147c6.799 0 12.312-5.513 12.312-12.313 0-6.799-5.513-12.312-12.312-12.312-6.8 0-12.313 5.513-12.313 12.312 0 6.8 5.513 12.313 12.313 12.313z" fill="#9fdbff"/><path d="m372.522 503.921c0 6.8 5.513 12.313 12.313 12.313 6.799 0 12.312-5.513 12.312-12.313 0-6.799-5.513-12.312-12.312-12.312-6.8 0-12.313 5.513-12.313 12.312z" fill="#9fdbff"/><path d="m384.834 518.696c-6.799 0-12.312 5.513-12.312 12.313 0 6.799 5.513 12.312 12.312 12.312 6.8 0 12.313-5.513 12.313-12.312 0-6.8-5.513-12.313-12.313-12.313z" fill="#9fdbff"/><path d="m397.147 570.409c-6.531 0-12.794-2.595-17.412-7.213s-7.213-10.881-7.213-17.412h24.625z" fill="#9fdbff"/><path d="m372.522 597.495v-12.312c0-3.266 1.297-6.398 3.606-8.707s5.441-3.606 8.707-3.606c3.265 0 6.397 1.297 8.706 3.606s3.606 5.441 3.606 8.707v12.312z" fill="#1c91ff"/><path d="m370.06 302v12.312c0 3.266-1.297 6.397-3.606 8.706s-5.441 3.607-8.707 3.607c-3.265 0-6.397-1.298-8.706-3.607s-3.606-5.44-3.606-8.706v-12.312z" fill="#1c91ff"/><path d="m345.435 329.087h12.312c3.266 0 6.398 1.298 8.707 3.607s3.606 5.44 3.606 8.706c0 3.265-1.297 6.397-3.606 8.706s-5.441 3.606-8.707 3.606h-12.312z" fill="#1c91ff"/><path d="m345.435 380.799v-12.312c0-3.266 1.297-6.397 3.606-8.706s5.441-3.607 8.706-3.607c3.266 0 6.398 1.298 8.707 3.607s3.606 5.44 3.606 8.706v12.312z" fill="#1c91ff"/><path d="m345.435 407.885v-12.312c0-3.265 1.297-6.397 3.606-8.706s5.441-3.606 8.706-3.606c3.266 0 6.398 1.297 8.707 3.606s3.606 5.441 3.606 8.706v12.312z" fill="#ffc3df"/><path d="m370.06 434.973h-12.313c-3.265 0-6.397-1.297-8.706-3.606s-3.606-5.441-3.606-8.707c0-3.265 1.297-6.397 3.606-8.706s5.441-3.606 8.706-3.606h12.313z" fill="#1c91ff"/><path d="m345.435 437.436c6.531 0 12.794 2.594 17.412 7.212s7.213 10.881 7.213 17.412h-24.625z" fill="#9fdbff"/><path d="m345.435 489.147v-12.312c0-3.265 1.297-6.397 3.606-8.706s5.441-3.606 8.707-3.606c3.265 0 6.397 1.297 8.706 3.606s3.606 5.441 3.606 8.706v12.312z" fill="#ffc3df"/><path d="m345.435 516.234v-12.313c0-3.265 1.297-6.397 3.606-8.706s5.441-3.606 8.707-3.606c3.265 0 6.397 1.297 8.706 3.606s3.606 5.441 3.606 8.706v12.313z" fill="#1c91ff"/><path d="m370.06 543.321c-6.531 0-12.794-2.594-17.412-7.212s-7.213-10.882-7.213-17.412h24.625z" fill="#9fdbff"/><path d="m357.747 570.409c6.8 0 12.313-5.513 12.313-12.313 0-6.799-5.513-12.312-12.313-12.312-6.799 0-12.312 5.513-12.312 12.312 0 6.8 5.513 12.313 12.312 12.313z" fill="#9fdbff"/><path d="m370.06 597.495h-12.313c-3.265 0-6.397-1.297-8.706-3.606s-3.606-5.441-3.606-8.706c0-3.266 1.297-6.398 3.606-8.707s5.441-3.606 8.706-3.606h12.313z" fill="#1c91ff"/><path d="m342.973 302c0 6.531-2.595 12.794-7.213 17.412s-10.881 7.213-17.412 7.213v-24.625z" fill="#9fdbff"/><path d="m342.973 341.399c0-6.8-5.513-12.312-12.313-12.312-6.799 0-12.312 5.512-12.312 12.312s5.513 12.313 12.312 12.313c6.8 0 12.313-5.513 12.313-12.313z" fill="#9fdbff"/><path d="m330.66 380.798c6.8 0 12.313-5.512 12.313-12.312s-5.513-12.312-12.313-12.312-12.312 5.512-12.312 12.312 5.512 12.312 12.312 12.312z" fill="#9fdbff"/><path d="m342.973 407.885h-12.313c-3.265 0-6.397-1.297-8.706-3.606s-3.606-5.44-3.606-8.706c0-3.265 1.297-6.397 3.606-8.706s5.441-3.606 8.706-3.606h12.313z" fill="#1c91ff"/><path d="m342.973 410.348v12.313c0 3.265-1.297 6.397-3.606 8.706s-5.441 3.606-8.707 3.606c-3.265 0-6.397-1.297-8.706-3.606s-3.606-5.441-3.606-8.706v-12.313z" fill="#1c91ff"/><path d="m318.348 462.059v-12.312c0-3.265 1.297-6.397 3.606-8.706s5.441-3.606 8.706-3.606c3.266 0 6.397 1.297 8.706 3.606s3.607 5.441 3.607 8.706v12.312z" fill="#1c91ff"/><path d="m318.348 489.147v-12.312c0-3.265 1.297-6.397 3.606-8.706s5.441-3.606 8.706-3.606c3.266 0 6.397 1.297 8.706 3.606s3.607 5.441 3.607 8.706v12.312z" fill="#1c91ff"/><path d="m342.973 516.234c-6.531 0-12.794-2.595-17.412-7.213s-7.213-10.881-7.213-17.412h24.625z" fill="#9fdbff"/><path d="m318.348 543.321v-12.312c0-3.266 1.297-6.398 3.606-8.707s5.441-3.606 8.706-3.606c3.266 0 6.398 1.297 8.707 3.606s3.606 5.441 3.606 8.707v12.312z" fill="#1c91ff"/><path d="m342.973 545.784c0 6.531-2.595 12.794-7.213 17.412s-10.881 7.213-17.412 7.213v-24.625z" fill="#9fdbff"/><path d="m318.348 597.495v-12.312c0-3.266 1.297-6.398 3.606-8.707s5.441-3.606 8.706-3.606c3.266 0 6.398 1.297 8.707 3.606s3.606 5.441 3.606 8.707v12.312z" fill="#1c91ff"/><path d="m315.886 326.625c-6.531 0-12.795-2.595-17.413-7.213s-7.212-10.881-7.212-17.412h24.625z" fill="#9fdbff"/><path d="m291.261 329.087h12.312c3.266 0 6.397 1.298 8.706 3.607s3.607 5.44 3.607 8.706c0 3.265-1.298 6.397-3.607 8.706s-5.44 3.606-8.706 3.606h-12.312z" fill="#1c91ff"/><path d="m315.886 380.799h-12.313c-3.265 0-6.397-1.297-8.706-3.606s-3.606-5.441-3.606-8.706c0-3.266 1.297-6.397 3.606-8.706s5.441-3.607 8.706-3.607h12.313z" fill="#1c91ff"/><path d="m315.886 407.887c-6.531 0-12.795-2.595-17.413-7.213s-7.212-10.881-7.212-17.412h24.625z" fill="#9fdbff"/><path d="m315.886 422.66c0-6.799-5.513-12.312-12.313-12.312s-12.312 5.513-12.312 12.312c0 6.8 5.512 12.313 12.312 12.313s12.313-5.513 12.313-12.313z" fill="#9fdbff"/><path d="m315.886 437.435v12.312c0 3.266-1.298 6.397-3.607 8.706s-5.44 3.606-8.706 3.606c-3.265 0-6.397-1.297-8.706-3.606s-3.606-5.44-3.606-8.706v-12.312z" fill="#1c91ff"/><path d="m315.886 464.523v12.312c0 3.266-1.298 6.397-3.607 8.706s-5.44 3.606-8.706 3.606c-3.265 0-6.397-1.297-8.706-3.606s-3.606-5.44-3.606-8.706v-12.312z" fill="#1c91ff"/><path d="m315.886 516.234c-6.531 0-12.794-2.595-17.412-7.213s-7.213-10.881-7.213-17.412h24.625z" fill="#9fdbff"/><path d="m291.261 543.321v-12.312c0-3.266 1.297-6.398 3.606-8.707s5.441-3.606 8.706-3.606c3.266 0 6.398 1.297 8.707 3.606s3.606 5.441 3.606 8.707v12.312z" fill="#1c91ff"/><path d="m291.261 570.407c0-6.53 2.594-12.794 7.213-17.412 4.618-4.618 10.881-7.212 17.412-7.212v24.624z" fill="#9fdbff"/><path d="m315.886 572.87v12.313c0 3.265-1.298 6.397-3.607 8.706s-5.44 3.606-8.706 3.606c-3.265 0-6.397-1.297-8.706-3.606s-3.606-5.441-3.606-8.706v-12.313z" fill="#1c91ff"/><path d="m288.799 314.312c0-6.8-5.513-12.312-12.313-12.312s-12.312 5.512-12.312 12.312 5.512 12.312 12.312 12.312 12.313-5.512 12.313-12.312z" fill="#9fdbff"/><path d="m288.799 329.087v12.312c0 3.266-1.298 6.398-3.607 8.707s-5.44 3.606-8.706 3.606c-3.265 0-6.397-1.297-8.706-3.606s-3.606-5.441-3.606-8.707v-12.312z" fill="#1c91ff"/><path d="m288.799 368.487c0-6.8-5.513-12.313-12.313-12.313s-12.312 5.513-12.312 12.313 5.512 12.312 12.312 12.312 12.313-5.512 12.313-12.312z" fill="#9fdbff"/><path d="m276.486 383.261c-6.8 0-12.312 5.512-12.312 12.312s5.512 12.312 12.312 12.312 12.313-5.512 12.313-12.312-5.513-12.312-12.313-12.312z" fill="#9fdbff"/><path d="m288.799 434.973c-6.531 0-12.795-2.594-17.413-7.212s-7.212-10.882-7.212-17.413h24.625z" fill="#e2f78c"/><path d="m264.174 462.06v-12.312c0-3.265 1.297-6.397 3.606-8.706s5.441-3.606 8.706-3.606c3.266 0 6.397 1.297 8.706 3.606s3.607 5.441 3.607 8.706v12.312z" fill="#1c91ff"/><path d="m276.486 464.523c-6.799 0-12.312 5.512-12.312 12.312s5.513 12.312 12.312 12.312c6.8 0 12.313-5.512 12.313-12.312s-5.513-12.312-12.313-12.312z" fill="#9fdbff"/><path d="m288.799 491.609v12.312c0 3.266-1.297 6.398-3.606 8.707s-5.441 3.606-8.707 3.606c-3.265 0-6.397-1.297-8.706-3.606s-3.606-5.441-3.606-8.707v-12.312z" fill="#1c91ff"/><path d="m276.486 518.696c-6.8 0-12.312 5.513-12.312 12.313 0 6.799 5.512 12.312 12.312 12.312s12.313-5.513 12.313-12.312c0-6.8-5.513-12.313-12.313-12.313z" fill="#9fdbff"/><path d="m264.174 570.407v-12.312c0-3.265 1.297-6.397 3.606-8.706s5.441-3.606 8.706-3.606c3.266 0 6.397 1.297 8.706 3.606s3.607 5.441 3.607 8.706v12.312z" fill="#1c91ff"/><path d="m264.174 572.87c6.531 0 12.794 2.595 17.412 7.213s7.213 10.881 7.213 17.412h-24.625z" fill="#9fdbff"/><path d="m261.712 326.625c-6.531 0-12.795-2.595-17.413-7.213s-7.212-10.881-7.212-17.412h24.625z" fill="#9fdbff"/><path d="m237.087 329.087h12.312c3.266 0 6.397 1.298 8.706 3.607s3.607 5.44 3.607 8.706c0 3.265-1.298 6.397-3.607 8.706s-5.44 3.606-8.706 3.606h-12.312z" fill="#e2f78c"/><path d="m249.399 356.174c-6.8 0-12.312 5.513-12.312 12.313s5.512 12.312 12.312 12.312 12.313-5.512 12.313-12.312-5.513-12.313-12.313-12.313z" fill="#e2f78c"/><path d="m249.399 407.887c6.8 0 12.313-5.513 12.313-12.313 0-6.799-5.513-12.312-12.313-12.312s-12.312 5.513-12.312 12.312c0 6.8 5.512 12.313 12.312 12.313z" fill="#9fdbff"/><path d="m261.712 410.348v12.312c0 3.266-1.298 6.398-3.607 8.707s-5.44 3.606-8.706 3.606c-3.265 0-6.397-1.297-8.706-3.606s-3.606-5.441-3.606-8.707v-12.312z" fill="#e2f78c"/><path d="m261.712 449.748c0-6.8-5.513-12.312-12.313-12.312-6.799 0-12.312 5.512-12.312 12.312s5.513 12.312 12.312 12.312c6.8 0 12.313-5.512 12.313-12.312z" fill="#9fdbff"/><path d="m249.399 489.147c6.8 0 12.313-5.513 12.313-12.313 0-6.799-5.513-12.312-12.313-12.312s-12.312 5.513-12.312 12.312c0 6.8 5.512 12.313 12.312 12.313z" fill="#9fdbff"/><path d="m261.712 503.921c0-6.799-5.513-12.312-12.313-12.312s-12.312 5.513-12.312 12.312c0 6.8 5.512 12.313 12.312 12.313s12.313-5.513 12.313-12.313z" fill="#9fdbff"/><path d="m261.712 543.321h-12.313c-3.265 0-6.397-1.297-8.706-3.606s-3.606-5.441-3.606-8.706c0-3.266 1.297-6.398 3.606-8.707s5.441-3.606 8.706-3.606h12.313z" fill="#1c91ff"/><path d="m249.399 545.783c-6.8 0-12.312 5.512-12.312 12.312s5.512 12.312 12.312 12.312 12.313-5.512 12.313-12.312-5.513-12.312-12.313-12.312z" fill="#fe9c1a"/><path d="m237.087 585.183c0 6.8 5.512 12.312 12.312 12.312s12.313-5.512 12.313-12.312-5.513-12.313-12.313-12.313-12.312 5.513-12.312 12.313z" fill="#9fdbff"/><path d="m222.312 302c-6.8 0-12.312 5.512-12.312 12.312s5.512 12.312 12.312 12.312 12.313-5.512 12.313-12.312-5.513-12.312-12.313-12.312z" fill="#9fdbff"/><path d="m234.625 329.087v12.313c0 3.265-1.298 6.397-3.607 8.706s-5.44 3.606-8.706 3.606c-3.265 0-6.397-1.297-8.706-3.606s-3.606-5.441-3.606-8.706v-12.313z" fill="#1c91ff"/><path d="m210 356.174h12.312c3.266 0 6.397 1.297 8.706 3.606s3.607 5.441 3.607 8.706-1.298 6.397-3.607 8.706-5.44 3.606-8.706 3.606h-12.312z" fill="#1c91ff"/><path d="m210 395.574c0 6.8 5.512 12.313 12.312 12.313s12.313-5.513 12.313-12.313c0-6.799-5.513-12.312-12.313-12.312s-12.312 5.513-12.312 12.312z" fill="#9fdbff"/><path d="m234.625 434.973c-6.531 0-12.795-2.594-17.413-7.212s-7.212-10.882-7.212-17.413h24.625z" fill="#9fdbff"/><path d="m210 449.747c0 6.8 5.513 12.312 12.312 12.312 6.8 0 12.313-5.512 12.313-12.312s-5.513-12.312-12.313-12.312c-6.799 0-12.312 5.512-12.312 12.312z" fill="#9fdbff"/><path d="m210 489.147v-12.312c0-3.265 1.297-6.397 3.606-8.706s5.441-3.606 8.706-3.606c3.266 0 6.397 1.297 8.706 3.606s3.607 5.441 3.607 8.706v12.312z" fill="#1c91ff"/><path d="m222.312 491.609c-6.8 0-12.312 5.513-12.312 12.312 0 6.8 5.512 12.313 12.312 12.313s12.313-5.513 12.313-12.313c0-6.799-5.513-12.312-12.313-12.312z" fill="#9fdbff"/><path d="m234.625 518.696v12.313c0 3.265-1.298 6.397-3.607 8.706s-5.44 3.606-8.706 3.606c-3.265 0-6.397-1.297-8.706-3.606s-3.606-5.441-3.606-8.706v-12.313z" fill="#1c91ff"/><path d="m222.312 545.783c-6.8 0-12.312 5.512-12.312 12.312s5.512 12.312 12.312 12.312 12.313-5.512 12.313-12.312-5.513-12.312-12.313-12.312z" fill="#9fdbff"/><path d="m210 597.495v-12.312c0-3.266 1.297-6.398 3.606-8.707s5.441-3.606 8.706-3.606c3.266 0 6.397 1.297 8.706 3.606s3.607 5.441 3.607 8.707v12.312z" fill="#1c91ff"/><path d="m207.538 314.312c0-6.8-5.513-12.312-12.313-12.312s-12.312 5.512-12.312 12.312 5.512 12.312 12.312 12.312 12.313-5.512 12.313-12.312z" fill="#9fdbff"/><path d="m182.913 353.712c0-6.531 2.594-12.795 7.212-17.413s10.882-7.212 17.413-7.212v24.625z" fill="#9fdbff"/><path d="m207.538 356.174c0 6.53-2.595 12.794-7.213 17.412s-10.881 7.212-17.412 7.212v-24.624z" fill="#9fdbff"/><path d="m182.913 383.262h12.312c3.266 0 6.397 1.297 8.706 3.606s3.607 5.441 3.607 8.706c0 3.266-1.298 6.398-3.607 8.707s-5.44 3.606-8.706 3.606h-12.312z" fill="#1c91ff"/><path d="m195.225 410.348c-6.8 0-12.312 5.513-12.312 12.312 0 6.8 5.512 12.313 12.312 12.313s12.313-5.513 12.313-12.313c0-6.799-5.513-12.312-12.313-12.312z" fill="#9fdbff"/><path d="m207.538 462.06h-12.313c-3.265 0-6.397-1.297-8.706-3.606s-3.606-5.441-3.606-8.706 1.297-6.397 3.606-8.706 5.441-3.606 8.706-3.606h12.313z" fill="#ffc3df"/><path d="m182.913 464.523c6.531 0 12.794 2.594 17.412 7.212s7.213 10.882 7.213 17.412h-24.625z" fill="#9fdbff"/><path d="m207.538 503.921c0-6.799-5.513-12.312-12.313-12.312s-12.312 5.513-12.312 12.312c0 6.8 5.512 12.313 12.312 12.313s12.313-5.513 12.313-12.313z" fill="#9fdbff"/><path d="m195.225 518.696c-6.8 0-12.312 5.513-12.312 12.313 0 6.799 5.512 12.312 12.312 12.312s12.312-5.513 12.312-12.312c0-6.8-5.512-12.313-12.312-12.313z" fill="#9fdbff"/><path d="m182.913 545.784h12.312c3.266 0 6.397 1.297 8.706 3.606s3.606 5.441 3.606 8.706c0 3.266-1.297 6.398-3.606 8.707s-5.44 3.606-8.706 3.606h-12.312z" fill="#1c91ff"/><path d="m207.537 597.495h-12.312c-3.265 0-6.397-1.297-8.706-3.606s-3.606-5.441-3.606-8.706c0-3.266 1.297-6.397 3.606-8.706s5.441-3.607 8.706-3.607h12.312z" fill="#1c91ff"/><path d="m155.826 302c6.531 0 12.794 2.594 17.412 7.212s7.213 10.882 7.213 17.412h-24.625z" fill="#9fdbff"/><path d="m155.826 353.712c0-6.531 2.594-12.794 7.212-17.412s10.882-7.213 17.412-7.213v24.625z" fill="#9fdbff"/><path d="m155.826 368.486c0 6.8 5.512 12.312 12.312 12.312s12.313-5.512 12.313-12.312-5.513-12.312-12.313-12.312-12.312 5.512-12.312 12.312z" fill="#9fdbff"/><path d="m155.826 407.885c0-6.53 2.594-12.794 7.212-17.412s10.882-7.212 17.413-7.212v24.624z" fill="#e2f78c"/><path d="m155.826 410.348c6.531 0 12.794 2.595 17.412 7.213s7.213 10.881 7.213 17.412h-24.625z" fill="#9fdbff"/><path d="m168.138 437.436c-6.8 0-12.312 5.512-12.312 12.312s5.512 12.312 12.312 12.312 12.313-5.512 12.313-12.312-5.513-12.312-12.313-12.312z" fill="#9fdbff"/><path d="m180.45 489.147c-6.53 0-12.794-2.595-17.412-7.213s-7.212-10.881-7.212-17.412h24.625z" fill="#fe9c1a"/><path d="m155.826 503.921c0 6.8 5.512 12.313 12.312 12.313s12.312-5.513 12.312-12.313c0-6.799-5.512-12.312-12.312-12.312s-12.312 5.513-12.312 12.312z" fill="#9fdbff"/><g fill="#1c91ff"><path d="m155.826 543.321v-12.312c0-3.266 1.297-6.398 3.606-8.707s5.441-3.606 8.706-3.606c3.266 0 6.397 1.297 8.706 3.606s3.606 5.441 3.606 8.707v12.312z"/><path d="m180.45 570.407h-12.312c-3.265 0-6.397-1.297-8.706-3.606s-3.606-5.44-3.606-8.706c0-3.265 1.297-6.397 3.606-8.706s5.441-3.606 8.706-3.606h12.312z"/><path d="m155.826 572.87h12.312c3.266 0 6.397 1.298 8.706 3.607s3.606 5.44 3.606 8.706c0 3.265-1.297 6.397-3.606 8.706s-5.44 3.606-8.706 3.606h-12.312z"/><path d="m128.739 302h12.312c3.266 0 6.397 1.297 8.706 3.606s3.606 5.441 3.606 8.706c0 3.266-1.297 6.397-3.606 8.706s-5.44 3.607-8.706 3.607h-12.312z"/><path d="m128.739 329.087h12.312c3.266 0 6.397 1.298 8.706 3.607s3.606 5.44 3.606 8.706c0 3.265-1.297 6.397-3.606 8.706s-5.44 3.606-8.706 3.606h-12.312z"/><path d="m153.363 356.174v12.312c0 3.265-1.297 6.397-3.606 8.706s-5.44 3.606-8.706 3.606c-3.265 0-6.397-1.297-8.706-3.606s-3.606-5.441-3.606-8.706v-12.312z"/><path d="m153.363 383.262v12.312c0 3.266-1.297 6.398-3.606 8.707s-5.44 3.606-8.706 3.606c-3.265 0-6.397-1.297-8.706-3.606s-3.606-5.441-3.606-8.707v-12.312z"/><path d="m153.363 434.973h-12.312c-3.265 0-6.397-1.297-8.706-3.606s-3.606-5.441-3.606-8.707c0-3.265 1.297-6.397 3.606-8.706s5.441-3.606 8.706-3.606h12.312z"/></g><path d="m128.739 462.06c0-6.531 2.594-12.794 7.212-17.412s10.882-7.212 17.412-7.212v24.624z" fill="#9fdbff"/><path d="m153.363 489.147c-6.53 0-12.794-2.595-17.412-7.213s-7.212-10.881-7.212-17.412h24.624z" fill="#9fdbff"/><path d="m141.051 516.234c6.8 0 12.312-5.513 12.312-12.313 0-6.799-5.512-12.312-12.312-12.312s-12.312 5.513-12.312 12.312c0 6.8 5.512 12.313 12.312 12.313z" fill="#9fdbff"/><path d="m141.051 543.321c6.8 0 12.312-5.512 12.312-12.312s-5.512-12.312-12.312-12.312-12.312 5.512-12.312 12.312 5.512 12.312 12.312 12.312z" fill="#9fdbff"/><path d="m128.739 570.407c0-6.53 2.594-12.794 7.212-17.412s10.882-7.212 17.412-7.212v24.624z" fill="#e2f78c"/><path d="m128.739 585.183c0 6.8 5.512 12.312 12.312 12.312s12.312-5.512 12.312-12.312-5.512-12.313-12.312-12.313-12.312 5.513-12.312 12.313z" fill="#9fdbff"/><path d="m101.652 326.624c0-6.53 2.594-12.794 7.212-17.412s10.882-7.212 17.413-7.212v24.624z" fill="#9fdbff"/><path d="m101.652 329.087c6.531 0 12.794 2.595 17.412 7.213s7.212 10.881 7.212 17.412h-24.624z" fill="#9fdbff"/><path d="m101.652 380.798v-12.312c0-3.265 1.297-6.397 3.606-8.706s5.441-3.606 8.706-3.606c3.266 0 6.397 1.297 8.706 3.606s3.606 5.441 3.606 8.706v12.312z" fill="#1c91ff"/><path d="m101.652 383.262h12.312c3.266 0 6.397 1.297 8.706 3.606s3.607 5.441 3.607 8.706c0 3.266-1.298 6.398-3.607 8.707s-5.44 3.606-8.706 3.606h-12.312z" fill="#1c91ff"/><path d="m101.652 410.348c6.531 0 12.794 2.595 17.412 7.213s7.212 10.881 7.212 17.412h-24.624z" fill="#9fdbff"/><path d="m126.277 437.435v12.312c0 3.265-1.298 6.397-3.607 8.706s-5.44 3.606-8.706 3.606c-3.265 0-6.397-1.297-8.706-3.606s-3.606-5.441-3.606-8.706v-12.312z" fill="#1c91ff"/><path d="m126.276 489.147h-12.312c-3.265 0-6.397-1.297-8.706-3.606s-3.606-5.44-3.606-8.706c0-3.265 1.297-6.397 3.606-8.706s5.441-3.606 8.706-3.606h12.312z" fill="#1c91ff"/><path d="m126.276 491.609v12.312c0 3.266-1.297 6.398-3.606 8.707s-5.44 3.606-8.706 3.606c-3.265 0-6.397-1.297-8.706-3.606s-3.606-5.441-3.606-8.707v-12.312z" fill="#1c91ff"/><path d="m126.276 518.697v12.312c0 3.265-1.297 6.397-3.606 8.706s-5.44 3.606-8.706 3.606c-3.265 0-6.397-1.297-8.706-3.606s-3.606-5.441-3.606-8.706v-12.312z" fill="#e2f78c"/><path d="m101.652 545.784h12.312c3.266 0 6.397 1.297 8.706 3.606s3.606 5.441 3.606 8.706c0 3.266-1.297 6.398-3.606 8.707s-5.44 3.606-8.706 3.606h-12.312z" fill="#1c91ff"/><path d="m126.276 572.87v12.313c0 3.265-1.297 6.397-3.606 8.706s-5.44 3.606-8.706 3.606c-3.265 0-6.397-1.297-8.706-3.606s-3.606-5.441-3.606-8.706v-12.313z" fill="#1c91ff"/><path d="m74.5648 326.624c0-6.53 2.5944-12.794 7.2124-17.412s10.8813-7.212 17.4122-7.212v24.624z" fill="#9fdbff"/><path d="m74.5649 341.4c0 6.8 5.5124 12.312 12.3123 12.312s12.3123-5.512 12.3123-12.312-5.5124-12.313-12.3123-12.313-12.3123 5.513-12.3123 12.313z" fill="#9fdbff"/><path d="m74.5648 380.799v-12.312c0-3.266 1.2972-6.397 3.6062-8.706s5.4407-3.607 8.7061-3.607 6.3971 1.298 8.7061 3.607 3.6062 5.44 3.6062 8.706v12.312z" fill="#1c91ff"/><path d="m74.5648 407.885c0-6.53 2.5943-12.794 7.2124-17.412 4.618-4.618 10.8813-7.212 17.4122-7.212v24.624z" fill="#fe9c1a"/><path d="m99.1894 422.66c0-6.799-5.5124-12.312-12.3123-12.312s-12.3123 5.513-12.3123 12.312c0 6.8 5.5124 12.313 12.3123 12.313s12.3123-5.513 12.3123-12.313z" fill="#fe9c1a"/><path d="m99.1894 437.435c0 6.531-2.5944 12.794-7.2124 17.412s-10.8813 7.212-17.4122 7.212v-24.624z" fill="#9fdbff"/><path d="m74.5648 464.522h12.3123c3.2654 0 6.3971 1.297 8.7061 3.606s3.6062 5.441 3.6062 8.706c0 3.266-1.2972 6.398-3.6062 8.707s-5.4407 3.606-8.7061 3.606h-12.3123z" fill="#1c91ff"/><path d="m86.8771 516.234c6.7999 0 12.3123-5.513 12.3123-12.313 0-6.799-5.5124-12.312-12.3123-12.312s-12.3123 5.513-12.3123 12.312c0 6.8 5.5124 12.313 12.3123 12.313z" fill="#9fdbff"/><path d="m74.5648 518.696c6.5309 0 12.7942 2.595 17.4122 7.213s7.2124 10.881 7.2124 17.412h-24.6246z" fill="#9fdbff"/><path d="m74.5648 570.407v-12.312c0-3.265 1.2972-6.397 3.6062-8.706s5.4407-3.606 8.7061-3.606 6.3971 1.297 8.7061 3.606 3.6062 5.441 3.6062 8.706v12.312z" fill="#1c91ff"/><path d="m74.5648 597.495v-12.312c0-3.266 1.2972-6.397 3.6062-8.706s5.4407-3.607 8.7061-3.607 6.3971 1.298 8.7061 3.607 3.6062 5.44 3.6062 8.706v12.312z" fill="#1c91ff"/><path d="m72.1024 326.625c-6.5309 0-12.7942-2.595-17.4123-7.213-4.618-4.618-7.2123-10.881-7.2123-17.412h24.6246z" fill="#9fdbff"/><path d="m47.4778 329.087c6.5308 0 12.7942 2.595 17.4122 7.213s7.2124 10.881 7.2124 17.412h-24.6246z" fill="#e2f78c"/><path d="m59.7901 356.174c-6.7999 0-12.3123 5.513-12.3123 12.313s5.5124 12.312 12.3123 12.312c6.7998 0 12.3122-5.512 12.3122-12.312s-5.5124-12.313-12.3122-12.313z" fill="#9fdbff"/><path d="m72.1024 383.262c0 6.531-2.5944 12.794-7.2124 17.412s-10.8813 7.213-17.4122 7.213v-24.625z" fill="#9fdbff"/><path d="m47.4778 410.348c6.5308 0 12.7942 2.595 17.4122 7.213s7.2123 10.881 7.2123 17.412h-24.6245z" fill="#9fdbff"/><path d="m72.1024 449.748c0-6.8-5.5124-12.312-12.3123-12.312s-12.3123 5.512-12.3123 12.312 5.5124 12.312 12.3123 12.312 12.3123-5.512 12.3123-12.312z" fill="#9fdbff"/><path d="m72.1024 464.523v12.312c0 3.266-1.2972 6.397-3.6062 8.706s-5.4407 3.606-8.7061 3.606-6.3971-1.297-8.7061-3.606-3.6062-5.44-3.6062-8.706v-12.312z" fill="#1c91ff"/><path d="m47.4778 491.609h12.3123c3.2654 0 6.3971 1.297 8.7061 3.606s3.6062 5.441 3.6062 8.706c0 3.266-1.2972 6.398-3.6062 8.707s-5.4407 3.606-8.7061 3.606h-12.3123z" fill="#1c91ff"/><path d="m59.7901 543.321c6.7999 0 12.3123-5.512 12.3123-12.312s-5.5124-12.312-12.3123-12.312-12.3123 5.512-12.3123 12.312 5.5124 12.312 12.3123 12.312z" fill="#9fdbff"/><path d="m47.4778 570.409v-12.313c0-3.265 1.2972-6.397 3.6062-8.706s5.4407-3.606 8.7061-3.606 6.3971 1.297 8.7061 3.606 3.6062 5.441 3.6062 8.706v12.313z" fill="#1c91ff"/><path d="m59.79 572.87c-6.7999 0-12.3123 5.513-12.3123 12.313s5.5124 12.312 12.3123 12.312 12.3123-5.512 12.3123-12.312-5.5124-12.313-12.3123-12.313z" fill="#9fdbff"/><path d="m20.3907 302h12.3123c3.2654 0 6.3971 1.297 8.7061 3.606s3.6062 5.441 3.6062 8.706c0 3.266-1.2972 6.397-3.6062 8.706s-5.4407 3.607-8.7061 3.607h-12.3123z" fill="#1c91ff"/><path d="m20.3907 353.712v-12.313c0-3.265 1.2972-6.397 3.6062-8.706s5.4407-3.606 8.7061-3.606 6.3971 1.297 8.7061 3.606 3.6062 5.441 3.6062 8.706v12.313z" fill="#1c91ff"/><path d="m45.0153 380.799h-12.3123c-3.2654 0-6.3971-1.297-8.7061-3.606s-3.6062-5.441-3.6062-8.706c0-3.266 1.2972-6.397 3.6062-8.706s5.4407-3.607 8.7061-3.607h12.3123z" fill="#1c91ff"/><path d="m45.0153 407.885h-12.3123c-3.2654 0-6.3971-1.297-8.7061-3.606s-3.6062-5.44-3.6062-8.706c0-3.265 1.2972-6.397 3.6062-8.706s5.4407-3.606 8.7061-3.606h12.3123z" fill="#ffc3df"/><path d="m20.3907 422.661c0 6.8 5.5124 12.312 12.3123 12.312s12.3123-5.512 12.3123-12.312-5.5124-12.313-12.3123-12.313-12.3123 5.513-12.3123 12.313z" fill="#9fdbff"/><path d="m20.3908 462.059v-12.312c0-3.265 1.2972-6.397 3.6062-8.706s5.4407-3.606 8.7061-3.606 6.3971 1.297 8.7061 3.606 3.6062 5.441 3.6062 8.706v12.312z" fill="#1c91ff"/><path d="m45.0153 476.835c0-6.8-5.5124-12.312-12.3123-12.312-6.7998 0-12.3122 5.512-12.3122 12.312s5.5124 12.312 12.3122 12.312c6.7999 0 12.3123-5.512 12.3123-12.312z" fill="#9fdbff"/><path d="m20.3908 516.234v-12.313c0-3.265 1.2971-6.397 3.6061-8.706s5.4407-3.606 8.7061-3.606c3.2655 0 6.3971 1.297 8.7062 3.606 2.309 2.309 3.6061 5.441 3.6061 8.706v12.313z" fill="#1c91ff"/><path d="m20.3907 543.321v-12.312c0-3.266 1.2972-6.398 3.6062-8.707s5.4407-3.606 8.7061-3.606c3.2655 0 6.3971 1.297 8.7061 3.606s3.6062 5.441 3.6062 8.707v12.312z" fill="#1c91ff"/><path d="m20.3907 570.409v-12.313c0-3.265 1.2972-6.397 3.6062-8.706s5.4407-3.606 8.7061-3.606c3.2655 0 6.3971 1.297 8.7061 3.606s3.6062 5.441 3.6062 8.706v12.313z" fill="#1c91ff"/><path d="m20.3907 597.495v-12.312c0-3.266 1.2972-6.397 3.6062-8.706s5.4407-3.607 8.7061-3.607 6.3971 1.298 8.7061 3.607 3.6062 5.44 3.6062 8.706v12.312z" fill="#e2f78c"/><path d="m17.9283 314.312c0-6.8-5.5124-12.312-12.3123-12.312-6.79989 0-12.31229 5.512-12.31229 12.312s5.5124 12.312 12.31229 12.312c6.7999 0 12.3123-5.512 12.3123-12.312z" fill="#9fdbff"/><path d="m-6.69636 329.087h12.31229c3.26542 0 6.39707 1.298 8.70607 3.607s3.6062 5.44 3.6062 8.706c0 3.265-1.2972 6.397-3.6062 8.706s-5.44065 3.606-8.70607 3.606h-12.31229z" fill="#e2f78c"/><path d="m17.9282 368.487c0-6.8-5.5124-12.313-12.31226-12.313-6.79989 0-12.31229 5.513-12.31229 12.313s5.5124 12.312 12.31229 12.312c6.79986 0 12.31226-5.512 12.31226-12.312z" fill="#9fdbff"/><path d="m-6.69629 383.262h12.31229c3.26542 0 6.3971 1.297 8.7061 3.606s3.6062 5.441 3.6062 8.706c0 3.266-1.2972 6.398-3.6062 8.707s-5.44068 3.606-8.7061 3.606h-12.31229z" fill="#1c91ff"/><path d="m-6.69629 434.973v-12.312c0-3.266 1.29718-6.397 3.60618-8.706 2.309006-2.309 5.44069-3.607 8.70611-3.607s6.3971 1.298 8.7061 3.607 3.6062 5.44 3.6062 8.706v12.312z" fill="#1c91ff"/><path d="m17.9282 462.059c-6.5308 0-12.79416-2.594-17.412162-7.212-4.618008-4.618-7.212368-10.881-7.212368-17.412h24.62453z" fill="#9fdbff"/><path d="m-6.69631 489.147v-12.312c0-3.265 1.29718-6.397 3.60619-8.706 2.308998-2.309 5.44068-3.606 8.7061-3.606s6.39712 1.297 8.70612 3.606 3.6062 5.441 3.6062 8.706v12.312z" fill="#1c91ff"/><path d="m17.9283 503.921c0-6.799-5.5124-12.312-12.31231-12.312-6.79989 0-12.31229 5.513-12.31229 12.312 0 6.8 5.5124 12.313 12.31229 12.313 6.79991 0 12.31231-5.513 12.31231-12.313z" fill="#fe9c1a"/><path d="m-6.69637 543.321c0-6.531 2.59437-12.794 7.212374-17.412 4.618006-4.618 10.881396-7.213 17.412196-7.213v24.625z" fill="#9fdbff"/><path d="m17.9282 545.783v12.312c0 3.266-1.2972 6.397-3.6062 8.706s-5.44066 3.606-8.70608 3.606-6.397103-1.297-8.7061-3.606c-2.30901-2.309-3.60619-5.44-3.60619-8.706v-12.312z" fill="#1c91ff"/><path d="m17.9282 572.87v12.313c0 3.265-1.2972 6.397-3.6062 8.706s-5.44066 3.606-8.70608 3.606-6.397103-1.297-8.7061-3.606c-2.30901-2.309-3.60619-5.441-3.60619-8.706v-12.313z" fill="#ffc3df"/></g></g></svg>