<svg width="32" height="26" viewBox="0 0 32 26" fill="none" xmlns="http://www.w3.org/2000/svg">
  <path d="M30.6468 17.7823L28.0599 13.6422C28.0503 13.6248 28.0445 13.6172L27.8405 13.2919C27.4555 12.674 26.7895 12.3045 26.062 12.3025L21.8949 12.2891L21.6042 12.7549L16.6249 20.7234L16.3496 21.1642L18.4361 24.4978C18.821 25.1176 19.487 25.4872 20.2203 25.4872H26.06C26.7799 25.4872 27.4613 25.108 27.8424 24.4998L28.0483 24.1706C28.056 24.161 28.058 24.1572L30.6487 20.0112C31.0741 19.3337 31.0741 18.4579 30.6487 17.7823H30.6468ZM29.8576 19.5166L27.2669 23.6625C27.2553 23.6817 27.2419 23.6971 27.2303 23.7125C27.1398 23.8146 27.0224 23.828 26.9705 23.828C26.9108 23.828 26.7645 23.8107 26.6702 23.6606L24.0795 19.5146C24.0506 19.4684 24.0256 19.4203 24.0025 19.3683C23.9794 19.3183 23.9621 19.2683 23.9467 19.2163C23.8889 19.0084 23.8889 18.7851 23.9467 18.5773C23.9755 18.4753 24.0198 18.3732 24.0775 18.2809L26.6644 14.1388C26.6683 14.133 26.6702 14.1291C26.7318 14.0367 26.8088 13.9944 26.8762 13.9809C26.9031 13.9732 26.9262 13.9713 26.9454 13.9675C26.9551 13.9675 26.9647 13.9675 26.9743 13.9675C27.034 13.9675 27.1822 13.9867 27.2746 14.1368L29.8615 18.277C30.0982 18.6543 30.0982 19.1393 29.8615 19.5166H29.8576Z" fill="#000000"/>
  <path d="M22.9913 7.7644C23.4148 7.08496 23.4148 6.21112 22.9913 5.53553L20.4044 1.39536L20.1889 1.04697C19.802 0.429125 19.136 0.0595703 18.4046 0.0595703H12.5649C11.8354 0.0595703 11.1694 0.429125 10.7806 1.0489L0.323361 17.7847C0.113561 18.1196 0 18.5065 0 18.8992C0 19.2918 0.111636 19.6787 0.321436 20.0117L3.12582 24.5022C3.5127 25.1219 4.17866 25.4896 4.90815 25.4896H10.7479C11.4812 25.4896 12.1472 25.12 12.5321 24.5002L12.7458 24.1615C12.7458 24.1576 12.7496 24.1519 12.7496 24.1499L14.8342 20.8162L21.0127 10.9287L22.9875 7.76633L22.9913 7.7644ZM22.3812 6.64996C22.3812 6.86361 22.3215 7.07919 22.2002 7.26974L11.9566 23.6649C11.8643 23.8131 11.716 23.8304 11.6564 23.8304C11.5967 23.8304 11.4504 23.8131 11.3561 23.6649L8.7673 19.517C8.53248 19.1417 8.53248 18.6586 8.7673 18.2794L19.0109 1.8881C19.1033 1.73797 19.2515 1.72064 19.3112 1.72064C19.3708 1.72064 19.519 1.73797 19.6134 1.89002L22.2002 6.03019C22.3215 6.22074 22.3812 6.43632 22.3812 6.64996Z" fill="#000000"/>
</svg>
