<svg fill="none" height="1030" viewBox="0 0 1160 1030" width="1160" xmlns="http://www.w3.org/2000/svg" xmlns:xlink="http://www.w3.org/1999/xlink"><clipPath id="a"><path d="m686 780h363v91h-363z"/></clipPath><rect fill="#fff" height="1028" rx="11" width="1158" x="1" y="1"/><rect height="1028" rx="11" stroke="#eeeeef" stroke-width="2" width="1158" x="1" y="1"/><rect fill="#f7f7f7" height="386" rx="8" width="562" x="12" y="632"/><path clip-rule="evenodd" d="m156.375 871c25.06 0 45.375-20.371 45.375-45.5 0 25.129 20.315 45.5 45.375 45.5s45.375-20.371 45.375-45.5v45.5h45.375c12.53 0 22.687-10.186 22.687-22.75s-10.157-22.75-22.687-22.75h-45.375c0-25.129-20.315-45.5-45.375-45.5s-45.375 20.371-45.375 45.5c0-25.129-20.315-45.5-45.375-45.5s-45.375 20.371-45.375 45.5 20.315 45.5 45.375 45.5zm272.25-45.5h-45.375v45.5h45.375z" fill="#000" fill-opacity=".6" fill-rule="evenodd"/><path d="m156.375 871h-45.375v-91h45.375zm136.125-45.5h-90.75v-45.5h90.75zm181.5-45.5v45.5h-136.125c-12.53 0-22.687-10.186-22.687-22.75s10.157-22.75 22.687-22.75z" fill="#000"/><rect fill="#2a3241" height="386" rx="8" width="562" x="586" y="632"/><g clip-path="url(#a)" clip-rule="evenodd" fill="#fff" fill-rule="evenodd"><path d="m731.375 871c25.06 0 45.375-20.371 45.375-45.5 0 25.129 20.315 45.5 45.375 45.5s45.375-20.371 45.375-45.5v45.5h45.375c12.53 0 22.687-10.186 22.687-22.75s-10.157-22.75-22.687-22.75h-45.375c0-25.129-20.315-45.5-45.375-45.5s-45.375 20.371-45.375 45.5c0-25.129-20.315-45.5-45.375-45.5s-45.375 20.371-45.375 45.5 20.315 45.5 45.375 45.5zm272.245-45.5h-45.37v45.5h45.37z" fill-opacity=".6"/><path d="m686 780h45.375v91h-45.375zm90.75 0h90.75v45.5h-90.75zm136.125 45.5h136.125v-45.5h-136.125c-12.53 0-22.687 10.186-22.687 22.75s10.157 22.75 22.687 22.75z"/></g><path d="m492.5 323.5h-54.5v54.5h54.5z" fill="#fe9c1a"/><path d="m165.5 378c30.1 0 54.5-24.4 54.5-54.5s-24.4-54.5-54.5-54.5-54.5 24.4-54.5 54.5 24.4 54.5 54.5 54.5z" fill="#e2f78c"/><path d="m274.5 378c30.1 0 54.5-24.4 54.5-54.5s-24.4-54.5-54.5-54.5-54.5 24.4-54.5 54.5 24.4 54.5 54.5 54.5z" fill="#ffc3df"/><path d="m165.5 269h-54.5v109h54.5z" fill="#418b5c"/><path d="m329 269h-109v54.5h109z" fill="#e14322"/><path d="m547 269v54.5h-163.5c-15.05 0-27.25-12.2-27.25-27.25s12.2-27.25 27.25-27.25z" fill="#0c84fe"/><path clip-rule="evenodd" d="m329 378v-54.5h54.5c15.05 0 27.25 12.2 27.25 27.25s-12.2 27.25-27.25 27.25z" fill="#9fdbff" fill-rule="evenodd"/><path d="m914.75 313.5h-47.25v94.5h47.25z" fill="#fe9c1a"/><path d="m962 313.5v47.25h-141.75c-13.048 0-23.625-10.577-23.625-23.625s10.577-23.625 23.625-23.625z" fill="#3b82f6"/><path clip-rule="evenodd" d="m773 408v-47.25h47.25c13.048 0 23.625 10.577 23.625 23.625s-10.577 23.625-23.625 23.625z" fill="#9fdbff" fill-rule="evenodd"/><path d="m820.25 313.5c26.095 0 47.25-21.155 47.25-47.25s-21.155-47.25-47.25-47.25-47.25 21.155-47.25 47.25 21.155 47.25 47.25 47.25z" fill="#e2f78c"/><path d="m914.75 313.5c26.095 0 47.25-21.155 47.25-47.25s-21.155-47.25-47.25-47.25-47.25 21.155-47.25 47.25 21.155 47.25 47.25 47.25z" fill="#ffc3df"/><path d="m820.25 219h-47.25v94.5h47.25z" fill="#418b5c"/><path d="m962 219h-94.5v47.25h94.5z" fill="#e14322"/></svg>