<svg fill="none" height="24" viewBox="0 0 96 24" width="96" xmlns="http://www.w3.org/2000/svg"><path d="m84 0h-12v24h12z" fill="#fe9c1a"/><path d="m12 24c6.6274 0 12-5.3726 12-12 0-6.62742-5.3726-12-12-12-6.62742 0-12 5.37258-12 12 0 6.6274 5.37258 12 12 12z" fill="#e2f78c"/><path d="m36 24c6.6274 0 12-5.3726 12-12 0-6.62742-5.3726-12-12-12s-12 5.37258-12 12c0 6.6274 5.3726 12 12 12z" fill="#ffc3df"/><path d="m12 0h-12v24h12z" fill="#418b5c"/><path d="m48 0h-24v12h24z" fill="#e14322"/><g clip-rule="evenodd" fill-rule="evenodd"><path d="m60 12c-3.3137 0-6-2.68629-6-6s2.6863-6 6-6h36v12z" fill="#3b82f6"/><path d="m48 24v-12h12c3.3137 0 6 2.6863 6 6s-2.6863 6-6 6z" fill="#9fdbff"/></g></svg>