<svg fill="none" height="48" viewBox="0 0 48 48" width="48" xmlns="http://www.w3.org/2000/svg"><g clip-rule="evenodd" fill="#1c222d" fill-rule="evenodd"><path d="m12 24c6.6274 0 12-5.3726 12-12 0 6.6274 5.3726 12 12 12s12-5.3726 12-12c0-6.62742-5.3726-12-12-12s-12 5.37258-12 12c0-6.62742-5.3726-12-12-12-6.62742 0-12 5.37258-12 12 0 6.6274 5.37258 12 12 12zm24 12h-12v12h12zm-24 12c3.3137 0 6-2.6863 6-6s-2.6863-6-6-6h-12v12z" fill-opacity=".7"/><path d="m12 0h-12v24h12c-3.31371 0-6 2.6863-6 6s2.68629 6 6 6h36v-12h-36zm12 0h24v12h-24z"/></g></svg>