<svg width="96" height="24" viewBox="0 0 96 24" fill="none" xmlns="http://www.w3.org/2000/svg">
<path d="M84 0H72V24H84V0Z" fill="#FE9C1A"/>
<path d="M96 0H60V12H96V0Z" fill="#1C91FF"/>
<path d="M60 24C63.3137 24 66 21.3137 66 18C66 14.6863 63.3137 12 60 12C56.6863 12 54 14.6863 54 18C54 21.3137 56.6863 24 60 24Z" fill="#9FDBFF"/>
<path d="M60 12H48V24H60V12Z" fill="#9FDBFF"/>
<path d="M60 12C63.3137 12 66 9.31371 66 6C66 2.68629 63.3137 0 60 0C56.6863 0 54 2.68629 54 6C54 9.31371 56.6863 12 60 12Z" fill="#1C91FF"/>
<path d="M36 24C42.6274 24 48 18.6274 48 12C48 5.37258 42.6274 0 36 0C29.3726 0 24 5.37258 24 12C24 18.6274 29.3726 24 36 24Z" fill="#FFC3DF"/>
<path d="M12 24C18.6274 24 24 18.6274 24 12C24 5.37258 18.6274 0 12 0C5.37258 0 0 5.37258 0 12C0 18.6274 5.37258 24 12 24Z" fill="#E2F78C"/>
<path d="M48 0H24V12H48V0Z" fill="#E14322"/>
<path d="M12 0H0V24H12V0Z" fill="#418B5C"/>
</svg>
