<svg width="24" height="24" viewBox="0 0 24 24" fill="none" xmlns="http://www.w3.org/2000/svg">
<path d="M21.0001 11H11.0002V14H21.0001V11Z" fill="#111418"/>
<path d="M21.0001 17.5H11.0002V20.5H21.0001V17.5Z" fill="#111418"/>
<path d="M6.00005 21.3313L9.70716 17.6242L8.29295 16.21L6.00005 18.5029L4.71006 17.21L3.29006 18.62L6.00005 21.3313Z" fill="#111418"/>
<path d="M6.00005 14.8313L9.70716 11.1242L8.29295 9.71001L6.00005 12.0029L4.71006 10.71L3.29006 12.12L6.00005 14.8313Z" fill="#111418"/>
<path d="M21.0001 4.49998H11.0002V7.49998H21.0001V4.49998Z" fill="#111418"/>
<path d="M6.00005 8.33133L9.70716 4.62422L8.29295 3.21001L6.00005 5.5029L4.71004 4.20998L3.29004 5.61998L6.00005 8.33133Z" fill="#111418"/>
</svg>
