<svg width="24" height="24" viewBox="0 0 24 24" fill="none" xmlns="http://www.w3.org/2000/svg">
<path fill-rule="evenodd" clip-rule="evenodd" d="M22.0377 12.2274C22.0377 11.5183 21.9726 10.8364 21.8518 10.1819H12.2195V14.0501H17.7237C17.4866 15.3001 16.766 16.3592 15.6829 17.0683V19.5774H18.9881C20.922 17.8365 22.0377 15.2728 22.0377 12.2274Z" fill="#4285F4"/>
<path fill-rule="evenodd" clip-rule="evenodd" d="M12.2194 22C14.9808 22 17.2959 21.1046 18.988 19.5773L15.6827 17.0682C14.7669 17.6682 13.5955 18.0227 12.2194 18.0227C9.55568 18.0227 7.30103 16.2636 6.49679 13.9H3.07996V16.4909C4.76281 19.7591 8.22148 22 12.2194 22Z" fill="#34A853"/>
<path fill-rule="evenodd" clip-rule="evenodd" d="M6.4969 13.9001C6.29235 13.3001 6.17613 12.6592 6.17613 12.0001C6.17613 11.341 6.29235 10.7001 6.4969 10.1001V7.50916H3.08006C2.38739 8.85916 1.99225 10.3864 1.99225 12.0001C1.99225 13.6137 2.38739 15.141 3.08006 16.491L6.4969 13.9001Z" fill="#FBBC05"/>
<path fill-rule="evenodd" clip-rule="evenodd" d="M12.2194 5.9773C13.721 5.9773 15.0691 6.48185 16.129 7.47276L19.0624 4.60456C17.2912 2.99092 14.9761 2 12.2194 2C8.22149 2 4.76281 4.24092 3.07996 7.50913L6.49679 10.1001C7.30103 7.7364 9.55568 5.9773 12.2194 5.9773Z" fill="#EA4335"/>
</svg>
