<svg width="24" height="24" viewBox="0 0 24 24" fill="none" xmlns="http://www.w3.org/2000/svg">
<path d="M12 5.5C8.41015 5.5 5.5 8.41015 5.5 12H2.5C2.5 6.75329 6.75329 2.5 12 2.5C14.6234 2.5 16.9984 3.56332 18.7175 5.28249L21 3V9.5H14.5L16.5962 7.40381C15.4199 6.22754 13.7949 5.5 12 5.5Z" fill="#020617"/>
<path d="M7.40381 16.5962L9.5 14.5H3L3 21L5.28249 18.7175C7.00165 20.4367 9.37665 21.5 12 21.5C17.2467 21.5 21.5 17.2467 21.5 12H18.5C18.5 15.5899 15.5899 18.5 12 18.5C10.2051 18.5 8.58007 17.7725 7.40381 16.5962Z" fill="#020617"/>
</svg>
