<svg width="24" height="24" viewBox="0 0 24 24" fill="none" xmlns="http://www.w3.org/2000/svg">
<path d="M16.0207 17.435L17.4349 16.0208L21.6776 20.2634L20.2634 21.6776L16.0207 17.435Z" fill="#020617"/>
<path d="M4.3641 4.65672L9.34833 5.71452C9.82328 5.81532 10.3187 5.7399 10.7421 5.50234L15.3515 2.91638L15.706 7.94355C15.7431 8.46951 15.9864 8.95955 16.383 9.30705L20.4019 12.8286L15.5718 14.7413C15.0584 14.9445 14.6519 15.351 14.4486 15.8644L12.5357 20.6947L9.0142 16.6759C8.66671 16.2793 8.17667 16.036 7.6507 15.9989L2.62354 15.6443L5.20952 11.0349C5.44707 10.6115 5.52249 10.1161 5.42172 9.64122L4.3641 4.65672Z" fill="#020617"/>
</svg>
