<svg width="24" height="24" viewBox="0 0 24 24" fill="none" xmlns="http://www.w3.org/2000/svg">
<path fill-rule="evenodd" clip-rule="evenodd" d="M9.58581 5.00004L7.29289 2.70712L8.70711 1.29291L20.4143 13.0001L13.1213 20.293C11.9498 21.4645 10.0503 21.4645 8.8787 20.293L3.70711 15.1214C2.53554 13.9498 2.53553 12.0503 3.70711 10.8787L9.58581 5.00004ZM11 6.41425L5.12132 12.2929C4.92607 12.4882 4.82844 12.7441 4.82843 13H17.5858L11 6.41425Z" fill="#020617"/>
<path d="M20.9955 16.9644L19.2277 18.7321C18.2514 19.7084 18.2514 21.2914 19.2277 22.2677C20.204 23.244 21.7869 23.244 22.7632 22.2677C23.7395 21.2914 23.7395 19.7084 22.7632 18.7321L20.9955 16.9644Z" fill="#020617"/>
</svg>
