<svg width="96" height="24" viewBox="0 0 96 24" fill="none" xmlns="http://www.w3.org/2000/svg">
<path fill-rule="evenodd" clip-rule="evenodd" d="M12 24C18.6274 24 24 18.6274 24 12C24 18.6274 29.3726 24 36 24C42.6274 24 48 18.6274 48 12V24H60C63.3137 24 66 21.3137 66 18C66 14.6863 63.3137 12 60 12H48C48 5.37258 42.6274 0 36 0C29.3726 0 24 5.37258 24 12C24 5.37258 18.6274 0 12 0C5.37258 0 0 5.37258 0 12C0 18.6274 5.37258 24 12 24ZM84 12H72V24H84V12Z" fill="white" fill-opacity="0.7"/>
<path fill-rule="evenodd" clip-rule="evenodd" d="M0 0H12V24H0V0ZM24 0H48V12H24V0ZM60 12H96V0H60C56.6863 0 54 2.68629 54 6C54 9.31371 56.6863 12 60 12Z" fill="white"/>
</svg>
