<svg width="48" height="48" viewBox="0 0 48 48" fill="none" xmlns="http://www.w3.org/2000/svg">
<path d="M36 24H24V48H36V24Z" fill="#FCD34D"/>
<path fill-rule="evenodd" clip-rule="evenodd" d="M0 48V36H12C15.3137 36 18 38.6863 18 42C18 45.3137 15.3137 48 12 48H0Z" fill="#7DD3FC"/>
<path d="M12 24C18.6274 24 24 18.6274 24 12C24 5.37258 18.6274 0 12 0C5.37258 0 0 5.37258 0 12C0 18.6274 5.37258 24 12 24Z" fill="#6EE7B7"/>
<path d="M36 24C42.6274 24 48 18.6274 48 12C48 5.37258 42.6274 0 36 0C29.3726 0 24 5.37258 24 12C24 18.6274 29.3726 24 36 24Z" fill="#F9A8D4"/>
</svg>
