<svg width="96" height="24" viewBox="0 0 96 24" fill="none" xmlns="http://www.w3.org/2000/svg">
<path d="M84 12H72V24H84V12Z" fill="#FCD34D"/>
<path d="M12 24C18.6274 24 24 18.6274 24 12C24 5.37258 18.6274 0 12 0C5.37258 0 0 5.37258 0 12C0 18.6274 5.37258 24 12 24Z" fill="#6EE7B7"/>
<path d="M36 24C42.6274 24 48 18.6274 48 12C48 5.37258 42.6274 0 36 0C29.3726 0 24 5.37258 24 12C24 18.6274 29.3726 24 36 24Z" fill="#F9A8D4"/>
<path d="M12 0H0V24H12V0Z" fill="#10B981"/>
<path d="M48 0H24V12H48V0Z" fill="#F87171"/>
<path fill-rule="evenodd" clip-rule="evenodd" d="M60 12C56.6863 12 54 9.31371 54 6C54 2.68629 56.6863 0 60 0H96V12H60Z" fill="#3B82F6"/>
<path fill-rule="evenodd" clip-rule="evenodd" d="M48 24V12H60C63.3137 12 66 14.6863 66 18C66 21.3137 63.3137 24 60 24H48Z" fill="#7DD3FC"/>
</svg>
