<svg width="24" height="24" viewBox="0 0 24 24" fill="none" xmlns="http://www.w3.org/2000/svg">
<path d="M7 10H9V17H7V10Z" fill="#111418"/>
<path d="M17 10H15V17H17V10Z" fill="#111418"/>
<path fill-rule="evenodd" clip-rule="evenodd" d="M8 4V6C7 6 6 6 5 6C3.34315 6 2 7.34315 2 9V18C2 19.6569 3.34315 21 5 21C9.66667 21 14.3333 21 19 21C20.6569 21 22 19.6569 22 18V9C22 7.34315 20.6569 6 19 6C18 6 17 6 16 6V4C16 3.44772 15.5523 3 15 3H9C8.44772 3 8 3.44772 8 4ZM19 8C19.5523 8 20 8.44771 20 9V18C20 18.5523 19.5523 19 19 19H5C4.44772 19 4 18.5523 4 18V9C4 8.44772 4.44772 8 5 8H19ZM10 6V5H14V6H10Z" fill="#111418"/>
</svg>
