<svg width="24" height="24" viewBox="0 0 24 24" fill="none" xmlns="http://www.w3.org/2000/svg">
<path d="M11 7.22056L7.60283 10.0001H4.00001V14.0001H7.60283L11 16.7796V7.22056ZM6.8889 16.0001H2C2.00008 13.3334 2.00008 10.6667 2 8.00007H6.8889L10.5501 5.00447C11.5295 4.20313 13 4.89995 13 6.1654V17.8347C13 19.1001 11.5296 19.7969 10.5502 18.9956L6.8889 16.0001Z" fill="#111418"/>
<path d="M20.8033 4.57535L19.3891 3.16113L15.5 7.05022L17.9749 9.52509L15.5 12L17.9749 14.4748L15.5 16.9497L19.3891 20.8388L20.8033 19.4246L18.3284 16.9497L20.8033 14.4748L18.3277 11.9993L20.8033 9.52509L18.3277 7.04951L20.8033 4.57535Z" fill="#111418"/>
</svg>
