<svg width="24" height="24" viewBox="0 0 24 24" fill="none" xmlns="http://www.w3.org/2000/svg">
<path d="M2.24508 14.3046C2.20058 14.1149 2.42658 13.9954 2.56436 14.1332L9.86684 21.4356C10.0046 21.5734 9.88514 21.7994 9.69544 21.7549C6.0103 20.8904 3.10956 17.9897 2.24508 14.3046ZM2.00038 11.3778C1.99685 11.4345 2.01815 11.4898 2.05829 11.5299L12.4701 21.9417C12.5102 21.9818 12.5655 22.0032 12.6222 21.9996C13.096 21.9701 13.5609 21.9076 14.0147 21.8144C14.1676 21.783 14.2207 21.5952 14.1103 21.4848L2.51519 9.8897C2.40482 9.77932 2.21696 9.83244 2.18556 9.98534C2.09237 10.4391 2.02989 10.904 2.00038 11.3778ZM2.84219 7.94108C2.80889 8.01584 2.82585 8.1032 2.88372 8.16108L15.8389 21.1163C15.8968 21.1742 15.9842 21.1911 16.0589 21.1578C16.4161 20.9987 16.7623 20.8193 17.096 20.621C17.2064 20.5554 17.2235 20.4037 17.1327 20.3129L3.68713 6.86734C3.59631 6.77652 3.44459 6.79356 3.37898 6.90398C3.18072 7.23766 3.0013 7.58386 2.84219 7.94108ZM4.53174 5.6148C4.45772 5.54078 4.45314 5.42206 4.52288 5.34398C6.3559 3.29186 9.02228 2 11.9904 2C17.5185 2 22 6.48146 22 12.0096C22 14.9777 20.7081 17.6441 18.656 19.4771C18.578 19.5469 18.4592 19.5423 18.3852 19.4683L4.53174 5.6148Z" fill="white"/>
</svg>
