<svg width="24" height="24" viewBox="0 0 24 24" fill="none" xmlns="http://www.w3.org/2000/svg">
<path d="M22.7722 15.5441L20.934 12.6136C20.934 12.6136 20.9275 12.6006 20.9226 12.5958L20.7784 12.3649C20.5076 11.929 20.0294 11.6642 19.5156 11.6658L16.5539 11.6561L16.348 11.9871L12.8093 17.6254L12.6132 17.937L14.0964 20.2944C14.3704 20.7336 14.8421 20.9951 15.3641 20.9951H19.5139C20.0262 20.9951 20.5093 20.7271 20.78 20.296L20.9259 20.0635C20.9259 20.0635 20.9324 20.057 20.934 20.0554L22.7739 17.1216C23.0754 16.6389 23.0754 16.0269 22.7739 15.5441H22.7722ZM22.2114 16.7713L20.3699 19.7051C20.3618 19.7196 20.352 19.7293 20.3439 19.7422C20.2515 19.8439 20.0943 19.8536 19.9922 19.7616C19.9743 19.7454 19.9581 19.726 19.9451 19.7051L18.1053 16.7696C18.0631 16.7034 18.0323 16.6324 18.0096 16.5581C17.9448 16.3337 17.9788 16.0931 18.102 15.8961L19.9403 12.9656L19.9451 12.9575C19.9889 12.8913 20.044 12.8622 20.091 12.8525C20.1105 12.8461 20.1267 12.8445 20.1397 12.8428H20.1607C20.2029 12.8428 20.3083 12.8558 20.3747 12.9623L22.213 15.8929C22.3816 16.1593 22.3816 16.5032 22.213 16.7696H22.2114V16.7713ZM17.3336 8.45425C17.6352 7.97148 17.6352 7.35953 17.3336 6.87675L15.4954 3.94619L15.3414 3.69915C15.069 3.26319 14.5892 2.99839 14.0737 3.00001H9.92385C9.40673 3.00001 8.93339 3.26319 8.65781 3.69915L1.22857 15.5474C0.923811 16.0285 0.923811 16.6421 1.22857 17.1232L3.22083 20.3009C3.49154 20.7368 3.97137 21.0016 4.48687 21H8.63674C9.15709 21 9.63044 20.7368 9.9044 20.3009L10.0568 20.0603V20.0522L11.54 17.6932L15.9298 10.6954L17.332 8.45748H17.3353L17.3336 8.45425ZM16.8992 7.6647C16.8992 7.81486 16.8571 7.96825 16.7711 8.10226L9.49427 19.7067C9.44888 19.7793 9.36783 19.8245 9.28191 19.8229C9.196 19.8229 9.11495 19.7793 9.06794 19.7067L7.22967 16.7713C7.06271 16.5032 7.06271 16.1642 7.22967 15.8945L14.5049 4.29656C14.5503 4.22229 14.6314 4.17708 14.7189 4.17708C14.761 4.17708 14.8664 4.19 14.9329 4.29656L16.7711 7.22713C16.8571 7.36276 16.8992 7.51454 16.8992 7.66631V7.6647Z" fill="#111418"/>
</svg>
