<svg width="630" height="670" viewBox="0 0 630 670" fill="none" xmlns="http://www.w3.org/2000/svg">
<g clip-path="url(#clip0_1890_5770)">
<circle cx="314.998" cy="335" r="172.302" stroke="url(#paint0_linear_1890_5770)" stroke-linecap="round" stroke-linejoin="round"/>
<circle cx="314.999" cy="335" r="214.952" stroke="#91C174" stroke-linecap="round" stroke-linejoin="round"/>
<circle cx="314.998" cy="335" r="111.932" stroke="url(#paint1_linear_1890_5770)" stroke-linecap="round" stroke-linejoin="round"/>
<circle cx="468.301" cy="274.562" r="2.28571" fill="#91C174"/>
<circle cx="475.301" cy="273.562" r="4" stroke="#91C174"/>
<circle cx="196.067" cy="328" r="3.42857" fill="#91C174"/>
<circle cx="203.066" cy="327" r="6" stroke="#91C174"/>
<circle cx="219.989" cy="485.375" r="3.42857" fill="#91C174"/>
<circle cx="226.988" cy="484.375" r="6" stroke="#91C174"/>
<circle cx="223.988" cy="185.625" r="4" fill="#91C174"/>
<circle cx="230.988" cy="184.625" r="7" stroke="#91C174"/>
<path d="M485.202 466.538C557.562 372.424 539.927 237.47 445.812 165.11L314.793 335.519L485.202 466.538Z" fill="url(#paint2_linear_1890_5770)"/>
<path d="M448.008 162.721L314.794 335.519" stroke="#BCDE81" stroke-linecap="round" stroke-linejoin="round"/>
<circle cx="351.822" cy="499.764" r="18" fill="#E2F78C"/>
<path d="M358.289 505.155H345.35V494.372" stroke="#418B5C" stroke-width="1.67734" stroke-linecap="round" stroke-linejoin="round"/>
<path d="M358.289 497.607L353.976 501.381L349.663 498.147L345.35 501.921" stroke="#418B5C" stroke-width="1.67734" stroke-linecap="round" stroke-linejoin="round"/>
<circle cx="277.352" cy="230.188" r="18" fill="#9FDBFF"/>
<path d="M284.339 230.729C284.353 230.551 284.36 230.37 284.36 230.188C284.36 229.093 284.108 228.056 283.66 227.132C282.771 227.976 281.712 228.644 280.541 229.079C280.57 229.445 280.586 229.815 280.586 230.188C280.586 230.98 280.517 231.756 280.386 232.51C281.819 232.149 283.153 231.539 284.339 230.729Z" fill="#418B5C"/>
<path d="M274.315 232.51C274.184 231.756 274.116 230.98 274.116 230.188C274.116 229.815 274.131 229.445 274.161 229.079C272.989 228.644 271.931 227.976 271.041 227.132C270.593 228.056 270.342 229.093 270.342 230.188C270.342 230.37 270.349 230.551 270.362 230.729C271.548 231.539 272.882 232.149 274.315 232.51Z" fill="#418B5C"/>
<path d="M284.076 232.167C283.346 234.653 281.275 236.565 278.7 237.068C279.323 236.02 279.808 234.881 280.13 233.676C281.539 233.38 282.867 232.865 284.076 232.167Z" fill="#418B5C"/>
<path d="M270.625 232.167C271.834 232.865 273.162 233.38 274.571 233.676C274.893 234.881 275.378 236.02 276.001 237.068C273.426 236.565 271.355 234.653 270.625 232.167Z" fill="#418B5C"/>
<path d="M278.7 223.309C280.513 223.663 282.076 224.715 283.097 226.174C282.336 226.943 281.422 227.559 280.405 227.975C280.127 226.294 279.539 224.719 278.7 223.309Z" fill="#418B5C"/>
<path d="M276.001 223.309C275.163 224.719 274.574 226.294 274.297 227.975C273.279 227.559 272.365 226.943 271.604 226.174C272.626 224.715 274.188 223.663 276.001 223.309Z" fill="#418B5C"/>
<path d="M279.242 232.741C279.414 231.917 279.505 231.063 279.505 230.188C279.505 229.924 279.496 229.661 279.48 229.4C278.796 229.563 278.082 229.649 277.348 229.649C276.614 229.649 275.9 229.563 275.216 229.4C275.2 229.661 275.191 229.924 275.191 230.188C275.191 231.063 275.282 231.917 275.454 232.741C276.072 232.835 276.704 232.884 277.348 232.884C277.992 232.884 278.624 232.835 279.242 232.741Z" fill="#3B82F6"/>
<path d="M275.747 233.868C276.272 233.931 276.806 233.962 277.348 233.962C277.89 233.962 278.424 233.931 278.949 233.868C278.58 235.059 278.036 236.172 277.348 237.179C276.66 236.172 276.116 235.059 275.747 233.868Z" fill="#3B82F6"/>
<path d="M277.348 223.198C278.375 224.7 279.08 226.44 279.364 228.318C278.72 228.483 278.044 228.571 277.348 228.571C276.652 228.571 275.976 228.483 275.332 228.318C275.616 226.44 276.321 224.7 277.348 223.198Z" fill="#3B82F6"/>
<circle cx="110.469" cy="407.865" r="18" fill="#FFDBAA"/>
<path fill-rule="evenodd" clip-rule="evenodd" d="M112.69 403.33C112.782 402.994 113.137 402.795 113.482 402.885L117.607 403.959C117.772 404.002 117.914 404.108 117.999 404.252C118.085 404.397 118.108 404.569 118.064 404.73L116.959 408.739C116.866 409.075 116.512 409.274 116.167 409.184C115.821 409.094 115.617 408.749 115.709 408.414L116.407 405.88C114.461 407.046 112.843 408.539 111.583 410.244C111.472 410.393 111.299 410.488 111.11 410.503C110.92 410.518 110.734 410.452 110.6 410.321L107.879 407.676L103.808 411.634C103.555 411.88 103.145 411.88 102.893 411.634C102.64 411.389 102.64 410.99 102.893 410.745L107.421 406.342C107.674 406.096 108.084 406.096 108.336 406.342L110.988 408.919C112.283 407.315 113.886 405.906 115.771 404.784L113.147 404.1C112.802 404.01 112.597 403.665 112.69 403.33Z" fill="#0F172A"/>
<circle cx="410.324" cy="282.032" r="18" fill="#FFC3DF"/>
<path fill-rule="evenodd" clip-rule="evenodd" d="M404.66 275.562C403.916 275.562 403.312 276.165 403.312 276.91V286.345C403.312 287.536 404.278 288.502 405.469 288.502H416.252C415.061 288.502 414.095 287.536 414.095 286.345V276.91C414.095 276.165 413.492 275.562 412.748 275.562H404.66ZM410.321 280.414C410.024 280.414 409.782 280.656 409.782 280.953C409.782 281.251 410.024 281.493 410.321 281.493H411.4C411.697 281.493 411.939 281.251 411.939 280.953C411.939 280.656 411.697 280.414 411.4 280.414H410.321ZM409.782 278.797C409.782 278.499 410.024 278.258 410.321 278.258H411.4C411.697 278.258 411.939 278.499 411.939 278.797C411.939 279.095 411.697 279.336 411.4 279.336H410.321C410.024 279.336 409.782 279.095 409.782 278.797ZM406.008 282.571C405.71 282.571 405.469 282.812 405.469 283.11C405.469 283.408 405.71 283.649 406.008 283.649H411.4C411.697 283.649 411.939 283.408 411.939 283.11C411.939 282.812 411.697 282.571 411.4 282.571H406.008ZM405.469 285.267C405.469 284.969 405.71 284.727 406.008 284.727H411.4C411.697 284.727 411.939 284.969 411.939 285.267C411.939 285.564 411.697 285.806 411.4 285.806H406.008C405.71 285.806 405.469 285.564 405.469 285.267ZM406.008 278.258C405.71 278.258 405.469 278.499 405.469 278.797V280.953C405.469 281.251 405.71 281.493 406.008 281.493H408.165C408.463 281.493 408.704 281.251 408.704 280.953V278.797C408.704 278.499 408.463 278.258 408.165 278.258H406.008Z" fill="#0F172A"/>
<path d="M415.174 278.258H416.522C416.968 278.258 417.33 278.62 417.33 279.066V286.345C417.33 286.94 416.848 287.423 416.252 287.423C415.656 287.423 415.174 286.94 415.174 286.345V278.258Z" fill="#0F172A"/>
<rect x="98.0781" y="147.445" width="121.481" height="27" rx="13.5" fill="white" fill-opacity="0.2"/>
<rect x="98.0781" y="147.445" width="121.481" height="27" rx="13.5" stroke="#E14322"/>
<path d="M125.059 166.643C125.059 160.35 119.871 155.248 113.578 155.248L113.578 166.643L125.059 166.643Z" fill="#E14322"/>
<path d="M130.445 165.945V155.247H132.253L135.673 164.529L139.079 155.247H140.887V165.945H139.591V157.658L136.532 165.945H134.799L131.741 157.658V165.945H130.445ZM146.45 166.126C145.717 166.126 145.074 165.955 144.521 165.614C143.969 165.272 143.542 164.79 143.24 164.167C142.939 163.534 142.788 162.796 142.788 161.952C142.788 161.098 142.939 160.36 143.24 159.737C143.542 159.114 143.969 158.632 144.521 158.291C145.074 157.949 145.717 157.778 146.45 157.778C147.183 157.778 147.821 157.949 148.364 158.291C148.916 158.632 149.343 159.114 149.644 159.737C149.946 160.36 150.096 161.098 150.096 161.952C150.096 162.796 149.946 163.534 149.644 164.167C149.343 164.79 148.916 165.272 148.364 165.614C147.821 165.955 147.183 166.126 146.45 166.126ZM146.45 164.921C147.183 164.921 147.751 164.66 148.153 164.137C148.564 163.605 148.77 162.876 148.77 161.952C148.77 161.028 148.564 160.305 148.153 159.783C147.751 159.25 147.183 158.984 146.45 158.984C145.717 158.984 145.144 159.25 144.732 159.783C144.32 160.305 144.114 161.028 144.114 161.952C144.114 162.876 144.32 163.605 144.732 164.137C145.144 164.66 145.717 164.921 146.45 164.921ZM151.821 165.945V157.959H152.982L153.027 159.993L152.876 159.858C152.976 159.386 153.152 158.999 153.403 158.698C153.655 158.386 153.956 158.155 154.307 158.004C154.669 157.854 155.056 157.778 155.468 157.778C156.08 157.778 156.583 157.914 156.975 158.185C157.376 158.457 157.673 158.823 157.864 159.285C158.064 159.737 158.165 160.245 158.165 160.807V165.945H156.899V161.169C156.899 160.677 156.839 160.265 156.718 159.933C156.608 159.592 156.427 159.335 156.176 159.165C155.925 158.984 155.598 158.893 155.196 158.893C154.584 158.893 154.076 159.089 153.675 159.481C153.283 159.863 153.087 160.425 153.087 161.169V165.945H151.821ZM160.429 165.945V157.959H161.695V165.945H160.429ZM160.399 156.709V155.232H161.725V156.709H160.399ZM166.428 165.945C165.705 165.945 165.167 165.78 164.816 165.448C164.474 165.117 164.303 164.599 164.303 163.896V156.091H165.569V163.866C165.569 164.228 165.65 164.479 165.81 164.619C165.971 164.76 166.217 164.83 166.549 164.83H167.694V165.945H166.428ZM163.128 159.074V157.959H167.694V159.074H163.128ZM172.289 166.126C171.556 166.126 170.913 165.955 170.36 165.614C169.808 165.272 169.381 164.79 169.08 164.167C168.778 163.534 168.628 162.796 168.628 161.952C168.628 161.098 168.778 160.36 169.08 159.737C169.381 159.114 169.808 158.632 170.36 158.291C170.913 157.949 171.556 157.778 172.289 157.778C173.022 157.778 173.66 157.949 174.203 158.291C174.755 158.632 175.182 159.114 175.484 159.737C175.785 160.36 175.936 161.098 175.936 161.952C175.936 162.796 175.785 163.534 175.484 164.167C175.182 164.79 174.755 165.272 174.203 165.614C173.66 165.955 173.022 166.126 172.289 166.126ZM172.289 164.921C173.022 164.921 173.59 164.66 173.992 164.137C174.404 163.605 174.61 162.876 174.61 161.952C174.61 161.028 174.404 160.305 173.992 159.783C173.59 159.25 173.022 158.984 172.289 158.984C171.556 158.984 170.983 159.25 170.571 159.783C170.16 160.305 169.954 161.028 169.954 161.952C169.954 162.876 170.16 163.605 170.571 164.137C170.983 164.66 171.556 164.921 172.289 164.921ZM177.661 165.945V157.959H178.776L178.836 159.978L178.715 159.933C178.816 159.25 179.032 158.753 179.363 158.441C179.705 158.12 180.157 157.959 180.719 157.959H181.503V159.165H180.734C180.333 159.165 179.996 159.24 179.725 159.391C179.464 159.531 179.263 159.747 179.122 160.039C178.992 160.32 178.926 160.682 178.926 161.124V165.945H177.661ZM182.914 165.945V157.959H184.179V165.945H182.914ZM182.884 156.709V155.232H184.21V156.709H182.884ZM186.74 165.945V157.959H187.9L187.945 159.993L187.794 159.858C187.895 159.386 188.071 158.999 188.322 158.698C188.573 158.386 188.874 158.155 189.226 158.004C189.587 157.854 189.974 157.778 190.386 157.778C190.999 157.778 191.501 157.914 191.893 158.185C192.295 158.457 192.591 158.823 192.782 159.285C192.983 159.737 193.083 160.245 193.083 160.807V165.945H191.817V161.169C191.817 160.677 191.757 160.265 191.637 159.933C191.526 159.592 191.345 159.335 191.094 159.165C190.843 158.984 190.517 158.893 190.115 158.893C189.502 158.893 188.995 159.089 188.593 159.481C188.201 159.863 188.005 160.425 188.005 161.169V165.945H186.74ZM198.347 168.386C197.774 168.386 197.257 168.291 196.795 168.1C196.333 167.909 195.946 167.638 195.635 167.286C195.323 166.935 195.112 166.528 195.002 166.066L196.328 165.975C196.448 166.347 196.659 166.638 196.961 166.849C197.272 167.07 197.734 167.181 198.347 167.181C199.07 167.181 199.623 167.035 200.004 166.744C200.396 166.453 200.592 166.016 200.592 165.433V164.137C200.401 164.559 200.095 164.896 199.673 165.147C199.251 165.398 198.779 165.523 198.257 165.523C197.584 165.523 196.981 165.358 196.448 165.026C195.926 164.695 195.514 164.238 195.213 163.655C194.922 163.072 194.776 162.404 194.776 161.651C194.776 160.887 194.922 160.219 195.213 159.647C195.504 159.064 195.906 158.607 196.418 158.276C196.941 157.944 197.533 157.778 198.196 157.778C198.759 157.778 199.261 157.909 199.703 158.17C200.155 158.431 200.472 158.783 200.652 159.225V157.959H201.858V165.403C201.858 166.026 201.717 166.558 201.436 167C201.155 167.452 200.753 167.794 200.23 168.025C199.708 168.266 199.08 168.386 198.347 168.386ZM198.317 164.318C199 164.318 199.547 164.082 199.959 163.61C200.371 163.128 200.582 162.475 200.592 161.651C200.602 161.098 200.512 160.626 200.321 160.235C200.14 159.833 199.874 159.526 199.522 159.315C199.181 159.094 198.779 158.984 198.317 158.984C197.614 158.984 197.066 159.225 196.674 159.707C196.293 160.179 196.102 160.827 196.102 161.651C196.102 162.475 196.298 163.128 196.69 163.61C197.091 164.082 197.634 164.318 198.317 164.318Z" fill="black"/>
<rect x="248.319" y="268.319" width="133.363" height="133.363" rx="66.6814" fill="url(#paint3_linear_1890_5770)"/>
<rect x="248.319" y="268.319" width="133.363" height="133.363" rx="66.6814" fill="url(#paint4_linear_1890_5770)"/>
<rect x="248.319" y="268.319" width="133.363" height="133.363" rx="66.6814" stroke="url(#paint5_linear_1890_5770)" stroke-width="4.16877"/>
<path d="M329.398 335H315V363.796H329.398V335Z" fill="#FE9C1A"/>
<path d="M343.796 334.999V349.397H300.602L300.23 349.388C296.427 349.195 293.402 346.05 293.402 342.198C293.402 338.222 296.626 334.999 300.602 334.999H343.796Z" fill="#3B82F6"/>
<path fill-rule="evenodd" clip-rule="evenodd" d="M286.203 363.794V349.396H300.601C304.577 349.396 307.8 352.619 307.8 356.595C307.8 360.571 304.577 363.794 300.601 363.794H286.203Z" fill="#9FDBFF"/>
<path d="M300.601 335C308.553 335 314.999 328.554 314.999 320.602C314.999 312.65 308.553 306.204 300.601 306.204C292.649 306.204 286.203 312.65 286.203 320.602C286.203 328.554 292.649 335 300.601 335Z" fill="#E2F78C"/>
<path d="M329.398 335C337.35 335 343.796 328.554 343.796 320.602C343.796 312.65 337.35 306.204 329.398 306.204C321.446 306.204 315 312.65 315 320.602C315 328.554 321.446 335 329.398 335Z" fill="#FFC3DF"/>
<path d="M300.601 306.204H286.203V335H300.601V306.204Z" fill="#418B5C"/>
<path d="M343.796 306.204H315V320.602H343.796V306.204Z" fill="#E14322"/>
<rect x="419.559" y="417.036" width="147.091" height="27" rx="13.5" fill="white" fill-opacity="0.2"/>
<rect x="419.559" y="417.036" width="147.091" height="27" rx="13.5" stroke="#418B5C"/>
<path d="M435.059 430.582C435.059 427.243 437.765 424.536 441.104 424.536C444.443 424.536 447.15 427.243 447.15 430.582V436.536H435.059V430.582Z" fill="#418B5C"/>
<path d="M452.537 435.536V424.838H456.213C457.479 424.838 458.428 425.069 459.061 425.531C459.694 425.993 460.01 426.721 460.01 427.716C460.01 428.178 459.91 428.585 459.709 428.936C459.508 429.288 459.222 429.564 458.85 429.765C458.478 429.956 458.036 430.051 457.524 430.051L457.509 429.961C458.423 429.961 459.141 430.207 459.664 430.699C460.196 431.181 460.462 431.814 460.462 432.598C460.462 433.572 460.146 434.306 459.513 434.798C458.88 435.29 457.981 435.536 456.816 435.536H452.537ZM453.832 434.27H456.816C457.549 434.27 458.112 434.12 458.504 433.818C458.905 433.517 459.106 433.085 459.106 432.523C459.106 431.96 458.905 431.523 458.504 431.212C458.112 430.89 457.549 430.729 456.816 430.729H453.832V434.27ZM453.832 429.464H456.213C456.997 429.464 457.599 429.318 458.021 429.027C458.443 428.725 458.654 428.309 458.654 427.776C458.654 427.214 458.448 426.797 458.036 426.525C457.635 426.244 457.027 426.104 456.213 426.104H453.832V429.464ZM465.687 435.717C464.934 435.717 464.281 435.546 463.728 435.205C463.186 434.863 462.764 434.381 462.462 433.758C462.171 433.125 462.025 432.387 462.025 431.543C462.025 430.699 462.171 429.966 462.462 429.343C462.764 428.72 463.181 428.238 463.713 427.897C464.256 427.545 464.893 427.369 465.627 427.369C466.32 427.369 466.933 427.535 467.465 427.867C467.997 428.188 468.409 428.66 468.701 429.283C469.002 429.906 469.153 430.664 469.153 431.558V431.935H463.351C463.402 432.789 463.628 433.432 464.03 433.864C464.441 434.296 464.994 434.512 465.687 434.512C466.209 434.512 466.636 434.391 466.968 434.15C467.309 433.899 467.545 433.572 467.676 433.17L469.032 433.276C468.821 433.989 468.419 434.577 467.827 435.039C467.244 435.491 466.531 435.717 465.687 435.717ZM463.351 430.82H467.766C467.706 430.046 467.48 429.479 467.088 429.117C466.707 428.756 466.219 428.575 465.627 428.575C465.014 428.575 464.507 428.766 464.105 429.147C463.713 429.519 463.462 430.076 463.351 430.82ZM470.867 435.536V427.55H472.027L472.073 429.584L471.922 429.449C472.022 428.977 472.198 428.59 472.449 428.288C472.7 427.977 473.002 427.746 473.353 427.595C473.715 427.445 474.102 427.369 474.514 427.369C475.126 427.369 475.629 427.505 476.02 427.776C476.422 428.047 476.718 428.414 476.909 428.876C477.11 429.328 477.211 429.835 477.211 430.398V435.536H475.945V430.76C475.945 430.267 475.885 429.855 475.764 429.524C475.654 429.182 475.473 428.926 475.222 428.756C474.971 428.575 474.644 428.484 474.242 428.484C473.63 428.484 473.122 428.68 472.72 429.072C472.329 429.454 472.133 430.016 472.133 430.76V435.536H470.867ZM482.565 435.717C481.822 435.717 481.174 435.546 480.621 435.205C480.079 434.863 479.657 434.381 479.355 433.758C479.054 433.125 478.903 432.387 478.903 431.543C478.903 430.699 479.054 429.966 479.355 429.343C479.657 428.72 480.079 428.238 480.621 427.897C481.174 427.545 481.822 427.369 482.565 427.369C483.178 427.369 483.72 427.48 484.192 427.701C484.674 427.912 485.066 428.223 485.368 428.635C485.669 429.047 485.865 429.549 485.955 430.142L484.629 430.232C484.539 429.7 484.308 429.293 483.936 429.012C483.564 428.72 483.107 428.575 482.565 428.575C481.832 428.575 481.259 428.841 480.847 429.373C480.435 429.896 480.229 430.619 480.229 431.543C480.229 432.467 480.435 433.196 480.847 433.728C481.259 434.25 481.832 434.512 482.565 434.512C483.107 434.512 483.564 434.361 483.936 434.059C484.308 433.758 484.539 433.306 484.629 432.703L485.955 432.794C485.865 433.386 485.669 433.904 485.368 434.346C485.066 434.778 484.674 435.114 484.192 435.355C483.72 435.596 483.178 435.717 482.565 435.717ZM487.524 435.536V424.838H488.79V429.313L488.639 429.283C488.74 428.841 488.911 428.479 489.152 428.198C489.393 427.917 489.689 427.711 490.041 427.58C490.392 427.44 490.779 427.369 491.201 427.369C491.773 427.369 492.256 427.5 492.647 427.761C493.049 428.012 493.351 428.369 493.551 428.831C493.762 429.283 493.868 429.805 493.868 430.398V435.536H492.602V430.76C492.602 429.986 492.462 429.414 492.18 429.042C491.909 428.67 491.492 428.484 490.93 428.484C490.287 428.484 489.769 428.68 489.378 429.072C488.986 429.464 488.79 430.031 488.79 430.775V435.536H487.524ZM495.985 435.536V427.55H497.146L497.191 429.569L497.01 429.509C497.1 429.067 497.256 428.69 497.477 428.379C497.708 428.057 497.989 427.811 498.321 427.641C498.652 427.46 499.019 427.369 499.421 427.369C500.114 427.369 500.676 427.56 501.108 427.942C501.55 428.324 501.827 428.856 501.937 429.539L501.696 429.524C501.776 429.062 501.922 428.675 502.133 428.364C502.354 428.042 502.635 427.796 502.977 427.625C503.318 427.455 503.71 427.369 504.152 427.369C504.725 427.369 505.207 427.49 505.599 427.731C505.99 427.962 506.287 428.303 506.488 428.756C506.689 429.208 506.789 429.755 506.789 430.398V435.536H505.523V430.669C505.523 429.946 505.383 429.403 505.101 429.042C504.82 428.67 504.403 428.484 503.851 428.484C503.479 428.484 503.153 428.575 502.871 428.756C502.6 428.936 502.389 429.198 502.239 429.539C502.088 429.871 502.013 430.277 502.013 430.76V435.536H500.747V430.76C500.747 430.046 500.621 429.489 500.37 429.087C500.119 428.685 499.697 428.484 499.104 428.484C498.733 428.484 498.406 428.575 498.125 428.756C497.854 428.936 497.638 429.198 497.477 429.539C497.326 429.881 497.251 430.287 497.251 430.76V435.536H495.985ZM511.207 435.717C510.383 435.717 509.725 435.526 509.233 435.144C508.751 434.763 508.51 434.23 508.51 433.547C508.51 432.864 508.711 432.327 509.112 431.935C509.514 431.543 510.152 431.267 511.026 431.106L513.859 430.579C513.859 429.906 513.698 429.403 513.377 429.072C513.065 428.74 512.593 428.575 511.96 428.575C511.408 428.575 510.971 428.7 510.649 428.951C510.328 429.193 510.107 429.544 509.986 430.006L508.645 429.901C508.796 429.147 509.158 428.54 509.73 428.077C510.313 427.605 511.056 427.369 511.96 427.369C512.985 427.369 513.768 427.661 514.311 428.243C514.853 428.816 515.124 429.609 515.124 430.624V433.924C515.124 434.105 515.155 434.235 515.215 434.316C515.285 434.386 515.396 434.421 515.546 434.421H515.863V435.536C515.823 435.546 515.757 435.551 515.667 435.551C515.577 435.561 515.481 435.566 515.381 435.566C515.019 435.566 514.723 435.511 514.492 435.401C514.271 435.28 514.11 435.099 514.009 434.858C513.909 434.607 513.859 434.28 513.859 433.879L514.009 433.909C513.939 434.25 513.768 434.562 513.497 434.843C513.226 435.114 512.889 435.33 512.488 435.491C512.086 435.642 511.659 435.717 511.207 435.717ZM511.327 434.602C511.86 434.602 512.312 434.501 512.683 434.301C513.065 434.09 513.357 433.808 513.557 433.457C513.758 433.095 513.859 432.693 513.859 432.251V431.679L511.267 432.161C510.725 432.261 510.348 432.417 510.137 432.628C509.936 432.829 509.836 433.095 509.836 433.427C509.836 433.798 509.966 434.09 510.227 434.301C510.499 434.501 510.865 434.602 511.327 434.602ZM517.292 435.536V427.55H518.407L518.468 429.569L518.347 429.524C518.448 428.841 518.664 428.344 518.995 428.032C519.337 427.711 519.789 427.55 520.351 427.55H521.135V428.756H520.366C519.964 428.756 519.628 428.831 519.357 428.982C519.096 429.122 518.895 429.338 518.754 429.629C518.623 429.911 518.558 430.272 518.558 430.714V435.536H517.292ZM522.546 435.536V424.838H523.811V431.844L527.699 427.55H529.386L526.237 430.94L529.522 435.536H527.985L525.378 431.799L523.811 433.457V435.536H522.546ZM530.683 435.536V427.55H531.949V435.536H530.683ZM530.653 426.299V424.823H531.979V426.299H530.653ZM534.509 435.536V427.55H535.669L535.714 429.584L535.564 429.449C535.664 428.977 535.84 428.59 536.091 428.288C536.342 427.977 536.643 427.746 536.995 427.595C537.357 427.445 537.743 427.369 538.155 427.369C538.768 427.369 539.27 427.505 539.662 427.776C540.064 428.047 540.36 428.414 540.551 428.876C540.752 429.328 540.852 429.835 540.852 430.398V435.536H539.587V430.76C539.587 430.267 539.526 429.855 539.406 429.524C539.295 429.182 539.115 428.926 538.863 428.756C538.612 428.575 538.286 428.484 537.884 428.484C537.271 428.484 536.764 428.68 536.362 429.072C535.97 429.454 535.774 430.016 535.774 430.76V435.536H534.509ZM546.116 437.977C545.544 437.977 545.026 437.882 544.564 437.691C544.102 437.5 543.715 437.229 543.404 436.877C543.093 436.526 542.882 436.119 542.771 435.657L544.097 435.566C544.218 435.938 544.429 436.229 544.73 436.44C545.041 436.661 545.503 436.772 546.116 436.772C546.839 436.772 547.392 436.626 547.774 436.335C548.165 436.043 548.361 435.606 548.361 435.024V433.728C548.17 434.15 547.864 434.486 547.442 434.738C547.02 434.989 546.548 435.114 546.026 435.114C545.353 435.114 544.75 434.948 544.218 434.617C543.695 434.285 543.283 433.828 542.982 433.246C542.691 432.663 542.545 431.995 542.545 431.242C542.545 430.478 542.691 429.81 542.982 429.238C543.273 428.655 543.675 428.198 544.187 427.867C544.71 427.535 545.303 427.369 545.965 427.369C546.528 427.369 547.03 427.5 547.472 427.761C547.924 428.022 548.241 428.374 548.422 428.816V427.55H549.627V434.994C549.627 435.616 549.486 436.149 549.205 436.591C548.924 437.043 548.522 437.384 548 437.616C547.477 437.857 546.849 437.977 546.116 437.977ZM546.086 433.909C546.769 433.909 547.317 433.673 547.728 433.201C548.14 432.718 548.351 432.065 548.361 431.242C548.371 430.689 548.281 430.217 548.09 429.825C547.909 429.424 547.643 429.117 547.291 428.906C546.95 428.685 546.548 428.575 546.086 428.575C545.383 428.575 544.835 428.816 544.444 429.298C544.062 429.77 543.871 430.418 543.871 431.242C543.871 432.065 544.067 432.718 544.459 433.201C544.861 433.673 545.403 433.909 546.086 433.909Z" fill="black"/>
<rect x="202.6" y="537.452" width="91.4809" height="27" rx="13.5" fill="white" fill-opacity="0.2"/>
<rect x="202.6" y="537.452" width="91.4809" height="27" rx="13.5" stroke="#FE9C1A"/>
<path d="M218.1 556.649C218.1 550.356 223.287 545.254 229.58 545.254L229.58 556.649L218.1 556.649Z" fill="#FE9C1A"/>
<path d="M234.966 555.952V545.253H238.281C239.929 545.253 241.194 545.72 242.078 546.655C242.972 547.579 243.419 548.9 243.419 550.618C243.419 552.325 242.983 553.641 242.109 554.565C241.235 555.49 239.989 555.952 238.372 555.952H234.966ZM236.262 554.686H238.281C239.537 554.686 240.481 554.349 241.114 553.676C241.747 552.993 242.063 551.974 242.063 550.618C242.063 549.241 241.747 548.217 241.114 547.544C240.481 546.861 239.537 546.519 238.281 546.519H236.262V554.686ZM245.101 555.952V547.966H246.366V555.952H245.101ZM245.07 546.715V545.238H246.396V546.715H245.07ZM251.661 558.393C251.088 558.393 250.571 558.297 250.109 558.106C249.647 557.916 249.26 557.644 248.949 557.293C248.637 556.941 248.426 556.534 248.316 556.072L249.642 555.982C249.762 556.353 249.973 556.645 250.275 556.856C250.586 557.077 251.048 557.187 251.661 557.187C252.384 557.187 252.937 557.042 253.318 556.75C253.71 556.459 253.906 556.022 253.906 555.439V554.144C253.715 554.565 253.409 554.902 252.987 555.153C252.565 555.404 252.093 555.53 251.57 555.53C250.897 555.53 250.295 555.364 249.762 555.033C249.24 554.701 248.828 554.244 248.527 553.661C248.235 553.079 248.09 552.411 248.09 551.657C248.09 550.894 248.235 550.226 248.527 549.653C248.818 549.071 249.22 548.614 249.732 548.282C250.254 547.951 250.847 547.785 251.51 547.785C252.073 547.785 252.575 547.915 253.017 548.177C253.469 548.438 253.785 548.789 253.966 549.231V547.966H255.172V555.409C255.172 556.032 255.031 556.564 254.75 557.006C254.469 557.458 254.067 557.8 253.544 558.031C253.022 558.272 252.394 558.393 251.661 558.393ZM251.631 554.324C252.314 554.324 252.861 554.088 253.273 553.616C253.685 553.134 253.896 552.481 253.906 551.657C253.916 551.105 253.826 550.633 253.635 550.241C253.454 549.839 253.188 549.533 252.836 549.322C252.495 549.101 252.093 548.99 251.631 548.99C250.928 548.99 250.38 549.231 249.988 549.714C249.607 550.186 249.416 550.834 249.416 551.657C249.416 552.481 249.612 553.134 250.003 553.616C250.405 554.088 250.948 554.324 251.631 554.324ZM260.551 556.132C259.797 556.132 259.144 555.962 258.592 555.62C258.049 555.279 257.628 554.796 257.326 554.174C257.035 553.541 256.889 552.802 256.889 551.959C256.889 551.115 257.035 550.382 257.326 549.759C257.628 549.136 258.044 548.654 258.577 548.312C259.119 547.961 259.757 547.785 260.49 547.785C261.184 547.785 261.796 547.951 262.329 548.282C262.861 548.604 263.273 549.076 263.564 549.698C263.866 550.321 264.016 551.08 264.016 551.974V552.35H258.215C258.265 553.204 258.491 553.847 258.893 554.279C259.305 554.711 259.858 554.927 260.551 554.927C261.073 554.927 261.5 554.806 261.832 554.565C262.173 554.314 262.409 553.988 262.54 553.586L263.896 553.691C263.685 554.405 263.283 554.992 262.69 555.454C262.108 555.906 261.395 556.132 260.551 556.132ZM258.215 551.235H262.63C262.57 550.462 262.344 549.894 261.952 549.533C261.57 549.171 261.083 548.99 260.49 548.99C259.878 548.99 259.37 549.181 258.969 549.563C258.577 549.935 258.326 550.492 258.215 551.235ZM268.639 556.132C267.926 556.132 267.318 556.017 266.816 555.786C266.323 555.555 265.937 555.238 265.655 554.837C265.384 554.425 265.229 553.958 265.188 553.435L266.514 553.345C266.595 553.827 266.801 554.214 267.132 554.505C267.464 554.786 267.966 554.927 268.639 554.927C269.181 554.927 269.613 554.842 269.935 554.671C270.266 554.49 270.432 554.204 270.432 553.812C270.432 553.601 270.382 553.425 270.281 553.285C270.181 553.144 269.985 553.023 269.694 552.923C269.402 552.812 268.97 552.707 268.398 552.607C267.634 552.466 267.032 552.295 266.59 552.094C266.158 551.883 265.846 551.627 265.655 551.326C265.475 551.014 265.384 550.648 265.384 550.226C265.384 549.513 265.645 548.93 266.168 548.478C266.69 548.016 267.434 547.785 268.398 547.785C269.051 547.785 269.598 547.905 270.04 548.146C270.492 548.377 270.844 548.689 271.095 549.081C271.356 549.462 271.527 549.884 271.607 550.346L270.281 550.437C270.221 550.156 270.111 549.909 269.95 549.698C269.789 549.477 269.578 549.307 269.317 549.186C269.056 549.056 268.744 548.99 268.383 548.99C267.81 548.99 267.388 549.101 267.117 549.322C266.846 549.543 266.71 549.824 266.71 550.166C266.71 550.427 266.771 550.643 266.891 550.813C267.022 550.974 267.228 551.11 267.509 551.22C267.79 551.321 268.167 551.411 268.639 551.492C269.453 551.632 270.085 551.803 270.538 552.004C270.99 552.205 271.306 552.451 271.487 552.742C271.668 553.033 271.758 553.39 271.758 553.812C271.758 554.304 271.617 554.726 271.336 555.078C271.065 555.419 270.693 555.68 270.221 555.861C269.759 556.042 269.232 556.132 268.639 556.132ZM276.1 555.952C275.376 555.952 274.839 555.786 274.487 555.454C274.146 555.123 273.975 554.606 273.975 553.902V546.097H275.241V553.872C275.241 554.234 275.321 554.485 275.482 554.626C275.643 554.766 275.889 554.837 276.22 554.837H277.365V555.952H276.1ZM272.8 549.081V547.966H277.365V549.081H272.8Z" fill="black"/>
</g>
<defs>
<linearGradient id="paint0_linear_1890_5770" x1="149.734" y1="302.097" x2="577.799" y2="197.513" gradientUnits="userSpaceOnUse">
<stop stop-color="#46D078"/>
<stop offset="1" stop-color="#F0F0F0"/>
</linearGradient>
<linearGradient id="paint1_linear_1890_5770" x1="183.968" y1="289.23" x2="446.218" y2="238.075" gradientUnits="userSpaceOnUse">
<stop stop-color="#91C174"/>
<stop offset="1" stop-color="#F0F0F0"/>
</linearGradient>
<linearGradient id="paint2_linear_1890_5770" x1="452.062" y1="156.982" x2="424.949" y2="471.272" gradientUnits="userSpaceOnUse">
<stop stop-color="#00FF5D" stop-opacity="0"/>
<stop offset="0.0001" stop-color="#E2F78C" stop-opacity="0.3"/>
<stop offset="1" stop-color="#00FF5D" stop-opacity="0"/>
</linearGradient>
<linearGradient id="paint3_linear_1890_5770" x1="214.495" y1="247.319" x2="398.096" y2="389.441" gradientUnits="userSpaceOnUse">
<stop stop-color="white"/>
<stop offset="1" stop-color="white" stop-opacity="0"/>
</linearGradient>
<linearGradient id="paint4_linear_1890_5770" x1="575.185" y1="471.893" x2="282.134" y2="335" gradientUnits="userSpaceOnUse">
<stop stop-color="#1A1B1C" stop-opacity="0"/>
<stop offset="1" stop-color="#1A1B1C"/>
</linearGradient>
<linearGradient id="paint5_linear_1890_5770" x1="324.034" y1="260.39" x2="239.094" y2="382.784" gradientUnits="userSpaceOnUse">
<stop stop-color="#E14322"/>
<stop offset="0.182692" stop-color="#FE9C1A"/>
<stop offset="0.331731" stop-color="#E2F78C"/>
<stop offset="0.427885" stop-color="#FFC3DF"/>
<stop offset="0.615385" stop-color="#9FDBFF"/>
<stop offset="0.745192" stop-color="#3B82F6"/>
<stop offset="1" stop-color="#418B5C"/>
</linearGradient>
<clipPath id="clip0_1890_5770">
<rect width="630" height="670" rx="12" fill="white"/>
</clipPath>
</defs>
</svg>
