<svg fill="none" height="535" viewBox="0 0 535 535" width="535" xmlns="http://www.w3.org/2000/svg" xmlns:xlink="http://www.w3.org/1999/xlink"><filter id="a" color-interpolation-filters="sRGB" filterUnits="userSpaceOnUse" height="804.951" width="722.134" x="-9.55138" y="6.10068"><feFlood flood-opacity="0" result="BackgroundImageFix"/><feColorMatrix in="SourceAlpha" result="hardAlpha" type="matrix" values="0 0 0 0 0 0 0 0 0 0 0 0 0 0 0 0 0 0 127 0"/><feOffset dy="3.1208"/><feGaussianBlur stdDeviation="39.0101"/><feComposite in2="hardAlpha" operator="out"/><feColorMatrix type="matrix" values="0 0 0 0 0.290978 0 0 0 0 0.290978 0 0 0 0 0.290978 0 0 0 0.08 0"/><feBlend in2="BackgroundImageFix" mode="multiply" result="effect1_dropShadow_2136_4786"/><feBlend in="SourceGraphic" in2="effect1_dropShadow_2136_4786" mode="normal" result="shape"/></filter><clipPath id="b"><rect height="535" rx="9.61419" width="535"/></clipPath><clipPath id="c"><path d="m116.115 126.323c0-3.643 2.953-6.596 6.596-6.596h4.959c3.643 0 6.597 2.953 6.597 6.596v4.959c0 3.643-2.954 6.596-6.597 6.596h-4.959c-3.643 0-6.596-2.953-6.596-6.596z"/></clipPath><clipPath id="d"><path d="m134.266 176.55c0-3.643 2.953-6.596 6.596-6.596h4.959c3.643 0 6.596 2.953 6.596 6.596v4.959c0 3.643-2.953 6.596-6.596 6.596h-4.959c-3.643 0-6.596-2.953-6.596-6.596z"/></clipPath><clipPath id="e"><path d="m134.266 226.777c0-3.643 2.953-6.596 6.596-6.596h4.959c3.643 0 6.596 2.953 6.596 6.596v4.959c0 3.643-2.953 6.596-6.596 6.596h-4.959c-3.643 0-6.596-2.953-6.596-6.596z"/></clipPath><clipPath id="f"><path d="m134.266 277.004c0-3.643 2.953-6.596 6.596-6.596h4.959c3.643 0 6.596 2.953 6.596 6.596v4.959c0 3.643-2.953 6.596-6.596 6.596h-4.959c-3.643 0-6.596-2.953-6.596-6.596z"/></clipPath><clipPath id="g"><path d="m152.418 427.685c0-3.643 2.953-6.596 6.596-6.596h4.959c3.643 0 6.596 2.953 6.596 6.596v4.959c0 3.643-2.953 6.596-6.596 6.596h-4.959c-3.643 0-6.596-2.953-6.596-6.596z"/></clipPath><clipPath id="h"><path d="m152.418 477.912c0-3.643 2.953-6.596 6.596-6.596h4.959c3.643 0 6.596 2.953 6.596 6.596v4.959c0 3.643-2.953 6.596-6.596 6.596h-4.959c-3.643 0-6.596-2.953-6.596-6.596z"/></clipPath><clipPath id="i"><path d="m134.266 528.139c0-3.643 2.953-6.596 6.596-6.596h4.959c3.643 0 6.596 2.953 6.596 6.596v4.959c0 3.643-2.953 6.596-6.596 6.596h-4.959c-3.643 0-6.596-2.953-6.596-6.596z"/></clipPath><g clip-path="url(#b)"><g filter="url(#a)"><rect fill="#fff" height="648.91" rx="18.1513" shape-rendering="crispEdges" width="397.061" x="68.4688" y="81"/><path d="m104.77 131.828-4.538-4.538h9.076z" fill="#2a3241"/><g clip-path="url(#c)"><path d="m116.115 126.323c0-3.643 2.953-6.596 6.596-6.596h4.959c3.643 0 6.597 2.953 6.597 6.596v4.959c0 3.643-2.954 6.596-6.597 6.596h-4.959c-3.643 0-6.596-2.953-6.596-6.596z" fill="#f7f7f7"/><rect fill="#1c91ff" height="15.8824" rx="3.40338" width="15.8824" x="117.25" y="120.861"/><path d="m123.68 130.316 6.428-6.429 1.513 1.513-7.941 7.94-4.916-4.915 1.512-1.513z" fill="#fff"/></g><path d="m122.712 120.294h4.958c3.33 0 6.029 2.7 6.029 6.03v4.958c0 3.329-2.699 6.029-6.029 6.029h-4.958c-3.33 0-6.029-2.7-6.029-6.029v-4.958c0-3.33 2.699-6.03 6.029-6.03z" stroke="#d3d5d9" stroke-width="1.13446"/><path d="m150.15 132.584h1.513v1.513h-1.513z" fill="#545d6c"/><path clip-rule="evenodd" d="m154.688 134.097c0 .881-.502 1.644-1.236 2.02-.31.159-.661.249-1.033.249h-9.076c-1.253 0-2.269-1.016-2.269-2.269v-10.589c0-1.253 1.016-2.268 2.269-2.268h9.076c1.253 0 2.269 1.015 2.269 2.268zm-1.513-10.589c0-.417-.338-.756-.756-.756h-9.076c-.418 0-.756.339-.756.756v6.936c.236-.083.491-.129.756-.129h9.076c.265 0 .52.046.756.129zm-10.588 9.076v1.513c0 .32.199.593.479.704.02.008.041.015.061.021.011.003.021.006.032.008.059.015.121.023.184.023h9.076c.104 0 .204-.021.294-.059.272-.115.462-.384.462-.697v-1.513c0-.418-.338-.756-.756-.756h-9.076c-.418 0-.756.338-.756.756z" fill="#545d6c" fill-rule="evenodd"/><path d="m165.225 134.303v-11.277h1.906l3.605 9.784 3.589-9.784h1.906v11.277h-1.366v-8.736l-3.224 8.736h-1.826l-3.224-8.736v8.736zm15.853.19c-.868 0-1.561-.201-2.08-.603-.508-.403-.762-.964-.762-1.684s.211-1.286.635-1.699c.423-.413 1.096-.704 2.017-.874l2.986-.556c0-.709-.17-1.239-.508-1.588-.329-.349-.826-.524-1.493-.524-.583 0-1.043.132-1.382.397-.339.254-.572.625-.699 1.112l-1.414-.111c.159-.795.54-1.435 1.144-1.922.614-.498 1.398-.747 2.351-.747 1.08 0 1.906.307 2.477.922.572.603.858 1.44.858 2.509v3.478c0 .191.032.328.095.413.074.074.191.111.35.111h.333v1.176c-.042.01-.111.015-.206.015-.096.011-.196.016-.302.016-.381 0-.694-.058-.937-.174-.233-.127-.402-.318-.508-.572-.106-.265-.159-.609-.159-1.032l.159.031c-.074.36-.254.689-.54.985-.286.286-.641.514-1.065.683-.423.159-.873.238-1.35.238zm.128-1.175c.561 0 1.037-.106 1.429-.318.402-.222.709-.519.921-.889.212-.381.318-.805.318-1.271v-.603l-2.732.508c-.572.106-.969.27-1.191.492-.212.212-.318.493-.318.842 0 .392.138.699.413.921.286.212.672.318 1.16.318zm6.287.985v-8.418h1.175l.064 2.128-.127-.047c.106-.72.333-1.245.683-1.573.36-.339.836-.508 1.429-.508h.826v1.271h-.81c-.424 0-.778.079-1.064.238-.275.148-.487.376-.635.683-.138.296-.207.677-.207 1.143v5.083zm5.537 0v-11.277h1.334v7.385l4.098-4.526h1.779l-3.32 3.573 3.463 4.845h-1.62l-2.748-3.939-1.652 1.747v2.192zm11.865.19c-.794 0-1.482-.18-2.065-.54-.572-.36-1.016-.868-1.334-1.525-.307-.667-.46-1.445-.46-2.334 0-.89.153-1.663.46-2.319.318-.657.757-1.165 1.318-1.525.572-.37 1.244-.556 2.017-.556.731 0 1.377.175 1.938.524.561.339.995.837 1.302 1.493.318.657.477 1.456.477 2.399v.397h-6.115c.053.9.291 1.577.715 2.033.434.455 1.016.683 1.747.683.551 0 1.001-.127 1.35-.382.36-.264.609-.608.746-1.032l1.43.111c-.223.752-.646 1.371-1.271 1.858-.614.477-1.366.715-2.255.715zm-2.462-5.162h4.654c-.064-.815-.302-1.413-.715-1.794-.402-.381-.916-.572-1.541-.572-.645 0-1.18.201-1.604.603-.413.392-.677.98-.794 1.763zm10.677 4.972c-.762 0-1.328-.175-1.699-.525-.36-.349-.54-.894-.54-1.635v-8.227h1.334v8.195c0 .381.085.646.254.794.17.148.429.222.779.222h1.207v1.176zm-3.478-7.243v-1.175h4.813v1.175zm6.524 7.243v-8.418h1.334v8.418zm-.032-9.736v-1.557h1.398v1.557zm4.064 9.736v-8.418h1.223l.048 2.144-.159-.143c.106-.498.291-.905.556-1.223.265-.328.582-.572.953-.73.381-.159.789-.239 1.223-.239.646 0 1.175.143 1.588.429.424.286.736.673.937 1.16.212.476.318 1.011.318 1.604v5.416h-1.334v-5.035c0-.519-.064-.953-.191-1.302-.116-.36-.307-.63-.572-.81-.264-.191-.608-.286-1.032-.286-.646 0-1.18.206-1.604.619-.413.402-.619.995-.619 1.779v5.035zm12.235 2.573c-.603 0-1.149-.101-1.636-.302s-.894-.487-1.223-.858c-.328-.37-.55-.799-.667-1.286l1.398-.096c.127.392.349.699.667.922.328.232.815.349 1.461.349.763 0 1.345-.154 1.747-.461.413-.307.62-.767.62-1.381v-1.366c-.201.444-.524.799-.969 1.064s-.942.397-1.493.397c-.709 0-1.345-.175-1.906-.524-.551-.35-.985-.831-1.302-1.446-.307-.614-.461-1.318-.461-2.112 0-.805.154-1.509.461-2.112.307-.614.73-1.096 1.27-1.446.551-.349 1.176-.524 1.874-.524.593 0 1.123.138 1.589.413.476.276.81.646 1 1.112v-1.334h1.271v7.846c0 .656-.148 1.217-.445 1.683-.296.477-.72.837-1.27 1.08-.551.255-1.213.382-1.986.382zm-.031-4.289c.72 0 1.297-.249 1.731-.746.434-.508.656-1.197.667-2.065.01-.582-.085-1.08-.286-1.493-.191-.423-.471-.746-.842-.969-.36-.233-.783-.349-1.27-.349-.742 0-1.319.254-1.732.762-.402.498-.603 1.181-.603 2.049s.206 1.557.619 2.065c.424.497.995.746 1.716.746z" fill="#04140a"/><path d="m125.946 179.03-4.538 4.538v-9.076z" fill="#2a3241"/><g clip-path="url(#d)"><path d="m134.266 176.55c0-3.643 2.953-6.596 6.596-6.596h4.959c3.643 0 6.596 2.953 6.596 6.596v4.959c0 3.643-2.953 6.596-6.596 6.596h-4.959c-3.643 0-6.596-2.953-6.596-6.596z" fill="#f7f7f7"/><rect fill="#1c91ff" height="15.8824" rx="3.40338" width="15.8824" x="135.4" y="171.089"/><path d="m141.83 180.543 6.429-6.429 1.512 1.513-7.94 7.94-4.917-4.915 1.513-1.513z" fill="#fff"/></g><path d="m140.862 170.521h4.958c3.33 0 6.03 2.7 6.03 6.03v4.958c0 3.329-2.7 6.029-6.03 6.029h-4.958c-3.329 0-6.029-2.7-6.029-6.029v-4.958c0-3.33 2.7-6.03 6.029-6.03z" stroke="#d3d5d9" stroke-width="1.13446"/><path d="m159.981 173.736v10.588h12.101v-8.319h-7.12l-1.485-1.846c-.215-.268-.54-.423-.884-.423zm5.608.756h8.006v11.345h-15.126v-13.614h3.664c1.031 0 2.006.467 2.652 1.27z" fill="#545d6c"/><path d="m183.375 184.53v-11.277h3.876c1.334 0 2.334.244 3.001.731s1.001 1.254 1.001 2.303c0 .487-.106.916-.318 1.286-.211.371-.513.662-.905.874-.392.201-.858.301-1.398.301l-.016-.095c.964 0 1.721.26 2.272.778.561.509.841 1.176.841 2.002 0 1.027-.333 1.8-1 2.318-.667.519-1.615.779-2.843.779zm1.366-1.334h3.145c.773 0 1.366-.159 1.779-.477.423-.318.635-.773.635-1.366s-.212-1.053-.635-1.382c-.413-.338-1.006-.508-1.779-.508h-3.145zm0-5.067h2.51c.825 0 1.461-.153 1.905-.461.445-.317.668-.757.668-1.318 0-.593-.218-1.032-.652-1.318-.423-.296-1.064-.445-1.921-.445h-2.51zm9.084 6.401v-8.418h1.175l.063 2.128-.127-.047c.106-.72.334-1.245.683-1.573.36-.339.837-.508 1.43-.508h.826v1.271h-.81c-.424 0-.779.079-1.064.238-.276.148-.488.376-.636.683-.137.296-.206.677-.206 1.143v5.083zm7.653.19c-.868 0-1.562-.201-2.081-.603-.508-.403-.762-.964-.762-1.684s.212-1.286.635-1.699c.424-.413 1.096-.704 2.017-.874l2.986-.556c0-.709-.169-1.238-.508-1.588-.328-.349-.826-.524-1.493-.524-.582 0-1.043.132-1.382.397-.339.254-.572.625-.699 1.112l-1.413-.111c.159-.794.54-1.435 1.143-1.922.615-.498 1.398-.747 2.351-.747 1.08 0 1.906.307 2.478.922.571.603.857 1.44.857 2.509v3.478c0 .191.032.328.096.413.074.074.19.111.349.111h.334v1.176c-.043.01-.112.016-.207.016-.095.01-.196.015-.302.015-.381 0-.693-.058-.937-.174-.233-.127-.402-.318-.508-.572-.106-.265-.159-.609-.159-1.032l.159.031c-.074.36-.254.689-.54.985-.286.286-.641.514-1.064.683-.424.159-.874.238-1.35.238zm.127-1.175c.561 0 1.038-.106 1.429-.318.403-.222.71-.519.922-.889.211-.381.317-.805.317-1.271v-.603l-2.732.508c-.571.106-.968.27-1.191.492-.212.212-.317.493-.317.842 0 .392.137.699.413.921.285.212.672.318 1.159.318zm6.287.985v-8.418h1.223l.048 2.144-.159-.143c.106-.497.291-.905.556-1.223.265-.328.582-.572.953-.73.381-.159.789-.239 1.223-.239.646 0 1.175.143 1.588.429.424.286.736.673.937 1.16.212.476.318 1.011.318 1.604v5.416h-1.334v-5.035c0-.519-.064-.953-.191-1.302-.116-.36-.307-.63-.572-.81-.264-.191-.608-.286-1.032-.286-.646 0-1.181.206-1.604.619-.413.402-.62.995-.62 1.779v5.035zm12.029.19c-.731 0-1.366-.18-1.906-.54-.53-.36-.937-.868-1.223-1.524-.286-.657-.429-1.435-.429-2.335s.143-1.678.429-2.335c.286-.656.693-1.165 1.223-1.525.54-.36 1.175-.54 1.906-.54.561 0 1.074.122 1.54.366.466.233.816.566 1.049 1v-4.034h1.334v11.277h-1.207l-.048-1.271c-.233.455-.588.815-1.064 1.08-.477.254-1.011.381-1.604.381zm.27-1.27c.497 0 .916-.127 1.254-.382.35-.254.615-.614.795-1.08.18-.476.27-1.032.27-1.667 0-.657-.09-1.218-.27-1.684s-.445-.82-.795-1.064c-.338-.254-.757-.381-1.254-.381-.741 0-1.334.281-1.779.842-.434.55-.651 1.313-.651 2.287 0 .963.217 1.726.651 2.287.445.561 1.038.842 1.779.842zm14.639 1.334c-1.059 0-1.964-.254-2.716-.763-.752-.508-1.329-1.201-1.731-2.08-.392-.89-.588-1.901-.588-3.034s.201-2.144.604-3.033c.402-.89.979-1.589 1.731-2.097.762-.519 1.673-.778 2.732-.778.9 0 1.657.164 2.271.492.625.329 1.117.773 1.477 1.335.371.561.625 1.191.762 1.89l-1.429.095c-.138-.731-.445-1.324-.921-1.779-.477-.466-1.197-.699-2.16-.699-.858 0-1.557.212-2.097.635-.529.424-.921.985-1.175 1.684-.244.688-.365 1.44-.365 2.255 0 .858.127 1.631.381 2.319.254.678.651 1.218 1.191 1.62s1.228.604 2.065.604c.667 0 1.244-.149 1.731-.445.487-.307.863-.715 1.128-1.223.264-.508.402-1.059.412-1.652h-3.24v-1.302h4.511v5.702h-1.016l-.096-2.605.191.222c-.127.509-.371.964-.731 1.366-.36.392-.794.704-1.302.937-.498.223-1.038.334-1.62.334zm9.405-.064c-.836 0-1.508-.28-2.017-.842-.497-.571-.746-1.355-.746-2.35v-5.416h1.334v5.051c0 .815.143 1.418.429 1.81.296.381.746.572 1.35.572.667 0 1.191-.212 1.572-.635.381-.434.572-1.027.572-1.779v-5.019h1.334v8.418h-1.27v-2.081l.206.111c-.169.688-.492 1.223-.969 1.604-.476.371-1.075.556-1.795.556zm6.14-.19v-8.418h1.334v8.418zm-.032-9.736v-1.557h1.398v1.557zm6.74 9.926c-.731 0-1.366-.18-1.906-.54-.529-.36-.937-.868-1.223-1.524-.286-.657-.429-1.435-.429-2.335s.143-1.678.429-2.335c.286-.656.694-1.165 1.223-1.525.54-.36 1.175-.54 1.906-.54.561 0 1.075.122 1.541.366.466.233.815.566 1.048 1v-4.034h1.334v11.277h-1.207l-.048-1.271c-.233.455-.587.815-1.064 1.08-.476.254-1.011.381-1.604.381zm.27-1.27c.498 0 .916-.127 1.255-.382.349-.254.614-.614.794-1.08.18-.476.27-1.032.27-1.667 0-.657-.09-1.218-.27-1.684s-.445-.82-.794-1.064c-.339-.254-.757-.381-1.255-.381-.741 0-1.334.281-1.779.842-.434.55-.651 1.313-.651 2.287 0 .963.217 1.726.651 2.287.445.561 1.038.842 1.779.842zm9.322 1.27c-.794 0-1.482-.18-2.064-.54-.572-.36-1.017-.868-1.334-1.524-.307-.668-.461-1.446-.461-2.335 0-.89.154-1.663.461-2.319.317-.656.757-1.165 1.318-1.525.572-.37 1.244-.556 2.017-.556.731 0 1.376.175 1.938.525.561.338.995.836 1.302 1.492.318.657.476 1.456.476 2.399v.397h-6.114c.053.9.291 1.577.714 2.033.435.455 1.017.683 1.747.683.551 0 1.001-.127 1.35-.382.36-.264.609-.608.747-1.032l1.429.111c-.222.752-.646 1.371-1.27 1.859-.614.476-1.366.714-2.256.714zm-2.461-5.162h4.653c-.063-.815-.302-1.413-.714-1.794-.403-.381-.916-.572-1.541-.572-.646 0-1.181.201-1.604.604-.413.391-.678.979-.794 1.762zm9.651 4.972c-.487 0-.884-.127-1.191-.382-.307-.254-.461-.656-.461-1.207v-9.688h1.334v9.577c0 .17.043.302.127.397.096.085.228.127.397.127h.731v1.176zm2.458 0v-8.418h1.334v8.418zm-.031-9.736v-1.557h1.397v1.557zm4.064 9.736v-8.418h1.223l.048 2.144-.159-.143c.106-.497.291-.905.556-1.223.264-.328.582-.572.953-.73.381-.159.788-.239 1.222-.239.646 0 1.176.143 1.589.429.423.286.736.673.937 1.16.212.476.317 1.011.317 1.604v5.416h-1.334v-5.035c0-.519-.063-.953-.19-1.302-.117-.36-.307-.63-.572-.81-.265-.191-.609-.286-1.032-.286-.646 0-1.181.206-1.605.619-.412.402-.619.995-.619 1.779v5.035zm12.33.19c-.794 0-1.482-.18-2.065-.54-.571-.36-1.016-.868-1.334-1.524-.307-.668-.46-1.446-.46-2.335 0-.89.153-1.663.46-2.319.318-.656.757-1.165 1.318-1.525.572-.37 1.245-.556 2.017-.556.731 0 1.377.175 1.938.525.561.338.995.836 1.303 1.492.317.657.476 1.456.476 2.399v.397h-6.115c.053.9.291 1.577.715 2.033.434.455 1.016.683 1.747.683.551 0 1.001-.127 1.35-.382.36-.264.609-.608.747-1.032l1.429.111c-.222.752-.646 1.371-1.271 1.859-.614.476-1.366.714-2.255.714zm-2.462-5.162h4.654c-.064-.815-.302-1.413-.715-1.794-.402-.381-.916-.572-1.541-.572-.645 0-1.18.201-1.604.604-.413.391-.677.979-.794 1.762zm10.987 5.162c-.751 0-1.392-.122-1.921-.365-.519-.244-.927-.577-1.223-1.001-.286-.434-.45-.926-.493-1.477l1.398-.095c.085.508.302.916.651 1.223.35.296.879.445 1.588.445.572 0 1.027-.09 1.366-.27.35-.191.524-.493.524-.906 0-.222-.053-.407-.158-.556-.106-.148-.313-.275-.62-.381-.307-.116-.762-.227-1.366-.333-.804-.148-1.44-.328-1.906-.54-.455-.223-.783-.493-.984-.81-.191-.328-.286-.715-.286-1.16 0-.751.275-1.366.826-1.842.55-.487 1.334-.731 2.35-.731.689 0 1.266.127 1.731.382.477.243.848.571 1.112.984.276.403.456.847.54 1.334l-1.397.096c-.064-.297-.18-.556-.35-.779-.169-.232-.392-.412-.667-.54-.275-.137-.603-.206-.985-.206-.603 0-1.048.116-1.334.349s-.429.53-.429.89c0 .275.064.503.191.683.138.169.355.312.651.429.297.105.694.201 1.191.285.858.149 1.525.329 2.002.54.476.212.81.472 1 .779.191.307.286.683.286 1.127 0 .519-.148.964-.445 1.334-.286.36-.677.636-1.175.826-.487.191-1.043.286-1.668.286z" fill="#1c91ff"/><path d="m125.946 229.257-4.538 4.538v-9.076z" fill="#2a3241"/><g clip-path="url(#e)"><path d="m134.266 226.777c0-3.643 2.953-6.596 6.596-6.596h4.959c3.643 0 6.596 2.953 6.596 6.596v4.959c0 3.643-2.953 6.596-6.596 6.596h-4.959c-3.643 0-6.596-2.953-6.596-6.596z" fill="#f7f7f7"/><rect fill="#1c91ff" height="15.8824" rx="3.40338" width="15.8824" x="135.4" y="221.316"/><path d="m141.83 230.77 6.429-6.429 1.512 1.513-7.94 7.94-4.917-4.915 1.513-1.513z" fill="#fff"/></g><path d="m140.862 220.748h4.958c3.33 0 6.03 2.7 6.03 6.03v4.958c0 3.329-2.7 6.029-6.03 6.029h-4.958c-3.329 0-6.029-2.7-6.029-6.029v-4.958c0-3.33 2.7-6.03 6.029-6.03z" stroke="#d3d5d9" stroke-width="1.13446"/><path d="m159.981 223.963v10.588h12.101v-8.319h-7.12l-1.485-1.846c-.215-.268-.54-.423-.884-.423zm5.608.756h8.006v11.345h-15.126v-13.614h3.664c1.031 0 2.006.467 2.652 1.27z" fill="#545d6c"/><path d="m183.375 234.757v-11.277h1.906l3.605 9.784 3.59-9.784h1.906v11.277h-1.366v-8.736l-3.224 8.736h-1.827l-3.224-8.736v8.736zm15.854.19c-.868 0-1.562-.201-2.081-.603-.508-.403-.762-.964-.762-1.684s.212-1.286.635-1.699c.424-.413 1.096-.704 2.017-.874l2.986-.556c0-.709-.169-1.238-.508-1.588-.328-.349-.826-.524-1.493-.524-.582 0-1.043.132-1.382.397-.339.254-.572.625-.699 1.112l-1.413-.111c.159-.794.54-1.435 1.143-1.922.615-.498 1.398-.747 2.351-.747 1.08 0 1.906.307 2.478.922.571.603.857 1.44.857 2.509v3.478c0 .191.032.329.096.413.074.074.19.111.349.111h.334v1.176c-.043.01-.112.016-.207.016-.095.01-.196.015-.302.015-.381 0-.693-.058-.937-.174-.233-.127-.402-.318-.508-.572-.106-.265-.159-.609-.159-1.032l.159.031c-.074.36-.254.689-.54.985-.286.286-.641.514-1.064.683-.424.159-.874.238-1.35.238zm.127-1.175c.561 0 1.038-.106 1.429-.318.403-.222.71-.518.922-.889.211-.381.317-.805.317-1.271v-.603l-2.732.508c-.571.106-.968.27-1.191.492-.212.212-.317.493-.317.842 0 .392.137.699.413.921.285.212.672.318 1.159.318zm6.287.985v-8.418h1.176l.063 2.128-.127-.047c.106-.72.334-1.244.683-1.573.36-.339.837-.508 1.43-.508h.825v1.271h-.81c-.423 0-.778.079-1.064.238-.275.148-.487.376-.635.683-.138.296-.206.677-.206 1.143v5.083zm5.538 0v-11.277h1.334v7.386l4.097-4.527h1.779l-3.319 3.574 3.462 4.844h-1.62l-2.748-3.939-1.651 1.747v2.192zm11.864.19c-.794 0-1.482-.18-2.064-.54-.572-.36-1.017-.868-1.335-1.524-.307-.667-.46-1.446-.46-2.335 0-.89.153-1.662.46-2.319.318-.656.758-1.165 1.319-1.525.571-.37 1.244-.556 2.017-.556.73 0 1.376.175 1.937.525.562.338.996.836 1.303 1.493.317.656.476 1.455.476 2.398v.397h-6.114c.052.9.291 1.577.714 2.033.434.455 1.017.683 1.747.683.551 0 1.001-.127 1.35-.381.36-.265.609-.609.747-1.033l1.429.111c-.222.752-.646 1.372-1.27 1.859-.614.476-1.366.714-2.256.714zm-2.461-5.161h4.653c-.063-.816-.302-1.414-.715-1.795-.402-.381-.916-.572-1.54-.572-.646 0-1.181.201-1.604.604-.413.391-.678.979-.794 1.763zm10.677 4.971c-.762 0-1.329-.175-1.7-.524-.36-.35-.54-.895-.54-1.636v-8.227h1.335v8.195c0 .381.084.646.254.794.169.148.429.222.778.222h1.207v1.176zm-3.478-7.243v-1.175h4.812v1.175zm10.587 7.243v-8.418h1.175l.064 2.128-.127-.047c.106-.72.333-1.244.683-1.573.36-.339.836-.508 1.429-.508h.826v1.271h-.81c-.424 0-.778.079-1.064.238-.276.148-.487.376-.636.683-.137.296-.206.677-.206 1.143v5.083zm8.67.19c-.795 0-1.483-.18-2.065-.54-.572-.36-1.017-.868-1.334-1.524-.307-.667-.461-1.446-.461-2.335 0-.89.154-1.662.461-2.319.317-.656.757-1.165 1.318-1.525.572-.37 1.244-.556 2.017-.556.731 0 1.377.175 1.938.525.561.338.995.836 1.302 1.493.318.656.477 1.455.477 2.398v.397h-6.115c.053.9.291 1.577.715 2.033.434.455 1.016.683 1.747.683.55 0 1-.127 1.35-.381.36-.265.608-.609.746-1.033l1.429.111c-.222.752-.645 1.372-1.27 1.859-.614.476-1.366.714-2.255.714zm-2.462-5.161h4.653c-.063-.816-.301-1.414-.714-1.795-.403-.381-.916-.572-1.541-.572-.646 0-1.181.201-1.604.604-.413.391-.678.979-.794 1.763zm10.987 5.161c-.752 0-1.392-.121-1.922-.365-.519-.244-.926-.577-1.223-1.001-.286-.434-.45-.926-.492-1.477l1.398-.095c.084.508.301.916.651 1.223.349.296.879.445 1.588.445.572 0 1.027-.09 1.366-.27.349-.191.524-.493.524-.906 0-.222-.053-.407-.159-.555-.106-.149-.312-.276-.619-.382-.307-.116-.763-.227-1.366-.333-.805-.148-1.44-.328-1.906-.54-.455-.223-.784-.493-.985-.81-.19-.328-.286-.715-.286-1.16 0-.751.276-1.365.826-1.842.551-.487 1.334-.731 2.351-.731.688 0 1.265.127 1.731.382.476.243.847.571 1.112.984.275.403.455.847.54 1.334l-1.398.096c-.063-.297-.18-.556-.349-.778-.17-.233-.392-.413-.667-.54-.276-.138-.604-.207-.985-.207-.604 0-1.048.117-1.334.349-.286.233-.429.53-.429.89 0 .275.064.503.191.683.137.169.354.312.651.429.296.106.693.201 1.191.286.858.148 1.525.328 2.001.54.477.211.81.471 1.001.778.19.307.286.683.286 1.127 0 .519-.149.964-.445 1.335-.286.36-.678.635-1.175.825-.487.191-1.043.286-1.668.286zm8.396 0c-.794 0-1.482-.18-2.065-.54-.571-.36-1.016-.868-1.334-1.524-.307-.667-.46-1.446-.46-2.335 0-.89.153-1.662.46-2.319.318-.656.757-1.165 1.319-1.525.571-.37 1.244-.556 2.017-.556.73 0 1.376.175 1.937.525.561.338.996.836 1.303 1.493.317.656.476 1.455.476 2.398v.397h-6.115c.053.9.292 1.577.715 2.033.434.455 1.017.683 1.747.683.551 0 1.001-.127 1.35-.381.36-.265.609-.609.747-1.033l1.429.111c-.222.752-.646 1.372-1.271 1.859-.614.476-1.365.714-2.255.714zm-2.462-5.161h4.654c-.064-.816-.302-1.414-.715-1.795-.402-.381-.916-.572-1.54-.572-.646 0-1.181.201-1.604.604-.413.391-.678.979-.795 1.763zm10.411 5.161c-.869 0-1.562-.201-2.081-.603-.508-.403-.762-.964-.762-1.684s.211-1.286.635-1.699c.423-.413 1.096-.704 2.017-.874l2.986-.556c0-.709-.17-1.238-.508-1.588-.329-.349-.826-.524-1.493-.524-.583 0-1.043.132-1.382.397-.339.254-.572.625-.699 1.112l-1.413-.111c.158-.794.54-1.435 1.143-1.922.614-.498 1.398-.747 2.351-.747 1.08 0 1.906.307 2.477.922.572.603.858 1.44.858 2.509v3.478c0 .191.032.329.095.413.074.074.191.111.35.111h.333v1.176c-.042.01-.111.016-.206.016-.096.01-.196.015-.302.015-.381 0-.694-.058-.937-.174-.233-.127-.402-.318-.508-.572-.106-.265-.159-.609-.159-1.032l.159.031c-.074.36-.254.689-.54.985-.286.286-.641.514-1.064.683-.424.159-.874.238-1.35.238zm.127-1.175c.561 0 1.037-.106 1.429-.318.402-.222.709-.518.921-.889.212-.381.318-.805.318-1.271v-.603l-2.732.508c-.572.106-.969.27-1.191.492-.212.212-.318.493-.318.842 0 .392.138.699.413.921.286.212.673.318 1.16.318zm6.287.985v-8.418h1.175l.064 2.128-.127-.047c.106-.72.333-1.244.683-1.573.36-.339.836-.508 1.429-.508h.826v1.271h-.81c-.423 0-.778.079-1.064.238-.275.148-.487.376-.635.683-.138.296-.207.677-.207 1.143v5.083zm8.67.19c-.784 0-1.467-.18-2.049-.54-.572-.36-1.017-.868-1.334-1.524-.318-.667-.477-1.446-.477-2.335 0-.89.159-1.662.477-2.319.317-.656.762-1.165 1.334-1.525.582-.37 1.265-.556 2.049-.556.646 0 1.217.117 1.715.35.508.222.921.55 1.239.985.318.434.524.963.619 1.588l-1.397.095c-.096-.561-.339-.99-.731-1.286-.392-.307-.873-.461-1.445-.461-.773 0-1.377.281-1.811.842-.434.55-.651 1.313-.651 2.287s.217 1.742.651 2.303c.434.55 1.038.826 1.811.826.572 0 1.053-.159 1.445-.477.392-.317.635-.794.731-1.429l1.397.095c-.095.625-.301 1.17-.619 1.636-.318.455-.731.81-1.239 1.064-.498.254-1.069.381-1.715.381zm5.227-.19v-11.277h1.334v4.717l-.158-.031c.105-.466.285-.848.54-1.144.254-.296.566-.514.937-.651.37-.148.778-.223 1.223-.223.603 0 1.111.138 1.524.413.424.265.741.641.953 1.128.223.477.334 1.027.334 1.652v5.416h-1.334v-5.035c0-.815-.149-1.419-.445-1.811-.286-.391-.725-.587-1.318-.587-.678 0-1.223.206-1.636.619s-.62 1.011-.62 1.795v5.019z" fill="#04140a"/><path d="m122.921 282.509-4.538-4.538h9.075z" fill="#2a3241"/><g clip-path="url(#f)"><path d="m134.266 277.004c0-3.643 2.953-6.596 6.596-6.596h4.959c3.643 0 6.596 2.953 6.596 6.596v4.959c0 3.643-2.953 6.596-6.596 6.596h-4.959c-3.643 0-6.596-2.953-6.596-6.596z" fill="#f7f7f7"/><rect fill="#1c91ff" height="15.8824" rx="3.40338" width="15.8824" x="135.4" y="271.542"/><path d="m141.83 280.997 6.429-6.429 1.512 1.513-7.94 7.94-4.917-4.915 1.513-1.513z" fill="#fff"/></g><path d="m140.862 270.975h4.958c3.33 0 6.03 2.7 6.03 6.03v4.958c0 3.329-2.7 6.029-6.03 6.029h-4.958c-3.329 0-6.029-2.7-6.029-6.029v-4.958c0-3.33 2.7-6.03 6.029-6.03z" stroke="#d3d5d9" stroke-width="1.13446"/><path d="m159.981 274.19v10.588h12.101v-8.319h-7.12l-1.485-1.846c-.215-.268-.54-.423-.884-.423zm5.608.756h8.006v11.345h-15.126v-13.614h3.664c1.031 0 2.006.467 2.652 1.27z" fill="#545d6c"/><path d="m183.375 284.984v-11.277h4.05c1.26 0 2.24.302 2.939.905.698.604 1.048 1.44 1.048 2.51 0 .72-.159 1.345-.477 1.874-.317.519-.773.916-1.366 1.191s-1.307.413-2.144.413h-2.684v4.384zm1.366-5.718h2.684c.847 0 1.483-.18 1.906-.54.434-.36.651-.895.651-1.604 0-.688-.217-1.207-.651-1.557-.423-.349-1.059-.524-1.906-.524h-2.684zm10.425 5.718c-.487 0-.884-.127-1.191-.382-.307-.254-.461-.656-.461-1.207v-9.688h1.335v9.577c0 .17.042.302.127.397.095.085.227.127.397.127h.73v1.176zm4.854.19c-.868 0-1.562-.201-2.081-.603-.508-.403-.762-.964-.762-1.684s.212-1.286.635-1.699c.424-.413 1.096-.704 2.017-.874l2.986-.556c0-.709-.169-1.239-.508-1.588-.328-.349-.826-.524-1.493-.524-.582 0-1.043.132-1.382.397-.339.254-.572.625-.699 1.112l-1.413-.111c.159-.795.54-1.435 1.143-1.922.615-.498 1.398-.747 2.351-.747 1.08 0 1.906.307 2.478.922.571.603.857 1.44.857 2.509v3.478c0 .191.032.328.096.413.074.074.19.111.349.111h.334v1.176c-.043.01-.112.016-.207.016-.095.01-.196.015-.302.015-.381 0-.693-.058-.937-.174-.233-.127-.402-.318-.508-.572-.106-.265-.159-.609-.159-1.032l.159.031c-.074.36-.254.689-.54.985-.286.286-.641.514-1.064.683-.424.159-.874.238-1.35.238zm.127-1.175c.561 0 1.038-.106 1.429-.318.403-.222.71-.519.922-.889.211-.381.317-.805.317-1.271v-.603l-2.732.508c-.571.106-.968.27-1.191.492-.212.212-.317.493-.317.842 0 .392.137.699.413.921.285.212.672.318 1.159.318zm6.287.985v-8.418h1.223l.048 2.144-.159-.143c.106-.498.291-.905.556-1.223.265-.328.582-.572.953-.73.381-.159.789-.239 1.223-.239.646 0 1.175.143 1.588.429.424.286.736.673.937 1.16.212.476.318 1.011.318 1.604v5.416h-1.334v-5.035c0-.519-.064-.953-.191-1.302-.116-.36-.307-.63-.572-.81-.264-.191-.608-.286-1.032-.286-.646 0-1.181.206-1.604.619-.413.402-.619.995-.619 1.779v5.035zm8.919 0v-8.418h1.223l.047 2.144-.158-.143c.105-.498.291-.905.555-1.223.265-.328.583-.572.953-.73.382-.159.789-.239 1.223-.239.646 0 1.176.143 1.589.429.423.286.735.673.937 1.16.211.476.317 1.011.317 1.604v5.416h-1.334v-5.035c0-.519-.063-.953-.19-1.302-.117-.36-.308-.63-.572-.81-.265-.191-.609-.286-1.033-.286-.645 0-1.18.206-1.604.619-.413.402-.619.995-.619 1.779v5.035zm9.073 0v-8.418h1.334v8.418zm-.032-9.736v-1.557h1.398v1.557zm4.065 9.736v-8.418h1.223l.047 2.144-.158-.143c.106-.498.291-.905.556-1.223.264-.328.582-.572.952-.73.382-.159.789-.239 1.223-.239.646 0 1.176.143 1.589.429.423.286.736.673.937 1.16.211.476.317 1.011.317 1.604v5.416h-1.334v-5.035c0-.519-.063-.953-.19-1.302-.117-.36-.307-.63-.572-.81-.265-.191-.609-.286-1.032-.286-.646 0-1.181.206-1.605.619-.413.402-.619.995-.619 1.779v5.035zm12.235 2.573c-.604 0-1.149-.101-1.636-.302s-.895-.487-1.223-.858c-.328-.37-.551-.799-.667-1.286l1.397-.096c.127.392.35.699.667.922.329.233.816.349 1.462.349.762 0 1.344-.154 1.747-.461.413-.307.619-.767.619-1.381v-1.366c-.201.444-.524.799-.969 1.064-.444.265-.942.397-1.493.397-.709 0-1.344-.175-1.906-.524-.55-.35-.984-.831-1.302-1.445-.307-.615-.46-1.319-.46-2.113 0-.805.153-1.509.46-2.112.307-.614.731-1.096 1.271-1.446.55-.349 1.175-.524 1.874-.524.593 0 1.122.138 1.588.413.477.276.81.646 1.001 1.112v-1.334h1.27v7.846c0 .656-.148 1.218-.444 1.683-.297.477-.72.837-1.271 1.08-.551.255-1.212.382-1.985.382zm-.032-4.289c.72 0 1.297-.248 1.731-.746.434-.508.657-1.197.667-2.065.011-.582-.085-1.08-.286-1.493-.19-.423-.471-.746-.842-.969-.36-.233-.783-.349-1.27-.349-.741 0-1.318.254-1.731.762-.403.498-.604 1.181-.604 2.049s.207 1.557.62 2.065c.423.498.995.746 1.715.746zm12.511 1.906c-.868 0-1.561-.201-2.08-.603-.509-.403-.763-.964-.763-1.684s.212-1.286.636-1.699c.423-.413 1.096-.704 2.017-.874l2.986-.556c0-.709-.17-1.239-.509-1.588-.328-.349-.826-.524-1.493-.524-.582 0-1.043.132-1.381.397-.339.254-.572.625-.699 1.112l-1.414-.111c.159-.795.54-1.435 1.144-1.922.614-.498 1.397-.747 2.35-.747 1.08 0 1.906.307 2.478.922.572.603.858 1.44.858 2.509v3.478c0 .191.031.328.095.413.074.074.191.111.349.111h.334v1.176c-.042.01-.111.016-.207.016-.095.01-.195.015-.301.015-.381 0-.694-.058-.937-.174-.233-.127-.403-.318-.509-.572-.105-.265-.158-.609-.158-1.032l.158.031c-.074.36-.254.689-.54.985-.285.286-.64.514-1.064.683-.423.159-.873.238-1.35.238zm.127-1.175c.562 0 1.038-.106 1.43-.318.402-.222.709-.519.921-.889.212-.381.318-.805.318-1.271v-.603l-2.732.508c-.572.106-.969.27-1.191.492-.212.212-.318.493-.318.842 0 .392.138.699.413.921.286.212.672.318 1.159.318zm6.288.985v-8.418h1.223l.047 2.144-.158-.143c.105-.498.291-.905.555-1.223.265-.328.583-.572.953-.73.382-.159.789-.239 1.223-.239.646 0 1.176.143 1.589.429.423.286.735.673.937 1.16.211.476.317 1.011.317 1.604v5.416h-1.334v-5.035c0-.519-.063-.953-.19-1.302-.117-.36-.307-.63-.572-.81-.265-.191-.609-.286-1.033-.286-.645 0-1.18.206-1.604.619-.413.402-.619.995-.619 1.779v5.035zm12.028.19c-.73 0-1.366-.18-1.906-.54-.529-.36-.937-.868-1.223-1.524-.286-.657-.429-1.435-.429-2.335s.143-1.678.429-2.335c.286-.656.694-1.165 1.223-1.525.54-.36 1.176-.54 1.906-.54.561 0 1.075.122 1.541.366.466.233.815.566 1.048 1v-4.034h1.334v11.277h-1.207l-.048-1.271c-.233.455-.587.815-1.064 1.08-.476.254-1.011.381-1.604.381zm.27-1.27c.498 0 .916-.127 1.255-.382.349-.254.614-.614.794-1.08.18-.476.27-1.032.27-1.667 0-.657-.09-1.218-.27-1.684s-.445-.82-.794-1.064c-.339-.254-.757-.381-1.255-.381-.741 0-1.334.281-1.779.842-.434.55-.651 1.313-.651 2.287 0 .963.217 1.726.651 2.287.445.561 1.038.842 1.779.842zm14.226 1.334c-.868 0-1.625-.164-2.271-.493-.646-.328-1.159-.778-1.54-1.35-.371-.582-.588-1.254-.652-2.017l1.43-.095c.074.561.238 1.038.492 1.429.254.392.593.689 1.017.89.434.201.953.302 1.556.302.53 0 .98-.069 1.35-.207.371-.137.651-.339.842-.603.201-.265.302-.588.302-.969 0-.35-.085-.657-.254-.921-.159-.276-.472-.524-.937-.747-.456-.233-1.133-.46-2.033-.683-.869-.222-1.562-.466-2.081-.73-.508-.265-.879-.588-1.112-.969-.222-.381-.333-.853-.333-1.414 0-.635.148-1.191.444-1.667.307-.487.742-.863 1.303-1.128.561-.275 1.228-.413 2.001-.413.826 0 1.535.159 2.128.476.593.308 1.064.731 1.414 1.271.349.54.566 1.154.651 1.842l-1.429.096c-.064-.456-.212-.858-.445-1.207-.223-.36-.53-.641-.921-.842-.392-.201-.869-.302-1.43-.302-.699 0-1.255.17-1.667.508-.413.329-.62.763-.62 1.303 0 .349.08.64.238.873.17.223.466.424.89.604.423.169 1.032.354 1.826.556.943.233 1.689.513 2.24.841.561.318.958.689 1.191 1.112.243.424.365.906.365 1.446 0 .656-.169 1.228-.508 1.715-.339.476-.805.847-1.398 1.112-.593.254-1.276.381-2.049.381zm8.787-.254c-.762 0-1.329-.175-1.699-.524-.36-.35-.54-.895-.54-1.636v-8.227h1.334v8.195c0 .381.085.646.254.794s.429.222.778.222h1.207v1.176zm-3.478-7.243v-1.175h4.812v1.175zm6.694 7.243v-8.418h1.175l.064 2.128-.127-.047c.106-.72.333-1.245.683-1.573.36-.339.836-.508 1.429-.508h.826v1.271h-.81c-.423 0-.778.079-1.064.238-.275.148-.487.376-.635.683-.138.296-.207.677-.207 1.143v5.083zm7.653.19c-.868 0-1.561-.201-2.08-.603-.509-.403-.763-.964-.763-1.684s.212-1.286.636-1.699c.423-.413 1.096-.704 2.017-.874l2.986-.556c0-.709-.17-1.239-.509-1.588-.328-.349-.826-.524-1.493-.524-.582 0-1.043.132-1.381.397-.339.254-.572.625-.699 1.112l-1.414-.111c.159-.795.54-1.435 1.144-1.922.614-.498 1.397-.747 2.35-.747 1.08 0 1.906.307 2.478.922.572.603.858 1.44.858 2.509v3.478c0 .191.031.328.095.413.074.074.191.111.349.111h.334v1.176c-.042.01-.111.016-.206.016-.096.01-.196.015-.302.015-.381 0-.694-.058-.937-.174-.233-.127-.403-.318-.509-.572-.105-.265-.158-.609-.158-1.032l.158.031c-.074.36-.254.689-.54.985-.285.286-.64.514-1.064.683-.423.159-.873.238-1.35.238zm.127-1.175c.562 0 1.038-.106 1.43-.318.402-.222.709-.519.921-.889.212-.381.318-.805.318-1.271v-.603l-2.732.508c-.572.106-.969.27-1.191.492-.212.212-.318.493-.318.842 0 .392.138.699.413.921.286.212.672.318 1.159.318zm8.95.985c-.762 0-1.329-.175-1.699-.524-.36-.35-.54-.895-.54-1.636v-8.227h1.334v8.195c0 .381.085.646.254.794s.429.222.778.222h1.207v1.176zm-3.478-7.243v-1.175h4.812v1.175zm9.656 7.433c-.794 0-1.482-.18-2.065-.54-.571-.36-1.016-.868-1.334-1.524-.307-.668-.46-1.446-.46-2.335 0-.89.153-1.663.46-2.319.318-.657.757-1.165 1.319-1.525.571-.37 1.244-.556 2.017-.556.73 0 1.376.175 1.937.524.561.339.996.837 1.303 1.493.317.657.476 1.456.476 2.399v.397h-6.115c.053.9.292 1.577.715 2.033.434.455 1.017.683 1.747.683.551 0 1.001-.127 1.35-.382.36-.264.609-.608.747-1.032l1.429.111c-.222.752-.646 1.371-1.271 1.859-.614.476-1.365.714-2.255.714zm-2.462-5.162h4.654c-.064-.815-.302-1.413-.715-1.794-.402-.381-.916-.572-1.54-.572-.646 0-1.181.201-1.605.603-.412.392-.677.98-.794 1.763zm11.115 7.545c-.604 0-1.149-.101-1.636-.302s-.895-.487-1.223-.858c-.329-.37-.551-.799-.667-1.286l1.397-.096c.127.392.35.699.667.922.329.233.816.349 1.462.349.762 0 1.344-.154 1.747-.461.413-.307.619-.767.619-1.381v-1.366c-.201.444-.524.799-.969 1.064-.444.265-.942.397-1.493.397-.709 0-1.344-.175-1.906-.524-.55-.35-.984-.831-1.302-1.445-.307-.615-.461-1.319-.461-2.113 0-.805.154-1.509.461-2.112.307-.614.731-1.096 1.271-1.446.55-.349 1.175-.524 1.874-.524.593 0 1.122.138 1.588.413.476.276.81.646 1.001 1.112v-1.334h1.27v7.846c0 .656-.148 1.218-.445 1.683-.296.477-.72.837-1.27 1.08-.551.255-1.212.382-1.985.382zm-.032-4.289c.72 0 1.297-.248 1.731-.746.434-.508.656-1.197.667-2.065.011-.582-.085-1.08-.286-1.493-.19-.423-.471-.746-.842-.969-.36-.233-.783-.349-1.27-.349-.741 0-1.318.254-1.731.762-.403.498-.604 1.181-.604 2.049s.207 1.557.619 2.065c.424.498.996.746 1.716.746zm6.324 4.098v-1.175h.969c.297 0 .514-.048.651-.143.149-.085.26-.228.334-.429l.302-.794h-.461l-3.081-8.259h1.461l2.51 7.02 2.398-7.02h1.461l-3.415 9.482c-.159.455-.397.789-.714 1-.318.212-.757.318-1.319.318z" fill="#04140a"/><path d="m144.098 329.711-4.537 4.538v-9.076z" fill="#2a3241"/><path d="m159.015 321.202h4.958c3.329 0 6.029 2.7 6.029 6.03v4.958c0 3.329-2.7 6.029-6.029 6.029h-4.958c-3.33 0-6.03-2.7-6.03-6.029v-4.958c0-3.33 2.7-6.03 6.03-6.03z" fill="#fff"/><path d="m159.015 321.202h4.958c3.329 0 6.029 2.7 6.029 6.03v4.958c0 3.329-2.7 6.029-6.029 6.029h-4.958c-3.33 0-6.03-2.7-6.03-6.029v-4.958c0-3.33 2.7-6.03 6.03-6.03z" stroke="#d3d5d9" stroke-width="1.13446"/><path d="m178.134 324.417v10.588h12.101v-8.319h-7.12l-1.486-1.846c-.215-.268-.54-.423-.884-.423zm5.607.756h8.006v11.345h-15.126v-13.614h3.665c1.03 0 2.005.467 2.651 1.27z" fill="#545d6c"/><path d="m201.528 335.211v-11.277h3.875c1.334 0 2.335.244 3.002.731s1 1.254 1 2.303c0 .487-.106.916-.317 1.286-.212.371-.514.662-.906.874-.391.201-.857.301-1.397.301l-.016-.095c.963 0 1.72.26 2.271.778.561.509.842 1.176.842 2.002 0 1.027-.334 1.8-1.001 2.318-.667.519-1.615.779-2.843.779zm1.365-1.334h3.145c.773 0 1.366-.159 1.779-.477.424-.318.635-.773.635-1.366s-.211-1.053-.635-1.382c-.413-.338-1.006-.508-1.779-.508h-3.145zm0-5.067h2.51c.826 0 1.461-.153 1.906-.461.444-.317.667-.757.667-1.318 0-.593-.217-1.032-.651-1.318-.424-.296-1.064-.445-1.922-.445h-2.51zm12.496 6.591c-.773 0-1.451-.18-2.033-.54-.583-.36-1.033-.868-1.35-1.524-.318-.667-.477-1.446-.477-2.335 0-.9.159-1.678.477-2.335.317-.656.767-1.165 1.35-1.525.582-.36 1.26-.54 2.033-.54s1.445.18 2.017.54c.582.36 1.032.869 1.35 1.525.317.657.476 1.435.476 2.335 0 .889-.159 1.668-.476 2.335-.318.656-.768 1.164-1.35 1.524-.572.36-1.244.54-2.017.54zm0-1.27c.773 0 1.371-.276 1.794-.826.435-.561.652-1.329.652-2.303s-.217-1.737-.652-2.287c-.423-.561-1.021-.842-1.794-.842s-1.377.281-1.811.842c-.434.55-.651 1.313-.651 2.287s.217 1.742.651 2.303c.434.55 1.038.826 1.811.826zm8.15 1.27c-.868 0-1.562-.201-2.081-.603-.508-.403-.762-.964-.762-1.684s.212-1.286.635-1.699c.424-.413 1.096-.704 2.017-.874l2.986-.556c0-.709-.169-1.238-.508-1.588-.328-.349-.826-.524-1.493-.524-.582 0-1.043.132-1.382.397-.339.254-.572.625-.699 1.112l-1.413-.111c.159-.794.54-1.435 1.143-1.922.614-.498 1.398-.747 2.351-.747 1.08 0 1.906.307 2.478.922.571.603.857 1.44.857 2.509v3.478c0 .191.032.329.095.413.075.074.191.111.35.111h.333v1.176c-.042.01-.111.016-.206.016-.095.01-.196.015-.302.015-.381 0-.693-.058-.937-.174-.233-.127-.402-.318-.508-.572-.106-.265-.159-.609-.159-1.032l.159.031c-.074.36-.254.689-.54.985-.286.286-.641.514-1.064.683-.424.159-.874.238-1.35.238zm.127-1.175c.561 0 1.037-.106 1.429-.318.403-.222.71-.518.921-.889.212-.381.318-.805.318-1.271v-.603l-2.732.508c-.571.106-.969.27-1.191.492-.212.212-.318.493-.318.842 0 .392.138.699.413.921.286.212.673.318 1.16.318zm6.287.985v-8.418h1.176l.063 2.128-.127-.047c.106-.72.334-1.245.683-1.573.36-.339.836-.508 1.429-.508h.826v1.271h-.81c-.423 0-.778.079-1.064.238-.275.148-.487.376-.635.683-.138.296-.207.677-.207 1.143v5.083zm8.368.19c-.73 0-1.366-.18-1.906-.54-.529-.36-.937-.868-1.223-1.524-.286-.657-.428-1.435-.428-2.335s.142-1.678.428-2.335c.286-.656.694-1.165 1.223-1.525.54-.36 1.176-.54 1.906-.54.561 0 1.075.122 1.541.366.466.233.815.566 1.048 1v-4.034h1.334v11.277h-1.207l-.048-1.271c-.232.455-.587.815-1.064 1.08-.476.254-1.011.381-1.604.381zm.27-1.27c.498 0 .916-.127 1.255-.381.349-.255.614-.615.794-1.08.18-.477.27-1.033.27-1.668 0-.657-.09-1.218-.27-1.684s-.445-.82-.794-1.064c-.339-.254-.757-.381-1.255-.381-.741 0-1.334.281-1.779.842-.434.55-.651 1.313-.651 2.287 0 .963.217 1.726.651 2.287.445.561 1.038.842 1.779.842zm10.161 1.08v-8.418h1.223l.047 2.128-.19-.063c.095-.466.259-.863.492-1.191.244-.339.54-.599.889-.779.35-.19.736-.286 1.16-.286.73 0 1.323.202 1.779.604.466.402.757.963.873 1.683l-.254-.015c.085-.487.238-.895.461-1.223.233-.339.529-.599.889-.779s.773-.27 1.239-.27c.603 0 1.112.127 1.525.382.413.243.725.603.937 1.08.211.476.317 1.053.317 1.731v5.416h-1.334v-5.13c0-.763-.148-1.334-.445-1.716-.296-.391-.735-.587-1.318-.587-.392 0-.736.095-1.032.286-.286.19-.508.465-.667.825-.159.35-.238.779-.238 1.287v5.035h-1.335v-5.035c0-.752-.132-1.339-.397-1.763-.264-.424-.709-.635-1.334-.635-.391 0-.736.095-1.032.286-.286.19-.514.465-.683.825-.159.36-.238.789-.238 1.287v5.035zm17.029.19c-.794 0-1.482-.18-2.064-.54-.572-.36-1.017-.868-1.335-1.524-.307-.667-.46-1.446-.46-2.335 0-.89.153-1.663.46-2.319.318-.656.758-1.165 1.319-1.525.571-.37 1.244-.556 2.017-.556.73 0 1.376.175 1.937.525.562.338.996.836 1.303 1.492.317.657.476 1.456.476 2.399v.397h-6.114c.052.9.291 1.577.714 2.033.434.455 1.017.683 1.747.683.551 0 1.001-.127 1.35-.381.36-.265.609-.609.747-1.033l1.429.111c-.222.752-.646 1.372-1.27 1.859-.615.476-1.366.714-2.256.714zm-2.461-5.162h4.653c-.063-.815-.302-1.413-.715-1.794-.402-.381-.916-.572-1.54-.572-.646 0-1.181.201-1.604.604-.413.391-.678.979-.794 1.762zm11.209 5.162c-.794 0-1.482-.18-2.065-.54-.571-.36-1.016-.868-1.334-1.524-.307-.667-.46-1.446-.46-2.335 0-.89.153-1.663.46-2.319.318-.656.757-1.165 1.318-1.525.572-.37 1.245-.556 2.018-.556.73 0 1.376.175 1.937.525.561.338.995.836 1.303 1.492.317.657.476 1.456.476 2.399v.397h-6.115c.053.9.291 1.577.715 2.033.434.455 1.016.683 1.747.683.551 0 1.001-.127 1.35-.381.36-.265.609-.609.747-1.033l1.429.111c-.222.752-.646 1.372-1.271 1.859-.614.476-1.366.714-2.255.714zm-2.462-5.162h4.654c-.064-.815-.302-1.413-.715-1.794-.402-.381-.916-.572-1.54-.572-.646 0-1.181.201-1.605.604-.413.391-.677.979-.794 1.762zm10.678 4.972c-.763 0-1.329-.175-1.7-.524-.36-.35-.54-.895-.54-1.636v-8.227h1.334v8.195c0 .381.085.646.254.794.17.148.429.222.779.222h1.207v1.176zm-3.479-7.243v-1.175h4.813v1.175zm6.524 7.243v-8.418h1.334v8.418zm-.032-9.736v-1.557h1.398v1.557zm4.065 9.736v-8.418h1.223l.047 2.144-.159-.143c.106-.497.292-.905.556-1.223.265-.328.583-.572.953-.73.381-.159.789-.239 1.223-.239.646 0 1.175.143 1.588.429.424.286.736.673.937 1.16.212.476.318 1.011.318 1.604v5.416h-1.334v-5.035c0-.519-.064-.953-.191-1.302-.116-.36-.307-.63-.571-.81-.265-.191-.609-.286-1.033-.286-.646 0-1.18.206-1.604.619-.413.402-.619.995-.619 1.779v5.035zm12.234 2.573c-.603 0-1.148-.101-1.636-.302-.487-.201-.894-.487-1.222-.858-.329-.37-.551-.799-.668-1.286l1.398-.096c.127.392.35.699.667.922.328.233.815.349 1.461.349.763 0 1.345-.153 1.747-.461.413-.307.62-.767.62-1.381v-1.366c-.201.445-.524.799-.969 1.064s-.942.397-1.493.397c-.709 0-1.345-.175-1.906-.524-.55-.35-.985-.831-1.302-1.445-.307-.615-.461-1.319-.461-2.113 0-.805.154-1.509.461-2.112.307-.614.73-1.096 1.27-1.445.551-.35 1.176-.525 1.875-.525.592 0 1.122.138 1.588.413.476.276.81.646 1 1.112v-1.334h1.271v7.846c0 .656-.148 1.218-.445 1.683-.296.477-.72.837-1.27 1.08-.551.255-1.213.382-1.986.382zm-.031-4.289c.72 0 1.297-.248 1.731-.746.434-.508.656-1.197.667-2.065.01-.582-.085-1.08-.286-1.493-.191-.423-.471-.746-.842-.969-.36-.233-.783-.349-1.27-.349-.742 0-1.319.254-1.732.762-.402.498-.603 1.181-.603 2.049s.206 1.557.619 2.065c.424.498.996.746 1.716.746zm10.24 1.716v-8.418h1.175l.064 2.128-.127-.047c.105-.72.333-1.245.683-1.573.36-.339.836-.508 1.429-.508h.826v1.271h-.81c-.424 0-.778.079-1.064.238-.276.148-.487.376-.636.683-.137.296-.206.677-.206 1.143v5.083zm8.669.19c-.794 0-1.482-.18-2.064-.54-.572-.36-1.017-.868-1.334-1.524-.307-.667-.461-1.446-.461-2.335 0-.89.154-1.663.461-2.319.317-.656.757-1.165 1.318-1.525.572-.37 1.244-.556 2.017-.556.731 0 1.376.175 1.938.525.561.338.995.836 1.302 1.492.318.657.476 1.456.476 2.399v.397h-6.114c.053.9.291 1.577.714 2.033.435.455 1.017.683 1.747.683.551 0 1.001-.127 1.351-.381.36-.265.608-.609.746-1.033l1.429.111c-.222.752-.645 1.372-1.27 1.859-.614.476-1.366.714-2.256.714zm-2.461-5.162h4.653c-.063-.815-.301-1.413-.714-1.794-.403-.381-.916-.572-1.541-.572-.646 0-1.181.201-1.604.604-.413.391-.678.979-.794 1.762zm9.818 4.972-3.066-8.418h1.461l2.446 7.052 2.446-7.052h1.461l-3.065 8.418zm6.215 0v-8.418h1.335v8.418zm-.031-9.736v-1.557h1.397v1.557zm7.041 9.926c-.794 0-1.482-.18-2.064-.54-.572-.36-1.017-.868-1.334-1.524-.307-.667-.461-1.446-.461-2.335 0-.89.154-1.663.461-2.319.317-.656.757-1.165 1.318-1.525.572-.37 1.244-.556 2.017-.556.731 0 1.376.175 1.938.525.561.338.995.836 1.302 1.492.318.657.476 1.456.476 2.399v.397h-6.114c.053.9.291 1.577.714 2.033.435.455 1.017.683 1.747.683.551 0 1.001-.127 1.351-.381.36-.265.608-.609.746-1.033l1.429.111c-.222.752-.645 1.372-1.27 1.859-.614.476-1.366.714-2.256.714zm-2.461-5.162h4.653c-.063-.815-.301-1.413-.714-1.794-.403-.381-.916-.572-1.541-.572-.646 0-1.181.201-1.604.604-.413.391-.678.979-.794 1.762zm9.357 4.972-2.605-8.418h1.461l1.97 7.02 2.001-7.02h1.429l2.002 7.02 1.985-7.02h1.461l-2.605 8.418h-1.683l-1.874-6.401-1.874 6.401zm13.976.19c-.752 0-1.392-.121-1.922-.365-.519-.244-.926-.577-1.223-1.001-.286-.434-.45-.926-.492-1.477l1.398-.095c.084.508.301.916.651 1.223.349.296.879.445 1.588.445.572 0 1.027-.09 1.366-.27.349-.191.524-.493.524-.906 0-.222-.053-.407-.159-.555-.106-.149-.312-.276-.619-.382-.307-.116-.763-.227-1.366-.333-.805-.148-1.44-.328-1.906-.54-.455-.223-.784-.493-.985-.81-.19-.328-.286-.715-.286-1.16 0-.751.276-1.366.826-1.842.551-.487 1.334-.731 2.351-.731.688 0 1.265.127 1.731.382.477.243.847.571 1.112.984.275.403.455.847.54 1.334l-1.398.096c-.063-.297-.18-.556-.349-.779-.17-.232-.392-.412-.667-.54-.276-.137-.604-.206-.985-.206-.604 0-1.048.116-1.334.349s-.429.53-.429.89c0 .275.064.503.191.683.137.169.354.312.651.429.296.105.693.201 1.191.285.858.149 1.525.329 2.001.54.477.212.81.472 1.001.779.19.307.286.683.286 1.127 0 .519-.149.964-.445 1.335-.286.36-.678.635-1.175.825-.487.191-1.043.286-1.668.286z" fill="#04140a"/><path d="m144.098 379.938-4.537 4.538v-9.076z" fill="#2a3241"/><path d="m159.015 371.429h4.958c3.329 0 6.029 2.7 6.029 6.03v4.958c0 3.329-2.7 6.029-6.029 6.029h-4.958c-3.33 0-6.03-2.7-6.03-6.029v-4.958c0-3.33 2.7-6.03 6.03-6.03z" fill="#fff"/><path d="m159.015 371.429h4.958c3.329 0 6.029 2.7 6.029 6.03v4.958c0 3.329-2.7 6.029-6.029 6.029h-4.958c-3.33 0-6.03-2.7-6.03-6.029v-4.958c0-3.33 2.7-6.03 6.03-6.03z" stroke="#d3d5d9" stroke-width="1.13446"/><path d="m178.134 374.644v10.588h12.101v-8.319h-7.12l-1.486-1.846c-.215-.268-.54-.423-.884-.423zm5.607.756h8.006v11.345h-15.126v-13.614h3.665c1.03 0 2.005.467 2.651 1.27z" fill="#545d6c"/><path d="m201.528 385.438v-11.277h3.875c1.334 0 2.335.244 3.002.731s1 1.255 1 2.303c0 .487-.106.916-.317 1.286-.212.371-.514.662-.906.874-.391.201-.857.302-1.397.302l-.016-.096c.963 0 1.72.26 2.271.778.561.509.842 1.176.842 2.002 0 1.027-.334 1.8-1.001 2.319-.667.518-1.615.778-2.843.778zm1.365-1.334h3.145c.773 0 1.366-.159 1.779-.477.424-.318.635-.773.635-1.366s-.211-1.053-.635-1.382c-.413-.338-1.006-.508-1.779-.508h-3.145zm0-5.067h2.51c.826 0 1.461-.153 1.906-.46.444-.318.667-.758.667-1.319 0-.593-.217-1.032-.651-1.318-.424-.296-1.064-.445-1.922-.445h-2.51zm11.817 6.591c-.837 0-1.509-.28-2.018-.841-.497-.572-.746-1.356-.746-2.351v-5.416h1.334v5.051c0 .815.143 1.419.429 1.81.296.381.746.572 1.35.572.667 0 1.191-.212 1.572-.635.381-.434.572-1.027.572-1.779v-5.019h1.334v8.418h-1.27v-2.081l.206.111c-.169.689-.492 1.223-.969 1.604-.476.371-1.074.556-1.794.556zm9.202 0c-.73 0-1.366-.18-1.906-.54-.529-.36-.937-.868-1.223-1.524-.285-.657-.428-1.435-.428-2.335s.143-1.678.428-2.335c.286-.656.694-1.165 1.223-1.525.54-.36 1.176-.54 1.906-.54.561 0 1.075.122 1.541.366.466.233.815.566 1.048 1v-4.034h1.334v11.277h-1.207l-.048-1.271c-.232.455-.587.815-1.064 1.08-.476.254-1.011.381-1.604.381zm.27-1.27c.498 0 .916-.127 1.255-.381.349-.255.614-.615.794-1.08.18-.477.27-1.033.27-1.668 0-.657-.09-1.218-.27-1.684s-.445-.82-.794-1.064c-.339-.254-.757-.381-1.255-.381-.741 0-1.334.281-1.779.842-.434.55-.651 1.313-.651 2.287 0 .963.217 1.726.651 2.287.445.561 1.038.842 1.779.842zm9.227 3.653c-.603 0-1.149-.101-1.636-.302s-.894-.487-1.223-.858c-.328-.37-.55-.799-.667-1.286l1.398-.095c.127.391.349.698.667.921.328.233.815.349 1.461.349.763 0 1.345-.153 1.747-.46.413-.308.62-.768.62-1.382v-1.366c-.201.445-.524.799-.969 1.064s-.942.397-1.493.397c-.709 0-1.345-.175-1.906-.524-.55-.349-.985-.831-1.302-1.445-.307-.615-.461-1.319-.461-2.113 0-.804.154-1.509.461-2.112.307-.614.73-1.096 1.27-1.445.551-.35 1.176-.525 1.874-.525.593 0 1.123.138 1.589.413.476.276.81.646 1 1.112v-1.334h1.271v7.846c0 .656-.148 1.218-.445 1.684-.296.476-.72.836-1.27 1.08-.551.254-1.213.381-1.986.381zm-.031-4.289c.72 0 1.297-.248 1.731-.746.434-.508.656-1.197.667-2.065.01-.582-.085-1.08-.286-1.493-.191-.423-.471-.746-.842-.969-.36-.232-.783-.349-1.27-.349-.742 0-1.319.254-1.732.762-.402.498-.603 1.181-.603 2.049s.206 1.557.619 2.065c.424.498.996.746 1.716.746zm9.402 1.906c-.794 0-1.483-.18-2.065-.54-.572-.36-1.016-.868-1.334-1.524-.307-.667-.461-1.446-.461-2.335 0-.89.154-1.662.461-2.319.318-.656.757-1.165 1.318-1.525.572-.37 1.244-.556 2.017-.556.731 0 1.377.175 1.938.525.561.338.995.836 1.302 1.493.318.656.477 1.455.477 2.398v.397h-6.115c.053.9.291 1.577.715 2.033.434.455 1.016.683 1.747.683.55 0 1-.127 1.35-.381.36-.265.609-.609.746-1.033l1.43.111c-.223.752-.646 1.372-1.271 1.859-.614.476-1.366.714-2.255.714zm-2.462-5.161h4.653c-.063-.816-.301-1.414-.714-1.795-.403-.381-.916-.572-1.541-.572-.646 0-1.18.201-1.604.604-.413.391-.678.979-.794 1.763zm10.677 4.971c-.762 0-1.329-.175-1.699-.524-.36-.35-.54-.895-.54-1.636v-8.227h1.334v8.195c0 .381.085.646.254.794s.429.222.778.222h1.207v1.176zm-3.478-7.243v-1.175h4.812v1.175z" fill="#04140a"/><path d="m144.098 430.165-4.537 4.538v-9.076z" fill="#2a3241"/><g clip-path="url(#g)"><path d="m152.418 427.685c0-3.643 2.953-6.596 6.596-6.596h4.959c3.643 0 6.596 2.953 6.596 6.596v4.959c0 3.643-2.953 6.596-6.596 6.596h-4.959c-3.643 0-6.596-2.953-6.596-6.596z" fill="#f7f7f7"/><rect fill="#1c91ff" height="15.8824" rx="3.40338" width="15.8824" x="153.553" y="422.224"/><path d="m159.982 431.678 6.429-6.429 1.513 1.513-7.941 7.94-4.917-4.915 1.513-1.513z" fill="#fff"/></g><path d="m159.015 421.656h4.958c3.329 0 6.029 2.7 6.029 6.03v4.958c0 3.329-2.7 6.029-6.029 6.029h-4.958c-3.33 0-6.03-2.7-6.03-6.029v-4.958c0-3.33 2.7-6.03 6.03-6.03z" stroke="#d3d5d9" stroke-width="1.13446"/><path d="m178.134 424.871v10.588h12.101v-8.319h-7.12l-1.486-1.846c-.215-.268-.54-.423-.884-.423zm5.607.756h8.006v11.345h-15.126v-13.614h3.665c1.03 0 2.005.467 2.651 1.27z" fill="#545d6c"/><path d="m205.403 435.919c-.868 0-1.625-.164-2.271-.493-.646-.328-1.16-.778-1.541-1.35-.37-.582-.588-1.254-.651-2.017l1.429-.095c.074.561.239 1.038.493 1.429.254.392.593.689 1.016.89.434.201.953.302 1.557.302.529 0 .979-.069 1.35-.207.37-.137.651-.339.841-.603.202-.265.302-.588.302-.969 0-.35-.084-.657-.254-.921-.159-.276-.471-.524-.937-.747-.455-.233-1.133-.46-2.033-.683-.868-.222-1.562-.466-2.081-.73-.508-.265-.878-.588-1.111-.969-.223-.381-.334-.853-.334-1.414 0-.635.148-1.191.445-1.667.307-.487.741-.863 1.302-1.128.561-.275 1.228-.413 2.001-.413.826 0 1.536.159 2.129.477.593.307 1.064.73 1.413 1.27.35.54.567 1.154.651 1.842l-1.429.096c-.064-.456-.212-.858-.445-1.207-.222-.36-.529-.641-.921-.842s-.868-.302-1.429-.302c-.699 0-1.255.17-1.668.508-.413.329-.619.763-.619 1.303 0 .349.079.64.238.873.169.223.466.424.889.604.424.169 1.033.355 1.827.556.942.233 1.689.513 2.239.841.561.318.958.689 1.191 1.112.244.424.366.906.366 1.446 0 .656-.17 1.228-.509 1.715-.338.476-.804.847-1.397 1.112-.593.254-1.276.381-2.049.381zm8.787-.254c-.763 0-1.329-.175-1.7-.524-.36-.35-.54-.895-.54-1.636v-8.227h1.334v8.195c0 .381.085.646.254.794.17.148.429.222.779.222h1.207v1.176zm-3.479-7.243v-1.175h4.813v1.175zm6.695 7.243v-8.418h1.175l.063 2.128-.127-.047c.106-.72.334-1.245.683-1.573.36-.339.837-.508 1.43-.508h.826v1.271h-.81c-.424 0-.779.079-1.065.238-.275.148-.487.376-.635.683-.138.296-.206.677-.206 1.143v5.083zm7.653.19c-.868 0-1.562-.201-2.081-.603-.508-.403-.762-.964-.762-1.684s.212-1.286.635-1.699c.424-.413 1.096-.704 2.017-.874l2.986-.556c0-.709-.169-1.238-.508-1.588-.328-.349-.826-.524-1.493-.524-.582 0-1.043.132-1.382.397-.339.254-.572.625-.699 1.112l-1.413-.111c.159-.794.54-1.435 1.143-1.922.614-.498 1.398-.747 2.351-.747 1.08 0 1.906.307 2.478.922.571.603.857 1.44.857 2.509v3.478c0 .191.032.328.095.413.075.074.191.111.35.111h.333v1.176c-.042.01-.111.016-.206.016-.095.01-.196.015-.302.015-.381 0-.693-.058-.937-.174-.233-.127-.402-.318-.508-.572-.106-.265-.159-.609-.159-1.032l.159.031c-.074.36-.254.689-.54.985-.286.286-.641.514-1.064.683-.424.159-.874.238-1.35.238zm.127-1.175c.561 0 1.037-.106 1.429-.318.403-.222.71-.519.921-.889.212-.381.318-.805.318-1.271v-.603l-2.732.508c-.571.106-.969.27-1.191.492-.212.212-.318.493-.318.842 0 .392.138.699.413.921.286.212.673.318 1.16.318zm8.95.985c-.763 0-1.329-.175-1.7-.524-.36-.35-.54-.895-.54-1.636v-8.227h1.334v8.195c0 .381.085.646.255.794.169.148.428.222.778.222h1.207v1.176zm-3.479-7.243v-1.175h4.813v1.175zm9.657 7.433c-.795 0-1.483-.18-2.065-.54-.572-.36-1.017-.868-1.334-1.524-.307-.668-.461-1.446-.461-2.335 0-.89.154-1.663.461-2.319.317-.656.757-1.165 1.318-1.525.572-.37 1.244-.556 2.017-.556.731 0 1.377.175 1.938.525.561.338.995.836 1.302 1.492.318.657.477 1.456.477 2.399v.397h-6.115c.053.9.291 1.577.715 2.033.434.455 1.016.683 1.747.683.55 0 1-.127 1.35-.382.36-.264.608-.608.746-1.032l1.429.111c-.222.752-.645 1.371-1.27 1.859-.614.476-1.366.714-2.255.714zm-2.462-5.162h4.653c-.063-.815-.301-1.413-.714-1.794-.403-.381-.916-.572-1.541-.572-.646 0-1.181.201-1.604.604-.413.391-.678.979-.794 1.762zm11.114 7.545c-.604 0-1.149-.101-1.636-.302s-.895-.487-1.223-.858c-.328-.37-.55-.799-.667-1.286l1.398-.096c.127.392.349.699.667.922.328.233.815.349 1.461.349.762 0 1.345-.153 1.747-.461.413-.307.62-.767.62-1.381v-1.366c-.202.444-.525.799-.969 1.064-.445.265-.943.397-1.493.397-.71 0-1.345-.175-1.906-.524-.551-.35-.985-.831-1.303-1.445-.307-.615-.46-1.319-.46-2.113 0-.805.153-1.509.46-2.112.308-.614.731-1.096 1.271-1.445.551-.35 1.175-.525 1.874-.525.593 0 1.123.138 1.588.413.477.276.81.646 1.001 1.112v-1.334h1.271v7.846c0 .656-.149 1.218-.445 1.683-.297.477-.72.837-1.271 1.08-.55.255-1.212.382-1.985.382zm-.032-4.289c.72 0 1.297-.248 1.731-.746.435-.508.657-1.197.668-2.065.01-.582-.085-1.08-.286-1.493-.191-.423-.472-.746-.842-.969-.36-.233-.784-.349-1.271-.349-.741 0-1.318.254-1.731.762-.402.498-.603 1.181-.603 2.049s.206 1.557.619 2.065c.423.498.995.746 1.715.746zm6.325 4.098v-1.175h.969c.296 0 .513-.048.651-.143.148-.085.259-.228.333-.429l.302-.794h-.46l-3.082-8.259h1.462l2.509 7.02 2.398-7.02h1.462l-3.415 9.482c-.159.455-.397.789-.715 1-.318.212-.757.318-1.318.318zm11.818-2.382c0-.794.122-1.509.366-2.144.254-.646.693-1.26 1.318-1.843.635-.582 1.514-1.17 2.636-1.763.519-.275.937-.529 1.255-.762s.551-.482.699-.747c.148-.264.222-.587.222-.968 0-.392-.085-.731-.254-1.017-.169-.296-.424-.529-.762-.699-.329-.169-.742-.254-1.239-.254-.794 0-1.424.207-1.89.62-.455.413-.741 1-.858 1.763l-1.429-.096c.127-1.101.55-1.98 1.27-2.636.72-.657 1.689-.985 2.907-.985.773 0 1.435.138 1.985.413.551.275.969.662 1.255 1.159.296.487.445 1.054.445 1.7 0 .572-.096 1.069-.286 1.493-.191.413-.514.799-.969 1.159-.445.36-1.059.747-1.843 1.16-1.016.54-1.789 1.085-2.318 1.635-.519.551-.794 1.043-.826 1.478h6.242v1.334zm13.983.254c-.911 0-1.7-.238-2.367-.715-.667-.476-1.186-1.154-1.556-2.033-.36-.879-.54-1.922-.54-3.129s.18-2.25.54-3.129c.37-.889.889-1.572 1.556-2.048.667-.487 1.456-.731 2.367-.731.921 0 1.715.244 2.382.731.667.476 1.181 1.154 1.541 2.033.37.878.556 1.927.556 3.144 0 1.207-.186 2.25-.556 3.129-.36.879-.874 1.557-1.541 2.033-.667.477-1.461.715-2.382.715zm0-1.334c.974 0 1.726-.392 2.255-1.176.529-.794.794-1.916.794-3.367 0-.974-.122-1.8-.365-2.477-.233-.689-.577-1.207-1.033-1.557-.444-.36-.995-.54-1.651-.54-.646 0-1.197.18-1.652.54-.445.35-.789.868-1.032 1.557-.233.677-.35 1.503-.35 2.477 0 1.451.265 2.573.794 3.367.53.784 1.276 1.176 2.24 1.176zm6.072 1.08c0-.794.122-1.509.365-2.144.254-.646.694-1.26 1.318-1.843.636-.582 1.515-1.17 2.637-1.763.519-.275.937-.529 1.255-.762.317-.233.55-.482.698-.747.149-.264.223-.587.223-.968 0-.392-.085-.731-.254-1.017-.17-.296-.424-.529-.763-.699-.328-.169-.741-.254-1.239-.254-.794 0-1.424.207-1.89.62-.455.413-.741 1-.857 1.763l-1.43-.096c.127-1.101.551-1.98 1.271-2.636.72-.657 1.689-.985 2.906-.985.773 0 1.435.138 1.986.413.55.275.969.662 1.254 1.159.297.487.445 1.054.445 1.7 0 .572-.095 1.069-.286 1.493-.19.413-.513.799-.969 1.159-.444.36-1.058.747-1.842 1.16-1.016.54-1.789 1.085-2.319 1.635-.519.551-.794 1.043-.826 1.478h6.242v1.334zm14.687 0v-2.446h-5.733v-1.239l5.638-7.592h1.461v7.497h1.398v1.334h-1.398v2.446zm-4.082-3.78h4.082v-5.4z" fill="#04140a"/><path d="m144.098 480.392-4.537 4.538v-9.076z" fill="#2a3241"/><g clip-path="url(#h)"><path d="m152.418 477.912c0-3.643 2.953-6.596 6.596-6.596h4.959c3.643 0 6.596 2.953 6.596 6.596v4.959c0 3.643-2.953 6.596-6.596 6.596h-4.959c-3.643 0-6.596-2.953-6.596-6.596z" fill="#f7f7f7"/><rect fill="#1c91ff" height="15.8824" rx="3.40338" width="15.8824" x="153.553" y="472.451"/><path d="m159.982 481.905 6.429-6.429 1.513 1.513-7.941 7.94-4.917-4.915 1.513-1.513z" fill="#fff"/></g><path d="m159.015 471.883h4.958c3.329 0 6.029 2.7 6.029 6.03v4.958c0 3.329-2.7 6.029-6.029 6.029h-4.958c-3.33 0-6.03-2.7-6.03-6.029v-4.958c0-3.33 2.7-6.03 6.03-6.03z" stroke="#d3d5d9" stroke-width="1.13446"/><path d="m178.134 475.098v10.588h12.101v-8.319h-7.12l-1.486-1.846c-.215-.268-.54-.423-.884-.423zm5.607.756h8.006v11.345h-15.126v-13.614h3.665c1.03 0 2.005.467 2.651 1.27z" fill="#545d6c"/><path d="m201.528 485.892v-11.277h7.083v1.334h-6.4l.682-.699v5.178l-.682-.699h6.114v1.303h-6.114l.682-.699v5.559zm11.46.19c-.837 0-1.509-.28-2.017-.841-.498-.572-.747-1.356-.747-2.351v-5.416h1.334v5.051c0 .815.143 1.418.429 1.81.297.381.747.572 1.35.572.667 0 1.191-.212 1.573-.635.381-.434.571-1.027.571-1.779v-5.019h1.335v8.418h-1.271v-2.081l.206.111c-.169.689-.492 1.223-.968 1.604-.477.371-1.075.556-1.795.556zm9.003-.19c-.762 0-1.329-.175-1.699-.524-.36-.35-.54-.895-.54-1.636v-8.227h1.334v8.195c0 .381.085.646.254.794s.429.222.778.222h1.207v1.176zm-3.478-7.243v-1.175h4.812v1.175zm9.287 7.433c-.836 0-1.509-.28-2.017-.841-.498-.572-.746-1.356-.746-2.351v-5.416h1.334v5.051c0 .815.143 1.418.429 1.81.296.381.746.572 1.35.572.667 0 1.191-.212 1.572-.635.381-.434.572-1.027.572-1.779v-5.019h1.334v8.418h-1.271v-2.081l.207.111c-.17.689-.493 1.223-.969 1.604-.477.371-1.075.556-1.795.556zm6.372-.19v-8.418h1.175l.064 2.128-.127-.047c.106-.72.333-1.244.683-1.573.36-.339.836-.508 1.429-.508h.826v1.271h-.81c-.423 0-.778.079-1.064.238-.275.148-.487.376-.635.683-.138.296-.207.677-.207 1.143v5.083zm8.67.19c-.794 0-1.483-.18-2.065-.54-.572-.36-1.016-.868-1.334-1.524-.307-.667-.461-1.446-.461-2.335 0-.89.154-1.662.461-2.319.318-.656.757-1.165 1.318-1.525.572-.37 1.244-.556 2.017-.556.731 0 1.377.175 1.938.525.561.338.995.836 1.302 1.493.318.656.477 1.455.477 2.398v.397h-6.115c.053.9.291 1.577.715 2.033.434.455 1.016.683 1.747.683.55 0 1-.127 1.35-.381.36-.265.609-.609.746-1.033l1.43.111c-.223.752-.646 1.372-1.271 1.859-.614.476-1.366.714-2.255.714zm-2.462-5.161h4.654c-.064-.816-.302-1.414-.715-1.795-.403-.381-.916-.572-1.541-.572-.646 0-1.18.201-1.604.604-.413.391-.678.979-.794 1.763zm16.526 5.225c-1.058 0-1.964-.254-2.716-.763-.751-.508-1.328-1.201-1.731-2.08-.391-.89-.587-1.901-.587-3.034s.201-2.144.603-3.033c.403-.89.98-1.588 1.731-2.097.763-.519 1.673-.778 2.732-.778.9 0 1.657.164 2.271.492.625.329 1.117.773 1.477 1.335.371.561.625 1.191.763 1.89l-1.43.095c-.137-.731-.444-1.324-.921-1.779-.476-.466-1.196-.699-2.16-.699-.858 0-1.556.212-2.096.636-.53.423-.922.984-1.176 1.683-.243.688-.365 1.44-.365 2.255 0 .858.127 1.631.381 2.319.254.678.651 1.218 1.191 1.62.54.403 1.229.604 2.065.604.667 0 1.244-.149 1.731-.445.487-.307.863-.715 1.128-1.223s.402-1.059.413-1.652h-3.24v-1.302h4.511v5.702h-1.017l-.095-2.605.19.222c-.127.509-.37.964-.73 1.366-.36.392-.794.704-1.303.937-.497.223-1.037.334-1.62.334zm6.642-.254v-8.418h1.176l.063 2.128-.127-.047c.106-.72.334-1.244.683-1.573.36-.339.837-.508 1.429-.508h.826v1.271h-.81c-.423 0-.778.079-1.064.238-.275.148-.487.376-.635.683-.138.296-.207.677-.207 1.143v5.083zm8.67.19c-.773 0-1.451-.18-2.033-.54s-1.032-.868-1.35-1.524c-.318-.667-.476-1.446-.476-2.335 0-.9.158-1.678.476-2.335.318-.656.768-1.165 1.35-1.525s1.26-.54 2.033-.54 1.445.18 2.017.54c.582.36 1.032.869 1.35 1.525.318.657.477 1.435.477 2.335 0 .889-.159 1.668-.477 2.335-.318.656-.768 1.164-1.35 1.524-.572.36-1.244.54-2.017.54zm0-1.27c.773 0 1.371-.276 1.795-.826.434-.561.651-1.329.651-2.303s-.217-1.737-.651-2.287c-.424-.561-1.022-.842-1.795-.842s-1.376.281-1.811.842c-.434.55-.651 1.313-.651 2.287s.217 1.742.651 2.303c.435.55 1.038.826 1.811.826zm7.097 1.08-2.605-8.418h1.462l1.969 7.02 2.001-7.02h1.43l2.001 7.02 1.985-7.02h1.461l-2.604 8.418h-1.684l-1.874-6.401-1.874 6.401zm14.023 0c-.762 0-1.329-.175-1.699-.524-.36-.35-.54-.895-.54-1.636v-8.227h1.334v8.195c0 .381.084.646.254.794.169.148.429.222.778.222h1.207v1.176zm-3.478-7.243v-1.175h4.812v1.175zm6.523 7.243v-11.277h1.335v4.717l-.159-.031c.106-.466.286-.848.54-1.144s.566-.514.937-.651c.37-.148.778-.223 1.223-.223.603 0 1.111.138 1.524.413.424.265.742.641.953 1.128.223.477.334 1.027.334 1.652v5.416h-1.334v-5.035c0-.815-.148-1.419-.445-1.811-.286-.391-.725-.587-1.318-.587-.678 0-1.223.206-1.636.619s-.619 1.011-.619 1.795v5.019z" fill="#04140a"/><path d="m125.946 530.619-4.538 4.538v-9.076z" fill="#2a3241"/><g clip-path="url(#i)"><path d="m134.266 528.139c0-3.643 2.953-6.596 6.596-6.596h4.959c3.643 0 6.596 2.953 6.596 6.596v4.959c0 3.643-2.953 6.596-6.596 6.596h-4.959c-3.643 0-6.596-2.953-6.596-6.596z" fill="#f7f7f7"/><rect fill="#1c91ff" height="15.8824" rx="3.40338" width="15.8824" x="135.4" y="522.677"/><path d="m141.83 532.132 6.429-6.429 1.512 1.513-7.94 7.94-4.917-4.915 1.513-1.513z" fill="#fff"/></g><path d="m140.862 522.11h4.958c3.33 0 6.03 2.7 6.03 6.03v4.958c0 3.329-2.7 6.029-6.03 6.029h-4.958c-3.329 0-6.029-2.7-6.029-6.029v-4.958c0-3.33 2.7-6.03 6.029-6.03z" stroke="#d3d5d9" stroke-width="1.13446"/><path d="m159.981 525.325v10.588h12.101v-8.319h-7.12l-1.485-1.846c-.215-.268-.54-.423-.884-.423zm5.608.756h8.006v11.345h-15.126v-13.614h3.664c1.031 0 2.006.467 2.652 1.27z" fill="#545d6c"/><path d="m187.695 536.373c-1.006 0-1.89-.233-2.652-.699-.762-.477-1.355-1.154-1.779-2.033-.423-.879-.635-1.927-.635-3.145 0-1.217.212-2.266.635-3.144.424-.89 1.017-1.573 1.779-2.049.762-.477 1.646-.715 2.652-.715 1.366 0 2.425.344 3.177 1.032.752.689 1.244 1.626 1.477 2.812l-1.445.095c-.159-.805-.498-1.44-1.017-1.906s-1.249-.699-2.192-.699c-.72 0-1.355.185-1.906.556-.54.36-.963.884-1.27 1.572-.307.678-.461 1.493-.461 2.446s.154 1.769.461 2.446c.307.678.73 1.197 1.27 1.557.551.36 1.186.54 1.906.54.985 0 1.747-.254 2.287-.763.54-.519.879-1.217 1.017-2.096l1.445.095c-.138.815-.408 1.53-.81 2.144s-.937 1.096-1.604 1.446c-.656.338-1.435.508-2.335.508zm8.866-.064c-.868 0-1.562-.201-2.08-.603-.509-.403-.763-.964-.763-1.684s.212-1.286.635-1.699c.424-.413 1.096-.704 2.018-.874l2.985-.556c0-.709-.169-1.238-.508-1.588-.328-.349-.826-.524-1.493-.524-.582 0-1.043.132-1.382.397-.338.254-.571.625-.698 1.112l-1.414-.111c.159-.794.54-1.435 1.144-1.922.614-.498 1.397-.747 2.35-.747 1.08 0 1.906.307 2.478.922.572.603.858 1.44.858 2.509v3.478c0 .191.031.328.095.413.074.074.19.111.349.111h.334v1.176c-.043.01-.111.016-.207.016-.095.01-.196.015-.301.015-.382 0-.694-.058-.938-.174-.232-.127-.402-.318-.508-.572-.106-.265-.159-.609-.159-1.032l.159.031c-.074.36-.254.689-.54.985-.286.286-.64.514-1.064.683-.423.159-.873.238-1.35.238zm.127-1.175c.561 0 1.038-.106 1.43-.318.402-.222.709-.519.921-.889.212-.381.317-.805.317-1.271v-.603l-2.731.508c-.572.106-.969.27-1.192.492-.211.212-.317.493-.317.842 0 .392.137.699.413.921.286.212.672.318 1.159.318zm6.288.985v-8.418h1.223l.047 2.128-.19-.063c.095-.466.259-.863.492-1.191.244-.339.54-.599.889-.779.35-.19.736-.286 1.16-.286.73 0 1.323.202 1.779.604.466.402.757.963.873 1.683l-.254-.015c.085-.487.238-.895.461-1.223.233-.339.529-.599.889-.779s.773-.27 1.239-.27c.603 0 1.112.127 1.525.382.413.243.725.603.937 1.08.211.476.317 1.053.317 1.731v5.416h-1.334v-5.13c0-.763-.148-1.334-.444-1.716-.297-.391-.736-.587-1.319-.587-.391 0-.736.095-1.032.286-.286.19-.508.465-.667.825-.159.35-.238.779-.238 1.287v5.035h-1.335v-5.035c0-.752-.132-1.339-.397-1.763-.264-.424-.709-.635-1.334-.635-.391 0-.736.095-1.032.286-.286.19-.514.465-.683.825-.159.36-.238.789-.238 1.287v5.035zm13.618 2.382v-10.8h1.238l.032 1.811-.19-.096c.211-.624.561-1.096 1.048-1.413.497-.329 1.069-.493 1.715-.493.837 0 1.52.207 2.049.62.54.413.937.953 1.191 1.62.265.667.397 1.387.397 2.16s-.132 1.493-.397 2.16c-.254.667-.651 1.207-1.191 1.62-.529.413-1.212.619-2.049.619-.434 0-.842-.074-1.223-.222-.37-.148-.688-.355-.953-.62-.254-.264-.429-.577-.524-.937l.191-.222v4.193zm3.716-3.462c.731 0 1.308-.276 1.731-.826.424-.551.636-1.318.636-2.303s-.212-1.753-.636-2.303c-.423-.551-1-.826-1.731-.826-.487 0-.911.116-1.271.349-.349.233-.624.583-.825 1.049-.191.466-.286 1.043-.286 1.731s.095 1.265.286 1.731c.19.466.465.815.825 1.048s.784.35 1.271.35zm8.063 1.27c-.869 0-1.562-.201-2.081-.603-.508-.403-.762-.964-.762-1.684s.211-1.286.635-1.699c.423-.413 1.096-.704 2.017-.874l2.986-.556c0-.709-.17-1.238-.508-1.588-.329-.349-.826-.524-1.493-.524-.583 0-1.043.132-1.382.397-.339.254-.572.625-.699 1.112l-1.414-.111c.159-.794.54-1.435 1.144-1.922.614-.498 1.398-.747 2.351-.747 1.08 0 1.906.307 2.477.922.572.603.858 1.44.858 2.509v3.478c0 .191.032.328.095.413.074.074.191.111.35.111h.333v1.176c-.042.01-.111.016-.206.016-.096.01-.196.015-.302.015-.381 0-.694-.058-.937-.174-.233-.127-.402-.318-.508-.572-.106-.265-.159-.609-.159-1.032l.159.031c-.074.36-.254.689-.54.985-.286.286-.641.514-1.064.683-.424.159-.874.238-1.35.238zm.127-1.175c.561 0 1.037-.106 1.429-.318.402-.222.709-.519.921-.889.212-.381.318-.805.318-1.271v-.603l-2.732.508c-.572.106-.969.27-1.191.492-.212.212-.318.493-.318.842 0 .392.138.699.413.921.286.212.673.318 1.16.318zm6.225.985v-8.418h1.334v8.418zm-.032-9.736v-1.557h1.398v1.557zm6.947 12.309c-.604 0-1.149-.101-1.636-.302s-.895-.487-1.223-.858c-.328-.37-.551-.799-.667-1.286l1.398-.096c.127.392.349.699.667.922.328.233.815.349 1.461.349.762 0 1.345-.154 1.747-.461.413-.307.619-.767.619-1.381v-1.366c-.201.444-.524.799-.969 1.064-.444.265-.942.397-1.493.397-.709 0-1.344-.175-1.905-.524-.551-.35-.985-.831-1.303-1.445-.307-.615-.46-1.319-.46-2.113 0-.805.153-1.509.46-2.112.307-.614.731-1.096 1.271-1.446.55-.349 1.175-.524 1.874-.524.593 0 1.122.138 1.588.413.477.276.81.646 1.001 1.112v-1.334h1.27v7.846c0 .656-.148 1.218-.444 1.683-.297.477-.72.837-1.271 1.08-.55.255-1.212.382-1.985.382zm-.032-4.289c.72 0 1.297-.248 1.731-.746.434-.508.657-1.197.667-2.065.011-.582-.084-1.08-.286-1.493-.19-.423-.471-.746-.841-.969-.36-.233-.784-.349-1.271-.349-.741 0-1.318.254-1.731.762-.403.498-.604 1.181-.604 2.049s.207 1.557.62 2.065c.423.498.995.746 1.715.746zm6.27 1.716v-8.418h1.223l.047 2.144-.159-.143c.106-.497.292-.905.556-1.223.265-.328.583-.572.953-.73.381-.159.789-.239 1.223-.239.646 0 1.175.143 1.588.429.424.286.736.673.937 1.16.212.476.318 1.011.318 1.604v5.416h-1.334v-5.035c0-.519-.064-.953-.191-1.302-.116-.36-.307-.63-.571-.81-.265-.191-.609-.286-1.033-.286-.646 0-1.18.206-1.604.619-.413.402-.619.995-.619 1.779v5.035zm12.107.19c-.751 0-1.392-.122-1.921-.365-.519-.244-.927-.577-1.223-1.001-.286-.434-.45-.926-.493-1.477l1.398-.095c.085.508.302.916.651 1.223.35.296.879.445 1.588.445.572 0 1.027-.09 1.366-.27.35-.191.524-.493.524-.906 0-.222-.053-.407-.158-.556-.106-.148-.313-.275-.62-.381-.307-.116-.762-.227-1.366-.333-.804-.148-1.44-.328-1.906-.54-.455-.223-.783-.493-.984-.81-.191-.328-.286-.715-.286-1.16 0-.751.275-1.366.826-1.842.55-.487 1.334-.731 2.35-.731.688 0 1.266.127 1.731.382.477.243.847.571 1.112.984.275.403.455.847.54 1.334l-1.397.096c-.064-.297-.18-.556-.35-.779-.169-.232-.392-.412-.667-.54-.275-.137-.603-.206-.985-.206-.603 0-1.048.116-1.334.349s-.429.53-.429.89c0 .275.064.503.191.683.138.169.355.312.651.429.297.105.694.201 1.191.285.858.149 1.525.329 2.002.54.476.212.81.472 1 .779.191.307.286.683.286 1.127 0 .519-.148.964-.445 1.334-.286.36-.677.636-1.175.826-.487.191-1.043.286-1.668.286z" fill="#04140a"/></g></g></svg>