<svg fill="none" height="535" viewBox="0 0 535 535" width="535" xmlns="http://www.w3.org/2000/svg"><rect fill="#ebf6ff" height="84.1203" rx="12.1345" width="363.897" x="85.5495" y="98.5495"/><rect height="84.1203" rx="12.1345" stroke="#3b82f6" stroke-width="1.09906" width="363.897" x="85.5495" y="98.5495"/><path d="m109.431 161.777h2.478v1.788h-7.292v-1.788h2.681v-7.511l-2.524 1.365-.188-1.898 3.277-1.787h1.568zm4.961 1.615c-.251-.261-.376-.585-.376-.972s.125-.705.376-.956c.262-.262.586-.392.972-.392.387 0 .706.13.957.392.251.251.376.569.376.956s-.125.711-.376.972c-.251.251-.57.377-.957.377-.386 0-.71-.126-.972-.377zm9.731-11.446h2.258l4.814 7.652-.015-.91v-6.742h1.991v11.619h-1.819l-5.237-8.389v.8 7.589h-1.992zm18.175 9.502.22 1.772c-.324.167-.737.298-1.239.392-.491.105-1.014.157-1.568.157-.92 0-1.714-.183-2.384-.549-.669-.366-1.186-.889-1.552-1.568-.355-.68-.533-1.485-.533-2.415 0-.857.157-1.605.47-2.242.314-.648.764-1.15 1.349-1.506.585-.355 1.281-.533 2.085-.533 1.077 0 1.919.33 2.525.988.606.648.909 1.584.909 2.807 0 .105-.005.261-.015.47 0 .199-.011.361-.032.487h-5.143c.105.825.382 1.442.831 1.85.46.408 1.051.611 1.772.611.408 0 .826-.062 1.255-.188.439-.125.789-.303 1.05-.533zm-3.152-5.018c-.48 0-.872.173-1.176.518-.303.345-.496.831-.58 1.458h3.262c0-.638-.131-1.124-.392-1.458-.262-.345-.633-.518-1.114-.518zm10.145 1.49-1.756 5.645h-1.474c-.481-1.401-.946-2.802-1.396-4.202-.439-1.412-.873-2.813-1.301-4.203h2.038c.241.889.486 1.782.737 2.682.251.888.507 1.777.768 2.665l1.584-5.127h1.647l1.583 5.174c.272-.899.534-1.798.784-2.697.262-.909.513-1.808.753-2.697h1.945c-.419 1.39-.852 2.791-1.302 4.203-.449 1.4-.915 2.801-1.396 4.202h-1.489zm13.568-4.234h-3.372v-1.74h8.938v1.74h-3.355v9.879h-2.211zm6.89 1.474h2.117v8.405h-2.117zm.157-1.49c-.24-.24-.36-.538-.36-.893 0-.356.12-.648.36-.878.251-.241.554-.361.91-.361.366 0 .669.12.909.361.241.23.361.522.361.878 0 .355-.12.653-.361.893-.24.23-.543.345-.909.345-.356 0-.659-.115-.91-.345zm4.824 8.923c-.732-.795-1.098-1.861-1.098-3.199 0-.889.172-1.662.517-2.321.345-.669.826-1.186 1.443-1.552.627-.377 1.359-.565 2.195-.565.46 0 .905.058 1.333.173.439.115.805.266 1.098.455l-.518 1.63c-.491-.397-1.045-.596-1.662-.596-.679 0-1.223.241-1.631.722-.397.47-.595 1.139-.595 2.007 0 .857.198 1.531.595 2.023.408.491.978.737 1.71.737.334 0 .674-.058 1.019-.173.345-.125.617-.293.815-.502l.204 1.835c-.272.146-.611.267-1.019.361-.397.094-.836.141-1.317.141-1.328 0-2.358-.392-3.089-1.176zm7.04-10.945h2.117v7.087c.544-.596 1.072-1.186 1.584-1.772.512-.595 1.019-1.197 1.521-1.803h2.477c-.575.648-1.16 1.296-1.756 1.945-.585.648-1.186 1.296-1.803 1.944.669.753 1.327 1.505 1.976 2.258.648.753 1.285 1.505 1.913 2.258h-2.635c-.522-.659-1.056-1.322-1.599-1.991-.544-.67-1.103-1.344-1.678-2.023v4.014h-2.117zm15.364 9.8.22 1.772c-.324.167-.737.298-1.239.392-.491.105-1.014.157-1.568.157-.92 0-1.714-.183-2.383-.549s-1.187-.889-1.553-1.568c-.355-.68-.533-1.485-.533-2.415 0-.857.157-1.605.471-2.242.313-.648.763-1.15 1.348-1.506.586-.355 1.281-.533 2.086-.533 1.076 0 1.918.33 2.524.988.607.648.91 1.584.91 2.807 0 .105-.005.261-.016.47 0 .199-.01.361-.031.487h-5.144c.105.825.382 1.442.832 1.85.459.408 1.05.611 1.771.611.408 0 .826-.062 1.255-.188.439-.125.789-.303 1.05-.533zm-3.151-5.018c-.481 0-.873.173-1.176.518-.304.345-.497.831-.581 1.458h3.262c0-.638-.131-1.124-.392-1.458-.261-.345-.632-.518-1.113-.518zm5.936.267h-1.412v-1.537h1.412v-1.599l2.116-.972v2.571h2.18v1.537h-2.18v3.967c0 .491.089.857.267 1.098.178.23.47.345.878.345.199 0 .403-.032.612-.094.219-.074.413-.173.58-.298l-.157 1.756c-.23.104-.486.178-.768.219-.283.053-.56.079-.831.079-1.798 0-2.697-.92-2.697-2.76z" fill="#2a3241"/><rect fill="#fff" height="24.3787" rx="5.94563" width="97.965" x="99.6659" y="111.073"/><rect height="24.3787" rx="5.94563" stroke="#d3d5d9" stroke-width=".792751" width="97.965" x="99.6659" y="111.073"/><g fill="#03363d"><path d="m117.53 115.863v10.951l9.159-10.951z"/><path d="m111.119 120.426c-2.53 0-4.58-2.043-4.58-4.563h9.159c0 2.52-2.05 4.563-4.579 4.563z"/><path d="m122.11 125.901c2.529 0 4.579 2.043 4.579 4.563h-9.159c0-2.52 2.05-4.563 4.58-4.563z"/><path d="m115.698 119.513v10.951h-9.159z"/></g><path d="m139.748 119.796h-4.82l.07-1.564h7.005v1.452l-4.975 7.428h5.074v1.564h-7.329v-1.452zm9.861 6.977.198 1.593c-.292.151-.663.268-1.114.353-.442.094-.911.141-1.41.141-.826 0-1.541-.165-2.142-.494s-1.067-.799-1.395-1.409c-.32-.611-.48-1.335-.48-2.171 0-.771.141-1.442.423-2.016.282-.582.686-1.033 1.212-1.353.527-.319 1.152-.479 1.875-.479.968 0 1.724.296 2.269.888.545.583.818 1.424.818 2.523 0 .094-.005.235-.014.423 0 .178-.01.324-.028.437h-4.624c.094.742.343 1.297.747 1.663.414.367.945.55 1.593.55.367 0 .743-.057 1.128-.169.394-.113.709-.273.944-.48zm-2.833-4.51c-.432 0-.785.155-1.057.465-.273.31-.446.747-.522 1.311h2.932c0-.573-.117-1.01-.352-1.311-.235-.31-.569-.465-1.001-.465zm4.659-1.142h1.861v.987c.235-.385.545-.677.93-.874.395-.197.822-.296 1.283-.296.742 0 1.343.249 1.804.747.46.489.69 1.165.69 2.03v4.961h-1.902v-4.806c0-.451-.108-.804-.325-1.057-.216-.254-.516-.381-.902-.381-.338 0-.643.094-.916.282-.272.179-.479.423-.62.733v5.229h-1.903zm15.136 7.555h-1.861v-1c-.216.366-.512.657-.888.873-.376.207-.808.311-1.297.311-.61 0-1.146-.16-1.606-.48-.451-.319-.804-.775-1.057-1.367-.245-.592-.367-1.297-.367-2.114 0-.818.122-1.522.367-2.114.253-.592.606-1.048 1.057-1.368.46-.319.996-.479 1.606-.479.47 0 .888.099 1.255.296.376.197.672.465.888.803v-4.073h1.903zm-1.903-2.325v-2.904c-.141-.32-.348-.569-.62-.747-.273-.188-.588-.282-.945-.282-.516 0-.92.221-1.212.663-.291.432-.437 1.038-.437 1.818s.146 1.39.437 1.832c.292.432.7.649 1.226.649.348 0 .658-.09.931-.268.272-.188.479-.442.62-.761zm9.842.422.197 1.593c-.291.151-.663.268-1.114.353-.441.094-.911.141-1.409.141-.827 0-1.541-.165-2.143-.494-.601-.329-1.066-.799-1.395-1.409-.319-.611-.479-1.335-.479-2.171 0-.771.141-1.442.423-2.016.282-.582.686-1.033 1.212-1.353.526-.319 1.151-.479 1.875-.479.967 0 1.724.296 2.269.888.545.583.817 1.424.817 2.523 0 .094-.004.235-.014.423 0 .178-.009.324-.028.437h-4.623c.094.742.343 1.297.747 1.663.413.367.944.55 1.593.55.366 0 .742-.057 1.127-.169.395-.113.71-.273.945-.48zm-2.833-4.51c-.433 0-.785.155-1.058.465-.272.31-.446.747-.521 1.311h2.932c0-.573-.118-1.01-.353-1.311-.235-.31-.568-.465-1-.465zm4.518 4.468c.319.263.672.461 1.057.592.385.122.766.183 1.142.183.441 0 .784-.079 1.028-.239.254-.169.381-.4.381-.691 0-.216-.103-.395-.31-.536-.207-.14-.62-.319-1.24-.535-.799-.273-1.354-.587-1.664-.945-.31-.366-.465-.803-.465-1.31 0-.48.122-.893.367-1.241.253-.347.601-.611 1.043-.789.441-.188.944-.282 1.508-.282.423 0 .836.052 1.24.155.414.103.757.24 1.029.409l-.437 1.381c-.498-.404-1.062-.606-1.691-.606-.376 0-.677.071-.902.212-.226.131-.339.328-.339.592 0 .216.113.399.339.549.235.141.639.31 1.212.508.564.197 1.001.418 1.311.662.31.235.526.489.648.761.122.273.183.564.183.874 0 .771-.296 1.367-.888 1.79-.582.423-1.348.635-2.297.635-.461 0-.912-.052-1.353-.156-.432-.103-.799-.239-1.1-.408zm6.968-8.767h1.903v6.371c.488-.536.963-1.067 1.423-1.593.461-.535.917-1.076 1.368-1.621h2.227c-.517.583-1.043 1.165-1.579 1.748-.526.583-1.067 1.165-1.621 1.748.601.676 1.193 1.353 1.776 2.03.583.676 1.156 1.353 1.72 2.029h-2.368c-.47-.592-.949-1.188-1.438-1.79-.489-.601-.991-1.207-1.508-1.818v3.608h-1.903z" fill="#000"/><rect fill="#ebf6ff" height="85.7282" rx="12.1345" width="363.897" x="85.5495" y="350.991"/><rect height="85.7282" rx="12.1345" stroke="#3b82f6" stroke-width="1.09906" width="363.897" x="85.5495" y="350.991"/><path d="m108.772 406.096h-4.657l.141-1.709h7.057l-.141 1.474-2.823 3.089c1.066.084 1.877.434 2.431 1.051.564.606.846 1.364.846 2.274 0 .763-.193 1.442-.58 2.038-.376.585-.909 1.051-1.599 1.396-.69.334-1.511.501-2.462.501-.575 0-1.14-.068-1.694-.203-.543-.126-1.05-.319-1.521-.581l.173-1.96c.428.324.894.57 1.395.737.502.168.993.251 1.474.251.816 0 1.453-.198 1.913-.596.46-.407.69-.946.69-1.615 0-.648-.203-1.134-.611-1.458-.397-.324-.951-.486-1.662-.486-.45 0-.847.057-1.192.172v-1.16zm5.62 9.738c-.251-.261-.376-.585-.376-.972s.125-.706.376-.957c.262-.261.586-.392.972-.392.387 0 .706.131.957.392.251.251.376.57.376.957s-.125.711-.376.972c-.251.251-.57.376-.957.376-.386 0-.71-.125-.972-.376zm16.223-11.447h2.148v7.574c0 1.328-.386 2.368-1.16 3.12-.774.753-1.845 1.129-3.215 1.129-1.379 0-2.456-.376-3.23-1.129-.773-.752-1.16-1.792-1.16-3.12v-7.574h2.195v7.323c0 1.84.727 2.76 2.18 2.76 1.495 0 2.242-.836 2.242-2.509zm4.389 3.215h2.07v1.113c.24-.408.57-.726.988-.956.418-.241.899-.361 1.442-.361.69 0 1.286.178 1.788.533.502.356.888.863 1.16 1.521.282.659.424 1.443.424 2.352 0 .91-.142 1.694-.424 2.352-.272.659-.658 1.166-1.16 1.521-.502.356-1.098.533-1.788.533-.522 0-.993-.104-1.411-.313-.408-.22-.732-.523-.972-.91v4.422h-2.117zm2.117 2.587v3.246c.157.345.387.622.69.831.303.199.653.298 1.05.298.575 0 1.025-.24 1.349-.721.324-.492.486-1.171.486-2.039 0-.867-.162-1.542-.486-2.023-.324-.491-.779-.737-1.364-.737-.387 0-.732.105-1.035.314-.303.199-.533.476-.69.831zm15.104 5.818h-2.07v-1.114c-.24.408-.57.732-.988.972-.418.23-.899.345-1.442.345-.68 0-1.276-.177-1.788-.533-.502-.355-.894-.862-1.176-1.521-.272-.658-.408-1.442-.408-2.352 0-.909.136-1.693.408-2.352.282-.658.674-1.165 1.176-1.521.512-.355 1.108-.533 1.788-.533.522 0 .987.11 1.395.329.418.22.748.518.988.894v-4.532h2.117zm-2.117-2.588v-3.23c-.157-.355-.387-.632-.69-.831-.303-.209-.653-.314-1.05-.314-.575 0-1.025.246-1.349.737-.324.481-.486 1.156-.486 2.023 0 .868.162 1.547.486 2.039.324.481.779.721 1.364.721.387 0 .732-.099 1.035-.298.303-.209.533-.491.69-.847zm10.902 1.114c0 .24.015.507.047.799.031.283.068.507.11.675h-1.976c-.042-.115-.079-.267-.11-.455-.031-.199-.057-.392-.078-.58-.272.407-.622.716-1.051.925-.418.209-.889.313-1.411.313-.753 0-1.37-.224-1.851-.674-.47-.46-.705-1.066-.705-1.819 0-.836.345-1.51 1.035-2.023.7-.522 1.73-.852 3.089-.987l.784-.079c-.021-.512-.183-.909-.486-1.192-.303-.292-.753-.439-1.349-.439-.387 0-.794.068-1.223.204-.418.136-.81.356-1.176.659l-.157-1.756c.398-.22.852-.392 1.365-.518.522-.125 1.04-.188 1.552-.188 1.171 0 2.059.303 2.666.909.616.596.925 1.448.925 2.556zm-4.924-.988c0 .355.105.637.314.846.219.21.507.314.862.314.314 0 .617-.084.91-.251.303-.167.543-.402.721-.705v-1.866l-.549.062c-.784.094-1.359.277-1.725.549-.355.272-.533.622-.533 1.051zm7.495-4.407h-1.412v-1.536h1.412v-1.6l2.116-.972v2.572h2.18v1.536h-2.18v3.968c0 .491.089.857.267 1.097.178.23.47.345.878.345.199 0 .403-.031.612-.094.219-.073.413-.172.58-.298l-.157 1.757c-.23.104-.486.177-.768.219-.283.052-.56.078-.831.078-1.798 0-2.697-.919-2.697-2.759zm12.605 4.752.22 1.772c-.324.167-.737.298-1.239.392-.491.104-1.014.156-1.568.156-.92 0-1.715-.183-2.384-.548-.669-.366-1.186-.889-1.552-1.568-.355-.68-.533-1.485-.533-2.415 0-.857.157-1.605.47-2.243.314-.648.763-1.149 1.349-1.505.585-.355 1.28-.533 2.085-.533 1.077 0 1.919.329 2.525.988.606.648.909 1.584.909 2.807 0 .104-.005.261-.015.47 0 .199-.011.361-.032.486h-5.143c.105.826.382 1.443.831 1.85.46.408 1.051.612 1.772.612.408 0 .826-.063 1.255-.188.439-.126.789-.303 1.05-.533zm-3.152-5.018c-.481 0-.873.172-1.176.517s-.496.831-.58 1.459h3.262c0-.638-.131-1.124-.392-1.459-.262-.345-.633-.517-1.114-.517zm9.611.266h-1.411v-1.536h1.411v-1.6l2.117-.972v2.572h2.18v1.536h-2.18v3.968c0 .491.089.857.267 1.097.178.23.47.345.878.345.199 0 .402-.031.611-.094.22-.073.413-.172.581-.298l-.157 1.757c-.23.104-.486.177-.769.219-.282.052-.559.078-.831.078-1.798 0-2.697-.919-2.697-2.759zm5.939-1.536h2.117v8.405h-2.117zm.157-1.49c-.24-.24-.36-.538-.36-.894 0-.355.12-.648.36-.878.251-.24.554-.36.91-.36.366 0 .669.12.909.36.241.23.361.523.361.878 0 .356-.12.654-.361.894-.24.23-.543.345-.909.345-.356 0-.659-.115-.91-.345zm4.824 8.922c-.732-.794-1.098-1.86-1.098-3.198 0-.889.173-1.663.517-2.321.345-.669.826-1.187 1.443-1.553.627-.376 1.359-.564 2.195-.564.46 0 .905.057 1.333.172.439.115.805.267 1.098.455l-.518 1.631c-.491-.397-1.045-.596-1.662-.596-.679 0-1.223.241-1.631.721-.397.471-.595 1.14-.595 2.008 0 .857.198 1.531.595 2.022.408.492.978.737 1.71.737.334 0 .674-.057 1.019-.172.345-.126.617-.293.815-.502l.204 1.835c-.272.146-.611.266-1.019.36-.397.094-.836.141-1.317.141-1.328 0-2.358-.392-3.089-1.176zm7.04-10.945h2.117v7.088c.544-.596 1.072-1.187 1.584-1.772.512-.596 1.019-1.197 1.521-1.803h2.477c-.574.648-1.16 1.296-1.756 1.944-.585.648-1.186 1.296-1.803 1.945.669.752 1.328 1.505 1.976 2.258.648.752 1.286 1.505 1.913 2.258h-2.635c-.522-.659-1.055-1.323-1.599-1.992s-1.103-1.343-1.678-2.023v4.015h-2.117zm15.365 9.801.219 1.772c-.324.167-.737.298-1.239.392-.491.104-1.014.156-1.568.156-.92 0-1.714-.183-2.383-.548-.669-.366-1.187-.889-1.553-1.568-.355-.68-.533-1.485-.533-2.415 0-.857.157-1.605.471-2.243.313-.648.763-1.149 1.348-1.505.586-.355 1.281-.533 2.086-.533 1.077 0 1.918.329 2.524.988.607.648.91 1.584.91 2.807 0 .104-.005.261-.016.47 0 .199-.01.361-.031.486h-5.143c.104.826.381 1.443.831 1.85.46.408 1.05.612 1.772.612.407 0 .825-.063 1.254-.188.439-.126.789-.303 1.051-.533zm-3.152-5.018c-.481 0-.873.172-1.176.517s-.497.831-.58 1.459h3.261c0-.638-.131-1.124-.392-1.459-.261-.345-.632-.517-1.113-.517zm5.936.266h-1.412v-1.536h1.412v-1.6l2.117-.972v2.572h2.179v1.536h-2.179v3.968c0 .491.088.857.266 1.097.178.23.47.345.878.345.199 0 .403-.031.612-.094.219-.073.413-.172.58-.298l-.157 1.757c-.23.104-.486.177-.768.219-.282.052-.56.078-.831.078-1.798 0-2.697-.919-2.697-2.759z" fill="#2a3241"/><rect fill="#fff" height="24.3787" rx="5.94563" width="97.965" x="99.6659" y="363.523"/><rect height="24.3787" rx="5.94563" stroke="#d3d5d9" stroke-width=".792751" width="97.965" x="99.6659" y="363.523"/><path d="m117.53 368.313v10.951l9.159-10.951z" fill="#03363d"/><path d="m111.119 372.876c-2.53 0-4.58-2.043-4.58-4.563h9.159c0 2.52-2.05 4.563-4.579 4.563z" fill="#03363d"/><path d="m122.11 378.351c2.529 0 4.579 2.043 4.579 4.563h-9.159c0-2.52 2.05-4.563 4.58-4.563z" fill="#03363d"/><path d="m115.698 371.963v10.951h-9.159z" fill="#03363d"/><path d="m139.748 372.246h-4.82l.07-1.564h7.005v1.452l-4.975 7.428h5.074v1.564h-7.329v-1.452zm9.861 6.977.198 1.593c-.292.15-.663.268-1.114.353-.442.093-.911.14-1.41.14-.826 0-1.541-.164-2.142-.493s-1.067-.799-1.395-1.409c-.32-.611-.48-1.335-.48-2.171 0-.771.141-1.442.423-2.016.282-.582.686-1.033 1.212-1.353.527-.319 1.152-.479 1.875-.479.968 0 1.724.296 2.269.888.545.583.818 1.424.818 2.523 0 .094-.005.235-.014.423 0 .178-.01.324-.028.437h-4.624c.094.742.343 1.297.747 1.663.414.367.945.55 1.593.55.367 0 .743-.057 1.128-.169.394-.113.709-.273.944-.48zm-2.833-4.51c-.432 0-.785.155-1.057.465-.273.31-.446.747-.522 1.311h2.932c0-.573-.117-1.01-.352-1.311-.235-.31-.569-.465-1.001-.465zm4.659-1.142h1.861v.987c.235-.385.545-.677.93-.874.395-.197.822-.296 1.283-.296.742 0 1.343.249 1.804.747.46.489.69 1.165.69 2.03v4.961h-1.902v-4.806c0-.451-.108-.804-.325-1.057-.216-.254-.516-.381-.902-.381-.338 0-.643.094-.916.282-.272.179-.479.423-.62.733v5.229h-1.903zm15.136 7.555h-1.861v-1.001c-.216.367-.512.658-.888.874-.376.207-.808.31-1.297.31-.61 0-1.146-.159-1.606-.479-.451-.319-.804-.775-1.057-1.367-.245-.592-.367-1.297-.367-2.114 0-.818.122-1.523.367-2.115.253-.592.606-1.047 1.057-1.367.46-.319.996-.479 1.606-.479.47 0 .888.099 1.255.296.376.197.672.465.888.803v-4.073h1.903zm-1.903-2.325v-2.904c-.141-.32-.348-.569-.62-.747-.273-.188-.588-.282-.945-.282-.516 0-.92.221-1.212.662-.291.433-.437 1.039-.437 1.819s.146 1.39.437 1.832c.292.432.7.648 1.226.648.348 0 .658-.089.931-.267.272-.188.479-.442.62-.761zm9.842.422.197 1.593c-.291.15-.663.268-1.114.353-.441.093-.911.14-1.409.14-.827 0-1.541-.164-2.143-.493-.601-.329-1.066-.799-1.395-1.409-.319-.611-.479-1.335-.479-2.171 0-.771.141-1.442.423-2.016.282-.582.686-1.033 1.212-1.353.526-.319 1.151-.479 1.875-.479.967 0 1.724.296 2.269.888.545.583.817 1.424.817 2.523 0 .094-.004.235-.014.423 0 .178-.009.324-.028.437h-4.623c.094.742.343 1.297.747 1.663.413.367.944.55 1.593.55.366 0 .742-.057 1.127-.169.395-.113.71-.273.945-.48zm-2.833-4.51c-.433 0-.785.155-1.058.465-.272.31-.446.747-.521 1.311h2.932c0-.573-.118-1.01-.353-1.311-.235-.31-.568-.465-1-.465zm4.518 4.468c.319.263.672.461 1.057.592.385.122.766.183 1.142.183.441 0 .784-.08 1.028-.239.254-.169.381-.4.381-.691 0-.216-.103-.395-.31-.536s-.62-.319-1.24-.535c-.799-.273-1.354-.587-1.664-.945-.31-.366-.465-.803-.465-1.31 0-.48.122-.893.367-1.241.253-.347.601-.611 1.043-.789.441-.188.944-.282 1.508-.282.423 0 .836.052 1.24.155.414.103.757.24 1.029.409l-.437 1.381c-.498-.404-1.062-.606-1.691-.606-.376 0-.677.071-.902.211-.226.132-.339.329-.339.592 0 .217.113.4.339.55.235.141.639.31 1.212.508.564.197 1.001.418 1.311.662.31.235.526.489.648.761.122.273.183.564.183.874 0 .771-.296 1.367-.888 1.79-.582.423-1.348.634-2.297.634-.461 0-.912-.051-1.353-.155-.432-.103-.799-.239-1.1-.408zm6.968-8.767h1.903v6.371c.488-.536.963-1.067 1.423-1.593.461-.535.917-1.076 1.368-1.621h2.227c-.517.583-1.043 1.165-1.579 1.748-.526.583-1.067 1.165-1.621 1.748.601.676 1.193 1.353 1.776 2.03.583.676 1.156 1.353 1.72 2.029h-2.368c-.47-.592-.949-1.188-1.438-1.79-.489-.601-.991-1.207-1.508-1.818v3.608h-1.903z" fill="#000"/><rect fill="#ebf6ff" height="84.1203" rx="12.1345" width="363.897" x="85.5495" y="227.182"/><rect height="84.1203" rx="12.1345" stroke="#3b82f6" stroke-width="1.09906" width="363.897" x="85.5495" y="227.182"/><path d="m104.319 281.424c.471-.314 1.009-.565 1.615-.753.607-.199 1.249-.298 1.929-.298.815 0 1.516.141 2.101.423.586.272 1.035.659 1.349 1.161.324.502.486 1.092.486 1.772 0 .449-.084.873-.251 1.27-.167.387-.434.784-.8 1.192-.366.397-.852.831-1.458 1.301-.784.596-1.375 1.119-1.772 1.568-.387.439-.653.904-.8 1.396h5.379l-.188 1.74h-7.872c.01-.627.078-1.186.204-1.678.136-.501.345-.972.627-1.411.282-.449.648-.894 1.098-1.333.46-.449 1.019-.935 1.677-1.458.722-.585 1.224-1.066 1.506-1.443.292-.386.439-.773.439-1.16 0-.47-.183-.852-.549-1.145-.355-.292-.847-.439-1.474-.439-1.098 0-2.133.445-3.105 1.333zm10.073 10.6c-.251-.262-.376-.586-.376-.972 0-.387.125-.706.376-.957.262-.261.586-.392.972-.392.387 0 .706.131.957.392.251.251.376.57.376.957 0 .386-.125.71-.376.972-.251.251-.57.376-.957.376-.386 0-.71-.125-.972-.376zm9.731-11.447h7.025l-.204 1.725h-4.61v2.963h3.748v1.725h-3.748v5.206h-2.211zm8.461 3.214h2.117v8.405h-2.117zm.157-1.489c-.24-.241-.36-.539-.36-.894s.12-.648.36-.878c.251-.241.554-.361.91-.361.366 0 .669.12.909.361.241.23.361.523.361.878s-.12.653-.361.894c-.24.23-.543.345-.909.345-.356 0-.659-.115-.91-.345zm4.024 1.489h2.07v1.098c.261-.428.606-.753 1.035-.972.439-.22.914-.329 1.427-.329.825 0 1.495.277 2.007.831.512.543.768 1.296.768 2.258v5.519h-2.117v-5.347c0-.502-.12-.894-.36-1.176-.241-.282-.575-.423-1.004-.423-.376 0-.716.104-1.019.313-.303.199-.533.471-.69.816v5.817h-2.117zm16.838 8.405h-2.07v-1.113c-.24.408-.569.732-.988.972-.418.23-.899.345-1.442.345-.68 0-1.276-.178-1.788-.533-.502-.355-.894-.862-1.176-1.521-.272-.659-.408-1.443-.408-2.352 0-.91.136-1.694.408-2.352.282-.659.674-1.166 1.176-1.521.512-.356 1.108-.533 1.788-.533.522 0 .988.109 1.395.329.419.219.748.517.988.894v-4.532h2.117zm-2.117-2.587v-3.23c-.157-.356-.387-.633-.69-.831-.303-.209-.653-.314-1.05-.314-.575 0-1.025.246-1.349.737-.324.481-.486 1.155-.486 2.023s.162 1.547.486 2.038c.324.481.779.722 1.364.722.387 0 .732-.1 1.035-.298.303-.209.533-.492.69-.847zm7.709.423c.355.293.747.513 1.176.659.429.136.852.204 1.27.204.491 0 .873-.089 1.145-.267.282-.188.423-.444.423-.768 0-.241-.115-.439-.345-.596s-.69-.355-1.38-.596c-.888-.303-1.505-.653-1.85-1.05-.345-.408-.517-.894-.517-1.459 0-.533.135-.993.407-1.38.283-.386.669-.679 1.161-.878.491-.209 1.05-.313 1.677-.313.471 0 .931.057 1.38.172.46.115.842.267 1.145.455l-.486 1.537c-.554-.45-1.181-.675-1.882-.675-.418 0-.752.079-1.003.235-.251.147-.377.366-.377.659 0 .241.126.444.377.612.261.156.711.345 1.348.564.627.22 1.114.465 1.459.737.345.261.585.544.721.847s.204.627.204.972c0 .857-.33 1.521-.988 1.992-.648.47-1.5.705-2.556.705-.512 0-1.014-.057-1.505-.172-.481-.115-.889-.267-1.224-.455zm7.752-6.241h2.117v8.405h-2.117zm.157-1.489c-.241-.241-.361-.539-.361-.894s.12-.648.361-.878c.251-.241.554-.361.909-.361.366 0 .669.12.91.361.24.23.36.523.36.878s-.12.653-.36.894c-.241.23-.544.345-.91.345-.355 0-.658-.115-.909-.345zm4.024 1.489h2.069v1.098c.262-.428.601-.753 1.02-.972.418-.22.883-.329 1.395-.329.565 0 1.046.136 1.443.407.397.262.695.633.894 1.114.282-.502.658-.878 1.129-1.129.47-.262.982-.392 1.536-.392.784 0 1.417.277 1.898.831.491.543.737 1.296.737 2.258v5.519h-2.117v-5.347c0-.502-.11-.894-.33-1.176-.219-.282-.527-.423-.925-.423-.366 0-.69.099-.972.298-.282.198-.502.465-.658.799v5.849h-2.117v-5.347c0-.502-.11-.894-.33-1.176-.219-.282-.528-.423-.925-.423-.366 0-.695.104-.988.313-.282.199-.496.471-.643.816v5.817h-2.116zm14.088 0h2.116v8.405h-2.116zm.156-1.489c-.24-.241-.36-.539-.36-.894s.12-.648.36-.878c.251-.241.554-.361.91-.361.366 0 .669.12.909.361.241.23.361.523.361.878s-.12.653-.361.894c-.24.23-.543.345-.909.345-.356 0-.659-.115-.91-.345zm4.008-2.023h2.117v9.267c0 .418.073.716.22.894.157.178.402.267.737.267.387 0 .7-.105.941-.314l-.141 1.741c-.366.156-.832.235-1.396.235-1.652 0-2.478-.837-2.478-2.509zm11.873 10.443c0 .241.015.507.047.8.031.282.068.507.109.674h-1.975c-.042-.115-.079-.266-.11-.454-.031-.199-.058-.392-.079-.581-.271.408-.622.716-1.05.926-.418.209-.889.313-1.411.313-.753 0-1.37-.225-1.851-.674-.47-.46-.705-1.066-.705-1.819 0-.836.345-1.511 1.035-2.023.7-.523 1.73-.852 3.089-.988l.784-.078c-.021-.512-.183-.91-.486-1.192-.304-.293-.753-.439-1.349-.439-.387 0-.794.068-1.223.204-.418.136-.81.355-1.176.658l-.157-1.756c.397-.219.852-.392 1.364-.517.523-.126 1.04-.188 1.553-.188 1.171 0 2.059.303 2.665.909.617.596.926 1.448.926 2.556zm-4.924-.988c0 .356.104.638.313.847.22.209.507.314.863.314.314 0 .617-.084.909-.251.304-.167.544-.403.722-.706v-1.866l-.549.063c-.784.094-1.359.277-1.725.549-.355.272-.533.622-.533 1.05zm6.925-5.943h2.07v1.474c.272-.585.622-1.008 1.051-1.27.439-.271.899-.407 1.38-.407.094 0 .188.005.282.015.105.011.204.026.298.047l-.235 2.133c-.094-.052-.209-.089-.345-.11-.126-.021-.256-.031-.392-.031-.439 0-.842.141-1.208.423-.366.272-.627.638-.784 1.098v5.033h-2.117zm10.952 1.537h-1.412v-1.537h1.412v-1.599l2.117-.972v2.571h2.179v1.537h-2.179v3.967c0 .492.088.858.266 1.098.178.23.471.345.878.345.199 0 .403-.031.612-.094.219-.073.413-.173.58-.298l-.157 1.756c-.23.105-.486.178-.768.22-.282.052-.559.078-.831.078-1.798 0-2.697-.92-2.697-2.76zm5.939-1.537h2.117v8.405h-2.117zm.157-1.489c-.241-.241-.361-.539-.361-.894s.12-.648.361-.878c.25-.241.554-.361.909-.361.366 0 .669.12.91.361.24.23.36.523.36.878s-.12.653-.36.894c-.241.23-.544.345-.91.345-.355 0-.659-.115-.909-.345zm4.823 8.922c-.732-.794-1.098-1.861-1.098-3.199 0-.888.173-1.662.518-2.32.345-.67.826-1.187 1.442-1.553.628-.376 1.359-.564 2.196-.564.46 0 .904.057 1.333.172.439.115.804.267 1.097.455l-.517 1.631c-.492-.398-1.046-.596-1.662-.596-.68 0-1.223.24-1.631.721-.397.471-.596 1.14-.596 2.007 0 .857.199 1.532.596 2.023.408.491.977.737 1.709.737.335 0 .674-.058 1.019-.172.345-.126.617-.293.816-.502l.203 1.834c-.271.147-.611.267-1.019.361-.397.094-.836.141-1.317.141-1.328 0-2.357-.392-3.089-1.176zm7.041-10.945h2.116v7.088c.544-.596 1.072-1.187 1.584-1.772.512-.596 1.019-1.197 1.521-1.804h2.478c-.575.649-1.161 1.297-1.756 1.945-.586.648-1.187 1.296-1.804 1.944.669.753 1.328 1.506 1.976 2.258.648.753 1.286 1.506 1.913 2.258h-2.634c-.523-.658-1.056-1.322-1.6-1.991-.543-.669-1.103-1.343-1.678-2.023v4.014h-2.116zm15.364 9.8.219 1.772c-.324.168-.737.298-1.238.392-.492.105-1.014.157-1.568.157-.92 0-1.715-.183-2.384-.549s-1.186-.888-1.552-1.568c-.356-.679-.533-1.484-.533-2.415 0-.857.156-1.604.47-2.242.314-.648.763-1.15 1.349-1.505.585-.356 1.28-.533 2.085-.533 1.077 0 1.918.329 2.525.988.606.648.909 1.583.909 2.806 0 .105-.005.262-.016.471 0 .198-.01.36-.031.486h-5.143c.104.826.381 1.442.831 1.85.46.408 1.051.612 1.772.612.408 0 .826-.063 1.254-.188.439-.126.79-.304 1.051-.534zm-3.152-5.017c-.481 0-.873.172-1.176.517s-.497.831-.58 1.458h3.261c0-.637-.13-1.123-.392-1.458-.261-.345-.632-.517-1.113-.517zm5.936.266h-1.411v-1.537h1.411v-1.599l2.117-.972v2.571h2.179v1.537h-2.179v3.967c0 .492.089.858.266 1.098.178.23.471.345.878.345.199 0 .403-.031.612-.094.22-.073.413-.173.58-.298l-.157 1.756c-.23.105-.486.178-.768.22-.282.052-.559.078-.831.078-1.798 0-2.697-.92-2.697-2.76zm5.782 4.704c.356.293.748.513 1.176.659.429.136.852.204 1.27.204.492 0 .873-.089 1.145-.267.282-.188.424-.444.424-.768 0-.241-.115-.439-.345-.596s-.69-.355-1.38-.596c-.889-.303-1.506-.653-1.851-1.05-.345-.408-.517-.894-.517-1.459 0-.533.136-.993.408-1.38.282-.386.669-.679 1.16-.878.491-.209 1.051-.313 1.678-.313.47 0 .93.057 1.38.172.46.115.841.267 1.144.455l-.486 1.537c-.554-.45-1.181-.675-1.881-.675-.419 0-.753.079-1.004.235-.251.147-.376.366-.376.659 0 .241.125.444.376.612.261.156.711.345 1.349.564.627.22 1.113.465 1.458.737.345.261.585.544.721.847s.204.627.204.972c0 .857-.329 1.521-.988 1.992-.648.47-1.5.705-2.556.705-.512 0-1.014-.057-1.505-.172-.481-.115-.889-.267-1.223-.455zm13.921-4.296c-.377-.471-.659-.91-.847-1.317-.178-.408-.267-.821-.267-1.239 0-.533.131-1.009.392-1.427.272-.429.633-.763 1.082-1.004.46-.25.973-.376 1.537-.376.575 0 1.082.12 1.521.361.439.23.784.549 1.035.956.261.408.392.873.392 1.396 0 .512-.162 1.009-.486 1.49-.324.47-.93.935-1.819 1.395.376.397.768.81 1.176 1.239.418.418.857.852 1.317 1.301.209-.407.382-.852.518-1.333.136-.491.24-1.014.313-1.568l1.929.33c-.136.731-.329 1.421-.58 2.07-.241.648-.533 1.233-.878 1.756.397.376.815.768 1.254 1.176s.899.826 1.38 1.254h-2.728c-.356-.313-.732-.664-1.129-1.05-.481.397-1.02.705-1.615.925-.596.219-1.25.329-1.961.329-.815 0-1.536-.136-2.163-.408-.617-.282-1.103-.669-1.459-1.16-.355-.502-.533-1.077-.533-1.725 0-.669.204-1.28.612-1.834.418-.554 1.087-1.067 2.007-1.537zm.941 1.082c-.554.334-.931.679-1.129 1.035-.189.345-.283.695-.283 1.05 0 .534.194.973.581 1.318.397.334.925.501 1.583.501.439 0 .842-.062 1.208-.188.376-.136.711-.329 1.003-.58-.512-.523-1.024-1.051-1.536-1.584-.502-.543-.978-1.061-1.427-1.552zm2.101-3.732c0-.366-.11-.654-.33-.863-.209-.219-.475-.329-.799-.329s-.601.115-.831.345c-.22.22-.33.518-.33.894 0 .293.068.58.204.862.136.283.35.601.643.957.512-.293.878-.586 1.098-.878.23-.303.345-.633.345-.988zm17.469 7.636c0 .241.016.507.047.8.031.282.068.507.11.674h-1.976c-.042-.115-.078-.266-.11-.454-.031-.199-.057-.392-.078-.581-.272.408-.622.716-1.051.926-.418.209-.888.313-1.411.313-.753 0-1.369-.225-1.85-.674-.471-.46-.706-1.066-.706-1.819 0-.836.345-1.511 1.035-2.023.7-.523 1.73-.852 3.089-.988l.784-.078c-.021-.512-.183-.91-.486-1.192-.303-.293-.753-.439-1.349-.439-.386 0-.794.068-1.223.204-.418.136-.81.355-1.176.658l-.156-1.756c.397-.219.852-.392 1.364-.517.522-.126 1.04-.188 1.552-.188 1.171 0 2.06.303 2.666.909.617.596.925 1.448.925 2.556zm-4.924-.988c0 .356.105.638.314.847.219.209.507.314.862.314.314 0 .617-.084.91-.251.303-.167.543-.403.721-.706v-1.866l-.549.063c-.784.094-1.359.277-1.725.549-.355.272-.533.622-.533 1.05zm6.769.298c.355.293.747.513 1.176.659.429.136.852.204 1.27.204.492 0 .873-.089 1.145-.267.282-.188.423-.444.423-.768 0-.241-.115-.439-.345-.596s-.69-.355-1.38-.596c-.888-.303-1.505-.653-1.85-1.05-.345-.408-.517-.894-.517-1.459 0-.533.136-.993.407-1.38.283-.386.669-.679 1.161-.878.491-.209 1.05-.313 1.678-.313.47 0 .93.057 1.379.172.46.115.842.267 1.145.455l-.486 1.537c-.554-.45-1.181-.675-1.882-.675-.418 0-.752.079-1.003.235-.251.147-.377.366-.377.659 0 .241.126.444.377.612.261.156.711.345 1.348.564.628.22 1.114.465 1.459.737.345.261.585.544.721.847s.204.627.204.972c0 .857-.33 1.521-.988 1.992-.648.47-1.5.705-2.556.705-.512 0-1.014-.057-1.505-.172-.481-.115-.889-.267-1.223-.455zm7.595 0c.356.293.748.513 1.176.659.429.136.852.204 1.271.204.491 0 .872-.089 1.144-.267.282-.188.424-.444.424-.768 0-.241-.115-.439-.345-.596s-.69-.355-1.38-.596c-.889-.303-1.506-.653-1.851-1.05-.345-.408-.517-.894-.517-1.459 0-.533.136-.993.408-1.38.282-.386.669-.679 1.16-.878.491-.209 1.051-.313 1.678-.313.47 0 .93.057 1.38.172.46.115.841.267 1.144.455l-.486 1.537c-.554-.45-1.181-.675-1.881-.675-.419 0-.753.079-1.004.235-.251.147-.376.366-.376.659 0 .241.125.444.376.612.261.156.711.345 1.349.564.627.22 1.113.465 1.458.737.345.261.585.544.721.847s.204.627.204.972c0 .857-.329 1.521-.988 1.992-.648.47-1.5.705-2.556.705-.512 0-1.014-.057-1.505-.172-.481-.115-.889-.267-1.223-.455zm7.752-6.241h2.117v8.405h-2.117zm.157-1.489c-.24-.241-.36-.539-.36-.894s.12-.648.36-.878c.251-.241.554-.361.91-.361.366 0 .669.12.909.361.241.23.361.523.361.878s-.12.653-.361.894c-.24.23-.543.345-.909.345-.356 0-.659-.115-.91-.345zm11.598 8.969c0 1.432-.382 2.546-1.145 3.34-.763.795-1.892 1.192-3.387 1.192-.481 0-.962-.052-1.443-.157-.47-.105-.888-.256-1.254-.455l.188-1.85c.355.293.742.497 1.16.612.429.125.847.188 1.255.188.847 0 1.474-.22 1.882-.659.418-.439.627-1.066.627-1.882v-.501c-.241.386-.57.69-.988.909-.408.209-.873.314-1.396.314-1.024 0-1.845-.387-2.462-1.161-.606-.773-.909-1.839-.909-3.198 0-.899.136-1.673.408-2.321.282-.659.674-1.166 1.176-1.521.512-.356 1.108-.533 1.787-.533.544 0 1.025.12 1.443.36.418.23.747.549.988.957v-1.114h2.07zm-3.842-6.037c-.586 0-1.04.241-1.364.721-.324.481-.486 1.15-.486 2.008 0 .857.162 1.526.486 2.007.324.47.773.705 1.348.705.397 0 .748-.099 1.051-.298.303-.209.533-.486.69-.831v-3.167c-.157-.356-.387-.633-.69-.831-.303-.209-.648-.314-1.035-.314zm5.823-1.443h2.07v1.098c.261-.428.606-.753 1.035-.972.439-.22.915-.329 1.427-.329.826 0 1.495.277 2.007.831.512.543.768 1.296.768 2.258v5.519h-2.116v-5.347c0-.502-.121-.894-.361-1.176-.241-.282-.575-.423-1.004-.423-.376 0-.716.104-1.019.313-.303.199-.533.471-.69.816v5.817h-2.117zm13.693 1.537h-1.412v-1.537h1.412v-1.599l2.116-.972v2.571h2.18v1.537h-2.18v3.967c0 .492.089.858.267 1.098.178.23.47.345.878.345.199 0 .403-.031.612-.094.219-.073.413-.173.58-.298l-.157 1.756c-.23.105-.486.178-.768.22-.283.052-.56.078-.831.078-1.798 0-2.697-.92-2.697-2.76zm5.988 4.908c-.293-.69-.439-1.479-.439-2.368 0-.846.151-1.589.455-2.226.303-.648.752-1.15 1.348-1.506.606-.365 1.364-.548 2.274-.548.909 0 1.662.183 2.258.548.606.356 1.061.858 1.364 1.506.303.637.455 1.38.455 2.226 0 .889-.152 1.678-.455 2.368-.293.68-.742 1.213-1.348 1.6-.596.376-1.354.564-2.274.564s-1.683-.188-2.29-.564c-.595-.387-1.045-.92-1.348-1.6zm5.535-2.368c0-.825-.162-1.474-.486-1.944-.314-.47-.784-.706-1.411-.706s-1.103.236-1.427.706c-.314.47-.471 1.119-.471 1.944 0 .899.157 1.61.471 2.133.324.512.8.768 1.427.768s1.097-.256 1.411-.768c.324-.523.486-1.234.486-2.133zm8.384-2.54h-1.412v-1.537h1.412v-1.599l2.116-.972v2.571h2.18v1.537h-2.18v3.967c0 .492.089.858.267 1.098.178.23.47.345.878.345.199 0 .403-.031.612-.094.219-.073.413-.173.58-.298l-.157 1.756c-.23.105-.486.178-.768.22-.283.052-.56.078-.831.078-1.798 0-2.697-.92-2.697-2.76zm12.605 4.751.22 1.772c-.324.168-.737.298-1.239.392-.491.105-1.014.157-1.568.157-.92 0-1.715-.183-2.384-.549s-1.186-.888-1.552-1.568c-.355-.679-.533-1.484-.533-2.415 0-.857.157-1.604.47-2.242.314-.648.763-1.15 1.349-1.505.585-.356 1.28-.533 2.085-.533 1.077 0 1.919.329 2.525.988.606.648.909 1.583.909 2.806 0 .105-.005.262-.015.471 0 .198-.011.36-.032.486h-5.143c.105.826.382 1.442.831 1.85.46.408 1.051.612 1.772.612.408 0 .826-.063 1.255-.188.439-.126.789-.304 1.05-.534zm-3.152-5.017c-.48 0-.873.172-1.176.517s-.496.831-.58 1.458h3.262c0-.637-.131-1.123-.392-1.458-.262-.345-.633-.517-1.114-.517zm11.895 5.66c0 .241.016.507.047.8.031.282.068.507.11.674h-1.976c-.042-.115-.079-.266-.11-.454-.031-.199-.057-.392-.078-.581-.272.408-.622.716-1.051.926-.418.209-.888.313-1.411.313-.753 0-1.37-.225-1.85-.674-.471-.46-.706-1.066-.706-1.819 0-.836.345-1.511 1.035-2.023.7-.523 1.73-.852 3.089-.988l.784-.078c-.021-.512-.183-.91-.486-1.192-.303-.293-.753-.439-1.349-.439-.386 0-.794.068-1.223.204-.418.136-.81.355-1.176.658l-.157-1.756c.398-.219.852-.392 1.365-.517.522-.126 1.04-.188 1.552-.188 1.171 0 2.059.303 2.666.909.616.596.925 1.448.925 2.556zm-4.924-.988c0 .356.105.638.314.847.219.209.507.314.862.314.314 0 .617-.084.91-.251.303-.167.543-.403.721-.706v-1.866l-.549.063c-.784.094-1.359.277-1.725.549-.355.272-.533.622-.533 1.05zm6.926-5.943h2.07v1.098c.261-.428.601-.753 1.019-.972.418-.22.883-.329 1.395-.329.565 0 1.046.136 1.443.407.397.262.695.633.894 1.114.282-.502.658-.878 1.129-1.129.47-.262.982-.392 1.536-.392.785 0 1.417.277 1.898.831.491.543.737 1.296.737 2.258v5.519h-2.117v-5.347c0-.502-.11-.894-.329-1.176-.22-.282-.528-.423-.926-.423-.365 0-.689.099-.972.298-.282.198-.501.465-.658.799v5.849h-2.117v-5.347c0-.502-.11-.894-.329-1.176-.22-.282-.528-.423-.926-.423-.366 0-.695.104-.988.313-.282.199-.496.471-.642.816v5.817h-2.117z" fill="#2a3241"/><rect fill="#fff" height="24.3787" rx="5.94563" width="66.5273" x="99.6659" y="239.713"/><rect height="24.3787" rx="5.94563" stroke="#d3d5d9" stroke-width=".792751" width="66.5273" x="99.6659" y="239.713"/><path d="m117.561 255.885h-3.983v3.983h3.983z" fill="#ffd046"/><path d="m121.545 251.903v3.982h-11.948c-1.1 0-1.992-.891-1.992-1.991.001-1.1.892-1.991 1.992-1.991z" fill="#1c91ff"/><path clip-rule="evenodd" d="m105.613 255.885h3.983c1.1 0 1.991.892 1.991 1.992 0 1.099-.891 1.991-1.991 1.991h-3.983z" fill="#7ac6ff" fill-rule="evenodd"/><path d="m109.596 251.903c2.2 0 3.983-1.783 3.983-3.983s-1.783-3.983-3.983-3.983-3.983 1.783-3.983 3.983 1.783 3.983 3.983 3.983z" fill="#bcde81"/><path d="m117.561 251.903c2.199 0 3.983-1.783 3.983-3.983s-1.784-3.983-3.983-3.983c-2.2 0-3.983 1.783-3.983 3.983s1.783 3.983 3.983 3.983z" fill="#f8a6b4"/><path d="m109.596 243.937h-3.983v7.966h3.983z" fill="#6aa668"/><path d="m121.544 243.937h-7.966v3.983h7.966z" fill="#ed756c"/><path d="m129.081 246.872h2.805c1.25 0 2.293.226 3.129.677.836.442 1.466 1.057 1.889 1.846.423.78.634 1.678.634 2.693 0 1.014-.211 1.917-.634 2.706-.423.78-1.053 1.395-1.889 1.846s-1.879.677-3.129.677h-2.805zm1.987 1.551v7.343h1.029c1.109 0 1.945-.328 2.509-.986.564-.667.846-1.56.846-2.678 0-1.128-.282-2.021-.846-2.678-.564-.668-1.4-1.001-2.509-1.001zm12.663 1.339h1.888v7.555h-1.846v-1.001c-.244.404-.564.705-.959.902-.385.188-.803.282-1.254.282-.742 0-1.344-.244-1.804-.733-.451-.488-.677-1.17-.677-2.044v-4.961h1.903v4.82c0 .442.103.79.31 1.043.216.254.517.381.902.381.329 0 .63-.089.902-.268.282-.188.494-.437.635-.747zm3.62 5.61c.319.263.672.46 1.057.592.385.122.766.183 1.142.183.441 0 .784-.08 1.029-.24.253-.169.38-.399.38-.69 0-.216-.103-.395-.31-.536s-.62-.319-1.24-.536c-.799-.272-1.353-.587-1.663-.944-.311-.366-.466-.803-.466-1.311 0-.479.123-.892.367-1.24.254-.348.601-.611 1.043-.789.442-.188.944-.282 1.508-.282.423 0 .836.051 1.241.155.413.103.756.239 1.028.408l-.436 1.382c-.499-.404-1.062-.606-1.692-.606-.376 0-.676.07-.902.211-.226.132-.338.329-.338.592 0 .216.112.399.338.55.235.141.639.31 1.212.507.564.198 1.001.418 1.311.663.31.235.526.488.648.761.123.272.184.564.184.874 0 .77-.296 1.367-.888 1.79-.583.423-1.349.634-2.298.634-.46 0-.911-.052-1.353-.155-.432-.103-.799-.24-1.099-.409zm7.645-4.229h-1.269v-1.381h1.269v-1.438l1.903-.874v2.312h1.959v1.381h-1.959v3.566c0 .442.079.771.239.987.16.207.423.31.79.31.178 0 .361-.028.549-.085.198-.065.371-.155.522-.267l-.141 1.578c-.207.094-.437.16-.691.198-.254.047-.503.07-.747.07-1.616 0-2.424-.827-2.424-2.481z" fill="#000"/><path d="m268.046 182.055v45.979" stroke="#4d3eb8" stroke-width="1.09906"/><path d="m268.046 308.987v41.953" stroke="#4d3eb8" stroke-width="1.09906"/></svg>