<svg width="535" height="535" viewBox="0 0 535 535" fill="none" xmlns="http://www.w3.org/2000/svg">
<rect x="85.5495" y="98.5495" width="363.897" height="84.1203" rx="12.1345" fill="#EBF6FF"/>
<rect x="85.5495" y="98.5495" width="363.897" height="84.1203" rx="12.1345" stroke="#3B82F6" stroke-width="1.09906"/>
<path d="M109.431 161.777H111.909V163.565H104.617V161.777H107.298V154.266L104.774 155.631L104.586 153.733L107.863 151.946H109.431V161.777ZM114.392 163.392C114.141 163.131 114.016 162.807 114.016 162.42C114.016 162.033 114.141 161.715 114.392 161.464C114.654 161.202 114.978 161.072 115.364 161.072C115.751 161.072 116.07 161.202 116.321 161.464C116.572 161.715 116.697 162.033 116.697 162.42C116.697 162.807 116.572 163.131 116.321 163.392C116.07 163.643 115.751 163.769 115.364 163.769C114.978 163.769 114.654 163.643 114.392 163.392ZM124.123 151.946H126.381L131.195 159.598L131.18 158.688V151.946H133.171V163.565H131.352L126.115 155.176V155.976V163.565H124.123V151.946ZM142.298 161.448L142.518 163.22C142.194 163.387 141.781 163.518 141.279 163.612C140.788 163.717 140.265 163.769 139.711 163.769C138.791 163.769 137.997 163.586 137.327 163.22C136.658 162.854 136.141 162.331 135.775 161.652C135.42 160.972 135.242 160.167 135.242 159.237C135.242 158.38 135.399 157.632 135.712 156.995C136.026 156.347 136.476 155.845 137.061 155.489C137.646 155.134 138.342 154.956 139.146 154.956C140.223 154.956 141.065 155.286 141.671 155.944C142.277 156.592 142.58 157.528 142.58 158.751C142.58 158.856 142.575 159.012 142.565 159.221C142.565 159.42 142.554 159.582 142.533 159.708H137.39C137.495 160.533 137.772 161.15 138.221 161.558C138.681 161.966 139.272 162.169 139.993 162.169C140.401 162.169 140.819 162.107 141.248 161.981C141.687 161.856 142.037 161.678 142.298 161.448ZM139.146 156.43C138.666 156.43 138.274 156.603 137.97 156.948C137.667 157.293 137.474 157.779 137.39 158.406H140.652C140.652 157.768 140.521 157.282 140.26 156.948C139.998 156.603 139.627 156.43 139.146 156.43ZM149.291 157.92L147.535 163.565H146.061C145.58 162.164 145.115 160.763 144.665 159.363C144.226 157.951 143.792 156.55 143.364 155.16H145.402C145.643 156.049 145.888 156.942 146.139 157.842C146.39 158.73 146.646 159.619 146.907 160.507L148.491 155.38H150.138L151.721 160.554C151.993 159.655 152.255 158.756 152.505 157.857C152.767 156.948 153.018 156.049 153.258 155.16H155.203C154.784 156.55 154.351 157.951 153.901 159.363C153.452 160.763 152.986 162.164 152.505 163.565H151.016L149.291 157.92ZM162.859 153.686H159.487V151.946H168.425V153.686H165.07V163.565H162.859V153.686ZM169.749 155.16H171.866V163.565H169.749V155.16ZM169.906 153.67C169.666 153.43 169.546 153.132 169.546 152.777C169.546 152.421 169.666 152.129 169.906 151.899C170.157 151.658 170.46 151.538 170.816 151.538C171.182 151.538 171.485 151.658 171.725 151.899C171.966 152.129 172.086 152.421 172.086 152.777C172.086 153.132 171.966 153.43 171.725 153.67C171.485 153.9 171.182 154.015 170.816 154.015C170.46 154.015 170.157 153.9 169.906 153.67ZM174.73 162.593C173.998 161.798 173.632 160.732 173.632 159.394C173.632 158.505 173.804 157.732 174.149 157.073C174.494 156.404 174.975 155.887 175.592 155.521C176.219 155.144 176.951 154.956 177.787 154.956C178.247 154.956 178.692 155.014 179.12 155.129C179.559 155.244 179.925 155.395 180.218 155.584L179.7 157.214C179.209 156.817 178.655 156.618 178.038 156.618C177.359 156.618 176.815 156.859 176.407 157.34C176.01 157.81 175.812 158.479 175.812 159.347C175.812 160.204 176.01 160.878 176.407 161.37C176.815 161.861 177.385 162.107 178.117 162.107C178.451 162.107 178.791 162.049 179.136 161.934C179.481 161.809 179.753 161.641 179.951 161.432L180.155 163.267C179.883 163.413 179.544 163.534 179.136 163.628C178.739 163.722 178.3 163.769 177.819 163.769C176.491 163.769 175.461 163.377 174.73 162.593ZM181.77 151.648H183.887V158.735C184.431 158.139 184.959 157.549 185.471 156.963C185.983 156.368 186.49 155.766 186.992 155.16H189.469C188.894 155.808 188.309 156.456 187.713 157.105C187.128 157.753 186.527 158.401 185.91 159.049C186.579 159.802 187.237 160.554 187.886 161.307C188.534 162.06 189.171 162.812 189.799 163.565H187.164C186.642 162.906 186.108 162.243 185.565 161.574C185.021 160.904 184.462 160.23 183.887 159.551V163.565H181.77V151.648ZM197.134 161.448L197.354 163.22C197.03 163.387 196.617 163.518 196.115 163.612C195.624 163.717 195.101 163.769 194.547 163.769C193.627 163.769 192.833 163.586 192.164 163.22C191.495 162.854 190.977 162.331 190.611 161.652C190.256 160.972 190.078 160.167 190.078 159.237C190.078 158.38 190.235 157.632 190.549 156.995C190.862 156.347 191.312 155.845 191.897 155.489C192.483 155.134 193.178 154.956 193.983 154.956C195.059 154.956 195.901 155.286 196.507 155.944C197.114 156.592 197.417 157.528 197.417 158.751C197.417 158.856 197.412 159.012 197.401 159.221C197.401 159.42 197.391 159.582 197.37 159.708H192.226C192.331 160.533 192.608 161.15 193.058 161.558C193.517 161.966 194.108 162.169 194.829 162.169C195.237 162.169 195.655 162.107 196.084 161.981C196.523 161.856 196.873 161.678 197.134 161.448ZM193.983 156.43C193.502 156.43 193.11 156.603 192.807 156.948C192.503 157.293 192.31 157.779 192.226 158.406H195.488C195.488 157.768 195.357 157.282 195.096 156.948C194.835 156.603 194.464 156.43 193.983 156.43ZM199.919 156.697H198.507V155.16H199.919V153.561L202.035 152.589V155.16H204.215V156.697H202.035V160.664C202.035 161.155 202.124 161.521 202.302 161.762C202.48 161.992 202.772 162.107 203.18 162.107C203.379 162.107 203.583 162.075 203.792 162.013C204.011 161.939 204.205 161.84 204.372 161.715L204.215 163.471C203.985 163.575 203.729 163.649 203.447 163.69C203.164 163.743 202.887 163.769 202.616 163.769C200.818 163.769 199.919 162.849 199.919 161.009V156.697Z" fill="#2A3241"/>
<rect x="99.6659" y="111.073" width="97.965" height="24.3787" rx="5.94563" fill="white"/>
<rect x="99.6659" y="111.073" width="97.965" height="24.3787" rx="5.94563" stroke="#D3D5D9" stroke-width="0.792751"/>
<path d="M117.53 115.863L117.53 126.814L126.689 115.863L117.53 115.863Z" fill="#03363D"/>
<path d="M111.119 120.426C108.589 120.426 106.539 118.383 106.539 115.863H115.698C115.698 118.383 113.648 120.426 111.119 120.426Z" fill="#03363D"/>
<path d="M122.11 125.901C124.639 125.901 126.689 127.944 126.689 130.464H117.53C117.53 127.944 119.58 125.901 122.11 125.901Z" fill="#03363D"/>
<path d="M115.698 119.513V130.464H106.539L115.698 119.513Z" fill="#03363D"/>
<path d="M139.748 119.796H134.928L134.998 118.232H142.003V119.684L137.028 127.112H142.102V128.676H134.773V127.224L139.748 119.796ZM149.609 126.773L149.807 128.366C149.515 128.517 149.144 128.634 148.693 128.719C148.251 128.813 147.782 128.86 147.283 128.86C146.457 128.86 145.742 128.695 145.141 128.366C144.54 128.037 144.074 127.567 143.746 126.957C143.426 126.346 143.266 125.622 143.266 124.786C143.266 124.015 143.407 123.344 143.689 122.77C143.971 122.188 144.375 121.737 144.901 121.417C145.428 121.098 146.053 120.938 146.776 120.938C147.744 120.938 148.5 121.234 149.045 121.826C149.59 122.409 149.863 123.25 149.863 124.349C149.863 124.443 149.858 124.584 149.849 124.772C149.849 124.95 149.839 125.096 149.821 125.209H145.197C145.291 125.951 145.54 126.506 145.944 126.872C146.358 127.239 146.889 127.422 147.537 127.422C147.904 127.422 148.28 127.365 148.665 127.253C149.059 127.14 149.374 126.98 149.609 126.773ZM146.776 122.263C146.344 122.263 145.991 122.418 145.719 122.728C145.446 123.038 145.273 123.475 145.197 124.039H148.129C148.129 123.466 148.012 123.029 147.777 122.728C147.542 122.418 147.208 122.263 146.776 122.263ZM151.435 121.121H153.296V122.108C153.531 121.723 153.841 121.431 154.226 121.234C154.621 121.037 155.048 120.938 155.509 120.938C156.251 120.938 156.852 121.187 157.313 121.685C157.773 122.174 158.003 122.85 158.003 123.715V128.676H156.101V123.87C156.101 123.419 155.993 123.066 155.776 122.813C155.56 122.559 155.26 122.432 154.874 122.432C154.536 122.432 154.231 122.526 153.958 122.714C153.686 122.893 153.479 123.137 153.338 123.447V128.676H151.435V121.121ZM166.571 128.676H164.71V127.676C164.494 128.042 164.198 128.333 163.822 128.549C163.446 128.756 163.014 128.86 162.525 128.86C161.915 128.86 161.379 128.7 160.919 128.38C160.468 128.061 160.115 127.605 159.862 127.013C159.617 126.421 159.495 125.716 159.495 124.899C159.495 124.081 159.617 123.377 159.862 122.785C160.115 122.193 160.468 121.737 160.919 121.417C161.379 121.098 161.915 120.938 162.525 120.938C162.995 120.938 163.413 121.037 163.78 121.234C164.156 121.431 164.452 121.699 164.668 122.037V117.964H166.571V128.676ZM164.668 126.351V123.447C164.527 123.127 164.32 122.878 164.048 122.7C163.775 122.512 163.46 122.418 163.103 122.418C162.587 122.418 162.183 122.639 161.891 123.081C161.6 123.513 161.454 124.119 161.454 124.899C161.454 125.679 161.6 126.289 161.891 126.731C162.183 127.163 162.591 127.38 163.117 127.38C163.465 127.38 163.775 127.29 164.048 127.112C164.32 126.924 164.527 126.67 164.668 126.351ZM174.51 126.773L174.707 128.366C174.416 128.517 174.044 128.634 173.593 128.719C173.152 128.813 172.682 128.86 172.184 128.86C171.357 128.86 170.643 128.695 170.041 128.366C169.44 128.037 168.975 127.567 168.646 126.957C168.327 126.346 168.167 125.622 168.167 124.786C168.167 124.015 168.308 123.344 168.59 122.77C168.872 122.188 169.276 121.737 169.802 121.417C170.328 121.098 170.953 120.938 171.677 120.938C172.644 120.938 173.401 121.234 173.946 121.826C174.491 122.409 174.763 123.25 174.763 124.349C174.763 124.443 174.759 124.584 174.749 124.772C174.749 124.95 174.74 125.096 174.721 125.209H170.098C170.192 125.951 170.441 126.506 170.845 126.872C171.258 127.239 171.789 127.422 172.438 127.422C172.804 127.422 173.18 127.365 173.565 127.253C173.96 127.14 174.275 126.98 174.51 126.773ZM171.677 122.263C171.244 122.263 170.892 122.418 170.619 122.728C170.347 123.038 170.173 123.475 170.098 124.039H173.03C173.03 123.466 172.912 123.029 172.677 122.728C172.442 122.418 172.109 122.263 171.677 122.263ZM176.195 126.731C176.514 126.994 176.867 127.192 177.252 127.323C177.637 127.445 178.018 127.506 178.394 127.506C178.835 127.506 179.178 127.427 179.422 127.267C179.676 127.098 179.803 126.867 179.803 126.576C179.803 126.36 179.7 126.181 179.493 126.04C179.286 125.9 178.873 125.721 178.253 125.505C177.454 125.232 176.899 124.918 176.589 124.56C176.279 124.194 176.124 123.757 176.124 123.25C176.124 122.77 176.246 122.357 176.491 122.009C176.744 121.662 177.092 121.398 177.534 121.22C177.975 121.032 178.478 120.938 179.042 120.938C179.465 120.938 179.878 120.99 180.282 121.093C180.696 121.196 181.039 121.333 181.311 121.502L180.874 122.883C180.376 122.479 179.812 122.277 179.183 122.277C178.807 122.277 178.506 122.348 178.281 122.489C178.055 122.62 177.942 122.817 177.942 123.081C177.942 123.297 178.055 123.48 178.281 123.63C178.516 123.771 178.92 123.94 179.493 124.138C180.057 124.335 180.494 124.556 180.804 124.8C181.114 125.035 181.33 125.289 181.452 125.561C181.574 125.834 181.635 126.125 181.635 126.435C181.635 127.206 181.339 127.802 180.747 128.225C180.165 128.648 179.399 128.86 178.45 128.86C177.989 128.86 177.538 128.808 177.097 128.704C176.665 128.601 176.298 128.465 175.997 128.296L176.195 126.731ZM183.163 117.964H185.066V124.335C185.554 123.799 186.029 123.268 186.489 122.742C186.95 122.207 187.406 121.666 187.857 121.121H190.084C189.567 121.704 189.041 122.286 188.505 122.869C187.979 123.452 187.438 124.034 186.884 124.617C187.485 125.293 188.077 125.97 188.66 126.647C189.243 127.323 189.816 128 190.38 128.676H188.012C187.542 128.084 187.063 127.488 186.574 126.886C186.085 126.285 185.583 125.679 185.066 125.068V128.676H183.163V117.964Z" fill="black"/>
<rect x="85.5495" y="350.991" width="363.897" height="85.7282" rx="12.1345" fill="#EBF6FF"/>
<rect x="85.5495" y="350.991" width="363.897" height="85.7282" rx="12.1345" stroke="#3B82F6" stroke-width="1.09906"/>
<path d="M108.772 406.096H104.115L104.256 404.387H111.313L111.172 405.861L108.349 408.95C109.415 409.034 110.226 409.384 110.78 410.001C111.344 410.607 111.626 411.365 111.626 412.275C111.626 413.038 111.433 413.717 111.046 414.313C110.67 414.898 110.137 415.364 109.447 415.709C108.757 416.043 107.936 416.21 106.985 416.21C106.41 416.21 105.845 416.142 105.291 416.007C104.748 415.881 104.241 415.688 103.77 415.426L103.943 413.466C104.371 413.79 104.837 414.036 105.338 414.203C105.84 414.371 106.331 414.454 106.812 414.454C107.628 414.454 108.265 414.256 108.725 413.858C109.185 413.451 109.415 412.912 109.415 412.243C109.415 411.595 109.212 411.109 108.804 410.785C108.407 410.461 107.853 410.299 107.142 410.299C106.692 410.299 106.295 410.356 105.95 410.471V409.311L108.772 406.096ZM114.392 415.834C114.141 415.573 114.016 415.249 114.016 414.862C114.016 414.475 114.141 414.156 114.392 413.905C114.654 413.644 114.978 413.513 115.364 413.513C115.751 413.513 116.07 413.644 116.321 413.905C116.572 414.156 116.697 414.475 116.697 414.862C116.697 415.249 116.572 415.573 116.321 415.834C116.07 416.085 115.751 416.21 115.364 416.21C114.978 416.21 114.654 416.085 114.392 415.834ZM130.615 404.387H132.763V411.961C132.763 413.289 132.377 414.329 131.603 415.081C130.829 415.834 129.758 416.21 128.388 416.21C127.009 416.21 125.932 415.834 125.158 415.081C124.385 414.329 123.998 413.289 123.998 411.961V404.387H126.193V411.71C126.193 413.55 126.92 414.47 128.373 414.47C129.868 414.47 130.615 413.634 130.615 411.961V404.387ZM135.004 407.602H137.074V408.715C137.314 408.307 137.644 407.989 138.062 407.759C138.48 407.518 138.961 407.398 139.504 407.398C140.194 407.398 140.79 407.576 141.292 407.931C141.794 408.287 142.18 408.794 142.452 409.452C142.734 410.111 142.876 410.895 142.876 411.804C142.876 412.714 142.734 413.498 142.452 414.156C142.18 414.815 141.794 415.322 141.292 415.677C140.79 416.033 140.194 416.21 139.504 416.21C138.982 416.21 138.511 416.106 138.093 415.897C137.685 415.677 137.361 415.374 137.121 414.987V419.409H135.004V407.602ZM137.121 410.189V413.435C137.278 413.78 137.508 414.057 137.811 414.266C138.114 414.465 138.464 414.564 138.861 414.564C139.436 414.564 139.886 414.324 140.21 413.843C140.534 413.351 140.696 412.672 140.696 411.804C140.696 410.937 140.534 410.262 140.21 409.781C139.886 409.29 139.431 409.044 138.846 409.044C138.459 409.044 138.114 409.149 137.811 409.358C137.508 409.557 137.278 409.834 137.121 410.189ZM152.225 416.007H150.155V414.893C149.915 415.301 149.585 415.625 149.167 415.865C148.749 416.095 148.268 416.21 147.725 416.21C147.045 416.21 146.449 416.033 145.937 415.677C145.435 415.322 145.043 414.815 144.761 414.156C144.489 413.498 144.353 412.714 144.353 411.804C144.353 410.895 144.489 410.111 144.761 409.452C145.043 408.794 145.435 408.287 145.937 407.931C146.449 407.576 147.045 407.398 147.725 407.398C148.247 407.398 148.712 407.508 149.12 407.727C149.538 407.947 149.868 408.245 150.108 408.621V404.089H152.225V416.007ZM150.108 413.419V410.189C149.951 409.834 149.721 409.557 149.418 409.358C149.115 409.149 148.765 409.044 148.368 409.044C147.793 409.044 147.343 409.29 147.019 409.781C146.695 410.262 146.533 410.937 146.533 411.804C146.533 412.672 146.695 413.351 147.019 413.843C147.343 414.324 147.798 414.564 148.383 414.564C148.77 414.564 149.115 414.465 149.418 414.266C149.721 414.057 149.951 413.775 150.108 413.419ZM161.01 414.533C161.01 414.773 161.025 415.04 161.057 415.332C161.088 415.615 161.125 415.839 161.167 416.007H159.191C159.149 415.892 159.112 415.74 159.081 415.552C159.05 415.353 159.024 415.16 159.003 414.972C158.731 415.379 158.381 415.688 157.952 415.897C157.534 416.106 157.063 416.21 156.541 416.21C155.788 416.21 155.171 415.986 154.69 415.536C154.22 415.076 153.985 414.47 153.985 413.717C153.985 412.881 154.33 412.207 155.02 411.694C155.72 411.172 156.75 410.842 158.109 410.707L158.893 410.628C158.872 410.116 158.71 409.719 158.407 409.436C158.104 409.144 157.654 408.997 157.058 408.997C156.671 408.997 156.264 409.065 155.835 409.201C155.417 409.337 155.025 409.557 154.659 409.86L154.502 408.104C154.9 407.884 155.354 407.712 155.867 407.586C156.389 407.461 156.907 407.398 157.419 407.398C158.59 407.398 159.478 407.701 160.085 408.307C160.701 408.903 161.01 409.755 161.01 410.863V414.533ZM156.086 413.545C156.086 413.9 156.191 414.182 156.4 414.391C156.619 414.601 156.907 414.705 157.262 414.705C157.576 414.705 157.879 414.621 158.172 414.454C158.475 414.287 158.715 414.052 158.893 413.749V411.883L158.344 411.945C157.56 412.039 156.985 412.222 156.619 412.494C156.264 412.766 156.086 413.116 156.086 413.545ZM163.581 409.138H162.169V407.602H163.581V406.002L165.697 405.03V407.602H167.877V409.138H165.697V413.106C165.697 413.597 165.786 413.963 165.964 414.203C166.142 414.433 166.434 414.548 166.842 414.548C167.041 414.548 167.245 414.517 167.454 414.454C167.673 414.381 167.867 414.282 168.034 414.156L167.877 415.913C167.647 416.017 167.391 416.09 167.109 416.132C166.826 416.184 166.549 416.21 166.278 416.21C164.48 416.21 163.581 415.291 163.581 413.451V409.138ZM176.186 413.89L176.406 415.662C176.082 415.829 175.669 415.96 175.167 416.054C174.676 416.158 174.153 416.21 173.599 416.21C172.679 416.21 171.884 416.027 171.215 415.662C170.546 415.296 170.029 414.773 169.663 414.094C169.308 413.414 169.13 412.609 169.13 411.679C169.13 410.822 169.287 410.074 169.6 409.436C169.914 408.788 170.363 408.287 170.949 407.931C171.534 407.576 172.229 407.398 173.034 407.398C174.111 407.398 174.953 407.727 175.559 408.386C176.165 409.034 176.468 409.97 176.468 411.193C176.468 411.297 176.463 411.454 176.453 411.663C176.453 411.862 176.442 412.024 176.421 412.149H171.278C171.383 412.975 171.66 413.592 172.109 413.999C172.569 414.407 173.16 414.611 173.881 414.611C174.289 414.611 174.707 414.548 175.136 414.423C175.575 414.297 175.925 414.12 176.186 413.89ZM173.034 408.872C172.553 408.872 172.161 409.044 171.858 409.389C171.555 409.734 171.362 410.22 171.278 410.848H174.54C174.54 410.21 174.409 409.724 174.148 409.389C173.886 409.044 173.515 408.872 173.034 408.872ZM182.645 409.138H181.234V407.602H182.645V406.002L184.762 405.03V407.602H186.942V409.138H184.762V413.106C184.762 413.597 184.851 413.963 185.029 414.203C185.207 414.433 185.499 414.548 185.907 414.548C186.106 414.548 186.309 414.517 186.518 414.454C186.738 414.381 186.931 414.282 187.099 414.156L186.942 415.913C186.712 416.017 186.456 416.09 186.173 416.132C185.891 416.184 185.614 416.21 185.342 416.21C183.544 416.21 182.645 415.291 182.645 413.451V409.138ZM188.584 407.602H190.701V416.007H188.584V407.602ZM188.741 406.112C188.501 405.872 188.381 405.574 188.381 405.218C188.381 404.863 188.501 404.57 188.741 404.34C188.992 404.1 189.295 403.98 189.651 403.98C190.017 403.98 190.32 404.1 190.56 404.34C190.801 404.57 190.921 404.863 190.921 405.218C190.921 405.574 190.801 405.872 190.56 406.112C190.32 406.342 190.017 406.457 189.651 406.457C189.295 406.457 188.992 406.342 188.741 406.112ZM193.565 415.034C192.833 414.24 192.467 413.174 192.467 411.836C192.467 410.947 192.64 410.173 192.984 409.515C193.329 408.846 193.81 408.328 194.427 407.962C195.054 407.586 195.786 407.398 196.622 407.398C197.082 407.398 197.527 407.455 197.955 407.57C198.394 407.685 198.76 407.837 199.053 408.025L198.535 409.656C198.044 409.259 197.49 409.06 196.873 409.06C196.194 409.06 195.65 409.301 195.242 409.781C194.845 410.252 194.647 410.921 194.647 411.789C194.647 412.646 194.845 413.32 195.242 413.811C195.65 414.303 196.22 414.548 196.952 414.548C197.286 414.548 197.626 414.491 197.971 414.376C198.316 414.25 198.588 414.083 198.786 413.874L198.99 415.709C198.718 415.855 198.379 415.975 197.971 416.069C197.574 416.163 197.135 416.21 196.654 416.21C195.326 416.21 194.296 415.818 193.565 415.034ZM200.605 404.089H202.722V411.177C203.266 410.581 203.794 409.99 204.306 409.405C204.818 408.809 205.325 408.208 205.827 407.602H208.304C207.73 408.25 207.144 408.898 206.548 409.546C205.963 410.194 205.362 410.842 204.745 411.491C205.414 412.243 206.073 412.996 206.721 413.749C207.369 414.501 208.007 415.254 208.634 416.007H205.999C205.477 415.348 204.944 414.684 204.4 414.015C203.856 413.346 203.297 412.672 202.722 411.992V416.007H200.605V404.089ZM215.97 413.89L216.189 415.662C215.865 415.829 215.452 415.96 214.95 416.054C214.459 416.158 213.936 416.21 213.382 416.21C212.462 416.21 211.668 416.027 210.999 415.662C210.33 415.296 209.812 414.773 209.446 414.094C209.091 413.414 208.913 412.609 208.913 411.679C208.913 410.822 209.07 410.074 209.384 409.436C209.697 408.788 210.147 408.287 210.732 407.931C211.318 407.576 212.013 407.398 212.818 407.398C213.895 407.398 214.736 407.727 215.342 408.386C215.949 409.034 216.252 409.97 216.252 411.193C216.252 411.297 216.247 411.454 216.236 411.663C216.236 411.862 216.226 412.024 216.205 412.149H211.062C211.166 412.975 211.443 413.592 211.893 413.999C212.353 414.407 212.943 414.611 213.665 414.611C214.072 414.611 214.49 414.548 214.919 414.423C215.358 414.297 215.708 414.12 215.97 413.89ZM212.818 408.872C212.337 408.872 211.945 409.044 211.642 409.389C211.339 409.734 211.145 410.22 211.062 410.848H214.323C214.323 410.21 214.192 409.724 213.931 409.389C213.67 409.044 213.299 408.872 212.818 408.872ZM218.754 409.138H217.342V407.602H218.754V406.002L220.871 405.03V407.602H223.05V409.138H220.871V413.106C220.871 413.597 220.959 413.963 221.137 414.203C221.315 414.433 221.607 414.548 222.015 414.548C222.214 414.548 222.418 414.517 222.627 414.454C222.846 414.381 223.04 414.282 223.207 414.156L223.05 415.913C222.82 416.017 222.564 416.09 222.282 416.132C222 416.184 221.722 416.21 221.451 416.21C219.653 416.21 218.754 415.291 218.754 413.451V409.138Z" fill="#2A3241"/>
<rect x="99.6659" y="363.523" width="97.965" height="24.3787" rx="5.94563" fill="white"/>
<rect x="99.6659" y="363.523" width="97.965" height="24.3787" rx="5.94563" stroke="#D3D5D9" stroke-width="0.792751"/>
<path d="M117.53 368.313L117.53 379.264L126.689 368.313L117.53 368.313Z" fill="#03363D"/>
<path d="M111.119 372.876C108.589 372.876 106.539 370.833 106.539 368.313H115.698C115.698 370.833 113.648 372.876 111.119 372.876Z" fill="#03363D"/>
<path d="M122.11 378.351C124.639 378.351 126.689 380.394 126.689 382.914H117.53C117.53 380.394 119.58 378.351 122.11 378.351Z" fill="#03363D"/>
<path d="M115.698 371.963V382.914H106.539L115.698 371.963Z" fill="#03363D"/>
<path d="M139.748 372.246H134.928L134.998 370.682H142.003V372.134L137.028 379.562H142.102V381.126H134.773V379.674L139.748 372.246ZM149.609 379.223L149.807 380.816C149.515 380.966 149.144 381.084 148.693 381.169C148.251 381.262 147.782 381.309 147.283 381.309C146.457 381.309 145.742 381.145 145.141 380.816C144.54 380.487 144.074 380.017 143.746 379.407C143.426 378.796 143.266 378.072 143.266 377.236C143.266 376.465 143.407 375.794 143.689 375.22C143.971 374.638 144.375 374.187 144.901 373.867C145.428 373.548 146.053 373.388 146.776 373.388C147.744 373.388 148.5 373.684 149.045 374.276C149.59 374.859 149.863 375.7 149.863 376.799C149.863 376.893 149.858 377.034 149.849 377.222C149.849 377.4 149.839 377.546 149.821 377.659H145.197C145.291 378.401 145.54 378.956 145.944 379.322C146.358 379.689 146.889 379.872 147.537 379.872C147.904 379.872 148.28 379.815 148.665 379.703C149.059 379.59 149.374 379.43 149.609 379.223ZM146.776 374.713C146.344 374.713 145.991 374.868 145.719 375.178C145.446 375.488 145.273 375.925 145.197 376.489H148.129C148.129 375.916 148.012 375.479 147.777 375.178C147.542 374.868 147.208 374.713 146.776 374.713ZM151.435 373.571H153.296V374.558C153.531 374.173 153.841 373.881 154.226 373.684C154.621 373.487 155.048 373.388 155.509 373.388C156.251 373.388 156.852 373.637 157.313 374.135C157.773 374.624 158.003 375.3 158.003 376.165V381.126H156.101V376.32C156.101 375.869 155.993 375.516 155.776 375.263C155.56 375.009 155.26 374.882 154.874 374.882C154.536 374.882 154.231 374.976 153.958 375.164C153.686 375.343 153.479 375.587 153.338 375.897V381.126H151.435V373.571ZM166.571 381.126H164.71V380.125C164.494 380.492 164.198 380.783 163.822 380.999C163.446 381.206 163.014 381.309 162.525 381.309C161.915 381.309 161.379 381.15 160.919 380.83C160.468 380.511 160.115 380.055 159.862 379.463C159.617 378.871 159.495 378.166 159.495 377.349C159.495 376.531 159.617 375.826 159.862 375.234C160.115 374.642 160.468 374.187 160.919 373.867C161.379 373.548 161.915 373.388 162.525 373.388C162.995 373.388 163.413 373.487 163.78 373.684C164.156 373.881 164.452 374.149 164.668 374.487V370.414H166.571V381.126ZM164.668 378.801V375.897C164.527 375.577 164.32 375.328 164.048 375.15C163.775 374.962 163.46 374.868 163.103 374.868C162.587 374.868 162.183 375.089 161.891 375.53C161.6 375.963 161.454 376.569 161.454 377.349C161.454 378.129 161.6 378.739 161.891 379.181C162.183 379.613 162.591 379.829 163.117 379.829C163.465 379.829 163.775 379.74 164.048 379.562C164.32 379.374 164.527 379.12 164.668 378.801ZM174.51 379.223L174.707 380.816C174.416 380.966 174.044 381.084 173.593 381.169C173.152 381.262 172.682 381.309 172.184 381.309C171.357 381.309 170.643 381.145 170.041 380.816C169.44 380.487 168.975 380.017 168.646 379.407C168.327 378.796 168.167 378.072 168.167 377.236C168.167 376.465 168.308 375.794 168.59 375.22C168.872 374.638 169.276 374.187 169.802 373.867C170.328 373.548 170.953 373.388 171.677 373.388C172.644 373.388 173.401 373.684 173.946 374.276C174.491 374.859 174.763 375.7 174.763 376.799C174.763 376.893 174.759 377.034 174.749 377.222C174.749 377.4 174.74 377.546 174.721 377.659H170.098C170.192 378.401 170.441 378.956 170.845 379.322C171.258 379.689 171.789 379.872 172.438 379.872C172.804 379.872 173.18 379.815 173.565 379.703C173.96 379.59 174.275 379.43 174.51 379.223ZM171.677 374.713C171.244 374.713 170.892 374.868 170.619 375.178C170.347 375.488 170.173 375.925 170.098 376.489H173.03C173.03 375.916 172.912 375.479 172.677 375.178C172.442 374.868 172.109 374.713 171.677 374.713ZM176.195 379.181C176.514 379.444 176.867 379.642 177.252 379.773C177.637 379.895 178.018 379.956 178.394 379.956C178.835 379.956 179.178 379.876 179.422 379.717C179.676 379.548 179.803 379.317 179.803 379.026C179.803 378.81 179.7 378.631 179.493 378.49C179.286 378.349 178.873 378.171 178.253 377.955C177.454 377.682 176.899 377.368 176.589 377.01C176.279 376.644 176.124 376.207 176.124 375.7C176.124 375.22 176.246 374.807 176.491 374.459C176.744 374.112 177.092 373.848 177.534 373.67C177.975 373.482 178.478 373.388 179.042 373.388C179.465 373.388 179.878 373.44 180.282 373.543C180.696 373.646 181.039 373.783 181.311 373.952L180.874 375.333C180.376 374.929 179.812 374.727 179.183 374.727C178.807 374.727 178.506 374.798 178.281 374.938C178.055 375.07 177.942 375.267 177.942 375.53C177.942 375.747 178.055 375.93 178.281 376.08C178.516 376.221 178.92 376.39 179.493 376.588C180.057 376.785 180.494 377.006 180.804 377.25C181.114 377.485 181.33 377.739 181.452 378.011C181.574 378.284 181.635 378.575 181.635 378.885C181.635 379.656 181.339 380.252 180.747 380.675C180.165 381.098 179.399 381.309 178.45 381.309C177.989 381.309 177.538 381.258 177.097 381.154C176.665 381.051 176.298 380.915 175.997 380.746L176.195 379.181ZM183.163 370.414H185.066V376.785C185.554 376.249 186.029 375.718 186.489 375.192C186.95 374.657 187.406 374.116 187.857 373.571H190.084C189.567 374.154 189.041 374.736 188.505 375.319C187.979 375.902 187.438 376.484 186.884 377.067C187.485 377.743 188.077 378.42 188.66 379.097C189.243 379.773 189.816 380.45 190.38 381.126H188.012C187.542 380.534 187.063 379.938 186.574 379.336C186.085 378.735 185.583 378.129 185.066 377.518V381.126H183.163V370.414Z" fill="black"/>
<rect x="85.5495" y="227.182" width="363.897" height="84.1203" rx="12.1345" fill="#EBF6FF"/>
<rect x="85.5495" y="227.182" width="363.897" height="84.1203" rx="12.1345" stroke="#3B82F6" stroke-width="1.09906"/>
<path d="M104.319 281.424C104.79 281.11 105.328 280.859 105.934 280.671C106.541 280.472 107.183 280.373 107.863 280.373C108.678 280.373 109.379 280.514 109.964 280.796C110.55 281.068 110.999 281.455 111.313 281.957C111.637 282.459 111.799 283.049 111.799 283.729C111.799 284.178 111.715 284.602 111.548 284.999C111.381 285.386 111.114 285.783 110.748 286.191C110.382 286.588 109.896 287.022 109.29 287.492C108.506 288.088 107.915 288.611 107.518 289.06C107.131 289.499 106.865 289.964 106.718 290.456H112.097L111.909 292.196H104.037C104.047 291.569 104.115 291.01 104.241 290.518C104.377 290.017 104.586 289.546 104.868 289.107C105.15 288.658 105.516 288.213 105.966 287.774C106.426 287.325 106.985 286.839 107.643 286.316C108.365 285.731 108.867 285.25 109.149 284.873C109.441 284.487 109.588 284.1 109.588 283.713C109.588 283.243 109.405 282.861 109.039 282.568C108.684 282.276 108.192 282.129 107.565 282.129C106.467 282.129 105.432 282.574 104.46 283.462L104.319 281.424ZM114.392 292.024C114.141 291.762 114.016 291.438 114.016 291.052C114.016 290.665 114.141 290.346 114.392 290.095C114.654 289.834 114.978 289.703 115.364 289.703C115.751 289.703 116.07 289.834 116.321 290.095C116.572 290.346 116.697 290.665 116.697 291.052C116.697 291.438 116.572 291.762 116.321 292.024C116.07 292.275 115.751 292.4 115.364 292.4C114.978 292.4 114.654 292.275 114.392 292.024ZM124.123 280.577H131.148L130.944 282.302H126.334V285.265H130.082V286.99H126.334V292.196H124.123V280.577ZM132.584 283.791H134.701V292.196H132.584V283.791ZM132.741 282.302C132.501 282.061 132.381 281.763 132.381 281.408C132.381 281.053 132.501 280.76 132.741 280.53C132.992 280.289 133.295 280.169 133.651 280.169C134.017 280.169 134.32 280.289 134.56 280.53C134.801 280.76 134.921 281.053 134.921 281.408C134.921 281.763 134.801 282.061 134.56 282.302C134.32 282.532 134.017 282.647 133.651 282.647C133.295 282.647 132.992 282.532 132.741 282.302ZM136.765 283.791H138.835V284.889C139.096 284.461 139.441 284.136 139.87 283.917C140.309 283.697 140.784 283.588 141.297 283.588C142.122 283.588 142.792 283.865 143.304 284.419C143.816 284.962 144.072 285.715 144.072 286.677V292.196H141.955V286.849C141.955 286.347 141.835 285.955 141.595 285.673C141.354 285.391 141.02 285.25 140.591 285.25C140.215 285.25 139.875 285.354 139.572 285.563C139.269 285.762 139.039 286.034 138.882 286.379V292.196H136.765V283.791ZM153.603 292.196H151.533V291.083C151.293 291.491 150.964 291.815 150.545 292.055C150.127 292.285 149.646 292.4 149.103 292.4C148.423 292.4 147.827 292.222 147.315 291.867C146.813 291.512 146.421 291.005 146.139 290.346C145.867 289.687 145.731 288.903 145.731 287.994C145.731 287.084 145.867 286.3 146.139 285.642C146.421 284.983 146.813 284.476 147.315 284.121C147.827 283.765 148.423 283.588 149.103 283.588C149.625 283.588 150.091 283.697 150.498 283.917C150.917 284.136 151.246 284.434 151.486 284.811V280.279H153.603V292.196ZM151.486 289.609V286.379C151.329 286.023 151.099 285.746 150.796 285.548C150.493 285.339 150.143 285.234 149.746 285.234C149.171 285.234 148.721 285.48 148.397 285.971C148.073 286.452 147.911 287.126 147.911 287.994C147.911 288.862 148.073 289.541 148.397 290.032C148.721 290.513 149.176 290.754 149.761 290.754C150.148 290.754 150.493 290.654 150.796 290.456C151.099 290.247 151.329 289.964 151.486 289.609ZM159.195 290.032C159.55 290.325 159.942 290.545 160.371 290.691C160.8 290.827 161.223 290.895 161.641 290.895C162.132 290.895 162.514 290.806 162.786 290.628C163.068 290.44 163.209 290.184 163.209 289.86C163.209 289.619 163.094 289.421 162.864 289.264C162.634 289.107 162.174 288.909 161.484 288.668C160.596 288.365 159.979 288.015 159.634 287.618C159.289 287.21 159.117 286.724 159.117 286.159C159.117 285.626 159.252 285.166 159.524 284.779C159.807 284.393 160.193 284.1 160.685 283.901C161.176 283.692 161.735 283.588 162.362 283.588C162.833 283.588 163.293 283.645 163.742 283.76C164.202 283.875 164.584 284.027 164.887 284.215L164.401 285.752C163.847 285.302 163.22 285.077 162.519 285.077C162.101 285.077 161.767 285.156 161.516 285.312C161.265 285.459 161.139 285.678 161.139 285.971C161.139 286.212 161.265 286.415 161.516 286.583C161.777 286.739 162.227 286.928 162.864 287.147C163.491 287.367 163.978 287.612 164.323 287.884C164.668 288.145 164.908 288.428 165.044 288.731C165.18 289.034 165.248 289.358 165.248 289.703C165.248 290.56 164.918 291.224 164.26 291.695C163.612 292.165 162.76 292.4 161.704 292.4C161.192 292.4 160.69 292.343 160.199 292.228C159.718 292.113 159.31 291.961 158.975 291.773L159.195 290.032ZM166.947 283.791H169.064V292.196H166.947V283.791ZM167.104 282.302C166.863 282.061 166.743 281.763 166.743 281.408C166.743 281.053 166.863 280.76 167.104 280.53C167.355 280.289 167.658 280.169 168.013 280.169C168.379 280.169 168.682 280.289 168.923 280.53C169.163 280.76 169.283 281.053 169.283 281.408C169.283 281.763 169.163 282.061 168.923 282.302C168.682 282.532 168.379 282.647 168.013 282.647C167.658 282.647 167.355 282.532 167.104 282.302ZM171.128 283.791H173.197V284.889C173.459 284.461 173.798 284.136 174.217 283.917C174.635 283.697 175.1 283.588 175.612 283.588C176.177 283.588 176.658 283.724 177.055 283.995C177.452 284.257 177.75 284.628 177.949 285.109C178.231 284.607 178.607 284.231 179.078 283.98C179.548 283.718 180.06 283.588 180.614 283.588C181.398 283.588 182.031 283.865 182.512 284.419C183.003 284.962 183.249 285.715 183.249 286.677V292.196H181.132V286.849C181.132 286.347 181.022 285.955 180.802 285.673C180.583 285.391 180.275 285.25 179.877 285.25C179.511 285.25 179.187 285.349 178.905 285.548C178.623 285.746 178.403 286.013 178.247 286.347V292.196H176.13V286.849C176.13 286.347 176.02 285.955 175.8 285.673C175.581 285.391 175.272 285.25 174.875 285.25C174.509 285.25 174.18 285.354 173.887 285.563C173.605 285.762 173.391 286.034 173.244 286.379V292.196H171.128V283.791ZM185.216 283.791H187.332V292.196H185.216V283.791ZM185.372 282.302C185.132 282.061 185.012 281.763 185.012 281.408C185.012 281.053 185.132 280.76 185.372 280.53C185.623 280.289 185.926 280.169 186.282 280.169C186.648 280.169 186.951 280.289 187.191 280.53C187.432 280.76 187.552 281.053 187.552 281.408C187.552 281.763 187.432 282.061 187.191 282.302C186.951 282.532 186.648 282.647 186.282 282.647C185.926 282.647 185.623 282.532 185.372 282.302ZM189.38 280.279H191.497V289.546C191.497 289.964 191.57 290.262 191.717 290.44C191.874 290.618 192.119 290.707 192.454 290.707C192.841 290.707 193.154 290.602 193.395 290.393L193.254 292.134C192.888 292.29 192.422 292.369 191.858 292.369C190.206 292.369 189.38 291.532 189.38 289.86V280.279ZM201.253 290.722C201.253 290.963 201.268 291.229 201.3 291.522C201.331 291.804 201.368 292.029 201.409 292.196H199.434C199.392 292.081 199.355 291.93 199.324 291.742C199.293 291.543 199.266 291.35 199.245 291.161C198.974 291.569 198.623 291.877 198.195 292.087C197.777 292.296 197.306 292.4 196.784 292.4C196.031 292.4 195.414 292.175 194.933 291.726C194.463 291.266 194.228 290.66 194.228 289.907C194.228 289.071 194.573 288.396 195.263 287.884C195.963 287.361 196.993 287.032 198.352 286.896L199.136 286.818C199.115 286.306 198.953 285.908 198.65 285.626C198.346 285.333 197.897 285.187 197.301 285.187C196.914 285.187 196.507 285.255 196.078 285.391C195.66 285.527 195.268 285.746 194.902 286.049L194.745 284.293C195.142 284.074 195.597 283.901 196.109 283.776C196.632 283.65 197.149 283.588 197.662 283.588C198.833 283.588 199.721 283.891 200.327 284.497C200.944 285.093 201.253 285.945 201.253 287.053V290.722ZM196.329 289.734C196.329 290.09 196.433 290.372 196.642 290.581C196.862 290.79 197.149 290.895 197.505 290.895C197.819 290.895 198.122 290.811 198.414 290.644C198.718 290.477 198.958 290.241 199.136 289.938V288.072L198.587 288.135C197.803 288.229 197.228 288.412 196.862 288.684C196.507 288.956 196.329 289.306 196.329 289.734ZM203.254 283.791H205.324V285.265C205.596 284.68 205.946 284.257 206.375 283.995C206.814 283.724 207.274 283.588 207.755 283.588C207.849 283.588 207.943 283.593 208.037 283.603C208.142 283.614 208.241 283.629 208.335 283.65L208.1 285.783C208.006 285.731 207.891 285.694 207.755 285.673C207.629 285.652 207.499 285.642 207.363 285.642C206.924 285.642 206.521 285.783 206.155 286.065C205.789 286.337 205.528 286.703 205.371 287.163V292.196H203.254V283.791ZM214.206 285.328H212.794V283.791H214.206V282.192L216.323 281.22V283.791H218.502V285.328H216.323V289.295C216.323 289.787 216.411 290.153 216.589 290.393C216.767 290.623 217.06 290.738 217.467 290.738C217.666 290.738 217.87 290.707 218.079 290.644C218.298 290.571 218.492 290.471 218.659 290.346L218.502 292.102C218.272 292.207 218.016 292.28 217.734 292.322C217.452 292.374 217.175 292.4 216.903 292.4C215.105 292.4 214.206 291.48 214.206 289.64V285.328ZM220.145 283.791H222.262V292.196H220.145V283.791ZM220.302 282.302C220.061 282.061 219.941 281.763 219.941 281.408C219.941 281.053 220.061 280.76 220.302 280.53C220.552 280.289 220.856 280.169 221.211 280.169C221.577 280.169 221.88 280.289 222.121 280.53C222.361 280.76 222.481 281.053 222.481 281.408C222.481 281.763 222.361 282.061 222.121 282.302C221.88 282.532 221.577 282.647 221.211 282.647C220.856 282.647 220.552 282.532 220.302 282.302ZM225.125 291.224C224.393 290.43 224.027 289.363 224.027 288.025C224.027 287.137 224.2 286.363 224.545 285.705C224.89 285.035 225.371 284.518 225.987 284.152C226.615 283.776 227.346 283.588 228.183 283.588C228.643 283.588 229.087 283.645 229.516 283.76C229.955 283.875 230.32 284.027 230.613 284.215L230.096 285.846C229.604 285.448 229.05 285.25 228.434 285.25C227.754 285.25 227.211 285.49 226.803 285.971C226.406 286.442 226.207 287.111 226.207 287.978C226.207 288.835 226.406 289.51 226.803 290.001C227.211 290.492 227.78 290.738 228.512 290.738C228.847 290.738 229.186 290.68 229.531 290.566C229.876 290.44 230.148 290.273 230.347 290.064L230.55 291.898C230.279 292.045 229.939 292.165 229.531 292.259C229.134 292.353 228.695 292.4 228.214 292.4C226.886 292.4 225.857 292.008 225.125 291.224ZM232.166 280.279H234.282V287.367C234.826 286.771 235.354 286.18 235.866 285.595C236.378 284.999 236.885 284.398 237.387 283.791H239.865C239.29 284.44 238.704 285.088 238.109 285.736C237.523 286.384 236.922 287.032 236.305 287.68C236.974 288.433 237.633 289.186 238.281 289.938C238.929 290.691 239.567 291.444 240.194 292.196H237.56C237.037 291.538 236.504 290.874 235.96 290.205C235.417 289.536 234.857 288.862 234.282 288.182V292.196H232.166V280.279ZM247.53 290.079L247.749 291.851C247.425 292.019 247.012 292.149 246.511 292.243C246.019 292.348 245.497 292.4 244.943 292.4C244.023 292.4 243.228 292.217 242.559 291.851C241.89 291.485 241.373 290.963 241.007 290.283C240.651 289.604 240.474 288.799 240.474 287.868C240.474 287.011 240.63 286.264 240.944 285.626C241.258 284.978 241.707 284.476 242.293 284.121C242.878 283.765 243.573 283.588 244.378 283.588C245.455 283.588 246.296 283.917 246.903 284.576C247.509 285.224 247.812 286.159 247.812 287.382C247.812 287.487 247.807 287.644 247.796 287.853C247.796 288.051 247.786 288.213 247.765 288.339H242.622C242.726 289.165 243.003 289.781 243.453 290.189C243.913 290.597 244.504 290.801 245.225 290.801C245.633 290.801 246.051 290.738 246.479 290.613C246.918 290.487 247.269 290.309 247.53 290.079ZM244.378 285.062C243.897 285.062 243.505 285.234 243.202 285.579C242.899 285.924 242.705 286.41 242.622 287.037H245.883C245.883 286.4 245.753 285.914 245.491 285.579C245.23 285.234 244.859 285.062 244.378 285.062ZM250.314 285.328H248.903V283.791H250.314V282.192L252.431 281.22V283.791H254.61V285.328H252.431V289.295C252.431 289.787 252.52 290.153 252.697 290.393C252.875 290.623 253.168 290.738 253.575 290.738C253.774 290.738 253.978 290.707 254.187 290.644C254.407 290.571 254.6 290.471 254.767 290.346L254.61 292.102C254.38 292.207 254.124 292.28 253.842 292.322C253.56 292.374 253.283 292.4 253.011 292.4C251.213 292.4 250.314 291.48 250.314 289.64V285.328ZM256.096 290.032C256.452 290.325 256.844 290.545 257.272 290.691C257.701 290.827 258.124 290.895 258.542 290.895C259.034 290.895 259.415 290.806 259.687 290.628C259.969 290.44 260.111 290.184 260.111 289.86C260.111 289.619 259.996 289.421 259.766 289.264C259.536 289.107 259.076 288.909 258.386 288.668C257.497 288.365 256.88 288.015 256.535 287.618C256.19 287.21 256.018 286.724 256.018 286.159C256.018 285.626 256.154 285.166 256.426 284.779C256.708 284.393 257.095 284.1 257.586 283.901C258.077 283.692 258.637 283.588 259.264 283.588C259.734 283.588 260.194 283.645 260.644 283.76C261.104 283.875 261.485 284.027 261.788 284.215L261.302 285.752C260.748 285.302 260.121 285.077 259.421 285.077C259.002 285.077 258.668 285.156 258.417 285.312C258.166 285.459 258.041 285.678 258.041 285.971C258.041 286.212 258.166 286.415 258.417 286.583C258.678 286.739 259.128 286.928 259.766 287.147C260.393 287.367 260.879 287.612 261.224 287.884C261.569 288.145 261.809 288.428 261.945 288.731C262.081 289.034 262.149 289.358 262.149 289.703C262.149 290.56 261.82 291.224 261.161 291.695C260.513 292.165 259.661 292.4 258.605 292.4C258.093 292.4 257.591 292.343 257.1 292.228C256.619 292.113 256.211 291.961 255.877 291.773L256.096 290.032ZM270.017 285.736C269.64 285.265 269.358 284.826 269.17 284.419C268.992 284.011 268.903 283.598 268.903 283.18C268.903 282.647 269.034 282.171 269.295 281.753C269.567 281.324 269.928 280.99 270.377 280.749C270.837 280.499 271.35 280.373 271.914 280.373C272.489 280.373 272.996 280.493 273.435 280.734C273.874 280.964 274.219 281.283 274.47 281.69C274.731 282.098 274.862 282.563 274.862 283.086C274.862 283.598 274.7 284.095 274.376 284.576C274.052 285.046 273.446 285.511 272.557 285.971C272.933 286.368 273.325 286.781 273.733 287.21C274.151 287.628 274.59 288.062 275.05 288.511C275.259 288.104 275.432 287.659 275.568 287.178C275.704 286.687 275.808 286.164 275.881 285.61L277.81 285.94C277.674 286.671 277.481 287.361 277.23 288.01C276.989 288.658 276.697 289.243 276.352 289.766C276.749 290.142 277.167 290.534 277.606 290.942C278.045 291.35 278.505 291.768 278.986 292.196H276.258C275.902 291.883 275.526 291.532 275.129 291.146C274.648 291.543 274.109 291.851 273.514 292.071C272.918 292.29 272.264 292.4 271.553 292.4C270.738 292.4 270.017 292.264 269.39 291.992C268.773 291.71 268.287 291.323 267.931 290.832C267.576 290.33 267.398 289.755 267.398 289.107C267.398 288.438 267.602 287.827 268.01 287.273C268.428 286.719 269.097 286.206 270.017 285.736ZM270.958 286.818C270.404 287.152 270.027 287.497 269.829 287.853C269.64 288.198 269.546 288.548 269.546 288.903C269.546 289.437 269.74 289.876 270.127 290.221C270.524 290.555 271.052 290.722 271.71 290.722C272.149 290.722 272.552 290.66 272.918 290.534C273.294 290.398 273.629 290.205 273.921 289.954C273.409 289.431 272.897 288.903 272.385 288.37C271.883 287.827 271.407 287.309 270.958 286.818ZM273.059 283.086C273.059 282.72 272.949 282.432 272.729 282.223C272.52 282.004 272.254 281.894 271.93 281.894C271.606 281.894 271.329 282.009 271.099 282.239C270.879 282.459 270.769 282.757 270.769 283.133C270.769 283.426 270.837 283.713 270.973 283.995C271.109 284.278 271.323 284.596 271.616 284.952C272.128 284.659 272.494 284.366 272.714 284.074C272.944 283.771 273.059 283.441 273.059 283.086ZM290.528 290.722C290.528 290.963 290.544 291.229 290.575 291.522C290.606 291.804 290.643 292.029 290.685 292.196H288.709C288.667 292.081 288.631 291.93 288.599 291.742C288.568 291.543 288.542 291.35 288.521 291.161C288.249 291.569 287.899 291.877 287.47 292.087C287.052 292.296 286.582 292.4 286.059 292.4C285.306 292.4 284.69 292.175 284.209 291.726C283.738 291.266 283.503 290.66 283.503 289.907C283.503 289.071 283.848 288.396 284.538 287.884C285.238 287.361 286.268 287.032 287.627 286.896L288.411 286.818C288.39 286.306 288.228 285.908 287.925 285.626C287.622 285.333 287.172 285.187 286.576 285.187C286.19 285.187 285.782 285.255 285.353 285.391C284.935 285.527 284.543 285.746 284.177 286.049L284.021 284.293C284.418 284.074 284.873 283.901 285.385 283.776C285.907 283.65 286.425 283.588 286.937 283.588C288.108 283.588 288.997 283.891 289.603 284.497C290.22 285.093 290.528 285.945 290.528 287.053V290.722ZM285.604 289.734C285.604 290.09 285.709 290.372 285.918 290.581C286.137 290.79 286.425 290.895 286.78 290.895C287.094 290.895 287.397 290.811 287.69 290.644C287.993 290.477 288.233 290.241 288.411 289.938V288.072L287.862 288.135C287.078 288.229 286.503 288.412 286.137 288.684C285.782 288.956 285.604 289.306 285.604 289.734ZM292.373 290.032C292.728 290.325 293.12 290.545 293.549 290.691C293.978 290.827 294.401 290.895 294.819 290.895C295.311 290.895 295.692 290.806 295.964 290.628C296.246 290.44 296.387 290.184 296.387 289.86C296.387 289.619 296.272 289.421 296.042 289.264C295.812 289.107 295.352 288.909 294.662 288.668C293.774 288.365 293.157 288.015 292.812 287.618C292.467 287.21 292.295 286.724 292.295 286.159C292.295 285.626 292.431 285.166 292.702 284.779C292.985 284.393 293.371 284.1 293.863 283.901C294.354 283.692 294.913 283.588 295.541 283.588C296.011 283.588 296.471 283.645 296.92 283.76C297.38 283.875 297.762 284.027 298.065 284.215L297.579 285.752C297.025 285.302 296.398 285.077 295.697 285.077C295.279 285.077 294.945 285.156 294.694 285.312C294.443 285.459 294.317 285.678 294.317 285.971C294.317 286.212 294.443 286.415 294.694 286.583C294.955 286.739 295.405 286.928 296.042 287.147C296.67 287.367 297.156 287.612 297.501 287.884C297.846 288.145 298.086 288.428 298.222 288.731C298.358 289.034 298.426 289.358 298.426 289.703C298.426 290.56 298.096 291.224 297.438 291.695C296.79 292.165 295.938 292.4 294.882 292.4C294.37 292.4 293.868 292.343 293.377 292.228C292.896 292.113 292.488 291.961 292.154 291.773L292.373 290.032ZM299.968 290.032C300.324 290.325 300.716 290.545 301.144 290.691C301.573 290.827 301.996 290.895 302.415 290.895C302.906 290.895 303.287 290.806 303.559 290.628C303.841 290.44 303.983 290.184 303.983 289.86C303.983 289.619 303.868 289.421 303.638 289.264C303.408 289.107 302.948 288.909 302.258 288.668C301.369 288.365 300.752 288.015 300.407 287.618C300.062 287.21 299.89 286.724 299.89 286.159C299.89 285.626 300.026 285.166 300.298 284.779C300.58 284.393 300.967 284.1 301.458 283.901C301.949 283.692 302.509 283.588 303.136 283.588C303.606 283.588 304.066 283.645 304.516 283.76C304.976 283.875 305.357 284.027 305.66 284.215L305.174 285.752C304.62 285.302 303.993 285.077 303.293 285.077C302.874 285.077 302.54 285.156 302.289 285.312C302.038 285.459 301.913 285.678 301.913 285.971C301.913 286.212 302.038 286.415 302.289 286.583C302.55 286.739 303 286.928 303.638 287.147C304.265 287.367 304.751 287.612 305.096 287.884C305.441 288.145 305.681 288.428 305.817 288.731C305.953 289.034 306.021 289.358 306.021 289.703C306.021 290.56 305.692 291.224 305.033 291.695C304.385 292.165 303.533 292.4 302.477 292.4C301.965 292.4 301.463 292.343 300.972 292.228C300.491 292.113 300.083 291.961 299.749 291.773L299.968 290.032ZM307.72 283.791H309.837V292.196H307.72V283.791ZM307.877 282.302C307.637 282.061 307.517 281.763 307.517 281.408C307.517 281.053 307.637 280.76 307.877 280.53C308.128 280.289 308.431 280.169 308.787 280.169C309.153 280.169 309.456 280.289 309.696 280.53C309.937 280.76 310.057 281.053 310.057 281.408C310.057 281.763 309.937 282.061 309.696 282.302C309.456 282.532 309.153 282.647 308.787 282.647C308.431 282.647 308.128 282.532 307.877 282.302ZM319.475 291.271C319.475 292.703 319.093 293.817 318.33 294.611C317.567 295.406 316.438 295.803 314.943 295.803C314.462 295.803 313.981 295.751 313.5 295.646C313.03 295.541 312.612 295.39 312.246 295.191L312.434 293.341C312.789 293.634 313.176 293.838 313.594 293.953C314.023 294.078 314.441 294.141 314.849 294.141C315.696 294.141 316.323 293.921 316.731 293.482C317.149 293.043 317.358 292.416 317.358 291.6V291.099C317.117 291.485 316.788 291.789 316.37 292.008C315.962 292.217 315.497 292.322 314.974 292.322C313.95 292.322 313.129 291.935 312.512 291.161C311.906 290.388 311.603 289.322 311.603 287.963C311.603 287.064 311.739 286.29 312.011 285.642C312.293 284.983 312.685 284.476 313.187 284.121C313.699 283.765 314.295 283.588 314.974 283.588C315.518 283.588 315.999 283.708 316.417 283.948C316.835 284.178 317.164 284.497 317.405 284.905V283.791H319.475V291.271ZM315.633 285.234C315.047 285.234 314.593 285.475 314.269 285.955C313.945 286.436 313.783 287.105 313.783 287.963C313.783 288.82 313.945 289.489 314.269 289.97C314.593 290.44 315.042 290.675 315.617 290.675C316.014 290.675 316.365 290.576 316.668 290.377C316.971 290.168 317.201 289.891 317.358 289.546V286.379C317.201 286.023 316.971 285.746 316.668 285.548C316.365 285.339 316.02 285.234 315.633 285.234ZM321.456 283.791H323.526V284.889C323.787 284.461 324.132 284.136 324.561 283.917C325 283.697 325.476 283.588 325.988 283.588C326.814 283.588 327.483 283.865 327.995 284.419C328.507 284.962 328.763 285.715 328.763 286.677V292.196H326.647V286.849C326.647 286.347 326.526 285.955 326.286 285.673C326.045 285.391 325.711 285.25 325.282 285.25C324.906 285.25 324.566 285.354 324.263 285.563C323.96 285.762 323.73 286.034 323.573 286.379V292.196H321.456V283.791ZM335.149 285.328H333.737V283.791H335.149V282.192L337.265 281.22V283.791H339.445V285.328H337.265V289.295C337.265 289.787 337.354 290.153 337.532 290.393C337.71 290.623 338.002 290.738 338.41 290.738C338.609 290.738 338.813 290.707 339.022 290.644C339.241 290.571 339.435 290.471 339.602 290.346L339.445 292.102C339.215 292.207 338.959 292.28 338.677 292.322C338.394 292.374 338.117 292.4 337.846 292.4C336.048 292.4 335.149 291.48 335.149 289.64V285.328ZM341.137 290.236C340.844 289.546 340.698 288.757 340.698 287.868C340.698 287.022 340.849 286.279 341.153 285.642C341.456 284.994 341.905 284.492 342.501 284.136C343.107 283.771 343.865 283.588 344.775 283.588C345.684 283.588 346.437 283.771 347.033 284.136C347.639 284.492 348.094 284.994 348.397 285.642C348.7 286.279 348.852 287.022 348.852 287.868C348.852 288.757 348.7 289.546 348.397 290.236C348.104 290.916 347.655 291.449 347.049 291.836C346.453 292.212 345.695 292.4 344.775 292.4C343.855 292.4 343.092 292.212 342.485 291.836C341.89 291.449 341.44 290.916 341.137 290.236ZM346.672 287.868C346.672 287.043 346.51 286.394 346.186 285.924C345.872 285.454 345.402 285.218 344.775 285.218C344.148 285.218 343.672 285.454 343.348 285.924C343.034 286.394 342.877 287.043 342.877 287.868C342.877 288.767 343.034 289.478 343.348 290.001C343.672 290.513 344.148 290.769 344.775 290.769C345.402 290.769 345.872 290.513 346.186 290.001C346.51 289.478 346.672 288.767 346.672 287.868ZM355.056 285.328H353.644V283.791H355.056V282.192L357.172 281.22V283.791H359.352V285.328H357.172V289.295C357.172 289.787 357.261 290.153 357.439 290.393C357.617 290.623 357.909 290.738 358.317 290.738C358.516 290.738 358.72 290.707 358.929 290.644C359.148 290.571 359.342 290.471 359.509 290.346L359.352 292.102C359.122 292.207 358.866 292.28 358.584 292.322C358.301 292.374 358.024 292.4 357.753 292.4C355.955 292.4 355.056 291.48 355.056 289.64V285.328ZM367.661 290.079L367.881 291.851C367.557 292.019 367.144 292.149 366.642 292.243C366.151 292.348 365.628 292.4 365.074 292.4C364.154 292.4 363.359 292.217 362.69 291.851C362.021 291.485 361.504 290.963 361.138 290.283C360.783 289.604 360.605 288.799 360.605 287.868C360.605 287.011 360.762 286.264 361.075 285.626C361.389 284.978 361.838 284.476 362.424 284.121C363.009 283.765 363.704 283.588 364.509 283.588C365.586 283.588 366.428 283.917 367.034 284.576C367.64 285.224 367.943 286.159 367.943 287.382C367.943 287.487 367.938 287.644 367.928 287.853C367.928 288.051 367.917 288.213 367.896 288.339H362.753C362.858 289.165 363.135 289.781 363.584 290.189C364.044 290.597 364.635 290.801 365.356 290.801C365.764 290.801 366.182 290.738 366.611 290.613C367.05 290.487 367.4 290.309 367.661 290.079ZM364.509 285.062C364.029 285.062 363.636 285.234 363.333 285.579C363.03 285.924 362.837 286.41 362.753 287.037H366.015C366.015 286.4 365.884 285.914 365.623 285.579C365.361 285.234 364.99 285.062 364.509 285.062ZM376.404 290.722C376.404 290.963 376.42 291.229 376.451 291.522C376.482 291.804 376.519 292.029 376.561 292.196H374.585C374.543 292.081 374.506 291.93 374.475 291.742C374.444 291.543 374.418 291.35 374.397 291.161C374.125 291.569 373.775 291.877 373.346 292.087C372.928 292.296 372.458 292.4 371.935 292.4C371.182 292.4 370.565 292.175 370.085 291.726C369.614 291.266 369.379 290.66 369.379 289.907C369.379 289.071 369.724 288.396 370.414 287.884C371.114 287.361 372.144 287.032 373.503 286.896L374.287 286.818C374.266 286.306 374.104 285.908 373.801 285.626C373.498 285.333 373.048 285.187 372.452 285.187C372.066 285.187 371.658 285.255 371.229 285.391C370.811 285.527 370.419 285.746 370.053 286.049L369.896 284.293C370.294 284.074 370.748 283.901 371.261 283.776C371.783 283.65 372.301 283.588 372.813 283.588C373.984 283.588 374.872 283.891 375.479 284.497C376.095 285.093 376.404 285.945 376.404 287.053V290.722ZM371.48 289.734C371.48 290.09 371.585 290.372 371.794 290.581C372.013 290.79 372.301 290.895 372.656 290.895C372.97 290.895 373.273 290.811 373.566 290.644C373.869 290.477 374.109 290.241 374.287 289.938V288.072L373.738 288.135C372.954 288.229 372.379 288.412 372.013 288.684C371.658 288.956 371.48 289.306 371.48 289.734ZM378.406 283.791H380.476V284.889C380.737 284.461 381.077 284.136 381.495 283.917C381.913 283.697 382.378 283.588 382.89 283.588C383.455 283.588 383.936 283.724 384.333 283.995C384.73 284.257 385.028 284.628 385.227 285.109C385.509 284.607 385.885 284.231 386.356 283.98C386.826 283.718 387.338 283.588 387.892 283.588C388.677 283.588 389.309 283.865 389.79 284.419C390.281 284.962 390.527 285.715 390.527 286.677V292.196H388.41V286.849C388.41 286.347 388.3 285.955 388.081 285.673C387.861 285.391 387.553 285.25 387.155 285.25C386.79 285.25 386.466 285.349 386.183 285.548C385.901 285.746 385.682 286.013 385.525 286.347V292.196H383.408V286.849C383.408 286.347 383.298 285.955 383.079 285.673C382.859 285.391 382.551 285.25 382.153 285.25C381.787 285.25 381.458 285.354 381.165 285.563C380.883 285.762 380.669 286.034 380.523 286.379V292.196H378.406V283.791Z" fill="#2A3241"/>
<rect x="99.6659" y="239.713" width="66.5273" height="24.3787" rx="5.94563" fill="white"/>
<rect x="99.6659" y="239.713" width="66.5273" height="24.3787" rx="5.94563" stroke="#D3D5D9" stroke-width="0.792751"/>
<path d="M117.561 255.885H113.578V259.868H117.561V255.885Z" fill="#FFD046"/>
<path d="M121.545 251.903V255.885H109.597C108.497 255.885 107.605 254.994 107.605 253.894C107.606 252.794 108.497 251.903 109.597 251.903H121.545Z" fill="#1C91FF"/>
<path fill-rule="evenodd" clip-rule="evenodd" d="M105.613 255.885H109.596C109.596 255.885 109.596 255.885 109.596 255.885C110.696 255.885 111.587 256.777 111.587 257.877C111.587 258.976 110.696 259.868 109.596 259.868C109.596 259.868 109.596 259.868 109.596 259.868H105.613V255.885Z" fill="#7AC6FF"/>
<path d="M109.596 251.903C111.796 251.903 113.579 250.12 113.579 247.92C113.579 245.72 111.796 243.937 109.596 243.937C107.396 243.937 105.613 245.72 105.613 247.92C105.613 250.12 107.396 251.903 109.596 251.903Z" fill="#BCDE81"/>
<path d="M117.561 251.903C119.76 251.903 121.544 250.12 121.544 247.92C121.544 245.72 119.76 243.937 117.561 243.937C115.361 243.937 113.578 245.72 113.578 247.92C113.578 250.12 115.361 251.903 117.561 251.903Z" fill="#F8A6B4"/>
<path d="M109.596 243.937H105.613V251.903H109.596V243.937Z" fill="#6AA668"/>
<path d="M121.544 243.937H113.578V247.92H121.544V243.937Z" fill="#ED756C"/>
<path d="M129.081 246.872H131.886C133.136 246.872 134.179 247.098 135.015 247.549C135.851 247.991 136.481 248.606 136.904 249.395C137.327 250.175 137.538 251.073 137.538 252.088C137.538 253.102 137.327 254.005 136.904 254.794C136.481 255.574 135.851 256.189 135.015 256.64C134.179 257.091 133.136 257.317 131.886 257.317H129.081V246.872ZM131.068 248.423V255.766H132.097C133.206 255.766 134.042 255.438 134.606 254.78C135.17 254.113 135.452 253.22 135.452 252.102C135.452 250.974 135.17 250.081 134.606 249.424C134.042 248.756 133.206 248.423 132.097 248.423H131.068ZM143.731 249.762H145.619V257.317H143.773V256.316C143.529 256.72 143.209 257.021 142.814 257.218C142.429 257.406 142.011 257.5 141.56 257.5C140.818 257.5 140.216 257.256 139.756 256.767C139.305 256.279 139.079 255.597 139.079 254.723V249.762H140.982V254.582C140.982 255.024 141.085 255.372 141.292 255.625C141.508 255.879 141.809 256.006 142.194 256.006C142.523 256.006 142.824 255.917 143.096 255.738C143.378 255.55 143.59 255.301 143.731 254.991V249.762ZM147.351 255.372C147.67 255.635 148.023 255.832 148.408 255.964C148.793 256.086 149.174 256.147 149.55 256.147C149.991 256.147 150.334 256.067 150.579 255.907C150.832 255.738 150.959 255.508 150.959 255.217C150.959 255.001 150.856 254.822 150.649 254.681C150.442 254.54 150.029 254.362 149.409 254.145C148.61 253.873 148.056 253.558 147.746 253.201C147.435 252.835 147.28 252.398 147.28 251.89C147.28 251.411 147.403 250.998 147.647 250.65C147.901 250.302 148.248 250.039 148.69 249.861C149.132 249.673 149.634 249.579 150.198 249.579C150.621 249.579 151.034 249.63 151.439 249.734C151.852 249.837 152.195 249.973 152.467 250.142L152.031 251.524C151.532 251.12 150.969 250.918 150.339 250.918C149.963 250.918 149.663 250.988 149.437 251.129C149.211 251.261 149.099 251.458 149.099 251.721C149.099 251.937 149.211 252.12 149.437 252.271C149.672 252.412 150.076 252.581 150.649 252.778C151.213 252.976 151.65 253.196 151.96 253.441C152.27 253.676 152.486 253.929 152.608 254.202C152.731 254.474 152.792 254.766 152.792 255.076C152.792 255.846 152.496 256.443 151.904 256.866C151.321 257.289 150.555 257.5 149.606 257.5C149.146 257.5 148.695 257.448 148.253 257.345C147.821 257.242 147.454 257.105 147.154 256.936L147.351 255.372ZM154.996 251.143H153.727V249.762H154.996V248.324L156.899 247.45V249.762H158.858V251.143H156.899V254.709C156.899 255.151 156.978 255.48 157.138 255.696C157.298 255.903 157.561 256.006 157.928 256.006C158.106 256.006 158.289 255.978 158.477 255.921C158.675 255.856 158.848 255.766 158.999 255.654L158.858 257.232C158.651 257.326 158.421 257.392 158.167 257.43C157.913 257.477 157.664 257.5 157.42 257.5C155.804 257.5 154.996 256.673 154.996 255.019V251.143Z" fill="black"/>
<line x1="268.046" y1="182.055" x2="268.046" y2="228.034" stroke="#4D3EB8" stroke-width="1.09906"/>
<line x1="268.046" y1="308.987" x2="268.046" y2="350.94" stroke="#4D3EB8" stroke-width="1.09906"/>
</svg>
