<svg width="24" height="25" viewBox="0 0 24 25" fill="none" xmlns="http://www.w3.org/2000/svg">
<path d="M12.25 2.125V4.625H12C7.71977 4.625 4.25 8.09479 4.25 12.375C4.25 16.6552 7.71977 20.125 12 20.125C16.2802 20.125 19.75 16.6552 19.75 12.375C19.75 10.0702 18.742 8.00295 17.1445 6.58301L15.1768 8.55176L14.75 8.97852V2.125H21.6035L21.1768 2.55176L18.9141 4.81348C20.9622 6.68725 22.25 9.3797 22.25 12.375C22.25 18.0359 17.661 22.625 12 22.625C6.33913 22.625 1.75 18.0359 1.75 12.375C1.75 6.71408 6.33913 2.125 12 2.125H12.25Z" fill="#111418" stroke="#111418" stroke-width="0.5"/>
</svg>
