<svg width="24" height="24" viewBox="0 0 24 24" fill="none" xmlns="http://www.w3.org/2000/svg">
<path d="M17.0621 20.7589C14.9618 21.6181 13.0048 22 10.9523 22C4.62768 22 1 18.778 1 13.1456C1 6.43914 5.6778 2 12.7184 2C18.8282 2 22.957 5.34129 22.957 10.401C22.957 14.6492 20.7375 17.1313 17.4916 17.1313C15.8449 17.1313 14.747 16.4391 14.2697 15.3413C13.4821 16.5107 11.9785 17.2745 10.6181 17.2745C7.92124 17.2745 6.29833 15.58 6.29833 12.7399C6.29833 9.32697 8.27924 6.94033 11.1193 6.94033C12.4081 6.94033 13.4821 7.36993 14.1026 8.10978L14.1981 7.15513H17.5394L17.0621 11.6659C16.9905 12.4296 16.9189 13.1933 16.9189 13.6945C16.9189 14.2673 17.3723 14.6492 18.0167 14.6492C19.4487 14.6492 20.3317 13.3126 20.3317 10.8305C20.3317 6.48687 17.8258 4.38664 12.5752 4.38664C7.25298 4.38664 3.6253 7.77566 3.6253 12.9308C3.6253 17.1313 6.3222 19.6134 11.0477 19.6134C13.0764 19.6134 14.5322 19.3508 16.4177 18.5632L17.0621 20.7589ZM11.6683 14.4105C12.8138 14.4105 13.6014 13.3365 13.6014 11.8091C13.6014 10.5442 13.0286 9.8043 12.0501 9.8043C10.9045 9.8043 10.1169 10.8783 10.1169 12.4296C10.1169 13.6706 10.6897 14.4105 11.6683 14.4105Z" fill="#111418"/>
</svg>
