<svg width="24" height="24" viewBox="0 0 24 24" fill="none" xmlns="http://www.w3.org/2000/svg">
<path d="M16.609 19.8831C14.6959 20.6563 12.9133 21 11.0437 21C5.28286 21 1.97852 18.1002 1.97852 13.031C1.97852 6.99523 6.23939 3 12.6524 3C18.2176 3 21.9785 6.00716 21.9785 10.5609C21.9785 14.3842 19.9568 16.6181 17.0003 16.6181C15.5003 16.6181 14.5003 15.9952 14.0655 15.0072C13.3481 16.0597 11.9785 16.747 10.7394 16.747C8.28286 16.747 6.8046 15.222 6.8046 12.6659C6.8046 9.59427 8.60895 7.4463 11.1959 7.4463C12.3698 7.4463 13.3481 7.83294 13.9133 8.49881L14.0003 7.63962H17.0437L16.609 11.6993C16.5437 12.3866 16.4785 13.074 16.4785 13.5251C16.4785 14.0406 16.8916 14.3842 17.4785 14.3842C18.7829 14.3842 19.5872 13.1814 19.5872 10.9475C19.5872 7.03819 17.3046 5.14797 12.522 5.14797C7.67417 5.14797 4.36982 8.19809 4.36982 12.8377C4.36982 16.6181 6.82634 18.852 11.1307 18.852C12.9785 18.852 14.3046 18.6158 16.022 17.9069L16.609 19.8831ZM11.6959 14.1695C12.7394 14.1695 13.4568 13.2029 13.4568 11.8282C13.4568 10.6897 12.935 10.0239 12.0437 10.0239C11.0003 10.0239 10.2829 10.9905 10.2829 12.3866C10.2829 13.5036 10.8046 14.1695 11.6959 14.1695Z" fill="#111418"/>
</svg>
