<svg width="24" height="24" viewBox="0 0 24 24" fill="none" xmlns="http://www.w3.org/2000/svg">
<path fill-rule="evenodd" clip-rule="evenodd" d="M14.9736 2.27191C15.8053 2.0254 16.707 2.00589 17.5 2.46135C18.2929 2.91687 18.7266 3.70355 18.9277 4.54328C19.1282 5.38037 19.1243 6.36118 18.9746 7.39464C18.9464 7.58969 18.9102 7.78801 18.8711 7.99017C19.0671 8.05774 19.258 8.12667 19.4424 8.20002C20.4168 8.58777 21.2729 9.07483 21.9014 9.66602C22.5317 10.2592 22.9998 11.0266 23 11.9374C23 12.8483 22.5317 13.6156 21.9014 14.2088C21.2729 14.8 20.4169 15.287 19.4424 15.6748C19.2581 15.7481 19.0671 15.8171 18.8711 15.8846C18.9102 16.0871 18.9463 16.2858 18.9746 16.4811C19.1243 17.5146 19.1282 18.4954 18.9277 19.3325C18.7266 20.1722 18.293 20.9589 17.5 21.4144C16.707 21.8699 15.8053 21.8503 14.9736 21.6038C14.1447 21.358 13.2926 20.8642 12.4678 20.2185C12.312 20.0965 12.1566 19.9667 12 19.8318C11.8434 19.9667 11.688 20.0965 11.5322 20.2185C10.7074 20.8642 9.85531 21.358 9.02637 21.6038C8.19474 21.8503 7.29299 21.8699 6.5 21.4144C5.70704 20.9589 5.27345 20.1722 5.07227 19.3325C4.87178 18.4954 4.87572 17.5146 5.02539 16.4811C5.05367 16.2858 5.0888 16.087 5.12793 15.8846C4.93227 15.8171 4.74165 15.748 4.55762 15.6748C3.58313 15.287 2.72709 14.8 2.09863 14.2088C1.46826 13.6156 1 12.8483 1 11.9374C1.00015 11.0266 1.46825 10.2592 2.09863 9.66602C2.7271 9.07483 3.58318 8.58777 4.55762 8.20002C4.74169 8.12678 4.93223 8.05765 5.12793 7.99017C5.08887 7.78807 5.05363 7.58963 5.02539 7.39464C4.87572 6.36118 4.8718 5.38037 5.07227 4.54328C5.27344 3.70355 5.70707 2.91687 6.5 2.46135C7.29299 2.00589 8.19474 2.0254 9.02637 2.27191C9.85532 2.51773 10.7074 3.01159 11.5322 3.65727C11.6879 3.77912 11.8436 3.90823 12 4.04296C12.1564 3.90823 12.3121 3.77912 12.4678 3.65727C13.2926 3.01158 14.1447 2.51773 14.9736 2.27191ZM7.06055 16.416C7.03945 16.5339 7.02139 16.6499 7.00488 16.7638C6.87662 17.6494 6.89522 18.3611 7.01758 18.872C7.13928 19.3794 7.33666 19.5981 7.5 19.6919C7.66339 19.7857 7.95245 19.8467 8.45508 19.6978C8.96101 19.5477 9.58906 19.2077 10.2959 18.6544C10.3866 18.5833 10.4775 18.5088 10.5693 18.4319C10.1047 17.921 9.64666 17.3602 9.20117 16.758C8.45436 16.6752 7.73747 16.5609 7.06055 16.416ZM16.9385 16.416C16.2615 16.5609 15.5447 16.6753 14.7979 16.758C14.3523 17.3602 13.8944 17.921 13.4297 18.4319C13.5217 18.509 13.6132 18.5832 13.7041 18.6544C14.4109 19.2077 15.039 19.5477 15.5449 19.6978C16.0476 19.8467 16.3366 19.7857 16.5 19.6919C16.6633 19.5981 16.8607 19.3795 16.9824 18.872C17.1048 18.3611 17.1234 17.6494 16.9951 16.7638C16.9786 16.6499 16.9596 16.5339 16.9385 16.416ZM12 16.9115C11.9619 16.9115 11.9238 16.9097 11.8857 16.9095C11.9235 16.9523 11.9612 16.9948 11.999 17.0368C12.037 16.9947 12.0753 16.9525 12.1133 16.9095C12.0756 16.9097 12.0378 16.9115 12 16.9115ZM12 8.95293C11.4183 8.95293 10.8509 8.97514 10.3018 9.01414C9.9938 9.46701 9.69271 9.94487 9.40234 10.4452C9.1119 10.9456 8.84581 11.4445 8.60547 11.9364C8.84608 12.429 9.11148 12.9284 9.40234 13.4296C9.69267 13.9299 9.99384 14.4078 10.3018 14.8606C10.8509 14.8996 11.4183 14.9218 12 14.9218C12.5814 14.9218 13.1484 14.8996 13.6973 14.8606C14.0053 14.4077 14.3072 13.93 14.5977 13.4296C14.8884 12.9286 15.153 12.4289 15.3936 11.9364C15.1533 11.4446 14.888 10.9455 14.5977 10.4452C14.3072 9.9447 14.0053 9.46714 13.6973 9.01414C13.1485 8.97519 12.5814 8.95293 12 8.95293ZM16.3301 14.4244C16.311 14.4573 16.2907 14.4898 16.2715 14.5226C16.3279 14.5113 16.3838 14.4992 16.4395 14.4876C16.4217 14.4338 16.4042 14.3796 16.3857 14.3253C16.3669 14.3582 16.3491 14.3916 16.3301 14.4244ZM7.55957 14.4876C7.61519 14.4992 7.6712 14.5104 7.72754 14.5216C7.70858 14.4892 7.68878 14.4569 7.66992 14.4244C7.6508 14.3915 7.63222 14.3583 7.61328 14.3253C7.59484 14.3796 7.57728 14.4338 7.55957 14.4876ZM18.3682 9.92152C18.1558 10.5773 17.8972 11.2524 17.5957 11.9374C17.897 12.622 18.1558 13.2968 18.3682 13.9523C18.4812 13.9116 18.5919 13.8706 18.6992 13.8279C19.5342 13.4956 20.1438 13.124 20.5273 12.7632C20.9083 12.4045 21 12.125 21 11.9374C20.9999 11.7497 20.9082 11.4701 20.5273 11.1116C20.1438 10.7508 19.5342 10.3791 18.6992 10.0468C18.5918 10.0041 18.4814 9.9623 18.3682 9.92152ZM5.63086 9.92152C5.51795 9.9622 5.40796 10.0042 5.30078 10.0468C4.46585 10.3791 3.85624 10.7508 3.47266 11.1116C3.09178 11.4701 3.00014 11.7497 3 11.9374C3 12.125 3.09166 12.4045 3.47266 12.7632C3.8562 13.124 4.46576 13.4956 5.30078 13.8279C5.40782 13.8705 5.51811 13.9117 5.63086 13.9523C5.84322 13.2968 6.102 12.622 6.40332 11.9374C6.10189 11.2525 5.84324 10.5773 5.63086 9.92152ZM7.55957 9.3872C7.57719 9.44073 7.59495 9.49453 7.61328 9.54846C7.63201 9.51587 7.65101 9.48292 7.66992 9.45034C7.68884 9.41775 7.70852 9.38564 7.72754 9.35319C7.67121 9.36441 7.61518 9.37557 7.55957 9.3872ZM16.3301 9.45034C16.3489 9.48278 16.3671 9.51602 16.3857 9.54846C16.4041 9.49452 16.4218 9.44073 16.4395 9.3872C16.3838 9.37556 16.3279 9.36344 16.2715 9.35222C16.2907 9.38505 16.3109 9.41736 16.3301 9.45034ZM8.45508 4.178C7.9524 4.02906 7.66338 4.09002 7.5 4.18383C7.33665 4.27765 7.13928 4.49624 7.01758 5.00378C6.89522 5.51467 6.87662 6.22631 7.00488 7.11194C7.02135 7.22552 7.03952 7.34123 7.06055 7.45876C7.73748 7.3139 8.45436 7.19857 9.20117 7.11582C9.64668 6.51367 10.1047 5.95278 10.5693 5.44192C10.4778 5.36528 10.3863 5.29216 10.2959 5.22139C9.58906 4.66808 8.96101 4.32803 8.45508 4.178ZM16.5 4.18383C16.3366 4.09002 16.0476 4.02906 15.5449 4.178C15.039 4.32803 14.4109 4.66808 13.7041 5.22139C13.6135 5.29231 13.5214 5.36511 13.4297 5.44192C13.8944 5.95278 14.3523 6.51366 14.7979 7.11582C15.5447 7.19854 16.2615 7.31393 16.9385 7.45876C16.9595 7.34118 16.9786 7.22558 16.9951 7.11194C17.1234 6.22631 17.1048 5.51467 16.9824 5.00378C16.8607 4.49624 16.6634 4.27765 16.5 4.18383ZM11.8867 6.96427C11.9244 6.96411 11.9622 6.9633 12 6.9633C12.0375 6.9633 12.0749 6.96411 12.1123 6.96427C12.0745 6.92148 12.0368 6.87897 11.999 6.837C11.9614 6.87881 11.9244 6.92164 11.8867 6.96427Z" fill="#111418"/>
</svg>
