<svg width="24" height="24" viewBox="0 0 24 24" fill="none" xmlns="http://www.w3.org/2000/svg">
<path d="M10.2324 3.16121C12.3803 1.01332 15.8628 1.01332 18.0107 3.16121C20.1585 5.30909 20.1585 8.7915 18.0107 10.9394L12.3538 16.5962C10.987 17.9631 8.77085 17.9631 7.40403 16.5962C6.03719 15.2294 6.03719 13.0133 7.40403 11.6464L13.4144 5.63609L15.5358 7.75739L9.37983 13.9198C9.1866 14.1132 9.18668 14.4267 9.38001 14.62C9.57334 14.8133 9.88675 14.8134 10.0802 14.6202L15.8893 8.81807C16.8656 7.84176 16.8656 6.25885 15.8894 5.28253C14.913 4.30621 13.3301 4.30621 12.3537 5.28253L6.69692 10.9394C4.93957 12.6967 4.93956 15.546 6.69692 17.3033C8.45428 19.0607 11.3035 19.0607 13.0608 17.3033L19.0713 11.2929L21.1926 13.4143L15.1823 19.4247C12.2533 22.3536 7.50454 22.3536 4.5756 19.4247C1.64667 16.4957 1.64667 11.747 4.5756 8.81806L10.2324 3.16121Z" fill="#020617"/>
</svg>
