<svg width="24" height="24" viewBox="0 0 24 24" fill="none" xmlns="http://www.w3.org/2000/svg">
<path d="M6 20V4H11.6898C15.3904 4 17.3583 5.32958 17.3583 8.32676C17.3583 10.2197 16.2674 11.4817 14.3636 11.7296C16.6952 11.9775 18 13.4197 18 15.6056C18 18.5352 16.0107 20 12.4599 20H6ZM8.78075 10.7155H11.6043C13.4225 10.7155 14.5134 9.97183 14.5134 8.59718C14.5134 7.15493 13.4866 6.47887 11.6043 6.47887H8.78075V10.7155ZM8.78075 17.5211H12.3316C14.0642 17.5211 15.1551 16.7549 15.1551 15.2901C15.1551 13.8028 14.0856 13.0141 12.3316 13.0141H8.78075V17.5211Z" fill="#111418"/>
</svg>
