<svg width="24" height="24" viewBox="0 0 24 24" fill="none" xmlns="http://www.w3.org/2000/svg">
<path d="M5 21V3H11.6381C15.9554 3 18.2513 4.49577 18.2513 7.86761C18.2513 9.99718 16.9786 11.4169 14.7576 11.6958C17.4777 11.9746 19 13.5972 19 16.0563C19 19.3521 16.6791 21 12.5365 21H5ZM8.24421 10.5549H11.5383C13.6595 10.5549 14.9323 9.71831 14.9323 8.17183C14.9323 6.5493 13.7344 5.78873 11.5383 5.78873H8.24421V10.5549ZM8.24421 18.2113H12.3868C14.4082 18.2113 15.6809 17.3493 15.6809 15.7014C15.6809 14.0282 14.4332 13.1408 12.3868 13.1408H8.24421V18.2113Z" fill="#111418"/>
</svg>
