<svg width="24" height="24" viewBox="0 0 24 24" fill="none" xmlns="http://www.w3.org/2000/svg">
<path d="M9.00132 3H15.0013L17.0013 5H21.5013C22.0536 5 22.0013 4.94772 22.0013 5.5V20.5C22.0013 21.0523 22.0536 21 21.5013 21H2.50134C1.94906 21 2.00132 21.0523 2.00132 20.5V5.5C2.00132 4.94772 1.94906 5 2.50134 5H7.00132L9.00132 3ZM12.0013 19C15.315 19 18.0013 16.3137 18.0013 13C18.0013 9.68629 15.315 7 12.0013 7C8.68761 7 6.00132 9.68629 6.00132 13C6.00132 16.3137 8.68761 19 12.0013 19ZM12.0013 17C9.79218 17 8.00132 15.2091 8.00132 13C8.00132 10.7909 9.79218 9 12.0013 9C14.2104 9 16.0013 10.7909 16.0013 13C16.0013 15.2091 14.2104 17 12.0013 17Z" fill="#020617"/>
</svg>
