<svg width="24" height="24" viewBox="0 0 24 24" fill="none" xmlns="http://www.w3.org/2000/svg">
<path fill-rule="evenodd" clip-rule="evenodd" d="M7.2 20C7.83817 19.7382 8.51254 19.4578 9.2 19.1523C9.99269 18.8 10.8028 18.4143 11.5949 17.985C12.2817 18.7774 13.0981 19.3835 13.85 19.8462C14.6074 20.3122 15.5614 20.7783 16.4 21.1571C17.4991 21.6535 18.4 22 18.4 22V19.4872C21.55 19.4872 24 16.9157 24 13.7436C24 10.5715 21.4928 8 18.4 8H17.8736C17.2417 4.58342 14.315 2 10.8 2H7.2C3.22353 2 0 5.3062 0 9.38462C0 13.463 3.22353 16.7692 7.2 16.7692V20ZM18.4 17.4872H16.4V18.9494C15.8564 18.6855 15.3299 18.4085 14.8982 18.1428C13.355 17.1932 12 15.8654 12 13.7436C12 11.628 13.6592 10 15.6 10H18.4C20.3408 10 22 11.628 22 13.7436C22 15.8727 20.3848 17.4872 18.4 17.4872Z" fill="#020617"/>
</svg>
