<svg width="24" height="25" viewBox="0 0 24 25" fill="none" xmlns="http://www.w3.org/2000/svg">
<path d="M3.41436 8.0312L5.70726 5.72637L4.29304 4.30479L0.585938 8.0312L4.29304 11.7576L5.70726 10.336L3.41436 8.0312ZM9.58594 8.0312L7.29304 5.72637L8.70726 4.30479L12.4144 8.0312L8.70726 11.7576L7.29304 10.336L9.58594 8.0312ZM14.0002 5.01558H18.0013C19.6577 5.01558 21.0006 6.3583 21.0012 8.01463C21.0023 11.044 21.0023 13.0809 21.0012 16.1103C21.0006 17.7667 19.6585 19.1094 18.0022 19.1094C14.6184 19.1094 9.30701 19.1094 5.99587 19.1094C4.33901 19.1094 3.00015 17.7662 3.00015 16.1094V13.0625H5.00015V16.099C5.00015 16.6512 5.44786 17.099 6.00015 17.099H18.0002C18.5525 17.099 19.0002 16.6512 19.0002 16.099V8.02599C19.0002 7.47371 18.5525 7.02599 18.0002 7.02599H14.0002V5.01558Z" fill="#111418"/>
</svg>
