<svg width="24" height="24" viewBox="0 0 24 24" fill="none" xmlns="http://www.w3.org/2000/svg">
<path d="M3.41436 7.98959L5.70726 5.6967L4.29304 4.28249L0.585938 7.98959L4.29304 11.6967L5.70726 10.2825L3.41436 7.98959ZM9.58594 7.98959L7.29304 5.6967L8.70726 4.28249L12.4144 7.98959L8.70726 11.6967L7.29304 10.2825L9.58594 7.98959ZM14.0002 4.98959H18.0013C19.6577 4.98959 21.0006 6.33206 21.0012 7.98839C21.0023 10.9886 21.0023 13.0114 21.0012 16.0116C21.0006 17.6679 19.6586 19.0104 18.0022 19.0104C14.6184 19.0104 9.30701 19.0104 5.99587 19.0104C4.33901 19.0104 3.00015 17.6672 3.00015 16.0104V12.9948H5.00015V16.0104C5.00015 16.5626 5.44787 17.0104 6.00015 17.0104H18.0002C18.5525 17.0104 19.0002 16.5626 19.0002 16.0104V7.98959C19.0002 7.4373 18.5525 6.98959 18.0002 6.98959H14.0002V4.98959Z" fill="#111418"/>
</svg>
