<svg width="24" height="24" viewBox="0 0 24 24" fill="none" xmlns="http://www.w3.org/2000/svg">
<path d="M18 2C19.6569 2 21 3.34315 21 5V19C21 20.6569 19.6569 22 18 22H5C3.89543 22 3 21.1046 3 20V19H5V17H2V15H5V13H2V11H5V9H2V7H5V5H3V4C3 2.89543 3.89543 2 5 2H18ZM13 13C11.3431 13 10 14.3431 10 16H16C16 14.3431 14.6569 13 13 13ZM11.5 8C10.6716 8 10 8.67157 10 9.5V10C10 11.1046 10.8954 12 12 12H14C15.1046 12 16 11.1046 16 10V9.5C16 8.67157 15.3284 8 14.5 8H11.5ZM11.75 9C12.1642 9 12.5 9.33579 12.5 9.75C12.5 10.1642 12.1642 10.5 11.75 10.5C11.3358 10.5 11 10.1642 11 9.75C11 9.33579 11.3358 9 11.75 9ZM14.25 9C14.6642 9 15 9.33579 15 9.75C15 10.1642 14.6642 10.5 14.25 10.5C13.8358 10.5 13.5 10.1642 13.5 9.75C13.5 9.33579 13.8358 9 14.25 9Z" fill="#111418"/>
</svg>
