<svg width="24" height="24" viewBox="0 0 24 24" fill="none" xmlns="http://www.w3.org/2000/svg">
<path d="M21 22H6C4.34315 22 3 20.6569 3 19V5C3 3.34315 4.34315 2 6 2H21V22ZM6 18C5.44772 18 5 18.4477 5 19C5 19.5523 5.44772 20 6 20H19V18H6ZM12 11C10.3431 11 9 12.3431 9 14H15C15 12.3431 13.6569 11 12 11ZM10 6C9.44772 6 9 6.44772 9 7V9C9 9.55228 9.44772 10 10 10H14C14.5523 10 15 9.55228 15 9V7C15 6.44772 14.5523 6 14 6H10ZM10.75 7C11.1642 7 11.5 7.33579 11.5 7.75C11.5 8.16421 11.1642 8.5 10.75 8.5C10.3358 8.5 10 8.16421 10 7.75C10 7.33579 10.3358 7 10.75 7ZM13.25 7C13.6642 7 14 7.33579 14 7.75C14 8.16421 13.6642 8.5 13.25 8.5C12.8358 8.5 12.5 8.16421 12.5 7.75C12.5 7.33579 12.8358 7 13.25 7Z" fill="#111418"/>
</svg>
