<svg width="24" height="24" viewBox="0 0 24 24" fill="none" xmlns="http://www.w3.org/2000/svg">
<path fill-rule="evenodd" clip-rule="evenodd" d="M13.0605 7.40362L14.8283 9.17139C17.7572 12.1003 17.7572 16.8491 14.8282 19.778L14.4747 20.1316C11.5458 23.0605 6.79701 23.0605 3.86808 20.1315C0.939154 17.2026 0.939155 12.4539 3.86808 9.52494L4.22164 9.17138L6.34296 11.2927L5.9894 11.6463C4.23205 13.4036 4.23205 16.2529 5.9894 18.0102C7.74676 19.7676 10.596 19.7676 12.3533 18.0102L12.7069 17.6566C14.4643 15.8993 14.4643 13.0501 12.7069 11.2928L12.3533 10.9391C11.5723 10.1581 11.5723 8.89179 12.3534 8.11075L13.0605 7.40362ZM19.778 14.8282L17.6567 12.7069L18.0102 12.3533C19.7676 10.596 19.7676 7.74676 18.0102 5.9894C16.2529 4.23204 13.4036 4.23204 11.6463 5.9894L11.2928 6.34293C9.53538 8.10029 9.53535 10.9496 11.2927 12.7069L11.6463 13.0605C12.4273 13.8415 12.4273 15.1079 11.6463 15.8889L10.9392 16.596L9.17139 14.8283C6.24246 11.8993 6.24245 7.15057 9.17139 4.22163L9.52494 3.86808C12.4539 0.939156 17.2026 0.939153 20.1316 3.86808C23.0605 6.79701 23.0605 11.5458 20.1315 14.4747L19.778 14.8282Z" fill="#020617"/>
</svg>
