<svg width="24" height="24" viewBox="0 0 24 24" fill="none" xmlns="http://www.w3.org/2000/svg">
<path d="M5.75024 4.5H4.71733L3.25 4.89317V6.44582L4.25002 6.17782L4.25018 9.5H3V11H7V9.5H5.75024V4.5ZM10 5H21V7H10V5ZM10 11H21V13H10V11ZM10 17H21V19H10V17ZM2.875 14.625C2.875 13.4514 3.82639 12.5 5 12.5C6.17361 12.5 7.125 13.4514 7.125 14.625C7.125 15.1106 6.96183 15.5587 6.68747 15.9167L6.68271 15.9229L5.31587 17.5H7V19H3.00012L2.99959 17.8786L5.4717 15.035C5.5673 14.9252 5.625 14.7821 5.625 14.625C5.625 14.2798 5.34518 14 5 14C4.67378 14 4.40573 14.2501 4.37747 14.5688L4.3651 14.875H2.875V14.625Z" fill="#111418"/>
</svg>
