<svg width="24" height="24" viewBox="0 0 24 24" fill="none" xmlns="http://www.w3.org/2000/svg">
<path fill-rule="evenodd" clip-rule="evenodd" d="M15 13C13.3431 13 12 14.3431 12 16V18C12 19.6569 13.3431 21 15 21H17C18.6569 21 20 19.6569 20 18V16C20 14.3431 18.6569 13 17 13H15Z" fill="#020617"/>
<path fill-rule="evenodd" clip-rule="evenodd" d="M16 3C14.3431 3 13 4.34315 13 6V8C13 9.65685 14.3431 11 16 11H18C19.6569 11 21 9.65685 21 8V6C21 4.34315 19.6569 3 18 3H16Z" fill="#020617"/>
<path fill-rule="evenodd" clip-rule="evenodd" d="M6 3C4.34315 3 3 4.34315 3 6V8C3 9.65685 4.34315 11 6 11H8C9.65685 11 11 9.65685 11 8V6C11 4.34315 9.65685 3 8 3H6Z" fill="#020617"/>
<path d="M5.7071 21.7071L7.1214 20.2929L4.8285 18L9.9142 18V16H4.8285L7.1214 13.7071L5.7071 12.2929L1 17L5.7071 21.7071Z" fill="#020617"/>
</svg>
