<svg width="24" height="24" viewBox="0 0 24 24" fill="none" xmlns="http://www.w3.org/2000/svg">
<path fill-rule="evenodd" clip-rule="evenodd" d="M14 13C12.3431 13 11 14.3431 11 16V18C11 19.6569 12.3431 21 14 21H16C17.6569 21 19 19.6569 19 18V16C19 14.3431 17.6569 13 16 13H14Z" fill="#020617"/>
<path fill-rule="evenodd" clip-rule="evenodd" d="M16 3C14.3431 3 13 4.34315 13 6V8C13 9.65685 14.3431 11 16 11H18C19.6569 11 21 9.65685 21 8V6C21 4.34315 19.6569 3 18 3H16Z" fill="#020617"/>
<path fill-rule="evenodd" clip-rule="evenodd" d="M6 3C4.34315 3 3 4.34315 3 6V8C3 9.65685 4.34315 11 6 11H8C9.65685 11 11 9.65685 11 8V6C11 4.34315 9.65685 3 8 3H6Z" fill="#020617"/>
<path d="M5.2071 12.2929L3.7928 13.7071L6.0857 16H1V18H6.0857L3.7928 20.2929L5.2071 21.7071L9.9142 17L5.2071 12.2929Z" fill="#020617"/>
</svg>
