<svg width="24" height="24" viewBox="0 0 24 24" fill="none" xmlns="http://www.w3.org/2000/svg">
<path fill-rule="evenodd" clip-rule="evenodd" d="M17.364 17.364C13.8492 20.8787 8.15075 20.8787 4.63604 17.364C1.12133 13.8492 1.12132 8.15076 4.63604 4.63604C8.15076 1.12132 13.8492 1.12133 17.364 4.63604C20.8787 8.15075 20.8787 13.8492 17.364 17.364ZM15.2426 15.2426C12.8995 17.5858 9.10051 17.5858 6.75736 15.2426C4.4142 12.8995 4.41421 9.1005 6.75736 6.75736C9.1005 4.41421 12.8995 4.4142 15.2426 6.75736C17.5858 9.10051 17.5858 12.8995 15.2426 15.2426Z" fill="#020617"/>
<path d="M22.3744 20.253L18.8388 16.7175L16.7175 18.8388L20.253 22.3744L22.3744 20.253Z" fill="#020617"/>
</svg>
