<svg width="24" height="24" viewBox="0 0 24 24" fill="none" xmlns="http://www.w3.org/2000/svg">
<path d="M12 14C16.4183 14 20 17.5817 20 22H4C4 17.5817 7.58172 14 12 14ZM13 3H17C18.6569 3 20 4.34315 20 6V8C20 10.7614 17.7614 13 15 13H9C6.23858 13 4 10.7614 4 8V6C4 4.34315 5.34315 3 7 3H11V2H13V3ZM8 5C6.89543 5 6 5.89543 6 7C6 8.10457 6.89543 9 8 9C9.10457 9 10 8.10457 10 7C10 5.89543 9.10457 5 8 5ZM16 5C14.8954 5 14 5.89543 14 7C14 8.10457 14.8954 9 16 9C17.1046 9 18 8.10457 18 7C18 5.89543 17.1046 5 16 5Z" fill="#111418"/>
</svg>
