<svg width="24" height="24" viewBox="0 0 24 24" fill="none" xmlns="http://www.w3.org/2000/svg">
<path d="M14 4C14 5.10457 13.1046 6 12 6C10.8954 6 10 5.10457 10 4C10 2.89543 10.8954 2 12 2C13.1046 2 14 2.89543 14 4Z" fill="#020617"/>
<path fill-rule="evenodd" clip-rule="evenodd" d="M3 13C3 9.68629 5.68629 7 9 7H15C18.3137 7 21 9.68629 21 13V16C21 18.2091 19.2091 20 17 20H7C4.79086 20 3 18.2091 3 16V13ZM13.6646 15.3292C14.0351 15.1439 14.4856 15.2941 14.6708 15.6646C14.8561 16.0351 14.7059 16.4856 14.3354 16.6708L13.2298 17.2236C12.4556 17.6107 11.5444 17.6107 10.7702 17.2236L9.66459 16.6708C9.29411 16.4856 9.14394 16.0351 9.32918 15.6646C9.51443 15.2941 9.96493 15.1439 10.3354 15.3292L11.441 15.882C11.7929 16.0579 12.2071 16.0579 12.559 15.882L13.6646 15.3292ZM18 13.5C18 14.3284 17.3284 15 16.5 15C15.6716 15 15 14.3284 15 13.5C15 12.6716 15.6716 12 16.5 12C17.3284 12 18 12.6716 18 13.5ZM7.5 15C8.32843 15 9 14.3284 9 13.5C9 12.6716 8.32843 12 7.5 12C6.67157 12 6 12.6716 6 13.5C6 14.3284 6.67157 15 7.5 15Z" fill="#020617"/>
<path d="M1 11C0.447715 11 0 11.4477 0 12V15C0 15.5523 0.447715 16 1 16C1.55228 16 2 15.5523 2 15V12C2 11.4477 1.55228 11 1 11Z" fill="#020617"/>
<path d="M22 12C22 11.4477 22.4477 11 23 11C23.5523 11 24 11.4477 24 12V15C24 15.5523 23.5523 16 23 16C22.4477 16 22 15.5523 22 15V12Z" fill="#020617"/>
</svg>
