<svg width="24" height="25" viewBox="0 0 24 25" fill="none" xmlns="http://www.w3.org/2000/svg">
<path d="M12 18.875C8.68629 18.875 6 16.1887 6 12.875C6 9.56129 8.68629 6.875 12 6.875C15.3137 6.875 18 9.56129 18 12.875C18 16.1887 15.3137 18.875 12 18.875ZM11 1.875H13V4.875H11V1.875ZM11 20.875H13V23.875H11V20.875ZM3.51472 5.80393L4.92893 4.38972L7.05025 6.51104L5.63604 7.92525L3.51472 5.80393ZM16.9497 19.239L18.364 17.8247L20.4853 19.9461L19.0711 21.3603L16.9497 19.239ZM19.0711 4.38972L20.4853 5.80393L18.364 7.92525L16.9497 6.51104L19.0711 4.38972ZM5.63604 17.8247L7.05025 19.239L4.92893 21.3603L3.51472 19.9461L5.63604 17.8247ZM23 11.875V13.875H20V11.875H23ZM4 11.875V13.875H1V11.875H4Z" fill="#111418"/>
</svg>
