<svg width="24" height="24" viewBox="0 0 24 24" fill="none" xmlns="http://www.w3.org/2000/svg">
<path d="M10.065 12.493L3.88503 13.811C3.64515 13.8631 3.39442 13.8186 3.18707 13.6872C2.97971 13.5558 2.83242 13.3481 2.77703 13.109L2.24003 10.959C2.17689 10.7 2.21274 10.4267 2.34056 10.1927C2.46838 9.9587 2.67895 9.78085 2.93103 9.694L16.435 5.254" fill="black"/>
<path d="M10.065 12.493L3.88503 13.811C3.64515 13.8631 3.39442 13.8186 3.18707 13.6872C2.97971 13.5558 2.83242 13.3481 2.77703 13.109L2.24003 10.959C2.17689 10.7 2.21274 10.4267 2.34056 10.1927C2.46838 9.9587 2.67895 9.78085 2.93103 9.694L16.435 5.254" stroke="black" stroke-width="2" stroke-linecap="round" stroke-linejoin="round"/>
<path d="M13.5601 11.747L17.8921 10.823" stroke="black" stroke-width="2" stroke-linecap="round" stroke-linejoin="round"/>
<path d="M16 21L12.895 14.79" stroke="black" stroke-width="2" stroke-linecap="round" stroke-linejoin="round"/>
<path d="M16.4849 5.94C16.3564 5.42549 16.4375 4.88098 16.7103 4.42622C16.9832 3.97147 17.4255 3.6437 17.9399 3.515L19.0299 3.243C19.2871 3.17886 19.5591 3.2194 19.7864 3.35571C20.0136 3.49202 20.1775 3.71296 20.2419 3.97L21.7569 10.03C21.8214 10.2873 21.781 10.5596 21.6447 10.7871C21.5083 11.0145 21.2872 11.1785 21.0299 11.243L19.9399 11.515C19.4254 11.6435 18.8809 11.5625 18.4262 11.2896C17.9714 11.0168 17.6436 10.5745 17.5149 10.06L16.4849 5.94Z" fill="black" stroke="black" stroke-width="2" stroke-linecap="round" stroke-linejoin="round"/>
<path d="M6.15796 8.633L7.27196 13.089" stroke="black" stroke-width="2" stroke-linecap="round" stroke-linejoin="round"/>
<path d="M8 21L11.105 14.79" stroke="black" stroke-width="2" stroke-linecap="round" stroke-linejoin="round"/>
<path d="M9.5 12.5L17.5 10.5L17 5.5L9.5 8V12.5Z" fill="black"/>
<path d="M12 15C13.1046 15 14 14.1046 14 13C14 11.8954 13.1046 11 12 11C10.8954 11 10 11.8954 10 13C10 14.1046 10.8954 15 12 15Z" fill="black" stroke="black" stroke-width="2" stroke-linecap="round" stroke-linejoin="round"/>
</svg>
