<svg width="24" height="24" viewBox="0 0 24 24" fill="none" xmlns="http://www.w3.org/2000/svg">
<path d="M18.7878 2.27274C19.3019 2.14457 19.8462 2.22585 20.3005 2.49832C20.6982 2.73688 20.9997 3.10471 21.155 3.53738L21.2117 3.72684L21.2126 3.72781L22.7273 9.78738L22.7654 9.98074C22.8326 10.4359 22.7412 10.9029 22.5027 11.3011C22.2301 11.7559 21.7876 12.0842 21.2732 12.2132H21.2722L20.1824 12.4856V12.4846C19.4107 12.6774 18.5939 12.556 17.9119 12.1468C17.7945 12.0763 17.6844 11.9962 17.5789 11.9114L14.9519 12.472C14.9824 12.6435 14.9998 12.8199 14.9998 13.0003C14.9997 13.8085 14.6777 14.5399 14.158 15.0794L16.8943 20.553C17.141 21.0469 16.9408 21.6479 16.447 21.8948C15.9533 22.1414 15.3533 21.941 15.1062 21.4475L12.3699 15.9759C12.2485 15.9908 12.1251 16.0003 11.9998 16.0003C11.874 16.0003 11.7503 15.9909 11.6287 15.9759L8.89429 21.4475C8.64719 21.9413 8.04635 22.1417 7.55249 21.8948C7.05869 21.6478 6.85851 21.0469 7.10522 20.553L9.84155 15.0804C9.48191 14.7073 9.21921 14.2422 9.09058 13.7229L4.09351 14.7893L4.09253 14.7884C3.59734 14.8946 3.08008 14.8035 2.6521 14.5325C2.22289 14.2606 1.91727 13.8302 1.80249 13.3352L1.80347 13.3343L1.27026 11.2014L1.26831 11.1956C1.14632 10.6946 1.21548 10.1657 1.46265 9.71317C1.70992 9.26053 2.11759 8.91635 2.60522 8.74832C2.60967 8.7468 2.61443 8.74588 2.6189 8.74442L15.5896 4.47879C15.6571 4.28249 15.7448 4.09213 15.8533 3.91141C16.2625 3.22967 16.9257 2.7383 17.697 2.5452L17.698 2.54422L18.7878 2.27274Z" fill="#111418"/>
</svg>
