<svg width="24" height="24" viewBox="0 0 24 24" fill="none" xmlns="http://www.w3.org/2000/svg">
<path d="M18.1895 9.65039C21.0453 9.65044 22.456 10.959 22.4561 13.5088V16.3994C22.4561 16.9599 22.6603 17.0956 23 17.0957H23.2217V19C23.0347 19.051 22.5585 19.1191 22.1846 19.1191C21.2837 19.1191 20.3319 18.813 20.0938 17.6064C19.6177 18.5923 18.5463 19.2041 16.8975 19.2041C14.9765 19.2041 13.6338 18.286 13.6338 16.7051C13.6338 15.0901 14.7044 14.2742 16.6934 13.8662L19.5322 13.2881C19.5322 12.2171 19.0564 11.6563 18.1895 11.6562C17.3225 11.6562 16.846 12.0813 16.71 12.8633L13.7861 12.7607C14.1432 10.6529 15.7075 9.65039 18.1895 9.65039ZM14 19H11.0488L10 16H5L4.00977 19H1L6 5H9L14 19ZM17.7646 15.4131C17.0508 15.566 16.6428 15.9058 16.6426 16.4326C16.6426 16.9766 16.9822 17.2997 17.6621 17.2998C18.7501 17.2998 19.5322 16.6199 19.5322 15.3789V15.0049L17.7646 15.4131ZM5.86328 13.6367H9.21582L7.5 8.5L5.86328 13.6367Z" fill="#111418"/>
</svg>
