<svg width="24" height="24" viewBox="0 0 24 24" fill="none" xmlns="http://www.w3.org/2000/svg">
<path d="M16.8973 19.204C14.9763 19.204 13.6333 18.286 13.6333 16.705C13.6333 15.09 14.7043 14.274 16.6933 13.866L19.5323 13.288C19.5323 12.217 19.0563 11.656 18.1893 11.656C17.3223 11.656 16.8463 12.081 16.7103 12.863L13.7863 12.761C14.1433 10.653 15.7073 9.65002 18.1893 9.65002C21.0453 9.65002 22.4563 10.959 22.4563 13.509V16.399C22.4563 16.96 22.6603 17.096 23.0003 17.096H23.2213V19C23.0343 19.051 22.5583 19.119 22.1843 19.119C21.2833 19.119 20.3313 18.813 20.0933 17.606C19.6173 18.592 18.5463 19.204 16.8973 19.204ZM17.6623 17.3C18.7503 17.3 19.5323 16.62 19.5323 15.379V15.005L17.7643 15.413C17.0503 15.566 16.6423 15.906 16.6423 16.433C16.6423 16.977 16.9823 17.3 17.6623 17.3Z" fill="#111418"/>
<path d="M1 19L6 5H9L14 19H11.0493L10 16H5L4.00986 19H1ZM5.86338 13.6366H9.21549L7.5 8.5L5.86338 13.6366Z" fill="#111418"/>
</svg>
