<svg width="24" height="24" viewBox="0 0 24 24" fill="none" xmlns="http://www.w3.org/2000/svg">
<path d="M12.023 2C12.1548 4.83582 13.3099 7.39643 15.4266 9.3184C16.9215 10.6785 18.7871 11.568 20.7886 11.8751C21.0862 11.9209 21.6986 11.9973 22 11.984C21.9767 11.9903 21.9471 11.9973 21.9248 12.0048C19.2192 12.1186 16.6676 13.2893 14.8232 15.2632C13.0655 17.1449 12.1409 19.4448 12.0221 22C12.0176 21.9412 12.0142 21.9006 12.0039 21.8421C12.0025 21.4992 11.9276 20.9532 11.8707 20.6175C11.5142 18.5142 10.5149 16.5715 9.009 15.0543C7.4953 13.5209 5.53477 12.5014 3.40582 12.1403C3.02306 12.0757 2.48963 12.0071 2.09994 12.0052L2 11.9851C2.3803 11.988 2.82746 11.9367 3.20297 11.882C5.25281 11.5759 7.16157 10.6594 8.67819 9.25294C10.6732 7.41382 11.8667 4.87113 12.0038 2.1679C12.0115 2.11209 12.0179 2.05611 12.023 2Z" fill="black"/>
</svg>
