<svg width="24" height="24" viewBox="0 0 24 24" fill="none" xmlns="http://www.w3.org/2000/svg">
<path d="M12 4.5C7.85786 4.5 4.5 7.85786 4.5 12H1.5C1.5 6.20101 6.20101 1.5 12 1.5C14.8995 1.5 17.5245 2.67525 19.4246 4.57538L22 2V9L15 8.99999L17.3033 6.6967C15.9461 5.33946 14.0711 4.5 12 4.5Z" fill="#020617"/>
<path d="M6.6967 17.3033L9 15L2 15L2 22L4.57538 19.4246C6.47551 21.3247 9.10051 22.5 12 22.5C17.799 22.5 22.5 17.799 22.5 12H19.5C19.5 16.1421 16.1421 19.5 12 19.5C9.92893 19.5 8.05393 18.6605 6.6967 17.3033Z" fill="#020617"/>
</svg>
