<svg width="24" height="24" viewBox="0 0 24 24" fill="none" xmlns="http://www.w3.org/2000/svg">
<path fill-rule="evenodd" clip-rule="evenodd" d="M15.97 9.04L21.92 16.39H21.93C22.51 17.11 22.79 18.01 22.68 18.87C22.57 19.75 22.05 20.54 21.14 20.98C20.16 21.45 18.92 21.69 17.43 21.83C15.94 21.97 14.12 22 11.98 22C9.84 22 8.03 21.97 6.53 21.83C5.04 21.7 3.8 21.45 2.82 20.98C1.91 20.54 1.39 19.75 1.28 18.87C1.17 18.01 1.45 17.11 2.03 16.39L7.97 9.04C8.29 8.63 8.47 8.14 8.47 7.62V3.69C8.24 3.72 8.09 3.74 8.09 3.74C7.69 3.81 7.3 3.53 7.23 3.12C7.16 2.71 7.44 2.33 7.85 2.26C7.91 2.25 9.44 2 11.97 2C14.5 2 16.03 2.25 16.09 2.26C16.5 2.33 16.77 2.71 16.71 3.12C16.65 3.49 16.33 3.75 15.97 3.75C15.97 3.75 15.89 3.75 15.85 3.74C15.85 3.74 15.71 3.72 15.47 3.69V7.62C15.47 8.14 15.65 8.64 15.97 9.04ZM11.1703 11.0054C10.4398 10.721 9.66767 10.4205 8.93341 10.2228L9.13 9.98C9.67 9.31 9.96 8.48 9.96 7.62V3.56C10.52 3.53 11.19 3.5 11.96 3.5C12.73 3.5 13.4 3.53 13.96 3.56V7.62C13.96 8.48 14.25 9.31 14.79 9.98L16.4099 11.9811C15.0827 11.9369 13.4195 11.8065 12.5 11.5C12.0876 11.3625 11.6375 11.1873 11.1703 11.0054ZM12 13C12.4142 13 12.75 13.3358 12.75 13.75V15.25H14.25C14.6642 15.25 15 15.5858 15 16C15 16.4142 14.6642 16.75 14.25 16.75L12.75 16.75V18.25C12.75 18.6642 12.4142 19 12 19C11.5858 19 11.25 18.6642 11.25 18.25V16.75H9.75C9.33579 16.75 9 16.4142 9 16C9 15.5858 9.33579 15.25 9.75 15.25H11.25V13.75C11.25 13.3358 11.5858 13 12 13Z" fill="#020617"/>
</svg>
