<svg width="24" height="24" viewBox="0 0 24 24" fill="none" xmlns="http://www.w3.org/2000/svg">
<path d="M1 10.7V13.3H2.5C3.05228 13.3 3.5 13.7477 3.5 14.3V17.5C3.5 19.433 5.06701 21 7 21H9V18H7C6.72386 18 6.5 17.7762 6.5 17.5V14C6.5 13 6 12.5 5 12C6 11.5 6.5 11 6.5 10V6.5C6.5 6.22386 6.72386 6 7 6H9V3L7 3C5.06701 3 3.5 4.56701 3.5 6.5V9.7C3.5 10.2523 3.05228 10.7 2.5 10.7H1Z" fill="#020617"/>
<path d="M15 18V21H17C18.933 21 20.5 19.433 20.5 17.5V14.3C20.5 13.7477 20.9477 13.3 21.5 13.3H23V10.7H21.5C20.9477 10.7 20.5 10.2523 20.5 9.7V6.5C20.5 4.56701 18.933 3 17 3H15V6H17C17.2761 6 17.5 6.22386 17.5 6.5V10C17.5 11 18 11.5 19 12C18 12.5 17.5 13 17.5 14V17.5C17.5 17.7762 17.2762 18 17 18H15Z" fill="#020617"/>
</svg>
