<svg width="24" height="24" viewBox="0 0 24 24" fill="none" xmlns="http://www.w3.org/2000/svg">
<path d="M17 21V18H7C6.44772 18 6 17.5523 6 17V7L3 7C2.4477 7 2 7.4477 2 8V21C2 21.5523 2.4477 22 3 22H16C16.5523 22 17 21.5523 17 21Z" fill="#020617"/>
<path fill-rule="evenodd" clip-rule="evenodd" d="M7 16C7 16.5523 7.44772 17 8 17L20.9895 17C21.548 17 21.9969 16.5489 21.997 15.9925L21.9998 3.0075C21.9998 2.4489 21.5489 2 20.9925 2H8.0073C7.4488 2 6.9998 2.4511 6.9998 3.0075L7 16ZM19.9996 4L19.9972 15L8.9998 15L8.9998 4L19.9996 4Z" fill="#020617"/>
</svg>
