<svg width="24" height="24" viewBox="0 0 24 24" fill="none" xmlns="http://www.w3.org/2000/svg">
<path d="M14 9.5L17.5 6L19 7.5L14 12.5L10.5 9L12 7.5L14 9.5Z" fill="#020617"/>
<path fill-rule="evenodd" clip-rule="evenodd" d="M8 17C7.44772 17 7 16.5523 7 16L6.9998 3.0075C6.9998 2.4511 7.4488 2 8.0073 2H20.9925C21.5489 2 21.9998 2.4489 21.9998 3.0075L21.997 15.9925C21.9969 16.5489 21.548 17 20.9895 17H8ZM19.5 14.5L19.5023 4.5L9.5 4.5L9.5 14.5L19.5 14.5Z" fill="#020617"/>
<path d="M17 18V21C17 21.5523 16.5523 22 16 22H3C2.4477 22 2 21.5523 2 21V8C2 7.4477 2.4477 7 3 7L6 7V17C6 17.5523 6.44772 18 7 18H17Z" fill="#020617"/>
</svg>
