<svg width="24" height="24" viewBox="0 0 24 24" fill="none" xmlns="http://www.w3.org/2000/svg">
<path d="M17.5 6L14 9.5L12 7.5L10.5 9L14 12.5L19 7.5L17.5 6Z" fill="#020617"/>
<path fill-rule="evenodd" clip-rule="evenodd" d="M11.8382 17.0158C10.2251 17.0079 8.61226 17 7.00002 17L6.9998 2L21.9998 2L21.9971 16.9925C18.6128 17.0489 15.2247 17.0323 11.8382 17.0158ZM19.5 14.5L19.5024 4.5L9.50002 4.5L9.50002 14.5L19.5 14.5Z" fill="#020617"/>
<path d="M17 19V22H2.00002L2 6.9925C2.90942 7.00774 3.35383 7.00567 3.96779 7.00283C4.2537 7.0015 4.57647 7 5.00002 7V19H17Z" fill="#020617"/>
</svg>
