<svg width="24" height="24" viewBox="0 0 24 24" fill="none" xmlns="http://www.w3.org/2000/svg">
<path fill-rule="evenodd" clip-rule="evenodd" d="M9 20.9855C4.53831 20.7267 1 17.0266 1 12.5C1 7.80558 4.80558 4 9.5 4C12.5433 4 15.2131 5.59939 16.7146 8.00348C20.2051 8.11671 23 10.982 23 14.5C23 17.9216 20.3562 20.7257 17 20.9811V21H9V20.9855ZM8.79291 11.7071L10.5858 13.5L8.79291 15.2929L10.2071 16.7071L12 14.9142L13.7929 16.7071L15.2071 15.2929L13.4142 13.5L15.2071 11.7071L13.7929 10.2929L12 12.0858L10.2071 10.2929L8.79291 11.7071Z" fill="#020617"/>
</svg>
