<svg width="24" height="24" viewBox="0 0 24 24" fill="none" xmlns="http://www.w3.org/2000/svg">
<path d="M13 6V10H16.9998L13 6Z" fill="#020617"/>
<path fill-rule="evenodd" clip-rule="evenodd" d="M6.9998 6V3C6.9998 2.44772 7.44752 2 7.9998 2H16.9998L20.9998 6V17C20.9998 17.5523 20.5521 18 19.9998 18H16.9998V20.9991C16.9998 21.5519 16.5499 22 15.993 22H4.00666C3.45059 22 3 21.5554 3 20.9991L3.0026 7.00087C3.0027 6.44811 3.45264 6 4.00942 6H6.9998ZM18.9998 16H16.9998V12H11V6H8.99982V4H16V7H18.9998V16Z" fill="#020617"/>
</svg>
