<svg width="24" height="24" viewBox="0 0 24 24" fill="none" xmlns="http://www.w3.org/2000/svg">
<path fill-rule="evenodd" clip-rule="evenodd" d="M12 7C12 4.23858 9.76142 2 7 2H2V12H6.99779C5.6181 12.0012 4.5 13.12 4.5 14.5C4.5 15.8807 5.61929 17 7 17H2V22H7C8.38071 22 9.5 20.8807 9.5 19.5C9.5 18.1193 8.38071 17 7 17H12V22H17V17H22V12H17C19.7614 12 22 9.76142 22 7V2H12V7ZM7 9C8.10457 9 9 8.10457 9 7C9 5.89543 8.10457 5 7 5V9ZM15 7C15 8.10457 15.8954 9 17 9C18.1046 9 19 8.10457 19 7H15ZM12 7C12 9.76142 14.2386 12 17 12H7C9.76142 12 12 9.76142 12 7Z" fill="#020617"/>
</svg>
