<svg width="24" height="24" viewBox="0 0 24 24" fill="none" xmlns="http://www.w3.org/2000/svg">
<path fill-rule="evenodd" clip-rule="evenodd" d="M8 2H6V5.12602C4.27477 5.57006 3 7.13616 3 9C3 10.8638 4.27477 12.4299 6 12.874V22H8V12.874C9.72523 12.4299 11 10.8638 11 9C11 7.13616 9.72523 5.57006 8 5.12602V2ZM8 9C8 9.55229 7.55228 10 7 10C6.44772 10 6 9.55229 6 9C6 8.44772 6.44772 8 7 8C7.55228 8 8 8.44772 8 9Z" fill="#020617"/>
<path fill-rule="evenodd" clip-rule="evenodd" d="M18 2H16V11.126C14.2748 11.5701 13 13.1362 13 15C13 16.8638 14.2748 18.4299 16 18.874V22H18V18.874C19.7252 18.4299 21 16.8638 21 15C21 13.1362 19.7252 11.5701 18 11.126V2ZM17 16C17.5523 16 18 15.5523 18 15C18 14.4477 17.5523 14 17 14C16.4477 14 16 14.4477 16 15C16 15.5523 16.4477 16 17 16Z" fill="#020617"/>
</svg>
