<svg width="24" height="24" viewBox="0 0 24 24" fill="none" xmlns="http://www.w3.org/2000/svg">
<path fill-rule="evenodd" clip-rule="evenodd" d="M8.5 3.5C7.39886 3.5 6.5 4.39886 6.5 5.5C6.5 6.60114 7.39886 7.5 8.5 7.5C9.60114 7.5 10.5 6.60114 10.5 5.5C10.5 4.39886 9.60114 3.5 8.5 3.5ZM16 3.5C14.8989 3.5 14 4.39886 14 5.5C14 6.60114 14.8989 7.5 16 7.5C17.1011 7.5 18 6.60114 18 5.5C18 4.39886 17.1011 3.5 16 3.5ZM8.5 10C7.39886 10 6.5 10.8989 6.5 12C6.5 13.1011 7.39886 14 8.5 14C9.60114 14 10.5 13.1011 10.5 12C10.5 10.8989 9.60114 10 8.5 10ZM16 10C14.8989 10 14 10.8989 14 12C14 13.1011 14.8989 14 16 14C17.1011 14 18 13.1011 18 12C18 10.8989 17.1011 10 16 10ZM8.5 16.5C7.39886 16.5 6.5 17.3989 6.5 18.5C6.5 19.6011 7.39886 20.5 8.5 20.5C9.60114 20.5 10.5 19.6011 10.5 18.5C10.5 17.3989 9.60114 16.5 8.5 16.5ZM16 16.5C14.8989 16.5 14 17.3989 14 18.5C14 19.6011 14.8989 20.5 16 20.5C17.1011 20.5 18 19.6011 18 18.5C18 17.3989 17.1011 16.5 16 16.5Z" fill="#020617"/>
</svg>
