<svg width="24" height="24" viewBox="0 0 24 24" fill="none" xmlns="http://www.w3.org/2000/svg">
<path fill-rule="evenodd" clip-rule="evenodd" d="M8 5.5H6C5.72386 5.5 5.5 5.72386 5.5 6V8C5.5 8.27614 5.72386 8.5 6 8.5H8C8.27614 8.5 8.5 8.27614 8.5 8V6C8.5 5.72386 8.27614 5.5 8 5.5ZM6 3C4.34315 3 3 4.34315 3 6V8C3 9.65685 4.34315 11 6 11H8C9.65685 11 11 9.65685 11 8V6C11 4.34315 9.65685 3 8 3H6Z" fill="#020617"/>
<path fill-rule="evenodd" clip-rule="evenodd" d="M18 5.5H16C15.7239 5.5 15.5 5.72386 15.5 6V8C15.5 8.27614 15.7239 8.5 16 8.5H18C18.2761 8.5 18.5 8.27614 18.5 8V6C18.5 5.72386 18.2761 5.5 18 5.5ZM16 3C14.3431 3 13 4.34315 13 6V8C13 9.65685 14.3431 11 16 11H18C19.6569 11 21 9.65685 21 8V6C21 4.34315 19.6569 3 18 3H16Z" fill="#020617"/>
<path fill-rule="evenodd" clip-rule="evenodd" d="M18 15.5H16C15.7239 15.5 15.5 15.7239 15.5 16V18C15.5 18.2761 15.7239 18.5 16 18.5H18C18.2761 18.5 18.5 18.2761 18.5 18V16C18.5 15.7239 18.2761 15.5 18 15.5ZM16 13C14.3431 13 13 14.3431 13 16V18C13 19.6569 14.3431 21 16 21H18C19.6569 21 21 19.6569 21 18V16C21 14.3431 19.6569 13 18 13H16Z" fill="#020617"/>
<path fill-rule="evenodd" clip-rule="evenodd" d="M8 15.5H6C5.72386 15.5 5.5 15.7239 5.5 16V18C5.5 18.2761 5.72386 18.5 6 18.5H8C8.27614 18.5 8.5 18.2761 8.5 18V16C8.5 15.7239 8.27614 15.5 8 15.5ZM6 13C4.34315 13 3 14.3431 3 16V18C3 19.6569 4.34315 21 6 21H8C9.65685 21 11 19.6569 11 18V16C11 14.3431 9.65685 13 8 13H6Z" fill="#020617"/>
</svg>
