<svg width="24" height="24" viewBox="0 0 24 24" fill="none" xmlns="http://www.w3.org/2000/svg">
<path d="M7.29291 8.70712L6.00001 7.41423L4.70712 8.70712L3.29291 7.29291L4.5858 6.00001L3.29291 4.70712L4.70712 3.29291L6.00001 4.5858L7.29291 3.29291L8.70712 4.70712L7.41423 6.00001L8.70712 7.29291L7.29291 8.70712Z" fill="#020617"/>
<path d="M11.0001 4.5H21.0001V7.5H11.0001V4.5Z" fill="#020617"/>
<path d="M21.0001 11H11.0001V14H21.0001V11Z" fill="#020617"/>
<path d="M21.0001 17.5H11.0001V20.5H21.0001V17.5Z" fill="#020617"/>
<path d="M6.00001 20.4142L7.29291 21.7071L8.70712 20.2929L7.41423 19L8.70712 17.7071L7.29291 16.2929L6.00001 17.5858L4.70712 16.2929L3.29291 17.7071L4.5858 19L3.29291 20.2929L4.70712 21.7071L6.00001 20.4142Z" fill="#020617"/>
<path d="M7.29291 15.2071L6.00001 13.9142L4.70712 15.2071L3.29291 13.7929L4.5858 12.5L3.29291 11.2071L4.70712 9.79291L6.00001 11.0858L7.29291 9.79291L8.70712 11.2071L7.41423 12.5L8.70712 13.7929L7.29291 15.2071Z" fill="#020617"/>
</svg>
