<svg width="24" height="24" viewBox="0 0 24 24" fill="none" xmlns="http://www.w3.org/2000/svg">
<path d="M16.0206 17.435L17.4348 16.0208L21.6775 20.2634L20.2633 21.6776L16.0206 17.435Z" fill="#020617"/>
<path d="M4.36404 4.65672L9.34827 5.71452C9.82322 5.81532 10.3186 5.7399 10.7421 5.50234L15.3514 2.91638L15.706 7.94355C15.7431 8.46951 15.9864 8.95955 16.383 9.30705L20.4018 12.8286L15.5717 14.7413C15.0583 14.9445 14.6519 15.351 14.4486 15.8644L12.5357 20.6947L9.01414 16.6759C8.66665 16.2793 8.17661 16.036 7.65064 15.9989L2.62347 15.6443L5.20946 11.0349C5.44701 10.6115 5.52243 10.1161 5.42166 9.64122L4.36404 4.65672Z" fill="#020617"/>
</svg>
