<svg width="24" height="24" viewBox="0 0 24 24" fill="none" xmlns="http://www.w3.org/2000/svg">
<path d="M19 0H21V3H24V5H21V8H19V5H16V3H19V0Z" fill="#020617"/>
<path fill-rule="evenodd" clip-rule="evenodd" d="M12 22C17.5228 22 22 17.5228 22 12C22 10.9548 21.8396 9.94704 21.5422 9H18V9C18 7.34315 16.6569 6 15 6V6V2.4578C14.053 2.16035 13.0452 2 12 2C6.47715 2 2 6.47715 2 12C2 17.5228 6.47715 22 12 22ZM7 11C6.17157 11 5.5 10.3284 5.5 9.5C5.5 8.67157 6.17157 8 7 8C7.82843 8 8.5 8.67157 8.5 9.5C8.5 10.3284 7.82843 11 7 11ZM15 13C15 15.2091 13.2091 17 11 17C8.79086 17 7 15.2091 7 13H15ZM13.5 9.5C13.5 10.3284 14.1716 11 15 11C15.8284 11 16.5 10.3284 16.5 9.5C16.5 8.67157 15.8284 8 15 8C14.1716 8 13.5 8.67157 13.5 9.5Z" fill="#020617"/>
</svg>
