<svg width="24" height="24" viewBox="0 0 24 24" fill="none" xmlns="http://www.w3.org/2000/svg">
<path d="M19 2.5C19 3.05228 18.5523 3.5 18 3.5C17.4477 3.5 17 3.05228 17 2.5C17 1.94772 17.4477 1.5 18 1.5C18.5523 1.5 19 1.94772 19 2.5Z" fill="#020617"/>
<path fill-rule="evenodd" clip-rule="evenodd" d="M14 6C14 4.89543 14.8954 4 16 4H20C21.1046 4 22 4.89427 22 5.99884V9.00039C22 10.105 21.1046 11 20 11H16.5C16.104 11 15.7295 10.9079 15.3968 10.744C14.8289 10.4643 14.1348 10.3023 13.5956 10.6338C13.2255 10.8614 13 11.2647 13 11.6991V13.9384C13 14.8562 13.6246 15.6561 14.5149 15.8787L14.7611 15.9403C14.9198 15.9799 15.0827 16 15.2462 16H20C21.1046 16 22 16.8954 22 18V21C22 22.1046 21.1046 23 20 23H16C14.8954 23 14 22.1046 14 21V19.2549C14 18.6618 13.6867 18.1128 13.1761 17.8111C12.5277 17.4279 11.7132 17.5762 11.0034 17.8281C10.6897 17.9394 10.3519 18 10 18H4C2.34315 18 1 16.6569 1 15V11C1 9.34315 2.34315 8 4 8H10C10.4891 8 10.9509 8.11705 11.3588 8.32467C11.952 8.62656 12.6668 8.79321 13.2521 8.4762C13.7129 8.22657 14 7.74458 14 7.22047V6ZM16.5 7.5C16.9142 7.5 17.25 7.16421 17.25 6.75C17.25 6.33579 16.9142 6 16.5 6C16.0858 6 15.75 6.33579 15.75 6.75C15.75 7.16421 16.0858 7.5 16.5 7.5ZM18 9.5C18 9.5 19 9.5 19.5 9V8.5H16.5V9C17 9.5 18 9.5 18 9.5ZM9 14.75C8.33333 15.5 7.5 15.5 7 15.5C6.5 15.5 5.66667 15.5 5 14.75V14H9V14.75ZM19.5 21C19 21.5 18 21.5 18 21.5C18 21.5 17 21.5 16.5 21V20.5H19.5V21ZM5 13C5.55228 13 6 12.5523 6 12C6 11.4477 5.55228 11 5 11C4.44772 11 4 11.4477 4 12C4 12.5523 4.44772 13 5 13ZM17.25 18.75C17.25 19.1642 16.9142 19.5 16.5 19.5C16.0858 19.5 15.75 19.1642 15.75 18.75C15.75 18.3358 16.0858 18 16.5 18C16.9142 18 17.25 18.3358 17.25 18.75ZM20.25 18.75C20.25 19.1642 19.9142 19.5 19.5 19.5C19.0858 19.5 18.75 19.1642 18.75 18.75C18.75 18.3358 19.0858 18 19.5 18C19.9142 18 20.25 18.3358 20.25 18.75ZM19.5 7.5C19.9142 7.5 20.25 7.16421 20.25 6.75C20.25 6.33579 19.9142 6 19.5 6C19.0858 6 18.75 6.33579 18.75 6.75C18.75 7.16421 19.0858 7.5 19.5 7.5ZM10 12C10 12.5523 9.55229 13 9 13C8.44771 13 8 12.5523 8 12C8 11.4477 8.44771 11 9 11C9.55229 11 10 11.4477 10 12Z" fill="#020617"/>
<path d="M7 7C7.82843 7 8.5 6.32843 8.5 5.5C8.5 4.67157 7.82843 4 7 4C6.17157 4 5.5 4.67157 5.5 5.5C5.5 6.32843 6.17157 7 7 7Z" fill="#020617"/>
<path d="M18 15.5C18.5523 15.5 19 15.0523 19 14.5C19 13.9477 18.5523 13.5 18 13.5C17.4477 13.5 17 13.9477 17 14.5C17 15.0523 17.4477 15.5 18 15.5Z" fill="#020617"/>
</svg>
