<svg width="24" height="24" viewBox="0 0 24 24" fill="none" xmlns="http://www.w3.org/2000/svg">
<path fill-rule="evenodd" clip-rule="evenodd" d="M14 6C14 4.89543 14.8954 4 16 4H20C21.1046 4 22 4.89427 22 5.99884V9.00039C22 10.105 21.1046 11 20 11H16.5C16.104 11 15.7295 10.9079 15.3968 10.744C14.8289 10.4643 14.1348 10.3023 13.5956 10.6338C13.2255 10.8614 13 11.2647 13 11.6991V13.9384C13 14.8562 13.6246 15.6561 14.5149 15.8787L14.7611 15.9403C14.9198 15.9799 15.0827 16 15.2462 16H20C21.1046 16 22 16.8954 22 18V21C22 22.1046 21.1046 23 20 23H16C14.8954 23 14 22.1046 14 21V19.2549C14 18.6618 13.6867 18.1128 13.1761 17.8111C12.5277 17.4279 11.7132 17.5762 11.0034 17.8281C10.6897 17.9394 10.3519 18 10 18H4C2.34315 18 1 16.6569 1 15V11C1 9.34315 2.34315 8 4 8H10C10.4891 8 10.9509 8.11705 11.3588 8.32467C11.952 8.62656 12.6668 8.79321 13.2521 8.4762C13.7129 8.22657 14 7.74458 14 7.22047V6Z" fill="#020617"/>
<path d="M7 7C7.82843 7 8.5 6.32843 8.5 5.5C8.5 4.67157 7.82843 4 7 4C6.17157 4 5.5 4.67157 5.5 5.5C5.5 6.32843 6.17157 7 7 7Z" fill="#020617"/>
<path d="M19.5 1.5C19.5 2.32843 18.8284 3 18 3C17.1716 3 16.5 2.32843 16.5 1.5C16.5 0.671573 17.1716 0 18 0C18.8284 0 19.5 0.671573 19.5 1.5Z" fill="#020617"/>
<path d="M19.5 13.5C19.5 14.3284 18.8284 15 18 15C17.1716 15 16.5 14.3284 16.5 13.5C16.5 12.6716 17.1716 12 18 12C18.8284 12 19.5 12.6716 19.5 13.5Z" fill="#020617"/>
</svg>
