<svg width="24" height="24" viewBox="0 0 24 24" fill="none" xmlns="http://www.w3.org/2000/svg">
<path d="M17 17H15V19H17V17Z" fill="#020617"/>
<path d="M12 7C11.4477 7 11 7.44772 11 8V9H13V8C13 7.44772 12.5523 7 12 7Z" fill="#020617"/>
<path fill-rule="evenodd" clip-rule="evenodd" d="M21 4.99998C21 3.34313 19.6569 1.99998 18 1.99998H6C4.34315 1.99998 3 3.34313 3 4.99999V19C3 20.6569 4.34315 22 6 22H18C19.6569 22 21 20.6569 21 19V4.99998ZM5 17C5 16.4477 5.44772 16 6 16H18C18.5523 16 19 16.4477 19 17V19C19 19.5523 18.5523 20 18 20H6C5.44772 20 5 19.5523 5 19V17ZM10 8V9H9V13H15V9H14V8C14 6.89543 13.1046 6 12 6C10.8954 6 10 6.89543 10 8Z" fill="#020617"/>
</svg>
