<svg width="24" height="24" viewBox="0 0 24 24" fill="none" xmlns="http://www.w3.org/2000/svg">
<path d="M17 8C17 10.7614 14.7614 13 12 13C9.23858 13 7 10.7614 7 8C7 5.23858 9.23858 3 12 3C14.7614 3 17 5.23858 17 8Z" fill="#0F172A"/>
<path d="M4 22C4 17.5817 7.58172 14 12 14C16.4183 14 20 17.5817 20 22H4Z" fill="#0F172A"/>
<path d="M5.22305 6.24025C5.07746 6.80252 5 7.39221 5 8C5 9.93618 5.78608 11.6888 7.05651 12.956C6.87527 12.985 6.68939 13 6.5 13C4.567 13 3 11.433 3 9.5C3 8.01762 3.92157 6.75047 5.22305 6.24025Z" fill="#0F172A"/>
<path d="M19 8C19 9.93618 18.2139 11.6888 16.9435 12.956C17.1247 12.985 17.3106 13 17.5 13C19.433 13 21 11.433 21 9.5C21 8.01761 20.0784 6.75048 18.777 6.24026C18.9225 6.80252 19 7.39222 19 8Z" fill="#0F172A"/>
<path d="M0.173931 22C0.0601884 21.5185 0 21.0163 0 20.5C0 17.0883 2.62849 14.2905 5.97087 14.0212C3.55855 15.8469 2 18.7414 2 22L0.173931 22Z" fill="#0F172A"/>
<path d="M22 22L23.8261 22C23.9398 21.5185 24 21.0163 24 20.5C24 17.0883 21.3715 14.2905 18.0291 14.0212C20.4415 15.8469 22 18.7414 22 22Z" fill="#0F172A"/>
</svg>
