<svg width="24" height="24" viewBox="0 0 24 24" fill="none" xmlns="http://www.w3.org/2000/svg">
<path d="M18.9419 5.25625C17.6473 4.66937 16.263 4.24286 14.8157 4C14.638 4.31134 14.4304 4.7301 14.2872 5.06322C12.7487 4.83906 11.2245 4.83906 9.7143 5.06322C9.57116 4.7301 9.3588 4.31134 9.17947 4C7.73067 4.24286 6.3448 4.67094 5.05016 5.25935C2.43887 9.08252 1.73099 12.8107 2.08493 16.486C3.81688 17.7391 5.49534 18.5003 7.14548 18.9985C7.55291 18.4552 7.91628 17.8777 8.22931 17.269C7.63313 17.0495 7.06211 16.7787 6.52256 16.4642C6.6657 16.3615 6.80571 16.254 6.94098 16.1435C10.2318 17.6348 13.8074 17.6348 17.0589 16.1435C17.1958 16.254 17.3358 16.3615 17.4774 16.4642C16.9362 16.7802 16.3637 17.0511 15.7675 17.2706C16.0805 17.8777 16.4423 18.4567 16.8513 19C18.503 18.5019 20.183 17.7407 21.915 16.486C22.3303 12.2254 21.2056 8.53146 18.9419 5.25625ZM8.67765 14.2257C7.68977 14.2257 6.87963 13.3322 6.87963 12.2441C6.87963 11.156 7.67247 10.2609 8.67765 10.2609C9.68285 10.2609 10.493 11.1544 10.4757 12.2441C10.4772 13.3322 9.68285 14.2257 8.67765 14.2257ZM15.3223 14.2257C14.3344 14.2257 13.5243 13.3322 13.5243 12.2441C13.5243 11.156 14.3171 10.2609 15.3223 10.2609C16.3275 10.2609 17.1376 11.1544 17.1203 12.2441C17.1203 13.3322 16.3275 14.2257 15.3223 14.2257Z" fill="#5865F2"/>
</svg>
