<svg height="2500" viewBox="0 0 200 300" width="1667" xmlns="http://www.w3.org/2000/svg"><path d="m50 300c27.6 0 50-22.4 50-50v-50h-50c-27.6 0-50 22.4-50 50s22.4 50 50 50z" fill="#0acf83"/><path d="m0 150c0-27.6 22.4-50 50-50h50v100h-50c-27.6 0-50-22.4-50-50z" fill="#a259ff"/><path d="m0 50c0-27.6 22.4-50 50-50h50v100h-50c-27.6 0-50-22.4-50-50z" fill="#f24e1e"/><path d="m100 0h50c27.6 0 50 22.4 50 50s-22.4 50-50 50h-50z" fill="#ff7262"/><path d="m200 150c0 27.6-22.4 50-50 50s-50-22.4-50-50 22.4-50 50-50 50 22.4 50 50z" fill="#1abcfe"/></svg>