<svg height="65" viewBox="0 0 47 65" width="47" xmlns="http://www.w3.org/2000/svg" xmlns:xlink="http://www.w3.org/1999/xlink"><linearGradient id="a" x1="50.005395%" x2="50.005395%" y1="8.586106%" y2="100.013939%"><stop offset="0" stop-color="#1a237e" stop-opacity=".2"/><stop offset="1" stop-color="#1a237e" stop-opacity=".02"/></linearGradient><radialGradient id="b" cx="3.168047%" cy="2.717443%" gradientTransform="matrix(1 0 0 .723077 0 .007525)" r="161.248516%"><stop offset="0" stop-color="#fff" stop-opacity=".1"/><stop offset="1" stop-color="#fff" stop-opacity="0"/></radialGradient><mask id="c" fill="#fff"><path d="m29.375 0h-24.96875c-2.4234375 0-4.40625 1.99431818-4.40625 4.43181818v56.13636362c0 2.4375 1.9828125 4.4318182 4.40625 4.4318182h38.1875c2.4234375 0 4.40625-1.9943182 4.40625-4.4318182v-42.8409091z" fill="#fff" fill-rule="evenodd"/></mask><mask id="d" fill="#fff"><path d="m29.375 0h-24.96875c-2.4234375 0-4.40625 1.99431818-4.40625 4.43181818v56.13636362c0 2.4375 1.9828125 4.4318182 4.40625 4.4318182h38.1875c2.4234375 0 4.40625-1.9943182 4.40625-4.4318182v-42.8409091z" fill="#fff" fill-rule="evenodd"/></mask><mask id="e" fill="#fff"><path d="m29.375 0h-24.96875c-2.4234375 0-4.40625 1.99431818-4.40625 4.43181818v56.13636362c0 2.4375 1.9828125 4.4318182 4.40625 4.4318182h38.1875c2.4234375 0 4.40625-1.9943182 4.40625-4.4318182v-42.8409091z" fill="#fff" fill-rule="evenodd"/></mask><mask id="f" fill="#fff"><path d="m29.375 0h-24.96875c-2.4234375 0-4.40625 1.99431818-4.40625 4.43181818v56.13636362c0 2.4375 1.9828125 4.4318182 4.40625 4.4318182h38.1875c2.4234375 0 4.40625-1.9943182 4.40625-4.4318182v-42.8409091z" fill="#fff" fill-rule="evenodd"/></mask><mask id="g" fill="#fff"><path d="m29.375 0h-24.96875c-2.4234375 0-4.40625 1.99431818-4.40625 4.43181818v56.13636362c0 2.4375 1.9828125 4.4318182 4.40625 4.4318182h38.1875c2.4234375 0 4.40625-1.9943182 4.40625-4.4318182v-42.8409091z" fill="#fff" fill-rule="evenodd"/></mask><mask id="h" fill="#fff"><path d="m29.375 0h-24.96875c-2.4234375 0-4.40625 1.99431818-4.40625 4.43181818v56.13636362c0 2.4375 1.9828125 4.4318182 4.40625 4.4318182h38.1875c2.4234375 0 4.40625-1.9943182 4.40625-4.4318182v-42.8409091z" fill="#fff" fill-rule="evenodd"/></mask><mask id="i" fill="#fff"><path d="m29.375 0h-24.96875c-2.4234375 0-4.40625 1.99431818-4.40625 4.43181818v56.13636362c0 2.4375 1.9828125 4.4318182 4.40625 4.4318182h38.1875c2.4234375 0 4.40625-1.9943182 4.40625-4.4318182v-42.8409091z" fill="#fff" fill-rule="evenodd"/></mask><g fill="none" fill-rule="evenodd"><path d="m29.375 0h-24.96875c-2.4234375 0-4.40625 1.99431818-4.40625 4.43181818v56.13636362c0 2.4375 1.9828125 4.4318182 4.40625 4.4318182h38.1875c2.4234375 0 4.40625-1.9943182 4.40625-4.4318182v-42.8409091l-10.28125-7.3863636z" fill="#4285f4" fill-rule="nonzero" mask="url(#c)"/><path d="m30.6638281 16.4309659 16.3361719 16.4272727v-15.1309659z" fill="url(#a)" fill-rule="nonzero" mask="url(#d)"/><path d="m11.75 47.2727273h23.5v-2.9545455h-23.5zm0 5.9090909h17.625v-2.9545455h-17.625zm0-20.6818182v2.9545455h23.5v-2.9545455zm0 8.8636364h23.5v-2.9545455h-23.5z" fill="#f1f1f1" fill-rule="nonzero" mask="url(#e)"/><g mask="url(#f)"><path d="m2.9375 2.95454545v13.29545455c0 2.4485795 1.97179688 4.4318182 4.40625 4.4318182h13.21875z" fill="#a1c2fa" fill-rule="nonzero" transform="translate(26.4375 -2.954545)"/></g><g fill-rule="nonzero"><path d="m4.40625 0c-2.4234375 0-4.40625 1.99431818-4.40625 4.43181818v.36931818c0-2.4375 1.9828125-4.43181818 4.40625-4.43181818h24.96875v-.36931818z" fill="#fff" fill-opacity=".2" mask="url(#g)"/><path d="m42.59375 64.6306818h-38.1875c-2.4234375 0-4.40625-1.9943182-4.40625-4.4318182v.3693182c0 2.4375 1.9828125 4.4318182 4.40625 4.4318182h38.1875c2.4234375 0 4.40625-1.9943182 4.40625-4.4318182v-.3693182c0 2.4375-1.9828125 4.4318182-4.40625 4.4318182z" fill="#1a237e" fill-opacity=".2" mask="url(#h)"/><path d="m33.78125 17.7272727c-2.4344531 0-4.40625-1.9832386-4.40625-4.4318182v.3693182c0 2.4485796 1.9717969 4.4318182 4.40625 4.4318182h13.21875v-.3693182z" fill="#1a237e" fill-opacity=".1" mask="url(#i)"/><path d="m29.375 0h-24.96875c-2.4234375 0-4.40625 1.99431818-4.40625 4.43181818v56.13636362c0 2.4375 1.9828125 4.4318182 4.40625 4.4318182h38.1875c2.4234375 0 4.40625-1.9943182 4.40625-4.4318182v-42.8409091z" fill="url(#b)"/></g></g></svg>