<svg height="72" viewBox="0 0 72 72" width="72" xmlns="http://www.w3.org/2000/svg"><g fill="none" fill-rule="evenodd"><path d="m8 72h56c4.418278 0 8-3.581722 8-8v-56c0-4.418278-3.581722-8-8-8h-56c-4.418278 0-8 3.581722-8 8v56c0 4.418278 3.581722 8 8 8z" fill="#007ebb"/><path d="m62 62h-10.684375v-18.1978851c0-4.9893607-1.8958333-7.7775826-5.8449219-7.7775826-4.2960937 0-6.540625 2.901578-6.540625 7.7775826v18.1978851h-10.2967448v-34.6666667h10.2967448v4.669595s3.0959636-5.7287132 10.452474-5.7287132c7.353125 0 12.6174479 4.4902554 12.6174479 13.7769969zm-45.650651-39.2059867c-3.5072917 0-6.349349-2.8643566-6.349349-6.3970066 0-3.5326501 2.8420573-6.3970067 6.349349-6.3970067 3.5072916 0 6.3476562 2.8643566 6.3476562 6.3970067 0 3.53265-2.8403646 6.3970066-6.3476562 6.3970066zm-5.3167969 39.2059867h10.7368489v-34.6666667h-10.7368489z" fill="#fff"/></g></svg>