<svg width="600" height="400" viewBox="0 0 600 400" fill="none" xmlns="http://www.w3.org/2000/svg">
<g clip-path="url(#clip0_237_4727)">
<path d="M160.18 220.359V243.253H149.67V174.978H158.678C158.804 175.795 158.94 176.658 159.076 177.551C171.295 171.345 181.095 172.492 188.243 180.91C195.623 189.601 196.036 205.726 189.115 215.179C182.632 224.033 173.065 225.819 160.18 220.364V220.359ZM158.895 199.739C158.971 200.353 159.107 202.286 159.454 204.173C160.594 210.353 164.021 213.702 169.45 214.057C175.857 214.479 179.93 211.703 181.851 205.417C183.212 200.977 183.232 196.431 181.937 191.991C180.545 187.232 177.667 183.873 172.435 183.117C163.906 181.884 158.91 187.511 158.895 199.739Z" fill="#CBD5E1"/>
<path d="M246.611 201.464H212.404C213.16 206.99 215.025 211.444 220.676 213.159C226.674 214.981 231.69 212.972 235.919 206.99C239.246 207.999 242.644 209.029 246.072 210.069C241.364 221.186 228.716 226.428 216.815 222.399C204.48 218.223 198.33 205.234 201.959 191.032C205.105 178.723 216.084 171.66 228.802 173.761C241.001 175.775 247.907 186.359 246.611 201.469V201.464ZM213.014 193.27H235.683C235.42 186.471 231.554 182.731 224.991 182.752C218.009 182.772 213.2 186.978 213.014 193.27Z" fill="#CBD5E1"/>
<path d="M584.572 201.484H550.551C551.236 206.842 552.99 211.226 558.46 213.048C564.519 215.067 569.298 213.22 574.127 207.01C577.424 208.004 580.766 209.019 584.118 210.029C580.463 220.542 567.372 226.204 555.516 222.582C542.924 218.73 536.371 205.391 540.066 191.134C543.448 178.078 555.077 171.117 568.542 174.095C579.732 176.566 586.875 188.617 584.577 201.489L584.572 201.484ZM573.885 193.32C573.366 186.08 569.525 182.559 562.498 182.757C555.975 182.939 551.246 187.318 551.135 193.32H573.885Z" fill="#CBD5E1"/>
<path d="M465.783 191.154C465.551 187.516 464.231 184.761 460.516 183.751C453.973 181.965 448.77 184.025 445.645 189.769C442.626 188.825 439.551 187.861 436.203 186.811C438.159 180.392 442.147 176.348 448.382 174.476C460.017 170.98 472.165 175.232 475.089 184.076C475.966 186.729 476.193 189.693 476.228 192.519C476.349 202.195 476.258 211.876 476.238 221.557C476.238 221.704 476.117 221.856 475.986 222.145H466.998V216.046C461.131 222.957 454.149 224.505 446.336 223.241C440.024 222.221 435.362 217.574 434.59 211.723C433.623 204.376 436.617 198.663 443.079 195.933C450.273 192.889 458.071 192.544 465.778 191.154H465.783ZM465.471 199.927C459.855 200.967 454.285 201.378 449.128 203.524C446.305 204.696 444.36 206.695 444.934 210.161C445.464 213.357 447.747 214.651 450.575 215.047C459.765 216.331 466.605 209.466 465.476 199.927H465.471Z" fill="#CBD5E1"/>
<path d="M487.625 174.892H496.981V179.687C504.598 172.888 512.905 171.33 521.646 175.577C528.825 179.063 530.725 186.116 530.967 193.417C531.279 202.9 531.042 212.398 531.042 222.094H520.431C520.431 215.803 520.497 209.46 520.406 203.118C520.356 199.683 520.386 196.182 519.746 192.833C518.455 186.121 514.569 183.015 508.737 183.431C502.728 183.858 498.761 187.775 498.544 194.442C498.247 203.585 498.468 212.748 498.468 222.1H487.62V174.892H487.625Z" fill="#CBD5E1"/>
<path d="M353.604 222.191H342.887C342.887 215.26 342.887 208.324 342.887 201.388C342.887 197.857 342.937 194.325 341.818 190.9C340.225 186.009 336.999 183.315 331.767 183.426C326.403 183.538 322.764 186.202 321.594 191.458C319.749 199.759 321.105 208.222 320.747 216.61C320.672 218.365 320.737 220.126 320.737 222.089H310.272V174.938H319.396C319.467 176.333 319.537 177.728 319.633 179.611C322.925 176.607 326.338 174.532 330.461 173.766C343.32 171.381 352.238 178.383 353.387 191.9C353.538 193.655 353.589 195.431 353.594 197.192C353.614 205.427 353.604 213.667 353.604 222.186V222.191Z" fill="#CBD5E1"/>
<path d="M287.599 222.11C287.599 212.743 287.941 203.489 287.488 194.274C287.135 187.161 283.021 183.421 277.003 183.406C270.863 183.391 266.845 186.943 266.2 194.005C265.63 200.272 265.898 206.614 265.822 212.926C265.787 215.94 265.817 218.949 265.817 222.125H255.292V174.887H264.416C264.491 176.277 264.567 177.673 264.668 179.626C267.984 176.627 271.392 174.542 275.505 173.776C288.445 171.366 297.307 178.403 298.502 192.159C298.638 193.752 298.658 195.355 298.663 196.953C298.678 205.28 298.668 213.606 298.668 222.115H287.599V222.11Z" fill="#CBD5E1"/>
<path d="M379.554 243.354H369.664C372.25 236.175 374.765 229.198 377.366 221.978C371.075 206.457 364.724 190.778 358.282 174.872H369.266C373.566 185.892 377.916 197.05 382.473 208.74C386.873 197.151 391.108 185.994 395.342 174.846H405.903C397.071 197.811 388.315 220.567 379.549 243.354H379.554Z" fill="#CBD5E1"/>
<path d="M423.823 222.181H413.535V157.717H423.823V222.181Z" fill="#CBD5E1"/>
<path d="M64.8675 183.467C52.8954 191.448 51.7914 208.425 64.7515 217.487C57.7699 222.328 46.9522 220.557 40.6057 213.545C34.1282 206.386 33.9518 195.396 40.1924 187.861C46.2364 180.565 57.0541 178.581 64.8675 183.467Z" fill="#CBD5E1"/>
<path d="M65.4925 217.472C77.2932 209.653 78.745 192.646 65.6085 183.416C72.6254 178.697 83.5137 180.418 89.6434 187.201C96.2318 194.498 96.4737 205.559 90.2079 213.083C84.1085 220.405 73.4622 222.368 65.4875 217.467L65.4925 217.472Z" fill="#CBD5E1"/>
<path d="M65.1649 252C36.9511 252 14 228.899 14 200.5C14 172.101 36.9511 149 65.1649 149C93.3787 149 116.33 172.101 116.33 200.5C116.33 228.899 93.3787 252 65.1649 252ZM65.1649 160.163C43.0657 160.163 25.0899 178.256 25.0899 200.5C25.0899 222.744 43.0657 240.837 65.1649 240.837C87.2641 240.837 105.24 222.744 105.24 200.5C105.24 178.256 87.2641 160.163 65.1649 160.163Z" fill="#CBD5E1"/>
</g>
<defs>
<clipPath id="clip0_237_4727">
<rect width="571" height="103" fill="white" transform="translate(14 149)"/>
</clipPath>
</defs>
</svg>
