<svg width="600" height="400" viewBox="0 0 600 400" fill="none" xmlns="http://www.w3.org/2000/svg">
<path d="M219.254 195.392C219.254 198.344 219.575 201.297 220.154 203.673C220.732 206.369 221.632 208.423 223.11 210.477C224.587 212.275 226.065 214.008 228.443 214.907C230.821 215.805 233.198 216.704 236.154 216.704C239.11 216.704 241.488 216.126 244.187 215.228C246.564 214.329 248.364 213.173 249.842 212.275V175.235C248.364 174.657 246.886 174.657 245.086 174.336C243.287 174.015 240.909 174.015 237.953 174.015C232.299 174.015 227.865 175.812 224.33 179.664C221.053 183.259 219.254 188.587 219.254 195.392ZM210.386 182.36C211.864 178.509 213.663 175.235 216.298 172.603C218.933 169.971 221.953 167.852 225.487 166.376C229.021 165.477 233.198 164.578 237.632 164.578C242.387 164.578 246.821 164.899 250.677 165.734C254.532 166.633 257.488 167.21 259.866 167.788V249.571L249.456 251.369V221.711C248.299 222.61 246.179 223.509 243.544 224.407C240.909 225.306 237.889 225.884 234.676 225.884C230.499 225.884 226.644 224.985 223.431 223.509C220.154 222.032 217.519 219.978 215.141 217.282C212.764 214.586 211.286 211.376 210.129 207.524C208.972 203.673 208.33 199.821 208.33 195.392C208.266 190.705 208.844 186.212 210.386 182.36ZM326.311 195.135C326.311 199.885 325.732 203.994 324.254 207.845C322.776 211.697 320.977 214.971 318.599 217.603C316.222 220.235 313.266 222.353 309.989 223.829C306.711 225.306 302.856 225.884 299 225.884C295.145 225.884 291.289 225.306 288.012 223.829C284.735 222.353 281.779 220.299 279.401 217.603C277.023 214.907 274.967 211.697 273.746 207.845C272.268 203.994 271.69 199.821 271.69 195.135C271.69 190.705 272.268 186.276 273.746 182.681C275.224 178.83 277.023 175.556 279.401 172.924C281.779 170.228 284.735 168.173 288.012 166.697C291.289 165.22 295.145 164.643 299 164.643C302.856 164.643 306.711 165.22 309.989 166.697C313.266 168.173 316.222 170.228 318.599 172.924C320.977 175.62 323.033 178.83 324.254 182.681C325.732 186.533 326.311 190.705 326.311 195.135ZM315.322 195.135C315.322 188.587 313.844 183.259 310.888 179.407C307.932 175.556 303.755 173.501 298.743 173.501C293.731 173.501 289.554 175.556 286.598 179.407C283.642 183.259 282.421 188.587 282.421 195.135C282.421 201.683 283.899 207.011 286.855 210.862C289.811 214.714 293.988 216.768 299 216.768C304.012 216.768 308.189 214.714 311.145 210.862C313.844 206.946 315.322 201.939 315.322 195.135ZM337.877 167.596C340.255 167.018 343.532 166.44 347.388 165.798C351.243 165.22 355.998 164.899 361.011 164.899C365.766 164.899 369.622 165.477 372.577 166.954C375.533 168.109 378.232 170.228 379.967 172.603C382.024 174.4 383.245 177.353 384.144 180.627C385.044 183.901 385.301 187.432 385.301 191.604V224.471H374.891V193.979C374.891 190.449 374.569 187.175 374.312 184.8C373.991 182.424 373.156 180.049 371.935 178.573C370.778 177.096 369.236 175.877 367.501 175.042C365.702 174.143 363.324 173.887 360.368 173.887H356.834C356.834 173.887 354.135 174.208 352.978 174.464C351.822 174.785 350.922 174.785 350.022 174.785C349.123 175.106 348.544 175.106 348.223 175.106V224.6H337.813V167.596H337.877ZM409.077 165.798H431.311V174.657H409.077V201.618C409.077 204.571 409.398 206.946 409.655 209.001C410.234 210.798 410.812 212.531 411.712 213.43C412.611 214.586 413.768 215.227 414.989 215.805C416.467 216.383 417.945 216.383 419.744 216.383C423.021 216.383 425.399 216.062 427.455 215.228C429.254 214.65 430.732 214.072 431.311 213.751L433.367 222.353C432.21 222.931 430.411 223.509 427.712 224.407C425.013 225.306 422.057 225.563 418.844 225.563C414.989 225.563 411.455 224.985 409.077 224.086C406.378 223.188 404.322 221.39 402.844 219.657C401.366 217.603 400.145 215.227 399.566 212.275C398.988 209.322 398.667 205.727 398.667 201.875V149.429L409.077 147.631V165.798ZM493 195.135C493 199.885 492.422 203.994 490.944 207.845C489.466 211.697 487.666 214.971 485.289 217.603C482.911 220.299 479.955 222.353 476.678 223.829C473.401 225.306 469.545 225.884 465.69 225.884C461.834 225.884 457.979 225.306 454.701 223.829C451.424 222.353 448.468 220.299 446.09 217.603C443.713 214.907 441.657 211.697 440.436 207.845C438.958 203.994 438.379 199.821 438.379 195.135C438.379 190.705 438.958 186.276 440.436 182.681C441.914 178.83 443.713 175.556 446.09 172.924C448.468 170.228 451.424 168.173 454.701 166.697C457.979 165.22 461.834 164.643 465.69 164.643C469.545 164.643 473.401 165.22 476.678 166.697C479.955 168.173 482.911 170.228 485.289 172.924C487.666 175.62 489.723 178.83 490.944 182.681C492.422 186.533 493 190.705 493 195.135ZM482.012 195.135C482.012 188.587 480.534 183.259 477.578 179.407C474.622 175.556 470.445 173.501 465.433 173.501C460.42 173.501 456.243 175.556 453.288 179.407C450.332 183.259 448.854 188.587 448.854 195.135C448.854 201.683 450.332 207.011 453.288 210.862C456.243 214.714 460.42 216.768 465.433 216.768C470.445 216.768 474.622 214.714 477.578 210.862C480.534 206.946 482.012 201.939 482.012 195.135Z" fill="#CBD5E1"/>
<path d="M117.464 182.791C123.73 189.014 132.063 192.543 140.718 193.184C140.137 184.587 136.52 176.311 130.254 170.087C123.988 163.864 115.914 160.335 107 159.694C107.581 168.291 111.199 176.567 117.464 182.791ZM168.106 182.791C161.841 189.014 153.508 192.543 144.852 193.184C145.434 184.587 149.051 176.311 155.317 170.087C161.259 163.864 169.657 160.335 178.571 159.694C177.925 168.291 174.372 176.567 168.106 182.791ZM168.106 207.363C161.841 201.14 153.508 197.611 144.852 196.97C145.434 205.567 149.051 213.843 155.317 220.067C161.582 226.29 169.915 229.819 178.571 230.46C177.925 221.607 174.372 213.266 168.106 207.363ZM117.464 207.363C123.73 201.14 132.063 197.611 141.041 196.97C140.46 205.567 136.843 213.843 130.577 220.067C123.988 226.29 115.914 229.883 107 230.46C107.581 221.607 111.199 213.266 117.464 207.363Z" fill="#CBD5E1"/>
</svg>
