<svg width="600" height="400" viewBox="0 0 600 400" fill="none" xmlns="http://www.w3.org/2000/svg">
<path d="M402.72 183.233H396.657C396.015 183.233 395.444 183.661 395.23 184.232C394.945 185.088 394.731 185.659 394.659 186.015L383.745 218.765C383.674 219.05 383.317 219.835 382.747 221.12C382.461 221.69 381.605 221.69 381.32 221.12C380.963 220.335 380.678 219.55 380.393 218.765L369.336 185.016L369.122 184.232C368.908 183.589 368.337 183.161 367.695 183.161H361.703C360.633 183.161 359.92 184.16 360.277 185.159L360.491 185.73L377.325 232.75L377.397 232.892C377.539 233.249 377.539 233.606 377.397 233.963L377.111 234.962C376.041 237.887 373.259 239.813 370.121 239.813H363.843C362.987 239.813 362.345 240.527 362.345 241.312V246.164C362.345 247.02 362.987 247.662 363.843 247.662H370.121C376.255 247.662 381.819 244.094 384.245 238.6L384.53 237.887C384.601 237.673 389.095 225.329 403.79 184.588C403.933 183.946 403.433 183.233 402.72 183.233ZM322.684 225.187C323.968 225.615 325.466 225.9 327.178 225.9C332.243 225.9 336.166 223.688 339.091 221.048C341.445 218.694 342.586 215.84 342.586 212.344V208.562C342.586 208.134 342.229 207.777 341.801 207.777L340.66 207.92L335.952 208.491L326.607 209.918C321.543 210.703 318.547 212.772 317.548 215.84C317.263 216.553 317.12 217.338 317.12 218.194C317.049 221.476 319.403 224.259 322.684 225.187ZM350.932 228.469V231.394C350.932 232.25 350.219 232.892 349.434 232.892H344.583C343.727 232.892 343.085 232.25 343.085 231.394L343.014 226.542C343.014 226.186 342.586 226.043 342.372 226.257L341.516 227.113C337.593 230.966 332.243 232.892 325.395 232.892C320.473 232.892 316.407 231.608 313.268 228.968C310.129 226.4 308.56 222.832 308.56 218.123C308.56 215.697 308.988 213.557 309.915 211.773C310.843 209.989 311.984 208.633 313.482 207.634C314.98 206.636 316.478 205.851 317.762 205.351C319.117 204.852 320.544 204.495 322.042 204.281C329.318 203.282 333.241 202.711 333.955 202.569C334.597 202.497 336.951 202.212 341.088 201.641L341.944 201.498C342.301 201.427 342.586 201.142 342.586 200.785V198.716C342.586 195.648 341.801 193.222 340.089 191.509C338.377 189.797 335.381 188.941 330.959 188.941C328.605 188.941 326.607 189.226 324.967 189.726C323.255 190.296 322.042 191.081 321.186 192.151C320.473 193.008 319.902 193.935 319.545 194.934C319.403 195.291 319.331 195.576 319.26 195.933C319.117 196.647 318.475 197.146 317.762 197.146H312.198C311.342 197.146 310.629 196.432 310.7 195.505V195.22C310.771 194.649 310.843 194.221 310.914 193.793C311.199 192.508 311.77 191.153 312.626 189.726C313.482 188.299 314.623 187.086 316.05 186.015C317.477 184.945 319.403 184.089 321.899 183.375C324.467 182.662 327.392 182.305 330.745 182.305C344.298 182.305 350.932 187.585 350.932 198.359V228.469ZM462.212 184.303V231.18C462.212 232.036 462.925 232.678 463.71 232.678H469.773C470.558 232.678 471.271 231.965 471.271 231.18V184.303C471.271 183.447 470.558 182.805 469.773 182.805H463.71C462.925 182.805 462.212 183.447 462.212 184.303ZM462.212 169.391V175.313C462.212 176.169 462.925 176.811 463.71 176.811H469.773C470.629 176.811 471.271 176.169 471.271 175.313V169.391C471.271 168.535 470.629 167.892 469.773 167.892H463.71C462.925 167.892 462.212 168.535 462.212 169.391ZM499.662 190.653H512.502C513.358 190.653 514 189.94 514 189.155V184.303C514 183.447 513.287 182.805 512.502 182.805H499.662C499.234 182.805 498.877 182.448 498.877 182.02V169.391C498.877 168.535 498.164 167.892 497.379 167.892H491.316C490.46 167.892 489.818 168.535 489.818 169.391V182.02C489.818 182.448 489.461 182.805 489.033 182.805H483.469C482.613 182.805 481.971 183.447 481.971 184.303V189.155C481.971 190.011 482.685 190.653 483.469 190.653H489.033C489.461 190.653 489.818 191.01 489.818 191.438V218.123C490.103 226.257 496.88 232.75 505.155 232.75H511.931C512.787 232.75 513.429 232.036 513.429 231.251V226.4C513.429 225.543 512.716 224.901 511.931 224.901H505.155C501.659 224.901 498.877 222.119 498.877 218.694V191.438C498.949 191.01 499.234 190.653 499.662 190.653ZM301.783 188.085C301.783 177.097 292.867 168.178 281.739 167.892H252.777C251.921 167.892 251.279 168.535 251.279 169.391V231.18C251.279 232.036 251.993 232.678 252.777 232.678H258.841C259.697 232.678 260.339 231.965 260.339 231.18V208.99C260.339 208.562 260.624 208.205 261.052 208.205H281.596C292.795 207.991 301.712 199.072 301.783 188.085ZM293.723 188.085C293.723 194.863 288.159 200.357 281.239 200.357H261.123C260.695 200.357 260.41 200 260.41 199.572V176.526C260.41 176.098 260.695 175.741 261.123 175.741H281.239C288.159 175.741 293.723 181.306 293.723 188.085ZM422.551 208.063H445.377C446.233 208.063 446.875 207.349 446.875 206.564V201.712C446.875 200.856 446.162 200.214 445.377 200.214H422.551C422.123 200.214 421.766 199.857 421.766 199.501V176.597C421.766 176.169 422.123 175.812 422.551 175.812H450.585C451.441 175.812 452.083 175.099 452.083 174.314V169.462C452.083 168.606 451.369 167.964 450.585 167.964H414.205C413.349 167.964 412.707 168.606 412.707 169.462V231.251C412.707 232.108 413.349 232.75 414.205 232.75H420.268C421.124 232.75 421.766 232.036 421.766 231.251V208.847C421.837 208.419 422.123 208.063 422.551 208.063ZM152.055 135C188.506 135 218.038 164.111 218.038 200C218.038 235.889 188.506 265 152.055 265C115.603 265 86 235.889 86 200C86 164.111 115.532 135 152.055 135ZM139.714 169.748H129.941C129.228 169.748 128.586 170.247 128.443 170.96V171.246V223.332C128.443 229.61 133.651 234.748 139.999 234.748C146.419 234.748 151.555 229.61 151.555 223.332C151.555 223.189 151.555 223.189 151.555 223.117V210.203C151.555 209.846 151.769 209.561 152.126 209.49L152.34 209.418H167.748C178.519 208.99 187.079 200.214 187.079 189.583C187.079 178.88 178.519 170.176 167.605 169.748H167.463C166.25 169.748 156.977 169.748 139.714 169.748ZM152.982 175.598H166.892C174.739 175.598 181.159 181.877 181.159 189.583C181.159 197.146 175.095 203.282 167.463 203.567H152.34C151.912 203.567 151.555 203.211 151.627 202.783V193.293C151.627 192.865 151.912 192.508 152.34 192.508H166.892C168.533 192.508 169.817 191.224 169.888 189.583C169.888 187.942 168.533 186.658 166.892 186.658H147.133C146.277 186.658 145.635 187.371 145.635 188.156V222.975C145.777 226.186 143.209 228.897 139.999 228.897C136.932 228.897 134.364 226.471 134.364 223.332C134.364 223.189 134.364 223.117 134.364 223.046V176.312C134.364 175.884 134.721 175.598 135.077 175.598H152.982Z" fill="#CBD5E1"/>
</svg>
