<svg width="600" height="400" viewBox="0 0 600 400" fill="none" xmlns="http://www.w3.org/2000/svg">
<path d="M327.306 182.248H312.594C311.993 182.248 311.417 182.488 310.993 182.916C310.568 183.344 310.33 183.925 310.33 184.531V190.039C306.742 184.616 300.252 181.003 292.635 181.003C275.619 181.003 264.754 194.44 264.754 211.382C264.754 228.666 276.071 241.994 292.748 241.994C300.925 241.994 306.635 238.49 310.33 232.73V238.438C310.33 239.044 310.568 239.625 310.993 240.053C311.417 240.481 311.993 240.721 312.594 240.721H327.306C327.907 240.721 328.483 240.481 328.907 240.053C329.332 239.625 329.57 239.044 329.57 238.438V184.537C329.571 184.236 329.513 183.939 329.399 183.661C329.286 183.383 329.119 183.131 328.909 182.918C328.699 182.706 328.449 182.537 328.174 182.422C327.899 182.307 327.604 182.248 327.306 182.248ZM297.315 226.771C289.143 226.771 284.101 219.99 284.101 211.405C284.101 203.162 288.917 196.387 297.117 196.387C305.316 196.387 310.777 202.597 310.777 211.97C310.766 221.217 304.943 226.754 297.326 226.754L297.315 226.771ZM430.173 182.248H415.46C414.859 182.248 414.284 182.488 413.859 182.916C413.435 183.344 413.196 183.925 413.196 184.531V190.039C409.614 184.616 403.124 181.003 395.507 181.003C378.491 181.003 367.626 194.44 367.626 211.382C367.626 228.666 378.943 241.994 395.62 241.994C403.791 241.994 409.507 238.49 413.196 232.73V238.438C413.196 239.044 413.435 239.625 413.859 240.053C414.284 240.481 414.859 240.721 415.46 240.721H430.173C430.773 240.721 431.349 240.481 431.773 240.053C432.198 239.625 432.436 239.044 432.436 238.438V184.537C432.438 183.932 432.202 183.351 431.779 182.922C431.357 182.493 430.783 182.251 430.184 182.248H430.173ZM400.181 226.771C392.01 226.771 386.968 219.99 386.968 211.405C386.968 203.162 391.783 196.387 399.983 196.387C408.183 196.387 413.638 202.597 413.638 211.97C413.638 221.217 407.837 226.754 400.204 226.754L400.181 226.771ZM363.529 226.668H360.484C358.074 226.588 357.01 224.739 357.01 222.239V221.097V162.526C357.01 161.92 356.771 161.34 356.347 160.912C355.922 160.483 355.346 160.243 354.746 160.243H340.441C339.84 160.243 339.265 160.483 338.84 160.912C338.416 161.34 338.177 161.92 338.177 162.526V221.205C338.177 238.004 348.878 241.903 358.911 241.903C360.292 241.903 361.616 241.812 363.732 241.635C364.302 241.59 364.833 241.33 365.221 240.907C365.608 240.483 365.822 239.928 365.821 239.352V228.94C365.821 228.639 365.763 228.341 365.649 228.063C365.536 227.785 365.368 227.532 365.158 227.32C364.947 227.107 364.696 226.938 364.421 226.824C364.145 226.709 363.85 226.65 363.551 226.651L363.529 226.668ZM477.526 181.003C470.141 181.003 464.426 183.709 460.283 189.925V184.531C460.283 183.925 460.045 183.344 459.62 182.916C459.196 182.488 458.62 182.248 458.02 182.248H443.307C442.707 182.248 442.131 182.488 441.706 182.916C441.282 183.344 441.043 183.925 441.043 184.531V238.461C441.043 239.067 441.282 239.647 441.706 240.076C442.131 240.504 442.707 240.744 443.307 240.744H458.02C458.62 240.744 459.196 240.504 459.62 240.076C460.045 239.647 460.283 239.067 460.283 238.461V209.133C460.283 202.466 462.632 196.575 469.575 196.575C476.632 196.575 478.76 203.465 478.76 209.133V238.467C478.76 239.072 478.998 239.653 479.423 240.081C479.847 240.509 480.423 240.75 481.023 240.75H495.736C496.336 240.75 496.912 240.509 497.337 240.081C497.761 239.653 498 239.072 498 238.467V208.003C498.045 195.222 494.463 181.009 477.549 181.009L477.526 181.003ZM203.401 218.243C198.494 216.017 191.902 219.813 186.328 220.732C179.857 221.927 173.225 221.927 166.754 220.732C161.186 219.813 154.593 216.022 149.687 218.243C147.197 219.385 146.433 222.147 147.423 225.452C148.16 227.741 149.444 229.812 151.164 231.48C154.706 234.867 158.864 237.53 163.41 239.323C167.561 241.09 172.021 242 176.527 242C181.033 242 185.493 241.09 189.644 239.323C194.186 237.527 198.342 234.864 201.884 231.48C203.608 229.821 204.901 227.758 205.647 225.475C206.654 222.147 205.891 219.373 203.401 218.243ZM251.139 176.168C251.139 176.088 251.139 176.003 251.139 175.923C251.139 175.678 251.105 175.432 251.082 175.187V175.13C251.082 174.856 251.02 174.559 250.986 174.313V174.222C250.952 173.976 250.912 173.737 250.867 173.491V173.406C250.816 173.16 250.765 172.915 250.708 172.669C250.709 172.656 250.709 172.643 250.708 172.629C249.135 165.962 243.98 160.551 237.127 159.278C227.875 157.566 219.019 164.067 217.378 173.805C217.344 174.03 217.316 174.252 217.293 174.473C216.727 179.782 220.179 184.708 225.215 185.65C227.04 185.993 228.924 185.776 230.625 185.027C231.309 184.727 232.065 184.639 232.799 184.773C233.532 184.907 234.209 185.258 234.745 185.781C236.095 187.103 237.801 187.995 239.651 188.344C244.931 189.326 249.967 185.621 250.901 180.061C251.039 179.217 251.122 178.365 251.15 177.51C251.15 177.407 251.15 177.299 251.15 177.196C251.15 177.093 251.15 177.059 251.15 176.996C251.15 176.933 251.15 176.836 251.15 176.762C251.15 176.562 251.144 176.385 251.139 176.168ZM176.544 161.59C157.87 161.59 146.252 168.234 146.252 178.925C146.252 191.392 158.136 208.408 176.544 208.408C194.652 208.408 206.836 191.204 206.836 178.925C206.836 168.069 195.512 161.59 176.544 161.59ZM135.738 173.805C134.097 164.067 125.241 157.549 115.989 159.278C109.164 160.551 104.009 165.962 102.436 172.629V172.669C102.379 172.915 102.328 173.16 102.277 173.406V173.491C102.232 173.737 102.192 173.976 102.158 174.222C102.155 174.252 102.155 174.283 102.158 174.313C102.119 174.582 102.085 174.856 102.057 175.13V175.187C102.057 175.438 102.017 175.683 102 175.929C102 176.009 102 176.088 102 176.168C102 176.368 102 176.562 102 176.739C102 176.813 102 176.893 102 176.973C102 177.053 102 177.105 102 177.173C102 177.242 102 177.384 102 177.487C102.027 178.342 102.111 179.194 102.249 180.039C103.188 185.598 108.225 189.303 113.499 188.321C115.349 187.972 117.055 187.081 118.405 185.758C118.94 185.235 119.618 184.884 120.351 184.75C121.085 184.616 121.841 184.704 122.525 185.005C124.225 185.754 126.11 185.97 127.934 185.627C133.027 184.685 136.423 179.759 135.885 174.45C135.821 174.245 135.772 174.03 135.738 173.805Z" fill="#CBD5E1"/>
</svg>
