<svg width="24" height="24" viewBox="0 0 24 24" fill="none" xmlns="http://www.w3.org/2000/svg">
<path d="M12.5 1.5V4.5H12C7.85784 4.5 4.5 7.85786 4.5 12C4.5 16.1422 7.85784 19.5 12 19.5C16.1422 19.5 19.5 16.1422 19.5 12C19.5 9.8543 18.5985 7.92037 17.1533 6.55273L15 8.7002V2H21.7002L19.2764 4.42969C21.2629 6.33958 22.5 9.02565 22.5 12C22.5 17.7989 17.799 22.5 12 22.5C6.20106 22.5 1.5 17.7989 1.5 12C1.5 6.20101 6.20106 1.5 12 1.5H12.5ZM13.25 11.4824L16.3838 14.6162L14.6162 16.3838L10.75 12.5176V7.5H13.25V11.4824Z" fill="#111418"/>
</svg>
