<svg width="150" height="149" viewBox="0 0 150 149" fill="none" xmlns="http://www.w3.org/2000/svg">
<g clip-path="url(#clip0_311_17013)">
<path d="M75.4108 0L78.1792 8.18071L86.8092 8.28845L79.8934 13.453L82.4586 21.6998L75.4108 16.7097L68.3655 21.6998L70.9307 13.453L64.0117 8.28845L72.6418 8.18071L75.4108 0Z" fill="#CBD5E1"/>
<path d="M75.4108 126.896L78.1792 135.077L86.8092 135.184L79.8934 140.342L82.4586 148.589L75.4108 143.605L68.3655 148.589L70.9307 140.342L64.0117 135.184L72.6418 135.077L75.4108 126.896Z" fill="#CBD5E1"/>
<path d="M107.42 7.39185L110.189 15.5726L118.819 15.6809L111.896 20.8449L114.462 29.0916L107.42 24.1015L100.372 29.0916L102.936 20.8449L96.0205 15.6809L104.651 15.5726L107.42 7.39185Z" fill="#CBD5E1"/>
<path d="M129.99 31.6198L132.758 39.8037L141.382 39.9114L134.467 45.0753L137.031 53.3221L129.99 48.332L122.942 53.3221L125.507 45.0753L118.585 39.9114L127.221 39.8037L129.99 31.6198Z" fill="#CBD5E1"/>
<path d="M19.6041 31.6198L22.3757 39.8037L31.0026 39.9114L24.0867 45.0753L26.6513 53.3221L19.6041 48.332L12.5621 53.3221L15.1241 45.0753L8.20508 39.9114L16.8351 39.8037L19.6041 31.6198Z" fill="#CBD5E1"/>
<path d="M11.3991 62.8284L14.1674 71.0091L22.7975 71.1175L15.8784 76.2814L18.4437 84.5282L11.3991 79.538L4.35123 84.5282L6.91582 76.2814L0 71.1175L8.63004 71.0091L11.3991 62.8284Z" fill="#CBD5E1"/>
<path d="M138.602 62.8284L141.377 71.0091L150.001 71.1175L143.085 76.2814L145.65 84.5282L138.602 79.538L131.56 84.5282L134.125 76.2814L127.203 71.1175L135.833 71.0091L138.602 62.8284Z" fill="#CBD5E1"/>
<path d="M19.6041 94.454L22.3757 102.629L31.0026 102.737L24.0867 107.901L26.6513 116.148L19.6041 111.164L12.5621 116.148L15.1241 107.901L8.20508 102.737L16.8351 102.629L19.6041 94.454Z" fill="#CBD5E1"/>
<path d="M129.99 94.454L132.758 102.629L141.382 102.737L134.467 107.901L137.031 116.148L129.99 111.164L122.942 116.148L125.507 107.901L118.585 102.737L127.221 102.629L129.99 94.454Z" fill="#CBD5E1"/>
<path d="M43.4049 118.679L46.1739 126.86L54.804 126.968L47.8849 132.132L50.4502 140.378L43.4049 135.388L36.3603 140.378L38.9249 132.132L32.0059 126.968L40.6365 126.86L43.4049 118.679Z" fill="#CBD5E1"/>
<path d="M106.598 118.679L109.367 126.86L117.997 126.968L111.075 132.132L113.64 140.378L106.598 135.388L99.5504 140.378L102.115 132.132L95.1992 126.968L103.829 126.86L106.598 118.679Z" fill="#CBD5E1"/>
<path d="M43.4049 7.39185L46.1739 15.5726L54.804 15.6809L47.8849 20.8449L50.4502 29.0916L43.4049 24.1015L36.3603 29.0916L38.9249 20.8449L32.0059 15.6809L40.6365 15.5726L43.4049 7.39185Z" fill="#CBD5E1"/>
<path d="M97.3164 63.2933H103.147C104.821 63.2933 106.303 63.515 107.592 63.9584C108.901 64.4017 109.921 65.0667 110.652 65.9534C111.403 66.8208 111.778 67.9196 111.778 69.2496C111.778 70.5989 111.412 71.7169 110.681 72.6036C109.969 73.4903 108.978 74.1361 107.708 74.5409C108.824 75.1192 109.873 76.2179 110.854 77.8371C111.836 79.4563 112.884 81.7501 114.001 84.7186H109.469C108.757 82.8874 108.112 81.4128 107.535 80.2948C106.957 79.1575 106.399 78.2901 105.861 77.6925C105.341 77.0949 104.773 76.6902 104.158 76.4781C103.561 76.2468 102.868 76.1311 102.079 76.1311H101.386V84.7186H97.3164V63.2933ZM103.292 73.153C104.562 73.153 105.61 72.8542 106.438 72.2567C107.265 71.6398 107.679 70.7917 107.679 69.7122C107.679 68.6135 107.265 67.7846 106.438 67.2256C105.61 66.6666 104.562 66.3871 103.292 66.3871H101.386V73.153H103.292Z" fill="#F8FAFC"/>
<path d="M79.3887 63.2933H85.1617C86.8937 63.2933 88.4139 63.5343 89.7225 64.0162C91.031 64.4981 92.0413 65.2306 92.7533 66.2136C93.4846 67.1774 93.8502 68.3918 93.8502 69.8568C93.8502 71.3218 93.4846 72.5458 92.7533 73.5289C92.0413 74.4927 91.031 75.2155 89.7225 75.6974C88.4139 76.1793 86.8937 76.4203 85.1617 76.4203H83.4587V84.7186H79.3887V63.2933ZM85.2772 73.3554C86.6627 73.3554 87.7404 73.0566 88.5101 72.4591C89.2799 71.8615 89.6647 70.9941 89.6647 69.8568C89.6647 68.7195 89.2799 67.8617 88.5101 67.2835C87.7404 66.6859 86.6627 66.3871 85.2772 66.3871H83.4587V73.3554H85.2772Z" fill="#F8FAFC"/>
<path d="M58.1621 63.2933H63.9063C66.4657 63.2933 68.6018 63.756 70.3144 64.6812C72.0271 65.5872 73.3164 66.8498 74.1824 68.4689C75.0484 70.0688 75.4813 71.9097 75.4813 73.9915C75.4813 76.0733 75.0484 77.9238 74.1824 79.543C73.3164 81.1429 72.0271 82.4055 70.3144 83.3307C68.6018 84.256 66.4657 84.7186 63.9063 84.7186H58.1621V63.2933ZM62.2321 66.4739V81.5381H64.3393C66.61 81.5381 68.3227 80.8634 69.4773 79.5141C70.632 78.1455 71.2093 76.3143 71.2093 74.0204C71.2093 71.7073 70.632 69.8761 69.4773 68.5268C68.3227 67.1582 66.61 66.4739 64.3393 66.4739H62.2321Z" fill="#F8FAFC"/>
<path d="M53.9525 83.1862C53.2789 83.7452 52.2975 84.2078 51.0082 84.5741C49.7381 84.921 48.3911 85.0945 46.967 85.0945C44.8118 85.0945 42.9644 84.6608 41.4249 83.7934C39.8854 82.9067 38.7019 81.6441 37.8745 80.0057C37.0662 78.3479 36.6621 76.3528 36.6621 74.0205C36.6621 71.7266 37.0758 69.7508 37.9033 68.0931C38.75 66.4353 39.9528 65.1631 41.5115 64.2764C43.0702 63.3705 44.9272 62.9175 47.0825 62.9175C48.3333 62.9175 49.5168 63.062 50.633 63.3512C51.7491 63.6211 52.7497 64.0162 53.6349 64.5367L52.6535 67.9485C51.7876 67.3124 50.912 66.8498 50.0268 66.5606C49.1608 66.2522 48.2564 66.098 47.3134 66.098C45.2544 66.098 43.6764 66.8016 42.5795 68.2087C41.4826 69.5966 40.9342 71.5242 40.9342 73.9915C40.9342 76.5552 41.4826 78.5214 42.5795 79.89C43.6956 81.2393 45.2929 81.914 47.3712 81.914C47.8907 81.914 48.3815 81.8658 48.8433 81.7694C49.3051 81.673 49.7285 81.5381 50.1134 81.3646V75.9577H45.8124V72.7772H53.9525V83.1862Z" fill="#F8FAFC"/>
</g>
<defs>
<clipPath id="clip0_311_17013">
<rect width="150" height="148.589" fill="white"/>
</clipPath>
</defs>
</svg>
