<svg width="295" height="150" viewBox="0 0 295 150" fill="none" xmlns="http://www.w3.org/2000/svg">
<g clip-path="url(#clip0_311_17009)">
<path d="M233.264 97.4122H236.223V106.759H239.541V97.4122H242.5V94.8046H233.304V97.4122H233.264ZM243.42 106.719H246.738V94.7645H243.42V106.719ZM258.972 106.719H262.291V94.7645H258.972V106.719ZM248.817 97.1314V99.5384V101.985V106.719H252.135V101.985H256.214V99.5384H252.135V97.1314H257.453V94.7645H248.857L248.817 97.1314ZM264.37 97.1314V99.2576V101.705V104.392V106.759H272.966V104.392H267.648V101.705H271.726V99.2576H267.648V97.1314H272.966V94.7645H264.37V97.1314ZM211.994 106.759H220.59V104.392H215.273V101.705H219.351V99.2576H215.273V97.1314H220.59V94.7645H211.994V106.759ZM279.682 94.7645H274.765V106.719H279.682C281.082 106.719 282.441 106.158 283.441 105.155C284.44 104.152 285 102.788 285 101.384V100.06C285 98.6558 284.44 97.2919 283.441 96.289C282.441 95.3262 281.082 94.7645 279.682 94.7645ZM278.043 104.392V97.1715C279.203 97.1715 281.642 96.65 281.642 100.782C281.682 104.874 279.243 104.392 278.043 104.392ZM232.345 98.4954C232.345 98.014 232.265 97.5326 232.065 97.0512C231.865 96.6099 231.585 96.2087 231.265 95.8477C230.905 95.4866 230.506 95.2459 230.066 95.0454C229.626 94.8448 229.146 94.7645 228.627 94.7645H222.429V106.719H225.748V102.226H226.947L228.786 106.719H232.505L230.466 101.745C231.025 101.424 231.505 100.942 231.865 100.381C232.185 99.8192 232.345 99.1773 232.345 98.4954ZM227.707 99.8593H225.748V97.1314H227.707C228.067 97.1314 228.427 97.2919 228.667 97.5326C228.906 97.7733 229.066 98.1343 229.066 98.4954C229.066 98.8564 228.906 99.2174 228.667 99.4581C228.427 99.739 228.067 99.8593 227.707 99.8593ZM205.917 82.4087H210.435V69.6116H214.473V68.6087L218.351 75.6291V82.4488H222.869V75.6291L228.187 66.0413H223.349L220.63 71.1762L217.912 66.0413H201.879V69.6517H205.917V82.4087ZM255.414 69.2506V66.0012H243.579V82.4087H255.414V79.1994H248.137V75.5087H253.735V72.139H248.137V69.2506H255.414ZM205.717 94.4436H205.278C203.878 94.4436 202.559 95.0052 201.559 95.968C200.56 96.9709 200 98.2948 200 99.6988V101.745C200 102.427 200.12 103.109 200.4 103.751C200.68 104.392 201.04 104.954 201.519 105.476C201.999 105.957 202.599 106.358 203.238 106.599C203.878 106.88 204.558 107 205.238 107H205.677C206.957 107 208.156 106.478 209.076 105.596C209.995 104.713 210.475 103.47 210.475 102.186H207.317C207.077 103.951 206.277 104.553 205.318 104.553C204.158 104.553 203.238 103.71 203.238 100.902C203.238 98.1343 204.158 96.8907 205.318 96.8907C206.237 96.8907 207.037 97.7331 207.317 99.4983H210.475V99.2576C210.475 97.9738 209.955 96.7302 209.076 95.8477C208.236 94.9651 206.997 94.4436 205.717 94.4436ZM244.619 55.0494H245.219C246.938 55.0494 248.577 54.3674 249.777 53.164C250.976 51.9605 251.696 50.3157 251.696 48.5907H247.458C247.138 50.9576 246.058 51.7599 244.779 51.7599C243.22 51.7599 241.98 50.5965 241.98 46.8657C241.98 43.1349 243.22 41.45 244.779 41.45C246.018 41.45 247.098 42.5733 247.458 44.9401H251.696V44.5791C251.696 42.8541 251.016 41.2093 249.817 39.9657C248.617 38.7622 246.938 38.0802 245.219 38.0802H244.619C242.74 38.0802 240.941 38.8424 239.621 40.1663C238.302 41.4901 237.542 43.2953 237.542 45.1808V47.9488C237.542 48.8715 237.742 49.7942 238.062 50.6767C238.422 51.5192 238.942 52.3215 239.581 52.9634C240.221 53.6052 241.021 54.1267 241.86 54.4878C242.74 54.889 243.659 55.0494 244.619 55.0494ZM239.981 75.2279C240.141 75.1076 240.301 74.9872 240.421 74.8669C240.461 74.8267 240.501 74.8267 240.501 74.7866C240.621 74.6663 240.701 74.586 240.781 74.4657C240.821 74.4256 240.901 74.3454 240.941 74.2651C241.021 74.1849 241.061 74.1047 241.101 74.0244C241.181 73.9442 241.261 73.8238 241.301 73.7035C241.74 72.9413 241.98 72.0186 241.98 71.136C241.98 70.4541 241.86 69.8122 241.58 69.1704C241.341 68.5686 240.941 67.9669 240.461 67.5256C239.981 67.0442 239.421 66.6831 238.822 66.4023C238.222 66.1616 237.542 66.0012 236.863 66.0012H228.347V82.4087H232.865V76.2709H236.823C238.022 76.2709 239.102 75.9099 239.981 75.2279ZM232.984 72.9814V69.2506H235.663C236.143 69.2506 236.623 69.4512 236.983 69.8122C237.342 70.1733 237.542 70.6547 237.542 71.136C237.542 71.6174 237.342 72.0988 236.983 72.4599C236.623 72.8209 236.143 73.0215 235.663 73.0215H232.984V72.9814ZM268.848 66.0012H264.33V82.4087H268.848V66.0012ZM271.766 82.4087H276.284V66.0012H271.766V82.4087ZM228.467 55.0494H229.346C230.346 55.0494 231.305 54.8087 232.225 54.3674C233.104 53.9262 233.904 53.2843 234.504 52.482C235.583 51.1983 236.143 49.5936 236.143 47.9488V45.1808C236.143 43.536 235.583 41.9314 234.504 40.6477C233.904 39.8453 233.104 39.2035 232.225 38.7622C231.345 38.3209 230.346 38.0802 229.346 38.0802H228.467C227.467 38.0802 226.468 38.3209 225.588 38.7622C224.708 39.2035 223.909 39.8453 223.309 40.6477C222.27 41.9314 221.67 43.536 221.67 45.1808V47.9488C221.67 49.5936 222.23 51.1983 223.309 52.482C223.909 53.2843 224.708 53.9262 225.588 54.3674C226.468 54.8087 227.467 55.0494 228.467 55.0494ZM226.587 43.4959C226.667 43.2151 226.787 42.9744 226.907 42.7738C226.947 42.7337 226.947 42.6936 226.987 42.6535C227.027 42.6134 227.067 42.5331 227.107 42.493C227.147 42.4529 227.147 42.4128 227.187 42.3727C227.227 42.3326 227.267 42.2924 227.307 42.2523C227.347 42.2122 227.387 42.1721 227.387 42.132C227.427 42.0919 227.467 42.0517 227.507 42.0116C227.547 41.9715 227.547 41.9715 227.587 41.9314C227.667 41.8913 227.747 41.811 227.787 41.7709L227.827 41.7308C227.907 41.6907 227.947 41.6506 228.027 41.6506C228.067 41.6506 228.067 41.6105 228.107 41.6105C228.187 41.5704 228.227 41.5704 228.307 41.5302C228.347 41.5302 228.347 41.5302 228.387 41.5302C228.467 41.5302 228.547 41.4901 228.627 41.4901H228.667C228.746 41.4901 228.826 41.4901 228.946 41.4901C229.026 41.4901 229.146 41.4901 229.226 41.4901H229.266C229.346 41.4901 229.426 41.5302 229.506 41.5302C229.506 41.5302 229.546 41.5302 229.586 41.5302C229.666 41.5302 229.706 41.5704 229.786 41.6105C229.826 41.6105 229.826 41.6105 229.866 41.6506C229.946 41.6907 229.986 41.7308 230.066 41.7308L230.106 41.7709C230.186 41.811 230.266 41.8913 230.306 41.9314C230.346 41.9715 230.346 41.9715 230.386 42.0116C230.426 42.0517 230.466 42.0919 230.506 42.132C230.546 42.1721 230.586 42.2122 230.586 42.2523C230.626 42.2924 230.666 42.3326 230.706 42.3727C230.746 42.4128 230.786 42.4529 230.786 42.493C230.825 42.5331 230.865 42.6134 230.905 42.6535C230.945 42.6936 230.945 42.7337 230.985 42.7738C231.105 43.0145 231.225 43.2552 231.305 43.4959C231.665 44.5791 231.825 45.7023 231.785 46.8657C231.825 47.7884 231.705 48.711 231.465 49.6337C231.465 49.6738 231.465 49.6738 231.465 49.714C231.425 49.8343 231.385 49.9145 231.345 49.9948C231.265 50.1953 231.145 50.436 231.065 50.5965C231.065 50.5965 231.065 50.6366 231.025 50.6366C230.985 50.7169 230.945 50.7971 230.865 50.8372C230.865 50.8372 230.865 50.8372 230.865 50.8773C230.825 50.9576 230.746 50.9977 230.706 51.0779C230.546 51.2384 230.346 51.3988 230.146 51.5192C230.106 51.5593 230.066 51.5593 229.986 51.5994C229.946 51.5994 229.906 51.6395 229.906 51.6395C229.866 51.6395 229.826 51.6796 229.786 51.6796C229.746 51.6796 229.706 51.7198 229.626 51.7198C229.586 51.7198 229.546 51.7198 229.546 51.7599C229.466 51.7599 229.426 51.8 229.346 51.8H229.306C229.226 51.8 229.146 51.8 229.026 51.8C228.946 51.8 228.826 51.8 228.746 51.8H228.706C228.627 51.8 228.587 51.8 228.507 51.7599C228.467 51.7599 228.427 51.7599 228.427 51.7198C228.387 51.7198 228.347 51.6796 228.267 51.6796C228.227 51.6796 228.187 51.6395 228.147 51.6395C228.107 51.6395 228.067 51.5994 228.027 51.5994C227.987 51.5994 227.947 51.5593 227.867 51.5192C227.667 51.3988 227.467 51.2785 227.307 51.0779C227.267 51.0378 227.187 50.9576 227.147 50.8773C227.147 50.8773 227.147 50.8773 227.147 50.8372C227.107 50.757 227.067 50.7169 226.987 50.6366C226.987 50.6366 226.987 50.5965 226.947 50.5965C226.827 50.3959 226.747 50.1953 226.667 49.9948C226.627 49.9145 226.587 49.7942 226.548 49.714C226.548 49.714 226.548 49.6738 226.548 49.6337C226.308 48.7512 226.188 47.7884 226.228 46.8657C226.068 45.7424 226.228 44.5791 226.587 43.4959ZM213.074 51.8401C210.835 51.8401 210.155 49.6337 210.075 49.2727L207.836 49.7942L205.957 50.1552C206.357 52.2814 208.076 55.2901 212.954 55.2901C219.231 55.2901 219.831 51.118 219.831 49.7942C219.831 46.3843 217.032 45.5017 213.953 44.4587C212.034 43.8169 211.515 43.5762 211.515 42.7337C211.515 41.8913 212.314 41.4099 213.314 41.4099C214.633 41.4099 215.393 42.132 215.952 43.3355L219.591 42.0517C218.871 39.9657 217.472 38 213.154 38C208.836 38 206.957 40.768 206.957 42.8541C206.957 45.7424 208.316 46.9861 211.714 48.1494C214.233 49.032 215.313 49.2727 215.313 50.3959C215.273 51.2384 214.553 51.8401 213.074 51.8401ZM266.649 41.7308C267.888 42.0919 268.048 43.3756 267.648 44.2581C267.248 45.1808 265.529 46.6651 264.69 47.307C263.37 48.3099 259.532 51.2785 259.532 51.2785V54.889H272.366V51.2785H265.289C265.289 51.2785 266.329 50.5564 268.728 48.8314C271.127 47.1064 272.086 45.1006 272.086 43.7366C272.086 42.3727 272.046 38.0802 265.929 38.0802C259.812 38.0802 259.292 43.5762 259.292 43.5762L263.29 44.7395C263.73 41.6907 265.729 41.45 266.649 41.7308Z" fill="#CBD5E1"/>
<path d="M118.023 9.17722C105.553 2.36948 91.4661 -0.731078 77.3114 0.145166C63.1567 1.08881 49.5412 6.00926 38.0826 14.3673C26.4218 22.7927 17.4572 34.3861 12.2671 47.7994C9.57099 54.7419 7.88591 62.0215 7.34668 69.4358H25.95C27.2307 55.6182 33.5666 42.7441 43.7445 33.3076C53.9224 23.8712 67.2009 18.4789 81.086 18.2767C95.3081 18.0071 109.126 23.1297 119.776 32.6336C130.358 42.1375 137.031 55.2811 138.379 69.4358H156.915C155.702 49.1474 144.31 23.6015 118.023 9.17722ZM87.4219 56.4944C86.2086 57.9773 84.591 58.9883 82.7037 59.5275C80.8838 60.0668 78.9291 59.9994 77.1092 59.3253C75.7611 58.9883 74.5479 58.3143 73.5368 57.3032C72.5258 56.3596 71.7843 55.1463 71.3799 53.8657C70.9755 52.585 70.9081 51.1695 71.1777 49.8215C71.4473 48.4734 72.0539 47.1927 72.9302 46.1817C74.5479 44.4292 76.7722 43.2833 79.1987 43.0811C81.6252 42.8789 83.9843 43.5529 85.8716 45.0358C86.4783 45.5076 87.0175 46.0469 87.5567 46.5861C88.2307 46.1143 88.9048 45.5751 89.7136 45.0358C88.8374 43.7552 87.6915 42.6767 86.3434 41.9353C83.8495 40.5872 81.0186 40.048 78.1876 40.4524C76.7048 40.5872 75.2219 41.059 73.8738 41.7331C72.5258 42.4745 71.3799 43.4181 70.4362 44.564C69.4926 45.7099 68.8186 46.9905 68.4141 48.406C68.0097 49.8215 67.9423 51.3043 68.1445 52.7198C68.3467 54.5397 69.0208 56.3596 70.0992 57.8425C71.1777 59.3253 72.6606 60.5386 74.3456 61.28C76.3677 62.2237 78.6595 62.5607 80.8838 62.3585C83.5799 62.2911 86.2086 61.2126 88.2981 59.4601C88.8374 58.9883 89.2418 58.4491 89.781 57.9773L87.4893 56.3596C87.4893 56.3596 87.4893 56.427 87.4219 56.4944ZM104.475 62.0215H107.71L111.08 55.2811H120.045L123.483 62.0215H126.651C122.943 54.5397 119.304 47.1253 115.597 39.7109C111.889 47.1253 108.182 54.5397 104.475 62.0215ZM112.496 52.5176C113.507 50.4281 114.585 48.406 115.597 46.3165C116.675 48.406 117.686 50.4955 118.697 52.5176H112.496ZM37.8804 62.0215H41.1158C42.2616 59.7972 43.4075 57.5054 44.4859 55.2811H53.4506C54.5964 57.5054 55.7423 59.7972 56.8882 62.0215H60.0561L49.002 39.6436C45.2948 47.1253 41.5876 54.5397 37.8804 62.0215ZM45.834 52.5176C46.8451 50.4281 47.9235 48.406 49.002 46.2491C50.0804 48.406 51.0915 50.4281 52.1025 52.5176H45.834ZM107.104 49.6867C107.576 48.9452 107.913 48.069 107.98 47.1927C108.047 46.3165 107.913 45.3728 107.576 44.564C107.238 43.7552 106.699 43.0137 106.025 42.4071C105.351 41.8005 104.542 41.396 103.666 41.1938C102.655 40.9242 101.577 40.7894 100.498 40.8568C98.3413 40.7894 96.1843 40.8568 93.96 40.8568C93.8252 40.8568 93.6904 40.8568 93.623 40.8568V62.0215H96.454V52.5176C97.1954 52.5176 97.8694 52.5176 98.5435 52.5176C99.8915 52.4502 101.307 52.4502 102.655 52.3154C103.531 52.248 104.408 51.9784 105.216 51.5739C105.958 51.0347 106.632 50.4281 107.104 49.6867ZM104.812 47.6646C104.61 48.2712 104.205 48.743 103.666 49.08C103.127 49.417 102.52 49.6193 101.914 49.6193C100.161 49.6867 98.3413 49.6193 96.5214 49.6193V43.4181C98.4087 43.4855 100.229 43.4855 102.048 43.553C102.52 43.553 102.992 43.6878 103.397 43.89C103.801 44.0922 104.205 44.4292 104.475 44.8336C104.745 45.238 104.879 45.7099 104.947 46.1817C105.014 46.7209 104.947 47.2601 104.812 47.6646ZM61.7412 61.9541H64.6396V40.7894H61.7412V61.9541Z" fill="#CBD5E1"/>
<path d="M83.2428 131.043C71.245 131.38 59.382 127.74 49.6759 120.73C36.8693 111.563 29.1853 99.1609 26.4217 83.6581H7.68359C11.593 120.595 44.5532 152.477 86.8826 149.848C125.909 147.489 153.477 116.214 156.645 83.6581H137.907C135.817 96.7343 129.144 108.597 119.169 117.225C109.193 125.92 96.4538 130.773 83.2428 131.043ZM76.1654 110.35C77.6483 110.956 79.266 111.293 80.8837 111.226C82.5013 111.226 84.119 110.822 85.6019 110.148C86.95 109.608 88.1632 108.665 89.1743 107.586C90.1179 106.44 90.8594 105.092 91.1964 103.677C91.803 101.385 91.803 99.026 91.0616 96.7343C90.7246 95.5211 90.1179 94.3752 89.3091 93.3642C88.5002 92.3531 87.4892 91.5443 86.3433 91.005C84.6583 90.1288 82.771 89.7244 80.8837 89.7918C80.4792 89.7918 80.0748 89.7918 79.6704 89.7918C79.4008 89.7918 79.1986 89.8592 78.929 89.8592C77.3787 89.994 75.8284 90.6006 74.4803 91.4769C73.1323 92.3531 72.0538 93.5664 71.3124 94.9144C70.2339 96.8691 69.8295 99.0935 69.9643 101.25C70.2339 105.497 72.1886 108.665 76.1654 110.35ZM77.9853 93.5664C79.3334 93.0271 80.8837 92.8923 82.2991 93.162C83.7146 93.499 85.0627 94.2404 86.0063 95.3863C87.2196 97.0039 87.8262 98.9586 87.6914 100.981C87.5566 103.003 86.6804 104.89 85.1975 106.306C82.0295 109.137 75.3566 108.53 73.9411 102.464C73.8063 101.857 73.7389 101.25 73.7389 100.981C73.6041 97.5432 75.2218 94.7122 77.9853 93.5664ZM60.2582 107.856C59.4494 107.856 58.5731 107.721 57.8317 107.317C57.0903 106.912 56.4836 106.373 56.0118 105.699C55.1356 106.643 54.2593 107.586 53.3831 108.53C54.0571 109.339 54.9334 109.945 55.877 110.35C57.7643 111.159 59.7864 111.361 61.8085 111.024C65.1113 110.485 67.2682 108.328 67.4704 105.16C67.6052 104.081 67.403 102.935 66.8638 101.992C66.3245 101.048 65.5157 100.239 64.5046 99.7675C63.6284 99.3631 62.6848 99.026 61.8085 98.689C60.7975 98.352 59.7864 97.8802 58.7754 97.4084C58.3035 97.1388 57.9665 96.7343 57.8317 96.2625C57.6969 95.7907 57.6969 95.2515 57.8991 94.7796C58.0339 94.4426 58.2361 94.1056 58.5057 93.836C58.7754 93.5664 59.1124 93.4316 59.4494 93.2968C60.3256 92.9597 61.3367 92.8923 62.2803 93.162C63.224 93.4316 64.0328 93.9034 64.6395 94.6448C65.5157 93.7012 66.3919 92.8249 67.2682 91.8813C67.066 91.6791 66.9312 91.5443 66.729 91.4769C65.1113 90.331 63.1566 89.7244 61.2019 89.7918C59.5168 89.7918 57.8317 90.2636 56.3488 91.1399C53.0461 93.162 52.7091 99.0261 56.8881 100.913C57.8991 101.385 58.9776 101.655 59.9886 102.059C60.8649 102.396 61.7411 102.801 62.5499 103.272C62.8196 103.475 63.0892 103.744 63.224 104.081C63.4262 104.418 63.4936 104.755 63.4936 105.092C63.4936 105.429 63.4262 105.834 63.2914 106.171C63.1566 106.508 62.887 106.777 62.6174 107.047C62.1455 107.586 61.2019 107.856 60.2582 107.856ZM96.4538 107.991C99.824 111.293 103.801 111.9 108.182 110.552C109.8 110.013 111.148 108.934 112.091 107.586L109.058 105.429C108.923 105.564 108.856 105.632 108.789 105.766C105.823 109.339 101.105 107.991 99.15 105.497C98.4759 104.621 98.0041 103.609 97.7345 102.464C97.4649 101.385 97.3975 100.239 97.5997 99.0935C97.8019 97.4084 98.6108 95.8581 99.8914 94.7122C101.914 92.8923 105.958 92.0161 108.586 94.9144C108.654 94.9818 108.721 95.0492 108.789 95.0492L111.62 92.9597C110.878 92.0161 109.935 91.2747 108.856 90.7354C106.901 89.7918 104.677 89.5222 102.588 89.8592C101.239 89.994 99.9588 90.4658 98.813 91.1399C97.6671 91.8139 96.6561 92.6901 95.8472 93.7686C94.2969 95.9255 93.5555 98.5542 93.7577 101.183C93.6903 103.744 94.7014 106.171 96.4538 107.991ZM88.8373 115.54C88.3654 115.944 88.0958 116.551 88.0284 117.158C87.961 117.764 88.0958 118.371 88.5002 118.91C88.7025 119.18 88.9721 119.382 89.3091 119.584C89.6461 119.719 89.9831 119.854 90.3201 119.854C90.6572 119.921 90.9942 119.854 91.3312 119.719C91.6682 119.584 91.9378 119.382 92.14 119.112C92.2074 120.326 92.0052 121 91.3312 121.269C90.8594 121.471 90.3875 121.539 89.9157 121.404C89.4439 121.269 88.9721 121 88.7025 120.663C88.5002 120.865 88.298 121.067 88.1632 121.337C88.5677 121.741 89.0395 122.011 89.5787 122.145C90.1179 122.28 90.6572 122.28 91.1964 122.145C91.6008 122.078 92.0052 121.876 92.2748 121.606C92.6119 121.337 92.8141 120.932 92.8815 120.528C92.9489 120.191 93.0163 119.854 93.0163 119.517C93.0163 118.169 93.0163 116.888 93.0163 115.54C93.0163 115.405 93.0163 115.27 93.0163 115.203H92.2748C92.2748 115.405 92.2748 115.607 92.2074 115.877C91.803 115.405 91.2638 115.135 90.5898 115.068C89.9157 115.001 89.3091 115.203 88.8373 115.54ZM92.14 117.427C92.14 117.629 92.14 117.899 92.0052 118.101C91.9378 118.303 91.803 118.506 91.6682 118.64C91.5334 118.775 91.3312 118.91 91.129 119.045C90.9268 119.112 90.7246 119.18 90.4549 119.18C90.0505 119.18 89.6461 118.977 89.3091 118.708C89.0395 118.371 88.8373 117.966 88.8373 117.562C88.8373 117.36 88.8373 117.158 88.9047 116.955C88.9721 116.753 89.1069 116.551 89.2417 116.416C89.3765 116.281 89.5787 116.147 89.7809 116.079C89.9831 116.012 90.1853 115.944 90.3875 115.944C90.5898 115.944 90.792 116.012 90.9942 116.079C91.1964 116.147 91.3986 116.281 91.5334 116.416C91.6682 116.551 91.803 116.753 91.8704 116.955C92.0726 116.955 92.14 117.158 92.14 117.427ZM66.3919 115.135H65.6505V122.011H66.3919V119.112C67.6052 120.123 68.8185 120.191 69.7621 119.314C70.1665 118.91 70.4361 118.303 70.5035 117.697C70.5709 117.09 70.3687 116.484 70.0317 116.012C69.6947 115.54 69.2229 115.27 68.6837 115.135C68.2792 115.001 67.8748 115.068 67.4704 115.135C67.066 115.203 66.729 115.472 66.3919 115.809C66.3919 115.54 66.3919 115.338 66.3919 115.135ZM68.077 115.742C68.2792 115.742 68.5488 115.809 68.7511 115.877C68.9533 115.944 69.1555 116.079 69.2903 116.281C69.4251 116.416 69.5599 116.618 69.6273 116.821C69.6947 117.023 69.7621 117.225 69.6947 117.495C69.6947 117.697 69.6947 117.899 69.6273 118.101C69.5599 118.303 69.4251 118.506 69.2903 118.64C69.1555 118.775 68.9533 118.91 68.7511 119.045C68.5488 119.112 68.3466 119.18 68.1444 119.18C67.9422 119.18 67.6726 119.112 67.4704 119.045C67.2682 118.977 67.066 118.843 66.9312 118.708C66.7964 118.573 66.6616 118.371 66.5941 118.169C66.5267 117.966 66.4593 117.764 66.4593 117.495C66.4593 117.292 66.4593 117.023 66.5941 116.821C66.6616 116.618 66.7964 116.416 66.9312 116.281C67.066 116.147 67.2682 116.012 67.4704 115.877C67.6052 115.809 67.8074 115.742 68.077 115.742ZM78.9964 117.427C78.9964 117.764 79.0638 118.101 79.1312 118.371C79.266 118.708 79.4682 118.977 79.6704 119.18C79.94 119.382 80.2096 119.584 80.4792 119.719C80.8163 119.854 81.0859 119.854 81.4229 119.854C81.7599 119.854 82.0969 119.854 82.3665 119.719C82.7036 119.584 82.9732 119.449 83.1754 119.18C83.3776 118.91 83.5798 118.708 83.7146 118.371C83.8494 118.034 83.9168 117.764 83.8494 117.427C83.8494 117.09 83.8494 116.753 83.7146 116.484C83.5798 116.146 83.445 115.877 83.1754 115.675C82.9732 115.472 82.6362 115.27 82.3665 115.135C82.0295 115.001 81.7599 115.001 81.4229 115.001C81.0859 115.001 80.7489 115.001 80.4792 115.135C80.1422 115.27 79.8726 115.405 79.6704 115.675C79.4008 115.877 79.266 116.146 79.1312 116.484C79.0638 116.753 78.9964 117.09 78.9964 117.427ZM83.108 117.427C83.108 117.629 83.108 117.899 83.0406 118.101C82.9732 118.303 82.8384 118.506 82.7036 118.64C82.5688 118.775 82.3665 118.91 82.1643 119.045C81.9621 119.112 81.7599 119.18 81.4903 119.18C81.2881 119.18 81.0859 119.112 80.8837 119.045C80.6814 118.977 80.4793 118.843 80.3444 118.708C80.2096 118.573 80.0748 118.371 80.0074 118.169C79.94 117.966 79.8726 117.764 79.8726 117.562C79.8726 117.36 79.8726 117.09 79.94 116.888C80.0074 116.686 80.1422 116.484 80.277 116.349C80.4118 116.214 80.6141 116.079 80.8163 115.944C81.0185 115.877 81.2207 115.809 81.4903 115.809C81.6925 115.809 81.9621 115.877 82.1643 115.944C82.3665 116.012 82.5688 116.147 82.7036 116.349C82.8384 116.484 82.9732 116.686 83.0406 116.888C83.108 117.023 83.108 117.225 83.108 117.427ZM101.644 117.427C101.644 117.764 101.711 118.101 101.846 118.371C101.981 118.708 102.183 118.977 102.385 119.18C102.655 119.382 102.925 119.584 103.194 119.719C103.531 119.854 103.801 119.854 104.138 119.854C104.475 119.854 104.812 119.786 105.081 119.719C105.418 119.584 105.688 119.449 105.89 119.18C106.093 118.977 106.295 118.64 106.43 118.371C106.564 118.034 106.564 117.764 106.564 117.427C106.564 117.09 106.497 116.753 106.43 116.484C106.295 116.214 106.16 115.877 105.89 115.675C105.621 115.472 105.351 115.27 105.081 115.135C104.744 115.001 104.475 115.001 104.138 115.001C103.801 115.001 103.464 115.001 103.194 115.135C102.857 115.27 102.588 115.405 102.385 115.675C102.116 115.877 101.981 116.146 101.846 116.484C101.711 116.821 101.644 117.09 101.644 117.427ZM105.756 117.495C105.756 117.697 105.756 117.899 105.688 118.101C105.621 118.303 105.486 118.506 105.351 118.64C105.216 118.775 105.014 118.91 104.812 118.977C104.61 119.045 104.407 119.112 104.205 119.112C104.003 119.112 103.733 119.045 103.531 118.977C103.329 118.91 103.127 118.775 102.992 118.573C102.857 118.438 102.722 118.236 102.655 118.034C102.588 117.832 102.52 117.629 102.52 117.36C102.52 117.158 102.52 116.888 102.655 116.686C102.79 116.484 102.857 116.281 102.992 116.146C103.127 116.012 103.329 115.877 103.531 115.742C103.733 115.675 103.936 115.607 104.205 115.607C104.407 115.607 104.677 115.675 104.879 115.742C105.081 115.809 105.284 115.944 105.418 116.146C105.553 116.281 105.688 116.484 105.756 116.686C105.688 117.023 105.756 117.225 105.756 117.495ZM54.4615 119.786C54.866 119.921 55.2704 119.921 55.6748 119.786C56.0792 119.651 56.4162 119.449 56.6859 119.112C56.6859 119.382 56.7533 119.517 56.7533 119.651H57.4273C57.4273 118.708 57.4273 117.764 57.4273 116.821C57.4273 115.809 57.0903 115.27 56.4162 115.068C55.54 114.798 54.1245 115.001 53.7201 115.742C53.8549 115.877 53.9897 116.012 54.1245 116.146C55.6748 115.338 56.6185 115.607 56.6185 116.821C56.4162 116.821 56.1466 116.821 55.9444 116.821C55.4052 116.888 54.7986 116.955 54.2593 117.158C53.9897 117.225 53.7201 117.427 53.5853 117.697C53.4505 117.966 53.3831 118.303 53.4505 118.573C53.4505 118.843 53.5853 119.112 53.7875 119.314C53.9223 119.584 54.1919 119.719 54.4615 119.786ZM54.866 117.697C55.4052 117.629 56.0118 117.562 56.551 117.495C56.6184 118.64 56.0792 119.314 55.0682 119.247C54.866 119.247 54.6638 119.18 54.5289 119.112C54.3941 118.977 54.2593 118.843 54.2593 118.64C54.2593 118.573 54.2593 118.438 54.2593 118.371C54.2593 118.303 54.3267 118.169 54.3941 118.101C54.4615 118.034 54.5289 117.966 54.5964 117.899C54.6638 117.764 54.7986 117.697 54.866 117.697ZM73.8737 116.888C73.3345 116.955 72.7279 117.023 72.1886 117.225C71.919 117.292 71.6494 117.495 71.5146 117.764C71.3798 118.034 71.3124 118.303 71.3798 118.64C71.3798 118.91 71.5146 119.18 71.7168 119.382C71.919 119.584 72.1212 119.719 72.4582 119.786C72.8627 119.921 73.2671 119.921 73.6715 119.854C74.0759 119.719 74.4129 119.517 74.6825 119.18C74.75 119.382 74.75 119.584 74.8174 119.719H75.4914C75.4914 118.708 75.4914 117.764 75.4914 116.753C75.4914 116.416 75.4914 116.146 75.2892 115.809C75.087 115.472 74.8848 115.27 74.6152 115.135C74.1433 114.933 73.6041 114.866 73.1323 115.001C72.593 115.068 72.1212 115.338 71.7842 115.675L72.1886 116.214C72.4582 115.944 72.7953 115.809 73.1997 115.742C73.6041 115.675 73.9411 115.742 74.2781 115.877C74.4129 115.944 74.5477 116.147 74.6825 116.281C74.75 116.484 74.75 116.618 74.75 116.821C74.2781 116.888 74.0759 116.888 73.8737 116.888ZM72.9301 119.18C72.7279 119.18 72.593 119.112 72.4582 118.977C72.3234 118.843 72.256 118.708 72.1886 118.506C72.1212 118.303 72.1886 118.169 72.256 118.034C72.3234 117.899 72.5256 117.764 72.6604 117.764C73.2671 117.629 73.8737 117.629 74.4803 117.495C74.6151 118.708 73.9411 119.314 72.9301 119.18ZM99.487 119.112C99.2174 119.18 98.8804 119.18 98.6107 119.112C98.3411 119.045 98.0715 118.843 97.9367 118.573C97.7345 118.775 97.5323 118.91 97.3301 119.045C97.5997 119.449 98.0041 119.719 98.4085 119.854C98.8804 119.988 99.3522 119.988 99.7566 119.854C100.094 119.786 100.431 119.651 100.633 119.382C100.835 119.112 100.97 118.775 100.97 118.438C100.97 117.764 100.565 117.36 99.824 117.158C99.487 117.09 99.15 117.023 98.813 116.888C98.6108 116.821 98.3411 116.551 98.4085 116.416C98.4759 116.281 98.5433 116.214 98.6107 116.079C98.6782 116.012 98.813 115.944 98.9478 115.877C99.2174 115.809 99.487 115.809 99.6892 115.877C99.9588 115.944 100.161 116.147 100.296 116.349C100.498 116.214 100.7 116.079 100.902 115.944C100.431 114.866 98.6782 114.866 98.0041 115.54C97.8693 115.675 97.7345 115.877 97.6671 116.079C97.5997 116.281 97.5997 116.484 97.6671 116.686C97.7345 116.888 97.8019 117.09 97.9367 117.225C98.0715 117.36 98.2737 117.495 98.4085 117.562C98.813 117.697 99.2848 117.832 99.6892 117.899C100.026 117.966 100.296 118.169 100.228 118.506C100.161 118.64 100.094 118.775 100.026 118.843C99.7566 118.977 99.6218 119.045 99.487 119.112ZM111.013 116.281C111.215 116.079 111.417 115.944 111.62 115.742C111.148 115.27 110.474 115.001 109.8 115.001C109.126 115.001 108.452 115.27 107.98 115.742C107.575 116.281 107.373 116.955 107.373 117.629C107.441 118.303 107.71 118.91 108.249 119.382C108.721 119.719 109.328 119.921 109.935 119.854C110.541 119.786 111.08 119.517 111.485 119.045C111.35 118.91 111.148 118.708 110.946 118.573C110.811 118.708 110.676 118.843 110.474 118.977C110.272 119.045 110.069 119.112 109.867 119.112C109.665 119.112 109.463 119.112 109.26 119.045C109.058 118.977 108.856 118.843 108.721 118.708C108.384 118.371 108.249 117.966 108.182 117.495C108.182 117.023 108.249 116.618 108.519 116.214C108.654 116.012 108.856 115.877 109.058 115.809C109.26 115.742 109.463 115.675 109.732 115.675C109.935 115.675 110.204 115.742 110.406 115.809C110.676 116.012 110.878 116.147 111.013 116.281ZM62.7522 115.809C63.0218 115.742 63.2914 115.742 63.561 115.809C63.8306 115.877 64.0328 116.079 64.235 116.281C64.4372 116.079 64.6395 115.877 64.8417 115.742C64.3698 115.27 63.7632 115.001 63.1566 115.001C62.4825 115.001 61.8759 115.203 61.4041 115.675C60.9323 116.147 60.7301 116.821 60.7301 117.495C60.7301 118.169 60.9997 118.775 61.4715 119.314C61.9433 119.719 62.5499 119.921 63.1566 119.921C63.7632 119.921 64.3698 119.651 64.8417 119.247L64.3698 118.64C63.4936 119.314 62.6848 119.382 62.0781 118.775C61.8085 118.438 61.6063 118.034 61.6063 117.629C61.6063 117.225 61.6737 116.753 61.9433 116.416C62.1455 116.079 62.4825 115.877 62.7522 115.809ZM97.1279 112.574C96.8583 112.507 96.7235 112.439 96.4538 112.305C95.4428 114.866 94.4991 117.36 93.4881 119.854L94.1621 120.123C95.1732 117.629 96.1168 115.135 97.1279 112.574ZM85.9389 116.821C85.9389 116.686 86.0063 116.484 86.0737 116.349C86.1411 116.214 86.2759 116.079 86.4107 116.012C86.5456 115.944 86.6804 115.877 86.8826 115.809C87.0174 115.742 87.2196 115.742 87.3544 115.809C87.4218 115.809 87.5566 115.809 87.624 115.809V115.068C87.287 115.001 86.95 115.068 86.6129 115.135C86.2759 115.27 86.0063 115.472 85.8041 115.742C85.7367 115.472 85.7367 115.338 85.7367 115.203H85.0627V119.786H85.8041C85.8041 119.449 85.8041 119.112 85.8041 118.843C85.8715 118.169 85.8715 117.495 85.9389 116.821ZM58.8428 119.719H59.5842V115.135H58.8428V119.719ZM76.7047 119.18C76.7047 119.247 76.7047 119.314 76.7047 119.449C76.7047 119.517 76.7721 119.584 76.8395 119.651C76.9069 119.719 76.9743 119.786 77.0417 119.786C77.1091 119.786 77.1765 119.854 77.2439 119.786C77.5809 119.786 77.7831 119.584 77.8505 119.18C77.8505 119.112 77.8505 119.045 77.7831 118.977C77.7831 118.91 77.7157 118.843 77.6483 118.775C77.5809 118.708 77.5135 118.708 77.4461 118.64C77.3787 118.64 77.3113 118.573 77.2439 118.64C77.1765 118.64 77.1091 118.64 77.0417 118.64C76.9743 118.64 76.9069 118.708 76.8395 118.775C76.7721 118.843 76.7721 118.91 76.7047 118.977C76.7047 119.045 76.7047 119.112 76.7047 119.18ZM59.719 113.383C59.719 112.979 59.5168 112.776 59.1798 112.776C59.1124 112.776 59.045 112.776 58.9776 112.776C58.9102 112.776 58.8428 112.844 58.7754 112.911C58.708 112.979 58.7079 113.046 58.6405 113.113C58.5731 113.181 58.5731 113.248 58.5731 113.316C58.5731 113.383 58.5731 113.45 58.5731 113.518C58.5731 113.585 58.6405 113.653 58.708 113.72C58.7754 113.787 58.8428 113.787 58.9102 113.855C58.9776 113.855 59.045 113.922 59.1124 113.922C59.1798 113.922 59.2472 113.922 59.3146 113.922C59.382 113.922 59.4494 113.855 59.5168 113.787C59.5842 113.72 59.5842 113.653 59.6516 113.585C59.719 113.518 59.719 113.45 59.719 113.383Z" fill="#F8FAFC"/>
<path d="M190 88.9227V88H295V88.9227H190Z" fill="#F8FAFC"/>
<path d="M295 115H190V114.077H295V115Z" fill="#F8FAFC"/>
<path d="M164.666 82.7143V70.3795H0V82.7143H164.666Z" fill="#64748B"/>
</g>
<defs>
<clipPath id="clip0_311_17009">
<rect width="295" height="150" fill="white"/>
</clipPath>
</defs>
</svg>
