<svg fill="none" height="142" viewBox="0 0 192 142" width="192" xmlns="http://www.w3.org/2000/svg"><g fill="#e2e8f0"><path d="m33.8729 38.1756c-.162.0899-.3491.0186-.5304-.0505-.0452-.0172-.0902-.0344-.1342-.0488-.4433-.1459-.9465.0017-1.312.292-.2507.2001-.4425.4617-.5982.7437-.0447.0812-.0798.1692-.1139.2549-.0956.2395-.1837.4602-.4524.4602-.2999 0-.4507-.4157-.4834-.5871-.1762-.9308.2728-1.9665 1.1079-2.4126.835-.446 1.993-.2099 2.533.5675.0836.1205.1549.2567.1647.4035.0098.1467-.0524.3058-.1811.3772z"/><path clip-rule="evenodd" d="m51.7966 67.1964c-2.3781 4.7357-10.2565 9.4582-25.4939 9.4582-6.0666 0-14.8112-.4682-19.47155-6.4142-.39089-.4986-.71048-1.0513-.91453-1.6516-.45317-1.3317-.55397-2.9045.04425-5.7115.96207-4.1001 1.65125-7.413 2.02411-11.0908-1.26364 1.2513-3.44754.624-3.77615-.547 1.21774-.3821 2.1544-1.2563 2.1544-3.4031 0-.0208-.00001-.042-.00002-.0634-.00045-.9295-.00116-2.3743.83753-4.1819-.39089-.9086-.55806-2.3764-.50316-3.1948.08605-1.285.45809-2.456.73999-2.8931 0 0-1.99461-1.8581-1.34067-5.1629.64329-3.4088.1893-5.3392-3.20988-10.9309-.084-.153-.18046-.3219-.28601-.5067-.93962-1.6454-2.59953656-4.5521-2.60101-8.6916.0811282-4.56916.916994-7.02268 2.23225-9.3696 1.82635-2.872468 3.43173-2.84862238 3.97887-2.84049531.0261.0003877.04979.00073964.07099.00073964.91781 0 1.78645.97501267 2.08638 2.62654567.03278.17713.04999.35507.06638.53384.61133 6.83411 2.65923 18.21037 4.93323 18.21037.7761 0 1.2317-.7684 1.4316-1.5917.1439-.7158.0469-1.3162-.0236-1.7523-.0704-.4358-.1143-.7074.1351-.766.5728-.0336 1.6209.852 2.3453 2.7635 1.6075-1.4194 2.1311-4.7707 2.6384-8.0175.0293-.1877.0586-.375.088-.5616.1083-.683.2066-1.62687.3159-2.67529.2738-2.62711.616-5.91098 1.3534-7.39386.313-.666682.758-1.148038 1.3587-1.3210638.2073-.05986204.4269-.0647822.6416-.0467416 2.9843.2533634 4.2791 3.9304954 4.8257 5.4825554.0248.07048.0481.13658.0699.19777 1.0735 3.77377 2.1585 10.92523-.4638 12.18073-.5229.2017-.8752.3559-1.108.4674-.1106.0525-.0762.2165.0459.2222.7261.0336 2.1176.2796 2.8158 1.604.2148.3895.5219.3393.8923.2788.1481-.0242.3064-.05.4729-.05 1.9094 0 3.1714 1.8155 3.2042 3.0127 1.5438.3764 2.7854 1.759 3.2656 3.5467.0909.2443.3351.4231.5449.5576.2862.1853.5746.368.8631.5507 1.2488.7912 2.4992 1.5833 3.5777 2.5892.3187.2911.6228.6051.8547.9684.4548.7151.608 1.586.6047 2.4322.0089.4457.0987.5654.2187.7253.0134.0178.0271.0361.0411.0554 1.3817 1.7458 2.1454 4.1116 1.0055 6.183-.5019.9096-1.2602 1.5042-2.0228 2.1022-.1986.1558-.3974.3117-.5921.4735-.1172.1361-.1408.2655-.1661.4043-.0065.0359-.0132.0724-.0216.1099-.1655.7675-.5482 1.5555-1.0465 2.1665.409.8389.8605 1.9484.3139 3.6335 1.9987 2.3822 1.3521 4.9604 1.1932 5.2875 2.6821.7873 3.4319 8.8547 3.4319 8.8547.2246 1.9025 2.2265 3.5507 4.9087 2.6635.2893-.096.5515.2132.4146.4862zm-29.8977-.9455c1.1464 1.2678 2.7173 2.105 4.3965 2.3781l-.0009.0008c4.3646.6995 8.5562-2.7282 8.4029-7.2072-.0188-.4576-.6973-.5002-.7719-.0475-.1057.6379-.2876 1.2538-.5663 1.8352-1.9003 4.1616-7.567 4.857-10.2983 1.1496-.3131-.5043-.9801-.6592-1.4415-.2525-1.2472 1.0873-3.282.6675-3.9646-.893-.2565-.5265-.3663-1.1382-.2712-1.736.0655-.4633-.5966-.6265-.7507-.1821-.9653 3.3949 2.211 5.9665 5.266 4.9546zm-16.02068-45.3211c-.77358 0-3.30986-4.1165-3.30986-9.9289 0-2.60851.66951-5.3925 1.88643-5.3925.74901 0 .91864 1.59577.95305 2.06893.15641 1.98089.14947 3.70967.14286 5.35697-.01005 2.5044-.01934 4.8206.54714 7.5486.06228.2649-.09751.3469-.21962.3469zm17.00748 6.5936c-.7973.0115-1.5709.3542-2.1347.9332-.3171.3255-1.0235 1.3784-.9547 3.0013-.0114.2386-.3253.3239-.4515.1205-.5089-.9119-.5384-1.8631-.3409-2.565.4384-1.4187 1.6766-2.5979 3.35-2.5979 2.1954 0 2.7461 1.4367 2.8559 1.882.0524.1845-.1754.3206-.3155.1894-.0292-.0272-.0597-.0562-.0916-.0866-.3655-.3481-.9201-.8763-1.917-.8769zm20.5423 9.1236c-.2917 0-.6056.4076-.6859 1.0423-.0406.2093-.0685.4602-.0976.7217-.0951.8563-.2029 1.8269-.8137 1.8269-.2926 0-.4441-.3122-.6603-.758-.1912-.3942-.433-.8929-.868-1.3724-.5439-.5609-1.2212-.8368-1.8671-1.0998-.4957-.2018-.9728-.3961-1.3567-.7059-.4917-.3411-.7842-.761-.7523-1.4818 0 0 .1049-1.148 1.6537-.9381.4032.0422.9433.1151 1.4709.1863.4365.0589.8643.1166 1.199.1548 1.3201.1493 1.6422-.8331 1.6815-1.1669.0785-.727-.6331-1.338-1.1556-1.7866-.0397-.0341-.0783-.0672-.1154-.0994-.6637-.5781-1.3873-1.0972-2.1372-1.563-.136-.0845-.2745-.1722-.413-.2608-1.8807-1.1997-5.2241-3.2079-7.0991-.9151-.672.9004-.9637 1.9377-1.1743 2.7971-.2714 1.0966-.7508 1.7237-1.2128 2.328-.2007.2624-.398.5206-.5737.8111-.9219 1.5228-1.5553 3.2522-1.6037 5.0317-.0082 2.5691 1.58 5.0858 4.1138 6.6586 2.1028 1.1037 3.182 1.1037 4.0244.8782.1541-.0525.4917-.2878.2598-.6773-.0288-.0572-.0936-.1616-.1544-.2596-.0273-.044-.0538-.0868-.0759-.1234-.2401-.442.0885-.8462.5753-.4682.3204.2509.6474.5018 1.0243.6552.3172.1287.6786.1796 1.0064.0927.3835-.1255.5785-.3773.6006-.6987.0222-.3838-.1516-.6806-.4392-.8389-.4376-.2132-1.4062-.7462-1.8151-1.048-.4614-.3231-.9547-.8061-1.126-.9881-.2239-.2382-.3837-.4742-.5172-.6714-.1993-.2942-.3401-.5021-.5481-.5021-.0582.0033-.1147.0361-.1541.0804-.2032.2171-.2184.5653-.2281.7889l-.0022.0467c-.0008.0188-.0012.0389-.0016.0595-.0032.1559-.0071.348-.2065.348-.5605 0-.5589-1.1693-.5581-1.4867 0-.4346.159-1.5621.8302-1.5621.2072 0 .489.2777.5997.3869 1.4791 1.6425 3.1985 2.9203 5.3767 2.9203 1.6676 0 3.0608-.9423 3.9368-1.8254.6859-.6889 1.1374-1.5515 1.1677-2.4429.0189-.565-.2524-2.0747-1.1079-2.0747zm-21.3478-6.7267c.0467.524.4606.8627.985.8159.5237-.0467.8826-.4526.8359-.9775-.0459-.5149-.4712-.8716-.9956-.8249-.5245.0467-.8712.4715-.8253.9865z" fill-rule="evenodd"/><path d="m125.184 137.262c-1.121-1.381-1.733-3.105-1.733-4.884v-12.843c0-9.115-4.294-14.335-11.887-14.335-10.111 0-12.0685 5.511-14.7605 10.201-.1304.226-.4187.307-.6496.183l-.5622-.302c-.2409-.129-.3281-.431-.1923-.668l.7678-1.344c.4849-.833.7445-1.779.7445-2.744v-1.938c0-1.25-1.013-2.264-2.2623-2.264h-11.0101c-1.6581 0-2.5517 1.948-1.4703 3.206l1.604 1.867c1.6172 1.882 2.5064 4.282 2.5064 6.765v13.332c0 1.479-.3159 2.941-.9268 4.288l-1.2747 2.812c-.5822 1.284.3557 2.742 1.7663 2.742h13.7551c1.6387 0 2.5387-1.905 1.4987-3.172l-1.1131-1.356c-1.1356-1.385-1.7575-3.121-1.7575-4.913v-7.356c0-2.568.6141-5.117 1.9006-7.339 1.562-2.697 3.602-4.075 6.154-4.075 3.436 0 5.282 2.448 5.282 6.871v11.949c0 1.444-.301 2.871-.884 4.192l-1.092 2.475c-.566 1.283.372 2.724 1.774 2.724h13.056c1.633 0 2.535-1.896 1.504-3.164l-.739-.91z"/><path d="m149.705 136.213c-.44.087-.871.148-1.249.157-3.549 0-5.256-2.235-5.256-6.833v-18.269h6.461c.748 0 1.354-.606 1.354-1.355v-2.213c0-.748-.606-1.355-1.354-1.355h-8.269c-.232 0-.419-.188-.419-.42v-.62c0-.231.185-.419.416-.42h.84c.535.001.971-.433.971-.97v-4.8324c0-.9219-.747-1.668-1.667-1.668h-4.756c-.866 0-1.633.5615-1.89 1.3894-.549 1.813-1.87 7.542-6.167 7.542h-1.278c-.745 0-1.35.606-1.35 1.355v2.213c0 .75.605 1.356 1.35 1.356h3.94v18.731c0 7.62 3.875 11.825 10.898 11.825 3.506 0 6.684-1.281 8.609-3.59.749-.902-.031-2.249-1.184-2.022z"/><path d="m80.6653 134.836c-2.0933.378-3.5095-1.264-3.5095-3.839v-12.396c0-8.841-5.5995-13.59-16.4759-13.59-9.7408 0-16.393 3.747-16.4107 9.407-.0044 1.016.3767 2.012.9379 2.97.9025 1.386 2.5329 2.316 4.4009 2.316 2.8434 0 5.1488-2.147 5.1488-4.794-.0089-2.715-2.2999-4.091-2.9947-4.35.4937-.421 2.6268-2.066 5.7762-2.066 5.0063 0 7.6873 3.797 7.6873 9.709v2.35c-3.7581 0-7.9723.377-10.9372 1.101-7.2543 1.586-11.0775 5.717-11.0775 10.863 0 5.803 4.6153 9.429 11.9303 9.429 5.077 0 9.2957-1.778 11.273-4.749 1.2493 2.509 4.0187 4.091 7.5801 4.091 4.6064 0 7.019-2.405 7.7812-5.264.1966-.814-.4176-1.324-1.1102-1.189zm-15.4397-2.78c-.3922 2.766-2.3032 4.418-5.0726 4.418-3.0345 0-5.077-2.044-5.077-5.276 0-2.506 1.119-4.697 3.5614-5.752 1.646-.727 4.2143-1.124 6.5882-1.189v7.8z"/><path d="m190.853 134.836c-2.094.378-3.51-1.264-3.51-3.839v-12.396c0-8.841-5.599-13.59-16.476-13.59-9.74 0-16.393 3.747-16.41 9.407-.005 1.016.376 2.012.938 2.97.902 1.386 2.533 2.316 4.4 2.316 2.844 0 5.149-2.147 5.149-4.794-.009-2.715-2.3-4.091-2.994-4.35.493-.421 2.626-2.066 5.776-2.066 5.006 0 7.687 3.797 7.687 9.709v2.35c-3.758 0-7.972.377-10.937 1.101-7.254 1.586-11.078 5.717-11.078 10.863 0 5.803 4.616 9.429 11.931 9.429 5.077 0 9.295-1.778 11.273-4.749 1.249 2.509 4.018 4.091 7.58 4.091 4.606 0 7.019-2.405 7.781-5.264.197-.814-.418-1.324-1.11-1.189zm-15.44-2.78c-.392 2.766-2.303 4.418-5.073 4.418-3.034 0-5.076-2.044-5.076-5.276 0-2.506 1.119-4.697 3.561-5.752 1.646-.727 4.214-1.124 6.588-1.189v7.8z"/><path d="m45.0836 94.6545h-5.9784c-1.2869 0-2.0569 1.4315-1.3499 2.506l1.024 1.5575c.8749 1.331 1.0461 3.004.4584 4.485l-10.725 26.994c-.4938 1.3-.9942 2.191-1.2207 2.41-.1215.117-.3248.153-.4827.034l-.5656-.449c-.1801-.135-.169-.331-.0044-.516.3148-.417.5103-.921.6197-1.38.1314-.551.0873-1.129-.1138-1.658l-9.0825-24.026c-.5998-1.585-.5766-3.339.0652-4.9091l.9699-2.3722c.5225-1.2767-.4164-2.6762-1.7951-2.6762h-14.6355c-1.971808 0-3.000239 2.3479-1.663609 3.7982l.931219 1.0114c1.71111 1.8579 3.06321 4.0159 3.98891 6.3659l13.04038 34.104c.3414.865 1.1754 1.433 2.1055 1.433h7.2211c.9279 0 1.762-.567 2.1033-1.429l16.8923-42.6261c.5049-1.2745-.433-2.6563-1.8027-2.6563z"/></g></svg>