<svg xmlns="http://www.w3.org/2000/svg" width="24" height="24" fill="none" viewBox="0 0 24 24"><path fill="currentColor" d="M9 1.96484C9.4455 1.96484 9.84057 2.25022 9.98145 2.67285L15 17.7285L17.0186 11.6729L17.082 11.5205C17.2582 11.1829 17.6103 10.9648 18 10.9648H22C22.5716 10.9648 23.0352 11.4284 23.0352 12C23.0352 12.5716 22.5716 13.0352 22 13.0352H18.7451L15.9814 21.3271C15.8406 21.7498 15.4455 22.0352 15 22.0352C14.5545 22.0352 14.1594 21.7498 14.0186 21.3271L9 6.27148L6.98145 12.3271C6.84057 12.7498 6.4455 13.0352 6 13.0352H2C1.42839 13.0352 0.964844 12.5716 0.964844 12C0.964844 11.4284 1.42839 10.9648 2 10.9648H5.25488L8.01855 2.67285L8.08203 2.52051C8.25823 2.18291 8.61026 1.96484 9 1.96484Z"/></svg>