<svg xmlns="http://www.w3.org/2000/svg" width="24" height="24" fill="none" viewBox="0 0 24 24"><path fill="currentColor" d="M3.48242 3.52343C6.17662 1.22145 9.64141 1.6351 11.9922 3.67285C14.3402 1.63391 17.7692 1.2498 20.4932 3.51367C23.4816 5.99754 23.8401 10.2343 21.5391 13.1953C20.7422 14.2207 19.261 15.7081 17.7783 17.1221C16.2786 18.5523 14.7198 19.9612 13.7275 20.8467C13.5581 20.9979 13.3865 21.1527 13.2285 21.2725C13.0583 21.4015 12.8474 21.5354 12.5781 21.6162C12.1994 21.7298 11.7869 21.7298 11.4082 21.6162C11.1389 21.5354 10.928 21.4015 10.7578 21.2725C10.5998 21.1527 10.4282 20.9979 10.2588 20.8467C9.26653 19.9612 7.70775 18.5523 6.20801 17.1221C4.72532 15.7081 3.24415 14.2207 2.44726 13.1953C0.137078 10.2226 0.561677 6.01909 3.48242 3.52343ZM11.207 5.80859C9.51232 3.82732 6.82352 3.39109 4.82715 5.09668C2.7379 6.88178 2.45681 9.83571 4.08105 11.9258C4.77009 12.8124 6.14323 14.1998 7.63672 15.624C9.11293 17.0318 10.6523 18.4243 11.6367 19.3027C11.8172 19.4638 11.9182 19.5509 11.9932 19.6094C12.0681 19.5509 12.1691 19.4638 12.3496 19.3027C13.3341 18.4243 14.8734 17.0318 16.3496 15.624C17.8431 14.1998 19.2162 12.8124 19.9053 11.9258C21.5386 9.824 21.2775 6.8583 19.1699 5.10644C17.1198 3.40251 14.4663 3.83638 12.7793 5.80859C12.5827 6.03835 12.2956 6.17089 11.9932 6.1709C11.6907 6.1709 11.4037 6.03835 11.207 5.80859ZM11.0732 7.46777C11.4908 7.49745 11.8491 7.77571 11.9814 8.17285L13.1914 11.8027L13.5742 11.0371C13.7495 10.6865 14.108 10.4648 14.5 10.4648H15.5C16.0716 10.4648 16.5352 10.9284 16.5352 11.5C16.5352 12.0716 16.0716 12.5352 15.5 12.5352H15.1396L13.9258 14.9629C13.7386 15.3373 13.3443 15.5618 12.9268 15.5322C12.5092 15.5025 12.1509 15.2243 12.0186 14.8271L10.8086 11.1973L10.4258 11.9629C10.2505 12.3135 9.89203 12.5352 9.5 12.5352H8.5C7.92838 12.5352 7.46484 12.0716 7.46484 11.5C7.46484 10.9284 7.92838 10.4648 8.5 10.4648H8.86035L10.0742 8.03711C10.2614 7.66272 10.6557 7.43814 11.0732 7.46777Z"/></svg>