<svg xmlns="http://www.w3.org/2000/svg" width="24" height="24" fill="none" viewBox="0 0 24 24"><path fill="currentColor" d="M9.21484 7.625C9.21484 5.91844 7.83156 4.53516 6.125 4.53516C4.41844 4.53516 3.03516 5.91844 3.03516 7.625C3.03516 9.33156 4.41844 10.7148 6.125 10.7148C6.26874 10.7148 6.40781 10.7143 6.51953 10.7188C6.58539 10.7214 6.71206 10.7266 6.85449 10.7578L7.00098 10.7988L7.14355 10.8555C7.29034 10.9209 7.44737 11.0157 7.59082 11.1592C7.73427 11.3026 7.82905 11.4597 7.89453 11.6064L7.95117 11.749L7.98926 11.8838C8.01952 12.0144 8.02689 12.129 8.03027 12.2002C8.03513 12.3026 8.03516 12.4253 8.03516 12.5391V18.875C8.03516 19.2008 8.29915 19.4648 8.625 19.4648C8.95085 19.4648 9.21484 19.2008 9.21484 18.875V7.625ZM20.9648 7.625C20.9648 5.91844 19.5816 4.53516 17.875 4.53516C16.1684 4.53516 14.7852 5.91844 14.7852 7.625V18.875C14.7852 19.2008 15.0492 19.4648 15.375 19.4648C15.7008 19.4648 15.9648 19.2008 15.9648 18.875V12.5391C15.9648 12.4253 15.9649 12.3026 15.9697 12.2002C15.9742 12.1053 15.9853 11.933 16.0488 11.749C16.1122 11.5654 16.2179 11.3505 16.4092 11.1592C16.6005 10.9679 16.8154 10.8622 16.999 10.7988C17.1969 10.7306 17.3927 10.7222 17.4805 10.7188C17.5922 10.7143 17.7313 10.7148 17.875 10.7148C19.5816 10.7148 20.9648 9.33156 20.9648 7.625ZM11.2852 18.875C11.2852 20.3441 10.0941 21.5352 8.625 21.5352C7.15592 21.5352 5.96484 20.3441 5.96484 18.875V12.7803C3.18919 12.6956 0.964844 10.4212 0.964844 7.625C0.964844 4.77521 3.27521 2.46484 6.125 2.46484C8.97479 2.46484 11.2852 4.77521 11.2852 7.625V18.875ZM23.0352 7.625C23.0352 10.4212 20.8108 12.6956 18.0352 12.7803V18.875C18.0352 20.3441 16.8441 21.5352 15.375 21.5352C13.9059 21.5352 12.7148 20.3441 12.7148 18.875V7.625C12.7148 4.77521 15.0252 2.46484 17.875 2.46484C20.7248 2.46484 23.0352 4.77521 23.0352 7.625Z"/></svg>