<svg xmlns="http://www.w3.org/2000/svg" width="24" height="24" fill="none" viewBox="0 0 24 24"><path fill="currentColor" d="M11.4727 14.3389C11.7703 14.2301 12.0935 14.2173 12.3975 14.2988L12.5273 14.3389L12.624 14.3789C12.8418 14.478 12.9957 14.617 13.0957 14.7178C13.2034 14.8263 13.3165 14.9628 13.4102 15.0752L16.7012 19.0254C16.8624 19.2188 17.0308 19.4182 17.1514 19.5928C17.2462 19.73 17.4117 19.9873 17.4561 20.3262L17.4678 20.4766L17.46 20.6523C17.4195 21.0584 17.2186 21.4349 16.8975 21.6943C16.5758 21.9542 16.2055 21.9994 16.0156 22.0166C15.8044 22.0357 15.5438 22.0352 15.292 22.0352H8.70801C8.45622 22.0352 8.19564 22.0357 7.98438 22.0166C7.79449 21.9994 7.42417 21.9542 7.10254 21.6943C6.7356 21.3978 6.52511 20.9483 6.53223 20.4766C6.53855 20.0633 6.74028 19.7497 6.84863 19.5928C6.96919 19.4182 7.13763 19.2188 7.29883 19.0254L10.5898 15.0752C10.6835 14.9628 10.7966 14.8263 10.9043 14.7178C11.0185 14.6027 11.2031 14.4375 11.4727 14.3389ZM9.20996 19.9648H14.79L12 16.6162L9.20996 19.9648ZM20.9648 15V7.7998C20.9648 6.94287 20.9643 6.36234 20.9277 5.91406C20.8921 5.47781 20.8277 5.25806 20.751 5.10742C20.5626 4.73794 20.2621 4.43737 19.8926 4.24902C19.7419 4.17227 19.5222 4.10791 19.0859 4.07227C18.6377 4.03565 18.0571 4.03516 17.2002 4.03516H6.7998C5.94287 4.03516 5.36234 4.03565 4.91406 4.07227C4.47781 4.10791 4.25807 4.17227 4.10742 4.24902C3.73794 4.43737 3.43737 4.73794 3.24902 5.10742C3.17227 5.25807 3.10791 5.47781 3.07227 5.91406C3.03565 6.36234 3.03516 6.94287 3.03516 7.7998V15C3.03516 16.0852 3.91476 16.9648 5 16.9648C5.57161 16.9648 6.03516 17.4284 6.03516 18C6.03516 18.5716 5.57161 19.0352 5 19.0352C2.77153 19.0352 0.964844 17.2285 0.964844 15V7.7998C0.964844 6.97689 0.964654 6.29725 1.00977 5.74512C1.05588 5.18095 1.15509 4.65899 1.40527 4.16797C1.79208 3.409 2.409 2.79208 3.16797 2.40527C3.65899 2.15509 4.18095 2.05588 4.74512 2.00977C5.29725 1.96465 5.97689 1.96484 6.7998 1.96484H17.2002C18.0231 1.96484 18.7027 1.96465 19.2549 2.00977C19.8191 2.05588 20.341 2.15509 20.832 2.40527C21.591 2.79208 22.2079 3.409 22.5947 4.16797C22.8449 4.65899 22.9441 5.18095 22.9902 5.74512C23.0353 6.29725 23.0352 6.97689 23.0352 7.7998V15C23.0352 17.2285 21.2285 19.0352 19 19.0352C18.4284 19.0352 17.9648 18.5716 17.9648 18C17.9648 17.4284 18.4284 16.9648 19 16.9648C20.0852 16.9648 20.9648 16.0852 20.9648 15Z"/></svg>