<svg xmlns="http://www.w3.org/2000/svg" width="24" height="24" fill="none" viewBox="0 0 24 24"><path fill="currentColor" d="M18.9649 12.9999C18.9649 11.1527 18.231 9.38131 16.9248 8.07512C15.6187 6.76893 13.8473 6.03508 12 6.03508C10.1528 6.03508 8.38143 6.76893 7.07524 8.07512C5.76905 9.38131 5.0352 11.1527 5.0352 12.9999C5.0352 14.8472 5.76905 16.6185 7.07524 17.9247C8.38143 19.2309 10.1528 19.9648 12 19.9648C13.8473 19.9648 15.6187 19.2309 16.9248 17.9247C18.231 16.6185 18.9649 14.8472 18.9649 12.9999ZM14.7686 10.2685C15.1728 9.86428 15.8273 9.86428 16.2315 10.2685C16.6357 10.6727 16.6357 11.3272 16.2315 11.7314L11.7315 16.2314C11.3273 16.6356 10.6728 16.6356 10.2686 16.2314L8.2686 14.2314C7.86441 13.8272 7.86441 13.1727 8.2686 12.7685C8.67279 12.3643 9.3273 12.3643 9.73149 12.7685L11 14.037L14.7686 10.2685ZM4.2686 2.26848C4.67279 1.86428 5.3273 1.86428 5.73149 2.26848C6.13568 2.67267 6.13568 3.32717 5.73149 3.73137L2.73149 6.73137C2.3273 7.13556 1.67279 7.13556 1.2686 6.73137C0.864406 6.32717 0.864406 5.67267 1.2686 5.26848L4.2686 2.26848ZM18.2686 2.26848C18.6728 1.86428 19.3273 1.86428 19.7315 2.26848L22.7315 5.26848C23.1357 5.67267 23.1357 6.32717 22.7315 6.73137C22.3273 7.13556 21.6728 7.13556 21.2686 6.73137L18.2686 3.73137C17.8644 3.32717 17.8644 2.67267 18.2686 2.26848ZM21.0352 12.9999C21.0352 15.0487 20.337 17.0239 19.0762 18.6132L20.7315 20.2685C21.1357 20.6727 21.1357 21.3272 20.7315 21.7314C20.3273 22.1356 19.6728 22.1356 19.2686 21.7314L17.6133 20.0761C16.024 21.3369 14.0488 22.0351 12 22.0351C9.95105 22.0351 7.97518 21.3372 6.38579 20.0761L4.73149 21.7314C4.3273 22.1356 3.67279 22.1356 3.2686 21.7314C2.86441 21.3272 2.86441 20.6727 3.2686 20.2685L4.9229 18.6132C3.66234 17.024 2.96489 15.0485 2.96489 12.9999C2.96489 10.6037 3.91698 8.30564 5.61137 6.61125C7.30576 4.91686 9.60381 3.96477 12 3.96477C14.3963 3.96477 16.6943 4.91686 18.3887 6.61125C20.0831 8.30564 21.0352 10.6037 21.0352 12.9999Z"/></svg>