<svg xmlns="http://www.w3.org/2000/svg" width="24" height="24" fill="none" viewBox="0 0 24 24"><path fill="currentColor" d="M2.2686 2.26848C2.67279 1.86428 3.3273 1.86428 3.73149 2.26848L18.8389 17.3759C18.8597 17.3952 18.8796 17.4149 18.8985 17.4355L21.7315 20.2685C22.1357 20.6727 22.1357 21.3272 21.7315 21.7314C21.3273 22.1356 20.6728 22.1356 20.2686 21.7314L18.1514 19.6142C16.4828 21.1662 14.2869 22.0351 12 22.0351C9.95105 22.0351 7.97518 21.3372 6.38579 20.0761L4.73149 21.7314C4.3273 22.1356 3.67279 22.1356 3.2686 21.7314C2.86441 21.3272 2.86441 20.6727 3.2686 20.2685L4.9229 18.6132C3.66234 17.024 2.96489 15.0485 2.96489 12.9999C2.96489 10.713 3.83281 8.51623 5.38481 6.84758L4.00004 5.46281L2.73149 6.73137C2.3273 7.13556 1.67279 7.13556 1.2686 6.73137C0.864406 6.32717 0.864406 5.67267 1.2686 5.26848L2.53715 3.99992L2.2686 3.73137C1.86441 3.32717 1.86441 2.67267 2.2686 2.26848ZM18.9649 12.9999C18.9649 11.1527 18.231 9.38131 16.9248 8.07512C15.6187 6.76893 13.8473 6.03508 12 6.03508C11.5587 6.03508 11.1217 6.07658 10.6944 6.15812C10.1329 6.26531 9.59064 5.89732 9.48344 5.33586C9.37627 4.77446 9.74435 4.2322 10.3057 4.12492C10.8602 4.01906 11.4275 3.96477 12 3.96477C14.3963 3.96477 16.6943 4.91686 18.3887 6.61125C20.0831 8.30564 21.0352 10.6037 21.0352 12.9999C21.0352 13.5725 20.9809 14.1397 20.875 14.6943C20.7678 15.2556 20.2255 15.6237 19.6641 15.5165C19.1026 15.4093 18.7347 14.8671 18.8418 14.3056C18.9234 13.8783 18.9649 13.4413 18.9649 12.9999ZM18.2686 2.26848C18.6728 1.86428 19.3273 1.86428 19.7315 2.26848L22.7315 5.26848C23.1357 5.67267 23.1357 6.32717 22.7315 6.73137C22.3273 7.13556 21.6728 7.13556 21.2686 6.73137L18.2686 3.73137C17.8644 3.32717 17.8644 2.67267 18.2686 2.26848ZM5.0352 12.9999C5.0352 14.8472 5.76905 16.6185 7.07524 17.9247C8.38143 19.2309 10.1528 19.9648 12 19.9648C13.7379 19.9648 15.4081 19.3148 16.6875 18.1503L6.84868 8.31145C5.68414 9.59085 5.0352 11.2621 5.0352 12.9999Z"/></svg>