<svg xmlns="http://www.w3.org/2000/svg" width="24" height="24" fill="none" viewBox="0 0 24 24"><g clip-path="url(#a)"><path fill="currentColor" d="M20.9629 8.28899C20.9318 8.25533 20.8865 8.20963 20.7999 8.12297L15.877 3.20012C15.7895 3.11259 15.7438 3.06726 15.71 3.03606C15.6642 3.03431 15.5999 3.03508 15.4776 3.03508H8.52251C8.39931 3.03508 8.33498 3.03427 8.28911 3.03606C8.25541 3.06724 8.21017 3.11305 8.1231 3.20012L3.20024 8.12297C3.11317 8.21005 3.06736 8.25528 3.03618 8.28899C3.03439 8.33486 3.03521 8.39919 3.03521 8.52239V15.4775C3.03521 15.5998 3.03443 15.6641 3.03618 15.7099C3.06738 15.7436 3.11271 15.7893 3.20024 15.8769L8.1231 20.7997C8.20975 20.8864 8.25545 20.9316 8.28911 20.9628C8.33499 20.9646 8.39928 20.9648 8.52251 20.9648H15.4776C15.5999 20.9648 15.6642 20.9646 15.71 20.9628C15.7437 20.9316 15.7899 20.8868 15.877 20.7997L20.7999 15.8769C20.887 15.7898 20.9318 15.7436 20.9629 15.7099C20.9647 15.6641 20.9649 15.5998 20.9649 15.4775V8.52239C20.9649 8.39916 20.9647 8.33486 20.9629 8.28899ZM12.0098 14.9648C12.5814 14.9648 13.045 15.4283 13.045 15.9999C13.045 16.5715 12.5814 17.0351 12.0098 17.0351H12C11.4284 17.0351 10.9649 16.5715 10.9649 15.9999C10.9649 15.4283 11.4284 14.9648 12 14.9648H12.0098ZM10.9649 11.9999V7.99993C10.9649 7.42831 11.4284 6.96477 12 6.96477C12.5717 6.96477 13.0352 7.42831 13.0352 7.99993V11.9999C13.0352 12.5715 12.5717 13.0351 12 13.0351C11.4284 13.0351 10.9649 12.5715 10.9649 11.9999ZM23.0352 15.4775C23.0352 15.6728 23.0414 15.9393 22.9786 16.2011C22.9287 16.4086 22.8469 16.6071 22.7354 16.789C22.5947 17.0186 22.4018 17.2026 22.2637 17.3407L17.3409 22.2636C17.2028 22.4017 17.0187 22.5946 16.7891 22.7353C16.6072 22.8468 16.4087 22.9286 16.2012 22.9784C15.9394 23.0413 15.6729 23.0351 15.4776 23.0351H8.52251C8.32721 23.0351 8.06066 23.0413 7.79888 22.9784C7.5914 22.9286 7.39292 22.8468 7.21099 22.7353C6.98136 22.5946 6.79734 22.4017 6.65923 22.2636L1.73638 17.3407C1.59826 17.2026 1.40541 17.0186 1.2647 16.789C1.15322 16.607 1.07138 16.4086 1.02153 16.2011C0.958685 15.9393 0.964886 15.6728 0.964893 15.4775V8.52239C0.964886 8.32709 0.958685 8.06054 1.02153 7.79876C1.07138 7.59128 1.15322 7.3928 1.2647 7.21086L1.37896 7.0468C1.49899 6.89201 1.63289 6.76259 1.73638 6.65911L6.65923 1.73626C6.79734 1.59814 6.98136 1.40529 7.21099 1.26458L7.35064 1.18645C7.49284 1.11402 7.64335 1.05878 7.79888 1.02141C8.06066 0.958563 8.32721 0.964764 8.52251 0.964771H15.4776C15.6241 0.964766 15.8104 0.961591 16.0049 0.986255L16.2012 1.02141L16.3545 1.06438C16.4559 1.0973 16.5545 1.13809 16.6495 1.18645L16.7891 1.26458L16.9532 1.37883C17.108 1.49887 17.2374 1.63277 17.3409 1.73626L22.2637 6.65911C22.3672 6.76259 22.5011 6.89201 22.6211 7.0468L22.7354 7.21086L22.8135 7.35051C22.886 7.49272 22.9412 7.64322 22.9786 7.79876C23.0414 8.06054 23.0352 8.32709 23.0352 8.52239V15.4775Z"/></g><defs><clipPath id="a"><path fill="#fff" d="M0 0H24V24H0z"/></clipPath></defs></svg>