<svg xmlns="http://www.w3.org/2000/svg" width="24" height="24" fill="none" viewBox="0 0 24 24"><path fill="currentColor" d="M11.1729 1.63641C11.6991 1.4024 12.2999 1.40249 12.8262 1.63641C13.2344 1.81792 13.499 2.13683 13.6807 2.39324C13.8653 2.65392 14.0633 2.99788 14.2803 3.37274L22.5049 17.5798C22.7227 17.9561 22.9231 18.2998 23.0576 18.5905C23.1898 18.8762 23.3354 19.2652 23.2891 19.7106C23.2292 20.2846 22.9287 20.8068 22.4619 21.1462C22.0997 21.4095 21.6895 21.4778 21.376 21.5065C21.057 21.5358 20.6593 21.5348 20.2246 21.5348H3.77442C3.33974 21.5348 2.94195 21.5358 2.62305 21.5065C2.3095 21.4778 1.89938 21.4096 1.53711 21.1462C1.07041 20.8068 0.769799 20.2846 0.709963 19.7106C0.663625 19.2653 0.809245 18.8762 0.941408 18.5905C1.07589 18.2998 1.27631 17.956 1.49414 17.5798L9.71973 3.37274C9.9367 2.99797 10.1347 2.65387 10.3193 2.39324C10.501 2.13689 10.7648 1.81788 11.1729 1.63641ZM11.999 3.60321C11.884 3.76783 11.742 4.01046 11.5107 4.40985L3.28613 18.6169C3.05407 19.0177 2.91301 19.2625 2.82715 19.445C3.02817 19.4623 3.31051 19.4645 3.77442 19.4645H20.2246C20.6877 19.4645 20.9699 19.4622 21.1709 19.445C21.085 19.2625 20.9456 19.0172 20.7139 18.6169L12.4883 4.40985C12.2568 4.01003 12.1142 3.76781 11.999 3.60321ZM12.0098 15.9645C12.5813 15.9645 13.0448 16.4282 13.0449 16.9997C13.0449 17.5713 12.5814 18.0348 12.0098 18.0348H12C11.4284 18.0348 10.9648 17.5713 10.9648 16.9997C10.965 16.4282 11.4285 15.9645 12 15.9645H12.0098ZM10.9648 12.9997V8.99969C10.965 8.42818 11.4285 7.96453 12 7.96453C12.5714 7.96467 13.035 8.42826 13.0352 8.99969V12.9997C13.0352 13.5712 12.5715 14.0347 12 14.0348C11.4284 14.0348 10.9648 13.5713 10.9648 12.9997Z"/></svg>