<svg xmlns="http://www.w3.org/2000/svg" width="24" height="24" fill="none" viewBox="0 0 24 24"><path fill="currentColor" d="M8.96484 6C8.96484 5.52018 8.96428 5.21202 8.94824 4.97656C8.93283 4.75065 8.90679 4.66757 8.8916 4.63086C8.79366 4.39441 8.60559 4.20634 8.36914 4.1084C8.33243 4.09321 8.24935 4.06717 8.02344 4.05176C7.78798 4.03572 7.47983 4.03516 7 4.03516C6.52018 4.03516 6.21202 4.03572 5.97656 4.05176C5.75065 4.06717 5.66757 4.09321 5.63086 4.1084C5.39441 4.20634 5.20634 4.39441 5.1084 4.63086C5.09321 4.66757 5.06717 4.75065 5.05176 4.97656C5.03572 5.21202 5.03516 5.52018 5.03516 6V18C5.03516 18.4798 5.03572 18.788 5.05176 19.0234C5.06717 19.2494 5.09321 19.3324 5.1084 19.3691C5.20634 19.6056 5.39441 19.7937 5.63086 19.8916C5.66757 19.9068 5.75065 19.9328 5.97656 19.9482C6.21202 19.9643 6.52018 19.9648 7 19.9648C7.47983 19.9648 7.78798 19.9643 8.02344 19.9482C8.24935 19.9328 8.33243 19.9068 8.36914 19.8916C8.60559 19.7937 8.79366 19.6056 8.8916 19.3691C8.90679 19.3324 8.93283 19.2494 8.94824 19.0234C8.96428 18.788 8.96484 18.4798 8.96484 18V6ZM18.9648 6C18.9648 5.52018 18.9643 5.21202 18.9482 4.97656C18.9328 4.75065 18.9068 4.66757 18.8916 4.63086C18.7937 4.39441 18.6056 4.20634 18.3691 4.1084C18.3324 4.09321 18.2494 4.06717 18.0234 4.05176C17.788 4.03572 17.4798 4.03516 17 4.03516C16.5202 4.03516 16.212 4.03572 15.9766 4.05176C15.7507 4.06717 15.6676 4.09321 15.6309 4.1084C15.3944 4.20634 15.2063 4.39441 15.1084 4.63086C15.0932 4.66757 15.0672 4.75065 15.0518 4.97656C15.0357 5.21202 15.0352 5.52018 15.0352 6V14C15.0352 14.4798 15.0357 14.788 15.0518 15.0234C15.0672 15.2494 15.0932 15.3324 15.1084 15.3691C15.2063 15.6056 15.3944 15.7937 15.6309 15.8916C15.6676 15.9068 15.7507 15.9328 15.9766 15.9482C16.212 15.9643 16.5202 15.9648 17 15.9648C17.4798 15.9648 17.788 15.9643 18.0234 15.9482C18.2493 15.9328 18.3324 15.9068 18.3691 15.8916C18.6056 15.7937 18.7937 15.6056 18.8916 15.3691C18.9068 15.3324 18.9328 15.2493 18.9482 15.0234C18.9643 14.788 18.9648 14.4798 18.9648 14V6ZM11.0352 18C11.0352 18.4518 11.0357 18.8427 11.0137 19.165C10.991 19.4965 10.9407 19.8304 10.8037 20.1611C10.4957 20.9048 9.90479 21.4957 9.16113 21.8037C8.83037 21.9407 8.49651 21.991 8.16504 22.0137C7.84273 22.0357 7.45178 22.0352 7 22.0352C6.54822 22.0352 6.15728 22.0357 5.83496 22.0137C5.5035 21.991 5.16963 21.9407 4.83887 21.8037C4.09521 21.4957 3.50432 20.9048 3.19629 20.1611C3.05932 19.8304 3.00896 19.4965 2.98633 19.165C2.96434 18.8427 2.96484 18.4518 2.96484 18V6C2.96484 5.54822 2.96434 5.15728 2.98633 4.83496C3.00896 4.5035 3.05932 4.16963 3.19629 3.83887C3.50432 3.09521 4.09521 2.50432 4.83887 2.19629C5.16963 2.05932 5.5035 2.00896 5.83496 1.98633C6.15728 1.96434 6.54822 1.96484 7 1.96484C7.45178 1.96484 7.84273 1.96434 8.16504 1.98633C8.49651 2.00896 8.83037 2.05932 9.16113 2.19629C9.90479 2.50432 10.4957 3.09521 10.8037 3.83887C10.9407 4.16963 10.991 4.5035 11.0137 4.83496C11.0357 5.15728 11.0352 5.54822 11.0352 6V18ZM21.0352 14C21.0352 14.4518 21.0357 14.8427 21.0137 15.165C20.991 15.4965 20.9407 15.8304 20.8037 16.1611C20.4957 16.9048 19.9048 17.4957 19.1611 17.8037C18.8304 17.9407 18.4965 17.991 18.165 18.0137C17.8427 18.0357 17.4518 18.0352 17 18.0352C16.5482 18.0352 16.1573 18.0357 15.835 18.0137C15.5035 17.991 15.1696 17.9407 14.8389 17.8037C14.0952 17.4957 13.5043 16.9048 13.1963 16.1611C13.0593 15.8304 13.009 15.4965 12.9863 15.165C12.9643 14.8427 12.9648 14.4518 12.9648 14V6C12.9648 5.54822 12.9643 5.15728 12.9863 4.83496C13.009 4.5035 13.0593 4.16963 13.1963 3.83887C13.5043 3.09521 14.0952 2.50432 14.8389 2.19629C15.1696 2.05932 15.5035 2.00896 15.835 1.98633C16.1573 1.96434 16.5482 1.96484 17 1.96484C17.4518 1.96484 17.8427 1.96434 18.165 1.98633C18.4965 2.00896 18.8304 2.05932 19.1611 2.19629C19.9048 2.50432 20.4957 3.09521 20.8037 3.83887C20.9407 4.16963 20.991 4.5035 21.0137 4.83496C21.0357 5.15728 21.0352 5.54822 21.0352 6V14Z"/></svg>