<svg xmlns="http://www.w3.org/2000/svg" width="24" height="24" fill="none" viewBox="0 0 24 24"><path fill="currentColor" d="M16 16.9648C16.5716 16.9648 17.0352 17.4284 17.0352 18C17.0352 18.5716 16.5716 19.0352 16 19.0352H3C2.42839 19.0352 1.96484 18.5716 1.96484 18C1.96484 17.4284 2.42839 16.9648 3 16.9648H16ZM20 12.9648C20.5716 12.9648 21.0352 13.4284 21.0352 14C21.0352 14.5716 20.5716 15.0352 20 15.0352H3C2.42839 15.0352 1.96484 14.5716 1.96484 14C1.96484 13.4284 2.42839 12.9648 3 12.9648H20ZM16 8.96484C16.5716 8.96484 17.0352 9.42839 17.0352 10C17.0352 10.5716 16.5716 11.0352 16 11.0352H3C2.42839 11.0352 1.96484 10.5716 1.96484 10C1.96484 9.42839 2.42839 8.96484 3 8.96484H16ZM20 4.96484C20.5716 4.96484 21.0352 5.42839 21.0352 6C21.0352 6.57161 20.5716 7.03516 20 7.03516H3C2.42839 7.03516 1.96484 6.57161 1.96484 6C1.96484 5.42839 2.42839 4.96484 3 4.96484H20Z"/></svg>