<svg xmlns="http://www.w3.org/2000/svg" width="24" height="24" fill="none" viewBox="0 0 24 24"><path fill="currentColor" d="M21 16.9648C21.5716 16.9648 22.0352 17.4284 22.0352 18C22.0352 18.5716 21.5716 19.0352 21 19.0352H8C7.42839 19.0352 6.96484 18.5716 6.96484 18C6.96484 17.4284 7.42839 16.9648 8 16.9648H21ZM21 12.9648C21.5716 12.9648 22.0352 13.4284 22.0352 14C22.0352 14.5716 21.5716 15.0352 21 15.0352H4C3.42839 15.0352 2.96484 14.5716 2.96484 14C2.96484 13.4284 3.42839 12.9648 4 12.9648H21ZM21 8.96484C21.5716 8.96484 22.0352 9.42839 22.0352 10C22.0352 10.5716 21.5716 11.0352 21 11.0352H8C7.42839 11.0352 6.96484 10.5716 6.96484 10C6.96484 9.42839 7.42839 8.96484 8 8.96484H21ZM21 4.96484C21.5716 4.96484 22.0352 5.42839 22.0352 6C22.0352 6.57161 21.5716 7.03516 21 7.03516H4C3.42839 7.03516 2.96484 6.57161 2.96484 6C2.96484 5.42839 3.42839 4.96484 4 4.96484H21Z"/></svg>