<svg xmlns="http://www.w3.org/2000/svg" width="24" height="24" fill="none" viewBox="0 0 24 24"><path fill="currentColor" d="M10.9648 21V9.49805L5.73145 14.7314C5.32725 15.1356 4.67275 15.1356 4.26855 14.7314C3.86436 14.3273 3.86436 13.6727 4.26855 13.2686L11.2686 6.26855L11.3467 6.19727C11.7532 5.86559 12.3525 5.88958 12.7314 6.26855L19.7314 13.2686C20.1356 13.6727 20.1356 14.3273 19.7314 14.7314C19.3273 15.1356 18.6727 15.1356 18.2686 14.7314L13.0352 9.49805V21C13.0352 21.5716 12.5716 22.0352 12 22.0352C11.4284 22.0352 10.9648 21.5716 10.9648 21ZM21 1.96484C21.5716 1.96484 22.0352 2.42839 22.0352 3C22.0352 3.57161 21.5716 4.03516 21 4.03516H3C2.42839 4.03516 1.96484 3.57161 1.96484 3C1.96484 2.42839 2.42839 1.96484 3 1.96484H21Z"/></svg>