<svg xmlns="http://www.w3.org/2000/svg" width="24" height="24" fill="none" viewBox="0 0 24 24"><path fill="currentColor" d="M19.9648 17C19.9648 16.5202 19.9643 16.212 19.9482 15.9766C19.9328 15.7507 19.9068 15.6676 19.8916 15.6309C19.7937 15.3944 19.6056 15.2063 19.3691 15.1084C19.3324 15.0932 19.2494 15.0672 19.0234 15.0518C18.788 15.0357 18.4798 15.0352 18 15.0352H6C5.52018 15.0352 5.21202 15.0357 4.97656 15.0518C4.75065 15.0672 4.66757 15.0932 4.63086 15.1084C4.39441 15.2063 4.20634 15.3944 4.1084 15.6309C4.09321 15.6676 4.06717 15.7507 4.05176 15.9766C4.03572 16.212 4.03516 16.5202 4.03516 17C4.03516 17.4798 4.03572 17.788 4.05176 18.0234C4.06717 18.2494 4.09321 18.3324 4.1084 18.3691C4.20634 18.6056 4.39441 18.7937 4.63086 18.8916C4.66757 18.9068 4.75065 18.9328 4.97656 18.9482C5.21202 18.9643 5.52018 18.9648 6 18.9648H18C18.4798 18.9648 18.788 18.9643 19.0234 18.9482C19.2494 18.9328 19.3324 18.9068 19.3691 18.8916C19.6056 18.7937 19.7937 18.6056 19.8916 18.3691C19.9068 18.3324 19.9328 18.2494 19.9482 18.0234C19.9643 17.788 19.9648 17.4798 19.9648 17ZM19.9648 7C19.9648 6.52018 19.9643 6.21202 19.9482 5.97656C19.9328 5.75065 19.9068 5.66757 19.8916 5.63086C19.7937 5.39441 19.6056 5.20634 19.3691 5.1084C19.3324 5.09321 19.2494 5.06717 19.0234 5.05176C18.788 5.03572 18.4798 5.03516 18 5.03516H10C9.52018 5.03516 9.21202 5.03572 8.97656 5.05176C8.75065 5.06717 8.66757 5.09321 8.63086 5.1084C8.39441 5.20634 8.20634 5.39441 8.1084 5.63086C8.09321 5.66757 8.06717 5.75065 8.05176 5.97656C8.03572 6.21202 8.03516 6.52018 8.03516 7C8.03516 7.47983 8.03572 7.78798 8.05176 8.02344C8.06717 8.24935 8.09321 8.33243 8.1084 8.36914C8.20634 8.60559 8.39441 8.79366 8.63086 8.8916C8.66757 8.90679 8.75065 8.93283 8.97656 8.94824C9.21202 8.96428 9.52018 8.96484 10 8.96484H18C18.4798 8.96484 18.788 8.96428 19.0234 8.94824C19.2494 8.93283 19.3324 8.90679 19.3691 8.8916C19.6056 8.79366 19.7937 8.60559 19.8916 8.36914C19.9068 8.33243 19.9328 8.24935 19.9482 8.02344C19.9643 7.78798 19.9648 7.47983 19.9648 7ZM22.0352 17C22.0352 17.4518 22.0357 17.8427 22.0137 18.165C21.991 18.4965 21.9407 18.8304 21.8037 19.1611C21.4957 19.9048 20.9048 20.4957 20.1611 20.8037C19.8304 20.9407 19.4965 20.991 19.165 21.0137C18.8427 21.0357 18.4518 21.0352 18 21.0352H6C5.54822 21.0352 5.15728 21.0357 4.83496 21.0137C4.5035 20.991 4.16963 20.9407 3.83887 20.8037C3.09521 20.4957 2.50432 19.9048 2.19629 19.1611C2.05932 18.8304 2.00896 18.4965 1.98633 18.165C1.96434 17.8427 1.96484 17.4518 1.96484 17C1.96484 16.5482 1.96434 16.1573 1.98633 15.835C2.00896 15.5035 2.05932 15.1696 2.19629 14.8389C2.50432 14.0952 3.09521 13.5043 3.83887 13.1963C4.16963 13.0593 4.5035 13.009 4.83496 12.9863C5.15728 12.9643 5.54822 12.9648 6 12.9648H18C18.4518 12.9648 18.8427 12.9643 19.165 12.9863C19.4965 13.009 19.8304 13.0593 20.1611 13.1963C20.9048 13.5043 21.4957 14.0952 21.8037 14.8389C21.9407 15.1696 21.991 15.5035 22.0137 15.835C22.0357 16.1573 22.0352 16.5482 22.0352 17ZM22.0352 7C22.0352 7.45178 22.0357 7.84273 22.0137 8.16504C21.991 8.49651 21.9407 8.83038 21.8037 9.16113C21.4957 9.90479 20.9048 10.4957 20.1611 10.8037C19.8304 10.9407 19.4965 10.991 19.165 11.0137C18.8427 11.0357 18.4518 11.0352 18 11.0352H10C9.54822 11.0352 9.15728 11.0357 8.83496 11.0137C8.5035 10.991 8.16963 10.9407 7.83887 10.8037C7.09521 10.4957 6.50432 9.90479 6.19629 9.16113C6.05932 8.83038 6.00896 8.49651 5.98633 8.16504C5.96434 7.84273 5.96484 7.45178 5.96484 7C5.96484 6.54822 5.96434 6.15728 5.98633 5.83496C6.00896 5.5035 6.05932 5.16963 6.19629 4.83887C6.50432 4.09521 7.09521 3.50432 7.83887 3.19629C8.16963 3.05932 8.5035 3.00896 8.83496 2.98633C9.15728 2.96434 9.54822 2.96484 10 2.96484H18C18.4518 2.96484 18.8427 2.96434 19.165 2.98633C19.4965 3.00896 19.8304 3.05932 20.1611 3.19629C20.9048 3.50432 21.4957 4.09521 21.8037 4.83887C21.9407 5.16963 21.991 5.5035 22.0137 5.83496C22.0357 6.15728 22.0352 6.54822 22.0352 7Z"/></svg>