<svg xmlns="http://www.w3.org/2000/svg" width="24" height="24" fill="none" viewBox="0 0 24 24"><path fill="currentColor" d="M21 19.9648C21.5716 19.9648 22.0352 20.4284 22.0352 21C22.0352 21.5716 21.5716 22.0352 21 22.0352H3C2.42839 22.0352 1.96484 21.5716 1.96484 21C1.96484 20.4284 2.42839 19.9648 3 19.9648H21ZM10.9648 3C10.9648 2.42839 11.4284 1.96484 12 1.96484C12.5716 1.96484 13.0352 2.42839 13.0352 3V14.502L18.2686 9.26855C18.6727 8.86436 19.3273 8.86436 19.7314 9.26855C20.1356 9.67275 20.1356 10.3273 19.7314 10.7314L12.7314 17.7314C12.5373 17.9255 12.2745 18.0352 12 18.0352C11.7255 18.0352 11.4627 17.9255 11.2686 17.7314L4.26855 10.7314C3.86436 10.3273 3.86436 9.67275 4.26855 9.26855C4.67275 8.86436 5.32725 8.86436 5.73145 9.26855L10.9648 14.502V3Z"/></svg>