<svg xmlns="http://www.w3.org/2000/svg" width="24" height="24" fill="none" viewBox="0 0 24 24"><path fill="currentColor" d="M18 16.9648C18.5716 16.9648 19.0352 17.4284 19.0352 18C19.0352 18.5716 18.5716 19.0352 18 19.0352H6C5.42839 19.0352 4.96484 18.5716 4.96484 18C4.96484 17.4284 5.42839 16.9648 6 16.9648H18ZM21 12.9648C21.5716 12.9648 22.0352 13.4284 22.0352 14C22.0352 14.5716 21.5716 15.0352 21 15.0352H3C2.42839 15.0352 1.96484 14.5716 1.96484 14C1.96484 13.4284 2.42839 12.9648 3 12.9648H21ZM18 8.96484C18.5716 8.96484 19.0352 9.42839 19.0352 10C19.0352 10.5716 18.5716 11.0352 18 11.0352H6C5.42839 11.0352 4.96484 10.5716 4.96484 10C4.96484 9.42839 5.42839 8.96484 6 8.96484H18ZM21 4.96484C21.5716 4.96484 22.0352 5.42839 22.0352 6C22.0352 6.57161 21.5716 7.03516 21 7.03516H3C2.42839 7.03516 1.96484 6.57161 1.96484 6C1.96484 5.42839 2.42839 4.96484 3 4.96484H21Z"/></svg>