<svg xmlns="http://www.w3.org/2000/svg" width="24" height="24" fill="none" viewBox="0 0 24 24"><path fill="currentColor" d="M19.9648 17C19.9648 16.5202 19.9643 16.212 19.9482 15.9766C19.9328 15.7507 19.9068 15.6676 19.8916 15.6309C19.7937 15.3944 19.6056 15.2063 19.3691 15.1084C19.3324 15.0932 19.2494 15.0672 19.0234 15.0518C18.788 15.0357 18.4798 15.0352 18 15.0352H6C5.52018 15.0352 5.21202 15.0357 4.97656 15.0518C4.75065 15.0672 4.66757 15.0932 4.63086 15.1084C4.39441 15.2063 4.20634 15.3944 4.1084 15.6309C4.09321 15.6676 4.06717 15.7507 4.05176 15.9766C4.03572 16.212 4.03516 16.5202 4.03516 17C4.03516 17.4798 4.03572 17.788 4.05176 18.0234C4.06717 18.2494 4.09321 18.3324 4.1084 18.3691C4.20634 18.6056 4.39441 18.7937 4.63086 18.8916C4.66757 18.9068 4.75065 18.9328 4.97656 18.9482C5.21202 18.9643 5.52018 18.9648 6 18.9648H18C18.4798 18.9648 18.788 18.9643 19.0234 18.9482C19.2494 18.9328 19.3324 18.9068 19.3691 18.8916C19.6056 18.7937 19.7937 18.6056 19.8916 18.3691C19.9068 18.3324 19.9328 18.2494 19.9482 18.0234C19.9643 17.788 19.9648 17.4798 19.9648 17ZM15.9648 7C15.9648 6.52018 15.9643 6.21202 15.9482 5.97656C15.9328 5.75065 15.9068 5.66757 15.8916 5.63086C15.7937 5.39441 15.6056 5.20634 15.3691 5.1084C15.3324 5.09321 15.2493 5.06717 15.0234 5.05176C14.788 5.03572 14.4798 5.03516 14 5.03516H6C5.52018 5.03516 5.21202 5.03572 4.97656 5.05176C4.75065 5.06717 4.66757 5.09321 4.63086 5.1084C4.39441 5.20634 4.20634 5.39441 4.1084 5.63086C4.09321 5.66757 4.06717 5.75065 4.05176 5.97656C4.03572 6.21202 4.03516 6.52018 4.03516 7C4.03516 7.47983 4.03572 7.78798 4.05176 8.02344C4.06717 8.24935 4.09321 8.33243 4.1084 8.36914C4.20634 8.60559 4.39441 8.79366 4.63086 8.8916C4.66757 8.90679 4.75065 8.93283 4.97656 8.94824C5.21202 8.96428 5.52018 8.96484 6 8.96484H14C14.4798 8.96484 14.788 8.96428 15.0234 8.94824C15.2493 8.93283 15.3324 8.90679 15.3691 8.8916C15.6056 8.79366 15.7937 8.60559 15.8916 8.36914C15.9068 8.33243 15.9328 8.24935 15.9482 8.02344C15.9643 7.78798 15.9648 7.47983 15.9648 7ZM22.0352 17C22.0352 17.4518 22.0357 17.8427 22.0137 18.165C21.991 18.4965 21.9407 18.8304 21.8037 19.1611C21.4957 19.9048 20.9048 20.4957 20.1611 20.8037C19.8304 20.9407 19.4965 20.991 19.165 21.0137C18.8427 21.0357 18.4518 21.0352 18 21.0352H6C5.54822 21.0352 5.15728 21.0357 4.83496 21.0137C4.5035 20.991 4.16963 20.9407 3.83887 20.8037C3.09521 20.4957 2.50432 19.9048 2.19629 19.1611C2.05932 18.8304 2.00896 18.4965 1.98633 18.165C1.96434 17.8427 1.96484 17.4518 1.96484 17C1.96484 16.5482 1.96434 16.1573 1.98633 15.835C2.00896 15.5035 2.05932 15.1696 2.19629 14.8389C2.50432 14.0952 3.09521 13.5043 3.83887 13.1963C4.16963 13.0593 4.5035 13.009 4.83496 12.9863C5.15728 12.9643 5.54822 12.9648 6 12.9648H18C18.4518 12.9648 18.8427 12.9643 19.165 12.9863C19.4965 13.009 19.8304 13.0593 20.1611 13.1963C20.9048 13.5043 21.4957 14.0952 21.8037 14.8389C21.9407 15.1696 21.991 15.5035 22.0137 15.835C22.0357 16.1573 22.0352 16.5482 22.0352 17ZM18.0352 7C18.0352 7.45178 18.0357 7.84273 18.0137 8.16504C17.991 8.49651 17.9407 8.83038 17.8037 9.16113C17.4957 9.90479 16.9048 10.4957 16.1611 10.8037C15.8304 10.9407 15.4965 10.991 15.165 11.0137C14.8427 11.0357 14.4518 11.0352 14 11.0352H6C5.54822 11.0352 5.15728 11.0357 4.83496 11.0137C4.5035 10.991 4.16963 10.9407 3.83887 10.8037C3.09521 10.4957 2.50432 9.90479 2.19629 9.16113C2.05932 8.83038 2.00896 8.49651 1.98633 8.16504C1.96434 7.84273 1.96484 7.45178 1.96484 7C1.96484 6.54822 1.96434 6.15728 1.98633 5.83496C2.00896 5.5035 2.05932 5.16963 2.19629 4.83887C2.50432 4.09521 3.09521 3.50432 3.83887 3.19629C4.16963 3.05932 4.5035 3.00896 4.83496 2.98633C5.15728 2.96434 5.54822 2.96484 6 2.96484H14C14.4518 2.96484 14.8427 2.96434 15.165 2.98633C15.4965 3.00896 15.8304 3.05932 16.1611 3.19629C16.9048 3.50432 17.4957 4.09521 17.8037 4.83887C17.9407 5.16963 17.991 5.5035 18.0137 5.83496C18.0357 6.15728 18.0352 6.54822 18.0352 7Z"/></svg>