<svg xmlns="http://www.w3.org/2000/svg" width="24" height="24" fill="none" viewBox="0 0 24 24"><path fill="currentColor" d="M19.9648 21V3C19.9648 2.42839 20.4284 1.96484 21 1.96484C21.5716 1.96484 22.0352 2.42839 22.0352 3V21C22.0352 21.5716 21.5716 22.0352 21 22.0352C20.4284 22.0352 19.9648 21.5716 19.9648 21ZM9.26855 4.26855C9.67275 3.86436 10.3273 3.86436 10.7314 4.26855L17.7314 11.2686C17.9255 11.4627 18.0352 11.7255 18.0352 12C18.0352 12.2745 17.9255 12.5373 17.7314 12.7314L10.7314 19.7314C10.3273 20.1356 9.67275 20.1356 9.26855 19.7314C8.86436 19.3273 8.86436 18.6727 9.26855 18.2686L14.502 13.0352H3C2.42839 13.0352 1.96484 12.5716 1.96484 12C1.96484 11.4284 2.42839 10.9648 3 10.9648H14.502L9.26855 5.73145C8.86436 5.32725 8.86436 4.67275 9.26855 4.26855Z"/></svg>