<svg xmlns="http://www.w3.org/2000/svg" width="24" height="24" fill="none" viewBox="0 0 24 24"><path fill="currentColor" d="M1.96484 21V3C1.96484 2.42839 2.42839 1.96484 3 1.96484C3.57161 1.96484 4.03516 2.42839 4.03516 3V21C4.03516 21.5716 3.57161 22.0352 3 22.0352C2.42839 22.0352 1.96484 21.5716 1.96484 21ZM13.2686 4.26855C13.6727 3.86436 14.3273 3.86436 14.7314 4.26855C15.1356 4.67275 15.1356 5.32725 14.7314 5.73145L9.49805 10.9648H21C21.5716 10.9648 22.0352 11.4284 22.0352 12C22.0352 12.5716 21.5716 13.0352 21 13.0352H9.49805L14.7314 18.2686C15.1356 18.6727 15.1356 19.3273 14.7314 19.7314C14.3273 20.1356 13.6727 20.1356 13.2686 19.7314L6.26855 12.7314C5.86436 12.3273 5.86436 11.6727 6.26855 11.2686L13.2686 4.26855Z"/></svg>