<svg xmlns="http://www.w3.org/2000/svg" width="24" height="24" fill="none" viewBox="0 0 24 24"><path fill="currentColor" d="M10.9648 22V17.998L8.73145 20.2314C8.32725 20.6356 7.67275 20.6356 7.26855 20.2314C6.86436 19.8273 6.86436 19.1727 7.26855 18.7686L11.2686 14.7686L11.3467 14.6973C11.7532 14.3656 12.3525 14.3896 12.7314 14.7686L16.7314 18.7686C17.1356 19.1727 17.1356 19.8273 16.7314 20.2314C16.3273 20.6356 15.6727 20.6356 15.2686 20.2314L13.0352 17.998V22C13.0352 22.5716 12.5716 23.0352 12 23.0352C11.4284 23.0352 10.9648 22.5716 10.9648 22ZM21 10.9648C21.5716 10.9648 22.0352 11.4284 22.0352 12C22.0352 12.5716 21.5716 13.0352 21 13.0352H3C2.42839 13.0352 1.96484 12.5716 1.96484 12C1.96484 11.4284 2.42839 10.9648 3 10.9648H21ZM10.9648 2C10.9648 1.42839 11.4284 0.964844 12 0.964844C12.5716 0.964844 13.0352 1.42839 13.0352 2V6.00195L15.2686 3.76855C15.6727 3.36436 16.3273 3.36436 16.7314 3.76855C17.1356 4.17275 17.1356 4.82725 16.7314 5.23145L12.7314 9.23145C12.3273 9.63564 11.6727 9.63564 11.2686 9.23145L7.26855 5.23145C6.86436 4.82725 6.86436 4.17275 7.26855 3.76855C7.67275 3.36436 8.32725 3.36436 8.73145 3.76855L10.9648 6.00195V2Z"/></svg>