<svg xmlns="http://www.w3.org/2000/svg" width="24" height="24" fill="none" viewBox="0 0 24 24"><g clip-path="url(#a)"><path fill="currentColor" d="M13.9648 5C13.9648 3.91476 13.0852 3.03516 12 3.03516C10.9148 3.03516 10.0352 3.91476 10.0352 5C10.0352 6.08524 10.9148 6.96484 12 6.96484C13.0852 6.96484 13.9648 6.08524 13.9648 5ZM16.0352 5C16.0352 6.87057 14.762 8.4433 13.0352 8.90039V20.9023C15.0316 20.6703 16.9035 19.7742 18.3389 18.3389C19.7742 16.9035 20.6703 15.0316 20.9023 13.0352H19C18.4284 13.0352 17.9648 12.5716 17.9648 12C17.9648 11.4284 18.4284 10.9648 19 10.9648H22C22.5716 10.9648 23.0352 11.4284 23.0352 12C23.0352 14.9267 21.8722 17.7333 19.8027 19.8027C17.7333 21.8722 14.9267 23.0352 12 23.0352C9.07334 23.0352 6.26673 21.8722 4.19727 19.8027C2.1278 17.7333 0.964844 14.9267 0.964844 12C0.964844 11.7255 1.07445 11.4627 1.26855 11.2686C1.46265 11.0745 1.7255 10.9648 2 10.9648H5C5.57161 10.9648 6.03516 11.4284 6.03516 12C6.03516 12.5716 5.57161 13.0352 5 13.0352H3.09766C3.32975 15.0316 4.22577 16.9035 5.66113 18.3389C7.09649 19.7742 8.96842 20.6703 10.9648 20.9023V8.90039C9.23801 8.4433 7.96484 6.87057 7.96484 5C7.96484 2.77153 9.77153 0.964844 12 0.964844C14.2285 0.964844 16.0352 2.77153 16.0352 5Z"/></g><defs><clipPath id="a"><path fill="#fff" d="M0 0H24V24H0z"/></clipPath></defs></svg>