<svg xmlns="http://www.w3.org/2000/svg" width="24" height="24" fill="none" viewBox="0 0 24 24"><path fill="currentColor" d="M13.9648 9.5C13.9648 7.69858 14.3291 6.01129 14.9697 4.69336L5.6289 6.39258C4.63584 6.57313 4.34754 6.63524 4.13378 6.74023C3.63411 6.98568 3.26147 7.43128 3.10937 7.9668C3.04431 8.19588 3.03515 8.49069 3.03515 9.5C3.03515 10.5093 3.04431 10.8041 3.10937 11.0332C3.26147 11.5687 3.63411 12.0143 4.13378 12.2598C4.34754 12.3648 4.63584 12.4269 5.6289 12.6074L14.9697 14.3057C14.3293 12.9878 13.9648 11.3011 13.9648 9.5ZM6.42577 19.4404C6.44462 19.7042 6.4569 19.8513 6.47167 19.9561C6.57723 19.9634 6.72534 19.9648 6.99023 19.9648H8.77245C9.07492 19.9648 9.24705 19.9632 9.37011 19.9541C9.36978 19.8306 9.35917 19.6585 9.33593 19.3564L9.02538 15.3291L6.09374 14.7959L6.42577 19.4404ZM16.0351 9.5C16.0351 11.1579 16.3992 12.6076 16.9365 13.6055C17.3373 14.3498 17.7592 14.7237 18.1143 14.877L18.5732 14.9609C18.9738 14.9242 19.5364 14.5842 20.0635 13.6055C20.6008 12.6076 20.9648 11.1579 20.9648 9.5C20.9648 7.84207 20.6008 6.39244 20.0635 5.39453C19.5364 4.4157 18.9738 4.07478 18.5732 4.03809L18.1143 4.12207C17.7591 4.27518 17.3374 4.64995 16.9365 5.39453C16.3992 6.39244 16.0351 7.84207 16.0351 9.5ZM23.0351 9.5C23.0351 11.4319 22.6151 13.2323 21.8857 14.5869C21.179 15.8993 20.0296 17.0352 18.5 17.0352C18.1666 17.0352 17.8523 16.9778 17.5557 16.8799L11.1309 15.7119L11.3994 19.1982C11.421 19.4795 11.443 19.7544 11.4414 19.9863C11.4397 20.2297 11.4137 20.5244 11.2803 20.8252C11.0974 21.2374 10.7827 21.577 10.3857 21.791C10.096 21.9471 9.80399 21.9962 9.56152 22.0166C9.33038 22.036 9.05454 22.0352 8.77245 22.0352H6.99023C6.7443 22.0352 6.49925 22.0359 6.29198 22.0195C6.07204 22.0021 5.81135 21.9612 5.54589 21.833C5.17687 21.6548 4.87009 21.369 4.66601 21.0137C4.5193 20.7581 4.45981 20.5013 4.42675 20.2832C4.3956 20.0776 4.37885 19.8333 4.36132 19.5879L3.98925 14.3887C3.70718 14.3165 3.45392 14.2327 3.2207 14.1182C2.19473 13.6141 1.43047 12.6982 1.11816 11.5986C0.954985 11.024 0.964836 10.3759 0.964836 9.5C0.964836 8.62408 0.954985 7.97599 1.11816 7.40137C1.43047 6.30177 2.19473 5.38585 3.2207 4.88184C3.7569 4.61845 4.3969 4.51217 5.25878 4.35547L17.5557 2.12012C17.8523 2.02215 18.1666 1.96484 18.5 1.96484C20.0296 1.96484 21.179 3.1007 21.8857 4.41309C22.6151 5.76771 23.0351 7.56808 23.0351 9.5Z"/></svg>