<svg xmlns="http://www.w3.org/2000/svg" width="24" height="24" fill="none" viewBox="0 0 24 24"><path fill="currentColor" d="M17.4648 5.12649C17.4648 4.58618 17.4646 4.24333 17.4453 4.00051C17.4448 3.99376 17.4429 3.98732 17.4424 3.98098C17.4305 3.98615 17.4175 3.99063 17.4043 3.9966C17.1655 4.10433 16.8414 4.27985 16.3398 4.55324C14.6654 5.46605 12.3014 6.53469 10.25 6.53469H6.79981C5.94285 6.53469 5.36234 6.53616 4.91406 6.57277C4.47781 6.60842 4.25807 6.67278 4.10742 6.74953C3.73794 6.93794 3.43732 7.23838 3.24902 7.60793C3.17231 7.75855 3.1079 7.97761 3.07227 8.41359C3.03564 8.86193 3.03516 9.44316 3.03516 10.3003V11.4995C3.03516 11.9796 3.03569 12.2884 3.05176 12.5239C3.06719 12.75 3.09323 12.833 3.1084 12.8696C3.20638 13.1059 3.39452 13.2932 3.63086 13.3911C3.6675 13.4063 3.75036 13.4333 3.97656 13.4488C4.21202 13.4648 4.5202 13.4654 5 13.4654C5.57148 13.4654 6.03494 13.9281 6.03516 14.4995V18.7495C6.03516 19.0058 6.03667 19.0598 6.04004 19.0943C6.08516 19.5524 6.44717 19.9153 6.90527 19.9605C6.9397 19.9639 6.9932 19.9654 7.25 19.9654C7.5068 19.9654 7.5603 19.9639 7.59473 19.9605C8.05283 19.9153 8.41484 19.5524 8.45996 19.0943C8.46334 19.0598 8.46484 19.0058 8.46484 18.7495V14.4995C8.46506 13.9281 8.92852 13.4654 9.5 13.4654H10.25C12.3014 13.4654 14.6654 14.534 16.3398 15.4468C16.8413 15.7202 17.1655 15.8957 17.4043 16.0034C17.4174 16.0093 17.4306 16.013 17.4424 16.0181C17.4429 16.012 17.4448 16.0059 17.4453 15.9995C17.4646 15.7567 17.4648 15.4139 17.4648 14.8736V5.12649ZM20.9648 11.9995V7.99953C20.9651 7.4281 21.4285 6.96535 22 6.96535C22.5715 6.96535 23.0349 7.4281 23.0352 7.99953V11.9995C23.0352 12.5711 22.5716 13.0347 22 13.0347C21.4284 13.0347 20.9648 12.5711 20.9648 11.9995ZM19.5352 14.8736C19.5352 15.3773 19.5361 15.8181 19.5088 16.1626C19.4836 16.4791 19.4252 16.9259 19.1553 17.3032C18.8136 17.7809 18.33 18.0678 17.7471 18.1392C17.2787 18.1964 16.8454 18.0222 16.5527 17.8902C16.2256 17.7426 15.8196 17.5209 15.3486 17.2642C13.7935 16.4165 11.9766 15.6389 10.5352 15.5445V18.7495C10.5352 18.9571 10.5364 19.1363 10.5205 19.2974C10.3786 20.7382 9.23862 21.878 7.79785 22.02C7.63671 22.0359 7.45754 22.0347 7.25 22.0347C7.04246 22.0347 6.86329 22.0359 6.70215 22.02C5.26139 21.878 4.1214 20.7382 3.97949 19.2974C3.96363 19.1363 3.96484 18.9571 3.96484 18.7495V15.5171C3.92056 15.515 3.87695 15.5161 3.83496 15.5132C3.50357 15.4906 3.16955 15.4411 2.83887 15.3042C2.09532 14.9962 1.50436 14.4052 1.19629 13.6616C1.05922 13.3307 1.00895 12.9962 0.986329 12.6646C0.964347 12.3423 0.964845 11.9513 0.964845 11.4995V10.3003C0.964844 9.47748 0.964679 8.79775 1.00977 8.24563C1.05586 7.68141 1.15509 7.15954 1.40527 6.66848C1.79209 5.9093 2.40882 5.29166 3.16797 4.90481C3.659 4.65461 4.18094 4.55541 4.74512 4.5093C5.29725 4.46419 5.97689 4.46535 6.79981 4.46535H10.25C11.7314 4.46535 13.6891 3.6405 15.3486 2.73586C15.8196 2.47911 16.2256 2.2565 16.5527 2.10891C16.8454 1.97688 17.2788 1.80361 17.7471 1.86086C18.33 1.93226 18.8136 2.21911 19.1553 2.6968C19.425 3.07399 19.4836 3.52002 19.5088 3.83645C19.5362 4.18101 19.5352 4.6225 19.5352 5.12649V14.8736Z"/></svg>