<svg xmlns="http://www.w3.org/2000/svg" width="24" height="24" fill="none" viewBox="0 0 24 24"><path fill="currentColor" d="M19.9648 7.7998C19.9648 6.94287 19.9643 6.36234 19.9277 5.91406C19.8921 5.47781 19.8277 5.25807 19.751 5.10742C19.5626 4.73794 19.2621 4.43737 18.8926 4.24902C18.7419 4.17227 18.5222 4.10791 18.0859 4.07227C17.6377 4.03565 17.0571 4.03516 16.2002 4.03516H7.7998C6.94287 4.03516 6.36234 4.03565 5.91406 4.07227C5.47781 4.10791 5.25807 4.17227 5.10742 4.24902C4.73794 4.43737 4.43737 4.73794 4.24902 5.10742C4.17227 5.25807 4.10791 5.47781 4.07227 5.91406C4.03565 6.36234 4.03516 6.94287 4.03516 7.7998V13.5C4.03516 14.2131 4.03594 14.6963 4.06152 15.0713C4.08648 15.4367 4.13135 15.6235 4.18457 15.752C4.38401 16.2334 4.76657 16.616 5.24805 16.8154C5.37653 16.8686 5.56325 16.9135 5.92871 16.9385C6.30368 16.9641 6.78693 16.9648 7.5 16.9648C7.93888 16.9648 8.32581 16.9582 8.69727 17.0459C9.15576 17.1541 9.58263 17.3681 9.94434 17.6699C10.2373 17.9145 10.4642 18.228 10.7275 18.5791L12 20.2734L13.2725 18.5791C13.5358 18.228 13.7627 17.9145 14.0557 17.6699C14.4174 17.3681 14.8442 17.1541 15.3027 17.0459C15.6742 16.9582 16.0611 16.9648 16.5 16.9648C17.2131 16.9648 17.6963 16.9641 18.0713 16.9385C18.4367 16.9135 18.6235 16.8686 18.752 16.8154C19.2334 16.616 19.616 16.2334 19.8154 15.752C19.8686 15.6235 19.9135 15.4367 19.9385 15.0713C19.9641 14.6963 19.9648 14.2131 19.9648 13.5V7.7998ZM10.9648 13.5V11.5352H9C8.42839 11.5352 7.96484 11.0716 7.96484 10.5C7.96484 9.92839 8.42839 9.46484 9 9.46484H10.9648V7.5C10.9648 6.92839 11.4284 6.46484 12 6.46484C12.5716 6.46484 13.0352 6.92839 13.0352 7.5V9.46484H15C15.5716 9.46484 16.0352 9.92839 16.0352 10.5C16.0352 11.0716 15.5716 11.5352 15 11.5352H13.0352V13.5C13.0352 14.0716 12.5716 14.5352 12 14.5352C11.4284 14.5352 10.9648 14.0716 10.9648 13.5ZM22.0352 13.5C22.0352 14.1848 22.0354 14.7501 22.0039 15.2119C21.9718 15.683 21.9027 16.1212 21.7275 16.5439C21.318 17.5326 20.5326 18.318 19.5439 18.7275C19.1212 18.9026 18.683 18.9718 18.2119 19.0039C17.7501 19.0354 17.1848 19.0352 16.5 19.0352C15.962 19.0352 15.8601 19.0413 15.7783 19.0605C15.6326 19.0949 15.4968 19.1629 15.3818 19.2588C15.3173 19.3126 15.2507 19.3907 14.9277 19.8213L13.4678 21.7676C13.3708 21.8969 13.2575 22.0497 13.1484 22.1709C13.035 22.297 12.8448 22.4856 12.5566 22.5977C12.1988 22.7368 11.8012 22.7368 11.4434 22.5977C11.1552 22.4856 10.965 22.297 10.8516 22.1709C10.7425 22.0497 10.6292 21.8969 10.5322 21.7676L9.07227 19.8213C8.74932 19.3907 8.68268 19.3126 8.61816 19.2588C8.5032 19.1629 8.36738 19.0949 8.22168 19.0605C8.13991 19.0413 8.03804 19.0352 7.5 19.0352C6.81525 19.0352 6.24986 19.0354 5.78809 19.0039C5.31704 18.9718 4.87883 18.9027 4.45605 18.7275C3.46737 18.318 2.68199 17.5326 2.27246 16.5439C2.09735 16.1212 2.02823 15.683 1.99609 15.2119C1.96459 14.7501 1.96484 14.1848 1.96484 13.5V7.7998C1.96484 6.97689 1.96465 6.29725 2.00977 5.74512C2.05588 5.18095 2.15509 4.65899 2.40527 4.16797C2.79208 3.409 3.409 2.79208 4.16797 2.40527C4.65899 2.15509 5.18095 2.05588 5.74512 2.00977C6.29725 1.96465 6.97689 1.96484 7.7998 1.96484H16.2002C17.0231 1.96484 17.7027 1.96465 18.2549 2.00977C18.8191 2.05588 19.341 2.15509 19.832 2.40527C20.591 2.79208 21.2079 3.409 21.5947 4.16797C21.8449 4.65899 21.9441 5.18095 21.9902 5.74512C22.0353 6.29725 22.0352 6.97689 22.0352 7.7998V13.5Z"/></svg>