<svg xmlns="http://www.w3.org/2000/svg" width="24" height="24" fill="none" viewBox="0 0 24 24"><path fill="currentColor" d="M8.96484 15.5347H6.5C6.13169 15.5347 5.77201 15.4978 5.42383 15.4292L6.5791 20.0474C6.62775 20.242 6.63817 20.2816 6.64746 20.3091C6.77088 20.6735 7.09904 20.9299 7.48242 20.9614C7.51139 20.9638 7.55236 20.9654 7.75391 20.9654C8.00572 20.9654 8.05885 20.9637 8.09277 20.9605C8.55203 20.9159 8.91633 20.5525 8.96094 20.0933C8.96423 20.0594 8.96484 20.0063 8.96484 19.7534V15.5347ZM20.9648 9.99953C20.9647 9.00848 20.3787 8.15654 19.5352 7.76516V12.2339C20.3786 11.8424 20.9648 10.9906 20.9648 9.99953ZM3.03516 9.99953C3.03516 11.9132 4.58633 13.4654 6.5 13.4654H8.96484V6.53469H6.5C4.58647 6.53469 3.03537 8.08605 3.03516 9.99953ZM17.4648 5.12649C17.4648 4.58618 17.4646 4.24333 17.4453 4.00051C17.4448 3.99376 17.4429 3.98732 17.4424 3.98098C17.4305 3.98615 17.4175 3.99063 17.4043 3.9966C17.1655 4.10433 16.8414 4.27985 16.3398 4.55324C14.8756 5.35147 12.8838 6.26804 11.0352 6.48586V13.5122C12.8839 13.73 14.8755 14.6485 16.3398 15.4468C16.8413 15.7202 17.1655 15.8957 17.4043 16.0034C17.4174 16.0093 17.4306 16.013 17.4424 16.0181C17.4429 16.012 17.4448 16.0059 17.4453 15.9995C17.4646 15.7567 17.4648 15.4139 17.4648 14.8736V5.12649ZM19.5352 5.58449C21.5407 6.05285 23.035 7.8513 23.0352 9.99953C23.0352 12.1479 21.5408 13.9461 19.5352 14.4146V14.8736C19.5352 15.3773 19.5361 15.8181 19.5088 16.1626C19.4836 16.4791 19.4252 16.9259 19.1553 17.3032C18.8136 17.7809 18.33 18.0678 17.7471 18.1392C17.2787 18.1964 16.8454 18.0222 16.5527 17.8902C16.2256 17.7426 15.8196 17.5209 15.3486 17.2642C13.9685 16.5119 12.3822 15.8155 11.0352 15.6021V19.7534C11.0352 19.9577 11.0359 20.1339 11.0205 20.2925C10.8804 21.737 9.73751 22.8809 8.29297 23.021C8.1343 23.0364 7.95824 23.0347 7.75391 23.0347C7.5904 23.0347 7.44815 23.0358 7.31445 23.0249C6.10804 22.9263 5.07485 22.1196 4.68652 20.9732C4.64354 20.8462 4.60995 20.7079 4.57031 20.5493L3.00586 14.2915C1.76079 13.2766 0.964845 11.7311 0.964844 9.99953C0.96506 6.94282 3.44324 4.46535 6.5 4.46535H10.25C11.7314 4.46535 13.6891 3.6405 15.3486 2.73586C15.8196 2.47911 16.2256 2.2565 16.5527 2.10891C16.8454 1.97688 17.2788 1.80361 17.7471 1.86086C18.33 1.93226 18.8136 2.21912 19.1553 2.6968C19.425 3.07399 19.4836 3.52001 19.5088 3.83645C19.5362 4.18101 19.5352 4.6225 19.5352 5.12649V5.58449Z"/></svg>