<svg xmlns="http://www.w3.org/2000/svg" width="24" height="24" fill="none" viewBox="0 0 24 24"><path fill="currentColor" d="M18.9648 9.03517H5.03516V16.2002C5.03516 17.0571 5.03565 17.6377 5.07227 18.086C5.10791 18.5222 5.17227 18.742 5.24902 18.8926C5.43737 19.2621 5.73794 19.5626 6.10742 19.751C6.25807 19.8278 6.47781 19.8921 6.91406 19.9278C7.36234 19.9644 7.94288 19.9649 8.79981 19.9649H15.2002C16.0571 19.9649 16.6377 19.9644 17.0859 19.9278C17.5222 19.8921 17.7419 19.8278 17.8926 19.751C18.2621 19.5626 18.5626 19.2621 18.751 18.8926C18.8277 18.742 18.8921 18.5222 18.9277 18.086C18.9643 17.6377 18.9648 17.0571 18.9648 16.2002V9.03517ZM14 11.9649C14.5716 11.9649 15.0352 12.4284 15.0352 13C15.0352 13.5716 14.5716 14.0352 14 14.0352H10C9.42839 14.0352 8.96484 13.5716 8.96484 13C8.96484 12.4284 9.42839 11.9649 10 11.9649H14ZM20.9648 5.50002C20.9648 4.98575 20.9598 4.87956 20.9463 4.81154C20.8701 4.42893 20.5711 4.12993 20.1885 4.05373C20.1205 4.0402 20.0143 4.03517 19.5 4.03517H4.5C3.98574 4.03517 3.87954 4.0402 3.81152 4.05373C3.42891 4.12993 3.12992 4.42893 3.05371 4.81154C3.04018 4.87956 3.03516 4.98575 3.03516 5.50002C3.03516 6.01428 3.04018 6.12048 3.05371 6.18849C3.12992 6.57111 3.42891 6.8701 3.81152 6.94631C3.83294 6.95056 3.88379 6.95824 4.02637 6.96193C4.03969 6.96227 4.05322 6.96402 4.06641 6.96486H19.9336C19.9468 6.96402 19.9603 6.96227 19.9736 6.96193C20.1162 6.95824 20.1671 6.95056 20.1885 6.94631C20.5711 6.8701 20.8701 6.57111 20.9463 6.18849C20.9598 6.12048 20.9648 6.01428 20.9648 5.50002ZM23.0352 5.50002C23.0352 5.91495 23.0398 6.2735 22.9766 6.59181C22.7674 7.64341 22.0225 8.49343 21.0352 8.85158V16.2002C21.0352 17.0231 21.0353 17.7028 20.9902 18.2549C20.9441 18.8191 20.8449 19.341 20.5947 19.832C20.2079 20.591 19.591 21.2079 18.832 21.5947C18.341 21.8449 17.8191 21.9441 17.2549 21.9903C16.7027 22.0354 16.0231 22.0352 15.2002 22.0352H8.79981C7.97689 22.0352 7.29725 22.0354 6.74512 21.9903C6.18095 21.9441 5.65899 21.8449 5.16797 21.5947C4.409 21.2079 3.79208 20.591 3.40527 19.832C3.15509 19.341 3.05588 18.8191 3.00977 18.2549C2.96466 17.7028 2.96485 17.0231 2.96485 16.2002V8.85158C1.97748 8.49343 1.23261 7.64341 1.02344 6.59181C0.960165 6.2735 0.964845 5.91495 0.964845 5.50002C0.964845 5.08509 0.960165 4.72653 1.02344 4.40822C1.26292 3.20426 2.20425 2.26294 3.4082 2.02345C3.72652 1.96018 4.08507 1.96486 4.5 1.96486H19.5C19.9149 1.96486 20.2735 1.96018 20.5918 2.02345C21.7958 2.26294 22.7371 3.20426 22.9766 4.40822C23.0398 4.72653 23.0352 5.08509 23.0352 5.50002Z"/></svg>