<svg xmlns="http://www.w3.org/2000/svg" width="24" height="24" fill="none" viewBox="0 0 24 24"><g clip-path="url(#a)"><path fill="currentColor" d="M0.964844 12C0.964844 7.91437 3.18601 4.34889 6.48145 2.44238C6.97612 2.15623 7.60919 2.32481 7.89551 2.81934C8.18166 3.31401 8.01306 3.94707 7.51855 4.2334C4.83621 5.78505 3.03516 8.68299 3.03516 12C3.03516 16.9512 7.04877 20.9648 12 20.9648C16.9512 20.9648 20.9648 16.9512 20.9648 12C20.9648 8.68299 19.1638 5.78505 16.4814 4.2334C15.9869 3.94708 15.8183 3.31401 16.1045 2.81934C16.3908 2.32481 17.0239 2.15623 17.5186 2.44238C20.814 4.34889 23.0352 7.91437 23.0352 12C23.0352 18.0945 18.0945 23.0352 12 23.0352C5.90554 23.0352 0.964844 18.0945 0.964844 12ZM10.9648 2C10.9648 1.42839 11.4284 0.964844 12 0.964844C12.5716 0.964844 13.0352 1.42839 13.0352 2V13.502L15.2686 11.2686C15.6727 10.8644 16.3273 10.8644 16.7314 11.2686C17.1356 11.6727 17.1356 12.3273 16.7314 12.7314L12.7314 16.7314C12.3273 17.1356 11.6727 17.1356 11.2686 16.7314L7.26855 12.7314C6.86436 12.3273 6.86436 11.6727 7.26855 11.2686C7.67275 10.8644 8.32725 10.8644 8.73145 11.2686L10.9648 13.502V2Z"/></g><defs><clipPath id="a"><path fill="#fff" d="M0 0H24V24H0z"/></clipPath></defs></svg>