<svg xmlns="http://www.w3.org/2000/svg" width="24" height="24" fill="none" viewBox="0 0 24 24"><g clip-path="url(#a)"><path fill="currentColor" d="M4.19716 4.19716C8.5066 -0.112271 15.4932 -0.11227 19.8026 4.19716C22.6917 7.08626 23.6424 11.1779 22.6601 14.8563C22.5126 15.4086 21.9457 15.7372 21.3935 15.5897C20.8412 15.4423 20.5135 14.8744 20.661 14.3222C21.4604 11.3284 20.6842 8.00642 18.3388 5.66103C14.8377 2.15998 9.16208 2.15998 5.66103 5.66103C2.15998 9.16208 2.15998 14.8377 5.66103 18.3388C8.00642 20.6842 11.3284 21.4604 14.3222 20.661C14.8744 20.5135 15.4423 20.8412 15.5897 21.3935C15.7372 21.9457 15.4086 22.5126 14.8563 22.6601C11.1779 23.6424 7.08626 22.6917 4.19716 19.8026C-0.11227 15.4932 -0.112271 8.5066 4.19716 4.19716ZM7.96474 14.9999V8.9999C7.9648 8.42841 8.42843 7.96487 8.9999 7.96474H14.9999C15.5715 7.96474 16.035 8.42833 16.0351 8.9999C16.0351 9.57151 15.5715 10.0351 14.9999 10.0351H11.4989L19.7313 18.2685C20.1355 18.6726 20.1355 19.3272 19.7313 19.7313C19.3272 20.1355 18.6726 20.1355 18.2685 19.7313L10.0351 11.4979V14.9999C10.0351 15.5715 9.57151 16.0351 8.9999 16.0351C8.42839 16.0349 7.96474 15.5714 7.96474 14.9999Z"/></g><defs><clipPath id="a"><path fill="#fff" d="M0 0H24V24H0z"/></clipPath></defs></svg>