<svg xmlns="http://www.w3.org/2000/svg" width="24" height="24" fill="none" viewBox="0 0 24 24"><path fill="currentColor" d="M5.96489 20V6.49804L3.73149 8.73143C3.3273 9.13563 2.67279 9.13563 2.2686 8.73143C1.86441 8.32724 1.86441 7.67274 2.2686 7.26854L6.2686 3.26854L6.34672 3.19725C6.75325 2.86558 7.35252 2.88957 7.73149 3.26854L11.7315 7.26854C12.1357 7.67274 12.1357 8.32724 11.7315 8.73143C11.3273 9.13563 10.6728 9.13563 10.2686 8.73143L8.0352 6.49804V20C8.0352 20.5716 7.57166 21.0351 7.00004 21.0351C6.42843 21.0351 5.96489 20.5716 5.96489 20ZM15.9649 20V11.498L13.7315 13.7314C13.3273 14.1356 12.6728 14.1356 12.2686 13.7314C11.8644 13.3272 11.8644 12.6727 12.2686 12.2685L16.2686 8.26854L16.3467 8.19725C16.7532 7.86558 17.3525 7.88957 17.7315 8.26854L21.7315 12.2685C22.1357 12.6727 22.1357 13.3272 21.7315 13.7314C21.3273 14.1356 20.6728 14.1356 20.2686 13.7314L18.0352 11.498V20C18.0352 20.5716 17.5717 21.0351 17 21.0351C16.4284 21.0351 15.9649 20.5716 15.9649 20Z"/></svg>