<svg xmlns="http://www.w3.org/2000/svg" width="24" height="24" fill="none" viewBox="0 0 24 24"><g clip-path="url(#a)"><path fill="currentColor" d="M20.9648 12C20.9648 7.04877 16.9512 3.03516 12 3.03516C7.04877 3.03516 3.03516 7.04877 3.03516 12C3.03516 16.9512 7.04877 20.9648 12 20.9648C16.9512 20.9648 20.9648 16.9512 20.9648 12ZM23.0352 12C23.0352 18.0945 18.0945 23.0352 12 23.0352C5.90554 23.0352 0.964844 18.0945 0.964844 12C0.964844 5.90554 5.90554 0.964844 12 0.964844C18.0945 0.964844 23.0352 5.90554 23.0352 12ZM16.0352 15C16.0352 15.5716 15.5716 16.0352 15 16.0352C14.4285 16.0351 13.9648 15.5716 13.9648 15V11.499L9.73242 15.7314C9.32823 16.1356 8.67274 16.1356 8.26855 15.7314C7.86447 15.3273 7.86451 14.6727 8.26855 14.2686L12.502 10.0352H9C8.42847 10.0351 7.96484 9.57155 7.96484 9C7.96487 8.42847 8.42849 7.96494 9 7.96484H15C15.5716 7.96484 16.0351 8.42841 16.0352 9V15Z"/></g><defs><clipPath id="a"><path fill="#fff" d="M0 0H24V24H0z"/></clipPath></defs></svg>