<svg xmlns="http://www.w3.org/2000/svg" width="24" height="24" fill="none" viewBox="0 0 24 24"><g clip-path="url(#a)"><path fill="currentColor" d="M4.19731 4.19716C8.50675 -0.112271 15.4933 -0.112271 19.8028 4.19716C24.1122 8.5066 24.1122 15.4932 19.8028 19.8026C16.9137 22.6917 12.822 23.6424 9.1436 22.6601C8.59136 22.5126 8.26276 21.9457 8.4102 21.3935C8.55769 20.8412 9.12552 20.5135 9.67778 20.661C12.6716 21.4604 15.9935 20.6842 18.3389 18.3388C21.84 14.8377 21.84 9.16208 18.3389 5.66103C14.8379 2.15998 9.16223 2.15998 5.66118 5.66103C3.31579 8.00642 2.53955 11.3284 3.33892 14.3222C3.4864 14.8744 3.15875 15.4423 2.60649 15.5897C2.05425 15.7372 1.48737 15.4086 1.33989 14.8563C0.357574 11.1779 1.30822 7.08626 4.19731 4.19716ZM16.0352 14.9999C16.0352 15.5715 15.5717 16.0351 15 16.0351C14.4285 16.035 13.9649 15.5715 13.9649 14.9999V11.4989L5.73149 19.7313C5.3273 20.1355 4.67279 20.1355 4.2686 19.7313C3.86441 19.3271 3.86441 18.6726 4.2686 18.2685L12.502 10.0351H9.00005C8.4285 10.035 7.96489 9.57147 7.96489 8.9999C7.96495 8.42838 8.42853 7.96482 9.00005 7.96474H15C15.5716 7.96474 16.0351 8.42833 16.0352 8.9999V14.9999Z"/></g><defs><clipPath id="a"><path fill="#fff" d="M0 0H24V24H0z"/></clipPath></defs></svg>