<svg xmlns="http://www.w3.org/2000/svg" width="24" height="24" fill="none" viewBox="0 0 24 24"><path fill="currentColor" d="M18.4883 11.6167C18.976 11.3188 19.6131 11.4728 19.9111 11.9605L20.9082 13.5913C21.3838 14.3696 21.7781 15.0148 22.0401 15.5474C22.2987 16.0734 22.511 16.647 22.457 17.2642C22.3812 18.1315 21.9368 18.9249 21.2363 19.4419C20.7379 19.8098 20.1374 19.9284 19.5537 19.982C18.9627 20.0362 18.2061 20.0347 17.294 20.0347H14.9981L16.2315 21.2681C16.6357 21.6723 16.6357 22.3278 16.2315 22.732C15.8273 23.1358 15.1727 23.1358 14.7686 22.732L11.7686 19.732C11.3644 19.3278 11.3644 18.6723 11.7686 18.2681L14.7686 15.2681C15.1727 14.8642 15.8273 14.8642 16.2315 15.2681C16.6357 15.6723 16.6357 16.3278 16.2315 16.732L14.9981 17.9654H17.294C18.247 17.9654 18.8903 17.9639 19.3643 17.9204C19.844 17.8764 19.9754 17.8 20.0069 17.7769C20.2295 17.6126 20.3713 17.3601 20.3955 17.0845C20.3989 17.0462 20.3959 16.8941 20.1826 16.4605C19.9726 16.0335 19.6384 15.4844 19.1416 14.6714L18.1445 13.0396C17.8466 12.5518 18.0006 11.9148 18.4883 11.6167ZM5.93361 9.47805C6.45145 9.39407 6.95888 9.71438 7.09767 10.232L7.10353 10.2564C7.12199 10.308 7.13639 10.3608 7.1465 10.4146L8.1963 14.3306C8.34395 14.8826 8.01587 15.4503 7.46388 15.5982C6.91182 15.746 6.34423 15.4178 6.1963 14.8657L5.75197 13.2085L4.85841 14.6714C4.36161 15.4844 4.02743 16.0335 3.8174 16.4605C3.60415 16.8941 3.60116 17.0462 3.60451 17.0845C3.62872 17.3602 3.77053 17.6126 3.99318 17.7769C4.0246 17.8 4.15598 17.8764 4.63576 17.9204C5.10972 17.9639 5.753 17.9654 6.70607 17.9654H8.50002C9.07147 17.9654 9.53491 18.4281 9.53517 18.9995C9.53517 19.5712 9.07163 20.0347 8.50002 20.0347H6.70607C5.79395 20.0347 5.03732 20.0362 4.4463 19.982C3.86263 19.9284 3.26215 19.8098 2.76369 19.4419C2.0632 18.9249 1.61886 18.1315 1.54298 17.2642C1.48908 16.647 1.70132 16.0734 1.95998 15.5474C2.2219 15.0148 2.61619 14.3696 3.09181 13.5913L3.97951 12.1392L2.26759 12.5982C1.71557 12.7459 1.14793 12.4178 1.00002 11.8657C0.852252 11.3137 1.18039 10.7461 1.73244 10.5982L5.83009 9.50051L5.93361 9.47805ZM10.793 2.05032C11.5629 1.71671 12.4372 1.71671 13.207 2.05032C13.7494 2.28539 14.1406 2.71065 14.4727 3.15676C14.8059 3.60452 15.1726 4.20707 15.6133 4.92825L16.5401 6.44583L17 4.73196C17.148 4.18 17.7156 3.85274 18.2676 4.00051C18.8197 4.14846 19.148 4.71595 19 5.26809L17.9014 9.36575C17.7534 9.91788 17.1859 10.2461 16.6338 10.0982L12.5361 8.99954C11.984 8.85159 11.6558 8.2841 11.8037 7.73196C11.9517 7.18002 12.5193 6.85282 13.0713 7.00051L14.7246 7.4429L13.8477 6.00735C13.3858 5.25159 13.0748 4.74683 12.8115 4.39309C12.547 4.03764 12.4225 3.96648 12.3838 3.94973C12.139 3.84367 11.861 3.84367 11.6162 3.94973C11.5776 3.96648 11.4531 4.03764 11.1885 4.39309C10.9252 4.74683 10.6142 5.25159 10.1524 6.00735L9.13283 7.67629C8.83476 8.16404 8.19772 8.31811 7.70998 8.02004C7.22228 7.722 7.06826 7.08492 7.36623 6.59719L8.38673 4.92825C8.82746 4.20707 9.19409 3.60452 9.52736 3.15676C9.85942 2.71065 10.2506 2.28539 10.793 2.05032Z"/></svg>