<svg xmlns="http://www.w3.org/2000/svg" width="24" height="24" fill="none" viewBox="0 0 24 24"><path fill="currentColor" d="M14.2002 1.96484C14.323 1.96484 14.4772 1.96457 14.6123 1.97559C14.7229 1.98462 14.8709 2.00406 15.0322 2.06152L15.1973 2.13184L15.3027 2.19141C15.5088 2.31781 15.6822 2.4912 15.8086 2.69727L15.8682 2.80274L15.9385 2.96777C15.996 3.12911 16.0154 3.27709 16.0244 3.3877C16.0354 3.52284 16.0352 3.67701 16.0352 3.79981V12.9648H19C19.4185 12.9648 19.7958 13.217 19.9561 13.6035C20.1163 13.9903 20.0275 14.4354 19.7315 14.7314L12.7315 21.7314C12.3273 22.1356 11.6728 22.1356 11.2686 21.7314L4.26857 14.7314C3.97256 14.4354 3.88376 13.9903 4.04396 13.6035C4.20425 13.217 4.58154 12.9648 5.00002 12.9648H7.96486V3.79981C7.96486 3.67701 7.96458 3.52284 7.9756 3.3877C7.98764 3.24031 8.01787 3.02644 8.13185 2.80274L8.19142 2.69727C8.33888 2.45688 8.55009 2.2606 8.80275 2.13184L8.96779 2.06152C9.12913 2.00406 9.27711 1.98462 9.38771 1.97559C9.52286 1.96457 9.67702 1.96484 9.79982 1.96484H14.2002ZM10.0352 14C10.0352 14.5716 9.57163 15.0352 9.00002 15.0352H7.49806L12 19.5371L16.502 15.0352H15C14.4284 15.0352 13.9649 14.5716 13.9649 14V4.03516H10.0352V14Z"/></svg>