<svg xmlns="http://www.w3.org/2000/svg" width="24" height="24" fill="none" viewBox="0 0 24 24"><path fill="currentColor" d="M4.46293 12L8.96489 16.502V15C8.96489 14.4284 9.42843 13.9649 10 13.9649H19.9649V10.0352H10C9.42843 10.0352 8.96489 9.57163 8.96489 9.00002V7.49806L4.46293 12ZM22.0352 14.2002C22.0352 14.323 22.0355 14.4772 22.0245 14.6123C22.0124 14.7597 21.9822 14.9736 21.8682 15.1973C21.7211 15.486 21.486 15.721 21.1973 15.8682C20.9736 15.9822 20.7597 16.0124 20.6123 16.0244C20.4772 16.0354 20.323 16.0352 20.2002 16.0352H11.0352V19C11.0352 19.4185 10.7831 19.7958 10.3965 19.9561C10.0098 20.1163 9.56461 20.0275 9.2686 19.7315L2.2686 12.7315C1.86441 12.3273 1.86441 11.6728 2.2686 11.2686L9.2686 4.26857C9.56461 3.97256 10.0098 3.88376 10.3965 4.04396C10.7831 4.20425 11.0352 4.58154 11.0352 5.00002V7.96486H20.2002C20.323 7.96486 20.4772 7.96458 20.6123 7.9756C20.723 7.98464 20.8709 8.00408 21.0323 8.06154L21.1973 8.13185L21.3028 8.19142C21.5088 8.31783 21.6822 8.49122 21.8086 8.69728L21.8682 8.80275L21.9385 8.96779C21.996 9.12913 22.0154 9.27711 22.0245 9.38771C22.0355 9.52286 22.0352 9.67702 22.0352 9.79982V14.2002Z"/></svg>