<svg xmlns="http://www.w3.org/2000/svg" width="24" height="24" fill="none" viewBox="0 0 24 24"><path fill="currentColor" d="M7.2686 12.2686C7.67279 11.8644 8.3273 11.8644 8.73149 12.2686C9.13568 12.6728 9.13568 13.3273 8.73149 13.7315L6.49809 15.9649H20C20.5717 15.9649 21.0352 16.4284 21.0352 17C21.0352 17.5717 20.5717 18.0352 20 18.0352H6.49809L8.73149 20.2686C9.13568 20.6728 9.13568 21.3273 8.73149 21.7315C8.3273 22.1357 7.67279 22.1357 7.2686 21.7315L3.2686 17.7315C2.86441 17.3273 2.86441 16.6728 3.2686 16.2686L7.2686 12.2686ZM12.2686 2.2686C12.6728 1.86441 13.3273 1.86441 13.7315 2.2686C14.1357 2.67279 14.1357 3.3273 13.7315 3.73149L11.4981 5.96489H20C20.5717 5.96489 21.0352 6.42843 21.0352 7.00004C21.0352 7.57166 20.5717 8.0352 20 8.0352H11.4981L13.7315 10.2686C14.1357 10.6728 14.1357 11.3273 13.7315 11.7315C13.3273 12.1357 12.6728 12.1357 12.2686 11.7315L8.2686 7.73149C8.0745 7.53739 7.96489 7.27454 7.96489 7.00004C7.96489 6.72554 8.0745 6.4627 8.2686 6.2686L12.2686 2.2686Z"/></svg>