<svg xmlns="http://www.w3.org/2000/svg" width="24" height="24" fill="none" viewBox="0 0 24 24"><g clip-path="url(#a)"><path fill="currentColor" d="M4.19716 4.19731C7.08626 1.30822 11.1779 0.357573 14.8563 1.33989C15.4086 1.48737 15.7372 2.05425 15.5897 2.60649C15.4423 3.15875 14.8744 3.4864 14.3222 3.33892C11.3284 2.53955 8.00642 3.31579 5.66103 5.66118C2.15998 9.16223 2.15998 14.8379 5.66103 18.3389C9.16208 21.84 14.8377 21.84 18.3388 18.3389C20.6842 15.9935 21.4604 12.6716 20.661 9.67778C20.5135 9.12552 20.8412 8.55769 21.3935 8.4102C21.9457 8.26276 22.5126 8.59136 22.6601 9.1436C23.6424 12.822 22.6917 16.9137 19.8026 19.8028C15.4932 24.1122 8.5066 24.1122 4.19716 19.8028C-0.112271 15.4933 -0.112271 8.50675 4.19716 4.19731ZM18.2685 4.2686C18.6726 3.86441 19.3271 3.86442 19.7313 4.2686C20.1355 4.67279 20.1355 5.3273 19.7313 5.73149L11.4989 13.9649H14.9999C15.5715 13.9649 16.0351 14.4284 16.0351 15C16.0351 15.5717 15.5715 16.0352 14.9999 16.0352H8.9999C8.42839 16.0351 7.96474 15.5716 7.96474 15V9.00005C7.96475 8.42851 8.42839 7.96502 8.9999 7.96489C9.57151 7.96489 10.0351 8.42844 10.0351 9.00005V12.502L18.2685 4.2686Z"/></g><defs><clipPath id="a"><path fill="#fff" d="M0 0H24V24H0z"/></clipPath></defs></svg>