<svg xmlns="http://www.w3.org/2000/svg" width="24" height="24" fill="none" viewBox="0 0 24 24"><g clip-path="url(#a)"><path fill="currentColor" d="M10.9648 21.9999V10.4979L8.73145 12.7313C8.32725 13.1355 7.67275 13.1355 7.26855 12.7313C6.8644 12.3271 6.86437 11.6726 7.26855 11.2684L11.2686 7.26843L11.3467 7.19714C11.7532 6.86551 12.3525 6.88951 12.7314 7.26843L16.7314 11.2684C17.1356 11.6726 17.1356 12.3271 16.7314 12.7313C16.3273 13.1355 15.6727 13.1355 15.2686 12.7313L13.0352 10.4979V21.9999C13.0352 22.5715 12.5716 23.035 12 23.035C11.4284 23.035 10.9648 22.5715 10.9648 21.9999ZM20.9648 11.9999C20.9648 7.04865 16.9512 3.03503 12 3.03503C7.04877 3.03503 3.03516 7.04865 3.03516 11.9999C3.03516 15.3169 4.83621 18.2148 7.51855 19.7665C8.01306 20.0528 8.18166 20.6859 7.89551 21.1805C7.60919 21.6751 6.97612 21.8437 6.48145 21.5575C3.18601 19.651 0.964844 16.0855 0.964844 11.9999C0.964844 5.90542 5.90554 0.964722 12 0.964722C18.0945 0.964722 23.0352 5.90542 23.0352 11.9999C23.0352 16.0855 20.814 19.651 17.5186 21.5575C17.0239 21.8437 16.3908 21.6751 16.1045 21.1805C15.8183 20.6859 15.9869 20.0528 16.4814 19.7665C19.1638 18.2148 20.9648 15.3169 20.9648 11.9999Z"/></g><defs><clipPath id="a"><path fill="#fff" d="M0 0H24V24H0z"/></clipPath></defs></svg>