<svg xmlns="http://www.w3.org/2000/svg" width="24" height="24" fill="none" viewBox="0 0 24 24"><g clip-path="url(#a)"><path fill="currentColor" d="M20.9648 12C20.9648 7.04877 16.9512 3.03516 12 3.03516C7.04877 3.03516 3.03516 7.04877 3.03516 12C3.03516 16.9512 7.04877 20.9648 12 20.9648C16.9512 20.9648 20.9648 16.9512 20.9648 12ZM10.9648 16V10.498L8.73145 12.7314C8.32725 13.1356 7.67275 13.1356 7.26855 12.7314C6.86436 12.3273 6.86436 11.6727 7.26855 11.2686L11.2686 7.26855L11.3467 7.19727C11.7532 6.86559 12.3525 6.88958 12.7314 7.26855L16.7314 11.2686C17.1356 11.6727 17.1356 12.3273 16.7314 12.7314C16.3273 13.1356 15.6727 13.1356 15.2686 12.7314L13.0352 10.498V16C13.0352 16.5716 12.5716 17.0352 12 17.0352C11.4284 17.0352 10.9648 16.5716 10.9648 16ZM23.0352 12C23.0352 18.0945 18.0945 23.0352 12 23.0352C5.90554 23.0352 0.964844 18.0945 0.964844 12C0.964844 5.90554 5.90554 0.964844 12 0.964844C18.0945 0.964844 23.0352 5.90554 23.0352 12Z"/></g><defs><clipPath id="a"><path fill="#fff" d="M0 0H24V24H0z"/></clipPath></defs></svg>