<svg xmlns="http://www.w3.org/2000/svg" width="24" height="24" fill="none" viewBox="0 0 24 24"><g clip-path="url(#a)"><path fill="currentColor" d="M20.9648 12C20.9648 7.04877 16.9512 3.03516 12 3.03516C7.04877 3.03516 3.03516 7.04877 3.03516 12C3.03516 16.9512 7.04877 20.9648 12 20.9648C16.9512 20.9648 20.9648 16.9512 20.9648 12ZM7.96484 15V9C7.96487 8.42847 8.42849 7.96494 9 7.96484H15C15.5716 7.96484 16.0351 8.42841 16.0352 9C16.0352 9.57161 15.5716 10.0352 15 10.0352H11.499L15.7324 14.2686C16.1361 14.6727 16.1361 15.3274 15.7324 15.7314C15.3282 16.1356 14.6728 16.1356 14.2686 15.7314L10.0352 11.498V15C10.0352 15.5716 9.57161 16.0352 9 16.0352C8.42847 16.0351 7.96484 15.5716 7.96484 15ZM23.0352 12C23.0352 18.0945 18.0945 23.0352 12 23.0352C5.90554 23.0352 0.964844 18.0945 0.964844 12C0.964844 5.90554 5.90554 0.964844 12 0.964844C18.0945 0.964844 23.0352 5.90554 23.0352 12Z"/></g><defs><clipPath id="a"><path fill="#fff" d="M0 0H24V24H0z"/></clipPath></defs></svg>