<svg xmlns="http://www.w3.org/2000/svg" width="24" height="24" fill="none" viewBox="0 0 24 24"><path fill="currentColor" d="M15.2686 12.2685C15.6727 11.8643 16.3273 11.8643 16.7314 12.2685L20.7314 16.2685C21.1356 16.6727 21.1356 17.3272 20.7314 17.7314L16.7314 21.7314C16.3273 22.1356 15.6727 22.1356 15.2686 21.7314C14.8644 21.3272 14.8644 20.6727 15.2686 20.2685L17.502 18.0351H4C3.42839 18.0351 2.96484 17.5716 2.96484 17C2.96484 16.4284 3.42839 15.9648 4 15.9648H17.502L15.2686 13.7314C14.8644 13.3272 14.8644 12.6727 15.2686 12.2685ZM10.2686 2.26854C10.6727 1.86434 11.3273 1.86434 11.7314 2.26854L15.7314 6.26854C16.1356 6.67273 16.1356 7.32724 15.7314 7.73143L11.7314 11.7314C11.3273 12.1356 10.6727 12.1356 10.2686 11.7314C9.86436 11.3272 9.86436 10.6727 10.2686 10.2685L12.502 8.03514H4C3.42839 8.03514 2.96484 7.5716 2.96484 6.99998C2.96484 6.42837 3.42839 5.96483 4 5.96483H12.502L10.2686 3.73143C9.86436 3.32724 9.86436 2.67273 10.2686 2.26854Z"/></svg>