<svg xmlns="http://www.w3.org/2000/svg" width="24" height="24" fill="none" viewBox="0 0 24 24"><g clip-path="url(#a)"><path fill="currentColor" d="M9.1436 1.33989C12.822 0.357574 16.9137 1.30822 19.8028 4.19731C24.1122 8.50675 24.1122 15.4933 19.8028 19.8028C15.4933 24.1122 8.50675 24.1122 4.19731 19.8028C1.30822 16.9137 0.357573 12.822 1.33989 9.1436C1.48737 8.59136 2.05425 8.26276 2.60649 8.4102C3.15875 8.55769 3.4864 9.12552 3.33892 9.67778C2.53955 12.6716 3.31579 15.9935 5.66118 18.3389C9.16223 21.84 14.8379 21.84 18.3389 18.3389C21.84 14.8379 21.84 9.16223 18.3389 5.66118C15.9935 3.31579 12.6716 2.53955 9.67778 3.33892C9.12552 3.4864 8.55769 3.15875 8.4102 2.60649C8.26276 2.05425 8.59136 1.48737 9.1436 1.33989ZM4.2686 4.2686C4.67279 3.86441 5.3273 3.86441 5.73149 4.2686L13.9649 12.501V9.00005C13.9649 8.42848 14.4285 7.96497 15 7.96489C15.5717 7.96489 16.0352 8.42844 16.0352 9.00005V15C16.0352 15.5717 15.5717 16.0352 15 16.0352H9.00005C8.4285 16.0351 7.96489 15.5716 7.96489 15C7.9649 14.4285 8.4285 13.965 9.00005 13.9649H12.502L4.2686 5.73149C3.86441 5.3273 3.86441 4.6728 4.2686 4.2686Z"/></g><defs><clipPath id="a"><path fill="#fff" d="M0 0H24V24H0z"/></clipPath></defs></svg>