<svg xmlns="http://www.w3.org/2000/svg" width="24" height="24" fill="none" viewBox="0 0 24 24"><g clip-path="url(#a)"><path fill="currentColor" d="M0.964722 12C0.964722 5.90554 5.90542 0.964844 11.9999 0.964844C16.0855 0.964844 19.651 3.18601 21.5575 6.48145C21.8437 6.97612 21.6751 7.60919 21.1805 7.89551C20.6859 8.18166 20.0528 8.01306 19.7665 7.51855C18.2148 4.83621 15.3169 3.03516 11.9999 3.03516C7.04865 3.03516 3.03503 7.04877 3.03503 12C3.03503 16.9512 7.04865 20.9648 11.9999 20.9648C15.3169 20.9648 18.2148 19.1638 19.7665 16.4814C20.0528 15.9869 20.6859 15.8183 21.1805 16.1045C21.6751 16.3908 21.8437 17.0239 21.5575 17.5186C19.651 20.814 16.0855 23.0352 11.9999 23.0352C5.90542 23.0352 0.964722 18.0945 0.964722 12ZM11.2684 7.26855C11.6726 6.86437 12.3271 6.8644 12.7313 7.26855C13.1355 7.67275 13.1355 8.32725 12.7313 8.73145L10.4979 10.9648H21.9999C22.5715 10.9648 23.035 11.4284 23.035 12C23.035 12.5716 22.5715 13.0352 21.9999 13.0352H10.4979L12.7313 15.2686C13.1355 15.6727 13.1355 16.3273 12.7313 16.7314C12.3271 17.1356 11.6726 17.1356 11.2684 16.7314L7.26843 12.7314C6.86429 12.3273 6.86429 11.6727 7.26843 11.2686L11.2684 7.26855Z"/></g><defs><clipPath id="a"><path fill="#fff" d="M0 0H24V24H0z"/></clipPath></defs></svg>