<svg xmlns="http://www.w3.org/2000/svg" width="24" height="24" fill="none" viewBox="0 0 24 24"><path fill="currentColor" d="M5.96489 4C5.96489 3.42839 6.42843 2.96484 7.00004 2.96484C7.57166 2.96484 8.0352 3.42839 8.0352 4V17.502L10.2686 15.2686C10.6728 14.8644 11.3273 14.8644 11.7315 15.2686C12.1357 15.6727 12.1357 16.3273 11.7315 16.7314L7.73149 20.7314C7.3273 21.1356 6.67279 21.1356 6.2686 20.7314L2.2686 16.7314C1.86441 16.3273 1.86441 15.6727 2.2686 15.2686C2.67279 14.8644 3.3273 14.8644 3.73149 15.2686L5.96489 17.502V4ZM15.9649 4C15.9649 3.42839 16.4284 2.96484 17 2.96484C17.5717 2.96484 18.0352 3.42839 18.0352 4V12.502L20.2686 10.2686C20.6728 9.86436 21.3273 9.86436 21.7315 10.2686C22.1357 10.6727 22.1357 11.3273 21.7315 11.7314L17.7315 15.7314C17.3273 16.1356 16.6728 16.1356 16.2686 15.7314L12.2686 11.7314C11.8644 11.3273 11.8644 10.6727 12.2686 10.2686C12.6728 9.86436 13.3273 9.86436 13.7315 10.2686L15.9649 12.502V4Z"/></svg>