<svg xmlns="http://www.w3.org/2000/svg" width="24" height="24" fill="none" viewBox="0 0 24 24"><path fill="currentColor" d="M7.49806 8.96483H9.00002C9.57163 8.96483 10.0352 9.42837 10.0352 9.99999V19.9648H13.9649V9.99999C13.9649 9.42837 14.4284 8.96483 15 8.96483H16.502L12 4.46288L7.49806 8.96483ZM16.0352 20.2002C16.0352 20.323 16.0354 20.4771 16.0244 20.6123C16.0124 20.7597 15.9822 20.9736 15.8682 21.1973C15.721 21.486 15.486 21.721 15.1973 21.8682C14.9736 21.9821 14.7597 22.0124 14.6123 22.0244C14.4772 22.0354 14.323 22.0351 14.2002 22.0351H9.79982C9.67702 22.0351 9.52286 22.0354 9.38771 22.0244C9.24033 22.0124 9.02645 21.9821 8.80275 21.8682C8.51402 21.721 8.279 21.486 8.13185 21.1973C8.01787 20.9736 7.98764 20.7597 7.9756 20.6123C7.96458 20.4771 7.96486 20.323 7.96486 20.2002V11.0351H5.00002C4.58154 11.0351 4.20425 10.783 4.04396 10.3965C3.88376 10.0097 3.97256 9.56455 4.26857 9.26854L11.2686 2.26854L11.3467 2.19725C11.7532 1.86558 12.3525 1.88957 12.7315 2.26854L19.7315 9.26854C20.0275 9.56455 20.1163 10.0097 19.9561 10.3965C19.7958 10.783 19.4185 11.0351 19 11.0351H16.0352V20.2002Z"/></svg>