<svg xmlns="http://www.w3.org/2000/svg" width="24" height="24" fill="none" viewBox="0 0 24 24"><path fill="currentColor" d="M13.6035 4.04396C13.9903 3.88376 14.4354 3.97256 14.7314 4.26857L21.7314 11.2686C22.1356 11.6728 22.1356 12.3273 21.7314 12.7315L14.7314 19.7315C14.4354 20.0275 13.9903 20.1163 13.6035 19.9561C13.217 19.7958 12.9648 19.4185 12.9648 19V16.0352H3.79981C3.67701 16.0352 3.52284 16.0354 3.3877 16.0244C3.24031 16.0124 3.02644 15.9822 2.80274 15.8682C2.514 15.721 2.27899 15.486 2.13184 15.1973C2.01785 14.9736 1.98763 14.7597 1.97559 14.6123C1.96457 14.4772 1.96484 14.323 1.96484 14.2002V9.79982C1.96484 9.67702 1.96457 9.52286 1.97559 9.38771C1.98763 9.24033 2.01785 9.02645 2.13184 8.80275L2.19141 8.69728C2.33887 8.45689 2.55008 8.26061 2.80274 8.13185L2.96777 8.06154C3.12911 8.00408 3.27709 7.98464 3.3877 7.9756C3.52284 7.96458 3.67701 7.96486 3.79981 7.96486H12.9648V5.00002C12.9648 4.58154 13.217 4.20425 13.6035 4.04396ZM15.0352 9.00002C15.0352 9.57163 14.5716 10.0352 14 10.0352H4.03516V13.9649H14C14.5716 13.9649 15.0352 14.4284 15.0352 15V16.502L19.5371 12L15.0352 7.49806V9.00002Z"/></svg>