<svg xmlns="http://www.w3.org/2000/svg" width="24" height="24" fill="none" viewBox="0 0 24 24"><g clip-path="url(#a)"><path fill="currentColor" d="M20.9648 12C20.9648 7.04877 16.9512 3.03516 12 3.03516C8.68302 3.03518 5.78504 4.83623 4.2334 7.51855C3.94707 8.01304 3.314 8.18165 2.81934 7.89551C2.32485 7.60918 2.15624 6.97611 2.44238 6.48145C4.34887 3.18602 7.91438 0.964869 12 0.964844C18.0945 0.964844 23.0352 5.90554 23.0352 12C23.0352 18.0945 18.0945 23.0352 12 23.0352C7.91438 23.0351 4.34887 20.814 2.44238 17.5186C2.15624 17.0239 2.32485 16.3908 2.81934 16.1045C3.314 15.8183 3.94707 15.987 4.2334 16.4814C5.78504 19.1638 8.68302 20.9648 12 20.9648C16.9512 20.9648 20.9648 16.9512 20.9648 12ZM11.2686 7.26855C11.6727 6.86436 12.3273 6.86436 12.7314 7.26855L16.7314 11.2686C16.9255 11.4627 17.0352 11.7255 17.0352 12C17.0352 12.2745 16.9255 12.5373 16.7314 12.7314L12.7314 16.7314C12.3273 17.1356 11.6727 17.1356 11.2686 16.7314C10.8644 16.3273 10.8644 15.6727 11.2686 15.2686L13.502 13.0352H2C1.42839 13.0352 0.964844 12.5716 0.964844 12C0.964844 11.4284 1.42839 10.9648 2 10.9648H13.502L11.2686 8.73145C10.8644 8.32725 10.8644 7.67275 11.2686 7.26855Z"/></g><defs><clipPath id="a"><path fill="#fff" d="M0 0H24V24H0z"/></clipPath></defs></svg>