<svg xmlns="http://www.w3.org/2000/svg" width="24" height="24" fill="none" viewBox="0 0 24 24"><g clip-path="url(#a)"><path fill="currentColor" d="M10.9648 22V14.499L5.66113 19.8027C5.25694 20.2069 4.60146 20.2069 4.19727 19.8027C3.79307 19.3985 3.79307 18.7431 4.19727 18.3389L9.50098 13.0352H2C1.42839 13.0352 0.964844 12.5716 0.964844 12C0.964844 11.4284 1.42839 10.9648 2 10.9648H9.50098L4.19727 5.66113C3.79307 5.25694 3.79307 4.60146 4.19727 4.19727C4.60146 3.79307 5.25694 3.79307 5.66113 4.19727L10.9648 9.50098V2C10.9648 1.42839 11.4284 0.964844 12 0.964844C12.5716 0.964844 13.0352 1.42839 13.0352 2V9.50098L18.3389 4.19727C18.7431 3.79307 19.3985 3.79307 19.8027 4.19727C20.2069 4.60146 20.2069 5.25694 19.8027 5.66113L14.499 10.9648H22C22.5716 10.9648 23.0352 11.4284 23.0352 12C23.0352 12.5716 22.5716 13.0352 22 13.0352H14.499L19.8027 18.3389C20.2069 18.7431 20.2069 19.3985 19.8027 19.8027C19.3985 20.2069 18.7431 20.2069 18.3389 19.8027L13.0352 14.499V22C13.0352 22.5716 12.5716 23.0352 12 23.0352C11.4284 23.0352 10.9648 22.5716 10.9648 22Z"/></g><defs><clipPath id="a"><path fill="#fff" d="M0 0H24V24H0z"/></clipPath></defs></svg>