<svg xmlns="http://www.w3.org/2000/svg" width="24" height="24" fill="none" viewBox="0 0 24 24"><path fill="currentColor" d="M10.9648 20V14.498L6.73145 18.7314C6.32725 19.1356 5.67275 19.1356 5.26855 18.7314C4.86436 18.3273 4.86436 17.6727 5.26855 17.2686L9.50195 13.0352H4C3.42839 13.0352 2.96484 12.5716 2.96484 12C2.96484 11.4284 3.42839 10.9648 4 10.9648H9.50195L5.26855 6.73145C4.86436 6.32725 4.86436 5.67275 5.26855 5.26855C5.67275 4.86436 6.32725 4.86436 6.73145 5.26855L10.9648 9.50195V4C10.9648 3.42839 11.4284 2.96484 12 2.96484C12.5716 2.96484 13.0352 3.42839 13.0352 4V9.50195L17.2686 5.26855C17.6727 4.86436 18.3273 4.86436 18.7314 5.26855C19.1356 5.67275 19.1356 6.32725 18.7314 6.73145L14.498 10.9648H20C20.5716 10.9648 21.0352 11.4284 21.0352 12C21.0352 12.5716 20.5716 13.0352 20 13.0352H14.498L18.7314 17.2686C19.1356 17.6727 19.1356 18.3273 18.7314 18.7314C18.3273 19.1356 17.6727 19.1356 17.2686 18.7314L13.0352 14.498V20C13.0352 20.5716 12.5716 21.0352 12 21.0352C11.4284 21.0352 10.9648 20.5716 10.9648 20Z"/></svg>