<svg xmlns="http://www.w3.org/2000/svg" width="24" height="24" fill="none" viewBox="0 0 24 24"><g clip-path="url(#a)"><path fill="currentColor" d="M16 6.96549C16.5715 6.96549 17.035 7.42822 17.0351 7.99967V12.9997C17.0351 13.5207 17.2419 14.0208 17.6103 14.3893C17.9788 14.7578 18.4788 14.9655 19 14.9655C19.5211 14.9655 20.0211 14.7578 20.3896 14.3893C20.758 14.0208 20.9648 13.5207 20.9648 12.9997V11.9997C20.9646 9.97655 20.28 8.01319 19.0224 6.42838C17.7647 4.84342 16.0075 3.73002 14.0371 3.27018C12.0669 2.81046 9.99913 3.03082 8.16991 3.89518C6.34052 4.7597 4.85665 6.21759 3.96092 8.0319C3.06525 9.84617 2.81031 11.9104 3.23632 13.8883C3.66234 15.8662 4.7446 17.6418 6.3076 18.9264C7.87075 20.2111 9.82268 20.9297 11.8457 20.9645C13.8688 20.9993 15.8447 20.348 17.4512 19.1178C17.905 18.7707 18.5539 18.8575 18.9014 19.3112C19.2488 19.765 19.1628 20.4139 18.709 20.7614C16.7317 22.2756 14.3006 23.0766 11.8105 23.0338C9.32034 22.991 6.91727 22.1074 4.99315 20.526C3.06909 18.9447 1.73628 16.7586 1.2119 14.3239C0.687605 11.8893 1.003 9.34899 2.10546 7.11588C3.20798 4.88271 5.03343 3.08823 7.28514 2.02408C9.53692 0.959955 12.0824 0.688544 14.5078 1.25455C16.9331 1.82055 19.0954 3.19044 20.6435 5.14127C22.1916 7.09212 23.0349 9.50921 23.0351 11.9997V12.9997C23.0351 14.0697 22.6101 15.0965 21.8535 15.8532C21.0968 16.6099 20.0701 17.0348 19 17.0348C17.9298 17.0348 16.9032 16.6099 16.1465 15.8532C15.9964 15.7031 15.8596 15.5422 15.7363 15.3727C14.8149 16.3928 13.4829 17.0348 12 17.0348C9.21924 17.0348 6.96483 14.7804 6.96483 11.9997C6.96502 9.21908 9.21936 6.9655 12 6.96549C13.1099 6.96549 14.1355 7.32485 14.9678 7.93326C15.0022 7.39279 15.4508 6.9655 16 6.96549ZM9.03514 11.9997C9.03514 13.6372 10.3625 14.9655 12 14.9655C13.6375 14.9655 14.9648 13.6372 14.9648 11.9997C14.9646 10.3623 13.6374 9.03483 12 9.03483C10.3626 9.03483 9.03534 10.3623 9.03514 11.9997Z"/></g><defs><clipPath id="a"><path fill="#fff" d="M0 0H24V24H0z"/></clipPath></defs></svg>