<svg xmlns="http://www.w3.org/2000/svg" width="24" height="24" fill="none" viewBox="0 0 24 24"><path fill="currentColor" d="M14.2284 2.52825C16.557 1.84336 18.9662 1.94573 20.5311 3.51067C21.602 4.5817 21.9885 6.0658 21.9071 7.61419C21.8338 9.00656 21.3818 10.5185 20.6356 12.0204C21.0055 12.7649 21.3008 13.5054 21.5135 14.2284C22.1984 16.5571 22.096 18.9662 20.5311 20.5312C18.9661 22.0961 16.557 22.1985 14.2284 21.5136C13.5053 21.3009 12.7648 21.0056 12.0203 20.6357C11.2759 21.0055 10.5353 21.301 9.81234 21.5136C7.48388 22.1984 5.07545 22.0959 3.51058 20.5312C2.44027 19.4609 2.05383 17.9779 2.13461 16.4306C2.20739 15.0372 2.65824 13.5236 3.40511 12.0204C3.03531 11.2761 2.74077 10.5353 2.52816 9.81243C1.84336 7.48389 1.94571 5.07555 3.51058 3.51067C5.07546 1.9458 7.4838 1.84345 9.81234 2.52825C10.5352 2.74086 11.276 3.0354 12.0203 3.40521C12.7647 3.03533 13.5054 2.7409 14.2284 2.52825ZM4.71175 14.2138C4.40807 15.0516 4.23862 15.8375 4.20199 16.538C4.14166 17.693 4.43841 18.5313 4.97445 19.0673C5.75263 19.8454 7.20661 20.1228 9.22836 19.5283C9.425 19.4704 9.62406 19.4022 9.82601 19.329C8.87096 18.664 7.93293 17.8822 7.04574 16.995C6.15823 16.1075 5.3769 15.1692 4.71175 14.2138ZM9.22836 4.5136C7.20648 3.91901 5.75261 4.19638 4.97445 4.97454C4.19629 5.7527 3.91892 7.20657 4.51351 9.22845C5.09562 11.2076 6.46025 13.4817 8.50961 15.5312C9.6402 16.6618 10.8403 17.5828 12.0203 18.2802C13.2006 17.5828 14.4003 16.662 15.5311 15.5312C15.8131 15.2491 16.0831 14.9629 16.3397 14.6728C16.7184 14.2446 17.3724 14.2043 17.8006 14.5829C18.2288 14.9616 18.2692 15.6157 17.8905 16.0439C17.6057 16.3658 17.3069 16.6831 16.995 16.995C16.1074 17.8826 15.1692 18.6638 14.2137 19.329C14.4161 19.4024 14.6153 19.4703 14.8123 19.5283C16.8344 20.123 18.289 19.8455 19.0672 19.0673C19.8454 18.2891 20.1229 16.8345 19.5282 14.8124C19.3156 14.0898 18.9973 13.3286 18.5809 12.5527C18.5646 12.5253 18.5496 12.4973 18.536 12.4687C17.8147 11.1457 16.8054 9.78398 15.5311 8.5097C14.4002 7.37885 13.2007 6.45708 12.0203 5.7597C10.8401 6.45711 9.64044 7.37886 8.50961 8.5097C8.21467 8.80463 7.93391 9.10544 7.66683 9.40911C7.28931 9.83819 6.63507 9.87934 6.20589 9.50188C5.77702 9.12441 5.73495 8.47106 6.11214 8.04192C6.40848 7.70498 6.71964 7.37193 7.04574 7.04583C7.93324 6.15833 8.87158 5.37701 9.82699 4.71185C9.62482 4.63857 9.4252 4.5715 9.22836 4.5136ZM11.9998 11.9648C11.9805 11.9648 11.9647 11.9806 11.9647 11.9999L11.9754 12.0243C11.9817 12.0307 11.9902 12.0351 11.9998 12.0351C12.0095 12.0351 12.0179 12.0307 12.0243 12.0243L12.035 11.9999L12.0243 11.9755C12.0179 11.9692 12.0095 11.9648 11.9998 11.9648ZM19.0672 4.97454C18.289 4.19634 16.8344 3.91888 14.8123 4.5136C14.6154 4.57154 14.416 4.63851 14.2137 4.71185C15.1692 5.37699 16.1074 6.15833 16.995 7.04583C17.8824 7.93323 18.6638 8.8718 19.3289 9.82708C19.6322 8.99036 19.8028 8.20571 19.8397 7.50579C19.9006 6.34968 19.6035 5.51094 19.0672 4.97454ZM14.035 11.9999C14.035 13.1238 13.1237 14.0351 11.9998 14.0351C10.9462 14.0351 10.0796 13.2341 9.97543 12.2079L9.96468 11.9999L9.97543 11.7919C10.0796 10.7658 10.9462 9.96481 11.9998 9.96478C13.1237 9.96478 14.035 10.876 14.035 11.9999Z"/></svg>