<svg xmlns="http://www.w3.org/2000/svg" width="24" height="24" fill="none" viewBox="0 0 24 24"><path fill="currentColor" d="M5.56534 1.77018C6.59336 1.77797 7.73104 2.06401 8.89347 2.54264C9.88771 2.95203 10.9358 3.51824 11.9989 4.2194C13.0622 3.51809 14.111 2.95308 15.1054 2.54361C16.2679 2.06494 17.4054 1.77894 18.4335 1.77115C19.4668 1.7634 20.4736 2.03983 21.2167 2.78287C21.9598 3.52597 22.2372 4.53277 22.2294 5.56608C22.2216 6.59409 21.9356 7.73176 21.4569 8.8942C21.0475 9.88854 20.4805 10.9364 19.7792 11.9997C20.4807 13.0631 21.0464 14.1116 21.456 15.1061C21.9347 16.2686 22.2216 17.4062 22.2294 18.4342C22.2372 19.4675 21.9598 20.4743 21.2167 21.2174C20.4736 21.9605 19.4668 22.2379 18.4335 22.2301C17.4054 22.2224 16.2679 21.9354 15.1054 21.4567C14.1108 21.0472 13.0624 20.4814 11.9989 19.7799C10.9356 20.4812 9.88786 21.0482 8.89347 21.4577C7.73102 21.9363 6.59337 22.2224 5.56534 22.2301C4.53204 22.2379 3.52524 21.9605 2.78214 21.2174C2.03919 20.4744 1.76177 19.4683 1.76944 18.4352C1.77716 17.4071 2.06318 16.2687 2.54191 15.1061C2.95139 14.1116 3.51729 13.063 4.21866 11.9997C3.51751 10.9365 2.9513 9.88844 2.54191 8.8942C2.06327 7.73177 1.77724 6.59409 1.76944 5.56608C1.76169 4.53277 2.03904 3.52597 2.78214 2.78287C3.52524 2.03977 4.53204 1.76243 5.56534 1.77018ZM5.52823 13.8014C5.08869 14.5282 4.72968 15.2319 4.45694 15.8942C4.04006 16.9066 3.84492 17.7734 3.83976 18.4499C3.83472 19.1212 4.01283 19.5204 4.24601 19.7536C4.47922 19.9868 4.87829 20.1649 5.54972 20.1598C6.22619 20.1547 7.09291 19.9605 8.10538 19.5436C8.76768 19.2709 9.47042 18.9099 10.1972 18.4704C9.36469 17.8087 8.53661 17.0715 7.73234 16.2672C6.92773 15.4626 6.19009 14.6343 5.52823 13.8014ZM18.4696 13.8014C17.8079 14.6341 17.071 15.4628 16.2665 16.2672C15.4621 17.0717 14.6334 17.8086 13.8007 18.4704C14.5276 18.91 15.231 19.2699 15.8935 19.5426C16.906 19.9596 17.7726 20.1547 18.4491 20.1598C19.1206 20.1649 19.5196 19.9868 19.7528 19.7536C19.9861 19.5204 20.1641 19.1213 20.1591 18.4499C20.154 17.7734 19.9588 16.9067 19.5419 15.8942C19.2691 15.2318 18.9093 14.5283 18.4696 13.8014ZM11.9989 6.7526C11.0656 7.45485 10.1197 8.27342 9.1962 9.19693C8.27271 10.1204 7.45411 11.0664 6.75187 11.9997C7.45411 12.933 8.2717 13.8798 9.19523 14.8034C10.1186 15.7268 11.0657 16.5445 11.9989 17.2467C12.9321 16.5446 13.8792 15.7277 14.8026 14.8044C15.7263 13.8808 16.5437 12.9331 17.246 11.9997C16.5438 11.0665 15.726 10.1193 14.8026 9.19596C13.8791 8.27243 12.9323 7.45484 11.9989 6.7526ZM12.1562 10.4733C12.9303 10.5518 13.5341 11.2058 13.5341 12.0006C13.5339 12.8481 12.8473 13.5346 11.9999 13.5348C11.205 13.5348 10.551 12.9311 10.4726 12.1569L10.4648 12.0006L10.4726 11.8434C10.5512 11.0694 11.2051 10.4655 11.9999 10.4655L12.1562 10.4733ZM5.54972 3.84049C4.87829 3.83545 4.47922 4.01353 4.24601 4.24674C4.0128 4.47995 3.83472 4.87903 3.83976 5.55045C3.8449 6.22692 4.03909 7.09366 4.45597 8.10611C4.72877 8.76863 5.0895 9.47188 5.52921 10.1989C6.19096 9.36623 6.9279 8.5375 7.73234 7.73307C8.53676 6.92865 9.36453 6.19071 10.1972 5.52897C9.47058 5.08957 8.76755 4.72936 8.10538 4.4567C7.09293 4.03982 6.22618 3.84563 5.54972 3.84049ZM18.4491 3.84049C17.7726 3.84563 16.906 4.04076 15.8935 4.45768C15.2312 4.7304 14.5275 5.08943 13.8007 5.52897C14.6335 6.19083 15.4619 6.92847 16.2665 7.73307C17.0708 8.53734 17.808 9.36542 18.4696 10.1979C18.9091 9.47124 19.2692 8.76834 19.5419 8.10611C19.9589 7.09353 20.154 6.22696 20.1591 5.55045C20.1641 4.87903 19.9861 4.47995 19.7528 4.24674C19.5196 4.01356 19.1205 3.83545 18.4491 3.84049Z"/></svg>