<svg xmlns="http://www.w3.org/2000/svg" width="24" height="24" fill="none" viewBox="0 0 24 24"><path fill="currentColor" d="M12.9958 2.74278C14.7669 0.971831 17.6389 0.971782 19.4099 2.74278C21.1808 4.51379 21.1808 7.38584 19.4099 9.15685L10.7478 17.819C9.66018 18.9066 7.89594 18.9066 6.80833 17.819C5.72094 16.7315 5.72121 14.9681 6.80833 13.8805L14.4099 6.27892C14.8141 5.87473 15.4696 5.87473 15.8738 6.27892C16.2779 6.68312 16.2779 7.33862 15.8738 7.74278L8.2722 15.3434C7.993 15.6226 7.99304 16.0759 8.2722 16.3551C8.55143 16.6343 9.00469 16.6343 9.28392 16.3551L17.946 7.69298C18.9086 6.73036 18.9086 5.16928 17.946 4.20665C16.9834 3.24403 15.4223 3.24408 14.4597 4.20665L5.44408 13.2223C3.79804 14.8683 3.79808 17.5371 5.44408 19.1832C7.09014 20.8293 9.75895 20.8293 11.405 19.1832L20.4206 10.1676C20.8248 9.76347 21.4803 9.76342 21.8845 10.1676C22.2886 10.5718 22.2886 11.2273 21.8845 11.6315L12.8689 20.6471C10.4144 23.1015 6.43465 23.1015 3.98021 20.6471C1.52582 18.1926 1.52578 14.2128 3.98021 11.7584L12.9958 2.74278Z"/></svg>