<svg xmlns="http://www.w3.org/2000/svg" width="24" height="24" fill="none" viewBox="0 0 24 24"><path fill="currentColor" d="M9.13184 16.4453V6.65137C9.13184 6.07975 9.59538 5.61621 10.167 5.61621C10.7385 5.61639 11.2021 6.07986 11.2021 6.65137V16.4453C11.2021 16.8862 11.5591 17.2441 12 17.2441C12.4409 17.2441 12.7979 16.8862 12.7979 16.4453V5.66699C12.7979 4.21367 11.6203 3.03533 10.167 3.03516C8.71356 3.03516 7.53516 4.21356 7.53516 5.66699V16.5C7.53516 18.966 9.53405 20.9648 12 20.9648C14.466 20.9648 16.4648 18.966 16.4648 16.5V5.25586C16.4648 4.68424 16.9284 4.2207 17.5 4.2207C18.0716 4.2207 18.5352 4.68424 18.5352 5.25586V16.5C18.5352 20.1092 15.6092 23.0352 12 23.0352C8.39082 23.0352 5.46484 20.1092 5.46484 16.5V5.66699C5.46484 3.07033 7.57033 0.964844 10.167 0.964844C12.7635 0.96502 14.8682 3.07044 14.8682 5.66699V16.4453C14.8682 18.0294 13.5841 19.3145 12 19.3145C10.4159 19.3145 9.13184 18.0294 9.13184 16.4453Z"/></svg>