<svg xmlns="http://www.w3.org/2000/svg" width="24" height="24" fill="none" viewBox="0 0 24 24"><path fill="currentColor" d="M18.9629 4.7334L13.8819 11.2666C14.2331 11.3816 14.5759 11.5288 14.9053 11.71L18.4903 7.22949C18.776 6.87235 18.8259 6.80295 18.8594 6.7373C18.899 6.65992 18.9279 6.57731 18.9454 6.49219C18.9601 6.42005 18.9649 6.33453 18.9649 5.87793V5.2002C18.9649 5.02715 18.9637 4.87248 18.9629 4.7334ZM14.8038 14.1963C13.2553 12.6479 10.7448 12.6479 9.19634 14.1963C7.64792 15.7447 7.64792 18.2553 9.19634 19.8037C10.7448 21.3521 13.2553 21.3521 14.8038 19.8037C16.3522 18.2553 16.3522 15.7447 14.8038 14.1963ZM7.20025 3.03516C6.84612 3.03516 6.56956 3.03547 6.34381 3.04102L12.0001 10.3125L17.6553 3.04102C17.4298 3.03549 17.1535 3.03516 16.7999 3.03516H7.20025ZM5.03521 5.87793C5.03521 6.33452 5.03997 6.42005 5.05474 6.49219C5.07221 6.57731 5.10116 6.65992 5.14068 6.7373C5.17422 6.80295 5.22411 6.87235 5.50982 7.22949L9.09381 11.71C9.42319 11.5288 9.76606 11.3816 10.1172 11.2666L5.03619 4.7334C5.03547 4.87248 5.03521 5.02715 5.03521 5.2002V5.87793ZM21.0352 5.87793C21.0352 6.25221 21.0395 6.5827 20.9727 6.9082C20.9177 7.17608 20.8276 7.43617 20.7032 7.67969C20.5519 7.97571 20.3414 8.23101 20.1075 8.52344L16.5215 13.0039C18.6203 15.3741 18.5362 18.999 16.2676 21.2676C13.9108 23.6244 10.0893 23.6244 7.73248 21.2676C5.46405 18.9991 5.37931 15.3741 7.47759 13.0039L3.89263 8.52344C3.65869 8.23101 3.4482 7.97571 3.29693 7.67969C3.17252 7.43617 3.08238 7.17608 3.0274 6.9082C2.96064 6.5827 2.9649 6.25221 2.9649 5.87793V5.2002C2.9649 4.65722 2.96466 4.18718 2.99615 3.80176C3.02864 3.40438 3.10029 3.00608 3.29595 2.62207C3.58692 2.05107 4.05113 1.58686 4.62213 1.2959C5.00613 1.10024 5.40443 1.02859 5.80181 0.996094C6.18724 0.964603 6.65728 0.964844 7.20025 0.964844H16.7999C17.3428 0.964844 17.8129 0.964603 18.1983 0.996094C18.5957 1.02859 18.994 1.10024 19.378 1.2959C19.949 1.58686 20.4132 2.05107 20.7042 2.62207C20.8998 3.00608 20.9715 3.40438 21.004 3.80176C21.0355 4.18718 21.0352 4.65722 21.0352 5.2002V5.87793Z"/></svg>