<svg xmlns="http://www.w3.org/2000/svg" width="24" height="24" fill="none" viewBox="0 0 24 24"><path fill="currentColor" d="M8.5459 1.16014C9.173 0.90042 9.87779 0.900375 10.5049 1.16014L11.8125 1.70115L11.8115 1.70213C11.9314 1.75159 12.0667 1.75086 12.1865 1.70115L12.1885 1.70017L13.4961 1.16111C14.1232 0.901476 14.8281 0.901381 15.4551 1.16111C16.082 1.42088 16.5801 1.919 16.8398 2.54588L17.3623 3.80857C17.3692 3.82332 17.3765 3.8383 17.3828 3.85349C17.4324 3.97315 17.527 4.06835 17.6465 4.11814L18.9551 4.66014C19.5822 4.91992 20.0801 5.41873 20.3398 6.04588C20.5995 6.67296 20.5996 7.3778 20.3398 8.00486L19.7988 9.31248C19.749 9.43283 19.7487 9.5671 19.7979 9.68553L19.7988 9.68846L20.3398 10.9951L20.4248 11.2314C20.4978 11.4719 20.5351 11.7224 20.5352 11.9746C20.5352 12.3108 20.4685 12.6444 20.3398 12.9551C20.2112 13.2655 20.0227 13.5476 19.7852 13.7851C19.6069 13.9634 19.4032 14.114 19.1816 14.2324L18.9541 14.3398L17.6465 14.8818H17.6455C17.5257 14.9314 17.4306 15.0268 17.3809 15.1465L17.1943 15.5947L18.0264 21.8642C18.0785 22.258 17.9004 22.6471 17.5684 22.8652C17.2363 23.0833 16.8085 23.092 16.4678 22.8877L12 20.207L7.53223 22.8877C7.19148 23.092 6.76372 23.0834 6.43164 22.8652C6.09947 22.647 5.9213 22.2572 5.97363 21.8633L6.80566 15.5996L6.61816 15.1465V15.1455C6.56853 15.0257 6.47322 14.9305 6.35352 14.8808V14.8799L5.0459 14.3388C4.41919 14.0792 3.92105 13.5816 3.66113 12.9551C3.40127 12.3283 3.40092 11.6231 3.66016 10.9961L4.20215 9.68846C4.25151 9.56869 4.25075 9.43411 4.20117 9.31443L4.2002 9.31248L3.65918 8.00291L3.66016 8.00193C3.53188 7.69188 3.46493 7.35994 3.46484 7.02439C3.46479 6.68814 3.53148 6.35458 3.66016 6.04392C3.7888 5.73349 3.97722 5.45145 4.21484 5.21385C4.45264 4.97612 4.73521 4.78774 5.0459 4.65916L6.35352 4.11717L6.43848 4.07127C6.51792 4.01823 6.58072 3.94289 6.61816 3.85349L7.16016 2.5449C7.41992 1.91776 7.91876 1.41991 8.5459 1.16014ZM12.1875 17.2978C12.0678 17.2485 11.9331 17.2492 11.8135 17.2988L11.8125 17.2998L10.5029 17.8408C9.89182 18.0934 9.20836 18.0969 8.59375 17.8564L8.30859 20.0068L11.0557 18.3594C11.143 18.307 11.3863 18.1465 11.6709 18.084L11.835 18.0566C11.9446 18.0448 12.0554 18.0448 12.165 18.0566L12.3291 18.084L12.4336 18.1113C12.6721 18.1847 12.8679 18.3135 12.9443 18.3594L15.6904 20.0068L15.4053 17.8564C14.7903 18.0969 14.1065 18.093 13.4951 17.8398L12.1875 17.2978ZM9.71191 3.07224C9.59212 3.02274 9.45766 3.02267 9.33789 3.07224C9.21808 3.12187 9.12297 3.21711 9.07324 3.33689L8.53027 4.64646V4.64744C8.26987 5.27338 7.77102 5.76921 7.14453 6.0283L7.14551 6.02928L5.83789 6.57127H5.83691C5.77763 6.59585 5.72411 6.63234 5.67871 6.67771C5.63333 6.72308 5.59687 6.77665 5.57227 6.83592C5.5477 6.89522 5.53519 6.95923 5.53516 7.02342C5.53517 7.08764 5.54771 7.15158 5.57227 7.21092L5.57324 7.21287L6.11328 8.52049L6.19824 8.75877C6.34474 9.24164 6.34485 9.7571 6.19922 10.2402L6.11426 10.4795L5.57324 11.7871C5.52366 11.907 5.52354 12.0422 5.57324 12.1621C5.62298 12.2818 5.71812 12.3771 5.83789 12.4267L7.14648 12.9687H7.14746C7.77403 13.2289 8.27192 13.7276 8.53125 14.3545L9.07324 15.6631L9.11816 15.748C9.17155 15.8278 9.24795 15.8905 9.33789 15.9277C9.45765 15.9773 9.59211 15.9772 9.71191 15.9277L11.0195 15.3867C11.6463 15.1266 12.3514 15.1266 12.9785 15.3857H12.9795L14.2871 15.9277C14.4069 15.9773 14.5414 15.9772 14.6611 15.9277C14.781 15.8781 14.877 15.7829 14.9268 15.6631L15.4688 14.3535V14.3525C15.729 13.726 16.2275 13.228 16.8545 12.9687L18.1621 12.4277C18.2215 12.4031 18.2758 12.3667 18.3213 12.3213C18.3667 12.2758 18.4031 12.2215 18.4277 12.1621C18.4522 12.1029 18.4648 12.0396 18.4648 11.9756C18.4648 11.9114 18.4522 11.8474 18.4277 11.7881L18.4268 11.7871L17.8867 10.4804V10.4814C17.6252 9.85304 17.6262 9.14726 17.8857 8.52049L18.4277 7.21189C18.4773 7.0921 18.4773 6.95765 18.4277 6.83787C18.3781 6.71794 18.283 6.62193 18.1631 6.57224L16.8535 6.03025C16.2605 5.78398 15.7849 5.32318 15.5156 4.74314C15.499 4.71227 15.4834 4.68045 15.4697 4.64744L14.9277 3.33787C14.8781 3.2181 14.7828 3.12292 14.6631 3.07322C14.5432 3.02356 14.408 3.02357 14.2881 3.07322H14.2871L12.9775 3.61424L12.9766 3.61326C12.3505 3.87223 11.6477 3.87292 11.0215 3.61424H11.0205L9.71191 3.07224Z"/></svg>