<svg xmlns="http://www.w3.org/2000/svg" width="24" height="24" fill="none" viewBox="0 0 24 24"><path fill="currentColor" d="M18.4648 9.5C18.4648 5.92948 15.5705 3.03516 12 3.03516C8.42948 3.03516 5.53516 5.92948 5.53516 9.5C5.53516 13.0705 8.42948 15.9648 12 15.9648C15.5705 15.9648 18.4648 13.0705 18.4648 9.5ZM15.9648 17.0576C14.7799 17.6805 13.4316 18.0352 12 18.0352C10.5684 18.0352 9.22009 17.6805 8.03516 17.0576V20.4707L11.3184 19.1582C11.384 19.1319 11.5664 19.0523 11.7676 19.0215L11.8838 19.0078C11.9611 19.0019 12.0389 19.0019 12.1162 19.0078L12.2324 19.0215L12.3789 19.0518C12.5179 19.0884 12.6324 19.1385 12.6816 19.1582L15.9648 20.4707V17.0576ZM20.5352 9.5C20.5352 11.8569 19.5797 13.9906 18.0352 15.5352V22C18.0352 22.3434 17.8645 22.6649 17.5801 22.8574C17.2957 23.0498 16.934 23.0884 16.6152 22.9609L12 21.1143L7.38477 22.9609C7.066 23.0884 6.70427 23.0498 6.41992 22.8574C6.13553 22.6649 5.96484 22.3434 5.96484 22V15.5352C4.42031 13.9906 3.46484 11.8569 3.46484 9.5C3.46484 4.78625 7.28625 0.964844 12 0.964844C16.7137 0.964844 20.5352 4.78625 20.5352 9.5Z"/></svg>