<svg xmlns="http://www.w3.org/2000/svg" width="24" height="24" fill="none" viewBox="0 0 24 24"><path fill="currentColor" d="M7.17671 0.964845C7.36754 0.966369 7.58478 0.976494 7.79976 1.02734L7.92866 1.0625L8.12593 1.1377C8.25503 1.19462 8.37757 1.26533 8.49214 1.34766L8.65718 1.47949L8.75288 1.57227C8.96718 1.7956 9.11502 2.06349 9.23237 2.2627L12 6.96094L14.7675 2.2627C14.9016 2.03509 15.0752 1.71747 15.3427 1.47949C15.554 1.29161 15.8021 1.14918 16.0712 1.0625L16.2001 1.02734C16.4151 0.976471 16.6324 0.966375 16.8232 0.964845H19.2734C19.7013 0.964844 20.0938 0.96425 20.4091 0.993165C20.6813 1.01813 21.0257 1.07266 21.3486 1.25977L21.4853 1.34863L21.6513 1.48242C21.9685 1.76577 22.1895 2.14151 22.2822 2.55664L22.3173 2.76758L22.3281 2.92969C22.3339 3.30273 22.2144 3.6301 22.1035 3.87988C21.9749 4.16934 21.782 4.51208 21.5732 4.88574L18.1074 11.0869C20.2415 14.0327 19.9823 18.1739 17.3281 20.8281C14.3855 23.7707 9.61442 23.7707 6.67183 20.8281C4.01779 18.174 3.75793 14.0327 5.89155 11.0869L2.42671 4.88574C2.21792 4.51212 2.02603 4.16932 1.89741 3.87988C1.77061 3.5945 1.63195 3.20802 1.68257 2.76758L1.7187 2.55664C1.8268 2.0724 2.10897 1.64145 2.51558 1.34863L2.6523 1.25977C2.97492 1.07296 3.31877 1.01812 3.59077 0.993165C3.90619 0.964235 4.29944 0.964845 4.72749 0.964845H7.17671ZM15.8642 11.6357C13.73 9.50158 10.2699 9.50155 8.13569 11.6357C6.00155 13.77 6.00156 17.2301 8.13569 19.3643C10.2699 21.4985 13.73 21.4984 15.8642 19.3643C17.9984 17.23 17.9984 13.77 15.8642 11.6357ZM11.4257 12.1387C11.7433 11.9269 12.1517 11.9078 12.4882 12.0879C12.8248 12.268 13.0351 12.6183 13.0351 13V16.9648H13.25C13.8216 16.9648 14.2851 17.4284 14.2851 18C14.2851 18.5716 13.8216 19.0352 13.25 19.0352H10.75C10.1784 19.0351 9.7148 18.5716 9.7148 18C9.7148 17.4284 10.1784 16.9649 10.75 16.9648H10.9648V14.9229C10.5041 15.1556 9.93215 15.0145 9.63862 14.5742C9.32161 14.0986 9.4502 13.4558 9.92573 13.1387L11.4257 12.1387ZM16.7168 3.03809C16.6816 3.09138 16.6369 3.16886 16.5517 3.31348L13.6962 8.15918C14.731 8.39723 15.724 8.85641 16.6025 9.53613L19.7666 3.87598C19.9892 3.47764 20.1224 3.23429 20.2041 3.05371C20.0067 3.03688 19.7295 3.03516 19.2734 3.03516H17.038C16.8698 3.03516 16.7805 3.03485 16.7168 3.03809ZM4.72749 3.03516C4.27105 3.03516 3.99331 3.03686 3.79585 3.05371C3.87747 3.2343 4.01169 3.47758 4.23433 3.87598L7.39644 9.53516C8.27475 8.85552 9.26819 8.39634 10.3027 8.1582L7.44917 3.31348C7.36368 3.16836 7.31735 3.09141 7.28218 3.03809C7.21847 3.0349 7.12915 3.03516 6.96187 3.03516H4.72749Z"/></svg>