<svg xmlns="http://www.w3.org/2000/svg" width="24" height="24" fill="none" viewBox="0 0 24 24"><path fill="currentColor" d="M17.9648 9C17.9648 5.70562 15.2944 3.03516 12 3.03516C8.70562 3.03516 6.03516 5.70562 6.03516 9C6.03516 12.2944 8.70562 14.9648 12 14.9648C15.2944 14.9648 17.9648 12.2944 17.9648 9ZM15.208 16.3662C14.2251 16.7949 13.1408 17.0352 12 17.0352C10.8592 17.0352 9.77491 16.7949 8.79199 16.3662L8.30859 20.0068L11.0557 18.3594C11.143 18.307 11.3863 18.1465 11.6709 18.084L11.835 18.0566C11.9446 18.0448 12.0554 18.0448 12.165 18.0566L12.3291 18.084L12.4336 18.1113C12.672 18.1847 12.8679 18.3135 12.9443 18.3594L15.6904 20.0068L15.208 16.3662ZM20.0352 9C20.0352 11.4829 18.9081 13.7019 17.1387 15.1758L18.0264 21.8643C18.0785 22.258 17.9004 22.6471 17.5684 22.8652C17.2363 23.0833 16.8085 23.092 16.4678 22.8877L12 20.207L7.53223 22.8877C7.19148 23.092 6.76372 23.0834 6.43164 22.8652C6.09947 22.647 5.9213 22.2573 5.97363 21.8633L6.86133 15.1768C5.09163 13.7029 3.96484 11.4831 3.96484 9C3.96484 4.56239 7.56239 0.964844 12 0.964844C16.4376 0.964844 20.0352 4.56239 20.0352 9Z"/></svg>