<svg xmlns="http://www.w3.org/2000/svg" width="24" height="24" fill="none" viewBox="0 0 24 24"><path fill="currentColor" d="M18.9648 14.6328C18.4526 14.8406 17.9056 14.935 17.2969 14.9824C16.6114 15.0358 15.7639 15.0352 14.7139 15.0352H9.28613C8.23615 15.0352 7.38856 15.0358 6.70313 14.9824C6.0944 14.935 5.54738 14.8406 5.03516 14.6328V17.7998C5.03516 18.3769 5.03559 18.7477 5.0586 19.0293C5.08061 19.2988 5.11837 19.3948 5.14063 19.4385C5.23308 19.6197 5.38033 19.7669 5.56153 19.8594C5.60521 19.8816 5.70121 19.9194 5.97071 19.9414C6.25228 19.9644 6.62309 19.9648 7.2002 19.9648H16.7998C17.3769 19.9648 17.7477 19.9644 18.0293 19.9414C18.2988 19.9194 18.3948 19.8816 18.4385 19.8594C18.6197 19.7669 18.7669 19.6197 18.8594 19.4385C18.8816 19.3948 18.9194 19.2988 18.9414 19.0293C18.9644 18.7477 18.9648 18.3769 18.9648 17.7998V14.6328ZM15 8.96485C15.5716 8.96485 16.0352 9.42839 16.0352 10C16.0352 10.5716 15.5716 11.0352 15 11.0352H9C8.42839 11.0352 7.96485 10.5716 7.96485 10C7.96485 9.42839 8.42839 8.96485 9 8.96485H15ZM19.9648 7.71387C19.9648 6.89819 19.9639 6.34535 19.9307 5.91797C19.8983 5.50203 19.8401 5.29194 19.7705 5.14746C19.5774 4.74639 19.2536 4.42264 18.8525 4.22949C18.7081 4.15993 18.498 4.10174 18.082 4.06934C17.6547 4.03606 17.1018 4.03516 16.2861 4.03516H7.71387C6.89819 4.03516 6.34535 4.03606 5.91797 4.06934C5.50203 4.10174 5.29194 4.15993 5.14746 4.22949C4.74639 4.42264 4.42264 4.74639 4.22949 5.14746C4.15993 5.29194 4.10174 5.50203 4.06934 5.91797C4.03606 6.34535 4.03516 6.89819 4.03516 7.71387C4.03516 8.7963 4.0354 9.54931 4.08106 10.1357C4.12584 10.7109 4.21002 11.0388 4.3291 11.2861C4.62054 11.8913 5.10869 12.3795 5.71387 12.6709C5.96119 12.79 6.28912 12.8742 6.86426 12.9189C7.45069 12.9646 8.2037 12.9648 9.28613 12.9648H14.7139C15.7963 12.9648 16.5493 12.9646 17.1357 12.9189C17.7109 12.8742 18.0388 12.79 18.2861 12.6709C18.8913 12.3795 19.3795 11.8913 19.6709 11.2861C19.79 11.0388 19.8742 10.7109 19.9189 10.1357C19.9646 9.54931 19.9648 8.7963 19.9648 7.71387ZM22.0352 7.71387C22.0352 8.76386 22.0358 9.61145 21.9824 10.2969C21.9282 10.9934 21.8131 11.6095 21.5361 12.1846C21.3955 12.4767 21.2267 12.7519 21.0352 13.0088V17.7998C21.0352 18.3428 21.0354 18.8128 21.0039 19.1982C20.9714 19.5956 20.8998 19.9939 20.7041 20.3779C20.4131 20.9489 19.9489 21.4131 19.3779 21.7041C18.9939 21.8998 18.5956 21.9714 18.1982 22.0039C17.8128 22.0354 17.3428 22.0352 16.7998 22.0352H7.2002C6.65722 22.0352 6.18719 22.0354 5.80176 22.0039C5.40438 21.9714 5.00608 21.8998 4.62207 21.7041C4.05108 21.4131 3.58686 20.9489 3.2959 20.3779C3.10024 19.9939 3.02859 19.5956 2.9961 19.1982C2.9646 18.8128 2.96485 18.3428 2.96485 17.7998V13.0088C2.77328 12.7519 2.60454 12.4767 2.46387 12.1846C2.18691 11.6095 2.07184 10.9934 2.01758 10.2969C1.96421 9.61145 1.96485 8.76386 1.96485 7.71387C1.96485 6.93076 1.96392 6.28412 2.00488 5.75781C2.04675 5.22013 2.13676 4.72143 2.36426 4.24903C2.76086 3.42551 3.42551 2.76086 4.24903 2.36426C4.72143 2.13676 5.22013 2.04675 5.75781 2.00488C6.28412 1.96392 6.93076 1.96485 7.71387 1.96485H16.2861C17.0692 1.96485 17.7159 1.96392 18.2422 2.00488C18.7799 2.04675 19.2786 2.13676 19.751 2.36426C20.5745 2.76086 21.2391 3.42551 21.6357 4.24903C21.8632 4.72143 21.9533 5.22013 21.9951 5.75781C22.0361 6.28412 22.0352 6.93076 22.0352 7.71387Z"/></svg>