<svg xmlns="http://www.w3.org/2000/svg" width="24" height="24" fill="none" viewBox="0 0 24 24"><path fill="currentColor" d="M20.9648 8.2002C20.9648 7.62309 20.9644 7.25228 20.9414 6.9707C20.9194 6.7012 20.8816 6.60521 20.8594 6.56152C20.7669 6.38033 20.6197 6.23308 20.4385 6.14062C20.3948 6.11837 20.2988 6.08061 20.0293 6.05859C19.7477 6.03559 19.3769 6.03516 18.7998 6.03516H5.2002C4.62309 6.03516 4.25228 6.03559 3.9707 6.05859C3.7012 6.08061 3.60521 6.11837 3.56152 6.14062C3.38033 6.23308 3.23308 6.38033 3.14062 6.56152C3.11837 6.60521 3.08061 6.7012 3.05859 6.9707C3.03559 7.25228 3.03516 7.62309 3.03516 8.2002V15.7998C3.03516 16.3769 3.03559 16.7477 3.05859 17.0293C3.08061 17.2988 3.11837 17.3948 3.14062 17.4385C3.23308 17.6197 3.38033 17.7669 3.56152 17.8594C3.60521 17.8816 3.7012 17.9194 3.9707 17.9414C4.25228 17.9644 4.62309 17.9648 5.2002 17.9648H18.7998C19.3769 17.9648 19.7477 17.9644 20.0293 17.9414C20.2988 17.9194 20.3948 17.8816 20.4385 17.8594C20.6197 17.7669 20.7669 17.6197 20.8594 17.4385C20.8816 17.3948 20.9194 17.2988 20.9414 17.0293C20.9644 16.7477 20.9648 16.3769 20.9648 15.7998V8.2002ZM13.4648 12C13.4648 11.1909 12.8091 10.5352 12 10.5352C11.1909 10.5352 10.5352 11.1909 10.5352 12C10.5352 12.8091 11.1909 13.4648 12 13.4648C12.8091 13.4648 13.4648 12.8091 13.4648 12ZM4.96484 14V10C4.96484 9.42839 5.42839 8.96484 6 8.96484C6.57161 8.96484 7.03516 9.42839 7.03516 10V14C7.03516 14.5716 6.57161 15.0352 6 15.0352C5.42839 15.0352 4.96484 14.5716 4.96484 14ZM16.9648 14V10C16.9648 9.42839 17.4284 8.96484 18 8.96484C18.5716 8.96484 19.0352 9.42839 19.0352 10V14C19.0352 14.5716 18.5716 15.0352 18 15.0352C17.4284 15.0352 16.9648 14.5716 16.9648 14ZM15.5352 12C15.5352 13.9523 13.9523 15.5352 12 15.5352C10.0477 15.5352 8.46484 13.9523 8.46484 12C8.46484 10.0477 10.0477 8.46484 12 8.46484C13.9523 8.46484 15.5352 10.0477 15.5352 12ZM23.0352 15.7998C23.0352 16.3428 23.0354 16.8128 23.0039 17.1982C22.9714 17.5956 22.8998 17.9939 22.7041 18.3779C22.4131 18.9489 21.9489 19.4131 21.3779 19.7041C20.9939 19.8998 20.5956 19.9714 20.1982 20.0039C19.8128 20.0354 19.3428 20.0352 18.7998 20.0352H5.2002C4.65722 20.0352 4.18718 20.0354 3.80176 20.0039C3.40438 19.9714 3.00608 19.8998 2.62207 19.7041C2.05107 19.4131 1.58686 18.9489 1.2959 18.3779C1.10024 17.9939 1.02859 17.5956 0.996094 17.1982C0.964603 16.8128 0.964844 16.3428 0.964844 15.7998V8.2002C0.964844 7.65722 0.964603 7.18718 0.996094 6.80176C1.02859 6.40438 1.10024 6.00608 1.2959 5.62207C1.58686 5.05107 2.05107 4.58686 2.62207 4.2959C3.00608 4.10024 3.40438 4.02859 3.80176 3.99609C4.18718 3.9646 4.65722 3.96484 5.2002 3.96484H18.7998C19.3428 3.96484 19.8128 3.9646 20.1982 3.99609C20.5956 4.02859 20.9939 4.10024 21.3779 4.2959C21.9489 4.58686 22.4131 5.05107 22.7041 5.62207C22.8998 6.00608 22.9714 6.40438 23.0039 6.80176C23.0354 7.18718 23.0352 7.65722 23.0352 8.2002V15.7998Z"/></svg>