<svg xmlns="http://www.w3.org/2000/svg" width="24" height="24" fill="none" viewBox="0 0 24 24"><path fill="currentColor" d="M19.9648 18.5996C19.9648 18.3166 19.9633 18.1576 19.9551 18.0439C19.8415 18.0358 19.6825 18.0352 19.4004 18.0352H4.59961C4.31667 18.0352 4.15761 18.0358 4.04394 18.0439C4.03575 18.1576 4.03515 18.3167 4.03515 18.5996V19.4004C4.03515 19.6825 4.03582 19.8415 4.04394 19.9551C4.15762 19.9633 4.31661 19.9648 4.59961 19.9648H19.4004C19.6826 19.9648 19.8415 19.9632 19.9551 19.9551C19.9632 19.8415 19.9648 19.6826 19.9648 19.4004V18.5996ZM15.5352 15.9648H17.9648V10.0352H15.5352V15.9648ZM10.5352 15.9648H13.4648V10.0352H10.5352V15.9648ZM6.03515 15.9648H8.46484V10.0352H6.03515V15.9648ZM19.958 5.83594C19.871 5.81072 19.7476 5.78246 19.5225 5.73242L12.123 4.08789C12.09 4.08054 12.0641 4.07413 12.042 4.06934C12.0233 4.06528 12.0099 4.06252 12 4.06055C11.9901 4.06252 11.9767 4.06528 11.958 4.06934C11.9359 4.07413 11.91 4.08054 11.8769 4.08789L4.47753 5.73242C4.25157 5.78264 4.12808 5.81065 4.04101 5.83594C4.03528 5.92631 4.03515 6.05283 4.03515 6.2832V7.40039C4.03515 7.68251 4.03582 7.84147 4.04394 7.95508C4.15762 7.96327 4.31661 7.96484 4.59961 7.96484H19.4004C19.6826 7.96484 19.8415 7.96321 19.9551 7.95508C19.9632 7.84146 19.9648 7.68257 19.9648 7.40039V6.2832C19.9648 6.05277 19.9637 5.92631 19.958 5.83594ZM22.0352 7.40039C22.0352 7.66303 22.0354 7.92215 22.0176 8.14062C21.9987 8.37134 21.9546 8.6467 21.8135 8.92383C21.6184 9.30674 21.3067 9.61837 20.9238 9.81348C20.6467 9.95465 20.3713 9.99873 20.1406 10.0176C20.1065 10.0204 20.0712 10.0195 20.0352 10.0215V15.9775C20.0712 15.9795 20.1064 15.9796 20.1406 15.9824C20.3713 16.0013 20.6467 16.0454 20.9238 16.1865C21.2587 16.3572 21.5389 16.617 21.7344 16.9355L21.8135 17.0762L21.9023 17.2832C21.9753 17.4882 22.0034 17.6864 22.0176 17.8594C22.0354 18.0779 22.0352 18.337 22.0352 18.5996V19.4004C22.0352 19.663 22.0354 19.9221 22.0176 20.1406C21.9987 20.3713 21.9546 20.6467 21.8135 20.9238C21.6184 21.3067 21.3067 21.6184 20.9238 21.8135C20.6467 21.9547 20.3713 21.9987 20.1406 22.0176C19.9221 22.0354 19.663 22.0352 19.4004 22.0352H4.59961C4.33696 22.0352 4.07785 22.0354 3.85937 22.0176C3.62865 21.9987 3.3533 21.9547 3.07617 21.8135C2.69326 21.6184 2.38162 21.3067 2.18652 20.9238C2.04535 20.6467 2.00127 20.3713 1.98242 20.1406C1.9646 19.9221 1.96484 19.663 1.96484 19.4004V18.5996C1.96484 18.337 1.96459 18.0779 1.98242 17.8594C2.00127 17.6287 2.04534 17.3533 2.18652 17.0762L2.26562 16.9355C2.46113 16.617 2.74128 16.3572 3.07617 16.1865L3.2832 16.0977C3.48814 16.0247 3.68639 15.9966 3.85937 15.9824C3.89354 15.9796 3.92882 15.9795 3.96484 15.9775V10.0215C3.92884 10.0195 3.89353 10.0204 3.85937 10.0176C3.62865 9.99873 3.3533 9.95465 3.07617 9.81348C2.69326 9.61837 2.38162 9.30674 2.18652 8.92383C2.04535 8.6467 2.00127 8.37134 1.98242 8.14062C1.9646 7.92215 1.96484 7.66303 1.96484 7.40039V6.2832C1.96484 6.0694 1.96398 5.85359 1.97753 5.66895C1.99206 5.47117 2.02639 5.24 2.12988 4.99902L2.18847 4.87402C2.33514 4.58776 2.54851 4.34016 2.81054 4.15137L2.9707 4.04883C3.13069 3.958 3.2892 3.90024 3.43164 3.85742C3.60898 3.80414 3.81961 3.75732 4.02832 3.71094L11.4287 2.06641C11.5328 2.04326 11.6738 2.01009 11.8223 1.99707L12 1.98926L12.1777 1.99707L12.3916 2.02832C12.4582 2.04115 12.5193 2.05486 12.5713 2.06641L19.9717 3.71094C20.1804 3.75732 20.391 3.80414 20.5684 3.85742C20.7108 3.90024 20.8693 3.958 21.0293 4.04883L21.1894 4.15137L21.2988 4.23535C21.5111 4.41134 21.6858 4.6286 21.8115 4.87402L21.8701 4.99902L21.9355 5.17773C21.9895 5.35356 22.0116 5.52065 22.0225 5.66895C22.036 5.85359 22.0352 6.0694 22.0352 6.2832V7.40039Z"/></svg>