<svg xmlns="http://www.w3.org/2000/svg" width="24" height="24" fill="none" viewBox="0 0 24 24"><path fill="currentColor" d="M20.9648 16.4111V5.59277L20.9639 5.5918C20.444 5.3731 19.2723 5.03516 17 5.03516C15.1688 5.03516 13.5487 5.49111 11.9297 5.98926C10.3638 6.47106 8.69155 7.03516 7 7.03516C5.97033 7.03516 5.04968 6.9257 4.27247 6.77637C3.74421 6.67487 3.39362 6.60753 3.14161 6.57422C3.10867 6.56987 3.0793 6.56914 3.05372 6.56641C3.05274 6.57856 3.05074 6.59151 3.04981 6.60547C3.0356 6.81927 3.03516 7.11935 3.03516 7.58887V18.4072C3.55443 18.6259 4.72601 18.9648 7 18.9648C8.83123 18.9648 10.4513 18.5089 12.0703 18.0107C13.6362 17.5289 15.3085 16.9648 17 16.9648C18.0297 16.9648 18.9503 17.0743 19.7275 17.2236C20.2558 17.3251 20.6064 17.3925 20.8584 17.4258C20.8909 17.4301 20.92 17.4299 20.9453 17.4326C20.9463 17.4207 20.9493 17.4082 20.9502 17.3945C20.9644 17.1807 20.9648 16.8807 20.9648 16.4111ZM3.06543 18.4502C3.06648 18.4516 3.06739 18.4521 3.06739 18.4521C3.06725 18.452 3.06582 18.45 3.06348 18.4473L3.0625 18.4463C3.06362 18.4478 3.06462 18.4491 3.06543 18.4502ZM4.96485 15V11C4.96485 10.4284 5.42839 9.96484 6 9.96484C6.57162 9.96484 7.03516 10.4284 7.03516 11V15C7.03516 15.5716 6.57162 16.0352 6 16.0352C5.42839 16.0352 4.96485 15.5716 4.96485 15ZM13.4648 12C13.4648 11.1909 12.8091 10.5352 12 10.5352C11.1909 10.5352 10.5352 11.1909 10.5352 12C10.5352 12.8091 11.1909 13.4648 12 13.4648C12.8091 13.4648 13.4648 12.8091 13.4648 12ZM16.9648 13V9C16.9648 8.42839 17.4284 7.96484 18 7.96484C18.5716 7.96484 19.0352 8.42839 19.0352 9V13C19.0352 13.5716 18.5716 14.0352 18 14.0352C17.4284 14.0352 16.9649 13.5716 16.9648 13ZM20.9912 5.6377C20.9912 5.6377 20.9911 5.63631 20.9902 5.63477C20.9895 5.63342 20.9884 5.63183 20.9873 5.62988L20.9912 5.6377ZM15.5352 12C15.5352 13.9523 13.9523 15.5352 12 15.5352C10.0477 15.5352 8.46485 13.9523 8.46485 12C8.46485 10.0477 10.0477 8.46484 12 8.46484C13.9523 8.46484 15.5352 10.0477 15.5352 12ZM23.0352 16.4111C23.0352 16.8503 23.0355 17.2323 23.0156 17.5312C22.9976 17.8023 22.957 18.1879 22.7578 18.5293C22.6505 18.7131 22.5097 18.909 22.3027 19.0801C22.0956 19.2512 21.8766 19.3531 21.6758 19.4238C21.2883 19.5602 20.8661 19.5144 20.5869 19.4775C20.2603 19.4344 19.8384 19.3532 19.3369 19.2568C18.6726 19.1292 17.8834 19.0352 17 19.0352C15.6916 19.0352 14.3637 19.4711 12.6797 19.9893C11.0488 20.4911 9.16868 21.0352 7 21.0352C4.45116 21.0352 2.97578 20.6453 2.1504 20.2812C2.11256 20.2646 2.00465 20.2196 1.88575 20.1416C1.77199 20.0669 1.6768 19.9826 1.59473 19.9043C1.46596 19.7814 1.35926 19.6258 1.30274 19.5391C1.24624 19.4524 1.14653 19.2908 1.08594 19.123C0.962126 18.78 0.964849 18.5375 0.964849 18.3369V7.58887C0.964849 7.14965 0.96452 6.76771 0.98438 6.46875C1.00239 6.19771 1.04306 5.8121 1.24219 5.4707L1.33008 5.33105C1.4246 5.19053 1.5421 5.04818 1.69727 4.91992C1.9044 4.7488 2.12337 4.64686 2.32422 4.57617C2.71175 4.43981 3.13396 4.48556 3.41309 4.52246C3.73971 4.56564 4.16164 4.64681 4.66309 4.74316C5.32746 4.87082 6.11664 4.96484 7 4.96484C8.30839 4.96484 9.63632 4.5289 11.3203 4.01074C12.9512 3.50892 14.8313 2.96484 17 2.96484C19.5488 2.96484 21.0242 3.35468 21.8496 3.71875C21.8874 3.73544 21.9954 3.78042 22.1143 3.8584C22.228 3.93305 22.3232 4.01738 22.4053 4.0957C22.534 4.21865 22.6407 4.37425 22.6973 4.46094C22.7538 4.54761 22.8535 4.70921 22.9141 4.87695C23.0379 5.21997 23.0352 5.46252 23.0352 5.66309V16.4111Z"/></svg>