<svg xmlns="http://www.w3.org/2000/svg" width="24" height="24" fill="none" viewBox="0 0 24 24"><path fill="currentColor" d="M19.9648 12.5996C19.9648 12.3166 19.9633 12.1576 19.9551 12.0439C19.8415 12.0358 19.6825 12.0352 19.4004 12.0352H16.0352V19.9648H19.4004C19.6826 19.9648 19.8415 19.9632 19.9551 19.9551C19.9632 19.8415 19.9648 19.6826 19.9648 19.4004V12.5996ZM13.9648 4.59961C13.9648 4.31662 13.9633 4.15762 13.9551 4.04395C13.8415 4.03582 13.6825 4.03516 13.4004 4.03516H10.5996C10.3167 4.03516 10.1576 4.03576 10.0439 4.04395C10.0358 4.15762 10.0352 4.31668 10.0352 4.59961V19.9648H13.9648V4.59961ZM4.03516 19.4004C4.03516 19.6825 4.03582 19.8415 4.04395 19.9551C4.15762 19.9633 4.31662 19.9648 4.59961 19.9648H7.96484V8.03516H4.59961C4.31668 8.03516 4.15762 8.03576 4.04395 8.04395C4.03576 8.15762 4.03516 8.31668 4.03516 8.59961V19.4004ZM16.0352 9.96484H19.4004C19.663 9.96484 19.9221 9.9646 20.1406 9.98242C20.3713 10.0013 20.6467 10.0454 20.9238 10.1865C21.2587 10.3572 21.5389 10.617 21.7344 10.9355L21.8135 11.0762L21.9023 11.2832C21.9753 11.4881 22.0034 11.6864 22.0176 11.8594C22.0354 12.0779 22.0352 12.337 22.0352 12.5996V19.4004C22.0352 19.663 22.0354 19.9221 22.0176 20.1406C21.9987 20.3713 21.9546 20.6467 21.8135 20.9238C21.6184 21.3067 21.3067 21.6184 20.9238 21.8135C20.6467 21.9546 20.3713 21.9987 20.1406 22.0176C19.9221 22.0354 19.663 22.0352 19.4004 22.0352H4.59961C4.33696 22.0352 4.07785 22.0354 3.85938 22.0176C3.62866 21.9987 3.3533 21.9546 3.07617 21.8135C2.69326 21.6184 2.38163 21.3067 2.18652 20.9238C2.04535 20.6467 2.00127 20.3713 1.98242 20.1406C1.9646 19.9221 1.96484 19.663 1.96484 19.4004V8.59961C1.96484 8.33696 1.9646 8.07785 1.98242 7.85938C2.00127 7.62866 2.04535 7.3533 2.18652 7.07617L2.26563 6.93555C2.46114 6.61698 2.74128 6.35716 3.07617 6.18652L3.2832 6.09766C3.48814 6.02471 3.6864 5.99655 3.85938 5.98242C4.07785 5.9646 4.33697 5.96484 4.59961 5.96484H7.96484V4.59961C7.96484 4.33696 7.9646 4.07785 7.98242 3.85938C8.00127 3.62866 8.04535 3.3533 8.18652 3.07617L8.26562 2.93555C8.46114 2.61698 8.74128 2.35716 9.07617 2.18652L9.2832 2.09766C9.48814 2.02472 9.6864 1.99656 9.85938 1.98242C10.0779 1.9646 10.337 1.96484 10.5996 1.96484H13.4004C13.663 1.96484 13.9221 1.9646 14.1406 1.98242C14.3136 1.99656 14.5119 2.02472 14.7168 2.09766L14.9238 2.18652L15.0645 2.26563C15.3373 2.4331 15.5669 2.66266 15.7344 2.93555L15.8135 3.07617L15.9023 3.2832C15.9753 3.48815 16.0034 3.6864 16.0176 3.85938C16.0354 4.07785 16.0352 4.33697 16.0352 4.59961V9.96484Z"/></svg>