<svg xmlns="http://www.w3.org/2000/svg" width="24" height="24" fill="none" viewBox="0 0 24 24"><path fill="currentColor" d="M1.96484 17.7998V3C1.96484 2.42839 2.42839 1.96484 3 1.96484C3.57161 1.96484 4.03516 2.42839 4.03516 3V17.7998C4.03516 18.3769 4.03559 18.7477 4.05859 19.0293C4.08061 19.2988 4.11837 19.3948 4.14062 19.4385C4.23308 19.6197 4.38032 19.7669 4.56152 19.8594C4.60521 19.8816 4.7012 19.9194 4.9707 19.9414C5.25228 19.9644 5.62309 19.9648 6.2002 19.9648H21C21.5716 19.9648 22.0352 20.4284 22.0352 21C22.0352 21.5716 21.5716 22.0352 21 22.0352H6.2002C5.65722 22.0352 5.18718 22.0354 4.80176 22.0039C4.40438 21.9714 4.00608 21.8998 3.62207 21.7041C3.05108 21.4131 2.58686 20.9489 2.2959 20.3779C2.10024 19.9939 2.02859 19.5956 1.99609 19.1982C1.9646 18.8128 1.96484 18.3428 1.96484 17.7998ZM5.96484 17.5V10.5C5.96484 9.92839 6.42839 9.46484 7 9.46484C7.57161 9.46484 8.03516 9.92839 8.03516 10.5V17.5C8.03516 18.0716 7.57161 18.5352 7 18.5352C6.42839 18.5352 5.96484 18.0716 5.96484 17.5ZM10.4648 17.5V5.5C10.4648 4.92839 10.9284 4.46484 11.5 4.46484C12.0716 4.46484 12.5352 4.92839 12.5352 5.5V17.5C12.5352 18.0716 12.0716 18.5352 11.5 18.5352C10.9284 18.5352 10.4648 18.0716 10.4648 17.5ZM14.9648 17.5V10.5C14.9648 9.92839 15.4284 9.46484 16 9.46484C16.5716 9.46484 17.0352 9.92839 17.0352 10.5V17.5C17.0352 18.0716 16.5716 18.5352 16 18.5352C15.4284 18.5352 14.9648 18.0716 14.9648 17.5ZM19.4648 17.5V5.5C19.4648 4.92839 19.9284 4.46484 20.5 4.46484C21.0716 4.46484 21.5352 4.92839 21.5352 5.5V17.5C21.5352 18.0716 21.0716 18.5352 20.5 18.5352C19.9284 18.5352 19.4648 18.0716 19.4648 17.5Z"/></svg>