<svg xmlns="http://www.w3.org/2000/svg" width="24" height="24" fill="none" viewBox="0 0 24 24"><path fill="currentColor" d="M1.96484 21V11C1.96484 10.4284 2.42839 9.96484 3 9.96484C3.57161 9.96484 4.03516 10.4284 4.03516 11V21C4.03516 21.5716 3.57161 22.0352 3 22.0352C2.42839 22.0352 1.96484 21.5716 1.96484 21ZM7.96484 21V3C7.96484 2.42839 8.42839 1.96484 9 1.96484C9.57161 1.96484 10.0352 2.42839 10.0352 3V21C10.0352 21.5716 9.57161 22.0352 9 22.0352C8.42839 22.0352 7.96484 21.5716 7.96484 21ZM13.9648 21V11C13.9648 10.4284 14.4284 9.96484 15 9.96484C15.5716 9.96484 16.0352 10.4284 16.0352 11V21C16.0352 21.5716 15.5716 22.0352 15 22.0352C14.4284 22.0352 13.9648 21.5716 13.9648 21ZM19.9648 21V3C19.9648 2.42839 20.4284 1.96484 21 1.96484C21.5716 1.96484 22.0352 2.42839 22.0352 3V21C22.0352 21.5716 21.5716 22.0352 21 22.0352C20.4284 22.0352 19.9648 21.5716 19.9648 21Z"/></svg>