<svg xmlns="http://www.w3.org/2000/svg" width="24" height="24" fill="none" viewBox="0 0 24 24"><path fill="currentColor" d="M2.9649 20.0001V16.0001C2.9649 15.4284 3.42844 14.9649 4.00005 14.9649C4.57167 14.9649 5.03521 15.4284 5.03521 16.0001V20.0001C5.03521 20.5717 4.57167 21.0352 4.00005 21.0352C3.42844 21.0352 2.9649 20.5717 2.9649 20.0001ZM10.9649 20.0001V10.0001C10.9649 9.42844 11.4284 8.9649 12.0001 8.9649C12.5717 8.9649 13.0352 9.42844 13.0352 10.0001V20.0001C13.0352 20.5717 12.5717 21.0352 12.0001 21.0352C11.4284 21.0352 10.9649 20.5717 10.9649 20.0001ZM18.9649 20.0001V13.0001C18.9649 12.4284 19.4284 11.9649 20.0001 11.9649C20.5717 11.9649 21.0352 12.4284 21.0352 13.0001V20.0001C21.0352 20.5717 20.5717 21.0352 20.0001 21.0352C19.4284 21.0352 18.9649 20.5717 18.9649 20.0001ZM10.2071 2.70708C11.1971 1.7171 12.803 1.7171 13.793 2.70708C14.2477 3.16177 14.4904 3.74684 14.5274 4.34185L18.1963 5.71783C18.1999 5.71423 18.2035 5.71067 18.2071 5.70708C19.1971 4.7171 20.803 4.7171 21.793 5.70708C22.783 6.69706 22.783 8.30304 21.793 9.29302C20.803 10.283 19.1971 10.283 18.2071 9.29302C17.7521 8.83807 17.5085 8.25264 17.4717 7.65728L13.8028 6.2813C13.7992 6.2849 13.7966 6.28944 13.793 6.29302C12.9741 7.11197 11.7349 7.25087 10.7706 6.7149L6.46978 9.94048C6.65477 10.7606 6.43144 11.6546 5.79302 12.293C4.80304 13.283 3.19706 13.283 2.20708 12.293C1.2171 11.303 1.2171 9.69706 2.20708 8.70708C3.0257 7.88847 4.26435 7.74902 5.22857 8.28423L9.52935 5.05865C9.34482 4.23886 9.56896 3.34521 10.2071 2.70708ZM4.32915 10.171C4.14756 9.98936 3.85254 9.98936 3.67095 10.171C3.48936 10.3525 3.48936 10.6476 3.67095 10.8292C3.85254 11.0107 4.14756 11.0107 4.32915 10.8292C4.51075 10.6476 4.51075 10.3525 4.32915 10.171ZM20.3292 7.17095C20.1476 6.98936 19.8525 6.98936 19.671 7.17095C19.4894 7.35254 19.4894 7.64756 19.671 7.82915C19.8525 8.01075 20.1476 8.01075 20.3292 7.82915C20.5107 7.64756 20.5107 7.35254 20.3292 7.17095ZM12.3292 4.17095C12.1476 3.98936 11.8525 3.98936 11.671 4.17095C11.4894 4.35254 11.4894 4.64756 11.671 4.82915C11.8525 5.01075 12.1476 5.01075 12.3292 4.82915C12.5107 4.64756 12.5107 4.35254 12.3292 4.17095Z"/></svg>