<svg xmlns="http://www.w3.org/2000/svg" width="24" height="24" fill="none" viewBox="0 0 24 24"><path fill="currentColor" d="M1.96484 16.2002V12C1.96484 11.4284 2.42839 10.9648 3 10.9648C3.57161 10.9648 4.03516 11.4284 4.03516 12V16.2002C4.03516 17.0571 4.03565 17.6377 4.07227 18.0859C4.10791 18.5222 4.17227 18.7419 4.24902 18.8926C4.43737 19.2621 4.73794 19.5626 5.10742 19.751C5.25807 19.8277 5.47781 19.8921 5.91406 19.9277C6.36234 19.9643 6.94287 19.9648 7.7998 19.9648H16.2002C17.0571 19.9648 17.6377 19.9643 18.0859 19.9277C18.5222 19.8921 18.7419 19.8277 18.8926 19.751C19.2621 19.5626 19.5626 19.2621 19.751 18.8926C19.8277 18.7419 19.8921 18.5222 19.9277 18.0859C19.9643 17.6377 19.9648 17.0571 19.9648 16.2002V7.7998C19.9648 6.94287 19.9643 6.36234 19.9277 5.91406C19.8921 5.47781 19.8277 5.25806 19.751 5.10742C19.5626 4.73794 19.2621 4.43737 18.8926 4.24902C18.7419 4.17227 18.5222 4.10791 18.0859 4.07227C17.6377 4.03565 17.0571 4.03516 16.2002 4.03516H12C11.4284 4.03516 10.9648 3.57161 10.9648 3C10.9648 2.42839 11.4284 1.96484 12 1.96484H16.2002C17.0231 1.96484 17.7027 1.96465 18.2549 2.00977C18.8191 2.05588 19.341 2.15508 19.832 2.40527C20.591 2.79208 21.2079 3.409 21.5947 4.16797C21.8449 4.65899 21.9441 5.18095 21.9902 5.74512C22.0353 6.29725 22.0352 6.97689 22.0352 7.7998V16.2002C22.0352 17.0231 22.0353 17.7027 21.9902 18.2549C21.9441 18.8191 21.8449 19.341 21.5947 19.832C21.2079 20.591 20.591 21.2079 19.832 21.5947C19.341 21.8449 18.8191 21.9441 18.2549 21.9902C17.7027 22.0353 17.0231 22.0352 16.2002 22.0352H7.7998C6.97689 22.0352 6.29725 22.0353 5.74512 21.9902C5.18095 21.9441 4.65899 21.8449 4.16797 21.5947C3.409 21.2079 2.79208 20.591 2.40527 19.832C2.15509 19.341 2.05588 18.8191 2.00977 18.2549C1.96465 17.7027 1.96484 17.0231 1.96484 16.2002ZM6.96484 17V13C6.96484 12.4284 7.42839 11.9648 8 11.9648C8.57161 11.9648 9.03516 12.4284 9.03516 13V17C9.03516 17.5716 8.57161 18.0352 8 18.0352C7.42839 18.0352 6.96484 17.5716 6.96484 17ZM10.9648 17V7C10.9648 6.42839 11.4284 5.96484 12 5.96484C12.5716 5.96484 13.0352 6.42839 13.0352 7V17C13.0352 17.5716 12.5716 18.0352 12 18.0352C11.4284 18.0352 10.9648 17.5716 10.9648 17ZM14.9648 17V11C14.9648 10.4284 15.4284 9.96484 16 9.96484C16.5716 9.96484 17.0352 10.4284 17.0352 11V17C17.0352 17.5716 16.5716 18.0352 16 18.0352C15.4284 18.0352 14.9648 17.5716 14.9648 17ZM8 3.96484C8.57161 3.96484 9.03516 4.42839 9.03516 5C9.03516 5.57161 8.57161 6.03516 8 6.03516H2C1.42839 6.03516 0.964844 5.57161 0.964844 5C0.964844 4.42839 1.42839 3.96484 2 3.96484H8Z"/></svg>