<svg xmlns="http://www.w3.org/2000/svg" width="24" height="24" fill="none" viewBox="0 0 24 24"><path fill="currentColor" d="M1.96484 21V17C1.96484 16.4284 2.42839 15.9648 3 15.9648C3.57161 15.9648 4.03516 16.4284 4.03516 17V21C4.03516 21.5716 3.57161 22.0352 3 22.0352C2.42839 22.0352 1.96484 21.5716 1.96484 21ZM7.96484 21V13C7.96484 12.4284 8.42839 11.9648 9 11.9648C9.57161 11.9648 10.0352 12.4284 10.0352 13V21C10.0352 21.5716 9.57161 22.0352 9 22.0352C8.42839 22.0352 7.96484 21.5716 7.96484 21ZM13.9648 21V8C13.9648 7.42839 14.4284 6.96484 15 6.96484C15.5716 6.96484 16.0352 7.42839 16.0352 8V21C16.0352 21.5716 15.5716 22.0352 15 22.0352C14.4284 22.0352 13.9648 21.5716 13.9648 21ZM19.9648 21V3C19.9648 2.42839 20.4284 1.96484 21 1.96484C21.5716 1.96484 22.0352 2.42839 22.0352 3V21C22.0352 21.5716 21.5716 22.0352 21 22.0352C20.4284 22.0352 19.9648 21.5716 19.9648 21Z"/></svg>