<svg xmlns="http://www.w3.org/2000/svg" width="24" height="24" fill="none" viewBox="0 0 24 24"><path fill="currentColor" d="M19.9648 4.59961C19.9648 4.31662 19.9633 4.15762 19.9551 4.04395C19.8415 4.03582 19.6825 4.03516 19.4004 4.03516H16.5996C16.3167 4.03516 16.1576 4.03576 16.0439 4.04395C16.0358 4.15762 16.0352 4.31668 16.0352 4.59961V8C16.0352 8.03698 16.0321 8.0734 16.0283 8.10938C16.0328 8.26488 16.0352 8.43149 16.0352 8.59961V19.9648H19.4004C19.6826 19.9648 19.8415 19.9632 19.9551 19.9551C19.9632 19.8415 19.9648 19.6826 19.9648 19.4004V4.59961ZM4.03516 19.4004C4.03516 19.6825 4.03582 19.8415 4.04395 19.9551C4.15762 19.9633 4.31662 19.9648 4.59961 19.9648H7.96484V13.0352H4.59961C4.31668 13.0352 4.15762 13.0358 4.04395 13.0439C4.03576 13.1576 4.03516 13.3167 4.03516 13.5996V19.4004ZM10.0352 19.9648H13.9648V8.59961C13.9648 8.31662 13.9633 8.15762 13.9551 8.04395C13.8415 8.03582 13.6825 8.03516 13.4004 8.03516H10.5996C10.3167 8.03516 10.1576 8.03576 10.0439 8.04395C10.0358 8.15762 10.0352 8.31668 10.0352 8.59961V19.9648ZM22.0352 19.4004C22.0352 19.663 22.0354 19.9221 22.0176 20.1406C21.9987 20.3713 21.9546 20.6467 21.8135 20.9238C21.6184 21.3067 21.3067 21.6184 20.9238 21.8135C20.6467 21.9546 20.3713 21.9987 20.1406 22.0176C19.9221 22.0354 19.663 22.0352 19.4004 22.0352H4.59961C4.33696 22.0352 4.07785 22.0354 3.85938 22.0176C3.62866 21.9987 3.3533 21.9546 3.07617 21.8135C2.69326 21.6184 2.38163 21.3067 2.18652 20.9238C2.04535 20.6467 2.00127 20.3713 1.98242 20.1406C1.9646 19.9221 1.96484 19.663 1.96484 19.4004V13.5996C1.96484 13.337 1.9646 13.0779 1.98242 12.8594C2.00127 12.6287 2.04535 12.3533 2.18652 12.0762L2.26563 11.9355C2.46114 11.617 2.74128 11.3572 3.07617 11.1865L3.2832 11.0977C3.48814 11.0247 3.6864 10.9966 3.85938 10.9824C4.07785 10.9646 4.33696 10.9648 4.59961 10.9648H7.96484V8.59961C7.96484 8.33696 7.9646 8.07785 7.98242 7.85938C8.00127 7.62866 8.04535 7.3533 8.18652 7.07617L8.26562 6.93555C8.46114 6.61698 8.74128 6.35716 9.07617 6.18652L9.2832 6.09766C9.48814 6.02471 9.6864 5.99655 9.85938 5.98242C10.0779 5.9646 10.337 5.96484 10.5996 5.96484H13.4004C13.5956 5.96484 13.7888 5.96752 13.9648 5.97461V4.59961C13.9648 4.33696 13.9646 4.07785 13.9824 3.85938C14.0013 3.62866 14.0454 3.3533 14.1865 3.07617L14.2656 2.93555C14.4611 2.61698 14.7413 2.35716 15.0762 2.18652L15.2832 2.09766C15.4881 2.02471 15.6864 1.99656 15.8594 1.98242C16.0779 1.9646 16.337 1.96484 16.5996 1.96484H19.4004C19.663 1.96484 19.9221 1.9646 20.1406 1.98242C20.3136 1.99656 20.5119 2.02472 20.7168 2.09766L20.9238 2.18652L21.0645 2.26563C21.3373 2.4331 21.5669 2.66266 21.7344 2.93555L21.8135 3.07617L21.9023 3.2832C21.9753 3.48814 22.0034 3.6864 22.0176 3.85938C22.0354 4.07785 22.0352 4.33696 22.0352 4.59961V19.4004Z"/></svg>