<svg xmlns="http://www.w3.org/2000/svg" width="24" height="24" fill="none" viewBox="0 0 24 24"><g clip-path="url(#a)"><path fill="currentColor" d="M20.9648 12C20.9648 7.04877 16.9512 3.03516 12 3.03516C7.04877 3.03516 3.03516 7.04877 3.03516 12C3.03516 16.9512 7.04877 20.9648 12 20.9648C16.9512 20.9648 20.9648 16.9512 20.9648 12ZM6.96484 17V13C6.96484 12.4284 7.42839 11.9648 8 11.9648C8.57161 11.9648 9.03516 12.4284 9.03516 13V17C9.03516 17.5716 8.57161 18.0352 8 18.0352C7.42839 18.0352 6.96484 17.5716 6.96484 17ZM10.9648 17V7C10.9648 6.42839 11.4284 5.96484 12 5.96484C12.5716 5.96484 13.0352 6.42839 13.0352 7V17C13.0352 17.5716 12.5716 18.0352 12 18.0352C11.4284 18.0352 10.9648 17.5716 10.9648 17ZM14.9648 17V11C14.9648 10.4284 15.4284 9.96484 16 9.96484C16.5716 9.96484 17.0352 10.4284 17.0352 11V17C17.0352 17.5716 16.5716 18.0352 16 18.0352C15.4284 18.0352 14.9648 17.5716 14.9648 17ZM23.0352 12C23.0352 18.0945 18.0945 23.0352 12 23.0352C5.90554 23.0352 0.964844 18.0945 0.964844 12C0.964844 5.90554 5.90554 0.964844 12 0.964844C18.0945 0.964844 23.0352 5.90554 23.0352 12Z"/></g><defs><clipPath id="a"><path fill="#fff" d="M0 0H24V24H0z"/></clipPath></defs></svg>