<svg xmlns="http://www.w3.org/2000/svg" width="24" height="24" fill="none" viewBox="0 0 24 24"><path fill="currentColor" d="M1.96477 16.2002V12C1.96477 11.4284 2.42831 10.9648 2.99992 10.9648C3.57154 10.9648 4.03508 11.4284 4.03508 12V16.2002C4.03508 17.0571 4.03558 17.6377 4.07219 18.0859C4.10783 18.5222 4.17219 18.7419 4.24895 18.8926C4.43729 19.2621 4.73786 19.5626 5.10734 19.751C5.25799 19.8277 5.47773 19.8921 5.91398 19.9277C6.36226 19.9643 6.9428 19.9648 7.79973 19.9648H16.2001C17.057 19.9648 17.6376 19.9643 18.0859 19.9277C18.5221 19.8921 18.7419 19.8277 18.8925 19.751C19.262 19.5626 19.5626 19.2621 19.7509 18.8926C19.8277 18.7419 19.892 18.5222 19.9277 18.0859C19.9643 17.6377 19.9648 17.0571 19.9648 16.2002V7.7998C19.9648 6.94287 19.9643 6.36234 19.9277 5.91406C19.892 5.47781 19.8277 5.25807 19.7509 5.10742C19.5626 4.73794 19.262 4.43737 18.8925 4.24902C18.7419 4.17227 18.5221 4.10791 18.0859 4.07227C17.6376 4.03565 17.057 4.03516 16.2001 4.03516H11.9999C11.4283 4.03516 10.9648 3.57161 10.9648 3C10.9648 2.42839 11.4283 1.96484 11.9999 1.96484H16.2001C17.023 1.96484 17.7027 1.96465 18.2548 2.00977C18.819 2.05588 19.3409 2.15508 19.832 2.40527C20.5909 2.79208 21.2078 3.409 21.5946 4.16797C21.8448 4.65899 21.944 5.18095 21.9902 5.74512C22.0353 6.29725 22.0351 6.97689 22.0351 7.7998V16.2002C22.0351 17.0231 22.0353 17.7027 21.9902 18.2549C21.944 18.8191 21.8448 19.341 21.5946 19.832C21.2078 20.591 20.5909 21.2079 19.832 21.5947C19.3409 21.8449 18.819 21.9441 18.2548 21.9902C17.7027 22.0353 17.023 22.0352 16.2001 22.0352H7.79973C6.97681 22.0352 6.29717 22.0353 5.74504 21.9902C5.18087 21.9441 4.65891 21.8449 4.16789 21.5947C3.40893 21.2079 2.792 20.591 2.4052 19.832C2.15501 19.341 2.0558 18.8191 2.00969 18.2549C1.96458 17.7027 1.96477 17.0231 1.96477 16.2002ZM6.96477 17V13C6.96477 12.4284 7.42831 11.9648 7.99992 11.9648C8.57154 11.9648 9.03508 12.4284 9.03508 13V17C9.03508 17.5716 8.57154 18.0352 7.99992 18.0352C7.42831 18.0352 6.96477 17.5716 6.96477 17ZM10.9648 17V7C10.9648 6.42839 11.4283 5.96484 11.9999 5.96484C12.5715 5.96484 13.0351 6.42839 13.0351 7V17C13.0351 17.5716 12.5715 18.0352 11.9999 18.0352C11.4283 18.0352 10.9648 17.5716 10.9648 17ZM14.9648 17V11C14.9648 10.4284 15.4283 9.96484 15.9999 9.96484C16.5715 9.96484 17.0351 10.4284 17.0351 11V17C17.0351 17.5716 16.5715 18.0352 15.9999 18.0352C15.4283 18.0352 14.9648 17.5716 14.9648 17ZM3.96477 2C3.96477 1.42839 4.42831 0.964844 4.99992 0.964844C5.57154 0.964844 6.03508 1.42839 6.03508 2V5.50195L7.26848 4.26855C7.67267 3.86436 8.32717 3.86436 8.73137 4.26855C9.13556 4.67275 9.13556 5.32725 8.73137 5.73145L5.73137 8.73145C5.53727 8.92555 5.27442 9.03516 4.99992 9.03516C4.72542 9.03516 4.46258 8.92555 4.26848 8.73145L1.26848 5.73145C0.864284 5.32725 0.864284 4.67275 1.26848 4.26855C1.67267 3.86436 2.32717 3.86436 2.73137 4.26855L3.96477 5.50195V2Z"/></svg>