<svg xmlns="http://www.w3.org/2000/svg" width="24" height="24" fill="none" viewBox="0 0 24 24"><path fill="currentColor" d="M4.96484 20V4C4.96484 3.42839 5.42839 2.96484 6 2.96484C6.57161 2.96484 7.03516 3.42839 7.03516 4V20C7.03516 20.5716 6.57161 21.0352 6 21.0352C5.42839 21.0352 4.96484 20.5716 4.96484 20ZM10.9648 20V10C10.9648 9.42839 11.4284 8.96484 12 8.96484C12.5716 8.96484 13.0352 9.42839 13.0352 10V20C13.0352 20.5716 12.5716 21.0352 12 21.0352C11.4284 21.0352 10.9648 20.5716 10.9648 20ZM16.9648 20V16C16.9648 15.4284 17.4284 14.9648 18 14.9648C18.5716 14.9648 19.0352 15.4284 19.0352 16V20C19.0352 20.5716 18.5716 21.0352 18 21.0352C17.4284 21.0352 16.9648 20.5716 16.9648 20Z"/></svg>