<svg xmlns="http://www.w3.org/2000/svg" width="24" height="24" fill="none" viewBox="0 0 24 24"><path fill="currentColor" d="M17.9648 10.7998C17.9648 9.94287 17.9643 9.36234 17.9277 8.91406C17.8921 8.47781 17.8277 8.25807 17.751 8.10742C17.5626 7.73794 17.2621 7.43737 16.8926 7.24902C16.7419 7.17227 16.5222 7.10791 16.0859 7.07227C15.6377 7.03565 15.0571 7.03516 14.2002 7.03516H6.7998C5.94287 7.03516 5.36234 7.03565 4.91406 7.07227C4.47781 7.10791 4.25807 7.17227 4.10742 7.24902C3.73794 7.43737 3.43737 7.73794 3.24902 8.10742C3.17227 8.25807 3.10791 8.47781 3.07227 8.91406C3.03565 9.36234 3.03516 9.94287 3.03516 10.7998V13.2002C3.03516 14.0571 3.03565 14.6377 3.07227 15.0859C3.10791 15.5222 3.17227 15.7419 3.24902 15.8926C3.43737 16.2621 3.73794 16.5626 4.10742 16.751C4.25807 16.8277 4.47781 16.8921 4.91406 16.9277C5.36234 16.9643 5.94287 16.9648 6.7998 16.9648H14.2002C15.0571 16.9648 15.6377 16.9643 16.0859 16.9277C16.5222 16.8921 16.7419 16.8277 16.8926 16.751C17.2621 16.5626 17.5626 16.2621 17.751 15.8926C17.8277 15.7419 17.8921 15.5222 17.9277 15.0859C17.9643 14.6377 17.9648 14.0571 17.9648 13.2002V10.7998ZM5.46484 14V10C5.46484 9.42839 5.92839 8.96484 6.5 8.96484C7.07161 8.96484 7.53516 9.42839 7.53516 10V14C7.53516 14.5716 7.07161 15.0352 6.5 15.0352C5.92839 15.0352 5.46484 14.5716 5.46484 14ZM9.46484 14V10C9.46484 9.42839 9.92839 8.96484 10.5 8.96484C11.0716 8.96484 11.5352 9.42839 11.5352 10V14C11.5352 14.5716 11.0716 15.0352 10.5 15.0352C9.92839 15.0352 9.46484 14.5716 9.46484 14ZM13.4648 14V10C13.4648 9.42839 13.9284 8.96484 14.5 8.96484C15.0716 8.96484 15.5352 9.42839 15.5352 10V14C15.5352 14.5716 15.0716 15.0352 14.5 15.0352C13.9284 15.0352 13.4648 14.5716 13.4648 14ZM20.9648 13V11C20.9648 10.4284 21.4284 9.96484 22 9.96484C22.5716 9.96484 23.0352 10.4284 23.0352 11V13C23.0352 13.5716 22.5716 14.0352 22 14.0352C21.4284 14.0352 20.9648 13.5716 20.9648 13ZM20.0352 13.2002C20.0352 14.0231 20.0353 14.7027 19.9902 15.2549C19.9441 15.8191 19.8449 16.341 19.5947 16.832C19.2079 17.591 18.591 18.2079 17.832 18.5947C17.341 18.8449 16.8191 18.9441 16.2549 18.9902C15.7027 19.0353 15.0231 19.0352 14.2002 19.0352H6.7998C5.97689 19.0352 5.29725 19.0353 4.74512 18.9902C4.18095 18.9441 3.65899 18.8449 3.16797 18.5947C2.409 18.2079 1.79208 17.591 1.40527 16.832C1.15509 16.341 1.05588 15.8191 1.00977 15.2549C0.964654 14.7027 0.964844 14.0231 0.964844 13.2002V10.7998C0.964844 9.97689 0.964654 9.29725 1.00977 8.74512C1.05588 8.18095 1.15509 7.65899 1.40527 7.16797C1.79208 6.409 2.409 5.79208 3.16797 5.40527C3.65899 5.15509 4.18095 5.05588 4.74512 5.00977C5.29725 4.96465 5.97689 4.96484 6.7998 4.96484H14.2002C15.0231 4.96484 15.7027 4.96465 16.2549 5.00977C16.8191 5.05588 17.341 5.15509 17.832 5.40527C18.591 5.79208 19.2079 6.409 19.5947 7.16797C19.8449 7.65899 19.9441 8.18095 19.9902 8.74512C20.0353 9.29725 20.0352 9.97689 20.0352 10.7998V13.2002Z"/></svg>