<svg xmlns="http://www.w3.org/2000/svg" width="24" height="24" fill="none" viewBox="0 0 24 24"><path fill="currentColor" d="M0.964939 14.0001V10.7999C0.964938 9.97699 0.964749 9.29735 1.00986 8.74521C1.05597 8.18104 1.15518 7.65909 1.40537 7.16806C1.79217 6.4091 2.4091 5.79217 3.16806 5.40537C3.65909 5.15518 4.18104 5.05597 4.74521 5.00986C5.29735 4.96475 5.97699 4.96494 6.7999 4.96494H7.00009C7.57171 4.96494 8.03525 5.42848 8.03525 6.00009C8.03525 6.57171 7.57171 7.03525 7.00009 7.03525H6.7999C5.94297 7.03525 5.36243 7.03575 4.91416 7.07236C4.47791 7.108 4.25816 7.17236 4.10752 7.24912C3.73804 7.43746 3.43746 7.73804 3.24912 8.10752C3.17236 8.25816 3.108 8.47791 3.07236 8.91416C3.03575 9.36243 3.03525 9.94297 3.03525 10.7999V14.0001C3.03525 14.9967 3.04359 15.2922 3.10166 15.5089C3.28337 16.1869 3.81328 16.7168 4.49131 16.8985C4.70801 16.9566 5.00349 16.9649 6.00009 16.9649C6.57171 16.9649 7.03525 17.4285 7.03525 18.0001C7.03525 18.5717 6.57171 19.0353 6.00009 19.0353C5.13694 19.0353 4.50236 19.0438 3.95615 18.8976C2.5637 18.5245 1.47574 17.4365 1.10263 16.044C0.956352 15.4978 0.964939 14.8632 0.964939 14.0001ZM10.6388 5.42588C10.9558 4.95026 11.5987 4.82169 12.0743 5.13877C12.5499 5.45584 12.6785 6.0987 12.3614 6.57431L9.43466 10.9649H13.5001C13.8818 10.9649 14.2321 11.1753 14.4122 11.5118C14.5923 11.8484 14.5732 12.2567 14.3614 12.5743L10.3614 18.5743C10.0443 19.0499 9.40149 19.1785 8.92588 18.8614C8.45026 18.5443 8.32169 17.9015 8.63877 17.4259L11.5655 13.0353H7.50009C7.11843 13.0353 6.76811 12.8249 6.58799 12.4884C6.40788 12.1518 6.42704 11.7435 6.63877 11.4259L10.6388 5.42588ZM17.9649 13.2003V10.0001C17.9649 9.00349 17.9566 8.70801 17.8985 8.49131C17.7168 7.81328 17.1869 7.28337 16.5089 7.10166C16.2922 7.04359 15.9967 7.03525 15.0001 7.03525C14.4285 7.03525 13.9649 6.57171 13.9649 6.00009C13.9649 5.42848 14.4285 4.96494 15.0001 4.96494C15.8632 4.96494 16.4978 4.95635 17.044 5.10263C18.4365 5.47574 19.5245 6.5637 19.8976 7.95615C20.0438 8.50236 20.0353 9.13694 20.0353 10.0001V13.2003C20.0353 14.0232 20.0354 14.7028 19.9903 15.255C19.9442 15.8191 19.845 16.3411 19.5948 16.8321C19.208 17.5911 18.5911 18.208 17.8321 18.5948C17.3411 18.845 16.8191 18.9442 16.255 18.9903C15.7028 19.0354 15.0232 19.0353 14.2003 19.0353H14.0001C13.4285 19.0353 12.9649 18.5717 12.9649 18.0001C12.9649 17.4285 13.4285 16.9649 14.0001 16.9649H14.2003C15.0572 16.9649 15.6378 16.9644 16.086 16.9278C16.5223 16.8922 16.742 16.8278 16.8927 16.7511C17.2622 16.5627 17.5627 16.2622 17.7511 15.8927C17.8278 15.742 17.8922 15.5223 17.9278 15.086C17.9644 14.6378 17.9649 14.0572 17.9649 13.2003ZM20.9649 13.0001V11.0001C20.9649 10.4285 21.4285 9.96494 22.0001 9.96494C22.5717 9.96494 23.0353 10.4285 23.0353 11.0001V13.0001C23.0353 13.5717 22.5717 14.0353 22.0001 14.0353C21.4285 14.0353 20.9649 13.5717 20.9649 13.0001Z"/></svg>