<svg xmlns="http://www.w3.org/2000/svg" width="24" height="24" fill="none" viewBox="0 0 24 24"><path fill="currentColor" d="M20.5352 14.5C20.5352 19.2138 16.7137 23.0352 12 23.0352C7.28625 23.0352 3.46484 19.2138 3.46484 14.5C3.46484 10.8538 5.75119 7.74466 8.96484 6.52148V3.03516H8.5C7.92839 3.03516 7.46484 2.57161 7.46484 2C7.46484 1.42839 7.92839 0.964844 8.5 0.964844H15.5C16.0716 0.964844 16.5352 1.42839 16.5352 2C16.5352 2.57161 16.0716 3.03516 15.5 3.03516H15.0352V6.52148C18.2488 7.74466 20.5352 10.8538 20.5352 14.5ZM11.0283 6.98145C11.0211 7.09536 11.0032 7.26162 10.9336 7.44336C10.8419 7.68266 10.702 7.88235 10.5088 8.05078C10.3552 8.1847 10.1956 8.26092 10.0947 8.30469C9.99545 8.34775 9.87752 8.39068 9.77637 8.42773C7.2999 9.33496 5.53516 11.7125 5.53516 14.5C5.53516 18.0705 8.42948 20.9648 12 20.9648C15.5705 20.9648 18.4648 18.0705 18.4648 14.5C18.4648 11.7125 16.7001 9.33496 14.2236 8.42773C14.1225 8.39068 14.0046 8.34775 13.9053 8.30469C13.8044 8.26092 13.6448 8.1847 13.4912 8.05078C13.298 7.88235 13.1581 7.68266 13.0664 7.44336C12.9968 7.26162 12.9789 7.09536 12.9717 6.98145C12.965 6.87591 12.9648 6.75557 12.9648 6.66016V3.03516H11.0352V6.66016C11.0352 6.75557 11.035 6.87591 11.0283 6.98145Z"/></svg>