<svg xmlns="http://www.w3.org/2000/svg" width="24" height="24" fill="none" viewBox="0 0 24 24"><path fill="currentColor" d="M13.9647 7.03516H10.035V10.501C10.035 10.9958 10.043 11.4333 9.93054 11.8516C9.83825 12.1946 9.68669 12.519 9.4823 12.8096C9.23301 13.1638 8.89082 13.438 8.51062 13.7549L5.85926 15.9648H18.1405L15.4891 13.7549C15.1089 13.438 14.7668 13.1638 14.5175 12.8096C14.3131 12.519 14.1615 12.1946 14.0692 11.8516C13.9567 11.4333 13.9647 10.9958 13.9647 10.501V7.03516ZM5.49988 18.0352C4.98562 18.0352 4.87942 18.0402 4.8114 18.0537C4.42879 18.1299 4.1298 18.4289 4.05359 18.8115C4.04253 18.8671 4.03761 18.9483 4.03601 19.2568C4.03764 19.5865 4.04221 19.8302 4.05847 20.0293C4.07859 20.2755 4.11315 20.3759 4.13562 20.4248C4.1391 20.4319 4.14175 20.4393 4.14539 20.4463C4.2178 20.5849 4.32262 20.7024 4.45008 20.791C4.48933 20.8183 4.53085 20.8419 4.5741 20.8633C4.62258 20.8858 4.72233 20.9211 4.97058 20.9414C5.25216 20.9644 5.62297 20.9648 6.20008 20.9648H17.7997C18.3768 20.9648 18.7476 20.9644 19.0292 20.9414C19.2761 20.9212 19.3759 20.8858 19.4247 20.8633C19.468 20.842 19.5094 20.8183 19.5487 20.791C19.5551 20.7866 19.562 20.7829 19.5682 20.7783C19.6085 20.7489 19.6473 20.7178 19.6825 20.6826C19.7513 20.6138 19.8078 20.5335 19.8534 20.4463C19.857 20.4393 19.8597 20.4319 19.8632 20.4248C19.8856 20.376 19.9211 20.2762 19.9413 20.0293C19.9576 19.8302 19.9611 19.5865 19.9628 19.2568C19.9612 18.9483 19.9572 18.8671 19.9462 18.8115C19.87 18.4289 19.571 18.1299 19.1884 18.0537C19.1203 18.0402 19.0141 18.0352 18.4999 18.0352H5.49988ZM8.53504 4.96484H15.4647V3.03516H8.53504V4.96484ZM17.535 5.2002C17.535 5.32299 17.5353 5.47716 17.5243 5.61231C17.5123 5.75969 17.482 5.97356 17.368 6.19727C17.2209 6.486 16.9859 6.72102 16.6971 6.86817C16.4734 6.98215 16.2596 7.01237 16.1122 7.02442C16.0871 7.02646 16.0612 7.02603 16.035 7.02734V10.501C16.035 11.1071 16.0435 11.2213 16.0682 11.3135C16.0976 11.4225 16.1459 11.5258 16.2108 11.6182C16.2658 11.6963 16.3481 11.7755 16.8143 12.1641L20.5106 15.2451C20.8908 15.562 21.233 15.8362 21.4823 16.1904C21.6867 16.481 21.8383 16.8054 21.9305 17.1484C22.043 17.5667 22.035 18.0042 22.035 18.499V18.7998C22.035 18.9606 22.0328 19.1151 22.0321 19.2627C22.0323 19.3397 22.035 19.4188 22.035 19.5C22.035 19.9149 22.0397 20.2735 21.9764 20.5918C21.9271 20.8399 21.8452 21.0759 21.7401 21.2979C21.7279 21.3242 21.7174 21.3517 21.704 21.3779C21.6999 21.386 21.6945 21.3934 21.6903 21.4014C21.6668 21.4465 21.6417 21.4905 21.6161 21.5342C21.6023 21.5578 21.5885 21.5813 21.5741 21.6045C21.5441 21.6526 21.5119 21.6989 21.4794 21.7451C21.4686 21.7605 21.4592 21.7768 21.4481 21.792C21.4204 21.8298 21.3906 21.8659 21.3612 21.9023C21.225 22.0715 21.0713 22.2251 20.9022 22.3613C20.8658 22.3907 20.8297 22.4205 20.7919 22.4482C20.7767 22.4593 20.7604 22.4687 20.745 22.4795C20.6988 22.512 20.6524 22.5442 20.6044 22.5742C20.5812 22.5887 20.5576 22.6024 20.5341 22.6162C20.4904 22.6419 20.4463 22.6669 20.4012 22.6904C20.3932 22.6946 20.3859 22.7 20.3778 22.7041C20.3516 22.7175 20.3241 22.728 20.2977 22.7402C20.0758 22.8454 19.8398 22.9272 19.5917 22.9766C19.2734 23.0398 18.9148 23.0352 18.4999 23.0352H5.49988C5.08495 23.0352 4.7264 23.0398 4.40808 22.9766C4.15965 22.9271 3.92325 22.8455 3.70105 22.7402C3.67496 22.7281 3.64792 22.7173 3.62195 22.7041C3.61364 22.6999 3.6058 22.6947 3.59754 22.6904C3.55246 22.6669 3.50842 22.6419 3.46472 22.6162C3.44115 22.6024 3.41757 22.5887 3.39441 22.5742C3.34636 22.5442 3.29997 22.512 3.25379 22.4795C3.23843 22.4687 3.22205 22.4593 3.20691 22.4482C3.1691 22.4205 3.133 22.3907 3.09656 22.3613C2.92767 22.2252 2.77464 22.0713 2.63855 21.9023C2.60917 21.8659 2.57934 21.8298 2.55164 21.792C2.54055 21.7768 2.5312 21.7605 2.52039 21.7451C2.48786 21.6989 2.45563 21.6526 2.42566 21.6045C2.41122 21.5813 2.3975 21.5578 2.38367 21.5342C2.35803 21.4905 2.33294 21.4465 2.30945 21.4014C2.30528 21.3934 2.29988 21.386 2.29578 21.3779C2.28241 21.3517 2.27189 21.3242 2.25965 21.2979C2.15452 21.0759 2.07268 20.8399 2.02332 20.5918C1.96004 20.2735 1.96472 19.9149 1.96472 19.5C1.96472 19.4188 1.96749 19.3397 1.96765 19.2627C1.96694 19.1151 1.96472 18.9606 1.96472 18.7998V18.499C1.96472 18.0042 1.95672 17.5667 2.06922 17.1484C2.16151 16.8054 2.31307 16.481 2.51746 16.1904C2.76675 15.8362 3.10894 15.562 3.48914 15.2451L7.18543 12.1641C7.65169 11.7755 7.73397 11.6963 7.78894 11.6182C7.85389 11.5258 7.90219 11.4225 7.93152 11.3135C7.95625 11.2213 7.96472 11.1071 7.96472 10.501V7.02734C7.9386 7.02603 7.91271 7.02646 7.88758 7.02442C7.74019 7.01237 7.52632 6.98215 7.30261 6.86817C7.01388 6.72102 6.77886 6.486 6.63172 6.19727C6.51773 5.97356 6.48751 5.75969 6.47547 5.61231C6.46445 5.47716 6.46472 5.32299 6.46472 5.2002V2.79981C6.46472 2.67701 6.46445 2.52284 6.47547 2.3877C6.48751 2.24031 6.51773 2.02644 6.63172 1.80274L6.69129 1.69727C6.83875 1.45688 7.04996 1.2606 7.30261 1.13184L7.46765 1.06152C7.62899 1.00406 7.77697 0.984623 7.88758 0.975587C8.02272 0.964568 8.17689 0.964844 8.29968 0.964844H15.7001C15.8229 0.964844 15.977 0.964568 16.1122 0.975587C16.2228 0.984623 16.3708 1.00406 16.5321 1.06152L16.6971 1.13184L16.8026 1.19141C17.0087 1.31781 17.1821 1.4912 17.3085 1.69727L17.368 1.80274L17.4384 1.96777C17.4958 2.12911 17.5153 2.27709 17.5243 2.3877C17.5353 2.52284 17.535 2.67701 17.535 2.79981V5.2002Z"/></svg>