<svg xmlns="http://www.w3.org/2000/svg" width="24" height="24" fill="none" viewBox="0 0 24 24"><path fill="currentColor" d="M13.961 20.2236C14.3895 19.8456 15.0437 19.8869 15.4219 20.3154C15.8 20.744 15.7596 21.3982 15.3311 21.7764C14.4441 22.5592 13.2763 23.0352 12 23.0352C10.7238 23.0352 9.55595 22.5592 8.66899 21.7764C8.2405 21.3982 8.20012 20.744 8.57817 20.3154C8.95637 19.8869 9.61054 19.8456 10.0391 20.2236C10.5624 20.6855 11.2474 20.9648 12 20.9648C12.7527 20.9648 13.4377 20.6855 13.961 20.2236ZM2.2686 2.26855C2.67279 1.86436 3.3273 1.86436 3.73149 2.26855L6.96293 5.5C6.98153 5.51732 6.99945 5.53515 7.01665 5.55371L21.7315 20.2686C22.1357 20.6727 22.1357 21.3273 21.7315 21.7314C21.3273 22.1356 20.6728 22.1356 20.2686 21.7314L16.5723 18.0352H5.38872C4.80052 18.0352 4.32721 18.0348 3.98637 18.0215C3.81727 18.0149 3.64835 18.0045 3.49907 17.9824C3.40794 17.9689 3.10678 17.9268 2.84477 17.7324C2.73318 17.6496 2.54487 17.4987 2.40727 17.251C2.2696 17.003 2.24085 16.7633 2.22954 16.625C2.2124 16.4151 2.25851 16.2428 2.28227 16.1631C2.31095 16.0669 2.34749 15.9787 2.37993 15.9072C2.44495 15.764 2.53248 15.6032 2.62797 15.4375C2.82085 15.1028 3.10802 14.6415 3.47075 14.0586C4.2345 12.8312 4.96489 10.9065 4.96489 8C4.96489 7.51736 5.01499 7.03986 5.11137 6.57422L2.2686 3.73145C1.86441 3.32725 1.86441 2.67275 2.2686 2.26855ZM7.02641 8.48926C6.94848 11.5053 6.15696 13.6603 5.22856 15.1523C5.03132 15.4693 4.86438 15.7375 4.72563 15.9639C4.91758 15.9647 5.13741 15.9648 5.38872 15.9648H14.502L7.02641 8.48926ZM16.9649 8C16.9649 6.6832 16.4419 5.42038 15.5108 4.48926C14.5797 3.55814 13.3168 3.03516 12 3.03516C10.9996 3.03516 10.0303 3.33715 9.21391 3.89062C8.74078 4.2113 8.09715 4.08736 7.77641 3.61426C7.45579 3.14114 7.5797 2.49748 8.05278 2.17676C9.20935 1.3928 10.5826 0.964844 12 0.964844C13.8658 0.964844 15.6553 1.70607 16.9747 3.02539C18.294 4.34471 19.0352 6.1342 19.0352 8C19.0352 10.0113 19.2932 11.5623 19.6407 12.7393C19.8025 13.2875 19.4897 13.8636 18.9415 14.0254C18.3933 14.1871 17.8181 13.8734 17.6563 13.3252C17.2473 11.9398 16.9649 10.19 16.9649 8Z"/></svg>