<svg xmlns="http://www.w3.org/2000/svg" width="24" height="24" fill="none" viewBox="0 0 24 24"><path fill="currentColor" d="M16.9648 11.2002C16.9648 10.1474 16.4839 9.10192 15.5654 8.30566C14.6419 7.50531 13.3608 7.03516 12 7.03516C10.6393 7.03521 9.35897 7.50536 8.43555 8.30566C7.51685 9.10195 7.03515 10.1473 7.03515 11.2002C7.03512 13.662 6.422 15.5132 5.61914 16.8711C5.35987 17.3096 5.14795 17.6704 4.97851 17.9629C5.22484 17.9644 5.51605 17.9648 5.8584 17.9648H18.1416C18.4833 17.9648 18.7745 17.9644 19.0205 17.9629C18.8511 17.6705 18.6399 17.3093 18.3809 16.8711C17.5781 15.5132 16.9649 13.6619 16.9648 11.2002ZM10.332 20.0352C10.6787 20.5927 11.2952 20.9648 12 20.9648C12.705 20.9648 13.3222 20.5929 13.6689 20.0352H10.332ZM4.07031 3.90137C4.56815 3.62047 5.19957 3.79709 5.48047 4.29492C5.76113 4.79266 5.58552 5.42321 5.08789 5.7041C4.1523 6.23201 3.5715 7.23831 3.58203 8.3125C3.58768 8.88398 3.12905 9.3516 2.55762 9.35742C1.98603 9.36307 1.51737 8.90459 1.51172 8.33301C1.49371 6.50471 2.47796 4.79991 4.07031 3.90137ZM18.5195 4.29492C18.8004 3.79717 19.4319 3.62065 19.9297 3.90137C21.5221 4.79989 22.5063 6.50466 22.4883 8.33301C22.4826 8.90454 22.0149 9.36299 21.4434 9.35742C20.8718 9.35177 20.4133 8.88409 20.4189 8.3125C20.4295 7.23839 19.8486 6.23204 18.9131 5.7041C18.4154 5.42329 18.239 4.79268 18.5195 4.29492ZM13.4648 4.5C13.4648 3.6909 12.8091 3.03516 12 3.03516C11.191 3.03529 10.5352 3.69099 10.5352 4.5C10.5352 4.70652 10.5784 4.90221 10.6553 5.08008C11.0964 5.0041 11.5466 4.96486 12 4.96484C12.4533 4.96484 12.9037 5.00414 13.3447 5.08008C13.4216 4.90217 13.4648 4.70659 13.4648 4.5ZM15.5352 4.5C15.5352 4.92272 15.4596 5.32804 15.3232 5.7041C15.9014 5.97819 16.4406 6.32496 16.9209 6.74121C18.2524 7.89526 19.0352 9.49498 19.0352 11.2002C19.0352 13.3017 19.5539 14.7882 20.1631 15.8184C20.5615 16.4921 20.8727 17.0184 21.0811 17.3955C21.1843 17.5824 21.2762 17.7567 21.3428 17.9062C21.3757 17.9802 21.4127 18.0696 21.4414 18.165C21.4627 18.236 21.5153 18.423 21.4932 18.6494C21.4813 18.7709 21.4537 19.0167 21.3105 19.2676C21.1674 19.5184 20.9705 19.6673 20.8721 19.7393C20.708 19.8592 20.544 19.9101 20.4629 19.9326C20.3673 19.9591 20.2745 19.9751 20.1982 19.9854C20.0456 20.0058 19.868 20.0161 19.6846 20.0225C19.3145 20.0353 18.7951 20.0352 18.1416 20.0352H15.9004C15.4433 21.762 13.8706 23.0352 12 23.0352C10.1295 23.035 8.55666 21.7619 8.09961 20.0352H5.8584C5.20483 20.0352 4.68553 20.0353 4.31543 20.0225C4.13215 20.0161 3.95523 20.0058 3.80273 19.9854C3.72643 19.9751 3.63382 19.9591 3.53808 19.9326C3.45716 19.9102 3.29305 19.8592 3.1289 19.7393C3.03042 19.6672 2.83263 19.5185 2.68945 19.2676C2.54629 19.0166 2.51871 18.7709 2.50683 18.6494C2.4847 18.423 2.53826 18.236 2.55957 18.165C2.58825 18.0696 2.62525 17.9803 2.6582 17.9062C2.72479 17.7567 2.8157 17.5824 2.91894 17.3955C3.12731 17.0184 3.43937 16.4923 3.83789 15.8184C4.44705 14.7882 4.96481 13.3017 4.96484 11.2002C4.96484 9.49488 5.74846 7.89528 7.08008 6.74121C7.56002 6.32526 8.09813 5.9781 8.67578 5.7041C8.53955 5.32817 8.46484 4.92255 8.46484 4.5C8.46484 2.54776 10.0478 0.964978 12 0.964844C13.9523 0.964844 15.5352 2.54767 15.5352 4.5Z"/></svg>