<svg xmlns="http://www.w3.org/2000/svg" width="24" height="24" fill="none" viewBox="0 0 24 24"><path fill="currentColor" d="M2.22654 3.3125C2.6063 2.88527 3.26024 2.8468 3.68747 3.22656L7.99607 7.05566C8.02919 7.08044 8.06111 7.10744 8.09177 7.13672C8.10265 7.14711 8.11269 7.1582 8.12302 7.16895L20.5107 18.1807C20.5503 18.2112 20.5873 18.2445 20.622 18.2803L21.6875 19.2266C22.1147 19.6063 22.1532 20.2603 21.7734 20.6875C21.3937 21.1147 20.7397 21.1532 20.3125 20.7734L19.4824 20.0352H15.9004C15.4433 21.762 13.8705 23.0352 12 23.0352C10.1294 23.0352 8.55668 21.762 8.09958 20.0352H5.85837C5.20478 20.0352 4.68551 20.0353 4.3154 20.0225C4.13213 20.0161 3.95522 20.0057 3.80271 19.9854C3.72647 19.9751 3.63371 19.9591 3.53806 19.9326C3.45709 19.9102 3.29215 19.8594 3.1279 19.7393C3.02937 19.6672 2.83251 19.5183 2.68943 19.2676C2.54628 19.0166 2.51869 18.7709 2.50681 18.6494C2.48468 18.423 2.53823 18.236 2.55954 18.165C2.58819 18.0697 2.62429 17.9802 2.6572 17.9062C2.72379 17.7567 2.81568 17.5824 2.91892 17.3955C3.12725 17.0184 3.43849 16.4921 3.83689 15.8184C4.44605 14.7882 4.96479 13.3017 4.96482 11.2002C4.96482 10.0559 5.31834 8.95744 5.95408 8.00977L2.31247 4.77344C1.88524 4.39368 1.84678 3.73973 2.22654 3.3125ZM10.332 20.0352C10.6788 20.5927 11.2951 20.9648 12 20.9648C12.7049 20.9648 13.3212 20.5927 13.6679 20.0352H10.332ZM13.4648 4.5C13.4648 3.6909 12.8091 3.03516 12 3.03516C11.1909 3.03516 10.5351 3.6909 10.5351 4.5C10.5351 4.69963 10.5741 4.88794 10.6445 5.05859C10.6457 5.06158 10.6463 5.06467 10.6474 5.06738C10.6746 5.0656 10.7115 5.0633 10.7627 5.05762C10.8274 5.05043 10.9024 5.04071 11 5.02832C11.3294 4.9865 11.6635 4.96484 12 4.96484C12.1037 4.96484 12.2073 4.96765 12.3105 4.97168C12.3372 4.97272 12.3639 4.97427 12.3906 4.97559C12.4728 4.97963 12.5549 4.98464 12.6367 4.99121C12.6614 4.9932 12.6862 4.99485 12.7109 4.99707C12.9236 5.01617 13.1348 5.04316 13.3437 5.0791C13.4204 4.90134 13.4648 4.70638 13.4648 4.5ZM7.03513 11.2002C7.0351 13.6619 6.42195 15.5132 5.61911 16.8711C5.35987 17.3095 5.14792 17.6704 4.97849 17.9629C5.22477 17.9644 5.51612 17.9648 5.85837 17.9648H17.1523L7.52244 9.4043C7.20051 9.96728 7.03513 10.5819 7.03513 11.2002ZM15.5351 4.5C15.5351 4.92269 15.4595 5.32806 15.3232 5.7041C15.9013 5.97818 16.4406 6.32501 16.9209 6.74121C18.2523 7.89525 19.0351 9.49504 19.0351 11.2002C19.0351 11.5161 19.0434 11.8183 19.0595 12.1074C19.0914 12.6781 18.6547 13.1663 18.084 13.1982C17.5133 13.2301 17.025 12.7933 16.9931 12.2227C16.9748 11.8943 16.9648 11.5536 16.9648 11.2002C16.9648 10.1473 16.4832 9.10197 15.5644 8.30566C14.9147 7.74253 14.0885 7.34262 13.1816 7.15527C13.156 7.14998 13.1302 7.14557 13.1045 7.14062C12.8826 7.09795 12.6564 7.06746 12.4267 7.05078C12.4027 7.04903 12.3786 7.04735 12.3545 7.0459C12.237 7.03882 12.1188 7.03516 12 7.03516C11.7509 7.03516 11.5039 7.05116 11.2607 7.08203C10.9546 7.1209 10.5284 7.19212 10.0947 7.07422C9.90693 7.02317 9.73413 6.93678 9.60935 6.86426C9.48454 6.7917 9.32386 6.6839 9.1865 6.5459C9.07709 6.43598 8.97494 6.31701 8.88669 6.16992C8.80707 6.03722 8.756 5.90724 8.73142 5.84766C8.5595 5.43098 8.46482 4.97519 8.46482 4.5C8.46482 2.54767 10.0476 0.964844 12 0.964844C13.9523 0.964844 15.5351 2.54767 15.5351 4.5Z"/></svg>