<svg xmlns="http://www.w3.org/2000/svg" width="24" height="24" fill="none" viewBox="0 0 24 24"><path fill="currentColor" d="M9.04596 1.11203C10.9318 0.606726 12.8707 1.72622 13.376 3.61203C13.4854 4.02024 13.5178 4.43137 13.4835 4.8298C14.1125 4.94495 14.7226 5.14008 15.294 5.41769C16.8788 6.18777 18.0489 7.53036 18.4903 9.17745C19.0342 11.2074 19.9204 12.5089 20.7754 13.3464C21.3347 13.8942 21.7715 14.3222 22.0704 14.6325C22.2185 14.7863 22.3521 14.9311 22.4551 15.0583C22.5061 15.1213 22.5649 15.1982 22.6172 15.2829C22.6464 15.3302 22.7094 15.4356 22.7549 15.5798L22.793 15.737L22.8087 15.8493C22.824 15.9818 22.8313 16.1713 22.7764 16.3806C22.7032 16.6598 22.5513 16.8547 22.4747 16.9499C22.3471 17.1084 22.2014 17.2012 22.129 17.2439C22.0435 17.2941 21.9577 17.3334 21.8868 17.363C21.7448 17.4221 21.5767 17.4774 21.4014 17.531C21.0473 17.6392 20.5454 17.7739 19.9141 17.9431L16.7833 18.781C16.7891 20.5676 15.5992 22.205 13.7921 22.6892C11.9849 23.1732 10.1362 22.3498 9.24811 20.7995L8.04889 21.1218C7.41771 21.2909 6.91648 21.4251 6.55572 21.5085C6.37697 21.5498 6.20349 21.5864 6.05084 21.6062C5.97447 21.6161 5.88069 21.6246 5.78131 21.6237C5.69729 21.623 5.52563 21.6161 5.336 21.5427C5.22227 21.4986 4.99328 21.4061 4.7901 21.2009C4.58686 20.9955 4.49609 20.7653 4.45318 20.6511C4.3732 20.4381 4.37675 20.2437 4.37896 20.1696C4.38196 20.0701 4.39365 19.9742 4.40631 19.8943C4.43191 19.7327 4.47513 19.5407 4.52643 19.3337C4.63007 18.9155 4.79542 18.3261 5.00592 17.572C5.32769 16.4192 5.4434 14.849 4.89947 12.8191C4.4582 11.1719 4.80064 9.42389 5.78814 7.96456C6.14405 7.43864 6.5746 6.96463 7.06158 6.5505C6.83273 6.22273 6.65633 5.85013 6.54693 5.4421C6.04165 3.55636 7.16026 1.6174 9.04596 1.11203ZM11.4044 20.2224C11.8836 20.6716 12.5757 20.8717 13.2569 20.6892C13.9378 20.5066 14.4365 19.9875 14.627 19.3591L11.4044 20.2224ZM14.3897 7.27999C13.2906 6.74594 11.9317 6.62313 10.6172 6.97531C9.3029 7.32748 8.18787 8.11276 7.50299 9.12472C6.82158 10.1317 6.62695 11.2668 6.89947 12.2839C7.53656 14.6618 7.42319 16.6092 6.99908 18.1286C6.86218 18.6191 6.75108 19.0221 6.66314 19.3484C6.90147 19.2861 7.18307 19.2114 7.51373 19.1228L9.57428 18.57C9.57686 18.5693 9.5795 18.5688 9.58209 18.5681C9.58425 18.5675 9.58677 18.5667 9.58893 18.5661L19.379 15.9431C19.7089 15.8547 19.9894 15.7787 20.2266 15.7136C19.9874 15.475 19.6898 15.181 19.3262 14.8249C18.1993 13.7211 17.1284 12.0914 16.4913 9.71359C16.2188 8.6967 15.483 7.81139 14.3897 7.27999ZM2.38385 6.94894C2.79192 6.54886 3.44751 6.55473 3.84771 6.96261C4.24789 7.37078 4.24123 8.0263 3.83307 8.42648C3.06604 9.17856 2.76555 10.3008 3.05377 11.3357C3.20712 11.8861 2.88538 12.4565 2.33502 12.6101C1.78437 12.7635 1.21302 12.442 1.05963 11.8913C0.568995 10.1301 1.07849 8.22904 2.38385 6.94894ZM16.4424 3.58859C16.5849 3.03502 17.1496 2.70099 17.7032 2.84347C19.474 3.29924 20.8656 4.69182 21.3213 6.46261C21.4636 7.01601 21.1306 7.57985 20.5772 7.72238C20.0236 7.86486 19.4589 7.53181 19.3165 6.97824C19.0487 5.93795 18.2278 5.11624 17.1876 4.84835C16.6341 4.70591 16.3002 4.14203 16.4424 3.58859ZM11.376 4.14718C11.1665 3.36589 10.3635 2.90268 9.58209 3.11203C8.80056 3.32144 8.33655 4.12444 8.54596 4.90597C8.59932 5.1051 8.69165 5.28256 8.81158 5.43429C9.21797 5.24674 9.6432 5.09364 10.0811 4.97628C10.5188 4.859 10.9638 4.77882 11.4092 4.738C11.4373 4.54654 11.4294 4.34642 11.376 4.14718Z"/></svg>