<svg xmlns="http://www.w3.org/2000/svg" width="24" height="24" fill="none" viewBox="0 0 24 24"><path fill="currentColor" d="M16.9648 11.2002C16.9648 10.1473 16.4831 9.10195 15.5644 8.30566C14.641 7.50537 13.3607 7.03522 12 7.03516C10.6391 7.03516 9.35801 7.50531 8.43453 8.30566C7.516 9.10193 7.03512 10.1474 7.03512 11.2002C7.03508 13.6619 6.4219 15.5132 5.6191 16.8711C5.3599 17.3095 5.14789 17.6704 4.97848 17.9629C5.22458 17.9644 5.51548 17.9648 5.85738 17.9648H18.1416C18.4835 17.9648 18.7743 17.9644 19.0205 17.9629C18.8511 17.6705 18.64 17.3094 18.3808 16.8711C17.578 15.5132 16.9648 13.662 16.9648 11.2002ZM10.331 20.0352C10.6777 20.5929 11.2949 20.9648 12 20.9648C12.7048 20.9647 13.3212 20.5927 13.6679 20.0352H10.331ZM13.4648 4.5C13.4648 3.691 12.8089 3.03531 12 3.03516C11.1909 3.03516 10.5351 3.6909 10.5351 4.5C10.5351 4.70646 10.5775 4.90226 10.6543 5.08008C11.0956 5.00404 11.5463 4.96484 12 4.96484C12.453 4.96486 12.9029 5.00421 13.3437 5.08008C13.4206 4.90212 13.4648 4.70666 13.4648 4.5ZM15.5351 4.5C15.5351 4.92266 15.4595 5.32809 15.3232 5.7041C15.9011 5.97816 16.4397 6.32507 16.9199 6.74121C18.2515 7.89528 19.0351 9.49488 19.0351 11.2002C19.0351 13.3017 19.5529 14.7882 20.1621 15.8184C20.5606 16.4923 20.8727 17.0184 21.081 17.3955C21.1843 17.5824 21.2752 17.7567 21.3418 17.9062C21.3747 17.9803 21.4117 18.0696 21.4404 18.165C21.4617 18.236 21.5153 18.423 21.4931 18.6494C21.4812 18.7709 21.4537 19.0166 21.3105 19.2676C21.1673 19.5185 20.9695 19.6672 20.8711 19.7393C20.7069 19.8592 20.5428 19.9102 20.4619 19.9326C20.3661 19.9591 20.2735 19.9751 20.1972 19.9854C20.0447 20.0058 19.8678 20.0161 19.6845 20.0225C19.3144 20.0353 18.7951 20.0352 18.1416 20.0352H15.8994C15.4422 21.7618 13.8703 23.035 12 23.0352C10.1294 23.0352 8.55669 21.762 8.09957 20.0352H5.85738C5.2041 20.0352 4.6854 20.0353 4.31539 20.0225C4.13196 20.0161 3.95433 20.0058 3.80172 19.9854C3.72547 19.9751 3.63267 19.9591 3.53707 19.9326C3.45599 19.9101 3.29192 19.8592 3.12789 19.7393C3.02944 19.6673 2.83258 19.5184 2.68941 19.2676C2.54628 19.0167 2.51867 18.7709 2.5068 18.6494C2.48466 18.423 2.53724 18.236 2.55855 18.165C2.58722 18.0696 2.62424 17.9803 2.65719 17.9062C2.72378 17.7567 2.81567 17.5824 2.91891 17.3955C3.12725 17.0184 3.43848 16.4921 3.83687 15.8184C4.44604 14.7882 4.96477 13.3017 4.9648 11.2002C4.9648 9.49497 5.74758 7.89526 7.07906 6.74121C7.55914 6.32515 8.09792 5.97814 8.67574 5.7041C8.53947 5.32812 8.4648 4.92261 8.4648 4.5C8.4648 2.54767 10.0476 0.964844 12 0.964844C13.9522 0.964995 15.5351 2.54777 15.5351 4.5Z"/></svg>