<svg xmlns="http://www.w3.org/2000/svg" width="24" height="24" fill="none" viewBox="0 0 24 24"><path fill="currentColor" d="M14 19.9648C14.5716 19.9648 15.0352 20.4284 15.0352 21C15.0352 21.5716 14.5716 22.0352 14 22.0352H10C9.42852 22.035 8.96484 21.5715 8.96484 21C8.96484 20.4285 9.42852 19.965 10 19.9648H14ZM16.9648 8C16.9648 6.6832 16.4419 5.42038 15.5107 4.48926C14.5796 3.55823 13.3167 3.03516 12 3.03516C10.6833 3.03524 9.42031 3.55821 8.48926 4.48926C7.55823 5.42036 7.03516 6.68327 7.03516 8C7.03516 11.2739 6.20637 13.5809 5.22852 15.1523C5.03128 15.4693 4.86433 15.7375 4.72559 15.9639C4.91753 15.9647 5.13736 15.9648 5.38867 15.9648H18.6113C18.8626 15.9648 19.0825 15.9647 19.2744 15.9639C19.1357 15.7376 18.9687 15.4693 18.7715 15.1523C17.7937 13.5809 16.9648 11.2739 16.9648 8ZM3.81738 1.39844C4.31509 1.11761 4.94653 1.29347 5.22754 1.79102C5.50842 2.28882 5.33272 2.92024 4.83496 3.20117C3.89933 3.7291 3.31852 4.73533 3.3291 5.80957C3.33475 6.38105 2.87613 6.84867 2.30469 6.85449C1.7331 6.86014 1.26444 6.40166 1.25879 5.83008C1.24073 4.00176 2.22502 2.29702 3.81738 1.39844ZM18.7686 1.79102C19.0495 1.29336 19.681 1.11774 20.1787 1.39844C21.7712 2.29699 22.7554 4.00168 22.7373 5.83008C22.7317 6.40163 22.2639 6.86009 21.6924 6.85449C21.1208 6.84884 20.6623 6.38116 20.668 5.80957C20.6786 4.73542 20.0976 3.72913 19.1621 3.20117C18.6643 2.92027 18.4877 2.28885 18.7686 1.79102ZM19.0352 8C19.0352 10.9064 19.7656 12.8312 20.5293 14.0586C20.892 14.6416 21.1792 15.1028 21.3721 15.4375C21.4676 15.6032 21.5551 15.764 21.6201 15.9072C21.6526 15.9787 21.6891 16.0668 21.7178 16.1631C21.7415 16.2429 21.7877 16.4151 21.7705 16.625C21.7592 16.7634 21.7305 17.003 21.5928 17.251C21.4551 17.4988 21.2668 17.6496 21.1553 17.7324C20.8933 17.9268 20.5921 17.9689 20.501 17.9824C20.3518 18.0045 20.1827 18.0149 20.0137 18.0215C19.6728 18.0348 19.1994 18.0352 18.6113 18.0352H5.38867C4.80053 18.0352 4.32712 18.0348 3.98633 18.0215C3.81724 18.0149 3.64828 18.0045 3.49902 17.9824C3.40764 17.9689 3.10751 17.9266 2.8457 17.7324C2.73417 17.6497 2.54501 17.499 2.40723 17.251C2.26962 17.0031 2.24178 16.7633 2.23047 16.625C2.21332 16.4151 2.25847 16.2429 2.28223 16.1631C2.31089 16.0669 2.34745 15.9787 2.37988 15.9072C2.44495 15.7639 2.53335 15.6033 2.62891 15.4375C2.8218 15.1028 3.10893 14.6416 3.47168 14.0586C4.23539 12.8312 4.96484 10.9063 4.96484 8C4.96484 6.13427 5.70617 4.34469 7.02539 3.02539C8.34464 1.70614 10.1343 0.964923 12 0.964844C13.8657 0.964844 15.6553 1.70617 16.9746 3.02539C18.2939 4.34471 19.0352 6.1342 19.0352 8Z"/></svg>