<svg xmlns="http://www.w3.org/2000/svg" width="24" height="24" fill="none" viewBox="0 0 24 24"><path fill="currentColor" d="M13.9611 20.2236C14.3897 19.8457 15.0439 19.887 15.4221 20.3154C15.8 20.744 15.7587 21.3982 15.3303 21.7764C14.4434 22.5589 13.2761 23.0351 12.0002 23.0352C10.724 23.0352 9.55608 22.5591 8.66914 21.7764C8.24061 21.3981 8.20016 20.744 8.57832 20.3154C8.95655 19.8869 9.61069 19.8454 10.0393 20.2236C10.5626 20.6855 11.2475 20.9648 12.0002 20.9648C12.7528 20.9648 13.4379 20.6855 13.9611 20.2236ZM4.96504 8C4.96504 6.1342 5.70627 4.34471 7.02558 3.02539C8.34489 1.70614 10.1344 0.964844 12.0002 0.964844C12.3954 0.964856 12.7873 0.998463 13.1721 1.06348C13.7357 1.15875 14.116 1.69322 14.0207 2.25684C13.9252 2.82024 13.3908 3.19974 12.8273 3.10449C12.5558 3.05861 12.2793 3.03517 12.0002 3.03516C10.6834 3.03516 9.42056 3.55821 8.48945 4.48926C7.55833 5.42038 7.03535 6.6832 7.03535 8C7.03535 11.2739 6.20655 13.5809 5.22871 15.1523C5.03149 15.4693 4.86452 15.7375 4.72578 15.9639C4.91772 15.9647 5.13758 15.9648 5.38886 15.9648H18.6115C18.8624 15.9648 19.0819 15.9647 19.2736 15.9639C19.1349 15.7376 18.9688 15.4691 18.7717 15.1523C18.2215 14.2682 17.7149 13.1446 17.3791 11.7402C17.2465 11.1845 17.589 10.6261 18.1447 10.4932C18.7007 10.3602 19.2589 10.7038 19.3918 11.2598C19.6752 12.4448 20.0946 13.3612 20.5285 14.0586C20.8913 14.6416 21.1784 15.1028 21.3713 15.4375C21.4668 15.6033 21.5552 15.7639 21.6203 15.9072C21.6527 15.9787 21.6893 16.0669 21.718 16.1631C21.7417 16.2428 21.7869 16.4151 21.7697 16.625C21.7584 16.7633 21.7306 17.0031 21.593 17.251C21.4552 17.499 21.266 17.6497 21.1545 17.7324C20.8927 17.9266 20.5925 17.9689 20.5012 17.9824C20.3519 18.0045 20.183 18.0149 20.0139 18.0215C19.6731 18.0348 19.1997 18.0352 18.6115 18.0352H5.38886C4.80072 18.0352 4.32737 18.0348 3.98652 18.0215C3.8175 18.0149 3.64844 18.0045 3.49922 17.9824C3.40808 17.9689 3.10693 17.9268 2.84492 17.7324C2.73335 17.6496 2.54508 17.4988 2.40742 17.251C2.2697 17.003 2.241 16.7634 2.22969 16.625C2.21254 16.4151 2.25866 16.2428 2.28242 16.1631C2.3111 16.0668 2.34764 15.9787 2.38008 15.9072C2.44512 15.764 2.53261 15.6032 2.62812 15.4375C2.82101 15.1028 3.10815 14.6416 3.4709 14.0586C4.23465 12.8312 4.96504 10.9064 4.96504 8ZM16.965 8V6.03516H15.0002C14.4286 6.03516 13.965 5.57161 13.965 5C13.965 4.42839 14.4286 3.96484 15.0002 3.96484H16.965V2C16.965 1.42839 17.4286 0.964844 18.0002 0.964844C18.5717 0.964965 19.0353 1.42846 19.0353 2V3.96484H21.0002C21.5717 3.96497 22.0353 4.42846 22.0353 5C22.0353 5.57154 21.5717 6.03503 21.0002 6.03516H19.0353V8C19.0353 8.57154 18.5717 9.03503 18.0002 9.03516C17.4286 9.03516 16.965 8.57161 16.965 8Z"/></svg>