<svg xmlns="http://www.w3.org/2000/svg" width="24" height="24" fill="none" viewBox="0 0 24 24"><path fill="currentColor" d="M7.79111 1.11203C9.67692 0.606726 11.6159 1.72622 12.1212 3.61203C12.2305 4.02023 12.263 4.43137 12.2286 4.8298C12.8576 4.94495 13.4678 5.14007 14.0392 5.41769C15.624 6.18776 16.794 7.53036 17.2354 9.17745C17.7794 11.2074 18.6655 12.5089 19.5206 13.3464C20.0799 13.8942 20.5167 14.3222 20.8155 14.6325C20.9636 14.7863 21.0973 14.9311 21.2003 15.0583C21.2513 15.1213 21.31 15.1982 21.3624 15.2829C21.3916 15.3302 21.4545 15.4356 21.5001 15.5798L21.5382 15.737L21.5538 15.8493C21.5692 15.9819 21.5766 16.1721 21.5216 16.3816C21.4483 16.6605 21.2964 16.8548 21.2198 16.9499C21.0923 17.1084 20.9465 17.2012 20.8741 17.2439C20.7886 17.2941 20.7029 17.3334 20.6319 17.363C20.49 17.4221 20.3218 17.4774 20.1466 17.531C19.7924 17.6392 19.2906 17.7739 18.6593 17.9431L15.5284 18.781C15.5342 20.5676 14.3443 22.205 12.5372 22.6892C10.73 23.1732 8.88141 22.3499 7.99326 20.7995L6.79404 21.1218C6.16288 21.2909 5.66163 21.4251 5.30088 21.5085C5.12212 21.5498 4.94864 21.5864 4.796 21.6062C4.71962 21.6161 4.62584 21.6246 4.52646 21.6237C4.44243 21.623 4.27077 21.6161 4.08115 21.5427C3.96742 21.4986 3.73844 21.4061 3.53525 21.2009C3.33201 20.9955 3.24125 20.7653 3.19834 20.6511C3.11835 20.4381 3.12191 20.2437 3.12412 20.1696C3.12712 20.0701 3.1388 19.9742 3.15146 19.8943C3.17707 19.7327 3.22124 19.5408 3.27256 19.3337C3.3762 18.9155 3.54058 18.3261 3.75107 17.572C4.07285 16.4192 4.18855 14.849 3.64463 12.8191C3.20336 11.1719 3.5458 9.42389 4.5333 7.96456C4.8892 7.43864 5.31976 6.96463 5.80674 6.5505C5.57788 6.22273 5.40149 5.85013 5.29209 5.4421C4.7868 3.55635 5.9054 1.61739 7.79111 1.11203ZM10.1495 20.2224C10.6288 20.6716 11.3209 20.8717 12.0021 20.6892C12.6829 20.5066 13.1817 19.9875 13.3722 19.3591L10.1495 20.2224ZM13.1349 7.27999C12.0357 6.74594 10.6768 6.62312 9.3624 6.97531C8.04805 7.32749 6.93303 8.11276 6.24814 9.12472C5.56673 10.1317 5.37211 11.2668 5.64463 12.2839C6.28172 14.6618 6.16834 16.6092 5.74424 18.1286C5.60734 18.6191 5.49623 19.0221 5.4083 19.3484C5.64663 19.2861 5.92821 19.2114 6.25889 19.1228L18.1241 15.9431C18.454 15.8547 18.7346 15.7787 18.9718 15.7136C18.7325 15.475 18.435 15.181 18.0714 14.8249C16.9445 13.7211 15.8736 12.0914 15.2364 9.71359C14.9639 8.69669 14.2282 7.81139 13.1349 7.27999ZM10.1212 4.14718C9.91164 3.3659 9.10863 2.90269 8.32725 3.11203C7.54572 3.32144 7.0817 4.12444 7.29111 4.90597C7.34448 5.1051 7.4368 5.28256 7.55674 5.43429C7.96312 5.24674 8.38836 5.09364 8.82627 4.97628C9.26395 4.85901 9.70892 4.77882 10.1544 4.738C10.1824 4.54654 10.1746 4.34641 10.1212 4.14718Z"/></svg>