<svg xmlns="http://www.w3.org/2000/svg" width="24" height="24" fill="none" viewBox="0 0 24 24"><path fill="currentColor" d="M20.9648 18.5996C20.9648 18.3166 20.9633 18.1576 20.9551 18.0439C20.8415 18.0358 20.6825 18.0352 20.4004 18.0352H19.5996C19.3167 18.0352 19.1576 18.0358 19.0439 18.0439C19.0358 18.1576 19.0352 18.3167 19.0352 18.5996V19.4004C19.0352 19.6825 19.0358 19.8415 19.0439 19.9551C19.1576 19.9633 19.3166 19.9648 19.5996 19.9648H20.4004C20.6826 19.9648 20.8415 19.9632 20.9551 19.9551C20.9632 19.8415 20.9648 19.6826 20.9648 19.4004V18.5996ZM12.4004 8.03516H11.5996C11.5522 8.03516 11.5049 8.03424 11.458 8.03418L6.5293 16.6582C6.60504 16.7445 6.67393 16.8371 6.73438 16.9355L6.81348 17.0762L6.90234 17.2832C6.97529 17.4881 7.00345 17.6864 7.01758 17.8594C7.02037 17.8935 7.02051 17.9288 7.02246 17.9648H16.9775C16.9795 17.9288 16.9796 17.8935 16.9824 17.8594C17.0013 17.6287 17.0454 17.3533 17.1865 17.0762L17.2656 16.9355C17.326 16.8372 17.3942 16.7444 17.4697 16.6582L12.541 8.03418C12.4944 8.03424 12.4474 8.03516 12.4004 8.03516ZM3.03516 19.4004C3.03516 19.6825 3.03582 19.8415 3.04395 19.9551C3.15762 19.9633 3.31662 19.9648 3.59961 19.9648H4.40039C4.68258 19.9648 4.84147 19.9632 4.95508 19.9551C4.96321 19.8415 4.96484 19.6826 4.96484 19.4004V18.5996C4.96484 18.3166 4.96327 18.1576 4.95508 18.0439C4.84147 18.0358 4.68252 18.0352 4.40039 18.0352H3.59961C3.31668 18.0352 3.15762 18.0358 3.04395 18.0439C3.03576 18.1576 3.03516 18.3167 3.03516 18.5996V19.4004ZM12.9648 4.59961C12.9648 4.31662 12.9633 4.15762 12.9551 4.04395C12.8415 4.03582 12.6825 4.03516 12.4004 4.03516H11.5996C11.3167 4.03516 11.1576 4.03576 11.0439 4.04395C11.0358 4.15762 11.0352 4.31668 11.0352 4.59961V5.40039C11.0352 5.68252 11.0358 5.84147 11.0439 5.95508C11.1576 5.96327 11.3166 5.96484 11.5996 5.96484H12.4004C12.6826 5.96484 12.8415 5.96321 12.9551 5.95508C12.9632 5.84147 12.9648 5.68258 12.9648 5.40039V4.59961ZM15.0352 5.40039C15.0352 5.66304 15.0354 5.92215 15.0176 6.14062C14.9987 6.37134 14.9546 6.6467 14.8135 6.92383C14.7364 7.07517 14.64 7.2146 14.5293 7.34082L19.458 15.9648H20.4004C20.663 15.9648 20.9221 15.9646 21.1406 15.9824C21.3713 16.0013 21.6467 16.0454 21.9238 16.1865C22.2587 16.3572 22.5389 16.617 22.7344 16.9355L22.8135 17.0762L22.9023 17.2832C22.9753 17.4881 23.0034 17.6864 23.0176 17.8594C23.0354 18.0779 23.0352 18.337 23.0352 18.5996V19.4004C23.0352 19.663 23.0354 19.9221 23.0176 20.1406C22.9987 20.3713 22.9546 20.6467 22.8135 20.9238C22.6184 21.3067 22.3067 21.6184 21.9238 21.8135C21.6467 21.9546 21.3713 21.9987 21.1406 22.0176C20.9221 22.0354 20.663 22.0352 20.4004 22.0352H19.5996C19.337 22.0352 19.0779 22.0354 18.8594 22.0176C18.6287 21.9987 18.3533 21.9546 18.0762 21.8135C17.6933 21.6184 17.3816 21.3067 17.1865 20.9238C17.0454 20.6467 17.0013 20.3713 16.9824 20.1406C16.9796 20.1065 16.9795 20.0712 16.9775 20.0352H7.02246C7.02051 20.0712 7.02037 20.1065 7.01758 20.1406C6.99873 20.3713 6.95465 20.6467 6.81348 20.9238C6.61837 21.3067 6.30674 21.6184 5.92383 21.8135C5.6467 21.9546 5.37134 21.9987 5.14062 22.0176C4.92215 22.0354 4.66304 22.0352 4.40039 22.0352H3.59961C3.33696 22.0352 3.07785 22.0354 2.85938 22.0176C2.62866 21.9987 2.3533 21.9546 2.07617 21.8135C1.69326 21.6184 1.38163 21.3067 1.18652 20.9238C1.04535 20.6467 1.00127 20.3713 0.982422 20.1406C0.9646 19.9221 0.964843 19.663 0.964844 19.4004V18.5996C0.964843 18.337 0.9646 18.0779 0.982422 17.8594C1.00127 17.6287 1.04535 17.3533 1.18652 17.0762L1.26563 16.9355C1.46114 16.617 1.74128 16.3572 2.07617 16.1865L2.2832 16.0977C2.48814 16.0247 2.6864 15.9966 2.85938 15.9824C3.07785 15.9646 3.33696 15.9648 3.59961 15.9648H4.54102L9.46973 7.34082C9.35924 7.21473 9.26354 7.07497 9.18652 6.92383C9.04535 6.6467 9.00127 6.37134 8.98242 6.14062C8.9646 5.92215 8.96484 5.66304 8.96484 5.40039V4.59961C8.96484 4.33696 8.9646 4.07785 8.98242 3.85938C9.00127 3.62866 9.04535 3.3533 9.18652 3.07617L9.26562 2.93555C9.46114 2.61698 9.74128 2.35716 10.0762 2.18652L10.2832 2.09766C10.4881 2.02472 10.6864 1.99656 10.8594 1.98242C11.0779 1.9646 11.337 1.96484 11.5996 1.96484H12.4004C12.663 1.96484 12.9221 1.9646 13.1406 1.98242C13.3136 1.99656 13.5119 2.02472 13.7168 2.09766L13.9238 2.18652L14.0645 2.26563C14.3373 2.4331 14.5669 2.66266 14.7344 2.93555L14.8135 3.07617L14.9023 3.2832C14.9753 3.48814 15.0034 3.6864 15.0176 3.85938C15.0354 4.07785 15.0352 4.33696 15.0352 4.59961V5.40039Z"/></svg>