<svg xmlns="http://www.w3.org/2000/svg" width="24" height="24" fill="none" viewBox="0 0 24 24"><path fill="currentColor" d="M4.96484 16.5996C4.96484 16.3166 4.96327 16.1576 4.95508 16.0439C4.84147 16.0358 4.68252 16.0352 4.40039 16.0352H3.59961C3.31668 16.0352 3.15762 16.0358 3.04395 16.0439C3.03576 16.1576 3.03516 16.3167 3.03516 16.5996V17.4004C3.03516 17.6825 3.03582 17.8415 3.04395 17.9551C3.15762 17.9633 3.31662 17.9648 3.59961 17.9648H4.40039C4.68258 17.9648 4.84147 17.9632 4.95508 17.9551C4.96321 17.8415 4.96484 17.6826 4.96484 17.4004V16.5996ZM20.9648 16.5996C20.9648 16.3166 20.9633 16.1576 20.9551 16.0439C20.8415 16.0358 20.6825 16.0352 20.4004 16.0352H19.5996C19.3167 16.0352 19.1576 16.0358 19.0439 16.0439C19.0358 16.1576 19.0352 16.3167 19.0352 16.5996V17.4004C19.0352 17.6825 19.0358 17.8415 19.0439 17.9551C19.1576 17.9633 19.3166 17.9648 19.5996 17.9648H20.4004C20.6826 17.9648 20.8415 17.9632 20.9551 17.9551C20.9632 17.8415 20.9648 17.6826 20.9648 17.4004V16.5996ZM11.5996 6.03516C11.3167 6.03516 11.1576 6.03576 11.0439 6.04395C11.0358 6.15762 11.0352 6.31668 11.0352 6.59961V7.40039C11.0352 7.68252 11.0358 7.84147 11.0439 7.95508C11.1576 7.96327 11.3166 7.96484 11.5996 7.96484H12.4004C12.6826 7.96484 12.8415 7.96321 12.9551 7.95508C12.9632 7.84147 12.9648 7.68258 12.9648 7.40039V6.59961C12.9648 6.31662 12.9633 6.15762 12.9551 6.04395C12.8415 6.03582 12.6825 6.03516 12.4004 6.03516H11.5996ZM23.0352 17.4004C23.0352 17.663 23.0354 17.9221 23.0176 18.1406C22.9987 18.3713 22.9546 18.6467 22.8135 18.9238C22.6184 19.3067 22.3067 19.6184 21.9238 19.8135C21.6467 19.9546 21.3713 19.9987 21.1406 20.0176C20.9221 20.0354 20.663 20.0352 20.4004 20.0352H19.5996C19.337 20.0352 19.0779 20.0354 18.8594 20.0176C18.6287 19.9987 18.3533 19.9546 18.0762 19.8135C17.6933 19.6184 17.3816 19.3067 17.1865 18.9238C17.0454 18.6467 17.0013 18.3713 16.9824 18.1406C16.9646 17.9221 16.9648 17.663 16.9648 17.4004V16.5996C16.9648 16.337 16.9646 16.0779 16.9824 15.8594C17.0013 15.6287 17.0454 15.3533 17.1865 15.0762L17.2656 14.9355C17.4611 14.617 17.7413 14.3572 18.0762 14.1865L18.2832 14.0977C18.4881 14.0247 18.6864 13.9966 18.8594 13.9824C18.8691 13.9816 18.8788 13.9812 18.8887 13.9805C18.542 11.6179 17.0108 9.64002 14.915 8.67285C14.888 8.75527 14.8563 8.83982 14.8135 8.92383C14.6184 9.30674 14.3067 9.61837 13.9238 9.81348C13.6467 9.95465 13.3713 9.99873 13.1406 10.0176C12.9221 10.0354 12.663 10.0352 12.4004 10.0352H11.5996C11.337 10.0352 11.0779 10.0354 10.8594 10.0176C10.6287 9.99873 10.3533 9.95465 10.0762 9.81348C9.69326 9.61837 9.38163 9.30674 9.18652 8.92383C9.14368 8.83972 9.11102 8.75536 9.08398 8.67285C6.98864 9.64018 5.45697 11.6181 5.11035 13.9805C5.12052 13.9812 5.13063 13.9816 5.14062 13.9824C5.37134 14.0013 5.6467 14.0454 5.92383 14.1865C6.25872 14.3572 6.53886 14.617 6.73438 14.9355L6.81348 15.0762L6.90234 15.2832C6.97529 15.4881 7.00345 15.6864 7.01758 15.8594C7.0354 16.0779 7.03516 16.337 7.03516 16.5996V17.4004C7.03516 17.663 7.0354 17.9221 7.01758 18.1406C6.99873 18.3713 6.95465 18.6467 6.81348 18.9238C6.61837 19.3067 6.30674 19.6184 5.92383 19.8135C5.6467 19.9546 5.37134 19.9987 5.14062 20.0176C4.92215 20.0354 4.66304 20.0352 4.40039 20.0352H3.59961C3.33696 20.0352 3.07785 20.0354 2.85938 20.0176C2.62866 19.9987 2.3533 19.9546 2.07617 19.8135C1.69326 19.6184 1.38163 19.3067 1.18652 18.9238C1.04535 18.6467 1.00127 18.3713 0.982422 18.1406C0.9646 17.9221 0.964843 17.663 0.964844 17.4004V16.5996C0.964843 16.337 0.9646 16.0779 0.982422 15.8594C1.00127 15.6287 1.04535 15.3533 1.18652 15.0762L1.26563 14.9355C1.46114 14.617 1.74128 14.3572 2.07617 14.1865L2.2832 14.0977C2.48814 14.0247 2.6864 13.9966 2.85938 13.9824C2.91186 13.9781 2.96677 13.977 3.02344 13.9746C3.29284 11.5893 4.49091 9.48717 6.24707 8.03516H4.74902C4.39452 8.63284 3.74531 9.03516 3 9.03516C1.94633 9.03516 1.07978 8.23419 0.975586 7.20801L0.964844 7L0.975586 6.79199C1.07978 5.76581 1.94633 4.96484 3 4.96484L3.20801 4.97559C3.86548 5.04234 4.42792 5.42347 4.74902 5.96484H8.97754C8.97949 5.92882 8.97963 5.89355 8.98242 5.85938C9.00127 5.62866 9.04535 5.3533 9.18652 5.07617L9.26562 4.93555C9.46114 4.61698 9.74128 4.35716 10.0762 4.18652L10.2832 4.09766C10.4881 4.02472 10.6864 3.99656 10.8594 3.98242C11.0779 3.9646 11.337 3.96484 11.5996 3.96484H12.4004C12.663 3.96484 12.9221 3.9646 13.1406 3.98242C13.3136 3.99656 13.5119 4.02472 13.7168 4.09766L13.9238 4.18652L14.0645 4.26563C14.3373 4.4331 14.5669 4.66266 14.7344 4.93555L14.8135 5.07617L14.9023 5.2832C14.9753 5.48814 15.0034 5.6864 15.0176 5.85938C15.0204 5.89355 15.0205 5.92882 15.0225 5.96484H19.251C19.6055 5.36716 20.2547 4.96484 21 4.96484L21.208 4.97559C22.2342 5.07978 23.0352 5.94633 23.0352 7C23.0352 8.1239 22.1239 9.03516 21 9.03516C20.2547 9.03516 19.6055 8.63284 19.251 8.03516H17.7529C19.5091 9.48715 20.7062 11.5894 20.9756 13.9746C21.0326 13.977 21.0878 13.9781 21.1406 13.9824C21.3713 14.0013 21.6467 14.0454 21.9238 14.1865C22.2587 14.3572 22.5389 14.617 22.7344 14.9355L22.8135 15.0762L22.9023 15.2832C22.9753 15.4881 23.0034 15.6864 23.0176 15.8594C23.0354 16.0779 23.0352 16.337 23.0352 16.5996V17.4004Z"/></svg>