<svg xmlns="http://www.w3.org/2000/svg" width="24" height="24" fill="none" viewBox="0 0 24 24"><g clip-path="url(#a)"><path fill="currentColor" d="M4.96484 11.5996C4.96484 11.3166 4.96327 11.1576 4.95508 11.0439C4.84147 11.0358 4.68252 11.0352 4.40039 11.0352H3.59961C3.31668 11.0352 3.15762 11.0358 3.04395 11.0439C3.03576 11.1576 3.03516 11.3167 3.03516 11.5996V12.4004C3.03516 12.6825 3.03582 12.8415 3.04395 12.9551C3.15762 12.9633 3.31662 12.9648 3.59961 12.9648H4.40039C4.68258 12.9648 4.84147 12.9632 4.95508 12.9551C4.96321 12.8415 4.96484 12.6826 4.96484 12.4004V11.5996ZM11.5996 19.0352C11.3167 19.0352 11.1576 19.0358 11.0439 19.0439C11.0358 19.1576 11.0352 19.3167 11.0352 19.5996V20.4004C11.0352 20.6825 11.0358 20.8415 11.0439 20.9551C11.1576 20.9633 11.3166 20.9648 11.5996 20.9648H12.4004C12.6826 20.9648 12.8415 20.9632 12.9551 20.9551C12.9632 20.8415 12.9648 20.6826 12.9648 20.4004V19.5996C12.9648 19.3166 12.9633 19.1576 12.9551 19.0439C12.8415 19.0358 12.6825 19.0352 12.4004 19.0352H11.5996ZM11.5996 3.03516C11.3167 3.03516 11.1576 3.03576 11.0439 3.04395C11.0358 3.15762 11.0352 3.31668 11.0352 3.59961V4.40039C11.0352 4.68252 11.0358 4.84147 11.0439 4.95508C11.1576 4.96327 11.3166 4.96484 11.5996 4.96484H12.4004C12.6826 4.96484 12.8415 4.96321 12.9551 4.95508C12.9632 4.84147 12.9648 4.68258 12.9648 4.40039V3.59961C12.9648 3.31662 12.9633 3.15762 12.9551 3.04395C12.8415 3.03582 12.6825 3.03516 12.4004 3.03516H11.5996ZM7.03516 12.4004C7.03516 12.663 7.0354 12.9221 7.01758 13.1406C6.99873 13.3713 6.95465 13.6467 6.81348 13.9238C6.61837 14.3067 6.30674 14.6184 5.92383 14.8135C5.65784 14.949 5.39372 14.9935 5.16895 15.0137C5.91985 16.7128 7.28629 18.08 8.98535 18.8311C9.00554 18.6063 9.05101 18.3422 9.18652 18.0762L9.26562 17.9355C9.46114 17.617 9.74128 17.3572 10.0762 17.1865L10.2832 17.0977C10.4881 17.0247 10.6864 16.9966 10.8594 16.9824C11.0779 16.9646 11.337 16.9648 11.5996 16.9648H12.4004C12.663 16.9648 12.9221 16.9646 13.1406 16.9824C13.3713 17.0013 13.6467 17.0454 13.9238 17.1865C14.2587 17.3572 14.5389 17.617 14.7344 17.9355L14.8135 18.0762L14.9023 18.2832C14.9714 18.4772 14.9987 18.6649 15.0137 18.8311C16.713 18.0801 18.079 16.7129 18.8301 15.0137C18.6055 14.9934 18.3418 14.9488 18.0762 14.8135C17.6933 14.6184 17.3816 14.3067 17.1865 13.9238C17.0454 13.6467 17.0013 13.3713 16.9824 13.1406C16.9646 12.9221 16.9648 12.663 16.9648 12.4004V11.5996C16.9648 11.337 16.9646 11.0779 16.9824 10.8594C17.0013 10.6287 17.0454 10.3533 17.1865 10.0762L17.2656 9.93555C17.4611 9.61698 17.7413 9.35716 18.0762 9.18652L18.2832 9.09766C18.4772 9.02861 18.6649 9.00028 18.8311 8.98535C18.0799 7.28614 16.7131 5.91882 15.0137 5.16797C14.9935 5.39296 14.9492 5.65745 14.8135 5.92383C14.6184 6.30674 14.3067 6.61837 13.9238 6.81348C13.6467 6.95465 13.3713 6.99873 13.1406 7.01758C12.9221 7.0354 12.663 7.03516 12.4004 7.03516H11.5996C11.337 7.03516 11.0779 7.0354 10.8594 7.01758C10.6287 6.99873 10.3533 6.95465 10.0762 6.81348C9.69326 6.61837 9.38163 6.30674 9.18652 5.92383C9.05101 5.6578 9.00554 5.39374 8.98535 5.16895C7.28649 5.92002 5.91888 7.28641 5.16797 8.98535C5.39298 9.00549 5.65742 9.05081 5.92383 9.18652C6.25872 9.35716 6.53886 9.61698 6.73438 9.93555L6.81348 10.0762L6.90234 10.2832C6.97529 10.4881 7.00345 10.6864 7.01758 10.8594C7.0354 11.0779 7.03516 11.337 7.03516 11.5996V12.4004ZM19.0352 12.4004C19.0352 12.6825 19.0358 12.8415 19.0439 12.9551C19.1576 12.9633 19.3166 12.9648 19.5996 12.9648H20.4004C20.6826 12.9648 20.8415 12.9632 20.9551 12.9551C20.9632 12.8415 20.9648 12.6826 20.9648 12.4004V11.5996C20.9648 11.3166 20.9633 11.1576 20.9551 11.0439C20.8415 11.0358 20.6825 11.0352 20.4004 11.0352H19.5996C19.3167 11.0352 19.1576 11.0358 19.0439 11.0439C19.0358 11.1576 19.0352 11.3167 19.0352 11.5996V12.4004ZM23.0352 12.4004C23.0352 12.663 23.0354 12.9221 23.0176 13.1406C22.9987 13.3713 22.9546 13.6467 22.8135 13.9238C22.6184 14.3067 22.3067 14.6184 21.9238 14.8135C21.6467 14.9546 21.3713 14.9987 21.1406 15.0176C21.1092 15.0201 21.0769 15.0196 21.0439 15.0215C20.097 17.8572 17.8572 20.0971 15.0215 21.0439C15.0196 21.0769 15.0201 21.1092 15.0176 21.1406C14.9987 21.3713 14.9546 21.6467 14.8135 21.9238C14.6184 22.3067 14.3067 22.6184 13.9238 22.8135C13.6467 22.9546 13.3713 22.9987 13.1406 23.0176C12.9221 23.0354 12.663 23.0352 12.4004 23.0352H11.5996C11.337 23.0352 11.0779 23.0354 10.8594 23.0176C10.6287 22.9987 10.3533 22.9546 10.0762 22.8135C9.69326 22.6184 9.38163 22.3067 9.18652 21.9238C9.04535 21.6467 9.00127 21.3713 8.98242 21.1406C8.97986 21.1092 8.97939 21.0769 8.97754 21.0439C6.14219 20.0968 3.90183 17.857 2.95508 15.0215C2.92247 15.0196 2.89044 15.0201 2.85938 15.0176C2.62866 14.9987 2.3533 14.9546 2.07617 14.8135C1.69326 14.6184 1.38163 14.3067 1.18652 13.9238C1.04535 13.6467 1.00127 13.3713 0.982422 13.1406C0.9646 12.9221 0.964843 12.663 0.964844 12.4004V11.5996C0.964843 11.337 0.9646 11.0779 0.982422 10.8594C1.00127 10.6287 1.04535 10.3533 1.18652 10.0762L1.26563 9.93555C1.46114 9.61698 1.74128 9.35716 2.07617 9.18652L2.2832 9.09766C2.48814 9.02471 2.6864 8.99655 2.85938 8.98242C2.89046 8.97989 2.92245 8.97938 2.95508 8.97754C3.90199 6.14236 6.1424 3.90209 8.97754 2.95508C8.97938 2.92245 8.97989 2.89046 8.98242 2.85938C9.00127 2.62866 9.04535 2.3533 9.18652 2.07617L9.26562 1.93555C9.46114 1.61698 9.74128 1.35716 10.0762 1.18652L10.2832 1.09766C10.4881 1.02472 10.6864 0.996555 10.8594 0.982422C11.0779 0.9646 11.337 0.964843 11.5996 0.964844H12.4004C12.663 0.964843 12.9221 0.9646 13.1406 0.982422C13.3136 0.996555 13.5119 1.02472 13.7168 1.09766L13.9238 1.18652L14.0645 1.26563C14.3373 1.4331 14.5669 1.66266 14.7344 1.93555L14.8135 2.07617L14.9023 2.2832C14.9753 2.48814 15.0034 2.6864 15.0176 2.85938C15.0201 2.89044 15.0196 2.92247 15.0215 2.95508C17.8571 3.9018 20.0968 6.14214 21.0439 8.97754C21.0769 8.97939 21.1092 8.97986 21.1406 8.98242C21.3713 9.00127 21.6467 9.04535 21.9238 9.18652C22.2587 9.35716 22.5389 9.61698 22.7344 9.93555L22.8135 10.0762L22.9023 10.2832C22.9753 10.4881 23.0034 10.6864 23.0176 10.8594C23.0354 11.0779 23.0352 11.337 23.0352 11.5996V12.4004Z"/></g><defs><clipPath id="a"><path fill="#fff" d="M0 0H24V24H0z"/></clipPath></defs></svg>