<svg xmlns="http://www.w3.org/2000/svg" width="24" height="24" fill="none" viewBox="0 0 24 24"><path fill="currentColor" d="M7.5605 1.06239C7.92411 0.892081 8.35356 0.948004 8.66207 1.20496L14.6621 6.20496C14.898 6.40161 15.0351 6.69272 15.0351 6.99989C15.0351 7.30705 14.898 7.59816 14.6621 7.79481L9.61519 11.9999L14.6621 16.205C14.898 16.4016 15.0351 16.6927 15.0351 16.9999C15.0351 17.3071 14.898 17.5982 14.6621 17.7948L8.66207 22.7948C8.35356 23.0518 7.92411 23.1077 7.5605 22.9374C7.19698 22.767 6.9648 22.4014 6.9648 21.9999V14.2089L2.66206 17.7948C2.22294 18.1606 1.57092 18.1011 1.20503 17.662C0.839272 17.2229 0.898784 16.5708 1.33785 16.205L6.38374 11.9999L1.33785 7.79481C0.898784 7.42892 0.839272 6.7769 1.20503 6.33778C1.57092 5.89871 2.22294 5.8392 2.66206 6.20496L6.9648 9.78992V1.99989C6.9648 1.59839 7.19698 1.23278 7.5605 1.06239ZM9.03511 19.7899L12.3837 16.9999L9.03511 14.2089V19.7899ZM20.8789 11.9999C20.8789 10.1714 20.2957 8.48216 19.3046 7.10438C18.9709 6.64043 19.0762 5.99389 19.54 5.66004C20.0039 5.32629 20.6505 5.43156 20.9843 5.89539C22.2204 7.61365 22.9492 9.7233 22.9492 11.9999C22.9492 14.2765 22.2204 16.3861 20.9843 18.1044C20.6505 18.5682 20.0039 18.6735 19.54 18.3397C19.0762 18.0059 18.9709 17.3593 19.3046 16.8954C20.2957 15.5176 20.8789 13.8283 20.8789 11.9999ZM16.9511 11.9999C16.9511 11.0499 16.6555 10.1719 16.1513 9.4491C15.8243 8.98027 15.9393 8.33569 16.4082 8.00867C16.8768 7.68177 17.5215 7.79607 17.8486 8.26453C18.5872 9.32344 19.0204 10.6128 19.0205 11.9999C19.0205 13.387 18.5872 14.6763 17.8486 15.7352C17.5216 16.2037 16.8769 16.3187 16.4082 15.9921C15.9393 15.6651 15.8243 15.0195 16.1513 14.5507C16.6554 13.8279 16.9511 12.9498 16.9511 11.9999ZM9.03511 9.78992L12.3837 6.99989L9.03511 4.20887V9.78992Z"/></svg>