<svg xmlns="http://www.w3.org/2000/svg" width="24" height="24" fill="none" viewBox="0 0 24 24"><path fill="currentColor" d="M2.26848 2.26844C2.67267 1.86425 3.32717 1.86425 3.73137 2.26844L21.7314 20.2684C22.1356 20.6726 22.1356 21.3271 21.7314 21.7313C21.3272 22.1355 20.6727 22.1355 20.2685 21.7313L17.3905 18.8534L12.662 22.7948C12.3535 23.0518 11.9241 23.1077 11.5605 22.9374C11.197 22.767 10.9648 22.4014 10.9648 21.9999V14.2089L6.66203 17.7948C6.22291 18.1606 5.57089 18.1011 5.205 17.662C4.83924 17.2229 4.89875 16.5708 5.33781 16.205L10.4667 11.9296L2.26848 3.73133C1.86428 3.32714 1.86428 2.67263 2.26848 2.26844ZM13.0351 19.7899L15.9218 17.3847L13.0351 14.4979V19.7899ZM10.9648 6.99989V1.99989C10.9648 1.59839 11.197 1.23278 11.5605 1.06239C11.9241 0.892081 12.3535 0.948004 12.662 1.20496L18.662 6.20496C18.898 6.40161 19.0351 6.69272 19.0351 6.99989C19.0351 7.30705 18.898 7.59816 18.662 7.79481L15.7441 10.2264C15.3049 10.5924 14.652 10.5337 14.2861 10.0946C13.9202 9.6555 13.9798 9.00252 14.4189 8.6366L16.3837 6.99891L13.0351 4.20887V6.99989C13.0351 7.5715 12.5715 8.03504 11.9999 8.03504C11.4283 8.03504 10.9648 7.5715 10.9648 6.99989Z"/></svg>