<svg xmlns="http://www.w3.org/2000/svg" width="24" height="24" fill="none" viewBox="0 0 24 24"><path fill="currentColor" d="M8.5605 1.06239C8.92411 0.892081 9.35356 0.948004 9.66207 1.20496L15.6621 6.20496C15.898 6.40161 16.0351 6.69272 16.0351 6.99989C16.0351 7.30705 15.898 7.59816 15.6621 7.79481L10.6152 11.9999L15.6621 16.205C15.898 16.4016 16.0351 16.6927 16.0351 16.9999C16.0351 17.3071 15.898 17.5982 15.6621 17.7948L9.66207 22.7948C9.35356 23.0518 8.92411 23.1077 8.5605 22.9374C8.19698 22.767 7.9648 22.4014 7.9648 21.9999V14.2089L3.66206 17.7948C3.22294 18.1606 2.57092 18.1011 2.20503 17.662C1.83927 17.2229 1.89878 16.5708 2.33785 16.205L7.38374 11.9999L2.33785 7.79481C1.89878 7.42892 1.83927 6.7769 2.20503 6.33778C2.57092 5.89871 3.22294 5.8392 3.66206 6.20496L7.9648 9.78992V1.99989C7.9648 1.59839 8.19698 1.23278 8.5605 1.06239ZM10.0351 19.7899L13.3837 16.9999L10.0351 14.2089V19.7899ZM15.0097 10.9647C15.5813 10.9647 16.0449 11.4283 16.0449 11.9999C16.0449 12.5715 15.5813 13.035 15.0097 13.035H15C14.4283 13.035 13.9648 12.5715 13.9648 11.9999C13.9648 11.4283 14.4283 10.9647 15 10.9647H15.0097ZM18.0097 10.9647C18.5813 10.9647 19.0449 11.4283 19.0449 11.9999C19.0449 12.5715 18.5813 13.035 18.0097 13.035H18C17.4283 13.035 16.9648 12.5715 16.9648 11.9999C16.9648 11.4283 17.4283 10.9647 18 10.9647H18.0097ZM21.0097 10.9647C21.5813 10.9647 22.0449 11.4283 22.0449 11.9999C22.0449 12.5715 21.5813 13.035 21.0097 13.035H21C20.4283 13.035 19.9648 12.5715 19.9648 11.9999C19.9648 11.4283 20.4283 10.9647 21 10.9647H21.0097ZM10.0351 9.78992L13.3837 6.99989L10.0351 4.20887V9.78992Z"/></svg>