<svg xmlns="http://www.w3.org/2000/svg" width="24" height="24" fill="none" viewBox="0 0 24 24"><path fill="currentColor" d="M11.5605 1.06239C11.9241 0.892081 12.3536 0.948004 12.6621 1.20496L18.6621 6.20496C18.898 6.40161 19.0351 6.69272 19.0351 6.99989C19.0351 7.30705 18.898 7.59816 18.6621 7.79481L13.6152 11.9999L18.6621 16.205C18.898 16.4016 19.0351 16.6927 19.0351 16.9999C19.0351 17.3071 18.898 17.5982 18.6621 17.7948L12.6621 22.7948C12.3536 23.0518 11.9241 23.1077 11.5605 22.9374C11.197 22.767 10.9648 22.4014 10.9648 21.9999V14.2089L6.66206 17.7948C6.22294 18.1606 5.57092 18.1011 5.20503 17.662C4.83927 17.2229 4.89878 16.5708 5.33785 16.205L10.3837 11.9999L5.33785 7.79481C4.89878 7.42892 4.83927 6.7769 5.20503 6.33778C5.57092 5.89871 6.22294 5.8392 6.66206 6.20496L10.9648 9.78992V1.99989C10.9648 1.59839 11.197 1.23278 11.5605 1.06239ZM13.0351 19.7899L16.3837 16.9999L13.0351 14.2089V19.7899ZM13.0351 9.78992L16.3837 6.99989L13.0351 4.20887V9.78992Z"/></svg>