<svg xmlns="http://www.w3.org/2000/svg" width="24" height="24" fill="none" viewBox="0 0 24 24"><path fill="currentColor" d="M17.9648 16C17.9648 14.3625 16.6375 13.0352 15 13.0352H7.03516V18.9648H15C16.6375 18.9648 17.9648 17.6375 17.9648 16ZM16.9648 8C16.9648 6.36248 15.6375 5.03516 14 5.03516H7.03516V10.9648H14C15.6375 10.9648 16.9648 9.63752 16.9648 8ZM19.0352 8C19.0352 9.42442 18.442 10.7091 17.4912 11.625C19.0103 12.4919 20.0352 14.1258 20.0352 16C20.0352 18.7808 17.7808 21.0352 15 21.0352H6C5.42839 21.0352 4.96484 20.5716 4.96484 20V4C4.96484 3.42839 5.42839 2.96484 6 2.96484H14C16.7808 2.96484 19.0352 5.21925 19.0352 8Z"/></svg>