<svg xmlns="http://www.w3.org/2000/svg" width="24" height="24" fill="none" viewBox="0 0 24 24"><path fill="currentColor" d="M19.4648 16C19.4648 14.3625 18.1375 13.0352 16.5 13.0352H10.5352V18.9648H16.5C18.1375 18.9648 19.4648 17.6375 19.4648 16ZM7.03516 18.9648H8.46484V5.03516H7.03516V18.9648ZM18.4648 8C18.4648 6.36248 17.1375 5.03516 15.5 5.03516H10.5352V10.9648H15.5C17.1375 10.9648 18.4648 9.63752 18.4648 8ZM20.5352 8C20.5352 9.42442 19.942 10.7091 18.9912 11.625C20.5103 12.4919 21.5352 14.1258 21.5352 16C21.5352 18.7808 19.2808 21.0352 16.5 21.0352H4C3.42839 21.0352 2.96484 20.5716 2.96484 20C2.96484 19.4284 3.42839 18.9648 4 18.9648H4.96484V5.03516H4C3.42839 5.03516 2.96484 4.57161 2.96484 4C2.96484 3.42839 3.42839 2.96484 4 2.96484H15.5C18.2808 2.96484 20.5352 5.21925 20.5352 8Z"/></svg>