<svg xmlns="http://www.w3.org/2000/svg" width="24" height="24" fill="none" viewBox="0 0 24 24"><path fill="currentColor" d="M20.9648 7.2002C20.9648 6.62309 20.9644 6.25228 20.9414 5.9707C20.9194 5.70121 20.8816 5.60521 20.8594 5.56152C20.7669 5.38033 20.6197 5.23308 20.4385 5.14063C20.3948 5.11837 20.2988 5.08061 20.0293 5.0586C19.7477 5.03559 19.3769 5.03516 18.7998 5.03516H18.4004C17.2634 5.03516 16.4725 5.03571 15.8574 5.08594C15.2546 5.13519 14.9119 5.2272 14.6543 5.3584C14.0964 5.64266 13.6427 6.0964 13.3584 6.6543C13.2272 6.91187 13.1352 7.25458 13.0859 7.85742C13.0357 8.47246 13.0352 9.26342 13.0352 10.4004V18.9648H18.7998C19.3769 18.9648 19.7477 18.9644 20.0293 18.9414C20.2988 18.9194 20.3948 18.8816 20.4385 18.8594C20.6197 18.7669 20.7669 18.6197 20.8594 18.4385C20.8816 18.3948 20.9194 18.2988 20.9414 18.0293C20.9644 17.7477 20.9648 17.3769 20.9648 16.7998V7.2002ZM3.03516 16.7998C3.03516 17.3769 3.03559 17.7477 3.05859 18.0293C3.08061 18.2988 3.11837 18.3948 3.14062 18.4385C3.23308 18.6197 3.38033 18.7669 3.56152 18.8594C3.60521 18.8816 3.7012 18.9194 3.9707 18.9414C4.25228 18.9644 4.62309 18.9648 5.2002 18.9648H10.9648V10.4004L10.958 8.93262C10.9515 8.51614 10.9392 8.16485 10.9141 7.85742C10.8648 7.25458 10.7728 6.91187 10.6416 6.6543C10.3573 6.0964 9.9036 5.64266 9.3457 5.3584C9.08813 5.2272 8.74542 5.13519 8.14258 5.08594C7.52754 5.03571 6.73658 5.03516 5.59961 5.03516H5.2002C4.62309 5.03516 4.25228 5.03559 3.9707 5.0586C3.7012 5.08061 3.60521 5.11837 3.56152 5.14063C3.38033 5.23308 3.23308 5.38033 3.14062 5.56152C3.11837 5.60521 3.08061 5.70121 3.05859 5.9707C3.03559 6.25228 3.03516 6.62309 3.03516 7.2002V16.7998ZM23.0352 16.7998C23.0352 17.3428 23.0354 17.8128 23.0039 18.1982C22.9714 18.5956 22.8998 18.9939 22.7041 19.3779C22.4131 19.9489 21.9489 20.4131 21.3779 20.7041C20.9939 20.8998 20.5956 20.9714 20.1982 21.0039C19.8128 21.0354 19.3428 21.0352 18.7998 21.0352H5.2002C4.65722 21.0352 4.18718 21.0354 3.80176 21.0039C3.40438 20.9714 3.00608 20.8998 2.62207 20.7041C2.05107 20.4131 1.58686 19.9489 1.2959 19.3779C1.10024 18.9939 1.02859 18.5956 0.996094 18.1982C0.964603 17.8128 0.964844 17.3428 0.964844 16.7998V7.2002C0.964844 6.65722 0.964603 6.18719 0.996094 5.80176C1.02859 5.40438 1.10024 5.00608 1.2959 4.62207C1.58686 4.05108 2.05107 3.58686 2.62207 3.2959C3.00608 3.10024 3.40438 3.02859 3.80176 2.9961C4.18718 2.9646 4.65722 2.96485 5.2002 2.96485H5.59961C6.70264 2.96485 7.59259 2.96372 8.31152 3.02246C9.04253 3.08219 9.68809 3.20895 10.2861 3.51367C10.9606 3.85735 11.5449 4.34709 12 4.94238C12.4551 4.34709 13.0394 3.85735 13.7139 3.51367C14.3119 3.20895 14.9575 3.08219 15.6885 3.02246C16.4074 2.96372 17.2974 2.96485 18.4004 2.96485H18.7998C19.3428 2.96485 19.8128 2.9646 20.1982 2.9961C20.5956 3.02859 20.9939 3.10024 21.3779 3.2959C21.9489 3.58686 22.4131 4.05108 22.7041 4.62207C22.8998 5.00608 22.9714 5.40438 23.0039 5.80176C23.0354 6.18719 23.0352 6.65722 23.0352 7.2002V16.7998Z"/></svg>