<svg xmlns="http://www.w3.org/2000/svg" width="24" height="24" fill="none" viewBox="0 0 24 24"><path fill="currentColor" d="M20.9648 6.2002C20.9648 5.62309 20.9644 5.25228 20.9414 4.9707C20.9194 4.70121 20.8816 4.60521 20.8594 4.56152C20.7669 4.38033 20.6197 4.23308 20.4385 4.14063C20.3948 4.11837 20.2988 4.08061 20.0293 4.0586C19.7477 4.03559 19.3769 4.03516 18.7998 4.03516H18.4004C17.2634 4.03516 16.4725 4.03571 15.8574 4.08594C15.2546 4.13519 14.9119 4.2272 14.6543 4.3584C14.0964 4.64266 13.6427 5.0964 13.3584 5.6543C13.2272 5.91187 13.1352 6.25458 13.0859 6.85742C13.0608 7.16485 13.0485 7.51614 13.042 7.93262L13.0352 9.40039V18.0381C13.525 17.6541 14.0816 17.3637 14.6777 17.1826C15.4278 16.9548 16.2372 16.9648 17.4248 16.9648H18.7998C19.3769 16.9648 19.7477 16.9644 20.0293 16.9414C20.2988 16.9194 20.3948 16.8816 20.4385 16.8594C20.6197 16.7669 20.7669 16.6197 20.8594 16.4385C20.8816 16.3948 20.9194 16.2988 20.9414 16.0293C20.9644 15.7477 20.9648 15.3769 20.9648 14.7998V6.2002ZM3.03516 14.7998C3.03516 15.3769 3.03559 15.7477 3.05859 16.0293C3.08061 16.2988 3.11837 16.3948 3.14062 16.4385C3.23308 16.6197 3.38033 16.7669 3.56152 16.8594C3.60521 16.8816 3.7012 16.9194 3.9707 16.9414C4.25228 16.9644 4.62309 16.9648 5.2002 16.9648H6.5752C7.76283 16.9648 8.57221 16.9548 9.32227 17.1826C9.91844 17.3637 10.475 17.6541 10.9648 18.0381V9.40039C10.9648 8.26342 10.9643 7.47246 10.9141 6.85742C10.8648 6.25458 10.7728 5.91187 10.6416 5.6543C10.3573 5.0964 9.9036 4.64266 9.3457 4.3584C9.08813 4.2272 8.74542 4.13519 8.14258 4.08594C7.52754 4.03571 6.73658 4.03516 5.59961 4.03516H5.2002C4.62309 4.03516 4.25228 4.03559 3.9707 4.0586C3.7012 4.08061 3.60521 4.11837 3.56152 4.14063C3.38033 4.23308 3.23308 4.38033 3.14062 4.56152C3.11837 4.60521 3.08061 4.70121 3.05859 4.9707C3.03559 5.25228 3.03516 5.62309 3.03516 6.2002V14.7998ZM23.0352 14.7998C23.0352 15.3428 23.0354 15.8128 23.0039 16.1982C22.9714 16.5956 22.8998 16.9939 22.7041 17.3779C22.4131 17.9489 21.9489 18.4131 21.3779 18.7041C20.9939 18.8998 20.5956 18.9714 20.1982 19.0039C19.8128 19.0354 19.3428 19.0352 18.7998 19.0352H17.4248C16.1085 19.0352 15.6658 19.0457 15.2793 19.1631C14.9063 19.2763 14.5589 19.4615 14.2578 19.709C13.9457 19.9655 13.6913 20.3283 12.9609 21.4238L12.8613 21.5742C12.6694 21.8622 12.3461 22.0352 12 22.0352C11.6539 22.0352 11.3306 21.8622 11.1387 21.5742L11.0391 21.4238C10.3087 20.3283 10.0543 19.9655 9.74219 19.709C9.44107 19.4615 9.09365 19.2763 8.7207 19.1631C8.33419 19.0457 7.89153 19.0352 6.5752 19.0352H5.2002C4.65722 19.0352 4.18718 19.0354 3.80176 19.0039C3.40438 18.9714 3.00608 18.8998 2.62207 18.7041C2.05107 18.4131 1.58686 17.9489 1.2959 17.3779C1.10024 16.9939 1.02859 16.5956 0.996094 16.1982C0.964603 15.8128 0.964844 15.3428 0.964844 14.7998V6.2002C0.964844 5.65722 0.964603 5.18719 0.996094 4.80176C1.02859 4.40438 1.10024 4.00608 1.2959 3.62207C1.58686 3.05108 2.05107 2.58686 2.62207 2.2959C3.00608 2.10024 3.40438 2.02859 3.80176 1.9961C4.18718 1.9646 4.65722 1.96485 5.2002 1.96485H5.59961C6.70264 1.96485 7.59259 1.96372 8.31152 2.02246C9.04253 2.08219 9.68809 2.20895 10.2861 2.51367C10.9606 2.85735 11.5449 3.34709 12 3.94238C12.4551 3.34709 13.0394 2.85735 13.7139 2.51367C14.3119 2.20895 14.9575 2.08219 15.6885 2.02246C16.4074 1.96372 17.2974 1.96485 18.4004 1.96485H18.7998C19.3428 1.96485 19.8128 1.9646 20.1982 1.9961C20.5956 2.02859 20.9939 2.10024 21.3779 2.2959C21.9489 2.58686 22.4131 3.05108 22.7041 3.62207C22.8998 4.00608 22.9714 4.40438 23.0039 4.80176C23.0354 5.18719 23.0352 5.65722 23.0352 6.2002V14.7998Z"/></svg>