<svg xmlns="http://www.w3.org/2000/svg" width="24" height="24" fill="none" viewBox="0 0 24 24"><path fill="currentColor" d="M18.9648 5.2002C18.9648 4.62309 18.9644 4.25228 18.9414 3.9707C18.9194 3.7012 18.8816 3.60521 18.8594 3.56152C18.7669 3.38033 18.6197 3.23308 18.4385 3.14062C18.3948 3.11837 18.2988 3.08061 18.0293 3.05859C17.7477 3.03559 17.3769 3.03516 16.7998 3.03516H8.7998C7.94287 3.03516 7.36234 3.03565 6.91406 3.07227C6.47781 3.10791 6.25807 3.17227 6.10742 3.24902C5.73794 3.43737 5.43737 3.73794 5.24902 4.10742C5.17227 4.25807 5.10791 4.47781 5.07227 4.91406C5.03565 5.36234 5.03516 5.94287 5.03516 6.7998V15.4756C5.61667 15.1507 6.28656 14.9648 7 14.9648H18.9648V5.2002ZM7 17.0352C5.9995 17.0352 5.17462 17.7829 5.05176 18.75C5.05684 18.8703 5.06375 18.9817 5.07227 19.0859C5.10791 19.5222 5.17227 19.7419 5.24902 19.8926C5.43737 20.2621 5.73794 20.5626 6.10742 20.751C6.25807 20.8277 6.47781 20.8921 6.91406 20.9277C7.36234 20.9643 7.94287 20.9648 8.7998 20.9648H16.7998C17.3769 20.9648 17.7477 20.9644 18.0293 20.9414C18.2988 20.9194 18.3948 20.8816 18.4385 20.8594C18.6197 20.7669 18.7669 20.6197 18.8594 20.4385C18.8816 20.3948 18.9194 20.2988 18.9414 20.0293C18.9644 19.7477 18.9648 19.3769 18.9648 18.7998V17.0352H7ZM21.0352 19C21.0352 19.0065 21.0333 19.013 21.0332 19.0195C21.0329 19.4703 21.0311 19.8658 21.0039 20.1982C20.9714 20.5956 20.8998 20.9939 20.7041 21.3779C20.4131 21.9489 19.9489 22.4131 19.3779 22.7041C18.9939 22.8998 18.5956 22.9714 18.1982 23.0039C17.8128 23.0354 17.3428 23.0352 16.7998 23.0352H8.7998C7.97689 23.0352 7.29725 23.0353 6.74512 22.9902C6.18095 22.9441 5.65899 22.8449 5.16797 22.5947C4.409 22.2079 3.79208 21.591 3.40527 20.832C3.16525 20.361 3.06611 19.8612 3.01758 19.3232C2.9841 19.2214 2.96484 19.113 2.96484 19C2.96484 18.8881 2.97154 18.7775 2.98047 18.668C2.96707 18.24 2.96484 17.7525 2.96484 17.2002V6.7998C2.96484 5.97689 2.96465 5.29725 3.00977 4.74512C3.05588 4.18095 3.15509 3.65899 3.40527 3.16797C3.79208 2.409 4.409 1.79208 5.16797 1.40527C5.65899 1.15509 6.18095 1.05588 6.74512 1.00977C7.29725 0.964654 7.97689 0.964844 8.7998 0.964844H16.7998C17.3428 0.964844 17.8128 0.964603 18.1982 0.996094C18.5956 1.02859 18.9939 1.10024 19.3779 1.2959C19.9489 1.58686 20.4131 2.05107 20.7041 2.62207C20.8998 3.00608 20.9714 3.40438 21.0039 3.80176C21.0354 4.18718 21.0352 4.65722 21.0352 5.2002V19Z"/></svg>