<svg xmlns="http://www.w3.org/2000/svg" width="24" height="24" fill="none" viewBox="0 0 24 24"><path fill="currentColor" d="M17.9648 7.7998C17.9648 6.94287 17.9643 6.36234 17.9277 5.91406C17.8921 5.47781 17.8277 5.25807 17.751 5.10742C17.5626 4.73794 17.2621 4.43737 16.8926 4.24902C16.7419 4.17227 16.5222 4.10791 16.0859 4.07227C15.6377 4.03565 15.0571 4.03516 14.2002 4.03516H9.7998C8.94287 4.03516 8.36234 4.03565 7.91406 4.07227C7.47781 4.10791 7.25807 4.17227 7.10742 4.24902C6.73794 4.43737 6.43737 4.73794 6.24902 5.10742C6.17227 5.25807 6.10791 5.47781 6.07227 5.91406C6.03565 6.36234 6.03516 6.94287 6.03516 7.7998V19.2158L11.4863 16.1016L11.6094 16.042C11.9016 15.9228 12.2353 15.9425 12.5137 16.1016L17.9648 19.2158V7.7998ZM13.7686 6.76855C14.1727 6.36436 14.8273 6.36436 15.2314 6.76855C15.6356 7.17275 15.6356 7.82725 15.2314 8.23145L13.4629 10L15.2314 11.7686C15.6356 12.1727 15.6356 12.8273 15.2314 13.2314C14.8273 13.6356 14.1727 13.6356 13.7686 13.2314L12 11.4629L10.2314 13.2314C9.82725 13.6356 9.17275 13.6356 8.76855 13.2314C8.36436 12.8273 8.36436 12.1727 8.76855 11.7686L10.5371 10L8.76855 8.23145C8.36436 7.82725 8.36436 7.17275 8.76855 6.76855C9.17275 6.36436 9.82725 6.36436 10.2314 6.76855L12 8.53711L13.7686 6.76855ZM20.0352 21C20.0352 21.3689 19.8386 21.7103 19.5195 21.8955C19.2004 22.0806 18.8066 22.0815 18.4863 21.8984L12 18.1914L5.51367 21.8984C5.19337 22.0815 4.79955 22.0806 4.48047 21.8955C4.16136 21.7103 3.96484 21.3689 3.96484 21V7.7998C3.96484 6.97689 3.96465 6.29725 4.00977 5.74512C4.05588 5.18095 4.15509 4.65899 4.40527 4.16797C4.79208 3.409 5.409 2.79208 6.16797 2.40527C6.65899 2.15509 7.18095 2.05588 7.74512 2.00977C8.29725 1.96465 8.97689 1.96484 9.7998 1.96484H14.2002C15.0231 1.96484 15.7027 1.96465 16.2549 2.00977C16.8191 2.05588 17.341 2.15509 17.832 2.40527C18.591 2.79208 19.2079 3.409 19.5947 4.16797C19.8449 4.65899 19.9441 5.18095 19.9902 5.74512C20.0353 6.29725 20.0352 6.97689 20.0352 7.7998V21Z"/></svg>