<svg xmlns="http://www.w3.org/2000/svg" width="24" height="24" fill="none" viewBox="0 0 24 24"><path fill="currentColor" d="M19.4648 9.03516H4.53516V16.2002C4.53516 17.0571 4.53565 17.6377 4.57227 18.0859C4.60791 18.5222 4.67227 18.7419 4.74902 18.8926C4.93737 19.2621 5.23794 19.5626 5.60742 19.751C5.75807 19.8277 5.97781 19.8921 6.41406 19.9277C6.86234 19.9643 7.44287 19.9648 8.2998 19.9648H15.7002C16.5571 19.9648 17.1377 19.9643 17.5859 19.9277C18.0222 19.8921 18.2419 19.8277 18.3926 19.751C18.7621 19.5626 19.0626 19.2621 19.251 18.8926C19.3277 18.7419 19.3921 18.5222 19.4277 18.0859C19.4643 17.6377 19.4648 17.0571 19.4648 16.2002V9.03516ZM14.9648 13.0996C14.9648 12.8166 14.9633 12.6576 14.9551 12.5439C14.8415 12.5358 14.6825 12.5352 14.4004 12.5352H9.59961C9.31668 12.5352 9.15762 12.5358 9.04395 12.5439C9.03576 12.6576 9.03516 12.8167 9.03516 13.0996V13.9004C9.03516 14.1825 9.03582 14.3415 9.04395 14.4551C9.15762 14.4633 9.31662 14.4648 9.59961 14.4648H14.4004C14.6826 14.4648 14.8415 14.4632 14.9551 14.4551C14.9632 14.3415 14.9648 14.1826 14.9648 13.9004V13.0996ZM20.9648 4.59961C20.9648 4.31662 20.9633 4.15762 20.9551 4.04395C20.8415 4.03582 20.6825 4.03516 20.4004 4.03516H3.59961C3.31668 4.03516 3.15762 4.03576 3.04395 4.04395C3.03576 4.15762 3.03516 4.31668 3.03516 4.59961V6.40039C3.03516 6.68252 3.03582 6.84147 3.04395 6.95508C3.15762 6.96327 3.31662 6.96484 3.59961 6.96484H20.4004C20.6826 6.96484 20.8415 6.96321 20.9551 6.95508C20.9632 6.84147 20.9648 6.68258 20.9648 6.40039V4.59961ZM17.0352 13.9004C17.0352 14.163 17.0354 14.4221 17.0176 14.6406C16.9987 14.8713 16.9546 15.1467 16.8135 15.4238C16.6184 15.8067 16.3067 16.1184 15.9238 16.3135C15.6467 16.4546 15.3713 16.4987 15.1406 16.5176C14.9221 16.5354 14.663 16.5352 14.4004 16.5352H9.59961C9.33696 16.5352 9.07785 16.5354 8.85938 16.5176C8.62866 16.4987 8.3533 16.4546 8.07617 16.3135C7.69326 16.1184 7.38163 15.8067 7.18652 15.4238C7.04535 15.1467 7.00127 14.8713 6.98242 14.6406C6.9646 14.4221 6.96484 14.163 6.96484 13.9004V13.0996C6.96484 12.837 6.9646 12.5779 6.98242 12.3594C7.00127 12.1287 7.04535 11.8533 7.18652 11.5762L7.26562 11.4355C7.46114 11.117 7.74128 10.8572 8.07617 10.6865L8.2832 10.5977C8.48814 10.5247 8.6864 10.4966 8.85938 10.4824C9.07785 10.4646 9.33696 10.4648 9.59961 10.4648H14.4004C14.663 10.4648 14.9221 10.4646 15.1406 10.4824C15.3713 10.5013 15.6467 10.5454 15.9238 10.6865C16.2587 10.8572 16.5389 11.117 16.7344 11.4355L16.8135 11.5762L16.9023 11.7832C16.9753 11.9881 17.0034 12.1864 17.0176 12.3594C17.0354 12.5779 17.0352 12.837 17.0352 13.0996V13.9004ZM23.0352 6.40039C23.0352 6.66304 23.0354 6.92215 23.0176 7.14062C22.9987 7.37134 22.9546 7.6467 22.8135 7.92383C22.6184 8.30674 22.3067 8.61837 21.9238 8.81348C21.7924 8.88042 21.6611 8.924 21.5352 8.95508V16.2002C21.5352 17.0231 21.5353 17.7027 21.4902 18.2549C21.4441 18.8191 21.3449 19.341 21.0947 19.832C20.7079 20.591 20.091 21.2079 19.332 21.5947C18.841 21.8449 18.3191 21.9441 17.7549 21.9902C17.2027 22.0353 16.5231 22.0352 15.7002 22.0352H8.2998C7.47689 22.0352 6.79725 22.0353 6.24512 21.9902C5.68095 21.9441 5.15899 21.8449 4.66797 21.5947C3.909 21.2079 3.29208 20.591 2.90527 19.832C2.65509 19.341 2.55588 18.8191 2.50977 18.2549C2.46465 17.7027 2.46484 17.0231 2.46484 16.2002V8.95508C2.33893 8.924 2.20758 8.88042 2.07617 8.81348C1.69326 8.61837 1.38163 8.30674 1.18652 7.92383C1.04535 7.6467 1.00127 7.37134 0.982422 7.14062C0.9646 6.92215 0.964843 6.66304 0.964844 6.40039V4.59961C0.964843 4.33696 0.9646 4.07785 0.982422 3.85938C1.00127 3.62866 1.04535 3.3533 1.18652 3.07617L1.26563 2.93555C1.46114 2.61698 1.74128 2.35716 2.07617 2.18652L2.2832 2.09766C2.48814 2.02472 2.6864 1.99656 2.85938 1.98242C3.07785 1.9646 3.33696 1.96484 3.59961 1.96484H20.4004C20.663 1.96484 20.9221 1.9646 21.1406 1.98242C21.3136 1.99655 21.5119 2.02472 21.7168 2.09766L21.9238 2.18652L22.0645 2.26563C22.3373 2.4331 22.5669 2.66266 22.7344 2.93555L22.8135 3.07617L22.9023 3.2832C22.9753 3.48814 23.0034 3.6864 23.0176 3.85938C23.0354 4.07785 23.0352 4.33696 23.0352 4.59961V6.40039Z"/></svg>