<svg xmlns="http://www.w3.org/2000/svg" width="24" height="24" fill="none" viewBox="0 0 24 24"><path fill="currentColor" d="M2.1084 17.7139V13.5713L1.26855 12.7314C1.07445 12.5373 0.964844 12.2745 0.964844 12C0.964844 11.7255 1.07445 11.4627 1.26855 11.2686L2.1084 10.4277V6.28613C2.1084 4.45161 3.59423 2.965 5.42871 2.96484C6.00033 2.96484 6.46387 3.42839 6.46387 4C6.46387 4.57161 6.00033 5.03516 5.42871 5.03516C4.73746 5.03531 4.17773 5.59484 4.17773 6.28613V10.8574C4.17762 11.1317 4.06896 11.3949 3.875 11.5889L3.46289 12L3.875 12.4111C4.06896 12.6051 4.17762 12.8683 4.17773 13.1426V17.7139C4.17773 18.4052 4.73746 18.9647 5.42871 18.9648C6.00033 18.9648 6.46387 19.4284 6.46387 20C6.46387 20.5716 6.00033 21.0352 5.42871 21.0352C3.59423 21.035 2.1084 19.5484 2.1084 17.7139ZM19.8223 17.7139V13.1426C19.8224 12.8682 19.931 12.6051 20.125 12.4111L20.5361 12L20.125 11.5889C19.931 11.3949 19.8224 11.1318 19.8223 10.8574V6.28613C19.8223 5.59491 19.2624 5.03542 18.5713 5.03516C17.9997 5.03516 17.5361 4.57161 17.5361 4C17.5361 3.42839 17.9997 2.96484 18.5713 2.96484C20.4057 2.96511 21.8916 4.45168 21.8916 6.28613V10.4277L22.7314 11.2686C23.1355 11.6727 23.1355 12.3273 22.7314 12.7314L21.8916 13.5713V17.7139C21.8916 19.5486 20.4044 21.0349 18.5713 21.0352C17.9997 21.0352 17.5361 20.5716 17.5361 20C17.5361 19.4284 17.9997 18.9648 18.5713 18.9648C19.2617 18.9646 19.8223 18.4048 19.8223 17.7139ZM15.7686 8.26855C16.1727 7.86436 16.8273 7.86436 17.2314 8.26855C17.6356 8.67275 17.6356 9.32725 17.2314 9.73145L11.7979 15.166C11.7109 15.2529 11.6015 15.3633 11.498 15.4512C11.3853 15.5468 11.213 15.6754 10.9746 15.7529C10.6663 15.8531 10.3337 15.8531 10.0254 15.7529C9.78705 15.6754 9.61466 15.5468 9.50195 15.4512C9.39847 15.3633 9.28908 15.2529 9.20215 15.166L6.76855 12.7314C6.36436 12.3273 6.36436 11.6727 6.76855 11.2686C7.17275 10.8644 7.82725 10.8644 8.23145 11.2686L10.499 13.5361L15.7686 8.26855Z"/></svg>