<svg xmlns="http://www.w3.org/2000/svg" width="24" height="24" fill="none" viewBox="0 0 24 24"><path fill="currentColor" d="M2.1084 17.7139V13.5713L1.26855 12.7314C1.07445 12.5373 0.964844 12.2745 0.964844 12C0.964844 11.7255 1.07445 11.4627 1.26855 11.2686L2.1084 10.4277V6.28613C2.1084 4.45161 3.59423 2.965 5.42871 2.96484C6.00033 2.96484 6.46387 3.42839 6.46387 4C6.46387 4.57161 6.00033 5.03516 5.42871 5.03516C4.73746 5.03531 4.17773 5.59484 4.17773 6.28613V10.8574C4.17762 11.1317 4.06896 11.3949 3.875 11.5889L3.46289 12L3.875 12.4111C4.06896 12.6051 4.17762 12.8683 4.17773 13.1426V17.7139C4.17773 18.4052 4.73746 18.9647 5.42871 18.9648C6.00033 18.9648 6.46387 19.4284 6.46387 20C6.46387 20.5716 6.00033 21.0352 5.42871 21.0352C3.59423 21.035 2.1084 19.5484 2.1084 17.7139ZM19.8223 17.7139V13.1426C19.8224 12.8682 19.931 12.6051 20.125 12.4111L20.5361 12L20.125 11.5889C19.931 11.3949 19.8224 11.1318 19.8223 10.8574V6.28613C19.8223 5.59491 19.2624 5.03542 18.5713 5.03516C17.9997 5.03516 17.5361 4.57161 17.5361 4C17.5361 3.42839 17.9997 2.96484 18.5713 2.96484C20.4057 2.96511 21.8916 4.45168 21.8916 6.28613V10.4277L22.7314 11.2686C23.1355 11.6727 23.1355 12.3273 22.7314 12.7314L21.8916 13.5713V17.7139C21.8916 19.5486 20.4044 21.0349 18.5713 21.0352C17.9997 21.0352 17.5361 20.5716 17.5361 20C17.5361 19.4284 17.9997 18.9648 18.5713 18.9648C19.2617 18.9646 19.8223 18.4048 19.8223 17.7139ZM14.1123 6.46777C14.4063 5.97771 15.0421 5.81845 15.5322 6.1123C16.0223 6.40634 16.1816 7.04211 15.8877 7.53223L9.8877 17.5322C9.59366 18.0223 8.95789 18.1816 8.46777 17.8877C7.97771 17.5937 7.81845 16.9579 8.1123 16.4678L14.1123 6.46777Z"/></svg>