<svg xmlns="http://www.w3.org/2000/svg" width="24" height="24" fill="none" viewBox="0 0 24 24"><path fill="currentColor" d="M20.9648 10.2003C20.9648 9.62318 20.9644 9.25238 20.9414 8.9708C20.9194 8.7013 20.8816 8.60531 20.8594 8.56162C20.7669 8.38042 20.6197 8.23317 20.4385 8.14072C20.3948 8.11846 20.2988 8.08071 20.0293 8.05869C19.7477 8.03568 19.3769 8.03525 18.7998 8.03525H5.2002C4.62309 8.03525 4.25228 8.03568 3.9707 8.05869C3.7012 8.08071 3.60521 8.11846 3.56152 8.14072C3.38033 8.23317 3.23308 8.38042 3.14062 8.56162C3.11837 8.60531 3.08061 8.7013 3.05859 8.9708C3.03559 9.25238 3.03516 9.62318 3.03516 10.2003V17.7999C3.03516 18.377 3.03559 18.7478 3.05859 19.0294C3.08061 19.2989 3.11837 19.3949 3.14062 19.4386C3.23308 19.6198 3.38032 19.767 3.56152 19.8595C3.60521 19.8817 3.7012 19.9195 3.9707 19.9415C4.25228 19.9645 4.62309 19.9649 5.2002 19.9649H18.7998C19.3769 19.9649 19.7477 19.9645 20.0293 19.9415C20.2988 19.9195 20.3948 19.8817 20.4385 19.8595C20.6197 19.767 20.7669 19.6198 20.8594 19.4386C20.8816 19.3949 20.9194 19.2989 20.9414 19.0294C20.9644 18.7478 20.9648 18.377 20.9648 17.7999V10.2003ZM12 4.03525C11.0034 4.03525 10.7079 4.04359 10.4912 4.10166C9.81318 4.28337 9.28328 4.81328 9.10156 5.49131C9.07204 5.6015 9.05627 5.73224 9.04688 5.96494H14.9531C14.9437 5.73224 14.928 5.6015 14.8984 5.49131C14.7167 4.81328 14.1868 4.28337 13.5088 4.10166C13.2921 4.04359 12.9966 4.03525 12 4.03525ZM23.0352 17.7999C23.0352 18.3429 23.0354 18.8129 23.0039 19.1983C22.9714 19.5957 22.8998 19.994 22.7041 20.378C22.4131 20.949 21.9489 21.4132 21.3779 21.7042C20.9939 21.8999 20.5956 21.9715 20.1982 22.004C19.8128 22.0355 19.3428 22.0353 18.7998 22.0353H5.2002C4.65722 22.0353 4.18718 22.0355 3.80176 22.004C3.40438 21.9715 3.00608 21.8999 2.62207 21.7042C2.05107 21.4132 1.58686 20.949 1.2959 20.378C1.10024 19.994 1.02859 19.5957 0.996094 19.1983C0.964603 18.8129 0.964844 18.3429 0.964844 17.7999V10.2003C0.964844 9.65732 0.964603 9.18728 0.996094 8.80185C1.02859 8.40447 1.10024 8.00617 1.2959 7.62217C1.58686 7.05117 2.05107 6.58696 2.62207 6.29599C3.00608 6.10033 3.40438 6.02868 3.80176 5.99619C4.18718 5.9647 4.65722 5.96494 5.2002 5.96494H6.97559C6.98937 5.58604 7.0218 5.25763 7.10254 4.95615C7.47564 3.5637 8.56361 2.47574 9.95605 2.10263C10.5023 1.95635 11.1368 1.96494 12 1.96494C12.8632 1.96494 13.4977 1.95635 14.0439 2.10263C15.4364 2.47574 16.5244 3.5637 16.8975 4.95615C16.9782 5.25763 17.0106 5.58604 17.0244 5.96494H18.7998C19.3428 5.96494 19.8128 5.9647 20.1982 5.99619C20.5956 6.02868 20.9939 6.10033 21.3779 6.29599C21.9489 6.58696 22.4131 7.05117 22.7041 7.62217C22.8998 8.00617 22.9714 8.40447 23.0039 8.80185C23.0354 9.18728 23.0352 9.65732 23.0352 10.2003V17.7999Z"/></svg>