<svg xmlns="http://www.w3.org/2000/svg" width="24" height="24" fill="none" viewBox="0 0 24 24"><path fill="currentColor" d="M13.4648 16.0332C13.3783 16.0332 13.2901 16.0352 13.2002 16.0352H10.7998C10.7099 16.0352 10.6217 16.0332 10.5352 16.0332V19.5C10.5352 20.3091 11.1909 20.9648 12 20.9648C12.8091 20.9648 13.4648 20.3091 13.4648 19.5V16.0332ZM7.03906 11.0352C7.0424 11.4633 7.04902 11.8013 7.07227 12.0859C7.10791 12.5222 7.17227 12.7419 7.24902 12.8926C7.43737 13.2621 7.73794 13.5626 8.10742 13.751C8.25807 13.8277 8.47781 13.8921 8.91406 13.9277C9.36234 13.9643 9.94287 13.9648 10.7998 13.9648H13.2002C14.0571 13.9648 14.6377 13.9643 15.0859 13.9277C15.5222 13.8921 15.7419 13.8277 15.8926 13.751C16.2621 13.5626 16.5626 13.2621 16.751 12.8926C16.8277 12.7419 16.8921 12.5222 16.9277 12.0859C16.951 11.8013 16.9576 11.4633 16.9609 11.0352H7.03906ZM16.9648 3.59961C16.9648 3.31662 16.9633 3.15762 16.9551 3.04395C16.8415 3.03582 16.6825 3.03516 16.4004 3.03516H7.59961C7.31668 3.03516 7.15762 3.03576 7.04395 3.04395C7.03576 3.15762 7.03516 3.31668 7.03516 3.59961V8.96484H16.9648V3.59961ZM19.0352 10.2002C19.0352 11.0231 19.0353 11.7027 18.9902 12.2549C18.9441 12.8191 18.8449 13.341 18.5947 13.832C18.2079 14.591 17.591 15.2079 16.832 15.5947C16.4235 15.8029 15.993 15.9035 15.5352 15.959V19.5C15.5352 21.4523 13.9523 23.0352 12 23.0352C10.0477 23.0352 8.46484 21.4523 8.46484 19.5V15.959C8.00699 15.9035 7.57654 15.8029 7.16797 15.5947C6.409 15.2079 5.79208 14.591 5.40527 13.832C5.15509 13.341 5.05588 12.8191 5.00977 12.2549C4.96465 11.7027 4.96484 11.0231 4.96484 10.2002V3.59961C4.96484 3.33696 4.9646 3.07785 4.98242 2.85938C5.00127 2.62866 5.04535 2.3533 5.18652 2.07617L5.26563 1.93555C5.46114 1.61698 5.74128 1.35716 6.07617 1.18652L6.2832 1.09766C6.48814 1.02472 6.6864 0.996555 6.85938 0.982422C7.07785 0.9646 7.33696 0.964843 7.59961 0.964844H16.4004C16.663 0.964843 16.9221 0.9646 17.1406 0.982422C17.3136 0.996555 17.5119 1.02472 17.7168 1.09766L17.9238 1.18652L18.0645 1.26563C18.3373 1.4331 18.5669 1.66266 18.7344 1.93555L18.8135 2.07617L18.9023 2.2832C18.9753 2.48814 19.0034 2.6864 19.0176 2.85938C19.0354 3.07785 19.0352 3.33696 19.0352 3.59961V10.2002Z"/></svg>