<svg xmlns="http://www.w3.org/2000/svg" width="24" height="24" fill="none" viewBox="0 0 24 24"><path fill="currentColor" d="M17.2403 2.18143C18.5175 0.998985 20.5007 1.03762 21.7315 2.26834C22.9623 3.49913 23.0009 5.48231 21.8184 6.75956L12.6807 16.6277C12.2598 17.0823 11.9033 17.4841 11.4883 17.7293C11.0355 17.9967 10.5293 18.1365 10.0206 18.1492C10.1189 19.4237 9.68184 20.732 8.7071 21.7068C7.75796 22.656 6.45374 22.9407 5.30671 23.032C4.18586 23.1212 2.88465 23.0349 2.00007 23.0349C1.63961 23.0349 1.3053 22.8473 1.11725 22.5398C0.92926 22.2322 0.914778 21.8489 1.07917 21.5281C1.44141 20.8214 1.39708 19.9823 1.35065 18.8162C1.31137 17.8295 1.24047 16.3453 2.29303 15.2928C3.26755 14.3183 4.57551 13.8813 5.84968 13.9793C5.86243 13.4707 6.00328 12.9652 6.27057 12.5125C6.5157 12.0974 6.91743 11.7401 7.37214 11.3191L17.2403 2.18143ZM7.24323 16.7566C6.28061 15.7941 4.71953 15.7941 3.7569 16.7566C3.44265 17.0709 3.37286 17.5751 3.41901 18.7342C3.44351 19.3493 3.50071 20.1558 3.37702 20.991C3.97521 21.0063 4.55529 21.0153 5.14264 20.9685C6.14133 20.889 6.82553 20.6606 7.24323 20.243C8.20577 19.2803 8.20584 17.7192 7.24323 16.7566ZM8.77839 12.8377C8.21386 13.3604 8.1051 13.4758 8.0528 13.5642C7.88084 13.8554 7.87379 14.2158 8.03425 14.5135C8.08305 14.6039 8.187 14.7238 8.73151 15.2683C9.27608 15.8129 9.39599 15.9168 9.48639 15.9656C9.78404 16.1261 10.1444 16.119 10.4356 15.9471C10.524 15.8948 10.6394 15.7861 11.1622 15.2215L11.3409 15.0271L8.97175 12.657L8.77839 12.8377ZM20.2686 3.73221C19.8243 3.28787 19.1076 3.27403 18.6465 3.70096L10.4923 11.2508L12.7481 13.5066L20.2989 5.35331C20.7257 4.89236 20.7125 4.17659 20.2686 3.73221Z"/></svg>