<svg xmlns="http://www.w3.org/2000/svg" width="24" height="24" fill="none" viewBox="0 0 24 24"><path fill="currentColor" d="M13.4648 16.0352H10.5352V19.5C10.5352 20.3091 11.1909 20.9648 12 20.9648C12.8091 20.9648 13.4648 20.3091 13.4648 19.5V16.0352ZM5.03906 11.0352C5.0424 11.4633 5.04902 11.8013 5.07227 12.0859C5.10791 12.5222 5.17227 12.7419 5.24902 12.8926C5.43737 13.2621 5.73794 13.5626 6.10742 13.751C6.25807 13.8277 6.47781 13.8921 6.91406 13.9277C7.36234 13.9643 7.94287 13.9648 8.7998 13.9648H15.2002C16.0571 13.9648 16.6377 13.9643 17.0859 13.9277C17.5222 13.8921 17.7419 13.8277 17.8926 13.751C18.2621 13.5626 18.5626 13.2621 18.751 12.8926C18.8277 12.7419 18.8921 12.5222 18.9277 12.0859C18.951 11.8013 18.9576 11.4633 18.9609 11.0352H5.03906ZM18.9648 3.59961C18.9648 3.31662 18.9633 3.15762 18.9551 3.04395C18.8415 3.03582 18.6825 3.03516 18.4004 3.03516H5.59961C5.31668 3.03516 5.15762 3.03576 5.04395 3.04395C5.03576 3.15762 5.03516 3.31668 5.03516 3.59961V8.96484H18.9648V3.59961ZM21.0352 10.2002C21.0352 11.0231 21.0353 11.7027 20.9902 12.2549C20.9441 12.8191 20.8449 13.341 20.5947 13.832C20.2079 14.591 19.591 15.2079 18.832 15.5947C18.341 15.8449 17.8191 15.9441 17.2549 15.9902C16.7795 16.0291 16.2096 16.0326 15.5352 16.0332V19.5C15.5352 21.4523 13.9523 23.0352 12 23.0352C10.0477 23.0352 8.46484 21.4523 8.46484 19.5V16.0332C7.79043 16.0326 7.22049 16.0291 6.74512 15.9902C6.18095 15.9441 5.65899 15.8449 5.16797 15.5947C4.409 15.2079 3.79208 14.591 3.40527 13.832C3.15509 13.341 3.05588 12.8191 3.00977 12.2549C2.96465 11.7027 2.96484 11.0231 2.96484 10.2002V3.59961C2.96484 3.33696 2.9646 3.07785 2.98242 2.85938C3.00127 2.62866 3.04535 2.3533 3.18652 2.07617L3.26563 1.93555C3.46114 1.61698 3.74128 1.35716 4.07617 1.18652L4.2832 1.09766C4.48814 1.02472 4.6864 0.996555 4.85938 0.982422C5.07785 0.9646 5.33696 0.964843 5.59961 0.964844H18.4004C18.663 0.964843 18.9221 0.9646 19.1406 0.982422C19.3136 0.996555 19.5119 1.02472 19.7168 1.09766L19.9238 1.18652L20.0645 1.26563C20.3373 1.4331 20.5669 1.66266 20.7344 1.93555L20.8135 2.07617L20.9023 2.2832C20.9753 2.48814 21.0034 2.6864 21.0176 2.85938C21.0354 3.07785 21.0352 3.33696 21.0352 3.59961V10.2002Z"/></svg>