<svg xmlns="http://www.w3.org/2000/svg" width="24" height="24" fill="none" viewBox="0 0 24 24"><path fill="currentColor" d="M21 19.9646C21.5715 19.9646 22.035 20.4283 22.0352 20.9998C22.0352 21.5714 21.5716 22.0349 21 22.0349H3C2.42839 22.0349 1.96484 21.5714 1.96484 20.9998C1.96496 20.4283 2.42846 19.9646 3 19.9646H21ZM4.96484 17.9998V9.99978C4.96496 9.42826 5.42846 8.96462 6 8.96462C6.57154 8.96462 7.03504 9.42826 7.03516 9.99978V17.9998C7.03516 18.5714 6.57161 19.0349 6 19.0349C5.42839 19.0349 4.96484 18.5714 4.96484 17.9998ZM8.96484 17.9998V9.99978C8.96496 9.42826 9.42846 8.96462 10 8.96462C10.5715 8.96462 11.035 9.42826 11.0352 9.99978V17.9998C11.0352 18.5714 10.5716 19.0349 10 19.0349C9.42839 19.0349 8.96484 18.5714 8.96484 17.9998ZM12.9648 17.9998V9.99978C12.965 9.42826 13.4285 8.96462 14 8.96462C14.5715 8.96462 15.035 9.42826 15.0352 9.99978V17.9998C15.0352 18.5714 14.5716 19.0349 14 19.0349C13.4284 19.0349 12.9648 18.5714 12.9648 17.9998ZM16.9648 17.9998V9.99978C16.965 9.42826 17.4285 8.96462 18 8.96462C18.5715 8.96462 19.035 9.42826 19.0352 9.99978V17.9998C19.0352 18.5714 18.5716 19.0349 18 19.0349C17.4284 19.0349 16.9648 18.5714 16.9648 17.9998ZM12.1709 1.06423L12.3398 1.09255L12.4482 1.12185C12.6941 1.20026 12.8944 1.33857 12.9727 1.38747L20.5488 6.12185C20.9402 6.36648 21.1222 6.84123 20.9951 7.28493C20.8678 7.72877 20.4617 8.03493 20 8.03493H4C3.53828 8.03493 3.13217 7.72877 3.00488 7.28493C2.87783 6.84123 3.05976 6.36648 3.45117 6.12185L11.0273 1.38747C11.1168 1.33158 11.3661 1.15936 11.6602 1.09255L11.8291 1.06423C11.9427 1.05151 12.0573 1.05151 12.1709 1.06423ZM7.60938 5.96462H16.3906L12 3.22048L7.60938 5.96462Z"/></svg>