<svg xmlns="http://www.w3.org/2000/svg" width="24" height="24" fill="none" viewBox="0 0 24 24"><path fill="currentColor" d="M18.9648 6.2002C18.9648 5.62309 18.9644 5.25228 18.9414 4.9707C18.9194 4.7012 18.8816 4.60521 18.8594 4.56152C18.7669 4.38032 18.6197 4.23308 18.4385 4.14062C18.3948 4.11837 18.2988 4.08061 18.0293 4.05859C17.7477 4.03559 17.3769 4.03516 16.7998 4.03516H7.2002C6.62309 4.03516 6.25228 4.03559 5.9707 4.05859C5.7012 4.08061 5.60521 4.11837 5.56152 4.14062C5.38033 4.23308 5.23308 4.38033 5.14062 4.56152C5.11837 4.60521 5.08061 4.7012 5.05859 4.9707C5.03559 5.25228 5.03516 5.62309 5.03516 6.2002V19.9648H18.9648V6.2002ZM10.25 13.9648C10.8216 13.9648 11.2852 14.4284 11.2852 15C11.2852 15.5716 10.8216 16.0352 10.25 16.0352H7.5C6.92839 16.0352 6.46484 15.5716 6.46484 15C6.46484 14.4284 6.92839 13.9648 7.5 13.9648H10.25ZM16.5 13.9648C17.0716 13.9648 17.5352 14.4284 17.5352 15C17.5352 15.5716 17.0716 16.0352 16.5 16.0352H13.75C13.1784 16.0352 12.7148 15.5716 12.7148 15C12.7148 14.4284 13.1784 13.9648 13.75 13.9648H16.5ZM10.25 9.96484C10.8216 9.96484 11.2852 10.4284 11.2852 11C11.2852 11.5716 10.8216 12.0352 10.25 12.0352H7.5C6.92839 12.0352 6.46484 11.5716 6.46484 11C6.46484 10.4284 6.92839 9.96484 7.5 9.96484H10.25ZM16.5 9.96484C17.0716 9.96484 17.5352 10.4284 17.5352 11C17.5352 11.5716 17.0716 12.0352 16.5 12.0352H13.75C13.1784 12.0352 12.7148 11.5716 12.7148 11C12.7148 10.4284 13.1784 9.96484 13.75 9.96484H16.5ZM10.25 5.96484C10.8216 5.96484 11.2852 6.42839 11.2852 7C11.2852 7.57161 10.8216 8.03516 10.25 8.03516H7.5C6.92839 8.03516 6.46484 7.57161 6.46484 7C6.46484 6.42839 6.92839 5.96484 7.5 5.96484H10.25ZM16.5 5.96484C17.0716 5.96484 17.5352 6.42839 17.5352 7C17.5352 7.57161 17.0716 8.03516 16.5 8.03516H13.75C13.1784 8.03516 12.7148 7.57161 12.7148 7C12.7148 6.42839 13.1784 5.96484 13.75 5.96484H16.5ZM21.0352 19.9648H22C22.5716 19.9648 23.0352 20.4284 23.0352 21C23.0352 21.5716 22.5716 22.0352 22 22.0352H2C1.42839 22.0352 0.964844 21.5716 0.964844 21C0.964844 20.4284 1.42839 19.9648 2 19.9648H2.96484V6.2002C2.96484 5.65722 2.9646 5.18718 2.99609 4.80176C3.02859 4.40438 3.10024 4.00608 3.2959 3.62207C3.58686 3.05107 4.05107 2.58686 4.62207 2.2959C5.00608 2.10024 5.40438 2.02859 5.80176 1.99609C6.18718 1.9646 6.65722 1.96484 7.2002 1.96484H16.7998C17.3428 1.96484 17.8128 1.9646 18.1982 1.99609C18.5956 2.02859 18.9939 2.10024 19.3779 2.2959C19.9489 2.58686 20.4131 3.05108 20.7041 3.62207C20.8998 4.00608 20.9714 4.40438 21.0039 4.80176C21.0354 5.18718 21.0352 5.65722 21.0352 6.2002V19.9648Z"/></svg>