<svg xmlns="http://www.w3.org/2000/svg" width="24" height="24" fill="none" viewBox="0 0 24 24"><path fill="currentColor" d="M19.9648 14.2002C19.9648 13.6231 19.9644 13.2523 19.9414 12.9707C19.9194 12.7012 19.8816 12.6052 19.8594 12.5615C19.7669 12.3803 19.6197 12.2331 19.4385 12.1406C19.3948 12.1184 19.2988 12.0806 19.0293 12.0586C18.7477 12.0356 18.3769 12.0352 17.7998 12.0352H14.0352V19.9648H19.9648V14.2002ZM9.5 13.9648C10.0716 13.9648 10.5352 14.4284 10.5352 15C10.5352 15.5716 10.0716 16.0352 9.5 16.0352H6.5C5.92839 16.0352 5.46484 15.5716 5.46484 15C5.46484 14.4284 5.92839 13.9648 6.5 13.9648H9.5ZM9.5 9.96484C10.0716 9.96484 10.5352 10.4284 10.5352 11C10.5352 11.5716 10.0716 12.0352 9.5 12.0352H6.5C5.92839 12.0352 5.46484 11.5716 5.46484 11C5.46484 10.4284 5.92839 9.96484 6.5 9.96484H9.5ZM9.5 5.96484C10.0716 5.96484 10.5352 6.42839 10.5352 7C10.5352 7.57161 10.0716 8.03516 9.5 8.03516H6.5C5.92839 8.03516 5.46484 7.57161 5.46484 7C5.46484 6.42839 5.92839 5.96484 6.5 5.96484H9.5ZM11.9648 6.2002C11.9648 5.62309 11.9644 5.25228 11.9414 4.9707C11.9194 4.7012 11.8816 4.60521 11.8594 4.56152C11.7669 4.38033 11.6197 4.23308 11.4385 4.14062C11.3948 4.11837 11.2988 4.08061 11.0293 4.05859C10.7477 4.03559 10.3769 4.03516 9.7998 4.03516H6.2002C5.62309 4.03516 5.25228 4.03559 4.9707 4.05859C4.7012 4.08061 4.60521 4.11837 4.56152 4.14062C4.38033 4.23308 4.23308 4.38033 4.14062 4.56152C4.11837 4.60521 4.08061 4.7012 4.05859 4.9707C4.03559 5.25228 4.03516 5.62309 4.03516 6.2002V19.9648H11.9648V6.2002ZM14.0352 9.96484H17.7998C18.3428 9.96484 18.8128 9.9646 19.1982 9.99609C19.5956 10.0286 19.9939 10.1002 20.3779 10.2959C20.9489 10.5869 21.4131 11.0511 21.7041 11.6221C21.8998 12.0061 21.9714 12.4044 22.0039 12.8018C22.0354 13.1872 22.0352 13.6572 22.0352 14.2002V19.9668C22.5905 19.9854 23.0352 20.4402 23.0352 21C23.0352 21.5716 22.5716 22.0352 22 22.0352H2C1.42839 22.0352 0.964844 21.5716 0.964844 21C0.964844 20.4402 1.40952 19.9854 1.96484 19.9668V6.2002C1.96484 5.65722 1.9646 5.18718 1.99609 4.80176C2.02859 4.40438 2.10024 4.00608 2.2959 3.62207C2.58686 3.05107 3.05107 2.58686 3.62207 2.2959C4.00608 2.10024 4.40438 2.02859 4.80176 1.99609C5.18718 1.9646 5.65722 1.96484 6.2002 1.96484H9.7998C10.3428 1.96484 10.8128 1.9646 11.1982 1.99609C11.5956 2.02859 11.9939 2.10024 12.3779 2.2959C12.9489 2.58686 13.4131 3.05107 13.7041 3.62207C13.8998 4.00608 13.9714 4.40438 14.0039 4.80176C14.0354 5.18718 14.0352 5.65722 14.0352 6.2002V9.96484Z"/></svg>