<svg xmlns="http://www.w3.org/2000/svg" width="24" height="24" fill="none" viewBox="0 0 24 24"><path fill="currentColor" d="M19.9648 12.5996C19.9648 12.3166 19.9633 12.1576 19.9551 12.0439C19.8415 12.0358 19.6825 12.0352 19.4004 12.0352H17.5352V19.9648H19.9648V12.5996ZM13 13.9648C13.5716 13.9648 14.0352 14.4284 14.0352 15C14.0352 15.5716 13.5716 16.0352 13 16.0352H11C10.4284 16.0352 9.96484 15.5716 9.96484 15C9.96484 14.4284 10.4284 13.9648 11 13.9648H13ZM13 9.96484C13.5716 9.96484 14.0352 10.4284 14.0352 11C14.0352 11.5716 13.5716 12.0352 13 12.0352H11C10.4284 12.0352 9.96484 11.5716 9.96484 11C9.96484 10.4284 10.4284 9.96484 11 9.96484H13ZM13 5.96484C13.5716 5.96484 14.0352 6.42839 14.0352 7C14.0352 7.57161 13.5716 8.03516 13 8.03516H11C10.4284 8.03516 9.96484 7.57161 9.96484 7C9.96484 6.42839 10.4284 5.96484 11 5.96484H13ZM4.03516 19.9648H6.46484V12.0352H4.59961C4.31668 12.0352 4.15762 12.0358 4.04395 12.0439C4.03576 12.1576 4.03516 12.3167 4.03516 12.5996V19.9648ZM15.4648 6.2002C15.4648 5.62309 15.4644 5.25228 15.4414 4.9707C15.4194 4.7012 15.3816 4.60521 15.3594 4.56152C15.2669 4.38033 15.1197 4.23308 14.9385 4.14062C14.8948 4.11837 14.7988 4.08061 14.5293 4.05859C14.2477 4.03559 13.8769 4.03516 13.2998 4.03516H10.7002C10.1231 4.03516 9.75228 4.03559 9.4707 4.05859C9.2012 4.08061 9.10521 4.11837 9.06152 4.14062C8.88033 4.23308 8.73308 4.38033 8.64062 4.56152C8.61837 4.60521 8.58061 4.7012 8.55859 4.9707C8.53559 5.25228 8.53516 5.62309 8.53516 6.2002V19.9648H15.4648V6.2002ZM17.5352 9.96484H19.4004C19.663 9.96484 19.9221 9.9646 20.1406 9.98242C20.3713 10.0013 20.6467 10.0454 20.9238 10.1865C21.2587 10.3572 21.5389 10.617 21.7344 10.9355L21.8135 11.0762L21.9023 11.2832C21.9753 11.4881 22.0034 11.6864 22.0176 11.8594C22.0354 12.0779 22.0352 12.337 22.0352 12.5996V19.9668C22.5905 19.9854 23.0352 20.4402 23.0352 21C23.0352 21.5716 22.5716 22.0352 22 22.0352H2C1.42839 22.0352 0.964844 21.5716 0.964844 21C0.964844 20.4402 1.40952 19.9854 1.96484 19.9668V12.5996C1.96484 12.337 1.9646 12.0779 1.98242 11.8594C2.00127 11.6287 2.04535 11.3533 2.18652 11.0762L2.26562 10.9355C2.46114 10.617 2.74128 10.3572 3.07617 10.1865L3.2832 10.0977C3.48814 10.0247 3.6864 9.99655 3.85938 9.98242C4.07785 9.9646 4.33696 9.96484 4.59961 9.96484H6.46484V6.2002C6.46484 5.65722 6.4646 5.18718 6.49609 4.80176C6.52859 4.40438 6.60024 4.00608 6.7959 3.62207C7.08686 3.05107 7.55107 2.58686 8.12207 2.2959C8.50608 2.10024 8.90438 2.02859 9.30176 1.99609C9.68718 1.9646 10.1572 1.96484 10.7002 1.96484H13.2998C13.8428 1.96484 14.3128 1.9646 14.6982 1.99609C15.0956 2.02859 15.4939 2.10024 15.8779 2.2959C16.4489 2.58686 16.9131 3.05107 17.2041 3.62207C17.3998 4.00608 17.4714 4.40438 17.5039 4.80176C17.5354 5.18718 17.5352 5.65722 17.5352 6.2002V9.96484Z"/></svg>