<svg xmlns="http://www.w3.org/2000/svg" width="24" height="24" fill="none" viewBox="0 0 24 24"><path fill="currentColor" d="M16.9648 6.2002C16.9648 5.62309 16.9644 5.25228 16.9414 4.9707C16.9194 4.7012 16.8816 4.60521 16.8594 4.56152C16.7669 4.38033 16.6197 4.23308 16.4385 4.14062C16.3948 4.11837 16.2988 4.08061 16.0293 4.05859C15.7477 4.03559 15.3769 4.03516 14.7998 4.03516H9.2002C8.62309 4.03516 8.25228 4.03559 7.9707 4.05859C7.7012 4.08061 7.60521 4.11837 7.56152 4.14062C7.38033 4.23308 7.23308 4.38033 7.14062 4.56152C7.11837 4.60521 7.08061 4.7012 7.05859 4.9707C7.03559 5.25228 7.03516 5.62309 7.03516 6.2002V19.9648H16.9648V6.2002ZM14.5 13.9648C15.0716 13.9648 15.5352 14.4284 15.5352 15C15.5352 15.5716 15.0716 16.0352 14.5 16.0352H9.5C8.92839 16.0352 8.46484 15.5716 8.46484 15C8.46484 14.4284 8.92839 13.9648 9.5 13.9648H14.5ZM14.5 9.96484C15.0716 9.96484 15.5352 10.4284 15.5352 11C15.5352 11.5716 15.0716 12.0352 14.5 12.0352H9.5C8.92839 12.0352 8.46484 11.5716 8.46484 11C8.46484 10.4284 8.92839 9.96484 9.5 9.96484H14.5ZM14.5 5.96484C15.0716 5.96484 15.5352 6.42839 15.5352 7C15.5352 7.57161 15.0716 8.03516 14.5 8.03516H9.5C8.92839 8.03516 8.46484 7.57161 8.46484 7C8.46484 6.42839 8.92839 5.96484 9.5 5.96484H14.5ZM19.0352 19.9648H20C20.5716 19.9648 21.0352 20.4284 21.0352 21C21.0352 21.5716 20.5716 22.0352 20 22.0352H4C3.42839 22.0352 2.96484 21.5716 2.96484 21C2.96484 20.4284 3.42839 19.9648 4 19.9648H4.96484V6.2002C4.96484 5.65722 4.9646 5.18718 4.99609 4.80176C5.02859 4.40438 5.10024 4.00608 5.2959 3.62207C5.58686 3.05107 6.05107 2.58686 6.62207 2.2959C7.00608 2.10024 7.40438 2.02859 7.80176 1.99609C8.18718 1.9646 8.65722 1.96484 9.2002 1.96484H14.7998C15.3428 1.96484 15.8128 1.9646 16.1982 1.99609C16.5956 2.02859 16.9939 2.10024 17.3779 2.2959C17.9489 2.58686 18.4131 3.05107 18.7041 3.62207C18.8998 4.00608 18.9714 4.40438 19.0039 4.80176C19.0354 5.18718 19.0352 5.65722 19.0352 6.2002V19.9648Z"/></svg>