<svg xmlns="http://www.w3.org/2000/svg" width="24" height="24" fill="none" viewBox="0 0 24 24"><path fill="currentColor" d="M13.9648 15.5996C13.9648 15.3166 13.9633 15.1576 13.9551 15.0439C13.8415 15.0358 13.6825 15.0352 13.4004 15.0352H10.5996C10.3167 15.0352 10.1576 15.0358 10.0439 15.0439C10.0358 15.1576 10.0352 15.3167 10.0352 15.5996V19.9648H13.9648V15.5996ZM9.5 6.46484C10.3478 6.46484 11.0352 7.15224 11.0352 8C11.0352 8.84776 10.3478 9.53516 9.5 9.53516C8.65224 9.53516 7.96484 8.84776 7.96484 8C7.96484 7.15224 8.65224 6.46484 9.5 6.46484ZM14.5 6.46484C15.3478 6.46484 16.0352 7.15224 16.0352 8C16.0352 8.84776 15.3478 9.53516 14.5 9.53516C13.6522 9.53516 12.9648 8.84776 12.9648 8C12.9648 7.15224 13.6522 6.46484 14.5 6.46484ZM16.0352 19.9648H17.9648V6.2002C17.9648 5.62309 17.9644 5.25228 17.9414 4.9707C17.9194 4.7012 17.8816 4.60521 17.8594 4.56152C17.7669 4.38033 17.6197 4.23308 17.4385 4.14062C17.3948 4.11837 17.2988 4.08061 17.0293 4.05859C16.7477 4.03559 16.3769 4.03516 15.7998 4.03516H8.2002C7.62309 4.03516 7.25228 4.03559 6.9707 4.05859C6.7012 4.08061 6.60521 4.11837 6.56152 4.14062C6.38033 4.23308 6.23308 4.38033 6.14062 4.56152C6.11837 4.60521 6.08061 4.7012 6.05859 4.9707C6.03559 5.25228 6.03516 5.62309 6.03516 6.2002V19.9648H7.96484V15.5996C7.96484 15.337 7.9646 15.0779 7.98242 14.8594C8.00127 14.6287 8.04535 14.3533 8.18652 14.0762L8.26562 13.9355C8.46114 13.617 8.74128 13.3572 9.07617 13.1865L9.2832 13.0977C9.48814 13.0247 9.6864 12.9966 9.85938 12.9824C10.0779 12.9646 10.337 12.9648 10.5996 12.9648H13.4004C13.663 12.9648 13.9221 12.9646 14.1406 12.9824C14.3713 13.0013 14.6467 13.0454 14.9238 13.1865C15.2587 13.3572 15.5389 13.617 15.7344 13.9355L15.8135 14.0762L15.9023 14.2832C15.9753 14.4881 16.0034 14.6864 16.0176 14.8594C16.0354 15.0779 16.0352 15.337 16.0352 15.5996V19.9648ZM20.0352 19.9648H21C21.5716 19.9648 22.0352 20.4284 22.0352 21C22.0352 21.5716 21.5716 22.0352 21 22.0352H3C2.42839 22.0352 1.96484 21.5716 1.96484 21C1.96484 20.4284 2.42839 19.9648 3 19.9648H3.96484V6.2002C3.96484 5.65722 3.9646 5.18718 3.99609 4.80176C4.02859 4.40438 4.10024 4.00608 4.2959 3.62207C4.58686 3.05107 5.05107 2.58686 5.62207 2.2959C6.00608 2.10024 6.40438 2.02859 6.80176 1.99609C7.18718 1.9646 7.65722 1.96484 8.2002 1.96484H15.7998C16.3428 1.96484 16.8128 1.9646 17.1982 1.99609C17.5956 2.02859 17.9939 2.10024 18.3779 2.2959C18.9489 2.58686 19.4131 3.05107 19.7041 3.62207C19.8998 4.00608 19.9714 4.40438 20.0039 4.80176C20.0354 5.18718 20.0352 5.65722 20.0352 6.2002V19.9648Z"/></svg>