<svg xmlns="http://www.w3.org/2000/svg" width="24" height="24" fill="none" viewBox="0 0 24 24"><path fill="currentColor" d="M19.9648 6.2002C19.9648 5.62309 19.9644 5.25228 19.9414 4.9707C19.9194 4.7012 19.8816 4.60521 19.8594 4.56152C19.7669 4.38032 19.6197 4.23308 19.4385 4.14062C19.3948 4.11837 19.2988 4.08061 19.0293 4.05859C18.7477 4.03559 18.3769 4.03516 17.7998 4.03516H14.2002C13.6231 4.03516 13.2523 4.03559 12.9707 4.05859C12.7012 4.08061 12.6052 4.11837 12.5615 4.14062C12.3803 4.23308 12.2331 4.38033 12.1406 4.56152C12.1184 4.60521 12.0806 4.7012 12.0586 4.9707C12.0356 5.25228 12.0352 5.62309 12.0352 6.2002V19.9648H19.9648V6.2002ZM17.5 13.9648C18.0716 13.9648 18.5352 14.4284 18.5352 15C18.5352 15.5716 18.0716 16.0352 17.5 16.0352H14.5C13.9284 16.0352 13.4648 15.5716 13.4648 15C13.4648 14.4284 13.9284 13.9648 14.5 13.9648H17.5ZM17.5 9.96484C18.0716 9.96484 18.5352 10.4284 18.5352 11C18.5352 11.5716 18.0716 12.0352 17.5 12.0352H14.5C13.9284 12.0352 13.4648 11.5716 13.4648 11C13.4648 10.4284 13.9284 9.96484 14.5 9.96484H17.5ZM17.5 5.96484C18.0716 5.96484 18.5352 6.42839 18.5352 7C18.5352 7.57161 18.0716 8.03516 17.5 8.03516H14.5C13.9284 8.03516 13.4648 7.57161 13.4648 7C13.4648 6.42839 13.9284 5.96484 14.5 5.96484H17.5ZM4.03516 19.9648H9.96484V12.0352H6.2002C5.62309 12.0352 5.25228 12.0356 4.9707 12.0586C4.7012 12.0806 4.60521 12.1184 4.56152 12.1406C4.38033 12.2331 4.23308 12.3803 4.14062 12.5615C4.11837 12.6052 4.08061 12.7012 4.05859 12.9707C4.03559 13.2523 4.03516 13.6231 4.03516 14.2002V19.9648ZM22.0352 19.9668C22.5905 19.9854 23.0352 20.4402 23.0352 21C23.0352 21.5716 22.5716 22.0352 22 22.0352H2C1.42839 22.0352 0.964844 21.5716 0.964844 21C0.964844 20.4402 1.40952 19.9854 1.96484 19.9668V14.2002C1.96484 13.6572 1.9646 13.1872 1.99609 12.8018C2.02859 12.4044 2.10024 12.0061 2.2959 11.6221C2.58686 11.0511 3.05107 10.5869 3.62207 10.2959C4.00608 10.1002 4.40438 10.0286 4.80176 9.99609C5.18718 9.9646 5.65722 9.96484 6.2002 9.96484H9.96484V6.2002C9.96484 5.65722 9.9646 5.18718 9.99609 4.80176C10.0286 4.40438 10.1002 4.00608 10.2959 3.62207C10.5869 3.05107 11.0511 2.58686 11.6221 2.2959C12.0061 2.10024 12.4044 2.02859 12.8018 1.99609C13.1872 1.9646 13.6572 1.96484 14.2002 1.96484H17.7998C18.3428 1.96484 18.8128 1.9646 19.1982 1.99609C19.5956 2.02859 19.9939 2.10024 20.3779 2.2959C20.9489 2.58686 21.4131 3.05108 21.7041 3.62207C21.8998 4.00608 21.9714 4.40438 22.0039 4.80176C22.0354 5.18718 22.0352 5.65722 22.0352 6.2002V19.9668Z"/></svg>