<svg xmlns="http://www.w3.org/2000/svg" width="24" height="24" fill="none" viewBox="0 0 24 24"><path fill="currentColor" d="M17.9648 20.0068C17.5524 20.0283 17.0777 20.0327 16.5352 20.0332V20.9648H17.9648V20.0068ZM6.03516 20.9648H7.46484V20.0332C6.92226 20.0327 6.4476 20.0283 6.03516 20.0068V20.9648ZM8 14.4648C8.57161 14.4648 9.03516 14.9284 9.03516 15.5C9.03516 16.0716 8.57161 16.5352 8 16.5352H6.5C5.92839 16.5352 5.46484 16.0716 5.46484 15.5C5.46484 14.9284 5.92839 14.4648 6.5 14.4648H8ZM17.5 14.4648C18.0716 14.4648 18.5352 14.9284 18.5352 15.5C18.5352 16.0716 18.0716 16.5352 17.5 16.5352H16C15.4284 16.5352 14.9648 16.0716 14.9648 15.5C14.9648 14.9284 15.4284 14.4648 16 14.4648H17.5ZM7.7998 3.03516C6.94287 3.03516 6.36234 3.03565 5.91406 3.07227C5.47781 3.10791 5.25807 3.17227 5.10742 3.24902C4.73794 3.43737 4.43737 3.73794 4.24902 4.10742C4.20484 4.19414 4.16664 4.30439 4.13379 4.46484H19.8662C19.8334 4.30439 19.7952 4.19414 19.751 4.10742C19.5626 3.73794 19.2621 3.43737 18.8926 3.24902C18.7419 3.17227 18.5222 3.10791 18.0859 3.07227C17.6377 3.03565 17.0571 3.03516 16.2002 3.03516H7.7998ZM19.9648 13.0352H4.03516V14.2002C4.03516 15.0571 4.03565 15.6377 4.07227 16.0859C4.10791 16.5222 4.17227 16.7419 4.24902 16.8926C4.43737 17.2621 4.73794 17.5626 5.10742 17.751C5.25807 17.8277 5.47781 17.8921 5.91406 17.9277C6.36234 17.9643 6.94287 17.9648 7.7998 17.9648H16.2002C17.0571 17.9648 17.6377 17.9643 18.0859 17.9277C18.5222 17.8921 18.7419 17.8277 18.8926 17.751C19.2621 17.5626 19.5626 17.2621 19.751 16.8926C19.8277 16.7419 19.8921 16.5222 19.9277 16.0859C19.9643 15.6377 19.9648 15.0571 19.9648 14.2002V13.0352ZM19.9639 6.53516H4.03613C4.03607 6.62035 4.03516 6.70851 4.03516 6.7998V10.9648H19.9648V6.7998C19.9648 6.70851 19.9639 6.62035 19.9639 6.53516ZM22.0352 14.2002C22.0352 15.0231 22.0353 15.7027 21.9902 16.2549C21.9441 16.8191 21.8449 17.341 21.5947 17.832C21.2433 18.5216 20.7005 19.0914 20.0352 19.4805V21.2002C20.0352 21.323 20.0354 21.4772 20.0244 21.6123C20.0124 21.7597 19.9821 21.9736 19.8682 22.1973C19.721 22.486 19.486 22.721 19.1973 22.8682C18.9736 22.9821 18.7597 23.0124 18.6123 23.0244C18.4772 23.0354 18.323 23.0352 18.2002 23.0352H16.2998C16.177 23.0352 16.0228 23.0354 15.8877 23.0244C15.7403 23.0124 15.5264 22.9821 15.3027 22.8682C15.014 22.721 14.779 22.486 14.6318 22.1973C14.5179 21.9736 14.4876 21.7597 14.4756 21.6123C14.4646 21.4772 14.4648 21.323 14.4648 21.2002V20.0352H9.53516V21.2002C9.53516 21.323 9.53543 21.4772 9.52441 21.6123C9.51237 21.7597 9.48215 21.9736 9.36816 22.1973C9.22101 22.486 8.986 22.721 8.69727 22.8682C8.47356 22.9821 8.25969 23.0124 8.1123 23.0244C7.97716 23.0354 7.82299 23.0352 7.7002 23.0352H5.7998C5.67701 23.0352 5.52284 23.0354 5.3877 23.0244C5.24031 23.0124 5.02644 22.9821 4.80273 22.8682C4.514 22.721 4.27899 22.486 4.13184 22.1973C4.01785 21.9736 3.98763 21.7597 3.97559 21.6123C3.96457 21.4772 3.96484 21.323 3.96484 21.2002V19.4805C3.29953 19.0914 2.75671 18.5216 2.40527 17.832C2.15509 17.341 2.05588 16.8191 2.00977 16.2549C1.96465 15.7027 1.96484 15.0231 1.96484 14.2002V6.7998C1.96484 6.36543 1.96623 5.97106 1.97266 5.61426C1.96852 5.57669 1.96484 5.53867 1.96484 5.5C1.96484 5.44409 1.97096 5.38945 1.97949 5.33594C1.98606 5.12475 1.99484 4.92784 2.00977 4.74512C2.05588 4.18095 2.15509 3.65899 2.40527 3.16797C2.79208 2.409 3.409 1.79208 4.16797 1.40527C4.65899 1.15509 5.18095 1.05588 5.74512 1.00977C6.29725 0.964654 6.97689 0.964844 7.7998 0.964844H16.2002C17.0231 0.964844 17.7027 0.964654 18.2549 1.00977C18.8191 1.05588 19.341 1.15509 19.832 1.40527C20.591 1.79208 21.2079 2.409 21.5947 3.16797C21.8449 3.65899 21.9441 4.18095 21.9902 4.74512C22.0052 4.92784 22.0139 5.12475 22.0205 5.33594C22.029 5.38945 22.0352 5.44409 22.0352 5.5C22.0352 5.53867 22.0315 5.57669 22.0273 5.61426C22.0338 5.97106 22.0352 6.36543 22.0352 6.7998V14.2002Z"/></svg>