<svg xmlns="http://www.w3.org/2000/svg" width="24" height="24" fill="none" viewBox="0 0 24 24"><path fill="currentColor" d="M14.1006 14.6338C15.1683 13.765 16.4874 13.8051 17.4961 14.3955C18.5029 13.8051 19.8115 13.7762 20.8838 14.625C22.2322 15.6925 22.405 17.5533 21.3545 18.8408C20.9464 19.341 20.1133 20.1014 19.4512 20.6855C19.1063 20.9897 18.7847 21.2672 18.5488 21.4678C18.4309 21.5681 18.334 21.6494 18.2666 21.7061C18.2331 21.7342 18.2066 21.7563 18.1885 21.7715C18.1794 21.7791 18.1718 21.7851 18.167 21.7891C18.1647 21.791 18.1634 21.7929 18.1621 21.7939L18.1602 21.7949V21.7959L17.498 21L18.1592 21.7959C17.7757 22.1147 17.2194 22.1147 16.8359 21.7959L16.835 21.7949L16.833 21.7939C16.8317 21.7929 16.8304 21.7909 16.8281 21.7891C16.8233 21.7851 16.8157 21.7791 16.8066 21.7715C16.7885 21.7563 16.762 21.7342 16.7285 21.7061C16.6611 21.6494 16.5642 21.5681 16.4463 21.4678C16.2104 21.2672 15.8888 20.9897 15.5439 20.6855C14.8818 20.1015 14.0487 19.341 13.6406 18.8408C12.5804 17.5413 12.7927 15.6981 14.1006 14.6338ZM16.7275 16.4033C16.3375 15.9691 15.7903 15.9275 15.4072 16.2393C14.9618 16.6017 14.9277 17.1442 15.2441 17.5322C15.5246 17.8759 16.2198 18.5222 16.9131 19.1338C17.1203 19.3166 17.3208 19.4881 17.4971 19.6396C17.6735 19.4879 17.8746 19.3168 18.082 19.1338C18.7753 18.5222 19.4706 17.8759 19.751 17.5322C20.0772 17.1322 20.0337 16.5924 19.5986 16.248C19.1896 15.9243 18.6501 15.9775 18.2676 16.4033C18.0714 16.6218 17.7917 16.7469 17.498 16.7471C17.2043 16.7471 16.9238 16.6219 16.7275 16.4033ZM14.9648 6V5.03516H9.03516V6C9.03516 6.57161 8.57161 7.03516 8 7.03516C7.42839 7.03516 6.96484 6.57161 6.96484 6V5.03809C6.53667 5.04142 6.1987 5.04902 5.91406 5.07227C5.47781 5.10791 5.25807 5.17227 5.10742 5.24902C4.73794 5.43737 4.43737 5.73794 4.24902 6.10742C4.17227 6.25807 4.10791 6.47781 4.07227 6.91406C4.03565 7.36234 4.03516 7.94287 4.03516 8.7998V8.96484H19.9648V8.7998C19.9648 7.94287 19.9643 7.36234 19.9277 6.91406C19.8921 6.47781 19.8277 6.25806 19.751 6.10742C19.5626 5.73794 19.2621 5.43737 18.8926 5.24902C18.7419 5.17227 18.5222 5.10791 18.0859 5.07227C17.8013 5.04902 17.4633 5.04142 17.0352 5.03809V6C17.0352 6.57161 16.5716 7.03516 16 7.03516C15.4284 7.03516 14.9648 6.57161 14.9648 6ZM22.0352 11.5C22.0352 12.0716 21.5716 12.5352 21 12.5352C20.4284 12.5352 19.9648 12.0716 19.9648 11.5V11.0352H4.03516V17.2002C4.03516 18.0571 4.03565 18.6377 4.07227 19.0859C4.10791 19.5222 4.17227 19.7419 4.24902 19.8926C4.43737 20.2621 4.73794 20.5626 5.10742 20.751C5.25806 20.8277 5.47781 20.8921 5.91406 20.9277C6.36234 20.9643 6.94287 20.9648 7.7998 20.9648H12.5C13.0716 20.9648 13.5352 21.4284 13.5352 22C13.5352 22.5716 13.0716 23.0352 12.5 23.0352H7.7998C6.97689 23.0352 6.29725 23.0353 5.74512 22.9902C5.18095 22.9441 4.65899 22.8449 4.16797 22.5947C3.409 22.2079 2.79208 21.591 2.40527 20.832C2.15508 20.341 2.05588 19.8191 2.00977 19.2549C1.96465 18.7027 1.96484 18.0231 1.96484 17.2002V8.7998C1.96484 7.97689 1.96465 7.29725 2.00977 6.74512C2.05588 6.18095 2.15509 5.65899 2.40527 5.16797C2.79208 4.409 3.409 3.79208 4.16797 3.40527C4.65899 3.15509 5.18095 3.05588 5.74512 3.00977C6.09816 2.98092 6.50348 2.97226 6.96484 2.96875V2C6.96484 1.42839 7.42839 0.964844 8 0.964844C8.57161 0.964844 9.03516 1.42839 9.03516 2V2.96484H14.9648V2C14.9648 1.42839 15.4284 0.964844 16 0.964844C16.5716 0.964844 17.0352 1.42839 17.0352 2V2.96875C17.4965 2.97226 17.9018 2.98092 18.2549 3.00977C18.8191 3.05588 19.341 3.15509 19.832 3.40527C20.591 3.79208 21.2079 4.409 21.5947 5.16797C21.8449 5.65899 21.9441 6.18095 21.9902 6.74512C22.0353 7.29725 22.0352 7.97689 22.0352 8.7998V11.5Z"/></svg>