<svg xmlns="http://www.w3.org/2000/svg" width="24" height="24" fill="none" viewBox="0 0 24 24"><path fill="currentColor" d="M19.9648 11.0352H4.03516V17.2002C4.03516 18.0571 4.03565 18.6377 4.07227 19.0859C4.10791 19.5222 4.17227 19.7419 4.24902 19.8926C4.43737 20.2621 4.73794 20.5626 5.10742 20.751C5.25807 20.8277 5.47781 20.8921 5.91406 20.9277C6.36234 20.9643 6.94287 20.9648 7.7998 20.9648H16.2002C17.0571 20.9648 17.6377 20.9643 18.0859 20.9277C18.5222 20.8921 18.7419 20.8277 18.8926 20.751C19.2621 20.5626 19.5626 20.2621 19.751 19.8926C19.8277 19.7419 19.8921 19.5222 19.9277 19.0859C19.9643 18.6377 19.9648 18.0571 19.9648 17.2002V11.0352ZM11.4258 12.1387C11.7434 11.9269 12.1517 11.9078 12.4883 12.0879C12.8248 12.268 13.0352 12.6183 13.0352 13V16.9648H13.25C13.8216 16.9648 14.2852 17.4284 14.2852 18C14.2852 18.5716 13.8216 19.0352 13.25 19.0352H10.75C10.1784 19.0352 9.71484 18.5716 9.71484 18C9.71484 17.4284 10.1784 16.9648 10.75 16.9648H10.9648V14.9229C10.5041 15.1557 9.93221 15.0145 9.63867 14.5742C9.3216 14.0986 9.45017 13.4557 9.92578 13.1387L11.4258 12.1387ZM14.9648 6V5.03516H9.03516V6C9.03516 6.57161 8.57161 7.03516 8 7.03516C7.42839 7.03516 6.96484 6.57161 6.96484 6V5.03809C6.53667 5.04142 6.1987 5.04902 5.91406 5.07227C5.47781 5.10791 5.25807 5.17227 5.10742 5.24902C4.73794 5.43737 4.43737 5.73794 4.24902 6.10742C4.17227 6.25807 4.10791 6.47781 4.07227 6.91406C4.03565 7.36234 4.03516 7.94287 4.03516 8.7998V8.96484H19.9648V8.7998C19.9648 7.94287 19.9643 7.36234 19.9277 6.91406C19.8921 6.47781 19.8277 6.25807 19.751 6.10742C19.5626 5.73794 19.2621 5.43737 18.8926 5.24902C18.7419 5.17227 18.5222 5.10791 18.0859 5.07227C17.8013 5.04902 17.4633 5.04142 17.0352 5.03809V6C17.0352 6.57161 16.5716 7.03516 16 7.03516C15.4284 7.03516 14.9648 6.57161 14.9648 6ZM22.0352 17.2002C22.0352 18.0231 22.0353 18.7027 21.9902 19.2549C21.9441 19.8191 21.8449 20.341 21.5947 20.832C21.2079 21.591 20.591 22.2079 19.832 22.5947C19.341 22.8449 18.8191 22.9441 18.2549 22.9902C17.7027 23.0353 17.0231 23.0352 16.2002 23.0352H7.7998C6.97689 23.0352 6.29725 23.0353 5.74512 22.9902C5.18095 22.9441 4.65899 22.8449 4.16797 22.5947C3.409 22.2079 2.79208 21.591 2.40527 20.832C2.15509 20.341 2.05588 19.8191 2.00977 19.2549C1.96465 18.7027 1.96484 18.0231 1.96484 17.2002V8.7998C1.96484 7.97689 1.96465 7.29725 2.00977 6.74512C2.05588 6.18095 2.15509 5.65899 2.40527 5.16797C2.79208 4.409 3.409 3.79208 4.16797 3.40527C4.65899 3.15509 5.18095 3.05588 5.74512 3.00977C6.09816 2.98092 6.50348 2.97226 6.96484 2.96875V2C6.96484 1.42839 7.42839 0.964844 8 0.964844C8.57161 0.964844 9.03516 1.42839 9.03516 2V2.96484H14.9648V2C14.9648 1.42839 15.4284 0.964844 16 0.964844C16.5716 0.964844 17.0352 1.42839 17.0352 2V2.96875C17.4965 2.97226 17.9018 2.98092 18.2549 3.00977C18.8191 3.05588 19.341 3.15509 19.832 3.40527C20.591 3.79208 21.2079 4.409 21.5947 5.16797C21.8449 5.65899 21.9441 6.18095 21.9902 6.74512C22.0353 7.29725 22.0352 7.97689 22.0352 8.7998V17.2002Z"/></svg>