<svg xmlns="http://www.w3.org/2000/svg" width="24" height="24" fill="none" viewBox="0 0 24 24"><path fill="currentColor" d="M20.9648 7.7998C20.9648 6.94287 20.9643 6.36234 20.9277 5.91406C20.8921 5.47781 20.8277 5.25807 20.751 5.10742C20.5626 4.73794 20.2621 4.43737 19.8926 4.24902C19.7419 4.17227 19.5222 4.10791 19.0859 4.07227C18.6377 4.03565 18.0571 4.03516 17.2002 4.03516H6.7998C5.94287 4.03516 5.36234 4.03565 4.91406 4.07227C4.47781 4.10791 4.25807 4.17227 4.10742 4.24902C3.73794 4.43737 3.43737 4.73794 3.24902 5.10742C3.17227 5.25807 3.10791 5.47781 3.07227 5.91406C3.03565 6.36234 3.03516 6.94287 3.03516 7.7998V16.2002C3.03516 17.0571 3.03565 17.6377 3.07227 18.0859C3.10791 18.5222 3.17227 18.7419 3.24902 18.8926C3.43737 19.2621 3.73794 19.5626 4.10742 19.751C4.25807 19.8277 4.47781 19.8921 4.91406 19.9277C5.36234 19.9643 5.94287 19.9648 6.7998 19.9648H17.2002C18.0571 19.9648 18.6377 19.9643 19.0859 19.9277C19.5222 19.8921 19.7419 19.8277 19.8926 19.751C20.2621 19.5626 20.5626 19.2621 20.751 18.8926C20.8277 18.7419 20.8921 18.5222 20.9277 18.0859C20.9643 17.6377 20.9648 17.0571 20.9648 16.2002V7.7998ZM14.9648 12C14.9648 10.3625 13.6375 9.03516 12 9.03516C10.3625 9.03516 9.03516 10.3625 9.03516 12C9.03516 13.6375 10.3625 14.9648 12 14.9648C13.6375 14.9648 14.9648 13.6375 14.9648 12ZM17.0352 12C17.0352 14.7808 14.7808 17.0352 12 17.0352C9.21925 17.0352 6.96484 14.7808 6.96484 12C6.96484 9.21925 9.21925 6.96484 12 6.96484C14.7808 6.96484 17.0352 9.21925 17.0352 12ZM23.0352 16.2002C23.0352 17.0231 23.0353 17.7027 22.9902 18.2549C22.9441 18.8191 22.8449 19.341 22.5947 19.832C22.2079 20.591 21.591 21.2079 20.832 21.5947C20.341 21.8449 19.8191 21.9441 19.2549 21.9902C18.7027 22.0353 18.0231 22.0352 17.2002 22.0352H6.7998C5.97689 22.0352 5.29725 22.0353 4.74512 21.9902C4.18095 21.9441 3.65899 21.8449 3.16797 21.5947C2.409 21.2079 1.79208 20.591 1.40527 19.832C1.15509 19.341 1.05588 18.8191 1.00977 18.2549C0.964654 17.7027 0.964844 17.0231 0.964844 16.2002V7.7998C0.964844 6.97689 0.964654 6.29725 1.00977 5.74512C1.05588 5.18095 1.15509 4.65899 1.40527 4.16797C1.79208 3.409 2.409 2.79208 3.16797 2.40527C3.65899 2.15509 4.18095 2.05588 4.74512 2.00977C5.29725 1.96465 5.97689 1.96484 6.7998 1.96484H17.2002C18.0231 1.96484 18.7027 1.96465 19.2549 2.00977C19.8191 2.05588 20.341 2.15509 20.832 2.40527C21.591 2.79208 22.2079 3.409 22.5947 4.16797C22.8449 4.65899 22.9441 5.18095 22.9902 5.74512C23.0353 6.29725 23.0352 6.97689 23.0352 7.7998V16.2002Z"/></svg>