<svg xmlns="http://www.w3.org/2000/svg" width="24" height="24" fill="none" viewBox="0 0 24 24"><path fill="currentColor" d="M20.9649 8.37695C20.9649 8.00259 20.9634 7.89039 20.9551 7.80664C20.8628 6.87461 20.1254 6.13727 19.1934 6.04492C19.11 6.03669 18.9896 6.03516 18.5947 6.03516C18.4675 6.03516 18.3573 6.03532 18.2578 6.0293C17.0876 5.95833 16.0633 5.21962 15.626 4.13184C15.5889 4.03962 15.5564 3.94067 15.5186 3.82715C15.472 3.68754 15.4622 3.6597 15.4541 3.63965C15.3151 3.29402 14.9891 3.05978 14.6172 3.03711C14.5956 3.0358 14.5661 3.03516 14.419 3.03516H9.58107C9.43398 3.03516 9.4044 3.0358 9.38283 3.03711C9.01097 3.05978 8.68498 3.29402 8.54592 3.63965C8.53786 3.6597 8.528 3.68753 8.48146 3.82715C8.44363 3.94066 8.41111 4.03962 8.37404 4.13184C7.93674 5.21962 6.91244 5.95833 5.74221 6.0293C5.6427 6.03532 5.53252 6.03516 5.40529 6.03516C5.0104 6.03516 4.89008 6.03669 4.80666 6.04492C3.87463 6.13727 3.13728 6.87461 3.04494 7.80664C3.03667 7.89039 3.03517 8.00259 3.03517 8.37695V16.2002C3.03517 17.0571 3.03567 17.6377 3.07228 18.0859C3.10793 18.5222 3.17228 18.7419 3.24904 18.8926C3.43739 19.2621 3.73796 19.5626 4.10744 19.751C4.25808 19.8277 4.47783 19.8921 4.91408 19.9277C5.36235 19.9643 5.94289 19.9648 6.79982 19.9648H17.2002C18.0571 19.9648 18.6377 19.9643 19.086 19.9277C19.5222 19.8921 19.742 19.8277 19.8926 19.751C20.2621 19.5626 20.5626 19.2621 20.751 18.8926C20.8278 18.7419 20.8921 18.5222 20.9278 18.0859C20.9644 17.6377 20.9649 17.0571 20.9649 16.2002V8.37695ZM14.9649 12.5C14.9649 10.8625 13.6375 9.53516 12 9.53516C10.3625 9.53516 9.03517 10.8625 9.03517 12.5C9.03517 14.1375 10.3625 15.4648 12 15.4648C13.6375 15.4648 14.9649 14.1375 14.9649 12.5ZM17.0352 12.5C17.0352 15.2808 14.7808 17.5352 12 17.5352C9.21926 17.5352 6.96486 15.2808 6.96486 12.5C6.96486 9.71925 9.21926 7.46484 12 7.46484C14.7808 7.46484 17.0352 9.71925 17.0352 12.5ZM23.0352 16.2002C23.0352 17.0231 23.0354 17.7027 22.9903 18.2549C22.9441 18.8191 22.8449 19.341 22.5947 19.832C22.2079 20.591 21.591 21.2079 20.832 21.5947C20.341 21.8449 19.8191 21.9441 19.2549 21.9902C18.7028 22.0353 18.0231 22.0352 17.2002 22.0352H6.79982C5.97691 22.0352 5.29727 22.0353 4.74514 21.9902C4.18097 21.9441 3.65901 21.8449 3.16799 21.5947C2.40902 21.2079 1.79209 20.591 1.40529 19.832C1.1551 19.341 1.05589 18.8191 1.00978 18.2549C0.964672 17.7027 0.964862 17.0231 0.964862 16.2002V8.37695C0.964861 8.05175 0.963508 7.81364 0.984393 7.60254C1.17402 5.68868 2.6887 4.174 4.60256 3.98438C4.81402 3.96346 5.0629 3.96484 5.40529 3.96484C5.56261 3.96484 5.59592 3.96418 5.61721 3.96289C5.98907 3.94022 6.31506 3.70598 6.45412 3.36035C6.46218 3.3403 6.47203 3.31247 6.51857 3.17285C6.55641 3.05934 6.58892 2.96039 6.62599 2.86816C7.0633 1.78038 8.0876 1.04167 9.25783 0.970703C9.35703 0.964696 9.46144 0.964844 9.58107 0.964844H14.419C14.5386 0.964844 14.643 0.964696 14.7422 0.970703C15.9124 1.04167 16.9367 1.78038 17.374 2.86816C17.4111 2.96038 17.4436 3.05933 17.4815 3.17285C17.528 3.31246 17.5379 3.3403 17.5459 3.36035C17.685 3.70598 18.011 3.94022 18.3828 3.96289C18.4041 3.96418 18.4374 3.96484 18.5947 3.96484C18.9371 3.96484 19.186 3.96346 19.3975 3.98438C21.3113 4.174 22.826 5.68868 23.0156 7.60254C23.0365 7.81364 23.0352 8.05175 23.0352 8.37695V16.2002Z"/></svg>