<svg xmlns="http://www.w3.org/2000/svg" width="24" height="24" fill="none" viewBox="0 0 24 24"><path fill="currentColor" d="M0.964845 14.5996V9.40039C0.964845 8.29736 0.963724 7.40741 1.02246 6.68848C1.08219 5.95747 1.20895 5.31191 1.51367 4.71387C1.99637 3.76662 2.76662 2.99637 3.71387 2.51367C4.31191 2.20895 4.95747 2.08219 5.68848 2.02246C6.40741 1.96372 7.29737 1.96484 8.40039 1.96484H12.5C13.0716 1.96484 13.5352 2.42839 13.5352 3C13.5352 3.57161 13.0716 4.03516 12.5 4.03516H8.40039C7.26342 4.03516 6.47246 4.03571 5.85742 4.08594C5.25458 4.13519 4.91187 4.2272 4.6543 4.3584C4.0964 4.64266 3.64266 5.0964 3.3584 5.6543C3.2272 5.91187 3.13519 6.25458 3.08594 6.85742C3.03571 7.47246 3.03516 8.26342 3.03516 9.40039V14.5996C3.03516 15.7366 3.03571 16.5275 3.08594 17.1426C3.13519 17.7454 3.2272 18.0881 3.3584 18.3457C3.64266 18.9036 4.0964 19.3573 4.6543 19.6416C4.91187 19.7728 5.25458 19.8648 5.85742 19.9141C6.47246 19.9643 7.26342 19.9648 8.40039 19.9648H15.5996C16.7366 19.9648 17.5275 19.9643 18.1426 19.9141C18.7454 19.8648 19.0881 19.7728 19.3457 19.6416C19.9036 19.3573 20.3573 18.9036 20.6416 18.3457C20.7728 18.0881 20.8648 17.7454 20.9141 17.1426C20.9643 16.5275 20.9648 15.7366 20.9648 14.5996V11.5C20.9648 10.9284 21.4284 10.4648 22 10.4648C22.5716 10.4648 23.0352 10.9284 23.0352 11.5V14.5996C23.0352 15.7026 23.0363 16.5926 22.9775 17.3115C22.9178 18.0425 22.791 18.6881 22.4863 19.2861C22.0036 20.2334 21.2334 21.0036 20.2861 21.4863C19.6881 21.791 19.0425 21.9178 18.3115 21.9775C17.5926 22.0363 16.7026 22.0352 15.5996 22.0352H8.40039C7.29737 22.0352 6.40741 22.0363 5.68848 21.9775C4.95747 21.9178 4.31191 21.791 3.71387 21.4863C2.76662 21.0036 1.99637 20.2334 1.51367 19.2861C1.20895 18.6881 1.08219 18.0425 1.02246 17.3115C0.963724 16.5926 0.964845 15.7026 0.964845 14.5996ZM14.9648 12C14.9648 10.3625 13.6375 9.03516 12 9.03516C10.3625 9.03516 9.03516 10.3625 9.03516 12C9.03516 13.6375 10.3625 14.9648 12 14.9648C13.6375 14.9648 14.9648 13.6375 14.9648 12ZM17.9648 8V6.03516H16C15.4284 6.03516 14.9648 5.57161 14.9648 5C14.9648 4.42839 15.4284 3.96484 16 3.96484H17.9648V2C17.9648 1.42839 18.4284 0.964844 19 0.964844C19.5716 0.964844 20.0352 1.42839 20.0352 2V3.96484H22C22.5716 3.96484 23.0352 4.42839 23.0352 5C23.0352 5.57161 22.5716 6.03516 22 6.03516H20.0352V8C20.0352 8.57161 19.5716 9.03516 19 9.03516C18.4284 9.03516 17.9648 8.57161 17.9648 8ZM17.0352 12C17.0352 14.7808 14.7808 17.0352 12 17.0352C9.21925 17.0352 6.96485 14.7808 6.96485 12C6.96485 9.21925 9.21925 6.96484 12 6.96484C14.7808 6.96484 17.0352 9.21925 17.0352 12Z"/></svg>