<svg xmlns="http://www.w3.org/2000/svg" width="24" height="24" fill="none" viewBox="0 0 24 24"><path fill="currentColor" d="M20.9648 7.70215C20.9648 6.78161 20.2184 6.03516 19.2979 6.03516C18.0772 6.035 16.9934 5.25372 16.6074 4.0957L16.5186 3.82715C16.472 3.68754 16.4622 3.6597 16.4541 3.63965C16.315 3.29402 15.989 3.05978 15.6172 3.03711C15.5956 3.0358 15.566 3.03516 15.4189 3.03516H8.58105C8.43396 3.03516 8.40438 3.0358 8.38281 3.03711C8.01095 3.05978 7.68496 3.29402 7.5459 3.63965C7.53784 3.6597 7.52798 3.68753 7.48145 3.82715L7.39258 4.0957C7.00657 5.25372 5.92278 6.035 4.70215 6.03516C3.78161 6.03516 3.03516 6.78161 3.03516 7.70215V16.2002C3.03516 17.0571 3.03565 17.6377 3.07227 18.0859C3.10791 18.5222 3.17227 18.7419 3.24902 18.8926C3.43737 19.2621 3.73794 19.5626 4.10742 19.751C4.25807 19.8277 4.47781 19.8921 4.91406 19.9277C5.36234 19.9643 5.94287 19.9648 6.7998 19.9648H17.2002C18.0571 19.9648 18.6377 19.9643 19.0859 19.9277C19.5222 19.8921 19.7419 19.8277 19.8926 19.751C20.2621 19.5626 20.5626 19.2621 20.751 18.8926C20.8277 18.7419 20.8921 18.5222 20.9277 18.0859C20.9643 17.6377 20.9648 17.0571 20.9648 16.2002V7.70215ZM15.4648 12C15.4648 10.0863 13.9137 8.53516 12 8.53516C10.0863 8.53516 8.53516 10.0863 8.53516 12C8.53516 13.9137 10.0863 15.4648 12 15.4648C13.9137 15.4648 15.4648 13.9137 15.4648 12ZM17.5352 12C17.5352 15.0569 15.0569 17.5352 12 17.5352C8.9431 17.5352 6.46484 15.0569 6.46484 12C6.46484 8.9431 8.9431 6.46484 12 6.46484C15.0569 6.46484 17.5352 8.9431 17.5352 12ZM23.0352 16.2002C23.0352 17.0231 23.0353 17.7027 22.9902 18.2549C22.9441 18.8191 22.8449 19.341 22.5947 19.832C22.2079 20.591 21.591 21.2079 20.832 21.5947C20.341 21.8449 19.8191 21.9441 19.2549 21.9902C18.7027 22.0353 18.0231 22.0352 17.2002 22.0352H6.7998C5.97689 22.0352 5.29725 22.0353 4.74512 21.9902C4.18095 21.9441 3.65899 21.8449 3.16797 21.5947C2.409 21.2079 1.79208 20.591 1.40527 19.832C1.15509 19.341 1.05588 18.8191 1.00977 18.2549C0.964654 17.7027 0.964844 17.0231 0.964844 16.2002V7.70215C0.964844 5.63838 2.63838 3.96484 4.70215 3.96484C5.0317 3.96469 5.32439 3.75402 5.42871 3.44141L5.51855 3.17285C5.55639 3.05934 5.5889 2.96039 5.62598 2.86816C6.06328 1.78038 7.08758 1.04167 8.25781 0.970703C8.35701 0.964696 8.46142 0.964844 8.58105 0.964844H15.4189C15.5386 0.964844 15.643 0.964696 15.7422 0.970703C16.9124 1.04167 17.9367 1.78038 18.374 2.86816C18.4111 2.96038 18.4436 3.05933 18.4814 3.17285L18.5713 3.44141C18.6756 3.75402 18.9683 3.96469 19.2979 3.96484C21.3616 3.96484 23.0352 5.63838 23.0352 7.70215V16.2002Z"/></svg>