<svg xmlns="http://www.w3.org/2000/svg" width="24" height="24" fill="none" viewBox="0 0 24 24"><g clip-path="url(#a)"><path fill="currentColor" d="M4.19729 4.19741C8.50673 -0.112025 15.4933 -0.11203 19.8028 4.19741C24.1122 8.50685 24.1122 15.4935 19.8028 19.8029C15.4933 24.1123 8.50671 24.1123 4.19729 19.8029C-0.112148 15.4934 -0.112151 8.50683 4.19729 4.19741ZM7.02053 12.7453C5.89526 14.2477 5.29673 16.1272 5.4053 18.0705C5.48873 18.161 5.57331 18.2512 5.66116 18.339C7.04522 19.7231 8.76928 20.5581 10.5645 20.8478C8.74738 19.0997 7.61891 16.7163 7.45315 14.1642C7.23748 13.711 7.09306 13.2326 7.02053 12.7453ZM10.1543 16.6847C10.8927 18.4107 12.2216 19.869 13.959 20.7472C15.5641 20.3893 17.09 19.5879 18.3389 18.339C18.5558 18.1221 18.7592 17.8968 18.9492 17.6642C16.5241 18.3663 13.8926 18.1518 11.5967 17.0167C11.1055 16.9775 10.6192 16.8676 10.1543 16.6847ZM20.3799 8.81558C19.7753 11.2646 18.2747 13.4342 16.1465 14.8546C15.9754 15.1026 15.7812 15.34 15.5606 15.5607C15.4245 15.6968 15.2817 15.8224 15.1348 15.9396C16.9992 16.1628 18.9264 15.7405 20.5557 14.674C21.151 12.7633 21.0928 10.6947 20.3799 8.81558ZM8.86526 8.05972C7.0004 7.83643 5.07193 8.25913 3.44241 9.32632C2.84737 11.2364 2.9068 13.3052 3.61916 15.1837C4.22389 12.735 5.72469 10.565 7.85256 9.14468C8.02367 8.89675 8.21886 8.66021 8.43948 8.4396C8.57568 8.30339 8.71814 8.17705 8.86526 8.05972ZM12 9.0353C11.2412 9.0353 10.4823 9.32452 9.90334 9.90347C8.74544 11.0614 8.74544 12.9389 9.90334 14.0968C11.0612 15.2547 12.9388 15.2547 14.0967 14.0968C14.2255 13.968 14.3374 13.8284 14.4375 13.6837C14.4731 13.608 14.5175 13.5359 14.5713 13.4699C15.0564 12.6223 15.0895 11.5899 14.6699 10.7169C14.6282 10.6554 14.5933 10.5889 14.5655 10.5187C14.4386 10.2994 14.2843 10.0911 14.0967 9.90347C13.567 9.37376 12.8865 9.08915 12.1934 9.04409C12.1291 9.04717 12.0646 9.04444 12 9.0353ZM13.4346 3.15151C15.252 4.89945 16.3799 7.28294 16.5459 9.83511C16.7617 10.2883 16.9059 10.7667 16.9785 11.2541C18.1039 9.75144 18.7026 7.87234 18.5938 5.92886C18.5106 5.83868 18.4264 5.7488 18.3389 5.66128C16.9545 4.27693 15.2302 3.44109 13.4346 3.15151ZM10.0401 3.25308C8.43535 3.61105 6.90984 4.4126 5.66116 5.66128C5.44427 5.87817 5.23984 6.10256 5.04983 6.33511C7.47441 5.63304 10.1057 5.84827 12.4014 6.98257C12.8929 7.02165 13.3796 7.13175 13.8447 7.3146C13.1062 5.58893 11.7775 4.13103 10.0401 3.25308Z"/></g><defs><clipPath id="a"><path fill="#fff" d="M0 0H24V24H0z"/></clipPath></defs></svg>