<svg xmlns="http://www.w3.org/2000/svg" width="24" height="24" fill="none" viewBox="0 0 24 24"><g clip-path="url(#a)"><path fill="currentColor" d="M14.9648 12.5C14.9648 10.8625 13.6375 9.53516 12 9.53516C11.6964 9.53516 11.4042 9.58155 11.1289 9.66602L14.832 13.3691C14.9163 13.0942 14.9648 12.8031 14.9648 12.5ZM0.964844 16.2002V7.5C0.964844 6.92839 1.42839 6.46484 2 6.46484C2.57161 6.46484 3.03516 6.92839 3.03516 7.5V16.2002C3.03516 17.0571 3.03565 17.6377 3.07227 18.0859C3.10791 18.5222 3.17227 18.7419 3.24902 18.8926C3.43737 19.2621 3.73794 19.5626 4.10742 19.751C4.25806 19.8277 4.47781 19.8921 4.91406 19.9277C5.36234 19.9643 5.94287 19.9648 6.7998 19.9648H15.5C16.0716 19.9648 16.5352 20.4284 16.5352 21C16.5352 21.5716 16.0716 22.0352 15.5 22.0352H6.7998C5.97689 22.0352 5.29725 22.0353 4.74512 21.9902C4.18095 21.9441 3.65899 21.8449 3.16797 21.5947C2.409 21.2079 1.79208 20.591 1.40527 19.832C1.15509 19.341 1.05588 18.8191 1.00977 18.2549C0.964654 17.7027 0.964844 17.0231 0.964844 16.2002ZM6.96484 12.5C6.96484 11.9284 7.42839 11.4648 8 11.4648C8.57161 11.4648 9.03516 11.9284 9.03516 12.5C9.03516 14.1375 10.3625 15.4648 12 15.4648C12.5716 15.4648 13.0352 15.9284 13.0352 16.5C13.0352 17.0716 12.5716 17.5352 12 17.5352C9.21925 17.5352 6.96484 15.2808 6.96484 12.5ZM17.0352 12.5C17.0352 13.3848 16.8038 14.2163 16.4023 14.9395L20.6006 19.1377C20.8297 18.8161 20.9648 18.424 20.9648 18V8.37695C20.9648 8.00258 20.9633 7.89039 20.9551 7.80664C20.8627 6.87461 20.1254 6.13727 19.1934 6.04492C19.1099 6.03669 18.9896 6.03516 18.5947 6.03516C18.4675 6.03516 18.3573 6.03532 18.2578 6.0293C17.0876 5.95833 16.0633 5.21962 15.626 4.13184C15.5889 4.03961 15.5564 3.94066 15.5186 3.82715C15.472 3.68753 15.4622 3.65969 15.4541 3.63965C15.315 3.29402 14.989 3.05978 14.6172 3.03711C14.5956 3.0358 14.566 3.03516 14.4189 3.03516H9.58105C9.43396 3.03516 9.40438 3.0358 9.38281 3.03711C9.01095 3.05978 8.68496 3.29402 8.5459 3.63965C8.53784 3.6597 8.52798 3.68754 8.48145 3.82715C8.44361 3.94067 8.41109 4.03962 8.37402 4.13184C8.11712 4.77088 7.65675 5.28763 7.08398 5.62109L9.55859 8.0957C10.2819 7.69406 11.1149 7.46484 12 7.46484C14.7808 7.46484 17.0352 9.71925 17.0352 12.5ZM23.0352 18C23.0352 18.9969 22.6721 19.908 22.0742 20.6113L22.7314 21.2686C23.1356 21.6727 23.1356 22.3273 22.7314 22.7314C22.3273 23.1356 21.6727 23.1356 21.2686 22.7314L19.8408 21.3037C19.8267 21.2899 19.8123 21.2764 19.7988 21.2617L14.4102 15.873C14.4064 15.87 14.4022 15.8674 14.3984 15.8643C14.3465 15.8206 14.2999 15.7725 14.2588 15.7217L8.75586 10.2188C8.71761 10.1858 8.68142 10.1497 8.64746 10.1104L1.26855 2.73145C0.864362 2.32725 0.864362 1.67275 1.26855 1.26856C1.67275 0.864362 2.32725 0.864362 2.73145 1.26856L5.42676 3.96387C5.56709 3.96385 5.59601 3.96417 5.61719 3.96289C5.98905 3.94022 6.31504 3.70598 6.4541 3.36035C6.46216 3.3403 6.47202 3.31246 6.51855 3.17285C6.55639 3.05933 6.58891 2.96038 6.62598 2.86816C7.06328 1.78038 8.08758 1.04167 9.25781 0.970703C9.35701 0.964696 9.46142 0.964844 9.58105 0.964844H14.4189C14.5386 0.964844 14.643 0.964696 14.7422 0.970703C15.9124 1.04167 16.9367 1.78038 17.374 2.86816C17.4111 2.96039 17.4436 3.05934 17.4814 3.17285C17.528 3.31247 17.5378 3.34031 17.5459 3.36035C17.685 3.70598 18.011 3.94022 18.3828 3.96289C18.4041 3.96418 18.4374 3.96484 18.5947 3.96484C18.9371 3.96484 19.186 3.96346 19.3975 3.98438C21.3113 4.174 22.826 5.68868 23.0156 7.60254C23.0365 7.81365 23.0352 8.05176 23.0352 8.37695V18Z"/></g><defs><clipPath id="a"><path fill="#fff" d="M0 0H24V24H0z"/></clipPath></defs></svg>