<svg xmlns="http://www.w3.org/2000/svg" width="24" height="24" fill="none" viewBox="0 0 24 24"><path fill="currentColor" d="M7.99999 11.9646C8.57161 11.9646 9.03515 12.4282 9.03515 12.9998C9.03515 13.5714 8.57161 14.035 7.99999 14.035H4.99999C4.42838 14.035 3.96484 13.5714 3.96484 12.9998C3.96484 12.4282 4.42838 11.9646 4.99999 11.9646H7.99999ZM19 11.9646C19.5716 11.9646 20.0351 12.4282 20.0351 12.9998C20.0351 13.5714 19.5716 14.035 19 14.035H16C15.4284 14.035 14.9648 13.5714 14.9648 12.9998C14.9648 12.4282 15.4284 11.9646 16 11.9646H19ZM8.30663 5.03495C7.38894 5.03495 7.21391 5.05179 7.08788 5.10136C6.93764 5.16049 6.80475 5.2568 6.70116 5.38066C6.61429 5.48454 6.54312 5.64482 6.25292 6.51542L5.43163 8.97636C5.83519 8.96586 6.28993 8.96464 6.7998 8.96464H17.2002C17.7096 8.96464 18.1641 8.96589 18.5674 8.97636L17.7471 6.51542C17.4569 5.64482 17.3857 5.48454 17.2988 5.38066C17.1952 5.2568 17.0623 5.16049 16.9121 5.10136C16.7861 5.05179 16.611 5.03495 15.6934 5.03495H8.30663ZM18.0351 17.9998C18.0351 18.5328 18.467 18.9646 19 18.9646H19.5C20.0143 18.9646 20.1205 18.9596 20.1885 18.9461C20.5711 18.8699 20.8701 18.5709 20.9463 18.1883C20.9598 18.1203 20.9648 18.0141 20.9648 17.4998V14.7996C20.9648 13.9427 20.9643 13.3621 20.9277 12.9139C20.8921 12.4776 20.8277 12.2579 20.751 12.1072C20.5626 11.7377 20.2621 11.4372 19.8926 11.2488C19.7419 11.1721 19.5222 11.1077 19.0859 11.0721C18.6377 11.0354 18.0571 11.035 17.2002 11.035H6.7998C5.94287 11.035 5.36233 11.0354 4.91405 11.0721C4.4778 11.1077 4.25806 11.1721 4.10741 11.2488C3.73793 11.4372 3.43736 11.7377 3.24902 12.1072C3.17226 12.2579 3.1079 12.4776 3.07226 12.9139C3.03565 13.3621 3.03515 13.9427 3.03515 14.7996V17.4998C3.03515 18.0141 3.04017 18.1203 3.0537 18.1883C3.12991 18.5709 3.4289 18.8699 3.81152 18.9461C3.87953 18.9596 3.98573 18.9646 4.49999 18.9646H4.99999C5.53295 18.9646 5.96484 18.5328 5.96484 17.9998C5.96484 17.152 6.65224 16.4646 7.49999 16.4646H16.5C17.3477 16.4646 18.0351 17.152 18.0351 17.9998ZM23.0351 17.4998C23.0351 17.9147 23.0398 18.2733 22.9766 18.5916C22.7371 19.7955 21.7957 20.7369 20.5918 20.9764C20.2735 21.0396 19.9149 21.035 19.5 21.035H19C17.5064 21.035 16.2655 19.9559 16.0127 18.535H7.9873C7.73446 19.9559 6.49354 21.035 4.99999 21.035H4.49999C4.08506 21.035 3.72651 21.0396 3.4082 20.9764C2.20424 20.7369 1.26291 19.7955 1.02343 18.5916C0.960156 18.2733 0.964836 17.9147 0.964836 17.4998V14.7996C0.964836 13.9767 0.964647 13.297 1.00976 12.7449C1.05587 12.1807 1.15508 11.6588 1.40527 11.1678C1.58671 10.8117 1.81911 10.4874 2.09277 10.2029L1.5371 9.92558C1.02583 9.66994 0.818577 9.04817 1.07421 8.53691C1.32985 8.02564 1.95162 7.81838 2.46288 8.07401L3.3955 8.53983L4.28905 5.86015C4.52333 5.1573 4.71377 4.53026 5.11327 4.05253C5.4392 3.66284 5.85827 3.36152 6.33105 3.17558C6.91066 2.9477 7.56567 2.96464 8.30663 2.96464H15.6934C16.4343 2.96464 17.0893 2.9477 17.6689 3.17558C18.1417 3.36152 18.5608 3.66284 18.8867 4.05253C19.2862 4.53026 19.4767 5.1573 19.7109 5.86015L20.6035 8.53983L21.5371 8.07401C22.0484 7.81838 22.6701 8.02564 22.9258 8.53691C23.1814 9.04817 22.9742 9.66994 22.4629 9.92558L21.9062 10.2029C22.1801 10.4875 22.4132 10.8115 22.5947 11.1678C22.8449 11.6588 22.9441 12.1807 22.9902 12.7449C23.0353 13.297 23.0351 13.9767 23.0351 14.7996V17.4998Z"/></svg>