<svg xmlns="http://www.w3.org/2000/svg" width="24" height="24" fill="none" viewBox="0 0 24 24"><path fill="currentColor" d="M15.4004 16.9648C15.4272 16.9648 15.4773 16.9639 15.5381 16.9658L15.7402 16.9844L15.8613 17.0078C16.4596 17.1524 16.918 17.644 17.0156 18.2598C17.0377 18.399 17.0352 18.5459 17.0352 18.5996C17.0352 19.0108 17.0382 19.0966 17.0469 19.1514C17.1124 19.564 17.436 19.8876 17.8486 19.9531C17.9034 19.9618 17.9892 19.9648 18.4004 19.9648H19C19.4798 19.9648 19.788 19.9643 20.0234 19.9482C20.2494 19.9328 20.3324 19.9068 20.3691 19.8916C20.6056 19.7937 20.7937 19.6056 20.8916 19.3691C20.9068 19.3324 20.9328 19.2494 20.9482 19.0234C20.9643 18.788 20.9648 18.4798 20.9648 18V14.7998C20.9648 13.9429 20.9643 13.3623 20.9277 12.9141C20.8921 12.4778 20.8277 12.2581 20.751 12.1074C20.5626 11.7379 20.2621 11.4374 19.8926 11.249C19.7419 11.1723 19.5222 11.1079 19.0859 11.0723C18.6377 11.0357 18.0571 11.0352 17.2002 11.0352H6.79981C5.94287 11.0352 5.36234 11.0357 4.91406 11.0723C4.47781 11.1079 4.25807 11.1723 4.10742 11.249C3.73794 11.4374 3.43737 11.7379 3.24902 12.1074C3.17227 12.2581 3.10791 12.4778 3.07227 12.9141C3.03565 13.3623 3.03516 13.9429 3.03516 14.7998V18C3.03516 18.4798 3.03572 18.788 3.05176 19.0234C3.06717 19.2494 3.09321 19.3324 3.1084 19.3691C3.20634 19.6056 3.39441 19.7937 3.63086 19.8916C3.66757 19.9068 3.75065 19.9328 3.97656 19.9482C4.21202 19.9643 4.52018 19.9648 5 19.9648H5.59961C6.01076 19.9648 6.09663 19.9618 6.15137 19.9531C6.56397 19.8876 6.8876 19.564 6.95313 19.1514C6.96179 19.0966 6.96484 19.0108 6.96484 18.5996C6.96483 18.5459 6.96232 18.399 6.98438 18.2598L7.00781 18.1387C7.15243 17.5404 7.64399 17.082 8.25977 16.9844L8.46192 16.9658C8.52269 16.9639 8.57279 16.9648 8.59961 16.9648H15.4004ZM6 11.9648C6.84776 11.9648 7.53516 12.6522 7.53516 13.5C7.53516 14.3478 6.84776 15.0352 6 15.0352C5.15224 15.0352 4.46484 14.3478 4.46484 13.5C4.46484 12.6522 5.15224 11.9648 6 11.9648ZM18 11.9648C18.8478 11.9648 19.5352 12.6522 19.5352 13.5C19.5352 14.3478 18.8478 15.0352 18 15.0352C17.1522 15.0352 16.4648 14.3478 16.4648 13.5C16.4648 12.6522 17.1522 11.9648 18 11.9648ZM17.9648 6.2002C17.9648 5.62309 17.9644 5.25228 17.9414 4.9707C17.9194 4.7012 17.8816 4.60521 17.8594 4.56152C17.7669 4.38033 17.6197 4.23308 17.4385 4.14062C17.3948 4.11837 17.2988 4.08061 17.0293 4.05859C16.7477 4.03559 16.3769 4.03516 15.7998 4.03516H8.2002C7.62309 4.03516 7.25228 4.03559 6.9707 4.05859C6.70121 4.08061 6.60521 4.11837 6.56152 4.14062C6.38033 4.23308 6.23308 4.38033 6.14063 4.56152C6.11837 4.60521 6.08061 4.7012 6.05859 4.9707C6.03559 5.25228 6.03516 5.62309 6.03516 6.2002V8.96875C6.27496 8.96727 6.52964 8.96484 6.79981 8.96484H17.2002C17.4704 8.96484 17.725 8.96727 17.9648 8.96875V6.2002ZM20.0352 7.96484H20.9668C20.9854 7.40952 21.4402 6.96484 22 6.96484C22.5716 6.96484 23.0352 7.42839 23.0352 8V9C23.0352 9.57161 22.5716 10.0352 22 10.0352H21.7324C22.0822 10.3575 22.3761 10.739 22.5947 11.168C22.8449 11.659 22.9441 12.1809 22.9902 12.7451C23.0353 13.2973 23.0352 13.9769 23.0352 14.7998V18C23.0352 18.4518 23.0357 18.8427 23.0137 19.165C22.991 19.4965 22.9407 19.8304 22.8037 20.1611C22.4957 20.9048 21.9048 21.4957 21.1611 21.8037C20.8304 21.9407 20.4965 21.991 20.165 22.0137C19.8427 22.0357 19.4518 22.0352 19 22.0352H18.4004C18.0684 22.0352 17.7815 22.0386 17.5254 21.998C16.2267 21.7924 15.2076 20.7733 15.002 19.4746C14.9803 19.3376 14.9726 19.1918 14.9688 19.0352H9.03125C9.02741 19.1918 9.01973 19.3376 8.99805 19.4746C8.79236 20.7733 7.77326 21.7924 6.47461 21.998C6.21847 22.0386 5.93157 22.0352 5.59961 22.0352H5C4.54822 22.0352 4.15728 22.0357 3.83496 22.0137C3.5035 21.991 3.16963 21.9407 2.83887 21.8037C2.09521 21.4957 1.50432 20.9048 1.19629 20.1611C1.05932 19.8304 1.00896 19.4965 0.986329 19.165C0.964338 18.8427 0.964845 18.4518 0.964845 18V14.7998C0.964845 13.9769 0.964655 13.2973 1.00977 12.7451C1.05588 12.1809 1.15509 11.659 1.40527 11.168C1.62388 10.739 1.91782 10.3575 2.26758 10.0352H2C1.42839 10.0352 0.964845 9.57161 0.964845 9V8C0.964845 7.42839 1.42839 6.96484 2 6.96484C2.55984 6.96484 3.01465 7.40952 3.0332 7.96484H3.96484V6.2002C3.96484 5.65722 3.9646 5.18718 3.99609 4.80176C4.02859 4.40438 4.10024 4.00608 4.2959 3.62207C4.58686 3.05107 5.05108 2.58686 5.62207 2.2959C6.00608 2.10024 6.40438 2.02859 6.80176 1.99609C7.18719 1.9646 7.65722 1.96484 8.2002 1.96484H15.7998C16.3428 1.96484 16.8128 1.9646 17.1982 1.99609C17.5956 2.02859 17.9939 2.10024 18.3779 2.2959C18.9489 2.58686 19.4131 3.05107 19.7041 3.62207C19.8998 4.00608 19.9714 4.40438 20.0039 4.80176C20.0354 5.18718 20.0352 5.65722 20.0352 6.2002V7.96484Z"/></svg>