<svg xmlns="http://www.w3.org/2000/svg" width="24" height="24" fill="none" viewBox="0 0 24 24"><path fill="currentColor" d="M12 11.9648C14.1991 11.9648 15.9855 13.7242 16.0322 15.9121L18.7529 18.6318C18.8492 18.7281 18.9251 18.8416 18.9766 18.9648H19C19.533 18.9648 19.9648 18.533 19.9648 18V4C19.9648 3.46705 19.533 3.03516 19 3.03516H5C4.46705 3.03516 4.03516 3.46705 4.03516 4V18C4.03516 18.533 4.46705 18.9648 5 18.9648H5.04492C5.09642 18.8416 5.1723 18.7281 5.26855 18.6318L7.96582 15.9346C8.00077 13.7363 9.79338 11.9648 12 11.9648ZM7.46387 19.3633L8.82812 20.7285L10.0342 19.5225C9.46356 19.2033 8.97878 18.7504 8.62207 18.2051L7.46387 19.3633ZM15.3857 18.1924C15.0309 18.7392 14.548 19.1944 13.9785 19.5156L15.1924 20.7285L16.5566 19.3633L15.3857 18.1924ZM12 14.0352C10.9148 14.0352 10.0352 14.9148 10.0352 16C10.0352 17.0852 10.9148 17.9648 12 17.9648C13.0852 17.9648 13.9648 17.0852 13.9648 16C13.9648 14.9148 13.0852 14.0352 12 14.0352ZM17 8.46484C17.5716 8.46484 18.0352 8.92839 18.0352 9.5C18.0352 10.0716 17.5716 10.5352 17 10.5352H7C6.42839 10.5352 5.96484 10.0716 5.96484 9.5C5.96484 8.92839 6.42839 8.46484 7 8.46484H17ZM15 4.96484C15.5716 4.96484 16.0352 5.42839 16.0352 6C16.0352 6.57161 15.5716 7.03516 15 7.03516H9C8.42839 7.03516 7.96484 6.57161 7.96484 6C7.96484 5.42839 8.42839 4.96484 9 4.96484H15ZM22.0352 18C22.0352 19.6762 20.6762 21.0352 19 21.0352H17.8135L15.9248 22.9248C15.5207 23.3288 14.8651 23.3288 14.4609 22.9248L12.0107 20.4736L9.56055 22.9248C9.15638 23.3288 8.50082 23.3288 8.09668 22.9248L6.20801 21.0352H5C3.32382 21.0352 1.96484 19.6762 1.96484 18V4C1.96484 2.32382 3.32382 0.964844 5 0.964844H19C20.6762 0.964844 22.0352 2.32382 22.0352 4V18Z"/></svg>