<svg xmlns="http://www.w3.org/2000/svg" width="24" height="24" fill="none" viewBox="0 0 24 24"><path fill="currentColor" d="M19.9648 4.22266C19.9648 3.4617 19.4331 3.03516 19 3.03516H5C4.56692 3.03516 4.03516 3.4617 4.03516 4.22266V19.7773C4.03516 20.5383 4.56692 20.9648 5 20.9648H19C19.4331 20.9648 19.9648 20.5383 19.9648 19.7773V4.22266ZM15 17.4648C15.5716 17.4648 16.0352 17.9284 16.0352 18.5C16.0352 19.0716 15.5716 19.5352 15 19.5352H9C8.42839 19.5352 7.96484 19.0716 7.96484 18.5C7.96484 17.9284 8.42839 17.4648 9 17.4648H15ZM17 13.9648C17.5716 13.9648 18.0352 14.4284 18.0352 15C18.0352 15.5716 17.5716 16.0352 17 16.0352H7C6.42839 16.0352 5.96484 15.5716 5.96484 15C5.96484 14.4284 6.42839 13.9648 7 13.9648H17ZM8.60059 5.13379C9.66826 4.26498 10.9874 4.3051 11.9961 4.89551C13.0029 4.30515 14.3115 4.27622 15.3838 5.125C16.7322 6.19246 16.905 8.0533 15.8545 9.34082C15.4464 9.84097 14.6133 10.6015 13.9512 11.1855C13.6063 11.4897 13.2847 11.7672 13.0488 11.9678C12.9309 12.0681 12.834 12.1494 12.7666 12.2061C12.7331 12.2342 12.7066 12.2563 12.6885 12.2715C12.6794 12.2791 12.6718 12.2851 12.667 12.2891C12.6647 12.291 12.6634 12.2929 12.6621 12.2939L12.6602 12.2949V12.2959L11.998 11.5L12.6592 12.2959C12.2757 12.6147 11.7194 12.6147 11.3359 12.2959L11.335 12.2949L11.333 12.2939C11.3317 12.2929 11.3304 12.2909 11.3281 12.2891C11.3233 12.2851 11.3157 12.2791 11.3066 12.2715C11.2885 12.2563 11.262 12.2342 11.2285 12.2061C11.1611 12.1494 11.0642 12.0681 10.9463 11.9678C10.7104 11.7672 10.3888 11.4897 10.0439 11.1855C9.38179 10.6015 8.54874 9.84097 8.14062 9.34082C7.08042 8.04134 7.29274 6.19815 8.60059 5.13379ZM11.2275 6.90332C10.8375 6.46914 10.2903 6.42752 9.90723 6.73926C9.46182 7.10171 9.4277 7.64416 9.74414 8.03223C10.0246 8.37588 10.7198 9.02224 11.4131 9.63379C11.6203 9.81657 11.8208 9.98806 11.9971 10.1396C12.1735 9.98795 12.3746 9.81677 12.582 9.63379C13.2753 9.02224 13.9706 8.37588 14.251 8.03223C14.5772 7.6322 14.5337 7.09242 14.0986 6.74805C13.6896 6.42435 13.1501 6.47752 12.7676 6.90332C12.5714 7.12178 12.2917 7.24694 11.998 7.24707C11.7043 7.24707 11.4238 7.12189 11.2275 6.90332ZM22.0352 19.7773C22.0352 21.471 20.7761 23.0352 19 23.0352H5C3.22394 23.0352 1.96484 21.471 1.96484 19.7773V4.22266C1.96484 2.52901 3.22394 0.964844 5 0.964844H19C20.7761 0.964844 22.0352 2.52901 22.0352 4.22266V19.7773Z"/></svg>