<svg xmlns="http://www.w3.org/2000/svg" width="24" height="24" fill="none" viewBox="0 0 24 24"><g clip-path="url(#a)"><path fill="currentColor" d="M14.9648 12V10.3809C12.4227 12.9443 8.8976 14.5352 5 14.5352C4.4503 14.5352 3.90781 14.5021 3.37402 14.4404C4.43703 18.2052 7.895 20.9648 12 20.9648C16.648 20.9648 20.4712 17.4267 20.9209 12.8975C20.9775 12.3289 21.4841 11.9134 22.0527 11.9697C22.6216 12.0262 23.0369 12.5337 22.9805 13.1025C22.4266 18.6798 17.7226 23.0352 12 23.0352C5.90554 23.0352 0.964844 18.0945 0.964844 12C0.964844 6.27744 5.32015 1.57343 10.8975 1.01953C11.4663 0.963056 11.9738 1.37845 12.0303 1.94727C12.0866 2.51591 11.6711 3.02248 11.1025 3.0791C6.57334 3.52879 3.03516 7.35196 3.03516 12C3.03516 12.102 3.03861 12.2035 3.04199 12.3047C3.67862 12.4094 4.33252 12.4648 5 12.4648C8.26525 12.4648 11.2249 11.1574 13.3848 9.03516H12C11.4284 9.03516 10.9648 8.57161 10.9648 8C10.9648 7.42839 11.4284 6.96484 12 6.96484H16C16.5716 6.96484 17.0352 7.42839 17.0352 8V12C17.0352 12.5716 16.5716 13.0352 16 13.0352C15.4284 13.0352 14.9648 12.5716 14.9648 12ZM22.0107 7.46484C22.5821 7.46511 23.0449 7.92855 23.0449 8.5C23.0449 9.07145 22.5821 9.53489 22.0107 9.53516H20.5107C19.9391 9.53516 19.4756 9.07161 19.4756 8.5C19.4756 7.92839 19.9391 7.46484 20.5107 7.46484H22.0107ZM19.7686 2.76855C20.1727 2.36436 20.8273 2.36436 21.2314 2.76855C21.6356 3.17275 21.6356 3.82725 21.2314 4.23145L20.1709 5.29297C19.7667 5.69679 19.1111 5.69704 18.707 5.29297C18.303 4.8889 18.3032 4.23332 18.707 3.8291L19.7686 2.76855ZM14.4648 3.5V2C14.4648 1.42839 14.9284 0.964844 15.5 0.964844C16.0716 0.964844 16.5352 1.42839 16.5352 2V3.5C16.5352 4.07161 16.0716 4.53516 15.5 4.53516C14.9284 4.53516 14.4648 4.07161 14.4648 3.5Z"/></g><defs><clipPath id="a"><path fill="#fff" d="M0 0H24V24H0z"/></clipPath></defs></svg>