<svg xmlns="http://www.w3.org/2000/svg" width="24" height="24" fill="none" viewBox="0 0 24 24"><path fill="currentColor" d="M14.9648 12V10.3809C12.4227 12.9443 8.8976 14.5352 5 14.5352C4.67577 14.5352 4.35414 14.5217 4.03516 14.5V16.2002C4.03516 17.0571 4.03565 17.6377 4.07227 18.0859C4.10791 18.5222 4.17227 18.7419 4.24902 18.8926C4.43737 19.2621 4.73794 19.5626 5.10742 19.751C5.25806 19.8277 5.47781 19.8921 5.91406 19.9277C6.36234 19.9643 6.94287 19.9648 7.7998 19.9648H16.2002C17.0571 19.9648 17.6377 19.9643 18.0859 19.9277C18.5222 19.8921 18.7419 19.8277 18.8926 19.751C19.2621 19.5626 19.5626 19.2621 19.751 18.8926C19.8277 18.7419 19.8921 18.5222 19.9277 18.0859C19.9643 17.6377 19.9648 17.0571 19.9648 16.2002V13C19.9648 12.4284 20.4284 11.9648 21 11.9648C21.5716 11.9648 22.0352 12.4284 22.0352 13V16.2002C22.0352 17.0231 22.0353 17.7027 21.9902 18.2549C21.9441 18.8191 21.8449 19.341 21.5947 19.832C21.2079 20.591 20.591 21.2079 19.832 21.5947C19.341 21.8449 18.8191 21.9441 18.2549 21.9902C17.7027 22.0353 17.0231 22.0352 16.2002 22.0352H7.7998C6.97689 22.0352 6.29725 22.0353 5.74512 21.9902C5.18095 21.9441 4.65899 21.8449 4.16797 21.5947C3.409 21.2079 2.79208 20.591 2.40527 19.832C2.15508 19.341 2.05588 18.8191 2.00977 18.2549C1.96465 17.7027 1.96484 17.0231 1.96484 16.2002V7.7998C1.96484 6.97689 1.96465 6.29725 2.00977 5.74512C2.05588 5.18095 2.15509 4.65899 2.40527 4.16797C2.79208 3.409 3.409 2.79208 4.16797 2.40527C4.65899 2.15509 5.18095 2.05588 5.74512 2.00977C6.29725 1.96465 6.97689 1.96484 7.7998 1.96484H11C11.5716 1.96484 12.0352 2.42839 12.0352 3C12.0352 3.57161 11.5716 4.03516 11 4.03516H7.7998C6.94287 4.03516 6.36234 4.03565 5.91406 4.07227C5.47781 4.10791 5.25807 4.17227 5.10742 4.24902C4.73794 4.43737 4.43737 4.73794 4.24902 5.10742C4.17227 5.25807 4.10791 5.47781 4.07227 5.91406C4.03565 6.36234 4.03516 6.94287 4.03516 7.7998V12.4258C4.35328 12.4511 4.675 12.4648 5 12.4648C8.26525 12.4648 11.2249 11.1574 13.3848 9.03516H12C11.4284 9.03516 10.9648 8.57161 10.9648 8C10.9648 7.42839 11.4284 6.96484 12 6.96484H16C16.5716 6.96484 17.0352 7.42839 17.0352 8V12C17.0352 12.5716 16.5716 13.0352 16 13.0352C15.4284 13.0352 14.9648 12.5716 14.9648 12ZM22.0107 7.46484C22.5821 7.46511 23.0449 7.92855 23.0449 8.5C23.0449 9.07145 22.5821 9.53489 22.0107 9.53516H20.5107C19.9391 9.53516 19.4756 9.07161 19.4756 8.5C19.4756 7.92839 19.9391 7.46484 20.5107 7.46484H22.0107ZM19.7686 2.76855C20.1727 2.36436 20.8273 2.36436 21.2314 2.76855C21.6356 3.17275 21.6356 3.82725 21.2314 4.23145L20.1709 5.29297C19.7667 5.69679 19.1111 5.69704 18.707 5.29297C18.303 4.8889 18.3032 4.23332 18.707 3.8291L19.7686 2.76855ZM14.4648 3.5V2C14.4648 1.42839 14.9284 0.964844 15.5 0.964844C16.0716 0.964844 16.5352 1.42839 16.5352 2V3.5C16.5352 4.07161 16.0716 4.53516 15.5 4.53516C14.9284 4.53516 14.4648 4.07161 14.4648 3.5Z"/></svg>