<svg xmlns="http://www.w3.org/2000/svg" width="24" height="24" fill="none" viewBox="0 0 24 24"><path fill="currentColor" d="M3.48242 3.5235C6.17662 1.22151 9.64141 1.63516 11.9922 3.67291C14.3402 1.63397 17.7692 1.24986 20.4932 3.51373C23.4816 5.9976 23.8401 10.2344 21.5391 13.1954C20.7422 14.2208 19.261 15.7082 17.7783 17.1221C16.2786 18.5523 14.7198 19.9613 13.7275 20.8467C13.5581 20.9979 13.3865 21.1527 13.2285 21.2725C13.0583 21.4016 12.8474 21.5354 12.5781 21.6163C12.1994 21.7299 11.7869 21.7299 11.4082 21.6163C11.1389 21.5354 10.928 21.4016 10.7578 21.2725C10.5998 21.1527 10.4282 20.9979 10.2588 20.8467C9.26653 19.9613 7.70775 18.5523 6.20801 17.1221C4.72532 15.7082 3.24415 14.2208 2.44726 13.1954C0.137078 10.2226 0.561677 6.01915 3.48242 3.5235ZM11.207 5.80865C9.51232 3.82739 6.82352 3.39116 4.82715 5.09674C2.7379 6.88184 2.45681 9.83577 4.08105 11.9258C4.77009 12.8125 6.14323 14.1998 7.63672 15.6241C9.11293 17.0318 10.6523 18.4243 11.6367 19.3028C11.8172 19.4638 11.9182 19.551 11.9932 19.6094C12.0681 19.551 12.1691 19.4638 12.3496 19.3028C13.3341 18.4243 14.8734 17.0318 16.3496 15.6241C17.8431 14.1998 19.2162 12.8125 19.9053 11.9258C21.5386 9.82406 21.2775 6.85836 19.1699 5.1065C17.1198 3.40257 14.4663 3.83644 12.7793 5.80865C12.5827 6.03842 12.2956 6.17095 11.9932 6.17096C11.6907 6.17096 11.4037 6.03841 11.207 5.80865ZM14.7686 7.76861C15.1727 7.36442 15.8273 7.36442 16.2314 7.76861C16.6356 8.1728 16.6356 8.82731 16.2314 9.2315L11.7314 13.7315C11.3273 14.1357 10.6727 14.1357 10.2686 13.7315L8.26855 11.7315C7.86436 11.3273 7.86436 10.6728 8.26855 10.2686C8.67274 9.86442 9.32725 9.86442 9.73144 10.2686L11 11.5372L14.7686 7.76861Z"/></svg>