<svg xmlns="http://www.w3.org/2000/svg" width="24" height="24" fill="none" viewBox="0 0 24 24"><g clip-path="url(#a)"><path fill="currentColor" d="M10.6943 1.41012C11.4638 0.817403 12.5356 0.817387 13.3047 1.40817L14.5518 2.36618C14.5663 2.37729 14.584 2.38101 14.5996 2.37887H14.6055L16.167 2.17282L16.3467 2.15719C17.2411 2.11479 18.0792 2.63628 18.4268 3.4775L19.0273 4.93161L19.0283 4.93258C19.0355 4.9497 19.0483 4.96258 19.0654 4.96969L19.0664 4.97067L20.5195 5.57125L20.5205 5.57223C21.3595 5.92032 21.8833 6.75553 21.8408 7.65133L21.8252 7.83102L21.6191 9.39254V9.3945C21.6168 9.41197 21.6216 9.43134 21.6338 9.44723L22.5908 10.6943L22.6953 10.8418C23.1488 11.546 23.1477 12.4524 22.6953 13.1562L22.5918 13.3037L21.6689 14.5068L21.668 14.5078C21.6433 14.5398 21.6286 14.5791 21.626 14.6201L21.627 14.6611V14.6621L21.8252 16.167L21.8408 16.3466C21.8831 17.2414 21.3604 18.0795 20.5186 18.4267L20.5176 18.4257L19.0664 19.0273H19.0654C19.0482 19.0344 19.0355 19.0481 19.0283 19.0654L19.0273 19.0664L18.4268 20.5195L18.4258 20.5205C18.0777 21.3595 17.2425 21.8833 16.3467 21.8408L16.167 21.8252L14.6055 21.6191H14.6035C14.5861 21.6168 14.5667 21.6216 14.5508 21.6338L13.3037 22.5898C12.5343 23.1825 11.4634 23.1825 10.6943 22.5918V22.5908L9.49219 21.6689L9.49024 21.6679C9.44784 21.6353 9.39313 21.6197 9.33789 21.6269L7.83301 21.8261C6.87262 21.9529 5.9438 21.4182 5.57324 20.5205L4.97266 19.0673L4.97168 19.0664C4.96456 19.0492 4.95168 19.0364 4.93457 19.0293L4.9336 19.0283L3.48047 18.4277L3.47949 18.4267C2.58466 18.0555 2.04795 17.1299 2.17481 16.1679L2.38086 14.6064V14.6035C2.38305 14.5861 2.37829 14.5675 2.36621 14.5517L1.40821 13.3037L1.40918 13.3027C0.817629 12.5334 0.817989 11.4639 1.40821 10.6953L2.36524 9.44723C2.37603 9.43313 2.38311 9.41381 2.38086 9.39352L2.17481 7.832C2.04795 6.87004 2.58466 5.94446 3.47949 5.57321L3.48047 5.57223L4.93067 4.9736C4.95016 4.96514 4.96542 4.94932 4.97364 4.92965L5.57227 3.48043L5.57324 3.47946C5.94449 2.58456 6.86995 2.04778 7.83203 2.17477L9.39258 2.37985C9.41253 2.38224 9.43356 2.37781 9.4502 2.3652L10.6943 1.41012ZM11.958 3.04879L11.9561 3.04977L10.708 4.00875L10.7051 4.01168C10.2553 4.35438 9.68694 4.50649 9.125 4.43356L9.12305 4.43258L7.56153 4.2275H7.56055C7.52953 4.22362 7.49748 4.24084 7.48438 4.27243L6.88574 5.7236L6.88379 5.72848C6.66554 6.25044 6.25045 6.66543 5.72852 6.88375L5.72364 6.88571L4.27149 7.48434C4.2401 7.4976 4.22343 7.53037 4.22754 7.56149L4.43262 9.12399L4.4336 9.12594C4.50637 9.68727 4.3542 10.2561 4.00977 10.706L4.00879 10.707L3.04981 11.956C3.03965 11.9693 3.0351 11.9848 3.03516 12L3.04883 12.042L3.04981 12.0429L4.00879 13.292H4.00977C4.3553 13.7427 4.50802 14.3132 4.43262 14.8779L4.22754 16.4384C4.22341 16.4697 4.24078 16.5015 4.27246 16.5146H4.27149L5.72461 17.1152H5.72364C6.25028 17.3324 6.66837 17.7498 6.88574 18.2763L7.48633 19.7295V19.7304C7.49804 19.7588 7.52904 19.7765 7.56153 19.7724L9.06641 19.5752C9.6659 19.4959 10.2725 19.6577 10.752 20.0263L11.9551 20.9502H11.9561C11.9824 20.9701 12.0173 20.9693 12.041 20.9511L12.042 20.9502L13.292 19.9902C13.7426 19.6449 14.3125 19.492 14.877 19.5673H14.876L16.4375 19.7724L16.4609 19.7714C16.4837 19.7669 16.5038 19.7513 16.5137 19.7275L17.1143 18.2754C17.3315 17.7491 17.7491 17.3315 18.2754 17.1142L19.7285 16.5136L19.7295 16.5127C19.758 16.5009 19.7768 16.4702 19.7725 16.4375V16.4365L19.5752 14.9326L19.5566 14.707C19.5397 14.1822 19.7042 13.6648 20.0273 13.2451L20.9502 12.0429L20.9609 12.0214C20.9683 11.9993 20.9649 11.9749 20.9512 11.957L20.9502 11.956L19.9912 10.707L19.9902 10.706C19.645 10.2554 19.4921 9.68553 19.5674 9.12106L19.7725 7.56051L19.7715 7.53707C19.7669 7.51427 19.7513 7.49421 19.7275 7.48434V7.48336L18.2764 6.88278C17.7499 6.66556 17.3316 6.249 17.1143 5.72262L16.5137 4.2695V4.26852C16.5049 4.24719 16.4849 4.23137 16.4619 4.22653L16.4375 4.22555L14.875 4.43063L14.874 4.42965C14.3097 4.50528 13.741 4.35274 13.293 4.00973L13.292 4.00875L12.0439 3.04977H12.043C12.0167 3.02975 11.9818 3.03067 11.958 3.04879ZM14.7686 8.76852C15.1727 8.36433 15.8273 8.36433 16.2314 8.76852C16.6356 9.17271 16.6356 9.82722 16.2314 10.2314L11.7314 14.7314C11.3273 15.1356 10.6727 15.1356 10.2686 14.7314L8.26856 12.7314C7.86436 12.3272 7.86436 11.6727 8.26856 11.2685C8.67275 10.8643 9.32725 10.8643 9.73145 11.2685L11 12.5371L14.7686 8.76852Z"/></g><defs><clipPath id="a"><path fill="#fff" d="M0 0H24V24H0z"/></clipPath></defs></svg>