<svg xmlns="http://www.w3.org/2000/svg" width="24" height="24" fill="none" viewBox="0 0 24 24"><g clip-path="url(#a)"><path fill="currentColor" d="M20.9648 15.2998C20.9648 15.1689 20.9388 15.039 20.8887 14.918V14.917L20.167 13.1739V13.1729C19.8549 12.4207 19.8563 11.5766 20.167 10.8262L20.8887 9.08207C20.9899 8.83763 20.9899 8.56285 20.8887 8.3184C20.7875 8.07408 20.5938 7.87967 20.3496 7.77836L18.6035 7.05571V7.05473C17.8634 6.74739 17.2734 6.1629 16.959 5.4268C16.9546 5.41702 16.9494 5.40747 16.9453 5.3975L16.2217 3.65239L16.1797 3.56254C16.0714 3.3605 15.8962 3.20091 15.6826 3.11235C15.4382 3.01111 15.1633 3.01115 14.9189 3.11235H14.918L13.1719 3.83305L13.1709 3.83207C12.4203 4.14277 11.577 4.14428 10.8262 3.83403V3.83305L9.08203 3.11137C8.8376 3.01012 8.56279 3.01012 8.31836 3.11137C8.0741 3.21258 7.87961 3.40618 7.77832 3.65043L7.05566 5.39653L7.05469 5.3975C6.74267 6.14752 6.14609 6.74315 5.39551 7.05375L3.65137 7.77641C3.53027 7.82653 3.41984 7.90054 3.32715 7.99321C3.23466 8.08575 3.16143 8.19557 3.11133 8.31645C3.0612 8.43748 3.03516 8.56728 3.03516 8.69828C3.03517 8.79667 3.04964 8.89453 3.07812 8.98832L3.11133 9.08012V9.08207L3.83203 10.8262C4.14373 11.5774 4.14455 12.4222 3.83398 13.1739V13.1748L3.11133 14.919C3.01066 15.1632 3.01114 15.4377 3.1123 15.6817C3.21359 15.9257 3.40737 16.1195 3.65137 16.2207L5.39648 16.9434L5.39746 16.9444C6.14859 17.2563 6.74588 17.8539 7.05664 18.6055L7.7793 20.3506C7.8807 20.5943 8.07454 20.7876 8.31836 20.8887C8.56246 20.9898 8.83686 20.9905 9.08105 20.8897L10.8262 20.167C11.5301 19.8752 12.3158 19.8569 13.0303 20.1114L13.1729 20.1661L13.1738 20.167L14.917 20.8887C15.1614 20.99 15.4362 20.9899 15.6807 20.8887C15.9251 20.7875 16.1194 20.5931 16.2207 20.3487L16.9434 18.6036L16.9443 18.6026C17.2562 17.8517 17.8532 17.2551 18.6045 16.9444L20.3486 16.2227V16.2217C20.4695 16.1716 20.5793 16.0984 20.6719 16.0059C20.7646 15.9132 20.8385 15.8028 20.8887 15.6817C20.9387 15.5607 20.9649 15.4308 20.9648 15.2998ZM14.7686 8.7686C15.1727 8.3644 15.8273 8.3644 16.2314 8.7686C16.6356 9.17279 16.6356 9.82729 16.2314 10.2315L11.7314 14.7315C11.3273 15.1357 10.6727 15.1357 10.2686 14.7315L8.26855 12.7315C7.86436 12.3273 7.86436 11.6728 8.26855 11.2686C8.67275 10.8644 9.32725 10.8644 9.73145 11.2686L11 12.5372L14.7686 8.7686ZM23.0342 15.2998C23.0342 15.7028 22.955 16.1023 22.8008 16.4747C22.6466 16.8468 22.4206 17.185 22.1357 17.4698C21.8507 17.7547 21.512 17.9797 21.1396 18.1338L19.3965 18.8575H19.3955C19.1518 18.9583 18.9571 19.1512 18.8555 19.3946L18.8564 19.3955L18.1328 21.1407C17.8215 21.8923 17.2243 22.4904 16.4727 22.8018C15.7211 23.113 14.8765 23.1131 14.125 22.8018L12.3809 22.0791V22.0782C12.1368 21.9778 11.8629 21.979 11.6191 22.0801H11.6182L9.87207 22.8018C9.12091 23.1124 8.27733 23.1128 7.52637 22.8018C6.77532 22.4907 6.17874 21.8935 5.86719 21.1426H5.86621L5.14355 19.3965C5.04253 19.1522 4.8486 18.957 4.60449 18.8555L2.85938 18.1338C2.10805 17.8226 1.51165 17.2249 1.2002 16.4737C0.888832 15.7225 0.887571 14.8785 1.19824 14.127H1.19922L1.9209 12.3829C2.02172 12.1385 2.02123 11.8643 1.91992 11.6202V11.6182L1.19824 9.87211L1.19922 9.87114C1.04538 9.49944 0.964963 9.10154 0.964844 8.69926C0.964779 8.29629 1.04406 7.89676 1.19824 7.52446C1.35246 7.15212 1.57924 6.8133 1.86426 6.52836C2.14918 6.24364 2.48719 6.01735 2.85938 5.86332L4.60352 5.14164L4.69336 5.09965C4.89543 4.99159 5.05474 4.81602 5.14355 4.60258L5.86621 2.85844C6.17759 2.10696 6.77484 1.50959 7.52637 1.19828C8.27792 0.88706 9.12249 0.887001 9.87402 1.19828L11.6182 1.92094L11.6172 1.92192C11.8614 2.02264 12.1359 2.0211 12.3799 1.91996L12.3828 1.91899L14.127 1.20024C14.8785 0.889054 15.7231 0.88894 16.4746 1.20024C17.1791 1.49215 17.7484 2.03474 18.0732 2.72074L18.1348 2.85942L18.8496 4.58793C18.8519 4.59315 18.8552 4.59828 18.8574 4.60356C18.9583 4.84736 19.1521 5.04106 19.3955 5.14262L21.1416 5.86625C21.8931 6.17766 22.4905 6.77488 22.8018 7.52641C23.1129 8.27797 23.113 9.12254 22.8018 9.87407L22.0791 11.6182C21.9904 11.8326 21.9795 12.0695 22.0459 12.2881L22.0791 12.3809L22.0801 12.3829L22.8008 14.125L22.9023 14.4092C22.9898 14.6974 23.0341 14.9975 23.0342 15.2998Z"/></g><defs><clipPath id="a"><path fill="#fff" d="M0 0H24V24H0z"/></clipPath></defs></svg>