<svg xmlns="http://www.w3.org/2000/svg" width="24" height="24" fill="none" viewBox="0 0 24 24"><g clip-path="url(#a)"><path fill="currentColor" d="M8.84278 2.12788C10.6619 0.577655 13.3381 0.577655 15.1572 2.12788C15.6052 2.50947 16.1625 2.74025 16.749 2.78706C19.1311 2.97738 21.0226 4.86883 21.2129 7.25092C21.2597 7.8375 21.4905 8.39479 21.8721 8.84272C23.4223 10.6618 23.4223 13.3381 21.8721 15.1572C21.4905 15.6051 21.2597 16.1624 21.2129 16.749C21.0226 19.1311 19.1311 21.0225 16.749 21.2128C16.1625 21.2596 15.6052 21.4904 15.1572 21.872C13.3381 23.4222 10.6619 23.4222 8.84278 21.872C8.39486 21.4904 7.83756 21.2596 7.25098 21.2128C4.86889 21.0225 2.97744 19.1311 2.78712 16.749C2.74031 16.1624 2.50953 15.6051 2.12794 15.1572C0.577716 13.3381 0.577716 10.6618 2.12794 8.84272C2.50953 8.39479 2.74031 7.8375 2.78712 7.25092C2.97744 4.86883 4.86889 2.97738 7.25098 2.78706C7.83756 2.74025 8.39485 2.50947 8.84278 2.12788ZM13.8145 3.70307C12.769 2.81217 11.231 2.81217 10.1856 3.70307C9.40605 4.36732 8.43691 4.76906 7.41602 4.85053C6.04692 4.95983 4.9599 6.04686 4.85059 7.41596C4.76913 8.43685 4.36738 9.40599 3.70313 10.1855C2.81223 11.2309 2.81223 12.769 3.70313 13.8144C4.36738 14.5939 4.76913 15.563 4.85059 16.5839C4.9599 17.953 6.04692 19.0401 7.41602 19.1494C8.43691 19.2308 9.40605 19.6326 10.1856 20.2968C11.231 21.1877 12.769 21.1877 13.8145 20.2968C14.594 19.6326 15.5631 19.2308 16.584 19.1494C17.9531 19.0401 19.0401 17.953 19.1494 16.5839C19.2309 15.563 19.6326 14.5939 20.2969 13.8144C21.1878 12.769 21.1878 11.2309 20.2969 10.1855C19.6326 9.40599 19.2309 8.43685 19.1494 7.41596C19.0401 6.04686 17.9531 4.95983 16.584 4.85053C15.5631 4.76906 14.594 4.36732 13.8145 3.70307ZM14.7686 8.7685C15.1728 8.36431 15.8273 8.36431 16.2315 8.7685C16.6356 9.17269 16.6356 9.8272 16.2315 10.2314L11.7315 14.7314C11.3273 15.1356 10.6728 15.1356 10.2686 14.7314L8.26856 12.7314C7.86437 12.3272 7.86437 11.6727 8.26856 11.2685C8.67275 10.8643 9.32726 10.8643 9.73145 11.2685L11 12.5371L14.7686 8.7685Z"/></g><defs><clipPath id="a"><path fill="#fff" d="M0 0H24V24H0z"/></clipPath></defs></svg>