<svg xmlns="http://www.w3.org/2000/svg" width="24" height="24" fill="none" viewBox="0 0 24 24"><g clip-path="url(#a)"><path fill="currentColor" d="M20.9648 12C20.9648 7.04877 16.9512 3.03516 12 3.03516C7.04877 3.03516 3.03516 7.04877 3.03516 12C3.03516 16.9512 7.04877 20.9648 12 20.9648C16.9512 20.9648 20.9648 16.9512 20.9648 12ZM15.7686 8.26855C16.1727 7.86436 16.8273 7.86436 17.2314 8.26855C17.6356 8.67275 17.6356 9.32725 17.2314 9.73145L11.2314 15.7314C10.8273 16.1356 10.1727 16.1356 9.76855 15.7314L6.76855 12.7314C6.36436 12.3273 6.36436 11.6727 6.76855 11.2686C7.17275 10.8644 7.82725 10.8644 8.23145 11.2686L10.5 13.5371L15.7686 8.26855ZM23.0352 12C23.0352 18.0945 18.0945 23.0352 12 23.0352C5.90554 23.0352 0.964844 18.0945 0.964844 12C0.964844 5.90554 5.90554 0.964844 12 0.964844C18.0945 0.964844 23.0352 5.90554 23.0352 12Z"/></g><defs><clipPath id="a"><path fill="#fff" d="M0 0H24V24H0z"/></clipPath></defs></svg>