<svg xmlns="http://www.w3.org/2000/svg" width="24" height="24" fill="none" viewBox="0 0 24 24"><g clip-path="url(#a)"><path fill="currentColor" d="M9.56835 1.23633C11.8893 0.712 14.3177 0.951529 16.4912 1.91993C17.0133 2.15258 17.2483 2.76499 17.0156 3.28712C16.783 3.80922 16.1705 4.04417 15.6484 3.81153C13.8826 3.02475 11.9101 2.82983 10.0244 3.25587C8.13892 3.68187 6.44156 4.70549 5.18554 6.17481C3.92948 7.6444 3.18188 9.48112 3.05468 11.4102C2.92748 13.3392 3.42727 15.2581 4.47948 16.8799C5.5317 18.5015 7.08027 19.7393 8.89355 20.4092C10.7069 21.0791 12.6882 21.1448 14.542 20.5967C16.3958 20.0485 18.0232 18.9165 19.1807 17.3682C20.338 15.82 20.9636 13.9388 20.9648 12.0059V11.0859C20.9648 10.5143 21.4284 10.0508 22 10.0508C22.5716 10.0508 23.0351 10.5143 23.0351 11.0859V12.0059L23.0254 12.4512C22.9345 14.6734 22.1737 16.8205 20.8379 18.6074C19.4131 20.5132 17.4107 21.9074 15.1289 22.582C12.847 23.2567 10.4079 23.1762 8.17577 22.3516C5.94364 21.5269 4.03833 20.0021 2.74316 18.0059C1.44807 16.0097 0.832787 13.6487 0.98925 11.2744C1.14582 8.89997 2.06524 6.639 3.61132 4.83008C5.1574 3.0212 7.24727 1.76075 9.56835 1.23633ZM21.2676 3.26856C21.6715 2.86421 22.327 2.86372 22.7314 3.26758C23.1358 3.67153 23.1363 4.32705 22.7324 4.73145L12.7324 14.7412C12.5383 14.9355 12.2746 15.0449 12 15.0449C11.7257 15.0449 11.4626 14.9361 11.2685 14.7422L8.26855 11.7422C7.86435 11.338 7.86435 10.6825 8.26855 10.2783C8.67271 9.87429 9.32727 9.87429 9.73144 10.2783L11.999 12.5459L21.2676 3.26856Z"/></g><defs><clipPath id="a"><path fill="#fff" d="M0 0H24V24H0z"/></clipPath></defs></svg>