<svg xmlns="http://www.w3.org/2000/svg" width="24" height="24" fill="none" viewBox="0 0 24 24"><path fill="currentColor" d="M16.2686 12.2685C16.6728 11.8643 17.3273 11.8643 17.7315 12.2685C18.1357 12.6727 18.1357 13.3272 17.7315 13.7314L12.7315 18.7314C12.3273 19.1356 11.6728 19.1356 11.2686 18.7314L6.2686 13.7314C5.86441 13.3272 5.86441 12.6727 6.2686 12.2685C6.67279 11.8643 7.3273 11.8643 7.73149 12.2685L12 16.5371L16.2686 12.2685ZM16.2686 5.26854C16.6728 4.86434 17.3273 4.86434 17.7315 5.26854C18.1357 5.67273 18.1357 6.32724 17.7315 6.73143L12.7315 11.7314C12.3273 12.1356 11.6728 12.1356 11.2686 11.7314L6.2686 6.73143C5.86441 6.32724 5.86441 5.67273 6.2686 5.26854C6.67279 4.86434 7.3273 4.86434 7.73149 5.26854L12 9.53709L16.2686 5.26854Z"/></svg>