<svg xmlns="http://www.w3.org/2000/svg" width="24" height="24" fill="none" viewBox="0 0 24 24"><path fill="currentColor" d="M16.2686 14.2685C16.6728 13.8644 17.3273 13.8644 17.7315 14.2685C18.1357 14.6727 18.1357 15.3272 17.7315 15.7314L12.7315 20.7314C12.3273 21.1356 11.6728 21.1356 11.2686 20.7314L6.2686 15.7314C5.86441 15.3272 5.86441 14.6727 6.2686 14.2685C6.67279 13.8644 7.3273 13.8644 7.73149 14.2685L12 18.5371L16.2686 14.2685ZM11.3467 3.19725C11.7532 2.86558 12.3525 2.88957 12.7315 3.26854L17.7315 8.26854C18.1357 8.67274 18.1357 9.32724 17.7315 9.73143C17.3273 10.1356 16.6728 10.1356 16.2686 9.73143L12 5.46288L7.73149 9.73143C7.3273 10.1356 6.67279 10.1356 6.2686 9.73143C5.86441 9.32724 5.86441 8.67274 6.2686 8.26854L11.2686 3.26854L11.3467 3.19725Z"/></svg>