<svg xmlns="http://www.w3.org/2000/svg" width="24" height="24" fill="none" viewBox="0 0 24 24"><path fill="currentColor" d="M10.2686 6.26854C10.6728 5.86434 11.3273 5.86434 11.7315 6.26854C12.1357 6.67273 12.1357 7.32724 11.7315 7.73143L7.46293 12L11.7315 16.2685C12.1357 16.6727 12.1357 17.3272 11.7315 17.7314C11.3273 18.1356 10.6728 18.1356 10.2686 17.7314L5.2686 12.7314C4.86441 12.3272 4.86441 11.6727 5.2686 11.2685L10.2686 6.26854ZM17.2686 6.26854C17.6728 5.86434 18.3273 5.86434 18.7315 6.26854C19.1357 6.67273 19.1357 7.32724 18.7315 7.73143L14.4629 12L18.7315 16.2685C19.1357 16.6727 19.1357 17.3272 18.7315 17.7314C18.3273 18.1356 17.6728 18.1356 17.2686 17.7314L12.2686 12.7314C11.8644 12.3272 11.8644 11.6727 12.2686 11.2685L17.2686 6.26854Z"/></svg>