<svg xmlns="http://www.w3.org/2000/svg" width="24" height="24" fill="none" viewBox="0 0 24 24"><path fill="currentColor" d="M8.2686 6.2686C8.67279 5.86441 9.3273 5.86441 9.73149 6.2686C10.1357 6.67279 10.1357 7.3273 9.73149 7.73149L5.46293 12L9.73149 16.2686C10.1357 16.6728 10.1357 17.3273 9.73149 17.7315C9.3273 18.1357 8.67279 18.1357 8.2686 17.7315L3.2686 12.7315C2.86441 12.3273 2.86441 11.6728 3.2686 11.2686L8.2686 6.2686ZM14.2686 6.2686C14.6728 5.86441 15.3273 5.86441 15.7315 6.2686L20.7315 11.2686C21.1357 11.6728 21.1357 12.3273 20.7315 12.7315L15.7315 17.7315C15.3273 18.1357 14.6728 18.1357 14.2686 17.7315C13.8644 17.3273 13.8644 16.6728 14.2686 16.2686L18.5372 12L14.2686 7.73149C13.8644 7.3273 13.8644 6.67279 14.2686 6.2686Z"/></svg>