<svg xmlns="http://www.w3.org/2000/svg" width="24" height="24" fill="none" viewBox="0 0 24 24"><path fill="currentColor" d="M5.2686 6.2686C5.67279 5.86441 6.3273 5.86441 6.73149 6.2686L11.7315 11.2686C12.1357 11.6728 12.1357 12.3273 11.7315 12.7315L6.73149 17.7315C6.3273 18.1357 5.67279 18.1357 5.2686 17.7315C4.86441 17.3273 4.86441 16.6728 5.2686 16.2686L9.53715 12L5.2686 7.73149C4.86441 7.3273 4.86441 6.67279 5.2686 6.2686ZM12.2686 6.2686C12.6728 5.86441 13.3273 5.86441 13.7315 6.2686L18.7315 11.2686C19.1357 11.6728 19.1357 12.3273 18.7315 12.7315L13.7315 17.7315C13.3273 18.1357 12.6728 18.1357 12.2686 17.7315C11.8644 17.3273 11.8644 16.6728 12.2686 16.2686L16.5372 12L12.2686 7.73149C11.8644 7.3273 11.8644 6.67279 12.2686 6.2686Z"/></svg>