<svg xmlns="http://www.w3.org/2000/svg" width="24" height="24" fill="none" viewBox="0 0 24 24"><path fill="currentColor" d="M11.3467 12.1973C11.7532 11.8656 12.3525 11.8896 12.7315 12.2685L17.7315 17.2685C18.1357 17.6727 18.1357 18.3272 17.7315 18.7314C17.3273 19.1356 16.6728 19.1356 16.2686 18.7314L12 14.4629L7.73149 18.7314C7.3273 19.1356 6.67279 19.1356 6.2686 18.7314C5.86441 18.3272 5.86441 17.6727 6.2686 17.2685L11.2686 12.2685L11.3467 12.1973ZM11.3467 5.19725C11.7532 4.86558 12.3525 4.88957 12.7315 5.26854L17.7315 10.2685C18.1357 10.6727 18.1357 11.3272 17.7315 11.7314C17.3273 12.1356 16.6728 12.1356 16.2686 11.7314L12 7.46288L7.73149 11.7314C7.3273 12.1356 6.67279 12.1356 6.2686 11.7314C5.86441 11.3272 5.86441 10.6727 6.2686 10.2685L11.2686 5.26854L11.3467 5.19725Z"/></svg>