<svg xmlns="http://www.w3.org/2000/svg" width="24" height="24" fill="none" viewBox="0 0 24 24"><path fill="currentColor" d="M20.9648 16.2002V7.7998C20.9648 6.94287 20.9643 6.36234 20.9277 5.91406C20.8921 5.47781 20.8277 5.25806 20.751 5.10742C20.5626 4.73794 20.2621 4.43737 19.8926 4.24902C19.7419 4.17227 19.5222 4.10791 19.0859 4.07227C18.6377 4.03565 18.0571 4.03516 17.2002 4.03516H6.7998C5.94287 4.03516 5.36234 4.03565 4.91406 4.07227C4.47781 4.10791 4.25807 4.17227 4.10742 4.24902C3.73794 4.43737 3.43737 4.73794 3.24902 5.10742C3.17227 5.25807 3.10791 5.47781 3.07227 5.91406C3.03565 6.36234 3.03516 6.94287 3.03516 7.7998V8C3.03516 8.57161 2.57161 9.03516 2 9.03516C1.42839 9.03516 0.964844 8.57161 0.964844 8V7.7998C0.964844 6.97689 0.964654 6.29725 1.00977 5.74512C1.05588 5.18095 1.15509 4.65899 1.40527 4.16797C1.79208 3.409 2.409 2.79208 3.16797 2.40527C3.65899 2.15509 4.18095 2.05588 4.74512 2.00977C5.29725 1.96465 5.97689 1.96484 6.7998 1.96484H17.2002C18.0231 1.96484 18.7027 1.96465 19.2549 2.00977C19.8191 2.05588 20.341 2.15509 20.832 2.40527C21.591 2.79208 22.2079 3.409 22.5947 4.16797C22.8449 4.65899 22.9441 5.18095 22.9902 5.74512C23.0353 6.29725 23.0352 6.97689 23.0352 7.7998V16.2002C23.0352 17.0231 23.0353 17.7027 22.9902 18.2549C22.9441 18.8191 22.8449 19.341 22.5947 19.832C22.2079 20.591 21.591 21.2079 20.832 21.5947C20.341 21.8449 19.8191 21.9441 19.2549 21.9902C18.7027 22.0353 18.0231 22.0352 17.2002 22.0352H14C13.4284 22.0352 12.9648 21.5716 12.9648 21C12.9648 20.4284 13.4284 19.9648 14 19.9648H17.2002C18.0571 19.9648 18.6377 19.9643 19.0859 19.9277C19.5222 19.8921 19.7419 19.8277 19.8926 19.751C20.2621 19.5626 20.5626 19.2621 20.751 18.8926C20.8277 18.7419 20.8921 18.5222 20.9277 18.0859C20.9643 17.6377 20.9648 17.0571 20.9648 16.2002ZM2.00977 18.9648C2.58138 18.9648 3.04492 19.4284 3.04492 20C3.04492 20.5716 2.58138 21.0352 2.00977 21.0352H2C1.42839 21.0352 0.964844 20.5716 0.964844 20C0.964844 19.4284 1.42839 18.9648 2 18.9648H2.00977ZM0.986328 15.8936C1.10055 15.3335 1.64695 14.9717 2.20703 15.0859C3.36675 15.3225 4.43162 15.8945 5.26855 16.7314C6.10549 17.5684 6.6775 18.6333 6.91406 19.793C7.02829 20.3531 6.66653 20.8994 6.10645 21.0137C5.54652 21.1277 5.00003 20.7669 4.88574 20.207C4.73034 19.445 4.35458 18.7452 3.80469 18.1953C3.25479 17.6454 2.55496 17.2697 1.79297 17.1143C1.23308 17 0.872296 16.4535 0.986328 15.8936ZM2.11426 11.0215C4.37859 11.2733 6.48959 12.2884 8.10059 13.8994C9.71158 15.5104 10.7267 17.6214 10.9785 19.8857C11.0416 20.4538 10.6325 20.9651 10.0645 21.0283C9.49634 21.0915 8.98408 20.6824 8.9209 20.1143C8.72097 18.3171 7.91633 16.6409 6.6377 15.3623C5.35906 14.0837 3.68292 13.279 1.88574 13.0791C1.31763 13.0159 0.908494 12.5037 0.97168 11.9355C1.0349 11.3675 1.54623 10.9584 2.11426 11.0215Z"/></svg>