<svg xmlns="http://www.w3.org/2000/svg" width="24" height="24" fill="none" viewBox="0 0 24 24"><g clip-path="url(#a)"><path fill="currentColor" d="M10.9648 12C10.9648 8.90146 9.39348 6.16894 7 4.55762C4.6083 6.1676 3.03516 8.90009 3.03516 12C3.03516 15.0997 4.60855 17.8314 7 19.4414C9.39323 17.83 10.9648 15.0983 10.9648 12ZM13.0352 12C13.0352 15.4056 11.4906 18.4484 9.06836 20.4717C9.98725 20.7896 10.973 20.9648 12 20.9648C16.9512 20.9648 20.9648 16.9512 20.9648 12C20.9648 7.04877 16.9512 3.03516 12 3.03516C10.9731 3.03516 9.98716 3.20948 9.06836 3.52734C11.4909 5.55061 13.0352 8.59418 13.0352 12ZM23.0352 12C23.0352 18.0945 18.0945 23.0352 12 23.0352C10.0179 23.0352 8.15948 22.5096 6.55176 21.5947C6.50819 21.5738 6.46629 21.5495 6.42578 21.5225C3.15949 19.6063 0.964844 16.0605 0.964844 12C0.964844 7.93935 3.15926 4.39264 6.42578 2.47656C6.46627 2.44961 6.50821 2.42516 6.55176 2.4043C8.15938 1.48955 10.0181 0.964844 12 0.964844C18.0945 0.964844 23.0352 5.90554 23.0352 12Z"/></g><defs><clipPath id="a"><path fill="#fff" d="M0 0H24V24H0z"/></clipPath></defs></svg>