<svg xmlns="http://www.w3.org/2000/svg" width="24" height="24" fill="none" viewBox="0 0 24 24"><path fill="currentColor" d="M18.9649 8C18.9649 7.00339 18.9566 6.70792 18.8985 6.49121C18.7168 5.81318 18.1869 5.28328 17.5089 5.10156C17.3965 5.07146 17.2629 5.05518 17.0216 5.0459C17.0198 5.07817 17.0202 5.10987 17.0177 5.14062C16.9988 5.37134 16.9547 5.6467 16.8136 5.92383C16.6185 6.30674 16.3068 6.61837 15.9239 6.81348C15.6468 6.95465 15.3714 6.99873 15.1407 7.01758C14.9222 7.0354 14.6631 7.03516 14.4005 7.03516H9.5997C9.33706 7.03516 9.07795 7.0354 8.85947 7.01758C8.62875 6.99873 8.3534 6.95465 8.07627 6.81348C7.69336 6.61837 7.38172 6.30674 7.18662 5.92383C7.04545 5.6467 7.00137 5.37134 6.98252 5.14062C6.98001 5.10985 6.97946 5.07818 6.97763 5.0459C6.73694 5.05519 6.60349 5.0715 6.49131 5.10156C5.81328 5.28328 5.28337 5.81318 5.10166 6.49121C5.04359 6.70792 5.03525 7.00339 5.03525 8V17.2002C5.03525 18.0571 5.03575 18.6377 5.07236 19.0859C5.108 19.5222 5.17236 19.7419 5.24912 19.8926C5.43746 20.2621 5.73804 20.5626 6.10752 20.751C6.25816 20.8277 6.47791 20.8921 6.91416 20.9277C7.36243 20.9643 7.94297 20.9648 8.7999 20.9648H15.2003C16.0572 20.9648 16.6378 20.9643 17.086 20.9277C17.5223 20.8921 17.742 20.8277 17.8927 20.751C18.2622 20.5626 18.5627 20.2621 18.7511 19.8926C18.8278 19.7419 18.8922 19.5222 18.9278 19.0859C18.9644 18.6377 18.9649 18.0571 18.9649 17.2002V8ZM13.7686 11.2686C14.1728 10.8644 14.8273 10.8644 15.2315 11.2686C15.6357 11.6727 15.6357 12.3273 15.2315 12.7314L13.463 14.5L15.2315 16.2686C15.6357 16.6727 15.6357 17.3273 15.2315 17.7314C14.8273 18.1356 14.1728 18.1356 13.7686 17.7314L12.0001 15.9629L10.2315 17.7314C9.82735 18.1356 9.17284 18.1356 8.76865 17.7314C8.36446 17.3273 8.36446 16.6727 8.76865 16.2686L10.5372 14.5L8.76865 12.7314C8.36446 12.3273 8.36446 11.6727 8.76865 11.2686C9.17284 10.8644 9.82735 10.8644 10.2315 11.2686L12.0001 13.0371L13.7686 11.2686ZM9.5997 3.03516C9.31677 3.03516 9.15771 3.03576 9.04404 3.04395C9.03585 3.15762 9.03525 3.31668 9.03525 3.59961V4.40039C9.03525 4.68252 9.03592 4.84147 9.04404 4.95508C9.15772 4.96327 9.31671 4.96484 9.5997 4.96484H14.4005C14.6827 4.96484 14.8416 4.96321 14.9552 4.95508C14.9633 4.84147 14.9649 4.68258 14.9649 4.40039V3.59961C14.9649 3.31662 14.9634 3.15762 14.9552 3.04395C14.8416 3.03582 14.6826 3.03516 14.4005 3.03516H9.5997ZM21.0353 17.2002C21.0353 18.0231 21.0354 18.7027 20.9903 19.2549C20.9442 19.8191 20.845 20.341 20.5948 20.832C20.208 21.591 19.5911 22.2079 18.8321 22.5947C18.3411 22.8449 17.8191 22.9441 17.255 22.9902C16.7028 23.0353 16.0232 23.0352 15.2003 23.0352H8.7999C7.97699 23.0352 7.29735 23.0353 6.74521 22.9902C6.18104 22.9441 5.65909 22.8449 5.16806 22.5947C4.4091 22.2079 3.79217 21.591 3.40537 20.832C3.15518 20.341 3.05597 19.8191 3.00986 19.2549C2.96475 18.7027 2.96494 18.0231 2.96494 17.2002V8C2.96494 7.13685 2.95635 6.50227 3.10263 5.95605C3.47574 4.56361 4.5637 3.47564 5.95615 3.10254C6.26073 3.02097 6.59281 2.9891 6.97666 2.97559C6.97872 2.9358 6.97945 2.89695 6.98252 2.85938C7.00137 2.62866 7.04545 2.3533 7.18662 2.07617L7.26572 1.93555C7.46123 1.61698 7.74138 1.35716 8.07627 1.18652L8.2833 1.09766C8.48824 1.02471 8.68649 0.996555 8.85947 0.982422C9.07795 0.9646 9.33706 0.964843 9.5997 0.964844H14.4005C14.6631 0.964843 14.9222 0.9646 15.1407 0.982422C15.3137 0.996555 15.512 1.02472 15.7169 1.09766L15.9239 1.18652L16.0645 1.26563C16.3374 1.4331 16.567 1.66266 16.7345 1.93555L16.8136 2.07617L16.9024 2.2832C16.9754 2.48814 17.0035 2.6864 17.0177 2.85938C17.0207 2.89693 17.0205 2.93582 17.0226 2.97559C17.4068 2.98908 17.7392 3.0209 18.044 3.10254C19.4365 3.47564 20.5245 4.56361 20.8976 5.95605C21.0438 6.50227 21.0353 7.13685 21.0353 8V17.2002Z"/></svg>