<svg xmlns="http://www.w3.org/2000/svg" width="24" height="24" fill="none" viewBox="0 0 24 24"><path fill="currentColor" d="M1.96484 12C1.96484 6.45782 6.45782 1.96484 12 1.96484C17.1282 1.96484 21.3547 5.81203 21.958 10.7773L21.9678 10.7686C22.3718 10.3644 23.0274 10.3637 23.4316 10.7676C23.8359 11.1717 23.8358 11.8272 23.4316 12.2314L21.4326 14.2314C21.2387 14.4255 20.9755 14.535 20.7012 14.5352C20.4268 14.5352 20.1629 14.4264 19.9688 14.2324L17.9678 12.2324C17.5636 11.8284 17.5639 11.1728 17.9678 10.7686C18.3718 10.3644 19.0274 10.3637 19.4316 10.7676L19.9297 11.2656C19.5589 7.211 16.1513 4.03516 12 4.03516C7.60105 4.03516 4.03516 7.60105 4.03516 12C4.03516 16.3989 7.60105 19.9648 12 19.9648C14.5017 19.9648 16.7334 18.8125 18.1953 17.0059C18.5549 16.5617 19.2071 16.493 19.6514 16.8525C20.0957 17.2121 20.1642 17.8643 19.8047 18.3086C17.9667 20.58 15.1528 22.0352 12 22.0352C6.45782 22.0352 1.96484 17.5422 1.96484 12ZM10.9648 7C10.9648 6.42839 11.4284 5.96484 12 5.96484C12.5716 5.96484 13.0352 6.42839 13.0352 7V11.4453L15.5742 13.1387C16.0498 13.4557 16.1784 14.0986 15.8613 14.5742C15.5443 15.0498 14.9014 15.1784 14.4258 14.8613L11.4258 12.8613C11.1378 12.6694 10.9648 12.3461 10.9648 12V7Z"/></svg>