<svg xmlns="http://www.w3.org/2000/svg" width="24" height="24" fill="none" viewBox="0 0 24 24"><g clip-path="url(#a)"><path fill="currentColor" d="M21.5 15.9648C21.9185 15.9648 22.2958 16.217 22.4561 16.6035C22.6163 16.9903 22.5275 17.4354 22.2314 17.7314L18.998 20.9648H21.5C22.0716 20.9648 22.5352 21.4284 22.5352 22C22.5352 22.5716 22.0716 23.0352 21.5 23.0352H16.5C16.0815 23.0352 15.7042 22.783 15.5439 22.3965C15.3837 22.0097 15.4725 21.5646 15.7686 21.2686L19.002 18.0352H16.5C15.9284 18.0352 15.4648 17.5716 15.4648 17C15.4648 16.4284 15.9284 15.9648 16.5 15.9648H21.5ZM10.9648 6C10.9648 5.42839 11.4284 4.96484 12 4.96484C12.5716 4.96484 13.0352 5.42839 13.0352 6V11.3604L16.2012 12.9434C16.7124 13.199 16.9197 13.8208 16.6641 14.332C16.4084 14.8433 15.7867 15.0506 15.2754 14.7949L11.5371 12.9258C11.1865 12.7505 10.9648 12.392 10.9648 12V6ZM20.9648 12C20.9648 7.04877 16.9512 3.03516 12 3.03516C7.04877 3.03516 3.03516 7.04877 3.03516 12C3.03516 16.9512 7.04877 20.9648 12 20.9648C12.1507 20.9648 12.3005 20.9614 12.4492 20.9541C12.5997 20.9467 12.7491 20.9356 12.8975 20.9209C13.4663 20.8644 13.9738 21.2798 14.0303 21.8486C14.0866 22.4172 13.6711 22.9239 13.1025 22.9805C12.92 22.9986 12.7357 23.0124 12.5508 23.0215C12.3682 23.0305 12.1846 23.0352 12 23.0352C5.90554 23.0352 0.964844 18.0945 0.964844 12C0.964844 5.90554 5.90554 0.964844 12 0.964844C18.0945 0.964844 23.0352 5.90554 23.0352 12C23.0352 12.3717 23.0165 12.7397 22.9805 13.1025C22.9239 13.6711 22.4172 14.0866 21.8486 14.0303C21.2798 13.9738 20.8644 13.4663 20.9209 12.8975C20.9502 12.6026 20.9648 12.3032 20.9648 12Z"/></g><defs><clipPath id="a"><path fill="#fff" d="M0 0H24V24H0z"/></clipPath></defs></svg>