<svg xmlns="http://www.w3.org/2000/svg" width="24" height="24" fill="none" viewBox="0 0 24 24"><g clip-path="url(#a)"><path fill="currentColor" d="M20.9648 12C20.9648 7.04877 16.9512 3.03516 12 3.03516C7.04877 3.03516 3.03516 7.04877 3.03516 12C3.03516 16.9512 7.04877 20.9648 12 20.9648C16.9512 20.9648 20.9648 16.9512 20.9648 12ZM10.9648 6C10.9648 5.42839 11.4284 4.96484 12 4.96484C12.5716 4.96484 13.0352 5.42839 13.0352 6V11.3604L16.4629 13.0742C16.9742 13.3299 17.1814 13.9516 16.9258 14.4629C16.6701 14.9742 16.0484 15.1814 15.5371 14.9258L11.5371 12.9258C11.1865 12.7505 10.9648 12.392 10.9648 12V6ZM23.0352 12C23.0352 18.0945 18.0945 23.0352 12 23.0352C5.90554 23.0352 0.964844 18.0945 0.964844 12C0.964844 5.90554 5.90554 0.964844 12 0.964844C18.0945 0.964844 23.0352 5.90554 23.0352 12Z"/></g><defs><clipPath id="a"><path fill="#fff" d="M0 0H24V24H0z"/></clipPath></defs></svg>