<svg xmlns="http://www.w3.org/2000/svg" width="24" height="24" fill="none" viewBox="0 0 24 24"><path fill="currentColor" d="M19.4648 13.5C19.4648 9.37719 16.1228 6.03516 12 6.03516C7.87719 6.03516 4.53516 9.37719 4.53516 13.5C4.53516 17.6228 7.87719 20.9648 12 20.9648C16.1228 20.9648 19.4648 17.6228 19.4648 13.5ZM10.9648 9.5C10.9648 8.92839 11.4284 8.46484 12 8.46484C12.5716 8.46484 13.0352 8.92839 13.0352 9.5V12.9141L15.0322 14.1123C15.5223 14.4063 15.6816 15.0421 15.3877 15.5322C15.0937 16.0223 14.4579 16.1816 13.9678 15.8877L11.4678 14.3877C11.156 14.2006 10.9648 13.8636 10.9648 13.5V9.5ZM4.43945 3.36035C4.84365 2.95622 5.49915 2.95618 5.90332 3.36035C6.30719 3.76455 6.30735 4.42012 5.90332 4.82422L4.40332 6.32422C3.99923 6.72831 3.34367 6.72811 2.93945 6.32422C2.53526 5.92003 2.53526 5.26454 2.93945 4.86035L4.43945 3.36035ZM18.0967 3.36035C18.4756 2.9814 19.0759 2.95743 19.4824 3.28906L19.5605 3.36035L21.0605 4.86035C21.4647 5.26454 21.4647 5.92003 21.0605 6.32422C20.6563 6.72811 20.0008 6.72831 19.5967 6.32422L18.0967 4.82422C17.6926 4.42012 17.6928 3.76455 18.0967 3.36035ZM21.5352 13.5C21.5352 18.766 17.266 23.0352 12 23.0352C6.73396 23.0352 2.46484 18.766 2.46484 13.5C2.46484 8.58377 6.18576 4.53748 10.9648 4.02148V3.03516H10C9.42839 3.03516 8.96484 2.57161 8.96484 2C8.96484 1.42839 9.42839 0.964844 10 0.964844H14C14.5716 0.964844 15.0352 1.42839 15.0352 2C15.0352 2.57161 14.5716 3.03516 14 3.03516H13.0352V4.02148C17.8142 4.53748 21.5352 8.58377 21.5352 13.5Z"/></svg>