<svg xmlns="http://www.w3.org/2000/svg" width="24" height="24" fill="none" viewBox="0 0 24 24"><path fill="currentColor" d="M20.7012 10.4648C20.9755 10.465 21.2387 10.5745 21.4326 10.7686L23.4316 12.7686C23.8358 13.1728 23.8359 13.8283 23.4316 14.2324C23.0274 14.6363 22.3718 14.6356 21.9678 14.2314L21.8174 14.0811C20.8591 18.6244 16.8285 22.0352 12 22.0352C6.45782 22.0352 1.96484 17.5422 1.96484 12C1.96484 6.45782 6.45782 1.96484 12 1.96484C15.6828 1.96484 18.901 3.9494 20.6455 6.90234C20.9362 7.39443 20.7732 8.02953 20.2812 8.32031C19.7891 8.61104 19.154 8.44724 18.8633 7.95508C17.4757 5.60648 14.9208 4.03516 12 4.03516C7.60105 4.03516 4.03516 7.60105 4.03516 12C4.03516 16.3989 7.60105 19.9648 12 19.9648C15.7305 19.9648 18.86 17.3998 19.7256 13.9375L19.4316 14.2324C19.0274 14.6363 18.3718 14.6356 17.9678 14.2314C17.5639 13.8272 17.5636 13.1716 17.9678 12.7676L19.9688 10.7676C20.1629 10.5736 20.4268 10.4648 20.7012 10.4648ZM10.9648 7C10.9648 6.42839 11.4284 5.96484 12 5.96484C12.5716 5.96484 13.0352 6.42839 13.0352 7V11.4453L15.5742 13.1387C16.0498 13.4557 16.1784 14.0986 15.8613 14.5742C15.5443 15.0498 14.9014 15.1784 14.4258 14.8613L11.4258 12.8613C11.1378 12.6694 10.9648 12.3461 10.9648 12V7Z"/></svg>