<svg xmlns="http://www.w3.org/2000/svg" width="24" height="24" fill="none" viewBox="0 0 24 24"><g clip-path="url(#a)"><path fill="currentColor" d="M17.9648 22V20.0352H16C15.4284 20.0352 14.9648 19.5716 14.9648 19C14.9648 18.4284 15.4284 17.9648 16 17.9648H17.9648V16C17.9648 15.4284 18.4284 14.9648 19 14.9648C19.5716 14.9648 20.0352 15.4284 20.0352 16V17.9648H22C22.5716 17.9648 23.0352 18.4284 23.0352 19C23.0352 19.5716 22.5716 20.0352 22 20.0352H20.0352V22C20.0352 22.5716 19.5716 23.0352 19 23.0352C18.4284 23.0352 17.9648 22.5716 17.9648 22ZM10.9648 6C10.9648 5.42839 11.4284 4.96484 12 4.96484C12.5716 4.96484 13.0352 5.42839 13.0352 6V11.3604L16.2012 12.9434C16.7124 13.199 16.9197 13.8208 16.6641 14.332C16.4084 14.8433 15.7867 15.0506 15.2754 14.7949L11.5371 12.9258C11.1865 12.7505 10.9648 12.392 10.9648 12V6ZM20.9648 12C20.9648 7.04877 16.9512 3.03516 12 3.03516C7.04877 3.03516 3.03516 7.04877 3.03516 12C3.03516 16.9512 7.04877 20.9648 12 20.9648C12.3913 20.9648 12.7762 20.94 13.1533 20.8916C13.7202 20.8189 14.2386 21.2194 14.3115 21.7861C14.3842 22.353 13.9838 22.8715 13.417 22.9443C12.9527 23.0039 12.4796 23.0352 12 23.0352C5.90554 23.0352 0.964844 18.0945 0.964844 12C0.964844 5.90554 5.90554 0.964844 12 0.964844C18.0945 0.964844 23.0352 5.90554 23.0352 12C23.0352 12.4719 23.005 12.9374 22.9473 13.3945C22.8757 13.9616 22.3581 14.3636 21.791 14.292C21.2241 14.2204 20.8222 13.7027 20.8936 13.1357C20.9404 12.7643 20.9648 12.3851 20.9648 12Z"/></g><defs><clipPath id="a"><path fill="#fff" d="M0 0H24V24H0z"/></clipPath></defs></svg>