<svg xmlns="http://www.w3.org/2000/svg" width="24" height="24" fill="none" viewBox="0 0 24 24"><path fill="currentColor" d="M20.5625 11.8639C21.1309 11.9244 21.5429 12.4341 21.4824 13.0025C21.1711 15.9271 19.5129 18.6722 16.7676 20.2574C12.6437 22.6383 7.48073 21.5885 4.58301 17.9938L4.49316 18.3336C4.34525 18.8856 3.77762 19.2137 3.22559 19.066C2.67356 18.9181 2.34544 18.3505 2.49316 17.7984L3.22559 15.066C3.37357 14.5139 3.94106 14.1866 4.49316 14.3346L7.22559 15.066C7.77742 15.2141 8.10475 15.7817 7.95703 16.3336C7.8091 16.8857 7.24155 17.2139 6.68945 17.066L6.45898 17.0035C8.76741 19.5649 12.6262 20.2588 15.7324 18.4654C17.8807 17.2251 19.1794 15.0787 19.4238 12.7838C19.4843 12.2155 19.9942 11.8035 20.5625 11.8639ZM10.9648 7.49961C10.9651 6.9282 11.4285 6.46543 12 6.46543C12.5713 6.46557 13.0349 6.92829 13.0352 7.49961V11.4147L15.0322 12.6129C15.5223 12.907 15.6818 13.5427 15.3877 14.0328C15.0936 14.523 14.457 14.6814 13.9668 14.3873L11.4668 12.8873C11.1553 12.7002 10.9648 12.363 10.9648 11.9996V7.49961ZM7.23242 3.74278C11.3558 1.36216 16.5171 2.41172 19.415 6.00547L19.5068 5.6666C19.6548 5.11447 20.2223 4.78624 20.7744 4.93418C21.3264 5.08218 21.6537 5.64972 21.5059 6.20176L20.7744 8.93418C20.6265 9.48617 20.0588 9.81333 19.5068 9.66563L16.7744 8.93418C16.2224 8.78626 15.8952 8.21866 16.043 7.6666C16.1909 7.11447 16.7584 6.78624 17.3105 6.93418L17.5381 6.99473C15.2295 4.43525 11.3728 3.74222 8.26758 5.53477C6.11931 6.77507 4.81958 8.92146 4.5752 11.2164C4.51469 11.7848 4.00493 12.1968 3.43652 12.1363C2.86818 12.0758 2.45612 11.566 2.5166 10.9977C2.82791 8.07295 4.48682 5.32795 7.23242 3.74278Z"/></svg>