<svg xmlns="http://www.w3.org/2000/svg" width="24" height="24" fill="none" viewBox="0 0 24 24"><g clip-path="url(#a)"><path fill="currentColor" d="M20.2686 15.7686C20.6727 15.3644 21.3273 15.3644 21.7314 15.7686C22.1356 16.1727 22.1356 16.8273 21.7314 17.2314L17.2314 21.7314C16.8273 22.1356 16.1727 22.1356 15.7686 21.7314L13.7686 19.7314C13.3644 19.3273 13.3644 18.6727 13.7686 18.2686C14.1727 17.8644 14.8273 17.8644 15.2314 18.2686L16.5 19.5371L20.2686 15.7686ZM10.9648 6C10.9648 5.42839 11.4284 4.96484 12 4.96484C12.5716 4.96484 13.0352 5.42839 13.0352 6V11.3604L16.2012 12.9434C16.7124 13.199 16.9197 13.8208 16.6641 14.332C16.4084 14.8433 15.7867 15.0506 15.2754 14.7949L11.5371 12.9258C11.1865 12.7505 10.9648 12.392 10.9648 12V6ZM20.9648 12C20.9648 7.04877 16.9512 3.03516 12 3.03516C7.04877 3.03516 3.03516 7.04877 3.03516 12C3.03516 16.8726 6.92249 20.8374 11.7646 20.9619C12.3361 20.9766 12.7881 21.452 12.7734 22.0234C12.7587 22.5948 12.2833 23.0459 11.7119 23.0312C5.75031 22.8782 0.964844 17.9981 0.964844 12C0.964844 5.90554 5.90554 0.964844 12 0.964844C18.0945 0.964844 23.0352 5.90554 23.0352 12C23.0352 12.2031 23.0294 12.4049 23.0186 12.6055C22.9876 13.1762 22.4995 13.6139 21.9287 13.583C21.3582 13.5519 20.9204 13.0646 20.9512 12.4941C20.96 12.3307 20.9648 12.1658 20.9648 12Z"/></g><defs><clipPath id="a"><path fill="#fff" d="M0 0H24V24H0z"/></clipPath></defs></svg>