<svg xmlns="http://www.w3.org/2000/svg" width="24" height="24" fill="none" viewBox="0 0 24 24"><g clip-path="url(#a)"><path fill="currentColor" d="M10.9648 22V20C10.9648 19.4284 11.4284 18.9648 12 18.9648C12.5716 18.9648 13.0352 19.4284 13.0352 20V22C13.0352 22.5716 12.5716 23.0352 12 23.0352C11.4284 23.0352 10.9648 22.5716 10.9648 22ZM6.96484 20V18C6.96484 17.4284 7.42839 16.9648 8 16.9648C8.57161 16.9648 9.03516 17.4284 9.03516 18V20C9.03516 20.5716 8.57161 21.0352 8 21.0352C7.42839 21.0352 6.96484 20.5716 6.96484 20ZM14.9648 20V18C14.9648 17.4284 15.4284 16.9648 16 16.9648C16.5716 16.9648 17.0352 17.4284 17.0352 18V20C17.0352 20.5716 16.5716 21.0352 16 21.0352C15.4284 21.0352 14.9648 20.5716 14.9648 20ZM10.9648 16V14C10.9648 13.4284 11.4284 12.9648 12 12.9648C12.5716 12.9648 13.0352 13.4284 13.0352 14V16C13.0352 16.5716 12.5716 17.0352 12 17.0352C11.4284 17.0352 10.9648 16.5716 10.9648 16ZM20.9648 11.5C20.9648 9.69616 19.5859 8.21306 17.8252 8.0498C17.3564 8.00638 16.9759 7.65207 16.8994 7.1875C16.5122 4.83223 14.4647 3.03516 12 3.03516C9.53526 3.03516 7.48778 4.83223 7.10059 7.1875C7.02407 7.65207 6.64365 8.00638 6.1748 8.0498C4.41414 8.21306 3.03516 9.69616 3.03516 11.5C3.03516 12.7004 3.64496 13.7585 4.57617 14.3818C5.05105 14.6998 5.17828 15.3434 4.86035 15.8184C4.54235 16.2932 3.89879 16.4205 3.42383 16.1025C1.94319 15.1113 0.964844 13.42 0.964844 11.5C0.964844 8.88254 2.78119 6.69024 5.22266 6.11328C6.04768 3.14423 8.76783 0.964844 12 0.964844C15.2321 0.964844 17.9513 3.14436 18.7764 6.11328C21.2183 6.68991 23.0352 8.88221 23.0352 11.5C23.0352 13.42 22.0568 15.1113 20.5762 16.1025C20.1012 16.4205 19.4577 16.2932 19.1396 15.8184C18.8217 15.3434 18.949 14.6998 19.4238 14.3818C20.355 13.7585 20.9648 12.7004 20.9648 11.5ZM6.96484 14V12C6.96484 11.4284 7.42839 10.9648 8 10.9648C8.57161 10.9648 9.03516 11.4284 9.03516 12V14C9.03516 14.5716 8.57161 15.0352 8 15.0352C7.42839 15.0352 6.96484 14.5716 6.96484 14ZM14.9648 14V12C14.9648 11.4284 15.4284 10.9648 16 10.9648C16.5716 10.9648 17.0352 11.4284 17.0352 12V14C17.0352 14.5716 16.5716 15.0352 16 15.0352C15.4284 15.0352 14.9648 14.5716 14.9648 14Z"/></g><defs><clipPath id="a"><path fill="#fff" d="M0 0H24V24H0z"/></clipPath></defs></svg>