<svg xmlns="http://www.w3.org/2000/svg" width="24" height="24" fill="none" viewBox="0 0 24 24"><path fill="currentColor" d="M2.26855 2.26848C2.67275 1.86428 3.32725 1.86428 3.73145 2.26848L7.98438 6.52141C8.00533 6.54047 8.02489 6.56058 8.04395 6.58098L19.4824 18.0195C19.5268 18.0573 19.5687 18.0982 19.6064 18.1435L21.7314 20.2685C22.1356 20.6727 22.1356 21.3272 21.7314 21.7314C21.3273 22.1356 20.6727 22.1356 20.2686 21.7314L18.4814 19.9443C18.1622 20.0015 17.8346 20.0351 17.5 20.0351H6.5C3.4431 20.0351 0.964844 17.5568 0.964844 14.4999C0.964844 11.8821 2.7816 9.68877 5.22363 9.11223C5.39144 8.50871 5.63667 7.93816 5.94922 7.41203L2.26855 3.73137C1.86436 3.32717 1.86436 2.67267 2.26855 2.26848ZM20.9648 14.4999C20.9648 12.6961 19.5859 11.213 17.8252 11.0497C17.3564 11.0063 16.9759 10.652 16.8994 10.1874C16.5122 7.83215 14.4647 6.03508 12 6.03508C11.629 6.03508 11.2687 6.07583 10.9229 6.15227C10.3647 6.27555 9.81181 5.9223 9.68848 5.36418C9.56543 4.80619 9.91857 4.25409 10.4766 4.13078C10.9681 4.02219 11.478 3.96477 12 3.96477C15.2321 3.96477 17.9513 6.14428 18.7764 9.1132C21.2183 9.68983 23.0352 11.8821 23.0352 14.4999C23.0352 15.1995 22.9046 15.8712 22.666 16.4902C22.4604 17.0235 21.8615 17.2894 21.3281 17.0839C20.7949 16.8783 20.529 16.2793 20.7344 15.746C20.8829 15.3608 20.9648 14.941 20.9648 14.4999ZM3.03516 14.4999C3.03516 16.4136 4.58633 17.9648 6.5 17.9648H16.502L7.48047 8.94328C7.30242 9.3338 7.17233 9.75101 7.10059 10.1874C7.02407 10.652 6.64365 11.0063 6.1748 11.0497C4.41414 11.213 3.03516 12.6961 3.03516 14.4999Z"/></svg>