<svg xmlns="http://www.w3.org/2000/svg" width="24" height="24" fill="none" viewBox="0 0 24 24"><path fill="currentColor" d="M12.0098 19.9648C12.5814 19.9648 13.0449 20.4284 13.0449 21C13.0449 21.5716 12.5814 22.0352 12.0098 22.0352H12C11.4284 22.0352 10.9648 21.5716 10.9648 21C10.9648 20.4284 11.4284 19.9648 12 19.9648H12.0098ZM8.00977 17.9648C8.58138 17.9648 9.04492 18.4284 9.04492 19C9.04492 19.5716 8.58138 20.0352 8.00977 20.0352H8C7.42839 20.0352 6.96484 19.5716 6.96484 19C6.96484 18.4284 7.42839 17.9648 8 17.9648H8.00977ZM16.0098 17.9648C16.5814 17.9648 17.0449 18.4284 17.0449 19C17.0449 19.5716 16.5814 20.0352 16.0098 20.0352H16C15.4284 20.0352 14.9648 19.5716 14.9648 19C14.9648 18.4284 15.4284 17.9648 16 17.9648H16.0098ZM12.0098 15.9648C12.5814 15.9648 13.0449 16.4284 13.0449 17C13.0449 17.5716 12.5814 18.0352 12.0098 18.0352H12C11.4284 18.0352 10.9648 17.5716 10.9648 17C10.9648 16.4284 11.4284 15.9648 12 15.9648H12.0098ZM20.9648 11.5C20.9648 9.69616 19.5859 8.21306 17.8252 8.0498C17.3564 8.00638 16.9759 7.65207 16.8994 7.1875C16.5122 4.83223 14.4647 3.03516 12 3.03516C9.53526 3.03516 7.48778 4.83223 7.10059 7.1875C7.02407 7.65207 6.64365 8.00638 6.1748 8.0498C4.41414 8.21306 3.03516 9.69616 3.03516 11.5C3.03516 12.7004 3.64496 13.7585 4.57617 14.3818C5.05105 14.6998 5.17828 15.3434 4.86035 15.8184C4.54235 16.2932 3.89879 16.4205 3.42383 16.1025C1.94319 15.1113 0.964844 13.42 0.964844 11.5C0.964844 8.88254 2.78119 6.69024 5.22266 6.11328C6.04768 3.14423 8.76783 0.964844 12 0.964844C15.2321 0.964844 17.9513 3.14436 18.7764 6.11328C21.2183 6.68991 23.0352 8.88221 23.0352 11.5C23.0352 13.42 22.0568 15.1113 20.5762 16.1025C20.1012 16.4205 19.4577 16.2932 19.1396 15.8184C18.8217 15.3434 18.949 14.6998 19.4238 14.3818C20.355 13.7585 20.9648 12.7004 20.9648 11.5ZM8.00977 13.9648C8.58138 13.9648 9.04492 14.4284 9.04492 15C9.04492 15.5716 8.58138 16.0352 8.00977 16.0352H8C7.42839 16.0352 6.96484 15.5716 6.96484 15C6.96484 14.4284 7.42839 13.9648 8 13.9648H8.00977ZM16.0098 13.9648C16.5814 13.9648 17.0449 14.4284 17.0449 15C17.0449 15.5716 16.5814 16.0352 16.0098 16.0352H16C15.4284 16.0352 14.9648 15.5716 14.9648 15C14.9648 14.4284 15.4284 13.9648 16 13.9648H16.0098Z"/></svg>