<svg xmlns="http://www.w3.org/2000/svg" width="24" height="24" fill="none" viewBox="0 0 24 24"><g clip-path="url(#a)"><path fill="currentColor" d="M20.9648 18C20.9648 16.3625 19.6375 15.0352 18 15.0352C17.6542 15.0352 17.3244 15.0939 17.0186 15.2012C16.489 15.3869 15.9073 15.1164 15.708 14.5918C15.1394 13.0955 13.6922 12.0352 12 12.0352C10.3078 12.0352 8.86063 13.0955 8.29199 14.5918C8.09265 15.1164 7.51105 15.3869 6.98145 15.2012C6.6756 15.0939 6.3458 15.0352 6 15.0352C4.36248 15.0352 3.03516 16.3625 3.03516 18C3.03516 19.6375 4.36248 20.9648 6 20.9648H18C19.6375 20.9648 20.9648 19.6375 20.9648 18ZM3.59961 8.96484C4.17122 8.96484 4.63477 9.42839 4.63477 10C4.63477 10.5716 4.17122 11.0352 3.59961 11.0352H2C1.42839 11.0352 0.964844 10.5716 0.964844 10C0.964844 9.42839 1.42839 8.96484 2 8.96484H3.59961ZM5.46484 10C5.46488 7.2193 7.7193 4.96488 10.5 4.96484C12.397 4.96484 14.0478 6.01444 14.9053 7.55957C15.1826 8.05939 15.0018 8.68945 14.502 8.9668C14.0022 9.24405 13.3721 9.06422 13.0947 8.56445C12.5874 7.65026 11.615 7.03516 10.5 7.03516C8.86253 7.0352 7.5352 8.36253 7.53516 10C7.53516 10.5716 7.07161 11.0352 6.5 11.0352C5.92842 11.0351 5.46484 10.5716 5.46484 10ZM19 8.96484C19.5716 8.96484 20.0352 9.42839 20.0352 10C20.0352 10.5716 19.5716 11.0352 19 11.0352H17.4004C16.8288 11.0352 16.3652 10.5716 16.3652 10C16.3652 9.42839 16.8288 8.96484 17.4004 8.96484H19ZM3.58789 3.08789C3.99206 2.68382 4.64759 2.68382 5.05176 3.08789L6.18262 4.21973C6.58681 4.62392 6.58681 5.2794 6.18262 5.68359C5.77852 6.08726 5.12382 6.08728 4.71973 5.68359L3.58789 4.55176C3.18379 4.14756 3.18373 3.49205 3.58789 3.08789ZM15.9492 3.08789C16.3534 2.68381 17.0089 2.68382 17.4131 3.08789C17.8173 3.49206 17.8172 4.14756 17.4131 4.55176L16.2812 5.68359C15.8772 6.08727 15.2225 6.08727 14.8184 5.68359C14.4142 5.2794 14.4142 4.62392 14.8184 4.21973L15.9492 3.08789ZM9.46484 3.09961V1.5C9.46484 0.928385 9.92839 0.464844 10.5 0.464844C11.0716 0.464844 11.5352 0.928385 11.5352 1.5V3.09961C11.5352 3.67122 11.0716 4.13477 10.5 4.13477C9.92839 4.13477 9.46484 3.67122 9.46484 3.09961ZM23.0352 18C23.0352 20.7808 20.7808 23.0352 18 23.0352H6C3.21925 23.0352 0.964844 20.7808 0.964844 18C0.964844 15.2192 3.21925 12.9648 6 12.9648C6.25453 12.9648 6.50493 12.9848 6.75 13.0215C7.7872 11.1971 9.74883 9.96484 12 9.96484C14.251 9.96484 16.2118 11.1973 17.249 13.0215C17.4944 12.9847 17.7451 12.9648 18 12.9648C20.7808 12.9648 23.0352 15.2192 23.0352 18Z"/></g><defs><clipPath id="a"><path fill="#fff" d="M0 0H24V24H0z"/></clipPath></defs></svg>