<svg xmlns="http://www.w3.org/2000/svg" width="24" height="24" fill="none" viewBox="0 0 24 24"><g clip-path="url(#a)"><path fill="currentColor" d="M20.9648 17.5C20.9648 15.5863 19.4137 14.0352 17.5 14.0352C17.4228 14.0352 17.3462 14.0371 17.2705 14.042C16.877 14.0676 16.5025 13.8681 16.3057 13.5264C15.4468 12.0353 13.8397 11.0352 12 11.0352C9.83554 11.0352 7.9923 12.4207 7.31348 14.3564C7.15753 14.8012 6.72061 15.0839 6.25098 15.0449C6.16857 15.0381 6.08462 15.0352 6 15.0352C4.36248 15.0352 3.03516 16.3625 3.03516 18C3.03516 19.6375 4.36248 20.9648 6 20.9648H17.5C19.4137 20.9648 20.9648 19.4137 20.9648 17.5ZM1.96484 9.5C1.96484 4.78625 5.78625 0.964844 10.5 0.964844C14.8287 0.964844 18.4035 4.18653 18.96 8.36328C19.0355 8.92989 18.6369 9.45087 18.0703 9.52637C17.5039 9.60165 16.9837 9.20318 16.9082 8.63672C16.4869 5.47475 13.7774 3.03516 10.5 3.03516C6.92948 3.03516 4.03516 5.92948 4.03516 9.5C4.03516 9.94409 4.07939 10.3767 4.16406 10.7939C4.27778 11.3541 3.91566 11.9009 3.35547 12.0146C2.79551 12.128 2.24949 11.766 2.13574 11.2061C2.02368 10.654 1.96484 10.0832 1.96484 9.5ZM23.0352 17.5C23.0352 20.5569 20.5569 23.0352 17.5 23.0352H6C3.21925 23.0352 0.964844 20.7808 0.964844 18C0.964844 15.3385 3.0302 13.1605 5.64551 12.9785C6.77545 10.6063 9.1949 8.96484 12 8.96484C14.3874 8.96484 16.4929 10.1567 17.7637 11.9717C20.6981 12.1093 23.0352 14.5315 23.0352 17.5Z"/></g><defs><clipPath id="a"><path fill="#fff" d="M0 0H24V24H0z"/></clipPath></defs></svg>