<svg xmlns="http://www.w3.org/2000/svg" width="24" height="24" fill="none" viewBox="0 0 24 24"><path fill="currentColor" d="M20.9648 14.5C20.9648 12.9813 19.9874 11.6879 18.624 11.2207C18.2439 11.0904 17.9737 10.7521 17.9307 10.3525C17.6087 7.36318 15.0754 5.03516 12 5.03516C8.70562 5.03516 6.03516 7.70562 6.03516 11C6.03516 11.0359 6.0355 11.0717 6.03613 11.1074C6.04457 11.5865 5.72284 12.0086 5.25879 12.1279C3.97933 12.4568 3.03516 13.6196 3.03516 15C3.03516 16.6375 4.36248 17.9648 6 17.9648H17.5C19.4137 17.9648 20.9648 16.4137 20.9648 14.5ZM23.0352 14.5C23.0352 17.5569 20.5569 20.0352 17.5 20.0352H6C3.21925 20.0352 0.964844 17.7808 0.964844 15C0.964844 12.9323 2.21052 11.1575 3.99121 10.3818C4.30696 6.23317 7.77046 2.96484 12 2.96484C15.9279 2.96484 19.1944 5.78298 19.8945 9.50781C21.7517 10.4002 23.0352 12.2994 23.0352 14.5Z"/></svg>