<svg xmlns="http://www.w3.org/2000/svg" width="24" height="24" fill="none" viewBox="0 0 24 24"><path fill="currentColor" d="M13 19.9648C13.5716 19.9648 14.0352 20.4284 14.0352 21C14.0352 21.5716 13.5716 22.0352 13 22.0352H6C5.42839 22.0352 4.96484 21.5716 4.96484 21C4.96484 20.4284 5.42839 19.9648 6 19.9648H13ZM18 19.9648C18.5716 19.9648 19.0352 20.4284 19.0352 21C19.0352 21.5716 18.5716 22.0352 18 22.0352H16C15.4284 22.0352 14.9648 21.5716 14.9648 21C14.9648 20.4284 15.4284 19.9648 16 19.9648H18ZM7 16.9648C7.57161 16.9648 8.03516 17.4284 8.03516 18C8.03516 18.5716 7.57161 19.0352 7 19.0352H5C4.42839 19.0352 3.96484 18.5716 3.96484 18C3.96484 17.4284 4.42839 16.9648 5 16.9648H7ZM19 16.9648C19.5716 16.9648 20.0352 17.4284 20.0352 18C20.0352 18.5716 19.5716 19.0352 19 19.0352H10C9.42839 19.0352 8.96484 18.5716 8.96484 18C8.96484 17.4284 9.42839 16.9648 10 16.9648H19ZM0.964844 10C0.964844 6.83802 3.39684 4.24524 6.49219 3.9873C7.65189 2.17254 9.6831 0.964844 12 0.964844C14.7209 0.964844 17.0503 2.6275 18.0342 4.99023C20.8405 5.25895 23.0352 7.6233 23.0352 10.5C23.0352 13.5569 20.5569 16.0352 17.5 16.0352H7C3.66696 16.0352 0.964844 13.333 0.964844 10ZM3.03516 10C3.03516 12.1898 4.81019 13.9648 7 13.9648H17.5C19.4137 13.9648 20.9648 12.4137 20.9648 10.5C20.9648 8.58633 19.4137 7.03516 17.5 7.03516C17.4466 7.03516 17.3936 7.03669 17.3408 7.03906C16.8605 7.06068 16.4283 6.74792 16.2979 6.28516C15.7688 4.40878 14.0436 3.03516 12 3.03516C10.266 3.03516 8.76072 4.02298 8.02051 5.47168C7.84032 5.82434 7.47505 6.04383 7.0791 6.03613C7.0528 6.03562 7.02641 6.03516 7 6.03516C4.81019 6.03516 3.03516 7.81019 3.03516 10Z"/></svg>