<svg xmlns="http://www.w3.org/2000/svg" width="24" height="24" fill="none" viewBox="0 0 24 24"><path fill="currentColor" d="M20.9648 17.5005C20.9648 15.5868 19.4137 14.0347 17.5 14.0347C17.1755 14.0347 16.8629 14.0793 16.5674 14.1616C16.101 14.2916 15.6061 14.0813 15.377 13.6548C14.5381 12.0932 12.8921 11.0347 11 11.0347C8.82219 11.0347 6.96928 12.4378 6.30078 14.3921C6.17817 14.7506 5.86952 15.0137 5.49609 15.0776C4.09887 15.3164 3.03516 16.5354 3.03516 18.0005C3.03542 19.6378 4.36264 20.9653 6 20.9653H17.5C19.4135 20.9653 20.9646 19.4139 20.9648 17.5005ZM3.96484 7.00048V6.03466H3C2.42855 6.03466 1.96511 5.57187 1.96484 5.00048C1.96484 4.42886 2.42839 3.96532 3 3.96532H3.96484V3.00048C3.96484 2.42886 4.42839 1.96532 5 1.96532C5.57161 1.96532 6.03516 2.42886 6.03516 3.00048V3.96532H7C7.57161 3.96532 8.03516 4.42886 8.03516 5.00048C8.03489 5.57187 7.57145 6.03466 7 6.03466H6.03516V7.00048C6.03489 7.57187 5.57145 8.03466 5 8.03466C4.42855 8.03466 3.96511 7.57187 3.96484 7.00048ZM23.0352 17.5005C23.0349 20.5572 20.5567 23.0347 17.5 23.0347H6C3.21941 23.0347 0.965108 20.781 0.964844 18.0005C0.964844 15.7212 2.47882 13.7974 4.55566 13.1763C5.53359 10.9476 7.63321 9.32094 10.1426 9.0161C10.0268 8.5292 9.96488 8.0217 9.96484 7.50048C9.96484 4.43763 12.0715 1.86909 14.9131 1.15966C15.2656 1.07177 15.6386 1.17523 15.8955 1.43212C16.1522 1.68907 16.2559 2.06211 16.168 2.41454C16.0816 2.76084 16.0352 3.12401 16.0352 3.4995C16.0352 5.96545 18.034 7.96435 20.5 7.96435C20.8758 7.96435 21.2394 7.91805 21.5859 7.83153C21.9385 7.74356 22.3114 7.84713 22.5684 8.10399C22.8253 8.36091 22.9287 8.73387 22.8408 9.08642C22.4671 10.5842 21.576 11.8766 20.3691 12.7651C21.9675 13.7357 23.0352 15.4939 23.0352 17.5005ZM12.0352 7.50048C12.0352 8.06192 12.1391 8.59721 12.3271 9.09032C14.1527 9.43894 15.7263 10.4935 16.7559 11.9565C18.1769 11.8762 19.4187 11.1303 20.1787 10.0259C16.8255 9.86351 14.1354 7.17483 13.9727 3.82177C12.8031 4.62716 12.0352 5.97407 12.0352 7.50048Z"/></svg>