<svg xmlns="http://www.w3.org/2000/svg" width="24" height="24" fill="none" viewBox="0 0 24 24"><g clip-path="url(#a)"><path fill="currentColor" d="M12.1387 9.42578C12.4557 8.95017 13.0986 8.8216 13.5742 9.13867C14.0498 9.45575 14.1784 10.0986 13.8613 10.5742L10.9346 14.9648H15C15.3817 14.9648 15.732 15.1752 15.9121 15.5117C16.0922 15.8483 16.0731 16.2566 15.8613 16.5742L11.8613 22.5742C11.5443 23.0498 10.9014 23.1784 10.4258 22.8613C9.95017 22.5443 9.8216 21.9014 10.1387 21.4258L13.0654 17.0352H9C8.61834 17.0352 8.26802 16.8248 8.08789 16.4883C7.90778 16.1517 7.92694 15.7434 8.13867 15.4258L12.1387 9.42578ZM20.9648 11.5C20.9648 9.69616 19.5859 8.21306 17.8252 8.0498C17.3564 8.00638 16.9759 7.65207 16.8994 7.1875C16.5122 4.83223 14.4647 3.03516 12 3.03516C9.53526 3.03516 7.48778 4.83223 7.10059 7.1875C7.02407 7.65207 6.64365 8.00638 6.1748 8.0498C4.41414 8.21306 3.03516 9.69616 3.03516 11.5C3.03516 13.0071 3.99754 14.2924 5.34473 14.7686C5.88367 14.959 6.16607 15.5499 5.97559 16.0889C5.78508 16.6277 5.19414 16.9101 4.65527 16.7197C2.50689 15.9604 0.964844 13.9116 0.964844 11.5C0.964844 8.88254 2.78119 6.69024 5.22266 6.11328C6.04768 3.14423 8.76783 0.964844 12 0.964844C15.2321 0.964844 17.9513 3.14436 18.7764 6.11328C21.2183 6.68991 23.0352 8.88221 23.0352 11.5C23.0352 13.9116 21.4931 15.9604 19.3447 16.7197C18.8059 16.9101 18.2149 16.6277 18.0244 16.0889C17.8339 15.5499 18.1163 14.959 18.6553 14.7686C20.0025 14.2924 20.9648 13.0071 20.9648 11.5Z"/></g><defs><clipPath id="a"><path fill="#fff" d="M0 0H24V24H0z"/></clipPath></defs></svg>