<svg xmlns="http://www.w3.org/2000/svg" width="24" height="24" fill="none" viewBox="0 0 24 24"><path fill="currentColor" d="M7.03906 18.1152C7.25147 17.5847 7.85415 17.3268 8.38477 17.5391C8.91527 17.7515 9.17319 18.3541 8.96094 18.8848L7.96094 21.3848C7.74853 21.9153 7.14585 22.1732 6.61523 21.9609C6.08473 21.7485 5.82681 21.1459 6.03906 20.6152L7.03906 18.1152ZM11.0391 18.1152C11.2515 17.5847 11.8541 17.3268 12.3848 17.5391C12.9153 17.7515 13.1732 18.3541 12.9609 18.8848L11.9609 21.3848C11.7485 21.9153 11.1459 22.1732 10.6152 21.9609C10.0847 21.7485 9.82682 21.1459 10.0391 20.6152L11.0391 18.1152ZM15.0391 18.1152C15.2515 17.5847 15.8541 17.3268 16.3848 17.5391C16.9153 17.7515 17.1732 18.3541 16.9609 18.8848L15.9609 21.3848C15.7485 21.9153 15.1459 22.1732 14.6152 21.9609C14.0847 21.7485 13.8268 21.1459 14.0391 20.6152L15.0391 18.1152ZM0.964844 10C0.964844 6.83802 3.39684 4.24524 6.49219 3.9873C7.65189 2.17254 9.6831 0.964844 12 0.964844C14.7209 0.964844 17.0503 2.6275 18.0342 4.99023C20.8405 5.25895 23.0352 7.6233 23.0352 10.5C23.0352 13.5569 20.5569 16.0352 17.5 16.0352H7C3.66696 16.0352 0.964844 13.333 0.964844 10ZM3.03516 10C3.03516 12.1898 4.81019 13.9648 7 13.9648H17.5C19.4137 13.9648 20.9648 12.4137 20.9648 10.5C20.9648 8.58633 19.4137 7.03516 17.5 7.03516C17.4466 7.03516 17.3936 7.03669 17.3408 7.03906C16.8605 7.06068 16.4283 6.74792 16.2979 6.28516C15.7688 4.40878 14.0436 3.03516 12 3.03516C10.266 3.03516 8.76072 4.02298 8.02051 5.47168C7.84032 5.82434 7.47505 6.04383 7.0791 6.03613C7.0528 6.03562 7.02641 6.03516 7 6.03516C4.81019 6.03516 3.03516 7.81019 3.03516 10Z"/></svg>