<svg xmlns="http://www.w3.org/2000/svg" width="24" height="24" fill="none" viewBox="0 0 24 24"><g clip-path="url(#a)"><path fill="currentColor" d="M11.2891 14.6152C11.5015 14.0847 12.1042 13.8268 12.6348 14.0391C13.1652 14.2515 13.4232 14.8542 13.2109 15.3848L10.4111 22.3848C10.1988 22.9153 9.59608 23.1732 9.06543 22.9609C8.53478 22.7486 8.27698 22.1459 8.48926 21.6152L11.2891 14.6152ZM8.08887 12.6152C8.30126 12.0847 8.90393 11.8268 9.43457 12.0391C9.96519 12.2514 10.223 12.8541 10.0107 13.3848L7.21094 20.3848C6.99853 20.9153 6.39585 21.1732 5.86523 20.9609C5.33473 20.7485 5.07681 20.1459 5.28906 19.6152L8.08887 12.6152ZM16.0889 12.6152C16.3013 12.0847 16.9039 11.8268 17.4346 12.0391C17.9652 12.2514 18.223 12.8541 18.0107 13.3848L15.2109 20.3848C14.9985 20.9153 14.3959 21.1732 13.8652 20.9609C13.3347 20.7485 13.0768 20.1459 13.2891 19.6152L16.0889 12.6152ZM20.9648 11.5C20.9648 9.69616 19.5859 8.21306 17.8252 8.0498C17.3564 8.00638 16.9759 7.65207 16.8994 7.1875C16.5122 4.83223 14.4647 3.03516 12 3.03516C9.53526 3.03516 7.48778 4.83223 7.10059 7.1875C7.02407 7.65207 6.64365 8.00638 6.1748 8.0498C4.41414 8.21306 3.03516 9.69616 3.03516 11.5C3.03516 12.7004 3.64496 13.7585 4.57617 14.3818C5.05105 14.6998 5.17828 15.3434 4.86035 15.8184C4.54235 16.2932 3.89879 16.4205 3.42383 16.1025C1.94319 15.1113 0.964844 13.42 0.964844 11.5C0.964844 8.88254 2.78119 6.69024 5.22266 6.11328C6.04768 3.14423 8.76783 0.964844 12 0.964844C15.2321 0.964844 17.9513 3.14436 18.7764 6.11328C21.2183 6.68991 23.0352 8.88221 23.0352 11.5C23.0352 13.42 22.0568 15.1113 20.5762 16.1025C20.1012 16.4205 19.4577 16.2932 19.1396 15.8184C18.8217 15.3434 18.949 14.6998 19.4238 14.3818C20.355 13.7585 20.9648 12.7004 20.9648 11.5Z"/></g><defs><clipPath id="a"><path fill="#fff" d="M0 0H24V24H0z"/></clipPath></defs></svg>