<svg xmlns="http://www.w3.org/2000/svg" width="24" height="24" fill="none" viewBox="0 0 24 24"><path fill="currentColor" d="M12.0098 20.4648C12.5814 20.4648 13.0449 20.9284 13.0449 21.5C13.0449 22.0716 12.5814 22.5352 12.0098 22.5352H12C11.4284 22.5352 10.9648 22.0716 10.9648 21.5C10.9648 20.9284 11.4284 20.4648 12 20.4648H12.0098ZM8.00977 19.9648C8.58138 19.9648 9.04492 20.4284 9.04492 21C9.04492 21.5716 8.58138 22.0352 8.00977 22.0352H8C7.42839 22.0352 6.96484 21.5716 6.96484 21C6.96484 20.4284 7.42839 19.9648 8 19.9648H8.00977ZM16.0098 19.9648C16.5814 19.9648 17.0449 20.4284 17.0449 21C17.0449 21.5716 16.5814 22.0352 16.0098 22.0352H16C15.4284 22.0352 14.9648 21.5716 14.9648 21C14.9648 20.4284 15.4284 19.9648 16 19.9648H16.0098ZM12.0098 17.4648C12.5814 17.4648 13.0449 17.9284 13.0449 18.5C13.0449 19.0716 12.5814 19.5352 12.0098 19.5352H12C11.4284 19.5352 10.9648 19.0716 10.9648 18.5C10.9648 17.9284 11.4284 17.4648 12 17.4648H12.0098ZM8.00977 16.9648C8.58138 16.9648 9.04492 17.4284 9.04492 18C9.04492 18.5716 8.58138 19.0352 8.00977 19.0352H8C7.42839 19.0352 6.96484 18.5716 6.96484 18C6.96484 17.4284 7.42839 16.9648 8 16.9648H8.00977ZM16.0098 16.9648C16.5814 16.9648 17.0449 17.4284 17.0449 18C17.0449 18.5716 16.5814 19.0352 16.0098 19.0352H16C15.4284 19.0352 14.9648 18.5716 14.9648 18C14.9648 17.4284 15.4284 16.9648 16 16.9648H16.0098ZM0.964844 10C0.964844 6.83802 3.39684 4.24524 6.49219 3.9873C7.65189 2.17254 9.6831 0.964844 12 0.964844C14.7209 0.964844 17.0503 2.6275 18.0342 4.99023C20.8405 5.25895 23.0352 7.6233 23.0352 10.5C23.0352 13.5569 20.5569 16.0352 17.5 16.0352H7C3.66696 16.0352 0.964844 13.333 0.964844 10ZM3.03516 10C3.03516 12.1898 4.81019 13.9648 7 13.9648H17.5C19.4137 13.9648 20.9648 12.4137 20.9648 10.5C20.9648 8.58633 19.4137 7.03516 17.5 7.03516C17.4466 7.03516 17.3936 7.03669 17.3408 7.03906C16.8605 7.06068 16.4283 6.74792 16.2979 6.28516C15.7688 4.40878 14.0436 3.03516 12 3.03516C10.266 3.03516 8.76072 4.02298 8.02051 5.47168C7.84032 5.82434 7.47505 6.04383 7.0791 6.03613C7.0528 6.03562 7.02641 6.03516 7 6.03516C4.81019 6.03516 3.03516 7.81019 3.03516 10Z"/></svg>