<svg xmlns="http://www.w3.org/2000/svg" width="24" height="24" fill="none" viewBox="0 0 24 24"><path fill="currentColor" d="M20.9648 14.5C20.9648 12.6962 19.5859 11.2131 17.8252 11.0498C17.3564 11.0064 16.9759 10.6521 16.8994 10.1875C16.5122 7.83223 14.4647 6.03516 12 6.03516C9.53526 6.03516 7.48778 7.83223 7.10059 10.1875C7.02407 10.6521 6.64365 11.0064 6.1748 11.0498C4.41414 11.2131 3.03516 12.6962 3.03516 14.5C3.03516 16.4137 4.58633 17.9648 6.5 17.9648H17.5C19.4137 17.9648 20.9648 16.4137 20.9648 14.5ZM23.0352 14.5C23.0352 17.5569 20.5569 20.0352 17.5 20.0352H6.5C3.4431 20.0352 0.964844 17.5569 0.964844 14.5C0.964844 11.8825 2.78119 9.69024 5.22266 9.11328C6.04768 6.14423 8.76783 3.96484 12 3.96484C15.2321 3.96484 17.9513 6.14436 18.7764 9.11328C21.2183 9.68991 23.0352 11.8822 23.0352 14.5Z"/></svg>