<svg xmlns="http://www.w3.org/2000/svg" width="24" height="24" fill="none" viewBox="0 0 24 24"><path fill="currentColor" d="M20.9648 8C20.9648 5.81019 19.1898 4.03516 17 4.03516C15.1322 4.03516 13.5667 5.32669 13.1465 7.06543C15.3631 7.45763 17.1917 8.9672 18.0342 10.9902C18.4601 11.031 18.8715 11.1212 19.2637 11.2529C20.2928 10.5354 20.9648 9.34641 20.9648 8ZM3.03516 16C3.03516 18.1898 4.81019 19.9648 7 19.9648H17.5C19.4137 19.9648 20.9648 18.4137 20.9648 16.5C20.9648 14.5863 19.4137 13.0352 17.5 13.0352C17.4466 13.0352 17.3936 13.0367 17.3408 13.0391C16.8605 13.0607 16.4283 12.7479 16.2979 12.2852C15.7688 10.4088 14.0436 9.03516 12 9.03516C10.266 9.03516 8.76072 10.023 8.02051 11.4717C7.84032 11.8243 7.47505 12.0438 7.0791 12.0361C7.0528 12.0356 7.02641 12.0352 7 12.0352C4.81019 12.0352 3.03516 13.8102 3.03516 16ZM23.0352 8C23.0352 9.71506 22.3188 11.2615 21.1719 12.3594C22.3144 13.3733 23.0352 14.8523 23.0352 16.5C23.0352 19.5569 20.5569 22.0352 17.5 22.0352H7C3.66696 22.0352 0.964844 19.333 0.964844 16C0.964844 12.838 3.39684 10.2452 6.49219 9.9873C7.489 8.42745 9.12892 7.31524 11.042 7.03418C11.5043 4.16026 13.9957 1.96484 17 1.96484C20.333 1.96484 23.0352 4.66696 23.0352 8Z"/></svg>