<svg xmlns="http://www.w3.org/2000/svg" width="24" height="24" fill="none" viewBox="0 0 24 24"><g clip-path="url(#a)"><path fill="currentColor" d="M10.9648 22V19.5C10.9648 18.9284 11.4284 18.4648 12 18.4648C12.5716 18.4648 13.0352 18.9284 13.0352 19.5V22C13.0352 22.5716 12.5716 23.0352 12 23.0352C11.4284 23.0352 10.9648 22.5716 10.9648 22ZM6.96484 21V18.5C6.96484 17.9284 7.42839 17.4648 8 17.4648C8.57161 17.4648 9.03516 17.9284 9.03516 18.5V21C9.03516 21.5716 8.57161 22.0352 8 22.0352C7.42839 22.0352 6.96484 21.5716 6.96484 21ZM14.9648 21V18.5C14.9648 17.9284 15.4284 17.4648 16 17.4648C16.5716 17.4648 17.0352 17.9284 17.0352 18.5V21C17.0352 21.5716 16.5716 22.0352 16 22.0352C15.4284 22.0352 14.9648 21.5716 14.9648 21ZM0.964844 10C0.964844 6.83802 3.39684 4.24524 6.49219 3.9873C7.65189 2.17254 9.6831 0.964844 12 0.964844C14.7209 0.964844 17.0503 2.6275 18.0342 4.99023C20.8405 5.25895 23.0352 7.6233 23.0352 10.5C23.0352 13.5569 20.5569 16.0352 17.5 16.0352H7C3.66696 16.0352 0.964844 13.333 0.964844 10ZM3.03516 10C3.03516 12.1898 4.81019 13.9648 7 13.9648H17.5C19.4137 13.9648 20.9648 12.4137 20.9648 10.5C20.9648 8.58633 19.4137 7.03516 17.5 7.03516C17.4466 7.03516 17.3936 7.03669 17.3408 7.03906C16.8605 7.06068 16.4283 6.74792 16.2979 6.28516C15.7688 4.40878 14.0436 3.03516 12 3.03516C10.266 3.03516 8.76072 4.02298 8.02051 5.47168C7.84032 5.82434 7.47505 6.04383 7.0791 6.03613C7.0528 6.03562 7.02641 6.03516 7 6.03516C4.81019 6.03516 3.03516 7.81019 3.03516 10Z"/></g><defs><clipPath id="a"><path fill="#fff" d="M0 0H24V24H0z"/></clipPath></defs></svg>