<svg xmlns="http://www.w3.org/2000/svg" width="24" height="24" fill="none" viewBox="0 0 24 24"><path fill="currentColor" d="M0.964844 11.5C0.964844 6.78625 4.78625 2.96484 9.5 2.96484C12.5509 2.96484 15.2252 4.56686 16.7334 6.9707C20.2345 7.09363 23.0352 9.96897 23.0352 13.5C23.0352 17.1092 20.1092 20.0352 16.5 20.0352H9.5C4.78625 20.0352 0.964844 16.2137 0.964844 11.5ZM3.03516 11.5C3.03516 15.0705 5.92948 17.9648 9.5 17.9648H16.5C18.966 17.9648 20.9648 15.966 20.9648 13.5C20.9648 11.034 18.966 9.03516 16.5 9.03516C16.4018 9.03516 16.3044 9.03775 16.208 9.04395C15.8006 9.07019 15.4158 8.85445 15.2256 8.49316C14.1419 6.43462 11.9834 5.03516 9.5 5.03516C5.92948 5.03516 3.03516 7.92948 3.03516 11.5Z"/></svg>