<svg xmlns="http://www.w3.org/2000/svg" width="24" height="24" fill="none" viewBox="0 0 24 24"><path fill="currentColor" d="M12.2334 1.17114L12.4648 1.21118L12.6084 1.2522C12.9355 1.36034 13.2185 1.55679 13.4365 1.69849L21.8359 7.15943C22.0471 7.29665 22.3419 7.47481 22.5615 7.73755C22.6917 7.89335 22.7976 8.06767 22.876 8.25415L22.9453 8.44458L22.9775 8.56763C23.043 8.85646 23.0352 9.14795 23.0352 9.36841V14.6321C23.0352 14.8838 23.0458 15.2278 22.9453 15.5549C22.8658 15.8136 22.7351 16.0542 22.5615 16.262C22.3419 16.5248 22.0471 16.7038 21.8359 16.8411L13.4365 22.301C13.1873 22.463 12.8531 22.6972 12.4648 22.7883C12.1591 22.8601 11.8409 22.8601 11.5352 22.7883C11.1469 22.6972 10.8127 22.463 10.5635 22.301L2.16406 16.8411C1.95289 16.7038 1.65815 16.5248 1.43848 16.262C1.26493 16.0543 1.13425 15.8137 1.05469 15.5549C0.954212 15.2278 0.964833 14.8838 0.964845 14.6321V9.36841C0.964845 9.11658 0.954043 8.77199 1.05469 8.44458L1.12403 8.25415C1.2024 8.06767 1.30828 7.89335 1.43848 7.73755C1.65808 7.47481 1.95294 7.29665 2.16406 7.15943L10.5635 1.69849C10.8127 1.53647 11.1469 1.30231 11.5352 1.21118L11.7666 1.17114C11.9217 1.15324 12.0783 1.15324 12.2334 1.17114ZM4.62793 15.0266C4.26747 15.2609 4.05703 15.3989 3.91602 15.51H3.91504L10.9648 20.092V15.5608L7.38477 13.2336L4.62793 15.0266ZM13.0352 15.5608V20.092L20.084 15.51L19.8105 15.3147C19.6952 15.237 19.5524 15.1438 19.3721 15.0266L16.6143 13.2336L13.0352 15.5608ZM9.28321 11.9993L12 13.7649L14.7158 11.9993L12 10.2336L9.28321 11.9993ZM3.03516 13.5959C3.18052 13.4978 3.33768 13.3958 3.5 13.2903L5.48535 11.9993L3.5 10.7092C3.33745 10.6036 3.1807 10.5008 3.03516 10.4026V13.5959ZM20.5 10.7092L18.5137 11.9993L20.5 13.2903C20.6623 13.3958 20.8195 13.4978 20.9648 13.5959V10.4026C20.8193 10.5008 20.6626 10.6036 20.5 10.7092ZM3.91504 8.4895C4.05608 8.60062 4.26724 8.73943 4.62793 8.97388L7.38379 10.7649L10.9648 8.43775V3.90747L3.91504 8.4895ZM13.0352 8.43775L16.6152 10.7649L19.3721 8.97388C19.7324 8.73967 19.943 8.60154 20.084 8.49048V8.4895L13.0352 3.90747V8.43775Z"/></svg>