<svg xmlns="http://www.w3.org/2000/svg" width="24" height="24" fill="none" viewBox="0 0 24 24"><path fill="currentColor" d="M12.9893 2.77534C13.1133 2.21734 13.6666 1.86521 14.2246 1.98921C14.7826 2.11321 15.1347 2.66656 15.0107 3.22456L11.0107 21.2246C10.8867 21.7826 10.3334 22.1347 9.77539 22.0107C9.21739 21.8867 8.86526 21.3333 8.98926 20.7753L12.9893 2.77534ZM6.26855 6.26851C6.67275 5.86431 7.32725 5.86431 7.73144 6.26851C8.13564 6.6727 8.13564 7.3272 7.73144 7.7314L3.46289 12L7.73144 16.2685C8.13564 16.6727 8.13564 17.3272 7.73144 17.7314C7.32725 18.1356 6.67275 18.1356 6.26855 17.7314L1.26855 12.7314C0.86436 12.3272 0.86436 11.6727 1.26855 11.2685L6.26855 6.26851ZM16.2686 6.26851C16.6727 5.86431 17.3273 5.86431 17.7314 6.26851L22.7314 11.2685C23.1356 11.6727 23.1356 12.3272 22.7314 12.7314L17.7314 17.7314C17.3273 18.1356 16.6727 18.1356 16.2686 17.7314C15.8644 17.3272 15.8644 16.6727 16.2686 16.2685L20.5371 12L16.2686 7.7314C15.8644 7.3272 15.8644 6.6727 16.2686 6.26851Z"/></svg>