<svg xmlns="http://www.w3.org/2000/svg" width="24" height="24" fill="none" viewBox="0 0 24 24"><g clip-path="url(#a)"><path fill="currentColor" d="M20.9648 12C20.9648 7.04877 16.9512 3.03516 12 3.03516C7.04877 3.03516 3.03516 7.04877 3.03516 12C3.03516 16.9512 7.04877 20.9648 12 20.9648C16.9512 20.9648 20.9648 16.9512 20.9648 12ZM13.2686 10.2686C13.6727 9.86436 14.3273 9.86436 14.7314 10.2686L17.7314 13.2686C18.1356 13.6727 18.1356 14.3273 17.7314 14.7314L14.7314 17.7314C14.3273 18.1356 13.6727 18.1356 13.2686 17.7314C12.8644 17.3273 12.8644 16.6727 13.2686 16.2686L15.5371 14L13.2686 11.7314C12.8644 11.3273 12.8644 10.6727 13.2686 10.2686ZM9.26855 6.26855C9.67275 5.86436 10.3273 5.86436 10.7314 6.26855C11.1356 6.67275 11.1356 7.32725 10.7314 7.73145L8.46289 10L10.7314 12.2686C11.1356 12.6727 11.1356 13.3273 10.7314 13.7314C10.3273 14.1356 9.67275 14.1356 9.26855 13.7314L6.26855 10.7314C5.86436 10.3273 5.86436 9.67275 6.26855 9.26855L9.26855 6.26855ZM23.0352 12C23.0352 18.0945 18.0945 23.0352 12 23.0352C5.90554 23.0352 0.964844 18.0945 0.964844 12C0.964844 5.90554 5.90554 0.964844 12 0.964844C18.0945 0.964844 23.0352 5.90554 23.0352 12Z"/></g><defs><clipPath id="a"><path fill="#fff" d="M0 0H24V24H0z"/></clipPath></defs></svg>