<svg xmlns="http://www.w3.org/2000/svg" width="24" height="24" fill="none" viewBox="0 0 24 24"><path fill="currentColor" d="M12.9892 2.77534C13.1132 2.21734 13.6665 1.86521 14.2245 1.98921C14.7825 2.11321 15.1347 2.66656 15.0107 3.22456L11.0107 21.2246C10.8867 21.7826 10.3333 22.1347 9.77531 22.0107C9.21731 21.8867 8.86518 21.3333 8.98918 20.7753L12.9892 2.77534ZM6.26848 6.26851C6.67267 5.86431 7.32717 5.86431 7.73137 6.26851C8.13556 6.6727 8.13556 7.3272 7.73137 7.7314L3.46281 12L7.73137 16.2685C8.13556 16.6727 8.13556 17.3272 7.73137 17.7314C7.32717 18.1356 6.67267 18.1356 6.26848 17.7314L1.26848 12.7314C0.864284 12.3272 0.864284 11.6727 1.26848 11.2685L6.26848 6.26851ZM16.2685 6.26851C16.6727 5.86431 17.3272 5.86431 17.7314 6.26851L22.7314 11.2685C23.1356 11.6727 23.1356 12.3272 22.7314 12.7314L17.7314 17.7314C17.3272 18.1356 16.6727 18.1356 16.2685 17.7314C15.8643 17.3272 15.8643 16.6727 16.2685 16.2685L20.537 12L16.2685 7.7314C15.8643 7.3272 15.8643 6.6727 16.2685 6.26851Z"/></svg>