<svg xmlns="http://www.w3.org/2000/svg" width="24" height="24" fill="none" viewBox="0 0 24 24"><path fill="currentColor" d="M20.9648 10.0352H3.03516V16.2002C3.03516 17.0571 3.03565 17.6377 3.07227 18.0859C3.10787 18.5218 3.17237 18.741 3.24902 18.8916C3.43736 19.2612 3.73783 19.5626 4.10742 19.751C4.25807 19.8277 4.47781 19.8921 4.91406 19.9277C5.36234 19.9643 5.94287 19.9648 6.7998 19.9648H17.2002C18.0571 19.9648 18.6377 19.9643 19.0859 19.9277C19.5222 19.8921 19.7419 19.8277 19.8926 19.751C20.2621 19.5626 20.5626 19.2621 20.751 18.8926C20.8277 18.7419 20.8921 18.5222 20.9277 18.0859C20.9643 17.6377 20.9648 17.0571 20.9648 16.2002V10.0352ZM9.26855 11.7686C9.67275 11.3644 10.3273 11.3644 10.7314 11.7686C11.1356 12.1727 11.1356 12.8273 10.7314 13.2314L8.96289 15L10.7314 16.7686C11.1356 17.1727 11.1356 17.8273 10.7314 18.2314C10.3273 18.6356 9.67275 18.6356 9.26855 18.2314L6.76855 15.7314C6.36436 15.3273 6.36436 14.6727 6.76855 14.2686L9.26855 11.7686ZM13.2686 11.7686C13.6727 11.3644 14.3273 11.3644 14.7314 11.7686L17.2314 14.2686C17.6356 14.6727 17.6356 15.3273 17.2314 15.7314L14.7314 18.2314C14.3273 18.6356 13.6727 18.6356 13.2686 18.2314C12.8644 17.8273 12.8644 17.1727 13.2686 16.7686L15.0371 15L13.2686 13.2314C12.8644 12.8273 12.8644 12.1727 13.2686 11.7686ZM20.9648 7.7998C20.9648 6.94287 20.9643 6.36234 20.9277 5.91406C20.8921 5.47824 20.8276 5.25903 20.751 5.1084C20.5626 4.73877 20.2622 4.43743 19.8926 4.24902C19.7419 4.17227 19.5222 4.10791 19.0859 4.07227C18.6377 4.03565 18.0571 4.03516 17.2002 4.03516H6.7998C5.94287 4.03516 5.36234 4.03565 4.91406 4.07227C4.47781 4.10791 4.25807 4.17227 4.10742 4.24902C3.73794 4.43737 3.43737 4.73794 3.24902 5.10742C3.17227 5.25807 3.10791 5.47781 3.07227 5.91406C3.03565 6.36234 3.03516 6.94287 3.03516 7.7998V7.96484H20.9648V7.7998ZM23.0352 16.2002C23.0352 17.0231 23.0353 17.7027 22.9902 18.2549C22.9441 18.8191 22.8449 19.341 22.5947 19.832C22.2079 20.591 21.591 21.2079 20.832 21.5947C20.341 21.8449 19.8191 21.9441 19.2549 21.9902C18.7027 22.0353 18.0231 22.0352 17.2002 22.0352H6.7998C5.97689 22.0352 5.29725 22.0353 4.74512 21.9902C4.18095 21.9441 3.65899 21.8449 3.16797 21.5947C2.409 21.2079 1.79208 20.591 1.40527 19.832C1.15509 19.341 1.05588 18.8191 1.00977 18.2549C0.964654 17.7027 0.964844 17.0231 0.964844 16.2002V7.7998C0.964844 6.97689 0.964654 6.29725 1.00977 5.74512C1.05588 5.18095 1.15509 4.65899 1.40527 4.16797C1.79208 3.409 2.409 2.79208 3.16797 2.40527C3.65899 2.15509 4.18095 2.05588 4.74512 2.00977C5.29725 1.96465 5.97689 1.96484 6.7998 1.96484H17.2002C18.0231 1.96484 18.7027 1.96465 19.2549 2.00977C19.8191 2.05588 20.341 2.15509 20.832 2.40527C21.591 2.79208 22.2079 3.409 22.5947 4.16797C22.8449 4.65899 22.9441 5.18095 22.9902 5.74512C23.0353 6.29725 23.0352 6.97689 23.0352 7.7998V16.2002Z"/></svg>