<svg xmlns="http://www.w3.org/2000/svg" width="24" height="24" fill="none" viewBox="0 0 24 24"><path fill="currentColor" d="M7.26848 5.26848C7.67267 4.86428 8.32717 4.86428 8.73137 5.26848C9.13556 5.67267 9.13556 6.32717 8.73137 6.73137L3.46281 11.9999L8.73137 17.2685C9.13556 17.6727 9.13556 18.3272 8.73137 18.7314C8.32717 19.1356 7.67267 19.1356 7.26848 18.7314L1.26848 12.7314C0.864284 12.3272 0.864284 11.6727 1.26848 11.2685L7.26848 5.26848ZM15.2685 5.26848C15.6727 4.86428 16.3272 4.86428 16.7314 5.26848L22.7314 11.2685C23.1356 11.6727 23.1356 12.3272 22.7314 12.7314L16.7314 18.7314C16.3272 19.1356 15.6727 19.1356 15.2685 18.7314C14.8643 18.3272 14.8643 17.6727 15.2685 17.2685L20.537 11.9999L15.2685 6.73137C14.8643 6.32717 14.8643 5.67267 15.2685 5.26848Z"/></svg>