<svg xmlns="http://www.w3.org/2000/svg" width="24" height="24" fill="none" viewBox="0 0 24 24"><path fill="currentColor" d="M7.26855 5.26848C7.67275 4.86428 8.32725 4.86428 8.73144 5.26848C9.13564 5.67267 9.13564 6.32717 8.73144 6.73137L3.46289 11.9999L8.73144 17.2685C9.13564 17.6727 9.13564 18.3272 8.73144 18.7314C8.32725 19.1356 7.67275 19.1356 7.26855 18.7314L1.26855 12.7314C0.86436 12.3272 0.86436 11.6727 1.26855 11.2685L7.26855 5.26848ZM15.2686 5.26848C15.6727 4.86428 16.3273 4.86428 16.7314 5.26848L22.7314 11.2685C23.1356 11.6727 23.1356 12.3272 22.7314 12.7314L16.7314 18.7314C16.3273 19.1356 15.6727 19.1356 15.2686 18.7314C14.8644 18.3272 14.8644 17.6727 15.2686 17.2685L20.5371 11.9999L15.2686 6.73137C14.8644 6.32717 14.8644 5.67267 15.2686 5.26848Z"/></svg>