<svg xmlns="http://www.w3.org/2000/svg" width="24" height="24" fill="none" viewBox="0 0 24 24"><g clip-path="url(#a)"><path fill="currentColor" d="M20.9648 12C20.9648 7.04877 16.9512 3.03516 12 3.03516C7.04877 3.03516 3.03516 7.04877 3.03516 12C3.03516 16.9512 7.04877 20.9648 12 20.9648C16.9512 20.9648 20.9648 16.9512 20.9648 12ZM11.9854 6.79688C12.0975 6.23647 12.6427 5.87326 13.2031 5.98535C13.7635 6.09754 14.1267 6.64267 14.0146 7.20312L12.0146 17.2031C11.9025 17.7635 11.3573 18.1267 10.7969 18.0146C10.2365 17.9025 9.87326 17.3573 9.98535 16.7969L11.9854 6.79688ZM7.76855 8.26855C8.17275 7.86436 8.82725 7.86436 9.23145 8.26855C9.63564 8.67275 9.63564 9.32725 9.23145 9.73145L6.96289 12L9.23145 14.2686C9.63564 14.6727 9.63564 15.3273 9.23145 15.7314C8.82725 16.1356 8.17275 16.1356 7.76855 15.7314L4.76855 12.7314C4.36436 12.3273 4.36436 11.6727 4.76855 11.2686L7.76855 8.26855ZM14.7686 8.26855C15.1727 7.86436 15.8273 7.86436 16.2314 8.26855L19.2314 11.2686C19.6356 11.6727 19.6356 12.3273 19.2314 12.7314L16.2314 15.7314C15.8273 16.1356 15.1727 16.1356 14.7686 15.7314C14.3644 15.3273 14.3644 14.6727 14.7686 14.2686L17.0371 12L14.7686 9.73145C14.3644 9.32725 14.3644 8.67275 14.7686 8.26855ZM23.0352 12C23.0352 18.0945 18.0945 23.0352 12 23.0352C5.90554 23.0352 0.964844 18.0945 0.964844 12C0.964844 5.90554 5.90554 0.964844 12 0.964844C18.0945 0.964844 23.0352 5.90554 23.0352 12Z"/></g><defs><clipPath id="a"><path fill="#fff" d="M0 0H24V24H0z"/></clipPath></defs></svg>