<svg xmlns="http://www.w3.org/2000/svg" width="24" height="24" fill="none" viewBox="0 0 24 24"><g clip-path="url(#a)"><path fill="currentColor" d="M20.9648 12C20.9648 7.04877 16.9512 3.03516 12 3.03516C7.04877 3.03516 3.03516 7.04877 3.03516 12C3.03516 16.9512 7.04877 20.9648 12 20.9648C16.9512 20.9648 20.9648 16.9512 20.9648 12ZM8.76855 8.26855C9.17275 7.86436 9.82725 7.86436 10.2314 8.26855C10.6356 8.67275 10.6356 9.32725 10.2314 9.73145L7.96289 12L10.2314 14.2686C10.6356 14.6727 10.6356 15.3273 10.2314 15.7314C9.82725 16.1356 9.17275 16.1356 8.76855 15.7314L5.76855 12.7314C5.36436 12.3273 5.36436 11.6727 5.76855 11.2686L8.76855 8.26855ZM13.7686 8.26855C14.1727 7.86436 14.8273 7.86436 15.2314 8.26855L18.2314 11.2686C18.6356 11.6727 18.6356 12.3273 18.2314 12.7314L15.2314 15.7314C14.8273 16.1356 14.1727 16.1356 13.7686 15.7314C13.3644 15.3273 13.3644 14.6727 13.7686 14.2686L16.0371 12L13.7686 9.73145C13.3644 9.32725 13.3644 8.67275 13.7686 8.26855ZM23.0352 12C23.0352 18.0945 18.0945 23.0352 12 23.0352C5.90554 23.0352 0.964844 18.0945 0.964844 12C0.964844 5.90554 5.90554 0.964844 12 0.964844C18.0945 0.964844 23.0352 5.90554 23.0352 12Z"/></g><defs><clipPath id="a"><path fill="#fff" d="M0 0H24V24H0z"/></clipPath></defs></svg>