<svg xmlns="http://www.w3.org/2000/svg" width="24" height="24" fill="none" viewBox="0 0 24 24"><path fill="currentColor" d="M18.9648 17.002C18.6685 17.1558 18.352 17.2966 18.0205 17.4209C16.4294 18.0176 14.3004 18.3652 12 18.3652C9.69961 18.3652 7.57065 18.0176 5.97949 17.4209C5.64804 17.2966 5.33152 17.1558 5.03516 17.002V19C5.03516 19.0119 5.03787 19.1475 5.31543 19.3936C5.59181 19.6385 6.05123 19.9064 6.70703 20.1523C8.01129 20.6414 9.88236 20.9648 12 20.9648C14.1176 20.9648 15.9887 20.6414 17.293 20.1523C17.9488 19.9064 18.4082 19.6385 18.6846 19.3936C18.9621 19.1475 18.9648 19.0119 18.9648 19V17.002ZM18.9648 12.3389C18.6686 12.4926 18.3518 12.6326 18.0205 12.7568C16.4294 13.3535 14.3004 13.7012 12 13.7012C9.69961 13.7012 7.57065 13.3535 5.97949 12.7568C5.64816 12.6326 5.33142 12.4926 5.03516 12.3389V14.3301L5.04004 14.3623C5.05401 14.4171 5.10785 14.5396 5.31543 14.7236C5.59181 14.9686 6.05127 15.2365 6.70703 15.4824C8.01129 15.9714 9.88237 16.2949 12 16.2949C14.1176 16.2949 15.9887 15.9714 17.293 15.4824C17.9487 15.2365 18.4082 14.9686 18.6846 14.7236C18.8922 14.5396 18.946 14.4171 18.96 14.3623L18.9648 14.3301V12.3389ZM18.9648 7.67188C18.6685 7.82571 18.352 7.96652 18.0205 8.09082C16.4294 8.6875 14.3004 9.03516 12 9.03516C9.69961 9.03516 7.57065 8.6875 5.97949 8.09082C5.64803 7.96652 5.33153 7.82571 5.03516 7.67188V9.66699L5.04004 9.69824C5.05376 9.75277 5.10713 9.87487 5.31543 10.0596C5.59178 10.3046 6.05107 10.5724 6.70703 10.8184C8.0113 11.3074 9.88226 11.6318 12 11.6318C14.1177 11.6318 15.9887 11.3074 17.293 10.8184C17.9489 10.5724 18.4082 10.3046 18.6846 10.0596C18.8929 9.87487 18.9462 9.75277 18.96 9.69824L18.9648 9.66699V7.67188ZM18.9648 5C18.9648 4.98807 18.9621 4.85253 18.6846 4.60645C18.4082 4.36148 17.9488 4.09358 17.293 3.84766C15.9887 3.35865 14.1176 3.03516 12 3.03516C9.88236 3.03516 8.01129 3.35865 6.70703 3.84766C6.05123 4.09358 5.59181 4.36148 5.31543 4.60645C5.03787 4.85253 5.03516 4.98807 5.03516 5C5.03516 5.01193 5.03787 5.14747 5.31543 5.39355C5.59181 5.63852 6.05123 5.90642 6.70703 6.15234C8.01129 6.64135 9.88236 6.96484 12 6.96484C14.1176 6.96484 15.9887 6.64135 17.293 6.15234C17.9488 5.90642 18.4082 5.63852 18.6846 5.39355C18.9621 5.14747 18.9648 5.01193 18.9648 5ZM21.0352 19C21.0352 19.8165 20.5897 20.4706 20.0576 20.9424C19.5244 21.4151 18.8121 21.794 18.0205 22.0908C16.4294 22.6875 14.3004 23.0352 12 23.0352C9.69961 23.0352 7.57065 22.6875 5.97949 22.0908C5.18791 21.794 4.47562 21.4151 3.94238 20.9424C3.4103 20.4706 2.96484 19.8165 2.96484 19V5C2.96484 4.1835 3.4103 3.52936 3.94238 3.05762C4.47562 2.58494 5.18791 2.20603 5.97949 1.90918C7.57065 1.3125 9.69961 0.964844 12 0.964844C14.3004 0.964844 16.4294 1.3125 18.0205 1.90918C18.8121 2.20603 19.5244 2.58494 20.0576 3.05762C20.5897 3.52936 21.0352 4.1835 21.0352 5V19Z"/></svg>