<svg xmlns="http://www.w3.org/2000/svg" width="24" height="24" fill="none" viewBox="0 0 24 24"><g clip-path="url(#a)"><path fill="currentColor" d="M20.9648 9C20.9648 5.70562 18.2944 3.03516 15 3.03516C12.4172 3.03516 10.2179 4.67763 9.38867 6.97461C13.5166 7.17122 16.8273 10.4825 17.0244 14.6104C19.3217 13.7813 20.9648 11.583 20.9648 9ZM3.03516 15C3.03516 18.2944 5.70562 20.9648 9 20.9648C12.2944 20.9648 14.9648 18.2944 14.9648 15C14.9648 11.7056 12.2944 9.03516 9 9.03516C5.70562 9.03516 3.03516 11.7056 3.03516 15ZM23.0352 9C23.0352 12.8104 20.3831 15.9985 16.8242 16.8252C15.9975 20.3832 12.8096 23.0352 9 23.0352C4.56239 23.0352 0.964844 19.4376 0.964844 15C0.964844 11.1907 3.61617 8.00178 7.17383 7.1748C8.00079 3.61624 11.1899 0.964844 15 0.964844C19.4376 0.964844 23.0352 4.56239 23.0352 9Z"/></g><defs><clipPath id="a"><path fill="#fff" d="M0 0H24V24H0z"/></clipPath></defs></svg>