<svg xmlns="http://www.w3.org/2000/svg" width="24" height="24" fill="none" viewBox="0 0 24 24"><g clip-path="url(#a)"><path fill="currentColor" d="M12.9648 16C12.9648 13.2579 10.7421 11.0352 8 11.0352C5.25791 11.0352 3.03516 13.2579 3.03516 16C3.03516 18.7421 5.25791 20.9648 8 20.9648C10.7421 20.9648 12.9648 18.7421 12.9648 16ZM20.9648 16C20.9648 15.4284 21.4284 14.9648 22 14.9648C22.5716 14.9648 23.0352 15.4284 23.0352 16C23.0352 18.6207 21.0327 20.7725 18.4746 21.0117L18.7314 21.2686C19.1356 21.6727 19.1356 22.3273 18.7314 22.7314C18.3273 23.1356 17.6727 23.1356 17.2686 22.7314L15.2686 20.7314C14.8644 20.3273 14.8644 19.6727 15.2686 19.2686L17.2686 17.2686C17.6727 16.8644 18.3273 16.8644 18.7314 17.2686C19.1356 17.6727 19.1356 18.3273 18.7314 18.7314L18.5508 18.9111C19.9249 18.6528 20.9648 17.4491 20.9648 16ZM0.964844 8C0.964844 5.37964 2.96671 3.22694 5.52441 2.9873L5.26855 2.73145C4.86436 2.32725 4.86436 1.67275 5.26855 1.26855C5.67275 0.864362 6.32725 0.864362 6.73145 1.26855L8.73145 3.26855C9.13564 3.67275 9.13564 4.32725 8.73145 4.73145L6.73145 6.73145C6.32725 7.13564 5.67275 7.13564 5.26855 6.73145C4.86436 6.32725 4.86436 5.67275 5.26855 5.26855L5.44824 5.08789C4.07453 5.34657 3.03516 6.55113 3.03516 8C3.03516 8.57161 2.57161 9.03516 2 9.03516C1.42839 9.03516 0.964844 8.57161 0.964844 8ZM20.9648 8C20.9648 5.25791 18.7421 3.03516 16 3.03516C13.2579 3.03516 11.0352 5.25791 11.0352 8C11.0352 8.64877 11.1599 9.26613 11.3848 9.83203C12.5557 10.476 13.5229 11.4435 14.167 12.6143C14.7332 12.8394 15.3508 12.9648 16 12.9648C18.7421 12.9648 20.9648 10.7421 20.9648 8ZM23.0352 8C23.0352 11.8853 19.8853 15.0352 16 15.0352C15.6457 15.0352 15.2977 15.0058 14.957 14.9551C15.0078 15.2961 15.0352 15.6449 15.0352 16C15.0352 19.8853 11.8853 23.0352 8 23.0352C4.11468 23.0352 0.964844 19.8853 0.964844 16C0.964844 12.1147 4.11468 8.96484 8 8.96484C8.35473 8.96484 8.70332 8.99132 9.04395 9.04199C8.99333 8.70165 8.96484 8.35389 8.96484 8C8.96484 4.11468 12.1147 0.964844 16 0.964844C19.8853 0.964844 23.0352 4.11468 23.0352 8Z"/></g><defs><clipPath id="a"><path fill="#fff" d="M0 0H24V24H0z"/></clipPath></defs></svg>