<svg xmlns="http://www.w3.org/2000/svg" width="24" height="24" fill="none" viewBox="0 0 24 24"><path fill="currentColor" d="M16.5 8.46484C18.107 8.46484 19.6076 8.70035 20.7432 9.11328C21.3064 9.31814 21.835 9.58652 22.2422 9.93652C22.6462 10.2838 23.0352 10.8087 23.0352 11.5V19C23.0352 19.6913 22.6462 20.2162 22.2422 20.5635C21.835 20.9135 21.3064 21.1819 20.7432 21.3867C19.6076 21.7997 18.107 22.0352 16.5 22.0352C14.893 22.0352 13.3924 21.7997 12.2568 21.3867C11.6936 21.1819 11.165 20.9135 10.7578 20.5635C10.3538 20.2162 9.96484 19.6913 9.96484 19V11.5C9.96484 10.8087 10.3538 10.2838 10.7578 9.93652C11.165 9.58652 11.6936 9.31814 12.2568 9.11328C13.3924 8.70035 14.893 8.46484 16.5 8.46484ZM7.5 1.96484C9.10702 1.96484 10.6076 2.20034 11.7432 2.61328C12.3064 2.81814 12.835 3.08652 13.2422 3.43652C13.6462 3.78383 14.0352 4.30872 14.0352 5V6.5C14.0352 7.07161 13.5716 7.53516 13 7.53516C12.6928 7.53516 12.4181 7.40006 12.2285 7.1875C12.071 7.25924 11.9089 7.32644 11.7432 7.38672C10.6076 7.79965 9.10702 8.03516 7.5 8.03516C5.89298 8.03516 4.39241 7.79965 3.25684 7.38672C3.18167 7.35938 3.10888 7.32652 3.03516 7.29688V8.91895C3.0463 8.93191 3.06101 8.95181 3.08594 8.97461C3.20971 9.0878 3.44693 9.23897 3.83008 9.39062C4.58957 9.69116 5.71537 9.91382 7.03418 9.95703C7.18745 9.96205 7.34282 9.96484 7.5 9.96484C8.07161 9.96484 8.53516 10.4284 8.53516 11C8.53516 11.5716 8.07161 12.0352 7.5 12.0352C7.32018 12.0352 7.14182 12.0321 6.96582 12.0264C5.48174 11.9777 4.10701 11.7269 3.06738 11.3154C3.05642 11.3111 3.04609 11.3052 3.03516 11.3008V12.9229C3.04938 12.9392 3.07202 12.9637 3.10742 12.9941C3.25684 13.1224 3.53355 13.2846 3.96484 13.4414C4.81987 13.7523 6.06954 13.9648 7.5 13.9648C8.07161 13.9648 8.53516 14.4284 8.53516 15C8.53516 15.5716 8.07161 16.0352 7.5 16.0352C5.89298 16.0352 4.39241 15.7997 3.25684 15.3867C3.18167 15.3594 3.10888 15.3265 3.03516 15.2969V16.9229C3.04938 16.9392 3.07202 16.9637 3.10742 16.9941C3.25684 17.1224 3.53355 17.2846 3.96484 17.4414C4.81987 17.7523 6.06954 17.9648 7.5 17.9648C8.07161 17.9648 8.53516 18.4284 8.53516 19C8.53516 19.5716 8.07161 20.0352 7.5 20.0352C5.89298 20.0352 4.39241 19.7997 3.25684 19.3867C2.69358 19.1819 2.16501 18.9135 1.75781 18.5635C1.35384 18.2162 0.964844 17.6913 0.964844 17V5L0.969727 4.87207C1.01398 4.24369 1.37915 3.76208 1.75781 3.43652C2.16501 3.08652 2.69358 2.81814 3.25684 2.61328C4.39241 2.20034 5.89298 1.96484 7.5 1.96484ZM20.7432 17.6367C19.6076 18.0497 18.107 18.2852 16.5 18.2852C14.893 18.2852 13.3924 18.0497 12.2568 17.6367C12.1817 17.6094 12.1089 17.5765 12.0352 17.5469V18.9229C12.0494 18.9392 12.072 18.9637 12.1074 18.9941C12.2568 19.1224 12.5336 19.2846 12.9648 19.4414C13.8199 19.7523 15.0695 19.9648 16.5 19.9648C17.9305 19.9648 19.1801 19.7523 20.0352 19.4414C20.4664 19.2846 20.7432 19.1224 20.8926 18.9941C20.928 18.9637 20.9506 18.9392 20.9648 18.9229V17.5469C20.8911 17.5765 20.8183 17.6094 20.7432 17.6367ZM20.7432 13.8867C19.6076 14.2997 18.107 14.5352 16.5 14.5352C14.893 14.5352 13.3924 14.2997 12.2568 13.8867C12.1817 13.8594 12.1089 13.8265 12.0352 13.7969V15.1729C12.0494 15.1892 12.072 15.2137 12.1074 15.2441C12.2568 15.3724 12.5336 15.5346 12.9648 15.6914C13.8199 16.0023 15.0695 16.2148 16.5 16.2148C17.9305 16.2148 19.1801 16.0023 20.0352 15.6914C20.4664 15.5346 20.7432 15.3724 20.8926 15.2441C20.928 15.2137 20.9506 15.1892 20.9648 15.1729V13.7969C20.8911 13.8265 20.8183 13.8594 20.7432 13.8867ZM16.5 10.5352C15.0695 10.5352 13.8199 10.7477 12.9648 11.0586C12.5406 11.2129 12.2663 11.3727 12.1152 11.5C12.2663 11.6273 12.5406 11.7871 12.9648 11.9414C13.8199 12.2523 15.0695 12.4648 16.5 12.4648C17.9305 12.4648 19.1801 12.2523 20.0352 11.9414C20.4589 11.7873 20.7326 11.6272 20.8838 11.5C20.7326 11.3728 20.4589 11.2127 20.0352 11.0586C19.1801 10.7477 17.9305 10.5352 16.5 10.5352ZM7.5 4.03516C6.06954 4.03516 4.81987 4.2477 3.96484 4.55859C3.5406 4.71286 3.2663 4.87272 3.11523 5C3.2663 5.12728 3.5406 5.28714 3.96484 5.44141C4.81987 5.7523 6.06954 5.96484 7.5 5.96484C8.93046 5.96484 10.1801 5.7523 11.0352 5.44141C11.4589 5.28733 11.7326 5.1272 11.8838 5C11.7326 4.8728 11.4589 4.71267 11.0352 4.55859C10.1801 4.2477 8.93046 4.03516 7.5 4.03516Z"/></svg>