<svg xmlns="http://www.w3.org/2000/svg" width="24" height="24" fill="none" viewBox="0 0 24 24"><g clip-path="url(#a)"><path fill="currentColor" d="M4.40039 11.9648C4.66304 11.9648 4.92215 11.9646 5.14062 11.9824C5.37134 12.0013 5.6467 12.0454 5.92383 12.1865C6.25872 12.3572 6.53886 12.617 6.73438 12.9355L6.81348 13.0762L6.90234 13.2832C6.92834 13.3562 6.94778 13.4286 6.96387 13.499L8.53223 12.8438C8.54711 12.8371 8.56714 12.8282 8.5918 12.8174C8.64643 12.7933 8.72459 12.7598 8.82031 12.7197C9.01098 12.6399 9.2764 12.5322 9.57617 12.4248C10.129 12.2267 10.9614 11.9648 11.6436 11.9648C12.1252 11.9649 12.6045 12.0223 13.0723 12.1357H13.0732L15.459 12.7158H15.458C16.5453 12.9795 17.3513 13.9041 17.4346 15.0186L18.8672 13.9746V13.9736C19.8999 13.2207 21.3414 13.3176 22.2598 14.2109C23.293 15.216 23.294 16.858 22.2598 17.8633L20.1016 19.9619C19.3746 20.6691 18.4513 21.1489 17.4512 21.3438H17.4502L14.4014 21.9375H14.4004C13.65 22.0832 12.8757 22.066 12.1318 21.8848V21.8838L9.37402 21.2148L9.37207 21.2139C9.1238 21.1529 8.86843 21.1221 8.61035 21.1221H7.01855C7.01808 21.1283 7.01808 21.1345 7.01758 21.1406C6.99873 21.3713 6.95465 21.6467 6.81348 21.9238C6.61837 22.3067 6.30674 22.6184 5.92383 22.8135C5.6467 22.9546 5.37134 22.9987 5.14062 23.0176C4.92215 23.0354 4.66304 23.0352 4.40039 23.0352H3.59961C3.33696 23.0352 3.07785 23.0354 2.85938 23.0176C2.62866 22.9987 2.3533 22.9546 2.07617 22.8135C1.69326 22.6184 1.38163 22.3067 1.18652 21.9238C1.04535 21.6467 1.00127 21.3713 0.982422 21.1406C0.9646 20.9221 0.964843 20.663 0.964844 20.4004V14.5996C0.964843 14.337 0.9646 14.0779 0.982422 13.8594C1.00127 13.6287 1.04535 13.3533 1.18652 13.0762L1.26563 12.9355C1.46114 12.617 1.74128 12.3572 2.07617 12.1865L2.2832 12.0977C2.48814 12.0247 2.6864 11.9966 2.85938 11.9824C3.07785 11.9646 3.33696 11.9648 3.59961 11.9648H4.40039ZM11.6436 14.0352C11.3609 14.0352 10.8369 14.1728 10.2754 14.374C10.0182 14.4662 9.78698 14.559 9.62012 14.6289C9.53707 14.6637 9.47042 14.6923 9.42578 14.7119C9.40349 14.7217 9.38674 14.7295 9.37598 14.7344C9.3706 14.7368 9.36651 14.7382 9.36426 14.7393L9.3623 14.7402C9.35203 14.7449 9.34148 14.7495 9.33105 14.7539L7.03516 15.7129V19.0518H8.61035C9.03276 19.0518 9.45381 19.1022 9.86523 19.2031H9.86426L12.6211 19.873H12.6221C13.0749 19.9833 13.5472 19.9943 14.0059 19.9053L17.0547 19.3125L17.2812 19.2598C17.8033 19.1184 18.278 18.8483 18.6582 18.4785L20.8164 16.3799V16.3789C21.0135 16.1875 21.0149 15.8887 20.8164 15.6953C20.6491 15.5326 20.386 15.493 20.1738 15.5947L20.0869 15.6465L17.5723 17.4814C17.0326 17.8756 16.3803 18.0849 15.7139 18.085H13.2852C12.7137 18.0848 12.251 17.6213 12.251 17.0498C12.251 16.4783 12.7137 16.0148 13.2852 16.0146H14.8311C15.1577 16.0146 15.373 15.7647 15.373 15.5156V15.209C15.373 15.0264 15.2591 14.8424 15.0605 14.7578L14.9697 14.7275L12.584 14.1475V14.1465C12.276 14.0719 11.9605 14.0352 11.6436 14.0352ZM18.9648 6.5C18.9648 5.13862 17.8614 4.03516 16.5 4.03516C15.1386 4.03516 14.0352 5.13862 14.0352 6.5C14.0352 7.86138 15.1386 8.96484 16.5 8.96484C17.8614 8.96484 18.9648 7.86138 18.9648 6.5ZM3.03516 20.4004C3.03516 20.6825 3.03582 20.8415 3.04395 20.9551C3.15762 20.9633 3.31662 20.9648 3.59961 20.9648H4.40039C4.68258 20.9648 4.84147 20.9632 4.95508 20.9551C4.96321 20.8415 4.96484 20.6826 4.96484 20.4004V14.5996C4.96484 14.3166 4.96327 14.1576 4.95508 14.0439C4.84147 14.0358 4.68252 14.0352 4.40039 14.0352H3.59961C3.31668 14.0352 3.15762 14.0358 3.04395 14.0439C3.03576 14.1576 3.03516 14.3167 3.03516 14.5996V20.4004ZM21.0352 6.5C21.0352 9.00461 19.0046 11.0352 16.5 11.0352C15.2328 11.0352 14.0875 10.5147 13.2646 9.67676C12.7216 9.90642 12.1253 10.0352 11.5 10.0352C8.99539 10.0352 6.96484 8.00461 6.96484 5.5C6.96484 2.99539 8.99539 0.964844 11.5 0.964844C12.7667 0.964844 13.9096 1.4867 14.7314 2.32227C15.2748 2.09194 15.8726 1.96484 16.5 1.96484C19.0046 1.96484 21.0352 3.99539 21.0352 6.5ZM9.03516 5.5C9.03516 6.86138 10.1386 7.96484 11.5 7.96484C11.735 7.96484 11.9612 7.93017 12.1758 7.86914C12.0391 7.43711 11.9648 6.97723 11.9648 6.5C11.9648 5.38443 12.368 4.36315 13.0361 3.57324C12.6142 3.23632 12.0807 3.03516 11.5 3.03516C10.1386 3.03516 9.03516 4.13862 9.03516 5.5Z"/></g><defs><clipPath id="a"><path fill="#fff" d="M0 0H24V24H0z"/></clipPath></defs></svg>