<svg xmlns="http://www.w3.org/2000/svg" width="24" height="24" fill="none" viewBox="0 0 24 24"><path fill="currentColor" d="M10.9648 17C10.9648 16.91 10.9668 16.8205 10.9707 16.7314C10.9723 16.6949 10.9753 16.6585 10.9775 16.6221C10.888 16.6456 10.7981 16.6701 10.707 16.6914C9.76394 16.912 8.66409 17.0352 7.5 17.0352C5.89298 17.0352 4.39241 16.7997 3.25684 16.3867C3.18167 16.3594 3.10888 16.3265 3.03516 16.2969V18.4229C3.04938 18.4392 3.07202 18.4637 3.10742 18.4941C3.25684 18.6224 3.53355 18.7846 3.96484 18.9414C4.81987 19.2523 6.06954 19.4648 7.5 19.4648C8.56127 19.4648 9.53079 19.3477 10.3154 19.1562C10.6917 19.0644 11.0041 18.959 11.2559 18.8535C11.2148 18.7261 11.1782 18.5968 11.1455 18.4658C11.137 18.4318 11.13 18.3975 11.1221 18.3633C11.1059 18.2933 11.0899 18.2232 11.0762 18.1523C11.0679 18.1095 11.0601 18.0666 11.0527 18.0234C11.039 17.9432 11.0271 17.8625 11.0166 17.7812C11.0132 17.7549 11.0099 17.7286 11.0068 17.7021C10.9954 17.6039 10.9861 17.5049 10.9795 17.4053C10.9784 17.3887 10.9766 17.3721 10.9756 17.3555C10.9688 17.2378 10.9648 17.1193 10.9648 17ZM11.7432 11.8867C10.6076 12.2997 9.10702 12.5352 7.5 12.5352C5.89298 12.5352 4.39241 12.2997 3.25684 11.8867C3.18167 11.8594 3.10888 11.8265 3.03516 11.7969V13.9229C3.04938 13.9392 3.07202 13.9637 3.10742 13.9941C3.25684 14.1224 3.53355 14.2846 3.96484 14.4414C4.81987 14.7523 6.06954 14.9648 7.5 14.9648C8.52483 14.9648 9.46474 14.856 10.2354 14.6758C10.8999 14.5203 11.3824 14.3233 11.6846 14.1396C11.7031 14.1054 11.7231 14.072 11.7422 14.0381C11.7692 13.9901 11.7969 13.9426 11.8252 13.8955C11.84 13.8709 11.855 13.8466 11.8701 13.8223C11.9001 13.774 11.9306 13.7261 11.9619 13.6787C11.963 13.6771 11.9638 13.6754 11.9648 13.6738V11.7969C11.8911 11.8265 11.8183 11.8594 11.7432 11.8867ZM11.7432 7.38672C10.6076 7.79965 9.10702 8.03516 7.5 8.03516C5.89298 8.03516 4.39241 7.79965 3.25684 7.38672C3.18167 7.35938 3.10888 7.32652 3.03516 7.29688V9.42285C3.04938 9.43919 3.07202 9.46371 3.10742 9.49414C3.25684 9.62243 3.53355 9.78457 3.96484 9.94141C4.81987 10.2523 6.06954 10.4648 7.5 10.4648C8.93046 10.4648 10.1801 10.2523 11.0352 9.94141C11.4664 9.78457 11.7432 9.62243 11.8926 9.49414C11.928 9.46371 11.9506 9.43919 11.9648 9.42285V7.29688C11.8911 7.32652 11.8183 7.35938 11.7432 7.38672ZM7.5 4.03516C6.06954 4.03516 4.81987 4.2477 3.96484 4.55859C3.5406 4.71286 3.2663 4.87272 3.11523 5C3.2663 5.12728 3.5406 5.28714 3.96484 5.44141C4.81987 5.7523 6.06954 5.96484 7.5 5.96484C8.93046 5.96484 10.1801 5.7523 11.0352 5.44141C11.4589 5.28733 11.7326 5.1272 11.8838 5C11.7326 4.8728 11.4589 4.71267 11.0352 4.55859C10.1801 4.2477 8.93046 4.03516 7.5 4.03516ZM13.041 17.2207C13.0427 17.2508 13.0455 17.2807 13.0479 17.3105C13.0513 17.3557 13.0555 17.4006 13.0605 17.4453C13.0643 17.4793 13.0686 17.5132 13.0732 17.5469C13.078 17.5812 13.0833 17.6154 13.0889 17.6494C13.0951 17.6873 13.1011 17.7252 13.1084 17.7627C13.1163 17.803 13.1257 17.8429 13.1348 17.8828C13.1786 18.076 13.2367 18.2633 13.3076 18.4443C13.3252 18.4893 13.3431 18.534 13.3623 18.5781C13.3696 18.5948 13.3773 18.6113 13.3848 18.6279C14.0061 20.0056 15.3906 20.9648 17 20.9648C19.1898 20.9648 20.9648 19.1898 20.9648 17C20.9648 14.8102 19.1898 13.0352 17 13.0352C15.611 13.0352 14.3898 13.7498 13.6816 14.8311C13.6662 14.8547 13.6507 14.8784 13.6357 14.9023C13.5916 14.973 13.5485 15.0446 13.5088 15.1182C13.4953 15.1431 13.4837 15.1691 13.4707 15.1943C13.435 15.2639 13.4007 15.3343 13.3691 15.4062C13.3644 15.417 13.3591 15.4276 13.3545 15.4385C13.3198 15.5194 13.2882 15.6019 13.2588 15.6855C13.2499 15.7108 13.2418 15.7363 13.2334 15.7617C13.1755 15.938 13.1296 16.1195 13.0967 16.3057C13.093 16.3265 13.0883 16.3472 13.085 16.3682C13.0705 16.4586 13.06 16.5502 13.0518 16.6426C13.0504 16.6582 13.0491 16.6738 13.0479 16.6895C13.0399 16.7919 13.0352 16.8955 13.0352 17L13.041 17.2207ZM23.0352 17C23.0352 20.333 20.333 23.0352 17 23.0352C15.0561 23.0352 13.3284 22.1148 12.2246 20.6875C11.7912 20.8846 11.3085 21.0445 10.8066 21.167C9.84129 21.4026 8.70458 21.5352 7.5 21.5352C5.89298 21.5352 4.39241 21.2997 3.25684 20.8867C2.69357 20.6819 2.16501 20.4135 1.75781 20.0635C1.35384 19.7162 0.964844 19.1913 0.964844 18.5V5L0.969727 4.87207C1.01398 4.24369 1.37915 3.76208 1.75781 3.43652C2.16501 3.08652 2.69358 2.81814 3.25684 2.61328C4.39241 2.20034 5.89298 1.96484 7.5 1.96484C9.10702 1.96484 10.6076 2.20034 11.7432 2.61328C12.3064 2.81814 12.835 3.08652 13.2422 3.43652C13.6462 3.78383 14.0352 4.30872 14.0352 5V11.7432C14.9109 11.2482 15.9223 10.9648 17 10.9648C20.333 10.9648 23.0352 13.667 23.0352 17Z"/></svg>