<svg xmlns="http://www.w3.org/2000/svg" width="24" height="24" fill="none" viewBox="0 0 24 24"><path fill="currentColor" d="M7.5 1.96484C9.10702 1.96484 10.6076 2.20034 11.7432 2.61328C12.3064 2.81814 12.835 3.08652 13.2422 3.43652C13.6462 3.78383 14.0352 4.30872 14.0352 5V8.16309C14.7989 8.03542 15.6338 7.96484 16.5 7.96484C18.107 7.96484 19.6076 8.20034 20.7432 8.61328C21.3064 8.81814 21.835 9.08652 22.2422 9.43652C22.6462 9.78383 23.0352 10.3087 23.0352 11V19C23.0352 19.6913 22.6462 20.2162 22.2422 20.5635C21.835 20.9135 21.3064 21.1819 20.7432 21.3867C19.6076 21.7997 18.107 22.0352 16.5 22.0352C14.893 22.0352 13.3924 21.7997 12.2568 21.3867C11.6936 21.1819 11.165 20.9135 10.7578 20.5635C10.5289 20.3667 10.3074 20.1115 10.1562 19.8027C9.34368 19.9515 8.44185 20.0352 7.5 20.0352C5.89298 20.0352 4.39241 19.7997 3.25684 19.3867C2.69358 19.1819 2.16501 18.9135 1.75781 18.5635C1.35384 18.2162 0.964844 17.6913 0.964844 17V5L0.969727 4.87207C1.01398 4.24369 1.37915 3.76208 1.75781 3.43652C2.16501 3.08652 2.69358 2.81814 3.25684 2.61328C4.39241 2.20034 5.89298 1.96484 7.5 1.96484ZM20.7432 17.3867C19.6076 17.7997 18.107 18.0352 16.5 18.0352C14.893 18.0352 13.3924 17.7997 12.2568 17.3867C12.1817 17.3594 12.1089 17.3265 12.0352 17.2969V18.9229C12.0494 18.9392 12.072 18.9637 12.1074 18.9941C12.2568 19.1224 12.5336 19.2846 12.9648 19.4414C13.8199 19.7523 15.0695 19.9648 16.5 19.9648C17.9305 19.9648 19.1801 19.7523 20.0352 19.4414C20.4664 19.2846 20.7432 19.1224 20.8926 18.9941C20.928 18.9637 20.9506 18.9392 20.9648 18.9229V17.2969C20.8911 17.3265 20.8183 17.3594 20.7432 17.3867ZM3.03516 16.9229C3.04938 16.9392 3.07202 16.9637 3.10742 16.9941C3.25684 17.1224 3.53355 17.2846 3.96484 17.4414C4.81987 17.7523 6.06954 17.9648 7.5 17.9648C8.41095 17.9648 9.25155 17.8777 9.96484 17.7334V15.8379C9.20301 15.9652 8.3684 16.0352 7.5 16.0352C5.89298 16.0352 4.39241 15.7997 3.25684 15.3867C3.18167 15.3594 3.10888 15.3265 3.03516 15.2969V16.9229ZM20.7432 13.3867C19.6076 13.7997 18.107 14.0352 16.5 14.0352C14.893 14.0352 13.3924 13.7997 12.2568 13.3867C12.1817 13.3594 12.1089 13.3265 12.0352 13.2969V14.9229C12.0494 14.9392 12.072 14.9637 12.1074 14.9941C12.2568 15.1224 12.5336 15.2846 12.9648 15.4414C13.8199 15.7523 15.0695 15.9648 16.5 15.9648C17.9305 15.9648 19.1801 15.7523 20.0352 15.4414C20.4664 15.2846 20.7432 15.1224 20.8926 14.9941C20.928 14.9637 20.9506 14.9392 20.9648 14.9229V13.2969C20.8911 13.3265 20.8183 13.3594 20.7432 13.3867ZM3.03516 12.9229C3.04938 12.9392 3.07202 12.9637 3.10742 12.9941C3.25684 13.1224 3.53355 13.2846 3.96484 13.4414C4.81987 13.7523 6.06954 13.9648 7.5 13.9648C8.41095 13.9648 9.25155 13.8777 9.96484 13.7334V11.8379C9.20301 11.9652 8.3684 12.0352 7.5 12.0352C5.89298 12.0352 4.39241 11.7997 3.25684 11.3867C3.18167 11.3594 3.10888 11.3265 3.03516 11.2969V12.9229ZM16.5 10.0352C15.2452 10.0352 14.1291 10.1973 13.2969 10.4473L13.2979 10.4482C13.1313 10.4983 12.9814 10.5527 12.8467 10.6055C12.7708 10.6352 12.7 10.6638 12.6348 10.6934C12.6043 10.7072 12.5752 10.7216 12.5469 10.7354C12.4876 10.7641 12.4333 10.7924 12.3838 10.8203C12.36 10.8337 12.3372 10.8471 12.3154 10.8604C12.2459 10.9026 12.1873 10.9425 12.1396 10.9805C12.131 10.9873 12.1237 10.9947 12.1162 11.001C12.2675 11.1281 12.5416 11.2875 12.9648 11.4414C13.8199 11.7523 15.0695 11.9648 16.5 11.9648C17.9305 11.9648 19.1801 11.7523 20.0352 11.4414C20.4589 11.2873 20.7326 11.1272 20.8838 11C20.7326 10.8728 20.4589 10.7127 20.0352 10.5586C19.1801 10.2477 17.9305 10.0352 16.5 10.0352ZM11.7432 7.38672C10.6076 7.79965 9.10702 8.03516 7.5 8.03516C5.89298 8.03516 4.39241 7.79965 3.25684 7.38672C3.18167 7.35938 3.10888 7.32652 3.03516 7.29688V8.92285C3.04938 8.93919 3.07202 8.96371 3.10742 8.99414C3.25684 9.12243 3.53355 9.28457 3.96484 9.44141C4.81987 9.7523 6.06954 9.96484 7.5 9.96484C8.70021 9.96484 9.77806 9.81311 10.6035 9.57812C10.6465 9.53528 10.6913 9.49567 10.7354 9.45703C10.7413 9.45184 10.747 9.44653 10.7529 9.44141C10.7546 9.43998 10.7562 9.43794 10.7578 9.43652C10.7929 9.40638 10.8294 9.37757 10.8662 9.34863C10.8837 9.33489 10.9006 9.32077 10.918 9.30762C10.9636 9.27317 11.0114 9.23991 11.0596 9.20703C11.0701 9.19981 11.0801 9.19171 11.0908 9.18457C11.1251 9.16165 11.1608 9.14032 11.1963 9.11816C11.2226 9.10172 11.2485 9.08435 11.2754 9.06836C11.3219 9.04073 11.3698 9.01469 11.418 8.98828C11.4324 8.98038 11.4464 8.97165 11.4609 8.96387C11.5029 8.94143 11.5457 8.91998 11.5889 8.89844C11.6218 8.88197 11.655 8.86551 11.6885 8.84961C11.7309 8.82949 11.774 8.81033 11.8174 8.79102C11.8336 8.78379 11.8499 8.77663 11.8662 8.76953C11.899 8.75528 11.9316 8.74036 11.9648 8.72656V7.29688C11.8911 7.32652 11.8183 7.35938 11.7432 7.38672ZM7.5 4.03516C6.06954 4.03516 4.81987 4.2477 3.96484 4.55859C3.5406 4.71286 3.2663 4.87272 3.11523 5C3.2663 5.12728 3.5406 5.28714 3.96484 5.44141C4.81987 5.7523 6.06954 5.96484 7.5 5.96484C8.93046 5.96484 10.1801 5.7523 11.0352 5.44141C11.4589 5.28733 11.7326 5.1272 11.8838 5C11.7326 4.8728 11.4589 4.71267 11.0352 4.55859C10.1801 4.2477 8.93046 4.03516 7.5 4.03516Z"/></svg>