<svg xmlns="http://www.w3.org/2000/svg" width="24" height="24" fill="none" viewBox="0 0 24 24"><g clip-path="url(#a)"><path fill="currentColor" d="M14.9648 15C14.9648 11.7056 12.2944 9.03516 9 9.03516C5.70562 9.03516 3.03516 11.7056 3.03516 15C3.03516 18.2944 5.70562 20.9648 9 20.9648C12.2944 20.9648 14.9648 18.2944 14.9648 15ZM20.9648 9C20.9648 5.70562 18.2944 3.03516 15 3.03516C13.3743 3.03516 11.9021 3.68396 10.8252 4.73926C10.4169 5.13921 9.76136 5.13284 9.36133 4.72461C8.96137 4.31633 8.96872 3.66078 9.37695 3.26074C10.8251 1.84177 12.8111 0.964844 15 0.964844C19.4376 0.964844 23.0352 4.56239 23.0352 9C23.0352 11.1889 22.1582 13.1749 20.7393 14.623C20.3392 15.0313 19.6837 15.0386 19.2754 14.6387C18.8671 14.2386 18.8607 13.5831 19.2607 13.1748C20.3161 12.0979 20.9648 10.6257 20.9648 9ZM17.0352 15C17.0352 19.4376 13.4376 23.0352 9 23.0352C4.56239 23.0352 0.964844 19.4376 0.964844 15C0.964844 10.5624 4.56239 6.96484 9 6.96484C13.4376 6.96484 17.0352 10.5624 17.0352 15Z"/></g><defs><clipPath id="a"><path fill="#fff" d="M0 0H24V24H0z"/></clipPath></defs></svg>