<svg xmlns="http://www.w3.org/2000/svg" width="24" height="24" fill="none" viewBox="0 0 24 24"><g clip-path="url(#a)"><path fill="currentColor" d="M12.9648 16C12.9648 15.6498 12.9269 15.3091 12.8584 14.9805C12.577 15.0147 12.2907 15.0352 12 15.0352C9.38926 15.0352 7.11246 13.6118 5.89844 11.5C4.20637 12.2916 3.03516 14.01 3.03516 16C3.03516 18.7421 5.25791 20.9648 8 20.9648C10.7421 20.9648 12.9648 18.7421 12.9648 16ZM15.0352 16C15.0352 17.6285 14.4797 19.1261 13.5508 20.3184C14.2736 20.7294 15.1084 20.9648 16 20.9648C18.7421 20.9648 20.9648 18.7421 20.9648 16C20.9648 14.0097 19.7931 12.2914 18.1006 11.5C17.3597 12.7886 16.2237 13.8192 14.8564 14.4277C14.9721 14.934 15.0352 15.4601 15.0352 16ZM16.9648 8C16.9648 5.25791 14.7421 3.03516 12 3.03516C9.25791 3.03516 7.03516 5.25791 7.03516 8C7.03516 10.7421 9.25791 12.9648 12 12.9648C14.7421 12.9648 16.9648 10.7421 16.9648 8ZM19.0352 8C19.0352 8.54 18.9716 9.06521 18.8564 9.57031C21.3177 10.6654 23.0352 13.1308 23.0352 16C23.0352 19.8853 19.8853 23.0352 16 23.0352C14.5144 23.0352 13.1357 22.5725 12 21.7861C10.8641 22.5729 9.48632 23.0352 8 23.0352C4.11468 23.0352 0.964844 19.8853 0.964844 16C0.964844 13.1311 2.68175 10.6656 5.14258 9.57031C5.02741 9.06528 4.96484 8.53992 4.96484 8C4.96484 4.11468 8.11468 0.964844 12 0.964844C15.8853 0.964844 19.0352 4.11468 19.0352 8Z"/></g><defs><clipPath id="a"><path fill="#fff" d="M0 0H24V24H0z"/></clipPath></defs></svg>