<svg xmlns="http://www.w3.org/2000/svg" width="24" height="24" fill="none" viewBox="0 0 24 24"><path fill="currentColor" d="M8.96484 6.2002C8.96484 5.62309 8.96441 5.25228 8.94141 4.9707C8.91939 4.7012 8.88163 4.60521 8.85938 4.56152C8.76692 4.38033 8.61967 4.23308 8.43848 4.14062C8.39479 4.11837 8.2988 4.08061 8.0293 4.05859C7.74772 4.03559 7.37691 4.03516 6.7998 4.03516H6.2002C5.62309 4.03516 5.25228 4.03559 4.9707 4.05859C4.7012 4.08061 4.60521 4.11837 4.56152 4.14062C4.38033 4.23308 4.23308 4.38033 4.14062 4.56152C4.11837 4.60521 4.08061 4.7012 4.05859 4.9707C4.03559 5.25228 4.03516 5.62309 4.03516 6.2002V17.7998C4.03516 18.3769 4.03559 18.7477 4.05859 19.0293C4.08061 19.2988 4.11837 19.3948 4.14062 19.4385C4.23308 19.6197 4.38032 19.7669 4.56152 19.8594C4.60521 19.8816 4.7012 19.9194 4.9707 19.9414C5.25228 19.9644 5.62309 19.9648 6.2002 19.9648H6.7998C7.37691 19.9648 7.74772 19.9644 8.0293 19.9414C8.2988 19.9194 8.39479 19.8816 8.43848 19.8594C8.61968 19.7669 8.76692 19.6197 8.85938 19.4385C8.88163 19.3948 8.91939 19.2988 8.94141 19.0293C8.96441 18.7477 8.96484 18.3769 8.96484 17.7998V6.2002ZM19.9648 6.2002C19.9648 5.62309 19.9644 5.25228 19.9414 4.9707C19.9194 4.7012 19.8816 4.60521 19.8594 4.56152C19.7669 4.38033 19.6197 4.23308 19.4385 4.14062C19.3948 4.11837 19.2988 4.08061 19.0293 4.05859C18.7477 4.03559 18.3769 4.03516 17.7998 4.03516H17.2002C16.6231 4.03516 16.2523 4.03559 15.9707 4.05859C15.7012 4.08061 15.6052 4.11837 15.5615 4.14062C15.3803 4.23308 15.2331 4.38033 15.1406 4.56152C15.1184 4.60521 15.0806 4.7012 15.0586 4.9707C15.0356 5.25228 15.0352 5.62309 15.0352 6.2002V17.7998C15.0352 18.3769 15.0356 18.7477 15.0586 19.0293C15.0806 19.2988 15.1184 19.3948 15.1406 19.4385C15.2331 19.6197 15.3803 19.7669 15.5615 19.8594C15.6052 19.8816 15.7012 19.9194 15.9707 19.9414C16.2523 19.9644 16.6231 19.9648 17.2002 19.9648H17.7998C18.3769 19.9648 18.7477 19.9644 19.0293 19.9414C19.2988 19.9194 19.3948 19.8816 19.4385 19.8594C19.6197 19.7669 19.7669 19.6197 19.8594 19.4385C19.8816 19.3948 19.9194 19.2988 19.9414 19.0293C19.9644 18.7477 19.9648 18.3769 19.9648 17.7998V6.2002ZM11.0352 17.7998C11.0352 18.3428 11.0354 18.8128 11.0039 19.1982C10.9714 19.5956 10.8998 19.9939 10.7041 20.3779C10.4131 20.9489 9.94892 21.4131 9.37793 21.7041C8.99392 21.8998 8.59562 21.9714 8.19824 22.0039C7.81282 22.0354 7.34278 22.0352 6.7998 22.0352H6.2002C5.65722 22.0352 5.18718 22.0354 4.80176 22.0039C4.40438 21.9714 4.00608 21.8998 3.62207 21.7041C3.05108 21.4131 2.58686 20.9489 2.2959 20.3779C2.10024 19.9939 2.02859 19.5956 1.99609 19.1982C1.9646 18.8128 1.96484 18.3428 1.96484 17.7998V6.2002C1.96484 5.65722 1.9646 5.18718 1.99609 4.80176C2.02859 4.40438 2.10024 4.00608 2.2959 3.62207C2.58686 3.05107 3.05107 2.58686 3.62207 2.2959C4.00608 2.10024 4.40438 2.02859 4.80176 1.99609C5.18718 1.9646 5.65722 1.96484 6.2002 1.96484H6.7998C7.34278 1.96484 7.81282 1.9646 8.19824 1.99609C8.59562 2.02859 8.99392 2.10024 9.37793 2.2959C9.94893 2.58686 10.4131 3.05107 10.7041 3.62207C10.8998 4.00608 10.9714 4.40438 11.0039 4.80176C11.0354 5.18718 11.0352 5.65722 11.0352 6.2002V17.7998ZM22.0352 17.7998C22.0352 18.3428 22.0354 18.8128 22.0039 19.1982C21.9714 19.5956 21.8998 19.9939 21.7041 20.3779C21.4131 20.9489 20.9489 21.4131 20.3779 21.7041C19.9939 21.8998 19.5956 21.9714 19.1982 22.0039C18.8128 22.0354 18.3428 22.0352 17.7998 22.0352H17.2002C16.6572 22.0352 16.1872 22.0354 15.8018 22.0039C15.4044 21.9714 15.0061 21.8998 14.6221 21.7041C14.0511 21.4131 13.5869 20.9489 13.2959 20.3779C13.1002 19.9939 13.0286 19.5956 12.9961 19.1982C12.9646 18.8128 12.9648 18.3428 12.9648 17.7998V6.2002C12.9648 5.65722 12.9646 5.18718 12.9961 4.80176C13.0286 4.40438 13.1002 4.00608 13.2959 3.62207C13.5869 3.05107 14.0511 2.58686 14.6221 2.2959C15.0061 2.10024 15.4044 2.02859 15.8018 1.99609C16.1872 1.9646 16.6572 1.96484 17.2002 1.96484H17.7998C18.3428 1.96484 18.8128 1.9646 19.1982 1.99609C19.5956 2.02859 19.9939 2.10024 20.3779 2.2959C20.9489 2.58686 21.4131 3.05108 21.7041 3.62207C21.8998 4.00608 21.9714 4.40438 22.0039 4.80176C22.0354 5.18718 22.0352 5.65722 22.0352 6.2002V17.7998Z"/></svg>