<svg xmlns="http://www.w3.org/2000/svg" width="24" height="24" fill="none" viewBox="0 0 24 24"><path fill="currentColor" d="M7.96484 16.0352H6C4.91476 16.0352 4.03516 16.9148 4.03516 18C4.03516 19.0852 4.91476 19.9648 6 19.9648C7.08524 19.9648 7.96484 19.0852 7.96484 18V16.0352ZM19.9648 18C19.9648 16.9148 19.0852 16.0352 18 16.0352H16.0352V18C16.0352 19.0852 16.9148 19.9648 18 19.9648C19.0852 19.9648 19.9648 19.0852 19.9648 18ZM10.0352 13.9648H13.9648V10.0352H10.0352V13.9648ZM7.96484 6C7.96484 4.91476 7.08524 4.03516 6 4.03516C4.91476 4.03516 4.03516 4.91476 4.03516 6C4.03516 7.08524 4.91476 7.96484 6 7.96484H7.96484V6ZM19.9648 6C19.9648 4.91476 19.0852 4.03516 18 4.03516C16.9148 4.03516 16.0352 4.91476 16.0352 6V7.96484H18C19.0852 7.96484 19.9648 7.08524 19.9648 6ZM22.0352 6C22.0352 8.22847 20.2285 10.0352 18 10.0352H16.0352V13.9648H18C20.2285 13.9648 22.0352 15.7715 22.0352 18C22.0352 20.2285 20.2285 22.0352 18 22.0352C15.7715 22.0352 13.9648 20.2285 13.9648 18V16.0352H10.0352V18C10.0352 20.2285 8.22847 22.0352 6 22.0352C3.77153 22.0352 1.96484 20.2285 1.96484 18C1.96484 15.7715 3.77153 13.9648 6 13.9648H7.96484V10.0352H6C3.77153 10.0352 1.96484 8.22847 1.96484 6C1.96484 3.77153 3.77153 1.96484 6 1.96484C8.22847 1.96484 10.0352 3.77153 10.0352 6V7.96484H13.9648V6C13.9648 3.77153 15.7715 1.96484 18 1.96484C20.2285 1.96484 22.0352 3.77153 22.0352 6Z"/></svg>