<svg xmlns="http://www.w3.org/2000/svg" width="24" height="24" fill="none" viewBox="0 0 24 24"><path fill="currentColor" d="M13.4648 6.5C13.4648 5.6909 12.809 5.03516 11.9999 5.03516C11.1908 5.03516 10.5351 5.6909 10.5351 6.5C10.5351 7.3091 11.1908 7.96484 11.9999 7.96484C12.809 7.96484 13.4648 7.3091 13.4648 6.5ZM12.8017 9.94238C12.544 10.0022 12.2758 10.0352 11.9999 10.0352C11.7237 10.0352 11.4552 10.0023 11.1972 9.94238L7.18449 16.8535C8.63818 17.5653 10.2721 17.9648 11.9999 17.9648C13.7274 17.9648 15.3609 17.5651 16.8144 16.8535L12.8017 9.94238ZM15.5351 6.5C15.5351 7.42796 15.1766 8.27166 14.5917 8.90234L18.58 15.7705C19.1778 15.3212 19.7291 14.8131 20.2236 14.2529C20.6017 13.8245 21.2559 13.7832 21.6845 14.1611C22.1129 14.5393 22.1542 15.1935 21.7763 15.6221C21.135 16.3486 20.4124 17.0023 19.6249 17.5713L21.8954 21.4805C22.1822 21.9747 22.0137 22.6085 21.5194 22.8955C21.0252 23.1823 20.3914 23.0137 20.1044 22.5195L17.8554 18.6465C16.0946 19.5334 14.1059 20.0352 11.9999 20.0352C9.89362 20.0352 7.9044 19.5337 6.14347 18.6465L3.89543 22.5195C3.60846 23.0137 2.97466 23.1823 2.48039 22.8955C1.98617 22.6085 1.81765 21.9747 2.10441 21.4805L4.37394 17.5713C3.58667 17.0025 2.86465 16.3484 2.22355 15.6221C1.84563 15.1935 1.88691 14.5393 2.31535 14.1611C2.74392 13.7832 3.39813 13.8245 3.77628 14.2529C4.27055 14.8129 4.82127 15.3213 5.41886 15.7705L9.40714 8.90234C8.82256 8.27172 8.46476 7.42772 8.46476 6.5C8.46476 4.90786 9.51753 3.56171 10.9648 3.11914V2C10.9648 1.42839 11.4283 0.964844 11.9999 0.964844C12.5715 0.964844 13.0351 1.42839 13.0351 2V3.11914C14.4823 3.56171 15.5351 4.90786 15.5351 6.5Z"/></svg>