<svg xmlns="http://www.w3.org/2000/svg" width="24" height="24" fill="none" viewBox="0 0 24 24"><g clip-path="url(#a)"><path fill="currentColor" d="M12 0.964844C18.0945 0.964844 23.0352 5.90554 23.0352 12C23.0352 18.0945 18.0945 23.0352 12 23.0352C5.90554 23.0352 0.964844 18.0945 0.964844 12C0.964844 5.90554 5.90554 0.964844 12 0.964844ZM12 6.96484C12.3636 6.96484 12.7006 7.15603 12.8877 7.46777L14.2539 9.74512L16.5322 11.1123C16.844 11.2994 17.0352 11.6364 17.0352 12C17.0352 12.3636 16.844 12.7006 16.5322 12.8877L14.2539 14.2539L12.8877 16.5322C12.7006 16.844 12.3636 17.0352 12 17.0352C11.6364 17.0352 11.2994 16.844 11.1123 16.5322L9.74512 14.2539L7.46777 12.8877C7.15603 12.7006 6.96484 12.3636 6.96484 12C6.96484 11.6364 7.15603 11.2994 7.46777 11.1123L9.74512 9.74512L11.1123 7.46777L11.1895 7.35645C11.3842 7.11108 11.6819 6.96484 12 6.96484ZM11.3877 11.0322C11.3003 11.1779 11.1779 11.3003 11.0322 11.3877L10.0117 12L11.0322 12.6123C11.1779 12.6997 11.3003 12.8221 11.3877 12.9678L12 13.9883L12.6123 12.9678L12.6846 12.8633C12.7626 12.7634 12.8585 12.6779 12.9678 12.6123L13.9883 12L12.9678 11.3877C12.8221 11.3003 12.6997 11.1779 12.6123 11.0322L12 10.0117L11.3877 11.0322ZM10.9648 4V3.0957C9.26483 3.29119 7.71077 3.96248 6.43652 4.97266L7.0752 5.61133C7.47927 6.01553 7.47935 6.67104 7.0752 7.0752C6.67104 7.47935 6.01553 7.47927 5.61133 7.0752L4.97266 6.43652C3.9625 7.71075 3.29219 9.26487 3.09668 10.9648H4C4.57161 10.9648 5.03516 11.4284 5.03516 12C5.03516 12.5716 4.57161 13.0352 4 13.0352H3.09668C3.29216 14.7349 3.96277 16.2884 4.97266 17.5625L5.61133 16.9248C6.01553 16.5207 6.67104 16.5207 7.0752 16.9248C7.47935 17.329 7.47927 17.9845 7.0752 18.3887L6.43652 19.0264C7.71083 20.0367 9.26466 20.7078 10.9648 20.9033V20C10.9648 19.4284 11.4284 18.9648 12 18.9648C12.5716 18.9648 13.0352 19.4284 13.0352 20V20.9033C14.7351 20.7078 16.2883 20.0365 17.5625 19.0264L16.9248 18.3887C16.5207 17.9845 16.5207 17.329 16.9248 16.9248C17.329 16.5207 17.9845 16.5207 18.3887 16.9248L19.0264 17.5625C20.0365 16.2883 20.7078 14.7351 20.9033 13.0352H20C19.4284 13.0352 18.9648 12.5716 18.9648 12C18.9648 11.4284 19.4284 10.9648 20 10.9648H20.9033C20.7078 9.26466 20.0367 7.71083 19.0264 6.43652L18.3887 7.0752C17.9845 7.47927 17.329 7.47935 16.9248 7.0752C16.5207 6.67104 16.5207 6.01553 16.9248 5.61133L17.5625 4.97266C16.2884 3.96275 14.7349 3.29116 13.0352 3.0957V4C13.0352 4.57161 12.5716 5.03516 12 5.03516C11.4284 5.03516 10.9648 4.57161 10.9648 4Z"/></g><defs><clipPath id="a"><path fill="#fff" d="M0 0H24V24H0z"/></clipPath></defs></svg>