<svg xmlns="http://www.w3.org/2000/svg" width="24" height="24" fill="none" viewBox="0 0 24 24"><g clip-path="url(#a)"><path fill="currentColor" d="M12 0.964844C18.0945 0.964844 23.0352 5.90554 23.0352 12C23.0352 18.0945 18.0945 23.0352 12 23.0352C5.90554 23.0352 0.964844 18.0945 0.964844 12C0.964844 5.90554 5.90554 0.964844 12 0.964844ZM11.3467 7.19727C11.7532 6.86559 12.3525 6.88958 12.7314 7.26855L16.7314 11.2686C17.1356 11.6727 17.1356 12.3273 16.7314 12.7314L12.7314 16.7314C12.3273 17.1356 11.6727 17.1356 11.2686 16.7314L7.26855 12.7314C6.86436 12.3273 6.86436 11.6727 7.26855 11.2686L11.2686 7.26855L11.3467 7.19727ZM9.46289 12L12 14.5371L14.5371 12L12 9.46289L9.46289 12ZM10.9648 4V3.0957C9.26483 3.29119 7.71077 3.96248 6.43652 4.97266L7.0752 5.61133C7.47927 6.01553 7.47935 6.67104 7.0752 7.0752C6.67104 7.47935 6.01553 7.47927 5.61133 7.0752L4.97266 6.43652C3.9625 7.71075 3.29219 9.26487 3.09668 10.9648H4C4.57161 10.9648 5.03516 11.4284 5.03516 12C5.03516 12.5716 4.57161 13.0352 4 13.0352H3.09668C3.29216 14.7349 3.96277 16.2884 4.97266 17.5625L5.61133 16.9248C6.01553 16.5207 6.67104 16.5207 7.0752 16.9248C7.47935 17.329 7.47927 17.9845 7.0752 18.3887L6.43652 19.0264C7.71083 20.0367 9.26466 20.7078 10.9648 20.9033V20C10.9648 19.4284 11.4284 18.9648 12 18.9648C12.5716 18.9648 13.0352 19.4284 13.0352 20V20.9033C14.7351 20.7078 16.2883 20.0365 17.5625 19.0264L16.9248 18.3887C16.5207 17.9845 16.5207 17.329 16.9248 16.9248C17.329 16.5207 17.9845 16.5207 18.3887 16.9248L19.0264 17.5625C20.0365 16.2883 20.7078 14.7351 20.9033 13.0352H20C19.4284 13.0352 18.9648 12.5716 18.9648 12C18.9648 11.4284 19.4284 10.9648 20 10.9648H20.9033C20.7078 9.26466 20.0367 7.71083 19.0264 6.43652L18.3887 7.0752C17.9845 7.47927 17.329 7.47935 16.9248 7.0752C16.5207 6.67104 16.5207 6.01553 16.9248 5.61133L17.5625 4.97266C16.2884 3.96275 14.7349 3.29116 13.0352 3.0957V4C13.0352 4.57161 12.5716 5.03516 12 5.03516C11.4284 5.03516 10.9648 4.57161 10.9648 4Z"/></g><defs><clipPath id="a"><path fill="#fff" d="M0 0H24V24H0z"/></clipPath></defs></svg>