<svg xmlns="http://www.w3.org/2000/svg" width="24" height="24" fill="none" viewBox="0 0 24 24"><g clip-path="url(#a)"><path fill="currentColor" d="M20.9648 12C20.9648 7.04877 16.9512 3.03516 12 3.03516C7.04877 3.03516 3.03516 7.04877 3.03516 12C3.03516 16.9512 7.04877 20.9648 12 20.9648C16.9512 20.9648 20.9648 16.9512 20.9648 12ZM15.0557 7.08203C15.2398 7.03879 15.5896 6.97076 15.9648 7.10449C16.3447 7.23994 16.6542 7.51858 16.8291 7.87695L16.8955 8.03516L16.9365 8.1748C17.0124 8.4955 16.9558 8.78329 16.918 8.94434C16.8711 9.14372 16.7907 9.38077 16.7158 9.60547L15.2285 14.0674C15.2011 14.1496 15.1318 14.3863 14.9912 14.5918C14.8839 14.7485 14.7485 14.8839 14.5918 14.9912C14.3863 15.1318 14.1496 15.2011 14.0674 15.2285L9.60547 16.7158C9.38077 16.7907 9.14372 16.8711 8.94434 16.918C8.76022 16.9612 8.4104 17.0292 8.03516 16.8955C7.60118 16.7408 7.25925 16.3988 7.10449 15.9648C6.97076 15.5896 7.03879 15.2398 7.08203 15.0557C7.12888 14.8563 7.20928 14.6192 7.28418 14.3945L8.77148 9.93262C8.79889 9.85039 8.86823 9.61368 9.00879 9.4082L9.09375 9.29492C9.18453 9.18551 9.29052 9.08936 9.4082 9.00879L9.56543 8.91602C9.72235 8.83605 9.87093 8.79205 9.93262 8.77148L14.3945 7.28418C14.6192 7.20928 14.8563 7.12888 15.0557 7.08203ZM10.6982 10.6982L9.39648 14.6025L13.3008 13.3008L14.6025 9.39648L10.6982 10.6982ZM23.0352 12C23.0352 18.0945 18.0945 23.0352 12 23.0352C5.90554 23.0352 0.964844 18.0945 0.964844 12C0.964844 5.90554 5.90554 0.964844 12 0.964844C18.0945 0.964844 23.0352 5.90554 23.0352 12Z"/></g><defs><clipPath id="a"><path fill="#fff" d="M0 0H24V24H0z"/></clipPath></defs></svg>