<svg xmlns="http://www.w3.org/2000/svg" width="24" height="24" fill="none" viewBox="0 0 24 24"><g clip-path="url(#a)"><path fill="currentColor" d="M12 0.964844C12.6517 0.964844 13.291 1.02205 13.9131 1.13086C14.4761 1.22936 14.8524 1.7651 14.7539 2.32812C14.6554 2.89111 14.1196 3.26826 13.5566 3.16992C13.3846 3.13984 13.2105 3.11584 13.0352 3.0957V20.9033C13.2099 20.8833 13.3833 20.861 13.5547 20.8311C14.1176 20.7327 14.6534 21.1091 14.752 21.6719C14.8503 22.2349 14.4741 22.7717 13.9111 22.8701C13.2897 22.9787 12.6509 23.0352 12 23.0352C5.90554 23.0352 0.964844 18.0945 0.964844 12C0.964844 5.90554 5.90554 0.964844 12 0.964844ZM19.3418 17.1455C19.6703 16.6777 20.3164 16.565 20.7842 16.8936C21.2519 17.2221 21.3646 17.8682 21.0361 18.3359C20.2984 19.3863 19.3818 20.3019 18.3311 21.0391C17.8631 21.3671 17.2179 21.254 16.8896 20.7861C16.5614 20.3182 16.6747 19.673 17.1426 19.3447C17.9971 18.7452 18.7419 17.9997 19.3418 17.1455ZM20.9648 12C20.9648 11.4687 20.9193 10.9489 20.8311 10.4443C20.7326 9.88126 21.1088 9.34455 21.6719 9.24609C22.2348 9.14766 22.7715 9.52404 22.8701 10.0869C22.9789 10.7088 23.0352 11.3485 23.0352 12C23.0352 12.6515 22.9789 13.2912 22.8701 13.9131C22.7715 14.476 22.2348 14.8523 21.6719 14.7539C21.1088 14.6554 20.7326 14.1187 20.8311 13.5557C20.9193 13.0511 20.9648 12.5313 20.9648 12ZM16.8906 3.21484C17.219 2.74696 17.8651 2.63354 18.333 2.96191C19.3854 3.70055 20.3028 4.61818 21.041 5.6709C21.3692 6.13888 21.256 6.78508 20.7881 7.11328C20.3201 7.44146 19.6739 7.3274 19.3457 6.85938C18.7454 6.00338 17.9993 5.25685 17.1436 4.65625C16.6758 4.32796 16.5626 3.6827 16.8906 3.21484ZM3.03516 12C3.03516 16.601 6.50135 20.39 10.9648 20.9033V3.0957C6.5013 3.60898 3.03516 7.39893 3.03516 12Z"/></g><defs><clipPath id="a"><path fill="#fff" d="M0 0H24V24H0z"/></clipPath></defs></svg>