<svg xmlns="http://www.w3.org/2000/svg" width="24" height="24" fill="none" viewBox="0 0 24 24"><g clip-path="url(#a)"><path fill="currentColor" d="M20.9648 12C20.9648 7.04877 16.9512 3.03516 12 3.03516C7.04877 3.03516 3.03516 7.04877 3.03516 12C3.03516 16.9512 7.04877 20.9648 12 20.9648C16.9512 20.9648 20.9648 16.9512 20.9648 12ZM17.4648 12C17.4648 11.1728 17.2793 10.3895 16.9502 9.68652C16.4265 13.4506 13.4506 16.4265 9.68652 16.9502C10.3895 17.2793 11.1728 17.4648 12 17.4648C15.0182 17.4648 17.4648 15.0182 17.4648 12ZM19.5352 12C19.5352 16.1615 16.1615 19.5352 12 19.5352C9.47551 19.5352 7.24069 18.2929 5.875 16.3906C5.6225 16.0389 5.61631 15.5669 5.8584 15.208C6.10068 14.849 6.54118 14.6786 6.96191 14.7812C7.45383 14.9012 7.96877 14.9648 8.5 14.9648C12.0705 14.9648 14.9648 12.0705 14.9648 8.5C14.9648 7.96877 14.9012 7.45383 14.7812 6.96191C14.6786 6.54118 14.849 6.10068 15.208 5.8584C15.5669 5.61631 16.0389 5.6225 16.3906 5.875C18.2929 7.24069 19.5352 9.47551 19.5352 12ZM23.0352 12C23.0352 18.0945 18.0945 23.0352 12 23.0352C5.90554 23.0352 0.964844 18.0945 0.964844 12C0.964844 5.90554 5.90554 0.964844 12 0.964844C18.0945 0.964844 23.0352 5.90554 23.0352 12Z"/></g><defs><clipPath id="a"><path fill="#fff" d="M0 0H24V24H0z"/></clipPath></defs></svg>