<svg xmlns="http://www.w3.org/2000/svg" width="24" height="24" fill="none" viewBox="0 0 24 24"><path fill="currentColor" d="M16.4648 9.7002C16.4648 9.12309 16.4644 8.75228 16.4414 8.4707C16.4194 8.20121 16.3816 8.10521 16.3594 8.06152C16.2669 7.88033 16.1197 7.73308 15.9385 7.64063C15.8948 7.61837 15.7988 7.58061 15.5293 7.5586C15.2477 7.53559 14.8769 7.53516 14.2998 7.53516H6.2002C5.62309 7.53516 5.25228 7.53559 4.9707 7.5586C4.7012 7.58061 4.60521 7.61837 4.56152 7.64063C4.38033 7.73308 4.23308 7.88033 4.14062 8.06152C4.11837 8.10521 4.08061 8.20121 4.05859 8.4707C4.03559 8.75228 4.03516 9.12309 4.03516 9.7002V17.7998C4.03516 18.3769 4.03559 18.7477 4.05859 19.0293C4.08061 19.2988 4.11837 19.3948 4.14062 19.4385C4.23308 19.6197 4.38032 19.7669 4.56152 19.8594C4.60521 19.8816 4.7012 19.9194 4.9707 19.9414C5.25228 19.9644 5.62309 19.9648 6.2002 19.9648H14.2998C14.8769 19.9648 15.2477 19.9644 15.5293 19.9414C15.7988 19.9194 15.8948 19.8816 15.9385 19.8594C16.1197 19.7669 16.2669 19.6197 16.3594 19.4385C16.3816 19.3948 16.4194 19.2988 16.4414 19.0293C16.4644 18.7477 16.4648 18.3769 16.4648 17.7998V9.7002ZM19.9648 16.5V9.40039C19.9648 8.26342 19.9643 7.47246 19.9141 6.85742C19.8648 6.25458 19.7728 5.91187 19.6416 5.6543C19.3573 5.0964 18.9036 4.64266 18.3457 4.3584C18.0881 4.2272 17.7454 4.13519 17.1426 4.08594C16.5275 4.03571 15.7366 4.03516 14.5996 4.03516H7.5C6.92839 4.03516 6.46484 3.57162 6.46484 3C6.46484 2.42839 6.92839 1.96485 7.5 1.96485H14.5996C15.7026 1.96485 16.5926 1.96372 17.3115 2.02246C18.0425 2.08219 18.6881 2.20895 19.2861 2.51367C20.2334 2.99637 21.0036 3.76662 21.4863 4.71387C21.791 5.31191 21.9178 5.95747 21.9775 6.68848C22.0363 7.40741 22.0352 8.29737 22.0352 9.40039V16.5C22.0352 17.0716 21.5716 17.5352 21 17.5352C20.4284 17.5352 19.9648 17.0716 19.9648 16.5ZM18.5352 17.7998C18.5352 18.3428 18.5354 18.8128 18.5039 19.1982C18.4714 19.5956 18.3998 19.9939 18.2041 20.3779C17.9131 20.9489 17.4489 21.4131 16.8779 21.7041C16.4939 21.8998 16.0956 21.9714 15.6982 22.0039C15.3128 22.0354 14.8428 22.0352 14.2998 22.0352H6.2002C5.65722 22.0352 5.18718 22.0354 4.80176 22.0039C4.40438 21.9714 4.00608 21.8998 3.62207 21.7041C3.05107 21.4131 2.58686 20.9489 2.2959 20.3779C2.10024 19.9939 2.02859 19.5956 1.99609 19.1982C1.9646 18.8128 1.96484 18.3428 1.96484 17.7998V9.7002C1.96484 9.15722 1.9646 8.68719 1.99609 8.30176C2.02859 7.90438 2.10024 7.50608 2.2959 7.12207C2.58686 6.55108 3.05107 6.08686 3.62207 5.7959C4.00608 5.60024 4.40438 5.52859 4.80176 5.4961C5.18718 5.4646 5.65722 5.46485 6.2002 5.46485H14.2998C14.8428 5.46485 15.3128 5.4646 15.6982 5.4961C16.0956 5.52859 16.4939 5.60024 16.8779 5.7959C17.4489 6.08686 17.9131 6.55108 18.2041 7.12207C18.3998 7.50608 18.4714 7.90438 18.5039 8.30176C18.5354 8.68719 18.5352 9.15722 18.5352 9.7002V17.7998Z"/></svg>