<svg xmlns="http://www.w3.org/2000/svg" width="24" height="24" fill="none" viewBox="0 0 24 24"><g clip-path="url(#a)"><path fill="currentColor" d="M14.9648 11.2002C14.9648 10.6231 14.9644 10.2523 14.9414 9.9707C14.9194 9.7012 14.8816 9.60521 14.8594 9.56152C14.7669 9.38033 14.6197 9.23308 14.4385 9.14062C14.3948 9.11837 14.2988 9.08061 14.0293 9.05859C13.7477 9.03559 13.3769 9.03516 12.7998 9.03516H5.2002C4.62309 9.03516 4.25228 9.03559 3.9707 9.05859C3.7012 9.08061 3.60521 9.11837 3.56152 9.14062C3.38033 9.23308 3.23308 9.38033 3.14062 9.56152C3.11837 9.60521 3.08061 9.7012 3.05859 9.9707C3.03559 10.2523 3.03516 10.6231 3.03516 11.2002V18.7998C3.03516 19.3769 3.03559 19.7477 3.05859 20.0293C3.08061 20.2988 3.11837 20.3948 3.14062 20.4385C3.23308 20.6197 3.38032 20.7669 3.56152 20.8594C3.60521 20.8816 3.7012 20.9194 3.9707 20.9414C4.25228 20.9644 4.62309 20.9648 5.2002 20.9648H12.7998C13.3769 20.9648 13.7477 20.9644 14.0293 20.9414C14.2988 20.9194 14.3948 20.8816 14.4385 20.8594C14.6197 20.7669 14.7669 20.6197 14.8594 20.4385C14.8816 20.3948 14.9194 20.2988 14.9414 20.0293C14.9644 19.7477 14.9648 19.3769 14.9648 18.7998V11.2002ZM22.0107 12.4648C22.5822 12.4726 23.0398 12.9423 23.0322 13.5137C23.0233 14.1693 22.9946 14.8078 22.7041 15.3779C22.4131 15.9489 21.9489 16.4131 21.3779 16.7041C20.8078 16.9946 20.1692 17.0233 19.5137 17.0322C18.9423 17.0398 18.4726 16.5822 18.4648 16.0107C18.4574 15.4394 18.9149 14.9697 19.4863 14.9619C20.1806 14.9525 20.3533 14.9028 20.4385 14.8594C20.6197 14.7669 20.7669 14.6197 20.8594 14.4385C20.9028 14.3533 20.9525 14.1806 20.9619 13.4863C20.9697 12.9149 21.4394 12.4574 22.0107 12.4648ZM20.9648 10V8C20.9648 7.42839 21.4284 6.96484 22 6.96484C22.5716 6.96484 23.0352 7.42839 23.0352 8V10C23.0352 10.5716 22.5716 11.0352 22 11.0352C21.4284 11.0352 20.9648 10.5716 20.9648 10ZM10.4863 0.967773C11.0577 0.960221 11.5274 1.41781 11.5352 1.98926C11.5426 2.5606 11.0851 3.03034 10.5137 3.03809C9.81944 3.04751 9.64675 3.0972 9.56152 3.14062C9.38033 3.23308 9.23308 3.38033 9.14062 3.56152C9.0972 3.64675 9.04751 3.81944 9.03809 4.51367C9.03034 5.08507 8.5606 5.54263 7.98926 5.53516C7.41781 5.52741 6.96022 5.05773 6.96777 4.48633C6.97666 3.83075 7.00541 3.19219 7.2959 2.62207C7.58686 2.05107 8.05107 1.58686 8.62207 1.2959C9.19219 1.00541 9.83075 0.976658 10.4863 0.967773ZM19.5137 0.967773C20.1692 0.976658 20.8078 1.00541 21.3779 1.2959C21.9489 1.58686 22.4131 2.05108 22.7041 2.62207C22.9946 3.19219 23.0233 3.83076 23.0322 4.48633C23.0398 5.05772 22.5822 5.52741 22.0107 5.53516C21.4394 5.54263 20.9697 5.08507 20.9619 4.51367C20.9525 3.81944 20.9028 3.64675 20.8594 3.56152C20.7669 3.38032 20.6197 3.23308 20.4385 3.14062C20.3533 3.0972 20.1806 3.04751 19.4863 3.03809C18.9149 3.03034 18.4574 2.5606 18.4648 1.98926C18.4726 1.41781 18.9423 0.960221 19.5137 0.967773ZM16 0.964844C16.5716 0.964866 17.0352 1.4284 17.0352 2C17.0352 2.5716 16.5716 3.03513 16 3.03516H14C13.4284 3.03513 12.9648 2.5716 12.9648 2C12.9648 1.4284 13.4284 0.964872 14 0.964844H16ZM17.0352 18.7998C17.0352 19.3428 17.0354 19.8128 17.0039 20.1982C16.9714 20.5956 16.8998 20.9939 16.7041 21.3779C16.4131 21.9489 15.9489 22.4131 15.3779 22.7041C14.9939 22.8998 14.5956 22.9714 14.1982 23.0039C13.8128 23.0354 13.3428 23.0352 12.7998 23.0352H5.2002C4.65722 23.0352 4.18718 23.0354 3.80176 23.0039C3.40438 22.9714 3.00608 22.8998 2.62207 22.7041C2.05107 22.4131 1.58686 21.9489 1.2959 21.3779C1.10024 20.9939 1.02859 20.5956 0.996094 20.1982C0.964603 19.8128 0.964844 19.3428 0.964844 18.7998V11.2002C0.964844 10.6572 0.964603 10.1872 0.996094 9.80176C1.02859 9.40438 1.10024 9.00608 1.2959 8.62207C1.58686 8.05107 2.05107 7.58686 2.62207 7.2959C3.00608 7.10024 3.40438 7.02859 3.80176 6.99609C4.18718 6.9646 4.65722 6.96484 5.2002 6.96484H12.7998C13.3428 6.96484 13.8128 6.9646 14.1982 6.99609C14.5956 7.02859 14.9939 7.10024 15.3779 7.2959C15.9489 7.58686 16.4131 8.05107 16.7041 8.62207C16.8998 9.00608 16.9714 9.40438 17.0039 9.80176C17.0354 10.1872 17.0352 10.6572 17.0352 11.2002V18.7998Z"/></g><defs><clipPath id="a"><path fill="#fff" d="M0 0H24V24H0z"/></clipPath></defs></svg>