<svg xmlns="http://www.w3.org/2000/svg" width="24" height="24" fill="none" viewBox="0 0 24 24"><g clip-path="url(#a)"><path fill="currentColor" d="M14.9648 11.2002C14.9648 10.6231 14.9644 10.2523 14.9414 9.9707C14.9194 9.7012 14.8816 9.60521 14.8594 9.56152C14.7669 9.38033 14.6197 9.23308 14.4385 9.14062C14.3948 9.11837 14.2988 9.08061 14.0293 9.05859C13.7477 9.03559 13.3769 9.03516 12.7998 9.03516H5.2002C4.62309 9.03516 4.25228 9.03559 3.9707 9.05859C3.7012 9.08061 3.60521 9.11837 3.56152 9.14062C3.38033 9.23308 3.23308 9.38033 3.14062 9.56152C3.11837 9.60521 3.08061 9.7012 3.05859 9.9707C3.03559 10.2523 3.03516 10.6231 3.03516 11.2002V18.7998C3.03516 19.3769 3.03559 19.7477 3.05859 20.0293C3.08061 20.2988 3.11837 20.3948 3.14062 20.4385C3.23308 20.6197 3.38032 20.7669 3.56152 20.8594C3.60521 20.8816 3.7012 20.9194 3.9707 20.9414C4.25228 20.9644 4.62309 20.9648 5.2002 20.9648H12.7998C13.3769 20.9648 13.7477 20.9644 14.0293 20.9414C14.2988 20.9194 14.3948 20.8816 14.4385 20.8594C14.6197 20.7669 14.7669 20.6197 14.8594 20.4385C14.8816 20.3948 14.9194 20.2988 14.9414 20.0293C14.9644 19.7477 14.9648 19.3769 14.9648 18.7998V11.2002ZM17.0352 14.9648H18.7998C19.3769 14.9648 19.7477 14.9644 20.0293 14.9414C20.2988 14.9194 20.3948 14.8816 20.4385 14.8594C20.6197 14.7669 20.7669 14.6197 20.8594 14.4385C20.8816 14.3948 20.9194 14.2988 20.9414 14.0293C20.9644 13.7477 20.9648 13.3769 20.9648 12.7998V5.2002C20.9648 4.62309 20.9644 4.25228 20.9414 3.9707C20.9194 3.7012 20.8816 3.60521 20.8594 3.56152C20.7669 3.38032 20.6197 3.23308 20.4385 3.14062C20.3948 3.11837 20.2988 3.08061 20.0293 3.05859C19.7477 3.03559 19.3769 3.03516 18.7998 3.03516H11.2002C10.6231 3.03516 10.2523 3.03559 9.9707 3.05859C9.7012 3.08061 9.60521 3.11837 9.56152 3.14062C9.38033 3.23308 9.23308 3.38033 9.14062 3.56152C9.11837 3.60521 9.08061 3.7012 9.05859 3.9707C9.03559 4.25228 9.03516 4.62309 9.03516 5.2002V6.96484H12.7998C13.3428 6.96484 13.8128 6.9646 14.1982 6.99609C14.5956 7.02859 14.9939 7.10024 15.3779 7.2959C15.9489 7.58686 16.4131 8.05107 16.7041 8.62207C16.8998 9.00608 16.9714 9.40438 17.0039 9.80176C17.0354 10.1872 17.0352 10.6572 17.0352 11.2002V14.9648ZM23.0352 12.7998C23.0352 13.3428 23.0354 13.8128 23.0039 14.1982C22.9714 14.5956 22.8998 14.9939 22.7041 15.3779C22.4131 15.9489 21.9489 16.4131 21.3779 16.7041C20.9939 16.8998 20.5956 16.9714 20.1982 17.0039C19.8128 17.0354 19.3428 17.0352 18.7998 17.0352H17.0352V18.7998C17.0352 19.3428 17.0354 19.8128 17.0039 20.1982C16.9714 20.5956 16.8998 20.9939 16.7041 21.3779C16.4131 21.9489 15.9489 22.4131 15.3779 22.7041C14.9939 22.8998 14.5956 22.9714 14.1982 23.0039C13.8128 23.0354 13.3428 23.0352 12.7998 23.0352H5.2002C4.65722 23.0352 4.18718 23.0354 3.80176 23.0039C3.40438 22.9714 3.00608 22.8998 2.62207 22.7041C2.05107 22.4131 1.58686 21.9489 1.2959 21.3779C1.10024 20.9939 1.02859 20.5956 0.996094 20.1982C0.964603 19.8128 0.964844 19.3428 0.964844 18.7998V11.2002C0.964844 10.6572 0.964603 10.1872 0.996094 9.80176C1.02859 9.40438 1.10024 9.00608 1.2959 8.62207C1.58686 8.05107 2.05107 7.58686 2.62207 7.2959C3.00608 7.10024 3.40438 7.02859 3.80176 6.99609C4.18718 6.9646 4.65722 6.96484 5.2002 6.96484H6.96484V5.2002C6.96484 4.65722 6.9646 4.18718 6.99609 3.80176C7.02859 3.40438 7.10024 3.00608 7.2959 2.62207C7.58686 2.05107 8.05107 1.58686 8.62207 1.2959C9.00608 1.10024 9.40438 1.02859 9.80176 0.996094C10.1872 0.964603 10.6572 0.964844 11.2002 0.964844H18.7998C19.3428 0.964844 19.8128 0.964603 20.1982 0.996094C20.5956 1.02859 20.9939 1.10024 21.3779 1.2959C21.9489 1.58686 22.4131 2.05108 22.7041 2.62207C22.8998 3.00608 22.9714 3.40438 23.0039 3.80176C23.0354 4.18718 23.0352 4.65722 23.0352 5.2002V12.7998Z"/></g><defs><clipPath id="a"><path fill="#fff" d="M0 0H24V24H0z"/></clipPath></defs></svg>