<svg xmlns="http://www.w3.org/2000/svg" width="24" height="24" fill="none" viewBox="0 0 24 24"><g clip-path="url(#a)"><path fill="currentColor" d="M20.9648 12.2002C20.9648 11.6231 20.9644 11.2523 20.9414 10.9707C20.9194 10.7012 20.8816 10.6052 20.8594 10.5615C20.7669 10.3803 20.6197 10.2331 20.4385 10.1406C20.3948 10.1184 20.2988 10.0806 20.0293 10.0586C19.7477 10.0356 19.3769 10.0352 18.7998 10.0352H12.2002C11.6231 10.0352 11.2523 10.0356 10.9707 10.0586C10.7012 10.0806 10.6052 10.1184 10.5615 10.1406C10.3803 10.2331 10.2331 10.3803 10.1406 10.5615C10.1184 10.6052 10.0806 10.7012 10.0586 10.9707C10.0356 11.2523 10.0352 11.6231 10.0352 12.2002V18.7998C10.0352 19.3769 10.0356 19.7477 10.0586 20.0293C10.0806 20.2988 10.1184 20.3948 10.1406 20.4385C10.2331 20.6197 10.3803 20.7669 10.5615 20.8594C10.6052 20.8816 10.7012 20.9194 10.9707 20.9414C11.2523 20.9644 11.6231 20.9648 12.2002 20.9648H18.7998C19.3769 20.9648 19.7477 20.9644 20.0293 20.9414C20.2988 20.9194 20.3948 20.8816 20.4385 20.8594C20.6197 20.7669 20.7669 20.6197 20.8594 20.4385C20.8816 20.3948 20.9194 20.2988 20.9414 20.0293C20.9644 19.7477 20.9648 19.3769 20.9648 18.7998V12.2002ZM13.9648 5C13.9648 4.52018 13.9643 4.21202 13.9482 3.97656C13.9328 3.75065 13.9068 3.66757 13.8916 3.63086C13.7937 3.39441 13.6056 3.20634 13.3691 3.1084C13.3324 3.09321 13.2494 3.06717 13.0234 3.05176C12.788 3.03572 12.4798 3.03516 12 3.03516H5.2002C4.62309 3.03516 4.25228 3.03559 3.9707 3.05859C3.70121 3.08061 3.60521 3.11837 3.56152 3.14063C3.38033 3.23308 3.23308 3.38033 3.14063 3.56152C3.11837 3.60521 3.08061 3.70121 3.05859 3.9707C3.03559 4.25228 3.03516 4.62309 3.03516 5.2002V12C3.03516 12.4798 3.03572 12.788 3.05176 13.0234C3.06717 13.2494 3.09321 13.3324 3.1084 13.3691C3.20634 13.6056 3.39441 13.7937 3.63086 13.8916C3.66757 13.9068 3.75065 13.9328 3.97656 13.9482C4.21202 13.9643 4.52018 13.9648 5 13.9648C5.57162 13.9648 6.03516 14.4284 6.03516 15C6.03516 15.5716 5.57162 16.0352 5 16.0352C4.54822 16.0352 4.15728 16.0357 3.83496 16.0137C3.5035 15.991 3.16963 15.9407 2.83887 15.8037C2.09521 15.4957 1.50432 14.9048 1.19629 14.1611C1.05932 13.8304 1.00896 13.4965 0.986329 13.165C0.964338 12.8427 0.964845 12.4518 0.964845 12V5.2002C0.964845 4.65722 0.964604 4.18719 0.996095 3.80176C1.02859 3.40438 1.10024 3.00608 1.2959 2.62207C1.58686 2.05108 2.05108 1.58686 2.62207 1.2959C3.00608 1.10024 3.40438 1.02859 3.80176 0.996095C4.18719 0.964604 4.65722 0.964845 5.2002 0.964845H12C12.4518 0.964845 12.8427 0.964338 13.165 0.986329C13.4965 1.00896 13.8304 1.05932 14.1611 1.19629C14.9048 1.50432 15.4957 2.09521 15.8037 2.83887C15.9407 3.16963 15.991 3.5035 16.0137 3.83496C16.0357 4.15728 16.0352 4.54822 16.0352 5C16.0352 5.57162 15.5716 6.03516 15 6.03516C14.4284 6.03516 13.9648 5.57162 13.9648 5ZM23.0352 18.7998C23.0352 19.3428 23.0354 19.8128 23.0039 20.1982C22.9714 20.5956 22.8998 20.9939 22.7041 21.3779C22.4131 21.9489 21.9489 22.4131 21.3779 22.7041C20.9939 22.8998 20.5956 22.9714 20.1982 23.0039C19.8128 23.0354 19.3428 23.0352 18.7998 23.0352H12.2002C11.6572 23.0352 11.1872 23.0354 10.8018 23.0039C10.4044 22.9714 10.0061 22.8998 9.62207 22.7041C9.05108 22.4131 8.58686 21.9489 8.2959 21.3779C8.10024 20.9939 8.02859 20.5956 7.99609 20.1982C7.9646 19.8128 7.96484 19.3428 7.96484 18.7998V12.2002C7.96484 11.6572 7.9646 11.1872 7.99609 10.8018C8.02859 10.4044 8.10024 10.0061 8.2959 9.62207C8.58686 9.05108 9.05108 8.58686 9.62207 8.2959C10.0061 8.10024 10.4044 8.02859 10.8018 7.99609C11.1872 7.9646 11.6572 7.96484 12.2002 7.96484H18.7998C19.3428 7.96484 19.8128 7.9646 20.1982 7.99609C20.5956 8.02859 20.9939 8.10024 21.3779 8.2959C21.9489 8.58686 22.4131 9.05108 22.7041 9.62207C22.8998 10.0061 22.9714 10.4044 23.0039 10.8018C23.0354 11.1872 23.0352 11.6572 23.0352 12.2002V18.7998Z"/></g><defs><clipPath id="a"><path fill="#fff" d="M0 0H24V24H0z"/></clipPath></defs></svg>