<svg xmlns="http://www.w3.org/2000/svg" width="24" height="24" fill="none" viewBox="0 0 24 24"><path fill="currentColor" d="M14.9648 13.5996C14.9648 11.9026 14.9642 10.6917 14.8867 9.74316C14.8102 8.80692 14.664 8.21753 14.4238 7.74609C13.9478 6.81187 13.1881 6.05218 12.2539 5.57617C11.7825 5.33599 11.1931 5.1898 10.2568 5.11328C9.30832 5.03578 8.09742 5.03516 6.40039 5.03516H3C2.42839 5.03516 1.96484 4.57162 1.96484 4C1.96484 3.42839 2.42839 2.96484 3 2.96484H6.40039C8.06313 2.96484 9.3725 2.96385 10.4248 3.04981C11.4891 3.13676 12.3815 3.31791 13.1934 3.73145C14.5171 4.40591 15.5941 5.48292 16.2686 6.80664C16.6821 7.61847 16.8632 8.5109 16.9502 9.5752C17.0362 10.6275 17.0352 11.9369 17.0352 13.5996V17.502L20.2686 14.2686C20.6727 13.8644 21.3273 13.8644 21.7314 14.2686C22.1356 14.6727 22.1356 15.3273 21.7314 15.7314L16.7314 20.7314C16.5373 20.9255 16.2745 21.0352 16 21.0352C15.7255 21.0352 15.4627 20.9255 15.2686 20.7314L10.2686 15.7314C9.86436 15.3273 9.86436 14.6727 10.2686 14.2686C10.6727 13.8644 11.3273 13.8644 11.7314 14.2686L14.9648 17.502V13.5996Z"/></svg>