<svg xmlns="http://www.w3.org/2000/svg" width="24" height="24" fill="none" viewBox="0 0 24 24"><path fill="currentColor" d="M14.9648 10.4004V6.49805L11.7314 9.73145C11.3273 10.1356 10.6727 10.1356 10.2686 9.73145C9.86436 9.32725 9.86436 8.67275 10.2686 8.26855L15.2686 3.26855L15.3438 3.19922C15.5279 3.04826 15.7598 2.96484 16 2.96484C16.2745 2.96484 16.5373 3.07445 16.7314 3.26855L21.7314 8.26855C22.1356 8.67275 22.1356 9.32725 21.7314 9.73145C21.3273 10.1356 20.6727 10.1356 20.2686 9.73145L17.0352 6.49805V10.4004C17.0352 12.0631 17.0362 13.3725 16.9502 14.4248C16.8632 15.4891 16.6821 16.3815 16.2686 17.1934C15.5941 18.5171 14.5171 19.5941 13.1934 20.2686C12.3815 20.6821 11.4891 20.8632 10.4248 20.9502C9.3725 21.0362 8.06313 21.0352 6.40039 21.0352H3C2.42839 21.0352 1.96484 20.5716 1.96484 20C1.96484 19.4284 2.42839 18.9648 3 18.9648H6.40039C8.09742 18.9648 9.30832 18.9642 10.2568 18.8867C11.1931 18.8102 11.7825 18.664 12.2539 18.4238C13.1881 17.9478 13.9478 17.1881 14.4238 16.2539C14.664 15.7825 14.8102 15.1931 14.8867 14.2568C14.9642 13.3083 14.9648 12.0974 14.9648 10.4004Z"/></svg>