<svg xmlns="http://www.w3.org/2000/svg" width="24" height="24" fill="none" viewBox="0 0 24 24"><path fill="currentColor" d="M2.96484 5.40039V4C2.96484 3.42839 3.42839 2.96484 4 2.96484C4.57162 2.96484 5.03516 3.42839 5.03516 4V5.40039C5.03516 7.09742 5.03578 8.30832 5.11328 9.25684C5.1898 10.1931 5.33599 10.7825 5.57617 11.2539C6.05218 12.1881 6.81187 12.9478 7.74609 13.4238C8.21753 13.664 8.80692 13.8102 9.74316 13.8867C10.6917 13.9642 11.9026 13.9648 13.5996 13.9648H17.502L14.2686 10.7314C13.8644 10.3273 13.8644 9.67275 14.2686 9.26855C14.6727 8.86436 15.3273 8.86436 15.7314 9.26855L20.7314 14.2686C21.1356 14.6727 21.1356 15.3273 20.7314 15.7314L15.7314 20.7314C15.3273 21.1356 14.6727 21.1356 14.2686 20.7314C13.8644 20.3273 13.8644 19.6727 14.2686 19.2686L17.502 16.0352H13.5996C11.9369 16.0352 10.6275 16.0362 9.5752 15.9502C8.5109 15.8632 7.61847 15.6821 6.80664 15.2686C5.48292 14.5941 4.40592 13.5171 3.73145 12.1934C3.31791 11.3815 3.13676 10.4891 3.04981 9.4248C2.96385 8.3725 2.96484 7.06313 2.96484 5.40039Z"/></svg>