<svg xmlns="http://www.w3.org/2000/svg" width="24" height="24" fill="none" viewBox="0 0 24 24"><path fill="currentColor" d="M6.96489 13.5996C6.96489 11.9369 6.96389 10.6275 7.04985 9.5752C7.13681 8.5109 7.31795 7.61847 7.73149 6.80664C8.40596 5.48292 9.48296 4.40591 10.8067 3.73145C11.6185 3.31791 12.5109 3.13676 13.5752 3.04981C14.6275 2.96385 15.9369 2.96484 17.5997 2.96484H21C21.5717 2.96484 22.0352 3.42839 22.0352 4C22.0352 4.57162 21.5717 5.03516 21 5.03516H17.5997C15.9026 5.03516 14.6917 5.03578 13.7432 5.11328C12.807 5.1898 12.2176 5.33599 11.7461 5.57617C10.8119 6.05218 10.0522 6.81187 9.57622 7.74609C9.33603 8.21753 9.18984 8.80692 9.11333 9.74316C9.03583 10.6917 9.0352 11.9026 9.0352 13.5996V17.502L12.2686 14.2686C12.6728 13.8644 13.3273 13.8644 13.7315 14.2686C14.1357 14.6727 14.1357 15.3273 13.7315 15.7314L8.73149 20.7314C8.53739 20.9255 8.27454 21.0352 8.00004 21.0352C7.72555 21.0352 7.4627 20.9255 7.2686 20.7314L2.2686 15.7314C1.86441 15.3273 1.86441 14.6727 2.2686 14.2686C2.67279 13.8644 3.3273 13.8644 3.73149 14.2686L6.96489 17.502V13.5996Z"/></svg>