<svg xmlns="http://www.w3.org/2000/svg" width="24" height="24" fill="none" viewBox="0 0 24 24"><path fill="currentColor" d="M2.96484 20V18.5997C2.96484 16.9369 2.96385 15.6275 3.04981 14.5752C3.13676 13.5109 3.31791 12.6185 3.73145 11.8067C4.40591 10.483 5.48292 9.40596 6.80664 8.73149C7.61847 8.31796 8.5109 8.13681 9.5752 8.04985C10.6275 7.96389 11.9369 7.96489 13.5996 7.96489H17.502L14.2686 4.73149C13.8644 4.3273 13.8644 3.67279 14.2686 3.2686C14.6727 2.86441 15.3273 2.86441 15.7314 3.2686L20.7314 8.2686C21.1356 8.67279 21.1356 9.3273 20.7314 9.73149L15.7314 14.7315C15.3273 15.1357 14.6727 15.1357 14.2686 14.7315C13.8644 14.3273 13.8644 13.6728 14.2686 13.2686L17.502 10.0352H13.5996C11.9026 10.0352 10.6917 10.0358 9.74316 10.1133C8.80692 10.1898 8.21753 10.336 7.74609 10.5762C6.81187 11.0522 6.05218 11.8119 5.57617 12.7461C5.33599 13.2176 5.1898 13.807 5.11328 14.7432C5.03578 15.6917 5.03516 16.9026 5.03516 18.5997V20C5.03516 20.5717 4.57162 21.0352 4 21.0352C3.42839 21.0352 2.96484 20.5717 2.96484 20Z"/></svg>