<svg xmlns="http://www.w3.org/2000/svg" width="24" height="24" fill="none" viewBox="0 0 24 24"><path fill="currentColor" d="M18.9649 20V18.5997C18.9649 16.9026 18.9643 15.6917 18.8868 14.7432C18.8102 13.807 18.6641 13.2176 18.4239 12.7461C17.9479 11.8119 17.1882 11.0522 16.254 10.5762C15.7825 10.336 15.1931 10.1898 14.2569 10.1133C13.3084 10.0358 12.0975 10.0352 10.4004 10.0352H6.49809L9.73149 13.2686C10.1357 13.6728 10.1357 14.3273 9.73149 14.7315C9.3273 15.1357 8.67279 15.1357 8.2686 14.7315L3.2686 9.73149C2.86441 9.3273 2.86441 8.67279 3.2686 8.2686L8.2686 3.2686C8.67279 2.86441 9.3273 2.86441 9.73149 3.2686C10.1357 3.67279 10.1357 4.3273 9.73149 4.73149L6.49809 7.96489H10.4004C12.0632 7.96489 13.3725 7.96389 14.4248 8.04985C15.4891 8.13681 16.3816 8.31796 17.1934 8.73149C18.5171 9.40596 19.5941 10.483 20.2686 11.8067C20.6821 12.6185 20.8633 13.5109 20.9502 14.5752C21.0362 15.6275 21.0352 16.9369 21.0352 18.5997V20C21.0352 20.5717 20.5717 21.0352 20 21.0352C19.4284 21.0352 18.9649 20.5717 18.9649 20Z"/></svg>