<svg xmlns="http://www.w3.org/2000/svg" width="24" height="24" fill="none" viewBox="0 0 24 24"><path fill="currentColor" d="M18.9649 5.40039V4C18.9649 3.42839 19.4284 2.96484 20 2.96484C20.5717 2.96484 21.0352 3.42839 21.0352 4V5.40039C21.0352 7.06313 21.0362 8.3725 20.9502 9.4248C20.8633 10.4891 20.6821 11.3815 20.2686 12.1934C19.5941 13.5171 18.5171 14.5941 17.1934 15.2686C16.3816 15.6821 15.4891 15.8632 14.4248 15.9502C13.3725 16.0362 12.0632 16.0352 10.4004 16.0352H6.49809L9.73149 19.2686C10.1357 19.6727 10.1357 20.3273 9.73149 20.7314C9.3273 21.1356 8.67279 21.1356 8.2686 20.7314L3.2686 15.7314C2.86441 15.3273 2.86441 14.6727 3.2686 14.2686L8.2686 9.26855C8.67279 8.86436 9.3273 8.86436 9.73149 9.26855C10.1357 9.67275 10.1357 10.3273 9.73149 10.7314L6.49809 13.9648H10.4004C12.0975 13.9648 13.3084 13.9642 14.2569 13.8867C15.1931 13.8102 15.7825 13.664 16.254 13.4238C17.1882 12.9478 17.9479 12.1881 18.4239 11.2539C18.6641 10.7825 18.8102 10.1931 18.8868 9.25684C18.9643 8.30832 18.9649 7.09742 18.9649 5.40039Z"/></svg>