<svg xmlns="http://www.w3.org/2000/svg" width="24" height="24" fill="none" viewBox="0 0 24 24"><path fill="currentColor" d="M6.96489 10.4004V6.49805L3.73149 9.73145C3.3273 10.1356 2.67279 10.1356 2.2686 9.73145C1.86441 9.32725 1.86441 8.67275 2.2686 8.26855L7.2686 3.26855L7.34379 3.19922C7.52798 3.04826 7.75981 2.96484 8.00004 2.96484C8.27454 2.96484 8.53739 3.07445 8.73149 3.26855L13.7315 8.26855C14.1357 8.67275 14.1357 9.32725 13.7315 9.73145C13.3273 10.1356 12.6728 10.1356 12.2686 9.73145L9.0352 6.49805V10.4004C9.0352 12.0974 9.03583 13.3083 9.11333 14.2568C9.18984 15.1931 9.33603 15.7825 9.57622 16.2539C10.0522 17.1881 10.8119 17.9478 11.7461 18.4238C12.2176 18.664 12.807 18.8102 13.7432 18.8867C14.6917 18.9642 15.9026 18.9648 17.5997 18.9648H21C21.5717 18.9648 22.0352 19.4284 22.0352 20C22.0352 20.5716 21.5717 21.0352 21 21.0352H17.5997C15.9369 21.0352 14.6275 21.0362 13.5752 20.9502C12.5109 20.8632 11.6185 20.6821 10.8067 20.2686C9.48296 19.5941 8.40596 18.5171 7.73149 17.1934C7.31795 16.3815 7.13681 15.4891 7.04985 14.4248C6.96389 13.3725 6.96489 12.0631 6.96489 10.4004Z"/></svg>