<svg xmlns="http://www.w3.org/2000/svg" width="24" height="24" fill="none" viewBox="0 0 24 24"><g clip-path="url(#a)"><path fill="currentColor" d="M13.9648 22V20.0352H10.0352V22C10.0352 22.5716 9.57161 23.0352 9 23.0352C8.42839 23.0352 7.96484 22.5716 7.96484 22V20.0029C7.8896 19.9985 7.81612 19.996 7.74512 19.9902C7.18095 19.9441 6.65899 19.8449 6.16797 19.5947C5.409 19.2079 4.79208 18.591 4.40527 17.832C4.15509 17.341 4.05588 16.8191 4.00977 16.2549C3.98092 15.9018 3.97226 15.4965 3.96875 15.0352H2C1.42839 15.0352 0.964844 14.5716 0.964844 14C0.964844 13.4284 1.42839 12.9648 2 12.9648H3.96484V10.0352H2C1.42839 10.0352 0.964844 9.57161 0.964844 9C0.964844 8.42839 1.42839 7.96484 2 7.96484H3.99609C4.00048 7.88958 4.00396 7.81613 4.00977 7.74512C4.05588 7.18095 4.15509 6.65899 4.40527 6.16797C4.79208 5.409 5.409 4.79208 6.16797 4.40527C6.65899 4.15509 7.18095 4.05588 7.74512 4.00977C7.81613 4.00396 7.88958 4.00048 7.96484 3.99609V2C7.96484 1.42839 8.42839 0.964844 9 0.964844C9.57161 0.964844 10.0352 1.42839 10.0352 2V3.96484H13.9648V2C13.9648 1.42839 14.4284 0.964844 15 0.964844C15.5716 0.964844 16.0352 1.42839 16.0352 2V3.99609C16.1104 4.00048 16.1839 4.00396 16.2549 4.00977C16.8191 4.05588 17.341 4.15509 17.832 4.40527C18.591 4.79208 19.2079 5.409 19.5947 6.16797C19.8449 6.65899 19.9441 7.18095 19.9902 7.74512C19.996 7.81613 19.9995 7.88958 20.0039 7.96484H22C22.5716 7.96484 23.0352 8.42839 23.0352 9C23.0352 9.57161 22.5716 10.0352 22 10.0352H20.0352V12.9648H22C22.5716 12.9648 23.0352 13.4284 23.0352 14C23.0352 14.5716 22.5716 15.0352 22 15.0352H20.0312C20.0277 15.4965 20.0191 15.9018 19.9902 16.2549C19.9441 16.8191 19.8449 17.341 19.5947 17.832C19.2079 18.591 18.591 19.2079 17.832 19.5947C17.341 19.8449 16.8191 19.9441 16.2549 19.9902C16.1839 19.996 16.1104 19.9985 16.0352 20.0029V22C16.0352 22.5716 15.5716 23.0352 15 23.0352C14.4284 23.0352 13.9648 22.5716 13.9648 22ZM9.7998 6.03516C8.94287 6.03516 8.36234 6.03565 7.91406 6.07227C7.47781 6.10791 7.25807 6.17227 7.10742 6.24902C6.73794 6.43737 6.43737 6.73794 6.24902 7.10742C6.17227 7.25807 6.10791 7.47781 6.07227 7.91406C6.03565 8.36234 6.03516 8.94287 6.03516 9.7998V14.2002C6.03516 15.0571 6.03565 15.6377 6.07227 16.0859C6.10791 16.5222 6.17227 16.7419 6.24902 16.8926C6.43737 17.2621 6.73794 17.5626 7.10742 17.751C7.25807 17.8277 7.47781 17.8921 7.91406 17.9277C8.36234 17.9643 8.94287 17.9648 9.7998 17.9648H14.2002C15.0571 17.9648 15.6377 17.9643 16.0859 17.9277C16.5222 17.8921 16.7419 17.8277 16.8926 17.751C17.2621 17.5626 17.5626 17.2621 17.751 16.8926C17.8277 16.7419 17.8921 16.5222 17.9277 16.0859C17.9643 15.6377 17.9648 15.0571 17.9648 14.2002V9.7998C17.9648 8.94287 17.9643 8.36234 17.9277 7.91406C17.8921 7.47781 17.8277 7.25807 17.751 7.10742C17.5626 6.73794 17.2621 6.43737 16.8926 6.24902C16.7419 6.17227 16.5222 6.10791 16.0859 6.07227C15.6377 6.03565 15.0571 6.03516 14.2002 6.03516H9.7998Z"/></g><defs><clipPath id="a"><path fill="#fff" d="M0 0H24V24H0z"/></clipPath></defs></svg>