<svg xmlns="http://www.w3.org/2000/svg" width="24" height="24" fill="none" viewBox="0 0 24 24"><g clip-path="url(#a)"><path fill="currentColor" d="M18.9648 8.7998C18.9648 7.94287 18.9643 7.36234 18.9277 6.91406C18.8921 6.47781 18.8277 6.25807 18.751 6.10742C18.5626 5.73794 18.2621 5.43737 17.8926 5.24902C17.7419 5.17227 17.5222 5.10791 17.0859 5.07227C16.6377 5.03565 16.0571 5.03516 15.2002 5.03516H8.7998C7.94287 5.03516 7.36234 5.03565 6.91406 5.07227C6.47781 5.10791 6.25807 5.17227 6.10742 5.24902C5.73794 5.43737 5.43737 5.73794 5.24902 6.10742C5.17227 6.25807 5.10791 6.47781 5.07227 6.91406C5.03565 7.36234 5.03516 7.94287 5.03516 8.7998V15.2002C5.03516 16.0571 5.03565 16.6377 5.07227 17.0859C5.10791 17.5222 5.17227 17.7419 5.24902 17.8926C5.43737 18.2621 5.73794 18.5626 6.10742 18.751C6.25807 18.8277 6.47781 18.8921 6.91406 18.9277C7.36234 18.9643 7.94287 18.9648 8.7998 18.9648H15.2002C16.0571 18.9648 16.6377 18.9643 17.0859 18.9277C17.5222 18.8921 17.7419 18.8277 17.8926 18.751C18.2621 18.5626 18.5626 18.2621 18.751 17.8926C18.8277 17.7419 18.8921 17.5222 18.9277 17.0859C18.9643 16.6377 18.9648 16.0571 18.9648 15.2002V8.7998ZM13.9648 10.5996C13.9648 10.3166 13.9633 10.1576 13.9551 10.0439C13.8415 10.0358 13.6825 10.0352 13.4004 10.0352H10.5996C10.3167 10.0352 10.1576 10.0358 10.0439 10.0439C10.0358 10.1576 10.0352 10.3167 10.0352 10.5996V13.4004C10.0352 13.6825 10.0358 13.8415 10.0439 13.9551C10.1576 13.9633 10.3166 13.9648 10.5996 13.9648H13.4004C13.6826 13.9648 13.8415 13.9632 13.9551 13.9551C13.9632 13.8415 13.9648 13.6826 13.9648 13.4004V10.5996ZM21.0352 15.2002C21.0352 16.0231 21.0353 16.7027 20.9902 17.2549C20.9441 17.8191 20.8449 18.341 20.5947 18.832C20.2079 19.591 19.591 20.2079 18.832 20.5947C18.341 20.8449 17.8191 20.9441 17.2549 20.9902C16.9018 21.0191 16.4965 21.0268 16.0352 21.0303V22C16.0352 22.5716 15.5716 23.0352 15 23.0352C14.4284 23.0352 13.9648 22.5716 13.9648 22V21.0352H10.0352V22C10.0352 22.5716 9.57161 23.0352 9 23.0352C8.42839 23.0352 7.96484 22.5716 7.96484 22V21.0303C7.50348 21.0268 7.09816 21.0191 6.74512 20.9902C6.18095 20.9441 5.65899 20.8449 5.16797 20.5947C4.409 20.2079 3.79208 19.591 3.40527 18.832C3.15509 18.341 3.05588 17.8191 3.00977 17.2549C2.96465 16.7027 2.96484 16.0231 2.96484 15.2002V15.0352H2C1.42839 15.0352 0.964844 14.5716 0.964844 14C0.964844 13.4284 1.42839 12.9648 2 12.9648H2.96484V10.0352H2C1.42839 10.0352 0.964844 9.57161 0.964844 9C0.964844 8.42839 1.42839 7.96484 2 7.96484H2.96875C2.97226 7.50348 2.98092 7.09816 3.00977 6.74512C3.05588 6.18095 3.15509 5.65899 3.40527 5.16797C3.79208 4.409 4.409 3.79208 5.16797 3.40527C5.65899 3.15509 6.18095 3.05588 6.74512 3.00977C7.09816 2.98092 7.50348 2.97226 7.96484 2.96875V2C7.96484 1.42839 8.42839 0.964844 9 0.964844C9.57161 0.964844 10.0352 1.42839 10.0352 2V2.96484H13.9648V2C13.9648 1.42839 14.4284 0.964844 15 0.964844C15.5716 0.964844 16.0352 1.42839 16.0352 2V2.96875C16.4965 2.97226 16.9018 2.98092 17.2549 3.00977C17.8191 3.05588 18.341 3.15509 18.832 3.40527C19.591 3.79208 20.2079 4.409 20.5947 5.16797C20.8449 5.65899 20.9441 6.18095 20.9902 6.74512C21.0191 7.09816 21.0277 7.50348 21.0312 7.96484H22C22.5716 7.96484 23.0352 8.42839 23.0352 9C23.0352 9.57161 22.5716 10.0352 22 10.0352H21.0352V12.9648H22C22.5716 12.9648 23.0352 13.4284 23.0352 14C23.0352 14.5716 22.5716 15.0352 22 15.0352H21.0352V15.2002ZM16.0352 13.4004C16.0352 13.663 16.0354 13.9221 16.0176 14.1406C15.9987 14.3713 15.9546 14.6467 15.8135 14.9238C15.6184 15.3067 15.3067 15.6184 14.9238 15.8135C14.6467 15.9546 14.3713 15.9987 14.1406 16.0176C13.9221 16.0354 13.663 16.0352 13.4004 16.0352H10.5996C10.337 16.0352 10.0779 16.0354 9.85938 16.0176C9.62866 15.9987 9.3533 15.9546 9.07617 15.8135C8.69326 15.6184 8.38163 15.3067 8.18652 14.9238C8.04535 14.6467 8.00127 14.3713 7.98242 14.1406C7.9646 13.9221 7.96484 13.663 7.96484 13.4004V10.5996C7.96484 10.337 7.9646 10.0779 7.98242 9.85938C8.00127 9.62866 8.04535 9.3533 8.18652 9.07617L8.26562 8.93555C8.46114 8.61698 8.74128 8.35716 9.07617 8.18652L9.2832 8.09766C9.48814 8.02471 9.6864 7.99655 9.85938 7.98242C10.0779 7.9646 10.337 7.96484 10.5996 7.96484H13.4004C13.663 7.96484 13.9221 7.9646 14.1406 7.98242C14.3713 8.00127 14.6467 8.04535 14.9238 8.18652C15.2587 8.35716 15.5389 8.61698 15.7344 8.93555L15.8135 9.07617L15.9023 9.2832C15.9753 9.48814 16.0034 9.6864 16.0176 9.85938C16.0354 10.0779 16.0352 10.337 16.0352 10.5996V13.4004Z"/></g><defs><clipPath id="a"><path fill="#fff" d="M0 0H24V24H0z"/></clipPath></defs></svg>