<svg xmlns="http://www.w3.org/2000/svg" width="24" height="24" fill="none" viewBox="0 0 24 24"><path fill="currentColor" d="M10.9648 13C10.9648 12.4284 11.4284 11.9648 12 11.9648C12.5716 11.9648 13.0352 12.4284 13.0352 13V17.502L14.2686 16.2686C14.6727 15.8644 15.3273 15.8644 15.7314 16.2686C16.1356 16.6727 16.1356 17.3273 15.7314 17.7314L12.7314 20.7314C12.3273 21.1356 11.6727 21.1356 11.2686 20.7314L8.26855 17.7314C7.86436 17.3273 7.86436 16.6727 8.26855 16.2686C8.67275 15.8644 9.32725 15.8644 9.73145 16.2686L10.9648 17.502V13ZM20.9648 7.2002C20.9648 6.62309 20.9644 6.25228 20.9414 5.9707C20.9194 5.7012 20.8816 5.60521 20.8594 5.56152C20.7669 5.38033 20.6197 5.23308 20.4385 5.14062C20.3948 5.11837 20.2988 5.08061 20.0293 5.05859C19.7477 5.03559 19.3769 5.03516 18.7998 5.03516H5.2002C4.62309 5.03516 4.25228 5.03559 3.9707 5.05859C3.7012 5.08061 3.60521 5.11837 3.56152 5.14062C3.38033 5.23308 3.23308 5.38033 3.14062 5.56152C3.11837 5.60521 3.08061 5.7012 3.05859 5.9707C3.03559 6.25228 3.03516 6.62309 3.03516 7.2002V7.96484H20.9648V7.2002ZM23.0352 14.7998C23.0352 15.3428 23.0354 15.8128 23.0039 16.1982C22.9714 16.5956 22.8998 16.9939 22.7041 17.3779C22.4131 17.9489 21.9489 18.4131 21.3779 18.7041C20.9939 18.8998 20.5956 18.9714 20.1982 19.0039C19.8128 19.0354 19.3428 19.0352 18.7998 19.0352H18.5C17.9284 19.0352 17.4648 18.5716 17.4648 18C17.4648 17.4284 17.9284 16.9648 18.5 16.9648H18.7998C19.3769 16.9648 19.7477 16.9644 20.0293 16.9414C20.2988 16.9194 20.3948 16.8816 20.4385 16.8594C20.6197 16.7669 20.7669 16.6197 20.8594 16.4385C20.8816 16.3948 20.9194 16.2988 20.9414 16.0293C20.9644 15.7477 20.9648 15.3769 20.9648 14.7998V10.0352H3.03516V14.7998C3.03516 15.3769 3.03559 15.7477 3.05859 16.0293C3.08061 16.2988 3.11837 16.3948 3.14062 16.4385C3.23308 16.6197 3.38033 16.7669 3.56152 16.8594C3.60521 16.8816 3.7012 16.9194 3.9707 16.9414C4.25228 16.9644 4.62309 16.9648 5.2002 16.9648H5.5C6.07161 16.9648 6.53516 17.4284 6.53516 18C6.53516 18.5716 6.07161 19.0352 5.5 19.0352H5.2002C4.65722 19.0352 4.18718 19.0354 3.80176 19.0039C3.40438 18.9714 3.00608 18.8998 2.62207 18.7041C2.05108 18.4131 1.58686 17.9489 1.2959 17.3779C1.10024 16.9939 1.02859 16.5956 0.996094 16.1982C0.964603 15.8128 0.964844 15.3428 0.964844 14.7998V7.2002C0.964844 6.65722 0.964603 6.18718 0.996094 5.80176C1.02859 5.40438 1.10024 5.00608 1.2959 4.62207C1.58686 4.05107 2.05107 3.58686 2.62207 3.2959C3.00608 3.10024 3.40438 3.02859 3.80176 2.99609C4.18718 2.9646 4.65722 2.96484 5.2002 2.96484H18.7998C19.3428 2.96484 19.8128 2.9646 20.1982 2.99609C20.5956 3.02859 20.9939 3.10023 21.3779 3.2959C21.9489 3.58686 22.4131 4.05107 22.7041 4.62207C22.8998 5.00608 22.9714 5.40438 23.0039 5.80176C23.0354 6.18718 23.0352 6.65722 23.0352 7.2002V14.7998Z"/></svg>