<svg xmlns="http://www.w3.org/2000/svg" width="24" height="24" fill="none" viewBox="0 0 24 24"><path fill="currentColor" d="M20.7686 15.2686C21.1727 14.8644 21.8273 14.8644 22.2314 15.2686C22.6356 15.6727 22.6356 16.3273 22.2314 16.7314L20.4629 18.5L22.2314 20.2686C22.6356 20.6727 22.6356 21.3273 22.2314 21.7314C21.8273 22.1356 21.1727 22.1356 20.7686 21.7314L19 19.9629L17.2314 21.7314C16.8273 22.1356 16.1727 22.1356 15.7686 21.7314C15.3644 21.3273 15.3644 20.6727 15.7686 20.2686L17.5371 18.5L15.7686 16.7314C15.3644 16.3273 15.3644 15.6727 15.7686 15.2686C16.1727 14.8644 16.8273 14.8644 17.2314 15.2686L19 17.0371L20.7686 15.2686ZM20.9648 8.2002C20.9648 7.62309 20.9644 7.25228 20.9414 6.9707C20.9194 6.7012 20.8816 6.60521 20.8594 6.56152C20.7669 6.38033 20.6197 6.23308 20.4385 6.14062C20.3948 6.11837 20.2988 6.08061 20.0293 6.05859C19.7477 6.03559 19.3769 6.03516 18.7998 6.03516H5.2002C4.62309 6.03516 4.25228 6.03559 3.9707 6.05859C3.7012 6.08061 3.60521 6.11837 3.56152 6.14062C3.38033 6.23308 3.23308 6.38033 3.14062 6.56152C3.11837 6.60521 3.08061 6.7012 3.05859 6.9707C3.03559 7.25228 3.03516 7.62309 3.03516 8.2002V8.96484H20.9648V8.2002ZM23.0352 12C23.0352 12.5716 22.5716 13.0352 22 13.0352C21.4284 13.0352 20.9648 12.5716 20.9648 12V11.0352H3.03516V15.7998C3.03516 16.3769 3.03559 16.7477 3.05859 17.0293C3.08061 17.2988 3.11837 17.3948 3.14062 17.4385C3.23308 17.6197 3.38033 17.7669 3.56152 17.8594C3.60521 17.8816 3.7012 17.9194 3.9707 17.9414C4.25228 17.9644 4.62309 17.9648 5.2002 17.9648H12C12.5716 17.9648 13.0352 18.4284 13.0352 19C13.0352 19.5716 12.5716 20.0352 12 20.0352H5.2002C4.65722 20.0352 4.18718 20.0354 3.80176 20.0039C3.40438 19.9714 3.00608 19.8998 2.62207 19.7041C2.05108 19.4131 1.58686 18.9489 1.2959 18.3779C1.10024 17.9939 1.02859 17.5956 0.996094 17.1982C0.964603 16.8128 0.964844 16.3428 0.964844 15.7998V8.2002C0.964844 7.65722 0.964603 7.18718 0.996094 6.80176C1.02859 6.40438 1.10024 6.00608 1.2959 5.62207C1.58686 5.05107 2.05107 4.58686 2.62207 4.2959C3.00608 4.10024 3.40438 4.02859 3.80176 3.99609C4.18718 3.9646 4.65722 3.96484 5.2002 3.96484H18.7998C19.3428 3.96484 19.8128 3.9646 20.1982 3.99609C20.5956 4.02859 20.9939 4.10023 21.3779 4.2959C21.9489 4.58686 22.4131 5.05107 22.7041 5.62207C22.8998 6.00608 22.9714 6.40438 23.0039 6.80176C23.0354 7.18718 23.0352 7.65722 23.0352 8.2002V12Z"/></svg>