<svg xmlns="http://www.w3.org/2000/svg" width="24" height="24" fill="none" viewBox="0 0 24 24"><path fill="currentColor" d="M20.9648 15.7997V11.0351H3.03516V15.7997C3.03516 16.3768 3.03559 16.7476 3.05859 17.0292C3.08061 17.2987 3.11837 17.3947 3.14062 17.4384C3.23308 17.6196 3.38033 17.7668 3.56152 17.8593C3.60521 17.8816 3.7012 17.9193 3.9707 17.9413C4.25228 17.9643 4.62309 17.9648 5.2002 17.9648H7C7.57161 17.9648 8.03516 18.4283 8.03516 18.9999C8.03516 19.5715 7.57161 20.0351 7 20.0351H5.2002C4.65722 20.0351 4.18718 20.0353 3.80176 20.0038C3.40438 19.9713 3.00608 19.8997 2.62207 19.704C2.05108 19.4131 1.58686 18.9488 1.2959 18.3779C1.10024 17.9938 1.02859 17.5955 0.996094 17.1982C0.964603 16.8127 0.964844 16.3427 0.964844 15.7997V8.20012C0.964844 7.65714 0.964603 7.18711 0.996094 6.80168C1.02859 6.4043 1.10024 6.006 1.2959 5.62199C1.58686 5.051 2.05107 4.58678 2.62207 4.29582C3.00608 4.10016 3.40438 4.02851 3.80176 3.99602C4.18718 3.96452 4.65722 3.96477 5.2002 3.96477H10.502L10.2686 3.73137C9.86436 3.32717 9.86436 2.67267 10.2686 2.26848C10.6727 1.86428 11.3273 1.86428 11.7314 2.26848L13.7314 4.26848C14.1356 4.67267 14.1356 5.32717 13.7314 5.73137L11.7314 7.73137C11.3273 8.13556 10.6727 8.13556 10.2686 7.73137C9.86436 7.32717 9.86436 6.67267 10.2686 6.26848L10.502 6.03508H5.2002C4.62309 6.03508 4.25228 6.03551 3.9707 6.05852C3.7012 6.08053 3.60521 6.11829 3.56152 6.14055C3.38033 6.233 3.23308 6.38025 3.14062 6.56145C3.11837 6.60513 3.08061 6.70113 3.05859 6.97062C3.03559 7.2522 3.03516 7.62301 3.03516 8.20012V8.96477H20.9648V8.20012C20.9648 7.62301 20.9644 7.2522 20.9414 6.97062C20.9194 6.70113 20.8816 6.60513 20.8594 6.56145C20.7669 6.38025 20.6197 6.233 20.4385 6.14055C20.3948 6.11829 20.2988 6.08053 20.0293 6.05852C19.7477 6.03551 19.3769 6.03508 18.7998 6.03508H17C16.4284 6.03508 15.9648 5.57154 15.9648 4.99992C15.9648 4.42831 16.4284 3.96477 17 3.96477H18.7998C19.3428 3.96477 19.8128 3.96452 20.1982 3.99602C20.5956 4.02851 20.9939 4.10016 21.3779 4.29582C21.9489 4.58678 22.4131 5.05099 22.7041 5.62199C22.8998 6.006 22.9714 6.4043 23.0039 6.80168C23.0354 7.18711 23.0352 7.65714 23.0352 8.20012V15.7997C23.0352 16.3427 23.0354 16.8127 23.0039 17.1982C22.9714 17.5955 22.8998 17.9938 22.7041 18.3779C22.4131 18.9488 21.9489 19.4131 21.3779 19.704C20.9939 19.8997 20.5956 19.9713 20.1982 20.0038C19.8128 20.0353 19.3428 20.0351 18.7998 20.0351H13.498L13.7314 20.2685C14.1356 20.6727 14.1356 21.3272 13.7314 21.7314C13.3273 22.1356 12.6727 22.1356 12.2686 21.7314L10.2686 19.7314C10.0745 19.5373 9.96484 19.2744 9.96484 18.9999C9.96484 18.7254 10.0745 18.4626 10.2686 18.2685L12.2686 16.2685C12.6727 15.8643 13.3273 15.8643 13.7314 16.2685C14.1356 16.6727 14.1356 17.3272 13.7314 17.7314L13.498 17.9648H18.7998C19.3769 17.9648 19.7477 17.9643 20.0293 17.9413C20.2988 17.9193 20.3948 17.8816 20.4385 17.8593C20.6197 17.7668 20.7669 17.6196 20.8594 17.4384C20.8816 17.3947 20.9194 17.2987 20.9414 17.0292C20.9644 16.7476 20.9648 16.3768 20.9648 15.7997Z"/></svg>