<svg xmlns="http://www.w3.org/2000/svg" width="24" height="24" fill="none" viewBox="0 0 24 24"><path fill="currentColor" d="M20.9648 19.0996C20.9648 18.8166 20.9633 18.6576 20.9551 18.5439C20.8415 18.5358 20.6825 18.5352 20.4004 18.5352H16.5996C16.3167 18.5352 16.1576 18.5358 16.0439 18.5439C16.0358 18.6576 16.0352 18.8167 16.0352 19.0996V19.9004C16.0352 20.1825 16.0358 20.3415 16.0439 20.4551C16.1576 20.4633 16.3166 20.4648 16.5996 20.4648H20.4004C20.6826 20.4648 20.8415 20.4632 20.9551 20.4551C20.9632 20.3415 20.9648 20.1826 20.9648 19.9004V19.0996ZM20.9648 8.2002C20.9648 7.62309 20.9644 7.25228 20.9414 6.9707C20.9194 6.7012 20.8816 6.60521 20.8594 6.56152C20.7669 6.38033 20.6197 6.23308 20.4385 6.14062C20.3948 6.11837 20.2988 6.08061 20.0293 6.05859C19.7477 6.03559 19.3769 6.03516 18.7998 6.03516H5.2002C4.62309 6.03516 4.25228 6.03559 3.9707 6.05859C3.7012 6.08061 3.60521 6.11837 3.56152 6.14062C3.38033 6.23308 3.23308 6.38033 3.14062 6.56152C3.11837 6.60521 3.08061 6.7012 3.05859 6.9707C3.03559 7.25228 3.03516 7.62309 3.03516 8.2002V8.96484H20.9648V8.2002ZM19.2148 15.75C19.2148 15.3551 18.8949 15.0352 18.5 15.0352C18.1051 15.0352 17.7852 15.3551 17.7852 15.75V16.4648H19.2148V15.75ZM21.2852 16.498C21.4823 16.5237 21.7024 16.5737 21.9238 16.6865C22.2587 16.8572 22.5389 17.117 22.7344 17.4355L22.8135 17.5762L22.9023 17.7832C22.9753 17.9881 23.0034 18.1864 23.0176 18.3594C23.0354 18.5779 23.0352 18.837 23.0352 19.0996V19.9004C23.0352 20.163 23.0354 20.4221 23.0176 20.6406C22.9987 20.8713 22.9546 21.1467 22.8135 21.4238C22.6184 21.8067 22.3067 22.1184 21.9238 22.3135C21.6467 22.4546 21.3713 22.4987 21.1406 22.5176C20.9221 22.5354 20.663 22.5352 20.4004 22.5352H16.5996C16.337 22.5352 16.0779 22.5354 15.8594 22.5176C15.6287 22.4987 15.3533 22.4546 15.0762 22.3135C14.6933 22.1184 14.3816 21.8067 14.1865 21.4238C14.0454 21.1467 14.0013 20.8713 13.9824 20.6406C13.9646 20.4221 13.9648 20.163 13.9648 19.9004V19.0996C13.9648 18.837 13.9646 18.5779 13.9824 18.3594C14.0013 18.1287 14.0454 17.8533 14.1865 17.5762L14.2656 17.4355C14.4611 17.117 14.7413 16.8572 15.0762 16.6865L15.2832 16.5977C15.4332 16.5443 15.5795 16.5157 15.7148 16.498V15.75C15.7148 14.2119 16.9619 12.9648 18.5 12.9648C20.0381 12.9648 21.2852 14.2119 21.2852 15.75V16.498ZM23.0352 11C23.0352 11.5716 22.5716 12.0352 22 12.0352C21.4402 12.0352 20.9854 11.5905 20.9668 11.0352H3.03516V15.7998C3.03516 16.3769 3.03559 16.7477 3.05859 17.0293C3.08061 17.2988 3.11837 17.3948 3.14062 17.4385C3.23308 17.6197 3.38033 17.7669 3.56152 17.8594C3.60521 17.8816 3.7012 17.9194 3.9707 17.9414C4.25228 17.9644 4.62309 17.9648 5.2002 17.9648H11C11.5716 17.9648 12.0352 18.4284 12.0352 19C12.0352 19.5716 11.5716 20.0352 11 20.0352H5.2002C4.65722 20.0352 4.18718 20.0354 3.80176 20.0039C3.40438 19.9714 3.00608 19.8998 2.62207 19.7041C2.05108 19.4131 1.58686 18.9489 1.2959 18.3779C1.10024 17.9939 1.02859 17.5956 0.996094 17.1982C0.964603 16.8128 0.964844 16.3428 0.964844 15.7998V8.2002C0.964844 7.65722 0.964603 7.18718 0.996094 6.80176C1.02859 6.40438 1.10024 6.00608 1.2959 5.62207C1.58686 5.05107 2.05107 4.58686 2.62207 4.2959C3.00608 4.10024 3.40438 4.02859 3.80176 3.99609C4.18718 3.9646 4.65722 3.96484 5.2002 3.96484H18.7998C19.3428 3.96484 19.8128 3.9646 20.1982 3.99609C20.5956 4.02859 20.9939 4.10023 21.3779 4.2959C21.9489 4.58686 22.4131 5.05107 22.7041 5.62207C22.8998 6.00608 22.9714 6.40438 23.0039 6.80176C23.0354 7.18718 23.0352 7.65722 23.0352 8.2002V11Z"/></svg>