<svg xmlns="http://www.w3.org/2000/svg" width="24" height="24" fill="none" viewBox="0 0 24 24"><path fill="currentColor" d="M18.4453 21.9346C18.1637 22.0688 17.8363 22.0688 17.5547 21.9346L18 21L18.4453 21.9346ZM19.9648 15.6514L18.4639 15.1162L18.4629 15.1152C18.1631 15.008 17.8349 15.0079 17.5352 15.1152V15.1162L16.0352 15.6514V17.4248C16.0352 18.0143 16.468 18.6419 17.1631 19.2217C17.4589 19.4684 17.7599 19.6692 18 19.8154C18.2401 19.6692 18.5411 19.4684 18.8369 19.2217C19.532 18.6419 19.9648 18.0143 19.9648 17.4248V15.6514ZM20.9648 8.2002C20.9648 7.62309 20.9644 7.25228 20.9414 6.9707C20.9194 6.7012 20.8816 6.60521 20.8594 6.56152C20.7669 6.38033 20.6197 6.23308 20.4385 6.14062C20.3948 6.11837 20.2988 6.08061 20.0293 6.05859C19.7477 6.03559 19.3769 6.03516 18.7998 6.03516H5.2002C4.62309 6.03516 4.25228 6.03559 3.9707 6.05859C3.7012 6.08061 3.60521 6.11837 3.56152 6.14062C3.38033 6.23308 3.23308 6.38033 3.14062 6.56152C3.11837 6.60521 3.08061 6.7012 3.05859 6.9707C3.03559 7.25228 3.03516 7.62309 3.03516 8.2002V8.96484H20.9648V8.2002ZM22.0352 17.4248C22.0352 18.9801 20.9679 20.1402 20.1631 20.8115C19.7349 21.1687 19.3114 21.4451 18.998 21.6318C18.8405 21.7257 18.708 21.7991 18.6123 21.8496C18.5644 21.8749 18.5253 21.8951 18.4971 21.9092C18.4831 21.9162 18.4715 21.9216 18.4629 21.9258C18.4586 21.9279 18.455 21.9303 18.4521 21.9316C18.4509 21.9323 18.4492 21.9321 18.4482 21.9326L18.4463 21.9336L18 21L17.5537 21.9336L17.5518 21.9326C17.5508 21.9321 17.5491 21.9323 17.5479 21.9316C17.545 21.9303 17.5414 21.9279 17.5371 21.9258C17.5285 21.9216 17.5169 21.9162 17.5029 21.9092C17.4747 21.8951 17.4356 21.8749 17.3877 21.8496C17.292 21.7991 17.1595 21.7257 17.002 21.6318C16.6886 21.4451 16.2651 21.1687 15.8369 20.8115C15.0321 20.1402 13.9648 18.9801 13.9648 17.4248V14.9229C13.9649 14.4856 14.2397 14.0955 14.6514 13.9482L16.8369 13.167L17.1221 13.0781C17.7928 12.9016 18.5039 12.9316 19.1611 13.167L21.3486 13.9482C21.7603 14.0955 22.0351 14.4856 22.0352 14.9229V17.4248ZM23.0352 11C23.0352 11.5716 22.5716 12.0352 22 12.0352C21.4402 12.0352 20.9854 11.5905 20.9668 11.0352H3.03516V15.7998C3.03516 16.3769 3.03559 16.7477 3.05859 17.0293C3.08061 17.2988 3.11837 17.3948 3.14062 17.4385C3.23308 17.6197 3.38033 17.7669 3.56152 17.8594C3.60521 17.8816 3.7012 17.9194 3.9707 17.9414C4.25228 17.9644 4.62309 17.9648 5.2002 17.9648H11.5C12.0716 17.9648 12.5352 18.4284 12.5352 19C12.5352 19.5716 12.0716 20.0352 11.5 20.0352H5.2002C4.65722 20.0352 4.18718 20.0354 3.80176 20.0039C3.40438 19.9714 3.00608 19.8998 2.62207 19.7041C2.05108 19.4131 1.58686 18.9489 1.2959 18.3779C1.10024 17.9939 1.02859 17.5956 0.996094 17.1982C0.964603 16.8128 0.964844 16.3428 0.964844 15.7998V8.2002C0.964844 7.65722 0.964603 7.18718 0.996094 6.80176C1.02859 6.40438 1.10024 6.00608 1.2959 5.62207C1.58686 5.05107 2.05107 4.58686 2.62207 4.2959C3.00608 4.10024 3.40438 4.02859 3.80176 3.99609C4.18718 3.9646 4.65722 3.96484 5.2002 3.96484H18.7998C19.3428 3.96484 19.8128 3.9646 20.1982 3.99609C20.5956 4.02859 20.9939 4.10023 21.3779 4.2959C21.9489 4.58686 22.4131 5.05107 22.7041 5.62207C22.8998 6.00608 22.9714 6.40438 23.0039 6.80176C23.0354 7.18718 23.0352 7.65722 23.0352 8.2002V11Z"/></svg>