<svg xmlns="http://www.w3.org/2000/svg" width="24" height="24" fill="none" viewBox="0 0 24 24"><g clip-path="url(#a)"><path fill="currentColor" d="M16.9648 22V19.0352H9.2002C8.65722 19.0352 8.18718 19.0354 7.80176 19.0039C7.40438 18.9714 7.00608 18.8998 6.62207 18.7041C6.05107 18.4131 5.58686 17.9489 5.2959 17.3779C5.10023 16.9939 5.02859 16.5956 4.99609 16.1982C4.9646 15.8128 4.96484 15.3428 4.96484 14.7998V7.03516H2C1.42839 7.03516 0.964845 6.57161 0.964844 6C0.964844 5.42839 1.42839 4.96484 2 4.96484H4.96484V2C4.96484 1.42839 5.42839 0.964844 6 0.964844C6.57161 0.964845 7.03516 1.42839 7.03516 2V14.7998C7.03516 15.3769 7.03559 15.7477 7.05859 16.0293C7.08061 16.2988 7.11837 16.3948 7.14062 16.4385C7.23308 16.6197 7.38033 16.7669 7.56152 16.8594C7.60521 16.8816 7.7012 16.9194 7.9707 16.9414C8.25228 16.9644 8.62309 16.9648 9.2002 16.9648H22C22.5716 16.9648 23.0352 17.4284 23.0352 18C23.0352 18.5716 22.5716 19.0352 22 19.0352H19.0352V22C19.0352 22.5716 18.5716 23.0352 18 23.0352C17.4284 23.0352 16.9648 22.5716 16.9648 22ZM16.9648 14V9.2002C16.9648 8.62309 16.9644 8.25228 16.9414 7.9707C16.9194 7.7012 16.8816 7.60521 16.8594 7.56152C16.7669 7.38033 16.6197 7.23308 16.4385 7.14062C16.3948 7.11837 16.2988 7.08061 16.0293 7.05859C15.7477 7.03559 15.3769 7.03516 14.7998 7.03516H10C9.42839 7.03516 8.96484 6.57161 8.96484 6C8.96484 5.42839 9.42839 4.96484 10 4.96484H14.7998C15.3428 4.96484 15.8128 4.9646 16.1982 4.99609C16.5956 5.02859 16.9939 5.10024 17.3779 5.2959C17.9489 5.58686 18.4131 6.05107 18.7041 6.62207C18.8998 7.00608 18.9714 7.40438 19.0039 7.80176C19.0354 8.18718 19.0352 8.65722 19.0352 9.2002V14C19.0352 14.5716 18.5716 15.0352 18 15.0352C17.4284 15.0352 16.9648 14.5716 16.9648 14Z"/></g><defs><clipPath id="a"><path fill="#fff" d="M0 0H24V24H0z"/></clipPath></defs></svg>