<svg xmlns="http://www.w3.org/2000/svg" width="24" height="24" fill="none" viewBox="0 0 24 24"><g clip-path="url(#a)"><path fill="currentColor" d="M3.26855 19.2686C3.67275 18.8644 4.32725 18.8644 4.73145 19.2686C5.13564 19.6727 5.13564 20.3273 4.73145 20.7314L2.73145 22.7314C2.32725 23.1356 1.67275 23.1356 1.26855 22.7314C0.864362 22.3273 0.864362 21.6727 1.26855 21.2686L3.26855 19.2686ZM6.96484 22V18C6.96484 17.4284 7.42839 16.9648 8 16.9648C8.57161 16.9648 9.03516 17.4284 9.03516 18V22C9.03516 22.5716 8.57161 23.0352 8 23.0352C7.42839 23.0352 6.96484 22.5716 6.96484 22ZM14.9648 22V20.5C14.9648 19.9284 15.4284 19.4648 16 19.4648C16.5716 19.4648 17.0352 19.9284 17.0352 20.5V22C17.0352 22.5716 16.5716 23.0352 16 23.0352C15.4284 23.0352 14.9648 22.5716 14.9648 22ZM19.2686 19.2686C19.6727 18.8644 20.3273 18.8644 20.7314 19.2686L22.7314 21.2686C23.1356 21.6727 23.1356 22.3273 22.7314 22.7314C22.3273 23.1356 21.6727 23.1356 21.2686 22.7314L19.2686 20.7314C18.8644 20.3273 18.8644 19.6727 19.2686 19.2686ZM11.5254 6.24707C11.7951 6.15944 12.0832 6.14915 12.3574 6.21484L12.4746 6.24707L12.6416 6.31348C12.7957 6.38674 12.9136 6.47717 12.998 6.54883C13.1015 6.63668 13.2109 6.74706 13.2979 6.83398L17.166 10.7021C17.2529 10.7891 17.3633 10.8985 17.4512 11.002C17.5228 11.0864 17.6133 11.2043 17.6865 11.3584L17.7529 11.5254L17.7852 11.6426C17.8509 11.9168 17.8406 12.2049 17.7529 12.4746C17.6754 12.713 17.5468 12.8853 17.4512 12.998C17.3633 13.1015 17.2529 13.2109 17.166 13.2979L13.2979 17.166C13.2109 17.2529 13.1015 17.3633 12.998 17.4512C12.8853 17.5468 12.713 17.6754 12.4746 17.7529C12.1663 17.8531 11.8337 17.8531 11.5254 17.7529C11.287 17.6754 11.1147 17.5468 11.002 17.4512C10.8985 17.3633 10.7891 17.2529 10.7021 17.166L6.83398 13.2979C6.74706 13.2109 6.63668 13.1015 6.54883 12.998C6.4532 12.8853 6.32455 12.713 6.24707 12.4746C6.1469 12.1663 6.1469 11.8337 6.24707 11.5254C6.32455 11.287 6.4532 11.1147 6.54883 11.002C6.63668 10.8985 6.74706 10.7891 6.83398 10.7021L10.7021 6.83398C10.7891 6.74706 10.8985 6.63668 11.002 6.54883C11.1147 6.4532 11.287 6.32455 11.5254 6.24707ZM3.5 14.9648C4.07161 14.9648 4.53516 15.4284 4.53516 16C4.53516 16.5716 4.07161 17.0352 3.5 17.0352H2C1.42839 17.0352 0.964844 16.5716 0.964844 16C0.964844 15.4284 1.42839 14.9648 2 14.9648H3.5ZM21.5 14.9648C22.0716 14.9648 22.5352 15.4284 22.5352 16C22.5352 16.5716 22.0716 17.0352 21.5 17.0352H18C17.4284 17.0352 16.9648 16.5716 16.9648 16C16.9648 15.4284 17.4284 14.9648 18 14.9648H21.5ZM8.46387 12L12 15.5361L15.5361 12L12 8.46387L8.46387 12ZM6 6.96484C6.57161 6.96484 7.03516 7.42839 7.03516 8C7.03516 8.57161 6.57161 9.03516 6 9.03516H2C1.42839 9.03516 0.964844 8.57161 0.964844 8C0.964844 7.42839 1.42839 6.96484 2 6.96484H6ZM22 6.96484C22.5716 6.96484 23.0352 7.42839 23.0352 8C23.0352 8.57161 22.5716 9.03516 22 9.03516H20.5C19.9284 9.03516 19.4648 8.57161 19.4648 8C19.4648 7.42839 19.9284 6.96484 20.5 6.96484H22ZM14.9648 6V2C14.9648 1.42839 15.4284 0.964844 16 0.964844C16.5716 0.964844 17.0352 1.42839 17.0352 2V6C17.0352 6.57161 16.5716 7.03516 16 7.03516C15.4284 7.03516 14.9648 6.57161 14.9648 6ZM1.26855 1.26855C1.67275 0.864362 2.32725 0.864362 2.73145 1.26855L4.73145 3.26855C5.13564 3.67275 5.13564 4.32725 4.73145 4.73145C4.32725 5.13564 3.67275 5.13564 3.26855 4.73145L1.26855 2.73145C0.864362 2.32725 0.864362 1.67275 1.26855 1.26855ZM21.2686 1.26855C21.6727 0.864362 22.3273 0.864362 22.7314 1.26855C23.1356 1.67275 23.1356 2.32725 22.7314 2.73145L20.7314 4.73145C20.3273 5.13564 19.6727 5.13564 19.2686 4.73145C18.8644 4.32725 18.8644 3.67275 19.2686 3.26855L21.2686 1.26855ZM6.96484 3.5V2C6.96484 1.42839 7.42839 0.964844 8 0.964844C8.57161 0.964844 9.03516 1.42839 9.03516 2V3.5C9.03516 4.07161 8.57161 4.53516 8 4.53516C7.42839 4.53516 6.96484 4.07161 6.96484 3.5Z"/></g><defs><clipPath id="a"><path fill="#fff" d="M0 0H24V24H0z"/></clipPath></defs></svg>