<svg xmlns="http://www.w3.org/2000/svg" width="24" height="24" fill="none" viewBox="0 0 24 24"><path fill="currentColor" d="M17.2696 19.2534C17.732 18.9174 18.3789 19.0196 18.7149 19.4819C19.0509 19.9443 18.9489 20.5922 18.4864 20.9282C16.6011 22.2979 14.3304 23.0356 12.0001 23.0356C9.6698 23.0356 7.39902 22.2978 5.51375 20.9282C5.05131 20.5922 4.94925 19.9443 5.28524 19.4819C5.62128 19.0197 6.2682 18.9175 6.73055 19.2534C8.26216 20.3661 10.1069 20.9653 12.0001 20.9653C13.8932 20.9653 15.738 20.3661 17.2696 19.2534ZM16.4649 12.0004C16.4649 9.53453 14.466 7.53565 12.0001 7.53561C9.53413 7.53561 7.53524 9.5345 7.53524 12.0004C7.53537 14.4663 9.53421 16.4653 12.0001 16.4653C14.4659 16.4652 16.4648 14.4663 16.4649 12.0004ZM7.16219 2.0815C7.67589 1.83095 8.29632 2.04444 8.54696 2.55807C8.79752 3.0718 8.5841 3.69223 8.07039 3.94283C6.36878 4.77277 4.97288 6.11985 4.08407 7.79146C3.19542 9.46292 2.85876 11.3729 3.12215 13.2475C3.20171 13.8136 2.80734 14.3369 2.24129 14.4165C1.67529 14.4959 1.1519 14.1016 1.07235 13.5356C0.748109 11.2281 1.16299 8.87725 2.25692 6.81979C3.35092 4.76227 5.06778 3.10308 7.16219 2.0815ZM15.4532 2.55807C15.7039 2.04457 16.3234 1.83207 16.837 2.08248C18.9315 3.10404 20.6492 4.7622 21.7432 6.81979C22.8372 8.87723 23.252 11.2281 22.9278 13.5356C22.8483 14.1016 22.3249 14.4959 21.7589 14.4165C21.1928 14.3369 20.7985 13.8136 20.878 13.2475C21.1414 11.3729 20.8047 9.4629 19.9161 7.79146C19.0273 6.11985 17.6314 4.77277 15.9298 3.94283C15.416 3.69223 15.2026 3.07181 15.4532 2.55807ZM18.5352 12.0004C18.5351 15.6095 15.6091 18.5356 12.0001 18.5356C8.39098 18.5356 5.46506 15.6095 5.46493 12.0004C5.46493 8.39127 8.3909 5.46529 12.0001 5.46529C15.6092 5.46534 18.5352 8.3913 18.5352 12.0004Z"/></svg>