<svg xmlns="http://www.w3.org/2000/svg" width="24" height="24" fill="none" viewBox="0 0 24 24"><path fill="currentColor" d="M17.2696 19.2534C17.732 18.9174 18.3789 19.0196 18.7149 19.4819C19.0509 19.9443 18.9489 20.5922 18.4864 20.9282C16.6011 22.2979 14.3304 23.0356 12.0001 23.0356C9.6698 23.0356 7.39902 22.2978 5.51375 20.9282C5.05131 20.5922 4.94925 19.9443 5.28524 19.4819C5.62128 19.0197 6.2682 18.9175 6.73055 19.2534C8.26216 20.3661 10.1069 20.9653 12.0001 20.9653C13.8932 20.9653 15.738 20.3661 17.2696 19.2534ZM11.6427 5.21432C11.8776 5.15809 12.1226 5.15806 12.3575 5.21432L12.4747 5.24752L12.6407 5.31393C12.7953 5.38729 12.9135 5.47749 12.9981 5.54928C13.1016 5.63713 13.211 5.74751 13.2979 5.83443L18.1661 10.7026C18.2529 10.7894 18.3625 10.8981 18.4503 11.0014C18.522 11.086 18.6132 11.2043 18.6866 11.3588L18.753 11.5258L18.7852 11.6421C18.8511 11.9163 18.8406 12.2043 18.753 12.4741C18.6754 12.7129 18.546 12.8858 18.4503 12.9985C18.3625 13.1019 18.253 13.2105 18.1661 13.2973L13.2979 18.1665C13.211 18.2534 13.1016 18.3628 12.9981 18.4506C12.8854 18.5463 12.7133 18.6758 12.4747 18.7534C12.1664 18.8535 11.8338 18.8535 11.5255 18.7534C11.2867 18.6758 11.1138 18.5463 11.0011 18.4506C10.8977 18.3628 10.789 18.2533 10.7022 18.1665L5.83407 13.2973C5.74715 13.2104 5.63673 13.1019 5.54891 12.9985C5.45324 12.8858 5.32467 12.7127 5.24715 12.4741C5.14713 12.1659 5.14703 11.834 5.24715 11.5258C5.32474 11.2871 5.45321 11.1142 5.54891 11.0014C5.63676 10.8979 5.74714 10.7895 5.83407 10.7026L10.7022 5.83443C10.7891 5.74755 10.8976 5.63711 11.0011 5.54928C11.1138 5.4536 11.2868 5.32511 11.5255 5.24752L11.6427 5.21432ZM7.46297 11.9995L12.0001 16.5366L16.5362 11.9995L12.0001 7.46334L7.46297 11.9995ZM7.16219 2.0815C7.67589 1.83095 8.29632 2.04444 8.54696 2.55807C8.79752 3.0718 8.5841 3.69223 8.07039 3.94283C6.36878 4.77277 4.97288 6.11985 4.08407 7.79146C3.19542 9.46292 2.85876 11.3729 3.12215 13.2475C3.20171 13.8136 2.80734 14.3369 2.24129 14.4165C1.67529 14.4959 1.1519 14.1016 1.07235 13.5356C0.748109 11.2281 1.16299 8.87725 2.25692 6.81979C3.35092 4.76227 5.06778 3.10308 7.16219 2.0815ZM15.4532 2.55807C15.7039 2.04457 16.3234 1.83207 16.837 2.08248C18.9315 3.10404 20.6492 4.7622 21.7432 6.81979C22.8372 8.87723 23.252 11.2281 22.9278 13.5356C22.8483 14.1016 22.3249 14.4959 21.7589 14.4165C21.1928 14.3369 20.7985 13.8136 20.878 13.2475C21.1414 11.3729 20.8047 9.4629 19.9161 7.79146C19.0273 6.11985 17.6314 4.77277 15.9298 3.94283C15.416 3.69223 15.2026 3.07181 15.4532 2.55807Z"/></svg>