<svg xmlns="http://www.w3.org/2000/svg" width="24" height="24" fill="none" viewBox="0 0 24 24"><path fill="currentColor" d="M20.2002 1.96474C20.323 1.96474 20.4772 1.96446 20.6124 1.97548C20.723 1.98452 20.8709 2.00396 21.0323 2.06142L21.1973 2.13173L21.3028 2.1913C21.5088 2.31771 21.6822 2.4911 21.8086 2.69716L21.8682 2.80263L21.9385 2.96767C21.996 3.12901 22.0154 3.27699 22.0245 3.38759C22.0355 3.52274 22.0352 3.6769 22.0352 3.7997V15.3368C22.0352 15.5321 22.0414 15.7986 21.9786 16.0604C21.9287 16.2681 21.847 16.4672 21.7354 16.6493C21.5948 16.8787 21.4018 17.062 21.2637 17.2001L17.2002 21.2636C17.0622 21.4016 16.8788 21.5946 16.6495 21.7352C16.4674 21.8468 16.2682 21.9286 16.0606 21.9784C15.7988 22.0412 15.5322 22.0351 15.337 22.0351H3.79985C3.67705 22.0351 3.52288 22.0353 3.38774 22.0243C3.24036 22.0123 3.02648 21.982 2.80278 21.8681C2.51405 21.7209 2.27903 21.4859 2.13188 21.1972C2.0179 20.9735 1.98767 20.7596 1.97563 20.6122C1.96461 20.4771 1.96489 20.3229 1.96489 20.2001V8.66298C1.96489 8.46771 1.95871 8.20119 2.02153 7.93935L2.0645 7.78505C2.11388 7.6331 2.18102 7.48703 2.26469 7.35048L2.37895 7.1874C2.49894 7.03259 2.63284 6.90322 2.73637 6.7997L6.79985 2.73622C6.9379 2.59816 7.12124 2.40515 7.35063 2.26454L7.49028 2.18642C7.63268 2.11387 7.78373 2.05878 7.9395 2.02138L8.13481 1.98622C8.32956 1.9615 8.51651 1.96474 8.66313 1.96474H20.2002ZM5.49809 19.9647H14.9649V17.0351H8.42778L5.49809 19.9647ZM4.0352 18.5018L6.96489 15.5722V9.03505H4.0352V18.5018ZM17.0352 18.5009L18.501 17.0351H17.0352V18.5009ZM17.0352 8.42763V14.9647H19.9649V5.49794L17.0352 8.42763ZM9.0352 14.9647H14.9649V9.03505H9.0352V14.9647ZM9.0352 6.96474H15.5723L18.502 4.03505H9.0352V6.96474ZM5.49907 6.96474H6.96489V5.49892L5.49907 6.96474Z"/></svg>