<svg xmlns="http://www.w3.org/2000/svg" width="24" height="24" fill="none" viewBox="0 0 24 24"><path fill="currentColor" d="M10.9648 19.5005C10.9648 18.9288 11.4284 18.4653 12 18.4653C12.5716 18.4653 13.0352 18.9288 13.0352 19.5005V20.2407L13.7471 19.8452C14.2467 19.5676 14.8767 19.7479 15.1543 20.2475C15.4319 20.7471 15.2524 21.3771 14.7529 21.6547L13.2793 22.4731C13.1201 22.5615 12.9216 22.6758 12.6982 22.7612C12.514 22.9303 12.2698 23.0346 12 23.0346C11.73 23.0346 11.4851 22.9306 11.3008 22.7612C11.0778 22.6758 10.8797 22.5614 10.7207 22.4731L9.24707 21.6547C8.74757 21.3771 8.56815 20.7471 8.8457 20.2475C9.12333 19.7479 9.75328 19.5676 10.2529 19.8452L10.9648 20.2407V19.5005ZM1.96484 14.5005C1.96484 13.9288 2.42839 13.4653 3 13.4653C3.57161 13.4653 4.03516 13.9288 4.03516 14.5005V16.059C4.03516 16.2307 4.03474 16.3226 4.03809 16.3881C4.09384 16.423 4.17395 16.4682 4.3252 16.5522L5.75293 17.3452C6.25247 17.6228 6.43185 18.2528 6.1543 18.7524C5.8767 19.2521 5.24675 19.4324 4.74707 19.1547L3.32031 18.3618C3.08309 18.23 2.75262 18.0603 2.50391 17.7905C2.3076 17.5775 2.15827 17.3253 2.06738 17.0503C1.98098 16.7888 1.96674 16.5142 1.96484 16.2788V14.5005ZM19.9648 16.059V14.5005C19.9648 13.9288 20.4284 13.4653 21 13.4653C21.5716 13.4653 22.0352 13.9288 22.0352 14.5005V16.2788C22.0333 16.5142 22.019 16.7888 21.9326 17.0503C21.8417 17.3253 21.6924 17.5775 21.4961 17.7905C21.2474 18.0603 20.9169 18.23 20.6797 18.3618L19.2529 19.1547C18.7532 19.4324 18.1233 19.2521 17.8457 18.7524C17.5682 18.2528 17.7475 17.6228 18.2471 17.3452L19.6748 16.5522C19.8254 16.4685 19.9052 16.423 19.9609 16.3881C19.9643 16.3226 19.9648 16.2307 19.9648 16.059ZM10.9648 14.5005V12.6089L9.24707 11.6547C8.74757 11.3771 8.56815 10.7471 8.8457 10.2475C9.12333 9.74792 9.75328 9.5676 10.2529 9.84518L12 10.8149L13.7471 9.84518C14.2467 9.5676 14.8767 9.74792 15.1543 10.2475C15.4319 10.7471 15.2524 11.3771 14.7529 11.6547L13.0352 12.6089V14.5005C13.0349 15.0719 12.5715 15.5346 12 15.5346C11.4285 15.5346 10.9651 15.0719 10.9648 14.5005ZM1.96484 9.50045V7.72116C1.96601 7.57648 1.97453 7.41744 1.99902 7.25534C1.93595 7.00822 1.96207 6.73806 2.0957 6.49752C2.23857 6.24043 2.47456 6.0685 2.73828 5.99948C2.938 5.84569 3.15206 5.73162 3.32031 5.63815L4.74707 4.84518C5.24672 4.5676 5.87667 4.74792 6.1543 5.24752C6.43185 5.74712 6.25243 6.37708 5.75293 6.65475L5.13086 6.99948L5.75293 7.34518C6.25247 7.62283 6.43185 8.25279 6.1543 8.75241C5.8767 9.25209 5.24675 9.43235 4.74707 9.15475L4.03516 8.75924V9.50045C4.03494 10.0719 3.57148 10.5346 3 10.5346C2.42852 10.5346 1.96506 10.0719 1.96484 9.50045ZM19.9648 9.50045V8.75924L19.2529 9.15475C18.7532 9.43235 18.1233 9.25209 17.8457 8.75241C17.5682 8.25279 17.7475 7.62282 18.2471 7.34518L18.8682 6.99948L18.2471 6.65475C17.7476 6.37708 17.5681 5.74712 17.8457 5.24752C18.1233 4.74792 18.7533 4.5676 19.2529 4.84518L20.6797 5.63815C20.848 5.73163 21.062 5.84569 21.2617 5.99948C21.5254 6.0685 21.7614 6.24043 21.9043 6.49752C22.0379 6.73806 22.064 7.00822 22.001 7.25534C22.0255 7.41744 22.034 7.57648 22.0352 7.72116V9.50045C22.0349 10.0719 21.5715 10.5346 21 10.5346C20.4285 10.5346 19.9651 10.0719 19.9648 9.50045ZM12.2061 1.11959L12.4102 1.15084L12.5361 1.18209C12.8264 1.26553 13.0824 1.41743 13.2793 1.52682L14.7529 2.34518C15.2525 2.62282 15.4318 3.25279 15.1543 3.75241C14.8767 4.25209 14.2468 4.43235 13.7471 4.15475L12.2744 3.33639C12.1317 3.25709 12.0556 3.21536 12 3.18795C11.9444 3.21536 11.8683 3.25709 11.7256 3.33639L10.2529 4.15475C9.75325 4.43235 9.1233 4.25209 8.8457 3.75241C8.56815 3.25279 8.74753 2.62282 9.24707 2.34518L10.7207 1.52682C10.9456 1.40185 11.2477 1.22126 11.5898 1.15084C11.7928 1.1091 12.0007 1.09869 12.2061 1.11959Z"/></svg>