<svg xmlns="http://www.w3.org/2000/svg" width="24" height="24" fill="none" viewBox="0 0 24 24"><path fill="currentColor" d="M12.2061 1.11959L12.4102 1.15084L12.5361 1.18209C12.8264 1.26553 13.0824 1.41743 13.2793 1.52682L20.6797 5.63815C20.8872 5.75346 21.1663 5.89775 21.3994 6.11276L21.4961 6.20944L21.6348 6.37643C21.7207 6.49233 21.794 6.61709 21.8535 6.7485L21.9326 6.94967L21.9697 7.08151C22.0232 7.30178 22.0336 7.52502 22.0352 7.72116V16.2788C22.0333 16.5142 22.019 16.7888 21.9326 17.0503C21.8417 17.3253 21.6924 17.5775 21.4961 17.7905C21.2474 18.0603 20.9169 18.23 20.6797 18.3618L13.2793 22.4731C13.0544 22.5981 12.7523 22.7787 12.4102 22.8491C12.1397 22.9047 11.8603 22.9047 11.5898 22.8491C11.2477 22.7787 10.9456 22.5981 10.7207 22.4731L3.32031 18.3618C3.08308 18.23 2.75262 18.0603 2.50391 17.7905C2.30759 17.5775 2.15827 17.3253 2.06738 17.0503C1.98098 16.7888 1.96674 16.5142 1.96484 16.2788V7.72116C1.96675 7.48582 1.98101 7.2111 2.06738 6.94967L2.14648 6.7485C2.23583 6.55134 2.35659 6.36929 2.50391 6.20944L2.60059 6.11276C2.83375 5.89775 3.11276 5.75345 3.32031 5.63815L10.7207 1.52682C10.9456 1.40185 11.2477 1.22126 11.5898 1.15084C11.7928 1.1091 12.0007 1.09869 12.2061 1.11959ZM5.13086 16.9995L10.9648 20.2407V13.7583L5.13086 16.9995ZM13.0352 20.2407L18.8682 16.9995L13.0352 13.7583V20.2407ZM4.03516 15.2407L9.86816 11.9995L4.03516 8.75827V15.2407ZM14.1309 11.9995L19.9648 15.2407V8.75827L14.1309 11.9995ZM5.13086 6.99948L10.9648 10.2397V3.75827L5.13086 6.99948ZM13.0352 10.2397L18.8682 6.99948L13.0352 3.75827V10.2397Z"/></svg>