<svg xmlns="http://www.w3.org/2000/svg" width="24" height="24" fill="none" viewBox="0 0 24 24"><g clip-path="url(#a)"><path fill="currentColor" d="M20.9648 12C20.9648 7.04877 16.9512 3.03516 12 3.03516C7.04877 3.03516 3.03516 7.04877 3.03516 12C3.03516 16.9512 7.04877 20.9648 12 20.9648C16.9512 20.9648 20.9648 16.9512 20.9648 12ZM10.9648 18V16.0352H8.5C7.92839 16.0352 7.46484 15.5716 7.46484 15C7.46484 14.4284 7.92839 13.9648 8.5 13.9648H10.9648V13.0352H8C7.42839 13.0352 6.96484 12.5716 6.96484 12C6.96484 11.4284 7.42839 10.9648 8 10.9648H9.8457L7.19141 7.64648C6.83454 7.20014 6.90724 6.54843 7.35352 6.19141C7.79986 5.83454 8.45157 5.90724 8.80859 6.35352L12 10.3428L15.1914 6.35352C15.5484 5.90724 16.2001 5.83454 16.6465 6.19141C17.0928 6.54843 17.1655 7.20014 16.8086 7.64648L14.1543 10.9648H16C16.5716 10.9648 17.0352 11.4284 17.0352 12C17.0352 12.5716 16.5716 13.0352 16 13.0352H13.0352V13.9648H15.5C16.0716 13.9648 16.5352 14.4284 16.5352 15C16.5352 15.5716 16.0716 16.0352 15.5 16.0352H13.0352V18C13.0352 18.5716 12.5716 19.0352 12 19.0352C11.4284 19.0352 10.9648 18.5716 10.9648 18ZM23.0352 12C23.0352 18.0945 18.0945 23.0352 12 23.0352C5.90554 23.0352 0.964844 18.0945 0.964844 12C0.964844 5.90554 5.90554 0.964844 12 0.964844C18.0945 0.964844 23.0352 5.90554 23.0352 12Z"/></g><defs><clipPath id="a"><path fill="#fff" d="M0 0H24V24H0z"/></clipPath></defs></svg>