<svg xmlns="http://www.w3.org/2000/svg" width="24" height="24" fill="none" viewBox="0 0 24 24"><g clip-path="url(#a)"><path fill="currentColor" d="M20.9648 12C20.9648 7.04877 16.9512 3.03516 12 3.03516C7.04877 3.03516 3.03516 7.04877 3.03516 12C3.03516 16.9512 7.04877 20.9648 12 20.9648C16.9512 20.9648 20.9648 16.9512 20.9648 12ZM17.0713 14.5576C17.5916 14.3211 18.2057 14.5511 18.4424 15.0713C18.6789 15.5916 18.4489 16.2057 17.9287 16.4424L12.4287 18.9424C12.1567 19.066 11.8443 19.0659 11.5723 18.9424L6.07129 16.4424C5.55112 16.2058 5.32113 15.5916 5.55762 15.0713C5.79425 14.5511 6.40843 14.3211 6.92871 14.5576L12 16.8623L17.0713 14.5576ZM12 3.96484C12.3043 3.96485 12.5934 4.09887 12.79 4.33105L18.29 10.8311C18.4994 11.0785 18.5807 11.4102 18.5098 11.7266C18.4387 12.0429 18.2238 12.3081 17.9287 12.4424L12.4287 14.9424C12.1567 15.066 11.8443 15.0659 11.5723 14.9424L6.07129 12.4424C5.77622 12.3081 5.56128 12.0429 5.49023 11.7266C5.41926 11.4102 5.50054 11.0785 5.70996 10.8311L11.21 4.33105C11.4066 4.0988 11.6957 3.9649 12 3.96484ZM8.17383 11.123L12 12.8623L15.8252 11.123L12 6.60254L8.17383 11.123ZM23.0352 12C23.0352 18.0945 18.0945 23.0352 12 23.0352C5.90554 23.0352 0.964844 18.0945 0.964844 12C0.964844 5.90554 5.90554 0.964844 12 0.964844C18.0945 0.964844 23.0352 5.90554 23.0352 12Z"/></g><defs><clipPath id="a"><path fill="#fff" d="M0 0H24V24H0z"/></clipPath></defs></svg>