<svg xmlns="http://www.w3.org/2000/svg" width="24" height="24" fill="none" viewBox="0 0 24 24"><path fill="currentColor" d="M3.96484 12C3.96484 11.6743 3.98179 11.3525 4.01367 11.0352H3C2.42839 11.0352 1.96484 10.5716 1.96484 10C1.96484 9.42839 2.42839 8.96484 3 8.96484H4.46191C5.72991 5.18745 9.2955 2.46484 13.5 2.46484C15.8521 2.46484 18.0074 3.31822 19.6699 4.73047C20.1055 5.10055 20.1591 5.75382 19.7891 6.18945C19.419 6.62503 18.7657 6.67767 18.3301 6.30762C17.0277 5.20128 15.3429 4.53516 13.5 4.53516C10.4583 4.53516 7.84392 6.35519 6.68066 8.96484H13C13.5716 8.96484 14.0352 9.42839 14.0352 10C14.0352 10.5716 13.5716 11.0352 13 11.0352H6.09863C6.05785 11.3511 6.03516 11.673 6.03516 12C6.03516 12.327 6.05785 12.6489 6.09863 12.9648H13C13.5716 12.9648 14.0352 13.4284 14.0352 14C14.0352 14.5716 13.5716 15.0352 13 15.0352H6.68066C7.84392 17.6448 10.4583 19.4648 13.5 19.4648C15.3429 19.4648 17.0277 18.7987 18.3301 17.6924C18.7657 17.3223 19.419 17.375 19.7891 17.8105C20.1591 18.2462 20.1055 18.8995 19.6699 19.2695C18.0074 20.6818 15.8521 21.5352 13.5 21.5352C9.2955 21.5352 5.72991 18.8125 4.46191 15.0352H3C2.42839 15.0352 1.96484 14.5716 1.96484 14C1.96484 13.4284 2.42839 12.9648 3 12.9648H4.01367C3.98179 12.6475 3.96484 12.3257 3.96484 12Z"/></svg>