<svg xmlns="http://www.w3.org/2000/svg" width="24" height="24" fill="none" viewBox="0 0 24 24"><path fill="currentColor" d="M18.2676 13.9912C18.7104 13.8892 19.1678 14.0882 19.3955 14.4814C19.6231 14.8748 19.5679 15.3709 19.2588 15.7041L12.7588 22.7041C12.5629 22.915 12.2878 23.0352 12 23.0352C11.7122 23.0351 11.437 22.915 11.2412 22.7041L4.7412 15.7041C4.43206 15.371 4.37683 14.8748 4.60448 14.4814C4.83218 14.0882 5.28962 13.8892 5.73241 13.9912L12 15.4375L18.2676 13.9912ZM12.2324 17.5088C12.0795 17.544 11.9205 17.544 11.7676 17.5088L8.55272 16.7666L12 20.4785L15.4463 16.7666L12.2324 17.5088ZM12 0.964844C12.2956 0.964844 12.577 1.09154 12.7734 1.3125L20.7734 10.3125C21.0139 10.5831 21.0961 10.9598 20.9892 11.3057C20.8824 11.6515 20.6022 11.9161 20.251 12.0039L12.251 14.0039C12.0862 14.0451 11.9138 14.0451 11.749 14.0039L3.74901 12.0039C3.39781 11.9161 3.11757 11.6515 3.01073 11.3057C2.90391 10.9598 2.98605 10.5831 3.22655 10.3125L11.2265 1.3125L11.3037 1.23438C11.4932 1.06198 11.7412 0.964845 12 0.964844ZM8.26659 11L12 11.9326L15.7334 11L12 10.0664L8.26659 11ZM6.99901 9.18262L10.9648 8.19141V4.72168L6.99901 9.18262ZM13.0351 8.19141L17 9.18262L13.0351 4.72168V8.19141Z"/></svg>