<svg xmlns="http://www.w3.org/2000/svg" width="24" height="24" fill="none" viewBox="0 0 24 24"><path fill="currentColor" d="M10.7578 2.56047C12.6733 2.22421 14.9133 2.80308 16.165 3.99212C16.5794 4.38579 16.5958 5.04058 16.2021 5.45501C15.8085 5.8694 15.1537 5.88671 14.7393 5.49309C14.0395 4.8284 12.4965 4.35643 11.1162 4.59856C10.4578 4.71415 9.9213 4.97977 9.55371 5.37786C9.19911 5.76207 8.92063 6.3565 8.91895 7.29876C8.93181 8.15418 9.29621 8.75844 9.84766 9.70403C10.2716 10.4311 10.7583 11.3023 10.9502 12.4648H15C15.5716 12.4648 16.0352 12.9283 16.0352 13.4999C16.0352 14.0715 15.5716 14.5351 15 14.5351H10.9717C10.7412 16.4733 9.90119 18.0635 9.09082 19.1933C9.02333 19.2874 8.95288 19.3765 8.88574 19.4648H17.5C18.0716 19.4648 18.5352 19.9283 18.5352 20.4999C18.5351 21.0715 18.0716 21.5351 17.5 21.5351H6.5C6.05907 21.5351 5.6669 21.2554 5.52246 20.8388C5.37805 20.4223 5.5132 19.9604 5.85938 19.6874H5.8584L5.85938 19.6865C5.86272 19.6837 5.86948 19.6786 5.87891 19.6708C5.89777 19.6552 5.92817 19.6292 5.96875 19.5937C6.04994 19.5227 6.17107 19.4133 6.31836 19.2675C6.61426 18.9745 7.01216 18.5407 7.40918 17.9872C8.05309 17.0896 8.6674 15.9147 8.88281 14.5351H6.5C5.92839 14.5351 5.46484 14.0715 5.46484 13.4999C5.46484 12.9283 5.92839 12.4648 6.5 12.4648H8.83789C8.68164 11.8504 8.39505 11.3239 8.05859 10.747C7.56095 9.8937 6.86778 8.81514 6.84863 7.31829V7.30462C6.84921 5.91866 7.2734 4.7968 8.03223 3.97454C8.77893 3.16548 9.76857 2.73416 10.7578 2.56047Z"/></svg>