<svg xmlns="http://www.w3.org/2000/svg" width="24" height="24" fill="none" viewBox="0 0 24 24"><g clip-path="url(#a)"><path fill="currentColor" d="M20.9648 12C20.9648 7.04877 16.9512 3.03516 12 3.03516C7.04877 3.03516 3.03516 7.04877 3.03516 12C3.03516 16.9512 7.04877 20.9648 12 20.9648C16.9512 20.9648 20.9648 16.9512 20.9648 12ZM14.4648 9.33301C14.4647 8.61622 13.8838 8.03533 13.167 8.03516H11C10.1909 8.03516 9.53516 8.6909 9.53516 9.5C9.53516 10.3091 10.1909 10.9648 11 10.9648H13C14.9523 10.9648 16.5352 12.5477 16.5352 14.5C16.5352 16.4406 14.9713 18.0153 13.0352 18.0342V18.5C13.0352 19.0716 12.5716 19.5352 12 19.5352C11.4284 19.5352 10.9648 19.0716 10.9648 18.5V18.0352H10.833C8.97299 18.035 7.46502 16.527 7.46484 14.667C7.46484 14.0954 7.92839 13.6318 8.5 13.6318C9.07161 13.6318 9.53516 14.0954 9.53516 14.667C9.53533 15.3838 10.1162 15.9647 10.833 15.9648H13C13.8091 15.9648 14.4648 15.3091 14.4648 14.5C14.4648 13.6909 13.8091 13.0352 13 13.0352H11C9.04767 13.0352 7.46484 11.4523 7.46484 9.5C7.46484 7.5594 9.02871 5.98371 10.9648 5.96484V5.5C10.9648 4.92839 11.4284 4.46484 12 4.46484C12.5716 4.46484 13.0352 4.92839 13.0352 5.5V5.96484H13.167C15.027 5.96502 16.535 7.47299 16.5352 9.33301C16.5352 9.90462 16.0716 10.3682 15.5 10.3682C14.9284 10.3682 14.4648 9.90462 14.4648 9.33301ZM23.0352 12C23.0352 18.0945 18.0945 23.0352 12 23.0352C5.90554 23.0352 0.964844 18.0945 0.964844 12C0.964844 5.90554 5.90554 0.964844 12 0.964844C18.0945 0.964844 23.0352 5.90554 23.0352 12Z"/></g><defs><clipPath id="a"><path fill="#fff" d="M0 0H24V24H0z"/></clipPath></defs></svg>