<svg xmlns="http://www.w3.org/2000/svg" width="24" height="24" fill="none" viewBox="0 0 24 24"><path fill="currentColor" d="M16.9648 16C16.9648 14.3625 15.6375 13.0352 14 13.0352H13.0352V18.9648H14C15.6375 18.9648 16.9648 17.6375 16.9648 16ZM16.9648 8C16.9648 6.36248 15.6375 5.03516 14 5.03516H13.0352V10.9648H14C16.7808 10.9648 19.0352 13.2192 19.0352 16C19.0352 18.7808 16.7808 21.0352 14 21.0352H13.0352V22C13.0352 22.5716 12.5716 23.0352 12 23.0352C11.4284 23.0352 10.9648 22.5716 10.9648 22V21.0352H10C7.21925 21.0352 4.96484 18.7808 4.96484 16C4.96484 15.4284 5.42839 14.9648 6 14.9648C6.57161 14.9648 7.03516 15.4284 7.03516 16C7.03516 17.6375 8.36248 18.9648 10 18.9648H10.9648V13.0352H10C7.21925 13.0352 4.96484 10.7808 4.96484 8C4.96484 5.21925 7.21925 2.96484 10 2.96484H10.9648V2C10.9648 1.42839 11.4284 0.964844 12 0.964844C12.5716 0.964844 13.0352 1.42839 13.0352 2V2.96484H14C16.7808 2.96484 19.0352 5.21925 19.0352 8C19.0352 8.57161 18.5716 9.03516 18 9.03516C17.4284 9.03516 16.9648 8.57161 16.9648 8ZM7.03516 8C7.03516 9.63752 8.36248 10.9648 10 10.9648H10.9648V5.03516H10C8.36248 5.03516 7.03516 6.36248 7.03516 8Z"/></svg>