<svg xmlns="http://www.w3.org/2000/svg" width="24" height="24" fill="none" viewBox="0 0 24 24"><g clip-path="url(#a)"><path fill="currentColor" d="M20.9648 12C20.9648 7.04877 16.9512 3.03516 12 3.03516C7.04877 3.03516 3.03516 7.04877 3.03516 12C3.03516 16.9512 7.04877 20.9648 12 20.9648C16.9512 20.9648 20.9648 16.9512 20.9648 12ZM15.4648 9C15.4648 8.1909 14.8091 7.53516 14 7.53516H10.5352V10.4648H14C14.8091 10.4648 15.4648 9.8091 15.4648 9ZM23.0352 12C23.0352 18.0945 18.0945 23.0352 12 23.0352C5.90554 23.0352 0.964844 18.0945 0.964844 12C0.964844 5.90554 5.90554 0.964844 12 0.964844C18.0945 0.964844 23.0352 5.90554 23.0352 12ZM17.5352 9C17.5352 10.9523 15.9523 12.5352 14 12.5352H10.5352V13.7148H13C13.5716 13.7148 14.0352 14.1784 14.0352 14.75C14.0352 15.3216 13.5716 15.7852 13 15.7852H10.5352V17.5C10.5352 18.0716 10.0716 18.5352 9.5 18.5352C8.92839 18.5352 8.46484 18.0716 8.46484 17.5V15.7852H8C7.42839 15.7852 6.96484 15.3216 6.96484 14.75C6.96484 14.1784 7.42839 13.7148 8 13.7148H8.46484V12.5352H8C7.42839 12.5352 6.96484 12.0716 6.96484 11.5C6.96484 10.9284 7.42839 10.4648 8 10.4648H8.46484V6.5C8.46484 5.92839 8.92839 5.46484 9.5 5.46484H14C15.9523 5.46484 17.5352 7.04767 17.5352 9Z"/></g><defs><clipPath id="a"><path fill="#fff" d="M0 0H24V24H0z"/></clipPath></defs></svg>