<svg xmlns="http://www.w3.org/2000/svg" width="24" height="24" fill="none" viewBox="0 0 24 24"><path fill="currentColor" d="M17.4648 7.5C17.4648 5.86248 16.1375 4.53516 14.5 4.53516H9.53516V10.4648H14.5C16.1375 10.4648 17.4648 9.13752 17.4648 7.5ZM19.5352 7.5C19.5352 10.2808 17.2808 12.5352 14.5 12.5352H9.53516V14.4648H13.5C14.0716 14.4648 14.5352 14.9284 14.5352 15.5C14.5352 16.0716 14.0716 16.5352 13.5 16.5352H9.53516V20.5C9.53516 21.0716 9.07161 21.5352 8.5 21.5352C7.92839 21.5352 7.46484 21.0716 7.46484 20.5V16.5352H6.5C5.92839 16.5352 5.46484 16.0716 5.46484 15.5C5.46484 14.9284 5.92839 14.4648 6.5 14.4648H7.46484V12.5352H6.5C5.92839 12.5352 5.46484 12.0716 5.46484 11.5C5.46484 10.9284 5.92839 10.4648 6.5 10.4648H7.46484V3.5C7.46484 2.92839 7.92839 2.46484 8.5 2.46484H14.5C17.2808 2.46484 19.5352 4.71925 19.5352 7.5Z"/></svg>