<svg xmlns="http://www.w3.org/2000/svg" width="24" height="24" fill="none" viewBox="0 0 24 24"><g clip-path="url(#a)"><path fill="currentColor" d="M20.9648 12C20.9648 7.04877 16.9512 3.03516 12 3.03516C7.04877 3.03516 3.03516 7.04877 3.03516 12C3.03516 16.9512 7.04877 20.9648 12 20.9648C16.9512 20.9648 20.9648 16.9512 20.9648 12ZM15.5 5.46484C16.0716 5.46484 16.5352 5.92839 16.5352 6.5C16.5352 7.07161 16.0716 7.53516 15.5 7.53516H13.7197C13.9804 7.98142 14.1599 8.46731 14.2627 8.96484H15.5C16.0716 8.96484 16.5352 9.42839 16.5352 10C16.5351 10.5715 16.0716 11.0352 15.5 11.0352H14.2627C14.1108 11.7706 13.7924 12.4818 13.29 13.0752C12.7655 13.6947 12.0629 14.1557 11.2109 14.3809L14.6553 17.1992C15.0977 17.5612 15.1627 18.2129 14.8008 18.6553C14.4388 19.0977 13.7871 19.1627 13.3447 18.8008L7.84473 14.3008C7.50627 14.0238 7.37838 13.5643 7.52539 13.1523C7.67243 12.7404 8.06256 12.4649 8.5 12.4648H10L10.292 12.4512C10.9449 12.3866 11.3989 12.1047 11.71 11.7373C11.8796 11.537 12.0136 11.2978 12.1123 11.0352H8.5C7.92844 11.0352 7.46493 10.5715 7.46484 10C7.46484 9.42839 7.92839 8.96484 8.5 8.96484H12.1123C12.0136 8.70215 11.8796 8.46305 11.71 8.2627C11.3989 7.89528 10.9449 7.61343 10.292 7.54883L10 7.53516H8.5C7.92839 7.53516 7.46484 7.07161 7.46484 6.5C7.46484 5.92839 7.92839 5.46484 8.5 5.46484H15.5ZM23.0352 12C23.0352 18.0945 18.0945 23.0352 12 23.0352C5.90554 23.0352 0.964844 18.0945 0.964844 12C0.964844 5.90554 5.90554 0.964844 12 0.964844C18.0945 0.964844 23.0352 5.90554 23.0352 12Z"/></g><defs><clipPath id="a"><path fill="#fff" d="M0 0H24V24H0z"/></clipPath></defs></svg>