<svg xmlns="http://www.w3.org/2000/svg" width="24" height="24" fill="none" viewBox="0 0 24 24"><g clip-path="url(#a)"><path fill="currentColor" d="M20.9648 12C20.9648 7.04877 16.9512 3.03516 12 3.03516C7.04877 3.03516 3.03516 7.04877 3.03516 12C3.03516 16.9512 7.04877 20.9648 12 20.9648C16.9512 20.9648 20.9648 16.9512 20.9648 12ZM5.96484 12C5.96484 11.8432 5.97263 11.688 5.98438 11.5342C5.41997 11.5258 4.96484 11.0664 4.96484 10.5C4.96484 9.92839 5.42839 9.46484 6 9.46484H6.52344C7.4815 7.39867 9.57269 5.96484 12 5.96484C13.545 5.96484 14.9564 6.54699 16.0234 7.50195C16.4494 7.88317 16.4857 8.53794 16.1045 8.96387C15.7233 9.38951 15.0694 9.42503 14.6436 9.04395C13.9414 8.41549 13.0162 8.03516 12 8.03516C10.7743 8.03516 9.67848 8.59112 8.95117 9.46484H11C11.5716 9.46484 12.0352 9.92839 12.0352 10.5C12.0352 11.0716 11.5716 11.5352 11 11.5352H8.06348C8.04566 11.6877 8.03516 11.8427 8.03516 12C8.03516 12.1573 8.04566 12.3123 8.06348 12.4648H11C11.5716 12.4648 12.0352 12.9284 12.0352 13.5C12.0352 14.0716 11.5716 14.5352 11 14.5352H8.95117C9.67848 15.4089 10.7743 15.9648 12 15.9648C13.0162 15.9648 13.9414 15.5845 14.6436 14.9561C15.0694 14.575 15.7233 14.6105 16.1045 15.0361C16.4857 15.4621 16.4494 16.1168 16.0234 16.498C14.9564 17.453 13.545 18.0352 12 18.0352C9.57269 18.0352 7.4815 16.6013 6.52344 14.5352H6C5.42839 14.5352 4.96484 14.0716 4.96484 13.5C4.96484 12.9336 5.41996 12.4732 5.98438 12.4648C5.97268 12.3114 5.96484 12.1565 5.96484 12ZM23.0352 12C23.0352 18.0945 18.0945 23.0352 12 23.0352C5.90554 23.0352 0.964844 18.0945 0.964844 12C0.964844 5.90554 5.90554 0.964844 12 0.964844C18.0945 0.964844 23.0352 5.90554 23.0352 12Z"/></g><defs><clipPath id="a"><path fill="#fff" d="M0 0H24V24H0z"/></clipPath></defs></svg>