<svg xmlns="http://www.w3.org/2000/svg" width="24" height="24" fill="none" viewBox="0 0 24 24"><path fill="currentColor" d="M17.9648 16C17.9648 14.3625 16.6375 13.0352 15 13.0352H8.53516V18.9648H15C16.6375 18.9648 17.9648 17.6375 17.9648 16ZM16.9648 8C16.9648 6.36248 15.6375 5.03516 14 5.03516H8.53516V10.9648H14C15.6375 10.9648 16.9648 9.63752 16.9648 8ZM19.0352 8C19.0352 9.42442 18.442 10.7091 17.4912 11.625C19.0103 12.4919 20.0352 14.1258 20.0352 16C20.0352 18.7808 17.7808 21.0352 15 21.0352H14.5352V22C14.5352 22.5716 14.0716 23.0352 13.5 23.0352C12.9284 23.0352 12.4648 22.5716 12.4648 22V21.0352H10.5352V22C10.5352 22.5716 10.0716 23.0352 9.5 23.0352C8.92839 23.0352 8.46484 22.5716 8.46484 22V21.0352H5.5C4.92839 21.0352 4.46484 20.5716 4.46484 20C4.46484 19.4284 4.92839 18.9648 5.5 18.9648H6.46484V5.03516H5.5C4.92839 5.03516 4.46484 4.57161 4.46484 4C4.46484 3.42839 4.92839 2.96484 5.5 2.96484H8.46484V2C8.46484 1.42839 8.92839 0.964844 9.5 0.964844C10.0716 0.964844 10.5352 1.42839 10.5352 2V2.96484H12.4648V2C12.4648 1.42839 12.9284 0.964844 13.5 0.964844C14.0716 0.964844 14.5352 1.42839 14.5352 2V2.99316C17.0643 3.26037 19.0352 5.40002 19.0352 8Z"/></svg>