<svg xmlns="http://www.w3.org/2000/svg" width="24" height="24" fill="none" viewBox="0 0 24 24"><path fill="currentColor" d="M18 1.96484C18.5716 1.96484 19.0352 2.42839 19.0352 3C19.0352 3.57161 18.5716 4.03516 18 4.03516H13.6582C14.3595 4.88589 14.7852 5.91002 14.9521 6.96484H18C18.5716 6.96484 19.0352 7.42839 19.0352 8C19.0352 8.57161 18.5716 9.03516 18 9.03516H14.9521C14.7747 10.1566 14.3061 11.2446 13.5234 12.125C12.484 13.2942 10.9475 14.0352 9 14.0352H8.60938L15.209 20.2461C15.6251 20.6378 15.6454 21.2927 15.2539 21.709C14.8622 22.1251 14.2073 22.1454 13.791 21.7539L5.29102 13.7539C4.98202 13.4631 4.88166 13.0126 5.03809 12.6182C5.19459 12.2239 5.57578 11.9648 6 11.9648H9C10.3858 11.9648 11.3492 11.4557 11.9766 10.75C12.4004 10.2732 12.6941 9.67893 12.8457 9.03516H6C5.42839 9.03516 4.96484 8.57161 4.96484 8C4.96484 7.42839 5.42839 6.96484 6 6.96484H12.8457C12.6941 6.32107 12.4004 5.72681 11.9766 5.25C11.3884 4.58843 10.5049 4.09955 9.25488 4.04102L9 4.03516H6C5.42839 4.03516 4.96484 3.57161 4.96484 3C4.96484 2.42839 5.42839 1.96484 6 1.96484H18Z"/></svg>