<svg xmlns="http://www.w3.org/2000/svg" width="24" height="24" fill="none" viewBox="0 0 24 24"><g clip-path="url(#a)"><path fill="currentColor" d="M20.9648 12C20.9648 7.04877 16.9512 3.03516 12 3.03516C7.04877 3.03516 3.03516 7.04877 3.03516 12C3.03516 16.9512 7.04877 20.9648 12 20.9648C16.9512 20.9648 20.9648 16.9512 20.9648 12ZM15.4648 14.25C15.4648 13.579 14.921 13.0352 14.25 13.0352H10.5352V15.4648H14.25C14.921 15.4648 15.4648 14.921 15.4648 14.25ZM14.9648 9.75C14.9648 9.07897 14.421 8.53516 13.75 8.53516H10.5352V10.9648H13.75C14.421 10.9648 14.9648 10.421 14.9648 9.75ZM23.0352 12C23.0352 18.0945 18.0945 23.0352 12 23.0352C5.90554 23.0352 0.964844 18.0945 0.964844 12C0.964844 5.90554 5.90554 0.964844 12 0.964844C18.0945 0.964844 23.0352 5.90554 23.0352 12ZM17.0352 9.75C17.0352 10.497 16.7852 11.1855 16.3652 11.7373C17.0803 12.3399 17.5352 13.2417 17.5352 14.25C17.5352 16.0643 16.0643 17.5352 14.25 17.5352H14.0352V18C14.0352 18.5716 13.5716 19.0352 13 19.0352C12.4284 19.0352 11.9648 18.5716 11.9648 18V17.5352H11.0352V18C11.0352 18.5716 10.5716 19.0352 10 19.0352C9.42839 19.0352 8.96484 18.5716 8.96484 18V17.5352H8C7.42839 17.5352 6.96484 17.0716 6.96484 16.5C6.96484 15.9284 7.42839 15.4648 8 15.4648H8.46484V8.53516H8C7.42839 8.53516 6.96484 8.07161 6.96484 7.5C6.96484 6.92839 7.42839 6.46484 8 6.46484H8.96484V6C8.96484 5.42839 9.42839 4.96484 10 4.96484C10.5716 4.96484 11.0352 5.42839 11.0352 6V6.46484H11.9648V6C11.9648 5.42839 12.4284 4.96484 13 4.96484C13.5716 4.96484 14.0352 5.42839 14.0352 6V6.47852C15.7158 6.62309 17.0352 8.03185 17.0352 9.75Z"/></g><defs><clipPath id="a"><path fill="#fff" d="M0 0H24V24H0z"/></clipPath></defs></svg>