<svg xmlns="http://www.w3.org/2000/svg" width="24" height="24" fill="none" viewBox="0 0 24 24"><path fill="currentColor" d="M10.965 20.4998V16.535H7.00012C6.42851 16.535 5.96496 16.0714 5.96496 15.4998C5.96496 14.9282 6.42851 14.4647 7.00012 14.4647H10.965V12.535H6.00012C5.42851 12.535 4.96496 12.0714 4.96496 11.4998C4.96496 10.9282 5.42851 10.4647 6.00012 10.4647H9.82532L4.69641 4.15216C4.33632 3.70853 4.40427 3.05645 4.84778 2.6961C5.29141 2.33602 5.94349 2.40396 6.30383 2.84747L11.9991 9.85821L17.6964 2.84747C18.0568 2.40398 18.7088 2.33602 19.1525 2.6961C19.596 3.05645 19.6639 3.70853 19.3038 4.15216L14.1739 10.4647H18.0001C18.5717 10.4647 19.0353 10.9282 19.0353 11.4998C19.0353 12.0714 18.5717 12.5349 18.0001 12.535H13.0353V14.4647H17.0001C17.5717 14.4647 18.0353 14.9282 18.0353 15.4998C18.0353 16.0714 17.5717 16.5349 17.0001 16.535H13.0353V20.4998C13.0353 21.0714 12.5717 21.5349 12.0001 21.535C11.4285 21.535 10.965 21.0714 10.965 20.4998Z"/></svg>