<svg xmlns="http://www.w3.org/2000/svg" width="24" height="24" fill="none" viewBox="0 0 24 24"><g clip-path="url(#a)"><path fill="currentColor" d="M20.9648 12C20.9648 7.04877 16.9512 3.03516 12 3.03516C7.04877 3.03516 3.03516 7.04877 3.03516 12C3.03516 16.9512 7.04877 20.9648 12 20.9648C16.9512 20.9648 20.9648 16.9512 20.9648 12ZM11.6924 5.53223C13.026 5.29825 14.5976 5.69204 15.5049 6.55371C15.9193 6.94735 15.9365 7.60215 15.543 8.0166C15.1494 8.43095 14.4945 8.44807 14.0801 8.05469C13.7246 7.71706 12.8486 7.43106 12.0498 7.57129C11.6821 7.63586 11.4151 7.77773 11.2441 7.96289C11.0862 8.13402 10.9325 8.42488 10.9307 8.9541C10.9379 9.43626 11.0946 9.74735 11.3652 10.248C11.5374 10.5666 11.7549 10.9617 11.8945 11.4648H14C14.5716 11.4648 15.0352 11.9284 15.0352 12.5C15.0352 13.0716 14.5716 13.5352 14 13.5352H11.9561C11.784 14.6879 11.3549 15.701 10.9404 16.4648H15C15.5716 16.4648 16.0352 16.9284 16.0352 17.5C16.0351 18.0716 15.5716 18.5352 15 18.5352H9C8.59267 18.5352 8.22277 18.2963 8.05566 17.9248C7.88896 17.5542 7.95498 17.1201 8.22363 16.8154L8.22461 16.8145C8.22615 16.8127 8.22943 16.8085 8.23438 16.8027C8.24444 16.7909 8.26171 16.7707 8.28418 16.7432C8.32917 16.688 8.39682 16.6024 8.47949 16.4902C8.64569 16.2648 8.86986 15.9354 9.09375 15.5293C9.40686 14.9613 9.69815 14.2755 9.85156 13.5352H9C8.42839 13.5352 7.96484 13.0716 7.96484 12.5C7.96484 11.9284 8.42839 11.4648 9 11.4648H9.66602C9.62834 11.392 9.58924 11.3144 9.54492 11.2324C9.26916 10.7223 8.87369 10.0148 8.86035 8.97559V8.96191C8.86076 7.98763 9.16062 7.16874 9.72266 6.55957C10.2727 5.96356 10.9939 5.65485 11.6924 5.53223ZM23.0352 12C23.0352 18.0945 18.0945 23.0352 12 23.0352C5.90554 23.0352 0.964844 18.0945 0.964844 12C0.964844 5.90554 5.90554 0.964844 12 0.964844C18.0945 0.964844 23.0352 5.90554 23.0352 12Z"/></g><defs><clipPath id="a"><path fill="#fff" d="M0 0H24V24H0z"/></clipPath></defs></svg>