<svg xmlns="http://www.w3.org/2000/svg" width="24" height="24" fill="none" viewBox="0 0 24 24"><g clip-path="url(#a)"><path fill="currentColor" d="M4.96484 20C4.96484 19.467 4.53295 19.0352 4 19.0352C3.46705 19.0352 3.03516 19.467 3.03516 20C3.03516 20.533 3.46705 20.9648 4 20.9648C4.53295 20.9648 4.96484 20.533 4.96484 20ZM12.9648 20C12.9648 19.467 12.533 19.0352 12 19.0352C11.467 19.0352 11.0352 19.467 11.0352 20C11.0352 20.533 11.467 20.9648 12 20.9648C12.533 20.9648 12.9648 20.533 12.9648 20ZM20.9648 20C20.9648 19.467 20.533 19.0352 20 19.0352C19.467 19.0352 19.0352 19.467 19.0352 20C19.0352 20.533 19.467 20.9648 20 20.9648C20.533 20.9648 20.9648 20.533 20.9648 20ZM19.9648 5C19.9648 4.52018 19.9643 4.21202 19.9482 3.97656C19.9328 3.75065 19.9068 3.66757 19.8916 3.63086C19.7937 3.39441 19.6056 3.20634 19.3691 3.1084C19.3324 3.09321 19.2493 3.06717 19.0234 3.05176C18.788 3.03572 18.4798 3.03516 18 3.03516H6C5.52018 3.03516 5.21202 3.03572 4.97656 3.05176C4.75065 3.06717 4.66757 3.09321 4.63086 3.1084C4.39441 3.20634 4.20634 3.39441 4.1084 3.63086C4.09321 3.66757 4.06717 3.75065 4.05176 3.97656C4.03572 4.21202 4.03516 4.52018 4.03516 5C4.03516 5.47983 4.03572 5.78798 4.05176 6.02344C4.06717 6.24935 4.09321 6.33243 4.1084 6.36914C4.20634 6.60559 4.39441 6.79366 4.63086 6.8916C4.66757 6.90679 4.75065 6.93283 4.97656 6.94824C5.21202 6.96428 5.52018 6.96484 6 6.96484H18C18.4798 6.96484 18.788 6.96428 19.0234 6.94824C19.2493 6.93283 19.3324 6.90679 19.3691 6.8916C19.6056 6.79366 19.7937 6.60559 19.8916 6.36914C19.9068 6.33243 19.9328 6.24935 19.9482 6.02344C19.9643 5.78798 19.9648 5.47983 19.9648 5ZM22.0352 5C22.0352 5.45178 22.0357 5.84273 22.0137 6.16504C21.991 6.49651 21.9407 6.83037 21.8037 7.16113C21.4957 7.90479 20.9048 8.49568 20.1611 8.80371C19.8304 8.94069 19.4965 8.99104 19.165 9.01367C18.8427 9.03566 18.4518 9.03516 18 9.03516H13.0352V11.9648H15.2002C16.0231 11.9648 16.7027 11.9647 17.2549 12.0098C17.8191 12.0559 18.341 12.1551 18.832 12.4053C19.591 12.7921 20.2079 13.409 20.5947 14.168C20.8449 14.659 20.9441 15.1809 20.9902 15.7451C21.0228 16.1443 21.029 16.6101 21.0312 17.1484C22.1992 17.5709 23.0352 18.6863 23.0352 20C23.0352 21.6762 21.6762 23.0352 20 23.0352C18.3238 23.0352 16.9648 21.6762 16.9648 20C16.9648 18.6888 17.7975 17.5747 18.9619 17.1504C18.9597 16.6325 18.9542 16.2386 18.9277 15.9141C18.8921 15.4778 18.8277 15.2581 18.751 15.1074C18.5626 14.7379 18.2621 14.4374 17.8926 14.249C17.7419 14.1723 17.5222 14.1079 17.0859 14.0723C16.6377 14.0357 16.0571 14.0352 15.2002 14.0352H13.0352V17.1494C14.2011 17.5729 15.0352 18.6877 15.0352 20C15.0352 21.6762 13.6762 23.0352 12 23.0352C10.3238 23.0352 8.96484 21.6762 8.96484 20C8.96484 18.6877 9.7989 17.5729 10.9648 17.1494V14.0352H8.7998C7.94287 14.0352 7.36234 14.0357 6.91406 14.0723C6.47781 14.1079 6.25807 14.1723 6.10742 14.249C5.73794 14.4374 5.43737 14.7379 5.24902 15.1074C5.17227 15.2581 5.10791 15.4778 5.07227 15.9141C5.04576 16.2386 5.03936 16.6325 5.03711 17.1504C6.20198 17.5744 7.03516 18.6885 7.03516 20C7.03516 21.6762 5.67618 23.0352 4 23.0352C2.32382 23.0352 0.964844 21.6762 0.964844 20C0.964844 18.6866 1.80031 17.5711 2.96777 17.1484C2.97005 16.6101 2.97715 16.1443 3.00977 15.7451C3.05588 15.1809 3.15509 14.659 3.40527 14.168C3.79208 13.409 4.409 12.7921 5.16797 12.4053C5.65899 12.1551 6.18095 12.0559 6.74512 12.0098C7.29725 11.9647 7.97689 11.9648 8.7998 11.9648H10.9648V9.03516H6C5.54822 9.03516 5.15728 9.03566 4.83496 9.01367C4.5035 8.99104 4.16963 8.94069 3.83887 8.80371C3.09521 8.49568 2.50432 7.90479 2.19629 7.16113C2.05931 6.83037 2.00896 6.49651 1.98633 6.16504C1.96434 5.84273 1.96484 5.45178 1.96484 5C1.96484 4.54822 1.96434 4.15728 1.98633 3.83496C2.00896 3.5035 2.05931 3.16963 2.19629 2.83887C2.50432 2.09521 3.09521 1.50432 3.83887 1.19629C4.16963 1.05932 4.50349 1.00896 4.83496 0.986329C5.15728 0.964338 5.54822 0.964845 6 0.964845H18C18.4518 0.964845 18.8427 0.964338 19.165 0.986329C19.4965 1.00896 19.8304 1.05932 20.1611 1.19629C20.9048 1.50432 21.4957 2.09521 21.8037 2.83887C21.9407 3.16963 21.991 3.5035 22.0137 3.83496C22.0357 4.15728 22.0352 4.54822 22.0352 5Z"/></g><defs><clipPath id="a"><path fill="#fff" d="M0 0H24V24H0z"/></clipPath></defs></svg>