<svg xmlns="http://www.w3.org/2000/svg" width="24" height="24" fill="none" viewBox="0 0 24 24"><g clip-path="url(#a)"><path fill="currentColor" d="M4.03516 14.9648H5.96484V13.0352H4.03516V14.9648ZM11.0352 8.96484H12.9648V7.03516H11.0352V8.96484ZM3.03516 4.96484H4.96484V3.03516H3.03516V4.96484ZM23.0352 21.2002C23.0352 21.323 23.0354 21.4772 23.0244 21.6123C23.0124 21.7597 22.9821 21.9736 22.8682 22.1973C22.721 22.486 22.486 22.721 22.1973 22.8682C21.9736 22.9821 21.7597 23.0124 21.6123 23.0244C21.4772 23.0354 21.323 23.0352 21.2002 23.0352H10.7998C10.677 23.0352 10.5228 23.0354 10.3877 23.0244C10.2403 23.0124 10.0264 22.9821 9.80274 22.8682C9.514 22.721 9.27899 22.486 9.13184 22.1973C9.01786 21.9736 8.98763 21.7597 8.97559 21.6123C8.96457 21.4772 8.96484 21.323 8.96484 21.2002V18.7998C8.96484 18.677 8.96457 18.5228 8.97559 18.3877C8.98763 18.2403 9.01786 18.0264 9.13184 17.8027C9.27899 17.514 9.514 17.279 9.80274 17.1318C10.0264 17.0179 10.2403 16.9876 10.3877 16.9756C10.5228 16.9646 10.677 16.9648 10.7998 16.9648H12.9648V14.7998C12.9648 14.677 12.9646 14.5228 12.9756 14.3877C12.9876 14.2403 13.0179 14.0264 13.1318 13.8027C13.279 13.514 13.514 13.279 13.8027 13.1318C14.0264 13.0179 14.2403 12.9876 14.3877 12.9756C14.5228 12.9646 14.677 12.9648 14.7998 12.9648H16.9648V10.7998C16.9648 10.677 16.9646 10.5228 16.9756 10.3877C16.9876 10.2403 17.0179 10.0264 17.1318 9.80274C17.279 9.514 17.514 9.27899 17.8027 9.13184C18.0264 9.01786 18.2403 8.98763 18.3877 8.97559C18.5228 8.96457 18.677 8.96484 18.7998 8.96484H21.2002C21.323 8.96484 21.4772 8.96457 21.6123 8.97559C21.7229 8.98462 21.8709 9.00406 22.0322 9.06152L22.1973 9.13184L22.3027 9.19141C22.5088 9.31781 22.6822 9.4912 22.8086 9.69727L22.8682 9.80274L22.9385 9.96777C22.9959 10.1291 23.0154 10.2771 23.0244 10.3877C23.0354 10.5228 23.0352 10.677 23.0352 10.7998V21.2002ZM8.03516 15.2002C8.03516 15.323 8.03543 15.4772 8.02442 15.6123C8.01237 15.7597 7.98215 15.9736 7.86817 16.1973C7.72102 16.486 7.486 16.721 7.19727 16.8682C6.97356 16.9821 6.75969 17.0124 6.61231 17.0244C6.47716 17.0354 6.32299 17.0352 6.2002 17.0352H3.79981C3.67701 17.0352 3.52284 17.0354 3.3877 17.0244C3.24031 17.0124 3.02644 16.9821 2.80274 16.8682C2.514 16.721 2.27899 16.486 2.13184 16.1973C2.01785 15.9736 1.98763 15.7597 1.97559 15.6123C1.96457 15.4772 1.96484 15.323 1.96484 15.2002V12.7998C1.96484 12.677 1.96457 12.5228 1.97559 12.3877C1.98763 12.2403 2.01785 12.0264 2.13184 11.8027C2.27899 11.514 2.514 11.279 2.80274 11.1318C3.02644 11.0179 3.24031 10.9876 3.3877 10.9756C3.52284 10.9646 3.67701 10.9648 3.79981 10.9648H6.2002C6.32299 10.9648 6.47716 10.9646 6.61231 10.9756C6.72291 10.9846 6.87089 11.0041 7.03223 11.0615L7.19727 11.1318L7.30274 11.1914C7.5088 11.3178 7.68219 11.4912 7.80859 11.6973L7.86817 11.8027L7.93848 11.9678C7.99594 12.1291 8.01538 12.2771 8.02442 12.3877C8.03543 12.5228 8.03516 12.677 8.03516 12.7998V15.2002ZM19.0352 13.2002C19.0352 13.323 19.0354 13.4772 19.0244 13.6123C19.0124 13.7597 18.9821 13.9736 18.8682 14.1973C18.721 14.486 18.486 14.721 18.1973 14.8682C17.9736 14.9821 17.7597 15.0124 17.6123 15.0244C17.4772 15.0354 17.323 15.0352 17.2002 15.0352H15.0352V17.2002C15.0352 17.323 15.0354 17.4772 15.0244 17.6123C15.0124 17.7597 14.9821 17.9736 14.8682 18.1973C14.721 18.486 14.486 18.721 14.1973 18.8682C13.9736 18.9821 13.7597 19.0124 13.6123 19.0244C13.4772 19.0354 13.323 19.0352 13.2002 19.0352H11.0352V20.9648H20.9648V11.0352H19.0352V13.2002ZM15.0352 9.2002C15.0352 9.32299 15.0354 9.47716 15.0244 9.61231C15.0124 9.75969 14.9821 9.97356 14.8682 10.1973C14.721 10.486 14.486 10.721 14.1973 10.8682C13.9736 10.9821 13.7597 11.0124 13.6123 11.0244C13.4772 11.0354 13.323 11.0352 13.2002 11.0352H10.7998C10.677 11.0352 10.5228 11.0354 10.3877 11.0244C10.2403 11.0124 10.0264 10.9821 9.80274 10.8682C9.514 10.721 9.27899 10.486 9.13184 10.1973C9.01785 9.97356 8.98763 9.75969 8.97559 9.61231C8.96457 9.47716 8.96484 9.32299 8.96484 9.2002V6.79981C8.96484 6.67701 8.96457 6.52284 8.97559 6.3877C8.98763 6.24031 9.01785 6.02644 9.13184 5.80274C9.27899 5.514 9.514 5.27899 9.80274 5.13184C10.0264 5.01785 10.2403 4.98763 10.3877 4.97559C10.5228 4.96457 10.677 4.96484 10.7998 4.96484H13.2002C13.323 4.96484 13.4772 4.96457 13.6123 4.97559C13.7229 4.98462 13.8709 5.00406 14.0322 5.06152L14.1973 5.13184L14.3027 5.19141C14.5088 5.31781 14.6822 5.4912 14.8086 5.69727L14.8682 5.80274L14.9385 5.96777C14.9959 6.12911 15.0154 6.27709 15.0244 6.3877C15.0354 6.52284 15.0352 6.67701 15.0352 6.79981V9.2002ZM7.03516 5.2002C7.03516 5.32299 7.03543 5.47716 7.02442 5.61231C7.01237 5.75969 6.98215 5.97356 6.86817 6.19727C6.72102 6.486 6.486 6.72102 6.19727 6.86817C5.97356 6.98215 5.75969 7.01237 5.61231 7.02442C5.47716 7.03543 5.32299 7.03516 5.2002 7.03516H2.79981C2.67701 7.03516 2.52284 7.03543 2.3877 7.02442C2.24031 7.01237 2.02644 6.98215 1.80274 6.86817C1.514 6.72102 1.27899 6.486 1.13184 6.19727C1.01785 5.97356 0.987628 5.75969 0.975587 5.61231C0.964568 5.47716 0.964844 5.32299 0.964844 5.2002V2.79981C0.964844 2.67701 0.964568 2.52284 0.975587 2.3877C0.987628 2.24031 1.01785 2.02644 1.13184 1.80274L1.19141 1.69727C1.33887 1.45687 1.55008 1.2606 1.80274 1.13184L1.96777 1.06152C2.12911 1.00406 2.27709 0.984623 2.3877 0.975587C2.52284 0.964568 2.67701 0.964844 2.79981 0.964844H5.2002C5.32299 0.964844 5.47716 0.964568 5.61231 0.975587C5.72291 0.984623 5.87089 1.00406 6.03223 1.06152L6.19727 1.13184L6.30274 1.19141C6.5088 1.31781 6.68219 1.4912 6.80859 1.69727L6.86817 1.80274L6.93848 1.96777C6.99594 2.12911 7.01538 2.27709 7.02442 2.3877C7.03543 2.52284 7.03516 2.67701 7.03516 2.79981V5.2002Z"/></g><defs><clipPath id="a"><path fill="#fff" d="M0 0H24V24H0z"/></clipPath></defs></svg>