<svg xmlns="http://www.w3.org/2000/svg" width="24" height="24" fill="none" viewBox="0 0 24 24"><path fill="currentColor" d="M19.9648 17.0273C19.5783 17.2213 19.1533 17.3936 18.7031 17.5439C16.9459 18.1306 14.5795 18.4746 12 18.4746C9.42055 18.4746 7.0541 18.1306 5.29688 17.5439C4.84667 17.3936 4.4217 17.2213 4.03516 17.0273V19C4.03516 18.9654 4.01274 19.0935 4.3457 19.3574C4.6687 19.6134 5.20139 19.8897 5.95312 20.1406C7.44588 20.6389 9.57961 20.9648 12 20.9648C14.4204 20.9648 16.5541 20.6389 18.0469 20.1406C18.7986 19.8897 19.3313 19.6134 19.6543 19.3574C19.9873 19.0935 19.9648 18.9654 19.9648 19V17.0273ZM19.9648 12.3076C19.5783 12.5016 19.1533 12.6739 18.7031 12.8242C16.9459 13.4109 14.5795 13.7549 12 13.7549C9.42055 13.7549 7.0541 13.4109 5.29688 12.8242C4.84667 12.6739 4.4217 12.5016 4.03516 12.3076V14.4404L4.03711 14.4443C4.0466 14.4786 4.09643 14.6003 4.3457 14.7979C4.6687 15.0538 5.20139 15.3301 5.95312 15.5811C7.44588 16.0793 9.57968 16.4053 12 16.4053C14.4203 16.4053 16.5541 16.0793 18.0469 15.5811C18.7986 15.3301 19.3313 15.0538 19.6543 14.7979C19.9036 14.6003 19.9534 14.4786 19.9629 14.4443L19.9648 14.4404V12.3076ZM19.9648 7.58203C19.5749 7.77769 19.146 7.952 18.6914 8.10352C16.9314 8.6902 14.5656 9.03516 12 9.03516C9.43443 9.03516 7.06864 8.6902 5.30859 8.10352C4.85405 7.952 4.42514 7.77769 4.03516 7.58203V9.7207L4.03711 9.72461C4.04664 9.7589 4.09654 9.88066 4.3457 10.0781C4.6687 10.3341 5.20139 10.6104 5.95312 10.8613C7.44588 11.3596 9.57969 11.6855 12 11.6855C14.4203 11.6855 16.5541 11.3596 18.0469 10.8613C18.7986 10.6104 19.3313 10.3341 19.6543 10.0781C19.9035 9.88066 19.9534 9.7589 19.9629 9.72461L19.9648 9.7207V7.58203ZM12 3.03516C9.59501 3.03516 7.46021 3.36125 5.96289 3.86035C5.209 4.11168 4.6734 4.38879 4.34766 4.64551C4.01053 4.91129 4.03516 5.03883 4.03516 5C4.03516 4.96117 4.01053 5.08871 4.34766 5.35449C4.6734 5.61121 5.209 5.88832 5.96289 6.13965C7.46021 6.63875 9.59501 6.96484 12 6.96484C14.405 6.96484 16.5398 6.63875 18.0371 6.13965C18.791 5.88832 19.3266 5.61121 19.6523 5.35449C19.9047 5.15558 19.9548 5.03424 19.9639 5.00195V4.99805C19.9548 4.96576 19.9047 4.84442 19.6523 4.64551C19.3266 4.38879 18.791 4.11168 18.0371 3.86035C16.5398 3.36125 14.405 3.03516 12 3.03516ZM22.0352 19C22.0352 19.8646 21.5124 20.5265 20.9395 20.9805C20.3563 21.4425 19.5762 21.813 18.7031 22.1045C16.9459 22.6911 14.5795 23.0352 12 23.0352C9.42055 23.0352 7.0541 22.6911 5.29688 22.1045C4.42383 21.813 3.64371 21.4425 3.06055 20.9805C2.48763 20.5265 1.96484 19.8646 1.96484 19V5L1.9707 4.83984C2.0308 4.05098 2.52892 3.44317 3.06641 3.01953C3.65145 2.55846 4.434 2.18802 5.30859 1.89648C7.06864 1.3098 9.43443 0.964844 12 0.964844C14.5656 0.964844 16.9314 1.3098 18.6914 1.89648C19.566 2.18802 20.3485 2.55846 20.9336 3.01953C21.5069 3.47141 22.0352 4.13284 22.0352 5V19Z"/></svg>