<svg xmlns="http://www.w3.org/2000/svg" width="24" height="24" fill="none" viewBox="0 0 24 24"><path fill="currentColor" d="M19.9648 20C19.9648 19.467 19.533 19.0352 19 19.0352C18.467 19.0352 18.0352 19.467 18.0352 20C18.0352 20.533 18.467 20.9648 19 20.9648C19.533 20.9648 19.9648 20.533 19.9648 20ZM19.9648 12C19.9648 11.467 19.533 11.0352 19 11.0352C18.467 11.0352 18.0352 11.467 18.0352 12C18.0352 12.533 18.467 12.9648 19 12.9648C19.533 12.9648 19.9648 12.533 19.9648 12ZM4.03516 12C4.03516 12.533 4.46705 12.9648 5 12.9648C5.53295 12.9648 5.96484 12.533 5.96484 12C5.96484 11.467 5.53295 11.0352 5 11.0352C4.46705 11.0352 4.03516 11.467 4.03516 12ZM19.9648 4C19.9648 3.46705 19.533 3.03516 19 3.03516C18.467 3.03516 18.0352 3.46705 18.0352 4C18.0352 4.53295 18.467 4.96484 19 4.96484C19.533 4.96484 19.9648 4.53295 19.9648 4ZM22.0352 4C22.0352 5.67618 20.6762 7.03516 19 7.03516C17.6885 7.03516 16.5744 6.20198 16.1504 5.03711C15.6325 5.03936 15.2386 5.04576 14.9141 5.07227C14.4778 5.10791 14.2581 5.17227 14.1074 5.24902C13.7379 5.43737 13.4374 5.73794 13.249 6.10742C13.1723 6.25807 13.1079 6.47781 13.0723 6.91406C13.0357 7.36234 13.0352 7.94287 13.0352 8.7998V10.9648H16.1494C16.5729 9.7989 17.6877 8.96484 19 8.96484C20.6762 8.96484 22.0352 10.3238 22.0352 12C22.0352 13.6762 20.6762 15.0352 19 15.0352C17.6877 15.0352 16.5729 14.2011 16.1494 13.0352H13.0352V15.2002C13.0352 16.0571 13.0357 16.6377 13.0723 17.0859C13.1079 17.5222 13.1723 17.7419 13.249 17.8926C13.4374 18.2621 13.7379 18.5626 14.1074 18.751C14.2581 18.8277 14.4778 18.8921 14.9141 18.9277C15.2386 18.9542 15.6325 18.9597 16.1504 18.9619C16.5747 17.7975 17.6888 16.9648 19 16.9648C20.6762 16.9648 22.0352 18.3238 22.0352 20C22.0352 21.6762 20.6762 23.0352 19 23.0352C17.6863 23.0352 16.5709 22.1992 16.1484 21.0312C15.6101 21.029 15.1443 21.0228 14.7451 20.9902C14.1809 20.9441 13.659 20.8449 13.168 20.5947C12.409 20.2079 11.7921 19.591 11.4053 18.832C11.1551 18.341 11.0559 17.8191 11.0098 17.2549C10.9647 16.7027 10.9648 16.0231 10.9648 15.2002V13.0352H7.85059C7.42709 14.2011 6.31227 15.0352 5 15.0352C3.32382 15.0352 1.96484 13.6762 1.96484 12C1.96484 10.3238 3.32382 8.96484 5 8.96484C6.31227 8.96484 7.42709 9.7989 7.85059 10.9648H10.9648V8.7998C10.9648 7.97689 10.9647 7.29725 11.0098 6.74512C11.0559 6.18095 11.1551 5.65899 11.4053 5.16797C11.7921 4.409 12.409 3.79208 13.168 3.40527C13.659 3.15509 14.1809 3.05588 14.7451 3.00977C15.1443 2.97715 15.6101 2.97005 16.1484 2.96777C16.5711 1.80031 17.6866 0.964844 19 0.964844C20.6762 0.964844 22.0352 2.32382 22.0352 4Z"/></svg>