<svg xmlns="http://www.w3.org/2000/svg" width="24" height="24" fill="none" viewBox="0 0 24 24"><path fill="currentColor" d="M19.9648 7.58203C19.5749 7.77769 19.146 7.952 18.6914 8.10352C16.9314 8.6902 14.5656 9.03516 12 9.03516C9.43443 9.03516 7.06864 8.6902 5.30859 8.10352C4.85405 7.952 4.42514 7.77769 4.03516 7.58203V11C4.03516 10.9654 4.01274 11.0935 4.3457 11.3574C4.6687 11.6134 5.20139 11.8897 5.95312 12.1406C7.44588 12.6389 9.57961 12.9648 12 12.9648C14.4204 12.9648 16.5541 12.6389 18.0469 12.1406C18.7986 11.8897 19.3313 11.6134 19.6543 11.3574C19.9873 11.0935 19.9648 10.9654 19.9648 11V7.58203ZM12 19.0352C11.467 19.0352 11.0352 19.467 11.0352 20C11.0352 20.533 11.467 20.9648 12 20.9648C12.533 20.9648 12.9648 20.533 12.9648 20C12.9648 19.467 12.533 19.0352 12 19.0352ZM12 3.03516C9.59501 3.03516 7.46021 3.36125 5.96289 3.86035C5.209 4.11168 4.6734 4.38879 4.34766 4.64551C4.01053 4.91129 4.03516 5.03883 4.03516 5C4.03516 4.96117 4.01053 5.08871 4.34766 5.35449C4.6734 5.61121 5.209 5.88832 5.96289 6.13965C7.46021 6.63875 9.59501 6.96484 12 6.96484C14.405 6.96484 16.5398 6.63875 18.0371 6.13965C18.791 5.88832 19.3266 5.61121 19.6523 5.35449C19.9047 5.15558 19.9548 5.03424 19.9639 5.00195V4.99805C19.9548 4.96576 19.9047 4.84442 19.6523 4.64551C19.3266 4.38879 18.791 4.11168 18.0371 3.86035C16.5398 3.36125 14.405 3.03516 12 3.03516ZM22.0352 11C22.0352 11.8646 21.5124 12.5265 20.9395 12.9805C20.3563 13.4425 19.5762 13.813 18.7031 14.1045C17.1839 14.6117 15.2091 14.9367 13.0352 15.0156V17.1494C13.8778 17.4555 14.5445 18.1222 14.8506 18.9648H21C21.5716 18.9648 22.0352 19.4284 22.0352 20C22.0352 20.5716 21.5716 21.0352 21 21.0352H14.8506C14.4271 22.2011 13.3123 23.0352 12 23.0352C10.6877 23.0352 9.57291 22.2011 9.14941 21.0352H3C2.42839 21.0352 1.96484 20.5716 1.96484 20C1.96484 19.4284 2.42839 18.9648 3 18.9648H9.14941C9.45546 18.1222 10.1222 17.4555 10.9648 17.1494V15.0156C8.79093 14.9367 6.81614 14.6117 5.29688 14.1045C4.42383 13.813 3.64371 13.4425 3.06055 12.9805C2.48763 12.5265 1.96484 11.8646 1.96484 11V5L1.9707 4.83984C2.0308 4.05098 2.52892 3.44317 3.06641 3.01953C3.65145 2.55846 4.434 2.18802 5.30859 1.89648C7.06864 1.3098 9.43443 0.964844 12 0.964844C14.5656 0.964844 16.9314 1.3098 18.6914 1.89648C19.566 2.18802 20.3485 2.55846 20.9336 3.01953C21.5069 3.47141 22.0352 4.13284 22.0352 5V11Z"/></svg>