<svg xmlns="http://www.w3.org/2000/svg" width="24" height="24" fill="none" viewBox="0 0 24 24"><path fill="currentColor" d="M19.9648 14.5879C19.5783 14.7818 19.1533 14.9542 18.7031 15.1045C16.9459 15.6911 14.5795 16.0352 12 16.0352C9.42055 16.0352 7.0541 15.6911 5.29688 15.1045C4.84669 14.9542 4.42169 14.7818 4.03516 14.5879V19C4.03516 18.9654 4.01274 19.0935 4.3457 19.3574C4.6687 19.6134 5.20139 19.8897 5.95312 20.1406C7.44588 20.6389 9.57961 20.9648 12 20.9648C14.4204 20.9648 16.5541 20.6389 18.0469 20.1406C18.7986 19.8897 19.3313 19.6134 19.6543 19.3574C19.9873 19.0935 19.9648 18.9654 19.9648 19V14.5879ZM19.9648 7.58203C19.5749 7.77769 19.146 7.952 18.6914 8.10352C16.9314 8.6902 14.5656 9.03516 12 9.03516C9.43443 9.03516 7.06864 8.6902 5.30859 8.10352C4.85405 7.952 4.42514 7.77769 4.03516 7.58203V12L4.03711 12.0039C4.04632 12.0376 4.09563 12.1592 4.3457 12.3574C4.6687 12.6134 5.20139 12.8897 5.95312 13.1406C7.44588 13.6389 9.57961 13.9648 12 13.9648C14.4204 13.9648 16.5541 13.6389 18.0469 13.1406C18.7986 12.8897 19.3313 12.6134 19.6543 12.3574C19.9873 12.0935 19.9648 11.9654 19.9648 12V7.58203ZM12 3.03516C9.59501 3.03516 7.46021 3.36125 5.96289 3.86035C5.209 4.11168 4.6734 4.38879 4.34766 4.64551C4.01053 4.91129 4.03516 5.03883 4.03516 5C4.03516 4.96117 4.01053 5.08871 4.34766 5.35449C4.6734 5.61121 5.209 5.88832 5.96289 6.13965C7.46021 6.63875 9.59501 6.96484 12 6.96484C14.405 6.96484 16.5398 6.63875 18.0371 6.13965C18.791 5.88832 19.3266 5.61121 19.6523 5.35449C19.9047 5.15558 19.9548 5.03424 19.9639 5.00195V4.99805C19.9548 4.96576 19.9047 4.84442 19.6523 4.64551C19.3266 4.38879 18.791 4.11168 18.0371 3.86035C16.5398 3.36125 14.405 3.03516 12 3.03516ZM22.0352 19C22.0352 19.8646 21.5124 20.5265 20.9395 20.9805C20.3563 21.4425 19.5762 21.813 18.7031 22.1045C16.9459 22.6911 14.5795 23.0352 12 23.0352C9.42055 23.0352 7.0541 22.6911 5.29688 22.1045C4.42383 21.813 3.64371 21.4425 3.06055 20.9805C2.48763 20.5265 1.96484 19.8646 1.96484 19V5L1.9707 4.83984C2.0308 4.05098 2.52892 3.44317 3.06641 3.01953C3.65145 2.55846 4.434 2.18802 5.30859 1.89648C7.06864 1.3098 9.43443 0.964844 12 0.964844C14.5656 0.964844 16.9314 1.3098 18.6914 1.89648C19.566 2.18802 20.3485 2.55846 20.9336 3.01953C21.5069 3.47141 22.0352 4.13284 22.0352 5V19Z"/></svg>