<svg xmlns="http://www.w3.org/2000/svg" width="24" height="24" fill="none" viewBox="0 0 24 24"><g clip-path="url(#a)"><path fill="currentColor" d="M18.0352 20.9648H20.9648V18.0352H18.0352V20.9648ZM1.46484 16.2998V15C1.46484 14.5482 1.46434 14.1573 1.48633 13.835C1.50896 13.5035 1.55932 13.1696 1.69629 12.8389C2.00432 12.0952 2.59521 11.5043 3.33887 11.1963C3.66963 11.0593 4.0035 11.009 4.33496 10.9863C4.65728 10.9643 5.04822 10.9648 5.5 10.9648C6.07162 10.9648 6.53516 11.4284 6.53516 12C6.53516 12.5716 6.07162 13.0352 5.5 13.0352C5.02018 13.0352 4.71202 13.0357 4.47656 13.0518C4.25065 13.0672 4.16757 13.0932 4.13086 13.1084C3.89441 13.2063 3.70634 13.3944 3.6084 13.6309C3.59321 13.6676 3.56717 13.7507 3.55176 13.9766C3.53572 14.212 3.53516 14.5202 3.53516 15V16.2998C3.53516 16.8769 3.53559 17.2477 3.55859 17.5293C3.58061 17.7988 3.61837 17.8948 3.64063 17.9385C3.73308 18.1197 3.88033 18.2669 4.06152 18.3594C4.10521 18.3816 4.20121 18.4194 4.4707 18.4414C4.75228 18.4644 5.12309 18.4648 5.7002 18.4648H13C13.5716 18.4648 14.0352 18.9284 14.0352 19.5C14.0352 20.0716 13.5716 20.5352 13 20.5352H5.7002C5.15722 20.5352 4.68719 20.5354 4.30176 20.5039C3.90438 20.4714 3.50608 20.3998 3.12207 20.2041C2.55108 19.9131 2.08686 19.4489 1.7959 18.8779C1.60024 18.4939 1.52859 18.0956 1.49609 17.6982C1.4646 17.3128 1.46484 16.8428 1.46484 16.2998ZM10.5352 13.4648H13.4648V10.5352H10.5352V13.4648ZM20.4648 9V7.7002C20.4648 7.12309 20.4644 6.75228 20.4414 6.4707C20.4194 6.20121 20.3816 6.10521 20.3594 6.06152C20.2669 5.88032 20.1197 5.73308 19.9385 5.64063C19.8948 5.61837 19.7988 5.58061 19.5293 5.55859C19.2477 5.53559 18.8769 5.53516 18.2998 5.53516H11C10.4284 5.53516 9.96484 5.07162 9.96484 4.5C9.96484 3.92839 10.4284 3.46484 11 3.46484H18.2998C18.8428 3.46484 19.3128 3.4646 19.6982 3.49609C20.0956 3.52859 20.4939 3.60024 20.8779 3.7959C21.4489 4.08686 21.9131 4.55108 22.2041 5.12207C22.3998 5.50608 22.4714 5.90438 22.5039 6.30176C22.5354 6.68719 22.5352 7.15722 22.5352 7.7002V9C22.5352 9.45178 22.5357 9.84273 22.5137 10.165C22.491 10.4965 22.4407 10.8304 22.3037 11.1611C21.9957 11.9048 21.4048 12.4957 20.6611 12.8037C20.3304 12.9407 19.9965 12.991 19.665 13.0137C19.3427 13.0357 18.9518 13.0352 18.5 13.0352C17.9284 13.0352 17.4648 12.5716 17.4648 12C17.4648 11.4284 17.9284 10.9648 18.5 10.9648C18.9798 10.9648 19.288 10.9643 19.5234 10.9482C19.7493 10.9328 19.8324 10.9068 19.8691 10.8916C20.1056 10.7937 20.2937 10.6056 20.3916 10.3691C20.4068 10.3324 20.4328 10.2494 20.4482 10.0234C20.4643 9.78798 20.4648 9.47982 20.4648 9ZM3.03516 5.96484H5.96484V3.03516H3.03516V5.96484ZM23.0352 21.2002C23.0352 21.323 23.0354 21.4772 23.0244 21.6123C23.0124 21.7597 22.9821 21.9736 22.8682 22.1973C22.721 22.486 22.486 22.721 22.1973 22.8682C21.9736 22.9821 21.7597 23.0124 21.6123 23.0244C21.4772 23.0354 21.323 23.0352 21.2002 23.0352H17.7998C17.677 23.0352 17.5228 23.0354 17.3877 23.0244C17.2403 23.0124 17.0264 22.9821 16.8027 22.8682C16.514 22.721 16.279 22.486 16.1318 22.1973C16.0179 21.9736 15.9876 21.7597 15.9756 21.6123C15.9646 21.4772 15.9648 21.323 15.9648 21.2002V17.7998C15.9648 17.677 15.9646 17.5228 15.9756 17.3877C15.9876 17.2403 16.0179 17.0264 16.1318 16.8027C16.279 16.514 16.514 16.279 16.8027 16.1318C17.0264 16.0179 17.2403 15.9876 17.3877 15.9756C17.5228 15.9646 17.677 15.9648 17.7998 15.9648H21.2002C21.323 15.9648 21.4772 15.9646 21.6123 15.9756C21.7229 15.9846 21.8709 16.0041 22.0322 16.0615L22.1973 16.1318L22.3027 16.1914C22.5088 16.3178 22.6822 16.4912 22.8086 16.6973L22.8682 16.8027L22.9385 16.9678C22.9959 17.1291 23.0154 17.2771 23.0244 17.3877C23.0354 17.5228 23.0352 17.677 23.0352 17.7998V21.2002ZM15.5352 13.7002C15.5352 13.823 15.5354 13.9772 15.5244 14.1123C15.5124 14.2597 15.4821 14.4736 15.3682 14.6973C15.221 14.986 14.986 15.221 14.6973 15.3682C14.4736 15.4821 14.2597 15.5124 14.1123 15.5244C13.9772 15.5354 13.823 15.5352 13.7002 15.5352H10.2998C10.177 15.5352 10.0228 15.5354 9.8877 15.5244C9.74031 15.5124 9.52644 15.4821 9.30274 15.3682C9.014 15.221 8.77899 14.986 8.63184 14.6973C8.51785 14.4736 8.48763 14.2597 8.47559 14.1123C8.46457 13.9772 8.46484 13.823 8.46484 13.7002V10.2998C8.46484 10.177 8.46457 10.0228 8.47559 9.8877C8.48763 9.74031 8.51785 9.52644 8.63184 9.30274C8.77899 9.014 9.014 8.77899 9.30274 8.63184C9.52644 8.51785 9.74031 8.48763 9.8877 8.47559C10.0228 8.46457 10.177 8.46484 10.2998 8.46484H13.7002C13.823 8.46484 13.9772 8.46457 14.1123 8.47559C14.2229 8.48462 14.3709 8.50406 14.5322 8.56152L14.6973 8.63184L14.8027 8.69141C15.0088 8.81781 15.1822 8.9912 15.3086 9.19727L15.3682 9.30274L15.4385 9.46777C15.4959 9.62911 15.5154 9.77709 15.5244 9.8877C15.5354 10.0228 15.5352 10.177 15.5352 10.2998V13.7002ZM8.03516 6.2002C8.03516 6.32299 8.03543 6.47716 8.02442 6.61231C8.01237 6.75969 7.98215 6.97356 7.86817 7.19727C7.72102 7.486 7.486 7.72102 7.19727 7.86817C6.97356 7.98215 6.75969 8.01237 6.61231 8.02442C6.47716 8.03543 6.32299 8.03516 6.2002 8.03516H2.79981C2.67701 8.03516 2.52284 8.03543 2.3877 8.02442C2.24031 8.01237 2.02644 7.98215 1.80274 7.86817C1.514 7.72102 1.27899 7.486 1.13184 7.19727C1.01785 6.97356 0.987628 6.75969 0.975587 6.61231C0.964568 6.47716 0.964844 6.32299 0.964844 6.2002V2.79981C0.964844 2.67701 0.964568 2.52284 0.975587 2.3877C0.987628 2.24031 1.01785 2.02644 1.13184 1.80274L1.19141 1.69727C1.33887 1.45687 1.55008 1.2606 1.80274 1.13184L1.96777 1.06152C2.12911 1.00406 2.27709 0.984623 2.3877 0.975587C2.52284 0.964568 2.67701 0.964844 2.79981 0.964844H6.2002C6.32299 0.964844 6.47716 0.964568 6.61231 0.975587C6.72291 0.984623 6.87089 1.00406 7.03223 1.06152L7.19727 1.13184L7.30274 1.19141C7.5088 1.31781 7.68219 1.4912 7.80859 1.69727L7.86817 1.80274L7.93848 1.96777C7.99594 2.12911 8.01538 2.27709 8.02442 2.3877C8.03543 2.52284 8.03516 2.67701 8.03516 2.79981V6.2002Z"/></g><defs><clipPath id="a"><path fill="#fff" d="M0 0H24V24H0z"/></clipPath></defs></svg>