<svg xmlns="http://www.w3.org/2000/svg" width="24" height="24" fill="none" viewBox="0 0 24 24"><path fill="currentColor" d="M20.9649 8.79993C20.9649 7.943 20.9644 7.36247 20.9278 6.91419C20.8921 6.47794 20.8278 6.2582 20.751 6.10755C20.5627 5.73807 20.2621 5.4375 19.8926 5.24915C19.742 5.1724 19.5222 5.10804 19.086 5.0724C18.6377 5.03578 18.0572 5.03529 17.2002 5.03529H9.59966C8.95397 5.03529 8.83249 5.04472 8.7354 5.0724C8.62039 5.10524 8.51233 5.15929 8.41704 5.23158C8.33654 5.29266 8.2562 5.38417 7.86821 5.9015L3.5479 11.6613C3.41775 11.8348 3.34731 11.9296 3.30083 12.0001C3.34731 12.0707 3.41775 12.1655 3.5479 12.339L7.86821 18.0988C8.2562 18.6161 8.33654 18.7076 8.41704 18.7687C8.51233 18.841 8.62039 18.895 8.7354 18.9279C8.83249 18.9555 8.95397 18.965 9.59966 18.965H17.2002C18.0572 18.965 18.6377 18.9645 19.086 18.9279C19.5222 18.8922 19.742 18.8279 19.8926 18.7511C20.2621 18.5628 20.5627 18.2622 20.751 17.8927C20.8278 17.7421 20.8921 17.5223 20.9278 17.0861C20.9644 16.6378 20.9649 16.0573 20.9649 15.2003V8.79993ZM16.2686 8.26868C16.6728 7.86449 17.3273 7.86449 17.7315 8.26868C18.1357 8.67288 18.1357 9.32738 17.7315 9.73158L15.4629 12.0001L17.7315 14.2687C18.1357 14.6729 18.1357 15.3274 17.7315 15.7316C17.3273 16.1358 16.6728 16.1358 16.2686 15.7316L14 13.463L11.7315 15.7316C11.3273 16.1358 10.6728 16.1358 10.2686 15.7316C9.86441 15.3274 9.86441 14.6729 10.2686 14.2687L12.5372 12.0001L10.2686 9.73158C9.86441 9.32738 9.86441 8.67288 10.2686 8.26868C10.6728 7.86449 11.3273 7.86449 11.7315 8.26868L14 10.5372L16.2686 8.26868ZM23.0352 15.2003C23.0352 16.0232 23.0354 16.7029 22.9903 17.255C22.9442 17.8192 22.845 18.3411 22.5948 18.8322C22.208 19.5911 21.591 20.2081 20.8321 20.5949C20.3411 20.845 19.8191 20.9443 19.2549 20.9904C18.7028 21.0355 18.0232 21.0353 17.2002 21.0353H9.59966C9.07327 21.0353 8.60814 21.044 8.16704 20.9181C7.80518 20.8148 7.46487 20.6456 7.16508 20.4181C6.79955 20.1407 6.52792 19.7622 6.21196 19.341L1.89165 13.5812C1.68872 13.3106 1.39605 12.9499 1.28227 12.5177C1.19302 12.1784 1.19302 11.8219 1.28227 11.4826L1.33305 11.3234C1.46817 10.9613 1.71412 10.6558 1.89165 10.4191L6.21196 4.65931C6.52792 4.23803 6.79955 3.85957 7.16508 3.58216C7.46487 3.35468 7.80518 3.18551 8.16704 3.08216C8.60814 2.95626 9.07327 2.96497 9.59966 2.96497H17.2002C18.0232 2.96497 18.7028 2.96478 19.2549 3.0099C19.8191 3.05601 20.3411 3.15522 20.8321 3.4054C21.591 3.79221 22.208 4.40913 22.5948 5.1681C22.845 5.65912 22.9442 6.18108 22.9903 6.74525C23.0354 7.29738 23.0352 7.97702 23.0352 8.79993V15.2003Z"/></svg>