<svg xmlns="http://www.w3.org/2000/svg" width="24" height="24" fill="none" viewBox="0 0 24 24"><path fill="currentColor" d="M16.625 1.96478C16.6865 1.96478 16.8317 1.95989 16.9961 1.98334L17.1641 2.01752L17.292 2.05853C17.4184 2.1047 17.5381 2.16741 17.6485 2.24506C17.8402 2.38002 17.9817 2.56186 18.0342 2.62494L22.3682 7.82514C22.4342 7.90438 22.5206 8.00735 22.5899 8.10443C22.6475 8.18519 22.717 8.29413 22.7735 8.43158L22.8252 8.57904L22.8692 8.78803C22.8986 8.99893 22.884 9.21456 22.8252 9.42084C22.7656 9.62981 22.6667 9.78772 22.5899 9.89545C22.5206 9.99253 22.4342 10.0955 22.3682 10.1747L13.4092 20.9247C13.3156 21.0371 13.2034 21.1737 13.0957 21.2822C12.9815 21.3973 12.7962 21.5624 12.5264 21.6611C12.1862 21.7853 11.8128 21.7853 11.4727 21.6611C11.2028 21.5624 11.0176 21.3973 10.9033 21.2822C10.7957 21.1737 10.6835 21.0371 10.5899 20.9247L1.63089 10.1747C1.56485 10.0955 1.47849 9.99252 1.40921 9.89545C1.33234 9.78771 1.23346 9.62979 1.17385 9.42084C1.09545 9.14579 1.09545 8.85409 1.17385 8.57904L1.22561 8.43158C1.28205 8.29413 1.35158 8.18519 1.40921 8.10443C1.47849 8.00736 1.56485 7.90438 1.63089 7.82514L5.96487 2.62494C6.01738 2.56189 6.15882 2.38004 6.35061 2.24506L6.46389 2.17182C6.5801 2.10446 6.70491 2.05252 6.83499 2.01752L7.00296 1.98334C7.16736 1.95989 7.31259 1.96477 7.37405 1.96478H16.625ZM12 17.3496L14.544 10.0351H9.45608L12 17.3496ZM9.45218 16.3271L7.26467 10.0351H4.20999L9.45218 16.3271ZM14.5469 16.3251L19.7891 10.0351H16.7354L14.5469 16.3251ZM16.7451 7.96478H19.7891L16.5147 4.0351H15.4356L16.7451 7.96478ZM9.43557 7.96478H14.5635L13.2539 4.0351H10.7451L9.43557 7.96478ZM4.20999 7.96478H7.25393L8.5635 4.0351H7.4844L4.20999 7.96478Z"/></svg>