<svg xmlns="http://www.w3.org/2000/svg" width="24" height="24" fill="none" viewBox="0 0 24 24"><path fill="currentColor" d="M19 20.9648C19.5716 20.9648 20.0352 21.4283 20.0352 21.9999C20.0352 22.5716 19.5716 23.0351 19 23.0351H5C4.42854 23.0349 3.96582 22.5714 3.96582 21.9999C3.96582 21.4284 4.42854 20.965 5 20.9648H19ZM16.626 0.964779C16.6874 0.964762 16.8321 0.960038 16.9961 0.983334L17.165 1.01751L17.293 1.05853C17.4193 1.10469 17.5391 1.16743 17.6494 1.24505C17.8412 1.38007 17.9827 1.56195 18.0352 1.62494L22.3496 6.80267C22.4185 6.88531 22.5078 6.99142 22.5791 7.09173C22.6383 7.17491 22.7104 7.28769 22.7676 7.4306L22.8193 7.58392L22.8438 7.69134C22.8931 7.94365 22.8791 8.205 22.8008 8.45111C22.7325 8.66573 22.6236 8.82512 22.54 8.93255C22.4644 9.02977 22.3702 9.13223 22.2979 9.21185L13.3584 19.0449C13.2679 19.1445 13.1567 19.2677 13.0508 19.3661C12.9368 19.472 12.7568 19.6188 12.502 19.707C12.1768 19.8194 11.8232 19.8195 11.4981 19.707C11.2434 19.6188 11.0642 19.472 10.9502 19.3661C10.8442 19.2677 10.7332 19.1445 10.6426 19.0449L1.70313 9.21185C1.63076 9.13225 1.53658 9.02975 1.46094 8.93255C1.37734 8.82511 1.2685 8.66577 1.2002 8.45111C1.11072 8.16987 1.1044 7.86876 1.18164 7.58392L1.23243 7.4306C1.28958 7.28776 1.36175 7.17493 1.4209 7.09173C1.49229 6.99136 1.58249 6.88533 1.65137 6.80267L5.96582 1.62494C6.01839 1.5618 6.15986 1.37997 6.35157 1.24505L6.46485 1.17181C6.58102 1.10449 6.70591 1.0525 6.83594 1.01751L7.00391 0.983334C7.16841 0.959893 7.31367 0.964778 7.375 0.964779H16.626ZM12 15.5917L14.499 9.03509H9.50196L12 15.5917ZM9.41309 14.6152L7.28711 9.03509H4.33985L9.41309 14.6152ZM14.5879 14.6132L19.6602 9.03509H16.7139L14.5879 14.6132ZM16.7461 6.96478H19.791L16.5156 3.03509H15.4365L16.7461 6.96478ZM9.43653 6.96478H14.5645L13.2549 3.03509H10.7461L9.43653 6.96478ZM4.20996 6.96478H7.25489L8.56446 3.03509H7.48536L4.20996 6.96478Z"/></svg>