<svg xmlns="http://www.w3.org/2000/svg" width="24" height="24" fill="none" viewBox="0 0 24 24"><g clip-path="url(#a)"><path fill="currentColor" d="M20.9648 12C20.9648 7.04877 16.9512 3.03516 12 3.03516C7.04877 3.03516 3.03516 7.04877 3.03516 12C3.03516 16.9512 7.04877 20.9648 12 20.9648C16.9512 20.9648 20.9648 16.9512 20.9648 12ZM13.9648 12C13.9648 10.9148 13.0852 10.0352 12 10.0352C10.9148 10.0352 10.0352 10.9148 10.0352 12C10.0352 13.0852 10.9148 13.9648 12 13.9648C13.0852 13.9648 13.9648 13.0852 13.9648 12ZM16.0352 12C16.0352 14.2285 14.2285 16.0352 12 16.0352C9.77153 16.0352 7.96484 14.2285 7.96484 12C7.96484 9.77153 9.77153 7.96484 12 7.96484C14.2285 7.96484 16.0352 9.77153 16.0352 12ZM23.0352 12C23.0352 18.0945 18.0945 23.0352 12 23.0352C5.90554 23.0352 0.964844 18.0945 0.964844 12C0.964844 5.90554 5.90554 0.964844 12 0.964844C18.0945 0.964844 23.0352 5.90554 23.0352 12Z"/></g><defs><clipPath id="a"><path fill="#fff" d="M0 0H24V24H0z"/></clipPath></defs></svg>