<svg xmlns="http://www.w3.org/2000/svg" width="24" height="24" fill="none" viewBox="0 0 24 24"><path fill="currentColor" d="M1.96484 21V3C1.96484 2.42839 2.42839 1.96484 3 1.96484C3.57161 1.96484 4.03516 2.42839 4.03516 3V21C4.03516 21.5716 3.57161 22.0352 3 22.0352C2.42839 22.0352 1.96484 21.5716 1.96484 21ZM19.9648 21V3C19.9648 2.42839 20.4284 1.96484 21 1.96484C21.5716 1.96484 22.0352 2.42839 22.0352 3V21C22.0352 21.5716 21.5716 22.0352 21 22.0352C20.4284 22.0352 19.9648 21.5716 19.9648 21ZM13.9648 8C13.9648 7.52018 13.9643 7.21202 13.9482 6.97656C13.9328 6.75065 13.9068 6.66757 13.8916 6.63086C13.7937 6.39441 13.6056 6.20634 13.3691 6.1084C13.3324 6.09321 13.2493 6.06717 13.0234 6.05176C12.788 6.03572 12.4798 6.03516 12 6.03516C11.5202 6.03516 11.212 6.03572 10.9766 6.05176C10.7506 6.06717 10.6676 6.09321 10.6309 6.1084C10.3944 6.20634 10.2063 6.39441 10.1084 6.63086C10.0932 6.66757 10.0672 6.75065 10.0518 6.97656C10.0357 7.21202 10.0352 7.52018 10.0352 8V16C10.0352 16.4798 10.0357 16.788 10.0518 17.0234C10.0672 17.2494 10.0932 17.3324 10.1084 17.3691C10.2063 17.6056 10.3944 17.7937 10.6309 17.8916C10.6676 17.9068 10.7506 17.9328 10.9766 17.9482C11.212 17.9643 11.5202 17.9648 12 17.9648C12.4798 17.9648 12.788 17.9643 13.0234 17.9482C13.2494 17.9328 13.3324 17.9068 13.3691 17.8916C13.6056 17.7937 13.7937 17.6056 13.8916 17.3691C13.9068 17.3324 13.9328 17.2494 13.9482 17.0234C13.9643 16.788 13.9648 16.4798 13.9648 16V8ZM16.0352 16C16.0352 16.4518 16.0357 16.8427 16.0137 17.165C15.991 17.4965 15.9407 17.8304 15.8037 18.1611C15.4957 18.9048 14.9048 19.4957 14.1611 19.8037C13.8304 19.9407 13.4965 19.991 13.165 20.0137C12.8427 20.0357 12.4518 20.0352 12 20.0352C11.5482 20.0352 11.1573 20.0357 10.835 20.0137C10.5035 19.991 10.1696 19.9407 9.83887 19.8037C9.09521 19.4957 8.50432 18.9048 8.19629 18.1611C8.05931 17.8304 8.00896 17.4965 7.98633 17.165C7.96434 16.8427 7.96484 16.4518 7.96484 16V8C7.96484 7.54822 7.96434 7.15728 7.98633 6.83496C8.00896 6.50349 8.05931 6.16963 8.19629 5.83887C8.50432 5.09521 9.09521 4.50432 9.83887 4.19629C10.1696 4.05932 10.5035 4.00896 10.835 3.98633C11.1573 3.96434 11.5482 3.96484 12 3.96484C12.4518 3.96484 12.8427 3.96434 13.165 3.98633C13.4965 4.00896 13.8304 4.05932 14.1611 4.19629C14.9048 4.50432 15.4957 5.09521 15.8037 5.83887C15.9407 6.16963 15.991 6.50349 16.0137 6.83496C16.0357 7.15728 16.0352 7.54822 16.0352 8V16Z"/></svg>