<svg xmlns="http://www.w3.org/2000/svg" width="24" height="24" fill="none" viewBox="0 0 24 24"><path fill="currentColor" d="M21 19.9648C21.5716 19.9648 22.0352 20.4284 22.0352 21C22.0352 21.5716 21.5716 22.0352 21 22.0352H3C2.42839 22.0352 1.96484 21.5716 1.96484 21C1.96484 20.4284 2.42839 19.9648 3 19.9648H21ZM17.9648 12C17.9648 11.5202 17.9643 11.212 17.9482 10.9766C17.9328 10.7506 17.9068 10.6676 17.8916 10.6309C17.7937 10.3944 17.6056 10.2063 17.3691 10.1084C17.3324 10.0932 17.2493 10.0672 17.0234 10.0518C16.788 10.0357 16.4798 10.0352 16 10.0352H8C7.52018 10.0352 7.21202 10.0357 6.97656 10.0518C6.75065 10.0672 6.66757 10.0932 6.63086 10.1084C6.39441 10.2063 6.20634 10.3944 6.1084 10.6309C6.09321 10.6676 6.06717 10.7506 6.05176 10.9766C6.03572 11.212 6.03516 11.5202 6.03516 12C6.03516 12.4798 6.03572 12.788 6.05176 13.0234C6.06717 13.2494 6.09321 13.3324 6.1084 13.3691C6.20634 13.6056 6.39441 13.7937 6.63086 13.8916C6.66757 13.9068 6.75065 13.9328 6.97656 13.9482C7.21202 13.9643 7.52018 13.9648 8 13.9648H16C16.4798 13.9648 16.788 13.9643 17.0234 13.9482C17.2494 13.9328 17.3324 13.9068 17.3691 13.8916C17.6056 13.7937 17.7937 13.6056 17.8916 13.3691C17.9068 13.3324 17.9328 13.2494 17.9482 13.0234C17.9643 12.788 17.9648 12.4798 17.9648 12ZM21 1.96484C21.5716 1.96484 22.0352 2.42839 22.0352 3C22.0352 3.57161 21.5716 4.03516 21 4.03516H3C2.42839 4.03516 1.96484 3.57161 1.96484 3C1.96484 2.42839 2.42839 1.96484 3 1.96484H21ZM20.0352 12C20.0352 12.4518 20.0357 12.8427 20.0137 13.165C19.991 13.4965 19.9407 13.8304 19.8037 14.1611C19.4957 14.9048 18.9048 15.4957 18.1611 15.8037C17.8304 15.9407 17.4965 15.991 17.165 16.0137C16.8427 16.0357 16.4518 16.0352 16 16.0352H8C7.54822 16.0352 7.15728 16.0357 6.83496 16.0137C6.5035 15.991 6.16963 15.9407 5.83887 15.8037C5.09521 15.4957 4.50432 14.9048 4.19629 14.1611C4.05931 13.8304 4.00896 13.4965 3.98633 13.165C3.96434 12.8427 3.96484 12.4518 3.96484 12C3.96484 11.5482 3.96434 11.1573 3.98633 10.835C4.00896 10.5035 4.05931 10.1696 4.19629 9.83887C4.50432 9.09521 5.09521 8.50432 5.83887 8.19629C6.16963 8.05931 6.50349 8.00896 6.83496 7.98633C7.15728 7.96434 7.54822 7.96484 8 7.96484H16C16.4518 7.96484 16.8427 7.96434 17.165 7.98633C17.4965 8.00896 17.8304 8.05932 18.1611 8.19629C18.9048 8.50432 19.4957 9.09521 19.8037 9.83887C19.9407 10.1696 19.991 10.5035 20.0137 10.835C20.0357 11.1573 20.0352 11.5482 20.0352 12Z"/></svg>