<svg xmlns="http://www.w3.org/2000/svg" width="24" height="24" fill="none" viewBox="0 0 24 24"><path fill="currentColor" d="M12 17.9648C11.9807 17.9648 11.9648 17.9807 11.9648 18C11.9648 18.0193 11.9807 18.0352 12 18.0352C12.0097 18.0352 12.0181 18.0307 12.0244 18.0244L12.0352 18L12.0244 17.9756C12.0181 17.9693 12.0097 17.9648 12 17.9648ZM20 10.9648C20.5716 10.9648 21.0352 11.4284 21.0352 12C21.0352 12.5716 20.5716 13.0352 20 13.0352H4C3.42839 13.0352 2.96484 12.5716 2.96484 12C2.96484 11.4284 3.42839 10.9648 4 10.9648H20ZM12 5.96484C11.9807 5.96484 11.9648 5.98067 11.9648 6C11.9648 6.01933 11.9807 6.03516 12 6.03516C12.0097 6.03516 12.0181 6.03075 12.0244 6.02441L12.0352 6L12.0244 5.97559C12.0181 5.96925 12.0097 5.96484 12 5.96484ZM14.0352 18C14.0352 19.1239 13.1239 20.0352 12 20.0352C10.8761 20.0352 9.96484 19.1239 9.96484 18C9.96484 16.8761 10.8761 15.9648 12 15.9648C13.1239 15.9648 14.0352 16.8761 14.0352 18ZM14.0352 6C14.0352 7.1239 13.1239 8.03516 12 8.03516C10.8761 8.03516 9.96484 7.1239 9.96484 6C9.96484 4.8761 10.8761 3.96484 12 3.96484L12.208 3.97559C13.2342 4.07977 14.0352 4.94633 14.0352 6Z"/></svg>