<svg xmlns="http://www.w3.org/2000/svg" width="24" height="24" fill="none" viewBox="0 0 24 24"><path fill="currentColor" d="M19.9648 21V20.2002C19.9648 19.6231 19.9644 19.2523 19.9414 18.9707C19.9194 18.7012 19.8816 18.6052 19.8594 18.5615C19.7669 18.3803 19.6197 18.2331 19.4385 18.1406C19.3948 18.1184 19.2988 18.0806 19.0293 18.0586C18.7477 18.0356 18.3769 18.0352 17.7998 18.0352H6.2002C5.62309 18.0352 5.25228 18.0356 4.9707 18.0586C4.7012 18.0806 4.60521 18.1184 4.56152 18.1406C4.38033 18.2331 4.23308 18.3803 4.14062 18.5615C4.11837 18.6052 4.08061 18.7012 4.05859 18.9707C4.03559 19.2523 4.03516 19.6231 4.03516 20.2002V21C4.03516 21.5716 3.57161 22.0352 3 22.0352C2.42839 22.0352 1.96484 21.5716 1.96484 21V20.2002C1.96484 19.6572 1.9646 19.1872 1.99609 18.8018C2.02859 18.4044 2.10024 18.0061 2.2959 17.6221C2.58686 17.0511 3.05107 16.5869 3.62207 16.2959C4.00608 16.1002 4.40438 16.0286 4.80176 15.9961C5.18718 15.9646 5.65722 15.9648 6.2002 15.9648H17.7998C18.3428 15.9648 18.8128 15.9646 19.1982 15.9961C19.5956 16.0286 19.9939 16.1002 20.3779 16.2959C20.9489 16.5869 21.4131 17.0511 21.7041 17.6221C21.8998 18.0061 21.9714 18.4044 22.0039 18.8018C22.0354 19.1872 22.0352 19.6572 22.0352 20.2002V21C22.0352 21.5716 21.5716 22.0352 21 22.0352C20.4284 22.0352 19.9648 21.5716 19.9648 21ZM3.00977 10.9648C3.58138 10.9648 4.04492 11.4284 4.04492 12C4.04492 12.5716 3.58138 13.0352 3.00977 13.0352H3C2.42839 13.0352 1.96484 12.5716 1.96484 12C1.96484 11.4284 2.42839 10.9648 3 10.9648H3.00977ZM7.50977 10.9648C8.08138 10.9648 8.54492 11.4284 8.54492 12C8.54492 12.5716 8.08138 13.0352 7.50977 13.0352H7.5C6.92839 13.0352 6.46484 12.5716 6.46484 12C6.46484 11.4284 6.92839 10.9648 7.5 10.9648H7.50977ZM12.0098 10.9648C12.5814 10.9648 13.0449 11.4284 13.0449 12C13.0449 12.5716 12.5814 13.0352 12.0098 13.0352H12C11.4284 13.0352 10.9648 12.5716 10.9648 12C10.9648 11.4284 11.4284 10.9648 12 10.9648H12.0098ZM16.5098 10.9648C17.0814 10.9648 17.5449 11.4284 17.5449 12C17.5449 12.5716 17.0814 13.0352 16.5098 13.0352H16.5C15.9284 13.0352 15.4648 12.5716 15.4648 12C15.4648 11.4284 15.9284 10.9648 16.5 10.9648H16.5098ZM21.0098 10.9648C21.5814 10.9648 22.0449 11.4284 22.0449 12C22.0449 12.5716 21.5814 13.0352 21.0098 13.0352H21C20.4284 13.0352 19.9648 12.5716 19.9648 12C19.9648 11.4284 20.4284 10.9648 21 10.9648H21.0098ZM1.96484 3.7998V3C1.96484 2.42839 2.42839 1.96484 3 1.96484C3.57161 1.96484 4.03516 2.42839 4.03516 3V3.7998C4.03516 4.37691 4.03559 4.74772 4.05859 5.0293C4.08061 5.2988 4.11837 5.39479 4.14062 5.43848C4.23308 5.61967 4.38033 5.76692 4.56152 5.85938C4.60521 5.88163 4.7012 5.91939 4.9707 5.94141C5.25228 5.96441 5.62309 5.96484 6.2002 5.96484H17.7998C18.3769 5.96484 18.7477 5.96441 19.0293 5.94141C19.2988 5.91939 19.3948 5.88163 19.4385 5.85938C19.6197 5.76692 19.7669 5.61967 19.8594 5.43848C19.8816 5.39479 19.9194 5.2988 19.9414 5.0293C19.9644 4.74772 19.9648 4.37691 19.9648 3.7998V3C19.9648 2.42839 20.4284 1.96484 21 1.96484C21.5716 1.96484 22.0352 2.42839 22.0352 3V3.7998C22.0352 4.34278 22.0354 4.81282 22.0039 5.19824C21.9714 5.59562 21.8998 5.99392 21.7041 6.37793C21.4131 6.94893 20.9489 7.41314 20.3779 7.7041C19.9939 7.89976 19.5956 7.97141 19.1982 8.00391C18.8128 8.0354 18.3428 8.03516 17.7998 8.03516H6.2002C5.65722 8.03516 5.18718 8.0354 4.80176 8.00391C4.40438 7.97141 4.00608 7.89976 3.62207 7.7041C3.05107 7.41314 2.58686 6.94893 2.2959 6.37793C2.10024 5.99392 2.02859 5.59562 1.99609 5.19824C1.9646 4.81282 1.96484 4.34278 1.96484 3.7998Z"/></svg>