<svg xmlns="http://www.w3.org/2000/svg" width="24" height="24" fill="none" viewBox="0 0 24 24"><g clip-path="url(#a)"><path fill="currentColor" d="M20.9648 12C20.9648 7.04877 16.9512 3.03516 12 3.03516C7.04877 3.03516 3.03516 7.04877 3.03516 12C3.03516 16.9512 7.04877 20.9648 12 20.9648C16.9512 20.9648 20.9648 16.9512 20.9648 12ZM12 14.4648C12.8478 14.4648 13.5352 15.1522 13.5352 16C13.5352 16.8478 12.8478 17.5352 12 17.5352C11.1522 17.5352 10.4648 16.8478 10.4648 16C10.4648 15.1522 11.1522 14.4648 12 14.4648ZM17 10.9648C17.5716 10.9648 18.0352 11.4284 18.0352 12C18.0352 12.5716 17.5716 13.0352 17 13.0352H7C6.42839 13.0352 5.96484 12.5716 5.96484 12C5.96484 11.4284 6.42839 10.9648 7 10.9648H17ZM12 6.46484C12.8478 6.46484 13.5352 7.15224 13.5352 8C13.5352 8.84776 12.8478 9.53516 12 9.53516C11.1522 9.53516 10.4648 8.84776 10.4648 8C10.4648 7.15224 11.1522 6.46484 12 6.46484ZM23.0352 12C23.0352 18.0945 18.0945 23.0352 12 23.0352C5.90554 23.0352 0.964844 18.0945 0.964844 12C0.964844 5.90554 5.90554 0.964844 12 0.964844C18.0945 0.964844 23.0352 5.90554 23.0352 12Z"/></g><defs><clipPath id="a"><path fill="#fff" d="M0 0H24V24H0z"/></clipPath></defs></svg>