<svg xmlns="http://www.w3.org/2000/svg" width="24" height="24" fill="none" viewBox="0 0 24 24"><path fill="currentColor" d="M12.9648 18C12.9648 17.467 12.533 17.0352 12 17.0352C11.467 17.0352 11.0352 17.467 11.0352 18C11.0352 18.533 11.467 18.9648 12 18.9648C12.533 18.9648 12.9648 18.533 12.9648 18ZM20 10.9648C20.5716 10.9648 21.0352 11.4284 21.0352 12C21.0352 12.5716 20.5716 13.0352 20 13.0352H4C3.42839 13.0352 2.96484 12.5716 2.96484 12C2.96484 11.4284 3.42839 10.9648 4 10.9648H20ZM12.9648 6C12.9648 5.46705 12.533 5.03516 12 5.03516C11.467 5.03516 11.0352 5.46705 11.0352 6C11.0352 6.53295 11.467 6.96484 12 6.96484C12.533 6.96484 12.9648 6.53295 12.9648 6ZM15.0352 18C15.0352 19.6762 13.6762 21.0352 12 21.0352C10.3238 21.0352 8.96484 19.6762 8.96484 18C8.96484 16.3238 10.3238 14.9648 12 14.9648C13.6762 14.9648 15.0352 16.3238 15.0352 18ZM15.0352 6C15.0352 7.67618 13.6762 9.03516 12 9.03516C10.3238 9.03516 8.96484 7.67618 8.96484 6C8.96484 4.32382 10.3238 2.96484 12 2.96484C13.6762 2.96484 15.0352 4.32382 15.0352 6Z"/></svg>