<svg xmlns="http://www.w3.org/2000/svg" width="24" height="24" fill="none" viewBox="0 0 24 24"><path fill="currentColor" d="M4.96484 19C4.96484 18.7432 4.75681 18.5352 4.5 18.5352C4.24319 18.5352 4.03516 18.7432 4.03516 19C4.03516 19.2568 4.24319 19.4648 4.5 19.4648C4.75681 19.4648 4.96484 19.2568 4.96484 19ZM21 17.9648C21.5716 17.9648 22.0352 18.4284 22.0352 19C22.0352 19.5716 21.5716 20.0352 21 20.0352H10C9.42839 20.0352 8.96484 19.5716 8.96484 19C8.96484 18.4284 9.42839 17.9648 10 17.9648H21ZM4.96484 12C4.96484 11.7432 4.75681 11.5352 4.5 11.5352C4.24319 11.5352 4.03516 11.7432 4.03516 12C4.03516 12.2568 4.24319 12.4648 4.5 12.4648C4.75681 12.4648 4.96484 12.2568 4.96484 12ZM21 10.9648C21.5716 10.9648 22.0352 11.4284 22.0352 12C22.0352 12.5716 21.5716 13.0352 21 13.0352H10C9.42839 13.0352 8.96484 12.5716 8.96484 12C8.96484 11.4284 9.42839 10.9648 10 10.9648H21ZM4.96484 5C4.96484 4.74319 4.75681 4.53516 4.5 4.53516C4.24319 4.53516 4.03516 4.74319 4.03516 5C4.03516 5.25681 4.24319 5.46484 4.5 5.46484C4.75681 5.46484 4.96484 5.25681 4.96484 5ZM21 3.96484C21.5716 3.96484 22.0352 4.42839 22.0352 5C22.0352 5.57161 21.5716 6.03516 21 6.03516H10C9.42839 6.03516 8.96484 5.57161 8.96484 5C8.96484 4.42839 9.42839 3.96484 10 3.96484H21ZM7.03516 19C7.03516 20.4 5.90004 21.5352 4.5 21.5352C3.09996 21.5352 1.96484 20.4 1.96484 19C1.96484 17.6 3.09996 16.4648 4.5 16.4648C5.90004 16.4648 7.03516 17.6 7.03516 19ZM7.03516 12C7.03516 13.4 5.90004 14.5352 4.5 14.5352C3.09996 14.5352 1.96484 13.4 1.96484 12C1.96484 10.6 3.09996 9.46484 4.5 9.46484C5.90004 9.46484 7.03516 10.6 7.03516 12ZM7.03516 5C7.03516 6.40004 5.90004 7.53516 4.5 7.53516C3.09996 7.53516 1.96484 6.40004 1.96484 5C1.96484 3.59996 3.09996 2.46484 4.5 2.46484C5.90004 2.46484 7.03516 3.59996 7.03516 5Z"/></svg>