<svg xmlns="http://www.w3.org/2000/svg" width="24" height="24" fill="none" viewBox="0 0 24 24"><path fill="currentColor" d="M12 18.9648C11.9807 18.9648 11.9648 18.9807 11.9648 19C11.9648 19.0193 11.9807 19.0352 12 19.0352C12.0097 19.0352 12.0181 19.0307 12.0244 19.0244L12.0352 19L12.0244 18.9756C12.0181 18.9693 12.0097 18.9648 12 18.9648ZM12 11.9648C11.9807 11.9648 11.9648 11.9807 11.9648 12C11.9648 12.0193 11.9807 12.0352 12 12.0352C12.0097 12.0352 12.0181 12.0307 12.0244 12.0244L12.0352 12L12.0244 11.9756C12.0181 11.9693 12.0097 11.9648 12 11.9648ZM12 4.96484C11.9807 4.96484 11.9648 4.98067 11.9648 5C11.9648 5.01933 11.9807 5.03516 12 5.03516C12.0097 5.03516 12.0181 5.03075 12.0244 5.02441L12.0352 5L12.0244 4.97559C12.0181 4.96925 12.0097 4.96484 12 4.96484ZM14.0352 19C14.0352 20.1239 13.1239 21.0352 12 21.0352C10.9463 21.0352 10.0798 20.2342 9.97559 19.208L9.96484 19L9.97559 18.792C10.0798 17.7658 10.9463 16.9648 12 16.9648C13.1239 16.9648 14.0352 17.8761 14.0352 19ZM14.0352 12C14.0352 13.1239 13.1239 14.0352 12 14.0352C10.9463 14.0352 10.0798 13.2342 9.97559 12.208L9.96484 12L9.97559 11.792C10.0798 10.7658 10.9463 9.96484 12 9.96484C13.1239 9.96484 14.0352 10.8761 14.0352 12ZM14.0352 5C14.0352 6.1239 13.1239 7.03516 12 7.03516C10.9463 7.03516 10.0798 6.23419 9.97559 5.20801L9.96484 5L9.97559 4.79199C10.0798 3.76581 10.9463 2.96484 12 2.96484L12.208 2.97559C13.2342 3.07977 14.0352 3.94633 14.0352 5Z"/></svg>