<svg xmlns="http://www.w3.org/2000/svg" width="24" height="24" fill="none" viewBox="0 0 24 24"><path fill="currentColor" d="M19 11.9648C18.9807 11.9648 18.9648 11.9807 18.9648 12C18.9648 12.0193 18.9807 12.0352 19 12.0352C19.0097 12.0352 19.0181 12.0307 19.0244 12.0244L19.0352 12L19.0244 11.9756C19.0181 11.9693 19.0097 11.9648 19 11.9648ZM12.0244 11.9756C12.0181 11.9693 12.0097 11.9648 12 11.9648C11.9807 11.9648 11.9648 11.9807 11.9648 12C11.9648 12.0193 11.9807 12.0352 12 12.0352C12.0097 12.0352 12.0181 12.0307 12.0244 12.0244L12.0352 12L12.0244 11.9756ZM5.02441 11.9756C5.01808 11.9693 5.00966 11.9648 5 11.9648C4.98067 11.9648 4.96484 11.9807 4.96484 12C4.96484 12.0193 4.98067 12.0352 5 12.0352C5.00966 12.0352 5.01808 12.0307 5.02441 12.0244L5.03516 12L5.02441 11.9756ZM7.03516 12C7.03516 13.1239 6.1239 14.0352 5 14.0352C3.94633 14.0352 3.07977 13.2342 2.97559 12.208L2.96484 12L2.97559 11.792C3.07977 10.7658 3.94633 9.96484 5 9.96484L5.20801 9.97559C6.23419 10.0798 7.03516 10.9463 7.03516 12ZM14.0352 12C14.0352 13.1239 13.1239 14.0352 12 14.0352C10.8761 14.0352 9.96484 13.1239 9.96484 12C9.96484 10.8761 10.8761 9.96484 12 9.96484L12.208 9.97559C13.2342 10.0798 14.0352 10.9463 14.0352 12ZM21.0352 12C21.0352 13.1239 20.1239 14.0352 19 14.0352C17.8761 14.0352 16.9648 13.1239 16.9648 12C16.9648 10.8761 17.8761 9.96484 19 9.96484L19.208 9.97559C20.2342 10.0798 21.0352 10.9463 21.0352 12Z"/></svg>