<svg xmlns="http://www.w3.org/2000/svg" width="24" height="24" fill="none" viewBox="0 0 24 24"><path fill="currentColor" d="M19 18.9648C18.9807 18.9648 18.9648 18.9807 18.9648 19C18.9648 19.0193 18.9807 19.0352 19 19.0352C19.0097 19.0352 19.0181 19.0307 19.0244 19.0244L19.0352 19L19.0244 18.9756C19.0181 18.9693 19.0097 18.9648 19 18.9648ZM12.0244 18.9756C12.0181 18.9693 12.0097 18.9648 12 18.9648C11.9807 18.9648 11.9648 18.9807 11.9648 19C11.9648 19.0193 11.9807 19.0352 12 19.0352C12.0097 19.0352 12.0181 19.0307 12.0244 19.0244L12.0352 19L12.0244 18.9756ZM5.02441 18.9756C5.01808 18.9693 5.00966 18.9648 5 18.9648C4.98067 18.9648 4.96484 18.9807 4.96484 19C4.96484 19.0193 4.98067 19.0352 5 19.0352C5.00966 19.0352 5.01808 19.0307 5.02441 19.0244L5.03516 19L5.02441 18.9756ZM19 11.9648C18.9807 11.9648 18.9648 11.9807 18.9648 12C18.9648 12.0193 18.9807 12.0352 19 12.0352C19.0097 12.0352 19.0181 12.0307 19.0244 12.0244L19.0352 12L19.0244 11.9756C19.0181 11.9693 19.0097 11.9648 19 11.9648ZM12.0244 11.9756C12.0181 11.9693 12.0097 11.9648 12 11.9648C11.9807 11.9648 11.9648 11.9807 11.9648 12C11.9648 12.0193 11.9807 12.0352 12 12.0352C12.0097 12.0352 12.0181 12.0307 12.0244 12.0244L12.0352 12L12.0244 11.9756ZM5.02441 11.9756C5.01808 11.9693 5.00966 11.9648 5 11.9648C4.98067 11.9648 4.96484 11.9807 4.96484 12C4.96484 12.0193 4.98067 12.0352 5 12.0352C5.00966 12.0352 5.01808 12.0307 5.02441 12.0244L5.03516 12L5.02441 11.9756ZM19 4.96484C18.9807 4.96484 18.9648 4.98067 18.9648 5C18.9648 5.01933 18.9807 5.03516 19 5.03516C19.0097 5.03516 19.0181 5.03075 19.0244 5.02441L19.0352 5L19.0244 4.97559C19.0181 4.96925 19.0097 4.96484 19 4.96484ZM12.0244 4.97559C12.0181 4.96925 12.0097 4.96484 12 4.96484C11.9807 4.96484 11.9648 4.98067 11.9648 5C11.9648 5.01933 11.9807 5.03516 12 5.03516C12.0097 5.03516 12.0181 5.03075 12.0244 5.02441L12.0352 5L12.0244 4.97559ZM5.02441 4.97559C5.01808 4.96925 5.00966 4.96484 5 4.96484C4.98067 4.96484 4.96484 4.98067 4.96484 5C4.96484 5.01933 4.98067 5.03516 5 5.03516C5.00966 5.03516 5.01808 5.03075 5.02441 5.02441L5.03516 5L5.02441 4.97559ZM7.03516 19C7.03516 20.1239 6.1239 21.0352 5 21.0352C3.94633 21.0352 3.07977 20.2342 2.97559 19.208L2.96484 19L2.97559 18.792C3.07977 17.7658 3.94633 16.9648 5 16.9648C6.1239 16.9648 7.03516 17.8761 7.03516 19ZM14.0352 19C14.0352 20.1239 13.1239 21.0352 12 21.0352C10.8761 21.0352 9.96484 20.1239 9.96484 19C9.96484 17.8761 10.8761 16.9648 12 16.9648C13.1239 16.9648 14.0352 17.8761 14.0352 19ZM21.0352 19C21.0352 20.1239 20.1239 21.0352 19 21.0352C17.8761 21.0352 16.9648 20.1239 16.9648 19C16.9648 17.8761 17.8761 16.9648 19 16.9648C20.1239 16.9648 21.0352 17.8761 21.0352 19ZM7.03516 12C7.03516 13.1239 6.1239 14.0352 5 14.0352C3.94633 14.0352 3.07977 13.2342 2.97559 12.208L2.96484 12L2.97559 11.792C3.07977 10.7658 3.94633 9.96484 5 9.96484C6.1239 9.96484 7.03516 10.8761 7.03516 12ZM14.0352 12C14.0352 13.1239 13.1239 14.0352 12 14.0352C10.8761 14.0352 9.96484 13.1239 9.96484 12C9.96484 10.8761 10.8761 9.96484 12 9.96484C13.1239 9.96484 14.0352 10.8761 14.0352 12ZM21.0352 12C21.0352 13.1239 20.1239 14.0352 19 14.0352C17.8761 14.0352 16.9648 13.1239 16.9648 12C16.9648 10.8761 17.8761 9.96484 19 9.96484C20.1239 9.96484 21.0352 10.8761 21.0352 12ZM7.03516 5C7.03516 6.1239 6.1239 7.03516 5 7.03516C3.94633 7.03516 3.07977 6.23419 2.97559 5.20801L2.96484 5L2.97559 4.79199C3.07977 3.76581 3.94633 2.96484 5 2.96484L5.20801 2.97559C6.23419 3.07977 7.03516 3.94633 7.03516 5ZM14.0352 5C14.0352 6.1239 13.1239 7.03516 12 7.03516C10.8761 7.03516 9.96484 6.1239 9.96484 5C9.96484 3.8761 10.8761 2.96484 12 2.96484L12.208 2.97559C13.2342 3.07977 14.0352 3.94633 14.0352 5ZM21.0352 5C21.0352 6.1239 20.1239 7.03516 19 7.03516C17.8761 7.03516 16.9648 6.1239 16.9648 5C16.9648 3.8761 17.8761 2.96484 19 2.96484L19.208 2.97559C20.2342 3.07977 21.0352 3.94633 21.0352 5Z"/></svg>