<svg xmlns="http://www.w3.org/2000/svg" width="24" height="24" fill="none" viewBox="0 0 24 24"><path fill="currentColor" d="M10.9648 6.79996C10.9648 5.34693 10.934 4.99945 10.6045 4.53336C10.5414 4.44409 10.3263 4.24319 9.98828 4.03824C9.65005 3.83319 9.37206 3.73456 9.26367 3.71988C8.88046 3.66797 8.69774 3.69105 8.56836 3.72476C8.4058 3.76715 8.24422 3.84581 7.86035 4.04605C4.99066 5.54303 3.03516 8.54403 3.03516 12.0002C3.03525 16.9513 7.04883 20.965 12 20.965C16.9512 20.965 20.9647 16.9513 20.9648 12.0002C20.9648 8.68314 19.1638 5.7852 16.4814 4.23355C15.9869 3.94725 15.8183 3.31418 16.1045 2.81949C16.3908 2.32486 17.0238 2.15538 17.5186 2.44156C20.8142 4.34801 23.0352 7.91438 23.0352 12.0002C23.0351 18.0945 18.0944 23.0353 12 23.0353C5.9056 23.0353 0.964942 18.0945 0.964844 12.0002C0.964844 7.74283 3.37594 4.04975 6.90234 2.21011C7.23607 2.03602 7.61342 1.83461 8.0459 1.72183C8.5115 1.60043 8.98069 1.59305 9.54199 1.6691C10.0612 1.73951 10.6239 2.00309 11.0605 2.26773C11.4973 2.53249 11.9923 2.91007 12.2949 3.33804C13.066 4.42874 13.0352 5.47206 13.0352 6.79996V13.5011L15.2686 11.2677C15.6726 10.8641 16.3274 10.8641 16.7314 11.2677C17.1356 11.6719 17.1356 12.3274 16.7314 12.7316L12.7314 16.7316C12.3273 17.1357 11.6727 17.1357 11.2686 16.7316L7.26855 12.7316C6.86436 12.3274 6.86436 11.6719 7.26855 11.2677C7.67265 10.8641 8.32735 10.8641 8.73145 11.2677L10.9648 13.5011V6.79996Z"/></svg>