<svg xmlns="http://www.w3.org/2000/svg" width="24" height="24" fill="none" viewBox="0 0 24 24"><path fill="currentColor" d="M21 19.9648C21.5716 19.9648 22.0352 20.4284 22.0352 21C22.0352 21.5716 21.5716 22.0352 21 22.0352H3C2.42839 22.0352 1.96484 21.5716 1.96484 21C1.96484 20.4284 2.42839 19.9648 3 19.9648H21ZM10.9648 3C10.9648 2.42839 11.4284 1.96484 12 1.96484C12.5716 1.96484 13.0352 2.42839 13.0352 3V14.502L17.2686 10.2686C17.6727 9.86436 18.3273 9.86436 18.7314 10.2686C19.1356 10.6727 19.1356 11.3273 18.7314 11.7314L12.7314 17.7314C12.3273 18.1356 11.6727 18.1356 11.2686 17.7314L5.26855 11.7314C4.86436 11.3273 4.86436 10.6727 5.26855 10.2686C5.67275 9.86436 6.32725 9.86436 6.73145 10.2686L10.9648 14.502V3Z"/></svg>