<svg xmlns="http://www.w3.org/2000/svg" width="24" height="24" fill="none" viewBox="0 0 24 24"><path fill="currentColor" d="M10.9648 12C10.9648 11.4284 11.4284 10.9648 12 10.9648C12.5716 10.9648 13.0352 11.4284 13.0352 12V18.502L15.2686 16.2686C15.6727 15.8644 16.3273 15.8644 16.7314 16.2686C17.1356 16.6727 17.1356 17.3273 16.7314 17.7314L12.7314 21.7314C12.3273 22.1356 11.6727 22.1356 11.2686 21.7314L7.26855 17.7314C6.86436 17.3273 6.86436 16.6727 7.26855 16.2686C7.67275 15.8644 8.32725 15.8644 8.73145 16.2686L10.9648 18.502V12ZM0.964844 10.5C0.964844 5.78625 4.78625 1.96484 9.5 1.96484C12.5511 1.96484 15.2265 3.56695 16.7344 5.9707C20.235 6.09413 23.0352 8.96929 23.0352 12.5C23.0352 14.5297 22.1086 16.344 20.6592 17.541C20.2186 17.9049 19.5662 17.8428 19.2021 17.4023C18.8382 16.9616 18.9001 16.3083 19.3408 15.9443C20.3344 15.1237 20.9648 13.8861 20.9648 12.5C20.9648 10.034 18.966 8.03516 16.5 8.03516C15.9243 8.03516 15.3759 7.73533 15.0742 7.22363C13.9485 5.31341 11.8731 4.03516 9.5 4.03516C5.92948 4.03516 3.03516 6.92948 3.03516 10.5C3.03516 12.2813 3.75381 13.8931 4.91992 15.0635C5.32325 15.4684 5.32188 16.123 4.91699 16.5264C4.51218 16.9296 3.85756 16.929 3.4541 16.5244C1.91721 14.9819 0.964844 12.8509 0.964844 10.5Z"/></svg>