<svg xmlns="http://www.w3.org/2000/svg" width="24" height="24" fill="none" viewBox="0 0 24 24"><g clip-path="url(#a)"><path fill="currentColor" d="M20.9648 12C20.9648 7.04877 16.9512 3.03516 12 3.03516C7.04877 3.03516 3.03516 7.04877 3.03516 12C3.03516 16.9512 7.04877 20.9648 12 20.9648C16.9512 20.9648 20.9648 16.9512 20.9648 12ZM10.9648 8C10.9648 7.42839 11.4284 6.96484 12 6.96484C12.5716 6.96484 13.0352 7.42839 13.0352 8V13.502L15.2686 11.2686C15.6727 10.8644 16.3273 10.8644 16.7314 11.2686C17.1356 11.6727 17.1356 12.3273 16.7314 12.7314L12.7314 16.7314C12.3273 17.1356 11.6727 17.1356 11.2686 16.7314L7.26855 12.7314C6.86436 12.3273 6.86436 11.6727 7.26855 11.2686C7.67275 10.8644 8.32725 10.8644 8.73145 11.2686L10.9648 13.502V8ZM23.0352 12C23.0352 18.0945 18.0945 23.0352 12 23.0352C5.90554 23.0352 0.964844 18.0945 0.964844 12C0.964844 5.90554 5.90554 0.964844 12 0.964844C18.0945 0.964844 23.0352 5.90554 23.0352 12Z"/></g><defs><clipPath id="a"><path fill="#fff" d="M0 0H24V24H0z"/></clipPath></defs></svg>