<svg xmlns="http://www.w3.org/2000/svg" width="24" height="24" fill="none" viewBox="0 0 24 24"><path fill="currentColor" d="M17.9648 14.5C17.9648 12.8836 17.1674 11.2598 15.3535 9.80859C13.9696 8.70149 12.8069 7.24527 12 5.62793C11.1931 7.24527 10.0304 8.70149 8.64648 9.80859C6.83256 11.2598 6.03516 12.8836 6.03516 14.5C6.03516 16.082 6.66357 17.5991 7.78223 18.7178C8.90088 19.8364 10.418 20.4648 12 20.4648C13.582 20.4648 15.0991 19.8364 16.2178 18.7178C17.3364 17.5991 17.9648 16.082 17.9648 14.5ZM20.0352 14.5C20.0352 16.631 19.1885 18.6748 17.6816 20.1816C16.1748 21.6885 14.131 22.5352 12 22.5352C9.86899 22.5352 7.82521 21.6885 6.31836 20.1816C4.8115 18.6748 3.96484 16.631 3.96484 14.5C3.96484 12.1164 5.1676 9.94014 7.35352 8.19141C9.17112 6.73723 10.5351 4.54827 10.9854 2.29688L11.0068 2.20801C11.135 1.77107 11.5374 1.46484 12 1.46484C12.4933 1.46484 12.9178 1.81319 13.0146 2.29688C13.4649 4.54827 14.8289 6.73723 16.6465 8.19141C18.8324 9.94014 20.0352 12.1164 20.0352 14.5Z"/></svg>