<svg xmlns="http://www.w3.org/2000/svg" width="24" height="24" fill="none" viewBox="0 0 24 24"><path fill="currentColor" d="M18.9648 14C18.9648 13.0745 18.7848 12.1937 18.459 11.3887C18.2176 10.7923 17.6784 9.95542 16.9365 8.98631C16.2094 8.03648 15.3401 7.02627 14.4971 6.09569C13.6556 5.16685 12.8492 4.32685 12.2529 3.71873C12.164 3.62808 12.0789 3.54361 12 3.46385C11.9211 3.54361 11.836 3.62808 11.7471 3.71873C11.1508 4.32685 10.3444 5.16685 9.50293 6.09569C8.65992 7.02627 7.79059 8.03648 7.06348 8.98631C6.3216 9.95542 5.78243 10.7923 5.54102 11.3887C5.21516 12.1937 5.03516 13.0745 5.03516 14C5.03516 17.8466 8.15334 20.9648 12 20.9648C15.8467 20.9648 18.9648 17.8466 18.9648 14ZM21.0352 14C21.0352 18.9899 16.9899 23.0351 12 23.0351C7.01011 23.0351 2.96484 18.9899 2.96484 14C2.96484 12.8037 3.19797 11.659 3.62207 10.6113C3.97407 9.74185 4.65966 8.72065 5.41992 7.72752C6.19489 6.71521 7.10566 5.65879 7.96875 4.70604C8.8335 3.75146 9.65936 2.89078 10.2686 2.26951C10.5734 1.95867 10.8245 1.70659 11 1.53221C11.0877 1.44507 11.1569 1.37742 11.2041 1.33104C11.2276 1.30789 11.2454 1.28948 11.2578 1.27733C11.264 1.27126 11.2692 1.26686 11.2725 1.26365L11.2773 1.25877H11.2783C11.6802 0.867519 12.3198 0.867519 12.7217 1.25877L12 1.99998L12.7227 1.25877L12.7275 1.26365C12.7308 1.26686 12.736 1.27126 12.7422 1.27733C12.7546 1.28948 12.7724 1.30789 12.7959 1.33104C12.8431 1.37742 12.9123 1.44507 13 1.53221C13.1755 1.70659 13.4266 1.95867 13.7314 2.26951C14.3406 2.89078 15.1665 3.75146 16.0312 4.70604C16.8943 5.65879 17.8051 6.71521 18.5801 7.72752C19.3403 8.72065 20.0259 9.74185 20.3779 10.6113C20.802 11.659 21.0352 12.8037 21.0352 14Z"/></svg>