<svg xmlns="http://www.w3.org/2000/svg" width="24" height="24" fill="none" viewBox="0 0 24 24"><path fill="currentColor" d="M14.0039 1.46485C14.4956 1.46688 14.9181 1.81477 15.0146 2.29688C15.4649 4.54828 16.8289 6.73723 18.6465 8.19141C20.8312 9.93919 22.0338 12.1141 22.0352 14.4961L22.0303 14.793C21.9814 16.2763 21.5217 17.719 20.6992 18.959C19.8218 20.2817 18.5713 21.3145 17.1064 21.9258C15.6417 22.537 14.028 22.6993 12.4707 22.3926C10.9137 22.0858 9.48283 21.3239 8.35938 20.2031C7.95476 19.7994 7.95378 19.1439 8.35742 18.7393C8.76116 18.3346 9.41664 18.3336 9.82129 18.7373C10.6547 19.5688 11.7161 20.1338 12.8711 20.3613C14.0262 20.5888 15.2231 20.469 16.3096 20.0156C17.396 19.5623 18.3238 18.7965 18.9746 17.8154C19.6254 16.8343 19.9697 15.6812 19.9648 14.5039V14.5C19.9648 12.8836 19.1674 11.2598 17.3535 9.8086C15.9687 8.70079 14.805 7.2436 13.998 5.62501C13.8269 5.96756 13.6413 6.30331 13.4375 6.62891C13.1342 7.11345 12.4953 7.2603 12.0107 6.95704C11.5265 6.65377 11.3796 6.01568 11.6826 5.53126C12.3054 4.5362 12.7466 3.43821 12.9863 2.28907C13.0867 1.80778 13.5123 1.46299 14.0039 1.46485ZM9.96484 11.7305C9.96484 10.9472 9.5909 10.121 8.63574 9.3418C8.0049 8.82715 7.44916 8.19408 7.00293 7.48829C6.5569 8.19755 5.99852 8.83498 5.35645 9.34864C4.40658 10.1086 4.03516 10.9491 4.03516 11.7305C4.03541 13.3921 5.38509 14.7451 7 14.7451C8.61491 14.7451 9.96459 13.3921 9.96484 11.7305ZM12.0352 11.7305C12.0349 14.5085 9.78478 16.8154 7 16.8154C4.21522 16.8154 1.9651 14.5085 1.96484 11.7305C1.96484 10.212 2.71355 8.81139 4.06348 7.73145C5.02412 6.96285 5.74334 5.7871 5.98535 4.57716L6.00684 4.48829C6.13492 4.05122 6.53735 3.74512 7 3.74512C7.49336 3.74512 7.91789 4.09337 8.01465 4.57716C8.25534 5.7805 8.98139 6.95273 9.94434 7.73829C11.2691 8.81906 12.0352 10.1938 12.0352 11.7305Z"/></svg>