<svg xmlns="http://www.w3.org/2000/svg" width="24" height="24" fill="none" viewBox="0 0 24 24"><path fill="currentColor" d="M16.2685 2.26814C17.7773 0.759576 20.2227 0.75958 21.7314 2.26814C23.2402 3.7769 23.2402 6.22325 21.7314 7.73201L17.4629 11.9996L18.2314 12.7681C18.6356 13.1723 18.6356 13.8278 18.2314 14.232C17.8273 14.6358 17.1726 14.6358 16.7685 14.232L16 13.4635L9.73143 19.732C8.30484 21.1584 6.36468 21.9706 4.86424 22.4273C4.10114 22.6596 3.42146 22.8087 2.93163 22.9C2.68628 22.9457 2.48694 22.9773 2.34667 22.9976C2.27652 23.0078 2.22087 23.0151 2.18163 23.0201C2.16233 23.0225 2.14698 23.0246 2.13573 23.026C2.13007 23.0266 2.12459 23.0275 2.12108 23.0279C2.11959 23.0281 2.11825 23.0278 2.11717 23.0279L2.11522 23.0289H2.11424C1.80193 23.0636 1.49083 22.9541 1.26854 22.732C1.04622 22.5097 0.936945 22.1978 0.971667 21.8853V21.8785C0.972065 21.875 0.97296 21.8704 0.97362 21.8648C0.974967 21.8535 0.97698 21.8376 0.979479 21.8179C0.984476 21.7787 0.99177 21.723 1.00194 21.6529C1.02229 21.5126 1.05385 21.3133 1.0996 21.0679C1.19091 20.5782 1.34006 19.8993 1.57225 19.1363C2.02896 17.6357 2.84178 15.6949 4.26854 14.2681L10.5361 7.99959L9.76854 7.23201C9.36435 6.82781 9.36435 6.17233 9.76854 5.76814C10.1727 5.36415 10.8273 5.36415 11.2314 5.76814L12 6.53669L16.2685 2.26814ZM5.73143 15.732C4.65839 16.8052 3.97097 18.3646 3.55272 19.7388C3.44729 20.0853 3.36078 20.4125 3.291 20.7076C3.58623 20.6378 3.91402 20.5524 4.26073 20.4469C5.63512 20.0286 7.1953 19.3414 8.26854 18.2681L14.5361 11.9996L12 9.46345L5.73143 15.732ZM20.2685 3.73201C19.5682 3.03163 18.4318 3.03163 17.7314 3.73201L13.4629 7.99959L16 10.5367L20.2685 6.26814C20.9687 5.56786 20.9685 4.43236 20.2685 3.73201Z"/></svg>