<svg xmlns="http://www.w3.org/2000/svg" width="24" height="24" fill="none" viewBox="0 0 24 24"><g clip-path="url(#a)"><path fill="currentColor" d="M20.9648 16C20.9648 15.1144 20.6455 13.8435 20.0918 12.3525C19.5482 10.8888 18.8176 9.31223 18.0771 7.85059C17.338 6.39152 16.5972 5.06225 16.041 4.09766C16.0273 4.07393 16.0135 4.05062 16 4.02734C15.9865 4.05062 15.9727 4.07393 15.959 4.09766C15.4028 5.06225 14.662 6.39152 13.9229 7.85059C13.1824 9.31223 12.4518 10.8888 11.9082 12.3525C11.3545 13.8435 11.0352 15.1144 11.0352 16C11.0352 18.7421 13.2579 20.9648 16 20.9648C18.7421 20.9648 20.9648 18.7421 20.9648 16ZM6.96484 9C6.96484 8.65357 6.83296 8.09 6.56055 7.35645C6.29816 6.64995 5.94269 5.88074 5.57715 5.15918C5.38071 4.77143 5.18277 4.40219 5 4.06934C4.81723 4.40219 4.61929 4.77143 4.42285 5.15918C4.05731 5.88074 3.70184 6.64995 3.43945 7.35645C3.16704 8.09 3.03516 8.65357 3.03516 9C3.03516 10.0852 3.91476 10.9648 5 10.9648C6.08524 10.9648 6.96484 10.0852 6.96484 9ZM23.0352 16C23.0352 19.8853 19.8853 23.0352 16 23.0352C12.1147 23.0352 8.96484 19.8853 8.96484 16C8.96484 14.7289 9.39556 13.1711 9.9668 11.6328C10.5481 10.0675 11.3178 8.41381 12.0771 6.91504C12.838 5.41332 13.5972 4.04987 14.166 3.06348C14.4506 2.57 14.6877 2.16936 14.8545 1.8916C14.9379 1.75271 15.0036 1.64433 15.0488 1.57031C15.0714 1.53332 15.0896 1.50476 15.1016 1.48535C15.1073 1.47597 15.1121 1.46892 15.1152 1.46387C15.1168 1.4613 15.1173 1.45844 15.1182 1.45703L15.1201 1.45605V1.45508C15.3088 1.15045 15.6417 0.964844 16 0.964844C16.3583 0.964844 16.6912 1.15045 16.8799 1.45508V1.45605L16.8818 1.45703C16.8827 1.45844 16.8832 1.4613 16.8848 1.46387C16.8879 1.46892 16.8927 1.47597 16.8984 1.48535C16.9104 1.50476 16.9286 1.53332 16.9512 1.57031C16.9964 1.64433 17.0621 1.75271 17.1455 1.8916C17.3123 2.16936 17.5494 2.57 17.834 3.06348C18.4028 4.04987 19.162 5.41332 19.9229 6.91504C20.6822 8.41381 21.4519 10.0675 22.0332 11.6328C22.6044 13.1711 23.0352 14.7289 23.0352 16ZM9.03516 9C9.03516 11.2285 7.22847 13.0352 5 13.0352C2.77153 13.0352 0.964844 11.2285 0.964844 9C0.964844 8.268 1.20796 7.41689 1.49805 6.63574C1.7981 5.82777 2.19283 4.98223 2.57715 4.22363C2.96295 3.46211 3.34723 2.77208 3.63477 2.27344C3.77871 2.02382 3.89865 1.82085 3.9834 1.67969C4.02579 1.60907 4.05979 1.55366 4.08301 1.51562C4.09454 1.49674 4.10312 1.48185 4.10938 1.47168L4.11914 1.45703L4.12012 1.45508C4.30881 1.15045 4.64166 0.964844 5 0.964844C5.35834 0.964844 5.69119 1.15045 5.87988 1.45508L5.88086 1.45703L5.89062 1.47168C5.89688 1.48185 5.90546 1.49674 5.91699 1.51562C5.94021 1.55366 5.97421 1.60907 6.0166 1.67969C6.10135 1.82085 6.22129 2.02382 6.36523 2.27344C6.65277 2.77208 7.03705 3.46211 7.42285 4.22363C7.80717 4.98223 8.2019 5.82777 8.50195 6.63574C8.79204 7.41689 9.03516 8.268 9.03516 9Z"/></g><defs><clipPath id="a"><path fill="#fff" d="M0 0H24V24H0z"/></clipPath></defs></svg>