<svg xmlns="http://www.w3.org/2000/svg" width="24" height="24" fill="none" viewBox="0 0 24 24"><path fill="currentColor" d="M16.2685 2.26826C17.7773 0.759691 20.2227 0.759709 21.7314 2.26826C23.2402 3.77702 23.2402 6.22337 21.7314 7.73213L8.52538 20.9382C8.26058 21.203 8.03045 21.4407 7.75292 21.6237C7.52462 21.7743 7.27675 21.893 7.01659 21.9772C6.70034 22.0796 6.37116 22.1117 5.99901 22.153L2.61424 22.529C2.30193 22.5637 1.99083 22.4542 1.76854 22.2321C1.54622 22.0098 1.43695 21.6979 1.47167 21.3854L1.84764 18.0017C1.88901 17.6294 1.92004 17.2995 2.02245 16.9831C2.10665 16.723 2.22646 16.476 2.37694 16.2478C2.55996 15.9702 2.79669 15.7391 3.06151 15.4743L16.2685 2.26826ZM20.2685 3.73213C19.5682 3.03175 18.4318 3.03175 17.7314 3.73213L4.52538 16.9382C4.20241 17.2611 4.14505 17.325 4.10448 17.3864C4.05664 17.459 4.01895 17.5381 3.99217 17.6208C3.96947 17.6909 3.95481 17.7755 3.90428 18.2302L3.67089 20.3278L5.77049 20.0954C6.22467 20.0449 6.30879 20.0302 6.37889 20.0075C6.46162 19.9807 6.54068 19.9431 6.61327 19.8952C6.67475 19.8546 6.73842 19.7974 7.06151 19.4743L20.2685 6.26826C20.9687 5.56798 20.9685 4.43249 20.2685 3.73213Z"/></svg>