<svg xmlns="http://www.w3.org/2000/svg" width="24" height="24" fill="none" viewBox="0 0 24 24"><path fill="currentColor" d="M15.7686 2.76834C17.0012 1.53587 18.9989 1.53588 20.2315 2.76834C21.4641 4.00096 21.4641 5.99959 20.2315 7.23221L7.66896 19.7947C7.35806 20.1056 7.08819 20.3852 6.75782 20.5877C6.48628 20.7541 6.18958 20.8766 5.87989 20.951C5.50302 21.0414 5.11456 21.0349 4.67482 21.0349H3.00001C2.4284 21.0349 1.96486 20.5714 1.96486 19.9998V18.326C1.96486 17.886 1.95833 17.4969 2.04884 17.1199C2.12316 16.8103 2.2458 16.5144 2.41212 16.243C2.61467 15.9124 2.89408 15.6419 3.20509 15.3308L15.7686 2.76834ZM21 18.9646C21.5715 18.9646 22.035 19.4283 22.0352 19.9998C22.0352 20.5714 21.5716 21.0349 21 21.0349H12C11.4284 21.0349 10.9649 20.5714 10.9649 19.9998C10.965 19.4283 11.4285 18.9646 12 18.9646H21ZM4.03517 18.9646H4.67482C5.21228 18.9646 5.31322 18.9582 5.3965 18.9383C5.49491 18.9146 5.58948 18.8759 5.67579 18.823C5.74887 18.7782 5.82448 18.7115 6.20509 18.3308L18.7686 5.76835C19.1926 5.34422 19.1924 4.65644 18.7686 4.23221C18.3443 3.80798 17.6557 3.80798 17.2315 4.23221L4.66896 16.7947C4.28833 17.1753 4.22155 17.2509 4.17677 17.324C4.12387 17.4103 4.08517 17.5049 4.06154 17.6033C4.04155 17.6866 4.03517 17.7879 4.03517 18.326V18.9646Z"/></svg>