<svg xmlns="http://www.w3.org/2000/svg" width="24" height="24" fill="none" viewBox="0 0 24 24"><path fill="currentColor" d="M15.7686 2.76834C17.0012 1.53587 18.9989 1.53588 20.2315 2.76834C21.4641 4.00096 21.4641 5.99959 20.2315 7.23221L7.66896 19.7947C7.35806 20.1056 7.08819 20.3852 6.75782 20.5877C6.48628 20.7541 6.18958 20.8766 5.87989 20.951C5.50302 21.0414 5.11456 21.0349 4.67482 21.0349H3.00001C2.4284 21.0349 1.96486 20.5714 1.96486 19.9998V18.326C1.96486 17.886 1.95833 17.4969 2.04884 17.1199C2.12316 16.8103 2.2458 16.5144 2.41212 16.243C2.61467 15.9124 2.89408 15.6419 3.20509 15.3308L15.7686 2.76834ZM20.2363 17.3015C20.622 16.8799 21.2764 16.8505 21.6983 17.2361C22.1201 17.6218 22.1493 18.2761 21.7637 18.698L20.7637 19.7928C20.0478 20.5756 19.0559 21.0349 18 21.0349C16.9446 21.0349 15.9531 20.576 15.2373 19.7937C14.8916 19.4171 14.4445 19.2254 14 19.2254C13.5556 19.2254 13.1084 19.417 12.7627 19.7937C12.3763 20.2149 11.721 20.2427 11.2998 19.8562C10.8791 19.4697 10.851 18.8154 11.2373 18.3943C11.9539 17.6133 12.945 17.1551 14 17.1551C15.055 17.1551 16.0461 17.6134 16.7627 18.3943L16.7647 18.3953C17.1096 18.7725 17.556 18.9646 18 18.9646C18.4441 18.9646 18.8914 18.7726 19.2363 18.3953L20.2363 17.3015ZM4.03517 18.9646H4.67482C5.21228 18.9646 5.31322 18.9582 5.3965 18.9383C5.49491 18.9146 5.58948 18.8759 5.67579 18.823C5.74887 18.7782 5.82448 18.7115 6.20509 18.3308L18.7686 5.76835C19.1926 5.34422 19.1924 4.65644 18.7686 4.23221C18.3443 3.80798 17.6557 3.80798 17.2315 4.23221L4.66896 16.7947C4.28833 17.1753 4.22155 17.2509 4.17677 17.324C4.12387 17.4103 4.08517 17.5049 4.06154 17.6033C4.04155 17.6866 4.03517 17.7879 4.03517 18.326V18.9646Z"/></svg>