<svg xmlns="http://www.w3.org/2000/svg" width="24" height="24" fill="none" viewBox="0 0 24 24"><g clip-path="url(#a)"><path fill="currentColor" d="M0.964844 17.2V8.7996C0.964843 7.97679 0.964659 7.29699 1.00977 6.74491C1.05588 6.18083 1.15512 5.65872 1.40527 5.16776C1.7921 4.40885 2.40902 3.79183 3.16797 3.40506C3.659 3.15487 4.18094 3.05567 4.74512 3.00956C5.29725 2.96444 5.97689 2.96463 6.7998 2.96463H11C11.5715 2.96463 12.035 3.42828 12.0352 3.99979C12.0352 4.57141 11.5716 5.03495 11 5.03495H6.7998C5.94289 5.03495 5.36233 5.03545 4.91406 5.07206C4.47781 5.1077 4.25807 5.17206 4.10742 5.24881C3.73779 5.43721 3.43737 5.73853 3.24902 6.10819C3.17233 6.25882 3.10789 6.47789 3.07227 6.91385C3.03564 7.36211 3.03516 7.94267 3.03516 8.7996V17.2C3.03516 18.0569 3.03567 18.6375 3.07227 19.0857C3.10791 19.522 3.17227 19.7417 3.24902 19.8924C3.43735 20.2619 3.73792 20.5624 4.10742 20.7508C4.25806 20.8275 4.47781 20.8919 4.91406 20.9275C5.36234 20.9641 5.94286 20.9646 6.7998 20.9646H15.2002C16.0571 20.9646 16.6377 20.9641 17.0859 20.9275C17.5222 20.8919 17.7419 20.8275 17.8926 20.7508C18.2621 20.5624 18.5627 20.2619 18.751 19.8924C18.8277 19.7417 18.8921 19.522 18.9277 19.0857C18.9643 18.6375 18.9648 18.0569 18.9648 17.2V12.9998C18.965 12.4283 19.4285 11.9646 20 11.9646C20.5715 11.9646 21.035 12.4283 21.0352 12.9998V17.2C21.0352 18.023 21.0353 18.7025 20.9902 19.2547C20.9441 19.8189 20.8449 20.3407 20.5947 20.8318C20.2079 21.591 19.5912 22.2087 18.832 22.5955C18.341 22.8457 17.8191 22.9449 17.2549 22.991C16.7027 23.0361 16.0231 23.0349 15.2002 23.0349H6.7998C5.97689 23.0349 5.29725 23.0361 4.74512 22.991C4.18093 22.9449 3.65901 22.8457 3.16797 22.5955C2.40881 22.2087 1.79212 21.591 1.40527 20.8318C1.15505 20.3407 1.05587 19.8189 1.00977 19.2547C0.964651 18.7025 0.964844 18.023 0.964844 17.2ZM17.7686 1.76835C19.0011 0.535877 20.9989 0.535877 22.2314 1.76835C23.4641 3.00097 23.4641 4.99959 22.2314 6.23221L12.6689 15.7947C12.3581 16.1056 12.0882 16.3852 11.7578 16.5877C11.4863 16.7541 11.1896 16.8766 10.8799 16.951C10.503 17.0414 10.1145 17.0349 9.6748 17.0349H8C7.42839 17.0349 6.96484 16.5714 6.96484 15.9998V14.326C6.96484 13.886 6.95832 13.4969 7.04883 13.1199C7.12315 12.8103 7.24579 12.5144 7.41211 12.243C7.61466 11.9124 7.89406 11.6419 8.20508 11.3308L17.7686 1.76835ZM9.03516 14.9646H9.6748C10.2123 14.9646 10.3132 14.9582 10.3965 14.9383C10.4949 14.9146 10.5895 14.8759 10.6758 14.823C10.7489 14.7782 10.8245 14.7115 11.2051 14.3308L20.7686 4.76835C21.1926 4.34423 21.1924 3.65644 20.7686 3.23221C20.3443 2.80798 19.6557 2.80798 19.2314 3.23221L9.66895 12.7947C9.28831 13.1753 9.22154 13.2509 9.17676 13.324C9.12385 13.4103 9.08516 13.5049 9.06152 13.6033C9.04154 13.6866 9.03516 13.7878 9.03516 14.326V14.9646Z"/></g><defs><clipPath id="a"><path fill="#fff" d="M0 0H24V24H0z"/></clipPath></defs></svg>