<svg xmlns="http://www.w3.org/2000/svg" width="24" height="24" fill="none" viewBox="0 0 24 24"><path fill="currentColor" d="M18.2686 4.2686C18.6727 3.86441 19.3273 3.86441 19.7314 4.2686C20.1356 4.67279 20.1356 5.3273 19.7314 5.73149L17.498 7.96489H19C19.5716 7.96489 20.0352 8.42843 20.0352 9.00004C20.0352 9.57166 19.5716 10.0352 19 10.0352H15.4277L11.498 13.9649H19C19.5716 13.9649 20.0352 14.4284 20.0352 15C20.0352 15.5717 19.5716 16.0352 19 16.0352H9.42773L5.73145 19.7315C5.32725 20.1357 4.67275 20.1357 4.26855 19.7315C3.86436 19.3273 3.86436 18.6728 4.26855 18.2686L6.50195 16.0352H5C4.42839 16.0352 3.96484 15.5717 3.96484 15C3.96484 14.4284 4.42839 13.9649 5 13.9649H8.57227L12.502 10.0352H5C4.42839 10.0352 3.96484 9.57166 3.96484 9.00004C3.96484 8.42843 4.42839 7.96489 5 7.96489H14.5723L18.2686 4.2686Z"/></svg>