<svg xmlns="http://www.w3.org/2000/svg" width="24" height="24" fill="none" viewBox="0 0 24 24"><path fill="currentColor" d="M14.753 1.40488C15.5632 1.14173 16.436 1.14174 17.2462 1.40488C17.7704 1.5752 18.2101 1.87442 18.6417 2.24082C19.064 2.59935 19.5442 3.08082 20.1261 3.66269L20.337 3.87461C20.9188 4.45643 21.4004 4.93572 21.7589 5.35801C22.1253 5.7896 22.4245 6.22932 22.5948 6.75351C22.858 7.56369 22.858 8.4365 22.5948 9.24668C22.4245 9.77087 22.1253 10.2106 21.7589 10.6422C21.4004 11.0645 20.9189 11.5447 20.337 12.1266L12.4981 19.9654H21.0001C21.5715 19.9657 22.0343 20.4291 22.0343 21.0006C22.034 21.5718 21.5714 22.0345 21.0001 22.0348H7.32529C6.88538 22.0348 6.49623 22.0423 6.11924 21.9518C5.80963 21.8774 5.51377 21.7539 5.24228 21.5875C4.91179 21.3849 4.64119 21.1055 4.33017 20.7945L3.66221 20.1266C3.08033 19.5447 2.59887 19.0645 2.24033 18.6422C1.87394 18.2106 1.57471 17.7709 1.40439 17.2467C1.14125 16.4365 1.14124 15.5637 1.40439 14.7535C1.57471 14.2293 1.87394 13.7896 2.24033 13.358C2.59885 12.9357 3.08038 12.4564 3.66221 11.8746L11.8741 3.66269C12.4559 3.08087 12.9352 2.59934 13.3575 2.24082C13.7891 1.87442 14.2288 1.5752 14.753 1.40488ZM5.12607 13.3375C4.52005 13.9435 4.10957 14.355 3.81846 14.6979C3.53518 15.0315 3.42539 15.2324 3.37314 15.3932C3.24506 15.7876 3.24507 16.2126 3.37314 16.607C3.42539 16.7678 3.53518 16.9687 3.81846 17.3023C4.10957 17.6452 4.52003 18.0566 5.12607 18.6627L5.79404 19.3307C6.17478 19.7114 6.25122 19.7781 6.32432 19.8229C6.41051 19.8756 6.50437 19.9145 6.60264 19.9381C6.68599 19.9581 6.78684 19.9654 7.32529 19.9654H8.67392C9.21237 19.9654 9.31323 19.9581 9.39658 19.9381C9.49498 19.9144 9.58959 19.8757 9.67588 19.8229C9.74886 19.7781 9.82507 19.7108 10.2052 19.3307L16.5353 12.9996L10.9991 7.46348L5.12607 13.3375ZM16.6065 3.37363C16.2121 3.24556 15.7871 3.24554 15.3927 3.37363C15.2319 3.42588 15.031 3.53567 14.6974 3.81894C14.3545 4.11006 13.943 4.52054 13.337 5.12656L12.463 5.99961L17.9991 11.5357L18.8741 10.6627C19.4801 10.0567 19.8897 9.64523 20.1808 9.30234C20.464 8.96866 20.5738 8.76783 20.6261 8.60703C20.7542 8.21257 20.7542 7.78762 20.6261 7.39316C20.5738 7.23237 20.464 7.03153 20.1808 6.69785C19.8897 6.35497 19.4801 5.94348 18.8741 5.3375L18.6622 5.12656C18.0562 4.52051 17.6448 4.11006 17.3019 3.81894C16.9682 3.53567 16.7673 3.42588 16.6065 3.37363Z"/></svg>