<svg xmlns="http://www.w3.org/2000/svg" width="24" height="24" fill="none" viewBox="0 0 24 24"><path fill="currentColor" d="M22.0352 9C22.0352 9.57161 21.5716 10.0352 21 10.0352C20.4284 10.0352 19.9648 9.57161 19.9648 9V5.49805L5.49805 19.9648H9C9.57161 19.9648 10.0352 20.4284 10.0352 21C10.0352 21.5716 9.57161 22.0352 9 22.0352H3C2.7255 22.0352 2.46265 21.9255 2.26855 21.7314C2.07445 21.5373 1.96484 21.2745 1.96484 21V15C1.96484 14.4284 2.42839 13.9648 3 13.9648C3.57161 13.9648 4.03516 14.4284 4.03516 15V18.502L18.502 4.03516H15C14.4284 4.03516 13.9648 3.57161 13.9648 3C13.9648 2.42839 14.4284 1.96484 15 1.96484H21C21.5716 1.96484 22.0352 2.42839 22.0352 3V9Z"/></svg>