<svg xmlns="http://www.w3.org/2000/svg" width="24" height="24" fill="none" viewBox="0 0 24 24"><path fill="currentColor" d="M7.26855 15.2686C7.67275 14.8644 8.32725 14.8644 8.73145 15.2686C9.13564 15.6727 9.13564 16.3273 8.73145 16.7314L5.49805 19.9648H8C8.57161 19.9648 9.03516 20.4284 9.03516 21C9.03516 21.5716 8.57161 22.0352 8 22.0352H3C2.7255 22.0352 2.46265 21.9255 2.26855 21.7314C2.07445 21.5373 1.96484 21.2745 1.96484 21V16C1.96484 15.4284 2.42839 14.9648 3 14.9648C3.57161 14.9648 4.03516 15.4284 4.03516 16V18.502L7.26855 15.2686ZM15.2686 15.2686C15.6727 14.8644 16.3273 14.8644 16.7314 15.2686L19.9648 18.502V16C19.9648 15.4284 20.4284 14.9648 21 14.9648C21.5716 14.9648 22.0352 15.4284 22.0352 16V21C22.0352 21.5716 21.5716 22.0352 21 22.0352H16C15.4284 22.0352 14.9648 21.5716 14.9648 21C14.9648 20.4284 15.4284 19.9648 16 19.9648H18.502L15.2686 16.7314C14.8644 16.3273 14.8644 15.6727 15.2686 15.2686ZM1.96484 8V3C1.96484 2.42839 2.42839 1.96484 3 1.96484H8C8.57161 1.96484 9.03516 2.42839 9.03516 3C9.03516 3.57161 8.57161 4.03516 8 4.03516H5.49805L8.73145 7.26855C9.13564 7.67275 9.13564 8.32725 8.73145 8.73145C8.32725 9.13564 7.67275 9.13564 7.26855 8.73145L4.03516 5.49805V8C4.03516 8.57161 3.57161 9.03516 3 9.03516C2.42839 9.03516 1.96484 8.57161 1.96484 8ZM22.0352 8C22.0352 8.57161 21.5716 9.03516 21 9.03516C20.4284 9.03516 19.9648 8.57161 19.9648 8V5.49805L16.7314 8.73145C16.3273 9.13564 15.6727 9.13564 15.2686 8.73145C14.8644 8.32725 14.8644 7.67275 15.2686 7.26855L18.502 4.03516H16C15.4284 4.03516 14.9648 3.57161 14.9648 3C14.9648 2.42839 15.4284 1.96484 16 1.96484H21C21.5716 1.96484 22.0352 2.42839 22.0352 3V8Z"/></svg>