<svg xmlns="http://www.w3.org/2000/svg" width="24" height="24" fill="none" viewBox="0 0 24 24"><path fill="currentColor" d="M8.26855 14.2686C8.67275 13.8644 9.32725 13.8644 9.73145 14.2686C10.1356 14.6727 10.1356 15.3273 9.73145 15.7314L5.49805 19.9648H9C9.57161 19.9648 10.0352 20.4284 10.0352 21C10.0352 21.5716 9.57161 22.0352 9 22.0352H3C2.7255 22.0352 2.46265 21.9255 2.26855 21.7314C2.07445 21.5373 1.96484 21.2745 1.96484 21V15C1.96484 14.4284 2.42839 13.9648 3 13.9648C3.57161 13.9648 4.03516 14.4284 4.03516 15V18.502L8.26855 14.2686ZM14.2686 14.2686C14.6727 13.8644 15.3273 13.8644 15.7314 14.2686L19.9648 18.502V15C19.9648 14.4284 20.4284 13.9648 21 13.9648C21.5716 13.9648 22.0352 14.4284 22.0352 15V21C22.0352 21.5716 21.5716 22.0352 21 22.0352H15C14.4284 22.0352 13.9648 21.5716 13.9648 21C13.9648 20.4284 14.4284 19.9648 15 19.9648H18.502L14.2686 15.7314C13.8644 15.3273 13.8644 14.6727 14.2686 14.2686ZM1.96484 9V3C1.96484 2.42839 2.42839 1.96484 3 1.96484H9C9.57161 1.96484 10.0352 2.42839 10.0352 3C10.0352 3.57161 9.57161 4.03516 9 4.03516H5.49805L9.73145 8.26855C10.1356 8.67275 10.1356 9.32725 9.73145 9.73145C9.32725 10.1356 8.67275 10.1356 8.26855 9.73145L4.03516 5.49805V9C4.03516 9.57161 3.57161 10.0352 3 10.0352C2.42839 10.0352 1.96484 9.57161 1.96484 9ZM22.0352 9C22.0352 9.57161 21.5716 10.0352 21 10.0352C20.4284 10.0352 19.9648 9.57161 19.9648 9V5.49805L15.7314 9.73145C15.3273 10.1356 14.6727 10.1356 14.2686 9.73145C13.8644 9.32725 13.8644 8.67275 14.2686 8.26855L18.502 4.03516H15C14.4284 4.03516 13.9648 3.57161 13.9648 3C13.9648 2.42839 14.4284 1.96484 15 1.96484H21C21.5716 1.96484 22.0352 2.42839 22.0352 3V9Z"/></svg>