<svg xmlns="http://www.w3.org/2000/svg" width="24" height="24" fill="none" viewBox="0 0 24 24"><path fill="currentColor" d="M8.26855 14.2686C8.67275 13.8644 9.32725 13.8644 9.73145 14.2686C10.1356 14.6727 10.1356 15.3273 9.73145 15.7314L5.49805 19.9648H9C9.57161 19.9648 10.0352 20.4284 10.0352 21C10.0352 21.5716 9.57161 22.0352 9 22.0352H3C2.7255 22.0352 2.46265 21.9255 2.26855 21.7314C2.07445 21.5373 1.96484 21.2745 1.96484 21V15C1.96484 14.4284 2.42839 13.9648 3 13.9648C3.57161 13.9648 4.03516 14.4284 4.03516 15V18.502L8.26855 14.2686ZM19.9648 16.2002V14C19.9648 13.4284 20.4284 12.9648 21 12.9648C21.5716 12.9648 22.0352 13.4284 22.0352 14V16.2002C22.0352 17.0231 22.0353 17.7027 21.9902 18.2549C21.9441 18.8191 21.8449 19.341 21.5947 19.832C21.2079 20.591 20.591 21.2079 19.832 21.5947C19.341 21.8449 18.8191 21.9441 18.2549 21.9902C17.7027 22.0353 17.0231 22.0352 16.2002 22.0352H14C13.4284 22.0352 12.9648 21.5716 12.9648 21C12.9648 20.4284 13.4284 19.9648 14 19.9648H16.2002C17.0571 19.9648 17.6377 19.9643 18.0859 19.9277C18.5222 19.8921 18.7419 19.8277 18.8926 19.751C19.2621 19.5626 19.5626 19.2621 19.751 18.8926C19.8277 18.7419 19.8921 18.5222 19.9277 18.0859C19.9643 17.6377 19.9648 17.0571 19.9648 16.2002ZM1.96484 10V7.7998C1.96484 6.97689 1.96465 6.29725 2.00977 5.74512C2.05588 5.18095 2.15509 4.65899 2.40527 4.16797C2.79208 3.409 3.409 2.79208 4.16797 2.40527C4.65899 2.15509 5.18095 2.05588 5.74512 2.00977C6.29725 1.96465 6.97689 1.96484 7.7998 1.96484H10C10.5716 1.96484 11.0352 2.42839 11.0352 3C11.0352 3.57161 10.5716 4.03516 10 4.03516H7.7998C6.94287 4.03516 6.36234 4.03565 5.91406 4.07227C5.47781 4.10791 5.25807 4.17227 5.10742 4.24902C4.73794 4.43737 4.43737 4.73794 4.24902 5.10742C4.17227 5.25807 4.10791 5.47781 4.07227 5.91406C4.03565 6.36234 4.03516 6.94287 4.03516 7.7998V10C4.03516 10.5716 3.57161 11.0352 3 11.0352C2.42839 11.0352 1.96484 10.5716 1.96484 10ZM22.0352 9C22.0352 9.57161 21.5716 10.0352 21 10.0352C20.4284 10.0352 19.9648 9.57161 19.9648 9V5.49805L15.7314 9.73145C15.3273 10.1356 14.6727 10.1356 14.2686 9.73145C13.8644 9.32725 13.8644 8.67275 14.2686 8.26855L18.502 4.03516H15C14.4284 4.03516 13.9648 3.57161 13.9648 3C13.9648 2.42839 14.4284 1.96484 15 1.96484H21C21.5716 1.96484 22.0352 2.42839 22.0352 3V9Z"/></svg>