<svg xmlns="http://www.w3.org/2000/svg" width="24" height="24" fill="none" viewBox="0 0 24 24"><path fill="currentColor" d="M8.26855 14.2686C8.67275 13.8644 9.32725 13.8644 9.73145 14.2686C10.1356 14.6727 10.1356 15.3273 9.73145 15.7314L5.49805 19.9648H9C9.57161 19.9648 10.0352 20.4284 10.0352 21C10.0352 21.5716 9.57161 22.0352 9 22.0352H3C2.7255 22.0352 2.46265 21.9255 2.26855 21.7314C2.07445 21.5373 1.96484 21.2745 1.96484 21V15C1.96484 14.4284 2.42839 13.9648 3 13.9648C3.57161 13.9648 4.03516 14.4284 4.03516 15V18.502L8.26855 14.2686ZM18.9648 16.7998V14C18.9648 13.4284 19.4284 12.9648 20 12.9648C20.5716 12.9648 21.0352 13.4284 21.0352 14V16.7998C21.0352 17.3428 21.0354 17.8128 21.0039 18.1982C20.9714 18.5956 20.8998 18.9939 20.7041 19.3779C20.4131 19.9489 19.9489 20.4131 19.3779 20.7041C18.9939 20.8998 18.5956 20.9714 18.1982 21.0039C17.8128 21.0354 17.3428 21.0352 16.7998 21.0352H14C13.4284 21.0352 12.9648 20.5716 12.9648 20C12.9648 19.4284 13.4284 18.9648 14 18.9648H16.7998C17.3769 18.9648 17.7477 18.9644 18.0293 18.9414C18.2988 18.9194 18.3948 18.8816 18.4385 18.8594C18.6197 18.7669 18.7669 18.6197 18.8594 18.4385C18.8816 18.3948 18.9194 18.2988 18.9414 18.0293C18.9644 17.7477 18.9648 17.3769 18.9648 16.7998ZM2.96484 10V7.2002C2.96484 6.65722 2.9646 6.18718 2.99609 5.80176C3.02859 5.40438 3.10024 5.00608 3.2959 4.62207C3.58686 4.05107 4.05107 3.58686 4.62207 3.2959C5.00608 3.10024 5.40438 3.02859 5.80176 2.99609C6.18718 2.9646 6.65722 2.96484 7.2002 2.96484H10C10.5716 2.96484 11.0352 3.42839 11.0352 4C11.0352 4.57161 10.5716 5.03516 10 5.03516H7.2002C6.62309 5.03516 6.25228 5.03559 5.9707 5.05859C5.7012 5.08061 5.60521 5.11837 5.56152 5.14062C5.38033 5.23308 5.23308 5.38033 5.14062 5.56152C5.11837 5.60521 5.08061 5.7012 5.05859 5.9707C5.03559 6.25228 5.03516 6.62309 5.03516 7.2002V10C5.03516 10.5716 4.57161 11.0352 4 11.0352C3.42839 11.0352 2.96484 10.5716 2.96484 10ZM22.0352 9C22.0352 9.57161 21.5716 10.0352 21 10.0352C20.4284 10.0352 19.9648 9.57161 19.9648 9V5.49805L15.7314 9.73145C15.3273 10.1356 14.6727 10.1356 14.2686 9.73145C13.8644 9.32725 13.8644 8.67275 14.2686 8.26855L18.502 4.03516H15C14.4284 4.03516 13.9648 3.57161 13.9648 3C13.9648 2.42839 14.4284 1.96484 15 1.96484H21C21.5716 1.96484 22.0352 2.42839 22.0352 3V9Z"/></svg>