<svg xmlns="http://www.w3.org/2000/svg" width="24" height="24" fill="none" viewBox="0 0 24 24"><path fill="currentColor" d="M2.26854 2.2686C2.67274 1.86441 3.32822 1.86441 3.73241 2.2686L7.36913 5.90532C7.42603 5.95066 7.47792 6.00326 7.52538 6.06157L10.6025 9.13872C10.6053 9.14144 10.6086 9.14376 10.6113 9.14653C10.6141 9.1493 10.6164 9.15252 10.6191 9.15532L17.9219 16.4581C17.9879 16.5092 18.048 16.5695 18.1016 16.6377L21.7324 20.2686C22.1362 20.6727 22.1362 21.3274 21.7324 21.7315C21.3282 22.1357 20.6727 22.1357 20.2685 21.7315L17.1328 18.5957C15.6885 19.4364 13.9683 20.0352 12 20.0352C9.12768 20.0351 6.78712 18.7653 5.05468 17.3194C3.32462 15.8754 2.1387 14.2059 1.54491 13.2657C1.42545 13.0765 1.25305 12.8212 1.16893 12.4541C1.10552 12.1771 1.10543 11.8219 1.16893 11.545C1.25318 11.1778 1.42615 10.922 1.54589 10.7325C2.14587 9.7827 3.36208 8.07128 5.14452 6.60747L2.26854 3.73149C1.86463 3.32735 1.86463 2.67274 2.26854 2.2686ZM6.6162 8.07915C4.99438 9.36628 3.85965 10.9455 3.29589 11.8379C3.26034 11.8942 3.23544 11.9339 3.21483 11.9678C3.20702 11.9807 3.20126 11.9915 3.19628 12C3.20122 12.0085 3.2071 12.0195 3.21483 12.0323C3.23522 12.0658 3.25975 12.1045 3.29491 12.1602C3.82652 13.002 4.87842 14.4766 6.38085 15.7305C7.88076 16.9824 9.76766 17.9648 12 17.9649C13.3286 17.9649 14.5328 17.6158 15.6074 17.0704L14.0254 15.4883C13.43 15.8345 12.7381 16.0352 12 16.0352C9.77171 16.035 7.96581 14.2284 7.96581 12C7.96581 11.2618 8.16436 10.5692 8.51073 9.97368L6.6162 8.07915ZM12 3.96489C14.8725 3.96489 17.2137 5.23472 18.9463 6.68071C20.6763 8.12464 21.8623 9.79422 22.456 10.7344C22.5606 10.8999 22.7059 11.1158 22.7969 11.4131L22.832 11.5459L22.8682 11.7657C22.8919 11.9954 22.8797 12.2473 22.832 12.4551C22.7477 12.8225 22.574 13.0788 22.4541 13.2686C22.1351 13.7735 21.6509 14.4794 21.0098 15.2452C20.6427 15.6832 19.9899 15.741 19.5517 15.3741C19.1136 15.0071 19.056 14.3543 19.4228 13.9161C19.9929 13.2353 20.4234 12.6074 20.7041 12.1631C20.7396 12.1068 20.7645 12.0672 20.7851 12.0332C20.7933 12.0198 20.7986 12.0079 20.8037 11.9991C20.7989 11.9908 20.7935 11.98 20.7861 11.9678C20.7657 11.9343 20.7412 11.8956 20.706 11.8399C20.1744 10.9982 19.1225 9.52351 17.6201 8.26958C16.1201 7.01765 14.2325 6.0352 12 6.0352C11.6201 6.03522 11.2517 6.06346 10.8945 6.11625C10.3292 6.19984 9.80252 5.80944 9.71874 5.24418C9.63513 4.67872 10.0263 4.15201 10.5918 4.0684C11.0471 4.0011 11.5167 3.96491 12 3.96489ZM10.0351 12C10.0351 13.0851 10.9149 13.9647 12 13.9649C12.1544 13.9649 12.3043 13.9447 12.4482 13.9112L10.0879 11.5508C10.0542 11.6951 10.0351 11.8453 10.0351 12Z"/></svg>