<svg xmlns="http://www.w3.org/2000/svg" width="24" height="24" fill="none" viewBox="0 0 24 24"><path fill="currentColor" d="M12 3.96484C14.8725 3.96484 17.2138 5.23467 18.9463 6.68066C20.6763 8.12459 21.8623 9.79418 22.4561 10.7344C22.5606 10.8999 22.7059 11.1158 22.7969 11.4131L22.832 11.5449L22.8672 11.7656C22.891 11.9953 22.8796 12.2473 22.832 12.4551C22.7479 12.8218 22.5754 13.0766 22.4561 13.2656C21.8623 14.2058 20.6763 15.8754 18.9463 17.3193C17.2138 18.7653 14.8725 20.0352 12 20.0352C9.12769 20.035 6.78713 18.7653 5.05468 17.3193C3.32463 15.8754 2.13871 14.2058 1.54492 13.2656C1.42552 13.0766 1.2531 12.8218 1.16894 12.4551C1.10543 12.178 1.10543 11.822 1.16894 11.5449C1.2531 11.1782 1.42552 10.9234 1.54492 10.7344C2.13871 9.79416 3.32463 8.12461 5.05468 6.68066C6.78713 5.23474 9.12769 3.96496 12 3.96484ZM12 6.03516C9.76766 6.03527 7.88077 7.01768 6.38086 8.26953C4.87843 9.52348 3.82653 10.9981 3.29492 11.8398C3.25976 11.8955 3.23523 11.9342 3.21484 11.9678C3.2071 11.9805 3.20123 11.9915 3.19629 12C3.20123 12.0085 3.2071 12.0195 3.21484 12.0322C3.23523 12.0658 3.25976 12.1045 3.29492 12.1602C3.82653 13.0019 4.87843 14.4765 6.38086 15.7305C7.88077 16.9823 9.76766 17.9647 12 17.9648C14.2325 17.9648 16.1201 16.9824 17.6201 15.7305C19.1225 14.4765 20.1745 13.0019 20.7061 12.1602C20.7412 12.1045 20.7657 12.0658 20.7861 12.0322C20.7938 12.0197 20.7988 12.0084 20.8037 12C20.7988 11.9916 20.7938 11.9803 20.7861 11.9678C20.7657 11.9342 20.7412 11.8955 20.7061 11.8398C20.1745 10.9981 19.1225 9.52346 17.6201 8.26953C16.1201 7.01761 14.2325 6.03516 12 6.03516ZM13.9658 12C13.9658 10.9148 13.0852 10.0352 12 10.0352C10.9149 10.0354 10.0352 10.9149 10.0352 12C10.0352 13.0851 10.9149 13.9646 12 13.9648C13.0852 13.9648 13.9658 13.0852 13.9658 12ZM16.0352 12C16.0352 14.2285 14.2285 16.0352 12 16.0352C9.77171 16.0349 7.96582 14.2283 7.96582 12C7.96582 9.77167 9.77171 7.96506 12 7.96484C14.2285 7.96484 16.0352 9.77153 16.0352 12Z"/></svg>