<svg xmlns="http://www.w3.org/2000/svg" width="24" height="24" fill="none" viewBox="0 0 24 24"><g clip-path="url(#a)"><path fill="currentColor" d="M20.9648 12C20.9648 7.04877 16.9512 3.03516 12 3.03516C7.04877 3.03516 3.03516 7.04877 3.03516 12C3.03516 16.9512 7.04877 20.9648 12 20.9648C16.9512 20.9648 20.9648 16.9512 20.9648 12ZM16.5 12.9648C17.0716 12.9648 17.5352 13.4284 17.5352 14C17.5352 15.2381 16.8114 16.3808 15.8438 17.1748C14.8557 17.9855 13.5016 18.5352 12 18.5352C10.4984 18.5352 9.14432 17.9855 8.15625 17.1748C7.18857 16.3808 6.46484 15.2381 6.46484 14C6.46484 13.4284 6.92839 12.9648 7.5 12.9648H16.5ZM8.94824 15.0352C9.08491 15.216 9.25549 15.4002 9.46875 15.5752C10.1055 16.0977 11.0011 16.4648 12 16.4648C12.9989 16.4648 13.8945 16.0977 14.5312 15.5752C14.7445 15.4002 14.9151 15.216 15.0518 15.0352H8.94824ZM9 7.46484C9.84776 7.46484 10.5352 8.15224 10.5352 9C10.5352 9.84776 9.84776 10.5352 9 10.5352C8.15224 10.5352 7.46484 9.84776 7.46484 9C7.46484 8.15224 8.15224 7.46484 9 7.46484ZM15 7.46484C15.8478 7.46484 16.5352 8.15224 16.5352 9C16.5352 9.84776 15.8478 10.5352 15 10.5352C14.1522 10.5352 13.4648 9.84776 13.4648 9C13.4648 8.15224 14.1522 7.46484 15 7.46484ZM23.0352 12C23.0352 18.0945 18.0945 23.0352 12 23.0352C5.90554 23.0352 0.964844 18.0945 0.964844 12C0.964844 5.90554 5.90554 0.964844 12 0.964844C18.0945 0.964844 23.0352 5.90554 23.0352 12Z"/></g><defs><clipPath id="a"><path fill="#fff" d="M0 0H24V24H0z"/></clipPath></defs></svg>