<svg xmlns="http://www.w3.org/2000/svg" width="24" height="24" fill="none" viewBox="0 0 24 24"><path fill="currentColor" d="M1.96484 16.2002V16C1.96484 15.4284 2.42839 14.9648 3 14.9648C3.57161 14.9648 4.03516 15.4284 4.03516 16V16.2002C4.03516 17.0571 4.03565 17.6377 4.07227 18.0859C4.10791 18.5222 4.17227 18.7419 4.24902 18.8926C4.43737 19.2621 4.73794 19.5626 5.10742 19.751C5.25806 19.8277 5.47781 19.8921 5.91406 19.9277C6.36234 19.9643 6.94287 19.9648 7.7998 19.9648H8C8.57161 19.9648 9.03516 20.4284 9.03516 21C9.03516 21.5716 8.57161 22.0352 8 22.0352H7.7998C6.97689 22.0352 6.29725 22.0353 5.74512 21.9902C5.18095 21.9441 4.65899 21.8449 4.16797 21.5947C3.409 21.2079 2.79208 20.591 2.40527 19.832C2.15509 19.341 2.05588 18.8191 2.00977 18.2549C1.96465 17.7027 1.96484 17.0231 1.96484 16.2002ZM19.9648 16.2002V16C19.9648 15.4284 20.4284 14.9648 21 14.9648C21.5716 14.9648 22.0352 15.4284 22.0352 16V16.2002C22.0352 17.0231 22.0353 17.7027 21.9902 18.2549C21.9441 18.8191 21.8449 19.341 21.5947 19.832C21.2079 20.591 20.591 21.2079 19.832 21.5947C19.341 21.8449 18.8191 21.9441 18.2549 21.9902C17.7027 22.0353 17.0231 22.0352 16.2002 22.0352H16C15.4284 22.0352 14.9648 21.5716 14.9648 21C14.9648 20.4284 15.4284 19.9648 16 19.9648H16.2002C17.0571 19.9648 17.6377 19.9643 18.0859 19.9277C18.5222 19.8921 18.7419 19.8277 18.8926 19.751C19.2621 19.5626 19.5626 19.2621 19.751 18.8926C19.8277 18.7419 19.8921 18.5222 19.9277 18.0859C19.9643 17.6377 19.9648 17.0571 19.9648 16.2002ZM14.4688 14.4678C14.8729 14.0641 15.5275 14.0641 15.9316 14.4678C16.3358 14.872 16.3358 15.5274 15.9316 15.9316C13.7275 18.1357 10.1729 18.1357 7.96875 15.9316C7.56456 15.5274 7.56456 14.872 7.96875 14.4678C8.37285 14.0641 9.02754 14.0641 9.43164 14.4678C10.8274 15.8636 13.0729 15.8636 14.4688 14.4678ZM11.4648 11.1006V8C11.4648 7.42839 11.9284 6.96484 12.5 6.96484C13.0716 6.96484 13.5352 7.42839 13.5352 8V11.1006C13.5349 12.472 12.3715 13.6348 11 13.6348C10.4285 13.6348 9.96511 13.172 9.96484 12.6006C9.96484 12.029 10.4284 11.5654 11 11.5654C11.2282 11.5654 11.4645 11.3288 11.4648 11.1006ZM6.46484 9.5V8C6.46484 7.42839 6.92839 6.96484 7.5 6.96484C8.07161 6.96484 8.53516 7.42839 8.53516 8V9.5C8.53516 10.0716 8.07161 10.5352 7.5 10.5352C6.92839 10.5352 6.46484 10.0716 6.46484 9.5ZM15.4648 9.5V8C15.4648 7.42839 15.9284 6.96484 16.5 6.96484C17.0716 6.96484 17.5352 7.42839 17.5352 8V9.5C17.5352 10.0716 17.0716 10.5352 16.5 10.5352C15.9284 10.5352 15.4648 10.0716 15.4648 9.5ZM1.96484 8V7.7998C1.96484 6.97689 1.96465 6.29725 2.00977 5.74512C2.05588 5.18095 2.15509 4.65899 2.40527 4.16797C2.79208 3.409 3.409 2.79208 4.16797 2.40527C4.65899 2.15509 5.18095 2.05588 5.74512 2.00977C6.29725 1.96465 6.97689 1.96484 7.7998 1.96484H8C8.57161 1.96484 9.03516 2.42839 9.03516 3C9.03516 3.57161 8.57161 4.03516 8 4.03516H7.7998C6.94287 4.03516 6.36234 4.03565 5.91406 4.07227C5.47781 4.10791 5.25807 4.17227 5.10742 4.24902C4.73794 4.43737 4.43737 4.73794 4.24902 5.10742C4.17227 5.25807 4.10791 5.47781 4.07227 5.91406C4.03565 6.36234 4.03516 6.94287 4.03516 7.7998V8C4.03516 8.57161 3.57161 9.03516 3 9.03516C2.42839 9.03516 1.96484 8.57161 1.96484 8ZM19.9648 8V7.7998C19.9648 6.94287 19.9643 6.36234 19.9277 5.91406C19.8921 5.47781 19.8277 5.25807 19.751 5.10742C19.5626 4.73794 19.2621 4.43737 18.8926 4.24902C18.7419 4.17227 18.5222 4.10791 18.0859 4.07227C17.6377 4.03565 17.0571 4.03516 16.2002 4.03516H16C15.4284 4.03516 14.9648 3.57161 14.9648 3C14.9648 2.42839 15.4284 1.96484 16 1.96484H16.2002C17.0231 1.96484 17.7027 1.96465 18.2549 2.00977C18.8191 2.05588 19.341 2.15509 19.832 2.40527C20.591 2.79208 21.2079 3.409 21.5947 4.16797C21.8449 4.65899 21.9441 5.18095 21.9902 5.74512C22.0353 6.29725 22.0352 6.97689 22.0352 7.7998V8C22.0352 8.57161 21.5716 9.03516 21 9.03516C20.4284 9.03516 19.9648 8.57161 19.9648 8Z"/></svg>