<svg xmlns="http://www.w3.org/2000/svg" width="24" height="24" fill="none" viewBox="0 0 24 24"><g clip-path="url(#a)"><path fill="currentColor" d="M20.9648 12C20.9648 7.04877 16.9512 3.03516 12 3.03516C7.04877 3.03516 3.03516 7.04877 3.03516 12C3.03516 16.9512 7.04877 20.9648 12 20.9648C16.9512 20.9648 20.9648 16.9512 20.9648 12ZM12 12.9648C13.5351 12.9648 14.7441 13.58 15.5459 14.1631C15.9488 14.4561 16.2604 14.7492 16.4736 14.9717C16.5806 15.0833 16.6646 15.1786 16.7236 15.249C16.753 15.2841 16.7766 15.313 16.7939 15.335C16.8025 15.3458 16.8098 15.355 16.8154 15.3623C16.8183 15.366 16.8212 15.3694 16.8232 15.3721C16.8243 15.3734 16.8253 15.3749 16.8262 15.376L16.8271 15.3779C16.8274 15.3783 16.828 15.379 16.0117 15.9912L16.8281 15.3789C17.1711 15.8362 17.0784 16.4852 16.6211 16.8281C16.164 17.1709 15.515 17.0788 15.1719 16.6221L15.1709 16.6201C15.1651 16.6128 15.154 16.5985 15.1377 16.5791C15.105 16.5401 15.052 16.479 14.9795 16.4033C14.8334 16.2508 14.6136 16.0438 14.3291 15.8369C13.7559 15.42 12.9648 15.0352 12 15.0352C11.0352 15.0352 10.2441 15.42 9.6709 15.8369C9.38642 16.0438 9.16664 16.2508 9.02051 16.4033C8.94803 16.479 8.89503 16.5401 8.8623 16.5791C8.84599 16.5985 8.83486 16.6128 8.8291 16.6201C8.82847 16.6209 8.82765 16.6214 8.82715 16.6221C8.48397 17.0784 7.83583 17.1708 7.37891 16.8281C6.92161 16.4852 6.82891 15.8362 7.17188 15.3789L7.98828 15.9912L7.17285 15.3779L7.17383 15.376C7.17467 15.3749 7.17573 15.3734 7.17676 15.3721C7.17882 15.3694 7.18175 15.366 7.18457 15.3623C7.19019 15.355 7.19747 15.3458 7.20605 15.335C7.22344 15.313 7.24696 15.2841 7.27637 15.249C7.33545 15.1786 7.41937 15.0833 7.52637 14.9717C7.73958 14.7492 8.05121 14.4561 8.4541 14.1631C9.25591 13.58 10.4649 12.9648 12 12.9648ZM15.1748 16.625L15.1738 16.623L15.1729 16.6221H15.1719L15.1748 16.625ZM9 7.46484C9.84776 7.46484 10.5352 8.15224 10.5352 9C10.5352 9.84776 9.84776 10.5352 9 10.5352C8.15224 10.5352 7.46484 9.84776 7.46484 9C7.46484 8.15224 8.15224 7.46484 9 7.46484ZM15 7.46484C15.8478 7.46484 16.5352 8.15224 16.5352 9C16.5352 9.84776 15.8478 10.5352 15 10.5352C14.1522 10.5352 13.4648 9.84776 13.4648 9C13.4648 8.15224 14.1522 7.46484 15 7.46484ZM23.0352 12C23.0352 18.0945 18.0945 23.0352 12 23.0352C5.90554 23.0352 0.964844 18.0945 0.964844 12C0.964844 5.90554 5.90554 0.964844 12 0.964844C18.0945 0.964844 23.0352 5.90554 23.0352 12Z"/></g><defs><clipPath id="a"><path fill="#fff" d="M0 0H24V24H0z"/></clipPath></defs></svg>