<svg xmlns="http://www.w3.org/2000/svg" width="24" height="24" fill="none" viewBox="0 0 24 24"><g clip-path="url(#a)"><path fill="currentColor" d="M20.9648 12C20.9648 7.04877 16.9512 3.03516 12 3.03516C7.04877 3.03516 3.03516 7.04877 3.03516 12C3.03516 16.9512 7.04877 20.9648 12 20.9648C16.9512 20.9648 20.9648 16.9512 20.9648 12ZM16 13.9648C16.5716 13.9648 17.0352 14.4284 17.0352 15C17.0352 15.5716 16.5716 16.0352 16 16.0352H8C7.42839 16.0352 6.96484 15.5716 6.96484 15C6.96484 14.4284 7.42839 13.9648 8 13.9648H16ZM9 7.46484C9.84776 7.46484 10.5352 8.15224 10.5352 9C10.5352 9.84776 9.84776 10.5352 9 10.5352C8.15224 10.5352 7.46484 9.84776 7.46484 9C7.46484 8.15224 8.15224 7.46484 9 7.46484ZM15 7.46484C15.8478 7.46484 16.5352 8.15224 16.5352 9C16.5352 9.84776 15.8478 10.5352 15 10.5352C14.1522 10.5352 13.4648 9.84776 13.4648 9C13.4648 8.15224 14.1522 7.46484 15 7.46484ZM23.0352 12C23.0352 18.0945 18.0945 23.0352 12 23.0352C5.90554 23.0352 0.964844 18.0945 0.964844 12C0.964844 5.90554 5.90554 0.964844 12 0.964844C18.0945 0.964844 23.0352 5.90554 23.0352 12Z"/></g><defs><clipPath id="a"><path fill="#fff" d="M0 0H24V24H0z"/></clipPath></defs></svg>