<svg xmlns="http://www.w3.org/2000/svg" width="24" height="24" fill="none" viewBox="0 0 24 24"><g clip-path="url(#a)"><path fill="currentColor" d="M20.9648 12C20.9648 7.04877 16.9512 3.03516 12 3.03516C7.04877 3.03516 3.03516 7.04877 3.03516 12C3.03516 16.9512 7.04877 20.9648 12 20.9648C16.9512 20.9648 20.9648 16.9512 20.9648 12ZM7.37891 13.1719C7.83453 12.8302 8.48029 12.9211 8.82422 13.374C8.82438 13.3742 8.82624 13.3763 8.8291 13.3799C8.83486 13.3872 8.84599 13.4015 8.8623 13.4209C8.89503 13.4599 8.94803 13.521 9.02051 13.5967C9.16664 13.7492 9.38642 13.9562 9.6709 14.1631C10.2441 14.58 11.0352 14.9648 12 14.9648C12.9648 14.9648 13.7559 14.58 14.3291 14.1631C14.6136 13.9562 14.8334 13.7492 14.9795 13.5967C15.052 13.521 15.105 13.4599 15.1377 13.4209C15.154 13.4015 15.1651 13.3872 15.1709 13.3799C15.1738 13.3763 15.1756 13.3742 15.1758 13.374C15.5197 12.9211 16.1655 12.8302 16.6211 13.1719C17.0784 13.5148 17.1711 14.1638 16.8281 14.6211L16 14L16.8271 14.6221L16.8262 14.624C16.8253 14.6251 16.8243 14.6266 16.8232 14.6279C16.8212 14.6306 16.8183 14.634 16.8154 14.6377C16.8098 14.645 16.8025 14.6542 16.7939 14.665C16.7766 14.687 16.753 14.7159 16.7236 14.751C16.6646 14.8214 16.5806 14.9167 16.4736 15.0283C16.2604 15.2508 15.9488 15.5439 15.5459 15.8369C14.7441 16.42 13.5351 17.0352 12 17.0352C10.4649 17.0352 9.25591 16.42 8.4541 15.8369C8.05121 15.5439 7.73958 15.2508 7.52637 15.0283C7.41937 14.9167 7.33545 14.8214 7.27637 14.751C7.24696 14.7159 7.22344 14.687 7.20605 14.665C7.19747 14.6542 7.19019 14.645 7.18457 14.6377C7.18175 14.634 7.17882 14.6306 7.17676 14.6279C7.17573 14.6266 7.17467 14.6251 7.17383 14.624L7.17285 14.6221C7.1726 14.6217 7.172 14.621 8 14L7.17188 14.6211C6.82891 14.1638 6.92161 13.5148 7.37891 13.1719ZM9.19727 8.58594C9.55822 8.14293 10.2102 8.07672 10.6533 8.4375C11.0965 8.79844 11.1636 9.45034 10.8027 9.89355C10.2368 10.5884 9.41467 11.0352 8.5 11.0352C7.57505 11.0352 6.77777 10.5798 6.20996 9.9082C5.84093 9.47167 5.8955 8.81825 6.33203 8.44922C6.76856 8.08047 7.4211 8.13583 7.79004 8.57227C8.0422 8.87052 8.29506 8.96484 8.5 8.96484C8.71533 8.96484 8.97319 8.86106 9.19727 8.58594ZM16.1973 8.58594C16.5582 8.14293 17.2102 8.07672 17.6533 8.4375C18.0965 8.79844 18.1636 9.45034 17.8027 9.89355C17.2368 10.5884 16.4147 11.0352 15.5 11.0352C14.5751 11.0352 13.7778 10.5798 13.21 9.9082C12.8409 9.47167 12.8955 8.81825 13.332 8.44922C13.7686 8.08048 14.4211 8.13583 14.79 8.57227C15.0422 8.87052 15.2951 8.96484 15.5 8.96484C15.7153 8.96484 15.9732 8.86106 16.1973 8.58594ZM23.0352 12C23.0352 18.0945 18.0945 23.0352 12 23.0352C5.90554 23.0352 0.964844 18.0945 0.964844 12C0.964844 5.90554 5.90554 0.964844 12 0.964844C18.0945 0.964844 23.0352 5.90554 23.0352 12Z"/></g><defs><clipPath id="a"><path fill="#fff" d="M0 0H24V24H0z"/></clipPath></defs></svg>