<svg xmlns="http://www.w3.org/2000/svg" width="24" height="24" fill="none" viewBox="0 0 24 24"><path fill="currentColor" d="M9.96477 7.56274C9.96477 6.98311 9.96303 6.6168 9.94035 6.35767C9.73163 6.5129 9.45739 6.75593 9.02434 7.14087L4.03215 11.5774C3.79679 11.7866 3.66274 11.9066 3.57316 11.9993C3.66271 12.092 3.79631 12.2125 4.03215 12.4221L9.02434 16.8596C9.45681 17.244 9.73175 17.4856 9.94035 17.6409C9.96291 17.3818 9.96477 17.0155 9.96477 16.4368V7.56274ZM20.9648 7.56274C20.9648 6.98311 20.963 6.6168 20.9404 6.35767C20.7316 6.5129 20.4574 6.75593 20.0243 7.14087L15.0321 11.5774C14.7968 11.7866 14.6627 11.9066 14.5732 11.9993C14.6627 12.092 14.7963 12.2125 15.0321 12.4221L20.0243 16.8596C20.4568 17.244 20.7317 17.4856 20.9404 17.6409C20.9629 17.3818 20.9648 17.0155 20.9648 16.4368V7.56274ZM12.0351 16.4368C12.0351 16.981 12.0355 17.4606 12.0019 17.8352C11.9705 18.1844 11.8965 18.6717 11.5702 19.0676C11.1667 19.5572 10.5577 19.8305 9.92375 19.8069C9.41106 19.7877 8.99761 19.5193 8.71574 19.3108C8.41346 19.0871 8.05595 18.7679 7.64934 18.4065L2.65715 13.969C2.4381 13.7743 2.22393 13.5857 2.05949 13.4124C1.88773 13.2313 1.69712 12.9937 1.58488 12.6741C1.43167 12.2377 1.43167 11.7618 1.58488 11.3254C1.69717 11.0059 1.88776 10.7682 2.05949 10.5872C2.22398 10.4138 2.43805 10.2253 2.65715 10.0305L7.64934 5.59302C8.05595 5.23158 8.41347 4.91236 8.71574 4.68872C8.99761 4.48021 9.41106 4.21279 9.92375 4.1936L10.1601 4.19849C10.6286 4.23552 11.0702 4.43351 11.4091 4.75903L11.5702 4.93286L11.6806 5.08521C11.9138 5.44834 11.9744 5.85876 12.0019 6.16431C12.0356 6.53893 12.0351 7.01843 12.0351 7.56274V16.4368ZM23.0351 16.4368C23.0351 16.981 23.0355 17.4606 23.0019 17.8352C22.9705 18.1844 22.8965 18.6717 22.5702 19.0676C22.1667 19.5572 21.5577 19.8305 20.9237 19.8069C20.4111 19.7877 19.9976 19.5193 19.7157 19.3108C19.4135 19.0871 19.0559 18.7679 18.6493 18.4065L13.6571 13.969C13.4381 13.7743 13.2239 13.5857 13.0595 13.4124C12.8877 13.2313 12.6971 12.9937 12.5849 12.6741C12.4317 12.2377 12.4317 11.7618 12.5849 11.3254L12.6308 11.2092C12.7449 10.9474 12.9093 10.7455 13.0595 10.5872C13.224 10.4138 13.4381 10.2253 13.6571 10.0305L18.6493 5.59302C19.056 5.23158 19.4135 4.91236 19.7157 4.68872C19.9976 4.48021 20.4111 4.21279 20.9237 4.1936L21.1601 4.19849C21.6286 4.23552 22.0702 4.43351 22.4091 4.75903L22.5702 4.93286L22.6806 5.08521C22.9138 5.44834 22.9744 5.85876 23.0019 6.16431C23.0356 6.53893 23.0351 7.01843 23.0351 7.56274V16.4368Z"/></svg>