<svg xmlns="http://www.w3.org/2000/svg" width="24" height="24" fill="none" viewBox="0 0 24 24"><path fill="currentColor" d="M3.26367 4.21115C3.6899 4.27809 4.03658 4.50626 4.2832 4.68869C4.58557 4.91236 4.94379 5.23139 5.35059 5.59298L10.3418 10.0305C10.5608 10.2251 10.775 10.4138 10.9395 10.5871C11.0897 10.7455 11.255 10.9473 11.3691 11.2092L11.415 11.3254L11.4648 11.4914C11.5653 11.8807 11.549 12.2923 11.415 12.674C11.3028 12.9938 11.1113 13.2312 10.9395 13.4123C10.775 13.5857 10.5609 13.7742 10.3418 13.969L5.35059 18.4065C4.94371 18.7681 4.58562 19.087 4.2832 19.3108C4.00135 19.5193 3.58884 19.7876 3.07617 19.8069C2.44217 19.8306 1.83324 19.5571 1.42969 19.0676C1.10342 18.6717 1.02946 18.1844 0.998047 17.8352C0.964377 17.4606 0.964844 16.9809 0.964844 16.4367V7.56271C0.964844 7.01838 0.964343 6.5389 0.998047 6.16427C1.02946 5.81509 1.10344 5.32876 1.42969 4.93283C1.83324 4.4431 2.44204 4.16984 3.07617 4.19357L3.26367 4.21115ZM14.2637 4.21115C14.6899 4.27809 15.0366 4.50626 15.2832 4.68869C15.5856 4.91236 15.9438 5.23139 16.3506 5.59298L21.3418 10.0305C21.5608 10.2251 21.775 10.4138 21.9395 10.5871C22.0897 10.7455 22.255 10.9473 22.3691 11.2092L22.415 11.3254L22.4648 11.4914C22.5653 11.8807 22.549 12.2923 22.415 12.674C22.3028 12.9938 22.1113 13.2312 21.9395 13.4123C21.775 13.5857 21.5609 13.7742 21.3418 13.969L16.3506 18.4065C15.9437 18.7681 15.5856 19.087 15.2832 19.3108C15.0013 19.5193 14.5888 19.7876 14.0762 19.8069C13.4422 19.8306 12.8332 19.5571 12.4297 19.0676C12.1034 18.6717 12.0295 18.1844 11.998 17.8352C11.9644 17.4606 11.9648 16.9809 11.9648 16.4367V7.56271C11.9648 7.01838 11.9643 6.5389 11.998 6.16427C12.0295 5.81509 12.1034 5.32876 12.4297 4.93283L12.5898 4.759C12.9854 4.3789 13.5213 4.1728 14.0762 4.19357L14.2637 4.21115ZM3.03516 16.4367C3.03516 17.0154 3.03604 17.3818 3.05859 17.6408C3.26728 17.4856 3.54272 17.2444 3.97559 16.8596L8.9668 12.4221C9.20213 12.2129 9.33522 12.0919 9.4248 11.9992C9.33522 11.9067 9.20152 11.786 8.9668 11.5774L3.97559 7.14084C3.54224 6.75564 3.26737 6.51285 3.05859 6.35763C3.03592 6.61676 3.03516 6.98312 3.03516 7.56271V16.4367ZM14.0352 16.4367C14.0352 17.0154 14.036 17.3818 14.0586 17.6408C14.2673 17.4856 14.5427 17.2444 14.9756 16.8596L19.9668 12.4221C20.2021 12.2129 20.3352 12.0919 20.4248 11.9992C20.3352 11.9067 20.2015 11.786 19.9668 11.5774L14.9756 7.14084C14.5422 6.75564 14.2674 6.51285 14.0586 6.35763C14.0359 6.61676 14.0352 6.98312 14.0352 7.56271V16.4367Z"/></svg>