<svg xmlns="http://www.w3.org/2000/svg" width="24" height="24" fill="none" viewBox="0 0 24 24"><path fill="currentColor" d="M10.2675 3.27944C12.9507 0.840449 17.0491 0.840449 19.7323 3.27944C19.8609 3.39633 20.0009 3.53826 20.2313 3.76869C20.4619 3.99922 20.6037 4.14006 20.7206 4.26869C23.1593 6.95191 23.1595 11.0495 20.7206 13.7326C20.6037 13.8612 20.4618 14.0011 20.2313 14.2316L15.2001 19.2638C15.0621 19.4019 14.8787 19.5949 14.6493 19.7355C14.4672 19.8471 14.2681 19.9288 14.0605 19.9787C13.7986 20.0415 13.5321 20.0353 13.3368 20.0353H6.59951C6.33687 20.0353 6.07776 20.0355 5.85928 20.0177C5.74768 20.0086 5.62546 19.9932 5.49795 19.964L2.73135 22.7316C2.32716 23.1358 1.67265 23.1358 1.26846 22.7316C0.864302 22.3274 0.864278 21.6729 1.26846 21.2687L4.03506 18.5011C4.00609 18.3742 3.99142 18.2529 3.98233 18.1417C3.96447 17.9232 3.96475 17.6634 3.96475 17.4005V10.6632C3.96475 10.4679 3.95855 10.2014 4.02139 9.93959L4.06436 9.78529C4.11374 9.63336 4.18089 9.48725 4.26455 9.35072C4.40517 9.12134 4.59818 8.93798 4.73623 8.79994L9.76846 3.76869C9.9989 3.53826 10.1389 3.39633 10.2675 3.27944ZM7.49795 17.965H13.3368C13.4588 17.965 13.5234 17.9648 13.5692 17.963C13.6029 17.9319 13.649 17.8871 13.7362 17.7999L15.5009 16.0353H9.42764L7.49795 17.965ZM6.03506 16.5021L15.2685 7.26869C15.6726 6.86455 16.3272 6.86455 16.7313 7.26869C17.1355 7.67287 17.1355 8.32739 16.7313 8.73158L11.498 13.965H17.5722L18.7685 12.7687C19.0156 12.5215 19.113 12.4229 19.1884 12.34C20.9097 10.4463 20.9097 7.55399 19.1884 5.66029C19.113 5.57742 19.0156 5.47869 18.7685 5.23158C18.5213 4.98443 18.4226 4.88702 18.3397 4.81166C16.4461 3.09033 13.5538 3.09033 11.6601 4.81166C11.5772 4.88702 11.4785 4.98443 11.2313 5.23158L6.2001 10.2638C6.11295 10.351 6.0672 10.3961 6.03604 10.4298C6.03427 10.4757 6.03506 10.5403 6.03506 10.6632V16.5021Z"/></svg>