<svg xmlns="http://www.w3.org/2000/svg" width="24" height="24" fill="none" viewBox="0 0 24 24"><path fill="currentColor" d="M10.9648 16.5352H8.5C7.13862 16.5352 6.03516 17.6386 6.03516 19C6.03516 20.3614 7.13862 21.4648 8.5 21.4648C9.86138 21.4648 10.9648 20.3614 10.9648 19V16.5352ZM17.9648 12C17.9648 10.6386 16.8614 9.53516 15.5 9.53516C14.1386 9.53516 13.0352 10.6386 13.0352 12L13.0479 12.252C13.1741 13.495 14.2237 14.4648 15.5 14.4648C16.8614 14.4648 17.9648 13.3614 17.9648 12ZM6.03516 12C6.03516 13.3614 7.13862 14.4648 8.5 14.4648H10.9648V9.53516H8.5C7.13862 9.53516 6.03516 10.6386 6.03516 12ZM17.9648 5C17.9648 3.63862 16.8614 2.53516 15.5 2.53516H13.0352V7.46484H15.5C16.8614 7.46484 17.9648 6.36138 17.9648 5ZM6.03516 5C6.03516 6.36138 7.13862 7.46484 8.5 7.46484H10.9648V2.53516H8.5C7.13862 2.53516 6.03516 3.63862 6.03516 5ZM20.0352 5C20.0352 6.40949 19.3915 7.66822 18.3828 8.5C19.3915 9.33178 20.0352 10.5905 20.0352 12C20.0352 14.5046 18.0046 16.5352 15.5 16.5352C14.5908 16.5352 13.7449 16.2663 13.0352 15.8057V19C13.0352 21.5046 11.0046 23.5352 8.5 23.5352C5.99539 23.5352 3.96484 21.5046 3.96484 19C3.96484 17.5908 4.60785 16.3318 5.61621 15.5C4.60785 14.6682 3.96484 13.4092 3.96484 12C3.96484 10.5908 4.60785 9.33178 5.61621 8.5C4.60785 7.66822 3.96484 6.40922 3.96484 5C3.96484 2.49539 5.99539 0.464844 8.5 0.464844H15.5C18.0046 0.464844 20.0352 2.49539 20.0352 5Z"/></svg>