<svg xmlns="http://www.w3.org/2000/svg" width="24" height="24" fill="none" viewBox="0 0 24 24"><path fill="currentColor" d="M18.4453 21.9346C18.1637 22.0688 17.8363 22.0688 17.5547 21.9346L18 21L18.4453 21.9346ZM19.9648 15.6514L18.4639 15.1162L18.4629 15.1152C18.1631 15.008 17.8349 15.0079 17.5352 15.1152V15.1162L16.0352 15.6514V17.4248C16.0352 18.0143 16.468 18.6419 17.1631 19.2217C17.4589 19.4684 17.7599 19.6692 18 19.8154C18.2401 19.6692 18.5411 19.4684 18.8369 19.2217C19.532 18.6419 19.9648 18.0143 19.9648 17.4248V15.6514ZM10 13.9648C10.5716 13.9648 11.0352 14.4284 11.0352 15C11.0352 15.5716 10.5716 16.0352 10 16.0352H8C7.42839 16.0352 6.96484 15.5716 6.96484 15C6.96484 14.4284 7.42839 13.9648 8 13.9648H10ZM14 9.96484C14.5716 9.96484 15.0352 10.4284 15.0352 11C15.0352 11.5716 14.5716 12.0352 14 12.0352H8C7.42839 12.0352 6.96484 11.5716 6.96484 11C6.96484 10.4284 7.42839 9.96484 8 9.96484H14ZM18.9648 10V6.7998C18.9648 5.94287 18.9643 5.36234 18.9277 4.91406C18.8921 4.47781 18.8277 4.25806 18.751 4.10742C18.5626 3.73794 18.2621 3.43737 17.8926 3.24902C17.7419 3.17227 17.5222 3.10791 17.0859 3.07227C16.6377 3.03565 16.0571 3.03516 15.2002 3.03516H8.7998C7.94287 3.03516 7.36234 3.03565 6.91406 3.07227C6.47781 3.10791 6.25807 3.17227 6.10742 3.24902C5.73794 3.43737 5.43737 3.73794 5.24902 4.10742C5.17227 4.25807 5.10791 4.47781 5.07227 4.91406C5.03565 5.36234 5.03516 5.94287 5.03516 6.7998V17.2002C5.03516 18.0571 5.03565 18.6377 5.07227 19.0859C5.10791 19.5222 5.17227 19.7419 5.24902 19.8926C5.43737 20.2621 5.73794 20.5626 6.10742 20.751C6.25806 20.8277 6.47781 20.8921 6.91406 20.9277C7.36234 20.9643 7.94287 20.9648 8.7998 20.9648H12.5C13.0716 20.9648 13.5352 21.4284 13.5352 22C13.5352 22.5716 13.0716 23.0352 12.5 23.0352H8.7998C7.97689 23.0352 7.29725 23.0353 6.74512 22.9902C6.18095 22.9441 5.65899 22.8449 5.16797 22.5947C4.409 22.2079 3.79208 21.591 3.40527 20.832C3.15509 20.341 3.05588 19.8191 3.00977 19.2549C2.96465 18.7027 2.96484 18.0231 2.96484 17.2002V6.7998C2.96484 5.97689 2.96465 5.29725 3.00977 4.74512C3.05588 4.18095 3.15509 3.65899 3.40527 3.16797C3.79208 2.409 4.409 1.79208 5.16797 1.40527C5.65899 1.15509 6.18095 1.05588 6.74512 1.00977C7.29725 0.964654 7.97689 0.964844 8.7998 0.964844H15.2002C16.0231 0.964844 16.7027 0.964654 17.2549 1.00977C17.8191 1.05588 18.341 1.15509 18.832 1.40527C19.591 1.79208 20.2079 2.409 20.5947 3.16797C20.8449 3.65899 20.9441 4.18095 20.9902 4.74512C21.0353 5.29725 21.0352 5.97689 21.0352 6.7998V10C21.0352 10.5716 20.5716 11.0352 20 11.0352C19.4284 11.0352 18.9648 10.5716 18.9648 10ZM16 5.96484C16.5716 5.96484 17.0352 6.42839 17.0352 7C17.0352 7.57161 16.5716 8.03516 16 8.03516H8C7.42839 8.03516 6.96484 7.57161 6.96484 7C6.96484 6.42839 7.42839 5.96484 8 5.96484H16ZM22.0352 17.4248C22.0352 18.9801 20.9679 20.1401 20.1631 20.8115C19.7349 21.1687 19.3114 21.4451 18.998 21.6318C18.8405 21.7257 18.708 21.7991 18.6123 21.8496C18.5644 21.8749 18.5253 21.8951 18.4971 21.9092C18.4831 21.9162 18.4715 21.9216 18.4629 21.9258C18.4586 21.9279 18.455 21.9303 18.4521 21.9316C18.4509 21.9323 18.4492 21.9321 18.4482 21.9326L18.4463 21.9336L18 21L17.5537 21.9336L17.5518 21.9326C17.5508 21.9321 17.5491 21.9323 17.5479 21.9316C17.545 21.9303 17.5414 21.9279 17.5371 21.9258C17.5285 21.9216 17.5169 21.9162 17.5029 21.9092C17.4747 21.8951 17.4356 21.8749 17.3877 21.8496C17.292 21.7991 17.1595 21.7257 17.002 21.6318C16.6886 21.4451 16.2651 21.1687 15.8369 20.8115C15.0321 20.1401 13.9648 18.9801 13.9648 17.4248V14.9229C13.9649 14.4856 14.2397 14.0955 14.6514 13.9482L16.8369 13.167L17.1221 13.0781C17.7928 12.9016 18.5039 12.9316 19.1611 13.167L21.3486 13.9482C21.7603 14.0955 22.0351 14.4856 22.0352 14.9229V17.4248Z"/></svg>