<svg xmlns="http://www.w3.org/2000/svg" width="24" height="24" fill="none" viewBox="0 0 24 24"><path fill="currentColor" d="M21 15.9648C21.5716 15.9648 22.0352 16.4284 22.0352 17C22.0352 17.5716 21.5716 18.0352 21 18.0352H15C14.4284 18.0352 13.9648 17.5716 13.9648 17C13.9648 16.4284 14.4284 15.9648 15 15.9648H21ZM18.9648 11.9414V6.7998C18.9648 5.94287 18.9643 5.36234 18.9277 4.91406C18.8921 4.47781 18.8277 4.25806 18.751 4.10742C18.5626 3.73794 18.2621 3.43737 17.8926 3.24902C17.7419 3.17227 17.5222 3.10791 17.0859 3.07227C16.6377 3.03565 16.0571 3.03516 15.2002 3.03516H8.7998C7.94287 3.03516 7.36234 3.03565 6.91406 3.07227C6.47781 3.10791 6.25807 3.17227 6.10742 3.24902C5.73794 3.43737 5.43737 3.73794 5.24902 4.10742C5.17227 4.25807 5.10791 4.47781 5.07227 4.91406C5.03565 5.36234 5.03516 5.94287 5.03516 6.7998V17.2002C5.03516 18.0571 5.03565 18.6377 5.07227 19.0859C5.10791 19.5222 5.17227 19.7419 5.24902 19.8926C5.43737 20.2621 5.73794 20.5626 6.10742 20.751C6.25806 20.8277 6.47781 20.8921 6.91406 20.9277C7.36234 20.9643 7.94287 20.9648 8.7998 20.9648H14C14.5716 20.9648 15.0352 21.4284 15.0352 22C15.0352 22.5716 14.5716 23.0352 14 23.0352H8.7998C7.97689 23.0352 7.29725 23.0353 6.74512 22.9902C6.18095 22.9441 5.65899 22.8449 5.16797 22.5947C4.409 22.2079 3.79208 21.591 3.40527 20.832C3.15509 20.341 3.05588 19.8191 3.00977 19.2549C2.96465 18.7027 2.96484 18.0231 2.96484 17.2002V6.7998C2.96484 5.97689 2.96465 5.29725 3.00977 4.74512C3.05588 4.18095 3.15509 3.65899 3.40527 3.16797C3.79208 2.409 4.409 1.79208 5.16797 1.40527C5.65899 1.15509 6.18095 1.05588 6.74512 1.00977C7.29725 0.964654 7.97689 0.964844 8.7998 0.964844H15.2002C16.0231 0.964844 16.7027 0.964654 17.2549 1.00977C17.8191 1.05588 18.341 1.15509 18.832 1.40527C19.591 1.79208 20.2079 2.409 20.5947 3.16797C20.8449 3.65899 20.9441 4.18095 20.9902 4.74512C21.0353 5.29725 21.0352 5.97689 21.0352 6.7998V11.9414C21.035 12.5129 20.5715 12.9766 20 12.9766C19.4285 12.9766 18.965 12.5129 18.9648 11.9414Z"/></svg>