<svg xmlns="http://www.w3.org/2000/svg" width="24" height="24" fill="none" viewBox="0 0 24 24"><path fill="currentColor" d="M2.96484 17.2003V6.79988C2.96484 5.97696 2.96465 5.29732 3.00977 4.74519C3.05588 4.18102 3.15509 3.65906 3.40527 3.16804C3.79208 2.40907 4.409 1.79215 5.16797 1.40535C5.65899 1.15516 6.18095 1.05595 6.74512 1.00984C7.29725 0.964726 7.97689 0.964915 8.7998 0.964915H12.0117C12.6962 0.964915 13.2072 0.958144 13.6992 1.07624C13.9286 1.13132 14.1515 1.20891 14.3672 1.30281C14.4129 1.32017 14.4567 1.34095 14.499 1.36433C14.6238 1.42408 14.747 1.48719 14.8652 1.55964C15.2967 1.82404 15.6537 2.18994 16.1377 2.6739L19.3262 5.86238C19.8101 6.34633 20.176 6.70338 20.4404 7.13484C20.5127 7.25284 20.5761 7.37561 20.6357 7.50007C20.6588 7.54174 20.6791 7.58502 20.6963 7.62995C20.7908 7.84648 20.8685 8.07044 20.9238 8.30085C21.0419 8.79289 21.0352 9.30392 21.0352 9.98835V17.2003C21.0352 18.0232 21.0353 18.7028 20.9902 19.255C20.9441 19.8191 20.8449 20.3411 20.5947 20.8321C20.2079 21.5911 19.591 22.208 18.832 22.5948C18.341 22.845 17.8191 22.9442 17.2549 22.9903C16.7027 23.0354 16.0231 23.0352 15.2002 23.0352H8.7998C7.97689 23.0352 7.29725 23.0354 6.74512 22.9903C6.18095 22.9442 5.65899 22.845 5.16797 22.5948C4.409 22.208 3.79208 21.5911 3.40527 20.8321C3.15509 20.3411 3.05588 19.8191 3.00977 19.255C2.96465 18.7028 2.96484 18.0232 2.96484 17.2003ZM9.26855 11.7686C9.67275 11.3644 10.3273 11.3644 10.7314 11.7686C11.1356 12.1728 11.1356 12.8273 10.7314 13.2315L8.96289 15.0001L10.7314 16.7686C11.1356 17.1728 11.1356 17.8273 10.7314 18.2315C10.3273 18.6357 9.67275 18.6357 9.26855 18.2315L6.76855 15.7315C6.36436 15.3273 6.36436 14.6728 6.76855 14.2686L9.26855 11.7686ZM13.2686 11.7686C13.6727 11.3644 14.3273 11.3644 14.7314 11.7686L17.2314 14.2686C17.6356 14.6728 17.6356 15.3273 17.2314 15.7315L14.7314 18.2315C14.3273 18.6357 13.6727 18.6357 13.2686 18.2315C12.8644 17.8273 12.8644 17.1728 13.2686 16.7686L15.0371 15.0001L13.2686 13.2315C12.8644 12.8273 12.8644 12.1728 13.2686 11.7686ZM5.03516 17.2003C5.03516 18.0572 5.03565 18.6377 5.07227 19.086C5.10791 19.5223 5.17227 19.742 5.24902 19.8927C5.43737 20.2621 5.73794 20.5627 6.10742 20.751C6.25807 20.8278 6.47781 20.8922 6.91406 20.9278C7.36234 20.9644 7.94287 20.9649 8.7998 20.9649H15.2002C16.0571 20.9649 16.6377 20.9644 17.0859 20.9278C17.5222 20.8922 17.7419 20.8278 17.8926 20.751C18.2621 20.5627 18.5626 20.2621 18.751 19.8927C18.8277 19.742 18.8921 19.5223 18.9277 19.086C18.9643 18.6377 18.9648 18.0572 18.9648 17.2003V9.98835C18.9648 9.48931 18.9606 9.21789 18.9463 9.03523H15.5996C15.337 9.03523 15.0779 9.03547 14.8594 9.01765C14.6287 8.9988 14.3533 8.95473 14.0762 8.81355C13.6933 8.61845 13.3816 8.30681 13.1865 7.9239C13.0455 7.64698 13.0013 7.37228 12.9824 7.14167C12.9646 6.92309 12.9648 6.6633 12.9648 6.40046V3.05378C12.7822 3.03949 12.5108 3.03523 12.0117 3.03523H8.7998C7.94287 3.03523 7.36234 3.03572 6.91406 3.07234C6.47781 3.10798 6.25807 3.17234 6.10742 3.2491C5.73794 3.43744 5.43737 3.73801 5.24902 4.10749C5.17227 4.25814 5.10791 4.47788 5.07227 4.91413C5.03565 5.36241 5.03516 5.94295 5.03516 6.79988V17.2003ZM15.0352 6.40046C15.0352 6.68258 15.0358 6.84154 15.0439 6.95515C15.1576 6.96334 15.3166 6.96491 15.5996 6.96492H17.501L15.0352 4.4991V6.40046Z"/></svg>