<svg xmlns="http://www.w3.org/2000/svg" width="24" height="24" fill="none" viewBox="0 0 24 24"><path fill="currentColor" d="M18.6602 19.9648C19.2317 19.9649 19.6953 20.4284 19.6953 21C19.6953 21.5716 19.2317 22.0351 18.6602 22.0352H18.6504C18.0788 22.0352 17.6152 21.5716 17.6152 21C17.6152 20.4284 18.0788 19.9648 18.6504 19.9648H18.6602ZM16.957 12.918C17.6255 12.5251 18.4116 12.3816 19.1758 12.5127C19.94 12.6438 20.6335 13.0406 21.1328 13.6338C21.6319 14.2267 21.9052 14.977 21.9043 15.752L21.8936 15.9902C21.7856 17.153 20.9048 17.9085 20.3193 18.2988C19.9755 18.528 19.639 18.6962 19.3926 18.8057C19.268 18.861 19.1625 18.9025 19.0859 18.9316C19.0476 18.9462 19.0164 18.9585 18.9932 18.9668C18.9815 18.9709 18.9714 18.974 18.9639 18.9766C18.9602 18.9778 18.9567 18.9786 18.9541 18.9795C18.9529 18.9799 18.9521 18.9811 18.9512 18.9814H18.9492C18.9489 18.9815 18.9484 18.9818 18.6211 18L18.9482 18.9814C18.406 19.1622 17.8194 18.8694 17.6387 18.3271C17.4582 17.7852 17.7512 17.1996 18.293 17.0186C18.2945 17.018 18.297 17.0166 18.2998 17.0156C18.3094 17.0122 18.3262 17.0066 18.3486 16.998C18.395 16.9804 18.4658 16.9523 18.5518 16.9141C18.7269 16.8362 18.9527 16.7226 19.1709 16.5771C19.6702 16.2443 19.8338 15.9519 19.834 15.752V15.75C19.8344 15.4635 19.7333 15.186 19.5488 14.9668C19.3643 14.7478 19.1084 14.6012 18.8262 14.5527C18.5438 14.5043 18.2529 14.557 18.0059 14.7021C17.7589 14.8473 17.5716 15.0755 17.4766 15.3457C17.2869 15.8849 16.6955 16.1682 16.1562 15.9785C15.6174 15.7888 15.3341 15.1982 15.5234 14.6592C15.7807 13.9279 16.2887 13.3109 16.957 12.918ZM18.9648 9.5V6.7998C18.9648 5.94287 18.9643 5.36234 18.9277 4.91406C18.8921 4.47781 18.8277 4.25806 18.751 4.10742C18.5626 3.73794 18.2621 3.43737 17.8926 3.24902C17.7419 3.17227 17.5222 3.10791 17.0859 3.07227C16.6377 3.03565 16.0571 3.03516 15.2002 3.03516H8.7998C7.94287 3.03516 7.36234 3.03565 6.91406 3.07227C6.47781 3.10791 6.25807 3.17227 6.10742 3.24902C5.73794 3.43737 5.43737 3.73794 5.24902 4.10742C5.17227 4.25807 5.10791 4.47781 5.07227 4.91406C5.03565 5.36234 5.03516 5.94287 5.03516 6.7998V17.2002C5.03516 18.0571 5.03565 18.6377 5.07227 19.0859C5.10791 19.5222 5.17227 19.7419 5.24902 19.8926C5.43737 20.2621 5.73794 20.5626 6.10742 20.751C6.25806 20.8277 6.47781 20.8921 6.91406 20.9277C7.36234 20.9643 7.94287 20.9648 8.7998 20.9648H14C14.5716 20.9648 15.0352 21.4284 15.0352 22C15.0352 22.5716 14.5716 23.0352 14 23.0352H8.7998C7.97689 23.0352 7.29725 23.0353 6.74512 22.9902C6.18095 22.9441 5.65899 22.8449 5.16797 22.5947C4.409 22.2079 3.79208 21.591 3.40527 20.832C3.15509 20.341 3.05588 19.8191 3.00977 19.2549C2.96465 18.7027 2.96484 18.0231 2.96484 17.2002V6.7998C2.96484 5.97689 2.96465 5.29725 3.00977 4.74512C3.05588 4.18095 3.15509 3.65899 3.40527 3.16797C3.79208 2.409 4.409 1.79208 5.16797 1.40527C5.65899 1.15509 6.18095 1.05588 6.74512 1.00977C7.29725 0.964654 7.97689 0.964844 8.7998 0.964844H15.2002C16.0231 0.964844 16.7027 0.964654 17.2549 1.00977C17.8191 1.05588 18.341 1.15509 18.832 1.40527C19.591 1.79208 20.2079 2.409 20.5947 3.16797C20.8449 3.65899 20.9441 4.18095 20.9902 4.74512C21.0353 5.29725 21.0352 5.97689 21.0352 6.7998V9.5C21.0352 10.0716 20.5716 10.5352 20 10.5352C19.4284 10.5352 18.9648 10.0716 18.9648 9.5Z"/></svg>