<svg xmlns="http://www.w3.org/2000/svg" width="24" height="24" fill="none" viewBox="0 0 24 24"><path fill="currentColor" d="M2.96484 17.2002V6.7998C2.96484 5.97689 2.96465 5.29725 3.00977 4.74512C3.05588 4.18095 3.15509 3.65899 3.40527 3.16797C3.79208 2.409 4.409 1.79208 5.16797 1.40527C5.65899 1.15509 6.18095 1.05588 6.74512 1.00977C7.29725 0.964654 7.97689 0.964844 8.7998 0.964844H14L14.1025 0.969727C14.3394 0.993292 14.5617 1.09877 14.7314 1.26855L20.7314 7.26855C20.9255 7.46265 21.0352 7.7255 21.0352 8V17.2002C21.0352 18.0231 21.0353 18.7027 20.9902 19.2549C20.9441 19.8191 20.8449 20.341 20.5947 20.832C20.2079 21.591 19.591 22.2079 18.832 22.5947C18.341 22.8449 17.8191 22.9441 17.2549 22.9902C16.7027 23.0353 16.0231 23.0352 15.2002 23.0352H8.7998C7.97689 23.0352 7.29725 23.0353 6.74512 22.9902C6.18095 22.9441 5.65899 22.8449 5.16797 22.5947C4.409 22.2079 3.79208 21.591 3.40527 20.832C3.15509 20.341 3.05588 19.8191 3.00977 19.2549C2.96465 18.7027 2.96484 18.0231 2.96484 17.2002ZM8.2002 10.7129C9.39463 9.72069 10.8803 9.78744 11.9961 10.4883C13.1098 9.78765 14.5825 9.73398 15.7832 10.7041C17.2524 11.8913 17.4337 13.942 16.2969 15.3643C15.8404 15.9352 14.8998 16.8135 14.1406 17.4971C13.7474 17.8512 13.3794 18.1736 13.1104 18.4072C12.976 18.5239 12.8659 18.6187 12.7891 18.6846C12.7506 18.7175 12.7198 18.7441 12.6992 18.7617C12.6891 18.7703 12.6811 18.7767 12.6758 18.7812C12.6731 18.7836 12.6714 18.7859 12.6699 18.7871L12.668 18.7881V18.7891C12.3057 19.0968 11.7835 19.116 11.4014 18.8467L11.3271 18.7891L11.3252 18.7871C11.3237 18.7859 11.3211 18.7836 11.3184 18.7812C11.313 18.7767 11.305 18.7703 11.2949 18.7617C11.2743 18.7441 11.2445 18.7175 11.2061 18.6846C11.1292 18.6187 11.0185 18.5241 10.8838 18.4072C10.6147 18.1737 10.2467 17.8511 9.85352 17.4971C9.09433 16.8134 8.15362 15.9352 7.69727 15.3643C6.55096 13.9302 6.77333 11.8982 8.2002 10.7129ZM11.2197 12.5146C10.7277 11.9554 10.0255 11.8887 9.52344 12.3057C8.9463 12.7851 8.88707 13.5365 9.31445 14.0713C9.64495 14.4848 10.4495 15.2478 11.2393 15.959C11.5121 16.2047 11.7746 16.4332 11.9971 16.6279C12.2196 16.4331 12.4829 16.2048 12.7559 15.959C13.5456 15.2479 14.3502 14.4847 14.6807 14.0713C15.1172 13.5247 15.0514 12.7744 14.4824 12.3145C13.9524 11.8862 13.2588 11.9641 12.7744 12.5146C12.5779 12.7379 12.2945 12.8652 11.9971 12.8652C11.6997 12.8652 11.4162 12.7379 11.2197 12.5146ZM5.03516 17.2002C5.03516 18.0571 5.03565 18.6377 5.07227 19.0859C5.10791 19.5222 5.17227 19.7419 5.24902 19.8926C5.43737 20.2621 5.73794 20.5626 6.10742 20.751C6.25807 20.8277 6.47781 20.8921 6.91406 20.9277C7.36234 20.9643 7.94287 20.9648 8.7998 20.9648H15.2002C16.0571 20.9648 16.6377 20.9643 17.0859 20.9277C17.5222 20.8921 17.7419 20.8277 17.8926 20.751C18.2621 20.5626 18.5626 20.2621 18.751 19.8926C18.8277 19.7419 18.8921 19.5222 18.9277 19.0859C18.9643 18.6377 18.9648 18.0571 18.9648 17.2002V9.03516H15.5996C15.337 9.03516 15.0779 9.0354 14.8594 9.01758C14.6287 8.99873 14.3533 8.95466 14.0762 8.81348C13.6933 8.61837 13.3816 8.30674 13.1865 7.92383C13.0455 7.64691 13.0013 7.3722 12.9824 7.1416C12.9646 6.92301 12.9648 6.66323 12.9648 6.40039V3.03516H8.7998C7.94287 3.03516 7.36234 3.03565 6.91406 3.07227C6.47781 3.10791 6.25807 3.17227 6.10742 3.24902C5.73794 3.43737 5.43737 3.73794 5.24902 4.10742C5.17227 4.25807 5.10791 4.47781 5.07227 4.91406C5.03565 5.36234 5.03516 5.94287 5.03516 6.7998V17.2002ZM15.0352 6.40039C15.0352 6.6825 15.0358 6.84147 15.0439 6.95508C15.1576 6.96327 15.3166 6.96484 15.5996 6.96484H17.502L15.0352 4.49805V6.40039Z"/></svg>