<svg xmlns="http://www.w3.org/2000/svg" width="24" height="24" fill="none" viewBox="0 0 24 24"><path fill="currentColor" d="M19.9648 18.5996C19.9648 18.3166 19.9633 18.1576 19.9551 18.0439C19.8415 18.0358 19.6825 18.0352 19.4004 18.0352H15.5996C15.3167 18.0352 15.1576 18.0358 15.0439 18.0439C15.0358 18.1576 15.0352 18.3167 15.0352 18.5996V19.4004C15.0352 19.6825 15.0358 19.8415 15.0439 19.9551C15.1576 19.9633 15.3166 19.9648 15.5996 19.9648H19.4004C19.6826 19.9648 19.8415 19.9632 19.9551 19.9551C19.9632 19.8415 19.9648 19.6826 19.9648 19.4004V18.5996ZM18.9648 10V6.7998C18.9648 5.94287 18.9643 5.36234 18.9277 4.91406C18.8921 4.47781 18.8277 4.25806 18.751 4.10742C18.5626 3.73794 18.2621 3.43737 17.8926 3.24902C17.7419 3.17227 17.5222 3.10791 17.0859 3.07227C16.6377 3.03565 16.0571 3.03516 15.2002 3.03516H8.7998C7.94287 3.03516 7.36234 3.03565 6.91406 3.07227C6.47781 3.10791 6.25807 3.17227 6.10742 3.24902C5.73794 3.43737 5.43737 3.73794 5.24902 4.10742C5.17227 4.25807 5.10791 4.47781 5.07227 4.91406C5.03565 5.36234 5.03516 5.94287 5.03516 6.7998V17.2002C5.03516 18.0571 5.03565 18.6377 5.07227 19.0859C5.10791 19.5222 5.17227 19.7419 5.24902 19.8926C5.43737 20.2621 5.73794 20.5626 6.10742 20.751C6.25806 20.8277 6.47781 20.8921 6.91406 20.9277C7.36234 20.9643 7.94287 20.9648 8.7998 20.9648H10.5C11.0716 20.9648 11.5352 21.4284 11.5352 22C11.5352 22.5716 11.0716 23.0352 10.5 23.0352H8.7998C7.97689 23.0352 7.29725 23.0353 6.74512 22.9902C6.18095 22.9441 5.65899 22.8449 5.16797 22.5947C4.409 22.2079 3.79208 21.591 3.40527 20.832C3.15509 20.341 3.05588 19.8191 3.00977 19.2549C2.96465 18.7027 2.96484 18.0231 2.96484 17.2002V6.7998C2.96484 5.97689 2.96465 5.29725 3.00977 4.74512C3.05588 4.18095 3.15509 3.65899 3.40527 3.16797C3.79208 2.409 4.409 1.79208 5.16797 1.40527C5.65899 1.15509 6.18095 1.05588 6.74512 1.00977C7.29725 0.964654 7.97689 0.964844 8.7998 0.964844H15.2002C16.0231 0.964844 16.7027 0.964654 17.2549 1.00977C17.8191 1.05588 18.341 1.15509 18.832 1.40527C19.591 1.79208 20.2079 2.409 20.5947 3.16797C20.8449 3.65899 20.9441 4.18095 20.9902 4.74512C21.0353 5.29725 21.0352 5.97689 21.0352 6.7998V10C21.0352 10.5716 20.5716 11.0352 20 11.0352C19.4284 11.0352 18.9648 10.5716 18.9648 10ZM18.2148 15.25C18.2148 14.8551 17.8949 14.5352 17.5 14.5352C17.1051 14.5352 16.7852 14.8551 16.7852 15.25V15.9648H18.2148V15.25ZM20.2852 15.998C20.4823 16.0237 20.7024 16.0737 20.9238 16.1865C21.2587 16.3572 21.5389 16.617 21.7344 16.9355L21.8135 17.0762L21.9023 17.2832C21.9753 17.4881 22.0034 17.6864 22.0176 17.8594C22.0354 18.0779 22.0352 18.337 22.0352 18.5996V19.4004C22.0352 19.663 22.0354 19.9221 22.0176 20.1406C21.9987 20.3713 21.9546 20.6467 21.8135 20.9238C21.6184 21.3067 21.3067 21.6184 20.9238 21.8135C20.6467 21.9546 20.3713 21.9987 20.1406 22.0176C19.9221 22.0354 19.663 22.0352 19.4004 22.0352H15.5996C15.337 22.0352 15.0779 22.0354 14.8594 22.0176C14.6287 21.9987 14.3533 21.9546 14.0762 21.8135C13.6933 21.6184 13.3816 21.3067 13.1865 20.9238C13.0454 20.6467 13.0013 20.3713 12.9824 20.1406C12.9646 19.9221 12.9648 19.663 12.9648 19.4004V18.5996C12.9648 18.337 12.9646 18.0779 12.9824 17.8594C13.0013 17.6287 13.0454 17.3533 13.1865 17.0762L13.2656 16.9355C13.4611 16.617 13.7413 16.3572 14.0762 16.1865L14.2832 16.0977C14.4332 16.0443 14.5795 16.0157 14.7148 15.998V15.25C14.7148 13.7119 15.9619 12.4648 17.5 12.4648C19.0381 12.4648 20.2852 13.7119 20.2852 15.25V15.998Z"/></svg>