<svg xmlns="http://www.w3.org/2000/svg" width="24" height="24" fill="none" viewBox="0 0 24 24"><path fill="currentColor" d="M14.4648 15.5996C14.4648 15.3166 14.4633 15.1576 14.4551 15.0439C14.3415 15.0358 14.1825 15.0352 13.9004 15.0352H10.0996C9.81668 15.0352 9.65762 15.0358 9.54395 15.0439C9.53576 15.1576 9.53516 15.3167 9.53516 15.5996V16.4004C9.53516 16.6825 9.53582 16.8415 9.54395 16.9551C9.65762 16.9633 9.81662 16.9648 10.0996 16.9648H13.9004C14.1826 16.9648 14.3415 16.9632 14.4551 16.9551C14.4632 16.8415 14.4648 16.6826 14.4648 16.4004V15.5996ZM15.0352 6.96484H17.502L15.0352 4.49805V6.96484ZM12.7148 12.25C12.7148 11.8551 12.3949 11.5352 12 11.5352C11.6051 11.5352 11.2852 11.8551 11.2852 12.25V12.9648H12.7148V12.25ZM14.7852 12.998C14.9823 13.0237 15.2024 13.0737 15.4238 13.1865C15.7587 13.3572 16.0389 13.617 16.2344 13.9355L16.3135 14.0762L16.4023 14.2832C16.4753 14.4881 16.5034 14.6864 16.5176 14.8594C16.5354 15.0779 16.5352 15.337 16.5352 15.5996V16.4004C16.5352 16.663 16.5354 16.9221 16.5176 17.1406C16.4987 17.3713 16.4546 17.6467 16.3135 17.9238C16.1184 18.3067 15.8067 18.6184 15.4238 18.8135C15.1467 18.9546 14.8713 18.9987 14.6406 19.0176C14.4221 19.0354 14.163 19.0352 13.9004 19.0352H10.0996C9.83696 19.0352 9.57785 19.0354 9.35938 19.0176C9.12866 18.9987 8.8533 18.9546 8.57617 18.8135C8.19326 18.6184 7.88163 18.3067 7.68652 17.9238C7.54535 17.6467 7.50127 17.3713 7.48242 17.1406C7.4646 16.9221 7.46484 16.663 7.46484 16.4004V15.5996C7.46484 15.337 7.4646 15.0779 7.48242 14.8594C7.50127 14.6287 7.54535 14.3533 7.68652 14.0762L7.76562 13.9355C7.96114 13.617 8.24128 13.3572 8.57617 13.1865L8.7832 13.0977C8.93318 13.0443 9.07946 13.0157 9.21484 12.998V12.25C9.21484 10.7119 10.4619 9.46484 12 9.46484C13.5381 9.46484 14.7852 10.7119 14.7852 12.25V12.998ZM21.0352 17.2002C21.0352 18.0231 21.0353 18.7027 20.9902 19.2549C20.9441 19.8191 20.8449 20.341 20.5947 20.832C20.2079 21.591 19.591 22.2079 18.832 22.5947C18.341 22.8449 17.8191 22.9441 17.2549 22.9902C16.7027 23.0353 16.0231 23.0352 15.2002 23.0352H8.7998C7.97689 23.0352 7.29725 23.0353 6.74512 22.9902C6.18095 22.9441 5.65899 22.8449 5.16797 22.5947C4.409 22.2079 3.79208 21.591 3.40527 20.832C3.15509 20.341 3.05588 19.8191 3.00977 19.2549C2.96465 18.7027 2.96484 18.0231 2.96484 17.2002V6.7998C2.96484 5.97689 2.96465 5.29725 3.00977 4.74512C3.05588 4.18095 3.15509 3.65899 3.40527 3.16797C3.79208 2.409 4.409 1.79208 5.16797 1.40527C5.65899 1.15509 6.18095 1.05588 6.74512 1.00977C7.29725 0.964654 7.97689 0.964844 8.7998 0.964844H14L14.1025 0.969727C14.3394 0.993292 14.5617 1.09877 14.7314 1.26855L20.7314 7.26855C20.9255 7.46265 21.0352 7.7255 21.0352 8V17.2002ZM5.03516 17.2002C5.03516 18.0571 5.03565 18.6377 5.07227 19.0859C5.10791 19.5222 5.17227 19.7419 5.24902 19.8926C5.43737 20.2621 5.73794 20.5626 6.10742 20.751C6.25807 20.8277 6.47781 20.8921 6.91406 20.9277C7.36234 20.9643 7.94287 20.9648 8.7998 20.9648H15.2002C16.0571 20.9648 16.6377 20.9643 17.0859 20.9277C17.5222 20.8921 17.7419 20.8277 17.8926 20.751C18.2621 20.5626 18.5626 20.2621 18.751 19.8926C18.8277 19.7419 18.8921 19.5222 18.9277 19.0859C18.9643 18.6377 18.9648 18.0571 18.9648 17.2002V9.03516H14C13.4284 9.03516 12.9648 8.57161 12.9648 8V3.03516H8.7998C7.94287 3.03516 7.36234 3.03565 6.91406 3.07227C6.47781 3.10791 6.25807 3.17227 6.10742 3.24902C5.73794 3.43737 5.43737 3.73794 5.24902 4.10742C5.17227 4.25807 5.10791 4.47781 5.07227 4.91406C5.03565 5.36234 5.03516 5.94287 5.03516 6.7998V17.2002Z"/></svg>