<svg xmlns="http://www.w3.org/2000/svg" width="24" height="24" fill="none" viewBox="0 0 24 24"><path fill="currentColor" d="M13.2002 13.7129C14.3946 12.7207 15.8803 12.7874 16.9961 13.4883C18.1098 12.7877 19.5825 12.734 20.7832 13.7041C22.2524 14.8913 22.4337 16.942 21.2969 18.3643C20.8404 18.9352 19.8998 19.8135 19.1406 20.4971C18.7474 20.8512 18.3794 21.1736 18.1104 21.4072C17.976 21.5239 17.8659 21.6187 17.7891 21.6846C17.7506 21.7175 17.7198 21.7441 17.6992 21.7617C17.6891 21.7703 17.6811 21.7767 17.6758 21.7812C17.6731 21.7836 17.6714 21.7859 17.6699 21.7871L17.668 21.7881V21.7891C17.3057 22.0968 16.7835 22.116 16.4014 21.8467L16.3271 21.7891L16.3252 21.7871C16.3237 21.7859 16.3211 21.7836 16.3184 21.7812C16.313 21.7767 16.305 21.7703 16.2949 21.7617C16.2743 21.7441 16.2445 21.7175 16.2061 21.6846C16.1292 21.6187 16.0185 21.5241 15.8838 21.4072C15.6147 21.1737 15.2467 20.8511 14.8535 20.4971C14.0943 19.8134 13.1536 18.9352 12.6973 18.3643C11.551 16.9302 11.7733 14.8982 13.2002 13.7129ZM16.2197 15.5146C15.7277 14.9554 15.0255 14.8887 14.5234 15.3057C13.9463 15.7851 13.8871 16.5365 14.3145 17.0713C14.6449 17.4848 15.4495 18.2478 16.2393 18.959C16.5121 19.2047 16.7746 19.4332 16.9971 19.6279C17.2196 19.4331 17.4829 19.2048 17.7559 18.959C18.5456 18.2479 19.3502 17.4847 19.6807 17.0713C20.1172 16.5247 20.0514 15.7744 19.4824 15.3145C18.9524 14.8862 18.2588 14.9641 17.7744 15.5146C17.5779 15.7379 17.2945 15.8652 16.9971 15.8652C16.6997 15.8652 16.4162 15.7379 16.2197 15.5146ZM9 13.9648C9.57161 13.9648 10.0352 14.4284 10.0352 15C10.0352 15.5716 9.57161 16.0352 9 16.0352H8C7.42839 16.0352 6.96484 15.5716 6.96484 15C6.96484 14.4284 7.42839 13.9648 8 13.9648H9ZM12.5 9.96484C13.0716 9.96484 13.5352 10.4284 13.5352 11C13.5352 11.5716 13.0716 12.0352 12.5 12.0352H8C7.42839 12.0352 6.96484 11.5716 6.96484 11C6.96484 10.4284 7.42839 9.96484 8 9.96484H12.5ZM18.9648 10V6.7998C18.9648 5.94287 18.9643 5.36234 18.9277 4.91406C18.8921 4.47781 18.8277 4.25806 18.751 4.10742C18.5626 3.73794 18.2621 3.43737 17.8926 3.24902C17.7419 3.17227 17.5222 3.10791 17.0859 3.07227C16.6377 3.03565 16.0571 3.03516 15.2002 3.03516H8.7998C7.94287 3.03516 7.36234 3.03565 6.91406 3.07227C6.47781 3.10791 6.25807 3.17227 6.10742 3.24902C5.73794 3.43737 5.43737 3.73794 5.24902 4.10742C5.17227 4.25807 5.10791 4.47781 5.07227 4.91406C5.03565 5.36234 5.03516 5.94287 5.03516 6.7998V17.2002C5.03516 18.0571 5.03565 18.6377 5.07227 19.0859C5.10791 19.5222 5.17227 19.7419 5.24902 19.8926C5.43737 20.2621 5.73794 20.5626 6.10742 20.751C6.25806 20.8277 6.47781 20.8921 6.91406 20.9277C7.36234 20.9643 7.94287 20.9648 8.7998 20.9648H12C12.5716 20.9648 13.0352 21.4284 13.0352 22C13.0352 22.5716 12.5716 23.0352 12 23.0352H8.7998C7.97689 23.0352 7.29725 23.0353 6.74512 22.9902C6.18095 22.9441 5.65899 22.8449 5.16797 22.5947C4.409 22.2079 3.79208 21.591 3.40527 20.832C3.15509 20.341 3.05588 19.8191 3.00977 19.2549C2.96465 18.7027 2.96484 18.0231 2.96484 17.2002V6.7998C2.96484 5.97689 2.96465 5.29725 3.00977 4.74512C3.05588 4.18095 3.15509 3.65899 3.40527 3.16797C3.79208 2.409 4.409 1.79208 5.16797 1.40527C5.65899 1.15509 6.18095 1.05588 6.74512 1.00977C7.29725 0.964654 7.97689 0.964844 8.7998 0.964844H15.2002C16.0231 0.964844 16.7027 0.964654 17.2549 1.00977C17.8191 1.05588 18.341 1.15509 18.832 1.40527C19.591 1.79208 20.2079 2.409 20.5947 3.16797C20.8449 3.65899 20.9441 4.18095 20.9902 4.74512C21.0353 5.29725 21.0352 5.97689 21.0352 6.7998V10C21.0352 10.5716 20.5716 11.0352 20 11.0352C19.4284 11.0352 18.9648 10.5716 18.9648 10ZM16 5.96484C16.5716 5.96484 17.0352 6.42839 17.0352 7C17.0352 7.57161 16.5716 8.03516 16 8.03516H8C7.42839 8.03516 6.96484 7.57161 6.96484 7C6.96484 6.42839 7.42839 5.96484 8 5.96484H16Z"/></svg>