<svg xmlns="http://www.w3.org/2000/svg" width="24" height="24" fill="none" viewBox="0 0 24 24"><path fill="currentColor" d="M12.4453 18.9346C12.1637 19.0688 11.8363 19.0688 11.5547 18.9346L12 18L12.4453 18.9346ZM13.9648 12.6514L12.4639 12.1162L12.4629 12.1152C12.1631 12.008 11.8349 12.0079 11.5352 12.1152V12.1162L10.0352 12.6514V14.4248C10.0352 15.0143 10.468 15.6419 11.1631 16.2217C11.4589 16.4684 11.7599 16.6692 12 16.8154C12.2401 16.6692 12.5411 16.4684 12.8369 16.2217C13.532 15.6419 13.9648 15.0143 13.9648 14.4248V12.6514ZM15.0352 6.96484H17.502L15.0352 4.49805V6.96484ZM16.0352 14.4248C16.0352 15.9801 14.9679 17.1402 14.1631 17.8115C13.7349 18.1687 13.3114 18.4451 12.998 18.6318C12.8405 18.7257 12.708 18.7991 12.6123 18.8496C12.5644 18.8749 12.5253 18.8951 12.4971 18.9092C12.4831 18.9162 12.4715 18.9216 12.4629 18.9258C12.4586 18.9279 12.455 18.9303 12.4521 18.9316C12.4509 18.9323 12.4492 18.9321 12.4482 18.9326L12.4463 18.9336L12 18L11.5537 18.9336L11.5518 18.9326C11.5508 18.9321 11.5491 18.9323 11.5479 18.9316C11.545 18.9303 11.5414 18.9279 11.5371 18.9258C11.5285 18.9216 11.5169 18.9162 11.5029 18.9092C11.4747 18.8951 11.4356 18.8749 11.3877 18.8496C11.292 18.7991 11.1595 18.7257 11.002 18.6318C10.6886 18.4451 10.2651 18.1687 9.83691 17.8115C9.03207 17.1402 7.96484 15.9801 7.96484 14.4248V11.9229C7.96486 11.4856 8.23971 11.0955 8.65137 10.9482L10.8369 10.167L11.1221 10.0781C11.7928 9.90156 12.5039 9.9316 13.1611 10.167L15.3486 10.9482C15.7603 11.0955 16.0351 11.4856 16.0352 11.9229V14.4248ZM21.0352 17.2002C21.0352 18.0231 21.0353 18.7027 20.9902 19.2549C20.9441 19.8191 20.8449 20.341 20.5947 20.832C20.2079 21.591 19.591 22.2079 18.832 22.5947C18.341 22.8449 17.8191 22.9441 17.2549 22.9902C16.7027 23.0353 16.0231 23.0352 15.2002 23.0352H8.7998C7.97689 23.0352 7.29725 23.0353 6.74512 22.9902C6.18095 22.9441 5.65899 22.8449 5.16797 22.5947C4.409 22.2079 3.79208 21.591 3.40527 20.832C3.15509 20.341 3.05588 19.8191 3.00977 19.2549C2.96465 18.7027 2.96484 18.0231 2.96484 17.2002V6.7998C2.96484 5.97689 2.96465 5.29725 3.00977 4.74512C3.05588 4.18095 3.15509 3.65899 3.40527 3.16797C3.79208 2.409 4.409 1.79208 5.16797 1.40527C5.65899 1.15509 6.18095 1.05588 6.74512 1.00977C7.29725 0.964654 7.97689 0.964844 8.7998 0.964844H14L14.1025 0.969727C14.3394 0.993292 14.5617 1.09877 14.7314 1.26855L20.7314 7.26855C20.9255 7.46265 21.0352 7.7255 21.0352 8V17.2002ZM5.03516 17.2002C5.03516 18.0571 5.03565 18.6377 5.07227 19.0859C5.10791 19.5222 5.17227 19.7419 5.24902 19.8926C5.43737 20.2621 5.73794 20.5626 6.10742 20.751C6.25807 20.8277 6.47781 20.8921 6.91406 20.9277C7.36234 20.9643 7.94287 20.9648 8.7998 20.9648H15.2002C16.0571 20.9648 16.6377 20.9643 17.0859 20.9277C17.5222 20.8921 17.7419 20.8277 17.8926 20.751C18.2621 20.5626 18.5626 20.2621 18.751 19.8926C18.8277 19.7419 18.8921 19.5222 18.9277 19.0859C18.9643 18.6377 18.9648 18.0571 18.9648 17.2002V9.03516H14C13.4284 9.03516 12.9648 8.57161 12.9648 8V3.03516H8.7998C7.94287 3.03516 7.36234 3.03565 6.91406 3.07227C6.47781 3.10791 6.25807 3.17227 6.10742 3.24902C5.73794 3.43737 5.43737 3.73794 5.24902 4.10742C5.17227 4.25807 5.10791 4.47781 5.07227 4.91406C5.03565 5.36234 5.03516 5.94287 5.03516 6.7998V17.2002Z"/></svg>