<svg xmlns="http://www.w3.org/2000/svg" width="24" height="24" fill="none" viewBox="0 0 24 24"><path fill="currentColor" d="M2.96484 17.2002V6.7998C2.96484 5.97689 2.96465 5.29725 3.00977 4.74512C3.05588 4.18095 3.15509 3.65899 3.40527 3.16797C3.79208 2.409 4.409 1.79208 5.16797 1.40527C5.65899 1.15509 6.18095 1.05588 6.74512 1.00977C7.29725 0.964654 7.97689 0.964844 8.7998 0.964844H14L14.1025 0.969727C14.3394 0.993292 14.5617 1.09877 14.7314 1.26855L20.7314 7.26855C20.9255 7.46265 21.0352 7.7255 21.0352 8V17.2002C21.0352 18.0231 21.0353 18.7027 20.9902 19.2549C20.9441 19.8191 20.8449 20.341 20.5947 20.832C20.2079 21.591 19.591 22.2079 18.832 22.5947C18.341 22.8449 17.8191 22.9441 17.2549 22.9902C16.7027 23.0353 16.0231 23.0352 15.2002 23.0352H8.7998C7.97689 23.0352 7.29725 23.0353 6.74512 22.9902C6.18095 22.9441 5.65899 22.8449 5.16797 22.5947C4.409 22.2079 3.79208 21.591 3.40527 20.832C3.15509 20.341 3.05588 19.8191 3.00977 19.2549C2.96465 18.7027 2.96484 18.0231 2.96484 17.2002ZM15 13.9648C15.5716 13.9648 16.0352 14.4284 16.0352 15C16.0352 15.5716 15.5716 16.0352 15 16.0352H9C8.42839 16.0352 7.96484 15.5716 7.96484 15C7.96484 14.4284 8.42839 13.9648 9 13.9648H15ZM5.03516 17.2002C5.03516 18.0571 5.03565 18.6377 5.07227 19.0859C5.10791 19.5222 5.17227 19.7419 5.24902 19.8926C5.43737 20.2621 5.73794 20.5626 6.10742 20.751C6.25807 20.8277 6.47781 20.8921 6.91406 20.9277C7.36234 20.9643 7.94287 20.9648 8.7998 20.9648H15.2002C16.0571 20.9648 16.6377 20.9643 17.0859 20.9277C17.5222 20.8921 17.7419 20.8277 17.8926 20.751C18.2621 20.5626 18.5626 20.2621 18.751 19.8926C18.8277 19.7419 18.8921 19.5222 18.9277 19.0859C18.9643 18.6377 18.9648 18.0571 18.9648 17.2002V9.03516H15.5996C15.337 9.03516 15.0779 9.0354 14.8594 9.01758C14.6287 8.99873 14.3533 8.95466 14.0762 8.81348C13.6933 8.61837 13.3816 8.30674 13.1865 7.92383C13.0455 7.64691 13.0013 7.3722 12.9824 7.1416C12.9646 6.92301 12.9648 6.66323 12.9648 6.40039V3.03516H8.7998C7.94287 3.03516 7.36234 3.03565 6.91406 3.07227C6.47781 3.10791 6.25807 3.17227 6.10742 3.24902C5.73794 3.43737 5.43737 3.73794 5.24902 4.10742C5.17227 4.25807 5.10791 4.47781 5.07227 4.91406C5.03565 5.36234 5.03516 5.94287 5.03516 6.7998V17.2002ZM15.0352 6.40039C15.0352 6.6825 15.0358 6.84147 15.0439 6.95508C15.1576 6.96327 15.3166 6.96484 15.5996 6.96484H17.502L15.0352 4.49805V6.40039Z"/></svg>