<svg xmlns="http://www.w3.org/2000/svg" width="24" height="24" fill="none" viewBox="0 0 24 24"><path fill="currentColor" d="M4.26857 8.76863C4.67276 8.36443 5.32727 8.36443 5.73146 8.76863C6.13565 9.17282 6.13565 9.82732 5.73146 10.2315L3.9629 12.0001L5.73146 13.7686C6.13565 14.1728 6.13565 14.8273 5.73146 15.2315C5.32727 15.6357 4.67276 15.6357 4.26857 15.2315L1.76857 12.7315C1.36438 12.3273 1.36438 11.6728 1.76857 11.2686L4.26857 8.76863ZM8.26857 8.76863C8.67276 8.36443 9.32727 8.36443 9.73146 8.76863L12.2315 11.2686C12.6357 11.6728 12.6357 12.3273 12.2315 12.7315L9.73146 15.2315C9.32727 15.6357 8.67276 15.6357 8.26857 15.2315C7.86438 14.8273 7.86438 14.1728 8.26857 13.7686L10.0371 12.0001L8.26857 10.2315C7.86438 9.82732 7.86438 9.17282 8.26857 8.76863ZM3.96486 5.50007C3.96486 5.06867 3.96329 4.75281 4.00001 4.4737C4.23839 2.66306 5.66301 1.23845 7.47365 1.00007C7.75275 0.963352 8.06861 0.964915 8.50001 0.964915H13.0117C13.6962 0.964915 14.2072 0.958144 14.6992 1.07624C15.1108 1.17506 15.5043 1.3385 15.8652 1.55964C16.2967 1.82404 16.6538 2.18994 17.1377 2.6739L20.3262 5.86238C20.8101 6.34633 21.176 6.70338 21.4404 7.13484C21.6616 7.49577 21.825 7.88925 21.9238 8.30085C22.0419 8.79289 22.0352 9.30392 22.0352 9.98835V17.2003C22.0352 18.0232 22.0354 18.7028 21.9902 19.255C21.9441 19.8191 21.8449 20.3411 21.5947 20.8321C21.2079 21.5911 20.591 22.208 19.832 22.5948C19.341 22.845 18.8191 22.9442 18.2549 22.9903C17.7028 23.0354 17.0231 23.0352 16.2002 23.0352H8.50001C8.06861 23.0352 7.75275 23.0368 7.47365 23.0001C5.66301 22.7617 4.23839 21.3371 4.00001 19.5264C3.96329 19.2473 3.96486 18.9315 3.96486 18.5001C3.96486 17.9285 4.4284 17.4649 5.00001 17.4649C5.57163 17.4649 6.03517 17.9285 6.03517 18.5001C6.03517 18.9974 6.03719 19.1462 6.05177 19.2569C6.16798 20.1384 6.86169 20.8321 7.74318 20.9483C7.85392 20.9629 8.0027 20.9649 8.50001 20.9649H16.2002C17.0571 20.9649 17.6377 20.9644 18.086 20.9278C18.5222 20.8922 18.7419 20.8278 18.8926 20.751C19.2621 20.5627 19.5626 20.2621 19.751 19.8927C19.8277 19.742 19.8921 19.5223 19.9277 19.086C19.9644 18.6377 19.9649 18.0572 19.9649 17.2003V9.98835C19.9649 9.20576 19.9587 8.98261 19.9111 8.78425C19.863 8.58378 19.7835 8.39169 19.6758 8.21589C19.5692 8.0419 19.4159 7.87982 18.8623 7.32624L15.6738 4.13777C15.1203 3.58418 14.9582 3.43091 14.7842 3.32429C14.6084 3.21657 14.4163 3.13707 14.2158 3.08894C14.0175 3.04137 13.7943 3.03523 13.0117 3.03523H8.50001C8.0027 3.03523 7.85391 3.03725 7.74318 3.05183C6.86169 3.16803 6.16798 3.86175 6.05177 4.74324C6.03719 4.85397 6.03517 5.00275 6.03517 5.50007C6.03517 6.07169 5.57163 6.53523 5.00001 6.53523C4.4284 6.53523 3.96486 6.07169 3.96486 5.50007Z"/></svg>