<svg xmlns="http://www.w3.org/2000/svg" width="24" height="24" fill="none" viewBox="0 0 24 24"><path fill="currentColor" d="M2.96484 17.2003V6.79988C2.96484 5.97696 2.96465 5.29732 3.00977 4.74519C3.05588 4.18102 3.15509 3.65906 3.40527 3.16804C3.79208 2.40907 4.409 1.79215 5.16797 1.40535C5.65899 1.15516 6.18095 1.05595 6.74512 1.00984C7.29725 0.964726 7.97689 0.964915 8.7998 0.964915H12.0117C12.6962 0.964915 13.2072 0.958144 13.6992 1.07624C13.9286 1.13132 14.1515 1.20891 14.3672 1.30281C14.4129 1.32017 14.4567 1.34094 14.499 1.36433C14.6238 1.42408 14.747 1.48719 14.8652 1.55964C15.2967 1.82404 15.6537 2.18994 16.1377 2.6739L19.3262 5.86238C19.8101 6.34633 20.176 6.70338 20.4404 7.13484C20.5127 7.25284 20.5761 7.37561 20.6357 7.50007C20.6592 7.54237 20.6799 7.58625 20.6973 7.63191C20.7913 7.84782 20.8687 8.07115 20.9238 8.30085C21.0419 8.79289 21.0352 9.30392 21.0352 9.98835V17.2003C21.0352 18.0232 21.0353 18.7028 20.9902 19.255C20.9441 19.8191 20.8449 20.3411 20.5947 20.8321C20.2079 21.5911 19.591 22.208 18.832 22.5948C18.341 22.845 17.8191 22.9442 17.2549 22.9903C16.7027 23.0354 16.0231 23.0352 15.2002 23.0352H8.7998C7.97689 23.0352 7.29725 23.0354 6.74512 22.9903C6.18095 22.9442 5.65899 22.845 5.16797 22.5948C4.409 22.208 3.79208 21.5911 3.40527 20.8321C3.15509 20.3411 3.05588 19.8191 3.00977 19.255C2.96465 18.7028 2.96484 18.0232 2.96484 17.2003ZM5.03516 17.2003C5.03516 18.0572 5.03565 18.6377 5.07227 19.086C5.10791 19.5223 5.17227 19.742 5.24902 19.8927C5.43737 20.2621 5.73794 20.5627 6.10742 20.751C6.25807 20.8278 6.47781 20.8922 6.91406 20.9278C7.36234 20.9644 7.94287 20.9649 8.7998 20.9649H15.2002C16.0571 20.9649 16.6377 20.9644 17.0859 20.9278C17.5222 20.8922 17.7419 20.8278 17.8926 20.751C18.2621 20.5627 18.5626 20.2621 18.751 19.8927C18.8277 19.742 18.8921 19.5223 18.9277 19.086C18.9643 18.6377 18.9648 18.0572 18.9648 17.2003V9.98835C18.9648 9.48931 18.9606 9.21789 18.9463 9.03523H15.5996C15.337 9.03523 15.0779 9.03547 14.8594 9.01765C14.6287 8.9988 14.3533 8.95472 14.0762 8.81355C13.6933 8.61845 13.3816 8.30681 13.1865 7.9239C13.0454 7.64677 13.0013 7.37141 12.9824 7.1407C12.9646 6.92222 12.9648 6.66311 12.9648 6.40046V3.05378C12.7822 3.03949 12.5108 3.03523 12.0117 3.03523H8.7998C7.94287 3.03523 7.36234 3.03572 6.91406 3.07234C6.47781 3.10798 6.25807 3.17234 6.10742 3.2491C5.73794 3.43744 5.43737 3.73801 5.24902 4.10749C5.17227 4.25814 5.10791 4.47788 5.07227 4.91413C5.03565 5.36241 5.03516 5.94295 5.03516 6.79988V17.2003ZM15.0352 6.40046C15.0352 6.68259 15.0358 6.84154 15.0439 6.95515C15.1576 6.96334 15.3166 6.96491 15.5996 6.96492H17.501L15.0352 4.4991V6.40046Z"/></svg>