<svg xmlns="http://www.w3.org/2000/svg" width="24" height="24" fill="none" viewBox="0 0 24 24"><g clip-path="url(#a)"><path fill="currentColor" d="M10.4004 0.964844C10.663 0.964843 10.9221 0.9646 11.1406 0.982422C11.3136 0.996555 11.5119 1.02472 11.7168 1.09766L11.9238 1.18652L12.0645 1.26563C12.3373 1.4331 12.5669 1.66266 12.7344 1.93555L12.8135 2.07617L12.9023 2.2832C12.9753 2.48814 13.0034 2.6864 13.0176 2.85938C13.0204 2.89355 13.0205 2.92882 13.0225 2.96484H17.2002C18.0231 2.96484 18.7027 2.96465 19.2549 3.00977C19.8191 3.05588 20.341 3.15509 20.832 3.40527C21.591 3.79208 22.2079 4.409 22.5947 5.16797C22.8449 5.65899 22.9441 6.18095 22.9902 6.74512C23.0181 7.0859 23.0264 7.47541 23.0303 7.91699C23.0325 7.94441 23.0352 7.97202 23.0352 8C23.0352 8.02267 23.0327 8.04507 23.0312 8.06738C23.0325 8.29775 23.0352 8.54171 23.0352 8.7998V17.2002C23.0352 17.4579 23.0325 17.7016 23.0312 17.9316C23.0327 17.9543 23.0352 17.977 23.0352 18C23.0352 18.0277 23.0324 18.0549 23.0303 18.082C23.0264 18.524 23.0181 18.9138 22.9902 19.2549C22.9441 19.8191 22.8449 20.341 22.5947 20.832C22.2079 21.591 21.591 22.2079 20.832 22.5947C20.341 22.8449 19.8191 22.9441 19.2549 22.9902C18.7027 23.0353 18.0231 23.0352 17.2002 23.0352H13.5996C13.337 23.0352 13.0779 23.0354 12.8594 23.0176C12.6287 22.9987 12.3533 22.9546 12.0762 22.8135C11.6933 22.6184 11.3816 22.3067 11.1865 21.9238C11.0454 21.6467 11.0013 21.3713 10.9824 21.1406C10.9796 21.1065 10.9795 21.0712 10.9775 21.0352H6.7998C5.97689 21.0352 5.29725 21.0353 4.74512 20.9902C4.18095 20.9441 3.65899 20.8449 3.16797 20.5947C2.409 20.2079 1.79208 19.591 1.40527 18.832C1.15509 18.341 1.05588 17.8191 1.00977 17.2549C0.981902 16.9138 0.973566 16.524 0.969727 16.082C0.967598 16.0549 0.964844 16.0277 0.964844 16C0.964844 15.977 0.967272 15.9543 0.96875 15.9316C0.967472 15.7016 0.964844 15.4579 0.964844 15.2002V6.7998C0.964844 6.54171 0.967466 6.29775 0.96875 6.06738C0.967314 6.04507 0.964844 6.02267 0.964844 6C0.964844 5.97202 0.967548 5.94441 0.969727 5.91699C0.973573 5.47541 0.981922 5.0859 1.00977 4.74512C1.05588 4.18095 1.15509 3.65899 1.40527 3.16797C1.79208 2.409 2.409 1.79208 3.16797 1.40527C3.65899 1.15509 4.18095 1.05588 4.74512 1.00977C5.29725 0.964655 5.97689 0.964844 6.7998 0.964844H10.4004ZM13.0352 20.4004C13.0352 20.6825 13.0358 20.8415 13.0439 20.9551C13.1576 20.9633 13.3166 20.9648 13.5996 20.9648H15.9648V19.0352H13.0352V20.4004ZM18.0352 20.9609C18.4633 20.9576 18.8013 20.951 19.0859 20.9277C19.5222 20.8921 19.7419 20.8277 19.8926 20.751C20.2621 20.5626 20.5626 20.2621 20.751 19.8926C20.8277 19.7419 20.8921 19.5222 20.9277 19.0859C20.9291 19.0692 20.9294 19.0522 20.9307 19.0352H18.0352V20.9609ZM8.03516 18.9648H10.9648V17.0352H8.03516V18.9648ZM3.07227 17.0859C3.10791 17.5222 3.17227 17.7419 3.24902 17.8926C3.43737 18.2621 3.73794 18.5626 4.10742 18.751C4.25807 18.8277 4.47781 18.8921 4.91406 18.9277C5.19869 18.951 5.53667 18.9576 5.96484 18.9609V17.0352H3.06934C3.0706 17.0522 3.0709 17.0692 3.07227 17.0859ZM13.0352 16.9648H20.9648V9.03516H13.0352V16.9648ZM3.03516 14.9648H10.9648V7.03516H3.03516V14.9648ZM18.0352 6.96484H20.9307C20.9294 6.94775 20.9291 6.93078 20.9277 6.91406C20.8921 6.47781 20.8277 6.25807 20.751 6.10742C20.5626 5.73794 20.2621 5.43737 19.8926 5.24902C19.7419 5.17227 19.5222 5.10791 19.0859 5.07227C18.8013 5.04902 18.4633 5.04142 18.0352 5.03809V6.96484ZM13.0352 6.96484H15.9648V5.03516H13.0352V6.96484ZM8.03516 4.96484H10.9648V3.59961C10.9648 3.31662 10.9633 3.15762 10.9551 3.04395C10.8415 3.03582 10.6825 3.03516 10.4004 3.03516H8.03516V4.96484ZM5.96484 3.03809C5.53667 3.04142 5.1987 3.04902 4.91406 3.07227C4.47781 3.10791 4.25807 3.17227 4.10742 3.24902C3.73794 3.43737 3.43737 3.73794 3.24902 4.10742C3.17227 4.25807 3.10791 4.47781 3.07227 4.91406C3.0709 4.93078 3.0706 4.94775 3.06934 4.96484H5.96484V3.03809Z"/></g><defs><clipPath id="a"><path fill="#fff" d="M0 0H24V24H0z"/></clipPath></defs></svg>