<svg xmlns="http://www.w3.org/2000/svg" width="24" height="24" fill="none" viewBox="0 0 24 24"><g clip-path="url(#a)"><path fill="currentColor" d="M17.2002 0.964844C18.0231 0.964844 18.7027 0.964654 19.2549 1.00977C19.8191 1.05588 20.341 1.15509 20.832 1.40527C21.591 1.79208 22.2079 2.409 22.5947 3.16797C22.8449 3.65899 22.9441 4.18095 22.9902 4.74512C23.0353 5.29725 23.0352 5.97689 23.0352 6.7998V17.2002C23.0352 18.0231 23.0353 18.7027 22.9902 19.2549C22.9441 19.8191 22.8449 20.341 22.5947 20.832C22.2079 21.591 21.591 22.2079 20.832 22.5947C20.341 22.8449 19.8191 22.9441 19.2549 22.9902C18.7027 23.0353 18.0231 23.0352 17.2002 23.0352H6.7998C5.97689 23.0352 5.29725 23.0353 4.74512 22.9902C4.18095 22.9441 3.65899 22.8449 3.16797 22.5947C2.409 22.2079 1.79208 21.591 1.40527 20.832C1.15509 20.341 1.05588 19.8191 1.00977 19.2549C0.964654 18.7027 0.964844 18.0231 0.964844 17.2002V6.7998C0.964844 5.97689 0.964654 5.29725 1.00977 4.74512C1.05588 4.18095 1.15509 3.65899 1.40527 3.16797C1.79208 2.409 2.409 1.79208 3.16797 1.40527C3.65899 1.15509 4.18095 1.05588 4.74512 1.00977C5.29725 0.964654 5.97689 0.964844 6.7998 0.964844H17.2002ZM8.03516 20.9648H15.9648V13.0352H8.03516V20.9648ZM3.03906 18.0352C3.0424 18.4633 3.04902 18.8013 3.07227 19.0859C3.10791 19.5222 3.17227 19.7419 3.24902 19.8926C3.43737 20.2621 3.73794 20.5626 4.10742 20.751C4.25807 20.8277 4.47781 20.8921 4.91406 20.9277C5.19869 20.951 5.53667 20.9576 5.96484 20.9609V18.0352H3.03906ZM18.0352 20.9609C18.4633 20.9576 18.8013 20.951 19.0859 20.9277C19.5222 20.8921 19.7419 20.8277 19.8926 20.751C20.2621 20.5626 20.5626 20.2621 20.751 19.8926C20.8277 19.7419 20.8921 19.5222 20.9277 19.0859C20.951 18.8013 20.9576 18.4633 20.9609 18.0352H18.0352V20.9609ZM18.0352 15.9648H20.9648V13.0352H18.0352V15.9648ZM3.03516 15.9648H5.96484V13.0352H3.03516V15.9648ZM18.0352 10.9648H20.9648V8.03516H18.0352V10.9648ZM8.03516 10.9648H15.9648V3.03516H8.03516V10.9648ZM3.03516 10.9648H5.96484V8.03516H3.03516V10.9648ZM18.0352 5.96484H20.9609C20.9576 5.53667 20.951 5.19869 20.9277 4.91406C20.8921 4.47781 20.8277 4.25807 20.751 4.10742C20.5626 3.73794 20.2621 3.43737 19.8926 3.24902C19.7419 3.17227 19.5222 3.10791 19.0859 3.07227C18.8013 3.04902 18.4633 3.04142 18.0352 3.03809V5.96484ZM5.96484 3.03809C5.53667 3.04142 5.1987 3.04902 4.91406 3.07227C4.47781 3.10791 4.25807 3.17227 4.10742 3.24902C3.73794 3.43737 3.43737 3.73794 3.24902 4.10742C3.17227 4.25807 3.10791 4.47781 3.07227 4.91406C3.04902 5.19869 3.0424 5.53667 3.03906 5.96484H5.96484V3.03809Z"/></g><defs><clipPath id="a"><path fill="#fff" d="M0 0H24V24H0z"/></clipPath></defs></svg>