<svg xmlns="http://www.w3.org/2000/svg" width="24" height="24" fill="none" viewBox="0 0 24 24"><path fill="currentColor" d="M20.9648 4.59961C20.9648 4.31662 20.9633 4.15762 20.9551 4.04395C20.8415 4.03582 20.6825 4.03516 20.4004 4.03516H3.5996C3.31667 4.03516 3.15761 4.03576 3.04393 4.04395C3.03575 4.15762 3.03515 4.31668 3.03515 4.59961V5.26953C3.03515 5.40469 3.03497 5.47571 3.0371 5.52637C3.07396 5.56114 3.12741 5.60782 3.22948 5.69629L9.62597 11.2393C9.78777 11.3795 10.0137 11.565 10.1797 11.8076C10.2783 11.9519 10.3584 12.1083 10.417 12.2725L10.4678 12.4395L10.5098 12.6533C10.539 12.8655 10.5351 13.0699 10.5351 13.2305V19.4707L13.4648 18.2988V13.2305C13.4648 13.0162 13.4574 12.7239 13.5322 12.4395L13.583 12.2725C13.6416 12.1083 13.7217 11.9519 13.8203 11.8076L13.9541 11.6367C14.0953 11.4755 14.2526 11.3445 14.374 11.2393L20.7705 5.69629C20.8721 5.60824 20.9251 5.56109 20.9619 5.52637C20.964 5.47571 20.9648 5.40473 20.9648 5.26953V4.59961ZM23.0351 5.26953C23.0351 5.48377 23.0425 5.77605 22.9678 6.06055C22.9085 6.28592 22.8112 6.50002 22.6797 6.69238C22.5137 6.93501 22.2878 7.12051 22.126 7.26074L15.7295 12.8037C15.6279 12.8918 15.5739 12.9379 15.5371 12.9727C15.5349 13.0234 15.5351 13.0944 15.5351 13.2305V18.458C15.5351 18.5709 15.551 18.8966 15.4385 19.1982C15.3529 19.4275 15.2133 19.6333 15.0322 19.7979C14.7942 20.0141 14.4869 20.1201 14.3818 20.1621L10.9814 21.5225C10.8161 21.5886 10.6268 21.6653 10.4609 21.7148C10.2922 21.7652 10.0116 21.832 9.68749 21.7646C9.29149 21.6823 8.94417 21.4465 8.72069 21.1094C8.53777 20.8334 8.49539 20.5483 8.47948 20.373C8.46383 20.2006 8.46483 19.9965 8.46483 19.8184V13.2305C8.46483 13.0944 8.46407 13.0234 8.4619 12.9727C8.42508 12.938 8.37165 12.8914 8.2705 12.8037L1.87401 7.26074C1.7122 7.12051 1.4863 6.93501 1.3203 6.69238C1.18879 6.50002 1.09145 6.28592 1.03222 6.06055C0.957444 5.77605 0.964829 5.48377 0.964833 5.26953V4.59961C0.964832 4.33696 0.964589 4.07785 0.982411 3.85938C1.00126 3.62866 1.04534 3.3533 1.18651 3.07617L1.26561 2.93555C1.46113 2.61698 1.74127 2.35716 2.07616 2.18652L2.28319 2.09766C2.48813 2.02472 2.68638 1.99656 2.85936 1.98242C3.07784 1.9646 3.33695 1.96484 3.5996 1.96484H20.4004C20.663 1.96484 20.9221 1.9646 21.1406 1.98242C21.3136 1.99656 21.5118 2.02472 21.7168 2.09766L21.9238 2.18652L22.0644 2.26563C22.3373 2.4331 22.5669 2.66266 22.7344 2.93555L22.8135 3.07617L22.9023 3.2832C22.9753 3.48814 23.0034 3.6864 23.0176 3.85938C23.0354 4.07785 23.0351 4.33696 23.0351 4.59961V5.26953Z"/></svg>