<svg xmlns="http://www.w3.org/2000/svg" width="24" height="24" fill="none" viewBox="0 0 24 24"><path fill="currentColor" d="M13.4648 13.1113C13.4648 12.9306 13.4594 12.6844 13.5137 12.4404L13.5508 12.2959C13.5935 12.1538 13.6519 12.0164 13.7246 11.8867C13.8468 11.6688 14.0152 11.4892 14.1357 11.3545L19.8418 4.97656C20.2297 4.54296 20.4743 4.26775 20.6308 4.05859C20.3706 4.03588 20.0023 4.03516 19.4209 4.03516H4.57812C3.9964 4.03516 3.62841 4.03584 3.36815 4.05859C3.52473 4.26776 3.76917 4.54286 4.15722 4.97656L9.86327 11.3545C9.98376 11.4892 10.1521 11.6688 10.2744 11.8867C10.3471 12.0164 10.4055 12.1538 10.4482 12.2959L10.4863 12.4404L10.5166 12.6221C10.5379 12.803 10.5351 12.9756 10.5351 13.1113V19.4707L13.4648 18.2988V13.1113ZM15.5351 18.458C15.5351 18.5709 15.55 18.8966 15.4375 19.1982C15.3519 19.4274 15.2133 19.6333 15.0322 19.7979C14.7939 20.0143 14.4857 20.1202 14.3808 20.1621L10.9814 21.5225C10.8161 21.5886 10.6269 21.6653 10.4609 21.7148C10.2923 21.7652 10.0117 21.832 9.68749 21.7646C9.29144 21.6823 8.9442 21.4465 8.72069 21.1094C8.53772 20.8334 8.4954 20.5483 8.47948 20.373C8.46383 20.2006 8.46483 19.9965 8.46483 19.8184V13.1113C8.46483 12.9971 8.46442 12.9378 8.46288 12.8955C8.43586 12.8631 8.39667 12.8186 8.32128 12.7344L2.61425 6.35742C2.24981 5.95011 1.92847 5.59159 1.70312 5.28906C1.49336 5.00746 1.22361 4.59459 1.20312 4.08106C1.1779 3.44608 1.45042 2.83529 1.94042 2.43066L2.09276 2.31934C2.45658 2.08529 2.86866 2.02558 3.1748 1.99805C3.55048 1.96427 4.03163 1.96484 4.57812 1.96484H19.4209C19.9673 1.96484 20.4485 1.9643 20.8242 1.99805C21.1303 2.02556 21.5425 2.08545 21.9062 2.31934L22.0586 2.43066L22.2324 2.5918C22.6126 2.98836 22.8189 3.52545 22.7969 4.08106C22.7764 4.5947 22.5057 5.00745 22.2959 5.28906C22.0705 5.59158 21.7492 5.95014 21.3848 6.35742L15.6787 12.7344C15.6031 12.8189 15.5632 12.863 15.5361 12.8955C15.5346 12.9378 15.5351 12.9971 15.5351 13.1113V18.458Z"/></svg>