<svg xmlns="http://www.w3.org/2000/svg" width="24" height="24" fill="none" viewBox="0 0 24 24"><path fill="currentColor" d="M15 16.9648C15.5716 16.9648 16.0352 17.4284 16.0352 18C16.0352 18.5716 15.5716 19.0352 15 19.0352H9C8.42839 19.0352 7.96484 18.5716 7.96484 18C7.96484 17.4284 8.42839 16.9648 9 16.9648H15ZM18 10.9648C18.5716 10.9648 19.0352 11.4284 19.0352 12C19.0352 12.5716 18.5716 13.0352 18 13.0352H6C5.42839 13.0352 4.96484 12.5716 4.96484 12C4.96484 11.4284 5.42839 10.9648 6 10.9648H18ZM21 4.96484C21.5716 4.96484 22.0352 5.42839 22.0352 6C22.0352 6.57161 21.5716 7.03516 21 7.03516H3C2.42839 7.03516 1.96484 6.57161 1.96484 6C1.96484 5.42839 2.42839 4.96484 3 4.96484H21Z"/></svg>