<svg xmlns="http://www.w3.org/2000/svg" width="24" height="24" fill="none" viewBox="0 0 24 24"><path fill="currentColor" d="M2.96484 14V10C2.96484 8.99334 3.13026 8.02319 3.43555 7.11621C3.61786 6.57463 4.20449 6.28281 4.74609 6.46484C5.28784 6.64721 5.57983 7.23463 5.39746 7.77637C5.16283 8.47335 5.03516 9.22068 5.03516 10V14C5.03516 17.163 7.14423 19.8364 10.0352 20.6846C10.5836 20.8455 10.8981 21.4203 10.7373 21.9688C10.5764 22.5172 10.0006 22.8318 9.45215 22.6709C5.7037 21.571 2.96484 18.1065 2.96484 14ZM18.668 16.0195C18.8334 15.4725 19.4109 15.1629 19.958 15.3281C20.5051 15.4935 20.8148 16.071 20.6494 16.6182C19.8252 19.3444 17.7501 21.5241 15.0908 22.4922C14.5538 22.6877 13.9603 22.4109 13.7646 21.874C13.5691 21.3369 13.8457 20.7424 14.3828 20.5469C16.432 19.8008 18.0333 18.1184 18.668 16.0195ZM15.4648 14V11.04C15.4648 10.4684 15.9284 10.0049 16.5 10.0049C17.0716 10.0049 17.5352 10.4684 17.5352 11.04V14C17.5352 17.0569 15.0569 19.5352 12 19.5352C10.9578 19.5352 9.97968 19.246 9.14551 18.7432C8.65612 18.448 8.49889 17.8117 8.79395 17.3223C9.0891 16.8329 9.72536 16.6756 10.2148 16.9707C10.7354 17.2844 11.3451 17.4648 12 17.4648C13.9137 17.4648 15.4648 15.9137 15.4648 14ZM10.9648 14V10C10.9648 9.42839 11.4284 8.96484 12 8.96484C12.5716 8.96484 13.0352 9.42839 13.0352 10V14C13.0352 14.5716 12.5716 15.0352 12 15.0352C11.4284 15.0352 10.9648 14.5716 10.9648 14ZM6.46484 12.9502V10C6.46484 6.9431 8.9431 4.46484 12 4.46484C13.0448 4.46484 14.0248 4.75558 14.8604 5.26074C15.3494 5.55643 15.5065 6.19252 15.2109 6.68164C14.9152 7.1708 14.2782 7.32798 13.7891 7.03223C13.2676 6.71697 12.6567 6.53516 12 6.53516C10.0863 6.53516 8.53516 8.08633 8.53516 10V12.9502C8.53505 13.5217 8.07155 13.9854 7.5 13.9854C6.92845 13.9854 6.46495 13.5217 6.46484 12.9502ZM18.9648 11.2363V10C18.9648 6.15334 15.8467 3.03516 12 3.03516C10.526 3.03516 9.16173 3.4918 8.03711 4.27148C7.56737 4.59717 6.92239 4.48046 6.59668 4.01074C6.27098 3.54099 6.38767 2.89601 6.85742 2.57031C8.31732 1.55813 10.091 0.964844 12 0.964844C16.9899 0.964844 21.0352 5.01011 21.0352 10V11.2363C21.0352 11.8079 20.5716 12.2715 20 12.2715C19.4284 12.2715 18.9648 11.8079 18.9648 11.2363Z"/></svg>