<svg xmlns="http://www.w3.org/2000/svg" width="24" height="24" fill="none" viewBox="0 0 24 24"><path fill="currentColor" d="M14.1748 16.7178C14.3306 16.1681 14.9024 15.8486 15.4522 16.0039C16.0022 16.1595 16.3227 16.7322 16.167 17.2822C15.7708 18.6823 15.2451 20.0291 14.6045 21.3076C14.3484 21.8184 13.7268 22.0245 13.2159 21.7686C12.7048 21.5125 12.4979 20.8909 12.7539 20.3799C13.3367 19.2165 13.8145 17.9913 14.1748 16.7178ZM10.9649 11C10.9649 10.4284 11.4284 9.96484 12 9.96484C12.5716 9.96491 13.0352 10.4284 13.0352 11C13.0352 14.7178 11.9678 18.1895 10.1231 21.1221C9.81876 21.6058 9.18014 21.7515 8.69632 21.4473C8.21256 21.143 8.06696 20.5043 8.37113 20.0205C10.0144 17.4083 10.9649 14.3166 10.9649 11ZM18.9649 11C18.9649 7.15334 15.8467 4.03516 12 4.03516C10.7298 4.03516 9.54191 4.37395 8.51859 4.96582C8.02394 5.25196 7.39087 5.08332 7.10452 4.58887C6.81838 4.09421 6.98701 3.46114 7.48148 3.1748C8.81146 2.40545 10.3561 1.96484 12 1.96484C16.9899 1.96484 21.0352 6.01011 21.0352 11C21.0352 13.5699 20.6759 16.0576 20.0049 18.415C19.8484 18.9648 19.2763 19.2834 18.7266 19.127C18.1768 18.9705 17.8582 18.3984 18.0147 17.8486C18.6337 15.6736 18.9649 13.3764 18.9649 11ZM2.96488 11C2.96488 9.35605 3.40548 7.81143 4.17484 6.48145C4.46117 5.98698 5.09425 5.81835 5.5889 6.10449C6.08335 6.39083 6.25199 7.02391 5.96585 7.51855C5.37398 8.54187 5.03519 9.72981 5.03519 11C5.03519 12.7247 4.63833 14.3598 3.9307 15.8164C3.68088 16.3305 3.06199 16.5447 2.54788 16.2949C2.03376 16.0452 1.81965 15.4262 2.06937 14.9121C2.64305 13.7312 2.96488 12.4046 2.96488 11ZM14.9649 11C14.9649 9.36251 13.6375 8.03521 12 8.03516C10.3625 8.03516 9.03519 9.36248 9.03519 11C9.03519 13.9423 8.19258 16.6788 6.73734 18.9922C6.72347 19.0142 6.70952 19.0364 6.69632 19.0586C6.40443 19.5501 5.76982 19.7118 5.27835 19.4199C4.78705 19.128 4.62523 18.4934 4.91702 18.002C4.93919 17.9646 4.96215 17.9276 4.98538 17.8906C6.23907 15.8977 6.96488 13.5412 6.96488 11C6.96488 8.21925 9.21928 5.96484 12 5.96484C14.7807 5.96489 17.0352 8.21928 17.0352 11C17.0352 12.0639 16.9626 13.1121 16.8223 14.1396C16.7449 14.706 16.2226 15.1027 15.6563 15.0254C15.0902 14.9479 14.6944 14.4265 14.7715 13.8604C14.8992 12.9252 14.9649 11.97 14.9649 11Z"/></svg>