<svg xmlns="http://www.w3.org/2000/svg" width="24" height="24" fill="none" viewBox="0 0 24 24"><path fill="currentColor" d="M0.964844 12C0.964844 9.9581 1.52042 8.04272 2.48926 6.40039C2.77972 5.90808 3.41491 5.74372 3.90723 6.03418C4.39954 6.32464 4.56293 6.95983 4.27246 7.45215C3.48638 8.78462 3.03516 10.338 3.03516 12C3.03516 16.1759 5.89101 19.6873 9.75781 20.6826C10.3114 20.8251 10.6444 21.3898 10.502 21.9434C10.3593 22.4966 9.79553 22.8298 9.24219 22.6875C4.48294 21.4626 0.964844 17.1433 0.964844 12ZM19.8066 16.4102C20.0883 15.9129 20.7204 15.738 21.2178 16.0195C21.7152 16.3012 21.8901 16.9333 21.6084 17.4307C20.1522 20.002 17.6926 21.9321 14.7578 22.6875C14.2045 22.8298 13.6407 22.4966 13.498 21.9434C13.3556 21.3898 13.6886 20.8251 14.2422 20.6826C16.622 20.07 18.622 18.502 19.8066 16.4102ZM16.9648 12C16.9648 11.3892 16.8554 10.8063 16.6553 10.2686C16.456 9.73295 16.7282 9.13698 17.2637 8.9375C17.7994 8.73815 18.3954 9.01115 18.5947 9.54688C18.8795 10.3121 19.0352 11.139 19.0352 12C19.0352 15.8853 15.8853 19.0352 12 19.0352C11.1461 19.0352 10.3254 18.8828 9.56543 18.6025C9.02913 18.4047 8.75532 17.8088 8.95312 17.2725C9.15113 16.7365 9.7461 16.4624 10.2822 16.6602C10.8161 16.857 11.3943 16.9648 12 16.9648C14.7421 16.9648 16.9648 14.7421 16.9648 12ZM4.96484 12C4.96484 8.11468 8.11468 4.96484 12 4.96484C12.8596 4.96484 13.686 5.11941 14.4502 5.40332C14.9858 5.6025 15.2586 6.19865 15.0596 6.73438C14.8605 7.27012 14.2643 7.54279 13.7285 7.34375C13.1916 7.14434 12.6097 7.03516 12 7.03516C9.25791 7.03516 7.03516 9.25791 7.03516 12C7.03516 12.6131 7.14612 13.1979 7.34766 13.7373C7.5477 14.2727 7.27553 14.8692 6.74023 15.0693C6.20478 15.2694 5.60828 14.9974 5.4082 14.4619C5.1214 13.6943 4.96484 12.8642 4.96484 12ZM10.9648 14V10C10.9648 9.42839 11.4284 8.96484 12 8.96484C12.5716 8.96484 13.0352 9.42839 13.0352 10V14C13.0352 14.5716 12.5716 15.0352 12 15.0352C11.4284 15.0352 10.9648 14.5716 10.9648 14ZM20.9648 12C20.9648 7.04877 16.9512 3.03516 12 3.03516C10.3352 3.03516 8.7793 3.48781 7.44531 4.27637C6.95326 4.56727 6.31824 4.40417 6.02734 3.91211C5.7366 3.42011 5.89968 2.78601 6.3916 2.49512C8.03593 1.523 9.95437 0.964844 12 0.964844C18.0945 0.964844 23.0352 5.90554 23.0352 12C23.0352 12.0365 23.0345 12.0729 23.0342 12.1094C23.0286 12.681 22.5608 13.1394 21.9893 13.1338C21.4178 13.1281 20.9593 12.6604 20.9648 12.0889C20.9651 12.0593 20.9648 12.0297 20.9648 12Z"/></svg>