<svg xmlns="http://www.w3.org/2000/svg" width="24" height="24" fill="none" viewBox="0 0 24 24"><path fill="currentColor" d="M10.9658 14.2188C10.9658 13.6471 11.4294 13.1836 12.001 13.1836C12.5725 13.1837 13.0361 13.6472 13.0361 14.2188C13.0362 17.0219 15.3072 19.293 18.1074 19.293C18.1805 19.293 18.2164 19.2873 18.3789 19.2783C18.9494 19.2468 19.4378 19.6835 19.4697 20.2539C19.5014 20.8246 19.0639 21.313 18.4932 21.3447C18.4358 21.3479 18.2558 21.3633 18.1074 21.3633C14.163 21.3633 10.9659 18.1643 10.9658 14.2188ZM14.0195 14.2188C14.0195 13.103 13.1152 12.1994 12.001 12.1992C10.8866 12.1992 9.98242 13.1029 9.98242 14.2188C9.98245 17.1302 11.5131 19.6851 13.8174 21.1221C14.3021 21.4246 14.4499 22.063 14.1475 22.5479C13.8449 23.0327 13.2066 23.1804 12.7217 22.8779C9.83721 21.079 7.91214 17.8747 7.91211 14.2188C7.91211 11.9602 9.74296 10.1289 12.001 10.1289C14.2589 10.1291 16.0889 11.9603 16.0889 14.2188C16.0889 15.3345 16.9941 16.2383 18.1084 16.2383C19.2225 16.2381 20.1269 15.3344 20.127 14.2188C20.127 9.72849 16.4884 6.08997 12.002 6.08984C7.51542 6.08984 3.87695 9.72841 3.87695 14.2188C3.87696 15.2694 3.99409 16.2941 4.21094 17.2832C4.33315 17.8415 3.98013 18.3932 3.42188 18.5156C2.86369 18.638 2.31207 18.2846 2.18945 17.7266C1.942 16.5978 1.80665 15.4244 1.80664 14.2188C1.80664 8.58593 6.37144 4.01953 12.002 4.01953C17.6324 4.01966 22.1963 8.58601 22.1963 14.2188C22.1962 16.4772 20.3662 18.3084 18.1084 18.3086C15.8504 18.3086 14.0196 16.4773 14.0195 14.2188ZM17.0703 14.2188C17.0703 11.4156 14.7992 9.14467 11.999 9.14453C9.19874 9.14453 6.92773 11.4155 6.92773 14.2188C6.92775 16.6042 7.67504 18.8113 8.94727 20.627C9.2752 21.095 9.16215 21.7403 8.69434 22.0684C8.22621 22.3964 7.57998 22.2826 7.25195 21.8145C5.74477 19.6633 4.85744 17.0442 4.85742 14.2188C4.85742 10.2732 8.05461 7.07422 11.999 7.07422C15.9433 7.07436 19.1396 10.2733 19.1396 14.2188C19.1396 14.7902 18.6769 15.2537 18.1055 15.2539C17.5339 15.2539 17.0704 14.7903 17.0703 14.2188ZM12 0.964844C15.7103 0.964844 19.0335 2.60197 21.3027 5.17969C21.68 5.60862 21.6386 6.26199 21.21 6.63965C20.7809 7.01735 20.1267 6.97592 19.749 6.54688C17.8537 4.39394 15.0873 3.03516 12 3.03516C8.91289 3.03521 6.1472 4.39416 4.25195 6.54688C3.87425 6.97592 3.22006 7.01735 2.79102 6.63965C2.36213 6.26209 2.32003 5.60874 2.69727 5.17969C4.96646 2.60201 8.28977 0.964896 12 0.964844Z"/></svg>