<svg xmlns="http://www.w3.org/2000/svg" width="24" height="24" fill="none" viewBox="0 0 24 24"><path fill="currentColor" d="M2.96484 21V3.00001C2.96484 2.72551 3.07445 2.46266 3.26855 2.26856C3.46265 2.07446 3.7255 1.96485 4 1.96485H19.5869C19.7977 1.96485 20.0281 1.96396 20.2188 1.98145C20.3798 1.99624 20.6476 2.03287 20.9121 2.18848L21.0254 2.2627L21.1523 2.36622C21.3926 2.58565 21.5565 2.87639 21.6211 3.19532L21.6455 3.35743L21.6514 3.4922C21.6489 3.79953 21.5419 4.04856 21.4717 4.19434C21.3886 4.36683 21.2686 4.5634 21.1602 4.74415L19.207 8.00001L21.1602 11.2559C21.2686 11.4366 21.3886 11.6332 21.4717 11.8057C21.5519 11.9722 21.6799 12.2735 21.6455 12.6426C21.6048 13.0793 21.3789 13.4777 21.0254 13.7373C20.7268 13.9566 20.4029 14.0017 20.2188 14.0186C20.0281 14.0361 19.7977 14.0352 19.5869 14.0352H5.03516V21C5.03516 21.5716 4.57161 22.0352 4 22.0352C3.42839 22.0352 2.96484 21.5716 2.96484 21ZM5.03516 11.9649H19.1719L17.3594 8.94434C17.307 8.85705 17.1465 8.61371 17.084 8.32911C17.0364 8.11226 17.0364 7.88775 17.084 7.67091L17.1113 7.56641C17.1847 7.32796 17.3135 7.13208 17.3594 7.05567L19.1719 4.03516H5.03516V11.9649Z"/></svg>