<svg xmlns="http://www.w3.org/2000/svg" width="24" height="24" fill="none" viewBox="0 0 24 24"><path fill="currentColor" d="M12.4648 4.09961C12.4648 3.81662 12.4633 3.65762 12.4551 3.54395C12.3415 3.53582 12.1825 3.53516 11.9004 3.53516H4.59961C4.31668 3.53516 4.15762 3.53576 4.04395 3.54395C4.03576 3.65762 4.03516 3.81668 4.03516 4.09961V9.96484H11.9004C12.1826 9.96484 12.3415 9.96321 12.4551 9.95508C12.4632 9.84147 12.4648 9.68258 12.4648 9.40039V4.09961ZM14.5352 9.40039C14.5352 9.66304 14.5354 9.92215 14.5176 10.1406C14.4987 10.3713 14.4546 10.6467 14.3135 10.9238C14.1184 11.3067 13.8067 11.6184 13.4238 11.8135C13.1467 11.9546 12.8713 11.9987 12.6406 12.0176C12.4221 12.0354 12.163 12.0352 11.9004 12.0352H11.5352V13.4004C11.5352 13.6825 11.5358 13.8415 11.5439 13.9551C11.6576 13.9633 11.8166 13.9648 12.0996 13.9648H19.4072L18.208 11.2656C18.1746 11.1904 18.0723 10.9808 18.0361 10.7471C18.0085 10.5684 18.0121 10.3862 18.0479 10.209L18.0928 10.042C18.1456 9.88326 18.2156 9.75443 18.2432 9.69922L19.3252 7.53516H14.5352V9.40039ZM14.5352 5.46484H19.7061C19.8999 5.46484 20.1165 5.4639 20.2979 5.48047C20.4554 5.49489 20.7084 5.53051 20.9619 5.67383L21.0703 5.74219L21.1953 5.83887C21.4325 6.04401 21.6013 6.31719 21.6787 6.62109L21.71 6.77539L21.7217 6.90332C21.7366 7.19423 21.6552 7.43657 21.5977 7.58398C21.5313 7.75376 21.4334 7.94763 21.3467 8.12109L20.1436 10.5254L21.4463 13.4551C21.5214 13.6241 21.6071 13.8157 21.6641 13.9834C21.7214 14.1523 21.8015 14.4379 21.7412 14.7725C21.668 15.1784 21.434 15.5377 21.0928 15.7695C20.8117 15.9604 20.5184 16.0033 20.3408 16.0195C20.1643 16.0356 19.9537 16.0352 19.7686 16.0352H12.0996C11.837 16.0352 11.5779 16.0354 11.3594 16.0176C11.1287 15.9987 10.8533 15.9546 10.5762 15.8135C10.1933 15.6184 9.88163 15.3067 9.68652 14.9238C9.54535 14.6467 9.50127 14.3713 9.48242 14.1406C9.4646 13.9221 9.46484 13.663 9.46484 13.4004V12.0352H4.03516V21C4.03516 21.5716 3.57161 22.0352 3 22.0352C2.42839 22.0352 1.96484 21.5716 1.96484 21V3.5C1.96484 3.41993 1.97596 3.34242 1.99316 3.26758C2.01641 3.05737 2.0636 2.81748 2.18652 2.57617L2.26562 2.43555C2.46114 2.11698 2.74128 1.85716 3.07617 1.68652L3.2832 1.59766C3.48814 1.52472 3.6864 1.49656 3.85938 1.48242C4.07785 1.4646 4.33696 1.46484 4.59961 1.46484H11.9004C12.163 1.46484 12.4221 1.4646 12.6406 1.48242C12.8136 1.49656 13.0119 1.52472 13.2168 1.59766L13.4238 1.68652L13.5645 1.76563C13.8373 1.9331 14.0669 2.16266 14.2344 2.43555L14.3135 2.57617L14.4023 2.7832C14.4753 2.98814 14.5034 3.1864 14.5176 3.35938C14.5354 3.57785 14.5352 3.83696 14.5352 4.09961V5.46484Z"/></svg>