<svg xmlns="http://www.w3.org/2000/svg" width="24" height="24" fill="none" viewBox="0 0 24 24"><path fill="currentColor" d="M20 15C20.7319 15.7319 20.731 15.7329 20.7305 15.7334L20.7227 15.7412C20.7192 15.7445 20.7149 15.7482 20.7109 15.752C20.7031 15.7594 20.6946 15.7682 20.6846 15.7773C20.6642 15.7958 20.6391 15.8173 20.6094 15.8418C20.5498 15.8909 20.4709 15.951 20.3711 16.0176C20.1712 16.1509 19.8889 16.3093 19.5098 16.4609C18.7493 16.7651 17.6167 17.0352 16 17.0352C14.273 17.0352 12.8465 16.4534 11.6152 15.9609C10.3467 15.4535 9.27291 15.0352 8 15.0352C6.61698 15.0352 5.74937 15.2651 5.25977 15.4609C5.17417 15.4952 5.09948 15.5292 5.03516 15.5605V22C5.03516 22.5716 4.57161 23.0352 4 23.0352C3.42839 23.0352 2.96484 22.5716 2.96484 22V2C2.96484 1.42839 3.42839 0.964844 4 0.964844C4.57161 0.964844 5.03516 1.42839 5.03516 2V2.35156C5.76162 2.13304 6.73139 1.96484 8 1.96484C9.72698 1.96484 11.1535 2.54655 12.3848 3.03906C13.6533 3.54649 14.7271 3.96484 16 3.96484C17.383 3.96484 18.2506 3.73485 18.7402 3.53906C18.9859 3.44079 19.1414 3.3491 19.2227 3.29492C19.2631 3.26798 19.2859 3.24993 19.293 3.24414L19.292 3.24512C19.2899 3.24706 19.2862 3.25013 19.2822 3.25391C19.2803 3.25574 19.2787 3.25846 19.2764 3.26074C19.2753 3.26182 19.2737 3.26249 19.2725 3.26367L19.2695 3.2666C19.5655 2.97177 20.0104 2.88401 20.3965 3.04395C20.783 3.20424 21.0352 3.58153 21.0352 4V15C21.0352 15.2745 20.9255 15.5373 20.7314 15.7314L20 15ZM8 4.03516C6.61698 4.03516 5.74937 4.26515 5.25977 4.46094C5.17417 4.49518 5.09948 4.52925 5.03516 4.56055V13.3516C5.76162 13.133 6.73139 12.9648 8 12.9648C9.72698 12.9648 11.1535 13.5466 12.3848 14.0391C13.6533 14.5465 14.7271 14.9648 16 14.9648C17.383 14.9648 18.2506 14.7349 18.7402 14.5391C18.826 14.5048 18.9004 14.4698 18.9648 14.4385V5.64746C18.2384 5.86603 17.2688 6.03516 16 6.03516C14.273 6.03516 12.8465 5.45345 11.6152 4.96094C10.3467 4.45351 9.27291 4.03516 8 4.03516Z"/></svg>