<svg xmlns="http://www.w3.org/2000/svg" width="24" height="24" fill="none" viewBox="0 0 24 24"><path fill="currentColor" d="M13.0757 4.09961C13.0757 3.8166 13.0742 3.65763 13.066 3.54395C12.9523 3.53584 12.7934 3.53516 12.5113 3.53516H4.54936C4.1954 3.53516 3.98939 3.53614 3.84233 3.54785C3.86663 3.69337 3.91562 3.89375 4.00151 4.23731L5.41948 9.90918H12.5113C12.7934 9.90918 12.9523 9.90753 13.066 9.89942C13.0741 9.7858 13.0757 9.62691 13.0757 9.34473V4.09961ZM15.146 9.34473C15.146 9.60758 15.1473 9.86734 15.1294 10.0859C15.1106 10.3166 15.0655 10.5912 14.9244 10.8682C14.7293 11.2511 14.4176 11.5627 14.0347 11.7578C13.7578 11.8989 13.4831 11.9431 13.2525 11.9619C13.0338 11.9798 12.7742 11.9795 12.5113 11.9795H11.9791V13.5664C11.9791 13.8483 11.9807 14.0075 11.9888 14.1211C12.1025 14.1293 12.2615 14.1318 12.5445 14.1318H19.7417L18.4654 11.8359C18.4192 11.7528 18.2782 11.5211 18.2232 11.2539C18.1812 11.0499 18.1812 10.8388 18.2232 10.6348L18.2779 10.4434C18.3429 10.262 18.4306 10.1163 18.4654 10.0537L19.7417 7.75684H15.146V9.34473ZM15.146 5.6875H20.1402C20.3435 5.6875 20.5678 5.68602 20.7544 5.70313C20.914 5.71776 21.1753 5.75402 21.4351 5.9043L21.5464 5.97559L21.6714 6.07617C21.9109 6.28956 22.0777 6.57278 22.148 6.88574L22.1753 7.04395L22.1841 7.17578C22.1894 7.476 22.0936 7.72248 22.0289 7.86914C21.9532 8.04047 21.8433 8.23554 21.7447 8.41309L20.3384 10.9443L21.7447 13.4756C21.8434 13.6533 21.9532 13.8491 22.0289 14.0205C22.1028 14.1882 22.2173 14.4854 22.1753 14.8447C22.1253 15.2733 21.8968 15.6612 21.5464 15.9131C21.2524 16.1245 20.9369 16.1688 20.7544 16.1855C20.5678 16.2027 20.3435 16.2012 20.1402 16.2012H12.5445C12.2815 16.2012 12.0219 16.2024 11.8033 16.1846C11.5726 16.1657 11.2981 16.1206 11.021 15.9795C10.6382 15.7844 10.3265 15.4736 10.1314 15.0908C9.99016 14.8136 9.94517 14.5384 9.92632 14.3076C9.90846 14.089 9.90971 13.8293 9.90971 13.5664V11.9795H5.93706L8.25444 21.249C8.39304 21.8034 8.05576 22.3651 7.50151 22.5039C6.94696 22.6425 6.38429 22.3055 6.24565 21.751L1.99272 4.73926C1.91262 4.41885 1.83535 4.11211 1.79448 3.85352C1.75245 3.58741 1.72719 3.25323 1.83647 2.89942L1.89995 2.72363C2.06492 2.32395 2.35358 1.98555 2.72612 1.75977L2.84526 1.69336C3.12453 1.55352 3.4072 1.50811 3.64214 1.48731C3.90292 1.46423 4.2191 1.46485 4.54936 1.46485H12.5113C12.7742 1.46485 13.0338 1.46456 13.2525 1.48242C13.4256 1.49658 13.6236 1.52459 13.8287 1.59766L14.0347 1.68652L14.1753 1.76563C14.4484 1.93318 14.6787 2.16246 14.8462 2.43555L14.9244 2.57617L15.0132 2.7832C15.0862 2.98818 15.1153 3.18637 15.1294 3.35938C15.1473 3.57784 15.146 3.83699 15.146 4.09961V5.6875Z"/></svg>