<svg xmlns="http://www.w3.org/2000/svg" width="24" height="24" fill="none" viewBox="0 0 24 24"><path fill="currentColor" d="M19.9648 6.59961C19.9648 6.31662 19.9633 6.15762 19.9551 6.04395C19.8415 6.03582 19.6825 6.03516 19.4004 6.03516H14.0352V13.4004C14.0352 13.6825 14.0358 13.8415 14.0439 13.9551C14.1576 13.9633 14.3166 13.9648 14.5996 13.9648H19.4004C19.6826 13.9648 19.8415 13.9632 19.9551 13.9551C19.9632 13.8415 19.9648 13.6826 19.9648 13.4004V6.59961ZM5.59961 4.03516C5.31668 4.03516 5.15762 4.03576 5.04395 4.04395C5.03576 4.15762 5.03516 4.31668 5.03516 4.59961V11.9648H11.4004C11.6826 11.9648 11.8415 11.9632 11.9551 11.9551C11.9589 11.9013 11.9626 11.8373 11.9639 11.7549L11.9648 11.4004V4.59961C11.9648 4.31662 11.9633 4.15762 11.9551 4.04395C11.8415 4.03582 11.6825 4.03516 11.4004 4.03516H5.59961ZM22.0352 13.4004C22.0352 13.663 22.0354 13.9221 22.0176 14.1406C21.9987 14.3713 21.9546 14.6467 21.8135 14.9238C21.6184 15.3067 21.3067 15.6184 20.9238 15.8135C20.6467 15.9546 20.3713 15.9987 20.1406 16.0176C19.9221 16.0354 19.663 16.0352 19.4004 16.0352H14.5996C14.337 16.0352 14.0779 16.0354 13.8594 16.0176C13.6287 15.9987 13.3533 15.9546 13.0762 15.8135C12.6933 15.6184 12.3816 15.3067 12.1865 14.9238C12.0454 14.6467 12.0013 14.3713 11.9824 14.1406C11.9794 14.1031 11.9786 14.0642 11.9766 14.0244C11.7973 14.032 11.6 14.0352 11.4004 14.0352H5.03516V21C5.03516 21.5716 4.57161 22.0352 4 22.0352C3.42839 22.0352 2.96484 21.5716 2.96484 21V4C2.96484 3.91993 2.97596 3.84242 2.99316 3.76758C3.01641 3.55737 3.0636 3.31748 3.18652 3.07617L3.26562 2.93555C3.46114 2.61698 3.74128 2.35716 4.07617 2.18652L4.2832 2.09766C4.48814 2.02472 4.6864 1.99656 4.85938 1.98242C5.07785 1.9646 5.33696 1.96484 5.59961 1.96484H11.4004C11.663 1.96484 11.9221 1.9646 12.1406 1.98242C12.3136 1.99656 12.5119 2.02471 12.7168 2.09766L12.9238 2.18652L13.0645 2.26563C13.3373 2.4331 13.5669 2.66266 13.7344 2.93555L13.8135 3.07617L13.9023 3.2832C13.9753 3.48814 14.0034 3.6864 14.0176 3.85938C14.0204 3.89355 14.0205 3.92882 14.0225 3.96484H19.4004C19.663 3.96484 19.9221 3.9646 20.1406 3.98242C20.3713 4.00127 20.6467 4.04535 20.9238 4.18652C21.2587 4.35716 21.5389 4.61698 21.7344 4.93555L21.8135 5.07617L21.9023 5.2832C21.9753 5.48814 22.0034 5.6864 22.0176 5.85938C22.0354 6.07785 22.0352 6.33696 22.0352 6.59961V13.4004Z"/></svg>