<svg xmlns="http://www.w3.org/2000/svg" width="24" height="24" fill="none" viewBox="0 0 24 24"><path fill="currentColor" d="M2.2686 2.26869C2.67279 1.86449 3.3273 1.86449 3.73149 2.26869L8.72856 7.26576C8.73479 7.27193 8.74107 7.27802 8.74711 7.28431L16.7286 15.2658C16.7348 15.2719 16.7411 15.278 16.7471 15.2843L21.7315 20.2687C22.1357 20.6729 22.1357 21.3274 21.7315 21.7316C21.3273 22.1358 20.6728 22.1358 20.2686 21.7316L16.0694 17.5324L11.795 22.6622C11.5008 23.0152 11.0094 23.1323 10.5879 22.9494C10.1666 22.7664 9.91595 22.3279 9.9727 21.8722L10.8272 15.0353H4.70805C4.45627 15.0353 4.19568 15.0359 3.98442 15.0167C3.79454 14.9995 3.42421 14.9543 3.10258 14.6945C2.73564 14.3979 2.52516 13.9484 2.53227 13.4767L2.54399 13.3263C2.58833 12.9874 2.75389 12.7302 2.84868 12.5929C2.96923 12.4184 3.13768 12.219 3.29887 12.0255L6.59965 8.06263L2.2686 3.73158C1.86441 3.32739 1.86441 2.67288 2.2686 2.26869ZM12.4649 18.6251L14.5997 16.0626L12.9864 14.4494L12.4649 18.6251ZM19.292 8.96498C19.5438 8.96498 19.8044 8.9644 20.0157 8.98353C20.1818 8.99858 20.4856 9.03579 20.7745 9.21888L20.8975 9.3058L21.0274 9.42396C21.3135 9.71498 21.474 10.1107 21.4678 10.5236C21.4615 10.9368 21.2598 11.2505 21.1514 11.4074C21.0309 11.5819 20.8624 11.7813 20.7012 11.9747L19.3457 13.6027C18.9798 14.0418 18.3269 14.1004 17.8877 13.7345C17.4489 13.3686 17.3893 12.7165 17.7549 12.2775L18.7901 11.0353H15.6504C15.0788 11.0353 14.6153 10.5717 14.6153 10.0001C14.6153 9.42852 15.0788 8.96498 15.6504 8.96498H19.292ZM5.21 12.965H11.502L8.06938 9.53236L5.21 12.965ZM12.2051 1.33802C12.4993 0.985053 12.9907 0.867958 13.4122 1.05091C13.8334 1.23383 14.0841 1.67235 14.0274 2.12806L13.4278 6.92591C13.3569 7.49311 12.8387 7.89623 12.2715 7.82533C11.7045 7.75427 11.3022 7.23617 11.3731 6.66908L11.5342 5.37513L11.3682 5.57533C11.0023 6.01441 10.3493 6.07397 9.9102 5.70814C9.47111 5.34223 9.41155 4.68926 9.77739 4.25013L12.2051 1.33802Z"/></svg>