<svg xmlns="http://www.w3.org/2000/svg" width="24" height="24" fill="none" viewBox="0 0 24 24"><path fill="currentColor" d="M12.2053 1.33802C12.4994 0.985053 12.9908 0.867958 13.4123 1.05091C13.8335 1.23385 14.0843 1.67238 14.0275 2.12806L13.173 8.96498H19.2922C19.5439 8.96498 19.8046 8.96441 20.0158 8.98353C20.182 8.99859 20.4858 9.03579 20.7746 9.21888L20.8976 9.3058L21.0275 9.42396C21.3136 9.71497 21.4732 10.1107 21.467 10.5236C21.4606 10.9371 21.2589 11.2506 21.1506 11.4074C21.03 11.5819 20.8625 11.7813 20.7013 11.9747L11.7951 22.6622C11.501 23.0152 11.0095 23.1323 10.5881 22.9494C10.1667 22.7665 9.91607 22.328 9.97283 21.8722L10.8273 15.0353H4.70818C4.45639 15.0353 4.19582 15.0359 3.98455 15.0167C3.79472 14.9995 3.4244 14.9543 3.10271 14.6945C2.73577 14.3979 2.52529 13.9484 2.5324 13.4767L2.54412 13.3263C2.58847 12.9874 2.75403 12.7301 2.84881 12.5929C2.96931 12.4184 3.1369 12.2189 3.29803 12.0255L12.2053 1.33802ZM5.21014 12.965H12.0002C12.297 12.965 12.5791 13.093 12.7756 13.3156C12.9719 13.538 13.0642 13.8337 13.0275 14.1281L12.465 18.6251L18.7902 11.0353H12.0002C11.7033 11.0353 11.4203 10.9073 11.2238 10.6847C11.0277 10.4623 10.9362 10.1665 10.9728 9.8722L11.5344 5.37416L5.21014 12.965Z"/></svg>