<svg xmlns="http://www.w3.org/2000/svg" width="24" height="24" fill="none" viewBox="0 0 24 24"><path fill="currentColor" d="M19.9648 13.5C19.9648 11.5863 18.4136 10.0351 16.4999 10.0351H5.49797L7.73137 12.2685C8.13556 12.6727 8.13556 13.3272 7.73137 13.7314C7.32717 14.1356 6.67267 14.1356 6.26848 13.7314L2.26848 9.73143C1.86428 9.32724 1.86428 8.67273 2.26848 8.26854L6.26848 4.26854C6.67267 3.86434 7.32717 3.86434 7.73137 4.26854C8.13556 4.67273 8.13556 5.32724 7.73137 5.73143L5.49797 7.96483H16.4999C19.5568 7.96483 22.0351 10.4431 22.0351 13.5C22.0351 16.5569 19.5568 19.0351 16.4999 19.0351H11.9999C11.4283 19.0351 10.9648 18.5716 10.9648 18C10.9648 17.4284 11.4283 16.9648 11.9999 16.9648H16.4999C18.4136 16.9648 19.9648 15.4136 19.9648 13.5Z"/></svg>