<svg xmlns="http://www.w3.org/2000/svg" width="24" height="24" fill="none" viewBox="0 0 24 24"><path fill="currentColor" d="M1.96484 13.5C1.96484 10.4431 4.4431 7.96483 7.5 7.96483H18.502L16.2686 5.73143C15.8644 5.32724 15.8644 4.67273 16.2686 4.26854C16.6727 3.86434 17.3273 3.86434 17.7314 4.26854L21.7314 8.26854C22.1356 8.67273 22.1356 9.32724 21.7314 9.73143L17.7314 13.7314C17.3273 14.1356 16.6727 14.1356 16.2686 13.7314C15.8644 13.3272 15.8644 12.6727 16.2686 12.2685L18.502 10.0351H7.5C5.58633 10.0351 4.03516 11.5863 4.03516 13.5C4.03516 15.4136 5.58633 16.9648 7.5 16.9648H12C12.5716 16.9648 13.0352 17.4284 13.0352 18C13.0352 18.5716 12.5716 19.0351 12 19.0351H7.5C4.4431 19.0351 1.96484 16.5569 1.96484 13.5Z"/></svg>