<svg xmlns="http://www.w3.org/2000/svg" width="24" height="24" fill="none" viewBox="0 0 24 24"><path fill="currentColor" d="M20.9648 11.7998C20.9648 10.9429 20.9643 10.3623 20.9277 9.91404C20.8921 9.47779 20.8277 9.25805 20.751 9.1074C20.5626 8.73792 20.2621 8.43735 19.8926 8.249C19.7419 8.17225 19.5222 8.10789 19.0859 8.07225C18.6377 8.03563 18.0571 8.03514 17.2002 8.03514H3.03516V16.2002C3.03516 17.0571 3.03565 17.6376 3.07227 18.0859C3.10791 18.5222 3.17227 18.7419 3.24902 18.8926C3.43737 19.262 3.73794 19.5626 4.10742 19.751C4.25807 19.8277 4.47781 19.8921 4.91406 19.9277C5.36234 19.9643 5.94287 19.9648 6.7998 19.9648H17.2002C18.0571 19.9648 18.6377 19.9643 19.0859 19.9277C19.5222 19.8921 19.7419 19.8277 19.8926 19.751C20.2621 19.5626 20.5626 19.262 20.751 18.8926C20.8277 18.7419 20.8921 18.5222 20.9277 18.0859C20.9643 17.6376 20.9648 17.0571 20.9648 16.2002V11.7998ZM13.7686 10.7685C14.1727 10.3643 14.8273 10.3643 15.2314 10.7685C15.6356 11.1727 15.6356 11.8272 15.2314 12.2314L13.4629 14L15.2314 15.7685C15.6356 16.1727 15.6356 16.8272 15.2314 17.2314C14.8273 17.6356 14.1727 17.6356 13.7686 17.2314L12 15.4629L10.2314 17.2314C9.82725 17.6356 9.17275 17.6356 8.76855 17.2314C8.36436 16.8272 8.36436 16.1727 8.76855 15.7685L10.5371 14L8.76855 12.2314C8.36436 11.8272 8.36436 11.1727 8.76855 10.7685C9.17275 10.3643 9.82725 10.3643 10.2314 10.7685L12 12.5371L13.7686 10.7685ZM5.2002 4.03514C4.62309 4.03514 4.25228 4.03557 3.9707 4.05857C3.7012 4.08059 3.60521 4.11835 3.56152 4.14061C3.38033 4.23306 3.23308 4.38031 3.14062 4.5615C3.11837 4.60519 3.08061 4.70118 3.05859 4.97068C3.03888 5.21201 3.0367 5.51875 3.03613 5.96482H11.3252L10.959 5.23143C10.6046 4.52271 10.5254 4.39472 10.4395 4.31053C10.3373 4.21044 10.2133 4.13451 10.0781 4.08787C9.96442 4.04873 9.8144 4.03514 9.02246 4.03514H5.2002ZM23.0352 16.2002C23.0352 17.0231 23.0353 17.7027 22.9902 18.2549C22.9441 18.819 22.8449 19.341 22.5947 19.832C22.2079 20.591 21.591 21.2079 20.832 21.5947C20.341 21.8449 19.8191 21.9441 19.2549 21.9902C18.7027 22.0353 18.0231 22.0351 17.2002 22.0351H6.7998C5.97689 22.0351 5.29725 22.0353 4.74512 21.9902C4.18095 21.9441 3.65899 21.8449 3.16797 21.5947C2.409 21.2079 1.79208 20.591 1.40527 19.832C1.15509 19.341 1.05588 18.819 1.00977 18.2549C0.964654 17.7027 0.964844 17.0231 0.964844 16.2002V6.20018C0.964844 5.6572 0.964603 5.18717 0.996094 4.80174C1.02859 4.40436 1.10024 4.00606 1.2959 3.62205C1.58686 3.05106 2.05107 2.58684 2.62207 2.29588C3.00608 2.10022 3.40438 2.02857 3.80176 1.99607C4.18718 1.96458 4.65722 1.96482 5.2002 1.96482H9.02246C9.66527 1.96482 10.2339 1.95147 10.7539 2.13084C11.1791 2.27754 11.5664 2.51731 11.8877 2.83201C12.2806 3.21689 12.5231 3.73081 12.8105 4.30564L13.6396 5.96482H17.2002C18.0231 5.96482 18.7027 5.96463 19.2549 6.00975C19.8191 6.05586 20.341 6.15507 20.832 6.40525C21.591 6.79206 22.2079 7.40898 22.5947 8.16795C22.8449 8.65897 22.9441 9.18093 22.9902 9.7451C23.0353 10.2972 23.0352 10.9769 23.0352 11.7998V16.2002Z"/></svg>