<svg xmlns="http://www.w3.org/2000/svg" width="24" height="24" fill="none" viewBox="0 0 24 24"><path fill="currentColor" d="M20.9648 11.8C20.9648 10.9431 20.9643 10.3626 20.9277 9.91429C20.8921 9.47804 20.8277 9.25829 20.751 9.10765C20.5626 8.73817 20.2621 8.43759 19.8926 8.24925C19.7419 8.17249 19.5222 8.10813 19.0859 8.07249C18.6377 8.03588 18.0571 8.03538 17.2002 8.03538H3.03516V16.2004C3.03516 17.0574 3.03565 17.6379 3.07227 18.0862C3.10791 18.5224 3.17227 18.7422 3.24902 18.8928C3.43737 19.2623 3.73794 19.5629 4.10742 19.7512C4.25807 19.828 4.47781 19.8923 4.91406 19.928C5.36234 19.9646 5.94287 19.9651 6.7998 19.9651H17.2002C18.0571 19.9651 18.6377 19.9646 19.0859 19.928C19.5222 19.8923 19.7419 19.828 19.8926 19.7512C20.2621 19.5629 20.5626 19.2623 20.751 18.8928C20.8277 18.7422 20.8921 18.5224 20.9277 18.0862C20.9643 17.6379 20.9648 17.0574 20.9648 16.2004V11.8ZM10.9648 11.0002C10.9648 10.4286 11.4284 9.96507 12 9.96507C12.5716 9.96507 13.0352 10.4286 13.0352 11.0002V14.5022L14.2686 13.2688C14.6727 12.8646 15.3273 12.8646 15.7314 13.2688C16.1356 13.673 16.1356 14.3275 15.7314 14.7317L12.7314 17.7317C12.3273 18.1359 11.6727 18.1359 11.2686 17.7317L8.26855 14.7317C7.86436 14.3275 7.86436 13.673 8.26855 13.2688C8.67275 12.8646 9.32725 12.8646 9.73145 13.2688L10.9648 14.5022V11.0002ZM5.2002 4.03538C4.62309 4.03538 4.25228 4.03582 3.9707 4.05882C3.7012 4.08084 3.60521 4.11859 3.56152 4.14085C3.38033 4.2333 3.23308 4.38055 3.14062 4.56175C3.11837 4.60544 3.08061 4.70143 3.05859 4.97093C3.03888 5.21226 3.0367 5.51899 3.03613 5.96507H11.3252L10.959 5.23167C10.6046 4.52295 10.5254 4.39497 10.4395 4.31077C10.3373 4.21068 10.2133 4.13476 10.0781 4.08812C9.96442 4.04898 9.8144 4.03538 9.02246 4.03538H5.2002ZM23.0352 16.2004C23.0352 17.0233 23.0353 17.703 22.9902 18.2551C22.9441 18.8193 22.8449 19.3412 22.5947 19.8323C22.2079 20.5912 21.591 21.2081 20.832 21.595C20.341 21.8451 19.8191 21.9443 19.2549 21.9905C18.7027 22.0356 18.0231 22.0354 17.2002 22.0354H6.7998C5.97689 22.0354 5.29725 22.0356 4.74512 21.9905C4.18095 21.9443 3.65899 21.8451 3.16797 21.595C2.409 21.2081 1.79208 20.5912 1.40527 19.8323C1.15509 19.3412 1.05588 18.8193 1.00977 18.2551C0.964654 17.703 0.964844 17.0233 0.964844 16.2004V6.20042C0.964844 5.65745 0.964603 5.18741 0.996094 4.80198C1.02859 4.4046 1.10024 4.0063 1.2959 3.6223C1.58686 3.0513 2.05107 2.58709 2.62207 2.29612C3.00608 2.10046 3.40438 2.02881 3.80176 1.99632C4.18718 1.96483 4.65722 1.96507 5.2002 1.96507H9.02246C9.66527 1.96507 10.2339 1.95172 10.7539 2.13108C11.1791 2.27778 11.5664 2.51755 11.8877 2.83226C12.2806 3.21713 12.5231 3.73105 12.8105 4.30589L13.6396 5.96507H17.2002C18.0231 5.96507 18.7027 5.96488 19.2549 6.00999C19.8191 6.0561 20.341 6.15531 20.832 6.4055C21.591 6.7923 22.2079 7.40923 22.5947 8.16819C22.8449 8.65921 22.9441 9.18117 22.9902 9.74534C23.0353 10.2975 23.0352 10.9771 23.0352 11.8V16.2004Z"/></svg>