<svg xmlns="http://www.w3.org/2000/svg" width="24" height="24" fill="none" viewBox="0 0 24 24"><path fill="currentColor" d="M20.9648 11.8C20.9648 10.9431 20.9643 10.3626 20.9277 9.91429C20.8921 9.47804 20.8277 9.25829 20.751 9.10765C20.5626 8.73817 20.2621 8.43759 19.8926 8.24925C19.7419 8.17249 19.5222 8.10813 19.0859 8.07249C18.6377 8.03588 18.0571 8.03538 17.2002 8.03538H3.03516V16.2004C3.03516 17.0574 3.03565 17.6379 3.07227 18.0862C3.10791 18.5224 3.17227 18.7422 3.24902 18.8928C3.43737 19.2623 3.73794 19.5629 4.10742 19.7512C4.25807 19.828 4.47781 19.8923 4.91406 19.928C5.36234 19.9646 5.94287 19.9651 6.7998 19.9651H17.2002C18.0571 19.9651 18.6377 19.9646 19.0859 19.928C19.5222 19.8923 19.7419 19.828 19.8926 19.7512C20.2621 19.5629 20.5626 19.2623 20.751 18.8928C20.8277 18.7422 20.8921 18.5224 20.9277 18.0862C20.9643 17.6379 20.9648 17.0574 20.9648 16.2004V11.8ZM14.4648 15.0998C14.4648 14.8168 14.4633 14.6578 14.4551 14.5442C14.3415 14.536 14.1825 14.5354 13.9004 14.5354H10.0996C9.81668 14.5354 9.65762 14.536 9.54395 14.5442C9.53576 14.6578 9.53516 14.8169 9.53516 15.0998V15.9006C9.53516 16.1827 9.53582 16.3417 9.54395 16.4553C9.65762 16.4635 9.81662 16.4651 10.0996 16.4651H13.9004C14.1826 16.4651 14.3415 16.4634 14.4551 16.4553C14.4632 16.3417 14.4648 16.1828 14.4648 15.9006V15.0998ZM5.2002 4.03538C4.62309 4.03538 4.25228 4.03582 3.9707 4.05882C3.7012 4.08084 3.60521 4.11859 3.56152 4.14085C3.38033 4.2333 3.23308 4.38055 3.14062 4.56175C3.11837 4.60544 3.08061 4.70143 3.05859 4.97093C3.03888 5.21226 3.0367 5.51899 3.03613 5.96507H11.3252L10.959 5.23167C10.6046 4.52295 10.5254 4.39497 10.4395 4.31077C10.3373 4.21068 10.2133 4.13476 10.0781 4.08812C9.96442 4.04898 9.8144 4.03538 9.02246 4.03538H5.2002ZM12.7148 11.7502C12.7148 11.3553 12.3949 11.0354 12 11.0354C11.6051 11.0354 11.2852 11.3553 11.2852 11.7502V12.4651H12.7148V11.7502ZM23.0352 16.2004C23.0352 17.0233 23.0353 17.703 22.9902 18.2551C22.9441 18.8193 22.8449 19.3412 22.5947 19.8323C22.2079 20.5912 21.591 21.2081 20.832 21.595C20.341 21.8451 19.8191 21.9443 19.2549 21.9905C18.7027 22.0356 18.0231 22.0354 17.2002 22.0354H6.7998C5.97689 22.0354 5.29725 22.0356 4.74512 21.9905C4.18095 21.9443 3.65899 21.8451 3.16797 21.595C2.409 21.2081 1.79208 20.5912 1.40527 19.8323C1.15509 19.3412 1.05588 18.8193 1.00977 18.2551C0.964654 17.703 0.964844 17.0233 0.964844 16.2004V6.20042C0.964844 5.65745 0.964603 5.18741 0.996094 4.80198C1.02859 4.4046 1.10024 4.0063 1.2959 3.6223C1.58686 3.0513 2.05107 2.58709 2.62207 2.29612C3.00608 2.10046 3.40438 2.02881 3.80176 1.99632C4.18718 1.96483 4.65722 1.96507 5.2002 1.96507H9.02246C9.66527 1.96507 10.2339 1.95172 10.7539 2.13108C11.1791 2.27778 11.5664 2.51755 11.8877 2.83226C12.2806 3.21713 12.5231 3.73105 12.8105 4.30589L13.6396 5.96507H17.2002C18.0231 5.96507 18.7027 5.96488 19.2549 6.00999C19.8191 6.0561 20.341 6.15531 20.832 6.4055C21.591 6.7923 22.2079 7.40923 22.5947 8.16819C22.8449 8.65921 22.9441 9.18117 22.9902 9.74534C23.0353 10.2975 23.0352 10.9771 23.0352 11.8V16.2004ZM14.7852 12.4983C14.9823 12.5239 15.2024 12.574 15.4238 12.6867C15.7587 12.8574 16.0389 13.1172 16.2344 13.4358L16.3135 13.5764L16.4023 13.7834C16.4753 13.9884 16.5034 14.1866 16.5176 14.3596C16.5354 14.5781 16.5352 14.8372 16.5352 15.0998V15.9006C16.5352 16.1633 16.5354 16.4224 16.5176 16.6409C16.4987 16.8716 16.4546 17.1469 16.3135 17.4241C16.1184 17.807 15.8067 18.1186 15.4238 18.3137C15.1467 18.4549 14.8713 18.499 14.6406 18.5178C14.4221 18.5356 14.163 18.5354 13.9004 18.5354H10.0996C9.83696 18.5354 9.57785 18.5356 9.35938 18.5178C9.12866 18.499 8.8533 18.4549 8.57617 18.3137C8.19326 18.1186 7.88163 17.807 7.68652 17.4241C7.54535 17.1469 7.50127 16.8716 7.48242 16.6409C7.4646 16.4224 7.46484 16.1633 7.46484 15.9006V15.0998C7.46484 14.8372 7.4646 14.5781 7.48242 14.3596C7.50127 14.1289 7.54535 13.8535 7.68652 13.5764L7.76562 13.4358C7.96114 13.1172 8.24128 12.8574 8.57617 12.6867L8.7832 12.5979C8.93318 12.5445 9.07946 12.5159 9.21484 12.4983V11.7502C9.21484 10.2121 10.4619 8.96507 12 8.96507C13.5381 8.96507 14.7852 10.2121 14.7852 11.7502V12.4983Z"/></svg>