<svg xmlns="http://www.w3.org/2000/svg" width="24" height="24" fill="none" viewBox="0 0 24 24"><path fill="currentColor" d="M19 0.464844C19.5716 0.464844 20.0352 0.928385 20.0352 1.5V8.5C20.0352 9.07161 19.5716 9.53516 19 9.53516H14.498L19.7314 14.7686C20.0275 15.0646 20.1163 15.5097 19.9561 15.8965C19.7958 16.283 19.4185 16.5352 19 16.5352H13.0352V22.5C13.0352 22.9185 12.783 23.2958 12.3965 23.4561C12.0097 23.6163 11.5646 23.5275 11.2686 23.2314L4.26855 16.2314C4.07445 16.0373 3.96484 15.7745 3.96484 15.5V8.5C3.96484 7.92839 4.42839 7.46484 5 7.46484H9.50195L4.26855 2.23145C3.97255 1.93544 3.88375 1.49027 4.04395 1.10352C4.20424 0.716991 4.58153 0.464844 5 0.464844H19ZM10.9648 20.002V16.5352H7.49805L10.9648 20.002ZM6.03516 14.4648H16.502L11.5723 9.53516H6.03516V14.4648ZM12.4277 7.46484H17.9648V2.53516H7.49805L12.4277 7.46484Z"/></svg>