<svg xmlns="http://www.w3.org/2000/svg" width="24" height="24" fill="none" viewBox="0 0 24 24"><path fill="currentColor" d="M13.5505 3.96484C14.8465 3.96484 15.8793 3.96411 16.7146 4.03027C17.5625 4.09744 18.291 4.2383 18.9685 4.56543C20.0632 5.09402 20.9726 5.94091 21.5779 6.99512C21.9524 7.6475 22.1448 8.36426 22.2722 9.20508C22.3977 10.0336 22.4709 11.0637 22.5632 12.3564L22.8093 15.8008C22.9727 18.0888 21.1598 20.0352 18.866 20.0352C17.6931 20.035 16.5807 19.5134 15.8298 18.6123L15.4548 18.1621C15.0889 17.723 14.981 17.5994 14.8689 17.5039C14.6006 17.2755 14.2757 17.1233 13.9285 17.0635C13.7833 17.0385 13.6193 17.0352 13.0476 17.0352H10.9529C10.3809 17.0352 10.2163 17.0385 10.071 17.0635C9.72389 17.1233 9.39882 17.2755 9.13061 17.5039C9.01851 17.5994 8.91053 17.7231 8.54467 18.1621L8.16967 18.6123C7.41874 19.5134 6.30653 20.0351 5.13354 20.0352C2.83967 20.0352 1.02773 18.0888 1.19116 15.8008L1.43725 12.3564C1.52959 11.0637 1.60178 10.0336 1.72729 9.20508C1.8547 8.36424 2.04709 7.64751 2.42163 6.99512C3.02686 5.94093 3.93639 5.09405 5.031 4.56543C5.70841 4.23833 6.43715 4.09745 7.28491 4.03027C8.12023 3.96411 9.15297 3.96484 10.449 3.96484H13.5505ZM10.449 6.03516C9.1202 6.03516 8.18361 6.03557 7.44897 6.09375C6.81719 6.14379 6.39896 6.23263 6.06811 6.36816L5.93139 6.42969C5.21217 6.777 4.6142 7.33371 4.21655 8.02637C4.02172 8.36591 3.88261 8.79983 3.77417 9.51563C3.66378 10.2443 3.59638 11.1784 3.5017 12.5039L3.25561 15.9482C3.17777 17.038 4.04097 17.9648 5.13354 17.9648C5.69212 17.9648 6.22219 17.7171 6.57983 17.2881L6.95483 16.8379C7.27496 16.4537 7.51026 16.1649 7.78881 15.9277C8.33962 15.4587 9.00654 15.1463 9.71948 15.0234C10.08 14.9613 10.4528 14.9648 10.9529 14.9648H13.0476C13.5475 14.9648 13.9196 14.9613 14.28 15.0234L14.5447 15.0781C15.1576 15.2266 15.7286 15.5172 16.2107 15.9277C16.4892 16.1649 16.7246 16.4538 17.0447 16.8379L17.4197 17.2881C17.7773 17.7172 18.3074 17.9647 18.866 17.9648C19.9585 17.9648 20.8217 17.038 20.7439 15.9482L20.4978 12.5039C20.4031 11.1784 20.3357 10.2443 20.2253 9.51563C20.1169 8.79975 19.9778 8.36592 19.783 8.02637C19.3853 7.33368 18.7874 6.777 18.0681 6.42969C17.7155 6.25945 17.2725 6.15094 16.5505 6.09375C15.8159 6.03559 14.8791 6.03516 13.5505 6.03516H10.449ZM6.96459 13V12.0352H5.99975C5.4282 12.0351 4.9646 11.5716 4.9646 11C4.9646 10.4284 5.4282 9.96492 5.99975 9.96484H6.96459V9C6.96459 8.42843 7.4282 7.96492 7.99975 7.96484C8.57137 7.96484 9.03491 8.42839 9.03491 9V9.96484H9.99975C10.5714 9.96484 11.0349 10.4284 11.0349 11C11.0349 11.5716 10.5714 12.0352 9.99975 12.0352H9.03491V13C9.03491 13.5716 8.57137 14.0352 7.99975 14.0352C7.4282 14.0351 6.96459 13.5716 6.96459 13ZM15.0095 10.9648C15.5811 10.9648 16.0447 11.4284 16.0447 12C16.0447 12.5716 15.5811 13.0352 15.0095 13.0352H14.9998C14.4282 13.0351 13.9646 12.5716 13.9646 12C13.9646 11.4284 14.4282 10.9649 14.9998 10.9648H15.0095ZM18.0095 8.96484C18.5811 8.96484 19.0447 9.42839 19.0447 10C19.0447 10.5716 18.5811 11.0352 18.0095 11.0352H17.9998C17.4282 11.0351 16.9646 10.5716 16.9646 10C16.9646 9.42843 17.4282 8.96492 17.9998 8.96484H18.0095Z"/></svg>