<svg xmlns="http://www.w3.org/2000/svg" width="24" height="24" fill="none" viewBox="0 0 24 24"><g clip-path="url(#a)"><path fill="currentColor" d="M18.9648 12.0352H13.0352V20.9648H16.7998C17.3769 20.9648 17.7477 20.9644 18.0293 20.9414C18.2988 20.9194 18.3948 20.8816 18.4385 20.8594C18.6197 20.7669 18.7669 20.6197 18.8594 20.4385C18.8816 20.3948 18.9194 20.2988 18.9414 20.0293C18.9644 19.7477 18.9648 19.3769 18.9648 18.7998V12.0352ZM5.03516 18.7998C5.03516 19.3769 5.03559 19.7477 5.05859 20.0293C5.08061 20.2988 5.11837 20.3948 5.14062 20.4385C5.23308 20.6197 5.38033 20.7669 5.56152 20.8594C5.60521 20.8816 5.7012 20.9194 5.9707 20.9414C6.25228 20.9644 6.62309 20.9648 7.2002 20.9648H10.9648V12.0352H5.03516V18.7998ZM20.9648 7.59961C20.9648 7.31662 20.9633 7.15762 20.9551 7.04395C20.8415 7.03582 20.6825 7.03516 20.4004 7.03516H13.0352V9.96484H20.4004C20.6826 9.96484 20.8415 9.96321 20.9551 9.95508C20.9632 9.84147 20.9648 9.68258 20.9648 9.40039V7.59961ZM3.03516 9.40039C3.03516 9.68252 3.03582 9.84147 3.04395 9.95508C3.15762 9.96327 3.31662 9.96484 3.59961 9.96484H10.9648V7.03516H3.59961C3.31668 7.03516 3.15762 7.03576 3.04395 7.04395C3.03576 7.15762 3.03516 7.31668 3.03516 7.59961V9.40039ZM16.4648 4C16.4648 3.73811 16.3629 3.49015 16.1865 3.31055C16.0109 3.13175 15.7763 3.03527 15.5361 3.03516C14.7462 3.03516 14.1314 3.59624 13.6475 4.49219C13.5622 4.65008 13.4878 4.80993 13.4209 4.96484H15.5361C15.7763 4.96473 16.0109 4.86825 16.1865 4.68945C16.3629 4.50985 16.4648 4.26189 16.4648 4ZM7.53516 4C7.53516 4.26189 7.63709 4.50985 7.81348 4.68945C7.98913 4.86825 8.22368 4.96473 8.46387 4.96484H10.5791C10.5122 4.80993 10.4378 4.65008 10.3525 4.49219C9.86857 3.59624 9.25377 3.03516 8.46387 3.03516C8.22368 3.03527 7.98913 3.13175 7.81348 3.31055C7.63709 3.49015 7.53516 3.73811 7.53516 4ZM18.5352 4C18.5352 4.33087 18.4794 4.65603 18.377 4.96484H20.4004C20.663 4.96484 20.9221 4.9646 21.1406 4.98242C21.3713 5.00127 21.6467 5.04535 21.9238 5.18652C22.2587 5.35716 22.5389 5.61698 22.7344 5.93555L22.8135 6.07617L22.9023 6.2832C22.9753 6.48814 23.0034 6.6864 23.0176 6.85938C23.0354 7.07785 23.0352 7.33696 23.0352 7.59961V9.40039C23.0352 9.66304 23.0354 9.92215 23.0176 10.1406C22.9987 10.3713 22.9546 10.6467 22.8135 10.9238C22.6184 11.3067 22.3067 11.6184 21.9238 11.8135C21.6467 11.9546 21.3713 11.9987 21.1406 12.0176C21.1065 12.0204 21.0712 12.0195 21.0352 12.0215V18.7998C21.0352 19.3428 21.0354 19.8128 21.0039 20.1982C20.9714 20.5956 20.8998 20.9939 20.7041 21.3779C20.4131 21.9489 19.9489 22.4131 19.3779 22.7041C18.9939 22.8998 18.5956 22.9714 18.1982 23.0039C17.8128 23.0354 17.3428 23.0352 16.7998 23.0352H7.2002C6.65722 23.0352 6.18718 23.0354 5.80176 23.0039C5.40438 22.9714 5.00608 22.8998 4.62207 22.7041C4.05107 22.4131 3.58686 21.9489 3.2959 21.3779C3.10024 20.9939 3.02859 20.5956 2.99609 20.1982C2.9646 19.8128 2.96484 19.3428 2.96484 18.7998V12.0215C2.92884 12.0195 2.89353 12.0204 2.85938 12.0176C2.62866 11.9987 2.3533 11.9546 2.07617 11.8135C1.69326 11.6184 1.38163 11.3067 1.18652 10.9238C1.04535 10.6467 1.00127 10.3713 0.982422 10.1406C0.9646 9.92215 0.964843 9.66303 0.964844 9.40039V7.59961C0.964843 7.33696 0.9646 7.07785 0.982422 6.85938C1.00127 6.62866 1.04535 6.3533 1.18652 6.07617L1.26563 5.93555C1.46114 5.61698 1.74128 5.35716 2.07617 5.18652L2.2832 5.09766C2.48814 5.02471 2.6864 4.99655 2.85938 4.98242C3.07785 4.9646 3.33696 4.96484 3.59961 4.96484H5.62305C5.52064 4.65603 5.46484 4.33087 5.46484 4C5.46484 3.20103 5.77656 2.4309 6.33691 1.86035C6.89779 1.28934 7.66253 0.964957 8.46387 0.964844C10.2489 0.964844 11.3645 2.15898 12 3.20605C12.6355 2.15898 13.7511 0.964844 15.5361 0.964844C16.3375 0.964957 17.1022 1.28934 17.6631 1.86035C18.2234 2.4309 18.5352 3.20103 18.5352 4Z"/></g><defs><clipPath id="a"><path fill="#fff" d="M0 0H24V24H0z"/></clipPath></defs></svg>