<svg xmlns="http://www.w3.org/2000/svg" width="24" height="24" fill="none" viewBox="0 0 24 24"><g clip-path="url(#a)"><path fill="currentColor" d="M20.9648 15.0352H13.0352V20.9648H18.7998C19.3769 20.9648 19.7477 20.9644 20.0293 20.9414C20.2988 20.9194 20.3948 20.8816 20.4385 20.8594C20.6197 20.7669 20.7669 20.6197 20.8594 20.4385C20.8816 20.3948 20.9194 20.2988 20.9414 20.0293C20.9644 19.7477 20.9648 19.3769 20.9648 18.7998V15.0352ZM3.03516 18.7998C3.03516 19.3769 3.03559 19.7477 3.05859 20.0293C3.08061 20.2988 3.11837 20.3948 3.14062 20.4385C3.23308 20.6197 3.38033 20.7669 3.56152 20.8594C3.60521 20.8816 3.7012 20.9194 3.9707 20.9414C4.25228 20.9644 4.62309 20.9648 5.2002 20.9648H10.9648V15.0352H3.03516V18.7998ZM20.9648 10.2002C20.9648 9.62309 20.9644 9.25228 20.9414 8.9707C20.9194 8.7012 20.8816 8.60521 20.8594 8.56152C20.7669 8.38033 20.6197 8.23308 20.4385 8.14062C20.3948 8.11837 20.2988 8.08061 20.0293 8.05859C19.7477 8.03559 19.3769 8.03516 18.7998 8.03516H13.0352V12.9648H20.9648V10.2002ZM3.03516 12.9648H10.9648V8.03516H5.2002C4.62309 8.03516 4.25228 8.03559 3.9707 8.05859C3.7012 8.08061 3.60521 8.11837 3.56152 8.14062C3.38033 8.23308 3.23308 8.38033 3.14062 8.56152C3.11837 8.60521 3.08061 8.7012 3.05859 8.9707C3.03559 9.25228 3.03516 9.62309 3.03516 10.2002V12.9648ZM17.9648 4.5C17.9648 4.11146 17.8109 3.73861 17.5361 3.46387C17.2614 3.18913 16.8885 3.03516 16.5 3.03516C15.3256 3.03516 14.4716 3.85917 13.8447 4.99902C13.6641 5.32741 13.518 5.65984 13.3994 5.96484H16.5C16.8885 5.96484 17.2614 5.81087 17.5361 5.53613C17.8109 5.26139 17.9648 4.88854 17.9648 4.5ZM6.03516 4.5C6.03516 4.88854 6.18913 5.26139 6.46387 5.53613C6.73861 5.81087 7.11146 5.96484 7.5 5.96484H10.6006C10.482 5.65984 10.3359 5.32741 10.1553 4.99902C9.52836 3.85917 8.67444 3.03516 7.5 3.03516C7.11146 3.03516 6.73861 3.18913 6.46387 3.46387C6.18913 3.73861 6.03516 4.11146 6.03516 4.5ZM20.0352 4.5C20.0352 5.01331 19.9227 5.51483 19.7129 5.97266C19.8867 5.97709 20.049 5.9839 20.1982 5.99609C20.5956 6.02859 20.9939 6.10024 21.3779 6.2959C21.9489 6.58686 22.4131 7.05107 22.7041 7.62207C22.8998 8.00608 22.9714 8.40438 23.0039 8.80176C23.0354 9.18718 23.0352 9.65722 23.0352 10.2002V18.7998C23.0352 19.3428 23.0354 19.8128 23.0039 20.1982C22.9714 20.5956 22.8998 20.9939 22.7041 21.3779C22.4131 21.9489 21.9489 22.4131 21.3779 22.7041C20.9939 22.8998 20.5956 22.9714 20.1982 23.0039C19.8128 23.0354 19.3428 23.0352 18.7998 23.0352H5.2002C4.65722 23.0352 4.18718 23.0354 3.80176 23.0039C3.40438 22.9714 3.00608 22.8998 2.62207 22.7041C2.05107 22.4131 1.58686 21.9489 1.2959 21.3779C1.10024 20.9939 1.02859 20.5956 0.996094 20.1982C0.964603 19.8128 0.964844 19.3428 0.964844 18.7998V10.2002C0.964844 9.65722 0.964603 9.18718 0.996094 8.80176C1.02859 8.40438 1.10024 8.00608 1.2959 7.62207C1.58686 7.05107 2.05107 6.58686 2.62207 6.2959C3.00608 6.10024 3.40438 6.02859 3.80176 5.99609C3.95073 5.98392 4.11265 5.97709 4.28613 5.97266C4.0764 5.51493 3.96484 5.01317 3.96484 4.5C3.96484 3.56246 4.33706 2.66294 5 2C5.66294 1.33706 6.56246 0.964844 7.5 0.964844C9.82554 0.964844 11.2216 2.64083 11.9697 4.00098C11.9801 4.01977 11.9898 4.03885 12 4.05762C12.0102 4.03885 12.0199 4.01977 12.0303 4.00098C12.7784 2.64083 14.1745 0.964844 16.5 0.964844C17.4375 0.964844 18.3371 1.33706 19 2C19.6629 2.66294 20.0352 3.56246 20.0352 4.5Z"/></g><defs><clipPath id="a"><path fill="#fff" d="M0 0H24V24H0z"/></clipPath></defs></svg>