<svg xmlns="http://www.w3.org/2000/svg" width="24" height="24" fill="none" viewBox="0 0 24 24"><path fill="currentColor" d="M19.9648 18C19.9648 16.9148 19.0852 16.0352 18 16.0352C16.9148 16.0352 16.0352 16.9148 16.0352 18C16.0352 19.0852 16.9148 19.9648 18 19.9648C19.0852 19.9648 19.9648 19.0852 19.9648 18ZM7.96484 6C7.96484 4.91476 7.08524 4.03516 6 4.03516C4.91476 4.03516 4.03516 4.91476 4.03516 6C4.03516 7.08524 4.91476 7.96484 6 7.96484C7.08524 7.96484 7.96484 7.08524 7.96484 6ZM10.0352 6C10.0352 7.85211 8.78677 9.41142 7.08594 9.88574C7.28583 11.6722 8.08476 13.3484 9.36816 14.6318C10.6513 15.915 12.3272 16.713 14.1133 16.9131C14.5878 15.2126 16.1481 13.9648 18 13.9648C20.2285 13.9648 22.0352 15.7715 22.0352 18C22.0352 20.2285 20.2285 22.0352 18 22.0352C16.1139 22.0352 14.53 20.7409 14.0879 18.9922C11.761 18.7799 9.56999 17.7614 7.9043 16.0957C7.59058 15.782 7.30196 15.448 7.03516 15.0996V21C7.03516 21.5716 6.57161 22.0352 6 22.0352C5.42839 22.0352 4.96484 21.5716 4.96484 21V9.90039C3.23801 9.4433 1.96484 7.87057 1.96484 6C1.96484 3.77153 3.77153 1.96484 6 1.96484C8.22847 1.96484 10.0352 3.77153 10.0352 6Z"/></svg>