<svg xmlns="http://www.w3.org/2000/svg" width="24" height="24" fill="none" viewBox="0 0 24 24"><path fill="currentColor" d="M12.0002 6.96484C14.426 6.96494 16.4506 8.68079 16.9279 10.9648H22.0002C22.5717 10.9649 23.0353 11.4285 23.0353 12C23.0353 12.5715 22.5717 13.0351 22.0002 13.0352H16.9279C16.4506 15.3192 14.426 17.0351 12.0002 17.0352C9.57432 17.0352 7.54985 15.3192 7.07245 13.0352H2.00018C1.42857 13.0352 0.965027 12.5716 0.965027 12C0.965027 11.4284 1.42857 10.9648 2.00018 10.9648H7.07245C7.54985 8.68076 9.57432 6.96484 12.0002 6.96484ZM12.0002 9.03516C10.3627 9.03516 9.03534 10.3625 9.03534 12C9.03534 13.6375 10.3627 14.9648 12.0002 14.9648C13.6376 14.9647 14.965 13.6375 14.965 12C14.965 10.3625 13.6376 9.03526 12.0002 9.03516Z"/></svg>