<svg xmlns="http://www.w3.org/2000/svg" width="24" height="24" fill="none" viewBox="0 0 24 24"><path fill="currentColor" d="M7.96484 6C7.96484 4.91476 7.08524 4.03516 6 4.03516C4.91476 4.03516 4.03516 4.91476 4.03516 6C4.03516 7.08524 4.91476 7.96484 6 7.96484C7.08524 7.96484 7.96484 7.08524 7.96484 6ZM19.9648 18C19.9648 16.9148 19.0852 16.0352 18 16.0352C16.9148 16.0352 16.0352 16.9148 16.0352 18C16.0352 19.0852 16.9148 19.9648 18 19.9648C19.0852 19.9648 19.9648 19.0852 19.9648 18ZM22.0352 18C22.0352 20.2285 20.2285 22.0352 18 22.0352C15.7715 22.0352 13.9648 20.2285 13.9648 18C13.9648 16.1293 15.2379 14.5556 16.9648 14.0986V8C16.9648 7.74407 16.8636 7.49836 16.6826 7.31738C16.5016 7.13641 16.2559 7.03516 16 7.03516H13C12.4284 7.03516 11.9648 6.57161 11.9648 6C11.9648 5.42839 12.4284 4.96484 13 4.96484H16C16.8049 4.96484 17.5773 5.28434 18.1465 5.85352C18.7157 6.42269 19.0352 7.19507 19.0352 8V14.0986C20.7621 14.5556 22.0352 16.1293 22.0352 18ZM10.0352 6C10.0352 7.87057 8.76199 9.4433 7.03516 9.90039V21C7.03516 21.5716 6.57161 22.0352 6 22.0352C5.42839 22.0352 4.96484 21.5716 4.96484 21V9.90039C3.23801 9.4433 1.96484 7.87057 1.96484 6C1.96484 3.77153 3.77153 1.96484 6 1.96484C8.22847 1.96484 10.0352 3.77153 10.0352 6Z"/></svg>