<svg xmlns="http://www.w3.org/2000/svg" width="24" height="24" fill="none" viewBox="0 0 24 24"><path fill="currentColor" d="M19.9648 6C19.9648 4.91476 19.0852 4.03516 18 4.03516C16.9148 4.03516 16.0352 4.91476 16.0352 6C16.0352 7.08524 16.9148 7.96484 18 7.96484C19.0852 7.96484 19.9648 7.08524 19.9648 6ZM4.03516 18C4.03516 19.0852 4.91476 19.9648 6 19.9648C7.08524 19.9648 7.96484 19.0852 7.96484 18C7.96484 16.9148 7.08524 16.0352 6 16.0352C4.91476 16.0352 4.03516 16.9148 4.03516 18ZM22.0352 6C22.0352 7.88602 20.7408 9.46891 18.9922 9.91113C18.7801 12.2384 17.7616 14.4298 16.0957 16.0957C14.4298 17.7616 12.2384 18.7801 9.91113 18.9922C9.46891 20.7408 7.88602 22.0352 6 22.0352C3.77153 22.0352 1.96484 20.2285 1.96484 18C1.96484 16.1293 3.23789 14.5556 4.96484 14.0986V3C4.96484 2.42839 5.42839 1.96484 6 1.96484C6.57161 1.96484 7.03516 2.42839 7.03516 3V14.0986C8.41436 14.4636 9.50283 15.5413 9.88574 16.9131C11.6722 16.7132 13.3485 15.9152 14.6318 14.6318C15.9152 13.3485 16.7132 11.6722 16.9131 9.88574C15.2127 9.41112 13.9648 7.85178 13.9648 6C13.9648 3.77153 15.7715 1.96484 18 1.96484C20.2285 1.96484 22.0352 3.77153 22.0352 6Z"/></svg>