<svg xmlns="http://www.w3.org/2000/svg" width="24" height="24" fill="none" viewBox="0 0 24 24"><path fill="currentColor" d="M19.9648 18C19.9648 16.9148 19.0852 16.0352 18 16.0352C16.9148 16.0352 16.0352 16.9148 16.0352 18C16.0352 19.0852 16.9148 19.9648 18 19.9648C19.0852 19.9648 19.9648 19.0852 19.9648 18ZM19.9648 8C19.9648 6.91476 19.0852 6.03516 18 6.03516C16.9148 6.03516 16.0352 6.91476 16.0352 8C16.0352 9.08524 16.9148 9.96484 18 9.96484C19.0852 9.96484 19.9648 9.08524 19.9648 8ZM22.0352 8C22.0352 10.2285 20.2285 12.0352 18 12.0352C16.1294 12.0352 14.5567 10.762 14.0996 9.03516H4.03516V13.2002C4.03516 14.0571 4.03565 14.6377 4.07227 15.0859C4.10791 15.5222 4.17227 15.7419 4.24902 15.8926C4.43737 16.2621 4.73794 16.5626 5.10742 16.751C5.25806 16.8277 5.47781 16.8921 5.91406 16.9277C6.36234 16.9643 6.94287 16.9648 7.7998 16.9648H14.0996C14.5567 15.238 16.1294 13.9648 18 13.9648C20.2285 13.9648 22.0352 15.7715 22.0352 18C22.0352 20.2285 20.2285 22.0352 18 22.0352C16.1294 22.0352 14.5567 20.762 14.0996 19.0352H7.7998C6.97689 19.0352 6.29725 19.0353 5.74512 18.9902C5.18095 18.9441 4.65899 18.8449 4.16797 18.5947C3.409 18.2079 2.79208 17.591 2.40527 16.832C2.15509 16.341 2.05588 15.8191 2.00977 15.2549C1.96465 14.7027 1.96484 14.0231 1.96484 13.2002V3C1.96484 2.42839 2.42839 1.96484 3 1.96484C3.57161 1.96484 4.03516 2.42839 4.03516 3V6.96484H14.0996C14.5567 5.23801 16.1294 3.96484 18 3.96484C20.2285 3.96484 22.0352 5.77153 22.0352 8Z"/></svg>