<svg xmlns="http://www.w3.org/2000/svg" width="24" height="24" fill="none" viewBox="0 0 24 24"><path fill="currentColor" d="M18 3.96487C18.2486 3.96487 18.4314 3.96379 18.5967 3.97658C20.4289 4.1185 21.9335 5.48105 22.2568 7.29006C22.286 7.45321 22.3034 7.63472 22.3281 7.88186L22.9463 14.0645C23.2436 15.644 22.7828 17.3383 21.5606 18.5606C19.5943 20.5269 16.4058 20.5269 14.4395 18.5606C13.5065 17.6276 13.0164 16.4193 12.9688 15.1973C12.3421 14.9814 11.6569 14.9812 11.0303 15.1973C10.9827 16.4193 10.4935 17.6276 9.56056 18.5606C7.59427 20.5269 4.40576 20.5269 2.43946 18.5606C1.2172 17.3383 0.756441 15.644 1.05372 14.0645L1.67189 7.88186C1.6966 7.63472 1.71401 7.45322 1.74317 7.29006C2.06656 5.48105 3.57116 4.1185 5.40333 3.97658C5.56866 3.96379 5.75145 3.96487 6.00001 3.96487C6.57162 3.96487 7.03517 4.42841 7.03517 5.00002C7.03517 5.57164 6.57162 6.03518 6.00001 6.03518C5.71413 6.03518 5.62924 6.03596 5.56349 6.04104C4.67117 6.11008 3.93778 6.7733 3.78028 7.65432C3.76869 7.71922 3.75988 7.8037 3.73146 8.08791L3.4756 10.6426C5.40207 9.52487 7.91116 9.79009 9.56056 11.4395C10.0618 11.9407 10.434 12.5221 10.6797 13.1416C11.5432 12.9077 12.4558 12.9078 13.3193 13.1416C13.565 12.5219 13.9381 11.9408 14.4395 11.4395C16.0886 9.7903 18.5971 9.52536 20.5234 10.6426L20.2686 8.08791C20.2401 7.80371 20.2313 7.71922 20.2197 7.65432C20.0622 6.7733 19.3289 6.11008 18.4365 6.04104C18.3708 6.03596 18.2859 6.03518 18 6.03518C17.4284 6.03518 16.9649 5.57164 16.9649 5.00002C16.9649 4.42841 17.4284 3.96487 18 3.96487ZM8.09669 12.9033C6.93878 11.7454 5.06123 11.7454 3.90333 12.9033C2.74543 14.0613 2.74543 15.9388 3.90333 17.0967C5.06124 18.2546 6.93879 18.2546 8.09669 17.0967C9.25459 15.9388 9.25459 14.0612 8.09669 12.9033ZM20.0967 12.9033C18.9388 11.7454 17.0612 11.7454 15.9033 12.9033C14.7454 14.0613 14.7454 15.9388 15.9033 17.0967C17.0612 18.2546 18.9388 18.2546 20.0967 17.0967C21.2546 15.9388 21.2546 14.0612 20.0967 12.9033Z"/></svg>