<svg xmlns="http://www.w3.org/2000/svg" width="24" height="24" fill="none" viewBox="0 0 24 24"><path fill="currentColor" d="M14.4396 8.43956C16.4058 6.47327 19.5944 6.47328 21.5607 8.43956C23.5269 10.4058 23.5269 13.5944 21.5607 15.5607C19.5944 17.5269 16.4059 17.5269 14.4396 15.5607C13.5066 14.6277 13.0165 13.4194 12.9689 12.1974C12.3422 11.9815 11.657 11.9813 11.0304 12.1974C10.9828 13.4194 10.4936 14.6277 9.56065 15.5607C7.59436 17.5269 4.40585 17.5269 2.43956 15.5607C0.47327 13.5944 0.473275 10.4059 2.43956 8.43956C4.40584 6.47327 7.59436 6.47328 9.56065 8.43956C10.0619 8.94082 10.4341 9.52214 10.6798 10.1417C11.5433 9.90774 12.4559 9.90789 13.3194 10.1417C13.5651 9.52201 13.9382 8.94091 14.4396 8.43956ZM8.09678 9.90342C6.93887 8.74552 5.06132 8.74553 3.90342 9.90342C2.74552 11.0613 2.74553 12.9389 3.90342 14.0968C5.06134 15.2547 6.93888 15.2547 8.09678 14.0968C9.25469 12.9389 9.25468 11.0613 8.09678 9.90342ZM20.0968 9.90342C18.9389 8.74552 17.0613 8.74553 15.9034 9.90342C14.7455 11.0613 14.7455 12.9389 15.9034 14.0968C17.0613 15.2547 18.9389 15.2547 20.0968 14.0968C21.2547 12.9389 21.2547 11.0613 20.0968 9.90342Z"/></svg>