<svg xmlns="http://www.w3.org/2000/svg" width="24" height="24" fill="none" viewBox="0 0 24 24"><g clip-path="url(#a)"><path fill="currentColor" d="M12 0.964844C14.9807 0.964844 17.6833 2.14881 19.6689 4.06934C19.7015 4.09686 19.7325 4.12645 19.7617 4.1582C21.7822 6.15822 23.0352 8.9324 23.0352 12C23.0352 12.1849 23.0305 12.3685 23.0215 12.5508C22.9956 13.0763 22.5814 13.4931 22.0674 13.5322L21.9629 13.5352L21.9609 13.5342H21.9502C21.9433 13.534 21.9337 13.5336 21.9219 13.5332C21.8983 13.5324 21.8651 13.5313 21.8232 13.5293C21.7396 13.5254 21.6208 13.5188 21.4736 13.5078C21.1796 13.4859 20.7686 13.4468 20.2949 13.376C19.3649 13.2369 18.1183 12.9663 17.0371 12.4258C16.6035 12.209 16.1144 11.7714 15.7168 11.251C15.3063 10.7136 14.9152 9.98642 14.7891 9.13379C14.6591 8.25513 14.8197 7.2923 15.4463 6.3623C15.8484 5.76556 16.4249 5.20821 17.1924 4.69434C15.727 3.65094 13.936 3.03516 12 3.03516C11.1868 3.03516 10.3994 3.14476 9.65039 3.34766L12.0557 6.77148C12.4007 7.26262 12.4277 7.91042 12.125 8.42871L10.3037 11.5449L10.3184 14.6895C10.3226 15.6531 9.44822 16.3824 8.50098 16.2051L4.94043 15.5381L4.01367 16.0723C5.49724 18.976 8.51545 20.9648 12 20.9648C12.1507 20.9648 12.3005 20.9614 12.4492 20.9541C13.02 20.9261 13.5059 21.3658 13.5342 21.9365C13.5623 22.5074 13.1217 22.9934 12.5508 23.0215C12.3682 23.0305 12.1846 23.0352 12 23.0352C7.34471 23.0352 3.36618 20.1509 1.74512 16.0732C1.72899 16.0379 1.71499 16.0021 1.70312 15.9658C1.22864 14.7347 0.964844 13.3984 0.964844 12C0.964844 7.47237 3.69284 3.58412 7.59375 1.88281C7.60027 1.87986 7.60672 1.87683 7.61328 1.87402C8.95804 1.29066 10.4408 0.964844 12 0.964844ZM12.8594 12.8594C13.1473 12.5714 13.5772 12.4787 13.958 12.623L22.3066 15.79C22.7056 15.9414 22.9708 16.3224 22.9746 16.749C22.9782 17.1754 22.7201 17.5604 22.3242 17.7188L19.0332 19.0332L17.7188 22.3242C17.5604 22.7201 17.1754 22.9782 16.749 22.9746C16.3224 22.9708 15.9414 22.7056 15.79 22.3066L12.623 13.958C12.4787 13.5772 12.5714 13.1473 12.8594 12.8594ZM16.7822 19.0869L17.2764 17.8535L17.3203 17.7578C17.4343 17.5399 17.6231 17.3685 17.8535 17.2764L19.0869 16.7822L15.374 15.374L16.7822 19.0869ZM18.7842 6.14355C17.9336 6.63391 17.4391 7.10891 17.1631 7.51855C16.8366 8.00316 16.7794 8.44214 16.8369 8.83105C16.8983 9.24579 17.1001 9.65219 17.3613 9.99414C17.6353 10.3528 17.8962 10.5408 17.9629 10.5742C18.7587 10.9721 19.7562 11.2018 20.6006 11.3281C20.7185 11.3458 20.8326 11.3586 20.9404 11.3721C20.8025 9.37885 20.0137 7.56662 18.7842 6.14355ZM3.03516 12C3.03516 12.7246 3.12286 13.4287 3.28516 14.1035L4.07715 13.6475L4.19922 13.584C4.44677 13.4692 4.72058 13.4221 4.99219 13.4482L5.12695 13.4678L8.24512 14.0508L8.2334 11.4092C8.23218 11.1348 8.30497 10.8649 8.44336 10.6279L10.1641 7.67969L7.67969 4.14355C4.91104 5.6693 3.03516 8.6153 3.03516 12Z"/></g><defs><clipPath id="a"><path fill="#fff" d="M0 0H24V24H0z"/></clipPath></defs></svg>