<svg xmlns="http://www.w3.org/2000/svg" width="24" height="24" fill="none" viewBox="0 0 24 24"><g clip-path="url(#a)"><path fill="currentColor" d="M12 0.964844C18.0945 0.964844 23.0352 5.90554 23.0352 12C23.0352 18.0945 18.0945 23.0352 12 23.0352C5.90554 23.0352 0.964844 18.0945 0.964844 12C0.964844 5.90554 5.90554 0.964844 12 0.964844ZM14.251 16.8857C13.4942 16.9725 12.7442 17.0201 12.0215 17.0352C12.0072 17.0355 11.9928 17.0355 11.9785 17.0352C11.2555 17.0201 10.5051 16.9726 9.74805 16.8857C9.79096 17.0264 9.83542 17.1661 9.88281 17.3037C10.3608 18.6913 11.0522 19.8618 12 20.6953C12.9478 19.8618 13.6392 18.6913 14.1172 17.3037C14.1645 17.1662 14.2081 17.0263 14.251 16.8857ZM3.50684 14.8691C4.3991 17.5113 6.48785 19.5996 9.12988 20.4922C8.62375 19.7119 8.229 18.8578 7.92578 17.9775C7.75955 17.4949 7.61829 17.0001 7.5 16.499C6.99936 16.3808 6.50471 16.2403 6.02246 16.0742C5.14173 15.7709 4.28741 15.3756 3.50684 14.8691ZM20.4922 14.8691C19.7118 15.3754 18.858 15.7709 17.9775 16.0742C17.495 16.2404 17 16.3807 16.499 16.499C16.3807 17 16.2404 17.495 16.0742 17.9775C15.7709 18.858 15.3754 19.7118 14.8691 20.4922C17.5115 19.5998 19.5998 17.5115 20.4922 14.8691ZM12 9.03516C11.0992 9.05474 10.1736 9.12626 9.26562 9.26562C9.12626 10.1736 9.05474 11.0992 9.03516 12C9.05473 12.9005 9.12635 13.8257 9.26562 14.7334C10.1736 14.8728 11.0992 14.9443 12 14.9639C12.9005 14.9443 13.8257 14.8727 14.7334 14.7334C14.8727 13.8257 14.9443 12.9005 14.9639 12C14.9443 11.0992 14.8728 10.1736 14.7334 9.26562C13.8257 9.12635 12.9005 9.05473 12 9.03516ZM7.11328 9.74805C6.97297 9.79088 6.83358 9.83552 6.69629 9.88281C5.30846 10.3609 4.13726 11.0519 3.30371 12C4.13726 12.9481 5.30846 13.6391 6.69629 14.1172C6.8335 14.1644 6.97306 14.2082 7.11328 14.251C7.02655 13.4943 6.9799 12.7442 6.96484 12.0215C6.96455 12.0072 6.96455 11.9928 6.96484 11.9785C6.97991 11.2555 7.02648 10.5051 7.11328 9.74805ZM16.8857 9.74805C16.9726 10.5051 17.0201 11.2555 17.0352 11.9785C17.0355 11.9928 17.0355 12.0072 17.0352 12.0215C17.0201 12.7442 16.9725 13.4942 16.8857 14.251C17.0263 14.2081 17.1662 14.1645 17.3037 14.1172C18.6913 13.6392 19.8618 12.9478 20.6953 12C19.8618 11.0522 18.6913 10.3608 17.3037 9.88281C17.1661 9.83542 17.0264 9.79096 16.8857 9.74805ZM9.12988 3.50684C6.488 4.3993 4.3993 6.488 3.50684 9.12988C4.28729 8.62353 5.1419 8.22909 6.02246 7.92578C6.50478 7.75965 6.99928 7.61824 7.5 7.5C7.61824 6.99928 7.75965 6.50478 7.92578 6.02246C8.22909 5.1419 8.62353 4.28729 9.12988 3.50684ZM14.8691 3.50684C15.3756 4.28741 15.7709 5.14173 16.0742 6.02246C16.2403 6.50471 16.3808 6.99936 16.499 7.5C17.0001 7.61829 17.4949 7.75955 17.9775 7.92578C18.8578 8.229 19.7119 8.62375 20.4922 9.12988C19.5996 6.48785 17.5113 4.3991 14.8691 3.50684ZM12 3.30371C11.0519 4.13726 10.3609 5.30846 9.88281 6.69629C9.83552 6.83358 9.79088 6.97297 9.74805 7.11328C10.5051 7.02648 11.2555 6.97991 11.9785 6.96484H12.0215C12.7442 6.9799 13.4943 7.02655 14.251 7.11328C14.2082 6.97306 14.1644 6.8335 14.1172 6.69629C13.6391 5.30846 12.9481 4.13726 12 3.30371Z"/></g><defs><clipPath id="a"><path fill="#fff" d="M0 0H24V24H0z"/></clipPath></defs></svg>