<svg xmlns="http://www.w3.org/2000/svg" width="24" height="24" fill="none" viewBox="0 0 24 24"><g clip-path="url(#a)"><path fill="currentColor" d="M12 0.964844C18.0945 0.964844 23.0352 5.90554 23.0352 12C23.0352 18.0945 18.0945 23.0352 12 23.0352C5.90554 23.0352 0.964844 18.0945 0.964844 12C0.964844 5.90554 5.90554 0.964844 12 0.964844ZM3.09668 13.0352C3.51896 16.707 6.15774 19.7019 9.64258 20.6494C8.15036 18.3775 7.24513 15.7603 7.01855 13.0352H3.09668ZM16.9814 13.0352C16.7549 15.7605 15.8488 18.3774 14.3564 20.6494C17.8417 19.7021 20.481 16.7073 20.9033 13.0352H16.9814ZM9.09961 13.0352C9.35478 15.7117 10.3596 18.2606 12 20.3887C13.6404 18.2606 14.6452 15.7117 14.9004 13.0352H9.09961ZM14.3564 3.34961C15.8491 5.62181 16.7548 8.23922 16.9814 10.9648H20.9033C20.481 7.29262 17.8419 4.29682 14.3564 3.34961ZM12 3.61035C10.3594 5.73853 9.3548 8.28807 9.09961 10.9648H14.9004C14.6452 8.28807 13.6406 5.73853 12 3.61035ZM9.64258 3.34961C6.15762 4.2971 3.51897 7.29294 3.09668 10.9648H7.01855C7.24516 8.2394 8.1501 5.6217 9.64258 3.34961Z"/></g><defs><clipPath id="a"><path fill="#fff" d="M0 0H24V24H0z"/></clipPath></defs></svg>