<svg xmlns="http://www.w3.org/2000/svg" width="24" height="24" fill="none" viewBox="0 0 24 24"><g clip-path="url(#a)"><path fill="currentColor" d="M20.9648 12C20.9648 11.3248 20.8876 10.6677 20.7461 10.0352H16.877C16.9675 10.6764 17.0215 11.3252 17.0352 11.9785C17.0355 11.9928 17.0355 12.0072 17.0352 12.0215C17.0215 12.6748 16.9675 13.3236 16.877 13.9648H20.7461C20.8876 13.3323 20.9648 12.6752 20.9648 12ZM3.99512 16.0352C5.12748 18.2771 7.17208 19.9777 9.64258 20.6494C8.7085 19.2273 8.00473 17.6695 7.55273 16.0352H3.99512ZM16.4473 16.0352C15.9952 17.6697 15.2907 19.2271 14.3564 20.6494C16.8273 19.9778 18.8724 18.2774 20.0049 16.0352H16.4473ZM9.71582 16.0352C10.2178 17.6009 10.9874 19.075 12 20.3887C13.0126 19.075 13.7822 17.6009 14.2842 16.0352H9.71582ZM9.2168 10.0352C9.1119 10.682 9.04994 11.3382 9.03516 12C9.04994 12.6618 9.1119 13.318 9.2168 13.9648H14.7832C14.8881 13.318 14.9491 12.6618 14.9639 12C14.9491 11.3382 14.8881 10.682 14.7832 10.0352H9.2168ZM14.3564 3.34961C15.2909 4.77208 15.9951 6.33005 16.4473 7.96484H20.0049C18.8723 5.72255 16.8275 4.02115 14.3564 3.34961ZM12 3.61035C10.9872 4.92416 10.2179 6.3989 9.71582 7.96484H14.2842C13.7821 6.3989 13.0128 4.92416 12 3.61035ZM9.64258 3.34961C7.17197 4.02132 5.12752 5.72283 3.99512 7.96484H7.55273C8.00481 6.33022 8.70828 4.77196 9.64258 3.34961ZM3.03516 12C3.03516 12.6752 3.11243 13.3323 3.25391 13.9648H7.12305C7.03252 13.3236 6.97845 12.6748 6.96484 12.0215C6.96455 12.0072 6.96455 11.9928 6.96484 11.9785C6.97845 11.3252 7.03252 10.6764 7.12305 10.0352H3.25391C3.11243 10.6677 3.03516 11.3248 3.03516 12ZM23.0352 12C23.0352 18.0945 18.0945 23.0352 12 23.0352C5.90554 23.0352 0.964844 18.0945 0.964844 12C0.964844 5.90554 5.90554 0.964844 12 0.964844C18.0945 0.964844 23.0352 5.90554 23.0352 12Z"/></g><defs><clipPath id="a"><path fill="#fff" d="M0 0H24V24H0z"/></clipPath></defs></svg>