<svg xmlns="http://www.w3.org/2000/svg" width="24" height="24" fill="none" viewBox="0 0 24 24"><path fill="currentColor" d="M16.9648 10.4999C16.9648 6.92943 14.0705 4.03512 10.5 4.03508C6.92948 4.03508 4.03516 6.9294 4.03516 10.4999C4.03521 14.0704 6.92952 16.9648 10.5 16.9648C14.0704 16.9647 16.9648 14.0704 16.9648 10.4999ZM19.0352 10.4999C19.0351 15.2136 15.2137 19.035 10.5 19.0351C8.51606 19.0351 6.69157 18.3561 5.24219 17.2206L3.86914 18.5937C7.97923 21.9696 14.0596 21.7392 17.8994 17.8993C21.9863 13.8125 21.9862 7.18637 17.8994 3.09953C17.4957 2.69544 17.4957 2.04073 17.8994 1.63664C18.3036 1.23245 18.9591 1.23245 19.3633 1.63664C24.2584 6.53187 24.2585 14.468 19.3633 19.3632C14.6751 24.0514 7.19836 24.2494 2.27344 19.9579C2.18924 19.8846 2.07234 19.7841 1.97656 19.6835C1.86579 19.5671 1.73334 19.4016 1.64551 19.1698C1.52721 18.8576 1.51471 18.5012 1.61133 18.1816L1.67578 18.0107C1.74766 17.8514 1.83831 17.7281 1.91406 17.6376C2.00408 17.5301 2.11676 17.4193 2.20215 17.3339L3.77832 15.7568C2.6433 14.3075 1.96487 12.4834 1.96484 10.4999C1.96484 5.78617 5.78625 1.96477 10.5 1.96477C15.2137 1.96481 19.0352 5.7862 19.0352 10.4999Z"/></svg>