<svg xmlns="http://www.w3.org/2000/svg" width="24" height="24" fill="none" viewBox="0 0 24 24"><g clip-path="url(#a)"><path fill="currentColor" d="M11.9648 6C11.9648 4.9113 12.3111 3.90368 12.8984 3.08008C12.6031 3.05073 12.3034 3.03516 12 3.03516C7.84067 3.03516 4.34352 5.86768 3.33105 9.70898L7.5 9.33789L7.61133 9.33203C8.13116 9.32348 8.62039 9.57911 8.91016 10.0107L8.96973 10.1055L10.7578 13.2412L13.4883 14.8008C14.3249 15.2788 14.5194 16.4011 13.8926 17.1328L11.5352 19.8828V20.9521C11.6891 20.96 11.8441 20.9648 12 20.9648C16.9512 20.9648 20.9648 16.9512 20.9648 12C20.9648 11.1717 20.8523 10.3707 20.6426 9.61035C20.6179 9.64314 20.5953 9.67749 20.5703 9.70996C19.7675 10.7524 18.6971 11.7658 17.7314 12.7314C17.3273 13.1356 16.6727 13.1356 16.2686 12.7314C15.3029 11.7658 14.2325 10.7524 13.4297 9.70996C12.6167 8.6543 11.9648 7.43264 11.9648 6ZM17 4.46484C17.7097 4.46484 18.2852 5.04031 18.2852 5.75C18.2852 6.45969 17.7097 7.03516 17 7.03516C16.2903 7.03516 15.7148 6.45969 15.7148 5.75C15.7148 5.04031 16.2903 4.46484 17 4.46484ZM3.03516 12C3.03516 16.0705 5.74858 19.5047 9.46484 20.5986V19.6846C9.46493 19.3183 9.59659 18.9637 9.83496 18.6855L11.8984 16.2773L9.60547 14.9668C9.36723 14.8307 9.16919 14.6328 9.0332 14.3945L7.3418 11.4297L3.03906 11.8125C3.03778 11.8749 3.03516 11.9373 3.03516 12ZM14.0352 6C14.0352 6.77643 14.3833 7.55524 15.0703 8.44727C15.5978 9.13217 16.2615 9.80088 17 10.5352C17.7385 9.80088 18.4022 9.13217 18.9297 8.44727C19.6167 7.55524 19.9648 6.77643 19.9648 6C19.9648 4.36248 18.6375 3.03516 17 3.03516C15.3625 3.03516 14.0352 4.36248 14.0352 6ZM22.0352 6C22.0352 6.38906 21.9857 6.76227 21.8994 7.12109C22.6262 8.59325 23.0352 10.2501 23.0352 12C23.0352 18.0945 18.0945 23.0352 12 23.0352C11.4553 23.0352 10.92 22.9942 10.3965 22.918C10.3929 22.9176 10.3893 22.9164 10.3857 22.916C5.05661 22.1347 0.964844 17.546 0.964844 12C0.964844 11.5846 0.990459 11.1749 1.03516 10.7715C1.03738 10.7454 1.04078 10.7199 1.04492 10.6943C1.69098 5.21545 6.34744 0.964844 12 0.964844C13.038 0.964844 14.0435 1.1109 14.998 1.37988C15.6117 1.1136 16.2884 0.964844 17 0.964844C19.7808 0.964844 22.0352 3.21925 22.0352 6Z"/></g><defs><clipPath id="a"><path fill="#fff" d="M0 0H24V24H0z"/></clipPath></defs></svg>