<svg xmlns="http://www.w3.org/2000/svg" width="24" height="24" fill="none" viewBox="0 0 24 24"><path fill="currentColor" d="M16.4648 9.50041C16.4648 6.75833 14.242 4.53558 11.4999 4.53557C8.75783 4.53557 6.53508 6.75832 6.53508 9.50041C6.53522 12.2424 8.75791 14.4653 11.4999 14.4653C14.2419 14.4652 16.4646 12.2424 16.4648 9.50041ZM18.5351 9.50041C18.5349 13.3856 15.3851 16.5355 11.4999 16.5356C9.93052 16.5356 8.48169 16.0205 7.31145 15.1518L6.29191 16.1713C9.61336 18.771 14.4272 18.5437 17.4853 15.4858C20.7911 12.18 20.7911 6.81987 17.4853 3.51408C17.0815 3.10998 17.0815 2.4553 17.4853 2.05119C17.8895 1.647 18.5449 1.647 18.9491 2.05119C23.0632 6.16538 23.0633 12.8355 18.9491 16.9496C17.2837 18.615 15.1992 19.6052 13.0351 19.9223V20.9653H16.9999C17.5715 20.9653 18.0351 21.4288 18.0351 22.0004C18.0349 22.5719 17.5714 23.0355 16.9999 23.0356H6.99992C6.42839 23.0356 5.96491 22.5719 5.96477 22.0004C5.96477 21.4288 6.42831 20.9653 6.99992 20.9653H10.9648V20.0199C8.77294 19.9091 6.60967 19.1181 4.81828 17.6449L3.3925 19.0707C2.98834 19.4747 2.33377 19.4747 1.92961 19.0707C1.52542 18.6665 1.52542 18.011 1.92961 17.6069L5.84758 13.6879C4.97927 12.5179 4.46482 11.0694 4.46477 9.50041C4.46477 5.61509 7.6146 2.46525 11.4999 2.46525C15.3852 2.46527 18.5351 5.6151 18.5351 9.50041Z"/></svg>