<svg xmlns="http://www.w3.org/2000/svg" width="24" height="24" fill="none" viewBox="0 0 24 24"><g clip-path="url(#a)"><path fill="currentColor" d="M20.9648 12C20.9648 8.19908 18.5988 4.9527 15.2598 3.64844L15.0645 6.58691C15.0576 6.68901 15.0514 6.98236 14.9395 7.25293C14.8541 7.45899 14.7246 7.64387 14.5605 7.79492C14.3454 7.99292 14.0733 8.09993 13.9795 8.1416L10.166 9.83594L9.29688 10.9961C9.22482 11.0922 9.13427 11.2136 9.0459 11.3135C8.94924 11.4228 8.79964 11.5725 8.5791 11.6826C8.29344 11.8252 7.96971 11.8748 7.6543 11.8252C7.41087 11.7868 7.22279 11.6902 7.09766 11.6152C6.98311 11.5466 6.86045 11.4575 6.7627 11.3877L3.52539 9.0752C3.209 9.99209 3.03516 10.9756 3.03516 12C3.03516 16.9512 7.04877 20.9648 12 20.9648C16.9512 20.9648 20.9648 16.9512 20.9648 12ZM12.25 12.0771C12.4036 12.0784 12.5349 12.1042 12.6338 12.1289C12.7528 12.1587 12.8837 12.2034 12.9854 12.2373L13.8271 12.5186L13.9072 12.5488L16.5234 13.6699C16.658 13.7276 16.8212 13.796 16.9561 13.8682C17.0813 13.9353 17.2586 14.044 17.416 14.2246L17.4824 14.3066L17.5576 14.4189C17.7227 14.6873 17.8018 15.0007 17.7822 15.3174C17.7645 15.6045 17.6591 15.8293 17.5811 15.9717C17.5076 16.1057 17.4093 16.2522 17.3281 16.374L16.0986 18.2178C16.0476 18.2944 15.9111 18.5178 15.707 18.6855C15.5512 18.8136 15.3717 18.9101 15.1787 18.9688C14.9263 19.0454 14.6647 19.0352 14.5723 19.0352H12.5762C12.4568 19.0352 12.1134 19.0523 11.7988 18.9287C11.5597 18.8347 11.3475 18.6815 11.1826 18.4844C10.9657 18.2248 10.8736 17.8932 10.8359 17.7803L10.123 15.6416C10.1 15.5724 10.0289 15.3801 10.0107 15.1709C9.99689 15.0104 10.0085 14.8483 10.0449 14.6914L10.0879 14.5439C10.1369 14.4039 10.1981 14.2904 10.2227 14.2412L10.7637 13.1582C10.8116 13.0623 10.8734 12.9374 10.9365 12.832C11.0064 12.7156 11.1153 12.5569 11.29 12.416L11.3779 12.3506C11.5887 12.2043 11.8336 12.1125 12.0898 12.085L12.25 12.0771ZM12.1172 15.0791L12.7461 16.9648H14.4453L15.4482 15.4609L13.1299 14.4668L12.5234 14.2646L12.1172 15.0791ZM12.0312 15.2529V15.2539C12.0315 15.2533 12.0327 15.2507 12.0342 15.2471C12.0346 15.246 12.0346 15.2445 12.0352 15.2432L12.0312 15.2529ZM12 3.03516C8.82158 3.03516 6.03142 4.69028 4.43945 7.18457L7.77832 9.56934L8.54688 8.5459C8.5751 8.50826 8.65115 8.40147 8.74805 8.30664C8.82257 8.23372 8.90447 8.16865 8.99219 8.1123C9.10601 8.03919 9.2263 7.98893 9.26953 7.96973L13.0078 6.30762L13.2207 3.12012C12.8214 3.06574 12.4142 3.03516 12 3.03516ZM23.0352 12C23.0352 18.0945 18.0945 23.0352 12 23.0352C5.90554 23.0352 0.964844 18.0945 0.964844 12C0.964844 10.2283 1.38398 8.55491 2.12598 7.07129C2.14315 7.03174 2.16305 6.99295 2.18555 6.95508C4.01749 3.39838 7.72373 0.964844 12 0.964844C12.8508 0.964844 13.6781 1.06577 14.4736 1.24805C14.5225 1.25556 14.57 1.26626 14.6162 1.28027C19.4475 2.45526 23.0352 6.80721 23.0352 12Z"/></g><defs><clipPath id="a"><path fill="#fff" d="M0 0H24V24H0z"/></clipPath></defs></svg>