<svg xmlns="http://www.w3.org/2000/svg" width="24" height="24" fill="none" viewBox="0 0 24 24"><g clip-path="url(#a)"><path fill="currentColor" d="M14.9648 12C14.9648 10.3625 13.6375 9.03516 12 9.03516C10.3625 9.03516 9.03516 10.3625 9.03516 12C9.03516 12.4926 9.15657 12.9564 9.36914 13.3652L9.43652 13.4824C9.44031 13.489 9.44266 13.4963 9.44629 13.5029C9.96196 14.3772 10.9115 14.9648 12 14.9648C13.0705 14.9648 14.0061 14.3963 14.5273 13.5459L14.5635 13.4824C14.5726 13.4666 14.583 13.4517 14.5928 13.4365C14.8292 13.0108 14.9648 12.5215 14.9648 12ZM12 3.03516C9.28099 3.03516 6.84625 4.24678 5.20215 6.1582L7.39746 9.95605C8.18121 8.19386 9.94698 6.96484 12 6.96484H19.418C17.8049 4.59306 15.0846 3.03516 12 3.03516ZM3.03516 12C3.03516 16.3828 6.18052 20.0287 10.3369 20.8086L12.5303 17.0059C12.356 17.0241 12.1792 17.0352 12 17.0352C10.0684 17.0352 8.39128 15.947 7.54688 14.3506L3.92871 8.09277C3.35598 9.27371 3.03516 10.5994 3.03516 12ZM17.0352 12C17.0352 12.9747 16.7559 13.8834 16.2764 14.6543L12.6514 20.9385C17.2984 20.6047 20.9648 16.7321 20.9648 12C20.9648 10.9607 20.7862 9.96339 20.4609 9.03516H16.0693C16.6764 9.86689 17.0352 10.8915 17.0352 12ZM23.0352 12C23.0352 18.0945 18.0945 23.0352 12 23.0352C11.6041 23.0352 11.2132 23.0133 10.8281 22.9727C10.7717 22.9699 10.7152 22.9634 10.6592 22.9512C5.19727 22.2894 0.964844 17.6405 0.964844 12C0.964844 9.58713 1.74085 7.35617 3.05469 5.54004C3.09091 5.47753 3.13418 5.41867 3.18359 5.36426C5.19753 2.69272 8.39666 0.964844 12 0.964844C16.4896 0.964844 20.3499 3.64758 22.0732 7.49609C22.1004 7.54462 22.1234 7.5955 22.1426 7.64844C22.7162 8.98374 23.0352 10.4545 23.0352 12Z"/></g><defs><clipPath id="a"><path fill="#fff" d="M0 0H24V24H0z"/></clipPath></defs></svg>