<svg xmlns="http://www.w3.org/2000/svg" width="24" height="24" fill="none" viewBox="0 0 24 24"><path fill="currentColor" d="M17.9648 11.674L12.8203 14.2463C12.7427 14.2851 12.5277 14.4035 12.2832 14.4494C12.0961 14.4845 11.9039 14.4845 11.7168 14.4494C11.4723 14.4035 11.2573 14.2851 11.1797 14.2463L6.03516 11.674V16.0109C6.03516 16.1918 6.03537 16.2885 6.03906 16.3576C6.09921 16.3918 6.18595 16.435 6.34766 16.5158L11.7471 19.216C11.8789 19.282 11.9492 19.3165 12 19.3391C12.0508 19.3165 12.1211 19.282 12.2529 19.216L17.6523 16.5158C17.8134 16.4353 17.8998 16.3918 17.96 16.3576C17.9637 16.2885 17.9648 16.1918 17.9648 16.0109V11.674ZM4.31445 8.49922L12 12.342L19.6846 8.49922L12 4.65743L4.31445 8.49922ZM20.0352 16.2414C20.0331 16.4875 20.0173 16.7739 19.9238 17.0451C19.8255 17.3303 19.6651 17.5904 19.4541 17.8059C19.1864 18.0791 18.8321 18.2404 18.5781 18.3674L13.1787 21.0676C12.97 21.1719 12.6885 21.3232 12.375 21.382C12.1272 21.4285 11.8728 21.4285 11.625 21.382C11.3115 21.3232 11.03 21.1719 10.8213 21.0676L5.42188 18.3674C5.16793 18.2404 4.81355 18.0791 4.5459 17.8059C4.33485 17.5904 4.17452 17.3303 4.07617 17.0451C3.98267 16.7739 3.96689 16.4875 3.96484 16.2414V10.6389L1.53711 9.42598C1.18659 9.25072 0.965003 8.89206 0.964844 8.5002C0.964844 8.10823 1.18657 7.74977 1.53711 7.57442L11.1797 2.75313C11.2573 2.71428 11.4724 2.59589 11.7168 2.55L11.8584 2.53047C11.9526 2.52174 12.0474 2.52174 12.1416 2.53047L12.2832 2.55L12.459 2.5959C12.6264 2.65027 12.762 2.72398 12.8203 2.75313L22.4629 7.57442C22.8134 7.74977 23.0352 8.10823 23.0352 8.5002C23.035 8.89206 22.8134 9.25072 22.4629 9.42598L20.0352 10.6389V16.2414Z"/></svg>