<svg xmlns="http://www.w3.org/2000/svg" width="24" height="24" fill="none" viewBox="0 0 24 24"><path fill="currentColor" d="M15.9648 14.5002V12.674L12.8203 14.2463C12.7427 14.2851 12.5277 14.4035 12.2832 14.4494C12.0961 14.4845 11.9039 14.4845 11.7168 14.4494C11.4723 14.4035 11.2573 14.2851 11.1797 14.2463L5.03516 11.174V16.3068C5.03516 16.4931 5.03517 16.5935 5.03906 16.6652C5.10268 16.6988 5.19369 16.7414 5.36426 16.8195L11.7646 19.7531C11.8877 19.8095 11.9529 19.8384 12 19.8576C12.0471 19.8384 12.1123 19.8095 12.2354 19.7531L18.6357 16.8195C18.8056 16.7417 18.8964 16.6987 18.96 16.6652C18.9639 16.5935 18.9648 16.4932 18.9648 16.3068V11.174L18.0352 11.6389V14.5002C18.0349 15.0716 17.5715 15.5344 17 15.5344C16.4285 15.5344 15.9651 15.0716 15.9648 14.5002ZM4.31445 8.49922L12 12.342L14.6846 10.9992L11.5371 9.42598C11.026 9.1704 10.8188 8.54851 11.0742 8.03731C11.3299 7.52604 11.9516 7.31878 12.4629 7.57442L17 9.842L19.6846 8.49922L12 4.65743L4.31445 8.49922ZM21.0352 16.5451C21.033 16.7996 21.0162 17.0956 20.917 17.3742C20.8126 17.6671 20.6427 17.9327 20.4199 18.1496C20.1373 18.4248 19.7651 18.579 19.498 18.7014L13.0977 21.635C12.9022 21.7245 12.6384 21.854 12.3477 21.9045C12.1176 21.9444 11.8824 21.9444 11.6523 21.9045C11.3616 21.854 11.0978 21.7245 10.9023 21.635L4.50195 18.7014C4.23488 18.579 3.86269 18.4248 3.58008 18.1496C3.35731 17.9327 3.18738 17.6671 3.08301 17.3742C2.98377 17.0956 2.96701 16.7996 2.96484 16.5451V10.1389L1.53711 9.42598C1.18659 9.25072 0.965003 8.89206 0.964844 8.5002C0.964844 8.10823 1.18657 7.74977 1.53711 7.57442L11.1797 2.75313C11.2573 2.71428 11.4724 2.59589 11.7168 2.55L11.8584 2.53047C11.9526 2.52174 12.0474 2.52174 12.1416 2.53047L12.2832 2.55L12.459 2.5959C12.6264 2.65027 12.762 2.72398 12.8203 2.75313L22.4629 7.57442C22.8134 7.74977 23.0352 8.10823 23.0352 8.5002C23.035 8.89206 22.8134 9.25072 22.4629 9.42598L21.0352 10.1389V16.5451Z"/></svg>