<svg xmlns="http://www.w3.org/2000/svg" width="24" height="24" fill="none" viewBox="0 0 24 24"><path fill="currentColor" d="M3.00977 19.9648C3.58138 19.9648 4.04492 20.4284 4.04492 21C4.04492 21.5716 3.58138 22.0352 3.00977 22.0352H3C2.42839 22.0352 1.96484 21.5716 1.96484 21C1.96484 20.4284 2.42839 19.9648 3 19.9648H3.00977ZM7.50977 19.9648C8.08138 19.9648 8.54492 20.4284 8.54492 21C8.54492 21.5716 8.08138 22.0352 7.50977 22.0352H7.5C6.92839 22.0352 6.46484 21.5716 6.46484 21C6.46484 20.4284 6.92839 19.9648 7.5 19.9648H7.50977ZM12.0098 19.9648C12.5814 19.9648 13.0449 20.4284 13.0449 21C13.0449 21.5716 12.5814 22.0352 12.0098 22.0352H12C11.4284 22.0352 10.9648 21.5716 10.9648 21C10.9648 20.4284 11.4284 19.9648 12 19.9648H12.0098ZM16.5098 19.9648C17.0814 19.9648 17.5449 20.4284 17.5449 21C17.5449 21.5716 17.0814 22.0352 16.5098 22.0352H16.5C15.9284 22.0352 15.4648 21.5716 15.4648 21C15.4648 20.4284 15.9284 19.9648 16.5 19.9648H16.5098ZM21.0098 19.9648C21.5814 19.9648 22.0449 20.4284 22.0449 21C22.0449 21.5716 21.5814 22.0352 21.0098 22.0352H21C20.4284 22.0352 19.9648 21.5716 19.9648 21C19.9648 20.4284 20.4284 19.9648 21 19.9648H21.0098ZM3.00977 15.4648C3.58138 15.4648 4.04492 15.9284 4.04492 16.5C4.04492 17.0716 3.58138 17.5352 3.00977 17.5352H3C2.42839 17.5352 1.96484 17.0716 1.96484 16.5C1.96484 15.9284 2.42839 15.4648 3 15.4648H3.00977ZM12.0098 15.4648C12.5814 15.4648 13.0449 15.9284 13.0449 16.5C13.0449 17.0716 12.5814 17.5352 12.0098 17.5352H12C11.4284 17.5352 10.9648 17.0716 10.9648 16.5C10.9648 15.9284 11.4284 15.4648 12 15.4648H12.0098ZM21.0098 15.4648C21.5814 15.4648 22.0449 15.9284 22.0449 16.5C22.0449 17.0716 21.5814 17.5352 21.0098 17.5352H21C20.4284 17.5352 19.9648 17.0716 19.9648 16.5C19.9648 15.9284 20.4284 15.4648 21 15.4648H21.0098ZM3.00977 10.9648C3.58138 10.9648 4.04492 11.4284 4.04492 12C4.04492 12.5716 3.58138 13.0352 3.00977 13.0352H3C2.42839 13.0352 1.96484 12.5716 1.96484 12C1.96484 11.4284 2.42839 10.9648 3 10.9648H3.00977ZM7.50977 10.9648C8.08138 10.9648 8.54492 11.4284 8.54492 12C8.54492 12.5716 8.08138 13.0352 7.50977 13.0352H7.5C6.92839 13.0352 6.46484 12.5716 6.46484 12C6.46484 11.4284 6.92839 10.9648 7.5 10.9648H7.50977ZM12.0098 10.9648C12.5814 10.9648 13.0449 11.4284 13.0449 12C13.0449 12.5716 12.5814 13.0352 12.0098 13.0352H12C11.4284 13.0352 10.9648 12.5716 10.9648 12C10.9648 11.4284 11.4284 10.9648 12 10.9648H12.0098ZM16.5098 10.9648C17.0814 10.9648 17.5449 11.4284 17.5449 12C17.5449 12.5716 17.0814 13.0352 16.5098 13.0352H16.5C15.9284 13.0352 15.4648 12.5716 15.4648 12C15.4648 11.4284 15.9284 10.9648 16.5 10.9648H16.5098ZM21.0098 10.9648C21.5814 10.9648 22.0449 11.4284 22.0449 12C22.0449 12.5716 21.5814 13.0352 21.0098 13.0352H21C20.4284 13.0352 19.9648 12.5716 19.9648 12C19.9648 11.4284 20.4284 10.9648 21 10.9648H21.0098ZM3.00977 6.46484C3.58138 6.46484 4.04492 6.92839 4.04492 7.5C4.04492 8.07161 3.58138 8.53516 3.00977 8.53516H3C2.42839 8.53516 1.96484 8.07161 1.96484 7.5C1.96484 6.92839 2.42839 6.46484 3 6.46484H3.00977ZM12.0098 6.46484C12.5814 6.46484 13.0449 6.92839 13.0449 7.5C13.0449 8.07161 12.5814 8.53516 12.0098 8.53516H12C11.4284 8.53516 10.9648 8.07161 10.9648 7.5C10.9648 6.92839 11.4284 6.46484 12 6.46484H12.0098ZM21.0098 6.46484C21.5814 6.46484 22.0449 6.92839 22.0449 7.5C22.0449 8.07161 21.5814 8.53516 21.0098 8.53516H21C20.4284 8.53516 19.9648 8.07161 19.9648 7.5C19.9648 6.92839 20.4284 6.46484 21 6.46484H21.0098ZM21 1.96484C21.5716 1.96484 22.0352 2.42839 22.0352 3C22.0352 3.57161 21.5716 4.03516 21 4.03516H3C2.42839 4.03516 1.96484 3.57161 1.96484 3C1.96484 2.42839 2.42839 1.96484 3 1.96484H21Z"/></svg>