<svg xmlns="http://www.w3.org/2000/svg" width="24" height="24" fill="none" viewBox="0 0 24 24"><path fill="currentColor" d="M8.96484 15.5996C8.96484 15.3166 8.96327 15.1576 8.95508 15.0439C8.84147 15.0358 8.68252 15.0352 8.40039 15.0352H4.59961C4.31668 15.0352 4.15762 15.0358 4.04395 15.0439C4.03576 15.1576 4.03516 15.3167 4.03516 15.5996V19.4004C4.03516 19.6825 4.03582 19.8415 4.04395 19.9551C4.15762 19.9633 4.31662 19.9648 4.59961 19.9648H8.40039C8.68258 19.9648 8.84147 19.9632 8.95508 19.9551C8.96321 19.8415 8.96484 19.6826 8.96484 19.4004V15.5996ZM19.9648 15.5996C19.9648 15.3166 19.9633 15.1576 19.9551 15.0439C19.8415 15.0358 19.6825 15.0352 19.4004 15.0352H15.5996C15.3167 15.0352 15.1576 15.0358 15.0439 15.0439C15.0358 15.1576 15.0352 15.3167 15.0352 15.5996V19.4004C15.0352 19.6825 15.0358 19.8415 15.0439 19.9551C15.1576 19.9633 15.3166 19.9648 15.5996 19.9648H19.4004C19.6826 19.9648 19.8415 19.9632 19.9551 19.9551C19.9632 19.8415 19.9648 19.6826 19.9648 19.4004V15.5996ZM8.96484 4.59961C8.96484 4.31662 8.96327 4.15762 8.95508 4.04395C8.84147 4.03582 8.68252 4.03516 8.40039 4.03516H4.59961C4.31668 4.03516 4.15762 4.03576 4.04395 4.04395C4.03576 4.15762 4.03516 4.31668 4.03516 4.59961V8.40039C4.03516 8.68252 4.03582 8.84147 4.04395 8.95508C4.15762 8.96327 4.31662 8.96484 4.59961 8.96484H8.40039C8.68258 8.96484 8.84147 8.96321 8.95508 8.95508C8.96321 8.84147 8.96484 8.68258 8.96484 8.40039V4.59961ZM19.9648 4.59961C19.9648 4.31662 19.9633 4.15762 19.9551 4.04395C19.8415 4.03582 19.6825 4.03516 19.4004 4.03516H15.5996C15.3167 4.03516 15.1576 4.03576 15.0439 4.04395C15.0358 4.15762 15.0352 4.31668 15.0352 4.59961V8.40039C15.0352 8.68252 15.0358 8.84147 15.0439 8.95508C15.1576 8.96327 15.3166 8.96484 15.5996 8.96484H19.4004C19.6826 8.96484 19.8415 8.96321 19.9551 8.95508C19.9632 8.84147 19.9648 8.68258 19.9648 8.40039V4.59961ZM11.0352 19.4004C11.0352 19.663 11.0354 19.9221 11.0176 20.1406C10.9987 20.3713 10.9546 20.6467 10.8135 20.9238C10.6184 21.3067 10.3067 21.6184 9.92383 21.8135C9.6467 21.9546 9.37134 21.9987 9.14062 22.0176C8.92215 22.0354 8.66304 22.0352 8.40039 22.0352H4.59961C4.33696 22.0352 4.07785 22.0354 3.85938 22.0176C3.62866 21.9987 3.3533 21.9546 3.07617 21.8135C2.69326 21.6184 2.38163 21.3067 2.18652 20.9238C2.04535 20.6467 2.00127 20.3713 1.98242 20.1406C1.9646 19.9221 1.96484 19.663 1.96484 19.4004V15.5996C1.96484 15.337 1.9646 15.0779 1.98242 14.8594C2.00127 14.6287 2.04535 14.3533 2.18652 14.0762L2.26563 13.9355C2.46114 13.617 2.74128 13.3572 3.07617 13.1865L3.2832 13.0977C3.48814 13.0247 3.6864 12.9966 3.85938 12.9824C4.07785 12.9646 4.33696 12.9648 4.59961 12.9648H8.40039C8.66304 12.9648 8.92215 12.9646 9.14062 12.9824C9.37134 13.0013 9.6467 13.0454 9.92383 13.1865C10.2587 13.3572 10.5389 13.617 10.7344 13.9355L10.8135 14.0762L10.9023 14.2832C10.9753 14.4881 11.0034 14.6864 11.0176 14.8594C11.0354 15.0779 11.0352 15.337 11.0352 15.5996V19.4004ZM22.0352 19.4004C22.0352 19.663 22.0354 19.9221 22.0176 20.1406C21.9987 20.3713 21.9546 20.6467 21.8135 20.9238C21.6184 21.3067 21.3067 21.6184 20.9238 21.8135C20.6467 21.9546 20.3713 21.9987 20.1406 22.0176C19.9221 22.0354 19.663 22.0352 19.4004 22.0352H15.5996C15.337 22.0352 15.0779 22.0354 14.8594 22.0176C14.6287 21.9987 14.3533 21.9546 14.0762 21.8135C13.6933 21.6184 13.3816 21.3067 13.1865 20.9238C13.0454 20.6467 13.0013 20.3713 12.9824 20.1406C12.9646 19.9221 12.9648 19.663 12.9648 19.4004V15.5996C12.9648 15.337 12.9646 15.0779 12.9824 14.8594C13.0013 14.6287 13.0454 14.3533 13.1865 14.0762L13.2656 13.9355C13.4611 13.617 13.7413 13.3572 14.0762 13.1865L14.2832 13.0977C14.4881 13.0247 14.6864 12.9966 14.8594 12.9824C15.0779 12.9646 15.337 12.9648 15.5996 12.9648H19.4004C19.663 12.9648 19.9221 12.9646 20.1406 12.9824C20.3713 13.0013 20.6467 13.0454 20.9238 13.1865C21.2587 13.3572 21.5389 13.617 21.7344 13.9355L21.8135 14.0762L21.9023 14.2832C21.9753 14.4881 22.0034 14.6864 22.0176 14.8594C22.0354 15.0779 22.0352 15.337 22.0352 15.5996V19.4004ZM11.0352 8.40039C11.0352 8.66304 11.0354 8.92215 11.0176 9.14062C10.9987 9.37134 10.9546 9.6467 10.8135 9.92383C10.6184 10.3067 10.3067 10.6184 9.92383 10.8135C9.6467 10.9546 9.37134 10.9987 9.14062 11.0176C8.92215 11.0354 8.66304 11.0352 8.40039 11.0352H4.59961C4.33696 11.0352 4.07785 11.0354 3.85938 11.0176C3.62866 10.9987 3.3533 10.9546 3.07617 10.8135C2.69326 10.6184 2.38163 10.3067 2.18652 9.92383C2.04535 9.6467 2.00127 9.37134 1.98242 9.14062C1.9646 8.92215 1.96484 8.66304 1.96484 8.40039V4.59961C1.96484 4.33696 1.9646 4.07785 1.98242 3.85938C2.00127 3.62866 2.04535 3.3533 2.18652 3.07617L2.26563 2.93555C2.46114 2.61698 2.74128 2.35716 3.07617 2.18652L3.2832 2.09766C3.48814 2.02472 3.6864 1.99656 3.85938 1.98242C4.07785 1.9646 4.33696 1.96484 4.59961 1.96484H8.40039C8.66304 1.96484 8.92215 1.9646 9.14062 1.98242C9.3136 1.99656 9.51186 2.02472 9.7168 2.09766L9.92383 2.18652L10.0645 2.26563C10.3373 2.4331 10.5669 2.66266 10.7344 2.93555L10.8135 3.07617L10.9023 3.2832C10.9753 3.48814 11.0034 3.6864 11.0176 3.85938C11.0354 4.07785 11.0352 4.33696 11.0352 4.59961V8.40039ZM22.0352 8.40039C22.0352 8.66304 22.0354 8.92215 22.0176 9.14062C21.9987 9.37134 21.9546 9.6467 21.8135 9.92383C21.6184 10.3067 21.3067 10.6184 20.9238 10.8135C20.6467 10.9546 20.3713 10.9987 20.1406 11.0176C19.9221 11.0354 19.663 11.0352 19.4004 11.0352H15.5996C15.337 11.0352 15.0779 11.0354 14.8594 11.0176C14.6287 10.9987 14.3533 10.9546 14.0762 10.8135C13.6933 10.6184 13.3816 10.3067 13.1865 9.92383C13.0454 9.6467 13.0013 9.37134 12.9824 9.14062C12.9646 8.92215 12.9648 8.66304 12.9648 8.40039V4.59961C12.9648 4.33696 12.9646 4.07785 12.9824 3.85938C13.0013 3.62866 13.0454 3.3533 13.1865 3.07617L13.2656 2.93555C13.4611 2.61698 13.7413 2.35716 14.0762 2.18652L14.2832 2.09766C14.4881 2.02472 14.6864 1.99656 14.8594 1.98242C15.0779 1.9646 15.337 1.96484 15.5996 1.96484H19.4004C19.663 1.96484 19.9221 1.9646 20.1406 1.98242C20.3136 1.99656 20.5119 2.02472 20.7168 2.09766L20.9238 2.18652L21.0645 2.26563C21.3373 2.4331 21.5669 2.66266 21.7344 2.93555L21.8135 3.07617L21.9023 3.2832C21.9753 3.48814 22.0034 3.6864 22.0176 3.85938C22.0354 4.07785 22.0352 4.33696 22.0352 4.59961V8.40039Z"/></svg>