<svg xmlns="http://www.w3.org/2000/svg" width="24" height="24" fill="none" viewBox="0 0 24 24"><path fill="currentColor" d="M1.96484 17.7998V16C1.96484 15.4284 2.42839 14.9648 3 14.9648C3.57161 14.9648 4.03516 15.4284 4.03516 16V17.7998C4.03516 18.3769 4.03559 18.7477 4.05859 19.0293C4.08061 19.2988 4.11837 19.3948 4.14062 19.4385C4.23308 19.6197 4.38033 19.7669 4.56152 19.8594C4.60521 19.8816 4.7012 19.9194 4.9707 19.9414C5.25228 19.9644 5.62309 19.9648 6.2002 19.9648H8C8.57161 19.9648 9.03516 20.4284 9.03516 21C9.03516 21.5716 8.57161 22.0352 8 22.0352H6.2002C5.65722 22.0352 5.18718 22.0354 4.80176 22.0039C4.40438 21.9714 4.00608 21.8998 3.62207 21.7041C3.05108 21.4131 2.58686 20.9489 2.2959 20.3779C2.10024 19.9939 2.02859 19.5956 1.99609 19.1982C1.9646 18.8128 1.96484 18.3428 1.96484 17.7998ZM19.9648 17.7998V16C19.9648 15.4284 20.4284 14.9648 21 14.9648C21.5716 14.9648 22.0352 15.4284 22.0352 16V17.7998C22.0352 18.3428 22.0354 18.8128 22.0039 19.1982C21.9714 19.5956 21.8998 19.9939 21.7041 20.3779C21.4131 20.9489 20.9489 21.4131 20.3779 21.7041C19.9939 21.8998 19.5956 21.9714 19.1982 22.0039C18.8128 22.0354 18.3428 22.0352 17.7998 22.0352H16C15.4284 22.0352 14.9648 21.5716 14.9648 21C14.9648 20.4284 15.4284 19.9648 16 19.9648H17.7998C18.3769 19.9648 18.7477 19.9644 19.0293 19.9414C19.2988 19.9194 19.3948 19.8816 19.4385 19.8594C19.6197 19.7669 19.7669 19.6197 19.8594 19.4385C19.8816 19.3948 19.9194 19.2988 19.9414 19.0293C19.9644 18.7477 19.9648 18.3769 19.9648 17.7998ZM14.9648 12C14.9648 10.3625 13.6375 9.03516 12 9.03516C10.3625 9.03516 9.03516 10.3625 9.03516 12C9.03516 13.6375 10.3625 14.9648 12 14.9648C13.6375 14.9648 14.9648 13.6375 14.9648 12ZM1.96484 8V6.2002C1.96484 5.65722 1.9646 5.18718 1.99609 4.80176C2.02859 4.40438 2.10024 4.00608 2.2959 3.62207C2.58686 3.05107 3.05107 2.58686 3.62207 2.2959C4.00608 2.10024 4.40438 2.02859 4.80176 1.99609C5.18718 1.9646 5.65722 1.96484 6.2002 1.96484H8C8.57161 1.96484 9.03516 2.42839 9.03516 3C9.03516 3.57161 8.57161 4.03516 8 4.03516H6.2002C5.62309 4.03516 5.25228 4.03559 4.9707 4.05859C4.7012 4.08061 4.60521 4.11837 4.56152 4.14062C4.38033 4.23308 4.23308 4.38033 4.14062 4.56152C4.11837 4.60521 4.08061 4.7012 4.05859 4.9707C4.03559 5.25228 4.03516 5.62309 4.03516 6.2002V8C4.03516 8.57161 3.57161 9.03516 3 9.03516C2.42839 9.03516 1.96484 8.57161 1.96484 8ZM19.9648 8V6.2002C19.9648 5.62309 19.9644 5.25228 19.9414 4.9707C19.9194 4.7012 19.8816 4.60521 19.8594 4.56152C19.7669 4.38033 19.6197 4.23308 19.4385 4.14062C19.3948 4.11837 19.2988 4.08061 19.0293 4.05859C18.7477 4.03559 18.3769 4.03516 17.7998 4.03516H16C15.4284 4.03516 14.9648 3.57161 14.9648 3C14.9648 2.42839 15.4284 1.96484 16 1.96484H17.7998C18.3428 1.96484 18.8128 1.9646 19.1982 1.99609C19.5956 2.02859 19.9939 2.10024 20.3779 2.2959C20.9489 2.58686 21.4131 3.05107 21.7041 3.62207C21.8998 4.00608 21.9714 4.40438 22.0039 4.80176C22.0354 5.18718 22.0352 5.65722 22.0352 6.2002V8C22.0352 8.57161 21.5716 9.03516 21 9.03516C20.4284 9.03516 19.9648 8.57161 19.9648 8ZM17.0352 12C17.0352 14.7808 14.7808 17.0352 12 17.0352C9.21925 17.0352 6.96484 14.7808 6.96484 12C6.96484 9.21925 9.21925 6.96484 12 6.96484C14.7808 6.96484 17.0352 9.21925 17.0352 12Z"/></svg>