<svg xmlns="http://www.w3.org/2000/svg" width="24" height="24" fill="none" viewBox="0 0 24 24"><path fill="currentColor" d="M12.665 10.8887V3.66699C12.665 3.33736 12.3867 3.03516 12 3.03516C11.6133 3.03516 11.335 3.33736 11.335 3.66699V10.8887C11.335 11.4603 10.8714 11.9238 10.2998 11.9238C9.72828 11.9237 9.26465 11.4602 9.26465 10.8887V4.77734C9.2644 4.44788 8.98613 4.14648 8.59961 4.14648C8.2133 4.14669 7.93481 4.44799 7.93457 4.77734V14.2227C7.93434 14.7939 7.47168 15.2566 6.90039 15.2568C6.32892 15.2568 5.86547 14.7941 5.86523 14.2227V11.4443C5.86517 11.1148 5.58674 10.8126 5.2002 10.8125C4.81355 10.8125 4.53522 11.1147 4.53516 11.4443V13.667C4.53534 17.6784 7.85789 20.9648 12 20.9648C16.1421 20.9648 19.4647 17.6784 19.4648 13.667V8.11133C19.4648 7.78169 19.1865 7.47949 18.7998 7.47949C18.4132 7.47959 18.1348 7.78175 18.1348 8.11133V10.8887C18.1348 11.4603 17.6712 11.9238 17.0996 11.9238C16.5282 11.9236 16.0654 11.4602 16.0654 10.8887V4.77734C16.0652 4.44799 15.7867 4.14669 15.4004 4.14648C15.0139 4.14648 14.7356 4.44788 14.7354 4.77734V10.8887C14.7354 11.4602 14.2717 11.9237 13.7002 11.9238C13.1286 11.9238 12.665 11.4603 12.665 10.8887ZM18.1348 5.49316C18.3484 5.44018 18.5709 5.4092 18.7998 5.40918C20.2909 5.40918 21.5352 6.60001 21.5352 8.11133V13.667C21.535 18.8601 17.2465 23.0352 12 23.0352C6.75349 23.0352 2.46502 18.8601 2.46484 13.667V11.4443C2.4649 9.93307 3.70915 8.74316 5.2002 8.74316C5.4291 8.74318 5.65159 8.7732 5.86523 8.82617V4.77734C5.86547 3.26637 7.10884 2.07638 8.59961 2.07617C8.97054 2.07617 9.32637 2.15024 9.65137 2.28418C10.1319 1.49008 11.0107 0.964844 12 0.964844C12.9891 0.964844 13.867 1.49033 14.3477 2.28418C14.6729 2.15002 15.0291 2.07617 15.4004 2.07617C16.8912 2.07638 18.1345 3.26637 18.1348 4.77734V5.49316Z"/></svg>