<svg xmlns="http://www.w3.org/2000/svg" width="24" height="24" fill="none" viewBox="0 0 24 24"><path fill="currentColor" d="M20.9639 13.0351H3.03615C3.03612 13.0658 3.03518 13.0983 3.03518 13.1327V15.2001C3.03518 16.057 3.03567 16.6376 3.07229 17.0858C3.10793 17.5221 3.17229 17.7418 3.24904 17.8925C3.43739 18.262 3.73796 18.5625 4.10744 18.7509C4.25809 18.8276 4.47783 18.892 4.91408 18.9276C5.36236 18.9642 5.94289 18.9647 6.79983 18.9647H17.2002C18.0571 18.9647 18.6377 18.9642 19.086 18.9276C19.5222 18.892 19.742 18.8276 19.8926 18.7509C20.2621 18.5625 20.5626 18.262 20.751 17.8925C20.8278 17.7418 20.8921 17.5221 20.9278 17.0858C20.9644 16.6376 20.9649 16.057 20.9649 15.2001V13.1327C20.9649 13.0983 20.9639 13.0658 20.9639 13.0351ZM10 14.9647C10.5716 14.9647 11.0352 15.4283 11.0352 15.9999C11.0352 16.5715 10.5716 17.0351 10 17.0351H6.00002C5.42841 17.0351 4.96486 16.5715 4.96486 15.9999C4.96486 15.4283 5.42841 14.9647 6.00002 14.9647H10ZM8.96682 5.03505C7.81491 5.03505 7.48512 5.04858 7.21291 5.14247C6.93794 5.2374 6.68739 5.39211 6.47951 5.5956C6.2738 5.79708 6.1138 6.08581 5.59865 7.11611L3.67482 10.9647H20.3252L18.4014 7.11611C17.8862 6.08581 17.7262 5.79708 17.5205 5.5956C17.3126 5.39211 17.0621 5.2374 16.7871 5.14247C16.5149 5.04858 16.1851 5.03505 15.0332 5.03505H8.96682ZM23.0352 15.2001C23.0352 16.023 23.0354 16.7026 22.9903 17.2548C22.9441 17.8189 22.8449 18.3409 22.5947 18.8319C22.2079 19.5909 21.591 20.2078 20.8321 20.5946C20.341 20.8448 19.8191 20.944 19.2549 20.9901C18.7028 21.0352 18.0231 21.0351 17.2002 21.0351H6.79983C5.97691 21.0351 5.29727 21.0352 4.74514 20.9901C4.18097 20.944 3.65901 20.8448 3.16799 20.5946C2.40902 20.2078 1.7921 19.5909 1.40529 18.8319C1.15511 18.3409 1.0559 17.8189 1.00979 17.2548C0.964675 16.7026 0.964864 16.023 0.964864 15.2001V13.1327C0.964863 12.7379 0.962681 12.4429 1.00393 12.1483C1.03853 11.9013 1.09629 11.6582 1.1758 11.4218C1.27069 11.1397 1.40444 10.8766 1.58107 10.5233L3.74807 6.19033C4.19599 5.29448 4.51767 4.61924 5.03029 4.11708C5.45751 3.69866 5.97282 3.38047 6.53811 3.18544C7.21662 2.95141 7.96498 2.96474 8.96682 2.96474H15.0332C16.0351 2.96474 16.7834 2.95141 17.4619 3.18544C18.0272 3.38047 18.5425 3.69866 18.9697 4.11708C19.4824 4.61924 19.8041 5.29449 20.252 6.19033L22.419 10.5233C22.5956 10.8766 22.7294 11.1397 22.8242 11.4218C22.9038 11.6582 22.9615 11.9013 22.9961 12.1483C23.0374 12.4429 23.0352 12.7379 23.0352 13.1327V15.2001Z"/></svg>