<svg xmlns="http://www.w3.org/2000/svg" width="24" height="24" fill="none" viewBox="0 0 24 24"><path fill="currentColor" d="M16.4795 2.83003C16.5735 2.26623 17.1061 1.88554 17.6699 1.97944C18.2337 2.0734 18.6144 2.60609 18.5205 3.16987L17.8877 6.96479H20.5C21.0716 6.96479 21.5352 7.42833 21.5352 7.99995C21.5352 8.57156 21.0716 9.0351 20.5 9.0351H17.543L16.5547 14.9648H19.5C20.0716 14.9648 20.5352 15.4283 20.5352 15.9999C20.5352 16.5716 20.0716 17.0351 19.5 17.0351H16.21L15.5205 21.1699C15.4265 21.7336 14.8938 22.1143 14.3301 22.0205C13.7663 21.9265 13.3856 21.3938 13.4795 20.83L14.1123 17.0351H8.20996L7.52051 21.1699C7.42654 21.7336 6.89385 22.1143 6.33008 22.0205C5.76629 21.9265 5.38562 21.3938 5.47949 20.83L6.1123 17.0351H2.5C1.92839 17.0351 1.46484 16.5716 1.46484 15.9999C1.46484 15.4283 1.92839 14.9648 2.5 14.9648H6.45703L7.44531 9.0351H3.5C2.92839 9.0351 2.46484 8.57156 2.46484 7.99995C2.46484 7.42833 2.92839 6.96479 3.5 6.96479H7.79004L8.47949 2.83003C8.57346 2.26624 9.10614 1.88556 9.66992 1.97944C10.2337 2.0734 10.6144 2.60609 10.5205 3.16987L9.8877 6.96479H15.79L16.4795 2.83003ZM8.55469 14.9648H14.457L15.4453 9.0351H9.54297L8.55469 14.9648Z"/></svg>