<svg xmlns="http://www.w3.org/2000/svg" width="24" height="24" fill="none" viewBox="0 0 24 24"><path fill="currentColor" d="M14.9648 21V17.0352H9.03516V21C9.03516 21.5716 8.57161 22.0352 8 22.0352C7.42839 22.0352 6.96484 21.5716 6.96484 21V17.0352H4C3.42839 17.0352 2.96484 16.5716 2.96484 16C2.96484 15.4284 3.42839 14.9648 4 14.9648H6.96484V9.03516H4C3.42839 9.03516 2.96484 8.57161 2.96484 8C2.96484 7.42839 3.42839 6.96484 4 6.96484H6.96484V3C6.96484 2.42839 7.42839 1.96484 8 1.96484C8.57161 1.96484 9.03516 2.42839 9.03516 3V6.96484H14.9648V3C14.9648 2.42839 15.4284 1.96484 16 1.96484C16.5716 1.96484 17.0352 2.42839 17.0352 3V6.96484H20C20.5716 6.96484 21.0352 7.42839 21.0352 8C21.0352 8.57161 20.5716 9.03516 20 9.03516H17.0352V14.9648H20C20.5716 14.9648 21.0352 15.4284 21.0352 16C21.0352 16.5716 20.5716 17.0352 20 17.0352H17.0352V21C17.0352 21.5716 16.5716 22.0352 16 22.0352C15.4284 22.0352 14.9648 21.5716 14.9648 21ZM9.03516 14.9648H14.9648V9.03516H9.03516V14.9648Z"/></svg>