<svg xmlns="http://www.w3.org/2000/svg" width="24" height="24" fill="none" viewBox="0 0 24 24"><path fill="currentColor" d="M8 2.96484C8.57161 2.96484 9.03516 3.42839 9.03516 4C9.03516 4.57161 8.57161 5.03516 8 5.03516H7.03516V10.9648H16.9648V5.03516H16C15.4284 5.03516 14.9648 4.57161 14.9648 4C14.9648 3.42839 15.4284 2.96484 16 2.96484H20C20.5716 2.96484 21.0352 3.42839 21.0352 4C21.0352 4.57161 20.5716 5.03516 20 5.03516H19.0352V18.9648H20C20.5716 18.9648 21.0352 19.4284 21.0352 20C21.0352 20.5716 20.5716 21.0352 20 21.0352H16C15.4284 21.0352 14.9648 20.5716 14.9648 20C14.9648 19.4284 15.4284 18.9648 16 18.9648H16.9648V13.0352H7.03516V18.9648H8C8.57161 18.9648 9.03516 19.4284 9.03516 20C9.03516 20.5716 8.57161 21.0352 8 21.0352H4C3.42839 21.0352 2.96484 20.5716 2.96484 20C2.96484 19.4284 3.42839 18.9648 4 18.9648H4.96484V5.03516H4C3.42839 5.03516 2.96484 4.57161 2.96484 4C2.96484 3.42839 3.42839 2.96484 4 2.96484H8Z"/></svg>