<svg xmlns="http://www.w3.org/2000/svg" width="24" height="24" fill="none" viewBox="0 0 24 24"><path fill="currentColor" d="M8.96484 15.5C8.96484 14.6909 8.3091 14.0352 7.5 14.0352C6.6909 14.0352 6.03516 14.6909 6.03516 15.5V18.5C6.03516 19.3091 6.6909 19.9648 7.5 19.9648C8.3091 19.9648 8.96484 19.3091 8.96484 18.5V15.5ZM17.9648 15.5C17.9648 14.6909 17.3091 14.0352 16.5 14.0352C15.6909 14.0352 15.0352 14.6909 15.0352 15.5V18.5C15.0352 19.3091 15.6909 19.9648 16.5 19.9648C17.3091 19.9648 17.9648 19.3091 17.9648 18.5V15.5ZM20.9648 17V13C20.9648 8.04877 16.9512 4.03516 12 4.03516C7.04877 4.03516 3.03516 8.04877 3.03516 13V17C3.03516 17.5716 2.57161 18.0352 2 18.0352C1.42839 18.0352 0.964844 17.5716 0.964844 17V13C0.964844 6.90554 5.90554 1.96484 12 1.96484C18.0945 1.96484 23.0352 6.90554 23.0352 13V17C23.0352 17.5716 22.5716 18.0352 22 18.0352C21.4284 18.0352 20.9648 17.5716 20.9648 17ZM11.0352 18.5C11.0352 20.4523 9.45233 22.0352 7.5 22.0352C5.54767 22.0352 3.96484 20.4523 3.96484 18.5V15.5C3.96484 13.5477 5.54767 11.9648 7.5 11.9648C9.45233 11.9648 11.0352 13.5477 11.0352 15.5V18.5ZM20.0352 18.5C20.0352 20.4523 18.4523 22.0352 16.5 22.0352C14.5477 22.0352 12.9648 20.4523 12.9648 18.5V15.5C12.9648 13.5477 14.5477 11.9648 16.5 11.9648C18.4523 11.9648 20.0352 13.5477 20.0352 15.5V18.5Z"/></svg>