<svg xmlns="http://www.w3.org/2000/svg" width="24" height="24" fill="none" viewBox="0 0 24 24"><path fill="currentColor" d="M6.96484 16.5C6.96484 15.6909 6.3091 15.0352 5.5 15.0352C4.6909 15.0352 4.03516 15.6909 4.03516 16.5V18.5C4.03516 19.3091 4.6909 19.9648 5.5 19.9648C6.3091 19.9648 6.96484 19.3091 6.96484 18.5V16.5ZM19.9648 12C19.9648 7.60105 16.3989 4.03516 12 4.03516C7.60105 4.03516 4.03516 7.60105 4.03516 12V13.2822C4.4815 13.0787 4.97743 12.9648 5.5 12.9648C7.45233 12.9648 9.03516 14.5477 9.03516 16.5V18.5C9.03516 20.4523 7.45233 22.0352 5.5 22.0352C3.54767 22.0352 1.96484 20.4523 1.96484 18.5V12C1.96484 6.45782 6.45782 1.96484 12 1.96484C17.5422 1.96484 22.0352 6.45782 22.0352 12V18.5C22.0352 20.4523 20.4523 22.0352 18.5 22.0352C16.5477 22.0352 14.9648 20.4523 14.9648 18.5V16.5C14.9648 14.5477 16.5477 12.9648 18.5 12.9648C19.0226 12.9648 19.5185 13.0787 19.9648 13.2822V12ZM17.0352 18.5C17.0352 19.3091 17.6909 19.9648 18.5 19.9648C19.3091 19.9648 19.9648 19.3091 19.9648 18.5V16.5C19.9648 15.6909 19.3091 15.0352 18.5 15.0352C17.6909 15.0352 17.0352 15.6909 17.0352 16.5V18.5Z"/></svg>