<svg xmlns="http://www.w3.org/2000/svg" width="24" height="24" fill="none" viewBox="0 0 24 24"><path fill="currentColor" d="M20.9648 9.48047C20.9648 6.74778 18.8997 4.0353 16.1113 4.03516C14.4836 4.03516 13.426 4.84591 12.7881 5.59473C12.5914 5.82557 12.3032 5.95898 12 5.95898C11.6968 5.95898 11.4086 5.82557 11.2119 5.59473C10.574 4.84591 9.51644 4.03516 7.88867 4.03516C5.1003 4.0353 3.03516 6.74778 3.03516 9.48047C3.03528 10.7925 3.5452 12.1044 4.39746 13.375C5.24906 14.6445 6.4056 15.8171 7.60059 16.8242C8.79156 17.8279 9.99281 18.6452 10.9072 19.2109C11.3573 19.4894 11.7339 19.7037 12 19.8477C12.2661 19.7037 12.6427 19.4894 13.0928 19.2109C14.0072 18.6452 15.2084 17.8279 16.3994 16.8242C17.5944 15.8171 18.7509 14.6445 19.6025 13.375C20.4548 12.1044 20.9647 10.7925 20.9648 9.48047ZM23.0352 9.48047C23.035 11.3348 22.3169 13.0455 21.3223 14.5283C20.3266 16.0126 19.0162 17.3251 17.7334 18.4062C16.4467 19.4907 15.1588 20.3661 14.1816 20.9707C13.6925 21.2733 13.2771 21.5114 12.9727 21.6758C12.8214 21.7575 12.6924 21.8238 12.5928 21.8721C12.5443 21.8955 12.4929 21.9195 12.4453 21.9395C12.4228 21.9489 12.3876 21.963 12.3477 21.9766C12.3279 21.9833 12.2947 21.9938 12.2539 22.0039C12.2288 22.0101 12.1291 22.0352 12 22.0352C11.8709 22.0352 11.7712 22.0101 11.7461 22.0039C11.7053 21.9938 11.6721 21.9833 11.6523 21.9766C11.6124 21.963 11.5772 21.9489 11.5547 21.9395C11.5071 21.9195 11.4557 21.8955 11.4072 21.8721C11.3076 21.8238 11.1786 21.7575 11.0273 21.6758C10.7229 21.5114 10.3075 21.2733 9.81836 20.9707C8.8412 20.3661 7.55328 19.4907 6.2666 18.4062C4.98381 17.3251 3.67336 16.0126 2.67773 14.5283C1.68313 13.0455 0.964965 11.3348 0.964844 9.48047C0.964844 5.95829 3.63283 1.96498 7.88867 1.96484C9.7114 1.96484 11.062 2.66903 12 3.46582C12.938 2.66903 14.2886 1.96484 16.1113 1.96484C20.3672 1.96498 23.0352 5.95829 23.0352 9.48047Z"/></svg>