<svg xmlns="http://www.w3.org/2000/svg" width="24" height="24" fill="none" viewBox="0 0 24 24"><g clip-path="url(#a)"><path fill="currentColor" d="M8.28614 3.13573C9.68027 1.23363 12.1427 0.324268 14.6104 1.46092C17.3873 2.74022 18.522 5.8904 17.377 8.60741C17.2185 8.98335 16.9955 9.42861 16.7383 9.90526C16.8411 10.0993 16.9331 10.3001 17.0137 10.5068C19.3443 10.1479 21.7278 11.2464 22.669 13.7949C23.7279 16.663 22.3039 19.693 19.5733 20.8047C18.5946 21.203 16.9174 21.647 15.3311 22.0264C13.7198 22.4117 12.1172 22.7494 11.2393 22.9297C11.1361 22.9509 10.9993 22.9798 10.876 22.9951C10.7376 23.0122 10.5452 23.0227 10.3262 22.9707C10.0362 22.9018 9.77012 22.7479 9.56544 22.5312C9.41092 22.3676 9.32391 22.1957 9.26954 22.0674C9.22112 21.953 9.17777 21.8206 9.14454 21.7207C8.86173 20.8703 8.35287 19.313 7.88087 17.7246C7.58278 16.7215 7.28942 15.6727 7.07911 14.7734C5.58952 13.9698 4.01593 13.0739 3.15138 12.4189C0.789362 10.6294 0.257961 7.34599 1.96681 4.85839C3.50818 2.61472 6.12562 2.18718 8.28614 3.13573ZM10.8721 21.1455L10.75 21.1855L10.6807 21.4765L10.8975 21.2724L10.8721 21.1455ZM10.8975 21.2724L10.6807 21.4765L10.75 21.1855L10.8721 21.1455L10.8975 21.2724ZM14.6582 10.458C13.9966 9.54757 12.9222 9.06597 11.7041 9.29198C9.81249 9.64315 8.61633 11.3293 8.86818 13.1572C8.98773 14.0241 9.39494 15.5521 9.86524 17.1348C10.2917 18.5697 10.7508 19.9841 11.0391 20.8555C11.9378 20.6694 13.393 20.3611 14.8496 20.0127C16.4553 19.6287 17.9814 19.2166 18.792 18.8867C20.515 18.1854 21.3898 16.3056 20.7276 14.5117C20.091 12.788 18.3636 12.1172 16.6416 12.7256C16.3564 12.8262 16.0412 12.7977 15.7793 12.6465C15.5175 12.4952 15.3347 12.2367 15.2793 11.9394C15.1778 11.3943 14.9721 10.9083 14.6875 10.5029C14.6775 10.488 14.6674 10.4733 14.6582 10.458ZM13.7442 3.34081C12.0754 2.57215 10.3803 3.31926 9.59278 4.96678C9.46238 5.23967 9.21889 5.44216 8.92677 5.52049C8.63456 5.59879 8.32269 5.54517 8.07325 5.37401C6.55749 4.33395 4.6933 4.54489 3.67286 6.03026C2.58328 7.61632 2.93039 9.65506 4.40138 10.7695C4.91513 11.1587 5.78838 11.684 6.78224 12.2451C6.9702 9.80194 8.76874 7.73152 11.3272 7.25682C12.8758 6.96956 14.2491 7.36697 15.2979 8.1787C15.3637 8.04186 15.4221 7.91679 15.4697 7.8037C16.1922 6.08932 15.4811 4.14089 13.7442 3.34081Z"/></g><defs><clipPath id="a"><path fill="#fff" d="M0 0H24V24H0z"/></clipPath></defs></svg>