<svg xmlns="http://www.w3.org/2000/svg" width="24" height="24" fill="none" viewBox="0 0 24 24"><g clip-path="url(#a)"><path fill="currentColor" d="M20.9629 8.28911C20.9317 8.25545 20.8865 8.20975 20.7998 8.1231L15.8769 3.20024C15.7894 3.11271 15.7437 3.06738 15.7099 3.03618C15.6641 3.03443 15.5999 3.03521 15.4775 3.03521H8.52245C8.39925 3.03521 8.33492 3.03439 8.28905 3.03618C8.25535 3.06737 8.21011 3.11317 8.12303 3.20024L3.20018 8.1231C3.11311 8.21017 3.0673 8.25541 3.03612 8.28911C3.03433 8.33498 3.03514 8.39931 3.03514 8.52251V15.4776C3.03514 15.5999 3.03437 15.6642 3.03612 15.71C3.06732 15.7438 3.11265 15.7895 3.20018 15.877L8.12303 20.7999C8.20969 20.8865 8.25539 20.9318 8.28905 20.9629C8.33492 20.9647 8.39922 20.9649 8.52245 20.9649H15.4775C15.5999 20.9649 15.6641 20.9647 15.7099 20.9629C15.7437 20.9318 15.7898 20.887 15.8769 20.7999L20.7998 15.877C20.8869 15.7899 20.9317 15.7437 20.9629 15.71C20.9646 15.6642 20.9648 15.5999 20.9648 15.4776V8.52251C20.9648 8.39928 20.9647 8.33499 20.9629 8.28911ZM7.40526 7.86821C8.85157 6.63255 10.6689 6.75445 11.9951 7.68169C13.3192 6.75405 15.1206 6.64885 16.5771 7.85942C18.2914 9.28427 18.4958 11.7198 17.1787 13.4151C16.4806 14.3134 14.7874 15.8841 13.7334 16.8379C13.5666 16.9889 13.396 17.1438 13.2383 17.2647C13.0672 17.3958 12.8567 17.5305 12.5869 17.6124C12.2067 17.7276 11.7865 17.7276 11.4062 17.6124C11.1364 17.5305 10.9259 17.3958 10.7549 17.2647C10.5971 17.1438 10.4266 16.9889 10.2598 16.8379C9.20575 15.8841 7.51252 14.3134 6.81444 13.4151C5.48815 11.708 5.73705 9.29357 7.40526 7.86821ZM11.2099 9.74028C10.515 8.92809 9.49373 8.80637 8.74999 9.44145C7.91326 10.1564 7.80858 11.3212 8.44921 12.1456C9.01123 12.8687 10.5452 14.3045 11.6484 15.3028C11.8251 15.4626 11.9231 15.5497 11.9961 15.6075C12.0691 15.5497 12.1676 15.4631 12.3447 15.3028C13.4479 14.3045 14.9819 12.8687 15.5439 12.1456C16.1937 11.3094 16.0876 10.1441 15.2539 9.45122C14.478 8.80639 13.4704 8.93709 12.7832 9.74028C12.5866 9.97017 12.2986 10.1026 11.9961 10.1026C11.6937 10.1024 11.4065 9.97005 11.2099 9.74028ZM23.0351 15.4776C23.0352 15.6729 23.0414 15.9394 22.9785 16.2012C22.9287 16.4087 22.8468 16.6072 22.7353 16.7891C22.5946 17.0187 22.4018 17.2028 22.2637 17.3409L17.3408 22.2637C17.2027 22.4018 17.0187 22.5947 16.7891 22.7354C16.6071 22.8469 16.4086 22.9287 16.2012 22.9786C15.9394 23.0414 15.6728 23.0352 15.4775 23.0352H8.52245C8.32715 23.0352 8.0606 23.0414 7.79882 22.9786C7.59134 22.9287 7.39286 22.8469 7.21093 22.7354C6.9813 22.5947 6.79728 22.4018 6.65917 22.2637L1.73632 17.3409C1.5982 17.2028 1.40535 17.0187 1.26464 16.7891C1.15316 16.6072 1.07132 16.4087 1.02147 16.2012C0.958624 15.9394 0.964825 15.6729 0.964832 15.4776V8.52251C0.964825 8.32721 0.958624 8.06066 1.02147 7.79888C1.07132 7.59141 1.15316 7.39293 1.26464 7.21099L1.37889 7.04692C1.49893 6.89214 1.63283 6.76271 1.73632 6.65923L6.65917 1.73638C6.79728 1.59826 6.9813 1.40541 7.21093 1.2647L7.35057 1.18657C7.49278 1.11414 7.64328 1.0589 7.79882 1.02153C8.0606 0.958685 8.32715 0.964886 8.52245 0.964893H15.4775C15.624 0.964888 15.8104 0.961713 16.0049 0.986377L16.2012 1.02153L16.3545 1.0645C16.4558 1.09742 16.5545 1.13821 16.6494 1.18657L16.7891 1.2647L16.9531 1.37896C17.1079 1.49899 17.2373 1.63289 17.3408 1.73638L22.2637 6.65923C22.3671 6.76271 22.501 6.89213 22.6211 7.04692L22.7353 7.21099L22.8135 7.35064C22.8859 7.49284 22.9411 7.64334 22.9785 7.79888C23.0414 8.06066 23.0352 8.32721 23.0351 8.52251V15.4776Z"/></g><defs><clipPath id="a"><path fill="#fff" d="M0 0H24V24H0z"/></clipPath></defs></svg>