<svg xmlns="http://www.w3.org/2000/svg" width="24" height="24" fill="none" viewBox="0 0 24 24"><path fill="currentColor" d="M19.9609 7.6108C19.9052 7.57602 19.825 7.53116 19.6748 7.44772L12.2744 3.33639C12.1317 3.25709 12.0556 3.21536 12 3.18795C11.9444 3.21536 11.8683 3.25709 11.7256 3.33639L4.3252 7.44772C4.17437 7.53151 4.09383 7.57595 4.03809 7.6108C4.03468 7.67651 4.03516 7.76897 4.03516 7.94186V16.059C4.03516 16.2307 4.03474 16.3226 4.03809 16.3881C4.09384 16.423 4.17395 16.4682 4.3252 16.5522L11.7256 20.6635C11.868 20.7426 11.9444 20.7836 12 20.811C12.0556 20.7836 12.1321 20.7426 12.2744 20.6635L19.6748 16.5522C19.8254 16.4685 19.9052 16.423 19.9609 16.3881C19.9643 16.3226 19.9648 16.2307 19.9648 16.059V7.94186C19.9648 7.76892 19.9643 7.67652 19.9609 7.6108ZM7.40527 7.86862C8.85168 6.63278 10.6689 6.7547 11.9951 7.68209C13.3191 6.75438 15.1206 6.64843 16.5771 7.85885C18.2915 9.28377 18.4961 11.7202 17.1787 13.4155C16.4807 14.3137 14.7874 15.8835 13.7334 16.8374C13.5665 16.9884 13.3961 17.1442 13.2383 17.2651C13.0672 17.3962 12.8568 17.531 12.5869 17.6128C12.2067 17.728 11.7865 17.728 11.4062 17.6128C11.1364 17.531 10.9259 17.3962 10.7549 17.2651C10.5971 17.1442 10.4266 16.9884 10.2598 16.8374C9.20574 15.8835 7.51248 14.3137 6.81445 13.4155C5.48796 11.7085 5.73705 9.29405 7.40527 7.86862ZM11.21 9.74069C10.5149 8.92821 9.49383 8.80652 8.75 9.44186C7.91333 10.1567 7.80873 11.3206 8.44922 12.145C9.01116 12.8681 10.5451 14.3048 11.6484 15.3032C11.8248 15.4628 11.9232 15.5492 11.9961 15.6069C12.0691 15.5492 12.1678 15.4633 12.3447 15.3032C13.448 14.3048 14.982 12.8681 15.5439 12.145C16.1936 11.3089 16.0875 10.1435 15.2539 9.45065C14.4779 8.80602 13.4704 8.93738 12.7832 9.74069C12.5866 9.97057 12.2986 10.103 11.9961 10.103C11.6938 10.1029 11.4065 9.97045 11.21 9.74069ZM22.0352 16.2788C22.0333 16.5142 22.019 16.7888 21.9326 17.0503C21.8417 17.3253 21.6924 17.5775 21.4961 17.7905C21.2474 18.0603 20.9169 18.23 20.6797 18.3618L13.2793 22.4731C13.0544 22.5981 12.7523 22.7787 12.4102 22.8491C12.1397 22.9047 11.8603 22.9047 11.5898 22.8491C11.2477 22.7787 10.9456 22.5981 10.7207 22.4731L3.32031 18.3618C3.08308 18.23 2.75262 18.0603 2.50391 17.7905C2.30759 17.5775 2.15827 17.3253 2.06738 17.0503C1.98098 16.7888 1.96674 16.5142 1.96484 16.2788V7.72116C1.96675 7.48582 1.981 7.21111 2.06738 6.94967L2.14648 6.7485C2.23583 6.55134 2.35659 6.36929 2.50391 6.20944L2.60059 6.11276C2.83375 5.89775 3.11276 5.75345 3.32031 5.63815L10.7207 1.52682C10.9456 1.40185 11.2477 1.22126 11.5898 1.15084C11.7928 1.1091 12.0007 1.09869 12.2061 1.11959L12.4102 1.15084L12.5361 1.18209C12.8264 1.26553 13.0824 1.41743 13.2793 1.52682L20.6797 5.63815C20.8872 5.75346 21.1663 5.89775 21.3994 6.11276L21.4961 6.20944L21.6348 6.37643C21.7207 6.49232 21.794 6.61709 21.8535 6.7485L21.9326 6.94967L21.9697 7.08151C22.0232 7.30178 22.0336 7.52502 22.0352 7.72116V16.2788Z"/></svg>