<svg xmlns="http://www.w3.org/2000/svg" width="24" height="24" fill="none" viewBox="0 0 24 24"><path fill="currentColor" d="M3.48243 3.5235C6.17664 1.22151 9.64142 1.63516 11.9922 3.67291C14.3402 1.63397 17.7692 1.24986 20.4932 3.51373C23.4817 5.9976 23.8402 10.2344 21.5391 13.1954C20.6646 14.3206 18.9596 16.0093 17.3233 17.5538C15.6672 19.1169 14.015 20.5939 13.2002 21.3155C13.1216 21.3851 13.018 21.4782 12.919 21.5528C12.8078 21.6365 12.6467 21.7416 12.4317 21.8057C12.1465 21.8907 11.8399 21.8907 11.5547 21.8057C11.3397 21.7416 11.1786 21.6365 11.0674 21.5528C10.9683 21.4782 10.8647 21.3851 10.7861 21.3155C9.97139 20.5939 8.3192 19.1169 6.6631 17.5538C5.02678 16.0093 3.32173 14.3206 2.44728 13.1954C0.137093 10.2226 0.561692 6.01915 3.48243 3.5235ZM11.207 5.80865C9.51233 3.82739 6.82353 3.39116 4.82716 5.09674C2.73791 6.88184 2.45682 9.83577 4.08107 11.9258C4.84228 12.9053 6.43093 14.4886 8.084 16.0489C9.61184 17.491 11.1413 18.8609 11.9932 19.6172C12.8451 18.8609 14.3745 17.491 15.9024 16.0489C17.5554 14.4886 19.1441 12.9053 19.9053 11.9258C21.5386 9.82406 21.2775 6.85836 19.1699 5.1065C17.1198 3.40257 14.4663 3.83644 12.7793 5.80865C12.5827 6.03842 12.2956 6.17095 11.9932 6.17096C11.6908 6.17096 11.4037 6.03841 11.207 5.80865Z"/></svg>