<svg xmlns="http://www.w3.org/2000/svg" width="24" height="24" fill="none" viewBox="0 0 24 24"><g clip-path="url(#a)"><path fill="currentColor" d="M20.9648 12C20.9648 7.04877 16.9512 3.03516 12 3.03516C7.04877 3.03516 3.03516 7.04877 3.03516 12C3.03516 16.9512 7.04877 20.9648 12 20.9648C16.9512 20.9648 20.9648 16.9512 20.9648 12ZM7.40527 7.86816C8.85159 6.6325 10.6689 6.7544 11.9951 7.68164C13.3192 6.754 15.1206 6.6488 16.5771 7.85938C18.2914 9.28422 18.4958 11.7198 17.1787 13.415C16.4806 14.3133 14.7874 15.8841 13.7334 16.8379C13.5666 16.9888 13.396 17.1437 13.2383 17.2646C13.0672 17.3957 12.8568 17.5305 12.5869 17.6123C12.2067 17.7275 11.7865 17.7275 11.4062 17.6123C11.1364 17.5305 10.9259 17.3957 10.7549 17.2646C10.5971 17.1437 10.4266 16.9888 10.2598 16.8379C9.20576 15.8841 7.51253 14.3133 6.81445 13.415C5.48816 11.708 5.73707 9.29352 7.40527 7.86816ZM11.21 9.74023C10.515 8.92804 9.49374 8.80632 8.75 9.44141C7.91327 10.1563 7.80859 11.3211 8.44922 12.1455C9.01124 12.8686 10.5453 14.3044 11.6484 15.3027C11.8251 15.4626 11.9231 15.5497 11.9961 15.6074C12.0691 15.5497 12.1676 15.463 12.3447 15.3027C13.4479 14.3044 14.9819 12.8686 15.5439 12.1455C16.1937 11.3094 16.0876 10.1441 15.2539 9.45117C14.478 8.80634 13.4705 8.93704 12.7832 9.74023C12.5866 9.97012 12.2986 10.1025 11.9961 10.1025C11.6938 10.1024 11.4065 9.97 11.21 9.74023ZM23.0352 12C23.0352 18.0945 18.0945 23.0352 12 23.0352C5.90554 23.0352 0.964844 18.0945 0.964844 12C0.964844 5.90554 5.90554 0.964844 12 0.964844C18.0945 0.964844 23.0352 5.90554 23.0352 12Z"/></g><defs><clipPath id="a"><path fill="#fff" d="M0 0H24V24H0z"/></clipPath></defs></svg>