<svg xmlns="http://www.w3.org/2000/svg" width="24" height="24" fill="none" viewBox="0 0 24 24"><path fill="currentColor" d="M19.9648 7.7998C19.9648 6.94287 19.9643 6.36234 19.9277 5.91406C19.8921 5.47781 19.8277 5.25807 19.751 5.10742C19.5626 4.73794 19.2621 4.43737 18.8926 4.24902C18.7419 4.17227 18.5222 4.10791 18.0859 4.07227C17.6377 4.03565 17.0571 4.03516 16.2002 4.03516H7.7998C6.94287 4.03516 6.36234 4.03565 5.91406 4.07227C5.47781 4.10791 5.25807 4.17227 5.10742 4.24902C4.73794 4.43737 4.43737 4.73794 4.24902 5.10742C4.17227 5.25807 4.10791 5.47781 4.07227 5.91406C4.03565 6.36234 4.03516 6.94287 4.03516 7.7998V16.2002C4.03516 17.0571 4.03565 17.6377 4.07227 18.0859C4.10791 18.5222 4.17227 18.7419 4.24902 18.8926C4.43737 19.2621 4.73794 19.5626 5.10742 19.751C5.25807 19.8277 5.47781 19.8921 5.91406 19.9277C6.36234 19.9643 6.94287 19.9648 7.7998 19.9648H16.2002C17.0571 19.9648 17.6377 19.9643 18.0859 19.9277C18.5222 19.8921 18.7419 19.8277 18.8926 19.751C19.2621 19.5626 19.5626 19.2621 19.751 18.8926C19.8277 18.7419 19.8921 18.5222 19.9277 18.0859C19.9643 17.6377 19.9648 17.0571 19.9648 16.2002V7.7998ZM7.40527 7.86816C8.85159 6.6325 10.6689 6.7544 11.9951 7.68164C13.3192 6.754 15.1206 6.6488 16.5771 7.85938C18.2914 9.28422 18.4958 11.7198 17.1787 13.415C16.4806 14.3133 14.7874 15.8841 13.7334 16.8379C13.5666 16.9888 13.396 17.1437 13.2383 17.2646C13.0672 17.3957 12.8568 17.5305 12.5869 17.6123C12.2067 17.7275 11.7865 17.7275 11.4062 17.6123C11.1364 17.5305 10.9259 17.3957 10.7549 17.2646C10.5971 17.1437 10.4266 16.9888 10.2598 16.8379C9.20576 15.8841 7.51253 14.3133 6.81445 13.415C5.48816 11.708 5.73707 9.29352 7.40527 7.86816ZM11.21 9.74023C10.515 8.92804 9.49374 8.80632 8.75 9.44141C7.91327 10.1563 7.80859 11.3211 8.44922 12.1455C9.01124 12.8686 10.5453 14.3044 11.6484 15.3027C11.8251 15.4626 11.9231 15.5497 11.9961 15.6074C12.0691 15.5497 12.1676 15.463 12.3447 15.3027C13.4479 14.3044 14.9819 12.8686 15.5439 12.1455C16.1937 11.3094 16.0876 10.1441 15.2539 9.45117C14.478 8.80634 13.4705 8.93704 12.7832 9.74023C12.5866 9.97012 12.2986 10.1025 11.9961 10.1025C11.6938 10.1024 11.4065 9.97 11.21 9.74023ZM22.0352 16.2002C22.0352 17.0231 22.0353 17.7027 21.9902 18.2549C21.9441 18.8191 21.8449 19.341 21.5947 19.832C21.2079 20.591 20.591 21.2079 19.832 21.5947C19.341 21.8449 18.8191 21.9441 18.2549 21.9902C17.7027 22.0353 17.0231 22.0352 16.2002 22.0352H7.7998C6.97689 22.0352 6.29725 22.0353 5.74512 21.9902C5.18095 21.9441 4.65899 21.8449 4.16797 21.5947C3.409 21.2079 2.79208 20.591 2.40527 19.832C2.15509 19.341 2.05588 18.8191 2.00977 18.2549C1.96465 17.7027 1.96484 17.0231 1.96484 16.2002V7.7998C1.96484 6.97689 1.96465 6.29725 2.00977 5.74512C2.05588 5.18095 2.15509 4.65899 2.40527 4.16797C2.79208 3.409 3.409 2.79208 4.16797 2.40527C4.65899 2.15509 5.18095 2.05588 5.74512 2.00977C6.29725 1.96465 6.97689 1.96484 7.7998 1.96484H16.2002C17.0231 1.96484 17.7027 1.96465 18.2549 2.00977C18.8191 2.05588 19.341 2.15509 19.832 2.40527C20.591 2.79208 21.2079 3.409 21.5947 4.16797C21.8449 4.65899 21.9441 5.18095 21.9902 5.74512C22.0353 6.29725 22.0352 6.97689 22.0352 7.7998V16.2002Z"/></svg>