<svg xmlns="http://www.w3.org/2000/svg" width="24" height="24" fill="none" viewBox="0 0 24 24"><path fill="currentColor" d="M4.40039 11.965C4.66304 11.965 4.92215 11.9647 5.14063 11.9826C5.37135 12.0014 5.64668 12.0455 5.92383 12.1867C6.25874 12.3573 6.53886 12.6171 6.73438 12.9357L6.81348 13.0763L6.90234 13.2833C6.92834 13.3564 6.94778 13.4287 6.96387 13.4992L8.53223 12.8439C8.5471 12.8372 8.56713 12.8284 8.5918 12.8175C8.64644 12.7935 8.72459 12.76 8.82031 12.7199C9.01098 12.64 9.27639 12.5324 9.57617 12.4249C10.129 12.2268 10.9614 11.965 11.6436 11.965C12.1253 11.965 12.6045 12.0224 13.0723 12.1359H13.0732L15.459 12.716H15.458C16.5454 12.9796 17.3514 13.9042 17.4346 15.0187L18.8672 13.9738L19.0654 13.8429C20.0781 13.2363 21.3987 13.3735 22.2598 14.2111C23.293 15.2162 23.294 16.8582 22.2598 17.8634L20.1016 19.9621C19.3746 20.6692 18.4513 21.149 17.4512 21.3439H17.4502L14.4014 21.9376H14.4004C13.65 22.0833 12.8757 22.0661 12.1318 21.8849V21.8839L9.37402 21.214H9.37207C9.1238 21.1531 8.86843 21.1222 8.61035 21.1222H7.01856C7.01808 21.1284 7.01808 21.1346 7.01758 21.1408C6.99873 21.3715 6.95468 21.6468 6.81348 21.924C6.61838 22.3069 6.30674 22.6185 5.92383 22.8136C5.64671 22.9548 5.37133 22.9989 5.14063 23.0177C4.92215 23.0355 4.66303 23.0353 4.40039 23.0353H3.59961C3.33697 23.0353 3.07785 23.0355 2.85938 23.0177C2.62867 22.9989 2.35329 22.9548 2.07617 22.8136C1.69326 22.6185 1.38163 22.3069 1.18652 21.924C1.04532 21.6468 1.00127 21.3715 0.982422 21.1408C0.964583 20.9222 0.964844 20.6624 0.964844 20.3996V14.5997C0.964843 14.3369 0.964562 14.0771 0.982422 13.8585C1.00129 13.6279 1.04548 13.3532 1.18652 13.0763L1.26563 12.9357C1.46114 12.6171 1.74126 12.3573 2.07617 12.1867L2.2832 12.0978C2.48816 12.0248 2.68639 11.9967 2.85938 11.9826C3.07786 11.9647 3.33696 11.965 3.59961 11.965H4.40039ZM11.6436 14.0353C11.3609 14.0353 10.8369 14.1729 10.2754 14.3742C10.0182 14.4663 9.78698 14.5592 9.62012 14.629C9.53704 14.6638 9.47042 14.6924 9.42578 14.7121C9.40372 14.7218 9.38675 14.7287 9.37598 14.7335L9.3623 14.7404C9.35205 14.7451 9.34146 14.7497 9.33105 14.754L7.03516 15.713V19.0519H8.61035C9.03277 19.0519 9.4538 19.1023 9.86523 19.2033H9.86426L12.6211 19.8732H12.6221C13.0748 19.9835 13.5472 19.9945 14.0059 19.9054L17.0547 19.3126L17.2812 19.2599C17.8033 19.1186 18.278 18.8484 18.6582 18.4787L20.8164 16.38V16.379C21.0135 16.1876 21.0148 15.8888 20.8164 15.6955C20.6491 15.5327 20.386 15.4931 20.1738 15.5949L20.0869 15.6466L17.5723 17.4796L17.5732 17.4806C17.0333 17.8752 16.3807 18.0851 15.7139 18.0851H13.2852C12.7137 18.0849 12.251 17.6214 12.251 17.0499C12.251 16.4784 12.7137 16.015 13.2852 16.0148H14.8311C15.1577 16.0148 15.373 15.7648 15.373 15.5158V15.2091C15.373 15.0265 15.2591 14.8425 15.0605 14.758L14.9697 14.7277L12.584 14.1476V14.1466C12.276 14.072 11.9605 14.0353 11.6436 14.0353ZM13.4346 1.38588C15.0039 0.637035 16.5779 1.15685 17.5459 2.26576C18.9365 1.78914 20.5414 2.13693 21.54 3.54897C22.7313 5.23375 22.3295 7.46159 20.7461 8.66127C19.9481 9.26581 18.1987 10.1947 17.0645 10.7785C16.8648 10.8812 16.6603 10.9874 16.4766 11.0636C16.2771 11.1463 16.0389 11.2222 15.7568 11.2316C15.3594 11.2447 14.9519 11.136 14.6143 10.9259C14.3746 10.7768 14.2056 10.5915 14.0742 10.4201C13.9533 10.2622 13.8295 10.0679 13.708 9.87904C13.0177 8.80651 11.968 7.12785 11.5791 6.20522C10.8018 4.36068 11.6028 2.26001 13.4346 1.38588ZM16.2578 4.03822C15.863 3.21234 15.0604 2.90375 14.3262 3.25404C13.4817 3.65704 13.1433 4.58624 13.4863 5.40053C13.7901 6.12126 14.724 7.63361 15.4482 8.75893C15.5768 8.9586 15.6489 9.06728 15.7041 9.14174C15.7891 9.1049 15.906 9.04732 16.1172 8.93861C17.3071 8.32619 18.8727 7.48319 19.4961 7.01088C20.212 6.46823 20.3796 5.49394 19.8496 4.74428C19.3627 4.05577 18.5223 3.93452 17.7773 4.44545C17.528 4.61655 17.2159 4.67012 16.9238 4.59193C16.6316 4.51364 16.3883 4.31117 16.2578 4.03822ZM3.03516 20.3996C3.03516 20.682 3.03581 20.8415 3.04395 20.9552C3.15762 20.9634 3.31663 20.965 3.59961 20.965H4.40039C4.68257 20.965 4.84147 20.9633 4.95508 20.9552C4.96322 20.8415 4.96484 20.6821 4.96484 20.3996V14.5997C4.96484 14.3168 4.96327 14.1578 4.95508 14.0441C4.84147 14.036 4.68252 14.0353 4.40039 14.0353H3.59961C3.31667 14.0353 3.15762 14.0359 3.04395 14.0441C3.03576 14.1578 3.03516 14.3168 3.03516 14.5997V20.3996Z"/></svg>