<svg xmlns="http://www.w3.org/2000/svg" width="24" height="24" fill="none" viewBox="0 0 24 24"><g clip-path="url(#a)"><path fill="currentColor" d="M20.9648 12C20.9648 7.04877 16.9512 3.03516 12 3.03516C7.04877 3.03516 3.03516 7.04877 3.03516 12C3.03516 16.9512 7.04877 20.9648 12 20.9648C16.9512 20.9648 20.9648 16.9512 20.9648 12ZM12.0098 15.9648C12.5814 15.9648 13.0449 16.4284 13.0449 17C13.0449 17.5716 12.5814 18.0352 12.0098 18.0352H12C11.4284 18.0352 10.9648 17.5716 10.9648 17C10.9648 16.4284 11.4284 15.9648 12 15.9648H12.0098ZM9.87598 6.5166C10.6974 6.03397 11.6635 5.85749 12.6025 6.01855C13.5416 6.17972 14.3932 6.66856 15.0068 7.39746C15.62 8.12602 15.9561 9.04776 15.9551 10L15.9424 10.2842C15.8133 11.675 14.7559 12.6035 13.9941 13.1113C13.5567 13.403 13.1264 13.617 12.8096 13.7578C12.6497 13.8289 12.5141 13.8829 12.417 13.9199C12.3685 13.9384 12.3295 13.9536 12.3008 13.9639L12.2539 13.9795C12.2525 13.98 12.2511 13.9801 12.25 13.9805L12.249 13.9814H12.2471C11.7048 14.1622 11.1192 13.8694 10.9385 13.3271C10.7578 12.7852 11.0501 12.1997 11.5918 12.0186L11.6074 12.0127C11.6226 12.0073 11.6477 11.9989 11.6807 11.9863C11.7476 11.9608 11.8474 11.9211 11.9688 11.8672C12.2143 11.758 12.5335 11.5968 12.8457 11.3887C13.5332 10.9303 13.8848 10.4506 13.8848 10V9.99805C13.8854 9.53415 13.7216 9.08537 13.4229 8.73047C13.124 8.37546 12.7093 8.13705 12.252 8.05859C11.7947 7.98024 11.3248 8.06676 10.9248 8.30176C10.5247 8.53689 10.2204 8.90599 10.0664 9.34375C9.87663 9.88282 9.28524 10.1662 8.74609 9.97656C8.20709 9.78675 7.92363 9.19536 8.11328 8.65625C8.42951 7.75741 9.05449 6.9994 9.87598 6.5166ZM23.0352 12C23.0352 18.0945 18.0945 23.0352 12 23.0352C5.90554 23.0352 0.964844 18.0945 0.964844 12C0.964844 5.90554 5.90554 0.964844 12 0.964844C18.0945 0.964844 23.0352 5.90554 23.0352 12Z"/></g><defs><clipPath id="a"><path fill="#fff" d="M0 0H24V24H0z"/></clipPath></defs></svg>