<svg xmlns="http://www.w3.org/2000/svg" width="24" height="24" fill="none" viewBox="0 0 24 24"><path fill="currentColor" d="M19.9648 7.7998C19.9648 6.94287 19.9643 6.36234 19.9277 5.91406C19.8921 5.47781 19.8277 5.25807 19.751 5.10742C19.5626 4.73794 19.2621 4.43737 18.8926 4.24902C18.7419 4.17227 18.5222 4.10791 18.0859 4.07227C17.6377 4.03565 17.0571 4.03516 16.2002 4.03516H7.7998C6.94287 4.03516 6.36234 4.03565 5.91406 4.07227C5.47781 4.10791 5.25807 4.17227 5.10742 4.24902C4.73794 4.43737 4.43737 4.73794 4.24902 5.10742C4.17227 5.25807 4.10791 5.47781 4.07227 5.91406C4.03565 6.36234 4.03516 6.94287 4.03516 7.7998V16.2002C4.03516 17.0571 4.03565 17.6377 4.07227 18.0859C4.10791 18.5222 4.17227 18.7419 4.24902 18.8926C4.43737 19.2621 4.73794 19.5626 5.10742 19.751C5.25807 19.8277 5.47781 19.8921 5.91406 19.9277C6.36234 19.9643 6.94287 19.9648 7.7998 19.9648H16.2002C17.0571 19.9648 17.6377 19.9643 18.0859 19.9277C18.5222 19.8921 18.7419 19.8277 18.8926 19.751C19.2621 19.5626 19.5626 19.2621 19.751 18.8926C19.8277 18.7419 19.8921 18.5222 19.9277 18.0859C19.9643 17.6377 19.9648 17.0571 19.9648 16.2002V7.7998ZM12.0098 15.9648C12.5814 15.9648 13.0449 16.4284 13.0449 17C13.0449 17.5716 12.5814 18.0352 12.0098 18.0352H12C11.4284 18.0352 10.9648 17.5716 10.9648 17C10.9648 16.4284 11.4284 15.9648 12 15.9648H12.0098ZM9.87598 6.5166C10.6974 6.03397 11.6635 5.85749 12.6025 6.01855C13.5416 6.17971 14.3932 6.66856 15.0068 7.39746C15.62 8.12602 15.9561 9.04776 15.9551 10L15.9424 10.2842C15.8133 11.675 14.7559 12.6035 13.9941 13.1113C13.5567 13.403 13.1264 13.617 12.8096 13.7578C12.6497 13.8289 12.5141 13.8829 12.417 13.9199C12.3685 13.9384 12.3295 13.9536 12.3008 13.9639L12.2539 13.9795C12.2525 13.98 12.2511 13.9801 12.25 13.9805L12.249 13.9814H12.2471C11.7048 14.1622 11.1192 13.8694 10.9385 13.3271C10.7578 12.7852 11.0501 12.1997 11.5918 12.0186L11.6074 12.0127C11.6226 12.0073 11.6477 11.9989 11.6807 11.9863C11.7476 11.9608 11.8474 11.9211 11.9688 11.8672C12.2143 11.758 12.5335 11.5968 12.8457 11.3887C13.5332 10.9303 13.8848 10.4506 13.8848 10V9.99805C13.8854 9.53415 13.7216 9.08537 13.4229 8.73047C13.124 8.37546 12.7093 8.13705 12.252 8.05859C11.7947 7.98024 11.3248 8.06676 10.9248 8.30176C10.5247 8.53689 10.2204 8.90599 10.0664 9.34375C9.87663 9.88282 9.28524 10.1662 8.74609 9.97656C8.20709 9.78675 7.92363 9.19536 8.11328 8.65625C8.42951 7.75741 9.05449 6.9994 9.87598 6.5166ZM22.0352 16.2002C22.0352 17.0231 22.0353 17.7027 21.9902 18.2549C21.9441 18.8191 21.8449 19.341 21.5947 19.832C21.2079 20.591 20.591 21.2079 19.832 21.5947C19.341 21.8449 18.8191 21.9441 18.2549 21.9902C17.7027 22.0353 17.0231 22.0352 16.2002 22.0352H7.7998C6.97689 22.0352 6.29725 22.0353 5.74512 21.9902C5.18095 21.9441 4.65899 21.8449 4.16797 21.5947C3.409 21.2079 2.79208 20.591 2.40527 19.832C2.15509 19.341 2.05588 18.8191 2.00977 18.2549C1.96465 17.7027 1.96484 17.0231 1.96484 16.2002V7.7998C1.96484 6.97689 1.96465 6.29725 2.00977 5.74512C2.05588 5.18095 2.15509 4.65899 2.40527 4.16797C2.79208 3.409 3.409 2.79208 4.16797 2.40527C4.65899 2.15509 5.18095 2.05588 5.74512 2.00977C6.29725 1.96465 6.97689 1.96484 7.7998 1.96484H16.2002C17.0231 1.96484 17.7027 1.96465 18.2549 2.00977C18.8191 2.05588 19.341 2.15509 19.832 2.40527C20.591 2.79208 21.2079 3.409 21.5947 4.16797C21.8449 4.65899 21.9441 5.18095 21.9902 5.74512C22.0353 6.29725 22.0352 6.97689 22.0352 7.7998V16.2002Z"/></svg>