<svg xmlns="http://www.w3.org/2000/svg" width="24" height="24" fill="none" viewBox="0 0 24 24"><g clip-path="url(#a)"><path fill="currentColor" d="M20.9629 8.28911C20.9317 8.25545 20.8865 8.20975 20.7998 8.1231L15.8769 3.20024C15.7894 3.11271 15.7437 3.06738 15.7099 3.03618C15.6641 3.03443 15.5999 3.03521 15.4775 3.03521H8.52245C8.39925 3.03521 8.33492 3.03439 8.28905 3.03618C8.25535 3.06737 8.21011 3.11317 8.12303 3.20024L3.20018 8.1231C3.11311 8.21017 3.0673 8.25541 3.03612 8.28911C3.03433 8.33498 3.03514 8.39931 3.03514 8.52251V15.4776C3.03514 15.5999 3.03437 15.6642 3.03612 15.71C3.06732 15.7438 3.11265 15.7895 3.20018 15.877L8.12303 20.7999C8.20969 20.8865 8.25539 20.9318 8.28905 20.9629C8.33492 20.9647 8.39922 20.9649 8.52245 20.9649H15.4775C15.5999 20.9649 15.6641 20.9647 15.7099 20.9629C15.7437 20.9318 15.7898 20.887 15.8769 20.7999L20.7998 15.877C20.8869 15.7899 20.9317 15.7437 20.9629 15.71C20.9646 15.6642 20.9648 15.5999 20.9648 15.4776V8.52251C20.9648 8.39928 20.9647 8.33499 20.9629 8.28911ZM12.0098 15.9649C12.5814 15.9649 13.0449 16.4284 13.0449 17C13.0449 17.5717 12.5814 18.0352 12.0098 18.0352H12C11.4284 18.0352 10.9648 17.5717 10.9648 17C10.9648 16.4284 11.4284 15.9649 12 15.9649H12.0098ZM9.87596 6.51665C10.6974 6.03403 11.6635 5.85754 12.6025 6.0186C13.5416 6.17977 14.3932 6.66862 15.0068 7.39751C15.62 8.12607 15.9561 9.04781 15.9551 10L15.9414 10.2842C15.8123 11.675 14.7559 12.6035 13.9941 13.1114C13.5564 13.4032 13.1254 13.617 12.8086 13.7579C12.6488 13.8289 12.5141 13.883 12.417 13.92C12.3685 13.9384 12.3295 13.9537 12.3008 13.9639L12.2539 13.9795C12.2525 13.98 12.2511 13.9801 12.25 13.9805L12.249 13.9815H12.2471C11.7048 14.1622 11.1192 13.8695 10.9385 13.3272C10.7578 12.7852 11.0501 12.1997 11.5918 12.0186L11.6064 12.0127C11.6216 12.0074 11.6473 11.9991 11.6807 11.9864C11.7476 11.9609 11.8474 11.9202 11.9687 11.8663C12.2143 11.7571 12.5337 11.5967 12.8457 11.3887C13.5332 10.9304 13.8847 10.4506 13.8848 10V9.9981C13.8853 9.53421 13.7216 9.08542 13.4228 8.73052C13.124 8.3755 12.7093 8.13709 12.2519 8.05864C11.7947 7.98028 11.3248 8.06681 10.9248 8.30181C10.5247 8.53693 10.2204 8.90604 10.0664 9.3438C9.87662 9.88287 9.28523 10.1663 8.74608 9.97661C8.20705 9.78681 7.92362 9.19542 8.11327 8.6563C8.4295 7.75746 9.05448 6.99944 9.87596 6.51665ZM23.0351 15.4776C23.0352 15.6729 23.0414 15.9394 22.9785 16.2012C22.9287 16.4087 22.8468 16.6072 22.7353 16.7891C22.5946 17.0187 22.4018 17.2028 22.2637 17.3409L17.3408 22.2637C17.2027 22.4018 17.0187 22.5947 16.7891 22.7354C16.6071 22.8469 16.4086 22.9287 16.2012 22.9786C15.9394 23.0414 15.6728 23.0352 15.4775 23.0352H8.52245C8.32715 23.0352 8.0606 23.0414 7.79882 22.9786C7.59134 22.9287 7.39286 22.8469 7.21093 22.7354C6.9813 22.5947 6.79728 22.4018 6.65917 22.2637L1.73632 17.3409C1.5982 17.2028 1.40535 17.0187 1.26464 16.7891C1.15316 16.6072 1.07132 16.4087 1.02147 16.2012C0.958624 15.9394 0.964825 15.6729 0.964832 15.4776V8.52251C0.964825 8.32721 0.958624 8.06066 1.02147 7.79888C1.07132 7.59141 1.15316 7.39293 1.26464 7.21099L1.37889 7.04692C1.49893 6.89214 1.63283 6.76271 1.73632 6.65923L6.65917 1.73638C6.79728 1.59826 6.9813 1.40541 7.21093 1.2647L7.35057 1.18657C7.49278 1.11414 7.64328 1.0589 7.79882 1.02153C8.0606 0.958685 8.32715 0.964886 8.52245 0.964893H15.4775C15.624 0.964888 15.8104 0.961713 16.0049 0.986377L16.2012 1.02153L16.3545 1.0645C16.4558 1.09742 16.5545 1.13821 16.6494 1.18657L16.7891 1.2647L16.9531 1.37896C17.1079 1.49899 17.2373 1.63289 17.3408 1.73638L22.2637 6.65923C22.3671 6.76271 22.501 6.89213 22.6211 7.04692L22.7353 7.21099L22.8135 7.35064C22.8859 7.49284 22.9411 7.64334 22.9785 7.79888C23.0414 8.06066 23.0352 8.32721 23.0351 8.52251V15.4776Z"/></g><defs><clipPath id="a"><path fill="#fff" d="M0 0H24V24H0z"/></clipPath></defs></svg>