<svg xmlns="http://www.w3.org/2000/svg" width="24" height="24" fill="none" viewBox="0 0 24 24"><path fill="currentColor" d="M16.2783 1.96484C16.4744 1.96642 16.6977 1.97687 16.9179 2.03027L17.0498 2.06738L17.2509 2.14648C17.4482 2.23584 17.6301 2.35656 17.79 2.50391C18.0599 2.75262 18.2295 3.08308 18.3613 3.32031L22.4726 10.7207C22.5976 10.9456 22.7782 11.2477 22.8486 11.5898C22.9042 11.8603 22.9042 12.1397 22.8486 12.4102C22.7782 12.7523 22.5976 13.0544 22.4726 13.2793L18.3613 20.6797C18.2295 20.9169 18.0599 21.2474 17.79 21.4961C17.577 21.6924 17.3248 21.8417 17.0498 21.9326C16.7883 22.019 16.5137 22.0333 16.2783 22.0352H7.72068C7.48533 22.0333 7.21062 22.019 6.94919 21.9326C6.67419 21.8417 6.42195 21.6924 6.20896 21.4961C5.93913 21.2474 5.76945 20.9169 5.63767 20.6797L1.52634 13.2793C1.40137 13.0544 1.22078 12.7523 1.15036 12.4102C1.09474 12.1397 1.09474 11.8603 1.15036 11.5898C1.22078 11.2477 1.40137 10.9456 1.52634 10.7207L5.63767 3.32031C5.76945 3.08311 5.93913 2.75263 6.20896 2.50391L6.37595 2.36523C6.54964 2.23646 6.74302 2.13553 6.94919 2.06738L7.08103 2.03027C7.3013 1.97685 7.52454 1.96643 7.72068 1.96484H16.2783ZM7.61032 4.03809C7.57547 4.09383 7.53103 4.17437 7.44724 4.3252L3.33591 11.7256C3.25661 11.8683 3.21488 11.9444 3.18747 12C3.21488 12.0556 3.25661 12.1317 3.33591 12.2744L7.44724 19.6748C7.53068 19.825 7.57554 19.9052 7.61032 19.9609C7.67604 19.9643 7.76844 19.9648 7.94138 19.9648H16.0586C16.2302 19.9648 16.3221 19.9643 16.3877 19.9609C16.4225 19.9052 16.4681 19.8254 16.5517 19.6748L20.6631 12.2744C20.7422 12.1321 20.7831 12.0556 20.8105 12C20.7831 11.9444 20.7422 11.868 20.6631 11.7256L16.5517 4.3252C16.4677 4.17395 16.4226 4.09384 16.3877 4.03809C16.3221 4.03474 16.2302 4.03516 16.0586 4.03516H7.94138C7.76849 4.03516 7.67603 4.03468 7.61032 4.03809Z"/></svg>