<svg xmlns="http://www.w3.org/2000/svg" width="24" height="24" fill="none" viewBox="0 0 24 24"><path fill="currentColor" d="M19.9648 10.5647C19.9648 9.93222 19.9564 9.81346 19.9297 9.71801C19.898 9.60497 19.8452 9.4989 19.7754 9.40453C19.7164 9.32483 19.6284 9.24419 19.1289 8.8557L12.3467 3.58129C12.1697 3.44367 12.0725 3.36903 12 3.31957C11.9275 3.36903 11.8303 3.44367 11.6533 3.58129L4.87109 8.8557C4.3716 9.24419 4.28357 9.32483 4.2246 9.40453C4.1548 9.4989 4.10195 9.60497 4.07031 9.71801C4.0436 9.81346 4.03515 9.93222 4.03515 10.5647V17.8C4.03515 18.3771 4.03558 18.748 4.05859 19.0295C4.08059 19.2987 4.11836 19.394 4.14062 19.4377C4.23307 19.6192 4.38011 19.7671 4.56152 19.8596C4.6052 19.8819 4.7012 19.9196 4.9707 19.9416C5.25227 19.9646 5.6231 19.9651 6.20019 19.9651H17.7998C18.3769 19.9651 18.7477 19.9646 19.0293 19.9416C19.2988 19.9196 19.3948 19.8819 19.4385 19.8596C19.6199 19.7671 19.7669 19.6192 19.8594 19.4377C19.8816 19.394 19.9194 19.2987 19.9414 19.0295C19.9644 18.748 19.9648 18.3771 19.9648 17.8V10.5647ZM22.0352 17.8C22.0352 18.3428 22.0354 18.8121 22.0039 19.1975C21.9714 19.595 21.8998 19.994 21.7041 20.3782C21.4131 20.9491 20.9489 21.4134 20.3779 21.7043C19.9939 21.9 19.5956 21.9716 19.1982 22.0041C18.8128 22.0356 18.3428 22.0354 17.7998 22.0354H6.20019C5.65722 22.0354 5.18718 22.0356 4.80175 22.0041C4.40437 21.9716 4.00608 21.9 3.62206 21.7043C3.05109 21.4134 2.58688 20.9491 2.29589 20.3782C2.10017 19.994 2.02857 19.595 1.99609 19.1975C1.96462 18.8121 1.96484 18.3428 1.96484 17.8V10.5647C1.96483 10.0492 1.95595 9.59363 2.07714 9.16039C2.17665 8.80489 2.34004 8.46989 2.55956 8.17308C2.82719 7.81125 3.19256 7.5385 3.5996 7.22191L10.3818 1.94652C10.6575 1.73211 11.0242 1.42321 11.4678 1.30297C11.7725 1.22045 12.092 1.20983 12.4004 1.27172L12.5322 1.30297L12.6943 1.3557C13.0656 1.4984 13.3768 1.75879 13.6182 1.94652L20.4004 7.22191C20.8074 7.5385 21.1728 7.81125 21.4404 8.17308C21.6599 8.46989 21.8233 8.80489 21.9228 9.16039C22.044 9.59363 22.0352 10.0492 22.0352 10.5647V17.8Z"/></svg>