<svg xmlns="http://www.w3.org/2000/svg" width="24" height="24" fill="none" viewBox="0 0 24 24"><path fill="currentColor" d="M19.9648 10.5648C19.9648 9.93234 19.9564 9.81358 19.9297 9.71813C19.898 9.60509 19.8452 9.49902 19.7754 9.40465C19.7164 9.32496 19.6284 9.24431 19.1289 8.85582L12.3467 3.58141C12.1697 3.44379 12.0725 3.36915 12 3.31969C11.9275 3.36915 11.8303 3.44379 11.6533 3.58141L4.87109 8.85582C4.3716 9.24431 4.28357 9.32496 4.2246 9.40465C4.1548 9.49902 4.10195 9.60509 4.07031 9.71813C4.0436 9.81358 4.03515 9.93234 4.03515 10.5648V17.8002C4.03515 18.3773 4.03558 18.7481 4.05859 19.0297C4.08059 19.2988 4.11836 19.3941 4.14062 19.4379C4.23307 19.6193 4.38011 19.7672 4.56152 19.8597C4.6052 19.882 4.7012 19.9197 4.9707 19.9418C5.25227 19.9648 5.6231 19.9652 6.20019 19.9652H17.7998C18.3769 19.9652 18.7477 19.9648 19.0293 19.9418C19.2988 19.9197 19.3948 19.882 19.4385 19.8597C19.6199 19.7672 19.7669 19.6193 19.8594 19.4379C19.8816 19.3941 19.9194 19.2988 19.9414 19.0297C19.9644 18.7481 19.9648 18.3773 19.9648 17.8002V10.5648ZM16 15.9652C16.5716 15.9652 17.0352 16.4287 17.0352 17.0004C17.035 17.5718 16.5715 18.0355 16 18.0355H7.99999C7.42847 18.0355 6.96498 17.5718 6.96484 17.0004C6.96484 16.4287 7.42838 15.9652 7.99999 15.9652H16ZM22.0352 17.8002C22.0352 18.343 22.0354 18.8123 22.0039 19.1976C21.9714 19.5951 21.8998 19.9941 21.7041 20.3783C21.4131 20.9492 20.9489 21.4135 20.3779 21.7045C19.9939 21.9001 19.5956 21.9718 19.1982 22.0043C18.8128 22.0358 18.3428 22.0355 17.7998 22.0355H6.20019C5.65722 22.0355 5.18718 22.0358 4.80175 22.0043C4.40437 21.9718 4.00608 21.9001 3.62206 21.7045C3.05109 21.4135 2.58688 20.9492 2.29589 20.3783C2.10017 19.9941 2.02857 19.5951 1.99609 19.1976C1.96462 18.8123 1.96484 18.343 1.96484 17.8002V10.5648C1.96483 10.0494 1.95595 9.59375 2.07714 9.16051C2.17665 8.80501 2.34004 8.47001 2.55956 8.17321C2.82719 7.81138 3.19256 7.53862 3.5996 7.22203L10.3818 1.94664C10.6575 1.73223 11.0242 1.42333 11.4678 1.30309C11.7725 1.22058 12.092 1.20996 12.4004 1.27184L12.5322 1.30309L12.6943 1.35582C13.0656 1.49852 13.3768 1.75891 13.6182 1.94664L20.4004 7.22203C20.8074 7.53862 21.1728 7.81138 21.4404 8.17321C21.6599 8.47001 21.8233 8.80501 21.9228 9.16051C22.044 9.59375 22.0352 10.0494 22.0352 10.5648V17.8002Z"/></svg>