<svg xmlns="http://www.w3.org/2000/svg" width="24" height="24" fill="none" viewBox="0 0 24 24"><path fill="currentColor" d="M19.9648 10.5648C19.9648 9.93234 19.9564 9.81358 19.9297 9.71813C19.898 9.60509 19.8452 9.49902 19.7754 9.40465C19.7164 9.32496 19.6284 9.24431 19.1289 8.85582L12.3467 3.58141C12.1697 3.44379 12.0725 3.36915 12 3.31969C11.9275 3.36915 11.8303 3.44379 11.6533 3.58141L4.87109 8.85582C4.3716 9.24431 4.28357 9.32496 4.2246 9.40465C4.1548 9.49902 4.10195 9.60509 4.07031 9.71813C4.0436 9.81358 4.03515 9.93234 4.03515 10.5648V17.8002C4.03515 18.3773 4.03558 18.7481 4.05859 19.0297C4.08059 19.2988 4.11836 19.3941 4.14062 19.4379C4.23307 19.6193 4.38011 19.7672 4.56152 19.8597C4.6052 19.882 4.7012 19.9197 4.9707 19.9418C5.25227 19.9648 5.6231 19.9652 6.20019 19.9652H7.96484V13.6C7.96484 13.3371 7.96455 13.0774 7.98242 12.8588C8.00128 12.6282 8.04549 12.3535 8.18652 12.0765L8.26562 11.9359C8.46114 11.6172 8.74121 11.3575 9.07617 11.1869L9.2832 11.098C9.48817 11.025 9.68637 10.9959 9.85937 10.9818C10.0778 10.964 10.337 10.9652 10.5996 10.9652H13.4004C13.663 10.9652 13.9222 10.964 14.1406 10.9818C14.3714 11.0007 14.6467 11.0457 14.9238 11.1869C15.2588 11.3575 15.5389 11.6172 15.7344 11.9359L15.8135 12.0765L15.9023 12.2826C15.9754 12.4876 16.0034 12.6857 16.0176 12.8588C16.0354 13.0774 16.0352 13.3371 16.0352 13.6V19.9652H17.7998C18.3769 19.9652 18.7477 19.9648 19.0293 19.9418C19.2988 19.9197 19.3948 19.882 19.4385 19.8597C19.6199 19.7672 19.7669 19.6193 19.8594 19.4379C19.8816 19.3941 19.9194 19.2988 19.9414 19.0297C19.9644 18.7481 19.9648 18.3773 19.9648 17.8002V10.5648ZM22.0352 17.8002C22.0352 18.343 22.0354 18.8123 22.0039 19.1976C21.9714 19.5951 21.8998 19.9941 21.7041 20.3783C21.4131 20.9492 20.9489 21.4135 20.3779 21.7045C19.9939 21.9001 19.5956 21.9718 19.1982 22.0043C18.8128 22.0358 18.3428 22.0355 17.7998 22.0355H15.7998C15.677 22.0355 15.5228 22.0358 15.3877 22.0248C15.2403 22.0127 15.0264 21.9815 14.8027 21.8675C14.5141 21.7204 14.2789 21.4853 14.1318 21.1966C14.018 20.9731 13.9876 20.7599 13.9756 20.6127C13.9645 20.4775 13.9648 20.3234 13.9648 20.2006V13.6C13.9648 13.317 13.9633 13.158 13.9551 13.0443C13.8415 13.0362 13.6825 13.0355 13.4004 13.0355H10.5996C10.3167 13.0355 10.1576 13.0361 10.0439 13.0443C10.0358 13.158 10.0352 13.3171 10.0352 13.6V20.2006C10.0352 20.3234 10.0354 20.4775 10.0244 20.6127C10.0124 20.7599 9.98195 20.9731 9.86816 21.1966C9.72106 21.4853 9.4859 21.7204 9.19726 21.8675C8.97356 21.9815 8.75968 22.0127 8.6123 22.0248C8.47716 22.0358 8.32298 22.0355 8.20019 22.0355H6.20019C5.65722 22.0355 5.18718 22.0358 4.80175 22.0043C4.40437 21.9718 4.00608 21.9001 3.62206 21.7045C3.05109 21.4135 2.58688 20.9492 2.29589 20.3783C2.10017 19.9941 2.02857 19.5951 1.99609 19.1976C1.96462 18.8123 1.96484 18.343 1.96484 17.8002V10.5648C1.96483 10.0494 1.95595 9.59375 2.07714 9.16051C2.17665 8.80501 2.34004 8.47001 2.55956 8.17321C2.82719 7.81138 3.19256 7.53862 3.5996 7.22203L10.3818 1.94664C10.6575 1.73223 11.0242 1.42333 11.4678 1.30309C11.7725 1.22058 12.092 1.20996 12.4004 1.27184L12.5322 1.30309L12.6943 1.35582C13.0656 1.49852 13.3768 1.75891 13.6182 1.94664L20.4004 7.22203C20.8074 7.53862 21.1728 7.81138 21.4404 8.17321C21.6599 8.47001 21.8233 8.80501 21.9228 9.16051C22.044 9.59375 22.0352 10.0494 22.0352 10.5648V17.8002Z"/></svg>