<svg xmlns="http://www.w3.org/2000/svg" width="24" height="24" fill="none" viewBox="0 0 24 24"><path fill="currentColor" d="M13.9648 13.5997C13.9648 13.3167 13.9633 13.1577 13.9551 13.044C13.8415 13.0359 13.6825 13.0352 13.4004 13.0352H10.5996C10.3167 13.0352 10.1576 13.0358 10.0439 13.044C10.0357 13.1577 10.0351 13.3167 10.0351 13.5997V19.9649H13.9648V13.5997ZM21.0351 17.7999C21.0351 18.3428 21.0354 18.8129 21.0039 19.1983C20.9714 19.5957 20.8998 19.994 20.7041 20.378C20.4131 20.949 19.9489 21.4132 19.3779 21.7042C18.9939 21.8998 18.5956 21.9715 18.1982 22.004C17.8128 22.0355 17.3428 22.0352 16.7998 22.0352H7.20018C6.65721 22.0352 6.18717 22.0355 5.80175 22.004C5.40437 21.9715 5.00607 21.8998 4.62206 21.7042C4.05106 21.4132 3.58685 20.949 3.29589 20.378C3.10022 19.994 3.02857 19.5957 2.99608 19.1983C2.96459 18.8129 2.96483 18.3428 2.96483 17.7999V10.0694L2.62108 10.3282C2.16379 10.6712 1.51483 10.5784 1.17186 10.1212C0.828894 9.66386 0.921602 9.0149 1.37889 8.67193L10.4189 1.89166C10.6895 1.68873 11.0502 1.39606 11.4824 1.28228L11.6103 1.25299C11.9106 1.1944 12.2206 1.20418 12.5176 1.28228C12.9498 1.39606 13.3105 1.68873 13.581 1.89166L22.6211 8.67193C23.0784 9.0149 23.1711 9.66386 22.8281 10.1212C22.4851 10.5784 21.8362 10.6712 21.3789 10.3282L21.0351 10.0694V17.7999ZM16.0351 19.9649H16.7998C17.3769 19.9649 17.7477 19.9645 18.0293 19.9415C18.2988 19.9194 18.3948 19.8817 18.4385 19.8594C18.6197 19.767 18.7669 19.6197 18.8594 19.4385C18.8816 19.3948 18.9194 19.2989 18.9414 19.0294C18.9644 18.7478 18.9648 18.377 18.9648 17.7999V8.51666L13.2988 4.26764C12.5375 3.69663 12.3808 3.60202 12.2461 3.56646C12.0851 3.52407 11.9149 3.52407 11.7539 3.56646C11.6191 3.60202 11.4625 3.69664 10.7012 4.26764L5.03514 8.51666V17.7999C5.03514 18.377 5.03558 18.7478 5.05858 19.0294C5.0806 19.2989 5.11835 19.3948 5.14061 19.4385C5.23306 19.6197 5.38031 19.767 5.56151 19.8594C5.6052 19.8817 5.70119 19.9194 5.97069 19.9415C6.25227 19.9645 6.62307 19.9649 7.20018 19.9649H7.96483V13.5997C7.96483 13.337 7.96459 13.0779 7.98241 12.8594C8.00126 12.6287 8.04534 12.3534 8.18651 12.0762L8.26561 11.9356C8.46113 11.617 8.74127 11.3572 9.07616 11.1866L9.28319 11.0977C9.48813 11.0248 9.68638 10.9966 9.85936 10.9825C10.0778 10.9647 10.337 10.9649 10.5996 10.9649H13.4004C13.663 10.9649 13.9221 10.9647 14.1406 10.9825C14.3713 11.0013 14.6467 11.0454 14.9238 11.1866C15.2587 11.3572 15.5389 11.617 15.7344 11.9356L15.8135 12.0762L15.9023 12.2833C15.9753 12.4882 16.0034 12.6865 16.0176 12.8594C16.0354 13.0779 16.0351 13.337 16.0351 13.5997V19.9649Z"/></svg>