<svg xmlns="http://www.w3.org/2000/svg" width="24" height="24" fill="none" viewBox="0 0 24 24"><path fill="currentColor" d="M19.9648 16.0996C19.9648 15.8166 19.9633 15.6576 19.9551 15.5439C19.8415 15.5358 19.6825 15.5352 19.4004 15.5352H4.03516V18.4648H19.4004C19.6826 18.4648 19.8415 18.4632 19.9551 18.4551C19.9632 18.3415 19.9648 18.1826 19.9648 17.9004V16.0996ZM15.9648 11.0996C15.9648 10.8166 15.9633 10.6576 15.9551 10.5439C15.8415 10.5358 15.6825 10.5352 15.4004 10.5352H4.03516V13.4648H15.9648V11.0996ZM11.9648 6.09961C11.9648 5.81662 11.9633 5.65762 11.9551 5.54395C11.8415 5.53582 11.6825 5.53516 11.4004 5.53516H4.03516V8.46484H11.9648V6.09961ZM14.0352 8.46484H15.4004C15.663 8.46484 15.9221 8.4646 16.1406 8.48242C16.3713 8.50127 16.6467 8.54535 16.9238 8.68652C17.2587 8.85716 17.5389 9.11698 17.7344 9.43555L17.8135 9.57617L17.9023 9.7832C17.9753 9.98814 18.0034 10.1864 18.0176 10.3594C18.0354 10.5779 18.0352 10.837 18.0352 11.0996V13.4648H19.4004C19.663 13.4648 19.9221 13.4646 20.1406 13.4824C20.3713 13.5013 20.6467 13.5454 20.9238 13.6865C21.2587 13.8572 21.5389 14.117 21.7344 14.4355L21.8135 14.5762L21.9023 14.7832C21.9753 14.9881 22.0034 15.1864 22.0176 15.3594C22.0354 15.5779 22.0352 15.837 22.0352 16.0996V17.9004C22.0352 18.163 22.0354 18.4221 22.0176 18.6406C21.9987 18.8713 21.9546 19.1467 21.8135 19.4238C21.6184 19.8067 21.3067 20.1184 20.9238 20.3135C20.6467 20.4546 20.3713 20.4987 20.1406 20.5176C19.9221 20.5354 19.663 20.5352 19.4004 20.5352H4.03516V22C4.03516 22.5716 3.57161 23.0352 3 23.0352C2.42839 23.0352 1.96484 22.5716 1.96484 22V2C1.96484 1.42839 2.42839 0.964844 3 0.964844C3.57161 0.964844 4.03516 1.42839 4.03516 2V3.46484H11.4004C11.663 3.46484 11.9221 3.4646 12.1406 3.48242C12.3713 3.50127 12.6467 3.54535 12.9238 3.68652C13.2587 3.85716 13.5389 4.11698 13.7344 4.43555L13.8135 4.57617L13.9023 4.7832C13.9753 4.98814 14.0034 5.1864 14.0176 5.35938C14.0354 5.57785 14.0352 5.83696 14.0352 6.09961V8.46484Z"/></svg>