<svg xmlns="http://www.w3.org/2000/svg" width="24" height="24" fill="none" viewBox="0 0 24 24"><path fill="currentColor" d="M17.9649 3.59961C17.9649 3.31662 17.9634 3.15762 17.9552 3.04395C17.8416 3.03582 17.6826 3.03516 17.4005 3.03516H6.59971C6.31678 3.03516 6.15772 3.03576 6.04405 3.04395C6.03586 3.15762 6.03526 3.31668 6.03526 3.59961V5.6748C6.03526 6.21219 6.04169 6.31322 6.06163 6.39648C6.08525 6.49487 6.12401 6.5895 6.17686 6.67578C6.22164 6.74886 6.28853 6.82455 6.66905 7.20508L9.60069 10.1367C9.78658 10.3226 9.97043 10.5056 10.1124 10.6729C10.2248 10.8052 10.3442 10.9655 10.4376 11.1621L10.5216 11.3711L10.5646 11.5254C10.6518 11.8892 10.6378 12.2711 10.5216 12.6289C10.4255 12.9248 10.2622 13.1506 10.1124 13.3271C9.97043 13.4944 9.78658 13.6774 9.60069 13.8633L6.66905 16.7949C6.28853 17.1754 6.22164 17.2511 6.17686 17.3242C6.12401 17.4105 6.08525 17.5051 6.06163 17.6035C6.04169 17.6868 6.03526 17.7878 6.03526 18.3252V20.4004C6.03526 20.6825 6.03592 20.8415 6.04405 20.9551C6.15772 20.9633 6.31672 20.9648 6.59971 20.9648H17.4005C17.6827 20.9648 17.8416 20.9632 17.9552 20.9551C17.9633 20.8415 17.9649 20.6826 17.9649 20.4004V18.3252C17.9649 17.7878 17.9585 17.6868 17.9386 17.6035C17.915 17.5051 17.8762 17.4105 17.8233 17.3242C17.7786 17.2511 17.7117 17.1754 17.3312 16.7949L14.3995 13.8633C14.2136 13.6774 14.0298 13.4944 13.8878 13.3271C13.738 13.1506 13.5747 12.9248 13.4786 12.6289C13.3458 12.2202 13.3458 11.7798 13.4786 11.3711C13.5747 11.0752 13.738 10.8494 13.8878 10.6729C14.0298 10.5056 14.2136 10.3226 14.3995 10.1367L17.3312 7.20508C17.7117 6.82455 17.7786 6.74886 17.8233 6.67578C17.8762 6.58949 17.915 6.49488 17.9386 6.39648C17.9585 6.31322 17.9649 6.21219 17.9649 5.6748V3.59961ZM15.0001 17.4648C15.5717 17.4648 16.0353 17.9284 16.0353 18.5C16.0353 19.0716 15.5717 19.5352 15.0001 19.5352H9.0001C8.42849 19.5352 7.96495 19.0716 7.96495 18.5C7.96495 17.9284 8.42849 17.4648 9.0001 17.4648H15.0001ZM20.0353 5.6748C20.0353 6.11453 20.0417 6.50303 19.9513 6.87988C19.8769 7.18956 19.7544 7.48626 19.588 7.75781C19.3855 8.08818 19.1059 8.35807 18.795 8.66895L15.8634 11.6006C15.6632 11.8007 15.5513 11.9138 15.4767 12C15.5513 12.0862 15.6632 12.1993 15.8634 12.3994L18.795 15.3311C19.1059 15.6419 19.3855 15.9118 19.588 16.2422C19.7544 16.5137 19.8769 16.8104 19.9513 17.1201C20.0417 17.497 20.0353 17.8855 20.0353 18.3252V20.4004C20.0353 20.663 20.0355 20.9221 20.0177 21.1406C19.9988 21.3713 19.9547 21.6467 19.8136 21.9238C19.6185 22.3067 19.3068 22.6184 18.9239 22.8135C18.6468 22.9546 18.3714 22.9987 18.1407 23.0176C17.9222 23.0354 17.6631 23.0352 17.4005 23.0352H6.59971C6.33707 23.0352 6.07795 23.0354 5.85948 23.0176C5.62876 22.9987 5.3534 22.9546 5.07627 22.8135C4.69336 22.6184 4.38173 22.3067 4.18663 21.9238C4.04545 21.6467 4.00137 21.3713 3.98252 21.1406C3.9647 20.9221 3.96494 20.663 3.96495 20.4004V18.3252C3.96494 17.8855 3.95849 17.497 4.04893 17.1201C4.12328 16.8104 4.24581 16.5137 4.41221 16.2422C4.61472 15.9118 4.8943 15.6419 5.20518 15.3311L8.13682 12.3994C8.33659 12.1996 8.44794 12.0861 8.52256 12C8.44794 11.9139 8.33659 11.8004 8.13682 11.6006L5.20518 8.66895C4.8943 8.35807 4.61472 8.08818 4.41221 7.75781C4.24581 7.48626 4.12328 7.18956 4.04893 6.87988C3.95849 6.50303 3.96494 6.11453 3.96495 5.6748V3.59961C3.96494 3.33696 3.9647 3.07785 3.98252 2.85938C4.00137 2.62866 4.04545 2.3533 4.18663 2.07617L4.26573 1.93555C4.46124 1.61698 4.74138 1.35716 5.07627 1.18652L5.2833 1.09766C5.48825 1.02472 5.6865 0.996555 5.85948 0.982422C6.07795 0.9646 6.33707 0.964843 6.59971 0.964844H17.4005C17.6631 0.964843 17.9222 0.9646 18.1407 0.982422C18.3137 0.996555 18.512 1.02472 18.7169 1.09766L18.9239 1.18652L19.0646 1.26563C19.3374 1.4331 19.567 1.66266 19.7345 1.93555L19.8136 2.07617L19.9024 2.2832C19.9754 2.48814 20.0035 2.6864 20.0177 2.85938C20.0355 3.07785 20.0353 3.33696 20.0353 3.59961V5.6748Z"/></svg>