<svg xmlns="http://www.w3.org/2000/svg" width="24" height="24" fill="none" viewBox="0 0 24 24"><path fill="currentColor" d="M6.04004 3.03516C6.09088 5.35426 7.03097 7.56808 8.6748 9.21191L9.89453 10.4307C9.98972 10.5259 10.1174 10.65 10.2168 10.7832C10.7548 11.5048 10.7548 12.4952 10.2168 13.2168C10.1174 13.35 9.98973 13.4741 9.89453 13.5693L8.6748 14.7881C7.03097 16.4319 6.09088 18.6457 6.04004 20.9648H17.96C17.9091 18.6457 16.969 16.4319 15.3252 14.7881L14.1055 13.5693C14.0103 13.4742 13.8826 13.35 13.7832 13.2168C13.2452 12.4952 13.2452 11.5048 13.7832 10.7832L13.9453 10.5928C14.0017 10.5331 14.0578 10.4784 14.1055 10.4307L15.3252 9.21191C16.969 7.56808 17.9091 5.35426 17.96 3.03516H6.04004ZM20.0352 2.83789C20.035 5.77746 18.8667 8.5962 16.7881 10.6748L15.5693 11.8945C15.5199 11.944 15.4881 11.9761 15.4648 12C15.4881 12.0239 15.5199 12.056 15.5693 12.1055L16.7881 13.3252C18.8667 15.4038 20.035 18.2225 20.0352 21.1621C20.0352 22.1962 19.1962 23.0352 18.1621 23.0352H5.83789C4.80377 23.0352 3.96484 22.1962 3.96484 21.1621C3.96496 18.2225 5.13332 15.4038 7.21191 13.3252L8.43066 12.1055C8.4798 12.0563 8.51094 12.0238 8.53418 12C8.51094 11.9762 8.4798 11.9437 8.43066 11.8945L7.21191 10.6748C5.13332 8.5962 3.96496 5.77746 3.96484 2.83789C3.96484 1.80377 4.80377 0.964844 5.83789 0.964844H18.1621C19.1962 0.964844 20.0352 1.80377 20.0352 2.83789Z"/></svg>