<svg xmlns="http://www.w3.org/2000/svg" width="24" height="24" fill="none" viewBox="0 0 24 24"><path fill="currentColor" d="M16.9648 19.248C16.9648 18.3658 16.9566 18.1144 16.8975 17.8945C16.8377 17.6725 16.7397 17.4625 16.6074 17.2744C16.4764 17.0882 16.2882 16.9204 15.6104 16.3555L12 13.3467L8.38965 16.3555C7.71177 16.9204 7.52362 17.0882 7.39258 17.2744C7.26028 17.4625 7.16229 17.6725 7.10254 17.8945C7.04339 18.1144 7.03516 18.3658 7.03516 19.248V20.9648H16.9648V19.248ZM16.9648 3.03516H7.03516V4.75195C7.03516 5.63424 7.04339 5.88561 7.10254 6.10547C7.16229 6.32751 7.26028 6.53752 7.39258 6.72559C7.52362 6.91179 7.71177 7.07963 8.38965 7.64453L12 10.6523L15.6104 7.64453C16.2882 7.07963 16.4764 6.91179 16.6074 6.72559C16.7397 6.53752 16.8377 6.32751 16.8975 6.10547C16.9566 5.88561 16.9648 5.63424 16.9648 4.75195V3.03516ZM19.0352 4.75195C19.0352 5.52225 19.0434 6.09767 18.8965 6.64355C18.7737 7.0997 18.5717 7.53068 18.2998 7.91699C17.9745 8.3793 17.5273 8.74121 16.9355 9.23438L13.6152 12L16.9355 14.7656C17.5273 15.2588 17.9745 15.6207 18.2998 16.083C18.5717 16.4693 18.7737 16.9003 18.8965 17.3564C19.0434 17.9023 19.0352 18.4777 19.0352 19.248V20.9648H20C20.5716 20.9648 21.0352 21.4284 21.0352 22C21.0352 22.5716 20.5716 23.0352 20 23.0352H4C3.42839 23.0352 2.96484 22.5716 2.96484 22C2.96484 21.4284 3.42839 20.9648 4 20.9648H4.96484V19.248C4.96484 18.4777 4.95665 17.9023 5.10352 17.3564C5.22628 16.9003 5.42834 16.4693 5.7002 16.083C6.02555 15.6207 6.47265 15.2588 7.06445 14.7656L10.3838 12L7.06445 9.23438C6.47265 8.74121 6.02555 8.3793 5.7002 7.91699C5.42834 7.53068 5.22628 7.0997 5.10352 6.64355C4.95665 6.09767 4.96484 5.52225 4.96484 4.75195V3.03516H4C3.42839 3.03516 2.96484 2.57161 2.96484 2C2.96484 1.42839 3.42839 0.964844 4 0.964844H20C20.5716 0.964844 21.0352 1.42839 21.0352 2C21.0352 2.57161 20.5716 3.03516 20 3.03516H19.0352V4.75195Z"/></svg>