<svg xmlns="http://www.w3.org/2000/svg" width="24" height="24" fill="none" viewBox="0 0 24 24"><path fill="currentColor" d="M16.249 19.4961C16.8034 19.3575 17.3651 19.6947 17.5039 20.249C17.6426 20.8035 17.3054 21.3651 16.751 21.5039C15.4025 21.8415 13.7586 22.0352 12 22.0352C10.2414 22.0352 8.59754 21.8415 7.24902 21.5039C6.69459 21.3651 6.35738 20.8035 6.49609 20.249C6.63489 19.6947 7.19661 19.3575 7.75098 19.4961C8.90939 19.7861 10.382 19.9648 12 19.9648C13.618 19.9648 15.0906 19.7861 16.249 19.4961ZM17.6348 15.4619C18.1692 15.2604 18.7657 15.5302 18.9678 16.0645C19.1697 16.5992 18.9 17.1965 18.3652 17.3984C16.7485 18.009 14.4718 18.3682 12 18.3682C9.52817 18.3682 7.25146 18.009 5.63477 17.3984C5.10002 17.1965 4.83027 16.5992 5.03223 16.0645C5.23431 15.5302 5.83079 15.2604 6.36523 15.4619C7.6803 15.9586 9.6932 16.2979 12 16.2979C14.3068 16.2979 16.3197 15.9586 17.6348 15.4619ZM18.9521 10.7891C19.4371 10.4869 20.0755 10.6354 20.3779 11.1201C20.6801 11.6051 20.5326 12.2435 20.0479 12.5459C18.3708 13.591 15.3144 14.2021 12 14.2021C8.68559 14.2021 5.62924 13.591 3.95215 12.5459C3.46742 12.2435 3.31987 11.6051 3.62207 11.1201C3.9245 10.6354 4.56288 10.4869 5.04785 10.7891C6.23369 11.5279 8.82079 12.1318 12 12.1318C15.1792 12.1318 17.7663 11.5279 18.9521 10.7891ZM12 1.96484C14.5656 1.96484 16.9314 2.3098 18.6914 2.89648C19.566 3.18802 20.3485 3.55846 20.9336 4.01953C21.5069 4.47141 22.0352 5.13284 22.0352 6C22.0352 6.86716 21.5069 7.52859 20.9336 7.98047C20.3485 8.44154 19.566 8.81198 18.6914 9.10352C16.9314 9.6902 14.5656 10.0352 12 10.0352C9.43443 10.0352 7.06864 9.6902 5.30859 9.10352C4.434 8.81198 3.65145 8.44154 3.06641 7.98047C2.52892 7.55683 2.0308 6.94902 1.9707 6.16016L1.96484 6L1.9707 5.83984C2.0308 5.05098 2.52892 4.44317 3.06641 4.01953C3.65145 3.55846 4.434 3.18802 5.30859 2.89648C7.06864 2.3098 9.43443 1.96484 12 1.96484ZM12 4.03516C9.59501 4.03516 7.46021 4.36125 5.96289 4.86035C5.209 5.11168 4.6734 5.38879 4.34766 5.64551C4.01053 5.91129 4.03516 6.03883 4.03516 6C4.03516 5.96117 4.01053 6.08871 4.34766 6.35449C4.6734 6.61121 5.209 6.88832 5.96289 7.13965C7.46021 7.63875 9.59501 7.96484 12 7.96484C14.405 7.96484 16.5398 7.63875 18.0371 7.13965C18.791 6.88832 19.3266 6.61121 19.6523 6.35449C19.9047 6.15558 19.9548 6.03424 19.9639 6.00195V5.99805C19.9548 5.96576 19.9047 5.84442 19.6523 5.64551C19.3266 5.38879 18.791 5.11168 18.0371 4.86035C16.5398 4.36125 14.405 4.03516 12 4.03516Z"/></svg>