<svg xmlns="http://www.w3.org/2000/svg" width="24" height="24" fill="none" viewBox="0 0 24 24"><path fill="currentColor" d="M17 18.9648C17.5716 18.9648 18.0352 19.4284 18.0352 20C18.0352 20.5716 17.5716 21.0352 17 21.0352H12C11.4284 21.0352 10.9648 20.5716 10.9648 20C10.9648 19.4284 11.4284 18.9648 12 18.9648H17ZM15 14.9648C15.5716 14.9648 16.0352 15.4284 16.0352 16C16.0352 16.5716 15.5716 17.0352 15 17.0352H8C7.42839 17.0352 6.96484 16.5716 6.96484 16C6.96484 15.4284 7.42839 14.9648 8 14.9648H15ZM18 10.9648C18.5716 10.9648 19.0352 11.4284 19.0352 12C19.0352 12.5716 18.5716 13.0352 18 13.0352H9C8.42839 13.0352 7.96484 12.5716 7.96484 12C7.96484 11.4284 8.42839 10.9648 9 10.9648H18ZM20 6.96484C20.5716 6.96484 21.0352 7.42839 21.0352 8C21.0352 8.57161 20.5716 9.03516 20 9.03516H6C5.42839 9.03516 4.96484 8.57161 4.96484 8C4.96484 7.42839 5.42839 6.96484 6 6.96484H20ZM21 2.96484C21.5716 2.96484 22.0352 3.42839 22.0352 4C22.0352 4.57161 21.5716 5.03516 21 5.03516H3C2.42839 5.03516 1.96484 4.57161 1.96484 4C1.96484 3.42839 2.42839 2.96484 3 2.96484H21Z"/></svg>