<svg xmlns="http://www.w3.org/2000/svg" width="24" height="24" fill="none" viewBox="0 0 24 24"><path fill="currentColor" d="M16.9648 12C16.9648 9.25791 14.7421 7.03516 12 7.03516C9.25791 7.03516 7.03516 9.25791 7.03516 12L7.04102 12.2559C7.17416 14.8791 9.34371 16.9648 12 16.9648C14.7421 16.9648 16.9648 14.7421 16.9648 12ZM20.9648 12C20.9648 8.15334 17.8467 5.03516 14 5.03516C13.7442 5.03516 13.4918 5.04931 13.2432 5.07617C16.5354 5.66333 19.0352 8.53898 19.0352 12C19.0352 16.9899 14.9899 21.0352 10 21.0352C5.01011 21.0352 0.964844 16.9899 0.964844 12C0.964844 11.4284 1.42839 10.9648 2 10.9648C2.57161 10.9648 3.03516 11.4284 3.03516 12C3.03516 15.8467 6.15334 18.9648 10 18.9648C10.2555 18.9648 10.5075 18.9497 10.7559 18.9229C7.46417 18.3352 4.96484 15.4606 4.96484 12C4.96484 7.01011 9.01011 2.96484 14 2.96484C18.9899 2.96484 23.0352 7.01011 23.0352 12C23.0352 12.5716 22.5716 13.0352 22 13.0352C21.4284 13.0352 20.9648 12.5716 20.9648 12ZM12 11.9648C11.9807 11.9648 11.9648 11.9807 11.9648 12C11.9648 12.0193 11.9807 12.0352 12 12.0352C12.0097 12.0352 12.0181 12.0307 12.0244 12.0244L12.0352 12L12.0244 11.9756C12.0181 11.9693 12.0097 11.9648 12 11.9648ZM14.0352 12C14.0352 13.1239 13.1239 14.0352 12 14.0352C10.8761 14.0352 9.96484 13.1239 9.96484 12C9.96484 10.8761 10.8761 9.96484 12 9.96484C13.1239 9.96484 14.0352 10.8761 14.0352 12Z"/></svg>