<svg xmlns="http://www.w3.org/2000/svg" width="24" height="24" fill="none" viewBox="0 0 24 24"><g clip-path="url(#a)"><path fill="currentColor" d="M15.3711 9.47852C15.7289 9.36228 16.1108 9.34828 16.4746 9.43555L16.6289 9.47852L16.8379 9.5625C17.0345 9.65585 17.1948 9.77533 17.3271 9.8877C17.4944 10.0297 17.6774 10.2135 17.8633 10.3994L20.8555 13.3926C20.9263 12.9387 20.9648 12.4738 20.9648 12C20.9648 7.04877 16.9512 3.03516 12 3.03516C7.04877 3.03516 3.03516 7.04877 3.03516 12C3.03516 14.6118 4.15241 16.9621 5.93457 18.6006L14.1367 10.3994C14.3226 10.2135 14.5056 10.0297 14.6729 9.8877C14.8494 9.73786 15.0752 9.57465 15.3711 9.47852ZM16 11.4766C15.9138 11.5512 15.8007 11.6631 15.6006 11.8633L7.63379 19.8291C8.92607 20.5513 10.4144 20.9648 12 20.9648C15.6508 20.9648 18.7893 18.7816 20.1875 15.6504L16.3994 11.8633C16.1993 11.6631 16.0862 11.5512 16 11.4766ZM9.46484 8.5C9.46484 7.96705 9.03295 7.53516 8.5 7.53516C7.96705 7.53516 7.53516 7.96705 7.53516 8.5C7.53516 9.03295 7.96705 9.46484 8.5 9.46484C9.03296 9.46484 9.46484 9.03296 9.46484 8.5ZM23.0352 12C23.0352 18.0945 18.0945 23.0352 12 23.0352C9.50888 23.0352 7.21119 22.2087 5.36426 20.8164C5.35606 20.81 5.34789 20.8036 5.33984 20.7969C2.6825 18.7819 0.964844 15.5921 0.964844 12C0.964844 5.90554 5.90554 0.964844 12 0.964844C18.0945 0.964844 23.0352 5.90554 23.0352 12ZM11.5352 8.5C11.5352 10.1762 10.1762 11.5352 8.5 11.5352C6.82382 11.5352 5.46484 10.1762 5.46484 8.5C5.46484 6.82382 6.82382 5.46484 8.5 5.46484C10.1762 5.46484 11.5352 6.82382 11.5352 8.5Z"/></g><defs><clipPath id="a"><path fill="#fff" d="M0 0H24V24H0z"/></clipPath></defs></svg>