<svg xmlns="http://www.w3.org/2000/svg" width="24" height="24" fill="none" viewBox="0 0 24 24"><path fill="currentColor" d="M21 18.9648C21.5716 18.9648 22.0352 19.4284 22.0352 20C22.0352 20.5716 21.5716 21.0352 21 21.0352H3C2.42839 21.0352 1.96484 20.5716 1.96484 20C1.96484 19.4284 2.42839 18.9648 3 18.9648H21ZM19.9648 9.59961C19.9648 9.31662 19.9633 9.15762 19.9551 9.04395C19.8415 9.03582 19.6825 9.03516 19.4004 9.03516H14.5996C14.3167 9.03516 14.1576 9.03576 14.0439 9.04395C14.0358 9.15762 14.0352 9.31668 14.0352 9.59961V14.4004C14.0352 14.6825 14.0358 14.8415 14.0439 14.9551C14.1576 14.9633 14.3166 14.9648 14.5996 14.9648H19.4004C19.6826 14.9648 19.8415 14.9632 19.9551 14.9551C19.9632 14.8415 19.9648 14.6826 19.9648 14.4004V9.59961ZM9 13.7148C9.57161 13.7148 10.0352 14.1784 10.0352 14.75C10.0352 15.3216 9.57161 15.7852 9 15.7852H3C2.42839 15.7852 1.96484 15.3216 1.96484 14.75C1.96484 14.1784 2.42839 13.7148 3 13.7148H9ZM9 8.21484C9.57161 8.21484 10.0352 8.67839 10.0352 9.25C10.0352 9.82161 9.57161 10.2852 9 10.2852H3C2.42839 10.2852 1.96484 9.82161 1.96484 9.25C1.96484 8.67839 2.42839 8.21484 3 8.21484H9ZM21 2.96484C21.5716 2.96484 22.0352 3.42839 22.0352 4C22.0352 4.57161 21.5716 5.03516 21 5.03516H3C2.42839 5.03516 1.96484 4.57161 1.96484 4C1.96484 3.42839 2.42839 2.96484 3 2.96484H21ZM22.0352 14.4004C22.0352 14.663 22.0354 14.9221 22.0176 15.1406C21.9987 15.3713 21.9546 15.6467 21.8135 15.9238C21.6184 16.3067 21.3067 16.6184 20.9238 16.8135C20.6467 16.9546 20.3713 16.9987 20.1406 17.0176C19.9221 17.0354 19.663 17.0352 19.4004 17.0352H14.5996C14.337 17.0352 14.0779 17.0354 13.8594 17.0176C13.6287 16.9987 13.3533 16.9546 13.0762 16.8135C12.6933 16.6184 12.3816 16.3067 12.1865 15.9238C12.0454 15.6467 12.0013 15.3713 11.9824 15.1406C11.9646 14.9221 11.9648 14.663 11.9648 14.4004V9.59961C11.9648 9.33696 11.9646 9.07785 11.9824 8.85938C12.0013 8.62866 12.0454 8.3533 12.1865 8.07617L12.2656 7.93555C12.4611 7.61698 12.7413 7.35716 13.0762 7.18652L13.2832 7.09766C13.4881 7.02471 13.6864 6.99655 13.8594 6.98242C14.0779 6.9646 14.337 6.96484 14.5996 6.96484H19.4004C19.663 6.96484 19.9221 6.9646 20.1406 6.98242C20.3713 7.00127 20.6467 7.04535 20.9238 7.18652C21.2587 7.35716 21.5389 7.61698 21.7344 7.93555L21.8135 8.07617L21.9023 8.2832C21.9753 8.48814 22.0034 8.6864 22.0176 8.85938C22.0354 9.07785 22.0352 9.33696 22.0352 9.59961V14.4004Z"/></svg>