<svg xmlns="http://www.w3.org/2000/svg" width="24" height="24" fill="none" viewBox="0 0 24 24"><path fill="currentColor" d="M21 18.9648C21.5716 18.9648 22.0352 19.4284 22.0352 20C22.0352 20.5716 21.5716 21.0352 21 21.0352H3C2.42839 21.0352 1.96484 20.5716 1.96484 20C1.96484 19.4284 2.42839 18.9648 3 18.9648H21ZM9.96484 9.59961C9.96484 9.31662 9.96327 9.15762 9.95508 9.04395C9.84147 9.03582 9.68252 9.03516 9.40039 9.03516H4.59961C4.31668 9.03516 4.15762 9.03576 4.04395 9.04395C4.03576 9.15762 4.03516 9.31668 4.03516 9.59961V14.4004C4.03516 14.6825 4.03582 14.8415 4.04395 14.9551C4.15762 14.9633 4.31662 14.9648 4.59961 14.9648H9.40039C9.68258 14.9648 9.84147 14.9632 9.95508 14.9551C9.96321 14.8415 9.96484 14.6826 9.96484 14.4004V9.59961ZM21 13.7148C21.5716 13.7148 22.0352 14.1784 22.0352 14.75C22.0352 15.3216 21.5716 15.7852 21 15.7852H15C14.4284 15.7852 13.9648 15.3216 13.9648 14.75C13.9648 14.1784 14.4284 13.7148 15 13.7148H21ZM21 8.21484C21.5716 8.21484 22.0352 8.67839 22.0352 9.25C22.0352 9.82161 21.5716 10.2852 21 10.2852H15C14.4284 10.2852 13.9648 9.82161 13.9648 9.25C13.9648 8.67839 14.4284 8.21484 15 8.21484H21ZM21 2.96484C21.5716 2.96484 22.0352 3.42839 22.0352 4C22.0352 4.57161 21.5716 5.03516 21 5.03516H3C2.42839 5.03516 1.96484 4.57161 1.96484 4C1.96484 3.42839 2.42839 2.96484 3 2.96484H21ZM12.0352 14.4004C12.0352 14.663 12.0354 14.9221 12.0176 15.1406C11.9987 15.3713 11.9546 15.6467 11.8135 15.9238C11.6184 16.3067 11.3067 16.6184 10.9238 16.8135C10.6467 16.9546 10.3713 16.9987 10.1406 17.0176C9.92215 17.0354 9.66304 17.0352 9.40039 17.0352H4.59961C4.33696 17.0352 4.07785 17.0354 3.85938 17.0176C3.62866 16.9987 3.3533 16.9546 3.07617 16.8135C2.69326 16.6184 2.38163 16.3067 2.18652 15.9238C2.04535 15.6467 2.00127 15.3713 1.98242 15.1406C1.9646 14.9221 1.96484 14.663 1.96484 14.4004V9.59961C1.96484 9.33696 1.9646 9.07785 1.98242 8.85938C2.00127 8.62866 2.04535 8.3533 2.18652 8.07617L2.26563 7.93555C2.46114 7.61698 2.74128 7.35716 3.07617 7.18652L3.2832 7.09766C3.48814 7.02471 3.6864 6.99655 3.85938 6.98242C4.07785 6.9646 4.33696 6.96484 4.59961 6.96484H9.40039C9.66304 6.96484 9.92215 6.9646 10.1406 6.98242C10.3713 7.00127 10.6467 7.04535 10.9238 7.18652C11.2587 7.35716 11.5389 7.61698 11.7344 7.93555L11.8135 8.07617L11.9023 8.2832C11.9753 8.48814 12.0034 8.6864 12.0176 8.85938C12.0354 9.07785 12.0352 9.33696 12.0352 9.59961V14.4004Z"/></svg>