<svg xmlns="http://www.w3.org/2000/svg" width="24" height="24" fill="none" viewBox="0 0 24 24"><path fill="currentColor" d="M15.5518 10.339C15.8315 10.2696 16.1227 10.26 16.4062 10.3116L16.5469 10.3429L16.7373 10.4034C16.9174 10.4722 17.0689 10.5629 17.1973 10.6505C17.3578 10.7601 17.5349 10.9034 17.7119 11.045L20.5098 13.2823C20.8495 13.5541 21.1534 13.7885 21.3877 14.087C21.6604 14.4345 21.8541 14.8377 21.9551 15.2677C22.0418 15.6372 22.0352 16.0211 22.0352 16.4562C22.0352 16.6327 22.0327 16.8016 22.0322 16.963C22.0327 16.9753 22.0352 16.9877 22.0352 17.0001C22.0352 17.8633 22.0437 18.4978 21.8975 19.0441C21.866 19.1616 21.8276 19.2768 21.7861 19.3898C21.7726 19.4286 21.7564 19.4665 21.7412 19.505C21.7342 19.5224 21.7289 19.5405 21.7217 19.5577C21.7176 19.5674 21.7141 19.5773 21.71 19.587C21.6857 19.6438 21.6595 19.6997 21.6328 19.755C21.6203 19.781 21.6068 19.8065 21.5938 19.8321C21.5662 19.8862 21.5377 19.9397 21.5078 19.9923C21.4966 20.012 21.4851 20.0314 21.4736 20.0509C21.44 20.1079 21.4045 20.1637 21.3682 20.2189C21.3617 20.2287 21.3562 20.2393 21.3496 20.2491C21.3081 20.311 21.2645 20.3714 21.2197 20.4308C21.1995 20.4576 21.1781 20.4836 21.1572 20.5099C21.1274 20.5474 21.0975 20.5848 21.0664 20.6212C21.0495 20.641 21.032 20.6603 21.0146 20.6798C20.9096 20.798 20.7978 20.9097 20.6797 21.0148C20.665 21.0278 20.6506 21.041 20.6357 21.0538C20.5946 21.0893 20.5523 21.1235 20.5098 21.1573C20.4842 21.1777 20.4587 21.1982 20.4326 21.2179C20.3752 21.2613 20.3167 21.3035 20.2568 21.3439C20.2443 21.3523 20.2313 21.36 20.2188 21.3683C20.1636 21.4046 20.1078 21.4401 20.0508 21.4737C20.0323 21.4846 20.0138 21.4954 19.9951 21.506C19.9448 21.5346 19.8935 21.5615 19.8418 21.588C19.8177 21.6004 19.7939 21.6132 19.7695 21.6251C19.7094 21.6545 19.6488 21.6836 19.5869 21.7101C19.5796 21.7132 19.5717 21.7148 19.5645 21.7179C19.5448 21.7262 19.5247 21.7334 19.5049 21.7413C19.4684 21.7557 19.4323 21.7704 19.3955 21.7833C19.2806 21.8257 19.1637 21.8655 19.0439 21.8976C18.4977 22.0439 17.8632 22.0353 17 22.0353H7.06934C6.81982 22.0353 6.57439 22.032 6.36426 22.0206C6.14231 22.0141 5.93597 22.0059 5.74512 21.9903C5.18095 21.9442 4.65899 21.845 4.16797 21.5948C3.409 21.208 2.79208 20.5911 2.40527 19.8321C2.15508 19.3411 2.05588 18.8192 2.00977 18.255C1.96465 17.7029 1.96484 17.0232 1.96484 16.2003V7.79991C1.96484 6.977 1.96465 6.29736 2.00977 5.74523C2.05588 5.18106 2.15509 4.6591 2.40527 4.16808C2.79208 3.40911 3.409 2.79219 4.16797 2.40538C4.65899 2.1552 5.18095 2.05599 5.74512 2.00988C6.29725 1.96476 6.97689 1.96495 7.7998 1.96495H12.5C13.0716 1.96495 13.5352 2.4285 13.5352 3.00011C13.5352 3.57173 13.0716 4.03527 12.5 4.03527H7.7998C6.94287 4.03527 6.36234 4.03576 5.91406 4.07238C5.47781 4.10802 5.25807 4.17238 5.10742 4.24913C4.73794 4.43748 4.43737 4.73805 4.24902 5.10753C4.17227 5.25818 4.10791 5.47792 4.07227 5.91417C4.03565 6.36245 4.03516 6.94298 4.03516 7.79991V16.2003C4.03516 17.0572 4.03565 17.6378 4.07227 18.086C4.10791 18.5223 4.17227 18.742 4.24902 18.8927C4.42018 19.2285 4.6848 19.506 5.00879 19.6954C5.09137 19.5715 5.17672 19.4775 5.2334 19.4161C5.39302 19.2434 5.61209 19.0445 5.83496 18.8419L14.2939 11.1525C14.4617 11 14.6299 10.8462 14.7832 10.7267C14.9468 10.5992 15.1513 10.4631 15.4131 10.378L15.5518 10.339ZM16.043 12.3693C15.9674 12.4294 15.8672 12.5195 15.6865 12.6837L7.67773 19.964C7.71779 19.964 7.75848 19.965 7.7998 19.965H16.4561C17.1902 19.965 17.6875 19.9647 18.0732 19.9376C18.449 19.9112 18.6406 19.8631 18.7725 19.8068C18.8219 19.7856 18.8697 19.7614 18.917 19.7364C18.9331 19.7279 18.949 19.719 18.9648 19.7101C19.0094 19.6849 19.0535 19.6594 19.0957 19.631C19.1064 19.6238 19.1165 19.6159 19.127 19.6085C19.1639 19.5826 19.1993 19.5548 19.2344 19.5265C19.2445 19.5183 19.2547 19.5104 19.2646 19.5021C19.3504 19.4298 19.4297 19.3505 19.502 19.2648C19.5103 19.2548 19.5182 19.2446 19.5264 19.2345C19.5947 19.1501 19.6562 19.0602 19.71 18.965C19.7189 18.9491 19.7278 18.9332 19.7363 18.9171C19.7613 18.8699 19.7855 18.822 19.8066 18.7726C19.863 18.6407 19.9111 18.4491 19.9375 18.0734C19.9646 17.6876 19.9648 17.1903 19.9648 16.4562C19.9648 15.9228 19.9586 15.8218 19.9395 15.7403C19.9073 15.6038 19.8454 15.4757 19.7588 15.3653C19.7072 15.2996 19.6326 15.2312 19.2168 14.8985L16.4189 12.6612C16.2279 12.5084 16.1222 12.4245 16.043 12.3693ZM9.46484 8.50011C9.46484 7.96716 9.03295 7.53527 8.5 7.53527C7.96705 7.53527 7.53516 7.96716 7.53516 8.50011C7.53516 9.03306 7.96705 9.46495 8.5 9.46495C9.03296 9.46495 9.46484 9.03307 9.46484 8.50011ZM17.9648 8.00011V4.49816L16.7314 5.73156C16.3273 6.13575 15.6727 6.13575 15.2686 5.73156C14.8644 5.32736 14.8644 4.67286 15.2686 4.26867L18.2686 1.26866L18.3467 1.19738C18.7532 0.865704 19.3525 0.889695 19.7314 1.26866L22.7314 4.26867C23.1356 4.67286 23.1356 5.32736 22.7314 5.73156C22.3273 6.13575 21.6727 6.13575 21.2686 5.73156L20.0352 4.49816V8.00011C20.0352 8.57172 19.5716 9.03527 19 9.03527C18.4284 9.03527 17.9648 8.57172 17.9648 8.00011ZM11.5352 8.50011C11.5352 10.1763 10.1762 11.5353 8.5 11.5353C6.82382 11.5353 5.46484 10.1763 5.46484 8.50011C5.46484 6.82393 6.82382 5.46495 8.5 5.46495C10.1762 5.46495 11.5352 6.82393 11.5352 8.50011Z"/></svg>