<svg xmlns="http://www.w3.org/2000/svg" width="24" height="24" fill="none" viewBox="0 0 24 24"><path fill="currentColor" d="M9.42074 7.80566C9.79884 7.69341 10.2019 7.69328 10.5799 7.80566L10.7664 7.87207L10.9002 7.93359C11.2005 8.08772 11.4166 8.31164 11.578 8.50488C11.76 8.7229 11.9571 9.00857 12.1668 9.31152L14.908 13.2715C15.0817 13.0116 15.2458 12.7714 15.3993 12.5811C15.5835 12.3527 15.8416 12.08 16.2205 11.9229L16.41 11.8555C16.8585 11.7196 17.3424 11.7419 17.7791 11.9229C18.1583 12.0801 18.4172 12.3527 18.6014 12.5811C18.7843 12.8078 18.9807 13.1056 19.1922 13.4229L22.203 17.9385C22.4609 18.3253 22.6952 18.6752 22.8553 18.9707C23.0104 19.2569 23.1907 19.6549 23.1629 20.1211C23.1275 20.7151 22.8338 21.2641 22.3592 21.623C21.9867 21.9048 21.5555 21.9761 21.2313 22.0059C20.8966 22.0365 20.4755 22.0352 20.0106 22.0352H4.05356C3.57979 22.0352 3.15257 22.0359 2.81332 22.0049C2.48605 21.9749 2.04826 21.9034 1.6727 21.6162C1.19618 21.2518 0.904322 20.6959 0.875823 20.0967C0.853439 19.6244 1.04422 19.2237 1.2059 18.9375C1.37351 18.6408 1.61775 18.2901 1.88754 17.9004L7.83383 9.31152C8.04353 9.00863 8.23969 8.72288 8.42172 8.50488C8.60611 8.28409 8.86215 8.02306 9.23324 7.87207L9.42074 7.80566ZM9.99985 9.84473C9.89372 9.97384 9.75943 10.1651 9.535 10.4893L3.58871 19.0781C3.30151 19.493 3.12489 19.7502 3.01449 19.9434C3.23619 19.9626 3.54824 19.9648 4.05356 19.9648H17.0252L10.4647 10.4893C10.2402 10.165 10.106 9.97384 9.99985 9.84473ZM16.9998 13.8945C16.8918 14.0306 16.7562 14.2321 16.5301 14.5713L16.1756 15.1016L19.5428 19.9648H20.0106C20.5053 19.9648 20.8103 19.963 21.0272 19.9443C20.9225 19.7535 20.7548 19.4987 20.4803 19.0869L17.4705 14.5713C17.2444 14.232 17.1079 14.0306 16.9998 13.8945ZM19.9647 6C19.9647 4.91476 19.0851 4.03516 17.9998 4.03516C16.9147 4.03523 16.035 4.91481 16.035 6C16.035 7.08519 16.9147 7.96477 17.9998 7.96484C19.0851 7.96484 19.9647 7.08524 19.9647 6ZM22.035 6C22.035 8.22847 20.2283 10.0352 17.9998 10.0352C15.7714 10.0351 13.9647 8.22842 13.9647 6C13.9647 3.77158 15.7714 1.96492 17.9998 1.96484C20.2283 1.96484 22.035 3.77153 22.035 6Z"/></svg>