<svg xmlns="http://www.w3.org/2000/svg" width="24" height="24" fill="none" viewBox="0 0 24 24"><path fill="currentColor" d="M20.9648 15.4277L18.3994 12.8633C18.1993 12.6631 18.0862 12.5512 18 12.4766C17.9138 12.5512 17.8007 12.6631 17.6006 12.8633L15.4629 14.999L20.0938 19.6299C20.3707 19.4441 20.5984 19.192 20.751 18.8926C20.8277 18.7419 20.8921 18.5222 20.9277 18.0859C20.9643 17.6377 20.9648 17.0571 20.9648 16.2002V15.4277ZM12 14.4766C11.9138 14.5512 11.8007 14.6631 11.6006 14.8633L6.5 19.9629C6.59604 19.963 6.69589 19.9648 6.7998 19.9648H17.2002C17.3038 19.9648 17.4033 19.963 17.499 19.9629L12.3994 14.8633C12.1993 14.6631 12.0862 14.5512 12 14.4766ZM8.96484 9C8.96484 8.46705 8.53295 8.03516 8 8.03516C7.46705 8.03516 7.03516 8.46705 7.03516 9C7.03516 9.53295 7.46705 9.96484 8 9.96484C8.53296 9.96484 8.96484 9.53296 8.96484 9ZM20.9648 7.7998C20.9648 6.94287 20.9643 6.36234 20.9277 5.91406C20.8921 5.47781 20.8277 5.25807 20.751 5.10742C20.5626 4.73794 20.2621 4.43737 19.8926 4.24902C19.7419 4.17227 19.5222 4.10791 19.0859 4.07227C18.6377 4.03565 18.0571 4.03516 17.2002 4.03516H6.7998C5.94287 4.03516 5.36234 4.03565 4.91406 4.07227C4.47781 4.10791 4.25807 4.17227 4.10742 4.24902C3.73794 4.43737 3.43737 4.73794 3.24902 5.10742C3.17227 5.25807 3.10791 5.47781 3.07227 5.91406C3.03565 6.36234 3.03516 6.94287 3.03516 7.7998V16.2002C3.03516 17.0571 3.03565 17.6377 3.07227 18.0859C3.10791 18.5222 3.17227 18.7419 3.24902 18.8926C3.40152 19.1917 3.62868 19.4441 3.90527 19.6299L10.1367 13.3994C10.3226 13.2135 10.5056 13.0297 10.6729 12.8877C10.8494 12.7379 11.0752 12.5746 11.3711 12.4785C11.7289 12.3623 12.1108 12.3483 12.4746 12.4355L12.6289 12.4785L12.8379 12.5625C13.0345 12.6559 13.1948 12.7753 13.3271 12.8877C13.4944 13.0297 13.6774 13.2135 13.8633 13.3994L14 13.5361L16.1367 11.3994C16.3226 11.2135 16.5056 11.0297 16.6729 10.8877C16.8494 10.7379 17.0752 10.5746 17.3711 10.4785C17.7289 10.3623 18.1108 10.3483 18.4746 10.4355L18.6289 10.4785L18.8379 10.5625C19.0345 10.6559 19.1948 10.7753 19.3271 10.8877C19.4944 11.0297 19.6774 11.2135 19.8633 11.3994L20.9648 12.501V7.7998ZM11.0352 9C11.0352 10.6762 9.67618 12.0352 8 12.0352C6.32382 12.0352 4.96484 10.6762 4.96484 9C4.96484 7.32382 6.32382 5.96484 8 5.96484C9.67618 5.96484 11.0352 7.32382 11.0352 9ZM23.0352 16.2002C23.0352 17.0231 23.0353 17.7027 22.9902 18.2549C22.9441 18.8191 22.8449 19.341 22.5947 19.832C22.2079 20.591 21.591 21.2079 20.832 21.5947C20.341 21.8449 19.8191 21.9441 19.2549 21.9902C18.7027 22.0353 18.0231 22.0352 17.2002 22.0352H6.7998C5.97689 22.0352 5.29725 22.0353 4.74512 21.9902C4.18095 21.9441 3.65899 21.8449 3.16797 21.5947C2.409 21.2079 1.79208 20.591 1.40527 19.832C1.15509 19.341 1.05588 18.8191 1.00977 18.2549C0.964654 17.7027 0.964844 17.0231 0.964844 16.2002V7.7998C0.964844 6.97689 0.964654 6.29725 1.00977 5.74512C1.05588 5.18095 1.15509 4.65899 1.40527 4.16797C1.79208 3.409 2.409 2.79208 3.16797 2.40527C3.65899 2.15509 4.18095 2.05588 4.74512 2.00977C5.29725 1.96465 5.97689 1.96484 6.7998 1.96484H17.2002C18.0231 1.96484 18.7027 1.96465 19.2549 2.00977C19.8191 2.05588 20.341 2.15509 20.832 2.40527C21.591 2.79208 22.2079 3.409 22.5947 4.16797C22.8449 4.65899 22.9441 5.18095 22.9902 5.74512C23.0353 6.29725 23.0352 6.97689 23.0352 7.7998V16.2002Z"/></svg>