<svg xmlns="http://www.w3.org/2000/svg" width="24" height="24" fill="none" viewBox="0 0 24 24"><g clip-path="url(#a)"><path fill="currentColor" d="M15 15.9648C15.8797 15.9648 16.4708 15.9598 16.9824 16.0615C18.8484 16.4327 20.3325 17.8204 20.8438 19.6299C20.8777 19.497 20.9083 19.324 20.9277 19.0859C20.9643 18.6377 20.9648 18.0571 20.9648 17.2002V6.7998C20.9648 5.94287 20.9643 5.36234 20.9277 4.91406C20.8921 4.47781 20.8277 4.25807 20.751 4.10742C20.5626 3.73794 20.2621 3.43737 19.8926 3.24902C19.7419 3.17227 19.5222 3.10791 19.0859 3.07227C18.6377 3.03565 18.0571 3.03516 17.2002 3.03516H6.7998C5.94287 3.03516 5.36234 3.03565 4.91406 3.07227C4.47781 3.10791 4.25807 3.17227 4.10742 3.24902C3.73794 3.43737 3.43737 3.73794 3.24902 4.10742C3.17227 4.25807 3.10791 4.47781 3.07227 4.91406C3.03565 5.36234 3.03516 5.94287 3.03516 6.7998V17.2002C3.03516 18.0571 3.03565 18.6377 3.07227 19.0859C3.09171 19.3239 3.1214 19.497 3.15527 19.6299C3.66646 17.8203 5.15155 16.4327 7.01758 16.0615C7.52916 15.9598 8.1203 15.9648 9 15.9648H15ZM9 18.0352C8.0215 18.0352 7.68304 18.0399 7.42188 18.0918C6.24569 18.3258 5.32576 19.2457 5.0918 20.4219C5.06656 20.5489 5.05194 20.6969 5.04395 20.9355C5.44547 20.9598 5.99518 20.9648 6.7998 20.9648H17.2002C18.0042 20.9648 18.5536 20.9598 18.9551 20.9355C18.9471 20.6969 18.9334 20.5489 18.9082 20.4219C18.6742 19.2457 17.7543 18.3258 16.5781 18.0918C16.317 18.0399 15.9785 18.0352 15 18.0352H9ZM14.9648 9.5C14.9648 7.86248 13.6375 6.53516 12 6.53516C10.3625 6.53516 9.03516 7.86248 9.03516 9.5C9.03516 11.1375 10.3625 12.4648 12 12.4648C13.6375 12.4648 14.9648 11.1375 14.9648 9.5ZM17.0352 9.5C17.0352 12.2808 14.7808 14.5352 12 14.5352C9.21925 14.5352 6.96484 12.2808 6.96484 9.5C6.96484 6.71925 9.21925 4.46484 12 4.46484C14.7808 4.46484 17.0352 6.71925 17.0352 9.5ZM23.0352 17.2002C23.0352 18.0231 23.0353 18.7027 22.9902 19.2549C22.9441 19.8191 22.8449 20.341 22.5947 20.832C22.2079 21.591 21.591 22.2079 20.832 22.5947C20.6602 22.6823 20.483 22.7521 20.2998 22.8076C19.5132 23.0459 18.5067 23.0352 17.2002 23.0352H6.7998C5.49329 23.0352 4.48679 23.0459 3.7002 22.8076C3.51702 22.7521 3.33979 22.6823 3.16797 22.5947C2.409 22.2079 1.79208 21.591 1.40527 20.832C1.15509 20.341 1.05588 19.8191 1.00977 19.2549C0.964654 18.7027 0.964844 18.0231 0.964844 17.2002V6.7998C0.964844 5.97689 0.964654 5.29725 1.00977 4.74512C1.05588 4.18095 1.15509 3.65899 1.40527 3.16797C1.79208 2.409 2.409 1.79208 3.16797 1.40527C3.65899 1.15509 4.18095 1.05588 4.74512 1.00977C5.29725 0.964654 5.97689 0.964844 6.7998 0.964844H17.2002C18.0231 0.964844 18.7027 0.964654 19.2549 1.00977C19.8191 1.05588 20.341 1.15509 20.832 1.40527C21.591 1.79208 22.2079 2.409 22.5947 3.16797C22.8449 3.65899 22.9441 4.18095 22.9902 4.74512C23.0353 5.29725 23.0352 5.97689 23.0352 6.7998V17.2002Z"/></g><defs><clipPath id="a"><path fill="#fff" d="M0 0H24V24H0z"/></clipPath></defs></svg>