<svg xmlns="http://www.w3.org/2000/svg" width="24" height="24" fill="none" viewBox="0 0 24 24"><g clip-path="url(#a)"><path fill="currentColor" d="M0.964844 6.7998C0.964844 5.97689 0.964654 5.29725 1.00977 4.74512C1.05588 4.18095 1.15509 3.65899 1.40527 3.16797C1.79208 2.409 2.409 1.79208 3.16797 1.40527C3.65899 1.15509 4.18095 1.05588 4.74512 1.00977C5.29725 0.964654 5.97689 0.964844 6.7998 0.964844H12C12.5716 0.964844 13.0352 1.42839 13.0352 2C13.0352 2.57161 12.5716 3.03516 12 3.03516H6.7998C5.94287 3.03516 5.36234 3.03565 4.91406 3.07227C4.47781 3.10791 4.25807 3.17227 4.10742 3.24902C3.73794 3.43737 3.43737 3.73794 3.24902 4.10742C3.17227 4.25807 3.10791 4.47781 3.07227 4.91406C3.03565 5.36234 3.03516 5.94287 3.03516 6.7998V16.9307C3.86659 16.3238 4.89109 15.9648 6 15.9648H13C13.8796 15.9648 14.4709 15.9598 14.9824 16.0615C16.9796 16.4589 18.5412 18.0204 18.9385 20.0176C18.9925 20.2891 19.0148 20.5831 19.0254 20.9307C19.0458 20.9292 19.0661 20.9294 19.0859 20.9277C19.5222 20.8921 19.7419 20.8277 19.8926 20.751C20.2621 20.5626 20.5626 20.2621 20.751 19.8926C20.8277 19.7419 20.8921 19.5222 20.9277 19.0859C20.9643 18.6377 20.9648 18.0571 20.9648 17.2002V12C20.9648 11.4284 21.4284 10.9648 22 10.9648C22.5716 10.9648 23.0352 11.4284 23.0352 12V17.2002C23.0352 18.0231 23.0353 18.7027 22.9902 19.2549C22.9441 19.8191 22.8449 20.341 22.5947 20.832C22.2079 21.591 21.591 22.2079 20.832 22.5947C20.341 22.8449 19.8191 22.9441 19.2549 22.9902C18.9138 23.0181 18.524 23.0264 18.082 23.0303C18.0549 23.0324 18.0276 23.0352 18 23.0352C17.9767 23.0352 17.9535 23.0328 17.9307 23.0312C17.7009 23.0325 17.4576 23.0352 17.2002 23.0352H6.7998C5.97689 23.0352 5.29725 23.0353 4.74512 22.9902C4.18095 22.9441 3.65899 22.8449 3.16797 22.5947C2.409 22.2079 1.79208 21.591 1.40527 20.832C1.3325 20.6892 1.27424 20.5428 1.22461 20.3945C1.16014 20.2678 1.12129 20.1285 1.11328 19.9834C1.06312 19.7481 1.03028 19.5059 1.00977 19.2549C0.964654 18.7027 0.964844 18.0231 0.964844 17.2002V6.7998ZM6 18.0352C4.75485 18.0352 3.68775 18.8037 3.24902 19.8936C3.43739 20.2627 3.7382 20.5628 4.10742 20.751C4.25806 20.8277 4.47781 20.8921 4.91406 20.9277C5.36234 20.9643 5.94287 20.9648 6.7998 20.9648H16.9561C16.9485 20.7119 16.935 20.5566 16.9082 20.4219C16.6742 19.2457 15.7543 18.3258 14.5781 18.0918C14.3169 18.0399 13.9786 18.0352 13 18.0352H6ZM12.9648 9.5C12.9648 7.86248 11.6375 6.53516 10 6.53516C8.36248 6.53516 7.03516 7.86248 7.03516 9.5C7.03516 11.1375 8.36248 12.4648 10 12.4648C11.6375 12.4648 12.9648 11.1375 12.9648 9.5ZM21.2686 2.26855C21.6727 1.86436 22.3273 1.86436 22.7314 2.26855C23.1356 2.67275 23.1356 3.32725 22.7314 3.73145L18.7314 7.73145C18.3273 8.13564 17.6727 8.13564 17.2686 7.73145L15.2686 5.73145C14.8644 5.32725 14.8644 4.67275 15.2686 4.26855C15.6727 3.86436 16.3273 3.86436 16.7314 4.26855L18 5.53711L21.2686 2.26855ZM15.0352 9.5C15.0352 12.2808 12.7808 14.5352 10 14.5352C7.21925 14.5352 4.96484 12.2808 4.96484 9.5C4.96484 6.71925 7.21925 4.46484 10 4.46484C12.7808 4.46484 15.0352 6.71925 15.0352 9.5Z"/></g><defs><clipPath id="a"><path fill="#fff" d="M0 0H24V24H0z"/></clipPath></defs></svg>