<svg xmlns="http://www.w3.org/2000/svg" width="24" height="24" fill="none" viewBox="0 0 24 24"><path fill="currentColor" d="M15.5518 10.3389C15.8315 10.2695 16.1227 10.2599 16.4062 10.3115L16.5469 10.3428L16.7373 10.4033C16.9174 10.4721 17.0689 10.5628 17.1973 10.6504C17.3578 10.76 17.5349 10.9033 17.7119 11.0449L20.5098 13.2822C20.8495 13.554 21.1534 13.7884 21.3877 14.0869C21.6604 14.4344 21.8541 14.8376 21.9551 15.2676C22.0418 15.6371 22.0352 16.021 22.0352 16.4561C22.0352 16.6326 22.0327 16.8015 22.0322 16.9629C22.0327 16.9752 22.0352 16.9876 22.0352 17C22.0352 17.8632 22.0437 18.4977 21.8975 19.0439C21.866 19.1615 21.8276 19.2767 21.7861 19.3896C21.7726 19.4285 21.7564 19.4664 21.7412 19.5049C21.7342 19.5223 21.7289 19.5403 21.7217 19.5576C21.7176 19.5673 21.7141 19.5772 21.71 19.5869C21.6857 19.6437 21.6595 19.6995 21.6328 19.7549C21.6203 19.7809 21.6068 19.8064 21.5938 19.832C21.5662 19.8861 21.5377 19.9396 21.5078 19.9922C21.4966 20.0119 21.4851 20.0313 21.4736 20.0508C21.44 20.1078 21.4045 20.1636 21.3682 20.2188C21.3617 20.2286 21.3562 20.2392 21.3496 20.249C21.3081 20.3109 21.2645 20.3713 21.2197 20.4307C21.1995 20.4575 21.1781 20.4835 21.1572 20.5098C21.1274 20.5473 21.0975 20.5847 21.0664 20.6211C21.0495 20.6409 21.032 20.6602 21.0146 20.6797C20.9096 20.7978 20.7978 20.9096 20.6797 21.0146C20.665 21.0277 20.6506 21.0409 20.6357 21.0537C20.5946 21.0892 20.5523 21.1234 20.5098 21.1572C20.4842 21.1776 20.4587 21.198 20.4326 21.2178C20.3752 21.2612 20.3167 21.3034 20.2568 21.3438C20.2443 21.3522 20.2313 21.3599 20.2188 21.3682C20.1636 21.4045 20.1078 21.44 20.0508 21.4736C20.0323 21.4845 20.0138 21.4952 19.9951 21.5059C19.9448 21.5345 19.8935 21.5614 19.8418 21.5879C19.8177 21.6003 19.7939 21.6131 19.7695 21.625C19.7094 21.6544 19.6488 21.6835 19.5869 21.71C19.5796 21.7131 19.5717 21.7147 19.5645 21.7178C19.5448 21.726 19.5247 21.7332 19.5049 21.7412C19.4684 21.7556 19.4323 21.7703 19.3955 21.7832C19.2806 21.8256 19.1637 21.8654 19.0439 21.8975C18.4977 22.0437 17.8632 22.0352 17 22.0352H7.06934C6.81982 22.0352 6.57439 22.0319 6.36426 22.0205C6.14231 22.014 5.93597 22.0058 5.74512 21.9902C5.18095 21.9441 4.65899 21.8449 4.16797 21.5947C3.409 21.2079 2.79208 20.591 2.40527 19.832C2.15508 19.341 2.05588 18.8191 2.00977 18.2549C1.96465 17.7027 1.96484 17.0231 1.96484 16.2002V7.7998C1.96484 6.97689 1.96465 6.29725 2.00977 5.74512C2.05588 5.18095 2.15509 4.65899 2.40527 4.16797C2.79208 3.409 3.409 2.79208 4.16797 2.40527C4.65899 2.15509 5.18095 2.05588 5.74512 2.00977C6.29725 1.96465 6.97689 1.96484 7.7998 1.96484H12.5C13.0716 1.96484 13.5352 2.42839 13.5352 3C13.5352 3.57161 13.0716 4.03516 12.5 4.03516H7.7998C6.94287 4.03516 6.36234 4.03565 5.91406 4.07227C5.47781 4.10791 5.25807 4.17227 5.10742 4.24902C4.73794 4.43737 4.43737 4.73794 4.24902 5.10742C4.17227 5.25807 4.10791 5.47781 4.07227 5.91406C4.03565 6.36234 4.03516 6.94287 4.03516 7.7998V16.2002C4.03516 17.0571 4.03565 17.6377 4.07227 18.0859C4.10791 18.5222 4.17227 18.7419 4.24902 18.8926C4.42018 19.2283 4.6848 19.5059 5.00879 19.6953C5.09137 19.5713 5.17672 19.4773 5.2334 19.416C5.39302 19.2433 5.61209 19.0444 5.83496 18.8418L14.2939 11.1523C14.4617 10.9999 14.6299 10.8461 14.7832 10.7266C14.9468 10.5991 15.1513 10.4629 15.4131 10.3779L15.5518 10.3389ZM16.043 12.3691C15.9674 12.4292 15.8672 12.5194 15.6865 12.6836L7.67773 19.9639C7.71779 19.9639 7.75848 19.9648 7.7998 19.9648H16.4561C17.1902 19.9648 17.6875 19.9646 18.0732 19.9375C18.449 19.9111 18.6406 19.863 18.7725 19.8066C18.8219 19.7855 18.8697 19.7613 18.917 19.7363C18.9331 19.7278 18.949 19.7189 18.9648 19.71C19.0094 19.6848 19.0535 19.6593 19.0957 19.6309C19.1064 19.6237 19.1165 19.6158 19.127 19.6084C19.1639 19.5825 19.1993 19.5547 19.2344 19.5264C19.2445 19.5182 19.2547 19.5103 19.2646 19.502C19.3504 19.4297 19.4297 19.3504 19.502 19.2646C19.5103 19.2547 19.5182 19.2445 19.5264 19.2344C19.5947 19.1499 19.6562 19.0601 19.71 18.9648C19.7189 18.949 19.7278 18.9331 19.7363 18.917C19.7613 18.8697 19.7855 18.8219 19.8066 18.7725C19.863 18.6406 19.9111 18.449 19.9375 18.0732C19.9646 17.6875 19.9648 17.1902 19.9648 16.4561C19.9648 15.9227 19.9586 15.8217 19.9395 15.7402C19.9073 15.6037 19.8454 15.4756 19.7588 15.3652C19.7072 15.2995 19.6326 15.2311 19.2168 14.8984L16.4189 12.6611C16.2279 12.5083 16.1222 12.4244 16.043 12.3691ZM9.46484 8.5C9.46484 7.96705 9.03295 7.53516 8.5 7.53516C7.96705 7.53516 7.53516 7.96705 7.53516 8.5C7.53516 9.03295 7.96705 9.46484 8.5 9.46484C9.03296 9.46484 9.46484 9.03296 9.46484 8.5ZM17.9648 8V6.03516H16C15.4284 6.03516 14.9648 5.57161 14.9648 5C14.9648 4.42839 15.4284 3.96484 16 3.96484H17.9648V2C17.9648 1.42839 18.4284 0.964844 19 0.964844C19.5716 0.964844 20.0352 1.42839 20.0352 2V3.96484H22C22.5716 3.96484 23.0352 4.42839 23.0352 5C23.0352 5.57161 22.5716 6.03516 22 6.03516H20.0352V8C20.0352 8.57161 19.5716 9.03516 19 9.03516C18.4284 9.03516 17.9648 8.57161 17.9648 8ZM11.5352 8.5C11.5352 10.1762 10.1762 11.5352 8.5 11.5352C6.82382 11.5352 5.46484 10.1762 5.46484 8.5C5.46484 6.82382 6.82382 5.46484 8.5 5.46484C10.1762 5.46484 11.5352 6.82382 11.5352 8.5Z"/></svg>