<svg xmlns="http://www.w3.org/2000/svg" width="24" height="24" fill="none" viewBox="0 0 24 24"><path fill="currentColor" d="M19.9648 15.4277L16.3994 11.8633C16.1993 11.6631 16.0862 11.5512 16 11.4766C15.9138 11.5512 15.8007 11.6631 15.6006 11.8633L7.5 19.9629C7.59604 19.963 7.69589 19.9648 7.7998 19.9648H16.2002L17.2959 19.96C17.6044 19.9552 17.8617 19.946 18.0859 19.9277C18.5222 19.8921 18.7419 19.8277 18.8926 19.751C19.2621 19.5626 19.5626 19.2621 19.751 18.8926C19.8277 18.7419 19.8921 18.5222 19.9277 18.0859C19.9643 17.6377 19.9648 17.0571 19.9648 16.2002V15.4277ZM9.46484 8.5C9.46484 7.96705 9.03295 7.53516 8.5 7.53516C7.96705 7.53516 7.53516 7.96705 7.53516 8.5C7.53516 9.03295 7.96705 9.46484 8.5 9.46484C9.03296 9.46484 9.46484 9.03296 9.46484 8.5ZM19.9648 7.7998C19.9648 6.94287 19.9643 6.36234 19.9277 5.91406C19.8921 5.47781 19.8277 5.25807 19.751 5.10742C19.5626 4.73794 19.2621 4.43737 18.8926 4.24902C18.7419 4.17227 18.5222 4.10791 18.0859 4.07227C17.6377 4.03565 17.0571 4.03516 16.2002 4.03516H7.7998C6.94287 4.03516 6.36234 4.03565 5.91406 4.07227C5.47781 4.10791 5.25807 4.17227 5.10742 4.24902C4.73794 4.43737 4.43737 4.73794 4.24902 5.10742C4.17227 5.25807 4.10791 5.47781 4.07227 5.91406C4.03565 6.36234 4.03516 6.94287 4.03516 7.7998V16.2002C4.03516 17.0571 4.03565 17.6377 4.07227 18.0859C4.10791 18.5222 4.17227 18.7419 4.24902 18.8926C4.40924 19.2069 4.65133 19.4703 4.94727 19.6582C4.99978 19.5819 5.04982 19.5201 5.08789 19.4746C5.23334 19.3009 5.43408 19.1021 5.63379 18.9023L14.1367 10.3994C14.3226 10.2135 14.5056 10.0297 14.6729 9.8877C14.8494 9.73786 15.0752 9.57465 15.3711 9.47852C15.7289 9.36228 16.1108 9.34828 16.4746 9.43555L16.6289 9.47852L16.8379 9.5625C17.0345 9.65585 17.1948 9.77533 17.3271 9.8877C17.4944 10.0297 17.6774 10.2135 17.8633 10.3994L19.9648 12.501V7.7998ZM11.5352 8.5C11.5352 10.1762 10.1762 11.5352 8.5 11.5352C6.82382 11.5352 5.46484 10.1762 5.46484 8.5C5.46484 6.82382 6.82382 5.46484 8.5 5.46484C10.1762 5.46484 11.5352 6.82382 11.5352 8.5ZM22.0352 16.2002L22.0293 17.3291C22.0239 17.6708 22.0128 17.9789 21.9902 18.2549C21.9441 18.8191 21.8449 19.341 21.5947 19.832C21.2079 20.591 20.591 21.2079 19.832 21.5947C19.341 21.8449 18.8191 21.9441 18.2549 21.9902C17.9789 22.0128 17.6708 22.0239 17.3291 22.0293L16.2002 22.0352H6.93164C6.64921 22.0352 6.36633 22.0356 6.14062 22.0156C6.13102 22.0148 6.12099 22.0127 6.11035 22.0117C5.98299 22.0059 5.8611 21.9997 5.74512 21.9902C5.18095 21.9441 4.65899 21.8449 4.16797 21.5947C3.409 21.2079 2.79208 20.591 2.40527 19.832C2.15509 19.341 2.05588 18.8191 2.00977 18.2549C1.96465 17.7027 1.96484 17.0231 1.96484 16.2002V7.7998C1.96484 6.97689 1.96465 6.29725 2.00977 5.74512C2.05588 5.18095 2.15509 4.65899 2.40527 4.16797C2.79208 3.409 3.409 2.79208 4.16797 2.40527C4.65899 2.15509 5.18095 2.05588 5.74512 2.00977C6.29725 1.96465 6.97689 1.96484 7.7998 1.96484H16.2002C17.0231 1.96484 17.7027 1.96465 18.2549 2.00977C18.8191 2.05588 19.341 2.15509 19.832 2.40527C20.591 2.79208 21.2079 3.409 21.5947 4.16797C21.8449 4.65899 21.9441 5.18095 21.9902 5.74512C22.0353 6.29725 22.0352 6.97689 22.0352 7.7998V16.2002Z"/></svg>