<svg xmlns="http://www.w3.org/2000/svg" width="24" height="24" fill="none" viewBox="0 0 24 24"><path fill="currentColor" d="M15.5518 10.3388C15.8315 10.2694 16.1227 10.2598 16.4062 10.3114L16.5469 10.3427L16.7373 10.4032C16.9174 10.472 17.0689 10.5627 17.1973 10.6503C17.3578 10.7599 17.5349 10.9032 17.7119 11.0448L20.5098 13.2821C20.8495 13.5539 21.1534 13.7883 21.3877 14.0868C21.6604 14.4343 21.8541 14.8375 21.9551 15.2675C22.0418 15.637 22.0352 16.0209 22.0352 16.456C22.0352 16.6325 22.0327 16.8014 22.0322 16.9628C22.0327 16.9752 22.0352 16.9875 22.0352 16.9999C22.0352 17.8631 22.0437 18.4977 21.8975 19.0439C21.866 19.1615 21.8276 19.2766 21.7861 19.3896C21.7726 19.4284 21.7564 19.4663 21.7412 19.5048C21.7342 19.5222 21.7289 19.5403 21.7217 19.5575C21.7176 19.5672 21.7141 19.5772 21.71 19.5868C21.6857 19.6436 21.6595 19.6995 21.6328 19.7548C21.6203 19.7808 21.6068 19.8063 21.5938 19.832C21.5662 19.886 21.5377 19.9395 21.5078 19.9921C21.4966 20.0118 21.4851 20.0312 21.4736 20.0507C21.44 20.1077 21.4045 20.1635 21.3682 20.2187C21.3617 20.2286 21.3562 20.2391 21.3496 20.2489C21.3081 20.3108 21.2645 20.3712 21.2197 20.4306C21.1995 20.4574 21.1781 20.4834 21.1572 20.5097C21.1274 20.5472 21.0975 20.5846 21.0664 20.621C21.0495 20.6408 21.032 20.6601 21.0146 20.6796C20.9096 20.7978 20.7978 20.9095 20.6797 21.0146C20.665 21.0276 20.6506 21.0408 20.6357 21.0536C20.5946 21.0891 20.5523 21.1233 20.5098 21.1571C20.4842 21.1775 20.4587 21.198 20.4326 21.2177C20.3752 21.2611 20.3167 21.3033 20.2568 21.3437C20.2443 21.3521 20.2313 21.3598 20.2188 21.3681C20.1636 21.4044 20.1078 21.4399 20.0508 21.4736C20.0323 21.4845 20.0138 21.4952 19.9951 21.5058C19.9448 21.5344 19.8935 21.5613 19.8418 21.5878C19.8177 21.6002 19.7939 21.613 19.7695 21.6249C19.7094 21.6543 19.6488 21.6834 19.5869 21.7099C19.5796 21.713 19.5717 21.7146 19.5645 21.7177C19.5448 21.726 19.5247 21.7332 19.5049 21.7411C19.4684 21.7555 19.4323 21.7702 19.3955 21.7831C19.2806 21.8255 19.1637 21.8653 19.0439 21.8974C18.4977 22.0437 17.8632 22.0351 17 22.0351H7.06934C6.81982 22.0351 6.57439 22.0318 6.36426 22.0204C6.14231 22.0139 5.93597 22.0057 5.74512 21.9902C5.18095 21.944 4.65899 21.8448 4.16797 21.5946C3.409 21.2078 2.79208 20.5909 2.40527 19.832C2.15508 19.3409 2.05588 18.819 2.00977 18.2548C1.96465 17.7027 1.96484 17.023 1.96484 16.2001V7.79973C1.96484 6.97681 1.96465 6.29717 2.00977 5.74504C2.05588 5.18087 2.15509 4.65891 2.40527 4.16789C2.79208 3.40892 3.409 2.792 4.16797 2.4052C4.65899 2.15501 5.18095 2.0558 5.74512 2.00969C6.29725 1.96458 6.97689 1.96477 7.7998 1.96477H12.5C13.0716 1.96477 13.5352 2.42831 13.5352 2.99992C13.5352 3.57154 13.0716 4.03508 12.5 4.03508H7.7998C6.94287 4.03508 6.36234 4.03558 5.91406 4.07219C5.47781 4.10783 5.25807 4.17219 5.10742 4.24895C4.73794 4.43729 4.43737 4.73786 4.24902 5.10734C4.17227 5.25799 4.10791 5.47773 4.07227 5.91398C4.03565 6.36226 4.03516 6.9428 4.03516 7.79973V16.2001C4.03516 17.057 4.03565 17.6376 4.07227 18.0859C4.10791 18.5221 4.17227 18.7419 4.24902 18.8925C4.42018 19.2283 4.6848 19.5058 5.00879 19.6952C5.09137 19.5713 5.17672 19.4773 5.2334 19.4159C5.39302 19.2432 5.61209 19.0443 5.83496 18.8417L14.2939 11.1523C14.4617 10.9998 14.6299 10.846 14.7832 10.7265C14.9468 10.599 15.1513 10.4629 15.4131 10.3779L15.5518 10.3388ZM16.043 12.3691C15.9674 12.4292 15.8672 12.5193 15.6865 12.6835L7.67773 19.9638C7.71779 19.9638 7.75848 19.9648 7.7998 19.9648H16.4561C17.1902 19.9648 17.6875 19.9645 18.0732 19.9374C18.449 19.911 18.6406 19.8629 18.7725 19.8066C18.8219 19.7854 18.8697 19.7612 18.917 19.7362C18.9331 19.7277 18.949 19.7188 18.9648 19.7099C19.0094 19.6848 19.0535 19.6592 19.0957 19.6308C19.1064 19.6236 19.1165 19.6157 19.127 19.6083C19.1639 19.5824 19.1993 19.5546 19.2344 19.5263C19.2445 19.5181 19.2547 19.5102 19.2646 19.5019C19.3504 19.4296 19.4297 19.3504 19.502 19.2646C19.5103 19.2546 19.5182 19.2444 19.5264 19.2343C19.5947 19.1499 19.6562 19.06 19.71 18.9648C19.7189 18.9489 19.7278 18.933 19.7363 18.9169C19.7613 18.8697 19.7855 18.8219 19.8066 18.7724C19.863 18.6405 19.9111 18.4489 19.9375 18.0732C19.9646 17.6874 19.9648 17.1901 19.9648 16.456C19.9648 15.9226 19.9586 15.8216 19.9395 15.7402C19.9073 15.6036 19.8454 15.4755 19.7588 15.3652C19.7072 15.2994 19.6326 15.231 19.2168 14.8984L16.4189 12.6611C16.2279 12.5082 16.1222 12.4243 16.043 12.3691ZM9.46484 8.49992C9.46484 7.96697 9.03295 7.53508 8.5 7.53508C7.96705 7.53508 7.53516 7.96697 7.53516 8.49992C7.53516 9.03288 7.96705 9.46477 8.5 9.46477C9.03296 9.46477 9.46484 9.03288 9.46484 8.49992ZM18.2686 1.26848C18.6727 0.864284 19.3273 0.864284 19.7314 1.26848L22.7314 4.26848C22.9255 4.46258 23.0352 4.72542 23.0352 4.99992C23.0352 5.27442 22.9255 5.53727 22.7314 5.73137L19.7314 8.73137C19.3273 9.13556 18.6727 9.13556 18.2686 8.73137C17.8644 8.32717 17.8644 7.67267 18.2686 7.26848L19.502 6.03508H16C15.4284 6.03508 14.9648 5.57154 14.9648 4.99992C14.9648 4.42831 15.4284 3.96477 16 3.96477H19.502L18.2686 2.73137C17.8644 2.32717 17.8644 1.67267 18.2686 1.26848ZM11.5352 8.49992C11.5352 10.1761 10.1762 11.5351 8.5 11.5351C6.82382 11.5351 5.46484 10.1761 5.46484 8.49992C5.46484 6.82374 6.82382 5.46477 8.5 5.46477C10.1762 5.46477 11.5352 6.82374 11.5352 8.49992Z"/></svg>