<svg xmlns="http://www.w3.org/2000/svg" width="24" height="24" fill="none" viewBox="0 0 24 24"><path fill="currentColor" d="M20.9639 13.0352H18.1182C17.825 13.0352 17.5569 13.2007 17.4258 13.4629C16.944 14.4264 15.9591 15.0352 14.8819 15.0352H9.11818C8.04095 15.0352 7.05599 14.4264 6.57424 13.4629C6.44313 13.2007 6.17503 13.0352 5.88186 13.0352H3.03615C3.03612 13.0659 3.03518 13.0984 3.03518 13.1328V15.2002C3.03518 16.0571 3.03567 16.6377 3.07229 17.086C3.10793 17.5222 3.17229 17.742 3.24904 17.8926C3.43739 18.2621 3.73796 18.5626 4.10744 18.751C4.25809 18.8278 4.47783 18.8921 4.91408 18.9278C5.36236 18.9644 5.94289 18.9649 6.79983 18.9649H17.2002C18.0571 18.9649 18.6377 18.9644 19.086 18.9278C19.5222 18.8921 19.742 18.8278 19.8926 18.751C20.2621 18.5626 20.5626 18.2621 20.751 17.8926C20.8278 17.742 20.8921 17.5222 20.9278 17.086C20.9644 16.6377 20.9649 16.0571 20.9649 15.2002V13.1328C20.9649 13.0984 20.9639 13.0659 20.9639 13.0352ZM8.96682 5.03517C7.81491 5.03517 7.48512 5.0487 7.21291 5.1426C6.93794 5.23752 6.68739 5.39223 6.47951 5.59572C6.2738 5.7972 6.1138 6.08594 5.59865 7.11623L3.67482 10.9649H5.88186C6.95909 10.9649 7.94405 11.5736 8.4258 12.5371C8.55691 12.7994 8.82501 12.9649 9.11818 12.9649H14.8819C15.175 12.9649 15.4431 12.7994 15.5742 12.5371C16.056 11.5736 17.041 10.9649 18.1182 10.9649H20.3252L18.4014 7.11623C17.8862 6.08594 17.7262 5.7972 17.5205 5.59572C17.3126 5.39223 17.0621 5.23752 16.7871 5.1426C16.5149 5.0487 16.1851 5.03517 15.0332 5.03517H8.96682ZM23.0352 15.2002C23.0352 16.0231 23.0354 16.7028 22.9903 17.2549C22.9441 17.8191 22.8449 18.341 22.5947 18.832C22.2079 19.591 21.591 20.2079 20.8321 20.5947C20.341 20.8449 19.8191 20.9441 19.2549 20.9903C18.7028 21.0354 18.0231 21.0352 17.2002 21.0352H6.79983C5.97691 21.0352 5.29727 21.0354 4.74514 20.9903C4.18097 20.9441 3.65901 20.8449 3.16799 20.5947C2.40902 20.2079 1.7921 19.591 1.40529 18.832C1.15511 18.341 1.0559 17.8191 1.00979 17.2549C0.964675 16.7028 0.964864 16.0231 0.964864 15.2002V13.1328C0.964863 12.738 0.962681 12.4431 1.00393 12.1485C1.03853 11.9015 1.09629 11.6583 1.1758 11.4219C1.27069 11.1399 1.40444 10.8767 1.58107 10.5235L3.74807 6.19045C4.19599 5.2946 4.51767 4.61936 5.03029 4.1172C5.45751 3.69878 5.97282 3.38059 6.53811 3.18556C7.21662 2.95153 7.96498 2.96486 8.96682 2.96486H15.0332C16.0351 2.96486 16.7834 2.95153 17.4619 3.18556C18.0272 3.38059 18.5425 3.69878 18.9697 4.1172C19.4824 4.61936 19.8041 5.29461 20.252 6.19045L22.419 10.5235C22.5956 10.8767 22.7294 11.1399 22.8242 11.4219C22.9038 11.6583 22.9615 11.9015 22.9961 12.1485C23.0374 12.4431 23.0352 12.738 23.0352 13.1328V15.2002Z"/></svg>