<svg xmlns="http://www.w3.org/2000/svg" width="24" height="24" fill="none" viewBox="0 0 24 24"><path fill="currentColor" d="M20.9648 13.0352H18.1182C17.825 13.0352 17.5569 13.2007 17.4258 13.4629C16.944 14.4264 15.9591 15.0352 14.8818 15.0352H9.11816C8.04093 15.0352 7.05597 14.4264 6.57422 13.4629C6.44311 13.2007 6.17501 13.0352 5.88184 13.0352H3.03516V15.2002C3.03516 16.0571 3.03565 16.6377 3.07227 17.0859C3.10791 17.5222 3.17227 17.7419 3.24902 17.8926C3.43737 18.2621 3.73794 18.5626 4.10742 18.751C4.25806 18.8277 4.47781 18.8921 4.91406 18.9277C5.36234 18.9643 5.94287 18.9648 6.7998 18.9648H17.2002C18.0571 18.9648 18.6377 18.9643 19.0859 18.9277C19.5222 18.8921 19.7419 18.8277 19.8926 18.751C20.2621 18.5626 20.5626 18.2621 20.751 17.8926C20.8277 17.7419 20.8921 17.5222 20.9277 17.0859C20.9643 16.6377 20.9648 16.0571 20.9648 15.2002V13.0352ZM20.9648 8.7998C20.9648 7.94287 20.9643 7.36234 20.9277 6.91406C20.8921 6.47781 20.8277 6.25806 20.751 6.10742C20.5626 5.73794 20.2621 5.43737 19.8926 5.24902C19.7419 5.17227 19.5222 5.10791 19.0859 5.07227C18.6377 5.03565 18.0571 5.03516 17.2002 5.03516H6.7998C5.94287 5.03516 5.36234 5.03565 4.91406 5.07227C4.47781 5.10791 4.25807 5.17227 4.10742 5.24902C3.73794 5.43737 3.43737 5.73794 3.24902 6.10742C3.17227 6.25807 3.10791 6.47781 3.07227 6.91406C3.03565 7.36234 3.03516 7.94287 3.03516 8.7998V10.9648H5.88184C6.95907 10.9648 7.94403 11.5736 8.42578 12.5371C8.55689 12.7993 8.82499 12.9648 9.11816 12.9648H14.8818C15.175 12.9648 15.4431 12.7993 15.5742 12.5371C16.056 11.5736 17.0409 10.9648 18.1182 10.9648H20.9648V8.7998ZM23.0352 15.2002C23.0352 16.0231 23.0353 16.7027 22.9902 17.2549C22.9441 17.8191 22.8449 18.341 22.5947 18.832C22.2079 19.591 21.591 20.2079 20.832 20.5947C20.341 20.8449 19.8191 20.9441 19.2549 20.9902C18.7027 21.0353 18.0231 21.0352 17.2002 21.0352H6.7998C5.97689 21.0352 5.29725 21.0353 4.74512 20.9902C4.18095 20.9441 3.65899 20.8449 3.16797 20.5947C2.409 20.2079 1.79208 19.591 1.40527 18.832C1.15509 18.341 1.05588 17.8191 1.00977 17.2549C0.964654 16.7027 0.964844 16.0231 0.964844 15.2002V8.7998C0.964844 7.97689 0.964654 7.29725 1.00977 6.74512C1.05588 6.18095 1.15509 5.65899 1.40527 5.16797C1.79208 4.409 2.409 3.79208 3.16797 3.40527C3.65899 3.15509 4.18095 3.05588 4.74512 3.00977C5.29725 2.96465 5.97689 2.96484 6.7998 2.96484H17.2002C18.0231 2.96484 18.7027 2.96465 19.2549 3.00977C19.8191 3.05588 20.341 3.15509 20.832 3.40527C21.591 3.79208 22.2079 4.409 22.5947 5.16797C22.8449 5.65899 22.9441 6.18095 22.9902 6.74512C23.0353 7.29725 23.0352 7.97689 23.0352 8.7998V15.2002Z"/></svg>