<svg xmlns="http://www.w3.org/2000/svg" width="24" height="24" fill="none" viewBox="0 0 24 24"><path fill="currentColor" d="M14.2041 8.42383C15.3125 7.58861 16.6091 6.96583 18.1787 6.96582C19.75 6.96608 20.9956 7.59417 21.833 8.58008C22.6515 9.54375 23.0352 10.7918 23.0352 12C23.0352 13.2082 22.6515 14.4562 21.833 15.4199C20.9955 16.406 19.7495 17.0352 18.1777 17.0352C16.6083 17.0352 15.3114 16.4114 14.2031 15.5762C13.4143 14.9816 12.684 14.2485 11.9971 13.5176C10.3436 15.2504 8.30713 17.0352 5.43848 17.0352C3.95231 17.0351 2.79503 16.3706 2.03711 15.3789C1.30104 14.4157 0.964844 13.1821 0.964844 12C0.964844 10.8179 1.30104 9.58433 2.03711 8.62109C2.79503 7.62938 3.95231 6.96493 5.43848 6.96484C8.30686 6.96484 10.3438 8.74874 11.9971 10.4814C12.6841 9.75054 13.4152 9.01834 14.2041 8.42383ZM5.43848 9.03516C4.63252 9.03523 4.06988 9.37085 3.68164 9.87891C3.2717 10.4156 3.03516 11.1824 3.03516 12C3.03516 12.8176 3.2717 13.5844 3.68164 14.1211C4.06988 14.6292 4.63252 14.9648 5.43848 14.9648C7.45264 14.9648 8.94631 13.7139 10.5811 12C8.94639 10.2861 7.45265 9.03516 5.43848 9.03516ZM18.1777 9.03516C17.1998 9.03542 16.3311 9.41166 15.4492 10.0762C14.7568 10.598 14.1025 11.2597 13.4102 12C14.1024 12.7403 14.7569 13.402 15.4492 13.9238C16.3312 14.5885 17.1998 14.9648 18.1777 14.9648C19.154 14.9648 19.8194 14.594 20.2559 14.0801C20.7113 13.5438 20.9648 12.7918 20.9648 12C20.9648 11.2082 20.7113 10.4562 20.2559 9.91992C19.8194 9.40603 19.154 9.03516 18.1777 9.03516Z"/></svg>