<svg xmlns="http://www.w3.org/2000/svg" width="24" height="24" fill="none" viewBox="0 0 24 24"><path fill="currentColor" d="M19.9609 7.6108C19.9052 7.57602 19.825 7.53116 19.6748 7.44772L12.2744 3.33639C12.1317 3.25709 12.0556 3.21536 12 3.18795C11.9444 3.21536 11.8683 3.25709 11.7256 3.33639L4.3252 7.44772C4.17437 7.53151 4.09383 7.57595 4.03809 7.6108C4.03468 7.67651 4.03516 7.76897 4.03516 7.94186V16.059C4.03516 16.2307 4.03474 16.3226 4.03809 16.3881C4.09384 16.423 4.17395 16.4682 4.3252 16.5522L11.7256 20.6635C11.868 20.7426 11.9444 20.7836 12 20.811C12.0556 20.7836 12.1321 20.7426 12.2744 20.6635L19.6748 16.5522C19.8254 16.4685 19.9052 16.423 19.9609 16.3881C19.9643 16.3226 19.9648 16.2307 19.9648 16.059V7.94186C19.9648 7.76892 19.9643 7.67652 19.9609 7.6108ZM10.9648 16.0005V12.0005C10.9648 11.4288 11.4284 10.9653 12 10.9653C12.5716 10.9653 13.0352 11.4288 13.0352 12.0005V16.0005C13.0349 16.5719 12.5715 17.0346 12 17.0346C11.4285 17.0346 10.9651 16.5719 10.9648 16.0005ZM12.0098 6.9653C12.5814 6.9653 13.0449 7.42884 13.0449 8.00045C13.0447 8.57188 12.5812 9.03463 12.0098 9.03463H12C11.4285 9.03463 10.9651 8.57188 10.9648 8.00045C10.9648 7.42884 11.4284 6.9653 12 6.9653H12.0098ZM22.0352 16.2788C22.0333 16.5142 22.019 16.7888 21.9326 17.0503C21.8417 17.3253 21.6924 17.5775 21.4961 17.7905C21.2474 18.0603 20.9169 18.23 20.6797 18.3618L13.2793 22.4731C13.0544 22.5981 12.7523 22.7787 12.4102 22.8491C12.1397 22.9047 11.8603 22.9047 11.5898 22.8491C11.2477 22.7787 10.9456 22.5981 10.7207 22.4731L3.32031 18.3618C3.08308 18.23 2.75262 18.0603 2.50391 17.7905C2.30759 17.5775 2.15827 17.3253 2.06738 17.0503C1.98098 16.7888 1.96674 16.5142 1.96484 16.2788V7.72116C1.96675 7.48582 1.981 7.21111 2.06738 6.94967L2.14648 6.7485C2.23583 6.55134 2.35659 6.36929 2.50391 6.20944L2.60059 6.11276C2.83375 5.89775 3.11276 5.75345 3.32031 5.63815L10.7207 1.52682C10.9456 1.40185 11.2477 1.22126 11.5898 1.15084C11.7928 1.1091 12.0007 1.09869 12.2061 1.11959L12.4102 1.15084L12.5361 1.18209C12.8264 1.26553 13.0824 1.41743 13.2793 1.52682L20.6797 5.63815C20.8872 5.75346 21.1663 5.89775 21.3994 6.11276L21.4961 6.20944L21.6348 6.37643C21.7207 6.49232 21.794 6.61709 21.8535 6.7485L21.9326 6.94967L21.9697 7.08151C22.0232 7.30178 22.0336 7.52502 22.0352 7.72116V16.2788Z"/></svg>