<svg xmlns="http://www.w3.org/2000/svg" width="24" height="24" fill="none" viewBox="0 0 24 24"><g clip-path="url(#a)"><path fill="currentColor" d="M20.9629 8.28899C20.9317 8.25533 20.8865 8.20963 20.7998 8.12297L15.8769 3.20012C15.7894 3.11259 15.7437 3.06726 15.7099 3.03606C15.6641 3.03431 15.5999 3.03508 15.4775 3.03508H8.52245C8.39925 3.03508 8.33492 3.03427 8.28905 3.03606C8.25535 3.06724 8.21011 3.11305 8.12303 3.20012L3.20018 8.12297C3.11311 8.21005 3.0673 8.25528 3.03612 8.28899C3.03433 8.33486 3.03514 8.39919 3.03514 8.52239V15.4775C3.03514 15.5998 3.03437 15.6641 3.03612 15.7099C3.06732 15.7436 3.11265 15.7893 3.20018 15.8769L8.12303 20.7997C8.20969 20.8864 8.25539 20.9316 8.28905 20.9628C8.33492 20.9646 8.39922 20.9648 8.52245 20.9648H15.4775C15.5999 20.9648 15.6641 20.9646 15.7099 20.9628C15.7437 20.9316 15.7898 20.8868 15.8769 20.7997L20.7998 15.8769C20.8869 15.7898 20.9317 15.7436 20.9629 15.7099C20.9646 15.6641 20.9648 15.5998 20.9648 15.4775V8.52239C20.9648 8.39916 20.9647 8.33486 20.9629 8.28899ZM10.9648 15.9999V11.9999C10.9648 11.4283 11.4284 10.9648 12 10.9648C12.5716 10.9648 13.0351 11.4283 13.0351 11.9999V15.9999C13.0351 16.5715 12.5716 17.0351 12 17.0351C11.4284 17.0351 10.9648 16.5715 10.9648 15.9999ZM12.0098 6.96477C12.5814 6.96477 13.0449 7.42831 13.0449 7.99993C13.0449 8.57154 12.5814 9.03508 12.0098 9.03508H12C11.4284 9.03508 10.9648 8.57154 10.9648 7.99993C10.9648 7.42831 11.4284 6.96477 12 6.96477H12.0098ZM23.0351 15.4775C23.0352 15.6728 23.0414 15.9393 22.9785 16.2011C22.9287 16.4086 22.8468 16.6071 22.7353 16.789C22.5946 17.0186 22.4018 17.2026 22.2637 17.3407L17.3408 22.2636C17.2027 22.4017 17.0187 22.5946 16.7891 22.7353C16.6071 22.8468 16.4086 22.9286 16.2012 22.9784C15.9394 23.0413 15.6728 23.0351 15.4775 23.0351H8.52245C8.32715 23.0351 8.0606 23.0413 7.79882 22.9784C7.59134 22.9286 7.39286 22.8468 7.21093 22.7353C6.9813 22.5946 6.79728 22.4017 6.65917 22.2636L1.73632 17.3407C1.5982 17.2026 1.40535 17.0186 1.26464 16.789C1.15316 16.607 1.07132 16.4086 1.02147 16.2011C0.958624 15.9393 0.964825 15.6728 0.964832 15.4775V8.52239C0.964825 8.32709 0.958624 8.06054 1.02147 7.79876C1.07132 7.59128 1.15316 7.3928 1.26464 7.21086L1.37889 7.0468C1.49893 6.89201 1.63283 6.76259 1.73632 6.65911L6.65917 1.73626C6.79728 1.59814 6.9813 1.40529 7.21093 1.26458L7.35057 1.18645C7.49278 1.11402 7.64328 1.05878 7.79882 1.02141C8.0606 0.958563 8.32715 0.964764 8.52245 0.964771H15.4775C15.624 0.964766 15.8104 0.961591 16.0049 0.986255L16.2012 1.02141L16.3545 1.06438C16.4558 1.0973 16.5545 1.13809 16.6494 1.18645L16.7891 1.26458L16.9531 1.37883C17.1079 1.49887 17.2373 1.63277 17.3408 1.73626L22.2637 6.65911C22.3671 6.76259 22.501 6.89201 22.6211 7.0468L22.7353 7.21086L22.8135 7.35051C22.8859 7.49272 22.9411 7.64322 22.9785 7.79876C23.0414 8.06054 23.0352 8.32709 23.0351 8.52239V15.4775Z"/></g><defs><clipPath id="a"><path fill="#fff" d="M0 0H24V24H0z"/></clipPath></defs></svg>