<svg xmlns="http://www.w3.org/2000/svg" width="24" height="24" fill="none" viewBox="0 0 24 24"><g clip-path="url(#a)"><path fill="currentColor" d="M20.9648 12C20.9648 7.04877 16.9512 3.03516 12 3.03516C7.04877 3.03516 3.03516 7.04877 3.03516 12C3.03516 16.9512 7.04877 20.9648 12 20.9648C16.9512 20.9648 20.9648 16.9512 20.9648 12ZM10.9648 16V12C10.9648 11.4284 11.4284 10.9648 12 10.9648C12.5716 10.9648 13.0352 11.4284 13.0352 12V16C13.0352 16.5716 12.5716 17.0352 12 17.0352C11.4284 17.0352 10.9648 16.5716 10.9648 16ZM12.0098 6.96484C12.5814 6.96484 13.0449 7.42839 13.0449 8C13.0449 8.57161 12.5814 9.03516 12.0098 9.03516H12C11.4284 9.03516 10.9648 8.57161 10.9648 8C10.9648 7.42839 11.4284 6.96484 12 6.96484H12.0098ZM23.0352 12C23.0352 18.0945 18.0945 23.0352 12 23.0352C5.90554 23.0352 0.964844 18.0945 0.964844 12C0.964844 5.90554 5.90554 0.964844 12 0.964844C18.0945 0.964844 23.0352 5.90554 23.0352 12Z"/></g><defs><clipPath id="a"><path fill="#fff" d="M0 0H24V24H0z"/></clipPath></defs></svg>