<svg xmlns="http://www.w3.org/2000/svg" width="24" height="24" fill="none" viewBox="0 0 24 24"><g clip-path="url(#a)"><path fill="currentColor" d="M20.9648 15C20.9648 12.4164 19.3223 10.2167 17.0244 9.3877C16.8282 13.5167 13.5167 16.8282 9.3877 17.0244C10.2167 19.3223 12.4164 20.9648 15 20.9648C18.2944 20.9648 20.9648 18.2944 20.9648 15ZM14.9639 9.03516C11.6982 9.05453 9.05453 11.6982 9.03516 14.9639C12.3016 14.945 14.945 12.3016 14.9639 9.03516ZM23.0352 15C23.0352 19.4376 19.4376 23.0352 15 23.0352C11.19 23.0352 8.0011 20.3828 7.1748 16.8242C3.61679 15.9975 0.964844 12.8096 0.964844 9C0.964844 4.56239 4.56239 0.964844 9 0.964844C12.8096 0.964844 15.9975 3.61679 16.8242 7.1748C20.3828 8.0011 23.0352 11.19 23.0352 15ZM3.03516 9C3.03516 11.5832 4.67737 13.782 6.97461 14.6113C7.17124 10.483 10.483 7.17124 14.6113 6.97461C13.782 4.67737 11.5832 3.03516 9 3.03516C5.70562 3.03516 3.03516 5.70562 3.03516 9Z"/></g><defs><clipPath id="a"><path fill="#fff" d="M0 0H24V24H0z"/></clipPath></defs></svg>