<svg xmlns="http://www.w3.org/2000/svg" width="24" height="24" fill="none" viewBox="0 0 24 24"><path fill="currentColor" d="M19 2.96484C19.5716 2.96484 20.0352 3.42839 20.0352 4C20.0352 4.57161 19.5716 5.03516 19 5.03516H15.7168L10.4932 18.9648H14C14.5716 18.9648 15.0352 19.4284 15.0352 20C15.0352 20.5716 14.5716 21.0352 14 21.0352H5C4.42839 21.0352 3.96484 20.5716 3.96484 20C3.96484 19.4284 4.42839 18.9648 5 18.9648H8.2832L13.5068 5.03516H10C9.42839 5.03516 8.96484 4.57161 8.96484 4C8.96484 3.42839 9.42839 2.96484 10 2.96484H19Z"/></svg>