<svg xmlns="http://www.w3.org/2000/svg" width="24" height="24" fill="none" viewBox="0 0 24 24"><path fill="currentColor" d="M19.5 2.96484C20.0716 2.96484 20.5352 3.42839 20.5352 4C20.5352 4.57161 20.0716 5.03516 19.5 5.03516H17.4668L12.2432 18.9648H14.5C15.0716 18.9648 15.5352 19.4284 15.5352 20C15.5352 20.5716 15.0716 21.0352 14.5 21.0352H4.5C3.92839 21.0352 3.46484 20.5716 3.46484 20C3.46484 19.4284 3.92839 18.9648 4.5 18.9648H6.5332L11.7568 5.03516H9.5C8.92839 5.03516 8.46484 4.57161 8.46484 4C8.46484 3.42839 8.92839 2.96484 9.5 2.96484H19.5ZM8.74316 18.9648H10.0332L15.2568 5.03516H13.9668L8.74316 18.9648Z"/></svg>