<svg xmlns="http://www.w3.org/2000/svg" width="24" height="24" fill="none" viewBox="0 0 24 24"><path fill="currentColor" d="M19.9648 9C19.9648 6.25791 17.742 4.03516 14.9999 4.03516C12.2578 4.03516 10.0351 6.25791 10.0351 9C10.0351 9.22734 10.0497 9.45065 10.079 9.66895C10.1071 9.8777 10.1329 10.0633 10.1474 10.2129C10.1608 10.3523 10.1747 10.5444 10.1464 10.7422C10.1079 11.0111 10.0407 11.2101 9.90813 11.4473C9.7524 11.7257 9.49718 11.9656 9.31047 12.1523L4.20012 17.2637C4.11296 17.3508 4.06721 17.396 4.03606 17.4297C4.03429 17.4756 4.03508 17.5403 4.03508 17.6631V19.4004C4.03508 19.6825 4.03575 19.8415 4.04387 19.9551C4.15755 19.9633 4.31654 19.9648 4.59953 19.9648H5.96477V19C5.96477 18.4284 6.42831 17.9648 6.99992 17.9648H7.96477V17C7.96477 16.4284 8.42831 15.9648 8.99992 15.9648H10.5722L11.8476 14.6895C12.0343 14.5027 12.2742 14.2475 12.5527 14.0918C12.7898 13.9592 12.9888 13.892 13.2577 13.8535C13.4555 13.8252 13.6476 13.8391 13.787 13.8525C13.9366 13.867 14.1222 13.8928 14.331 13.9209C14.5493 13.9502 14.7726 13.9648 14.9999 13.9648C17.742 13.9648 19.9648 11.7421 19.9648 9ZM15.9648 9C15.9648 8.75144 15.8712 8.50601 15.6825 8.31738C15.4939 8.12875 15.2485 8.03516 14.9999 8.03516C14.4283 8.03516 13.9648 7.57161 13.9648 7C13.9648 6.42839 14.4283 5.96484 14.9999 5.96484C15.775 5.96484 16.554 6.2611 17.1464 6.85352C17.7388 7.44591 18.0351 8.22491 18.0351 9C18.035 9.57157 17.5715 10.0351 16.9999 10.0352C16.4283 10.0352 15.9648 9.57159 15.9648 9ZM22.0351 9C22.0351 12.8853 18.8852 16.0352 14.9999 16.0352C14.68 16.0352 14.3642 16.0133 14.0546 15.9717C13.8296 15.9414 13.6896 15.9229 13.5878 15.9131C13.5764 15.912 13.5664 15.9109 13.5575 15.9102C13.505 15.9581 13.4354 16.0274 13.3105 16.1523L11.7314 17.7314C11.5373 17.9255 11.2744 18.0352 10.9999 18.0352H10.0351V19C10.0351 19.5716 9.57154 20.0352 8.99992 20.0352H8.03508V21C8.03508 21.5716 7.57154 22.0352 6.99992 22.0352H4.59953C4.33689 22.0352 4.07778 22.0354 3.8593 22.0176C3.62858 21.9987 3.35323 21.9546 3.07609 21.8135C2.69319 21.6184 2.38155 21.3067 2.18645 20.9238C2.04528 20.6467 2.0012 20.3713 1.98234 20.1406C1.96452 19.9221 1.96477 19.663 1.96477 19.4004V17.6631C1.96477 17.4678 1.95859 17.2013 2.02141 16.9395L2.06438 16.7852C2.11376 16.6332 2.18089 16.4871 2.26457 16.3506L2.37883 16.1875C2.49882 16.0327 2.63272 15.9033 2.73625 15.7998L7.84758 10.6895C7.97255 10.5645 8.04081 10.494 8.08879 10.4414C8.08808 10.4328 8.08789 10.423 8.08684 10.4121C8.07701 10.3103 8.0585 10.1704 8.02824 9.94531C7.98663 9.63577 7.96477 9.31993 7.96477 9C7.96477 5.11468 11.1146 1.96484 14.9999 1.96484C18.8852 1.96484 22.0351 5.11468 22.0351 9Z"/></svg>