<svg xmlns="http://www.w3.org/2000/svg" width="24" height="24" fill="none" viewBox="0 0 24 24"><path fill="currentColor" d="M20.9648 9.2002C20.9648 8.62309 20.9644 8.25228 20.9414 7.9707C20.9194 7.7012 20.8816 7.60521 20.8594 7.56152C20.7669 7.38032 20.6197 7.23308 20.4385 7.14062C20.3948 7.11837 20.2988 7.08061 20.0293 7.05859C19.7477 7.03559 19.3769 7.03516 18.7998 7.03516H5.2002C4.62309 7.03516 4.25228 7.03559 3.9707 7.05859C3.7012 7.08061 3.60521 7.11837 3.56152 7.14062C3.38033 7.23308 3.23308 7.38033 3.14062 7.56152C3.11837 7.60521 3.08061 7.7012 3.05859 7.9707C3.03559 8.25228 3.03516 8.62309 3.03516 9.2002V14.7998C3.03516 15.3769 3.03559 15.7477 3.05859 16.0293C3.08061 16.2988 3.11837 16.3948 3.14062 16.4385C3.23308 16.6197 3.38033 16.7669 3.56152 16.8594C3.60521 16.8816 3.7012 16.9194 3.9707 16.9414C4.25228 16.9644 4.62309 16.9648 5.2002 16.9648H18.7998C19.3769 16.9648 19.7477 16.9644 20.0293 16.9414C20.2988 16.9194 20.3948 16.8816 20.4385 16.8594C20.6197 16.7669 20.7669 16.6197 20.8594 16.4385C20.8816 16.3948 20.9194 16.2988 20.9414 16.0293C20.9644 15.7477 20.9648 15.3769 20.9648 14.7998V9.2002ZM17 13.4648C17.5716 13.4648 18.0352 13.9284 18.0352 14.5C18.0352 15.0716 17.5716 15.5352 17 15.5352H7C6.42839 15.5352 5.96484 15.0716 5.96484 14.5C5.96484 13.9284 6.42839 13.4648 7 13.4648H17ZM6.00977 8.96484C6.58138 8.96484 7.04492 9.42839 7.04492 10C7.04492 10.5716 6.58138 11.0352 6.00977 11.0352H6C5.42839 11.0352 4.96484 10.5716 4.96484 10C4.96484 9.42839 5.42839 8.96484 6 8.96484H6.00977ZM10.0098 8.96484C10.5814 8.96484 11.0449 9.42839 11.0449 10C11.0449 10.5716 10.5814 11.0352 10.0098 11.0352H10C9.42839 11.0352 8.96484 10.5716 8.96484 10C8.96484 9.42839 9.42839 8.96484 10 8.96484H10.0098ZM14.0098 8.96484C14.5814 8.96484 15.0449 9.42839 15.0449 10C15.0449 10.5716 14.5814 11.0352 14.0098 11.0352H14C13.4284 11.0352 12.9648 10.5716 12.9648 10C12.9648 9.42839 13.4284 8.96484 14 8.96484H14.0098ZM18.0098 8.96484C18.5814 8.96484 19.0449 9.42839 19.0449 10C19.0449 10.5716 18.5814 11.0352 18.0098 11.0352H18C17.4284 11.0352 16.9648 10.5716 16.9648 10C16.9648 9.42839 17.4284 8.96484 18 8.96484H18.0098ZM23.0352 14.7998C23.0352 15.3428 23.0354 15.8128 23.0039 16.1982C22.9714 16.5956 22.8998 16.9939 22.7041 17.3779C22.4131 17.9489 21.9489 18.4131 21.3779 18.7041C20.9939 18.8998 20.5956 18.9714 20.1982 19.0039C19.8128 19.0354 19.3428 19.0352 18.7998 19.0352H5.2002C4.65722 19.0352 4.18718 19.0354 3.80176 19.0039C3.40438 18.9714 3.00608 18.8998 2.62207 18.7041C2.05107 18.4131 1.58686 17.9489 1.2959 17.3779C1.10024 16.9939 1.02859 16.5956 0.996094 16.1982C0.964603 15.8128 0.964844 15.3428 0.964844 14.7998V9.2002C0.964844 8.65722 0.964603 8.18718 0.996094 7.80176C1.02859 7.40438 1.10024 7.00608 1.2959 6.62207C1.58686 6.05107 2.05107 5.58686 2.62207 5.2959C3.00608 5.10024 3.40438 5.02859 3.80176 4.99609C4.18718 4.9646 4.65722 4.96484 5.2002 4.96484H18.7998C19.3428 4.96484 19.8128 4.9646 20.1982 4.99609C20.5956 5.02859 20.9939 5.10024 21.3779 5.2959C21.9489 5.58686 22.4131 6.05107 22.7041 6.62207C22.8998 7.00608 22.9714 7.40438 23.0039 7.80176C23.0354 8.18718 23.0352 8.65722 23.0352 9.2002V14.7998Z"/></svg>