<svg xmlns="http://www.w3.org/2000/svg" width="24" height="24" fill="none" viewBox="0 0 24 24"><path fill="currentColor" d="M20.962 17.0371C20.8994 17.035 20.8131 17.0352 20.667 17.0352H3.33306C3.18624 17.0352 3.09979 17.035 3.03716 17.0371C3.03502 17.0997 3.03521 17.1862 3.03521 17.333C3.03521 18.0196 3.04442 18.1605 3.06841 18.25C3.1577 18.5827 3.41732 18.8424 3.75005 18.9316C3.83959 18.9556 3.98043 18.9648 4.66705 18.9648H19.3331C20.0197 18.9648 20.1605 18.9556 20.2501 18.9316C20.5828 18.8424 20.8424 18.5827 20.9317 18.25C20.9557 18.1605 20.9649 18.0196 20.9649 17.333C20.9649 17.1862 20.9641 17.0997 20.962 17.0371ZM19.9649 7.2002C19.9649 6.62309 19.9645 6.25228 19.9415 5.9707C19.9194 5.7012 19.8817 5.60521 19.8594 5.56152C19.767 5.38033 19.6197 5.23308 19.4385 5.14062C19.3948 5.11836 19.2988 5.08061 19.0294 5.05859C18.7478 5.03559 18.377 5.03516 17.7999 5.03516H6.20025C5.62314 5.03516 5.25233 5.03559 4.97076 5.05859C4.70126 5.08061 4.60526 5.11837 4.56158 5.14062C4.38038 5.23308 4.23313 5.38033 4.14068 5.56152C4.11842 5.60521 4.08067 5.7012 4.05865 5.9707C4.03564 6.25228 4.03521 6.62309 4.03521 7.2002V14.9648H19.9649V7.2002ZM22.0352 15.248C22.4496 15.4929 22.7678 15.8798 22.9258 16.3438L22.9659 16.4736L23.0098 16.6963C23.0403 16.9222 23.0352 17.1505 23.0352 17.333C23.0352 17.8862 23.0439 18.3661 22.9317 18.7852C22.6511 19.8325 21.8326 20.651 20.7852 20.9316C20.3662 21.0438 19.8863 21.0352 19.3331 21.0352H4.66705C4.11385 21.0352 3.63394 21.0438 3.2149 20.9316C2.16754 20.651 1.34905 19.8325 1.06841 18.7852C0.956206 18.3661 0.964897 17.8862 0.964897 17.333C0.964889 17.0898 0.956137 16.7654 1.03423 16.4736L1.07427 16.3438C1.23228 15.8798 1.55054 15.4929 1.9649 15.248V7.2002C1.9649 6.65722 1.96466 6.18718 1.99615 5.80176C2.02864 5.40438 2.10029 5.00608 2.29595 4.62207C2.58691 4.05107 3.05113 3.58686 3.62212 3.2959C4.00613 3.10024 4.40443 3.02859 4.80181 2.99609C5.18724 2.9646 5.65727 2.96484 6.20025 2.96484H17.7999C18.3428 2.96484 18.8129 2.9646 19.1983 2.99609C19.5957 3.02859 19.994 3.10024 20.378 3.2959C20.949 3.58686 21.4132 4.05107 21.7042 4.62207C21.8998 5.00608 21.9715 5.40438 22.004 5.80176C22.0354 6.18718 22.0352 6.65722 22.0352 7.2002V15.248Z"/></svg>