<svg xmlns="http://www.w3.org/2000/svg" width="24" height="24" fill="none" viewBox="0 0 24 24"><path fill="currentColor" d="M20.9618 17.0371L20.6669 17.0352H15.663C15.5402 17.0352 15.4755 17.0344 15.4296 17.0361C15.3959 17.0673 15.3507 17.113 15.2636 17.2002L15.2001 17.2637C15.0621 17.4017 14.8787 17.5947 14.6493 17.7354C14.4673 17.8469 14.2681 17.9287 14.0605 17.9785C13.7986 18.0413 13.5321 18.0352 13.3368 18.0352H10.663C10.4677 18.0352 10.2012 18.0413 9.93937 17.9785C9.73172 17.9287 9.53257 17.8469 9.3505 17.7354C9.12111 17.5947 8.93776 17.4017 8.79972 17.2637L8.73624 17.2002C8.64862 17.1126 8.603 17.0673 8.56925 17.0361C8.52345 17.0344 8.45878 17.0352 8.33683 17.0352H3.03507V17.333C3.03507 18.0196 3.04428 18.1605 3.06827 18.25C3.15756 18.5827 3.41718 18.8424 3.74991 18.9316C3.83945 18.9556 3.98029 18.9648 4.6669 18.9648H19.3329C20.0195 18.9648 20.1604 18.9556 20.2499 18.9316C20.5826 18.8424 20.8423 18.5827 20.9316 18.25C20.9555 18.1605 20.9648 18.0196 20.9648 17.333C20.9648 17.1862 20.964 17.0997 20.9618 17.0371ZM19.9648 7.2002C19.9648 6.62309 19.9643 6.25228 19.9413 5.9707C19.9193 5.7012 19.8815 5.60521 19.8593 5.56152C19.7668 5.38032 19.6196 5.23308 19.4384 5.14062C19.3947 5.11837 19.2987 5.08061 19.0292 5.05859C18.7476 5.03559 18.3768 5.03516 17.7997 5.03516H6.20011C5.623 5.03516 5.25219 5.03559 4.97062 5.05859C4.70112 5.08061 4.60512 5.11837 4.56144 5.14062C4.38024 5.23308 4.23299 5.38033 4.14054 5.56152C4.11828 5.60521 4.08052 5.7012 4.05851 5.9707C4.0355 6.25228 4.03507 6.62309 4.03507 7.2002V14.9648H8.33683C8.48345 14.9648 8.6704 14.9616 8.86515 14.9863L9.06046 15.0215L9.21476 15.0645C9.31609 15.0974 9.41474 15.1382 9.50968 15.1865L9.64933 15.2646L9.81241 15.3789C9.96722 15.4989 10.0966 15.6328 10.2001 15.7363L10.2636 15.7998C10.3503 15.8865 10.396 15.9317 10.4296 15.9629C10.4755 15.9647 10.5401 15.9648 10.663 15.9648H13.3368C13.4588 15.9648 13.5234 15.9646 13.5692 15.9629C13.6029 15.9317 13.649 15.887 13.7362 15.7998L13.7997 15.7363C13.9378 15.5983 14.1211 15.4053 14.3505 15.2646C14.5326 15.1531 14.7317 15.0713 14.9394 15.0215L15.1347 14.9863C15.3294 14.9616 15.5164 14.9648 15.663 14.9648H19.9648V7.2002ZM22.0351 15.248C22.4494 15.4929 22.7677 15.8798 22.9257 16.3438L22.9657 16.4736L23.0097 16.6963C23.0402 16.9222 23.0351 17.1505 23.0351 17.333C23.0351 17.8862 23.0438 18.3661 22.9316 18.7852C22.6509 19.8325 21.8324 20.651 20.7851 20.9316C20.366 21.0438 19.8861 21.0352 19.3329 21.0352H4.6669C4.11371 21.0352 3.6338 21.0438 3.21476 20.9316C2.1674 20.651 1.34891 19.8325 1.06827 18.7852C0.956065 18.3661 0.964756 17.8862 0.964756 17.333V17C0.964756 16.2545 1.36683 15.6044 1.96476 15.25V7.2002C1.96476 6.65722 1.96452 6.18718 1.99601 5.80176C2.0285 5.40438 2.10015 5.00608 2.29581 4.62207C2.58677 4.05107 3.05099 3.58686 3.62198 3.2959C4.00599 3.10024 4.40429 3.02859 4.80167 2.99609C5.1871 2.9646 5.65713 2.96484 6.20011 2.96484H17.7997C18.3427 2.96484 18.8127 2.9646 19.1982 2.99609C19.5955 3.02859 19.9938 3.10024 20.3778 3.2959C20.9488 3.58686 21.4131 4.05107 21.704 4.62207C21.8997 5.00608 21.9713 5.40438 22.0038 5.80176C22.0353 6.18718 22.0351 6.65722 22.0351 7.2002V15.248Z"/></svg>