<svg xmlns="http://www.w3.org/2000/svg" width="24" height="24" fill="none" viewBox="0 0 24 24"><path fill="currentColor" d="M12.1416 1.03072L12.2832 1.05025L12.459 1.09615C12.6264 1.15051 12.762 1.22422 12.8203 1.25337L22.4629 6.07466C22.8134 6.25001 23.0352 6.60848 23.0352 7.00044C23.035 7.39231 22.8134 7.75097 22.4629 7.92622L19.3135 9.49947L22.4629 11.0747C22.8134 11.25 23.0352 11.6085 23.0352 12.0004C23.035 12.3923 22.8134 12.751 22.4629 12.9262L19.3135 14.4995L22.4629 16.0747C22.8134 16.25 23.0352 16.6085 23.0352 17.0004C23.035 17.3923 22.8134 17.751 22.4629 17.9262L12.8203 22.7465C12.7427 22.7854 12.5277 22.9038 12.2832 22.9497C12.0961 22.9848 11.9039 22.9848 11.7168 22.9497C11.4723 22.9038 11.2573 22.7854 11.1797 22.7465L1.53711 17.9262C1.18659 17.751 0.965003 17.3923 0.964844 17.0004C0.964844 16.6085 1.18657 16.25 1.53711 16.0747L4.68555 14.4995L1.53711 12.9262C1.18659 12.751 0.965003 12.3923 0.964844 12.0004C0.964844 11.6085 1.18657 11.25 1.53711 11.0747L4.68555 9.49947L1.53711 7.92622C1.18659 7.75097 0.965003 7.39231 0.964844 7.00044C0.964844 6.60848 1.18657 6.25001 1.53711 6.07466L11.1797 1.25337C11.2573 1.21453 11.4724 1.09614 11.7168 1.05025L11.8584 1.03072C11.9526 1.02199 12.0474 1.02199 12.1416 1.03072ZM12.8203 17.7465C12.7427 17.7854 12.5277 17.9038 12.2832 17.9497C12.0961 17.9848 11.9039 17.9848 11.7168 17.9497C11.4723 17.9038 11.2573 17.7854 11.1797 17.7465L7 15.6567L4.31445 16.9995L12 20.8422L19.6846 16.9995L16.999 15.6567L12.8203 17.7465ZM12.8203 12.7465C12.7427 12.7854 12.5277 12.9038 12.2832 12.9497C12.0961 12.9848 11.9039 12.9848 11.7168 12.9497C11.4723 12.9038 11.2573 12.7854 11.1797 12.7465L7 10.6567L4.31445 11.9995L12 15.8422L19.6846 11.9995L16.999 10.6567L12.8203 12.7465ZM4.31445 6.99947L12 10.8422L19.6846 6.99947L12 3.15767L4.31445 6.99947Z"/></svg>