<svg xmlns="http://www.w3.org/2000/svg" width="24" height="24" fill="none" viewBox="0 0 24 24"><path fill="currentColor" d="M21.5371 16.0747C22.0484 15.819 22.6701 16.0263 22.9258 16.5376C23.1812 17.0488 22.974 17.6706 22.4629 17.9262L12.8203 22.7465C12.7427 22.7854 12.5277 22.9038 12.2832 22.9497C12.0961 22.9848 11.9039 22.9848 11.7168 22.9497C11.4723 22.9038 11.2573 22.7854 11.1797 22.7465L1.53711 17.9262C1.02595 17.6706 0.818846 17.0488 1.07422 16.5376C1.32985 16.0263 1.95162 15.819 2.46289 16.0747L12 20.8422L21.5371 16.0747ZM21.5371 11.0747C22.0484 10.819 22.6701 11.0263 22.9258 11.5376C23.1812 12.0488 22.974 12.6706 22.4629 12.9262L12.8203 17.7465C12.7427 17.7854 12.5277 17.9038 12.2832 17.9497C12.0961 17.9848 11.9039 17.9848 11.7168 17.9497C11.4723 17.9038 11.2573 17.7854 11.1797 17.7465L1.53711 12.9262C1.02595 12.6706 0.818846 12.0488 1.07422 11.5376C1.32985 11.0263 1.95162 10.819 2.46289 11.0747L12 15.8422L21.5371 11.0747ZM12.1416 1.03072L12.2832 1.05025L12.459 1.09615C12.6264 1.15051 12.762 1.22422 12.8203 1.25337L22.4629 6.07466C22.8134 6.25001 23.0352 6.60848 23.0352 7.00044C23.035 7.39231 22.8134 7.75097 22.4629 7.92622L12.8203 12.7465C12.7427 12.7854 12.5277 12.9038 12.2832 12.9497C12.0961 12.9848 11.9039 12.9848 11.7168 12.9497C11.4723 12.9038 11.2573 12.7854 11.1797 12.7465L1.53711 7.92622C1.18659 7.75097 0.965003 7.39231 0.964844 7.00044C0.964844 6.60848 1.18657 6.25001 1.53711 6.07466L11.1797 1.25337C11.2573 1.21453 11.4724 1.09614 11.7168 1.05025L11.8584 1.03072C11.9526 1.02199 12.0474 1.02199 12.1416 1.03072ZM4.31445 6.99947L12 10.8422L19.6846 6.99947L12 3.15767L4.31445 6.99947Z"/></svg>