<svg xmlns="http://www.w3.org/2000/svg" width="24" height="24" fill="none" viewBox="0 0 24 24"><path fill="currentColor" d="M21.5371 13.5747C22.0484 13.319 22.6701 13.5263 22.9258 14.0376C23.1812 14.5488 22.974 15.1706 22.4629 15.4262L12.8203 20.2465C12.7427 20.2854 12.5277 20.4038 12.2832 20.4497C12.0961 20.4848 11.9039 20.4848 11.7168 20.4497C11.4723 20.4038 11.2573 20.2854 11.1797 20.2465L1.53711 15.4262C1.02595 15.1706 0.818846 14.5488 1.07422 14.0376C1.32985 13.5263 1.95162 13.319 2.46289 13.5747L12 18.3422L21.5371 13.5747ZM12.1416 3.53072L12.2832 3.55025L12.459 3.59615C12.6264 3.65051 12.762 3.72422 12.8203 3.75337L22.4629 8.57466C22.8134 8.75001 23.0352 9.10848 23.0352 9.50044C23.035 9.89231 22.8134 10.251 22.4629 10.4262L12.8203 15.2465C12.7427 15.2854 12.5277 15.4038 12.2832 15.4497C12.0961 15.4848 11.9039 15.4848 11.7168 15.4497C11.4723 15.4038 11.2573 15.2854 11.1797 15.2465L1.53711 10.4262C1.18659 10.251 0.965003 9.89231 0.964844 9.50044C0.964844 9.10848 1.18657 8.75001 1.53711 8.57466L11.1797 3.75337C11.2573 3.71453 11.4724 3.59614 11.7168 3.55025L11.8584 3.53072C11.9526 3.52199 12.0474 3.52199 12.1416 3.53072ZM4.31445 9.49947L12 13.3422L19.6846 9.49947L12 5.65767L4.31445 9.49947Z"/></svg>