<svg xmlns="http://www.w3.org/2000/svg" width="24" height="24" fill="none" viewBox="0 0 24 24"><path fill="currentColor" d="M12.1416 3.53072L12.2832 3.55025L12.459 3.59615C12.6264 3.65051 12.762 3.72422 12.8203 3.75337L22.4629 8.57466C22.8134 8.75001 23.0352 9.10848 23.0352 9.50044C23.035 9.89231 22.8134 10.251 22.4629 10.4262L19.3135 11.9995L22.4629 13.5747C22.8134 13.75 23.0352 14.1085 23.0352 14.5004C23.035 14.8923 22.8134 15.251 22.4629 15.4262L12.8203 20.2465C12.7427 20.2854 12.5277 20.4038 12.2832 20.4497C12.0961 20.4848 11.9039 20.4848 11.7168 20.4497C11.4723 20.4038 11.2573 20.2854 11.1797 20.2465L1.53711 15.4262C1.18659 15.251 0.965003 14.8923 0.964844 14.5004C0.964844 14.1085 1.18657 13.75 1.53711 13.5747L4.68555 11.9995L1.53711 10.4262C1.18659 10.251 0.965003 9.89231 0.964844 9.50044C0.964844 9.10848 1.18657 8.75001 1.53711 8.57466L11.1797 3.75337C11.2573 3.71453 11.4724 3.59614 11.7168 3.55025L11.8584 3.53072C11.9526 3.52199 12.0474 3.52199 12.1416 3.53072ZM12.8203 15.2465C12.7427 15.2854 12.5277 15.4038 12.2832 15.4497C12.0961 15.4848 11.9039 15.4848 11.7168 15.4497C11.4723 15.4038 11.2573 15.2854 11.1797 15.2465L7 13.1567L4.31445 14.4995L12 18.3422L19.6846 14.4995L16.999 13.1567L12.8203 15.2465ZM4.31445 9.49947L12 13.3422L19.6846 9.49947L12 5.65767L4.31445 9.49947Z"/></svg>