<svg xmlns="http://www.w3.org/2000/svg" width="24" height="24" fill="none" viewBox="0 0 24 24"><path fill="currentColor" d="M12.1416 6.03072L12.2832 6.05025L12.459 6.09615C12.6264 6.15051 12.762 6.22422 12.8203 6.25337L22.4629 11.0747C22.8134 11.25 23.0352 11.6085 23.0352 12.0004C23.035 12.3923 22.8134 12.751 22.4629 12.9262L12.8203 17.7465C12.7427 17.7854 12.5277 17.9038 12.2832 17.9497C12.0961 17.9848 11.9039 17.9848 11.7168 17.9497C11.4723 17.9038 11.2573 17.7854 11.1797 17.7465L1.53711 12.9262C1.18659 12.751 0.965003 12.3923 0.964844 12.0004C0.964844 11.6085 1.18657 11.25 1.53711 11.0747L11.1797 6.25337C11.2573 6.21453 11.4724 6.09614 11.7168 6.05025L11.8584 6.03072C11.9526 6.02199 12.0474 6.02199 12.1416 6.03072ZM4.31445 11.9995L12 15.8422L19.6846 11.9995L12 8.15767L4.31445 11.9995Z"/></svg>