<svg xmlns="http://www.w3.org/2000/svg" width="24" height="24" fill="none" viewBox="0 0 24 24"><path fill="currentColor" d="M21 18.9648C21.5716 18.9648 22.0352 19.4284 22.0352 20C22.0351 20.5716 21.5716 21.0352 21 21.0352H3.00001C2.42841 21.0352 1.96488 20.5716 1.96485 20C1.96485 19.4284 2.4284 18.9648 3.00001 18.9648H21ZM21 13.7148C21.5716 13.7148 22.0352 14.1784 22.0352 14.75C22.0351 15.3216 21.5716 15.7852 21 15.7852H3.00001C2.42841 15.7852 1.96488 15.3216 1.96485 14.75C1.96485 14.1784 2.4284 13.7148 3.00001 13.7148H21ZM3.61329 1.4707C3.94175 1.50008 4.19702 1.6446 4.3379 1.73145C4.51224 1.83895 4.71189 1.98972 4.90138 2.13184L8.76759 5.03223C8.89692 5.12922 9.04969 5.24253 9.17091 5.35156C9.28123 5.4508 9.43898 5.6089 9.55177 5.83984L9.59767 5.94336L9.64259 6.0791C9.73406 6.39986 9.7195 6.74337 9.59767 7.05664C9.48557 7.34477 9.29701 7.53501 9.17091 7.64844C9.04967 7.75748 8.89693 7.87077 8.76759 7.96777L4.90138 10.8682C4.71189 11.0103 4.51224 11.1611 4.3379 11.2686C4.17687 11.3678 3.86616 11.5425 3.46778 11.5342C3.00726 11.5245 2.57501 11.309 2.29103 10.9463C2.04528 10.6323 1.9996 10.2781 1.98243 10.0898C1.96388 9.88608 1.96485 9.63694 1.96485 9.40039V3.59961C1.96485 3.36286 1.96384 3.11305 1.98243 2.90918C1.99963 2.72086 2.04551 2.36742 2.29103 2.05371L2.40431 1.9248C2.68353 1.6402 3.0647 1.47331 3.46778 1.46484L3.61329 1.4707ZM21 8.21484C21.5716 8.21484 22.0352 8.67839 22.0352 9.25C22.0351 9.82159 21.5716 10.2852 21 10.2852H12C11.4284 10.2852 10.9649 9.82159 10.9649 9.25C10.9649 8.67839 11.4284 8.21484 12 8.21484H21ZM4.03517 8.92969L7.27442 6.49902L4.03517 4.06934V8.92969ZM21 2.96484C21.5716 2.96484 22.0352 3.42839 22.0352 4C22.0351 4.57159 21.5716 5.03516 21 5.03516H12C11.4284 5.03516 10.9649 4.57159 10.9649 4C10.9649 3.42839 11.4284 2.96484 12 2.96484H21Z"/></svg>