<svg xmlns="http://www.w3.org/2000/svg" width="24" height="24" fill="none" viewBox="0 0 24 24"><path fill="currentColor" d="M21 18.9648C21.5716 18.9648 22.0352 19.4284 22.0352 20C22.0352 20.5716 21.5716 21.0352 21 21.0352H3.00001C2.4284 21.0352 1.96485 20.5716 1.96485 20C1.96485 19.4284 2.4284 18.9648 3.00001 18.9648H21ZM3.61329 7.07031C3.94196 7.0997 4.19706 7.2452 4.3379 7.33203C4.51224 7.43953 4.71189 7.59031 4.90138 7.73242L8.76759 10.6318C8.89689 10.7288 9.04969 10.8422 9.17091 10.9512C9.2813 11.0505 9.43894 11.2092 9.55177 11.4404L9.59767 11.5439L9.64259 11.6797C9.73388 12.0002 9.71935 12.3432 9.59767 12.6562C9.48557 12.9445 9.29703 13.1356 9.17091 13.249C9.0497 13.358 8.89685 13.4714 8.76759 13.5684L4.90138 16.4678C4.71189 16.6099 4.51224 16.7607 4.3379 16.8682C4.17692 16.9674 3.86632 17.1431 3.46778 17.1348C3.00726 17.1251 2.57501 16.9086 2.29103 16.5459C2.04551 16.2321 1.9996 15.8786 1.98243 15.6904C1.96383 15.4865 1.96485 15.2369 1.96485 15V9.2002C1.96485 8.96338 1.96384 8.71372 1.98243 8.50977C1.9996 8.3215 2.04515 7.96733 2.29103 7.65332L2.40431 7.52441C2.68351 7.23995 3.06481 7.07389 3.46778 7.06543L3.61329 7.07031ZM21 13.7148C21.5716 13.7148 22.0352 14.1784 22.0352 14.75C22.0352 15.3216 21.5716 15.7852 21 15.7852H12C11.4284 15.7852 10.9649 15.3216 10.9649 14.75C10.9649 14.1784 11.4284 13.7148 12 13.7148H21ZM4.03517 14.5293L7.27442 12.0996L4.03517 9.66895V14.5293ZM21 8.21484C21.5716 8.21484 22.0352 8.67839 22.0352 9.25C22.0352 9.82161 21.5716 10.2852 21 10.2852H12C11.4284 10.2852 10.9649 9.82161 10.9649 9.25C10.9649 8.67839 11.4284 8.21484 12 8.21484H21ZM21 2.96484C21.5716 2.96484 22.0352 3.42839 22.0352 4C22.0352 4.57161 21.5716 5.03516 21 5.03516H3.00001C2.4284 5.03516 1.96485 4.57161 1.96485 4C1.96485 3.42839 2.4284 2.96484 3.00001 2.96484H21Z"/></svg>