<svg xmlns="http://www.w3.org/2000/svg" width="24" height="24" fill="none" viewBox="0 0 24 24"><path fill="currentColor" d="M18.2685 14.2686C18.6727 13.8644 19.3272 13.8644 19.7314 14.2686L22.7314 17.2686C23.1356 17.6727 23.1356 18.3273 22.7314 18.7314L19.7314 21.7314C19.3272 22.1356 18.6727 22.1356 18.2685 21.7314C17.8643 21.3273 17.8643 20.6727 18.2685 20.2686L19.5019 19.0352H4.49797L5.73137 20.2686C6.13556 20.6727 6.13556 21.3273 5.73137 21.7314C5.32717 22.1356 4.67267 22.1356 4.26848 21.7314L1.26848 18.7314C0.864284 18.3273 0.864284 17.6727 1.26848 17.2686L4.26848 14.2686C4.67267 13.8644 5.32717 13.8644 5.73137 14.2686C6.13556 14.6727 6.13556 15.3273 5.73137 15.7314L4.49797 16.9648H19.5019L18.2685 15.7314C17.8643 15.3273 17.8643 14.6727 18.2685 14.2686ZM10.9648 14V4.03516H6.99992C6.42831 4.03516 5.96477 3.57161 5.96477 3C5.96477 2.42839 6.42831 1.96484 6.99992 1.96484H16.9999C17.5715 1.96484 18.0351 2.42839 18.0351 3C18.0351 3.57161 17.5715 4.03516 16.9999 4.03516H13.0351V14C13.0351 14.5716 12.5715 15.0352 11.9999 15.0352C11.4283 15.0352 10.9648 14.5716 10.9648 14Z"/></svg>