<svg xmlns="http://www.w3.org/2000/svg" width="24" height="24" fill="none" viewBox="0 0 24 24"><path fill="currentColor" d="M1.96484 21V3C1.96484 2.42839 2.42839 1.96484 3 1.96484C3.57161 1.96484 4.03516 2.42839 4.03516 3V21C4.03516 21.5716 3.57161 22.0352 3 22.0352C2.42839 22.0352 1.96484 21.5716 1.96484 21ZM19.9648 21V3C19.9648 2.42839 20.4284 1.96484 21 1.96484C21.5716 1.96484 22.0352 2.42839 22.0352 3V21C22.0352 21.5716 21.5716 22.0352 21 22.0352C20.4284 22.0352 19.9648 21.5716 19.9648 21ZM11.3213 5.83105C11.6954 5.64679 12.1264 5.62357 12.5146 5.76172L12.6787 5.83105L12.8115 5.90723C13.1033 6.09623 13.2651 6.36335 13.3477 6.50879C13.4541 6.69623 13.5638 6.9381 13.6709 7.17383L17.9424 16.5713C18.1789 17.0916 17.9489 17.7057 17.4287 17.9424C16.9084 18.1789 16.2943 17.9489 16.0576 17.4287L14.5156 14.0352H9.48438L7.94238 17.4287C7.70575 17.9489 7.09157 18.1789 6.57129 17.9424C6.05112 17.7057 5.82113 17.0916 6.05762 16.5713L10.3291 7.17383C10.4362 6.9381 10.5459 6.69623 10.6523 6.50879C10.7467 6.34258 10.9442 6.0169 11.3213 5.83105ZM10.4258 11.9648H13.5742L12 8.5L10.4258 11.9648Z"/></svg>