<svg xmlns="http://www.w3.org/2000/svg" width="24" height="24" fill="none" viewBox="0 0 24 24"><g clip-path="url(#a)"><path fill="currentColor" d="M5.96484 12C5.96484 10.7073 6.37244 9.51033 7.06445 8.52832L4.97266 6.43652C3.76063 7.9654 3.03516 9.89745 3.03516 12C3.03516 14.1023 3.76092 16.0337 4.97266 17.5625L7.06445 15.4707C6.37272 14.4888 5.96484 13.2924 5.96484 12ZM15.4707 16.9346C14.4887 17.6265 13.2926 18.0352 12 18.0352C10.7071 18.0352 9.51041 17.6268 8.52832 16.9346L6.43652 19.0264C7.96547 20.2386 9.89723 20.9648 12 20.9648C14.1025 20.9648 16.0336 20.2383 17.5625 19.0264L15.4707 16.9346ZM12 3.03516C9.89745 3.03516 7.9654 3.76063 6.43652 4.97266L8.52832 7.06445C9.51033 6.37244 10.7073 5.96484 12 5.96484C13.2924 5.96484 14.4888 6.37272 15.4707 7.06445L17.5625 4.97266C16.0337 3.76092 14.1023 3.03516 12 3.03516ZM8.03516 12C8.03516 14.1898 9.81019 15.9648 12 15.9648C14.1898 15.9648 15.9648 14.1898 15.9648 12C15.9648 9.81019 14.1898 8.03516 12 8.03516C9.81019 8.03516 8.03516 9.81019 8.03516 12ZM18.0352 12C18.0352 13.2926 17.6265 14.4887 16.9346 15.4707L19.0264 17.5625C20.2383 16.0336 20.9648 14.1025 20.9648 12C20.9648 9.89723 20.2386 7.96547 19.0264 6.43652L16.9346 8.52832C17.6268 9.51041 18.0352 10.7071 18.0352 12ZM23.0352 12C23.0352 18.0945 18.0945 23.0352 12 23.0352C5.90554 23.0352 0.964844 18.0945 0.964844 12C0.964844 5.90554 5.90554 0.964844 12 0.964844C18.0945 0.964844 23.0352 5.90554 23.0352 12Z"/></g><defs><clipPath id="a"><path fill="#fff" d="M0 0H24V24H0z"/></clipPath></defs></svg>