<svg xmlns="http://www.w3.org/2000/svg" width="24" height="24" fill="none" viewBox="0 0 24 24"><g clip-path="url(#a)"><path fill="currentColor" d="M6.96484 12C6.96484 10.9841 7.26673 10.0391 7.78418 9.24805L4.97266 6.43652C3.76063 7.9654 3.03516 9.89745 3.03516 12C3.03516 14.1023 3.76092 16.0337 4.97266 17.5625L7.78418 14.752C7.26673 13.9609 6.96484 13.0159 6.96484 12ZM6.43652 19.0264C7.96547 20.2386 9.89723 20.9648 12 20.9648C14.102 20.9648 16.0328 20.2388 17.5615 19.0273L14.749 16.2158C13.9584 16.7324 13.015 17.0352 12 17.0352C10.9837 17.0352 10.0384 16.7327 9.24707 16.2148L6.43652 19.0264ZM12 3.03516C9.89745 3.03516 7.9654 3.76063 6.43652 4.97266L9.24805 7.78418C10.0391 7.26673 10.9841 6.96484 12 6.96484C13.0148 6.96484 13.9584 7.26675 14.749 7.7832L17.5615 4.97168C16.0329 3.76045 14.1018 3.03516 12 3.03516ZM9.03516 12C9.03516 13.6375 10.3625 14.9648 12 14.9648C13.6375 14.9648 14.9648 13.6375 14.9648 12C14.9648 10.3625 13.6375 9.03516 12 9.03516C10.3625 9.03516 9.03516 10.3625 9.03516 12ZM17.0352 12C17.0352 13.0165 16.732 13.9615 16.2139 14.7529L19.0254 17.5645C20.2382 16.0353 20.9648 14.1033 20.9648 12C20.9648 9.89646 20.2384 7.96378 19.0254 6.43457L16.2139 9.24609C16.7322 10.0376 17.0352 10.9832 17.0352 12ZM23.0352 12C23.0352 18.0945 18.0945 23.0352 12 23.0352C5.90554 23.0352 0.964844 18.0945 0.964844 12C0.964844 5.90554 5.90554 0.964844 12 0.964844C18.0945 0.964844 23.0352 5.90554 23.0352 12Z"/></g><defs><clipPath id="a"><path fill="#fff" d="M0 0H24V24H0z"/></clipPath></defs></svg>