<svg xmlns="http://www.w3.org/2000/svg" width="24" height="24" fill="none" viewBox="0 0 24 24"><g clip-path="url(#a)"><path fill="currentColor" d="M12.9648 18.9668C12.6493 19.0101 12.3274 19.0352 12 19.0352C11.6726 19.0352 11.3507 19.0101 11.0352 18.9668V20C11.0352 20.533 11.467 20.9648 12 20.9648C12.533 20.9648 12.9648 20.533 12.9648 20V18.9668ZM3 10.9648C3.57161 10.9648 4.03516 11.4284 4.03516 12C4.03516 12.5716 3.57161 13.0352 3 13.0352H2C1.42839 13.0352 0.964844 12.5716 0.964844 12C0.964844 11.4284 1.42839 10.9648 2 10.9648H3ZM22 10.9648C22.5716 10.9648 23.0352 11.4284 23.0352 12C23.0352 12.5716 22.5716 13.0352 22 13.0352H21C20.4284 13.0352 19.9648 12.5716 19.9648 12C19.9648 11.4284 20.4284 10.9648 21 10.9648H22ZM4.16797 4.16797C4.57216 3.76378 5.22764 3.76378 5.63184 4.16797L6.23145 4.76855C6.63564 5.17275 6.63564 5.82725 6.23145 6.23145C5.82725 6.63564 5.17275 6.63564 4.76855 6.23145L4.16797 5.63184C3.76378 5.22764 3.76378 4.57216 4.16797 4.16797ZM18.3682 4.16797C18.7724 3.76388 19.4279 3.76389 19.832 4.16797C20.2362 4.57221 20.2363 5.22769 19.832 5.63184L19.2314 6.23242C18.8272 6.63617 18.1716 6.63556 17.7676 6.23145C17.3638 5.82717 17.3644 5.17159 17.7686 4.76758L18.3682 4.16797ZM10.9648 3V2C10.9648 1.42839 11.4284 0.964844 12 0.964844C12.5716 0.964844 13.0352 1.42839 13.0352 2V3C13.0352 3.57161 12.5716 4.03516 12 4.03516C11.4284 4.03516 10.9648 3.57161 10.9648 3ZM16.9648 12C16.9648 9.25791 14.7421 7.03516 12 7.03516C9.25791 7.03516 7.03516 9.25791 7.03516 12C7.03516 14.7421 9.25791 16.9648 12 16.9648C14.7421 16.9648 16.9648 14.7421 16.9648 12ZM19.0352 12C19.0352 14.7982 17.4007 17.2134 15.0352 18.3467V20C15.0352 21.6762 13.6762 23.0352 12 23.0352C10.3238 23.0352 8.96484 21.6762 8.96484 20V18.3467C6.5993 17.2134 4.96484 14.7982 4.96484 12C4.96484 8.11468 8.11468 4.96484 12 4.96484C15.8853 4.96484 19.0352 8.11468 19.0352 12Z"/></g><defs><clipPath id="a"><path fill="#fff" d="M0 0H24V24H0z"/></clipPath></defs></svg>