<svg xmlns="http://www.w3.org/2000/svg" width="24" height="24" fill="none" viewBox="0 0 24 24"><path fill="currentColor" d="M14.2501 0.964941C14.5893 0.965096 14.9074 1.1314 15.1006 1.41025C15.294 1.68922 15.3379 2.04557 15.2188 2.36338L13.4932 6.96494H19.1172C19.3928 6.96494 19.6702 6.96369 19.8926 6.9835C20.06 6.99841 20.3842 7.03538 20.6856 7.23252L20.8135 7.32725L20.9444 7.45225C21.232 7.76003 21.3825 8.17506 21.3545 8.60068C21.3259 9.03558 21.0836 9.35239 20.9629 9.50205C20.8227 9.67607 20.629 9.87579 20.4376 10.0743L8.24419 22.7188C7.91261 23.0624 7.38876 23.1348 6.97661 22.8937C6.56443 22.6524 6.37062 22.1597 6.50786 21.7022L9.10747 13.0353H4.294C4.09989 13.0353 3.88285 13.0363 3.70122 13.0196C3.52107 13.0031 3.2165 12.9592 2.92876 12.7579C2.58287 12.516 2.35185 12.1423 2.29009 11.7247C2.23876 11.3773 2.33561 11.0846 2.40142 10.9161C2.46777 10.7463 2.56563 10.5525 2.6524 10.379L6.85259 1.97959C6.8993 1.88617 7.02104 1.61242 7.23443 1.40342L7.36236 1.29111C7.49601 1.18651 7.6465 1.10456 7.80767 1.04893L7.91411 1.01768C8.16206 0.954934 8.40277 0.964941 8.49419 0.964941H14.2501ZM4.67388 10.9649H10.5001C10.827 10.9651 11.1349 11.1197 11.3301 11.3819C11.5254 11.6444 11.5853 11.9846 11.4913 12.2979L9.71782 18.2081L18.5635 9.03525H12.0001C11.6606 9.03525 11.3418 8.86893 11.1485 8.58994C10.9552 8.31098 10.9112 7.95462 11.0303 7.63682L12.7559 3.03525H8.63872L4.67388 10.9649Z"/></svg>