<svg xmlns="http://www.w3.org/2000/svg" width="24" height="24" fill="none" viewBox="0 0 24 24"><path fill="currentColor" d="M14.5 20.9648C15.0716 20.9648 15.5352 21.4284 15.5352 22C15.5352 22.5716 15.0716 23.0352 14.5 23.0352H9.5C8.92839 23.0352 8.46484 22.5716 8.46484 22C8.46484 21.4284 8.92839 20.9648 9.5 20.9648H14.5ZM17.9648 9C17.9648 5.70562 15.2944 3.03516 12 3.03516C8.70562 3.03516 6.03516 5.70562 6.03516 9C6.03516 11.378 7.42666 13.4331 9.44434 14.3916C9.80505 14.5631 10.0351 14.9268 10.0352 15.3262V16C10.0352 16.4798 10.0357 16.788 10.0518 17.0234C10.0672 17.2494 10.0932 17.3324 10.1084 17.3691C10.2063 17.6056 10.3944 17.7937 10.6309 17.8916C10.6676 17.9068 10.7506 17.9328 10.9766 17.9482C11.212 17.9643 11.5202 17.9648 12 17.9648C12.4798 17.9648 12.788 17.9643 13.0234 17.9482C13.2494 17.9328 13.3324 17.9068 13.3691 17.8916C13.6056 17.7937 13.7937 17.6056 13.8916 17.3691C13.9068 17.3324 13.9328 17.2494 13.9482 17.0234C13.9643 16.788 13.9648 16.4798 13.9648 16V15.3262C13.9649 14.9268 14.195 14.5631 14.5557 14.3916C16.5733 13.4331 17.9648 11.378 17.9648 9ZM10.9648 16V11.0352H10C9.42839 11.0352 8.96484 10.5716 8.96484 10C8.96484 9.42839 9.42839 8.96484 10 8.96484H14C14.5716 8.96484 15.0352 9.42839 15.0352 10C15.0352 10.5716 14.5716 11.0352 14 11.0352H13.0352V16C13.0352 16.5716 12.5716 17.0352 12 17.0352C11.4284 17.0352 10.9648 16.5716 10.9648 16ZM20.0352 9C20.0352 11.968 18.4251 14.5574 16.0352 15.9482V16C16.0352 16.4518 16.0357 16.8427 16.0137 17.165C15.991 17.4965 15.9407 17.8304 15.8037 18.1611C15.4957 18.9048 14.9048 19.4957 14.1611 19.8037C13.8304 19.9407 13.4965 19.991 13.165 20.0137C12.8427 20.0357 12.4518 20.0352 12 20.0352C11.5482 20.0352 11.1573 20.0357 10.835 20.0137C10.5035 19.991 10.1696 19.9407 9.83887 19.8037C9.09521 19.4957 8.50432 18.9048 8.19629 18.1611C8.05931 17.8304 8.00896 17.4965 7.98633 17.165C7.96434 16.8427 7.96484 16.4518 7.96484 16V15.9482C5.57487 14.5574 3.96484 11.968 3.96484 9C3.96484 4.56239 7.56239 0.964844 12 0.964844C16.4376 0.964844 20.0352 4.56239 20.0352 9Z"/></svg>