<svg xmlns="http://www.w3.org/2000/svg" width="24" height="24" fill="none" viewBox="0 0 24 24"><g clip-path="url(#a)"><path fill="currentColor" d="M16.9648 12C16.9648 9.25791 14.7421 7.03516 12 7.03516C9.25791 7.03516 7.03516 9.25791 7.03516 12C7.03516 13.6604 7.84914 15.1311 9.10449 16.0342C9.37468 16.2287 9.53516 16.5411 9.53516 16.874V18.7998C9.53516 19.3769 9.53559 19.7477 9.55859 20.0293C9.58061 20.2988 9.61837 20.3948 9.64062 20.4385C9.73308 20.6197 9.88033 20.7669 10.0615 20.8594C10.1052 20.8816 10.2012 20.9194 10.4707 20.9414C10.7523 20.9644 11.1231 20.9648 11.7002 20.9648H12.2998C12.8769 20.9648 13.2477 20.9644 13.5293 20.9414C13.7988 20.9194 13.8948 20.8816 13.9385 20.8594C14.1197 20.7669 14.2669 20.6197 14.3594 20.4385C14.3816 20.3948 14.4194 20.2988 14.4414 20.0293C14.4644 19.7477 14.4648 19.3769 14.4648 18.7998V16.874C14.4648 16.5411 14.6253 16.2287 14.8955 16.0342C16.1509 15.1311 16.9648 13.6604 16.9648 12ZM10.9648 18.5V14.5352H10C9.42839 14.5352 8.96484 14.0716 8.96484 13.5C8.96484 12.9284 9.42839 12.4648 10 12.4648H14C14.5716 12.4648 15.0352 12.9284 15.0352 13.5C15.0352 14.0716 14.5716 14.5352 14 14.5352H13.0352V18.5C13.0352 19.0716 12.5716 19.5352 12 19.5352C11.4284 19.5352 10.9648 19.0716 10.9648 18.5ZM3 10.9648C3.57161 10.9648 4.03516 11.4284 4.03516 12C4.03516 12.5716 3.57161 13.0352 3 13.0352H2C1.42839 13.0352 0.964844 12.5716 0.964844 12C0.964844 11.4284 1.42839 10.9648 2 10.9648H3ZM22 10.9648C22.5716 10.9648 23.0352 11.4284 23.0352 12C23.0352 12.5716 22.5716 13.0352 22 13.0352H21C20.4284 13.0352 19.9648 12.5716 19.9648 12C19.9648 11.4284 20.4284 10.9648 21 10.9648H22ZM4.16797 4.16797C4.57216 3.76378 5.22764 3.76378 5.63184 4.16797L6.23145 4.76855C6.63564 5.17275 6.63564 5.82725 6.23145 6.23145C5.82725 6.63564 5.17275 6.63564 4.76855 6.23145L4.16797 5.63184C3.76378 5.22764 3.76378 4.57216 4.16797 4.16797ZM18.3682 4.16797C18.7724 3.76388 19.4279 3.76389 19.832 4.16797C20.2362 4.57221 20.2363 5.22769 19.832 5.63184L19.2314 6.23242C18.8272 6.63617 18.1716 6.63556 17.7676 6.23145C17.3638 5.82717 17.3644 5.17159 17.7686 4.76758L18.3682 4.16797ZM10.9648 3V2C10.9648 1.42839 11.4284 0.964844 12 0.964844C12.5716 0.964844 13.0352 1.42839 13.0352 2V3C13.0352 3.57161 12.5716 4.03516 12 4.03516C11.4284 4.03516 10.9648 3.57161 10.9648 3ZM19.0352 12C19.0352 14.1571 18.0612 16.0848 16.5352 17.374V18.7998C16.5352 19.3428 16.5354 19.8128 16.5039 20.1982C16.4714 20.5956 16.3998 20.9939 16.2041 21.3779C15.9131 21.9489 15.4489 22.4131 14.8779 22.7041C14.4939 22.8998 14.0956 22.9714 13.6982 23.0039C13.3128 23.0354 12.8428 23.0352 12.2998 23.0352H11.7002C11.1572 23.0352 10.6872 23.0354 10.3018 23.0039C9.90438 22.9714 9.50608 22.8998 9.12207 22.7041C8.55107 22.4131 8.08686 21.9489 7.7959 21.3779C7.60024 20.9939 7.52859 20.5956 7.49609 20.1982C7.4646 19.8128 7.46484 19.3428 7.46484 18.7998V17.374C5.93877 16.0848 4.96484 14.1571 4.96484 12C4.96484 8.11468 8.11468 4.96484 12 4.96484C15.8853 4.96484 19.0352 8.11468 19.0352 12Z"/></g><defs><clipPath id="a"><path fill="#fff" d="M0 0H24V24H0z"/></clipPath></defs></svg>