<svg xmlns="http://www.w3.org/2000/svg" width="24" height="24" fill="none" viewBox="0 0 24 24"><path fill="currentColor" d="M13.9648 17.5352H10.0352V19C10.0352 19.4798 10.0357 19.788 10.0518 20.0234C10.0672 20.2494 10.0932 20.3324 10.1084 20.3691C10.2063 20.6056 10.3944 20.7937 10.6309 20.8916C10.6676 20.9068 10.7506 20.9328 10.9766 20.9482C11.212 20.9643 11.5202 20.9648 12 20.9648C12.4798 20.9648 12.788 20.9643 13.0234 20.9482C13.2493 20.9328 13.3324 20.9068 13.3691 20.8916C13.6056 20.7937 13.7937 20.6056 13.8916 20.3691C13.9068 20.3324 13.9328 20.2493 13.9482 20.0234C13.9643 19.788 13.9648 19.4798 13.9648 19V17.5352ZM18.4648 9.5C18.4648 5.92948 15.5705 3.03516 12 3.03516C8.42948 3.03516 5.53516 5.92948 5.53516 9.5C5.53516 12.0941 7.05796 14.4264 9.22559 15.4648H14.7744C16.942 14.4264 18.4648 12.0941 18.4648 9.5ZM20.5352 9.5C20.5352 12.7387 18.7261 15.6824 16.0352 17.1436V19C16.0352 19.4518 16.0357 19.8427 16.0137 20.165C15.991 20.4965 15.9407 20.8304 15.8037 21.1611C15.4957 21.9048 14.9048 22.4957 14.1611 22.8037C13.8304 22.9407 13.4965 22.991 13.165 23.0137C12.8427 23.0357 12.4518 23.0352 12 23.0352C11.5482 23.0352 11.1573 23.0357 10.835 23.0137C10.5035 22.991 10.1696 22.9407 9.83887 22.8037C9.09521 22.4957 8.50432 21.9048 8.19629 21.1611C8.05932 20.8304 8.00896 20.4965 7.98633 20.165C7.96434 19.8427 7.96484 19.4518 7.96484 19V17.1436C5.27394 15.6824 3.46484 12.7387 3.46484 9.5C3.46484 4.78625 7.28625 0.964844 12 0.964844C16.7137 0.964844 20.5352 4.78625 20.5352 9.5Z"/></svg>