<svg xmlns="http://www.w3.org/2000/svg" width="24" height="24" fill="none" viewBox="0 0 24 24"><path fill="currentColor" d="M1.96484 19.4004V3C1.96484 2.42839 2.42839 1.96484 3 1.96484C3.57161 1.96484 4.03516 2.42839 4.03516 3V19.4004C4.03516 19.6825 4.03582 19.8415 4.04395 19.9551C4.15762 19.9633 4.31662 19.9648 4.59961 19.9648H21C21.5716 19.9648 22.0352 20.4284 22.0352 21C22.0352 21.5716 21.5716 22.0352 21 22.0352H4.59961C4.33696 22.0352 4.07785 22.0354 3.85938 22.0176C3.62866 21.9987 3.3533 21.9546 3.07617 21.8135C2.69326 21.6184 2.38163 21.3067 2.18652 20.9238C2.04535 20.6467 2.00127 20.3713 1.98242 20.1406C1.9646 19.9221 1.96484 19.663 1.96484 19.4004ZM22.0352 11C22.0352 11.5716 21.5716 12.0352 21 12.0352C20.4284 12.0352 19.9648 11.5716 19.9648 11V9.49805L16.2979 13.166C16.2109 13.2529 16.1015 13.3633 15.998 13.4512C15.8853 13.5468 15.713 13.6754 15.4746 13.7529C15.1663 13.8531 14.8337 13.8531 14.5254 13.7529C14.287 13.6754 14.1147 13.5468 14.002 13.4512C13.8985 13.3633 13.7891 13.2529 13.7021 13.166L11.999 11.4629L7.73145 15.7314C7.32725 16.1356 6.67275 16.1356 6.26855 15.7314C5.86436 15.3273 5.86436 14.6727 6.26855 14.2686L10.7021 9.83398C10.7891 9.74706 10.8985 9.63668 11.002 9.54883C11.1147 9.4532 11.287 9.32455 11.5254 9.24707C11.7951 9.15944 12.0832 9.14915 12.3574 9.21484L12.4746 9.24707L12.6416 9.31348C12.7957 9.38674 12.9136 9.47717 12.998 9.54883C13.1015 9.63668 13.2109 9.74706 13.2979 9.83398L15 11.5361L18.502 8.03516H17C16.4284 8.03516 15.9648 7.57161 15.9648 7C15.9648 6.42839 16.4284 5.96484 17 5.96484H21C21.5716 5.96484 22.0352 6.42839 22.0352 7V11Z"/></svg>