<svg xmlns="http://www.w3.org/2000/svg" width="24" height="24" fill="none" viewBox="0 0 24 24"><path fill="currentColor" d="M1.96484 19.4004V3C1.96484 2.42839 2.42839 1.96484 3 1.96484C3.57161 1.96484 4.03516 2.42839 4.03516 3V19.4004C4.03516 19.6825 4.03582 19.8415 4.04395 19.9551C4.15762 19.9633 4.31662 19.9648 4.59961 19.9648H21C21.5716 19.9648 22.0352 20.4284 22.0352 21C22.0352 21.5716 21.5716 22.0352 21 22.0352H4.59961C4.33696 22.0352 4.07785 22.0354 3.85938 22.0176C3.62866 21.9987 3.3533 21.9546 3.07617 21.8135C2.69326 21.6184 2.38163 21.3067 2.18652 20.9238C2.04535 20.6467 2.00127 20.3713 1.98242 20.1406C1.9646 19.9221 1.96484 19.663 1.96484 19.4004ZM6.29199 7.24512C6.70899 6.85441 7.36401 6.87524 7.75488 7.29199L11.5518 11.3447L14.6514 9.73535C14.7615 9.67817 15.0723 9.49651 15.4229 9.46484L15.6221 9.45996C15.7546 9.46525 15.8859 9.48732 16.0127 9.52637L16.1992 9.59766L16.3154 9.65723C16.575 9.809 16.7614 10.0298 16.8359 10.1094L20.7549 14.292C21.1456 14.709 21.1248 15.364 20.708 15.7549C20.291 16.1456 19.636 16.1248 19.2451 15.708L15.4473 11.6543L12.3486 13.2646C12.2385 13.3218 11.9277 13.5035 11.5771 13.5352C11.3113 13.5591 11.0435 13.5133 10.8008 13.4023C10.4811 13.2561 10.2492 12.9816 10.1641 12.8906L6.24512 8.70801C5.85441 8.29101 5.87524 7.63599 6.29199 7.24512Z"/></svg>