<svg xmlns="http://www.w3.org/2000/svg" width="24" height="24" fill="none" viewBox="0 0 24 24"><path fill="currentColor" d="M19.9648 15.5312L14.1113 11.3516L11.0312 14.4326C10.5006 14.963 9.66423 15.0318 9.05371 14.5957L4.03516 11.0107V18C4.03516 19.0852 4.91476 19.9648 6 19.9648H18C19.0852 19.9648 19.9648 19.0852 19.9648 18V15.5312ZM19.9648 6C19.9648 4.91476 19.0852 4.03516 18 4.03516H6C4.91476 4.03516 4.03516 4.91476 4.03516 6V8.46777L9.8877 12.6475L12.9688 9.56738L13.0713 9.47363C13.5672 9.05985 14.2719 9.00165 14.8291 9.32812L14.9463 9.4043L19.9648 12.9883V6ZM22.0352 18C22.0352 20.2285 20.2285 22.0352 18 22.0352H6C3.77153 22.0352 1.96484 20.2285 1.96484 18V6C1.96484 3.77153 3.77153 1.96484 6 1.96484H18C20.2285 1.96484 22.0352 3.77153 22.0352 6V18Z"/></svg>