<svg xmlns="http://www.w3.org/2000/svg" width="24" height="24" fill="none" viewBox="0 0 24 24"><path fill="currentColor" d="M18.0352 13C18.0352 13.5716 17.5716 14.0352 17 14.0352C16.4284 14.0352 15.9648 13.5716 15.9648 13V11.498L12.2979 15.166C12.2109 15.2529 12.1015 15.3633 11.998 15.4512C11.8853 15.5468 11.713 15.6754 11.4746 15.7529C11.1663 15.8531 10.8337 15.8531 10.5254 15.7529C10.287 15.6754 10.1147 15.5468 10.002 15.4512C9.89847 15.3633 9.78908 15.2529 9.70215 15.166L7.99902 13.4629L4.04297 17.4189C4.04824 17.6737 4.05644 17.8922 4.07227 18.0859C4.10791 18.5222 4.17227 18.7419 4.24902 18.8926C4.43737 19.2621 4.73794 19.5626 5.10742 19.751C5.25807 19.8277 5.47781 19.8921 5.91406 19.9277C6.36234 19.9643 6.94287 19.9648 7.7998 19.9648H16.2002C17.0571 19.9648 17.6377 19.9643 18.0859 19.9277C18.5222 19.8921 18.7419 19.8277 18.8926 19.751C19.2621 19.5626 19.5626 19.2621 19.751 18.8926C19.8277 18.7419 19.8921 18.5222 19.9277 18.0859C19.9643 17.6377 19.9648 17.0571 19.9648 16.2002V7.7998C19.9648 6.94287 19.9643 6.36234 19.9277 5.91406C19.8921 5.47781 19.8277 5.25807 19.751 5.10742C19.5626 4.73794 19.2621 4.43737 18.8926 4.24902C18.7419 4.17227 18.5222 4.10791 18.0859 4.07227C17.6377 4.03565 17.0571 4.03516 16.2002 4.03516H7.7998C6.94287 4.03516 6.36234 4.03565 5.91406 4.07227C5.47781 4.10791 5.25807 4.17227 5.10742 4.24902C4.73794 4.43737 4.43737 4.73794 4.24902 5.10742C4.17227 5.25807 4.10791 5.47781 4.07227 5.91406C4.03565 6.36234 4.03516 6.94287 4.03516 7.7998V14.501L6.70215 11.834C6.78908 11.7471 6.89847 11.6367 7.00195 11.5488C7.11466 11.4532 7.28705 11.3246 7.52539 11.2471C7.79509 11.1594 8.08316 11.1491 8.35742 11.2148L8.47461 11.2471L8.6416 11.3135C8.79574 11.3867 8.91359 11.4772 8.99805 11.5488C9.10153 11.6367 9.21092 11.7471 9.29785 11.834L11 13.5361L14.502 10.0352H13C12.4284 10.0352 11.9648 9.57161 11.9648 9C11.9648 8.42839 12.4284 7.96484 13 7.96484H17C17.5716 7.96484 18.0352 8.42839 18.0352 9V13ZM22.0352 16.2002C22.0352 17.0231 22.0353 17.7027 21.9902 18.2549C21.9441 18.8191 21.8449 19.341 21.5947 19.832C21.2079 20.591 20.591 21.2079 19.832 21.5947C19.341 21.8449 18.8191 21.9441 18.2549 21.9902C17.7027 22.0353 17.0231 22.0352 16.2002 22.0352H7.7998C6.97689 22.0352 6.29725 22.0353 5.74512 21.9902C5.18095 21.9441 4.65899 21.8449 4.16797 21.5947C3.409 21.2079 2.79208 20.591 2.40527 19.832C2.15509 19.341 2.05588 18.8191 2.00977 18.2549C1.98215 17.9169 1.97365 17.5309 1.96973 17.0938C1.96458 17.0369 1.96452 16.9798 1.96875 16.9229C1.96752 16.6954 1.96484 16.4546 1.96484 16.2002V7.7998C1.96484 6.97689 1.96465 6.29725 2.00977 5.74512C2.05588 5.18095 2.15509 4.65899 2.40527 4.16797C2.79208 3.409 3.409 2.79208 4.16797 2.40527C4.65899 2.15509 5.18095 2.05588 5.74512 2.00977C6.29725 1.96465 6.97689 1.96484 7.7998 1.96484H16.2002C17.0231 1.96484 17.7027 1.96465 18.2549 2.00977C18.8191 2.05588 19.341 2.15509 19.832 2.40527C20.591 2.79208 21.2079 3.409 21.5947 4.16797C21.8449 4.65899 21.9441 5.18095 21.9902 5.74512C22.0353 6.29725 22.0352 6.97689 22.0352 7.7998V16.2002Z"/></svg>