<svg xmlns="http://www.w3.org/2000/svg" width="24" height="24" fill="none" viewBox="0 0 24 24"><path fill="currentColor" d="M1.96484 19.4004V3C1.96484 2.42839 2.42839 1.96484 3 1.96484C3.57161 1.96484 4.03516 2.42839 4.03516 3V19.4004C4.03516 19.6825 4.03582 19.8415 4.04395 19.9551C4.15762 19.9633 4.31662 19.9648 4.59961 19.9648H21C21.5716 19.9648 22.0352 20.4284 22.0352 21C22.0352 21.5716 21.5716 22.0352 21 22.0352H4.59961C4.33696 22.0352 4.07785 22.0354 3.85938 22.0176C3.62866 21.9987 3.3533 21.9546 3.07617 21.8135C2.69326 21.6184 2.38163 21.3067 2.18652 20.9238C2.04535 20.6467 2.00127 20.3713 1.98242 20.1406C1.9646 19.9221 1.96484 19.663 1.96484 19.4004ZM19.2451 7.29199C19.636 6.87524 20.291 6.85441 20.708 7.24512C21.1248 7.63598 21.1456 8.29101 20.7549 8.70801L16.8359 12.8906C16.7508 12.9816 16.5189 13.2561 16.1992 13.4023C15.9565 13.5133 15.6887 13.5591 15.4229 13.5352C15.0723 13.5035 14.7615 13.3218 14.6514 13.2646L11.5518 11.6543L7.75488 15.708C7.36401 16.1248 6.70899 16.1456 6.29199 15.7549C5.87524 15.364 5.85441 14.709 6.24512 14.292L10.1641 10.1094C10.2492 10.0184 10.4811 9.74387 10.8008 9.59766L10.9873 9.52637C11.1141 9.48732 11.2454 9.46525 11.3779 9.45996L11.5771 9.46484L11.7061 9.48242C12.002 9.53926 12.2522 9.6853 12.3486 9.73535L15.4473 11.3447L19.2451 7.29199Z"/></svg>