<svg xmlns="http://www.w3.org/2000/svg" width="24" height="24" fill="none" viewBox="0 0 24 24"><g clip-path="url(#a)"><path fill="currentColor" d="M20.9648 12C20.9648 7.04877 16.9512 3.03516 12 3.03516C7.04877 3.03516 3.03516 7.04877 3.03516 12C3.03516 16.9512 7.04877 20.9648 12 20.9648C16.9512 20.9648 20.9648 16.9512 20.9648 12ZM17.2686 9.26855C17.6727 8.86436 18.3273 8.86436 18.7314 9.26855C19.1356 9.67275 19.1356 10.3273 18.7314 10.7314L15.2979 14.166C15.2109 14.2529 15.1015 14.3633 14.998 14.4512C14.8853 14.5468 14.713 14.6754 14.4746 14.7529C14.1663 14.8531 13.8337 14.8531 13.5254 14.7529C13.287 14.6754 13.1147 14.5468 13.002 14.4512C12.8985 14.3633 12.7891 14.2529 12.7021 14.166L9.99902 11.4629L6.73145 14.7314C6.32725 15.1356 5.67275 15.1356 5.26855 14.7314C4.86436 14.3273 4.86436 13.6727 5.26855 13.2686L8.70215 9.83398C8.78908 9.74706 8.89847 9.63668 9.00195 9.54883C9.11466 9.4532 9.28705 9.32455 9.52539 9.24707C9.79509 9.15944 10.0832 9.14915 10.3574 9.21484L10.4746 9.24707L10.6416 9.31348C10.7957 9.38674 10.9136 9.47717 10.998 9.54883C11.1015 9.63668 11.2109 9.74706 11.2979 9.83398L14 12.5361L17.2686 9.26855ZM23.0352 12C23.0352 18.0945 18.0945 23.0352 12 23.0352C5.90554 23.0352 0.964844 18.0945 0.964844 12C0.964844 5.90554 5.90554 0.964844 12 0.964844C18.0945 0.964844 23.0352 5.90554 23.0352 12Z"/></g><defs><clipPath id="a"><path fill="#fff" d="M0 0H24V24H0z"/></clipPath></defs></svg>