<svg xmlns="http://www.w3.org/2000/svg" width="24" height="24" fill="none" viewBox="0 0 24 24"><path fill="currentColor" d="M1.96484 19.4004V3C1.96484 2.42839 2.42839 1.96484 3 1.96484C3.57161 1.96484 4.03516 2.42839 4.03516 3V19.4004C4.03516 19.6825 4.03582 19.8415 4.04395 19.9551C4.15762 19.9633 4.31662 19.9648 4.59961 19.9648H21C21.5716 19.9648 22.0352 20.4284 22.0352 21C22.0352 21.5716 21.5716 22.0352 21 22.0352H4.59961C4.33696 22.0352 4.07785 22.0354 3.85938 22.0176C3.62866 21.9987 3.3533 21.9546 3.07617 21.8135C2.69326 21.6184 2.38163 21.3067 2.18652 20.9238C2.04535 20.6467 2.00127 20.3713 1.98242 20.1406C1.9646 19.9221 1.96484 19.663 1.96484 19.4004ZM6.26855 6.26855C6.67275 5.86436 7.32725 5.86436 7.73145 6.26855L11.999 10.5361L13.7021 8.83398C13.7891 8.74706 13.8985 8.63668 14.002 8.54883C14.1147 8.4532 14.287 8.32455 14.5254 8.24707C14.7951 8.15944 15.0832 8.14915 15.3574 8.21484L15.4746 8.24707L15.6416 8.31348C15.7957 8.38674 15.9136 8.47717 15.998 8.54883C16.1015 8.63668 16.2109 8.74706 16.2979 8.83398L19.9648 12.501V11C19.9648 10.4284 20.4284 9.96484 21 9.96484C21.5716 9.96484 22.0352 10.4284 22.0352 11V15C22.0352 15.5716 21.5716 16.0352 21 16.0352H17C16.4284 16.0352 15.9648 15.5716 15.9648 15C15.9648 14.4284 16.4284 13.9648 17 13.9648H18.502L15 10.4629L13.2979 12.166C13.2109 12.2529 13.1015 12.3633 12.998 12.4512C12.8853 12.5468 12.713 12.6754 12.4746 12.7529C12.1663 12.8531 11.8337 12.8531 11.5254 12.7529C11.287 12.6754 11.1147 12.5468 11.002 12.4512C10.8985 12.3633 10.7891 12.2529 10.7021 12.166L6.26855 7.73145C5.86436 7.32725 5.86436 6.67275 6.26855 6.26855Z"/></svg>