<svg xmlns="http://www.w3.org/2000/svg" width="24" height="24" fill="none" viewBox="0 0 24 24"><g clip-path="url(#a)"><path fill="currentColor" d="M20.9648 12C20.9648 7.04877 16.9512 3.03516 12 3.03516C7.04877 3.03516 3.03516 7.04877 3.03516 12C3.03516 16.9512 7.04877 20.9648 12 20.9648C16.9512 20.9648 20.9648 16.9512 20.9648 12ZM5.26855 9.26855C5.67275 8.86436 6.32725 8.86436 6.73145 9.26855L9.99902 12.5361L12.7021 9.83398C12.7891 9.74706 12.8985 9.63668 13.002 9.54883C13.1147 9.4532 13.287 9.32455 13.5254 9.24707C13.7951 9.15944 14.0832 9.14915 14.3574 9.21484L14.4746 9.24707L14.6416 9.31348C14.7957 9.38674 14.9136 9.47717 14.998 9.54883C15.1015 9.63668 15.2109 9.74706 15.2979 9.83398L18.7314 13.2686C19.1356 13.6727 19.1356 14.3273 18.7314 14.7314C18.3273 15.1356 17.6727 15.1356 17.2686 14.7314L14 11.4629L11.2979 14.166C11.2109 14.2529 11.1015 14.3633 10.998 14.4512C10.8853 14.5468 10.713 14.6754 10.4746 14.7529C10.1663 14.8531 9.83368 14.8531 9.52539 14.7529C9.28705 14.6754 9.11466 14.5468 9.00195 14.4512C8.89847 14.3633 8.78908 14.2529 8.70215 14.166L5.26855 10.7314C4.86436 10.3273 4.86436 9.67275 5.26855 9.26855ZM23.0352 12C23.0352 18.0945 18.0945 23.0352 12 23.0352C5.90554 23.0352 0.964844 18.0945 0.964844 12C0.964844 5.90554 5.90554 0.964844 12 0.964844C18.0945 0.964844 23.0352 5.90554 23.0352 12Z"/></g><defs><clipPath id="a"><path fill="#fff" d="M0 0H24V24H0z"/></clipPath></defs></svg>