<svg xmlns="http://www.w3.org/2000/svg" width="24" height="24" fill="none" viewBox="0 0 24 24"><g clip-path="url(#a)"><path fill="currentColor" d="M13.9648 22V20C13.9648 19.4284 14.4284 18.9648 15 18.9648C15.5716 18.9648 16.0352 19.4284 16.0352 20V22C16.0352 22.5716 15.5716 23.0352 15 23.0352C14.4284 23.0352 13.9648 22.5716 13.9648 22ZM5.61133 11.2686C6.01552 10.8644 6.671 10.8644 7.0752 11.2686C7.47899 11.6727 7.47899 12.3273 7.0752 12.7314L4.9541 14.8535C3.7962 16.0114 3.7962 17.888 4.9541 19.0459C6.11201 20.2038 7.98858 20.2038 9.14648 19.0459L11.2686 16.9248C11.6727 16.521 12.3273 16.521 12.7314 16.9248C13.1356 17.329 13.1356 17.9845 12.7314 18.3887L10.6104 20.5098C8.64406 22.4761 5.45652 22.4761 3.49023 20.5098C1.52394 18.5435 1.52394 15.3559 3.49023 13.3896L5.61133 11.2686ZM18.3535 18.3535C18.7576 17.9494 19.4132 17.9497 19.8174 18.3535L21.2314 19.7686C21.6356 20.1727 21.6356 20.8273 21.2314 21.2314C20.8273 21.6356 20.1727 21.6356 19.7686 21.2314L18.3535 19.8174C17.9497 19.4132 17.9494 18.7576 18.3535 18.3535ZM22 13.9648C22.5716 13.9648 23.0352 14.4284 23.0352 15C23.0352 15.5716 22.5716 16.0352 22 16.0352H20C19.4284 16.0352 18.9648 15.5716 18.9648 15C18.9648 14.4284 19.4284 13.9648 20 13.9648H22ZM13.3896 3.49023C15.3559 1.52394 18.5435 1.52395 20.5098 3.49023C22.4761 5.45652 22.4761 8.64406 20.5098 10.6104L18.3887 12.7314C17.9845 13.1356 17.329 13.1356 16.9248 12.7314C16.521 12.3273 16.521 11.6727 16.9248 11.2686L19.0459 9.14648C20.2038 7.98858 20.2038 6.11201 19.0459 4.9541C17.888 3.7962 16.0114 3.7962 14.8535 4.9541L12.7314 7.0752C12.3273 7.47899 11.6727 7.47899 11.2686 7.0752C10.8644 6.671 10.8644 6.01552 11.2686 5.61133L13.3896 3.49023ZM4 7.96484C4.57161 7.96484 5.03516 8.42839 5.03516 9C5.03516 9.57161 4.57161 10.0352 4 10.0352H2C1.42839 10.0352 0.964844 9.57161 0.964844 9C0.964844 8.42839 1.42839 7.96484 2 7.96484H4ZM2.76855 2.76855C3.17275 2.36436 3.82725 2.36436 4.23145 2.76855L5.64648 4.18262C6.05034 4.58684 6.05056 5.2424 5.64648 5.64648C5.2424 6.05056 4.58684 6.05034 4.18262 5.64648L2.76855 4.23145C2.36436 3.82725 2.36436 3.17275 2.76855 2.76855ZM7.96484 4V2C7.96484 1.42839 8.42839 0.964844 9 0.964844C9.57161 0.964844 10.0352 1.42839 10.0352 2V4C10.0352 4.57161 9.57161 5.03516 9 5.03516C8.42839 5.03516 7.96484 4.57161 7.96484 4Z"/></g><defs><clipPath id="a"><path fill="#fff" d="M0 0H24V24H0z"/></clipPath></defs></svg>