<svg xmlns="http://www.w3.org/2000/svg" width="24" height="24" fill="none" viewBox="0 0 24 24"><path fill="currentColor" d="M0.964844 12C0.964844 8.66696 3.66696 5.96484 7 5.96484H7.5C8.07161 5.96484 8.53516 6.42839 8.53516 7C8.53516 7.57161 8.07161 8.03516 7.5 8.03516H7C4.81019 8.03516 3.03516 9.81019 3.03516 12C3.03516 14.1898 4.81019 15.9648 7 15.9648H9C11.1898 15.9648 12.9648 14.1898 12.9648 12C12.9648 11.4284 13.4284 10.9648 14 10.9648C14.5716 10.9648 15.0352 11.4284 15.0352 12C15.0352 15.333 12.333 18.0352 9 18.0352H7C3.66696 18.0352 0.964844 15.333 0.964844 12ZM20.9648 12C20.9648 9.81019 19.1898 8.03516 17 8.03516H15C12.8102 8.03516 11.0352 9.81019 11.0352 12C11.0352 12.5716 10.5716 13.0352 10 13.0352C9.42839 13.0352 8.96484 12.5716 8.96484 12C8.96484 8.66696 11.667 5.96484 15 5.96484H17C20.333 5.96484 23.0352 8.66696 23.0352 12C23.0352 15.333 20.333 18.0352 17 18.0352H16.5C15.9284 18.0352 15.4648 17.5716 15.4648 17C15.4648 16.4284 15.9284 15.9648 16.5 15.9648H17C19.1898 15.9648 20.9648 14.1898 20.9648 12Z"/></svg>