<svg xmlns="http://www.w3.org/2000/svg" width="24" height="24" fill="none" viewBox="0 0 24 24"><path fill="currentColor" d="M0.964844 12C0.964844 8.66696 3.66696 5.96484 7 5.96484H9C9.57161 5.96484 10.0352 6.42839 10.0352 7C10.0352 7.57161 9.57161 8.03516 9 8.03516H7C4.81019 8.03516 3.03516 9.81019 3.03516 12C3.03516 14.1898 4.81019 15.9648 7 15.9648H9C9.57161 15.9648 10.0352 16.4284 10.0352 17C10.0352 17.5716 9.57161 18.0352 9 18.0352H7C3.66696 18.0352 0.964844 15.333 0.964844 12ZM20.9648 12C20.9648 9.81019 19.1898 8.03516 17 8.03516H15C14.4284 8.03516 13.9648 7.57161 13.9648 7C13.9648 6.42839 14.4284 5.96484 15 5.96484H17C20.333 5.96484 23.0352 8.66696 23.0352 12C23.0352 15.333 20.333 18.0352 17 18.0352H15C14.4284 18.0352 13.9648 17.5716 13.9648 17C13.9648 16.4284 14.4284 15.9648 15 15.9648H17C19.1898 15.9648 20.9648 14.1898 20.9648 12ZM17 10.9648C17.5716 10.9648 18.0352 11.4284 18.0352 12C18.0352 12.5716 17.5716 13.0352 17 13.0352H7C6.42839 13.0352 5.96484 12.5716 5.96484 12C5.96484 11.4284 6.42839 10.9648 7 10.9648H17Z"/></svg>