<svg xmlns="http://www.w3.org/2000/svg" width="24" height="24" fill="none" viewBox="0 0 24 24"><path fill="currentColor" d="M1.96484 16.2002V9.7998C1.96484 8.97689 1.96465 8.29725 2.00977 7.74512C2.05588 7.18095 2.15509 6.65899 2.40527 6.16797C2.79208 5.409 3.409 4.79208 4.16797 4.40527C4.65899 4.15509 5.18095 4.05588 5.74512 4.00977C6.29725 3.96465 6.97689 3.96484 7.7998 3.96484H10C10.5716 3.96484 11.0352 4.42839 11.0352 5C11.0352 5.57161 10.5716 6.03516 10 6.03516H7.7998C6.94287 6.03516 6.36234 6.03565 5.91406 6.07227C5.47781 6.10791 5.25807 6.17227 5.10742 6.24902C4.73794 6.43737 4.43737 6.73794 4.24902 7.10742C4.17227 7.25807 4.10791 7.47781 4.07227 7.91406C4.03565 8.36234 4.03516 8.94287 4.03516 9.7998V16.2002C4.03516 17.0571 4.03565 17.6377 4.07227 18.0859C4.10791 18.5222 4.17227 18.7419 4.24902 18.8926C4.43737 19.2621 4.73794 19.5626 5.10742 19.751C5.25806 19.8277 5.47781 19.8921 5.91406 19.9277C6.36234 19.9643 6.94287 19.9648 7.7998 19.9648H14.2002C15.0571 19.9648 15.6377 19.9643 16.0859 19.9277C16.5222 19.8921 16.7419 19.8277 16.8926 19.751C17.2621 19.5626 17.5626 19.2621 17.751 18.8926C17.8277 18.7419 17.8921 18.5222 17.9277 18.0859C17.9643 17.6377 17.9648 17.0571 17.9648 16.2002V14C17.9648 13.4284 18.4284 12.9648 19 12.9648C19.5716 12.9648 20.0352 13.4284 20.0352 14V16.2002C20.0352 17.0231 20.0353 17.7027 19.9902 18.2549C19.9441 18.8191 19.8449 19.341 19.5947 19.832C19.2079 20.591 18.591 21.2079 17.832 21.5947C17.341 21.8449 16.8191 21.9441 16.2549 21.9902C15.7027 22.0353 15.0231 22.0352 14.2002 22.0352H7.7998C6.97689 22.0352 6.29725 22.0353 5.74512 21.9902C5.18095 21.9441 4.65899 21.8449 4.16797 21.5947C3.409 21.2079 2.79208 20.591 2.40527 19.832C2.15509 19.341 2.05588 18.8191 2.00977 18.2549C1.96465 17.7027 1.96484 17.0231 1.96484 16.2002ZM22.0352 9C22.0352 9.57161 21.5716 10.0352 21 10.0352C20.4284 10.0352 19.9648 9.57161 19.9648 9V5.49805L13.7314 11.7314C13.3273 12.1356 12.6727 12.1356 12.2686 11.7314C11.8644 11.3273 11.8644 10.6727 12.2686 10.2686L18.502 4.03516H15C14.4284 4.03516 13.9648 3.57161 13.9648 3C13.9648 2.42839 14.4284 1.96484 15 1.96484H21C21.5716 1.96485 22.0352 2.42839 22.0352 3V9Z"/></svg>