<svg xmlns="http://www.w3.org/2000/svg" width="24" height="24" fill="none" viewBox="0 0 24 24"><path fill="currentColor" d="M4.90431 10.5611C5.30848 10.1569 5.96398 10.1569 6.36818 10.5611C6.77237 10.9652 6.77237 11.6207 6.36818 12.0249L4.95412 13.439C3.40572 14.9874 3.4057 17.498 4.95412 19.0464C6.50254 20.5948 9.01312 20.5948 10.5615 19.0464L11.9756 17.6323C12.3798 17.2281 13.0353 17.2281 13.4395 17.6323C13.8435 18.0365 13.8436 18.6921 13.4395 19.0962L12.0254 20.5103C9.6686 22.867 5.84705 22.867 3.49025 20.5103C1.13345 18.1535 1.13347 14.3319 3.49025 11.9751L4.90431 10.5611ZM14.7686 7.76808C15.1728 7.36389 15.8282 7.36389 16.2324 7.76808C16.6366 8.17228 16.6366 8.82777 16.2324 9.23195L9.23244 16.2319C8.82826 16.6361 8.17276 16.6361 7.76857 16.2319C7.36438 15.8278 7.36439 15.1723 7.76857 14.7681L14.7686 7.76808ZM11.9756 3.48976C14.3324 1.13298 18.154 1.13296 20.5108 3.48976C22.8675 5.84657 22.8675 9.66811 20.5108 12.0249L19.0967 13.439C18.6926 13.8431 18.037 13.843 17.6328 13.439C17.2286 13.0348 17.2286 12.3793 17.6328 11.9751L19.0469 10.5611C20.5953 9.01263 20.5953 6.50205 19.0469 4.95363C17.4985 3.40521 14.9879 3.40523 13.4395 4.95363L12.0254 6.36769C11.6212 6.77188 10.9657 6.77188 10.5615 6.36769C10.1574 5.96349 10.1574 5.30799 10.5615 4.90382L11.9756 3.48976Z"/></svg>