<svg xmlns="http://www.w3.org/2000/svg" width="24" height="24" fill="none" viewBox="0 0 24 24"><path fill="currentColor" d="M10.4275 7.97557C11.2906 8.03742 12.1301 8.28433 12.8894 8.6992C13.6489 9.11411 14.3106 9.68691 14.8289 10.3799C15.1713 10.8376 15.0776 11.4867 14.6199 11.8291C14.1623 12.1712 13.5141 12.0775 13.1717 11.6201C12.8312 11.1649 12.3961 10.7882 11.8973 10.5156C11.3983 10.243 10.8462 10.0806 10.2791 10.04C9.71209 9.99946 9.14276 10.0816 8.61015 10.2803C8.07768 10.4789 7.59401 10.7895 7.19218 11.1914L4.20488 14.1787L4.07304 14.3222C3.43408 15.0522 3.08318 15.9932 3.0916 16.9678C3.10063 18.0074 3.51759 19.0021 4.25273 19.7373C4.98787 20.4724 5.98267 20.8894 7.02226 20.8984C8.06177 20.9074 9.06358 20.5073 9.81132 19.7851L11.5086 18.0879C11.9127 17.6841 12.5674 17.6841 12.9715 18.0879C13.3757 18.4921 13.3757 19.1475 12.9715 19.5517L11.2488 21.2744C10.1106 22.3737 8.58602 22.9825 7.00371 22.9687C5.42147 22.9549 3.90773 22.32 2.78886 21.2012C1.67001 20.0823 1.03513 18.5685 1.02129 16.9863C1.00754 15.404 1.61636 13.8794 2.71562 12.7412L5.72832 9.7285C6.34001 9.11659 7.0759 8.64327 7.88652 8.3408C8.69733 8.03835 9.56436 7.91375 10.4275 7.97557ZM16.9959 1.03123C18.5782 1.04498 20.0918 1.68 21.2107 2.79881C22.3296 3.91768 22.9645 5.4314 22.9783 7.01365C22.9921 8.59601 22.3833 10.1206 21.284 11.2588C21.28 11.2629 21.2763 11.2674 21.2723 11.2715L18.2723 14.2715C17.6605 14.8835 16.9239 15.3567 16.1131 15.6592C15.3024 15.9616 14.4361 16.0862 13.573 16.0244C12.7099 15.9626 11.8696 15.7157 11.1102 15.3008C10.351 14.8859 9.68992 14.3128 9.17168 13.6201C8.82932 13.1624 8.92205 12.5133 9.37968 12.1709C9.8374 11.8285 10.4865 11.9222 10.8289 12.3799C11.1694 12.835 11.6036 13.2118 12.1023 13.4844C12.6013 13.7569 13.1534 13.9193 13.7205 13.9599C14.2876 14.0006 14.8568 13.9184 15.3894 13.7197C15.9222 13.521 16.4064 13.2107 16.8084 12.8086L19.7957 9.82127C20.5179 9.07353 20.917 8.07172 20.908 7.03221C20.899 5.9926 20.482 4.99782 19.7469 4.26268C19.0118 3.52773 18.0177 3.11066 16.9783 3.10155C15.9387 3.09251 14.9371 3.49257 14.1893 4.21483L12.4793 5.91405C12.074 6.31665 11.4194 6.31499 11.0164 5.91014C10.6134 5.50482 10.6151 4.8493 11.0203 4.44627L12.74 2.73631L12.7508 2.72557C13.889 1.62627 15.4136 1.01751 16.9959 1.03123Z"/></svg>