<svg xmlns="http://www.w3.org/2000/svg" width="24" height="24" fill="none" viewBox="0 0 24 24"><path fill="currentColor" d="M21 16.9648C21.5716 16.9648 22.0352 17.4284 22.0352 18C22.0352 18.5716 21.5716 19.0352 21 19.0352H9C8.42839 19.0352 7.96484 18.5716 7.96484 18C7.96484 17.4284 8.42839 16.9648 9 16.9648H21ZM4 17.9648C3.98067 17.9648 3.96484 17.9807 3.96484 18C3.96484 18.0193 3.98067 18.0352 4 18.0352C4.00966 18.0352 4.01808 18.0307 4.02441 18.0244L4.03516 18L4.02441 17.9756C4.01808 17.9693 4.00966 17.9648 4 17.9648ZM21 10.9648C21.5716 10.9648 22.0352 11.4284 22.0352 12C22.0352 12.5716 21.5716 13.0352 21 13.0352H9C8.42839 13.0352 7.96484 12.5716 7.96484 12C7.96484 11.4284 8.42839 10.9648 9 10.9648H21ZM4 11.9648C3.98067 11.9648 3.96484 11.9807 3.96484 12C3.96484 12.0193 3.98067 12.0352 4 12.0352C4.00966 12.0352 4.01808 12.0307 4.02441 12.0244L4.03516 12L4.02441 11.9756C4.01808 11.9693 4.00966 11.9648 4 11.9648ZM21 4.96484C21.5716 4.96484 22.0352 5.42839 22.0352 6C22.0352 6.57161 21.5716 7.03516 21 7.03516H9C8.42839 7.03516 7.96484 6.57161 7.96484 6C7.96484 5.42839 8.42839 4.96484 9 4.96484H21ZM4 5.96484C3.98067 5.96484 3.96484 5.98067 3.96484 6C3.96484 6.01933 3.98067 6.03516 4 6.03516C4.00966 6.03516 4.01808 6.03075 4.02441 6.02441L4.03516 6L4.02441 5.97559C4.01808 5.96925 4.00966 5.96484 4 5.96484ZM6.03516 18C6.03516 19.1239 5.1239 20.0352 4 20.0352C2.94633 20.0352 2.07977 19.2342 1.97559 18.208L1.96484 18L1.97559 17.792C2.07977 16.7658 2.94633 15.9648 4 15.9648C5.1239 15.9648 6.03516 16.8761 6.03516 18ZM6.03516 12C6.03516 13.1239 5.1239 14.0352 4 14.0352C2.94633 14.0352 2.07977 13.2342 1.97559 12.208L1.96484 12L1.97559 11.792C2.07977 10.7658 2.94633 9.96484 4 9.96484C5.1239 9.96484 6.03516 10.8761 6.03516 12ZM6.03516 6C6.03516 7.1239 5.1239 8.03516 4 8.03516C2.94633 8.03516 2.07977 7.23419 1.97559 6.20801L1.96484 6L1.97559 5.79199C2.07977 4.76581 2.94633 3.96484 4 3.96484L4.20801 3.97559C5.23419 4.07977 6.03516 4.94633 6.03516 6Z"/></svg>