<svg xmlns="http://www.w3.org/2000/svg" width="24" height="24" fill="none" viewBox="0 0 24 24"><g clip-path="url(#a)"><path fill="currentColor" d="M10.9648 22V18C10.9648 17.4284 11.4284 16.9648 12 16.9648C12.5716 16.9648 13.0352 17.4284 13.0352 18V22C13.0352 22.5716 12.5716 23.0352 12 23.0352C11.4284 23.0352 10.9648 22.5716 10.9648 22ZM7.01855 15.5186C7.42275 15.1144 8.07725 15.1144 8.48145 15.5186C8.88564 15.9227 8.88564 16.5773 8.48145 16.9814L5.65332 19.8105C5.24911 20.2146 4.59358 20.2147 4.18945 19.8105C3.78532 19.4064 3.78545 18.7509 4.18945 18.3467L7.01855 15.5186ZM15.5186 15.5186C15.9227 15.1144 16.5773 15.1144 16.9814 15.5186L19.8105 18.3467C20.2146 18.7509 20.2147 19.4064 19.8105 19.8105C19.4064 20.2147 18.7509 20.2146 18.3467 19.8105L15.5186 16.9814C15.1144 16.5773 15.1144 15.9227 15.5186 15.5186ZM6 10.9648C6.57161 10.9648 7.03516 11.4284 7.03516 12C7.03516 12.5716 6.57161 13.0352 6 13.0352H2C1.42839 13.0352 0.964844 12.5716 0.964844 12C0.964844 11.4284 1.42839 10.9648 2 10.9648H6ZM22 10.9648C22.5716 10.9648 23.0352 11.4284 23.0352 12C23.0352 12.5716 22.5716 13.0352 22 13.0352H18C17.4284 13.0352 16.9648 12.5716 16.9648 12C16.9648 11.4284 17.4284 10.9648 18 10.9648H22ZM4.18945 4.26855C4.59365 3.86436 5.24913 3.86436 5.65332 4.26855L8.48145 7.09668C8.88564 7.50087 8.88564 8.15635 8.48145 8.56055C8.07735 8.96425 7.42265 8.96425 7.01855 8.56055L4.18945 5.73145C3.78569 5.32735 3.78573 4.67267 4.18945 4.26855ZM18.3467 4.26855C18.7509 3.86436 19.4064 3.86436 19.8105 4.26855C20.2143 4.67267 20.2143 5.32735 19.8105 5.73145L16.9814 8.56055C16.5773 8.96425 15.9227 8.96425 15.5186 8.56055C15.1144 8.15635 15.1144 7.50087 15.5186 7.09668L18.3467 4.26855ZM10.9648 6V2C10.9648 1.42839 11.4284 0.964844 12 0.964844C12.5716 0.964844 13.0352 1.42839 13.0352 2V6C13.0352 6.57161 12.5716 7.03516 12 7.03516C11.4284 7.03516 10.9648 6.57161 10.9648 6Z"/></g><defs><clipPath id="a"><path fill="#fff" d="M0 0H24V24H0z"/></clipPath></defs></svg>