<svg xmlns="http://www.w3.org/2000/svg" width="24" height="24" fill="none" viewBox="0 0 24 24"><g clip-path="url(#a)"><path fill="currentColor" d="M4.19724 4.19724C8.50679 -0.112298 15.4932 -0.112298 19.8027 4.19724C24.112 8.50681 24.1122 15.4933 19.8027 19.8027C19.1062 20.4992 18.3381 21.0804 17.5244 21.5517C17.5226 21.5528 17.5213 21.5546 17.5195 21.5556C17.5081 21.5622 17.4958 21.5677 17.4844 21.5742C13.2686 23.9927 7.79897 23.4042 4.19724 19.8027C-0.112298 15.4932 -0.112298 8.50679 4.19724 4.19724ZM9.67576 11.5898C8.4013 10.6636 6.68431 10.6341 5.37986 11.5156L5.37889 11.5146L5.37791 11.5166C3.75409 12.6166 3.25564 14.7828 4.23631 16.4824C4.61981 17.1455 5.09368 17.7714 5.66111 18.3388C7.09814 19.7758 8.90161 20.6215 10.7705 20.8789C10.4176 20.567 10.0973 20.2079 9.82029 19.8027C9.8146 19.7948 9.80819 19.7874 9.80271 19.7793C8.43325 17.7528 8.47891 15.0851 9.91697 13.1064L10.5547 12.2285L9.67576 11.5898ZM20.8779 13.2344C20.5609 13.5923 20.1961 13.9177 19.7832 14.1972C19.782 14.1981 19.7805 14.1994 19.7793 14.2002C17.7521 15.5689 15.0852 15.5233 13.1074 14.0849L12.2295 13.4463L11.5918 14.3242C10.6679 15.5956 10.6366 17.3071 11.5117 18.6103C11.5142 18.6139 11.5171 18.6175 11.5195 18.6211C12.6196 20.2449 14.7847 20.7434 16.4844 19.7627C17.1469 19.3793 17.7719 18.9058 18.3388 18.3388C19.7745 16.9032 20.6197 15.1014 20.8779 13.2344ZM13.2314 3.1201C13.5754 3.42401 13.8881 3.77267 14.1601 4.16502C14.1742 4.18315 14.1892 4.20061 14.2021 4.21971C15.5711 6.24688 15.5253 8.91366 14.0869 10.8916L13.4463 11.7715L14.3252 12.4101V12.4111C15.5954 13.3348 17.3075 13.3653 18.6123 12.4892C18.6155 12.487 18.6188 12.4846 18.622 12.4824C20.2474 11.382 20.7463 9.21495 19.7646 7.51853C19.7633 7.51626 19.762 7.51398 19.7607 7.5117C19.3778 6.85054 18.9047 6.22703 18.3388 5.66111C16.9024 4.22464 15.0996 3.37784 13.2314 3.1201ZM12.4834 5.37791C11.3828 3.75403 9.21471 3.25477 7.51853 4.23631C7.50905 4.24179 7.49882 4.24581 7.48924 4.25096C6.8362 4.6317 6.22079 5.10143 5.66111 5.66111C4.22476 7.09747 3.37792 8.89957 3.1201 10.7676C3.43738 10.4086 3.80398 10.083 4.21775 9.80271C4.21872 9.80205 4.21971 9.80142 4.22068 9.80076C6.24711 8.43133 8.91388 8.47706 10.8926 9.91502L11.7724 10.5547L12.4131 9.67478C13.3347 8.40757 13.3677 6.70016 12.498 5.39646C12.4935 5.39006 12.4878 5.38443 12.4834 5.37791Z"/></g><defs><clipPath id="a"><path fill="#fff" d="M0 0H24V24H0z"/></clipPath></defs></svg>