<svg xmlns="http://www.w3.org/2000/svg" width="24" height="24" fill="none" viewBox="0 0 24 24"><path fill="currentColor" d="M10.9648 22V18C10.9648 17.4284 11.4284 16.9648 12 16.9648C12.5716 16.9648 13.0352 17.4284 13.0352 18V22C13.0352 22.5716 12.5716 23.0352 12 23.0352C11.4284 23.0352 10.9648 22.5716 10.9648 22ZM7.01855 15.5186C7.42275 15.1144 8.07725 15.1144 8.48145 15.5186C8.88564 15.9227 8.88564 16.5773 8.48145 16.9814L5.65332 19.8105C5.24911 20.2146 4.59358 20.2147 4.18945 19.8105C3.78532 19.4064 3.78545 18.7509 4.18945 18.3467L7.01855 15.5186ZM17.0186 17.0186C17.4227 16.6144 18.0773 16.6144 18.4814 17.0186L19.1885 17.7256C19.5927 18.1298 19.5927 18.7843 19.1885 19.1885C18.7843 19.5927 18.1298 19.5927 17.7256 19.1885L17.0186 18.4814C16.6144 18.0773 16.6144 17.4227 17.0186 17.0186ZM5.75 10.9648C6.32161 10.9648 6.78516 11.4284 6.78516 12C6.78516 12.5716 6.32161 13.0352 5.75 13.0352H2.25C1.67839 13.0352 1.21484 12.5716 1.21484 12C1.21484 11.4284 1.67839 10.9648 2.25 10.9648H5.75ZM21.25 10.9648C21.8216 10.9648 22.2852 11.4284 22.2852 12C22.2852 12.5716 21.8216 13.0352 21.25 13.0352H19.75C19.1784 13.0352 18.7148 12.5716 18.7148 12C18.7148 11.4284 19.1784 10.9648 19.75 10.9648H21.25ZM4.39648 4.47656C4.8006 4.07244 5.45614 4.07259 5.86035 4.47656L7.98145 6.59863C8.3856 7.00283 8.38563 7.65734 7.98145 8.06152C7.57726 8.46566 6.92274 8.46566 6.51855 8.06152L4.39648 5.94043C3.99253 5.53623 3.9924 4.88068 4.39648 4.47656ZM17.9326 4.68359C18.3368 4.2797 18.9924 4.2795 19.3965 4.68359C19.8005 5.08769 19.8004 5.74326 19.3965 6.14746L17.9814 7.56152C17.5773 7.96566 16.9227 7.96566 16.5186 7.56152C16.1144 7.15734 16.1144 6.50283 16.5186 6.09863L17.9326 4.68359ZM10.9648 4.75V2.25C10.9648 1.67839 11.4284 1.21484 12 1.21484C12.5716 1.21484 13.0352 1.67839 13.0352 2.25V4.75C13.0352 5.32161 12.5716 5.78516 12 5.78516C11.4284 5.78516 10.9648 5.32161 10.9648 4.75Z"/></svg>