<svg xmlns="http://www.w3.org/2000/svg" width="24" height="24" fill="none" viewBox="0 0 24 24"><path fill="currentColor" d="M18.9648 14.7998C18.9648 13.9429 18.9643 13.3623 18.9277 12.9141C18.8921 12.4778 18.8277 12.2581 18.751 12.1074C18.5626 11.7379 18.2621 11.4374 17.8926 11.249C17.7419 11.1723 17.5222 11.1079 17.0859 11.0723C16.6377 11.0357 16.0571 11.0352 15.2002 11.0352H8.7998C7.94287 11.0352 7.36234 11.0357 6.91406 11.0723C6.47781 11.1079 6.25807 11.1723 6.10742 11.249C5.73794 11.4374 5.43737 11.7379 5.24902 12.1074C5.17227 12.2581 5.10791 12.4778 5.07227 12.9141C5.03565 13.3623 5.03516 13.9429 5.03516 14.7998V16.2002C5.03516 17.0571 5.03565 17.6377 5.07227 18.0859C5.10791 18.5222 5.17227 18.7419 5.24902 18.8926C5.43737 19.2621 5.73794 19.5626 6.10742 19.751C6.25807 19.8277 6.47781 19.8921 6.91406 19.9277C7.36234 19.9643 7.94287 19.9648 8.7998 19.9648H15.2002C16.0571 19.9648 16.6377 19.9643 17.0859 19.9277C17.5222 19.8921 17.7419 19.8277 17.8926 19.751C18.2621 19.5626 18.5626 19.2621 18.751 18.8926C18.8277 18.7419 18.8921 18.5222 18.9277 18.0859C18.9643 17.6377 18.9648 17.0571 18.9648 16.2002V14.7998ZM10.9648 16.5V14.5C10.9648 13.9284 11.4284 13.4648 12 13.4648C12.5716 13.4648 13.0352 13.9284 13.0352 14.5V16.5C13.0352 17.0716 12.5716 17.5352 12 17.5352C11.4284 17.5352 10.9648 17.0716 10.9648 16.5ZM21.0352 16.2002C21.0352 17.0231 21.0353 17.7027 20.9902 18.2549C20.9441 18.8191 20.8449 19.341 20.5947 19.832C20.2079 20.591 19.591 21.2079 18.832 21.5947C18.341 21.8449 17.8191 21.9441 17.2549 21.9902C16.7027 22.0353 16.0231 22.0352 15.2002 22.0352H8.7998C7.97689 22.0352 7.29725 22.0353 6.74512 21.9902C6.18095 21.9441 5.65899 21.8449 5.16797 21.5947C4.409 21.2079 3.79208 20.591 3.40527 19.832C3.15509 19.341 3.05588 18.8191 3.00977 18.2549C2.96465 17.7027 2.96484 17.0231 2.96484 16.2002V14.7998C2.96484 13.9769 2.96465 13.2973 3.00977 12.7451C3.05588 12.1809 3.15509 11.659 3.40527 11.168C3.79208 10.409 4.409 9.79208 5.16797 9.40527C5.42454 9.27455 5.68983 9.18528 5.96484 9.12305V8C5.96484 4.66696 8.66696 1.96484 12 1.96484C14.4763 1.96484 16.6019 3.45666 17.5322 5.58594C17.7609 6.10969 17.5218 6.71942 16.998 6.94824C16.4743 7.17697 15.8646 6.9378 15.6357 6.41406C15.0229 5.01164 13.6242 4.03516 12 4.03516C9.81019 4.03516 8.03516 5.81019 8.03516 8V8.96875C8.27496 8.96727 8.52964 8.96484 8.7998 8.96484H15.2002C16.0231 8.96484 16.7027 8.96465 17.2549 9.00977C17.8191 9.05588 18.341 9.15509 18.832 9.40527C19.591 9.79208 20.2079 10.409 20.5947 11.168C20.8449 11.659 20.9441 12.1809 20.9902 12.7451C21.0353 13.2973 21.0352 13.9769 21.0352 14.7998V16.2002Z"/></svg>