<svg xmlns="http://www.w3.org/2000/svg" width="24" height="24" fill="none" viewBox="0 0 24 24"><path fill="currentColor" d="M17.9648 15C17.9648 11.7056 15.2944 9.03516 12 9.03516C8.70562 9.03516 6.03516 11.7056 6.03516 15C6.03516 18.2944 8.70562 20.9648 12 20.9648C15.2944 20.9648 17.9648 18.2944 17.9648 15ZM10.9648 16V14C10.9648 13.4284 11.4284 12.9648 12 12.9648C12.5716 12.9648 13.0352 13.4284 13.0352 14V16C13.0352 16.5716 12.5716 17.0352 12 17.0352C11.4284 17.0352 10.9648 16.5716 10.9648 16ZM15.9648 8C15.9648 5.81019 14.1898 4.03516 12 4.03516C9.81019 4.03516 8.03516 5.81019 8.03516 8V8.01172C9.20522 7.34645 10.5578 6.96484 12 6.96484C13.4422 6.96484 14.7948 7.34645 15.9648 8.01172V8ZM18.0352 9.69824C19.2792 11.1132 20.0352 12.9679 20.0352 15C20.0352 19.4376 16.4376 23.0352 12 23.0352C7.56239 23.0352 3.96484 19.4376 3.96484 15C3.96484 12.9679 4.72084 11.1132 5.96484 9.69824V8C5.96484 4.66696 8.66696 1.96484 12 1.96484C15.333 1.96484 18.0352 4.66696 18.0352 8V9.69824Z"/></svg>