<svg xmlns="http://www.w3.org/2000/svg" width="24" height="24" fill="none" viewBox="0 0 24 24"><path fill="currentColor" d="M18.9648 15.7998C18.9648 14.9429 18.9643 14.3623 18.9277 13.9141C18.8921 13.4778 18.8277 13.2581 18.751 13.1074C18.5626 12.7379 18.2621 12.4374 17.8926 12.249C17.7419 12.1723 17.5222 12.1079 17.0859 12.0723C16.6377 12.0357 16.0571 12.0352 15.2002 12.0352H8.7998C7.94287 12.0352 7.36234 12.0357 6.91406 12.0723C6.47781 12.1079 6.25807 12.1723 6.10742 12.249C5.73794 12.4374 5.43737 12.7379 5.24902 13.1074C5.17227 13.2581 5.10791 13.4778 5.07227 13.9141C5.03565 14.3623 5.03516 14.9429 5.03516 15.7998V16.2002C5.03516 17.0571 5.03565 17.6377 5.07227 18.0859C5.10791 18.5222 5.17227 18.7419 5.24902 18.8926C5.43737 19.2621 5.73794 19.5626 6.10742 19.751C6.25807 19.8277 6.47781 19.8921 6.91406 19.9277C7.36234 19.9643 7.94287 19.9648 8.7998 19.9648H15.2002C16.0571 19.9648 16.6377 19.9643 17.0859 19.9277C17.5222 19.8921 17.7419 19.8277 17.8926 19.751C18.2621 19.5626 18.5626 19.2621 18.751 18.8926C18.8277 18.7419 18.8921 18.5222 18.9277 18.0859C18.9643 17.6377 18.9648 17.0571 18.9648 16.2002V15.7998ZM21.0352 16.2002C21.0352 17.0231 21.0353 17.7027 20.9902 18.2549C20.9441 18.8191 20.8449 19.341 20.5947 19.832C20.2079 20.591 19.591 21.2079 18.832 21.5947C18.341 21.8449 17.8191 21.9441 17.2549 21.9902C16.7027 22.0353 16.0231 22.0352 15.2002 22.0352H8.7998C7.97689 22.0352 7.29725 22.0353 6.74512 21.9902C6.18095 21.9441 5.65899 21.8449 5.16797 21.5947C4.409 21.2079 3.79208 20.591 3.40527 19.832C3.15509 19.341 3.05588 18.8191 3.00977 18.2549C2.96465 17.7027 2.96484 17.0231 2.96484 16.2002V15.7998C2.96484 14.9769 2.96465 14.2973 3.00977 13.7451C3.05588 13.1809 3.15509 12.659 3.40527 12.168C3.79208 11.409 4.409 10.7921 5.16797 10.4053C5.42454 10.2745 5.68983 10.1853 5.96484 10.123V8C5.96484 4.66696 8.66696 1.96484 12 1.96484C14.9208 1.96484 17.3547 4.03895 17.9141 6.79395C18.0278 7.35414 17.6657 7.90094 17.1055 8.01465C16.5455 8.12806 15.9995 7.766 15.8857 7.20605C15.5185 5.39667 13.917 4.03516 12 4.03516C9.81019 4.03516 8.03516 5.81019 8.03516 8V9.96875C8.27496 9.96727 8.52964 9.96484 8.7998 9.96484H15.2002C16.0231 9.96484 16.7027 9.96465 17.2549 10.0098C17.8191 10.0559 18.341 10.1551 18.832 10.4053C19.591 10.7921 20.2079 11.409 20.5947 12.168C20.8449 12.659 20.9441 13.1809 20.9902 13.7451C21.0353 14.2973 21.0352 14.9769 21.0352 15.7998V16.2002Z"/></svg>