<svg xmlns="http://www.w3.org/2000/svg" width="24" height="24" fill="none" viewBox="0 0 24 24"><path fill="currentColor" d="M19.9648 15.7998C19.9648 14.9429 19.9643 14.3623 19.9277 13.9141C19.8921 13.4778 19.8277 13.2581 19.751 13.1074C19.5626 12.7379 19.2621 12.4374 18.8926 12.249C18.7419 12.1723 18.5222 12.1079 18.0859 12.0723C17.6377 12.0357 17.0571 12.0352 16.2002 12.0352H7.7998C6.94287 12.0352 6.36234 12.0357 5.91406 12.0723C5.47781 12.1079 5.25807 12.1723 5.10742 12.249C4.73794 12.4374 4.43737 12.7379 4.24902 13.1074C4.17227 13.2581 4.10791 13.4778 4.07227 13.9141C4.03565 14.3623 4.03516 14.9429 4.03516 15.7998V16.2002C4.03516 17.0571 4.03565 17.6377 4.07227 18.0859C4.10791 18.5222 4.17227 18.7419 4.24902 18.8926C4.43737 19.2621 4.73794 19.5626 5.10742 19.751C5.25807 19.8277 5.47781 19.8921 5.91406 19.9277C6.36234 19.9643 6.94287 19.9648 7.7998 19.9648H16.2002C17.0571 19.9648 17.6377 19.9643 18.0859 19.9277C18.5222 19.8921 18.7419 19.8277 18.8926 19.751C19.2621 19.5626 19.5626 19.2621 19.751 18.8926C19.8277 18.7419 19.8921 18.5222 19.9277 18.0859C19.9643 17.6377 19.9648 17.0571 19.9648 16.2002V15.7998ZM15.9648 8C15.9648 5.81019 14.1898 4.03516 12 4.03516C9.81019 4.03516 8.03516 5.81019 8.03516 8V9.96484H15.9648V8ZM18.0352 9.99609C18.1104 10.0005 18.1839 10.004 18.2549 10.0098C18.8191 10.0559 19.341 10.1551 19.832 10.4053C20.591 10.7921 21.2079 11.409 21.5947 12.168C21.8449 12.659 21.9441 13.1809 21.9902 13.7451C22.0353 14.2973 22.0352 14.9769 22.0352 15.7998V16.2002C22.0352 17.0231 22.0353 17.7027 21.9902 18.2549C21.9441 18.8191 21.8449 19.341 21.5947 19.832C21.2079 20.591 20.591 21.2079 19.832 21.5947C19.341 21.8449 18.8191 21.9441 18.2549 21.9902C17.7027 22.0353 17.0231 22.0352 16.2002 22.0352H7.7998C6.97689 22.0352 6.29725 22.0353 5.74512 21.9902C5.18095 21.9441 4.65899 21.8449 4.16797 21.5947C3.409 21.2079 2.79208 20.591 2.40527 19.832C2.15509 19.341 2.05588 18.8191 2.00977 18.2549C1.96465 17.7027 1.96484 17.0231 1.96484 16.2002V15.7998C1.96484 14.9769 1.96465 14.2973 2.00977 13.7451C2.05588 13.1809 2.15509 12.659 2.40527 12.168C2.79208 11.409 3.409 10.7921 4.16797 10.4053C4.65899 10.1551 5.18095 10.0559 5.74512 10.0098C5.81613 10.004 5.88958 10.0005 5.96484 9.99609V8C5.96484 4.66696 8.66696 1.96484 12 1.96484C15.333 1.96484 18.0352 4.66696 18.0352 8V9.99609Z"/></svg>