<svg xmlns="http://www.w3.org/2000/svg" width="24" height="24" fill="none" viewBox="0 0 24 24"><path fill="currentColor" d="M19.9648 7.7998C19.9648 6.94287 19.9643 6.36234 19.9277 5.91406C19.8921 5.47824 19.8276 5.25903 19.751 5.1084C19.5626 4.73877 19.2622 4.43743 18.8926 4.24902C18.7419 4.17227 18.5222 4.10791 18.0859 4.07227C17.6377 4.03565 17.0571 4.03516 16.2002 4.03516H7.7998C6.94287 4.03516 6.36234 4.03565 5.91406 4.07227C5.47781 4.10791 5.25807 4.17227 5.10742 4.24902C4.73794 4.43737 4.43737 4.73794 4.24902 5.10742C4.17227 5.25807 4.10791 5.47781 4.07227 5.91406C4.03565 6.36234 4.03516 6.94287 4.03516 7.7998V16.2002C4.03516 17.0571 4.03565 17.6377 4.07227 18.0859C4.10787 18.5218 4.17237 18.741 4.24902 18.8916C4.43736 19.2612 4.73783 19.5626 5.10742 19.751C5.25807 19.8277 5.47781 19.8921 5.91406 19.9277C6.36234 19.9643 6.94287 19.9648 7.7998 19.9648H16.2002C17.0571 19.9648 17.6377 19.9643 18.0859 19.9277C18.5222 19.8921 18.7419 19.8277 18.8926 19.751C19.2621 19.5626 19.5626 19.2621 19.751 18.8926C19.8277 18.7419 19.8921 18.5222 19.9277 18.0859C19.9643 17.6377 19.9648 17.0571 19.9648 16.2002V7.7998ZM13.9648 10C13.9648 8.91476 13.0852 8.03516 12 8.03516C10.9148 8.03516 10.0352 8.91476 10.0352 10C10.0352 10.5682 10.2751 11.0793 10.6621 11.4395C10.7613 11.5318 10.8615 11.624 10.9395 11.7031C10.9886 11.753 11.0757 11.8432 11.1572 11.9639L11.2354 12.0947L11.3008 12.2344C11.3231 12.2889 11.3445 12.3513 11.3623 12.4209C11.38 12.4904 11.3909 12.5557 11.3975 12.6143L11.4072 12.7686L11.4033 12.9053C11.3931 13.0351 11.3661 13.144 11.3457 13.2188C11.319 13.3164 11.2815 13.4278 11.25 13.5225L10.4365 15.9648H13.5635L12.75 13.5225C12.7185 13.4278 12.681 13.3164 12.6543 13.2188C12.6271 13.119 12.5887 12.9586 12.5928 12.7686C12.5946 12.6816 12.6022 12.5601 12.6377 12.4209C12.6732 12.2818 12.7246 12.1719 12.7646 12.0947L12.8428 11.9639C12.9243 11.8432 13.0114 11.753 13.0605 11.7031C13.1385 11.624 13.2387 11.5318 13.3379 11.4395C13.7249 11.0793 13.9648 10.5682 13.9648 10ZM16.0352 10C16.0352 11.1667 15.5383 12.2188 14.748 12.9541C14.7467 12.9554 14.7445 12.9558 14.7432 12.957L15.6309 15.6201C15.6839 15.7793 15.7468 15.9646 15.7852 16.127C15.8247 16.2946 15.8722 16.5661 15.7949 16.874C15.6994 17.2541 15.4622 17.5832 15.1318 17.7939C14.8641 17.9647 14.5915 18.0061 14.4199 18.0215C14.2536 18.0364 14.0575 18.0352 13.8896 18.0352H10.1104C9.94246 18.0352 9.74638 18.0364 9.58008 18.0215C9.40855 18.0061 9.13595 17.9647 8.86816 17.7939C8.53779 17.5832 8.30057 17.2541 8.20508 16.874C8.12775 16.5661 8.17525 16.2946 8.21484 16.127C8.25322 15.9646 8.31607 15.7793 8.36914 15.6201L9.25586 12.957C9.25469 12.9559 9.25313 12.9552 9.25195 12.9541C8.46174 12.2188 7.96484 11.1667 7.96484 10C7.96484 7.77153 9.77153 5.96484 12 5.96484C14.2285 5.96484 16.0352 7.77153 16.0352 10ZM22.0352 16.2002C22.0352 17.0231 22.0353 17.7027 21.9902 18.2549C21.9441 18.8191 21.8449 19.341 21.5947 19.832C21.2079 20.591 20.591 21.2079 19.832 21.5947C19.341 21.8449 18.8191 21.9441 18.2549 21.9902C17.7027 22.0353 17.0231 22.0352 16.2002 22.0352H7.7998C6.97689 22.0352 6.29725 22.0353 5.74512 21.9902C5.18095 21.9441 4.65899 21.8449 4.16797 21.5947C3.409 21.2079 2.79208 20.591 2.40527 19.832C2.15509 19.341 2.05588 18.8191 2.00977 18.2549C1.96465 17.7027 1.96484 17.0231 1.96484 16.2002V7.7998C1.96484 6.97689 1.96465 6.29725 2.00977 5.74512C2.05588 5.18095 2.15509 4.65899 2.40527 4.16797C2.79208 3.409 3.409 2.79208 4.16797 2.40527C4.65899 2.15509 5.18095 2.05588 5.74512 2.00977C6.29725 1.96465 6.97689 1.96484 7.7998 1.96484H16.2002C17.0231 1.96484 17.7027 1.96465 18.2549 2.00977C18.8191 2.05588 19.341 2.15509 19.832 2.40527C20.591 2.79208 21.2079 3.409 21.5947 4.16797C21.8449 4.65899 21.9441 5.18095 21.9902 5.74512C22.0353 6.29725 22.0352 6.97689 22.0352 7.7998V16.2002Z"/></svg>