<svg xmlns="http://www.w3.org/2000/svg" width="24" height="24" fill="none" viewBox="0 0 24 24"><g clip-path="url(#a)"><path fill="currentColor" d="M20.9648 12C20.9648 7.04877 16.9512 3.03516 12 3.03516C7.04877 3.03516 3.03516 7.04877 3.03516 12C3.03516 16.9512 7.04877 20.9648 12 20.9648C16.9512 20.9648 20.9648 16.9512 20.9648 12ZM13.9648 10C13.9648 8.91476 13.0852 8.03516 12 8.03516C10.9148 8.03516 10.0352 8.91476 10.0352 10C10.0352 10.5682 10.2751 11.0793 10.6621 11.4395C10.7613 11.5318 10.8615 11.624 10.9395 11.7031C10.9886 11.753 11.0757 11.8432 11.1572 11.9639L11.2354 12.0947L11.3008 12.2344C11.3231 12.2889 11.3445 12.3513 11.3623 12.4209C11.38 12.4904 11.3909 12.5557 11.3975 12.6143L11.4072 12.7686L11.4033 12.9053C11.3931 13.0351 11.3661 13.144 11.3457 13.2188C11.319 13.3164 11.2815 13.4278 11.25 13.5225L10.4365 15.9648H13.5635L12.75 13.5225C12.7185 13.4278 12.681 13.3164 12.6543 13.2188C12.6271 13.119 12.5887 12.9586 12.5928 12.7686C12.5946 12.6816 12.6022 12.5601 12.6377 12.4209C12.6732 12.2818 12.7246 12.1719 12.7646 12.0947L12.8428 11.9639C12.9243 11.8432 13.0114 11.753 13.0605 11.7031C13.1385 11.624 13.2387 11.5318 13.3379 11.4395C13.7249 11.0793 13.9648 10.5682 13.9648 10ZM23.0352 12C23.0352 18.0945 18.0945 23.0352 12 23.0352C5.90554 23.0352 0.964844 18.0945 0.964844 12C0.964844 5.90554 5.90554 0.964844 12 0.964844C18.0945 0.964844 23.0352 5.90554 23.0352 12ZM16.0352 10C16.0352 11.1667 15.5383 12.2188 14.748 12.9541C14.7467 12.9554 14.7445 12.9558 14.7432 12.957L15.6309 15.6201C15.6839 15.7793 15.7468 15.9646 15.7852 16.127C15.8247 16.2946 15.8722 16.5661 15.7949 16.874C15.6994 17.2541 15.4622 17.5832 15.1318 17.7939C14.8641 17.9647 14.5915 18.006 14.4199 18.0215C14.2536 18.0364 14.0575 18.0352 13.8896 18.0352H10.1104C9.94246 18.0352 9.74638 18.0364 9.58008 18.0215C9.40855 18.006 9.13595 17.9647 8.86816 17.7939C8.53779 17.5832 8.30057 17.2541 8.20508 16.874C8.12775 16.5661 8.17525 16.2946 8.21484 16.127C8.25322 15.9646 8.31607 15.7793 8.36914 15.6201L9.25586 12.957C9.25469 12.9559 9.25313 12.9552 9.25195 12.9541C8.46174 12.2188 7.96484 11.1667 7.96484 10C7.96484 7.77153 9.77153 5.96484 12 5.96484C14.2285 5.96484 16.0352 7.77153 16.0352 10Z"/></g><defs><clipPath id="a"><path fill="#fff" d="M0 0H24V24H0z"/></clipPath></defs></svg>