<svg xmlns="http://www.w3.org/2000/svg" width="24" height="24" fill="none" viewBox="0 0 24 24"><path fill="currentColor" d="M1.96484 16.2002V7.7998C1.96484 6.97689 1.96465 6.29725 2.00977 5.74512C2.05588 5.18095 2.15508 4.65899 2.40527 4.16797C2.79208 3.409 3.409 2.79208 4.16797 2.40527C4.65899 2.15509 5.18095 2.05588 5.74512 2.00977C6.29725 1.96465 6.97689 1.96484 7.7998 1.96484H9C9.57161 1.96484 10.0352 2.42839 10.0352 3C10.0352 3.57161 9.57161 4.03516 9 4.03516H7.7998C6.94287 4.03516 6.36234 4.03565 5.91406 4.07227C5.47781 4.10791 5.25806 4.17227 5.10742 4.24902C4.73794 4.43737 4.43737 4.73794 4.24902 5.10742C4.17227 5.25806 4.10791 5.47781 4.07227 5.91406C4.03565 6.36234 4.03516 6.94287 4.03516 7.7998V16.2002C4.03516 17.0571 4.03565 17.6377 4.07227 18.0859C4.10791 18.5222 4.17227 18.7419 4.24902 18.8926C4.43737 19.2621 4.73794 19.5626 5.10742 19.751C5.25807 19.8277 5.47781 19.8921 5.91406 19.9277C6.36234 19.9643 6.94287 19.9648 7.7998 19.9648H9C9.57161 19.9648 10.0352 20.4284 10.0352 21C10.0352 21.5716 9.57161 22.0352 9 22.0352H7.7998C6.97689 22.0352 6.29725 22.0353 5.74512 21.9902C5.18095 21.9441 4.65899 21.8449 4.16797 21.5947C3.409 21.2079 2.79208 20.591 2.40527 19.832C2.15509 19.341 2.05588 18.8191 2.00977 18.2549C1.96465 17.7027 1.96484 17.0231 1.96484 16.2002ZM15.2686 6.26855C15.6727 5.86436 16.3273 5.86436 16.7314 6.26855L21.7314 11.2686C22.1356 11.6727 22.1356 12.3273 21.7314 12.7314L16.7314 17.7314C16.3273 18.1356 15.6727 18.1356 15.2686 17.7314C14.8644 17.3273 14.8644 16.6727 15.2686 16.2686L18.502 13.0352H9C8.42839 13.0352 7.96484 12.5716 7.96484 12C7.96484 11.4284 8.42839 10.9648 9 10.9648H18.502L15.2686 7.73145C14.8644 7.32725 14.8644 6.67275 15.2686 6.26855Z"/></svg>