<svg xmlns="http://www.w3.org/2000/svg" width="24" height="24" fill="none" viewBox="0 0 24 24"><path fill="currentColor" d="M0.964844 12C0.964844 6.49499 5.27244 1.96484 10.667 1.96484C12.4401 1.9649 14.1036 2.45762 15.5332 3.31641C16.0232 3.61076 16.182 4.2473 15.8877 4.7373C15.5933 5.2273 14.9568 5.38517 14.4668 5.09082C13.3472 4.41832 12.0506 4.03522 10.667 4.03516C6.48861 4.03516 3.03516 7.56389 3.03516 12C3.03516 16.4361 6.48861 19.9648 10.667 19.9648C12.0506 19.9648 13.3472 19.5817 14.4668 18.9092C14.9568 18.6148 15.5933 18.7727 15.8877 19.2627C16.182 19.7527 16.0232 20.3892 15.5332 20.6836C14.1036 21.5424 12.4401 22.0351 10.667 22.0352C5.27244 22.0352 0.964844 17.505 0.964844 12ZM17.2686 7.26855C17.6727 6.86436 18.3273 6.86436 18.7314 7.26855L22.7314 11.2686C23.1356 11.6727 23.1356 12.3273 22.7314 12.7314L18.7314 16.7314C18.3273 17.1356 17.6727 17.1356 17.2686 16.7314C16.8644 16.3273 16.8644 15.6727 17.2686 15.2686L19.502 13.0352H9C8.42839 13.0352 7.96484 12.5716 7.96484 12C7.96484 11.4284 8.42839 10.9648 9 10.9648H19.502L17.2686 8.73145C16.8644 8.32725 16.8644 7.67275 17.2686 7.26855Z"/></svg>