<svg xmlns="http://www.w3.org/2000/svg" width="24" height="24" fill="none" viewBox="0 0 24 24"><path fill="currentColor" d="M20.9648 12C20.9648 7.04877 16.9512 3.03516 12 3.03516C8.68299 3.03516 5.78505 4.83621 4.2334 7.51855C3.94708 8.01306 3.31401 8.18166 2.81934 7.89551C2.32481 7.60919 2.15623 6.97612 2.44238 6.48145C4.34889 3.18601 7.91437 0.964844 12 0.964844C18.0945 0.964844 23.0352 5.90554 23.0352 12C23.0352 18.0945 18.0945 23.0352 12 23.0352C7.91437 23.0352 4.34889 20.814 2.44238 17.5186C2.15623 17.0239 2.32481 16.3908 2.81934 16.1045C3.31401 15.8183 3.94707 15.9869 4.2334 16.4814C5.78505 19.1638 8.68299 20.9648 12 20.9648C16.9512 20.9648 20.9648 16.9512 20.9648 12ZM11.2686 7.26855C11.6727 6.86436 12.3273 6.86436 12.7314 7.26855L16.7314 11.2686C17.1356 11.6727 17.1356 12.3273 16.7314 12.7314L12.7314 16.7314C12.3273 17.1356 11.6727 17.1356 11.2686 16.7314C10.8644 16.3273 10.8644 15.6727 11.2686 15.2686L13.502 13.0352H3C2.42839 13.0352 1.96484 12.5716 1.96484 12C1.96484 11.4284 2.42839 10.9648 3 10.9648H13.502L11.2686 8.73145C10.8644 8.32725 10.8644 7.67275 11.2686 7.26855Z"/></svg>