<svg xmlns="http://www.w3.org/2000/svg" width="24" height="24" fill="none" viewBox="0 0 24 24"><path fill="currentColor" d="M11.2686 7.26771C11.6726 6.86406 12.3274 6.86406 12.7314 7.26771L16.7314 11.2677C17.1356 11.6719 17.1356 12.3274 16.7314 12.7316L12.7314 16.7316C12.3273 17.1357 11.6727 17.1357 11.2686 16.7316C10.8644 16.3274 10.8644 15.6719 11.2686 15.2677L13.501 13.0353H3C2.42844 13.0353 1.96493 12.5717 1.96484 12.0001C1.96484 11.4285 2.42839 10.965 3 10.965H13.502L11.2686 8.73158C10.8644 8.32739 10.8644 7.67191 11.2686 7.26771ZM4.96484 7.00013C4.96484 6.67354 4.96395 6.43334 4.98633 6.21498C5.16128 4.50983 6.39446 3.10106 8.06152 2.70228C8.27502 2.65123 8.51317 2.62045 8.83691 2.57728L15.4287 1.69838C16.3488 1.5757 17.104 1.47439 17.7188 1.44545C18.3439 1.41603 18.9302 1.45381 19.4912 1.67689C20.351 2.01882 21.067 2.64618 21.5195 3.45326C21.8148 3.97986 21.9299 4.55538 21.9834 5.17885C22.036 5.79207 22.0352 6.55421 22.0352 7.48256V16.5177C22.0352 17.446 22.036 18.2082 21.9834 18.8214C21.9299 19.4448 21.8147 20.0205 21.5195 20.547C21.067 21.354 20.351 21.9815 19.4912 22.3234C18.9302 22.5465 18.3439 22.5842 17.7188 22.5548C17.104 22.5259 16.3488 22.4236 15.4287 22.3009L8.83691 21.422C8.51329 21.3789 8.27499 21.349 8.06152 21.298C6.39447 20.8992 5.1613 19.4904 4.98633 17.7853C4.96392 17.5669 4.96484 17.3268 4.96484 17.0001C4.96484 16.4285 5.42839 15.965 6 15.965C6.57161 15.965 7.03516 16.4285 7.03516 17.0001C7.03516 17.3759 7.036 17.4874 7.04492 17.5744C7.13025 18.4046 7.73123 19.0901 8.54297 19.2843C8.62796 19.3046 8.73801 19.3206 9.11035 19.3703L15.7021 20.2492C16.6584 20.3767 17.3109 20.4627 17.8164 20.4865C18.311 20.5097 18.5585 20.4659 18.7256 20.3995C19.1443 20.233 19.4935 19.9274 19.7139 19.5343C19.8018 19.3775 19.8785 19.1382 19.9209 18.6447C19.9641 18.1405 19.9648 17.4823 19.9648 16.5177V7.48256C19.9648 6.51786 19.9641 5.85978 19.9209 5.3556C19.8786 4.8621 19.8018 4.62284 19.7139 4.46595C19.4935 4.07288 19.1443 3.76723 18.7256 3.60072C18.5585 3.53434 18.3111 3.48956 17.8164 3.51283C17.3109 3.53661 16.6584 3.62264 15.7021 3.75013L9.11035 4.62904C8.73815 4.67867 8.62796 4.69466 8.54297 4.71498C7.73113 4.90918 7.13013 5.59553 7.04492 6.42592C7.036 6.51289 7.03516 6.62426 7.03516 7.00013C7.03507 7.57168 6.57156 8.03529 6 8.03529C5.42844 8.03529 4.96493 7.57168 4.96484 7.00013Z"/></svg>