<svg xmlns="http://www.w3.org/2000/svg" width="24" height="24" fill="none" viewBox="0 0 24 24"><path fill="currentColor" d="M11.2686 7.26853C11.6727 6.86433 12.3273 6.86433 12.7314 7.26853L16.7314 11.2685C17.1356 11.6727 17.1356 12.3272 16.7314 12.7314L12.7314 16.7314C12.3273 17.1356 11.6727 17.1356 11.2686 16.7314C10.8644 16.3272 10.8644 15.6727 11.2686 15.2685L13.502 13.0351H3C2.42839 13.0351 1.96484 12.5716 1.96484 12C1.96484 11.4284 2.42839 10.9648 3 10.9648H13.502L11.2686 8.73142C10.8644 8.32723 10.8644 7.67272 11.2686 7.26853ZM4.96484 6.99997C4.96484 6.13682 4.95626 5.50224 5.10254 4.95603C5.47564 3.56358 6.56361 2.47562 7.95605 2.10251C8.50227 1.95623 9.13685 1.96482 10 1.96482H16.2002C17.0231 1.96482 17.7027 1.96463 18.2549 2.00974C18.8191 2.05585 19.341 2.15506 19.832 2.40525C20.591 2.79205 21.2079 3.40897 21.5947 4.16794C21.8449 4.65896 21.9441 5.18092 21.9902 5.74509C22.0353 6.29723 22.0352 6.97686 22.0352 7.79978V16.2002C22.0352 17.0231 22.0353 17.7027 21.9902 18.2549C21.9441 18.819 21.8449 19.341 21.5947 19.832C21.2079 20.591 20.591 21.2079 19.832 21.5947C19.341 21.8449 18.8191 21.9441 18.2549 21.9902C17.7027 22.0353 17.0231 22.0351 16.2002 22.0351H10C9.13685 22.0351 8.50227 22.0437 7.95605 21.8974C6.56361 21.5243 5.47564 20.4364 5.10254 19.0439C4.95626 18.4977 4.96484 17.8631 4.96484 17C4.96484 16.4284 5.42839 15.9648 6 15.9648C6.57161 15.9648 7.03516 16.4284 7.03516 17C7.03516 17.9966 7.0435 18.2921 7.10156 18.5088C7.28328 19.1868 7.81318 19.7167 8.49121 19.8984C8.70792 19.9565 9.00339 19.9648 10 19.9648H16.2002C17.0571 19.9648 17.6377 19.9643 18.0859 19.9277C18.5222 19.8921 18.7419 19.8277 18.8926 19.7509C19.2621 19.5626 19.5626 19.262 19.751 18.8926C19.8277 18.7419 19.8921 18.5222 19.9277 18.0859C19.9643 17.6376 19.9648 17.0571 19.9648 16.2002V7.79978C19.9648 6.94285 19.9643 6.36231 19.9277 5.91404C19.8921 5.47778 19.8277 5.25804 19.751 5.10739C19.5626 4.73792 19.2621 4.43734 18.8926 4.249C18.7419 4.17224 18.5222 4.10788 18.0859 4.07224C17.6377 4.03563 17.0571 4.03513 16.2002 4.03513H10C9.00339 4.03513 8.70792 4.04347 8.49121 4.10154C7.81318 4.28325 7.28328 4.81316 7.10156 5.49118C7.0435 5.70789 7.03516 6.00337 7.03516 6.99997C7.03516 7.57159 6.57161 8.03513 6 8.03513C5.42839 8.03513 4.96484 7.57159 4.96484 6.99997Z"/></svg>