<svg xmlns="http://www.w3.org/2000/svg" width="24" height="24" fill="none" viewBox="0 0 24 24"><path fill="currentColor" d="M19.9648 16.2002V7.7998C19.9648 6.94287 19.9643 6.36234 19.9277 5.91406C19.8921 5.47781 19.8277 5.25806 19.751 5.10742C19.5626 4.73794 19.2621 4.43737 18.8926 4.24902C18.7419 4.17227 18.5222 4.10791 18.0859 4.07227C17.6377 4.03565 17.0571 4.03516 16.2002 4.03516H15C14.4284 4.03516 13.9648 3.57161 13.9648 3C13.9648 2.42839 14.4284 1.96484 15 1.96484H16.2002C17.0231 1.96484 17.7027 1.96465 18.2549 2.00977C18.8191 2.05588 19.341 2.15509 19.832 2.40527C20.591 2.79208 21.2079 3.409 21.5947 4.16797C21.8449 4.65899 21.9441 5.18095 21.9902 5.74512C22.0353 6.29725 22.0352 6.97689 22.0352 7.7998V16.2002C22.0352 17.0231 22.0353 17.7027 21.9902 18.2549C21.9441 18.8191 21.8449 19.341 21.5947 19.832C21.2079 20.591 20.591 21.2079 19.832 21.5947C19.341 21.8449 18.8191 21.9441 18.2549 21.9902C17.7027 22.0353 17.0231 22.0352 16.2002 22.0352H15C14.4284 22.0352 13.9648 21.5716 13.9648 21C13.9648 20.4284 14.4284 19.9648 15 19.9648H16.2002C17.0571 19.9648 17.6377 19.9643 18.0859 19.9277C18.5222 19.8921 18.7419 19.8277 18.8926 19.751C19.2621 19.5626 19.5626 19.2621 19.751 18.8926C19.8277 18.7419 19.8921 18.5222 19.9277 18.0859C19.9643 17.6377 19.9648 17.0571 19.9648 16.2002ZM9.26855 6.26855C9.67275 5.86436 10.3273 5.86436 10.7314 6.26855L15.7314 11.2686C16.1356 11.6727 16.1356 12.3273 15.7314 12.7314L10.7314 17.7314C10.3273 18.1356 9.67275 18.1356 9.26855 17.7314C8.86436 17.3273 8.86436 16.6727 9.26855 16.2686L12.502 13.0352H3C2.42839 13.0352 1.96484 12.5716 1.96484 12C1.96484 11.4284 2.42839 10.9648 3 10.9648H12.502L9.26855 7.73145C8.86436 7.32725 8.86436 6.67275 9.26855 6.26855Z"/></svg>