<svg xmlns="http://www.w3.org/2000/svg" width="24" height="24" fill="none" viewBox="0 0 24 24"><path fill="currentColor" d="M15.2686 6.26853C15.6727 5.86434 16.3273 5.86434 16.7314 6.26853L21.7314 11.2685C22.1356 11.6727 22.1356 12.3272 21.7314 12.7314L16.7314 17.7314C16.3273 18.1356 15.6727 18.1356 15.2686 17.7314C14.8644 17.3272 14.8644 16.6727 15.2686 16.2685L18.502 13.0351H9C8.42839 13.0351 7.96484 12.5716 7.96484 12C7.96484 11.4284 8.42839 10.9648 9 10.9648H18.502L15.2686 7.73142C14.8644 7.32723 14.8644 6.67272 15.2686 6.26853ZM10.9648 6.99997C10.9648 6.00337 10.9565 5.70789 10.8984 5.49118C10.7167 4.81316 10.1868 4.28325 9.50879 4.10154C9.29208 4.04347 8.99661 4.03513 8 4.03513H7.5C6.78693 4.03513 6.30368 4.03591 5.92871 4.0615C5.56325 4.08645 5.37653 4.13132 5.24805 4.18454C4.76657 4.38398 4.38401 4.76654 4.18457 5.24802C4.13135 5.37651 4.08648 5.56323 4.06152 5.92868C4.03594 6.30365 4.03516 6.7869 4.03516 7.49997V16.5C4.03516 17.213 4.03594 17.6963 4.06152 18.0713C4.08648 18.4367 4.13135 18.6234 4.18457 18.7519C4.38401 19.2334 4.76657 19.616 5.24805 19.8154C5.37654 19.8686 5.56325 19.9135 5.92871 19.9384C6.30368 19.964 6.78693 19.9648 7.5 19.9648H8C8.99661 19.9648 9.29208 19.9565 9.50879 19.8984C10.1868 19.7167 10.7167 19.1868 10.8984 18.5088C10.9565 18.2921 10.9648 17.9966 10.9648 17C10.9648 16.4284 11.4284 15.9648 12 15.9648C12.5716 15.9648 13.0352 16.4284 13.0352 17C13.0352 17.8631 13.0437 18.4977 12.8975 19.0439C12.5244 20.4364 11.4364 21.5243 10.0439 21.8974C9.49773 22.0437 8.86315 22.0351 8 22.0351H7.5C6.81525 22.0351 6.24986 22.0354 5.78809 22.0039C5.31704 21.9717 4.87883 21.9026 4.45605 21.7275C3.46737 21.318 2.68199 20.5326 2.27246 19.5439C2.09735 19.1211 2.02823 18.6829 1.99609 18.2119C1.96459 17.7501 1.96484 17.1847 1.96484 16.5V7.49997C1.96484 6.81522 1.96459 6.24983 1.99609 5.78806C2.02823 5.31701 2.09735 4.8788 2.27246 4.45603C2.68199 3.46734 3.46737 2.68196 4.45605 2.27243C4.87883 2.09732 5.31704 2.02821 5.78809 1.99607C6.24986 1.96456 6.81525 1.96482 7.5 1.96482H8C8.86315 1.96482 9.49773 1.95623 10.0439 2.10251C11.4364 2.47562 12.5244 3.56358 12.8975 4.95603C13.0437 5.50224 13.0352 6.13682 13.0352 6.99997C13.0352 7.57159 12.5716 8.03513 12 8.03513C11.4284 8.03513 10.9648 7.57159 10.9648 6.99997Z"/></svg>