<svg xmlns="http://www.w3.org/2000/svg" width="24" height="24" fill="none" viewBox="0 0 24 24"><path fill="currentColor" d="M15.2686 6.2682C15.6727 5.86421 16.3273 5.86421 16.7314 6.2682L21.7314 11.2682C22.1356 11.6724 22.1356 12.3279 21.7314 12.7321L16.7314 17.7321C16.3273 18.1358 15.6727 18.1358 15.2686 17.7321C14.8644 17.3279 14.8644 16.6724 15.2686 16.2682L18.502 13.0348H9C8.42839 13.0348 7.96484 12.5713 7.96484 11.9996C7.96501 11.4282 8.42849 10.9645 9 10.9645H18.501L15.2686 7.73206C14.8644 7.32787 14.8644 6.67239 15.2686 6.2682ZM10.9648 6.99964C10.9648 6.68387 10.9642 6.59006 10.958 6.51722C10.8832 5.6457 10.2407 4.92803 9.38281 4.75745C9.31114 4.74323 9.21785 4.73175 8.9043 4.69691L7.88281 4.58363C7.10074 4.49673 6.56779 4.43796 6.15332 4.42152C5.74718 4.40541 5.54072 4.43556 5.40137 4.48011C4.86914 4.65042 4.43419 5.03933 4.20606 5.54945C4.14636 5.68299 4.0943 5.8852 4.06543 6.29066C4.036 6.70441 4.03516 7.24107 4.03516 8.02796V15.9723C4.03516 16.7591 4.03601 17.2949 4.06543 17.7086C4.09428 18.1142 4.14637 18.3162 4.20606 18.4498C4.43415 18.9601 4.86903 19.3498 5.40137 19.5201C5.54072 19.5647 5.74726 19.5939 6.15332 19.5778C6.5678 19.5613 7.10075 19.5026 7.88281 19.4157L8.9043 19.3024C9.21788 19.2675 9.31115 19.2561 9.38281 19.2418C10.2407 19.0713 10.8831 18.3545 10.958 17.483C10.9643 17.4102 10.9648 17.3159 10.9648 16.9996C10.965 16.4282 11.4285 15.9645 12 15.9645C12.5715 15.9645 13.035 16.4282 13.0352 16.9996C13.0352 17.2745 13.0362 17.4767 13.0205 17.6598C12.8669 19.4493 11.5487 20.9217 9.78711 21.2721C9.60685 21.3079 9.40583 21.3297 9.13281 21.36L8.11133 21.4733C7.35893 21.5569 6.74051 21.6261 6.23535 21.6461C5.72232 21.6665 5.24059 21.6413 4.77051 21.4909C3.67739 21.1411 2.78479 20.3424 2.31641 19.2946C2.11506 18.8441 2.03644 18.3681 2 17.8561C1.96413 17.3518 1.96484 16.7293 1.96484 15.9723V8.02796C1.96484 7.27092 1.96413 6.64846 2 6.14417C2.03644 5.63194 2.11496 5.15538 2.31641 4.70472C2.78483 3.65709 3.67751 2.85819 4.77051 2.50843C5.24053 2.35808 5.72238 2.33281 6.23535 2.35316C6.74051 2.3732 7.35892 2.44241 8.11133 2.52601L9.13281 2.64027C9.40591 2.67061 9.60684 2.69134 9.78711 2.72718C11.5487 3.07751 12.8669 4.5509 13.0205 6.34046C13.0362 6.52344 13.0352 6.72513 13.0352 6.99964C13.0352 7.57126 12.5716 8.0348 12 8.0348C11.4284 8.0348 10.9648 7.57126 10.9648 6.99964Z"/></svg>