<svg xmlns="http://www.w3.org/2000/svg" width="24" height="24" fill="none" viewBox="0 0 24 24"><path fill="currentColor" d="M18.9648 6.7998C18.9648 5.94287 18.9643 5.36234 18.9277 4.91406C18.8921 4.47781 18.8277 4.25807 18.751 4.10742C18.5626 3.73794 18.2621 3.43737 17.8926 3.24902C17.7419 3.17227 17.5222 3.10791 17.0859 3.07227C16.6377 3.03565 16.0571 3.03516 15.2002 3.03516H8.7998C7.94287 3.03516 7.36234 3.03565 6.91406 3.07227C6.47781 3.10791 6.25807 3.17227 6.10742 3.24902C5.73794 3.43737 5.43737 3.73794 5.24902 4.10742C5.17227 4.25807 5.10791 4.47781 5.07227 4.91406C5.03565 5.36234 5.03516 5.94287 5.03516 6.7998V15.2002C5.03516 16.0571 5.03565 16.6377 5.07227 17.0859C5.10791 17.5222 5.17227 17.7419 5.24902 17.8926C5.43737 18.2621 5.73794 18.5626 6.10742 18.751C6.25807 18.8277 6.47781 18.8921 6.91406 18.9277C7.36234 18.9643 7.94287 18.9648 8.7998 18.9648H15.2002C16.0571 18.9648 16.6377 18.9643 17.0859 18.9277C17.5222 18.8921 17.7419 18.8277 17.8926 18.751C18.2621 18.5626 18.5626 18.2621 18.751 17.8926C18.8277 17.7419 18.8921 17.5222 18.9277 17.0859C18.9643 16.6377 18.9648 16.0571 18.9648 15.2002V6.7998ZM8.46484 15V7C8.46484 6.42839 8.92839 5.96484 9.5 5.96484C10.0716 5.96484 10.5352 6.42839 10.5352 7V15C10.5352 15.5716 10.0716 16.0352 9.5 16.0352C8.92839 16.0352 8.46484 15.5716 8.46484 15ZM13.4648 15V7C13.4648 6.42839 13.9284 5.96484 14.5 5.96484C15.0716 5.96484 15.5352 6.42839 15.5352 7V15C15.5352 15.5716 15.0716 16.0352 14.5 16.0352C13.9284 16.0352 13.4648 15.5716 13.4648 15ZM21.0352 15.2002C21.0352 16.0231 21.0353 16.7027 20.9902 17.2549C20.9441 17.8191 20.8449 18.341 20.5947 18.832C20.2079 19.591 19.591 20.2079 18.832 20.5947C18.341 20.8449 17.8191 20.9441 17.2549 20.9902C17.1839 20.996 17.1104 20.9985 17.0352 21.0029V22C17.0352 22.5716 16.5716 23.0352 16 23.0352C15.4284 23.0352 14.9648 22.5716 14.9648 22V21.0352H9.03516V22C9.03516 22.5716 8.57161 23.0352 8 23.0352C7.42839 23.0352 6.96484 22.5716 6.96484 22V21.0029C6.8896 20.9985 6.81612 20.996 6.74512 20.9902C6.18095 20.9441 5.65899 20.8449 5.16797 20.5947C4.409 20.2079 3.79208 19.591 3.40527 18.832C3.15509 18.341 3.05588 17.8191 3.00977 17.2549C2.96465 16.7027 2.96484 16.0231 2.96484 15.2002V6.7998C2.96484 5.97689 2.96465 5.29725 3.00977 4.74512C3.05588 4.18095 3.15509 3.65899 3.40527 3.16797C3.79208 2.409 4.409 1.79208 5.16797 1.40527C5.65899 1.15509 6.18095 1.05588 6.74512 1.00977C7.29725 0.964654 7.97689 0.964844 8.7998 0.964844H15.2002C16.0231 0.964844 16.7027 0.964654 17.2549 1.00977C17.8191 1.05588 18.341 1.15509 18.832 1.40527C19.591 1.79208 20.2079 2.409 20.5947 3.16797C20.8449 3.65899 20.9441 4.18095 20.9902 4.74512C21.0353 5.29725 21.0352 5.97689 21.0352 6.7998V15.2002Z"/></svg>