<svg xmlns="http://www.w3.org/2000/svg" width="24" height="24" fill="none" viewBox="0 0 24 24"><path fill="currentColor" d="M20.9648 11.7999C20.9648 10.943 20.9643 10.3624 20.9277 9.91416C20.8921 9.47791 20.8277 9.25816 20.751 9.10752C20.5626 8.73804 20.2621 8.43746 19.8926 8.24912C19.7419 8.17236 19.5222 8.108 19.0859 8.07236C18.6377 8.03575 18.0571 8.03525 17.2002 8.03525H6.7998C5.94287 8.03525 5.36234 8.03575 4.91406 8.07236C4.47781 8.108 4.25807 8.17236 4.10742 8.24912C3.73794 8.43746 3.43737 8.73804 3.24902 9.10752C3.17227 9.25816 3.10791 9.47791 3.07227 9.91416C3.03565 10.3624 3.03516 10.943 3.03516 11.7999V16.2003C3.03516 17.0572 3.03565 17.6378 3.07227 18.086C3.10791 18.5223 3.17227 18.742 3.24902 18.8927C3.43737 19.2622 3.73794 19.5627 4.10742 19.7511C4.25807 19.8278 4.47781 19.8922 4.91406 19.9278C5.36234 19.9644 5.94287 19.9649 6.7998 19.9649H17.2002C18.0571 19.9649 18.6377 19.9644 19.0859 19.9278C19.5222 19.8922 19.7419 19.8278 19.8926 19.7511C20.2621 19.5627 20.5626 19.2622 20.751 18.8927C20.8277 18.742 20.8921 18.5223 20.9277 18.086C20.9643 17.6378 20.9648 17.0572 20.9648 16.2003V11.7999ZM13.0352 16.4649H17.4648V14.5353H13.0352V16.4649ZM12 4.03525C11.0034 4.03525 10.7079 4.04359 10.4912 4.10166C9.81318 4.28337 9.28328 4.81328 9.10156 5.49131C9.07204 5.6015 9.05627 5.73224 9.04688 5.96494H14.9531C14.9437 5.73224 14.928 5.6015 14.8984 5.49131C14.7167 4.81328 14.1868 4.28337 13.5088 4.10166C13.2921 4.04359 12.9966 4.03525 12 4.03525ZM19.5352 16.7003C19.5352 16.8231 19.5354 16.9773 19.5244 17.1124C19.5124 17.2598 19.4821 17.4737 19.3682 17.6974C19.221 17.9861 18.986 18.2211 18.6973 18.3683C18.4736 18.4822 18.2597 18.5125 18.1123 18.5245C17.9772 18.5355 17.823 18.5353 17.7002 18.5353H12.7998C12.677 18.5353 12.5228 18.5355 12.3877 18.5245C12.2403 18.5125 12.0264 18.4822 11.8027 18.3683C11.514 18.2211 11.279 17.9861 11.1318 17.6974C11.0179 17.4737 10.9876 17.2598 10.9756 17.1124C10.9646 16.9773 10.9648 16.8231 10.9648 16.7003V14.2999C10.9648 14.1771 10.9646 14.0229 10.9756 13.8878C10.9876 13.7404 11.0179 13.5265 11.1318 13.3028C11.279 13.0141 11.514 12.7791 11.8027 12.6319C12.0264 12.5179 12.2403 12.4877 12.3877 12.4757C12.5228 12.4647 12.677 12.4649 12.7998 12.4649H17.7002C17.823 12.4649 17.9772 12.4647 18.1123 12.4757C18.2229 12.4847 18.3709 12.5042 18.5322 12.5616L18.6973 12.6319L18.8027 12.6915C19.0088 12.8179 19.1822 12.9913 19.3086 13.1974L19.3682 13.3028L19.4385 13.4679C19.4959 13.6292 19.5154 13.7772 19.5244 13.8878C19.5354 14.0229 19.5352 14.1771 19.5352 14.2999V16.7003ZM23.0352 16.2003C23.0352 17.0232 23.0353 17.7028 22.9902 18.255C22.9441 18.8191 22.8449 19.3411 22.5947 19.8321C22.2079 20.5911 21.591 21.208 20.832 21.5948C20.341 21.845 19.8191 21.9442 19.2549 21.9903C18.7027 22.0354 18.0231 22.0353 17.2002 22.0353H6.7998C5.97689 22.0353 5.29725 22.0354 4.74512 21.9903C4.18095 21.9442 3.65899 21.845 3.16797 21.5948C2.409 21.208 1.79208 20.5911 1.40527 19.8321C1.15509 19.3411 1.05588 18.8191 1.00977 18.255C0.964654 17.7028 0.964844 17.0232 0.964844 16.2003V11.7999C0.964844 10.977 0.964654 10.2973 1.00977 9.74521C1.05588 9.18104 1.15509 8.65909 1.40527 8.16806C1.79208 7.4091 2.409 6.79217 3.16797 6.40537C3.65899 6.15518 4.18095 6.05597 4.74512 6.00986C5.29725 5.96475 5.97689 5.96494 6.7998 5.96494H6.97559C6.98937 5.58604 7.0218 5.25763 7.10254 4.95615C7.47564 3.5637 8.56361 2.47574 9.95605 2.10263C10.5023 1.95635 11.1368 1.96494 12 1.96494C12.8632 1.96494 13.4977 1.95635 14.0439 2.10263C15.4364 2.47574 16.5244 3.5637 16.8975 4.95615C16.9782 5.25763 17.0106 5.58604 17.0244 5.96494H17.2002C18.0231 5.96494 18.7027 5.96475 19.2549 6.00986C19.8191 6.05597 20.341 6.15518 20.832 6.40537C21.591 6.79217 22.2079 7.4091 22.5947 8.16806C22.8449 8.65909 22.9441 9.18104 22.9902 9.74521C23.0353 10.2973 23.0352 10.977 23.0352 11.7999V16.2003Z"/></svg>