<svg xmlns="http://www.w3.org/2000/svg" width="24" height="24" fill="none" viewBox="0 0 24 24"><path fill="currentColor" d="M13.0256 6.93555C13.3373 6.86081 13.6622 6.86091 13.9739 6.93555L14.1291 6.97852L14.3381 7.0625C14.5347 7.15584 14.6951 7.27536 14.8274 7.3877C14.9946 7.52967 15.1776 7.71354 15.3635 7.89941L16.1008 8.63672C16.2867 8.82262 16.4706 9.00562 16.6125 9.17285C16.7249 9.30522 16.8444 9.46549 16.9377 9.66211L17.0217 9.87109L17.0647 10.0254C17.1519 10.3891 17.1379 10.7712 17.0217 11.1289C16.9256 11.4248 16.7624 11.6506 16.6125 11.8271C16.4706 11.9944 16.2867 12.1774 16.1008 12.3633L6.86352 21.6006C6.67764 21.7865 6.4946 21.9703 6.32738 22.1123C6.1509 22.2621 5.92495 22.4253 5.62914 22.5215C5.22048 22.6543 4.78 22.6542 4.37133 22.5215C4.07548 22.4254 3.84959 22.2621 3.67309 22.1123C3.50586 21.9703 3.32285 21.7865 3.13695 21.6006L2.39965 20.8633C2.21377 20.6774 2.02991 20.4944 1.88793 20.3271C1.73809 20.1506 1.57488 19.9248 1.47875 19.6289C1.34595 19.2202 1.34595 18.7798 1.47875 18.3711L1.56273 18.1621C1.65608 17.9655 1.77558 17.8052 1.88793 17.6729C2.02991 17.5056 2.21377 17.3226 2.39965 17.1367L11.637 7.89941C11.8229 7.71351 12.0059 7.52966 12.1731 7.3877C12.3496 7.23786 12.5755 7.07464 12.8713 6.97852L13.0256 6.93555ZM3.86352 18.6006C3.66341 18.8007 3.55142 18.9138 3.4768 19C3.55142 19.0862 3.66341 19.1993 3.86352 19.3994L4.60082 20.1367C4.80061 20.3365 4.9141 20.4479 5.00023 20.5225C5.08636 20.4478 5.19993 20.3364 5.39965 20.1367L11.5364 14L10.0002 12.4639L3.86352 18.6006ZM18.218 12.2686C18.6222 11.8644 19.2777 11.8644 19.6819 12.2686L20.7424 13.3291C21.1464 13.7333 21.1465 14.3888 20.7424 14.793C20.3383 15.1969 19.6827 15.1969 19.2786 14.793L18.218 13.7314C17.814 13.3273 17.814 12.6727 18.218 12.2686ZM13.5002 8.97656C13.414 9.05117 13.301 9.16312 13.1008 9.36328L11.4631 11L12.9993 12.5361L14.637 10.8994C14.8367 10.6996 14.9481 10.5861 15.0227 10.5C14.9481 10.4139 14.8367 10.3004 14.637 10.1006L13.8996 9.36328C13.6996 9.16319 13.5864 9.05119 13.5002 8.97656ZM22.01 7.96484C22.5816 7.96484 23.0452 8.42839 23.0452 9C23.0452 9.57161 22.5816 10.0352 22.01 10.0352H20.51C19.9386 10.0349 19.4758 9.57147 19.4758 9C19.4758 8.42853 19.9386 7.96508 20.51 7.96484H22.01ZM9.21801 3.26855C9.6222 2.86436 10.2777 2.86436 10.6819 3.26855L11.7424 4.3291C12.1464 4.73331 12.1465 5.38885 11.7424 5.79297C11.3383 6.19693 10.6827 6.19689 10.2786 5.79297L9.21801 4.73145C8.81403 4.32729 8.81403 3.67271 9.21801 3.26855ZM19.2786 3.26855C19.6827 2.86436 20.3382 2.86436 20.7424 3.26855C21.1463 3.67268 21.1463 4.32732 20.7424 4.73145L19.6819 5.79297C19.2778 6.19697 18.6222 6.19686 18.218 5.79297C17.8139 5.38881 17.8139 4.7333 18.218 4.3291L19.2786 3.26855ZM13.9758 3.5V2C13.9758 1.42853 14.4386 0.965079 15.01 0.964844C15.5816 0.964844 16.0452 1.42839 16.0452 2V3.5C16.0452 4.07161 15.5816 4.53516 15.01 4.53516C14.4386 4.53492 13.9758 4.07147 13.9758 3.5Z"/></svg>