<svg xmlns="http://www.w3.org/2000/svg" width="24" height="24" fill="none" viewBox="0 0 24 24"><path fill="currentColor" d="M11.2685 11.2686C11.6727 10.8644 12.3272 10.8644 12.7314 11.2686C13.1356 11.6727 13.1356 12.3273 12.7314 12.7314L3.73137 21.7314C3.32717 22.1356 2.67267 22.1356 2.26848 21.7314C1.86428 21.3273 1.86428 20.6727 2.26848 20.2686L11.2685 11.2686ZM13.9648 16V14C13.9648 13.4284 14.4283 12.9648 14.9999 12.9648C15.5715 12.9648 16.0351 13.4284 16.0351 14V16C16.0351 16.5716 15.5715 17.0352 14.9999 17.0352C14.4283 17.0352 13.9648 16.5716 13.9648 16ZM17.0683 11.0684C17.4725 10.6642 18.128 10.6642 18.5321 11.0684L19.7314 12.2686C20.1356 12.6727 20.1356 13.3273 19.7314 13.7314C19.3272 14.1356 18.6727 14.1356 18.2685 13.7314L17.0683 12.5322C16.6641 12.128 16.6641 11.4726 17.0683 11.0684ZM9.99992 7.96484C10.5715 7.96484 11.0351 8.42839 11.0351 9C11.0351 9.57161 10.5715 10.0352 9.99992 10.0352H7.99992C7.42831 10.0352 6.96477 9.57161 6.96477 9C6.96477 8.42839 7.42831 7.96484 7.99992 7.96484H9.99992ZM21.9999 7.96484C22.5715 7.96484 23.0351 8.42839 23.0351 9C23.0351 9.57161 22.5715 10.0352 21.9999 10.0352H19.9999C19.4283 10.0352 18.9648 9.57161 18.9648 9C18.9648 8.42839 19.4283 7.96484 19.9999 7.96484H21.9999ZM10.2685 4.26855C10.6727 3.86436 11.3272 3.86436 11.7314 4.26855L12.9316 5.46777C13.3358 5.87197 13.3358 6.52745 12.9316 6.93164C12.5274 7.33583 11.8719 7.33583 11.4677 6.93164L10.2685 5.73145C9.86428 5.32725 9.86428 4.67275 10.2685 4.26855ZM18.2685 4.26855C18.6727 3.86436 19.3272 3.86436 19.7314 4.26855C20.1356 4.67275 20.1356 5.32725 19.7314 5.73145L18.5321 6.93164C18.128 7.33583 17.4725 7.33583 17.0683 6.93164C16.6641 6.52745 16.6641 5.87197 17.0683 5.46777L18.2685 4.26855ZM13.9648 4V2C13.9648 1.42839 14.4283 0.964844 14.9999 0.964844C15.5715 0.964844 16.0351 1.42839 16.0351 2V4C16.0351 4.57161 15.5715 5.03516 14.9999 5.03516C14.4283 5.03516 13.9648 4.57161 13.9648 4Z"/></svg>