<svg xmlns="http://www.w3.org/2000/svg" width="24" height="24" fill="none" viewBox="0 0 24 24"><path fill="currentColor" d="M20.9648 8.9873L16.5146 12.1025L20.96 16.1172C20.9626 15.8507 20.9648 15.5482 20.9648 15.2002V8.9873ZM14.4287 13.5635C13.8378 13.9771 13.3249 14.3566 12.7344 14.5039C12.2524 14.6241 11.7476 14.6241 11.2656 14.5039C10.6751 14.3566 10.1622 13.9771 9.57129 13.5635L9.22461 13.3203L3.61133 18.3906C3.75594 18.535 3.9231 18.657 4.10742 18.751C4.25807 18.8277 4.47781 18.8921 4.91406 18.9277C5.36234 18.9643 5.94287 18.9648 6.7998 18.9648H17.2002C18.0571 18.9648 18.6377 18.9643 19.0859 18.9277C19.5222 18.8921 19.7419 18.8277 19.8926 18.751C20.0767 18.6571 20.2432 18.5348 20.3877 18.3906L14.7744 13.3203L14.4287 13.5635ZM6.7998 5.03516C5.94287 5.03516 5.36234 5.03565 4.91406 5.07227C4.47781 5.10791 4.25807 5.17227 4.10742 5.24902C3.73794 5.43737 3.43737 5.73794 3.24902 6.10742C3.19974 6.20415 3.15778 6.32994 3.12305 6.52246L10.7588 11.8672C11.49 12.3791 11.638 12.4631 11.7666 12.4951C11.9198 12.5333 12.0802 12.5333 12.2334 12.4951C12.362 12.4631 12.51 12.3791 13.2412 11.8672L20.876 6.52246C20.8412 6.33004 20.8002 6.20412 20.751 6.10742C20.5626 5.73794 20.2621 5.43737 19.8926 5.24902C19.7419 5.17227 19.5222 5.10791 19.0859 5.07227C18.6377 5.03565 18.0571 5.03516 17.2002 5.03516H6.7998ZM3.03906 16.1172L7.48438 12.1025L3.03516 8.9873V15.2002C3.03516 15.5482 3.03645 15.8507 3.03906 16.1172ZM23.0352 15.2002C23.0352 16.0231 23.0353 16.7027 22.9902 17.2549C22.9441 17.8191 22.8449 18.341 22.5947 18.832C22.2079 19.591 21.591 20.2079 20.832 20.5947C20.341 20.8449 19.8191 20.9441 19.2549 20.9902C18.7027 21.0353 18.0231 21.0352 17.2002 21.0352H6.7998C5.97689 21.0352 5.29725 21.0353 4.74512 20.9902C4.18095 20.9441 3.65899 20.8449 3.16797 20.5947C2.409 20.2079 1.79208 19.591 1.40527 18.832C1.15509 18.341 1.05588 17.8191 1.00977 17.2549C0.964654 16.7027 0.964844 16.0231 0.964844 15.2002V8.7998C0.964844 8.18611 0.964914 7.65222 0.983398 7.19141C0.951377 7.02127 0.961674 6.84347 1.01758 6.6748C1.06617 6.13758 1.16554 5.63848 1.40527 5.16797C1.79208 4.409 2.409 3.79208 3.16797 3.40527C3.65899 3.15509 4.18095 3.05588 4.74512 3.00977C5.29725 2.96465 5.97689 2.96484 6.7998 2.96484H17.2002C18.0231 2.96484 18.7027 2.96465 19.2549 3.00977C19.8191 3.05588 20.341 3.15509 20.832 3.40527C21.591 3.79208 22.2079 4.409 22.5947 5.16797C22.8345 5.63848 22.9338 6.13758 22.9824 6.6748C23.0383 6.84347 23.0486 7.02127 23.0166 7.19141C23.0351 7.65222 23.0352 8.18611 23.0352 8.7998V15.2002Z"/></svg>