<svg xmlns="http://www.w3.org/2000/svg" width="24" height="24" fill="none" viewBox="0 0 24 24"><path fill="currentColor" d="M20.9648 8.9873L14.4287 13.5635C13.8378 13.9771 13.3249 14.3566 12.7344 14.5039C12.2524 14.6241 11.7476 14.6241 11.2656 14.5039C10.6751 14.3566 10.1622 13.9771 9.57129 13.5635L3.03516 8.9873V15.2002C3.03516 16.0571 3.03565 16.6377 3.07227 17.0859C3.10791 17.5222 3.17227 17.7419 3.24902 17.8926C3.43737 18.2621 3.73794 18.5626 4.10742 18.751C4.25807 18.8277 4.47781 18.8921 4.91406 18.9277C5.36234 18.9643 5.94287 18.9648 6.7998 18.9648H17.2002C18.0571 18.9648 18.6377 18.9643 19.0859 18.9277C19.5222 18.8921 19.7419 18.8277 19.8926 18.751C20.2621 18.5626 20.5626 18.2621 20.751 17.8926C20.8277 17.7419 20.8921 17.5222 20.9277 17.0859C20.9643 16.6377 20.9648 16.0571 20.9648 15.2002V8.9873ZM6.7998 5.03516C5.94287 5.03516 5.36234 5.03565 4.91406 5.07227C4.47781 5.10791 4.25807 5.17227 4.10742 5.24902C3.73794 5.43737 3.43737 5.73794 3.24902 6.10742C3.19974 6.20415 3.15778 6.32994 3.12305 6.52246L10.7588 11.8672C11.49 12.3791 11.638 12.4631 11.7666 12.4951C11.9198 12.5333 12.0802 12.5333 12.2334 12.4951C12.362 12.4631 12.51 12.3791 13.2412 11.8672L20.876 6.52246C20.8412 6.33004 20.8002 6.20412 20.751 6.10742C20.5626 5.73794 20.2621 5.43737 19.8926 5.24902C19.7419 5.17227 19.5222 5.10791 19.0859 5.07227C18.6377 5.03565 18.0571 5.03516 17.2002 5.03516H6.7998ZM23.0352 15.2002C23.0352 16.0231 23.0353 16.7027 22.9902 17.2549C22.9441 17.8191 22.8449 18.341 22.5947 18.832C22.2079 19.591 21.591 20.2079 20.832 20.5947C20.341 20.8449 19.8191 20.9441 19.2549 20.9902C18.7027 21.0353 18.0231 21.0352 17.2002 21.0352H6.7998C5.97689 21.0352 5.29725 21.0353 4.74512 20.9902C4.18095 20.9441 3.65899 20.8449 3.16797 20.5947C2.409 20.2079 1.79208 19.591 1.40527 18.832C1.15509 18.341 1.05588 17.8191 1.00977 17.2549C0.964654 16.7027 0.964844 16.0231 0.964844 15.2002V8.7998C0.964844 8.18611 0.964914 7.65222 0.983398 7.19141C0.951377 7.02127 0.961674 6.84347 1.01758 6.6748C1.06617 6.13758 1.16554 5.63848 1.40527 5.16797C1.79208 4.409 2.409 3.79208 3.16797 3.40527C3.65899 3.15509 4.18095 3.05588 4.74512 3.00977C5.29725 2.96465 5.97689 2.96484 6.7998 2.96484H17.2002C18.0231 2.96484 18.7027 2.96465 19.2549 3.00977C19.8191 3.05588 20.341 3.15509 20.832 3.40527C21.591 3.79208 22.2079 4.409 22.5947 5.16797C22.8345 5.63848 22.9338 6.13758 22.9824 6.6748C23.0383 6.84347 23.0486 7.02127 23.0166 7.19141C23.0351 7.65222 23.0352 8.18611 23.0352 8.7998V15.2002Z"/></svg>