<svg xmlns="http://www.w3.org/2000/svg" width="24" height="24" fill="none" viewBox="0 0 24 24"><path fill="currentColor" d="M20.9649 9.9069L14.3077 14.2341C13.7429 14.6012 13.2516 14.938 12.6934 15.069C12.2373 15.1761 11.7628 15.1761 11.3067 15.069C10.7485 14.938 10.2573 14.6012 9.69247 14.2341L3.03524 9.9069V16.1999C3.03524 17.057 3.03572 17.6383 3.07235 18.0866C3.108 18.5226 3.17238 18.7417 3.24911 18.8923C3.43742 19.2618 3.738 19.5623 4.10751 19.7507C4.25815 19.8274 4.4779 19.8918 4.91415 19.9274C5.36243 19.964 5.94294 19.9655 6.79989 19.9655H17.2003C18.0572 19.9655 18.6377 19.964 19.086 19.9274C19.5223 19.8918 19.742 19.8274 19.8927 19.7507C20.2622 19.5623 20.5628 19.2618 20.7511 18.8923C20.8278 18.7417 20.8922 18.5226 20.9278 18.0866C20.9645 17.6383 20.9649 17.057 20.9649 16.1999V9.9069ZM12.2208 2.94597C12.0758 2.91192 11.9244 2.91192 11.7794 2.94597C11.6575 2.97461 11.5176 3.04844 10.8204 3.50163L3.89852 7.99968L10.8204 12.4987C11.5176 12.9519 11.6575 13.0257 11.7794 13.0544C11.9244 13.0884 12.0757 13.0884 12.2208 13.0544C12.3426 13.0257 12.4826 12.9519 13.1798 12.4987L20.1007 7.99968L13.1798 3.50163C12.4826 3.04844 12.3426 2.97461 12.2208 2.94597ZM23.0352 16.1999C23.0352 17.0228 23.0354 17.7024 22.9903 18.2546C22.9442 18.8188 22.845 19.3406 22.5948 19.8317C22.208 20.5909 21.5913 21.2085 20.8321 21.5954C20.3411 21.8456 19.8192 21.9448 19.255 21.9909C18.7028 22.036 18.0232 22.0348 17.2003 22.0348H6.79989C5.97698 22.0348 5.29734 22.036 4.7452 21.9909C4.18102 21.9448 3.65909 21.8456 3.16806 21.5954C2.40888 21.2085 1.79219 20.5909 1.40536 19.8317C1.15514 19.3406 1.05595 18.8188 1.00985 18.2546C0.964747 17.7024 0.96493 17.0228 0.96493 16.1999V8.86882C0.96493 8.61706 0.954219 8.27231 1.05477 7.94499L1.12411 7.75456C1.20249 7.568 1.30833 7.39382 1.43856 7.23796L1.5245 7.14323C1.73092 6.93113 1.97941 6.77894 2.16415 6.65886L9.69247 1.76628C10.2573 1.39913 10.7485 1.06137 11.3067 0.930342C11.7627 0.82335 12.2374 0.82335 12.6934 0.930342C13.2517 1.06137 13.7429 1.39913 14.3077 1.76628L21.836 6.65886C22.0208 6.77893 22.2692 6.93113 22.4757 7.14323L22.5616 7.23796L22.6837 7.39909C22.7596 7.51081 22.8237 7.63005 22.8761 7.75456L22.9454 7.94499L22.9776 8.06804C23.043 8.35677 23.0352 8.64843 23.0352 8.86882V16.1999Z"/></svg>