<svg xmlns="http://www.w3.org/2000/svg" width="24" height="24" fill="none" viewBox="0 0 24 24"><path fill="currentColor" d="M20.9648 8.93359L17.3799 11.3242C17.1101 11.5041 16.8735 11.6655 16.6084 11.7812C16.3901 11.8765 16.1612 11.9465 15.9268 11.9883C15.642 12.039 15.3556 12.0352 15.0312 12.0352H8.96875C8.64444 12.0352 8.35803 12.039 8.07324 11.9883C7.83877 11.9465 7.60988 11.8765 7.3916 11.7812C7.12651 11.6655 6.88991 11.5041 6.62012 11.3242L3.03516 8.93359V15.2002C3.03516 16.0571 3.03565 16.6377 3.07227 17.0859C3.10791 17.5222 3.17227 17.7419 3.24902 17.8926C3.43737 18.2621 3.73794 18.5626 4.10742 18.751C4.25807 18.8277 4.47781 18.8921 4.91406 18.9277C5.36234 18.9643 5.94287 18.9648 6.7998 18.9648H17.2002C18.0571 18.9648 18.6377 18.9643 19.0859 18.9277C19.5222 18.8921 19.7419 18.8277 19.8926 18.751C20.2621 18.5626 20.5626 18.2621 20.751 17.8926C20.8277 17.7419 20.8921 17.5222 20.9277 17.0859C20.9643 16.6377 20.9648 16.0571 20.9648 15.2002V8.93359ZM6.7998 5.03516C5.94287 5.03516 5.36234 5.03565 4.91406 5.07227C4.47781 5.10791 4.25807 5.17227 4.10742 5.24902C3.73794 5.43737 3.43737 5.73794 3.24902 6.10742C3.20117 6.20134 3.16023 6.3227 3.12598 6.50586L7.76758 9.60156C8.09686 9.82109 8.16081 9.85905 8.21973 9.88477C8.28904 9.91499 8.36208 9.93693 8.43652 9.9502C8.49973 9.96143 8.57381 9.96484 8.96875 9.96484H15.0312C15.4262 9.96484 15.5003 9.96143 15.5635 9.9502C15.6379 9.93693 15.711 9.91499 15.7803 9.88477C15.8392 9.85905 15.9031 9.82109 16.2324 9.60156L20.873 6.50586C20.8388 6.3228 20.7988 6.20131 20.751 6.10742C20.5626 5.73794 20.2621 5.43737 19.8926 5.24902C19.7419 5.17227 19.5222 5.10791 19.0859 5.07227C18.6377 5.03565 18.0571 5.03516 17.2002 5.03516H6.7998ZM23.0352 15.2002C23.0352 16.0231 23.0353 16.7027 22.9902 17.2549C22.9441 17.8191 22.8449 18.341 22.5947 18.832C22.2079 19.591 21.591 20.2079 20.832 20.5947C20.341 20.8449 19.8191 20.9441 19.2549 20.9902C18.7027 21.0353 18.0231 21.0352 17.2002 21.0352H6.7998C5.97689 21.0352 5.29725 21.0353 4.74512 20.9902C4.18095 20.9441 3.65899 20.8449 3.16797 20.5947C2.409 20.2079 1.79208 19.591 1.40527 18.832C1.15509 18.341 1.05588 17.8191 1.00977 17.2549C0.964654 16.7027 0.964844 16.0231 0.964844 15.2002V8.7998C0.964844 8.18481 0.964795 7.64996 0.983398 7.18848C0.952257 7.02059 0.962884 6.84564 1.01758 6.67871C1.06604 6.14001 1.16496 5.63961 1.40527 5.16797C1.79208 4.409 2.409 3.79208 3.16797 3.40527C3.65899 3.15509 4.18095 3.05588 4.74512 3.00977C5.29725 2.96465 5.97689 2.96484 6.7998 2.96484H17.2002C18.0231 2.96484 18.7027 2.96465 19.2549 3.00977C19.8191 3.05588 20.341 3.15509 20.832 3.40527C21.591 3.79208 22.2079 4.409 22.5947 5.16797C22.835 5.63961 22.934 6.14001 22.9824 6.67871C23.0371 6.84564 23.0477 7.02059 23.0166 7.18848C23.0352 7.64996 23.0352 8.18481 23.0352 8.7998V15.2002Z"/></svg>