<svg xmlns="http://www.w3.org/2000/svg" width="24" height="24" fill="none" viewBox="0 0 24 24"><g clip-path="url(#a)"><path fill="currentColor" d="M8.48633 1.10172C8.80452 0.919899 9.19548 0.919899 9.51367 1.10172L15.957 4.78336L21.4258 1.13883C21.7434 0.927102 22.1517 0.907942 22.4883 1.08805C22.8248 1.26818 23.0352 1.6185 23.0352 2.00016V18.0002C23.0352 18.3462 22.8622 18.6695 22.5742 18.8615L16.5742 22.8615C16.248 23.0789 15.8267 23.0931 15.4863 22.8986L9 19.1916L2.51367 22.8986C2.19337 23.0816 1.79955 23.0808 1.48047 22.8957C1.16136 22.7105 0.964844 22.3691 0.964844 22.0002V6.00016C0.964844 5.62882 1.16397 5.28603 1.48633 5.10172L8.48633 1.10172ZM3.03516 6.59977V20.216L7.96484 17.3996V3.78336L3.03516 6.59977ZM10.0352 17.3996L14.9648 20.216V6.59977L10.0352 3.78336V17.3996ZM17.0352 6.55387V20.0656L20.9648 17.4455V3.93375L17.0352 6.55387Z"/></g><defs><clipPath id="a"><path fill="#fff" d="M0 0H24V24H0z"/></clipPath></defs></svg>