<svg xmlns="http://www.w3.org/2000/svg" width="24" height="24" fill="none" viewBox="0 0 24 24"><path fill="currentColor" d="M18.9648 10C18.9648 6.15334 15.8467 3.03516 12 3.03516C8.15334 3.03516 5.03516 6.15334 5.03516 10C5.03516 12.2848 6.28307 14.0302 7.99707 15.8154C8.4221 16.2581 8.86376 16.6915 9.31543 17.1357C9.76321 17.5762 10.2212 18.0278 10.6572 18.4873C11.1278 18.9833 11.5866 19.5053 12 20.0596C12.4134 19.5053 12.8722 18.9833 13.3428 18.4873C13.7788 18.0278 14.2368 17.5762 14.6846 17.1357C15.1362 16.6915 15.5779 16.2581 16.0029 15.8154C17.7169 14.0302 18.9648 12.2848 18.9648 10ZM13.9648 9.5C13.9648 8.41476 13.0852 7.53516 12 7.53516C10.9148 7.53516 10.0352 8.41476 10.0352 9.5C10.0352 10.5852 10.9148 11.4648 12 11.4648C13.0852 11.4648 13.9648 10.5852 13.9648 9.5ZM21.0352 10C21.0352 13.1334 19.2831 15.3888 17.4971 17.249C17.0473 17.7175 16.5823 18.1731 16.1357 18.6123C15.6852 19.0554 15.2524 19.4825 14.8447 19.9121C14.0249 20.7761 13.3575 21.5996 12.9258 22.4629C12.7505 22.8135 12.392 23.0352 12 23.0352C11.608 23.0352 11.2495 22.8135 11.0742 22.4629C10.6426 21.5996 9.97511 20.7761 9.15527 19.9121C8.74761 19.4825 8.31481 19.0554 7.86426 18.6123C7.41772 18.1731 6.95269 17.7175 6.50293 17.249C4.71694 15.3888 2.96484 13.1334 2.96484 10C2.96484 5.01011 7.01011 0.964844 12 0.964844C16.9899 0.964844 21.0352 5.01011 21.0352 10ZM16.0352 9.5C16.0352 11.7285 14.2285 13.5352 12 13.5352C9.77153 13.5352 7.96484 11.7285 7.96484 9.5C7.96484 7.27153 9.77153 5.46484 12 5.46484C14.2285 5.46484 16.0352 7.27153 16.0352 9.5Z"/></svg>