<svg xmlns="http://www.w3.org/2000/svg" width="24" height="24" fill="none" viewBox="0 0 24 24"><path fill="currentColor" d="M0.964844 17.4998C0.964844 16.0778 1.91168 14.9465 3.09668 14.1472C4.30458 13.3326 5.94764 12.7225 7.80078 12.3582C8.36147 12.2482 8.90538 12.6139 9.01562 13.1746C9.12587 13.7354 8.76008 14.2792 8.19922 14.3894C6.52073 14.7195 5.16299 15.2499 4.25391 15.8631C3.32195 16.4916 3.03516 17.0765 3.03516 17.4998C3.03516 18.0814 3.60871 18.9529 5.35352 19.7381C7.00122 20.4795 9.35027 20.9646 12 20.9646C14.6497 20.9646 16.9988 20.4795 18.6465 19.7381C20.3913 18.9529 20.9648 18.0814 20.9648 17.4998C20.9648 17.0765 20.6781 16.4916 19.7461 15.8631C18.837 15.2499 17.4793 14.7195 15.8008 14.3894C15.2399 14.2792 14.8741 13.7354 14.9844 13.1746C15.0946 12.6139 15.6385 12.2482 16.1992 12.3582C18.0524 12.7225 19.6954 13.3326 20.9033 14.1472C22.0883 14.9465 23.0352 16.0779 23.0352 17.4998C23.0352 19.4033 21.3704 20.7822 19.4961 21.6258C17.5245 22.513 14.8731 23.0349 12 23.0349C9.12688 23.0349 6.47549 22.513 4.50391 21.6258C2.62955 20.7822 0.964844 19.4033 0.964844 17.4998ZM10.9648 16.9998V2.99978C10.9648 2.62485 11.1678 2.27938 11.4951 2.09646C11.8223 1.91364 12.2227 1.92172 12.542 2.11794L17.8604 5.3904C18.0369 5.49906 18.2311 5.61751 18.3828 5.73122C18.5117 5.8278 18.7182 5.99756 18.8613 6.2654L18.9189 6.3865L18.9727 6.53982C19.0785 6.90169 19.0477 7.29225 18.8828 7.63552C18.7239 7.96609 18.463 8.15782 18.3096 8.25954C18.1516 8.36426 17.951 8.47086 17.7686 8.56911L13.0352 11.117V16.9998C13.0352 17.5714 12.5716 18.0349 12 18.0349C11.4284 18.0349 10.9648 17.5714 10.9648 16.9998ZM13.0352 8.76638L16.4277 6.94021L13.0352 4.85134V8.76638Z"/></svg>