<svg xmlns="http://www.w3.org/2000/svg" width="24" height="24" fill="none" viewBox="0 0 24 24"><path fill="currentColor" d="M18.9648 10C18.9648 6.15334 15.8467 3.03516 12 3.03516C8.15334 3.03516 5.03516 6.15334 5.03516 10C5.03516 11.881 5.88333 13.6595 7.32031 15.5254C8.59273 17.1776 10.2383 18.7916 12 20.54C13.7617 18.7916 15.4073 17.1776 16.6797 15.5254C18.1167 13.6595 18.9648 11.881 18.9648 10ZM13.9648 10C13.9648 8.91476 13.0852 8.03516 12 8.03516C10.9148 8.03516 10.0352 8.91476 10.0352 10C10.0352 11.0852 10.9148 11.9648 12 11.9648C13.0852 11.9648 13.9648 11.0852 13.9648 10ZM16.0352 10C16.0352 12.2285 14.2285 14.0352 12 14.0352C9.77153 14.0352 7.96484 12.2285 7.96484 10C7.96484 7.77153 9.77153 5.96484 12 5.96484C14.2285 5.96484 16.0352 7.77153 16.0352 10ZM21.0352 10C21.0352 12.5371 19.8832 14.7586 18.3203 16.7881C16.7675 18.8044 14.6971 20.7658 12.7314 22.7314C12.3273 23.1356 11.6727 23.1356 11.2686 22.7314C9.30294 20.7658 7.23253 18.8044 5.67969 16.7881C4.11679 14.7586 2.96484 12.5371 2.96484 10C2.96484 5.01011 7.01011 0.964844 12 0.964844C16.9899 0.964844 21.0352 5.01011 21.0352 10Z"/></svg>