<svg xmlns="http://www.w3.org/2000/svg" width="24" height="24" fill="none" viewBox="0 0 24 24"><g clip-path="url(#a)"><path fill="currentColor" d="M0.964844 17.5C0.964844 16.5338 1.41032 15.6917 2.05664 15.0137C2.69794 14.341 3.57658 13.7834 4.58203 13.3398C5.10493 13.1092 5.71647 13.3454 5.94727 13.8682C6.17795 14.3911 5.94085 15.0026 5.41797 15.2334C4.57221 15.6065 3.95048 16.0262 3.55469 16.4414C3.16397 16.8513 3.03516 17.2075 3.03516 17.5C3.03516 18.0817 3.60871 18.9531 5.35352 19.7383C7.00122 20.4797 9.35027 20.9648 12 20.9648C14.6497 20.9648 16.9988 20.4797 18.6465 19.7383C20.3913 18.9531 20.9648 18.0817 20.9648 17.5C20.9648 17.2075 20.836 16.8513 20.4453 16.4414C20.0495 16.0262 19.4278 15.6065 18.582 15.2334C18.0592 15.0026 17.822 14.3911 18.0527 13.8682C18.2835 13.3454 18.8951 13.1092 19.418 13.3398C20.4234 13.7834 21.3021 14.341 21.9434 15.0137C22.5897 15.6917 23.0352 16.5338 23.0352 17.5C23.0352 19.4035 21.3704 20.7825 19.4961 21.626C17.5245 22.5132 14.8731 23.0352 12 23.0352C9.12688 23.0352 6.47549 22.5132 4.50391 21.626C2.62955 20.7825 0.964844 19.4035 0.964844 17.5ZM16.9648 8C16.9648 5.25791 14.7421 3.03516 12 3.03516C9.25791 3.03516 7.03516 5.25791 7.03516 8C7.03516 9.60755 7.90807 10.8521 9.18457 12.1816C9.50043 12.5106 9.82837 12.834 10.168 13.168C10.5034 13.4979 10.8502 13.8392 11.1807 14.1875C11.4611 14.4831 11.7386 14.7938 12 15.1211C12.2614 14.7938 12.5389 14.4831 12.8193 14.1875C13.1498 13.8392 13.4966 13.4979 13.832 13.168C14.1716 12.834 14.4996 12.5106 14.8154 12.1816C16.0919 10.8521 16.9648 9.60755 16.9648 8ZM12 7.96484C11.9807 7.96484 11.9648 7.98067 11.9648 8C11.9648 8.01933 11.9807 8.03516 12 8.03516C12.0097 8.03516 12.0181 8.03075 12.0244 8.02441L12.0352 8L12.0244 7.97559C12.0181 7.96925 12.0097 7.96484 12 7.96484ZM14.0352 8C14.0352 9.1239 13.1239 10.0352 12 10.0352C10.8761 10.0352 9.96484 9.1239 9.96484 8C9.96484 6.8761 10.8761 5.96484 12 5.96484C13.1239 5.96484 14.0352 6.8761 14.0352 8ZM19.0352 8C19.0352 10.4559 17.6579 12.2108 16.3096 13.6152C15.9692 13.9698 15.6174 14.3148 15.2832 14.6436C14.9449 14.9763 14.6235 15.2938 14.3213 15.6123C13.7124 16.254 13.2324 16.8496 12.9258 17.4629C12.7505 17.8135 12.392 18.0352 12 18.0352C11.608 18.0352 11.2495 17.8135 11.0742 17.4629C10.7676 16.8496 10.2876 16.254 9.67871 15.6123C9.37647 15.2938 9.05509 14.9763 8.7168 14.6436C8.38257 14.3148 8.03081 13.9698 7.69043 13.6152C6.34208 12.2108 4.96484 10.4559 4.96484 8C4.96484 4.11468 8.11468 0.964844 12 0.964844C15.8853 0.964844 19.0352 4.11468 19.0352 8Z"/></g><defs><clipPath id="a"><path fill="#fff" d="M0 0H24V24H0z"/></clipPath></defs></svg>