<svg xmlns="http://www.w3.org/2000/svg" width="24" height="24" fill="none" viewBox="0 0 24 24"><path fill="currentColor" d="M0.964844 17.5C0.964844 16.0781 1.91168 14.9467 3.09668 14.1475C4.30458 13.3328 5.94764 12.7228 7.80078 12.3584C8.36147 12.2485 8.90538 12.6141 9.01562 13.1748C9.12587 13.7357 8.76008 14.2794 8.19922 14.3896C6.52073 14.7197 5.16299 15.2501 4.25391 15.8633C3.32195 16.4919 3.03516 17.0767 3.03516 17.5C3.03516 18.0817 3.60871 18.9531 5.35352 19.7383C7.00122 20.4797 9.35027 20.9648 12 20.9648C14.6497 20.9648 16.9988 20.4797 18.6465 19.7383C20.3913 18.9531 20.9648 18.0817 20.9648 17.5C20.9648 17.0767 20.6781 16.4919 19.7461 15.8633C18.837 15.2501 17.4793 14.7197 15.8008 14.3896C15.2399 14.2794 14.8741 13.7357 14.9844 13.1748C15.0946 12.6141 15.6385 12.2485 16.1992 12.3584C18.0524 12.7228 19.6954 13.3328 20.9033 14.1475C22.0883 14.9467 23.0352 16.0781 23.0352 17.5C23.0352 19.4035 21.3704 20.7825 19.4961 21.626C17.5245 22.5132 14.8731 23.0352 12 23.0352C9.12688 23.0352 6.47549 22.5132 4.50391 21.626C2.62955 20.7825 0.964844 19.4035 0.964844 17.5ZM13.9648 6C13.9648 4.91476 13.0852 4.03516 12 4.03516C10.9148 4.03516 10.0352 4.91476 10.0352 6C10.0352 7.08524 10.9148 7.96484 12 7.96484C13.0852 7.96484 13.9648 7.08524 13.9648 6ZM16.0352 6C16.0352 7.87057 14.762 9.4433 13.0352 9.90039V17C13.0352 17.5716 12.5716 18.0352 12 18.0352C11.4284 18.0352 10.9648 17.5716 10.9648 17V9.90039C9.23801 9.4433 7.96484 7.87057 7.96484 6C7.96484 3.77153 9.77153 1.96484 12 1.96484C14.2285 1.96484 16.0352 3.77153 16.0352 6Z"/></svg>