<svg xmlns="http://www.w3.org/2000/svg" width="24" height="24" fill="none" viewBox="0 0 24 24"><path fill="currentColor" d="M18.9648 10C18.9648 6.15334 15.8467 3.03516 12 3.03516C8.15334 3.03516 5.03516 6.15334 5.03516 10C5.03516 12.7234 6.46334 14.2071 8.29004 15.7393C9.48618 16.7425 10.9855 17.8338 12 19.3682C13.0145 17.8338 14.5138 16.7425 15.71 15.7393C17.5367 14.2071 18.9648 12.7234 18.9648 10ZM13.9648 10C13.9648 8.91476 13.0852 8.03516 12 8.03516C10.9148 8.03516 10.0352 8.91476 10.0352 10C10.0352 11.0852 10.9148 11.9648 12 11.9648C13.0852 11.9648 13.9648 11.0852 13.9648 10ZM16.0352 10C16.0352 12.2285 14.2285 14.0352 12 14.0352C9.77153 14.0352 7.96484 12.2285 7.96484 10C7.96484 7.77153 9.77153 5.96484 12 5.96484C14.2285 5.96484 16.0352 7.77153 16.0352 10ZM21.0352 10C21.0352 13.6949 18.9633 15.712 17.04 17.3252C15.0357 19.0064 13.4263 20.145 13.0146 22.2031C12.9178 22.6868 12.4933 23.0352 12 23.0352C11.5067 23.0352 11.0822 22.6868 10.9854 22.2031C10.5737 20.145 8.96428 19.0064 6.95996 17.3252C5.03666 15.712 2.96484 13.6949 2.96484 10C2.96484 5.01011 7.01011 0.964844 12 0.964844C16.9899 0.964844 21.0352 5.01011 21.0352 10Z"/></svg>