<svg xmlns="http://www.w3.org/2000/svg" width="24" height="24" fill="none" viewBox="0 0 24 24"><path fill="currentColor" d="M13.9648 4.59961C13.9648 4.31662 13.9633 4.15762 13.9551 4.04395C13.8415 4.03582 13.6825 4.03516 13.4004 4.03516H10.5996C10.3167 4.03516 10.1576 4.03576 10.0439 4.04395C10.0358 4.15762 10.0352 4.31668 10.0352 4.59961V7.40039C10.0352 7.66304 10.0354 7.92215 10.0176 8.14062C9.99873 8.37134 9.95465 8.6467 9.81348 8.92383C9.61837 9.30674 9.30674 9.61837 8.92383 9.81348C8.6467 9.95465 8.37134 9.99873 8.14062 10.0176C7.92215 10.0354 7.66304 10.0352 7.40039 10.0352H4.59961C4.31668 10.0352 4.15762 10.0358 4.04395 10.0439C4.03576 10.1576 4.03516 10.3167 4.03516 10.5996V13.4004C4.03516 13.6825 4.03582 13.8415 4.04395 13.9551C4.15762 13.9633 4.31662 13.9648 4.59961 13.9648H7.40039C7.66304 13.9648 7.92215 13.9646 8.14062 13.9824C8.37134 14.0013 8.6467 14.0454 8.92383 14.1865C9.25872 14.3572 9.53886 14.617 9.73438 14.9355L9.81348 15.0762L9.90234 15.2832C9.97529 15.4881 10.0034 15.6864 10.0176 15.8594C10.0354 16.0779 10.0352 16.337 10.0352 16.5996V19.4004C10.0352 19.6825 10.0358 19.8415 10.0439 19.9551C10.1576 19.9633 10.3166 19.9648 10.5996 19.9648H13.4004C13.6826 19.9648 13.8415 19.9632 13.9551 19.9551C13.9632 19.8415 13.9648 19.6826 13.9648 19.4004V16.5996C13.9648 16.337 13.9646 16.0779 13.9824 15.8594C14.0013 15.6287 14.0454 15.3533 14.1865 15.0762L14.2656 14.9355C14.4611 14.617 14.7413 14.3572 15.0762 14.1865L15.2832 14.0977C15.4881 14.0247 15.6864 13.9966 15.8594 13.9824C16.0779 13.9646 16.337 13.9648 16.5996 13.9648H19.4004C19.6826 13.9648 19.8415 13.9632 19.9551 13.9551C19.9632 13.8415 19.9648 13.6826 19.9648 13.4004V10.5996C19.9648 10.3166 19.9633 10.1576 19.9551 10.0439C19.8415 10.0358 19.6825 10.0352 19.4004 10.0352H16.5996C16.337 10.0352 16.0779 10.0354 15.8594 10.0176C15.6287 9.99873 15.3533 9.95465 15.0762 9.81348C14.6933 9.61837 14.3816 9.30674 14.1865 8.92383C14.0454 8.6467 14.0013 8.37134 13.9824 8.14062C13.9646 7.92215 13.9648 7.66304 13.9648 7.40039V4.59961ZM16.0352 7.40039C16.0352 7.68252 16.0358 7.84147 16.0439 7.95508C16.1576 7.96327 16.3166 7.96484 16.5996 7.96484H19.4004C19.663 7.96484 19.9221 7.9646 20.1406 7.98242C20.3713 8.00127 20.6467 8.04535 20.9238 8.18652C21.2587 8.35716 21.5389 8.61698 21.7344 8.93555L21.8135 9.07617L21.9023 9.2832C21.9753 9.48814 22.0034 9.6864 22.0176 9.85938C22.0354 10.0779 22.0352 10.337 22.0352 10.5996V13.4004C22.0352 13.663 22.0354 13.9221 22.0176 14.1406C21.9987 14.3713 21.9546 14.6467 21.8135 14.9238C21.6184 15.3067 21.3067 15.6184 20.9238 15.8135C20.6467 15.9546 20.3713 15.9987 20.1406 16.0176C19.9221 16.0354 19.663 16.0352 19.4004 16.0352H16.5996C16.3167 16.0352 16.1576 16.0358 16.0439 16.0439C16.0358 16.1576 16.0352 16.3167 16.0352 16.5996V19.4004C16.0352 19.663 16.0354 19.9221 16.0176 20.1406C15.9987 20.3713 15.9546 20.6467 15.8135 20.9238C15.6184 21.3067 15.3067 21.6184 14.9238 21.8135C14.6467 21.9546 14.3713 21.9987 14.1406 22.0176C13.9221 22.0354 13.663 22.0352 13.4004 22.0352H10.5996C10.337 22.0352 10.0779 22.0354 9.85938 22.0176C9.62866 21.9987 9.3533 21.9546 9.07617 21.8135C8.69326 21.6184 8.38163 21.3067 8.18652 20.9238C8.04535 20.6467 8.00127 20.3713 7.98242 20.1406C7.9646 19.9221 7.96484 19.663 7.96484 19.4004V16.5996C7.96484 16.3166 7.96327 16.1576 7.95508 16.0439C7.84147 16.0358 7.68252 16.0352 7.40039 16.0352H4.59961C4.33696 16.0352 4.07785 16.0354 3.85938 16.0176C3.62866 15.9987 3.3533 15.9546 3.07617 15.8135C2.69326 15.6184 2.38163 15.3067 2.18652 14.9238C2.04535 14.6467 2.00127 14.3713 1.98242 14.1406C1.9646 13.9221 1.96484 13.663 1.96484 13.4004V10.5996C1.96484 10.337 1.9646 10.0779 1.98242 9.85938C2.00127 9.62866 2.04535 9.3533 2.18652 9.07617L2.26563 8.93555C2.46114 8.61698 2.74128 8.35716 3.07617 8.18652L3.2832 8.09766C3.48815 8.02471 3.6864 7.99655 3.85938 7.98242C4.07785 7.9646 4.33696 7.96484 4.59961 7.96484H7.40039C7.68258 7.96484 7.84147 7.96321 7.95508 7.95508C7.96321 7.84147 7.96484 7.68258 7.96484 7.40039V4.59961C7.96484 4.33696 7.9646 4.07785 7.98242 3.85938C8.00127 3.62866 8.04535 3.3533 8.18652 3.07617L8.26562 2.93555C8.46114 2.61698 8.74128 2.35716 9.07617 2.18652L9.2832 2.09766C9.48814 2.02471 9.6864 1.99656 9.85938 1.98242C10.0779 1.9646 10.337 1.96484 10.5996 1.96484H13.4004C13.663 1.96484 13.9221 1.9646 14.1406 1.98242C14.3136 1.99656 14.5119 2.02472 14.7168 2.09766L14.9238 2.18652L15.0645 2.26563C15.3373 2.4331 15.5669 2.66266 15.7344 2.93555L15.8135 3.07617L15.9023 3.2832C15.9753 3.48814 16.0034 3.6864 16.0176 3.85938C16.0354 4.07785 16.0352 4.33696 16.0352 4.59961V7.40039Z"/></svg>