<svg xmlns="http://www.w3.org/2000/svg" width="24" height="24" fill="none" viewBox="0 0 24 24"><path fill="currentColor" d="M19.9648 7.7998C19.9648 6.94287 19.9643 6.36234 19.9277 5.91406C19.8921 5.47781 19.8277 5.25807 19.751 5.10742C19.5626 4.73794 19.2621 4.43737 18.8926 4.24902C18.7419 4.17227 18.5222 4.10791 18.0859 4.07227C17.6377 4.03565 17.0571 4.03516 16.2002 4.03516H7.7998C6.94287 4.03516 6.36234 4.03565 5.91406 4.07227C5.47781 4.10791 5.25807 4.17227 5.10742 4.24902C4.73794 4.43737 4.43737 4.73794 4.24902 5.10742C4.17227 5.25807 4.10791 5.47781 4.07227 5.91406C4.03565 6.36234 4.03516 6.94287 4.03516 7.7998V16.2002C4.03516 17.0571 4.03565 17.6377 4.07227 18.0859C4.10791 18.5222 4.17227 18.7419 4.24902 18.8926C4.43737 19.2621 4.73794 19.5626 5.10742 19.751C5.25807 19.8277 5.47781 19.8921 5.91406 19.9277C6.36234 19.9643 6.94287 19.9648 7.7998 19.9648H16.2002C17.0571 19.9648 17.6377 19.9643 18.0859 19.9277C18.5222 19.8921 18.7419 19.8277 18.8926 19.751C19.2621 19.5626 19.5626 19.2621 19.751 18.8926C19.8277 18.7419 19.8921 18.5222 19.9277 18.0859C19.9643 17.6377 19.9648 17.0571 19.9648 16.2002V7.7998ZM18.5352 13.0332C18.5352 13.1561 18.5355 13.311 18.5244 13.4463C18.5124 13.5936 18.482 13.8068 18.3682 14.0303C18.221 14.319 17.986 14.554 17.6973 14.7012C17.4736 14.8152 17.2597 14.8464 17.1123 14.8584C16.9772 14.8694 16.823 14.8682 16.7002 14.8682H14.8682V16.7002C14.8682 16.823 14.8694 16.9772 14.8584 17.1123C14.8464 17.2597 14.8152 17.4736 14.7012 17.6973C14.554 17.986 14.319 18.221 14.0303 18.3682C13.8068 18.482 13.5936 18.5124 13.4463 18.5244C13.311 18.5355 13.1561 18.5352 13.0332 18.5352H10.9668C10.8439 18.5352 10.689 18.5355 10.5537 18.5244C10.4064 18.5124 10.1932 18.482 9.96973 18.3682C9.68098 18.221 9.446 17.986 9.29883 17.6973C9.18485 17.4736 9.15364 17.2597 9.1416 17.1123C9.13059 16.9772 9.13184 16.823 9.13184 16.7002V14.8682H7.2998C7.17702 14.8682 7.02283 14.8694 6.8877 14.8584C6.74031 14.8464 6.52644 14.8152 6.30273 14.7012C6.01402 14.554 5.77896 14.319 5.63184 14.0303C5.51799 13.8068 5.48764 13.5936 5.47559 13.4463C5.46453 13.311 5.46484 13.1561 5.46484 13.0332V10.9668C5.46484 10.8439 5.46453 10.689 5.47559 10.5537C5.48764 10.4064 5.51799 10.1932 5.63184 9.96973C5.77896 9.68098 6.01402 9.446 6.30273 9.29883C6.52644 9.18485 6.74031 9.15364 6.8877 9.1416C7.02283 9.13059 7.17702 9.13184 7.2998 9.13184H9.13184V7.2998C9.13184 7.17702 9.13059 7.02283 9.1416 6.8877C9.15364 6.74031 9.18485 6.52644 9.29883 6.30273C9.446 6.01402 9.68098 5.77896 9.96973 5.63184C10.1932 5.51799 10.4064 5.48764 10.5537 5.47559C10.689 5.46453 10.8439 5.46484 10.9668 5.46484H13.0332C13.1561 5.46484 13.311 5.46453 13.4463 5.47559C13.5568 5.48463 13.7042 5.50419 13.8652 5.56152L14.0303 5.63184L14.1357 5.69141C14.3419 5.81779 14.5152 5.99118 14.6416 6.19727L14.7012 6.30273L14.7715 6.46777C14.829 6.62915 14.8494 6.77707 14.8584 6.8877C14.8694 7.02283 14.8682 7.17702 14.8682 7.2998V9.13184H16.7002C16.823 9.13184 16.9772 9.13059 17.1123 9.1416C17.2229 9.15064 17.3709 9.17103 17.5322 9.22852L17.6973 9.29883L17.8027 9.3584C18.0088 9.48484 18.1822 9.65814 18.3086 9.86426L18.3682 9.96973L18.4385 10.1348C18.4958 10.2958 18.5154 10.4432 18.5244 10.5537C18.5355 10.689 18.5352 10.8439 18.5352 10.9668V13.0332ZM11.2021 9.36621C11.2021 9.48913 11.2025 9.64401 11.1914 9.7793C11.1794 9.92665 11.1481 10.1396 11.0342 10.3633C10.887 10.6521 10.6521 10.887 10.3633 11.0342C10.1396 11.1481 9.92665 11.1794 9.7793 11.1914C9.64401 11.2025 9.48913 11.2021 9.36621 11.2021H7.53516V12.7979H9.36621C9.48913 12.7979 9.64401 12.7975 9.7793 12.8086C9.88974 12.8176 10.0372 12.8373 10.1982 12.8945L10.3633 12.9658L10.4697 13.0244C10.6757 13.1508 10.8492 13.3243 10.9756 13.5303L11.0342 13.6367L11.1055 13.8018C11.1627 13.9628 11.1824 14.1103 11.1914 14.2207C11.2025 14.356 11.2021 14.5109 11.2021 14.6338V16.4648H12.7979V14.6338C12.7979 14.5109 12.7975 14.356 12.8086 14.2207C12.8206 14.0734 12.8519 13.8604 12.9658 13.6367L13.0244 13.5303C13.1719 13.2899 13.384 13.0946 13.6367 12.9658L13.8018 12.8945C13.9628 12.8373 14.1103 12.8176 14.2207 12.8086C14.356 12.7975 14.5109 12.7979 14.6338 12.7979H16.4648V11.2021H14.6338C14.5109 11.2021 14.356 11.2025 14.2207 11.1914C14.0734 11.1794 13.8604 11.1481 13.6367 11.0342C13.3479 10.887 13.113 10.6521 12.9658 10.3633C12.8519 10.1396 12.8206 9.92665 12.8086 9.7793C12.7975 9.64401 12.7979 9.48913 12.7979 9.36621V7.53516H11.2021V9.36621ZM22.0352 16.2002C22.0352 17.0231 22.0353 17.7027 21.9902 18.2549C21.9441 18.8191 21.8449 19.341 21.5947 19.832C21.2079 20.591 20.591 21.2079 19.832 21.5947C19.341 21.8449 18.8191 21.9441 18.2549 21.9902C17.7027 22.0353 17.0231 22.0352 16.2002 22.0352H7.7998C6.97689 22.0352 6.29725 22.0353 5.74512 21.9902C5.18095 21.9441 4.65899 21.8449 4.16797 21.5947C3.409 21.2079 2.79208 20.591 2.40527 19.832C2.15509 19.341 2.05588 18.8191 2.00977 18.2549C1.96465 17.7027 1.96484 17.0231 1.96484 16.2002V7.7998C1.96484 6.97689 1.96465 6.29725 2.00977 5.74512C2.05588 5.18095 2.15509 4.65899 2.40527 4.16797C2.79208 3.409 3.409 2.79208 4.16797 2.40527C4.65899 2.15509 5.18095 2.05588 5.74512 2.00977C6.29725 1.96465 6.97689 1.96484 7.7998 1.96484H16.2002C17.0231 1.96484 17.7027 1.96465 18.2549 2.00977C18.8191 2.05588 19.341 2.15509 19.832 2.40527C20.591 2.79208 21.2079 3.409 21.5947 4.16797C21.8449 4.65899 21.9441 5.18095 21.9902 5.74512C22.0353 6.29725 22.0352 6.97689 22.0352 7.7998V16.2002Z"/></svg>