<svg xmlns="http://www.w3.org/2000/svg" width="24" height="24" fill="none" viewBox="0 0 24 24"><path fill="currentColor" d="M21.0585 11.2509C21.6275 11.303 22.0469 11.8068 21.995 12.3759C21.5521 17.2318 17.4706 21.0349 12.4999 21.0351C11.2939 21.0351 10.1371 20.8106 9.07216 20.4003C8.98128 20.3653 8.92886 20.3448 8.89052 20.331C8.88845 20.3303 8.88647 20.3297 8.88466 20.329C8.85392 20.3315 8.81134 20.3365 8.73232 20.3447L3.61122 20.874C3.38773 20.8971 3.14872 20.9224 2.95009 20.9247C2.76275 20.9269 2.41945 20.9169 2.08974 20.7158C1.70468 20.4809 1.44275 20.0881 1.37294 19.6425C1.31334 19.2615 1.43405 18.9408 1.50771 18.7685C1.58582 18.5858 1.70165 18.3745 1.80849 18.1767L3.44423 15.1484C3.51352 15.0201 3.55082 14.95 3.57607 14.8984C3.57503 14.8948 3.57436 14.8908 3.57314 14.8867C3.55172 14.8142 3.51849 14.715 3.46181 14.5468C3.13893 13.5888 2.96474 12.5636 2.96474 11.4999C2.96474 6.53326 6.76115 2.45449 11.6112 2.0058C12.1804 1.95316 12.6846 2.37216 12.7372 2.94135C12.7897 3.51031 12.3715 4.01449 11.8026 4.06732C8.0073 4.41829 5.03407 7.61244 5.03407 11.4999C5.03407 12.336 5.17169 13.1379 5.42372 13.8857C5.4871 14.0737 5.56805 14.2998 5.61415 14.5214L5.64638 14.7402L5.65419 14.9101C5.65454 15.076 5.63333 15.231 5.58974 15.4023C5.51981 15.6769 5.37155 15.9365 5.26552 16.1328L3.84071 18.7685L8.51943 18.2851C8.64223 18.2724 8.80719 18.2536 8.96864 18.2597C9.1031 18.2648 9.21738 18.2793 9.34853 18.3095C9.50748 18.3462 9.68071 18.4164 9.8163 18.4687C10.6475 18.7889 11.5523 18.9648 12.4999 18.9648C16.3904 18.9646 19.5869 15.9871 19.9335 12.1874C19.9856 11.6184 20.4894 11.199 21.0585 11.2509ZM15.1464 3.14642C16.7221 1.57095 19.2767 1.57102 20.8524 3.14642C22.4282 4.72219 22.4282 7.27769 20.8524 8.85346C19.2767 10.4289 16.7221 10.4289 15.1464 8.85346C13.5706 7.27769 13.5706 4.72219 15.1464 3.14642ZM19.3886 4.61029C18.6212 3.84327 17.3775 3.8432 16.6102 4.61029C15.8429 5.37767 15.8429 6.62221 16.6102 7.38959C17.3775 8.15668 18.6212 8.1566 19.3886 7.38959C20.1559 6.62221 20.1559 5.37767 19.3886 4.61029Z"/></svg>