<svg xmlns="http://www.w3.org/2000/svg" width="24" height="24" fill="none" viewBox="0 0 24 24"><path fill="currentColor" d="M19.9647 11.5C19.9647 7.37732 16.6225 4.03536 12.4999 4.03516C8.37709 4.03516 5.03407 7.37719 5.03407 11.5C5.03407 12.3361 5.17169 13.1379 5.42372 13.8857C5.4871 14.0738 5.56805 14.2999 5.61415 14.5215L5.64638 14.7402L5.65419 14.9102C5.65454 15.076 5.63333 15.231 5.58974 15.4023C5.51981 15.6769 5.37155 15.9366 5.26552 16.1328L3.84071 18.7686L8.51943 18.2852C8.64235 18.2724 8.80718 18.2536 8.96864 18.2598C9.10313 18.2649 9.2174 18.2793 9.34853 18.3096C9.50749 18.3462 9.68072 18.4165 9.8163 18.4688C10.6475 18.789 11.5523 18.9648 12.4999 18.9648C16.6225 18.9646 19.9647 15.6227 19.9647 11.5ZM8.30165 7.79102C9.62187 6.67701 11.2737 6.76943 12.495 7.58203C13.7143 6.76923 15.3521 6.69169 16.6806 7.78223C18.2716 9.08838 18.4639 11.3304 17.2382 12.8887C16.6219 13.6718 15.1671 15.0107 14.2226 15.8574C14.0571 16.0057 13.8874 16.1591 13.7304 16.2783C13.5599 16.4077 13.3505 16.5396 13.0829 16.6201C12.7053 16.7338 12.2876 16.7338 11.9101 16.6201C11.6424 16.5396 11.4331 16.4077 11.2626 16.2783C11.1056 16.1591 10.9358 16.0057 10.7704 15.8574C9.82583 15.0107 8.37102 13.6719 7.75478 12.8887C6.5197 11.3186 6.75467 9.09647 8.30165 7.79102ZM11.7138 9.62695C11.1201 8.94154 10.259 8.84789 9.63661 9.37305C8.92917 9.97004 8.84663 10.9293 9.38173 11.6094C9.86243 12.2202 11.1607 13.4276 12.1522 14.3164C12.327 14.4731 12.424 14.5578 12.496 14.6143C12.568 14.5578 12.6655 14.4735 12.8407 14.3164C13.8322 13.4276 15.1306 12.2202 15.6112 11.6094C16.1556 10.9175 16.0691 9.95811 15.3671 9.38184C14.7146 8.84637 13.8651 8.95053 13.2792 9.62695C13.0826 9.85395 12.7963 9.98438 12.496 9.98438C12.1959 9.98425 11.9103 9.85384 11.7138 9.62695ZM22.0341 11.5C22.0341 16.7659 17.7658 21.035 12.4999 21.0352C11.2939 21.0352 10.1371 20.8106 9.07216 20.4004C8.98128 20.3654 8.92886 20.3448 8.89052 20.3311C8.88845 20.3303 8.88647 20.3297 8.88466 20.3291C8.85395 20.3316 8.81135 20.3366 8.73232 20.3447L3.61122 20.874C3.38773 20.8971 3.14872 20.9225 2.95009 20.9248C2.76275 20.927 2.41945 20.9169 2.08974 20.7158C1.70468 20.4809 1.44275 20.0882 1.37294 19.6426C1.31334 19.2615 1.43405 18.9409 1.50771 18.7686C1.58582 18.5859 1.70165 18.3745 1.80849 18.1768L3.44423 15.1484C3.51352 15.0202 3.55082 14.9501 3.57607 14.8984C3.57503 14.8948 3.57436 14.8908 3.57314 14.8867C3.55172 14.8142 3.51849 14.715 3.46181 14.5469C3.13893 13.5888 2.96474 12.5637 2.96474 11.5C2.96474 6.23396 7.23386 1.96484 12.4999 1.96484C17.7658 1.96505 22.0341 6.23409 22.0341 11.5Z"/></svg>