<svg xmlns="http://www.w3.org/2000/svg" width="24" height="24" fill="none" viewBox="0 0 24 24"><path fill="currentColor" d="M19.9649 7.7998C19.9649 6.94287 19.9644 6.36234 19.9278 5.91406C19.8921 5.47781 19.8278 5.25807 19.751 5.10742C19.5627 4.73794 19.2621 4.43737 18.8926 4.24902C18.742 4.17227 18.5222 4.10791 18.086 4.07227C17.6377 4.03565 17.0571 4.03516 16.2002 4.03516H7.79983C6.94289 4.03516 6.36236 4.03565 5.91408 4.07227C5.47783 4.10791 5.25809 4.17227 5.10744 4.24902C4.73796 4.43737 4.43739 4.73794 4.24904 5.10742C4.17229 5.25807 4.10793 5.47781 4.07229 5.91406C4.03567 6.36234 4.03518 6.94287 4.03518 7.7998V19.8467L6.03908 18.2432C6.49375 17.8794 6.83042 17.6046 7.21682 17.4072C7.54057 17.2418 7.8851 17.1209 8.24123 17.0479C8.6664 16.9606 9.1011 16.9648 9.68361 16.9648H16.2002C17.0571 16.9648 17.6377 16.9643 18.086 16.9277C18.5222 16.8921 18.742 16.8277 18.8926 16.751C19.2621 16.5626 19.5627 16.2621 19.751 15.8926C19.8278 15.7419 19.8921 15.5222 19.9278 15.0859C19.9644 14.6377 19.9649 14.0571 19.9649 13.2002V7.7998ZM22.0352 13.2002C22.0352 14.0231 22.0354 14.7027 21.9903 15.2549C21.9441 15.8191 21.8449 16.341 21.5947 16.832C21.2079 17.591 20.591 18.2079 19.8321 18.5947C19.341 18.8449 18.8191 18.9441 18.2549 18.9902C17.7028 19.0353 17.0231 19.0352 16.2002 19.0352H9.68361C9.01823 19.0352 8.82893 19.04 8.65725 19.0752C8.48384 19.1108 8.31587 19.1695 8.15822 19.25C8.00216 19.3297 7.85165 19.4447 7.33205 19.8604L4.94631 21.7686C4.75446 21.922 4.55535 22.0829 4.38088 22.1982C4.22239 22.303 3.90964 22.4946 3.50197 22.4951C3.03452 22.4956 2.59243 22.2823 2.3008 21.917C2.04646 21.5984 1.99965 21.2352 1.98244 21.0459C1.96353 20.8377 1.96486 20.5816 1.96486 20.3359V7.7998C1.96486 6.97689 1.96468 6.29725 2.00979 5.74512C2.0559 5.18095 2.15511 4.65899 2.40529 4.16797C2.7921 3.409 3.40902 2.79208 4.16799 2.40527C4.65901 2.15509 5.18097 2.05588 5.74514 2.00977C6.29727 1.96465 6.97691 1.96484 7.79983 1.96484H16.2002C17.0231 1.96484 17.7028 1.96465 18.2549 2.00977C18.8191 2.05588 19.341 2.15509 19.8321 2.40527C20.591 2.79208 21.2079 3.409 21.5947 4.16797C21.8449 4.65899 21.9441 5.18095 21.9903 5.74512C22.0354 6.29725 22.0352 6.97689 22.0352 7.7998V13.2002Z"/></svg>