<svg xmlns="http://www.w3.org/2000/svg" width="24" height="24" fill="none" viewBox="0 0 24 24"><path fill="currentColor" d="M19.9649 13.2002V7.7998C19.9649 6.94287 19.9644 6.36234 19.9278 5.91406C19.8922 5.47781 19.8278 5.25807 19.7511 5.10742C19.5627 4.73794 19.2622 4.43737 18.8927 4.24902C18.742 4.17227 18.5223 4.10791 18.086 4.07227C17.6378 4.03565 17.0572 4.03516 16.2003 4.03516H7.7999C6.94297 4.03516 6.36243 4.03565 5.91416 4.07227C5.47791 4.10791 5.25816 4.17227 5.10752 4.24902C4.73804 4.43737 4.43746 4.73794 4.24912 5.10742C4.17236 5.25807 4.108 5.47781 4.07236 5.91406C4.03575 6.36234 4.03525 6.94287 4.03525 7.7998V14C4.03525 14.9966 4.04359 15.2921 4.10166 15.5088C4.28337 16.1868 4.81328 16.7167 5.49131 16.8984C5.70801 16.9565 6.00349 16.9648 7.00009 16.9648C7.57171 16.9648 8.03525 17.4284 8.03525 18V19.8467L10.0392 18.2432C10.4938 17.8794 10.8305 17.6046 11.2169 17.4072C11.5406 17.2418 11.8852 17.1209 12.2413 17.0479C12.6665 16.9606 13.1012 16.9648 13.6837 16.9648H16.2003C17.0572 16.9648 17.6378 16.9643 18.086 16.9277C18.5223 16.8921 18.742 16.8277 18.8927 16.751C19.2622 16.5626 19.5627 16.2621 19.7511 15.8926C19.8278 15.7419 19.8922 15.5222 19.9278 15.0859C19.9644 14.6377 19.9649 14.0571 19.9649 13.2002ZM12.1603 12.9648C12.7317 12.965 13.1954 13.4285 13.1954 14C13.1954 14.5715 12.7317 15.035 12.1603 15.0352H12.1505C11.5789 15.0352 11.1153 14.5716 11.1153 14C11.1153 13.4284 11.5789 12.9648 12.1505 12.9648H12.1603ZM10.4571 5.91797C11.1256 5.52512 11.9117 5.38165 12.6759 5.5127C13.4401 5.64378 14.1336 6.0406 14.6329 6.63379C15.132 7.22666 15.4052 7.97702 15.4044 8.75195L15.3936 8.99023C15.2857 10.153 14.4049 10.9085 13.8194 11.2988C13.4756 11.528 13.1391 11.6962 12.8927 11.8057C12.7681 11.861 12.6626 11.9025 12.586 11.9316C12.5477 11.9462 12.5165 11.9585 12.4933 11.9668C12.4816 11.9709 12.4715 11.974 12.464 11.9766C12.4603 11.9778 12.4568 11.9786 12.4542 11.9795C12.453 11.9799 12.4522 11.9811 12.4513 11.9814H12.4493C12.449 11.9815 12.4485 11.9818 12.1212 11L12.4483 11.9814C11.9061 12.1622 11.3195 11.8694 11.1388 11.3271C10.9583 10.7852 11.2513 10.1996 11.7931 10.0186C11.7946 10.018 11.7971 10.0166 11.7999 10.0156C11.8095 10.0122 11.8262 10.0066 11.8487 9.99805C11.8951 9.9804 11.9658 9.95228 12.0519 9.91406C12.227 9.83624 12.4528 9.7226 12.671 9.57715C13.1703 9.24426 13.3339 8.95194 13.3341 8.75195V8.75C13.3345 8.46351 13.2334 8.18597 13.0489 7.9668C12.8644 7.74777 12.6085 7.60119 12.3263 7.55273C12.0439 7.50429 11.753 7.55696 11.506 7.70215C11.259 7.84733 11.0717 8.07548 10.9767 8.3457C10.787 8.88493 10.1956 9.1682 9.65634 8.97852C9.11745 8.78877 8.83418 8.1982 9.02353 7.65918C9.2808 6.92786 9.78881 6.31085 10.4571 5.91797ZM22.0353 13.2002C22.0353 14.0231 22.0354 14.7027 21.9903 15.2549C21.9442 15.8191 21.845 16.341 21.5948 16.832C21.208 17.591 20.5911 18.2079 19.8321 18.5947C19.3411 18.8449 18.8191 18.9441 18.255 18.9902C17.7028 19.0353 17.0232 19.0352 16.2003 19.0352H13.6837C13.0183 19.0352 12.829 19.04 12.6573 19.0752C12.4839 19.1108 12.3159 19.1695 12.1583 19.25C12.0022 19.3297 11.8517 19.4447 11.3321 19.8604L8.94638 21.7686C8.75453 21.922 8.55542 22.0829 8.38095 22.1982C8.22246 22.303 7.90972 22.4946 7.50205 22.4951C7.03459 22.4956 6.59251 22.2823 6.30088 21.917C6.04654 21.5984 5.99972 21.2352 5.98252 21.0459C5.9636 20.8377 5.96494 20.5816 5.96494 20.3359V19.0234C5.58605 19.0097 5.25762 18.9782 4.95615 18.8975C3.5637 18.5244 2.47574 17.4364 2.10263 16.0439C1.95635 15.4977 1.96494 14.8632 1.96494 14V7.7998C1.96494 6.97689 1.96475 6.29725 2.00986 5.74512C2.05597 5.18095 2.15518 4.65899 2.40537 4.16797C2.79217 3.409 3.4091 2.79208 4.16806 2.40527C4.65908 2.15509 5.18104 2.05588 5.74521 2.00977C6.29735 1.96465 6.97699 1.96484 7.7999 1.96484H16.2003C17.0232 1.96484 17.7028 1.96465 18.255 2.00977C18.8191 2.05588 19.3411 2.15509 19.8321 2.40527C20.5911 2.79208 21.208 3.409 21.5948 4.16797C21.845 4.65899 21.9442 5.18095 21.9903 5.74512C22.0354 6.29725 22.0353 6.97689 22.0353 7.7998V13.2002Z"/></svg>