<svg xmlns="http://www.w3.org/2000/svg" width="24" height="24" fill="none" viewBox="0 0 24 24"><path fill="currentColor" d="M19.9649 13.2002V7.7998C19.9649 6.94287 19.9644 6.36234 19.9278 5.91406C19.8922 5.47781 19.8278 5.25807 19.7511 5.10742C19.5627 4.73794 19.2622 4.43737 18.8927 4.24902C18.742 4.17227 18.5223 4.10791 18.086 4.07227C17.6378 4.03565 17.0572 4.03516 16.2003 4.03516H7.7999C6.94297 4.03516 6.36243 4.03565 5.91416 4.07227C5.47791 4.10791 5.25816 4.17227 5.10752 4.24902C4.73804 4.43737 4.43746 4.73794 4.24912 5.10742C4.17236 5.25807 4.108 5.47781 4.07236 5.91406C4.03575 6.36234 4.03525 6.94287 4.03525 7.7998V14C4.03525 14.9966 4.04359 15.2921 4.10166 15.5088C4.28337 16.1868 4.81328 16.7167 5.49131 16.8984C5.70801 16.9565 6.00349 16.9648 7.00009 16.9648C7.57171 16.9648 8.03525 17.4284 8.03525 18V19.8467L10.0392 18.2432C10.4938 17.8794 10.8305 17.6046 11.2169 17.4072C11.5406 17.2418 11.8852 17.1209 12.2413 17.0479C12.6665 16.9606 13.1012 16.9648 13.6837 16.9648H16.2003C17.0572 16.9648 17.6378 16.9643 18.086 16.9277C18.5223 16.8921 18.742 16.8277 18.8927 16.751C19.2622 16.5626 19.5627 16.2621 19.7511 15.8926C19.8278 15.7419 19.8922 15.5222 19.9278 15.0859C19.9644 14.6377 19.9649 14.0571 19.9649 13.2002ZM14.7267 11.8125C15.1038 11.388 15.7536 11.3462 16.1817 11.7207C16.6119 12.0971 16.6557 12.7515 16.2794 13.1816L15.5001 12.5C16.279 13.1816 16.2787 13.1823 16.2784 13.1826H16.2774L16.2765 13.1846C16.2756 13.1855 16.2745 13.1864 16.2735 13.1875C16.2714 13.1899 16.2685 13.1931 16.2657 13.1963C16.2602 13.2025 16.2533 13.21 16.2452 13.2188C16.2286 13.2368 16.2061 13.2602 16.1788 13.2881C16.1241 13.344 16.0482 13.4191 15.9513 13.5059C15.7579 13.6788 15.4777 13.9038 15.1183 14.1279C14.4003 14.5755 13.337 15.0352 12.0001 15.0352C10.6632 15.0352 9.59992 14.5755 8.88193 14.1279C8.52244 13.9038 8.24232 13.6788 8.04892 13.5059C7.95198 13.4191 7.8761 13.344 7.82138 13.2881C7.79406 13.2602 7.77163 13.2368 7.75498 13.2188C7.74687 13.21 7.74002 13.2025 7.73447 13.1963C7.73165 13.1931 7.7288 13.1899 7.72666 13.1875C7.72567 13.1864 7.72457 13.1855 7.72373 13.1846L7.72275 13.1826H7.72177C7.72149 13.1823 7.72118 13.1816 8.50009 12.5L7.7208 13.1816C7.34452 12.7515 7.38832 12.0971 7.81845 11.7207C8.24661 11.3462 8.89634 11.388 9.27353 11.8125C9.27331 11.8123 9.27403 11.8129 9.27549 11.8145C9.27909 11.8184 9.28715 11.8278 9.2999 11.8408C9.32547 11.8669 9.36965 11.9091 9.42978 11.9629C9.55076 12.0711 9.73591 12.2214 9.97763 12.3721C10.4627 12.6744 11.1497 12.9648 12.0001 12.9648C12.8505 12.9648 13.5374 12.6744 14.0226 12.3721C14.2643 12.2214 14.4494 12.0711 14.5704 11.9629C14.6305 11.9091 14.6747 11.8669 14.7003 11.8408C14.713 11.8278 14.7211 11.8184 14.7247 11.8145C14.7256 11.8135 14.7264 11.8128 14.7267 11.8125ZM9.25009 5.96484C10.0979 5.96484 10.7853 6.65224 10.7853 7.5C10.7853 8.34776 10.0979 9.03516 9.25009 9.03516C8.40234 9.03516 7.71494 8.34776 7.71494 7.5C7.71494 6.65224 8.40234 5.96484 9.25009 5.96484ZM14.7501 5.96484C15.5979 5.96484 16.2853 6.65224 16.2853 7.5C16.2853 8.34776 15.5979 9.03516 14.7501 9.03516C13.9023 9.03516 13.2149 8.34776 13.2149 7.5C13.2149 6.65224 13.9023 5.96484 14.7501 5.96484ZM22.0353 13.2002C22.0353 14.0231 22.0354 14.7027 21.9903 15.2549C21.9442 15.8191 21.845 16.341 21.5948 16.832C21.208 17.591 20.5911 18.2079 19.8321 18.5947C19.3411 18.8449 18.8191 18.9441 18.255 18.9902C17.7028 19.0353 17.0232 19.0352 16.2003 19.0352H13.6837C13.0183 19.0352 12.829 19.04 12.6573 19.0752C12.4839 19.1108 12.3159 19.1695 12.1583 19.25C12.0022 19.3297 11.8517 19.4447 11.3321 19.8604L8.94638 21.7686C8.75453 21.922 8.55542 22.0829 8.38095 22.1982C8.22246 22.303 7.90972 22.4946 7.50205 22.4951C7.03459 22.4956 6.59251 22.2823 6.30088 21.917C6.04654 21.5984 5.99972 21.2352 5.98252 21.0459C5.9636 20.8377 5.96494 20.5816 5.96494 20.3359V19.0234C5.58605 19.0097 5.25762 18.9782 4.95615 18.8975C3.5637 18.5244 2.47574 17.4364 2.10263 16.0439C1.95635 15.4977 1.96494 14.8632 1.96494 14V7.7998C1.96494 6.97689 1.96475 6.29725 2.00986 5.74512C2.05597 5.18095 2.15518 4.65899 2.40537 4.16797C2.79217 3.409 3.4091 2.79208 4.16806 2.40527C4.65908 2.15509 5.18104 2.05588 5.74521 2.00977C6.29735 1.96465 6.97699 1.96484 7.7999 1.96484H16.2003C17.0232 1.96484 17.7028 1.96465 18.255 2.00977C18.8191 2.05588 19.3411 2.15509 19.8321 2.40527C20.5911 2.79208 21.208 3.409 21.5948 4.16797C21.845 4.65899 21.9442 5.18095 21.9903 5.74512C22.0354 6.29725 22.0353 6.97689 22.0353 7.7998V13.2002Z"/></svg>