<svg xmlns="http://www.w3.org/2000/svg" width="24" height="24" fill="none" viewBox="0 0 24 24"><path fill="currentColor" d="M19.9648 12C19.9648 7.60105 16.3989 4.03516 12 4.03516C7.60105 4.03516 4.03516 7.60105 4.03516 12C4.03516 13.0614 4.24224 14.0719 4.61719 14.9951C4.66488 15.1126 4.72485 15.2549 4.76953 15.3975L4.80762 15.5391L4.8457 15.7598C4.85372 15.8321 4.8574 15.9049 4.85742 15.9834C4.85745 16.1728 4.82168 16.3648 4.79785 16.5078L4.25879 19.7402L7.49219 19.2021C7.63518 19.1783 7.82725 19.1426 8.0166 19.1426C8.17356 19.1426 8.30776 19.1581 8.46094 19.1924C8.64748 19.2342 8.84838 19.3192 9.00488 19.3828C9.92811 19.7578 10.9386 19.9648 12 19.9648C16.3989 19.9648 19.9648 16.3989 19.9648 12ZM22.0352 12C22.0352 17.5422 17.5422 22.0352 12 22.0352C10.6671 22.0352 9.39198 21.7745 8.22559 21.3008C8.12069 21.2582 8.06076 21.2334 8.0166 21.2168C8.01488 21.2162 8.01328 21.2154 8.01172 21.2148C7.97575 21.2198 7.92632 21.2286 7.83301 21.2441L4.27539 21.8369C4.10851 21.8647 3.91436 21.8975 3.74707 21.9102C3.57478 21.9232 3.2967 21.9287 3.00293 21.8027C2.64107 21.6475 2.35251 21.3589 2.19727 20.9971C2.07126 20.7033 2.07684 20.4252 2.08984 20.2529C2.1025 20.0856 2.13527 19.8915 2.16309 19.7246L2.75586 16.167C2.77155 16.0728 2.78021 16.0234 2.78516 15.9873C2.78467 15.986 2.78373 15.9848 2.7832 15.9834C2.76662 15.9392 2.74182 15.8793 2.69922 15.7744C2.22551 14.608 1.96484 13.3329 1.96484 12C1.96484 6.45782 6.45782 1.96484 12 1.96484C17.5422 1.96484 22.0352 6.45782 22.0352 12Z"/></svg>