<svg xmlns="http://www.w3.org/2000/svg" width="24" height="24" fill="none" viewBox="0 0 24 24"><g clip-path="url(#a)"><path fill="currentColor" d="M11.9649 16.5C11.9649 14.0104 10.0016 12.0353 7.63188 12.0352C5.26208 12.0352 3.2979 14.0103 3.2979 16.5C3.2979 17.0003 3.37776 17.4797 3.52348 17.9258C3.58284 18.1075 3.65963 18.3296 3.68852 18.5137C3.71289 18.669 3.7181 18.7893 3.70903 18.9463C3.69841 19.1298 3.65371 19.3192 3.62212 19.4619L3.3311 20.7734L4.85454 20.5654C4.98348 20.5478 5.15476 20.5223 5.31841 20.5234C5.38887 20.5239 5.45051 20.526 5.51177 20.5322L5.70219 20.5625L5.83012 20.5938C5.96218 20.6307 6.10425 20.6824 6.22661 20.7256C6.66607 20.8807 7.13862 20.9648 7.63188 20.9648C10.0016 20.9647 11.9649 18.9896 11.9649 16.5ZM14.0352 16.5C14.0352 16.6559 14.0272 16.8105 14.0166 16.9639C14.0286 16.9639 14.0408 16.9648 14.0528 16.9648C14.9268 16.9648 15.7615 16.8065 16.5303 16.5186C16.6784 16.4631 16.867 16.3895 17.0381 16.3535L17.2403 16.3203C17.3064 16.3132 17.373 16.31 17.4454 16.3096C17.6186 16.3086 17.795 16.3371 17.9268 16.3564L20.8067 16.7793L20.4424 13.8145C20.4267 13.6868 20.4024 13.5158 20.4063 13.3486C20.4096 13.2091 20.4239 13.0923 20.4541 12.9561C20.4908 12.791 20.5636 12.6089 20.6182 12.4658C20.9101 11.7006 21.0704 10.87 21.0704 10C21.0704 6.15977 17.9349 3.03523 14.0528 3.03516C10.1726 3.03516 7.03839 6.15655 7.0352 9.99414C7.2315 9.9757 7.43062 9.96484 7.63188 9.96484C11.1918 9.96499 14.0352 12.9147 14.0352 16.5ZM23.1407 10C23.1407 11.1262 22.9321 12.2062 22.5518 13.2031C22.5152 13.299 22.4941 13.3547 22.4795 13.3955C22.479 13.3972 22.4781 13.3989 22.4776 13.4004C22.4807 13.4327 22.4857 13.4771 22.4961 13.5615L22.8995 16.832C22.9189 16.99 22.9428 17.1765 22.9483 17.3379C22.954 17.5063 22.9466 17.7708 22.8194 18.0488C22.661 18.3949 22.3799 18.6699 22.0303 18.8203C21.7495 18.9411 21.4847 18.9422 21.3165 18.9326C21.1552 18.9234 20.9691 18.8952 20.8116 18.8721L17.626 18.4053C17.5391 18.3925 17.4933 18.3858 17.46 18.3818C17.4584 18.3824 17.4569 18.3832 17.4551 18.3838C17.4129 18.3985 17.3553 18.4198 17.2559 18.457C16.2582 18.8307 15.1783 19.0351 14.0528 19.0352C13.8808 19.0352 13.7099 19.028 13.5401 19.0186C12.577 21.3684 10.3073 23.035 7.63188 23.0352C6.90033 23.0352 6.19522 22.9096 5.53813 22.6777C5.43007 22.6396 5.36322 22.6157 5.3145 22.5996C5.30903 22.5978 5.3041 22.5961 5.29985 22.5947C5.26625 22.5985 5.22005 22.6046 5.13481 22.6162L2.13969 23.0254C1.80442 23.0711 1.46758 22.9501 1.23833 22.7012C1.00917 22.4522 0.916206 22.1067 0.989304 21.7764L1.60063 19.0146C1.62168 18.9195 1.63347 18.8684 1.64067 18.8311C1.63941 18.8267 1.63742 18.8218 1.63579 18.8164C1.61947 18.7624 1.59503 18.6887 1.55571 18.5684C1.34289 17.9169 1.22856 17.2209 1.22856 16.5C1.22856 13.8686 2.76015 11.5806 4.98247 10.5488C4.9715 10.3672 4.96489 10.1842 4.96489 10C4.96489 5.00372 9.04023 0.964844 14.0528 0.964844C19.0653 0.96492 23.1407 5.00377 23.1407 10Z"/></g><defs><clipPath id="a"><path fill="#fff" d="M0 0H24V24H0z"/></clipPath></defs></svg>