<svg xmlns="http://www.w3.org/2000/svg" width="24" height="24" fill="none" viewBox="0 0 24 24"><path fill="currentColor" d="M19.9647 11.5C19.9647 7.37732 16.6225 4.03536 12.4999 4.03516C8.37709 4.03516 5.03407 7.37719 5.03407 11.5C5.03407 12.3361 5.17169 13.1379 5.42372 13.8857C5.4871 14.0738 5.56805 14.2999 5.61415 14.5215L5.64638 14.7402L5.65419 14.9102C5.65454 15.076 5.63333 15.231 5.58974 15.4023C5.51981 15.6769 5.37155 15.9366 5.26552 16.1328L3.84071 18.7686L8.51943 18.2852C8.64235 18.2724 8.80718 18.2536 8.96864 18.2598C9.10313 18.2649 9.2174 18.2793 9.34853 18.3096C9.50749 18.3462 9.68072 18.4165 9.8163 18.4688C10.6475 18.789 11.5523 18.9648 12.4999 18.9648C16.6225 18.9646 19.9647 15.6227 19.9647 11.5ZM9.77528 13.3154V13.3145C9.77889 13.3184 9.78695 13.3278 9.7997 13.3408C9.82528 13.3669 9.86867 13.4093 9.92861 13.4629C10.0496 13.5711 10.2346 13.7213 10.4765 13.8721C10.9616 14.1745 11.6493 14.4648 12.4999 14.4648C13.3503 14.4648 14.0373 14.1744 14.5224 13.8721C14.7642 13.7213 14.9492 13.5711 15.0702 13.4629C15.1301 13.4093 15.1735 13.367 15.1991 13.3408C15.2117 13.3279 15.2199 13.3184 15.2235 13.3145L15.2245 13.3135C15.6016 12.8877 16.2529 12.8457 16.6815 13.2207C17.1116 13.5971 17.1546 14.2515 16.7782 14.6816L15.9999 14C16.7786 14.6814 16.7785 14.6823 16.7782 14.6826H16.7772L16.7763 14.6846C16.7754 14.6855 16.7743 14.6864 16.7733 14.6875C16.7712 14.6899 16.7683 14.6931 16.7655 14.6963C16.76 14.7025 16.7531 14.71 16.745 14.7188C16.7284 14.7367 16.7058 14.7603 16.6786 14.7881C16.6238 14.844 16.5471 14.9191 16.4501 15.0059C16.2566 15.1789 15.9767 15.4037 15.6171 15.6279C14.8992 16.0755 13.8366 16.5351 12.4999 16.5352C11.163 16.5352 10.0997 16.0755 9.38173 15.6279C9.02211 15.4037 8.74217 15.1789 8.54872 15.0059C8.45168 14.9191 8.37496 14.844 8.32021 14.7881C8.29301 14.7603 8.27137 14.7367 8.25478 14.7188C8.24646 14.7097 8.23893 14.7026 8.23329 14.6963C8.23051 14.6932 8.22858 14.6899 8.22646 14.6875L8.22157 14.6826C8.22129 14.6823 8.22098 14.6816 8.99989 14L8.2206 14.6816C7.84419 14.2515 7.88807 13.5971 8.31825 13.2207C8.74735 12.8456 9.39853 12.8884 9.77528 13.3154ZM9.90614 7.47266C10.6803 7.55111 11.2841 8.20511 11.2841 9C11.2841 9.84763 10.5975 10.535 9.74989 10.5352C8.95522 10.5352 8.30129 9.93112 8.22255 9.15723L8.21474 9L8.22255 8.84277C8.30129 8.06888 8.95522 7.46484 9.74989 7.46484L9.90614 7.47266ZM15.4061 7.47266C16.1803 7.5511 16.7841 8.20511 16.7841 9C16.7841 9.84763 16.0975 10.535 15.2499 10.5352C14.4552 10.5352 13.8013 9.93112 13.7226 9.15723L13.7147 9L13.7226 8.84277C13.8013 8.06888 14.4552 7.46484 15.2499 7.46484L15.4061 7.47266ZM22.0341 11.5C22.0341 16.7659 17.7658 21.035 12.4999 21.0352C11.2939 21.0352 10.1371 20.8106 9.07216 20.4004C8.98128 20.3654 8.92886 20.3448 8.89052 20.3311C8.88845 20.3303 8.88647 20.3297 8.88466 20.3291C8.85395 20.3316 8.81135 20.3366 8.73232 20.3447L3.61122 20.874C3.38773 20.8971 3.14872 20.9225 2.95009 20.9248C2.76275 20.927 2.41945 20.9169 2.08974 20.7158C1.70468 20.4809 1.44275 20.0882 1.37294 19.6426C1.31334 19.2615 1.43405 18.9409 1.50771 18.7686C1.58582 18.5859 1.70165 18.3745 1.80849 18.1768L3.44423 15.1484C3.51352 15.0202 3.55082 14.9501 3.57607 14.8984C3.57503 14.8948 3.57436 14.8908 3.57314 14.8867C3.55172 14.8142 3.51849 14.715 3.46181 14.5469C3.13893 13.5888 2.96474 12.5637 2.96474 11.5C2.96474 6.23396 7.23386 1.96484 12.4999 1.96484C17.7658 1.96505 22.0341 6.23409 22.0341 11.5Z"/></svg>