<svg xmlns="http://www.w3.org/2000/svg" width="24" height="24" fill="none" viewBox="0 0 24 24"><path fill="currentColor" d="M19.9647 11.5C19.9647 7.37732 16.6225 4.03536 12.4999 4.03516C8.37709 4.03516 5.03407 7.37719 5.03407 11.5C5.03407 12.3361 5.17169 13.1379 5.42372 13.8857C5.4871 14.0738 5.56805 14.2999 5.61415 14.5215L5.64638 14.7402L5.65419 14.9102C5.65454 15.076 5.63333 15.231 5.58974 15.4023C5.51981 15.6769 5.37155 15.9366 5.26552 16.1328L3.84071 18.7686L8.51943 18.2852C8.64235 18.2724 8.80718 18.2536 8.96864 18.2598C9.10313 18.2649 9.2174 18.2793 9.34853 18.3096C9.50749 18.3462 9.68072 18.4165 9.8163 18.4688C10.6475 18.789 11.5523 18.9648 12.4999 18.9648C16.6225 18.9646 19.9647 15.6227 19.9647 11.5ZM12.6591 13.9648C13.2307 13.9648 13.6942 14.4284 13.6942 15C13.6942 15.5716 13.2307 16.0352 12.6591 16.0352H12.6493C12.0777 16.0351 11.6142 15.5716 11.6142 15C11.6142 14.4284 12.0777 13.9649 12.6493 13.9648H12.6591ZM10.9569 6.91797C11.6254 6.52509 12.4114 6.38161 13.1757 6.5127C13.9398 6.64382 14.6334 7.04066 15.1327 7.63379C15.6317 8.22663 15.905 8.97709 15.9042 9.75195L15.8925 9.99023C15.7845 11.1531 14.9037 11.9085 14.3183 12.2988C13.9746 12.5279 13.6388 12.6962 13.3925 12.8057C13.268 12.861 13.1624 12.9025 13.0858 12.9316C13.0475 12.9463 13.0154 12.9585 12.9921 12.9668C12.9807 12.9709 12.9711 12.974 12.9638 12.9766C12.96 12.9778 12.9566 12.9786 12.954 12.9795C12.9527 12.9799 12.9511 12.9811 12.9501 12.9814H12.9481C12.4059 13.1622 11.8193 12.8694 11.6386 12.3271C11.4692 11.8189 11.716 11.272 12.1942 11.0566L12.2929 11.0186H12.2919C12.2934 11.018 12.2956 11.0167 12.2987 11.0156C12.3083 11.0122 12.3255 11.0068 12.3485 10.998C12.3949 10.9804 12.4655 10.9523 12.5517 10.9141C12.7268 10.8362 12.9525 10.7226 13.1708 10.5771C13.6701 10.2443 13.8337 9.95194 13.8339 9.75195V9.75C13.8343 9.46351 13.7332 9.18597 13.5487 8.9668C13.3642 8.74762 13.1075 8.60117 12.8251 8.55273C12.5429 8.50442 12.2526 8.55709 12.0058 8.70215C11.7587 8.84733 11.5706 9.0754 11.4755 9.3457C11.2858 9.88483 10.6953 10.1682 10.1561 9.97852C9.61702 9.78886 9.33386 9.19832 9.52333 8.65918C9.78063 7.92775 10.2885 7.31085 10.9569 6.91797ZM22.0341 11.5C22.0341 16.7659 17.7658 21.035 12.4999 21.0352C11.2939 21.0352 10.1371 20.8106 9.07216 20.4004C8.98128 20.3654 8.92886 20.3448 8.89052 20.3311C8.88845 20.3303 8.88647 20.3297 8.88466 20.3291C8.85395 20.3316 8.81135 20.3366 8.73232 20.3447L3.61122 20.874C3.38773 20.8971 3.14872 20.9225 2.95009 20.9248C2.76275 20.927 2.41945 20.9169 2.08974 20.7158C1.70468 20.4809 1.44275 20.0882 1.37294 19.6426C1.31334 19.2615 1.43405 18.9409 1.50771 18.7686C1.58582 18.5859 1.70165 18.3745 1.80849 18.1768L3.44423 15.1484C3.51352 15.0202 3.55082 14.9501 3.57607 14.8984C3.57503 14.8948 3.57436 14.8908 3.57314 14.8867C3.55172 14.8142 3.51849 14.715 3.46181 14.5469C3.13893 13.5888 2.96474 12.5637 2.96474 11.5C2.96474 6.23396 7.23386 1.96484 12.4999 1.96484C17.7658 1.96505 22.0341 6.23409 22.0341 11.5Z"/></svg>