<svg xmlns="http://www.w3.org/2000/svg" width="24" height="24" fill="none" viewBox="0 0 24 24"><g clip-path="url(#a)"><path fill="currentColor" d="M20.9649 14.2002C20.9649 13.6231 20.9644 13.2523 20.9414 12.9707C20.9194 12.7012 20.8817 12.6052 20.8594 12.5615C20.7669 12.3803 20.6197 12.2331 20.4385 12.1406C20.3948 12.1184 20.2988 12.0806 20.0293 12.0586C19.7477 12.0356 19.3769 12.0352 18.7998 12.0352H13.2002C12.6231 12.0352 12.2523 12.0356 11.9707 12.0586C11.7012 12.0806 11.6052 12.1184 11.5615 12.1406C11.3803 12.2331 11.2331 12.3803 11.1406 12.5615C11.1184 12.6052 11.0806 12.7012 11.0586 12.9707C11.0356 13.2523 11.0352 13.6231 11.0352 14.2002V16.7139C11.0352 17.2908 11.0356 17.6618 11.0586 17.9434C11.0806 18.2129 11.1184 18.3089 11.1406 18.3525C11.2331 18.5339 11.3801 18.6819 11.5615 18.7744C11.6052 18.7967 11.7012 18.8335 11.9707 18.8555C12.2523 18.8785 12.6231 18.8789 13.2002 18.8789H14.9971C15.3326 18.8789 15.6288 18.8755 15.9229 18.9297C16.1649 18.9743 16.4009 19.0479 16.625 19.1494C16.8974 19.2728 17.1386 19.4452 17.4141 19.6367L17.9649 20.0195V19.9141C17.965 19.3425 18.4285 18.8789 19 18.8789C19.4799 18.8789 19.788 18.8783 20.0235 18.8623C20.2495 18.8469 20.3325 18.8208 20.3692 18.8057C20.6056 18.7077 20.7937 18.5197 20.8916 18.2832C20.9068 18.2464 20.9329 18.1637 20.9483 17.9385C20.9643 17.703 20.9649 17.3942 20.9649 16.9141V14.2002ZM17.9649 6.7998C17.9649 5.94287 17.9644 5.36234 17.9278 4.91406C17.8921 4.47781 17.8278 4.25806 17.751 4.10742C17.5627 3.73794 17.2621 3.43737 16.8926 3.24902C16.742 3.17227 16.5222 3.10791 16.086 3.07227C15.6377 3.03565 15.0571 3.03516 14.2002 3.03516H6.79983C5.9429 3.03516 5.36236 3.03565 4.91408 3.07227C4.47783 3.10791 4.25809 3.17227 4.10744 3.24902C3.73796 3.43737 3.43739 3.73794 3.24905 4.10742C3.17229 4.25807 3.10793 4.47781 3.07229 4.91406C3.03567 5.36234 3.03518 5.94287 3.03518 6.7998V11.4443C3.03518 11.997 3.03769 12.1623 3.05569 12.2852C3.18162 13.1439 3.85614 13.8184 4.71487 13.9443C5.61503 14.0762 6.59062 14.792 6.59084 15.9912V16.9785L8.96487 14.5742V14.2002C8.96487 13.6572 8.96463 13.1872 8.99612 12.8018C9.02861 12.4044 9.10026 12.0061 9.29592 11.6221C9.58688 11.0511 10.0511 10.5869 10.6221 10.2959C11.0061 10.1002 11.4044 10.0286 11.8018 9.99609C12.1872 9.9646 12.6572 9.96484 13.2002 9.96484H17.9649V6.7998ZM20.0352 9.98535C20.091 9.98853 20.1456 9.99179 20.1983 9.99609C20.5956 10.0286 20.9939 10.1002 21.378 10.2959C21.9489 10.5869 22.4132 11.0511 22.7041 11.6221C22.8998 12.0061 22.9714 12.4044 23.0039 12.8018C23.0354 13.1872 23.0352 13.6572 23.0352 14.2002V16.9141C23.0352 17.3658 23.0357 17.7568 23.0137 18.0791C22.9911 18.4107 22.9408 18.7453 22.8037 19.0762C22.4956 19.8196 21.9047 20.4098 21.1612 20.7178C20.8304 20.8548 20.4965 20.9051 20.1651 20.9277C20.1231 20.9306 20.0795 20.9295 20.0352 20.9316V22C20.0352 22.3853 19.8209 22.7385 19.4795 22.917C19.138 23.0955 18.7256 23.0696 18.4092 22.8496L16.2324 21.3369C15.8967 21.1035 15.8319 21.0626 15.7715 21.0352C15.7002 21.0029 15.6248 20.979 15.5479 20.9648C15.4826 20.9528 15.4061 20.9492 14.9971 20.9492H13.2002C12.6572 20.9492 12.1872 20.9504 11.8018 20.9189C11.4044 20.8865 11.0061 20.8138 10.6221 20.6182C10.0511 20.3272 9.58686 19.863 9.29592 19.292C9.10025 18.9079 9.0286 18.5097 8.99612 18.1123C8.98135 17.9316 8.97373 17.7322 8.96975 17.5156L7.66115 18.8408C7.46112 19.0434 7.26248 19.2463 7.08889 19.3936C6.94209 19.5181 6.62491 19.7748 6.18264 19.8115C5.6917 19.8523 5.21133 19.6552 4.89065 19.2812C4.60179 18.9443 4.55702 18.5384 4.54006 18.3467C4.52004 18.12 4.52053 17.8363 4.52053 17.5518V16.0303C4.51503 16.0267 4.50867 16.0217 4.50002 16.0176C4.47814 16.0071 4.44921 15.9972 4.41506 15.9922C2.6513 15.7338 1.26627 14.3487 1.00783 12.585C0.962476 12.2753 0.964865 11.9238 0.964865 11.4443V6.7998C0.964865 5.97689 0.964676 5.29725 1.00979 4.74512C1.0559 4.18095 1.15511 3.65899 1.4053 3.16797C1.7921 2.409 2.40902 1.79208 3.16799 1.40527C3.65901 1.15509 4.18097 1.05588 4.74514 1.00977C5.29727 0.964654 5.97691 0.964844 6.79983 0.964844H14.2002C15.0231 0.964844 15.7028 0.964654 16.2549 1.00977C16.8191 1.05588 17.341 1.15509 17.8321 1.40527C18.591 1.79208 19.2079 2.409 19.5947 3.16797C19.8449 3.65899 19.9441 4.18095 19.9903 4.74512C20.0354 5.29725 20.0352 5.97689 20.0352 6.7998V9.98535Z"/></g><defs><clipPath id="a"><path fill="#fff" d="M0 0H24V24H0z"/></clipPath></defs></svg>