<svg xmlns="http://www.w3.org/2000/svg" width="24" height="24" fill="none" viewBox="0 0 24 24"><path fill="currentColor" d="M19.9649 13.2002V7.7998C19.9649 6.94287 19.9644 6.36234 19.9278 5.91406C19.8922 5.47781 19.8278 5.25807 19.7511 5.10742C19.5627 4.73794 19.2622 4.43737 18.8927 4.24902C18.742 4.17227 18.5223 4.10791 18.086 4.07227C17.6378 4.03565 17.0572 4.03516 16.2003 4.03516H7.7999C6.94297 4.03516 6.36243 4.03565 5.91416 4.07227C5.47791 4.10791 5.25816 4.17227 5.10752 4.24902C4.73804 4.43737 4.43746 4.73794 4.24912 5.10742C4.17236 5.25807 4.108 5.47781 4.07236 5.91406C4.03575 6.36234 4.03525 6.94287 4.03525 7.7998V14C4.03525 14.9966 4.04359 15.2921 4.10166 15.5088C4.28337 16.1868 4.81328 16.7167 5.49131 16.8984C5.70801 16.9565 6.00349 16.9648 7.00009 16.9648C7.57171 16.9648 8.03525 17.4284 8.03525 18V19.8467L10.0392 18.2432C10.4938 17.8794 10.8305 17.6046 11.2169 17.4072C11.5406 17.2418 11.8852 17.1209 12.2413 17.0479C12.6665 16.9606 13.1012 16.9648 13.6837 16.9648H16.2003C17.0572 16.9648 17.6378 16.9643 18.086 16.9277C18.5223 16.8921 18.742 16.8277 18.8927 16.751C19.2622 16.5626 19.5627 16.2621 19.7511 15.8926C19.8278 15.7419 19.8922 15.5222 19.9278 15.0859C19.9644 14.6377 19.9649 14.0571 19.9649 13.2002ZM7.50009 8.96484C8.34785 8.96484 9.03525 9.65224 9.03525 10.5C9.03525 11.3478 8.34785 12.0352 7.50009 12.0352C6.65234 12.0352 5.96494 11.3478 5.96494 10.5C5.96494 9.65224 6.65234 8.96484 7.50009 8.96484ZM12.0001 8.96484C12.8479 8.96484 13.5353 9.65224 13.5353 10.5C13.5353 11.3478 12.8479 12.0352 12.0001 12.0352C11.1523 12.0352 10.4649 11.3478 10.4649 10.5C10.4649 9.65224 11.1523 8.96484 12.0001 8.96484ZM16.5001 8.96484C17.3479 8.96484 18.0353 9.65224 18.0353 10.5C18.0353 11.3478 17.3479 12.0352 16.5001 12.0352C15.6523 12.0352 14.9649 11.3478 14.9649 10.5C14.9649 9.65224 15.6523 8.96484 16.5001 8.96484ZM22.0353 13.2002C22.0353 14.0231 22.0354 14.7027 21.9903 15.2549C21.9442 15.8191 21.845 16.341 21.5948 16.832C21.208 17.591 20.5911 18.2079 19.8321 18.5947C19.3411 18.8449 18.8191 18.9441 18.255 18.9902C17.7028 19.0353 17.0232 19.0352 16.2003 19.0352H13.6837C13.0183 19.0352 12.829 19.04 12.6573 19.0752C12.4839 19.1108 12.3159 19.1695 12.1583 19.25C12.0022 19.3297 11.8517 19.4447 11.3321 19.8604L8.94638 21.7686C8.75453 21.922 8.55542 22.0829 8.38095 22.1982C8.22246 22.303 7.90972 22.4946 7.50205 22.4951C7.03459 22.4956 6.59251 22.2823 6.30088 21.917C6.04654 21.5984 5.99972 21.2352 5.98252 21.0459C5.9636 20.8377 5.96494 20.5816 5.96494 20.3359V19.0234C5.58605 19.0097 5.25762 18.9782 4.95615 18.8975C3.5637 18.5244 2.47574 17.4364 2.10263 16.0439C1.95635 15.4977 1.96494 14.8632 1.96494 14V7.7998C1.96494 6.97689 1.96475 6.29725 2.00986 5.74512C2.05597 5.18095 2.15518 4.65899 2.40537 4.16797C2.79217 3.409 3.4091 2.79208 4.16806 2.40527C4.65908 2.15509 5.18104 2.05588 5.74521 2.00977C6.29735 1.96465 6.97699 1.96484 7.7999 1.96484H16.2003C17.0232 1.96484 17.7028 1.96465 18.255 2.00977C18.8191 2.05588 19.3411 2.15509 19.8321 2.40527C20.5911 2.79208 21.208 3.409 21.5948 4.16797C21.845 4.65899 21.9442 5.18095 21.9903 5.74512C22.0354 6.29725 22.0353 6.97689 22.0353 7.7998V13.2002Z"/></svg>