<svg xmlns="http://www.w3.org/2000/svg" width="24" height="24" fill="none" viewBox="0 0 24 24"><path fill="currentColor" d="M19.9647 11.5C19.9647 7.37732 16.6225 4.03536 12.4999 4.03516C8.37709 4.03516 5.03407 7.37719 5.03407 11.5C5.03407 12.3361 5.17169 13.1379 5.42372 13.8857C5.4871 14.0738 5.56805 14.2999 5.61415 14.5215L5.64638 14.7402L5.65419 14.9102C5.65454 15.076 5.63333 15.231 5.58974 15.4023C5.51981 15.6769 5.37155 15.9366 5.26552 16.1328L3.84071 18.7686L8.51943 18.2852C8.64235 18.2724 8.80718 18.2536 8.96864 18.2598C9.10313 18.2649 9.2174 18.2793 9.34853 18.3096C9.50749 18.3462 9.68072 18.4165 9.8163 18.4688C10.6475 18.789 11.5523 18.9648 12.4999 18.9648C16.6225 18.9646 19.9647 15.6227 19.9647 11.5ZM15.2675 8.26855C15.6717 7.86436 16.3271 7.86436 16.7313 8.26855C17.1353 8.6727 17.1353 9.3273 16.7313 9.73145L12.2313 14.2314C11.8271 14.6356 11.1717 14.6356 10.7675 14.2314L8.76747 12.2314C8.36368 11.8273 8.36368 11.1727 8.76747 10.7686C9.17167 10.3644 9.82715 10.3644 10.2313 10.7686L11.4989 12.0361L15.2675 8.26855ZM22.0341 11.5C22.0341 16.7659 17.7658 21.035 12.4999 21.0352C11.2939 21.0352 10.1371 20.8106 9.07216 20.4004C8.98128 20.3654 8.92886 20.3448 8.89052 20.3311C8.88845 20.3303 8.88647 20.3297 8.88466 20.3291C8.85395 20.3316 8.81135 20.3366 8.73232 20.3447L3.61122 20.874C3.38773 20.8971 3.14872 20.9225 2.95009 20.9248C2.76275 20.927 2.41945 20.9169 2.08974 20.7158C1.70468 20.4809 1.44275 20.0882 1.37294 19.6426C1.31334 19.2615 1.43405 18.9409 1.50771 18.7686C1.58582 18.5859 1.70165 18.3745 1.80849 18.1768L3.44423 15.1484C3.51352 15.0202 3.55082 14.9501 3.57607 14.8984C3.57503 14.8948 3.57436 14.8908 3.57314 14.8867C3.55172 14.8142 3.51849 14.715 3.46181 14.5469C3.13893 13.5888 2.96474 12.5637 2.96474 11.5C2.96474 6.23396 7.23386 1.96484 12.4999 1.96484C17.7658 1.96505 22.0341 6.23409 22.0341 11.5Z"/></svg>