<svg xmlns="http://www.w3.org/2000/svg" width="24" height="24" fill="none" viewBox="0 0 24 24"><path fill="currentColor" d="M2.96484 13V12C2.96484 11.4284 3.42839 10.9648 4 10.9648C4.57161 10.9648 5.03516 11.4284 5.03516 12V13C5.03516 16.8467 8.15334 19.9648 12 19.9648C15.8467 19.9648 18.9648 16.8467 18.9648 13V12C18.9648 11.4284 19.4284 10.9648 20 10.9648C20.5716 10.9648 21.0352 11.4284 21.0352 12V13C21.0352 17.9899 16.9899 22.0352 12 22.0352C7.01011 22.0352 2.96484 17.9899 2.96484 13ZM14.9648 7C14.9648 5.36248 13.6375 4.03516 12 4.03516C10.3625 4.03516 9.03516 5.36248 9.03516 7V13C9.03516 14.6375 10.3625 15.9648 12 15.9648C13.6375 15.9648 14.9648 14.6375 14.9648 13V7ZM17.0352 13C17.0352 15.7808 14.7808 18.0352 12 18.0352C9.21925 18.0352 6.96484 15.7808 6.96484 13V7C6.96484 4.21925 9.21925 1.96484 12 1.96484C14.7808 1.96484 17.0352 4.21925 17.0352 7V13Z"/></svg>