<svg xmlns="http://www.w3.org/2000/svg" width="24" height="24" fill="none" viewBox="0 0 24 24"><g clip-path="url(#a)"><path fill="currentColor" d="M1.26848 1.26848C1.67267 0.864284 2.32717 0.864284 2.73137 1.26848L8.72453 7.26164C8.72694 7.264 8.72995 7.26609 8.73234 7.26848L18.7968 17.3339C18.7984 17.3352 18.8001 17.3365 18.8017 17.3378C18.8483 17.3768 18.8897 17.4199 18.9277 17.4648L22.7314 21.2685C23.1356 21.6727 23.1356 22.3272 22.7314 22.7314C22.3272 23.1356 21.6727 23.1356 21.2685 22.7314L18.1503 19.6132C16.538 21.1131 14.3772 22.0351 11.9999 22.0351C7.01003 22.0351 2.96477 17.9898 2.96477 12.9999V11.9999C2.96477 11.4283 3.42831 10.9648 3.99992 10.9648C4.57154 10.9648 5.03508 11.4283 5.03508 11.9999V12.9999C5.03508 16.8466 8.15326 19.9648 11.9999 19.9648C13.8053 19.9648 15.4482 19.2772 16.6864 18.1493L15.3202 16.7831C14.4345 17.561 13.2729 18.0351 11.9999 18.0351C9.21917 18.0351 6.96477 15.7807 6.96477 12.9999V8.42766L1.26848 2.73137C0.864284 2.32717 0.864284 1.67267 1.26848 1.26848ZM14.9648 10.4003V6.99992C14.9648 5.3624 13.6374 4.03508 11.9999 4.03508C11.2879 4.03508 10.637 4.28456 10.1259 4.70207C9.68325 5.06374 9.03054 4.99823 8.66887 4.55559C8.30744 4.11294 8.37377 3.46113 8.81633 3.09953C9.68356 2.39101 10.7933 1.96477 11.9999 1.96477C14.7807 1.96477 17.0351 4.21917 17.0351 6.99992V10.4003C17.0349 10.9717 16.5714 11.4345 15.9999 11.4345C15.4284 11.4345 14.965 10.9717 14.9648 10.4003ZM9.03508 12.9999C9.03508 14.6374 10.3624 15.9648 11.9999 15.9648C12.6986 15.9648 13.3402 15.7226 13.8476 15.3173L9.03508 10.4999V12.9999Z"/></g><defs><clipPath id="a"><path fill="#fff" d="M0 0H24V24H0z"/></clipPath></defs></svg>