<svg xmlns="http://www.w3.org/2000/svg" width="24" height="24" fill="none" viewBox="0 0 24 24"><g clip-path="url(#a)"><path fill="currentColor" d="M1.26848 1.26855C1.67267 0.864362 2.32717 0.864362 2.73137 1.26855L9.72355 8.26074C9.72602 8.26316 9.72892 8.26514 9.73137 8.26758L14.8544 13.3877C14.8669 13.4001 14.8779 13.4139 14.8896 13.4268L16.8837 15.4209C17.5636 14.4521 17.9648 13.2734 17.9648 12V10C17.9648 9.42839 18.4283 8.96484 18.9999 8.96484C19.5715 8.96484 20.0351 9.42839 20.0351 10V12C20.0351 13.8458 19.4105 15.5447 18.3642 16.9014L22.7314 21.2686C23.1356 21.6727 23.1356 22.3273 22.7314 22.7314C22.3272 23.1356 21.6727 23.1356 21.2685 22.7314L16.9013 18.3643C15.8025 19.2117 14.4794 19.78 13.0351 19.9658V20.9648H15.9999C16.5715 20.9648 17.0351 21.4284 17.0351 22C17.0351 22.5716 16.5715 23.0352 15.9999 23.0352H7.99992C7.42831 23.0352 6.96477 22.5716 6.96477 22C6.96477 21.4284 7.42831 20.9648 7.99992 20.9648H10.9648V19.9658C7.01629 19.4578 3.96477 16.0867 3.96477 12V10C3.96477 9.42839 4.42831 8.96484 4.99992 8.96484C5.57154 8.96484 6.03508 9.42839 6.03508 10V12C6.03508 15.2944 8.70554 17.9648 11.9999 17.9648C13.2734 17.9648 14.452 17.5637 15.4208 16.8838L14.0253 15.4883C13.4299 15.8346 12.7381 16.0352 11.9999 16.0352C9.77145 16.0352 7.96477 14.2285 7.96477 12V9.42773L1.26848 2.73145C0.864284 2.32725 0.864284 1.67275 1.26848 1.26855ZM13.9648 9.40039V5C13.9648 3.91476 13.0852 3.03516 11.9999 3.03516C11.2301 3.03516 10.5621 3.47769 10.2392 4.12695C9.98469 4.6387 9.36326 4.84713 8.85148 4.59277C8.33966 4.33825 8.13114 3.7169 8.38566 3.20508C9.04488 1.87957 10.4146 0.964844 11.9999 0.964844C14.2284 0.964844 16.0351 2.77153 16.0351 5V9.40039C16.0349 9.97183 15.5714 10.4346 14.9999 10.4346C14.4284 10.4346 13.965 9.97183 13.9648 9.40039ZM10.0351 12C10.0351 13.0852 10.9147 13.9648 11.9999 13.9648C12.1544 13.9648 12.3041 13.9447 12.4482 13.9111L10.0351 11.498V12Z"/></g><defs><clipPath id="a"><path fill="#fff" d="M0 0H24V24H0z"/></clipPath></defs></svg>