<svg xmlns="http://www.w3.org/2000/svg" width="24" height="24" fill="none" viewBox="0 0 24 24"><path fill="currentColor" d="M3.96484 12V10C3.96484 9.42839 4.42839 8.96484 5 8.96484C5.57161 8.96484 6.03516 9.42839 6.03516 10V12C6.03516 15.2944 8.70562 17.9648 12 17.9648C15.2944 17.9648 17.9648 15.2944 17.9648 12V10C17.9648 9.42839 18.4284 8.96484 19 8.96484C19.5716 8.96484 20.0352 9.42839 20.0352 10V12C20.0352 16.0867 16.9836 19.4578 13.0352 19.9658V20.9648H16C16.5716 20.9648 17.0352 21.4284 17.0352 22C17.0352 22.5716 16.5716 23.0352 16 23.0352H8C7.42839 23.0352 6.96484 22.5716 6.96484 22C6.96484 21.4284 7.42839 20.9648 8 20.9648H10.9648V19.9658C7.01637 19.4578 3.96484 16.0867 3.96484 12ZM13.9648 5C13.9648 3.91476 13.0852 3.03516 12 3.03516C10.9148 3.03516 10.0352 3.91476 10.0352 5V12C10.0352 13.0852 10.9148 13.9648 12 13.9648C13.0852 13.9648 13.9648 13.0852 13.9648 12V5ZM16.0352 12C16.0352 14.2285 14.2285 16.0352 12 16.0352C9.77153 16.0352 7.96484 14.2285 7.96484 12V5C7.96484 2.77153 9.77153 0.964844 12 0.964844C14.2285 0.964844 16.0352 2.77153 16.0352 5V12Z"/></svg>