<svg xmlns="http://www.w3.org/2000/svg" width="24" height="24" fill="none" viewBox="0 0 24 24"><path fill="currentColor" d="M12.0001 20.9648C12.5717 20.9648 13.0352 21.4284 13.0352 22C13.0352 22.5716 12.5717 23.0352 12.0001 23.0352H3.00008C2.42846 23.0352 1.96492 22.5716 1.96492 22C1.96492 21.4284 2.42846 20.9648 3.00008 20.9648H12.0001ZM19.9649 14C19.9649 10.1533 16.8467 7.03516 13.0001 7.03516C12.6722 7.03516 12.3503 7.05893 12.0352 7.10254V12.75C12.5089 13.1785 12.8466 13.7543 12.9766 14.4082C13.0399 14.7265 13.0352 15.0851 13.0352 15.5C13.0352 15.9149 13.0399 16.2735 12.9766 16.5918C12.7372 17.7958 11.7958 18.7371 10.5919 18.9766C10.2736 19.0398 9.91501 19.0352 9.50008 19.0352H5.50008C5.08515 19.0352 4.72659 19.0398 4.40828 18.9766C3.20432 18.7371 2.263 17.7958 2.02352 16.5918C1.96024 16.2735 1.96492 15.9149 1.96492 15.5C1.96492 15.0851 1.96024 14.7265 2.02352 14.4082C2.15358 13.7543 2.49124 13.1785 2.96492 12.75V5.5C2.96492 2.99539 4.99547 0.964844 7.50008 0.964844C9.84236 0.964844 11.7689 2.74084 12.0089 5.01953C12.3347 4.98393 12.6653 4.96484 13.0001 4.96484C17.99 4.96484 22.0352 9.01011 22.0352 14C22.0352 17.7933 19.6978 21.0383 16.3887 22.3779C15.8589 22.5924 15.2556 22.3365 15.0411 21.8066C14.8267 21.2769 15.0817 20.6735 15.6114 20.459C18.1658 19.425 19.9649 16.9214 19.9649 14ZM10.9649 15.5C10.9649 14.9857 10.9599 14.8795 10.9464 14.8115C10.8702 14.4289 10.5712 14.1299 10.1886 14.0537C10.1546 14.047 10.1109 14.042 10.0118 14.0391L9.50008 14.0352H5.50008L4.98836 14.0391C4.88925 14.042 4.84558 14.047 4.8116 14.0537C4.42899 14.1299 4.12999 14.4289 4.05379 14.8115C4.04026 14.8795 4.03523 14.9857 4.03523 15.5C4.03523 16.0143 4.04026 16.1205 4.05379 16.1885C4.12999 16.5711 4.42899 16.8701 4.8116 16.9463C4.87962 16.9598 4.98581 16.9648 5.50008 16.9648H9.50008C10.0143 16.9648 10.1205 16.9598 10.1886 16.9463C10.5712 16.8701 10.8702 16.5711 10.9464 16.1885C10.9599 16.1205 10.9649 16.0143 10.9649 15.5ZM5.03523 11.9648H9.96492V5.5C9.96492 4.13862 8.86146 3.03516 7.50008 3.03516C6.1387 3.03516 5.03523 4.13862 5.03523 5.5V11.9648Z"/></svg>