<svg xmlns="http://www.w3.org/2000/svg" width="24" height="24" fill="none" viewBox="0 0 24 24"><path fill="currentColor" d="M20.2685 2.26848C20.6727 1.86428 21.3272 1.86428 21.7314 2.26848C22.1356 2.67267 22.1356 3.32717 21.7314 3.73137L16.498 8.96477H20C20.5716 8.96477 21.0351 9.42831 21.0351 9.99992C21.0351 10.5715 20.5716 11.0351 20 11.0351H14C13.4284 11.0351 12.9648 10.5715 12.9648 9.99992V3.99992C12.9648 3.42831 13.4284 2.96477 14 2.96477C14.5716 2.96477 15.0351 3.42831 15.0351 3.99992V7.50187L20.2685 2.26848ZM11.0351 19.9999C11.0351 20.5715 10.5716 21.0351 9.99998 21.0351C9.42837 21.0351 8.96483 20.5715 8.96483 19.9999V16.498L3.73143 21.7314C3.32724 22.1356 2.67273 22.1356 2.26854 21.7314C1.86434 21.3272 1.86434 20.6727 2.26854 20.2685L7.50194 15.0351H3.99998C3.42837 15.0351 2.96483 14.5715 2.96483 13.9999C2.96483 13.4283 3.42837 12.9648 3.99998 12.9648H9.99998C10.5716 12.9648 11.0351 13.4283 11.0351 13.9999V19.9999Z"/></svg>