<svg xmlns="http://www.w3.org/2000/svg" width="24" height="24" fill="none" viewBox="0 0 24 24"><path fill="currentColor" d="M6.96472 21V20.7998C6.96472 19.9429 6.96422 19.3623 6.92761 18.9141C6.89197 18.4778 6.82761 18.2581 6.75085 18.1074C6.56251 17.7379 6.26194 17.4374 5.89246 17.249C5.74181 17.1723 5.52207 17.1079 5.08582 17.0723C4.63754 17.0357 4.057 17.0352 3.20007 17.0352H2.99988C2.42826 17.0352 1.96472 16.5716 1.96472 16C1.96472 15.4284 2.42826 14.9648 2.99988 14.9648H3.20007C4.02299 14.9648 4.70263 14.9647 5.25476 15.0098C5.81893 15.0559 6.34089 15.1551 6.83191 15.4053C7.59088 15.7921 8.2078 16.409 8.5946 17.168C8.84479 17.659 8.944 18.1809 8.99011 18.7451C9.03522 19.2973 9.03503 19.9769 9.03503 20.7998V21C9.03503 21.5716 8.57149 22.0352 7.99988 22.0352C7.42826 22.0352 6.96472 21.5716 6.96472 21ZM14.9647 21V20.7998C14.9647 19.9769 14.9645 19.2973 15.0096 18.7451C15.0558 18.1809 15.155 17.659 15.4052 17.168C15.792 16.409 16.4089 15.7921 17.1678 15.4053C17.6589 15.1551 18.1808 15.0559 18.745 15.0098C19.2971 14.9647 19.9768 14.9648 20.7997 14.9648H20.9999C21.5715 14.9648 22.035 15.4284 22.035 16C22.035 16.5716 21.5715 17.0352 20.9999 17.0352H20.7997C19.9428 17.0352 19.3622 17.0357 18.9139 17.0723C18.4777 17.1079 18.2579 17.1723 18.1073 17.249C17.7378 17.4374 17.4372 17.7379 17.2489 18.1074C17.1721 18.2581 17.1078 18.4778 17.0721 18.9141C17.0355 19.3623 17.035 19.9429 17.035 20.7998V21C17.035 21.5716 16.5715 22.0352 15.9999 22.0352C15.4283 22.0352 14.9647 21.5716 14.9647 21ZM6.96472 3.2002V3C6.96472 2.42839 7.42826 1.96484 7.99988 1.96484C8.57149 1.96484 9.03503 2.42839 9.03503 3V3.2002C9.03503 4.02311 9.03522 4.70275 8.99011 5.25488C8.944 5.81905 8.84479 6.34101 8.5946 6.83203C8.2078 7.591 7.59088 8.20792 6.83191 8.59473C6.34089 8.84491 5.81893 8.94412 5.25476 8.99023C4.70263 9.03535 4.02299 9.03516 3.20007 9.03516H2.99988C2.42826 9.03516 1.96472 8.57161 1.96472 8C1.96472 7.42839 2.42826 6.96484 2.99988 6.96484H3.20007C4.057 6.96484 4.63754 6.96435 5.08582 6.92773C5.52207 6.89209 5.74181 6.82773 5.89246 6.75098C6.26194 6.56263 6.56251 6.26206 6.75085 5.89258C6.82761 5.74193 6.89197 5.52219 6.92761 5.08594C6.96422 4.63766 6.96472 4.05713 6.96472 3.2002ZM14.9647 3.2002V3C14.9647 2.42839 15.4283 1.96484 15.9999 1.96484C16.5715 1.96484 17.035 2.42839 17.035 3V3.2002C17.035 4.05713 17.0355 4.63766 17.0721 5.08594C17.1078 5.52219 17.1721 5.74193 17.2489 5.89258C17.4372 6.26206 17.7378 6.56263 18.1073 6.75098C18.2579 6.82773 18.4777 6.89209 18.9139 6.92773C19.3622 6.96435 19.9428 6.96484 20.7997 6.96484H20.9999C21.5715 6.96484 22.035 7.42839 22.035 8C22.035 8.57161 21.5715 9.03516 20.9999 9.03516H20.7997C19.9768 9.03516 19.2971 9.03535 18.745 8.99023C18.1808 8.94412 17.6589 8.84491 17.1678 8.59473C16.4089 8.20792 15.792 7.591 15.4052 6.83203C15.155 6.34101 15.0558 5.81905 15.0096 5.25488C14.9645 4.70275 14.9647 4.02311 14.9647 3.2002Z"/></svg>