<svg xmlns="http://www.w3.org/2000/svg" width="24" height="24" fill="none" viewBox="0 0 24 24"><g clip-path="url(#a)"><path fill="currentColor" d="M20.9646 19.0002C20.9646 18.5201 20.9641 18.2113 20.948 17.9758C20.9326 17.7504 20.9065 17.6678 20.8914 17.631C20.7934 17.3946 20.6054 17.2065 20.3689 17.1086C20.3322 17.0934 20.2496 17.0673 20.0242 17.0519C19.7887 17.0359 19.4799 17.0353 18.9998 17.0353H4.99976C4.5199 17.0353 4.21177 17.0359 3.97632 17.0519C3.7501 17.0674 3.66725 17.0934 3.63062 17.1086C3.39422 17.2065 3.20608 17.3946 3.10816 17.631C3.09296 17.6679 3.06689 17.7507 3.05151 17.9758C3.03545 18.2113 3.03491 18.5201 3.03491 19.0002C3.03491 19.48 3.03546 19.7882 3.05151 20.0236C3.06695 20.2498 3.09298 20.3327 3.10816 20.3693C3.2061 20.6058 3.39417 20.7938 3.63062 20.8918C3.66728 20.9069 3.7502 20.933 3.97632 20.9484C4.21177 20.9645 4.51992 20.965 4.99976 20.965H18.9998C19.4799 20.965 19.7887 20.9645 20.0242 20.9484C20.2493 20.933 20.3321 20.907 20.3689 20.8918C20.6053 20.7938 20.7934 20.6057 20.8914 20.3693C20.9065 20.3327 20.9326 20.2498 20.948 20.0236C20.9641 19.7882 20.9646 19.48 20.9646 19.0002ZM7.02515 4.02556C7.42934 3.62137 8.08482 3.62137 8.48901 4.02556C8.89321 4.42975 8.89321 5.08523 8.48901 5.48942C6.55031 7.4284 6.55015 10.572 8.48901 12.5109C8.89318 12.9151 8.8932 13.5706 8.48901 13.9748C8.08481 14.3787 7.42925 14.3788 7.02515 13.9748C4.27789 11.2275 4.27806 6.77292 7.02515 4.02556ZM15.5105 4.02556C15.9147 3.62136 16.5702 3.62136 16.9744 4.02556C19.7217 6.7729 19.7217 11.2274 16.9744 13.9748C16.5702 14.3787 15.9146 14.3788 15.5105 13.9748C15.1064 13.5707 15.1066 12.9151 15.5105 12.5109C17.4494 10.572 17.4494 7.42838 15.5105 5.48942C15.1064 5.08531 15.1065 4.42977 15.5105 4.02556ZM23.0349 19.0002C23.0349 19.4516 23.0354 19.8421 23.0134 20.1642C22.9908 20.4958 22.9405 20.8304 22.8035 21.1613C22.4955 21.9048 21.9053 22.4958 21.1619 22.8039C20.831 22.9409 20.4964 22.9912 20.1648 23.0138C19.8425 23.0358 19.4515 23.0353 18.9998 23.0353H4.99976C4.5483 23.0353 4.15786 23.0358 3.83569 23.0138C3.50411 22.9912 3.16951 22.9409 2.83862 22.8039C2.09496 22.4958 1.50408 21.905 1.19605 21.1613C1.05899 20.8304 1.00871 20.4958 0.986085 20.1642C0.964131 19.8421 0.9646 19.4516 0.964601 19.0002C0.964601 18.5484 0.964094 18.1574 0.986085 17.8351C1.00871 17.5035 1.05898 17.169 1.19605 16.8381C1.50412 16.0946 2.09509 15.5035 2.83862 15.1955C2.84674 15.1921 2.85492 15.189 2.86304 15.1857C-0.0507898 10.892 0.392278 5.00228 4.19702 1.19743C4.60121 0.793239 5.2567 0.793239 5.66089 1.19743C6.06458 1.60153 6.06458 2.25623 5.66089 2.66032C2.28189 6.03932 2.16401 11.4449 5.30737 14.965H10.9646V9.00017C10.9646 8.42862 11.4282 7.96513 11.9998 7.96501C12.5714 7.96501 13.0349 8.42855 13.0349 9.00017V14.965H18.6921C21.8357 11.4449 21.7187 6.03939 18.3396 2.66032C17.9356 2.25616 17.9356 1.6016 18.3396 1.19743C18.7438 0.793239 19.3993 0.793239 19.8035 1.19743C23.608 5.00235 24.0504 10.8921 21.1365 15.1857C21.1448 15.1891 21.1535 15.192 21.1619 15.1955C21.9053 15.5035 22.4954 16.0947 22.8035 16.8381C22.9405 17.1689 22.9908 17.5035 23.0134 17.8351C23.0354 18.1574 23.0349 18.5484 23.0349 19.0002Z"/></g><defs><clipPath id="a"><path fill="#fff" d="M0 0H24V24H0z"/></clipPath></defs></svg>