<svg xmlns="http://www.w3.org/2000/svg" width="24" height="24" fill="none" viewBox="0 0 24 24"><path fill="currentColor" d="M20.9646 18.1997C20.9646 17.6227 20.9642 17.2518 20.9412 16.9702C20.9192 16.7016 20.8824 16.6058 20.8601 16.562C20.7676 16.3805 20.6197 16.2327 20.4382 16.1402C20.3945 16.1179 20.2986 16.0811 20.0291 16.0591C19.7475 16.0361 19.3765 16.0347 18.7996 16.0347H5.19995C4.62284 16.0347 4.25204 16.0361 3.97046 16.0591C3.70172 16.0811 3.60606 16.1179 3.56226 16.1402C3.38068 16.2327 3.2329 16.3805 3.14038 16.562C3.11813 16.6057 3.08036 16.7011 3.05835 16.9702C3.03535 17.2518 3.03491 17.6227 3.03491 18.1997V18.8003C3.03491 19.3769 3.03539 19.7474 3.05835 20.0288C3.08037 20.2983 3.11812 20.3943 3.14038 20.438C3.2329 20.6196 3.3807 20.7674 3.56226 20.8599C3.60609 20.8822 3.70184 20.919 3.97046 20.9409C4.25204 20.9639 4.62283 20.9654 5.19995 20.9654H18.7996C19.3765 20.9654 19.7475 20.9639 20.0291 20.9409C20.2986 20.9189 20.3945 20.8821 20.4382 20.8599C20.6198 20.7674 20.7676 20.6196 20.8601 20.438C20.8824 20.3943 20.9192 20.298 20.9412 20.0288C20.9641 19.7474 20.9646 19.3769 20.9646 18.8003V18.1997ZM9.49976 17.4654C10.0712 17.4654 10.5347 17.9281 10.5349 18.4995C10.5349 19.0711 10.0714 19.5347 9.49976 19.5347H5.49976C4.92824 19.5346 4.4646 19.0711 4.4646 18.4995C4.46482 17.9282 4.92838 17.4655 5.49976 17.4654H9.49976ZM3.66577 1.76711C4.04083 1.33578 4.69438 1.28955 5.12573 1.66457C5.55705 2.03961 5.60226 2.69318 5.22729 3.12453C3.22001 5.43303 2.58957 8.5274 3.34155 11.3316C3.48954 11.8836 3.16206 12.451 2.61011 12.5991C2.05804 12.7472 1.49064 12.4197 1.34253 11.8677C0.418616 8.42241 1.19096 4.61336 3.66577 1.76711ZM18.8708 1.66457C19.3022 1.28962 19.9558 1.3358 20.3308 1.76711C22.8056 4.61335 23.578 8.42242 22.6541 11.8677C22.506 12.4198 21.9386 12.7472 21.3865 12.5991C20.8345 12.451 20.507 11.8836 20.655 11.3316C21.407 8.5274 20.7766 5.43303 18.7693 3.12453C18.3943 2.69318 18.4395 2.03962 18.8708 1.66457ZM6.47729 4.64211C6.83186 4.19375 7.48206 4.11762 7.93042 4.47219C8.37871 4.82672 8.45476 5.47697 8.10034 5.92532C7.1081 7.18003 6.80795 8.80726 7.20483 10.2896C7.35271 10.8417 7.02454 11.4093 6.47241 11.5572C5.92029 11.705 5.35275 11.3778 5.20483 10.8257C4.64399 8.73161 5.06652 6.4261 6.47729 4.64211ZM16.0691 4.47219C16.5175 4.11762 17.1686 4.19375 17.5232 4.64211C18.9338 6.42606 19.3555 8.73172 18.7947 10.8257C18.6467 11.3777 18.0792 11.705 17.5271 11.5572C16.9752 11.4091 16.6478 10.8416 16.7957 10.2896C17.1925 8.80728 16.8914 7.18 15.8992 5.92532C15.545 5.47707 15.6211 4.82672 16.0691 4.47219ZM23.0349 18.8003C23.0349 19.3431 23.0361 19.8125 23.0046 20.1978C22.9722 20.5952 22.8995 20.9934 22.7039 21.3775C22.4129 21.9485 21.9488 22.4136 21.3777 22.7046C20.9937 22.9002 20.5954 22.9719 20.198 23.0044C19.8126 23.0359 19.3425 23.0347 18.7996 23.0347H5.19995C4.65718 23.0347 4.18784 23.0359 3.80249 23.0044C3.40498 22.9719 3.00596 22.9003 2.62183 22.7046C2.05077 22.4136 1.58662 21.9485 1.29565 21.3775C1.10005 20.9934 1.02832 20.5952 0.99585 20.1978C0.964369 19.8124 0.964599 19.3431 0.9646 18.8003V18.1997C0.964599 17.6569 0.964379 17.1876 0.99585 16.8023C1.02833 16.4048 1.09993 16.0057 1.29565 15.6216C1.58662 15.0507 2.05091 14.5864 2.62183 14.2954C3.00596 14.0997 3.40498 14.0281 3.80249 13.9956C4.18784 13.9642 4.65717 13.9654 5.19995 13.9654H10.9646V8.99953C10.9648 8.42818 11.4284 7.96547 11.9998 7.96535C12.5712 7.96535 13.0347 8.42811 13.0349 8.99953V13.9654H18.7996C19.3425 13.9654 19.8126 13.9641 20.198 13.9956C20.5954 14.0281 20.9937 14.0998 21.3777 14.2954C21.9486 14.5863 22.4129 15.0508 22.7039 15.6216C22.8996 16.0057 22.9722 16.4048 23.0046 16.8023C23.0361 17.1876 23.0349 17.657 23.0349 18.1997V18.8003Z"/></svg>