<svg xmlns="http://www.w3.org/2000/svg" width="24" height="24" fill="none" viewBox="0 0 24 24"><path fill="currentColor" d="M8 18.9648C8.57161 18.9648 9.03516 19.4284 9.03516 20C9.03516 20.5716 8.57161 21.0352 8 21.0352H5.5C4.92839 21.0352 4.46484 20.5716 4.46484 20C4.46484 19.4284 4.92839 18.9648 5.5 18.9648H8ZM20.9648 7.2002C20.9648 6.62309 20.9644 6.25228 20.9414 5.9707C20.9194 5.7012 20.8816 5.60521 20.8594 5.56152C20.7669 5.38032 20.6197 5.23308 20.4385 5.14062C20.3948 5.11837 20.2988 5.08061 20.0293 5.05859C19.7477 5.03559 19.3769 5.03516 18.7998 5.03516H15.2002C14.6231 5.03516 14.2523 5.03559 13.9707 5.05859C13.7012 5.08061 13.6052 5.11837 13.5615 5.14062C13.3803 5.23308 13.2331 5.38033 13.1406 5.56152C13.1184 5.60521 13.0806 5.7012 13.0586 5.9707C13.0356 6.25228 13.0352 6.62309 13.0352 7.2002V16.7998C13.0352 17.3769 13.0356 17.7477 13.0586 18.0293C13.0806 18.2988 13.1184 18.3948 13.1406 18.4385C13.2331 18.6197 13.3803 18.7669 13.5615 18.8594C13.6052 18.8816 13.7012 18.9194 13.9707 18.9414C14.2523 18.9644 14.6231 18.9648 15.2002 18.9648H18.7998C19.3769 18.9648 19.7477 18.9644 20.0293 18.9414C20.2988 18.9194 20.3948 18.8816 20.4385 18.8594C20.6197 18.7669 20.7669 18.6197 20.8594 18.4385C20.8816 18.3948 20.9194 18.2988 20.9414 18.0293C20.9644 17.7477 20.9648 17.3769 20.9648 16.7998V7.2002ZM0.964844 12.7998V9.2002C0.964844 8.65722 0.964603 8.18718 0.996094 7.80176C1.02859 7.40438 1.10024 7.00608 1.2959 6.62207C1.58686 6.05107 2.05107 5.58686 2.62207 5.2959C3.00608 5.10024 3.40438 5.02859 3.80176 4.99609C4.18718 4.9646 4.65722 4.96484 5.2002 4.96484H8C8.57161 4.96484 9.03516 5.42839 9.03516 6C9.03516 6.57161 8.57161 7.03516 8 7.03516H5.2002C4.62309 7.03516 4.25228 7.03559 3.9707 7.05859C3.7012 7.08061 3.60521 7.11837 3.56152 7.14062C3.38033 7.23308 3.23308 7.38033 3.14062 7.56152C3.11837 7.60521 3.08061 7.7012 3.05859 7.9707C3.03559 8.25228 3.03516 8.62309 3.03516 9.2002V12.7998C3.03516 13.3769 3.03559 13.7477 3.05859 14.0293C3.08061 14.2988 3.11837 14.3948 3.14062 14.4385C3.23308 14.6197 3.38033 14.7669 3.56152 14.8594C3.60521 14.8816 3.7012 14.9194 3.9707 14.9414C4.25228 14.9644 4.62309 14.9648 5.2002 14.9648H8C8.57161 14.9648 9.03516 15.4284 9.03516 16C9.03516 16.5716 8.57161 17.0352 8 17.0352H5.2002C4.65722 17.0352 4.18718 17.0354 3.80176 17.0039C3.40438 16.9714 3.00608 16.8998 2.62207 16.7041C2.05107 16.4131 1.58686 15.9489 1.2959 15.3779C1.10024 14.9939 1.02859 14.5956 0.996094 14.1982C0.964603 13.8128 0.964844 13.3428 0.964844 12.7998ZM17 14.9648C16.9807 14.9648 16.9648 14.9807 16.9648 15C16.9648 15.0193 16.9807 15.0352 17 15.0352C17.0097 15.0352 17.0181 15.0307 17.0244 15.0244L17.0352 15L17.0244 14.9756C17.0181 14.9693 17.0097 14.9648 17 14.9648ZM17.0098 7.96484C17.5814 7.96484 18.0449 8.42839 18.0449 9C18.0449 9.57161 17.5814 10.0352 17.0098 10.0352H17C16.4284 10.0352 15.9648 9.57161 15.9648 9C15.9648 8.42839 16.4284 7.96484 17 7.96484H17.0098ZM19.0352 15C19.0352 16.1239 18.1239 17.0352 17 17.0352C15.8761 17.0352 14.9648 16.1239 14.9648 15C14.9648 13.8761 15.8761 12.9648 17 12.9648C18.1239 12.9648 19.0352 13.8761 19.0352 15ZM23.0352 16.7998C23.0352 17.3428 23.0354 17.8128 23.0039 18.1982C22.9714 18.5956 22.8998 18.9939 22.7041 19.3779C22.4131 19.9489 21.9489 20.4131 21.3779 20.7041C20.9939 20.8998 20.5956 20.9714 20.1982 21.0039C19.8128 21.0354 19.3428 21.0352 18.7998 21.0352H15.2002C14.6572 21.0352 14.1872 21.0354 13.8018 21.0039C13.4044 20.9714 13.0061 20.8998 12.6221 20.7041C12.0511 20.4131 11.5869 19.9489 11.2959 19.3779C11.1002 18.9939 11.0286 18.5956 10.9961 18.1982C10.9646 17.8128 10.9648 17.3428 10.9648 16.7998V7.2002C10.9648 6.65722 10.9646 6.18718 10.9961 5.80176C11.0286 5.40438 11.1002 5.00608 11.2959 4.62207C11.5869 4.05107 12.0511 3.58686 12.6221 3.2959C13.0061 3.10024 13.4044 3.02859 13.8018 2.99609C14.1872 2.9646 14.6572 2.96484 15.2002 2.96484H18.7998C19.3428 2.96484 19.8128 2.9646 20.1982 2.99609C20.5956 3.02859 20.9939 3.10024 21.3779 3.2959C21.9489 3.58686 22.4131 4.05107 22.7041 4.62207C22.8998 5.00608 22.9714 5.40438 23.0039 5.80176C23.0354 6.18718 23.0352 6.65722 23.0352 7.2002V16.7998Z"/></svg>