<svg xmlns="http://www.w3.org/2000/svg" width="24" height="24" fill="none" viewBox="0 0 24 24"><path fill="currentColor" d="M16 19.9648C16.5716 19.9648 17.0352 20.4284 17.0352 21C17.0352 21.5716 16.5716 22.0352 16 22.0352H8C7.42839 22.0352 6.96484 21.5716 6.96484 21C6.96484 20.4284 7.42839 19.9648 8 19.9648H16ZM20.9648 7.7998C20.9648 6.94287 20.9643 6.36234 20.9277 5.91406C20.8921 5.47781 20.8277 5.25807 20.751 5.10742C20.5626 4.73794 20.2621 4.43737 19.8926 4.24902C19.7419 4.17227 19.5222 4.10791 19.0859 4.07227C18.6377 4.03565 18.0571 4.03516 17.2002 4.03516H6.7998C5.94287 4.03516 5.36234 4.03565 4.91406 4.07227C4.47781 4.10791 4.25807 4.17227 4.10742 4.24902C3.73794 4.43737 3.43737 4.73794 3.24902 5.10742C3.17227 5.25807 3.10791 5.47781 3.07227 5.91406C3.03565 6.36234 3.03516 6.94287 3.03516 7.7998V12.9648H20.9648V7.7998ZM3.07227 15.0859C3.10791 15.5222 3.17227 15.7419 3.24902 15.8926C3.43737 16.2621 3.73794 16.5626 4.10742 16.751C4.25807 16.8277 4.47781 16.8921 4.91406 16.9277C5.36234 16.9643 5.94287 16.9648 6.7998 16.9648H17.2002C18.0571 16.9648 18.6377 16.9643 19.0859 16.9277C19.5222 16.8921 19.7419 16.8277 19.8926 16.751C20.2621 16.5626 20.5626 16.2621 20.751 15.8926C20.8277 15.7419 20.8921 15.5222 20.9277 15.0859C20.9291 15.0692 20.9294 15.0522 20.9307 15.0352H3.06934C3.0706 15.0522 3.0709 15.0692 3.07227 15.0859ZM23.0352 13.2002C23.0352 13.4579 23.0325 13.7016 23.0312 13.9316C23.0327 13.9543 23.0352 13.977 23.0352 14C23.0352 14.0277 23.0324 14.0549 23.0303 14.082C23.0264 14.524 23.0181 14.9138 22.9902 15.2549C22.9441 15.8191 22.8449 16.341 22.5947 16.832C22.2079 17.591 21.591 18.2079 20.832 18.5947C20.341 18.8449 19.8191 18.9441 19.2549 18.9902C18.7027 19.0353 18.0231 19.0352 17.2002 19.0352H6.7998C5.97689 19.0352 5.29725 19.0353 4.74512 18.9902C4.18095 18.9441 3.65899 18.8449 3.16797 18.5947C2.409 18.2079 1.79208 17.591 1.40527 16.832C1.15509 16.341 1.05588 15.8191 1.00977 15.2549C0.981902 14.9138 0.973566 14.524 0.969727 14.082C0.967598 14.0549 0.964844 14.0277 0.964844 14C0.964844 13.977 0.967272 13.9543 0.96875 13.9316C0.967472 13.7016 0.964844 13.4579 0.964844 13.2002V7.7998C0.964844 6.97689 0.964654 6.29725 1.00977 5.74512C1.05588 5.18095 1.15509 4.65899 1.40527 4.16797C1.79208 3.409 2.409 2.79208 3.16797 2.40527C3.65899 2.15509 4.18095 2.05588 4.74512 2.00977C5.29725 1.96465 5.97689 1.96484 6.7998 1.96484H17.2002C18.0231 1.96484 18.7027 1.96465 19.2549 2.00977C19.8191 2.05588 20.341 2.15509 20.832 2.40527C21.591 2.79208 22.2079 3.409 22.5947 4.16797C22.8449 4.65899 22.9441 5.18095 22.9902 5.74512C23.0353 6.29725 23.0352 6.97689 23.0352 7.7998V13.2002Z"/></svg>