<svg xmlns="http://www.w3.org/2000/svg" width="24" height="24" fill="none" viewBox="0 0 24 24"><path fill="currentColor" d="M5.96484 9.00027C5.96486 7.32828 6.41965 5.76291 7.21094 4.42019C4.70147 6.00921 3.03516 8.81041 3.03516 12.0003C3.03524 16.9514 7.04882 20.9651 12 20.9651C15.1892 20.9651 17.9889 19.2989 19.5781 16.7903C18.2358 17.5809 16.6712 18.0354 15 18.0354C10.0101 18.0354 5.96484 13.9902 5.96484 9.00027ZM8.03516 9.00027C8.03516 12.8469 11.1533 15.9651 15 15.9651C17.5924 15.9651 19.8554 14.5491 21.0557 12.4436C21.2973 12.0202 21.8017 11.8231 22.2666 11.97C22.7315 12.1171 23.0312 12.5685 22.9854 13.054C22.4539 18.6544 17.739 23.0354 12 23.0354C5.90559 23.0354 0.964928 18.0947 0.964844 12.0003C0.964844 6.26104 5.34559 1.5461 10.9463 1.01492C11.4318 0.968884 11.8841 1.2678 12.0312 1.73269C12.1783 2.19777 11.9804 2.70306 11.5566 2.9446C9.451 4.14486 8.03519 6.4078 8.03516 9.00027Z"/></svg>