<svg xmlns="http://www.w3.org/2000/svg" width="24" height="24" fill="none" viewBox="0 0 24 24"><g clip-path="url(#a)"><path fill="currentColor" d="M5.72559 9.62207C5.72563 8.09541 6.12177 6.66167 6.81543 5.41699C4.53682 6.93876 3.03516 9.53301 3.03516 12.4785C3.03516 17.1655 6.83452 20.9648 11.5215 20.9648C14.4663 20.9648 17.0591 19.4633 18.5811 17.1855C17.3368 17.8785 15.9039 18.2744 14.3779 18.2744C9.59946 18.2744 5.72559 14.4005 5.72559 9.62207ZM18 0.964844C18.392 0.964844 18.7505 1.18647 18.9258 1.53711L19.5439 2.77246C19.8267 3.33803 19.9108 3.49758 20.0127 3.62988C20.1158 3.7636 20.2364 3.88423 20.3701 3.9873C20.5024 4.08921 20.662 4.17327 21.2275 4.45605L22.4629 5.07422C22.8135 5.24954 23.0352 5.60797 23.0352 6C23.0352 6.39203 22.8135 6.75046 22.4629 6.92578L21.2275 7.54395C20.662 7.82673 20.5024 7.91079 20.3701 8.0127C20.2364 8.11577 20.1158 8.2364 20.0127 8.37012C19.9108 8.50242 19.8267 8.66197 19.5439 9.22754L18.9258 10.4629C18.7505 10.8135 18.392 11.0352 18 11.0352C17.608 11.0352 17.2495 10.8135 17.0742 10.4629L16.4561 9.22754C16.1733 8.66198 16.0892 8.50242 15.9873 8.37012C15.8842 8.2364 15.7636 8.11577 15.6299 8.0127C15.4976 7.91079 15.338 7.82673 14.7725 7.54395L13.5371 6.92578C13.1865 6.75046 12.9648 6.39203 12.9648 6C12.9648 5.60797 13.1865 5.24954 13.5371 5.07422L14.7725 4.45605C15.338 4.17327 15.4976 4.08921 15.6299 3.9873C15.7636 3.88423 15.8842 3.7636 15.9873 3.62988C16.0892 3.49758 16.1733 3.33802 16.4561 2.77246L17.0742 1.53711L17.1484 1.41211C17.3398 1.13476 17.6569 0.964844 18 0.964844ZM18 4.29785C17.8812 4.5185 17.7651 4.71305 17.626 4.89355C17.4143 5.16813 17.1681 5.41432 16.8936 5.62598C16.7131 5.7651 16.5185 5.88117 16.2979 6C16.5185 6.11883 16.7131 6.2349 16.8936 6.37402C17.1681 6.58567 17.4143 6.83187 17.626 7.10645C17.7649 7.28674 17.8813 7.48084 18 7.70117C18.1187 7.48084 18.2351 7.28674 18.374 7.10645C18.5857 6.83187 18.8319 6.58567 19.1064 6.37402C19.2867 6.23506 19.4808 6.1187 19.7012 6C19.4808 5.88131 19.2867 5.76494 19.1064 5.62598C18.8319 5.41433 18.5857 5.16813 18.374 4.89355C18.2349 4.71305 18.1188 4.5185 18 4.29785ZM7.7959 9.62207C7.7959 13.2573 10.7427 16.2041 14.3779 16.2041C16.8276 16.2041 18.9661 14.8667 20.1006 12.877C20.3422 12.4532 20.8474 12.2552 21.3125 12.4023C21.7774 12.5495 22.0763 13.0018 22.0303 13.4873C21.5217 18.8448 17.0116 23.0352 11.5215 23.0352C5.6913 23.0351 0.964844 18.3087 0.964844 12.4785C0.964856 6.98811 5.15573 2.47781 10.5137 1.96973C10.9992 1.92369 11.4515 2.22259 11.5986 2.6875C11.7457 3.15258 11.5478 3.65787 11.124 3.89941C9.13395 5.03374 7.79599 7.17221 7.7959 9.62207Z"/></g><defs><clipPath id="a"><path fill="#fff" d="M0 0H24V24H0z"/></clipPath></defs></svg>