<svg xmlns="http://www.w3.org/2000/svg" width="24" height="24" fill="none" viewBox="0 0 24 24"><g clip-path="url(#a)"><path fill="currentColor" d="M6.19629 6.30653C6.19629 5.6398 6.25312 4.98582 6.3623 4.3495C4.32591 6.07939 3.03516 8.65871 3.03516 11.538C3.03537 16.7442 7.25567 20.9645 12.4619 20.9647C15.3412 20.9647 17.9195 19.6731 19.6494 17.6366C19.0133 17.7457 18.3598 17.8036 17.6934 17.8036C11.3437 17.8035 6.19635 12.6562 6.19629 6.30653ZM8.2666 6.30653C8.26666 11.513 12.4869 15.7332 17.6934 15.7333C19.0785 15.7333 20.3913 15.4357 21.5732 14.9013C21.9656 14.7238 22.4269 14.8078 22.7314 15.1122C23.0359 15.4167 23.1207 15.878 22.9434 16.2704C21.1404 20.2572 17.1262 23.035 12.4619 23.035C6.11244 23.0348 0.965057 17.8875 0.964844 11.538C0.964844 6.87365 3.74265 2.85954 7.72949 1.05653C8.12187 0.879223 8.58321 0.963962 8.8877 1.26845C9.19206 1.57301 9.27606 2.03431 9.09863 2.42665C8.56415 3.60861 8.2666 4.92143 8.2666 6.30653Z"/></g><defs><clipPath id="a"><path fill="#fff" d="M0 0H24V24H0z"/></clipPath></defs></svg>