<svg xmlns="http://www.w3.org/2000/svg" width="24" height="24" fill="none" viewBox="0 0 24 24"><g clip-path="url(#a)"><path fill="currentColor" d="M5.96484 12C5.96484 8.09375 8.1979 4.71071 11.4561 3.05273C6.75815 3.33395 3.03516 7.23144 3.03516 12C3.03516 16.7685 6.75818 20.665 11.4561 20.9463C8.19811 19.2882 5.96484 15.9061 5.96484 12ZM19.3799 5.17285C19.8367 4.82949 20.4856 4.92123 20.8291 5.37793C23.771 9.29118 23.7702 14.7114 20.8271 18.624C20.4835 19.0808 19.8347 19.1727 19.3779 18.8291C18.9211 18.4855 18.8293 17.8367 19.1729 17.3799C21.5617 14.2041 21.5626 9.79844 19.1748 6.62207C18.8313 6.16517 18.923 5.51634 19.3799 5.17285ZM8.03516 12C8.03516 16.3989 11.6011 19.9648 16 19.9648C16.1129 19.9648 16.2252 19.9626 16.3369 19.958C16.8264 19.9377 17.2636 20.2633 17.3838 20.7383C17.5039 21.2132 17.2743 21.707 16.834 21.9219C15.3729 22.6349 13.7317 23.0352 12 23.0352C5.90554 23.0352 0.964844 18.0945 0.964844 12C0.964844 5.90554 5.90554 0.964844 12 0.964844C13.7318 0.964844 15.3729 1.36507 16.834 2.07812C17.2743 2.293 17.5039 2.78677 17.3838 3.26172C17.2636 3.73668 16.8264 4.06234 16.3369 4.04199C16.2252 4.03736 16.1129 4.03516 16 4.03516C11.6011 4.03516 8.03516 7.60105 8.03516 12Z"/></g><defs><clipPath id="a"><path fill="#fff" d="M0 0H24V24H0z"/></clipPath></defs></svg>