<svg xmlns="http://www.w3.org/2000/svg" width="24" height="24" fill="none" viewBox="0 0 24 24"><path fill="currentColor" d="M17.9648 9C17.9648 5.70562 15.2944 3.03516 12 3.03516C8.70562 3.03516 6.03516 5.70562 6.03516 9V15C6.03516 18.2944 8.70562 20.9648 12 20.9648C15.2944 20.9648 17.9648 18.2944 17.9648 15V9ZM10.9648 9V6C10.9648 5.42839 11.4284 4.96484 12 4.96484C12.5716 4.96484 13.0352 5.42839 13.0352 6V9C13.0352 9.57161 12.5716 10.0352 12 10.0352C11.4284 10.0352 10.9648 9.57161 10.9648 9ZM20.0352 15C20.0352 19.4376 16.4376 23.0352 12 23.0352C7.56239 23.0352 3.96484 19.4376 3.96484 15V9C3.96484 4.56239 7.56239 0.964844 12 0.964844C16.4376 0.964844 20.0352 4.56239 20.0352 9V15Z"/></svg>