<svg xmlns="http://www.w3.org/2000/svg" width="24" height="24" fill="none" viewBox="0 0 24 24"><g clip-path="url(#a)"><path fill="currentColor" d="M11.3466 1.19738C11.7531 0.865704 12.3524 0.889695 12.7314 1.26866L15.7314 4.26867C16.1356 4.67286 16.1356 5.32736 15.7314 5.73156C15.3272 6.13575 14.6727 6.13575 14.2685 5.73156L13.0351 4.49816V10.965H19.5019L18.2685 9.73156C17.8643 9.32736 17.8643 8.67286 18.2685 8.26866C18.6727 7.86447 19.3272 7.86447 19.7314 8.26866L22.7314 11.2687C23.1356 11.6729 23.1356 12.3274 22.7314 12.7316L19.7314 15.7316C19.3272 16.1357 18.6727 16.1357 18.2685 15.7316C17.8643 15.3274 17.8643 14.6729 18.2685 14.2687L19.5019 13.0353H13.0351V19.5021L14.2685 18.2687C14.6727 17.8645 15.3272 17.8645 15.7314 18.2687C16.1356 18.6729 16.1356 19.3274 15.7314 19.7316L12.7314 22.7316C12.3272 23.1357 11.6727 23.1357 11.2685 22.7316L8.26848 19.7316C7.86428 19.3274 7.86428 18.6729 8.26848 18.2687C8.67267 17.8645 9.32717 17.8645 9.73137 18.2687L10.9648 19.5021V13.0353H4.49797L5.73137 14.2687C6.13556 14.6729 6.13556 15.3274 5.73137 15.7316C5.32717 16.1357 4.67267 16.1357 4.26848 15.7316L1.26848 12.7316C0.864284 12.3274 0.864284 11.6729 1.26848 11.2687L4.26848 8.26866C4.67267 7.86447 5.32717 7.86447 5.73137 8.26866C6.13556 8.67286 6.13556 9.32736 5.73137 9.73156L4.49797 10.965H10.9648V4.49816L9.73137 5.73156C9.32717 6.13575 8.67267 6.13575 8.26848 5.73156C7.86428 5.32736 7.86428 4.67286 8.26848 4.26867L11.2685 1.26866L11.3466 1.19738Z"/></g><defs><clipPath id="a"><path fill="#fff" d="M0 0H24V24H0z"/></clipPath></defs></svg>