<svg xmlns="http://www.w3.org/2000/svg" width="24" height="24" fill="none" viewBox="0 0 24 24"><path fill="currentColor" d="M10.9648 18C10.9648 16.9148 10.0852 16.0352 9 16.0352C7.91477 16.0352 7.03517 16.9148 7.03516 18C7.03516 19.0853 7.91476 19.9649 9 19.9649C10.0852 19.9649 10.9648 19.0853 10.9648 18ZM13.0293 18.208C12.921 20.3398 11.1587 22.0352 9 22.0352C6.77153 22.0352 4.96484 20.2285 4.96484 18C4.96486 15.7716 6.77154 13.9649 9 13.9649C9.71343 13.9649 10.3833 14.1507 10.9648 14.4756V5.5889C10.9648 5.18054 10.9643 4.80297 10.9922 4.49808C11.0199 4.19479 11.0859 3.80439 11.332 3.45218C11.6528 2.99358 12.1485 2.68641 12.7021 2.60452L12.8594 2.5889C13.2209 2.57029 13.5426 2.67155 13.791 2.76859C14.0761 2.87999 14.4132 3.04991 14.7783 3.23245L18.4629 5.07425C18.9742 5.32988 19.1814 5.95166 18.9258 6.46292C18.6701 6.97419 18.0484 7.18145 17.5371 6.92581L13.8525 5.08402C13.4628 4.88915 13.2272 4.77272 13.0527 4.70316C13.0369 4.89036 13.0352 5.15304 13.0352 5.5889V18L13.0293 18.208Z"/></svg>