<svg xmlns="http://www.w3.org/2000/svg" width="24" height="24" fill="none" viewBox="0 0 24 24"><path fill="currentColor" d="M13.4648 18C13.4648 16.9148 12.5852 16.0352 11.5 16.0352C10.4148 16.0352 9.53517 16.9148 9.53516 18C9.53516 19.0853 10.4148 19.9649 11.5 19.9649C12.5852 19.9649 13.4648 19.0853 13.4648 18ZM5.46484 10V8.03519H3.5C2.92839 8.03519 2.46484 7.57165 2.46484 7.00003C2.46486 6.42843 2.92839 5.96488 3.5 5.96488H5.46484V4.00003C5.46486 3.42843 5.92839 2.96488 6.5 2.96488C7.07161 2.96488 7.53514 3.42843 7.53516 4.00003V5.96488H9.5C10.0716 5.96488 10.5351 6.42843 10.5352 7.00003C10.5352 7.57165 10.0716 8.03519 9.5 8.03519H7.53516V10C7.53516 10.5716 7.07161 11.0352 6.5 11.0352C5.92839 11.0352 5.46484 10.5716 5.46484 10ZM15.5293 18.208C15.421 20.3398 13.6587 22.0352 11.5 22.0352C9.27153 22.0352 7.46484 20.2285 7.46484 18C7.46486 15.7716 9.27154 13.9649 11.5 13.9649C12.2134 13.9649 12.8833 14.1507 13.4648 14.4756V5.5889C13.4648 5.18054 13.4643 4.80297 13.4922 4.49808C13.5199 4.19479 13.5859 3.80439 13.832 3.45218C14.1528 2.99358 14.6485 2.68641 15.2021 2.60452L15.3594 2.5889C15.7209 2.57029 16.0426 2.67155 16.291 2.76859C16.5761 2.87999 16.9132 3.04991 17.2783 3.23245L20.9629 5.07425C21.4742 5.32988 21.6814 5.95166 21.4258 6.46292C21.1701 6.97419 20.5484 7.18145 20.0371 6.92581L16.3525 5.08402C15.9628 4.88915 15.7272 4.77272 15.5527 4.70316C15.5369 4.89036 15.5352 5.15304 15.5352 5.5889V18L15.5293 18.208Z"/></svg>