<svg xmlns="http://www.w3.org/2000/svg" width="24" height="24" fill="none" viewBox="0 0 24 24"><path fill="currentColor" d="M7.96484 18C7.96484 16.9148 7.08524 16.0352 6 16.0352C4.91476 16.0352 4.03516 16.9148 4.03516 18C4.03518 19.0853 4.91477 19.9649 6 19.9649C7.08523 19.9649 7.96482 19.0853 7.96484 18ZM19.9648 16C19.9648 14.9148 19.0852 14.0352 18 14.0352C16.9148 14.0352 16.0352 14.9148 16.0352 16C16.0352 17.0853 16.9148 17.9649 18 17.9649C19.0852 17.9649 19.9648 17.0853 19.9648 16ZM22.0293 16.208C21.921 18.3398 20.1587 20.0352 18 20.0352C15.7715 20.0352 13.9649 18.2285 13.9648 16C13.9648 13.7716 15.7715 11.9649 18 11.9649C18.7134 11.9649 19.3833 12.1507 19.9648 12.4756V4.88871C19.9648 4.55957 19.9626 4.37052 19.9521 4.23539C19.8172 4.24737 19.6302 4.27717 19.3066 4.33109L10.5068 5.79789C10.2672 5.83783 10.1353 5.86091 10.042 5.88285C10.0357 5.97855 10.0352 6.1126 10.0352 6.35551V18L10.0293 18.208C9.92101 20.3398 8.15869 22.0352 6 22.0352C3.77154 22.0352 1.96486 20.2285 1.96484 18C1.96484 15.7716 3.77153 13.9649 6 13.9649C6.71345 13.9649 7.38333 14.1507 7.96484 14.4756V6.35551C7.96484 6.1303 7.96393 5.90381 7.97852 5.71098C7.99409 5.50522 8.03148 5.26354 8.14355 5.01371L8.20703 4.88578C8.36511 4.59094 8.59325 4.33845 8.87305 4.15238C9.10094 4.00084 9.33287 3.9252 9.5332 3.87602C9.72101 3.82993 9.94485 3.79292 10.167 3.7559L18.9668 2.29008C19.269 2.23971 19.5611 2.18943 19.8076 2.16996C20.0318 2.15227 20.3019 2.15084 20.5859 2.23246L20.709 2.2725L20.8721 2.34184C21.1923 2.49373 21.4674 2.72674 21.6699 3.01762L21.7656 3.16801L21.8252 3.28227C21.9523 3.54889 21.9952 3.81515 22.0146 4.0391C22.036 4.28552 22.0352 4.58224 22.0352 4.88871V16L22.0293 16.208Z"/></svg>