<svg xmlns="http://www.w3.org/2000/svg" width="24" height="24" fill="none" viewBox="0 0 24 24"><path fill="currentColor" d="M11.4756 1.80037C11.8119 1.67919 12.1804 1.67916 12.5166 1.80037L12.6817 1.87166L12.8164 1.94979C13.1122 2.14457 13.2736 2.41981 13.3545 2.56697C13.4604 2.75952 13.5692 3.00928 13.6768 3.25447L20.958 19.856C21.0782 20.1299 21.1974 20.3988 21.2725 20.6207C21.3343 20.8033 21.4624 21.2059 21.3252 21.6402C21.1743 22.1175 20.7997 22.4918 20.3223 22.6422C19.8877 22.7789 19.4853 22.6495 19.3028 22.5875C19.081 22.5122 18.8119 22.3935 18.5381 22.273L11.9961 19.3931L5.45413 22.273C5.18042 22.3935 4.91124 22.5122 4.68948 22.5875C4.507 22.6495 4.10454 22.7789 3.66995 22.6422C3.19251 22.4918 2.81793 22.1175 2.66702 21.6402C2.52984 21.2059 2.65799 20.8033 2.71975 20.6207C2.79481 20.3988 2.91408 20.1299 3.03421 19.856L10.3155 3.25447C10.423 3.00929 10.5319 2.75952 10.6377 2.56697C10.7302 2.39877 10.9275 2.06293 11.3106 1.87166L11.4756 1.80037ZM5.17093 20.1353L11.2569 17.4576C11.3275 17.4265 11.5242 17.3321 11.7432 17.2955L11.8692 17.2799C11.9958 17.2694 12.1234 17.2745 12.2491 17.2955C12.4681 17.3321 12.6647 17.4265 12.7354 17.4576L18.8203 20.1353L11.9961 4.57479L5.17093 20.1353Z"/></svg>