<svg xmlns="http://www.w3.org/2000/svg" width="24" height="24" fill="none" viewBox="0 0 24 24"><path fill="currentColor" d="M20.6377 1.44039C20.8219 1.38688 21.1991 1.28905 21.6054 1.42476C22.0629 1.57758 22.4222 1.93614 22.5752 2.39351C22.711 2.80013 22.6121 3.17811 22.5586 3.36226C22.4973 3.57313 22.398 3.82592 22.3008 4.07515L15.7099 20.9638C15.6013 21.2422 15.4953 21.5167 15.3916 21.7265C15.306 21.8995 15.1122 22.2753 14.708 22.4853C14.2639 22.716 13.7348 22.7155 13.291 22.4843C12.8869 22.2738 12.6937 21.8975 12.6084 21.7246C12.5048 21.5145 12.3994 21.2396 12.291 20.9609L9.69919 14.2988L3.03806 11.7089C2.75952 11.6006 2.48535 11.4951 2.27537 11.3916C2.1025 11.3063 1.72623 11.113 1.5156 10.7089C1.28436 10.2651 1.28401 9.73608 1.51462 9.29195L1.60056 9.14937C1.8155 8.84042 2.12215 8.68316 2.27341 8.60836C2.48336 8.50455 2.75752 8.39774 3.03611 8.28902L19.9238 1.69918C20.1732 1.60184 20.4267 1.50168 20.6377 1.44039ZM4.35056 9.998L10.5469 12.4082C10.601 12.4292 10.7299 12.4749 10.8672 12.5507L11.0049 12.6367L11.1054 12.7148C11.1702 12.7696 11.2303 12.8297 11.2851 12.8945L11.3633 12.9951L11.4492 13.1328C11.5251 13.2701 11.5708 13.3991 11.5918 13.4531L14.001 19.6484L20.1767 3.82222L4.35056 9.998ZM9.8906 14.375H9.89158H9.8906Z"/></svg>