<svg xmlns="http://www.w3.org/2000/svg" width="24" height="24" fill="none" viewBox="0 0 24 24"><g clip-path="url(#a)"><path fill="currentColor" d="M1.26854 1.26848C1.67273 0.864284 2.32724 0.864284 2.73143 1.26848L22.7314 21.2685C23.1356 21.6727 23.1356 22.3272 22.7314 22.7314C22.3272 23.1356 21.6727 23.1356 21.2685 22.7314L20.8681 22.331C20.7107 22.4686 20.5274 22.5779 20.3222 22.6425C19.8875 22.7794 19.4843 22.6498 19.3017 22.5878C19.08 22.5125 18.8117 22.3928 18.5381 22.2724L11.9951 19.3935L5.45311 22.2724C5.17954 22.3928 4.91114 22.5125 4.68944 22.5878C4.5069 22.6498 4.10367 22.7794 3.66893 22.6425C3.19149 22.4921 2.81789 22.1178 2.66698 21.6405C2.52964 21.2061 2.65792 20.8037 2.71971 20.621C2.79476 20.3991 2.91404 20.1302 3.03416 19.8564L7.7158 9.17863L1.26854 2.73137C0.864345 2.32717 0.864345 1.67267 1.26854 1.26848ZM5.17186 20.1337L11.2568 17.4579C11.3277 17.4267 11.5234 17.3324 11.7422 17.2958L11.8681 17.2802C11.953 17.2731 12.0382 17.2731 12.123 17.2802L12.249 17.2958L12.4072 17.332C12.5579 17.3754 12.6813 17.4346 12.7344 17.4579L18.5556 20.0185L9.28709 10.7499L5.17186 20.1337ZM11.4756 1.8007C11.8116 1.67965 12.1796 1.67969 12.5156 1.8007L12.6816 1.87102L12.8164 1.94914C13.1124 2.14408 13.2736 2.42021 13.3545 2.5673C13.4603 2.75985 13.5682 3.00961 13.6758 3.2548L16.8486 10.4872C17.0782 11.0107 16.8399 11.6219 16.3164 11.8515C15.7931 12.0809 15.1828 11.8424 14.9531 11.3193L11.9951 4.57609L11.4189 5.89152C11.1893 6.41484 10.579 6.65318 10.0556 6.42375C9.53217 6.19415 9.29382 5.58297 9.52342 5.05949L10.3154 3.2548C10.423 3.00961 10.5308 2.75985 10.6367 2.5673C10.7291 2.39924 10.927 2.06246 11.3105 1.87102L11.4756 1.8007Z"/></g><defs><clipPath id="a"><path fill="#fff" d="M0 0H24V24H0z"/></clipPath></defs></svg>