<svg xmlns="http://www.w3.org/2000/svg" width="24" height="24" fill="none" viewBox="0 0 24 24"><path fill="currentColor" d="M18.9649 13.2001V12.9999C18.9649 12.4283 19.4285 11.9648 20.0001 11.9648C20.5717 11.9648 21.0353 12.4283 21.0353 12.9999V13.2001C21.0353 14.023 21.0354 14.7027 20.9903 15.2548C20.9442 15.819 20.845 16.3409 20.5948 16.832C20.208 17.5909 19.5911 18.2079 18.8321 18.5947C18.3411 18.8449 17.8191 18.9441 17.255 18.9902C16.7028 19.0353 16.0232 19.0351 15.2003 19.0351H13.6837C13.0183 19.0351 12.829 19.0399 12.6573 19.0751C12.4839 19.1107 12.3159 19.1694 12.1583 19.2499C12.0022 19.3297 11.8517 19.4446 11.3321 19.8603L8.94638 21.7685C8.75453 21.922 8.55542 22.0828 8.38095 22.1982C8.22246 22.303 7.90971 22.4945 7.50205 22.4951C7.03459 22.4956 6.59251 22.2823 6.30088 21.9169C6.04654 21.5983 5.99972 21.2352 5.98252 21.0458C5.9636 20.8376 5.96494 20.5815 5.96494 20.3359V19.0234C5.58605 19.0096 5.25762 18.9781 4.95615 18.8974C3.5637 18.5243 2.47574 17.4363 2.10263 16.0439C1.95635 15.4977 1.96494 14.8631 1.96494 13.9999V8.79974C1.96494 7.97683 1.96475 7.29719 2.00986 6.74506C2.05597 6.18089 2.15518 5.65893 2.40537 5.16791C2.79217 4.40894 3.4091 3.79202 4.16806 3.40521C4.65909 3.15502 5.18104 3.05582 5.74521 3.0097C6.29735 2.96459 6.97699 2.96478 7.7999 2.96478H11.0001C11.5717 2.96478 12.0353 3.42832 12.0353 3.99994C12.0353 4.57155 11.5717 5.0351 11.0001 5.0351H7.7999C6.94297 5.0351 6.36243 5.03559 5.91416 5.0722C5.47791 5.10785 5.25816 5.17221 5.10752 5.24896C4.73804 5.43731 4.43746 5.73788 4.24912 6.10736C4.17236 6.258 4.108 6.47775 4.07236 6.914C4.03575 7.36228 4.03525 7.94281 4.03525 8.79974V13.9999C4.03525 14.9965 4.04359 15.292 4.10166 15.5087C4.28337 16.1868 4.81328 16.7167 5.49131 16.8984C5.70801 16.9564 6.00349 16.9648 7.00009 16.9648C7.57171 16.9648 8.03525 17.4283 8.03525 17.9999V19.8466L10.0392 18.2431C10.4938 17.8794 10.8305 17.6046 11.2169 17.4072C11.5406 17.2418 11.8852 17.1209 12.2413 17.0478C12.6665 16.9605 13.1012 16.9648 13.6837 16.9648H15.2003C16.0572 16.9648 16.6378 16.9643 17.086 16.9277C17.5223 16.892 17.742 16.8277 17.8927 16.7509C18.2622 16.5626 18.5627 16.262 18.7511 15.8925C18.8278 15.7419 18.8922 15.5221 18.9278 15.0859C18.9644 14.6376 18.9649 14.0571 18.9649 13.2001ZM15.1466 3.14642C16.7223 1.57066 19.2778 1.57066 20.8536 3.14642C22.4294 4.72219 22.4294 7.27769 20.8536 8.85345C19.2778 10.4292 16.7223 10.4292 15.1466 8.85345C13.5708 7.27769 13.5708 4.72219 15.1466 3.14642ZM19.3897 4.61029C18.6224 3.84291 17.3778 3.84291 16.6104 4.61029C15.8431 5.37767 15.8431 6.62221 16.6104 7.38959C17.3778 8.15697 18.6224 8.15697 19.3897 7.38959C20.1571 6.62221 20.1571 5.37767 19.3897 4.61029Z"/></svg>