<svg xmlns="http://www.w3.org/2000/svg" width="24" height="24" fill="none" viewBox="0 0 24 24"><path fill="currentColor" d="M1.96484 16.2001V8.79974C1.96484 7.97683 1.96465 7.29719 2.00977 6.74506C2.05588 6.18089 2.15509 5.65893 2.40527 5.16791C2.79208 4.40894 3.409 3.79202 4.16797 3.40521C4.65899 3.15502 5.18095 3.05582 5.74512 3.0097C6.29725 2.96459 6.97689 2.96478 7.7998 2.96478H11C11.5716 2.96478 12.0352 3.42832 12.0352 3.99994C12.0352 4.57155 11.5716 5.0351 11 5.0351H7.7998C6.94287 5.0351 6.36234 5.03559 5.91406 5.0722C5.47781 5.10785 5.25807 5.17221 5.10742 5.24896C4.73794 5.43731 4.43737 5.73788 4.24902 6.10736C4.17227 6.258 4.10791 6.47775 4.07227 6.914C4.03565 7.36228 4.03516 7.94281 4.03516 8.79974V16.2001C4.03516 17.0571 4.03565 17.6376 4.07227 18.0859C4.10791 18.5221 4.17227 18.7419 4.24902 18.8925C4.43737 19.262 4.73794 19.5626 5.10742 19.7509C5.25806 19.8277 5.47781 19.892 5.91406 19.9277C6.36234 19.9643 6.94287 19.9648 7.7998 19.9648H15.2002C16.0571 19.9648 16.6377 19.9643 17.0859 19.9277C17.5222 19.892 17.7419 19.8277 17.8926 19.7509C18.2621 19.5626 18.5626 19.262 18.751 18.8925C18.8277 18.7419 18.8921 18.5221 18.9277 18.0859C18.9643 17.6376 18.9648 17.0571 18.9648 16.2001V12.9999C18.9648 12.4283 19.4284 11.9648 20 11.9648C20.5716 11.9648 21.0352 12.4283 21.0352 12.9999V16.2001C21.0352 17.023 21.0353 17.7027 20.9902 18.2548C20.9441 18.819 20.8449 19.3409 20.5947 19.832C20.2079 20.5909 19.591 21.2079 18.832 21.5947C18.341 21.8449 17.8191 21.9441 17.2549 21.9902C16.7027 22.0353 16.0231 22.0351 15.2002 22.0351H7.7998C6.97689 22.0351 6.29725 22.0353 5.74512 21.9902C5.18095 21.9441 4.65899 21.8449 4.16797 21.5947C3.409 21.2079 2.79208 20.5909 2.40527 19.832C2.15509 19.3409 2.05588 18.819 2.00977 18.2548C1.96465 17.7027 1.96484 17.023 1.96484 16.2001ZM13 15.9648C13.5716 15.9648 14.0352 16.4283 14.0352 16.9999C14.0352 17.5716 13.5716 18.0351 13 18.0351H7C6.42839 18.0351 5.96484 17.5716 5.96484 16.9999C5.96484 16.4283 6.42839 15.9648 7 15.9648H13ZM15 11.9648C15.5716 11.9648 16.0352 12.4283 16.0352 12.9999C16.0352 13.5716 15.5716 14.0351 15 14.0351H7C6.42839 14.0351 5.96484 13.5716 5.96484 12.9999C5.96484 12.4283 6.42839 11.9648 7 11.9648H15ZM15.1465 3.14642C16.7222 1.57066 19.2778 1.57066 20.8535 3.14642C22.4293 4.72219 22.4293 7.27769 20.8535 8.85345C19.2778 10.4292 16.7222 10.4292 15.1465 8.85345C13.5707 7.27769 13.5707 4.72219 15.1465 3.14642ZM19.3896 4.61029C18.6223 3.84291 17.3777 3.84291 16.6104 4.61029C15.843 5.37767 15.843 6.62221 16.6104 7.38959C17.3777 8.15697 18.6223 8.15697 19.3896 7.38959C20.157 6.62221 20.157 5.37767 19.3896 4.61029Z"/></svg>