<svg xmlns="http://www.w3.org/2000/svg" width="24" height="24" fill="none" viewBox="0 0 24 24"><path fill="currentColor" d="M20.9648 18.0002C20.9648 16.915 20.0852 16.0344 19 16.0344C17.9148 16.0344 17.0352 16.915 17.0352 18.0002C17.0354 19.0853 17.9149 19.9651 19 19.9651C20.0851 19.9651 20.9646 19.0853 20.9648 18.0002ZM19.9648 12.0002V8.75802L13.0352 12.6086V20.4104C13.3859 20.4226 13.7214 20.6125 13.9043 20.9416C14.1818 21.4412 14.0024 22.0712 13.5029 22.3488L13.2793 22.4729C13.0544 22.5978 12.7523 22.7784 12.4102 22.8488C12.1397 22.9045 11.8603 22.9045 11.5898 22.8488C11.2477 22.7784 10.9456 22.5978 10.7207 22.4729L3.32031 18.3615C3.08309 18.2298 2.75261 18.0601 2.50391 17.7902C2.3076 17.5772 2.15827 17.3251 2.06738 17.05C1.98098 16.7885 1.96674 16.5139 1.96484 16.2785V7.72091C1.96675 7.48557 1.981 7.21086 2.06738 6.94943L2.14648 6.74826C2.23583 6.5511 2.35659 6.36905 2.50391 6.20919L2.60059 6.11251C2.83375 5.89751 3.11277 5.75321 3.32031 5.6379L10.7207 1.52658C10.9456 1.40161 11.2477 1.22101 11.5898 1.1506C11.7928 1.10886 12.0007 1.09845 12.2061 1.11935L12.4102 1.1506L12.5361 1.18185C12.8264 1.26528 13.0824 1.41719 13.2793 1.52658L20.6797 5.6379C20.8872 5.75321 21.1663 5.89751 21.3994 6.11251L21.4961 6.20919L21.6348 6.37619C21.7207 6.49208 21.794 6.61684 21.8535 6.74826L21.9326 6.94943L21.9697 7.08126C22.0232 7.30154 22.0336 7.52477 22.0352 7.72091V12.0002C22.0349 12.5716 21.5715 13.0344 21 13.0344C20.4285 13.0344 19.9651 12.5716 19.9648 12.0002ZM5.13086 6.99923L12 10.8147L14.3682 9.49923L7.49902 5.6838L5.13086 6.99923ZM11.7256 3.33615L9.63086 4.49923L16.5 8.31564L18.8682 6.99923L12.2744 3.33615C12.1317 3.25685 12.0556 3.21511 12 3.18771C11.9444 3.21511 11.8683 3.25685 11.7256 3.33615ZM23.0352 18.0002C23.0351 18.8682 22.7594 19.6712 22.293 20.3293L22.7314 20.7678C23.1356 21.172 23.1356 21.8275 22.7314 22.2317C22.3273 22.6356 21.6727 22.6356 21.2686 22.2317L20.6973 21.6604C20.1812 21.9 19.6065 22.0344 19 22.0344C16.7717 22.0344 14.9651 20.2285 14.9648 18.0002C14.9648 15.7717 16.7715 13.9651 19 13.9651C21.2285 13.9651 23.0352 15.7717 23.0352 18.0002ZM4.03809 16.3879C4.09384 16.4228 4.17395 16.4679 4.3252 16.552L10.9648 20.2404V12.6086L4.03516 8.75802V16.0588C4.03516 16.2304 4.03474 16.3223 4.03809 16.3879Z"/></svg>