<svg xmlns="http://www.w3.org/2000/svg" width="24" height="24" fill="none" viewBox="0 0 24 24"><g clip-path="url(#a)"><path fill="currentColor" d="M14 20.9648C14.5714 20.9649 15.0351 21.4284 15.0351 21.9999C15.0351 22.5714 14.5714 23.0349 14 23.0351H1.99997C1.42836 23.0351 0.964817 22.5715 0.964817 21.9999C0.964817 21.4283 1.42836 20.9648 1.99997 20.9648H14ZM7.26755 1.26848C7.67174 0.864284 8.32723 0.864284 8.73142 1.26848L16.6006 9.13664C16.7864 9.32251 16.9703 9.50557 17.1123 9.67277C17.2621 9.84923 17.4244 10.0753 17.5205 10.371C17.6533 10.7797 17.6533 11.2201 17.5205 11.6288C17.4244 11.9246 17.2621 12.1506 17.1123 12.3271C16.9703 12.4943 16.7864 12.6773 16.6006 12.8632L11.9941 17.4687C11.6103 17.8525 11.2791 18.1852 10.9843 18.4355C10.6803 18.6936 10.3475 18.9243 9.93747 19.0575C9.32791 19.2556 8.67106 19.2556 8.0615 19.0575C7.65168 18.9243 7.31953 18.6935 7.0156 18.4355C6.72079 18.1852 6.3888 17.8526 6.00486 17.4687L2.53025 13.9941C2.14647 13.6103 1.81364 13.279 1.56345 12.9843C1.30541 12.6803 1.07457 12.3473 0.941379 11.9374C0.743499 11.3281 0.743499 10.6717 0.941379 10.0624C1.07457 9.6525 1.30541 9.31953 1.56345 9.01555C1.81364 8.72084 2.14647 8.38956 2.53025 8.00578L7.53611 2.99992L7.26755 2.73137C6.86381 2.32726 6.86381 1.67258 7.26755 1.26848ZM20.9355 15.8935C20.9065 15.8099 20.858 15.7026 20.7851 15.5732C20.6381 15.312 20.4287 15.0222 20.1982 14.7402C20.1324 14.6596 20.0639 14.5836 19.999 14.5087C19.9343 14.5834 19.8664 14.6598 19.8008 14.7402C19.5703 15.0222 19.3609 15.312 19.2138 15.5732C19.141 15.7025 19.0924 15.8099 19.0634 15.8935C19.0415 15.9568 19.0363 15.9908 19.0351 15.9999C19.0351 16.5329 19.467 16.9648 20 16.9648C20.5328 16.9646 20.9648 16.5328 20.9648 15.9999C20.9648 16.0121 20.9657 15.9803 20.9355 15.8935ZM3.99411 12.5312L7.46872 16.0058C7.87643 16.4135 8.13921 16.6746 8.35447 16.8573C8.55996 17.0318 8.65437 17.0735 8.70114 17.0888C8.89496 17.1518 9.10401 17.1518 9.29782 17.0888C9.34449 17.0736 9.43851 17.0322 9.6445 16.8573C9.85977 16.6746 10.1225 16.4135 10.5302 16.0058L14.5009 12.0351H3.5029C3.63827 12.1743 3.79934 12.3364 3.99411 12.5312ZM3.99411 9.46867C3.79934 9.66344 3.63827 9.82559 3.5029 9.96477H14.5009L8.999 4.46281L3.99411 9.46867ZM23.0351 15.9999C23.0351 17.676 21.676 19.0349 20 19.0351C18.3238 19.0351 16.9648 17.6761 16.9648 15.9999C16.9648 15.4516 17.1978 14.9347 17.4101 14.5575C17.6381 14.1526 17.9287 13.7605 18.1982 13.4306C18.4709 13.0969 18.7411 12.8039 18.9414 12.5956C19.042 12.491 19.1263 12.406 19.1865 12.3466C19.2165 12.317 19.2407 12.2938 19.2578 12.2773C19.2662 12.2691 19.2733 12.2625 19.2783 12.2577L19.2871 12.2489C19.6863 11.8706 20.3127 11.8706 20.7119 12.2489L20.7207 12.2577C20.7257 12.2625 20.7326 12.269 20.7412 12.2773C20.7583 12.2938 20.7825 12.317 20.8125 12.3466C20.8727 12.406 20.9578 12.4909 21.0586 12.5956C21.2588 12.8038 21.5282 13.097 21.8008 13.4306C22.0703 13.7605 22.3609 14.1526 22.5888 14.5575C22.8012 14.9347 23.0351 15.4515 23.0351 15.9999Z"/></g><defs><clipPath id="a"><path fill="#fff" d="M0 0H24V24H0z"/></clipPath></defs></svg>