<svg xmlns="http://www.w3.org/2000/svg" width="24" height="24" fill="none" viewBox="0 0 24 24"><path fill="currentColor" d="M9.76756 1.26848C10.1717 0.864284 10.8272 0.864284 11.2314 1.26848L21.0996 11.1366C21.2855 11.3226 21.4703 11.5055 21.6123 11.6728C21.7621 11.8492 21.9244 12.0753 22.0205 12.371C22.1533 12.7797 22.1533 13.2201 22.0205 13.6288C21.9244 13.9245 21.7621 14.1506 21.6123 14.3271C21.4703 14.4943 21.2855 14.6773 21.0996 14.8632L15.626 20.3378C15.044 20.9198 14.5639 21.4011 14.1416 21.7597C13.71 22.1261 13.2702 22.4243 12.7461 22.5946C11.9358 22.8579 11.0632 22.8579 10.2529 22.5946C9.72873 22.4243 9.28898 22.1261 8.8574 21.7597C8.43512 21.4012 7.95582 20.9196 7.374 20.3378L4.16209 17.1259C3.58014 16.544 3.09876 16.0639 2.74021 15.6415C2.37387 15.21 2.07458 14.7711 1.90427 14.247C1.64096 13.4366 1.64096 12.5633 1.90427 11.7529C2.07458 11.2287 2.37387 10.7899 2.74021 10.3583C3.09876 9.93597 3.58014 9.45589 4.16209 8.87395L10.0361 2.99992L9.76756 2.73137C9.36371 2.32724 9.36371 1.6726 9.76756 1.26848ZM4.10935 14.0351C4.16602 14.1134 4.23378 14.2021 4.31834 14.3017C4.60945 14.6446 5.01985 15.0559 5.62595 15.662L8.83689 18.8739C9.44299 19.48 9.85432 19.8904 10.1972 20.1816C10.5309 20.4648 10.7318 20.5737 10.8926 20.6259C11.2871 20.7541 11.7119 20.754 12.1064 20.6259C12.2672 20.5737 12.4681 20.4648 12.8017 20.1816C13.1447 19.8904 13.556 19.48 14.1621 18.8739L19.001 14.0351H4.10935ZM5.62595 10.3378C5.01985 10.9439 4.60945 11.3552 4.31834 11.6982C4.23378 11.7978 4.16602 11.8864 4.10935 11.9648H19.001L11.499 4.46281L5.62595 10.3378Z"/></svg>