<svg xmlns="http://www.w3.org/2000/svg" width="24" height="24" fill="none" viewBox="0 0 24 24"><g clip-path="url(#a)"><path fill="currentColor" d="M20.9648 12C20.9648 7.04877 16.9512 3.03516 12 3.03516C7.04877 3.03516 3.03516 7.04877 3.03516 12C3.03516 16.9512 7.04877 20.9648 12 20.9648C13.0852 20.9648 13.9648 20.0852 13.9648 19V18.5C13.9648 18.0686 13.9633 17.7527 14 17.4736C14.2384 15.663 15.663 14.2384 17.4736 14C17.7527 13.9633 18.0686 13.9648 18.5 13.9648H19C20.0852 13.9648 20.9648 13.0852 20.9648 12ZM7 11.9648C6.98067 11.9648 6.96484 11.9807 6.96484 12C6.96484 12.0193 6.98067 12.0352 7 12.0352C7.00967 12.0352 7.01808 12.0307 7.02441 12.0244L7.03516 12L7.02441 11.9756C7.01808 11.9693 7.00967 11.9648 7 11.9648ZM16 7.96484C15.9807 7.96484 15.9648 7.98067 15.9648 8C15.9648 8.01933 15.9807 8.03516 16 8.03516C16.0097 8.03516 16.0181 8.03075 16.0244 8.02441L16.0352 8L16.0244 7.97559C16.0181 7.96925 16.0097 7.96484 16 7.96484ZM10 6.96484C9.98067 6.96484 9.96484 6.98067 9.96484 7C9.96484 7.01933 9.98067 7.03516 10 7.03516C10.0097 7.03516 10.0181 7.03075 10.0244 7.02441L10.0352 7L10.0244 6.97559C10.0181 6.96925 10.0097 6.96484 10 6.96484ZM9.03516 12C9.03516 13.1239 8.1239 14.0352 7 14.0352C5.8761 14.0352 4.96484 13.1239 4.96484 12C4.96484 10.8761 5.8761 9.96484 7 9.96484C8.1239 9.96484 9.03516 10.8761 9.03516 12ZM23.0352 12C23.0352 14.2285 21.2285 16.0352 19 16.0352H18.5C18.0027 16.0352 17.8539 16.0372 17.7432 16.0518C16.8617 16.168 16.168 16.8617 16.0518 17.7432C16.0372 17.8539 16.0352 18.0027 16.0352 18.5V19C16.0352 21.2285 14.2285 23.0352 12 23.0352C5.90554 23.0352 0.964844 18.0945 0.964844 12C0.964844 5.90554 5.90554 0.964844 12 0.964844C18.0945 0.964844 23.0352 5.90554 23.0352 12ZM18.0352 8C18.0352 9.1239 17.1239 10.0352 16 10.0352C14.8761 10.0352 13.9648 9.1239 13.9648 8C13.9648 6.8761 14.8761 5.96484 16 5.96484C17.1239 5.96484 18.0352 6.8761 18.0352 8ZM12.0352 7C12.0352 8.1239 11.1239 9.03516 10 9.03516C8.8761 9.03516 7.96484 8.1239 7.96484 7C7.96484 5.8761 8.8761 4.96484 10 4.96484C11.1239 4.96484 12.0352 5.8761 12.0352 7Z"/></g><defs><clipPath id="a"><path fill="#fff" d="M0 0H24V24H0z"/></clipPath></defs></svg>