<svg xmlns="http://www.w3.org/2000/svg" width="24" height="24" fill="none" viewBox="0 0 24 24"><path fill="currentColor" d="M15.2686 15.2686C15.6727 14.8644 16.3273 14.8644 16.7314 15.2686C17.1356 15.6727 17.1356 16.3273 16.7314 16.7314L16.498 16.9648H18C18.5212 16.9648 19.0211 16.7582 19.3896 16.3896C19.7582 16.0211 19.9648 15.5212 19.9648 15C19.9648 14.4788 19.7582 13.9789 19.3896 13.6104C19.0211 13.2418 18.5212 13.0352 18 13.0352H3C2.42839 13.0352 1.96484 12.5716 1.96484 12C1.96484 11.4284 2.42839 10.9648 3 10.9648H18C19.0701 10.9648 20.0968 11.3898 20.8535 12.1465C21.6102 12.9032 22.0352 13.9299 22.0352 15C22.0352 16.0701 21.6102 17.0968 20.8535 17.8535C20.0968 18.6102 19.0701 19.0352 18 19.0352H16.498L16.7314 19.2686C17.1356 19.6727 17.1356 20.3273 16.7314 20.7314C16.3273 21.1356 15.6727 21.1356 15.2686 20.7314L13.2686 18.7314C12.8644 18.3273 12.8644 17.6727 13.2686 17.2686L15.2686 15.2686ZM10 16.9648C10.5716 16.9648 11.0352 17.4284 11.0352 18C11.0352 18.5716 10.5716 19.0352 10 19.0352H3C2.42839 19.0352 1.96484 18.5716 1.96484 18C1.96484 17.4284 2.42839 16.9648 3 16.9648H10ZM21 4.96484C21.5716 4.96484 22.0352 5.42839 22.0352 6C22.0352 6.57161 21.5716 7.03516 21 7.03516H3C2.42839 7.03516 1.96484 6.57161 1.96484 6C1.96484 5.42839 2.42839 4.96484 3 4.96484H21Z"/></svg>