<svg xmlns="http://www.w3.org/2000/svg" width="24" height="24" fill="none" viewBox="0 0 24 24"><path fill="currentColor" d="M5.99992 2.96484C6.27442 2.96484 6.53727 3.07445 6.73137 3.26855L9.73137 6.26855C10.1356 6.67275 10.1356 7.32725 9.73137 7.73145C9.32717 8.13564 8.67267 8.13564 8.26848 7.73145L7.03508 6.49805V17.502L8.26848 16.2686C8.67267 15.8644 9.32717 15.8644 9.73137 16.2686C10.1356 16.6727 10.1356 17.3273 9.73137 17.7314L6.73137 20.7314C6.53727 20.9255 6.27442 21.0352 5.99992 21.0352C5.72542 21.0352 5.46258 20.9255 5.26848 20.7314L2.26848 17.7314C1.86428 17.3273 1.86428 16.6727 2.26848 16.2686C2.67267 15.8644 3.32717 15.8644 3.73137 16.2686L4.96477 17.502V6.49805L3.73137 7.73145C3.32717 8.13564 2.67267 8.13564 2.26848 7.73145C1.86428 7.32725 1.86428 6.67275 2.26848 6.26855L5.26848 3.26855L5.34367 3.19922C5.52786 3.04826 5.75969 2.96484 5.99992 2.96484ZM20.9999 16.9648C21.5715 16.9648 22.0351 17.4284 22.0351 18C22.0351 18.5716 21.5715 19.0352 20.9999 19.0352H12.9999C12.4283 19.0352 11.9648 18.5716 11.9648 18C11.9648 17.4284 12.4283 16.9648 12.9999 16.9648H20.9999ZM20.9999 12.9648C21.5715 12.9648 22.0351 13.4284 22.0351 14C22.0351 14.5716 21.5715 15.0352 20.9999 15.0352H12.9999C12.4283 15.0352 11.9648 14.5716 11.9648 14C11.9648 13.4284 12.4283 12.9648 12.9999 12.9648H20.9999ZM20.9999 8.96484C21.5715 8.96484 22.0351 9.42839 22.0351 10C22.0351 10.5716 21.5715 11.0352 20.9999 11.0352H12.9999C12.4283 11.0352 11.9648 10.5716 11.9648 10C11.9648 9.42839 12.4283 8.96484 12.9999 8.96484H20.9999ZM20.9999 4.96484C21.5715 4.96484 22.0351 5.42839 22.0351 6C22.0351 6.57161 21.5715 7.03516 20.9999 7.03516H12.9999C12.4283 7.03516 11.9648 6.57161 11.9648 6C11.9648 5.42839 12.4283 4.96484 12.9999 4.96484H20.9999Z"/></svg>