<svg xmlns="http://www.w3.org/2000/svg" width="24" height="24" fill="none" viewBox="0 0 24 24"><path fill="currentColor" d="M19.9648 18.5996C19.9648 18.3166 19.9633 18.1576 19.9551 18.0439C19.8415 18.0358 19.6825 18.0352 19.4004 18.0352H15.5996C15.3167 18.0352 15.1576 18.0358 15.0439 18.0439C15.0358 18.1576 15.0352 18.3167 15.0352 18.5996V19.4004C15.0352 19.6825 15.0358 19.8415 15.0439 19.9551C15.1576 19.9633 15.3166 19.9648 15.5996 19.9648H19.4004C19.6826 19.9648 19.8415 19.9632 19.9551 19.9551C19.9632 19.8415 19.9648 19.6826 19.9648 19.4004V18.5996ZM20.9648 11V8.2002C20.9648 7.62309 20.9644 7.25228 20.9414 6.9707C20.9194 6.7012 20.8816 6.60521 20.8594 6.56152C20.7669 6.38033 20.6197 6.23308 20.4385 6.14062C20.3948 6.11836 20.2988 6.08061 20.0293 6.05859C19.7477 6.03559 19.3769 6.03516 18.7998 6.03516H5.2002C4.62309 6.03516 4.25228 6.03559 3.9707 6.05859C3.7012 6.08061 3.60521 6.11837 3.56152 6.14062C3.38033 6.23308 3.23308 6.38033 3.14062 6.56152C3.11837 6.60521 3.08061 6.7012 3.05859 6.9707C3.03559 7.25228 3.03516 7.62309 3.03516 8.2002V11.7998C3.03516 12.3769 3.03559 12.7477 3.05859 13.0293C3.08061 13.2988 3.11837 13.3948 3.14062 13.4385C3.23308 13.6197 3.38033 13.7669 3.56152 13.8594C3.60521 13.8816 3.7012 13.9194 3.9707 13.9414C4.25228 13.9644 4.62309 13.9648 5.2002 13.9648H11C11.5716 13.9648 12.0352 14.4284 12.0352 15C12.0352 15.5716 11.5716 16.0352 11 16.0352H5.2002C4.65722 16.0352 4.18718 16.0354 3.80176 16.0039C3.40438 15.9714 3.00608 15.8998 2.62207 15.7041C2.05107 15.4131 1.58686 14.9489 1.2959 14.3779C1.10024 13.9939 1.02859 13.5956 0.996094 13.1982C0.964603 12.8128 0.964844 12.3428 0.964844 11.7998V8.2002C0.964844 7.65722 0.964603 7.18718 0.996094 6.80176C1.02859 6.40438 1.10024 6.00608 1.2959 5.62207C1.58686 5.05107 2.05107 4.58686 2.62207 4.2959C3.00608 4.10024 3.40438 4.02859 3.80176 3.99609C4.18718 3.9646 4.65722 3.96484 5.2002 3.96484H18.7998C19.3428 3.96484 19.8128 3.9646 20.1982 3.99609C20.5956 4.02859 20.9939 4.10024 21.3779 4.2959C21.9489 4.58686 22.4131 5.05107 22.7041 5.62207C22.8998 6.00608 22.9714 6.40438 23.0039 6.80176C23.0354 7.18718 23.0352 7.65722 23.0352 8.2002V11C23.0352 11.5716 22.5716 12.0352 22 12.0352C21.4284 12.0352 20.9648 11.5716 20.9648 11ZM7 8.71484C7.70969 8.71484 8.28516 9.29031 8.28516 10C8.28516 10.7097 7.70969 11.2852 7 11.2852C6.29031 11.2852 5.71484 10.7097 5.71484 10C5.71484 9.29031 6.29031 8.71484 7 8.71484ZM12 8.71484C12.7097 8.71484 13.2852 9.29031 13.2852 10C13.2852 10.7097 12.7097 11.2852 12 11.2852C11.2903 11.2852 10.7148 10.7097 10.7148 10C10.7148 9.29031 11.2903 8.71484 12 8.71484ZM17 8.71484C17.7097 8.71484 18.2852 9.29031 18.2852 10C18.2852 10.7097 17.7097 11.2852 17 11.2852C16.2903 11.2852 15.7148 10.7097 15.7148 10C15.7148 9.29031 16.2903 8.71484 17 8.71484ZM18.2148 15.25C18.2148 14.8551 17.8949 14.5352 17.5 14.5352C17.1051 14.5352 16.7852 14.8551 16.7852 15.25V15.9648H18.2148V15.25ZM20.2852 15.998C20.4823 16.0237 20.7024 16.0737 20.9238 16.1865C21.2587 16.3572 21.5389 16.617 21.7344 16.9355L21.8135 17.0762L21.9023 17.2832C21.9753 17.4881 22.0034 17.6864 22.0176 17.8594C22.0354 18.0779 22.0352 18.337 22.0352 18.5996V19.4004C22.0352 19.663 22.0354 19.9221 22.0176 20.1406C21.9987 20.3713 21.9546 20.6467 21.8135 20.9238C21.6184 21.3067 21.3067 21.6184 20.9238 21.8135C20.6467 21.9546 20.3713 21.9987 20.1406 22.0176C19.9221 22.0354 19.663 22.0352 19.4004 22.0352H15.5996C15.337 22.0352 15.0779 22.0354 14.8594 22.0176C14.6287 21.9987 14.3533 21.9546 14.0762 21.8135C13.6933 21.6184 13.3816 21.3067 13.1865 20.9238C13.0454 20.6467 13.0013 20.3713 12.9824 20.1406C12.9646 19.9221 12.9648 19.663 12.9648 19.4004V18.5996C12.9648 18.337 12.9646 18.0779 12.9824 17.8594C13.0013 17.6287 13.0454 17.3533 13.1865 17.0762L13.2656 16.9355C13.4611 16.617 13.7413 16.3572 14.0762 16.1865L14.2832 16.0977C14.4332 16.0443 14.5795 16.0157 14.7148 15.998V15.25C14.7148 13.7119 15.9619 12.4648 17.5 12.4648C19.0381 12.4648 20.2852 13.7119 20.2852 15.25V15.998Z"/></svg>