<svg xmlns="http://www.w3.org/2000/svg" width="24" height="24" fill="none" viewBox="0 0 24 24"><path fill="currentColor" d="M20.9648 10.2002C20.9648 9.62309 20.9644 9.25228 20.9414 8.9707C20.9194 8.7012 20.8816 8.60521 20.8594 8.56152C20.7669 8.38033 20.6197 8.23308 20.4385 8.14062C20.3948 8.11836 20.2988 8.08061 20.0293 8.05859C19.7477 8.03559 19.3769 8.03516 18.7998 8.03516H5.2002C4.62309 8.03516 4.25228 8.03559 3.9707 8.05859C3.7012 8.08061 3.60521 8.11837 3.56152 8.14062C3.38033 8.23308 3.23308 8.38033 3.14062 8.56152C3.11837 8.60521 3.08061 8.7012 3.05859 8.9707C3.03559 9.25228 3.03516 9.62309 3.03516 10.2002V13.7998C3.03516 14.3769 3.03559 14.7477 3.05859 15.0293C3.08061 15.2988 3.11837 15.3948 3.14062 15.4385C3.23308 15.6197 3.38033 15.7669 3.56152 15.8594C3.60521 15.8816 3.7012 15.9194 3.9707 15.9414C4.25228 15.9644 4.62309 15.9648 5.2002 15.9648H18.7998C19.3769 15.9648 19.7477 15.9644 20.0293 15.9414C20.2988 15.9194 20.3948 15.8816 20.4385 15.8594C20.6197 15.7669 20.7669 15.6197 20.8594 15.4385C20.8816 15.3948 20.9194 15.2988 20.9414 15.0293C20.9644 14.7477 20.9648 14.3769 20.9648 13.7998V10.2002ZM7 10.7148C7.70969 10.7148 8.28516 11.2903 8.28516 12C8.28516 12.7097 7.70969 13.2852 7 13.2852C6.29031 13.2852 5.71484 12.7097 5.71484 12C5.71484 11.2903 6.29031 10.7148 7 10.7148ZM12 10.7148C12.7097 10.7148 13.2852 11.2903 13.2852 12C13.2852 12.7097 12.7097 13.2852 12 13.2852C11.2903 13.2852 10.7148 12.7097 10.7148 12C10.7148 11.2903 11.2903 10.7148 12 10.7148ZM17 10.7148C17.7097 10.7148 18.2852 11.2903 18.2852 12C18.2852 12.7097 17.7097 13.2852 17 13.2852C16.2903 13.2852 15.7148 12.7097 15.7148 12C15.7148 11.2903 16.2903 10.7148 17 10.7148ZM23.0352 13.7998C23.0352 14.3428 23.0354 14.8128 23.0039 15.1982C22.9714 15.5956 22.8998 15.9939 22.7041 16.3779C22.4131 16.9489 21.9489 17.4131 21.3779 17.7041C20.9939 17.8998 20.5956 17.9714 20.1982 18.0039C19.8128 18.0354 19.3428 18.0352 18.7998 18.0352H5.2002C4.65722 18.0352 4.18718 18.0354 3.80176 18.0039C3.40438 17.9714 3.00608 17.8998 2.62207 17.7041C2.05107 17.4131 1.58686 16.9489 1.2959 16.3779C1.10024 15.9939 1.02859 15.5956 0.996094 15.1982C0.964603 14.8128 0.964844 14.3428 0.964844 13.7998V10.2002C0.964844 9.65722 0.964603 9.18718 0.996094 8.80176C1.02859 8.40438 1.10024 8.00608 1.2959 7.62207C1.58686 7.05107 2.05107 6.58686 2.62207 6.2959C3.00608 6.10024 3.40438 6.02859 3.80176 5.99609C4.18718 5.9646 4.65722 5.96484 5.2002 5.96484H18.7998C19.3428 5.96484 19.8128 5.9646 20.1982 5.99609C20.5956 6.02859 20.9939 6.10024 21.3779 6.2959C21.9489 6.58686 22.4131 7.05107 22.7041 7.62207C22.8998 8.00608 22.9714 8.40438 23.0039 8.80176C23.0354 9.18718 23.0352 9.65722 23.0352 10.2002V13.7998Z"/></svg>