<svg xmlns="http://www.w3.org/2000/svg" width="24" height="24" fill="none" viewBox="0 0 24 24"><g clip-path="url(#a)"><path fill="currentColor" d="M20.9648 12C20.9648 7.04877 16.9512 3.03516 12 3.03516C7.04877 3.03516 3.03516 7.04877 3.03516 12C3.03516 16.9512 7.04877 20.9648 12 20.9648C16.9512 20.9648 20.9648 16.9512 20.9648 12ZM8.46484 15V9C8.46484 8.42839 8.92839 7.96484 9.5 7.96484C10.0716 7.96484 10.5352 8.42839 10.5352 9V15C10.5352 15.5716 10.0716 16.0352 9.5 16.0352C8.92839 16.0352 8.46484 15.5716 8.46484 15ZM13.4648 15V9C13.4648 8.42839 13.9284 7.96484 14.5 7.96484C15.0716 7.96484 15.5352 8.42839 15.5352 9V15C15.5352 15.5716 15.0716 16.0352 14.5 16.0352C13.9284 16.0352 13.4648 15.5716 13.4648 15ZM23.0352 12C23.0352 18.0945 18.0945 23.0352 12 23.0352C5.90554 23.0352 0.964844 18.0945 0.964844 12C0.964844 5.90554 5.90554 0.964844 12 0.964844C18.0945 0.964844 23.0352 5.90554 23.0352 12Z"/></g><defs><clipPath id="a"><path fill="#fff" d="M0 0H24V24H0z"/></clipPath></defs></svg>