<svg xmlns="http://www.w3.org/2000/svg" width="24" height="24" fill="none" viewBox="0 0 24 24"><path fill="currentColor" d="M1.26864 1.26864C1.52359 1.01369 1.89276 0.909624 2.24325 0.994226L15.7501 4.25399C16.0343 4.32259 16.4269 4.40287 16.7559 4.61727C16.9504 4.74409 17.1215 4.9034 17.2618 5.087L17.3917 5.27938L17.461 5.40829C17.6091 5.71389 17.6648 6.04801 17.7149 6.29891L18.7345 11.3975C18.981 11.3651 19.2318 11.3774 19.4747 11.4356L19.629 11.4786L19.838 11.5626C20.0346 11.6559 20.1949 11.7754 20.3272 11.8878C20.4945 12.0298 20.6775 12.2136 20.8634 12.3995L21.6007 13.1368C21.7866 13.3227 21.9704 13.5057 22.1124 13.6729C22.2248 13.8053 22.3442 13.9656 22.4376 14.1622L22.5216 14.3712L22.5645 14.5255C22.6518 14.8893 22.6378 15.2712 22.5216 15.629C22.4254 15.9249 22.2622 16.1507 22.1124 16.3272C21.9704 16.4945 21.7866 16.6775 21.6007 16.8634L16.8634 21.6007C16.6775 21.7866 16.4945 21.9704 16.3272 22.1124C16.1507 22.2622 15.9249 22.4254 15.629 22.5216C15.2203 22.6544 14.7799 22.6544 14.3712 22.5216C14.0753 22.4254 13.8494 22.2622 13.6729 22.1124C13.5057 21.9704 13.3227 21.7866 13.1368 21.6007L12.3995 20.8634C12.2136 20.6775 12.0298 20.4945 11.8878 20.3272C11.7379 20.1507 11.5747 19.9249 11.4786 19.629C11.3844 19.3392 11.3582 19.0335 11.3975 18.7345L6.29891 17.7149C6.01216 17.6576 5.61669 17.593 5.27938 17.3917C5.01348 17.2329 4.78644 17.0154 4.61727 16.7559C4.40287 16.4269 4.32259 16.0343 4.25399 15.7501L0.994226 2.24325C0.909624 1.89276 1.01369 1.52359 1.26864 1.26864ZM19.0001 13.4766C18.9139 13.5513 18.8008 13.6632 18.6007 13.8634L13.8634 18.6007C13.6632 18.8008 13.5513 18.9139 13.4766 19.0001C13.5513 19.0863 13.6632 19.1994 13.8634 19.3995L14.6007 20.1368C14.8004 20.3366 14.914 20.4479 15.0001 20.5225C15.0862 20.4479 15.1997 20.3366 15.3995 20.1368L20.1368 15.3995C20.3366 15.1997 20.4479 15.0862 20.5225 15.0001C20.4479 14.914 20.3366 14.8004 20.1368 14.6007L19.3995 13.8634C19.1994 13.6632 19.0863 13.5513 19.0001 13.4766ZM11.9649 11.0001C11.9649 10.4671 11.533 10.0352 11.0001 10.0352C10.4671 10.0352 10.0352 10.4671 10.0352 11.0001C10.0352 11.533 10.4671 11.9649 11.0001 11.9649C11.533 11.9649 11.9649 11.533 11.9649 11.0001ZM14.0352 11.0001C14.0352 12.6763 12.6763 14.0352 11.0001 14.0352C9.3239 14.0352 7.96493 12.6763 7.96493 11.0001C7.96493 10.5404 8.06911 10.1054 8.25204 9.71493L3.86825 5.33114L6.26669 15.2638C6.31012 15.4437 6.33412 15.541 6.35458 15.6095C6.4239 15.6273 6.52187 15.649 6.70516 15.6856L12.6593 16.8761L16.8761 12.6593L15.6856 6.70516C15.649 6.52187 15.6273 6.4239 15.6095 6.35458C15.541 6.33412 15.4437 6.31012 15.2638 6.26669L5.33114 3.86825L9.71493 8.25204C10.1054 8.06911 10.5404 7.96493 11.0001 7.96493C12.6763 7.96493 14.0352 9.3239 14.0352 11.0001Z"/></svg>