<svg xmlns="http://www.w3.org/2000/svg" width="24" height="24" fill="none" viewBox="0 0 24 24"><path fill="currentColor" d="M16.5254 2.43553C16.8374 2.36068 17.1626 2.36068 17.4746 2.43553L17.6289 2.4785L17.8379 2.56248C18.0345 2.65583 18.1948 2.77533 18.3271 2.88768C18.4944 3.02966 18.6774 3.21352 18.8633 3.3994L22.6006 7.1367C22.7865 7.3226 22.9703 7.50561 23.1123 7.67284C23.2247 7.80522 23.3441 7.96545 23.4375 8.16209L23.5215 8.37108L23.5645 8.52538C23.6517 8.88913 23.6377 9.27117 23.5215 9.62889C23.4253 9.9247 23.2621 10.1507 23.1123 10.3271C22.9703 10.4943 22.7865 10.6774 22.6006 10.8633L21.8633 11.6006C21.6774 11.7865 21.4944 11.9703 21.3271 12.1123C21.1506 12.2621 20.9248 12.4253 20.6289 12.5215C20.303 12.6274 19.9571 12.647 19.623 12.584L18.2334 17.4502C18.1643 17.6921 18.08 18.0257 17.8936 18.3125C17.7461 18.5393 17.5548 18.7347 17.3311 18.8867C17.0478 19.0791 16.7152 19.1701 16.4746 19.2441L4.30469 22.9892C3.9383 23.102 3.53964 23.0025 3.26855 22.7314C2.99747 22.4603 2.898 22.0617 3.01074 21.6953L6.75586 9.52538C6.82989 9.28476 6.92087 8.95218 7.11328 8.66893L7.23535 8.50682C7.36483 8.35202 7.51673 8.21689 7.68652 8.10643L7.79688 8.041C8.05622 7.89905 8.3381 7.82706 8.5498 7.76659L13.416 6.37596C13.3532 6.04218 13.3727 5.69673 13.4785 5.37108L13.5625 5.16209C13.6559 4.96545 13.7753 4.80522 13.8877 4.67284C14.0297 4.50561 14.2135 4.3226 14.3994 4.1367L15.1367 3.3994C15.3226 3.21352 15.5056 3.02966 15.6729 2.88768C15.8494 2.73784 16.0752 2.57463 16.3711 2.4785L16.5254 2.43553ZM12.9648 14C12.9648 13.467 12.533 13.0351 12 13.0351C11.467 13.0351 11.0352 13.467 11.0352 14C11.0352 14.2662 11.143 14.5071 11.3174 14.6816C11.3187 14.683 11.32 14.6852 11.3213 14.6865C11.4956 14.8588 11.7355 14.9648 12 14.9648C12.5329 14.9648 12.9648 14.5329 12.9648 14ZM17 4.47655C16.9138 4.55117 16.8007 4.66316 16.6006 4.86327L15.8633 5.60057C15.6631 5.80074 15.5512 5.91379 15.4766 5.99998C15.5512 6.08617 15.6632 6.19931 15.8633 6.3994L19.6006 10.1367C19.8004 10.3365 19.9139 10.4478 20 10.5224C20.0861 10.4478 20.1996 10.3365 20.3994 10.1367L21.1367 9.3994C21.3364 9.19968 21.4478 9.08611 21.5225 8.99998C21.4479 8.91385 21.3365 8.80036 21.1367 8.60057L17.3994 4.86327C17.1993 4.66316 17.0862 4.55117 17 4.47655ZM8 3.96483C8.57161 3.96483 9.03516 4.42837 9.03516 4.99998C9.03507 5.57153 8.57156 6.03514 8 6.03514H2C1.42844 6.03514 0.964925 5.57153 0.964844 4.99998C0.964844 4.42837 1.42839 3.96483 2 3.96483H8ZM15.0352 14C15.0351 15.6761 13.6761 17.0351 12 17.0351C11.5403 17.0351 11.1063 16.929 10.7158 16.7461L7.67676 19.7851L15.8662 17.2656C16.0181 17.2189 16.0984 17.1924 16.1553 17.1719C16.1746 17.1146 16.1995 17.0336 16.2432 16.8808L17.8369 11.3008L14.6982 8.16209L9.11914 9.75682C8.9662 9.80052 8.88441 9.82339 8.82715 9.84276C8.80654 9.89968 8.78151 9.98059 8.73438 10.1338L6.21484 18.3203L9.25195 15.2832C9.06948 14.8931 8.96487 14.4591 8.96484 14C8.96484 12.3238 10.3238 10.9648 12 10.9648C13.6762 10.9648 15.0352 12.3238 15.0352 14Z"/></svg>