<svg xmlns="http://www.w3.org/2000/svg" width="24" height="24" fill="none" viewBox="0 0 24 24"><g clip-path="url(#a)"><path fill="currentColor" d="M16.3711 2.47852C16.7289 2.36228 17.1108 2.34828 17.4746 2.43555L17.6289 2.47852L17.8379 2.5625C18.0345 2.65585 18.1948 2.77533 18.3271 2.8877C18.4944 3.02967 18.6774 3.21352 18.8633 3.39941L22.6006 7.13672C22.7865 7.32262 22.9703 7.50562 23.1123 7.67285C23.2247 7.80521 23.3441 7.96551 23.4375 8.16211L23.5215 8.37109L23.5645 8.52539C23.6517 8.88917 23.6377 9.27115 23.5215 9.62891C23.4254 9.92477 23.2621 10.1506 23.1123 10.3271C22.9703 10.4944 22.7865 10.6774 22.6006 10.8633L21.8633 11.6006C21.6774 11.7865 21.4944 11.9703 21.3271 12.1123C21.1506 12.2621 20.9248 12.4254 20.6289 12.5215C20.303 12.6274 19.9571 12.647 19.623 12.584L18.2334 17.4502C18.1643 17.6922 18.0801 18.0265 17.8936 18.3135C17.7461 18.5401 17.5547 18.7348 17.3311 18.8867C17.0478 19.0791 16.7152 19.1701 16.4746 19.2441L4.30469 22.9893C3.93827 23.102 3.53964 23.0025 3.26855 22.7314C2.99747 22.4604 2.898 22.0617 3.01074 21.6953L6.75586 9.52539C6.82989 9.28478 6.92087 8.9522 7.11328 8.66895L7.23535 8.50781C7.36493 8.35278 7.51652 8.21703 7.68652 8.10645L7.79688 8.04102C8.05622 7.89908 8.33811 7.82708 8.5498 7.7666L13.415 6.37598C13.3523 6.04224 13.3727 5.69668 13.4785 5.37109C13.5746 5.07523 13.7379 4.84935 13.8877 4.67285C14.0297 4.50562 14.2135 4.32262 14.3994 4.13672L15.1367 3.39941C15.3226 3.21352 15.5056 3.02967 15.6729 2.8877C15.8494 2.73786 16.0752 2.57465 16.3711 2.47852ZM12.9648 14C12.9648 13.467 12.533 13.0352 12 13.0352C11.467 13.0352 11.0352 13.467 11.0352 14C11.0352 14.2662 11.143 14.507 11.3174 14.6816C11.3189 14.6831 11.3208 14.685 11.3223 14.6865C11.4965 14.8586 11.7358 14.9648 12 14.9648C12.533 14.9648 12.9648 14.533 12.9648 14ZM17 4.47656C16.9138 4.55118 16.8007 4.66314 16.6006 4.86328L15.8633 5.60059C15.6631 5.80073 15.5512 5.91381 15.4766 6C15.5512 6.08619 15.6631 6.19927 15.8633 6.39941L19.6006 10.1367C19.8004 10.3365 19.9139 10.4478 20 10.5225C20.0861 10.4478 20.1996 10.3365 20.3994 10.1367L21.1367 9.39941C21.3365 9.19964 21.4478 9.08613 21.5225 9C21.4478 8.91387 21.3365 8.80036 21.1367 8.60059L17.3994 4.86328C17.1993 4.66314 17.0862 4.55118 17 4.47656ZM3.96484 8V6.03516H2C1.42839 6.03516 0.964844 5.57161 0.964844 5C0.964844 4.42839 1.42839 3.96484 2 3.96484H3.96484V2C3.96484 1.42839 4.42839 0.964844 5 0.964844C5.57161 0.964844 6.03516 1.42839 6.03516 2V3.96484H8C8.57161 3.96484 9.03516 4.42839 9.03516 5C9.03516 5.57161 8.57161 6.03516 8 6.03516H6.03516V8C6.03516 8.57161 5.57161 9.03516 5 9.03516C4.42839 9.03516 3.96484 8.57161 3.96484 8ZM15.0352 14C15.0352 15.6762 13.6762 17.0352 12 17.0352C11.5402 17.0352 11.1054 16.9301 10.7148 16.7471L7.67676 19.7852L15.8662 17.2656C16.0182 17.2189 16.0984 17.1924 16.1553 17.1719C16.1746 17.1146 16.1995 17.0335 16.2432 16.8809L17.8369 11.3008L14.6982 8.16211L9.11914 9.75684C8.96597 9.8006 8.88442 9.82436 8.82715 9.84375C8.8066 9.90062 8.78128 9.98135 8.73438 10.1338L6.21387 18.3213L9.25195 15.2832C9.0695 14.8931 8.96484 14.4591 8.96484 14C8.96484 12.3238 10.3238 10.9648 12 10.9648C13.6762 10.9648 15.0352 12.3238 15.0352 14Z"/></g><defs><clipPath id="a"><path fill="#fff" d="M0 0H24V24H0z"/></clipPath></defs></svg>