<svg xmlns="http://www.w3.org/2000/svg" width="24" height="24" fill="none" viewBox="0 0 24 24"><path fill="currentColor" d="M14.5255 1.43553C14.8375 1.36068 15.1627 1.36068 15.4747 1.43553L15.629 1.4785L15.838 1.56248C16.0345 1.65583 16.1949 1.77533 16.3272 1.88768C16.4945 2.02966 16.6775 2.21352 16.8634 2.3994L21.6007 7.1367C21.7866 7.3226 21.9704 7.50561 22.1124 7.67284C22.2248 7.80522 22.3442 7.96545 22.4376 8.16209L22.5216 8.37108L22.5645 8.52538C22.6518 8.88913 22.6378 9.27117 22.5216 9.62889C22.4254 9.9247 22.2622 10.1507 22.1124 10.3271C21.9704 10.4943 21.7865 10.6774 21.6007 10.8633L20.8634 11.6006C20.6775 11.7865 20.4945 11.9703 20.3272 12.1123C20.1507 12.2621 19.9249 12.4253 19.629 12.5215C19.3392 12.6156 19.0335 12.641 18.7345 12.6015L17.7149 17.7012C17.6576 17.9879 17.5931 18.3834 17.3917 18.7207C17.2329 18.9866 17.0154 19.2127 16.7559 19.3818C16.4268 19.5964 16.0344 19.6775 15.7501 19.7461L2.24325 23.0058C1.89279 23.0904 1.52359 22.9863 1.26864 22.7314C1.01369 22.4765 0.909624 22.1073 0.994226 21.7568L4.25399 8.24998C4.32259 7.96579 4.40289 7.57319 4.61727 7.24413L4.75497 7.0576C4.90244 6.87947 5.07986 6.72754 5.27938 6.60838L5.40829 6.53905C5.71394 6.39097 6.04798 6.33435 6.29891 6.28416L11.3975 5.26463C11.3583 4.96589 11.3846 4.66059 11.4786 4.37108L11.5626 4.16209C11.6559 3.96545 11.7754 3.80522 11.8878 3.67284C12.0297 3.50561 12.2136 3.3226 12.3995 3.1367L13.1368 2.3994C13.3227 2.21352 13.5057 2.02966 13.6729 1.88768C13.8494 1.73784 14.0753 1.57463 14.3712 1.4785L14.5255 1.43553ZM11.9649 13C11.9649 12.467 11.533 12.0351 11.0001 12.0351C10.4671 12.0351 10.0352 12.467 10.0352 13C10.0353 13.2662 10.1431 13.5071 10.3175 13.6816C10.3188 13.683 10.3201 13.6852 10.3214 13.6865C10.4957 13.8588 10.7356 13.9648 11.0001 13.9648C11.533 13.9648 11.9648 13.5329 11.9649 13ZM15.0001 3.47655C14.9139 3.55117 14.8008 3.66316 14.6007 3.86327L13.8634 4.60057C13.6632 4.80074 13.5513 4.91379 13.4766 4.99998C13.5513 5.08617 13.6633 5.19931 13.8634 5.3994L18.6007 10.1367C18.8005 10.3365 18.914 10.4478 19.0001 10.5224C19.0862 10.4478 19.1997 10.3365 19.3995 10.1367L20.1368 9.3994C20.3365 9.19968 20.4479 9.08611 20.5225 8.99998C20.4479 8.91385 20.3366 8.80036 20.1368 8.60057L15.3995 3.86327C15.1994 3.66316 15.0863 3.55117 15.0001 3.47655ZM14.0352 13C14.0352 14.6761 12.6762 16.0351 11.0001 16.0351C10.5404 16.0351 10.1064 15.929 9.71591 15.7461L5.33114 20.1308L15.2638 17.7334C15.4439 17.6899 15.541 17.665 15.6095 17.6445C15.6273 17.5752 15.6491 17.4775 15.6856 17.2949L16.8761 11.3398L12.6593 7.12303L6.70516 8.31444C6.52205 8.35106 6.42389 8.37177 6.35458 8.38963C6.33407 8.45813 6.31028 8.55571 6.26669 8.73631L3.86923 18.666L8.25204 14.2832C8.06957 13.8931 7.96495 13.4591 7.96493 13C7.96493 11.3238 9.3239 9.96483 11.0001 9.96483C12.6763 9.96483 14.0352 11.3238 14.0352 13Z"/></svg>