<svg xmlns="http://www.w3.org/2000/svg" width="24" height="24" fill="none" viewBox="0 0 24 24"><g clip-path="url(#a)"><path fill="currentColor" d="M14.5253 4.24699C14.795 4.15936 15.083 4.14907 15.3573 4.21477L15.4745 4.24699L15.6415 4.3134C15.7956 4.38666 15.9135 4.47709 15.9979 4.54875C16.1014 4.6366 16.2108 4.74698 16.2977 4.83391L19.1659 7.70207C19.2528 7.789 19.3632 7.89839 19.4511 8.00187C19.5227 8.08633 19.6131 8.20418 19.6864 8.35832L19.7528 8.52531L19.785 8.6425C19.8507 8.91676 19.8404 9.20483 19.7528 9.47453C19.6753 9.71288 19.5467 9.88526 19.4511 9.99797C19.3632 10.1015 19.2528 10.2108 19.1659 10.2978L8.83289 20.6308C8.63124 20.8324 8.45512 21.0127 8.24891 21.163C8.07897 21.2868 7.89582 21.3923 7.70399 21.4784C7.47108 21.583 7.22727 21.6465 6.95203 21.7216L2.27234 22.998C1.91402 23.0957 1.53107 22.994 1.26844 22.7314C1.00581 22.4687 0.904111 22.0858 1.00184 21.7275L2.2782 17.0478C2.35327 16.7725 2.41682 16.5287 2.52137 16.2958C2.60749 16.104 2.71298 15.9208 2.8368 15.7509C2.9871 15.5447 3.16737 15.3686 3.36902 15.1669L13.702 4.83391C13.789 4.74698 13.8983 4.6366 14.0018 4.54875C14.1145 4.45312 14.2869 4.32447 14.5253 4.24699ZM4.83289 16.6308C4.58707 16.8766 4.54309 16.9247 4.50965 16.9706C4.47035 17.0246 4.43641 17.0826 4.40906 17.1435C4.38586 17.1952 4.3665 17.2572 4.27527 17.5917L3.47449 20.5243L6.40809 19.7245C6.74258 19.6333 6.8046 19.6139 6.85633 19.5907C6.91723 19.5634 6.97521 19.5295 7.02918 19.4902C7.07508 19.4567 7.12321 19.4127 7.36902 19.1669L17.536 8.99992L14.9999 6.46379L4.83289 16.6308ZM17.2684 1.26848C17.6726 0.864284 18.3271 0.864284 18.7313 1.26848L22.7313 5.26848C23.1355 5.67267 23.1355 6.32717 22.7313 6.73137C22.3271 7.13556 21.6726 7.13556 21.2684 6.73137L17.2684 2.73137C16.8642 2.32717 16.8642 1.67267 17.2684 1.26848Z"/></g><defs><clipPath id="a"><path fill="#fff" d="M0 0H24V24H0z"/></clipPath></defs></svg>