<svg xmlns="http://www.w3.org/2000/svg" width="24" height="24" fill="none" viewBox="0 0 24 24"><path fill="currentColor" d="M16.2684 2.26814C17.7771 0.75957 20.2226 0.759587 21.7313 2.26814C23.2401 3.7769 23.2401 6.22325 21.7313 7.73201L10.452 19.0113C10.2007 19.2626 10.0144 19.4514 9.80259 19.6158C9.62472 19.7538 9.43552 19.8775 9.23716 19.984C9.0008 20.1108 8.75248 20.204 8.42075 20.3316L2.87095 22.4664C2.48948 22.6129 2.05749 22.5208 1.76841 22.232C1.47921 21.9428 1.38724 21.5102 1.53404 21.1285L3.66782 15.5787C3.7954 15.247 3.88959 14.9986 4.01646 14.7623C4.12289 14.5641 4.24572 14.3746 4.38364 14.1969C4.54807 13.985 4.73689 13.7987 4.98814 13.5474L16.2684 2.26814ZM4.30161 19.6978L7.14146 18.6051L5.39341 16.857L4.30161 19.6978ZM20.2684 3.73201C19.568 3.03163 18.4317 3.03163 17.7313 3.73201L6.46275 14.9996C6.51043 15.0466 6.5575 15.0934 6.60239 15.1383L8.86118 17.398C8.90562 17.4425 8.9514 17.4895 8.9979 17.5367L20.2684 6.26814C20.9685 5.56786 20.9684 4.43236 20.2684 3.73201Z"/></svg>