<svg xmlns="http://www.w3.org/2000/svg" width="24" height="24" fill="none" viewBox="0 0 24 24"><path fill="currentColor" d="M11.6201 1.48663C11.9134 1.43086 12.2157 1.44052 12.5059 1.51495C12.9277 1.62318 13.2821 1.90117 13.5478 2.09405L21.667 7.98663C21.9 8.15569 22.2161 8.36902 22.4482 8.66632L22.542 8.79913L22.6074 8.90948C22.7309 9.1341 22.8116 9.37981 22.8437 9.63409L22.8555 9.76202L22.8574 9.92413C22.8445 10.3013 22.7141 10.6601 22.625 10.9339L19.5244 20.4651C19.4228 20.7775 19.3002 21.2114 19.0225 21.5472C18.804 21.8112 18.5218 22.0158 18.2031 22.1419C17.8991 22.2622 17.5696 22.2829 17.2852 22.2855H6.71484C6.43052 22.2829 6.10072 22.2622 5.79687 22.1419C5.47843 22.0158 5.19689 21.811 4.97851 21.5472C4.70073 21.2114 4.57818 20.7776 4.47656 20.4651L1.37597 10.9339C1.2742 10.6211 1.11814 10.1975 1.1455 9.76202L1.15722 9.63409C1.19475 9.33756 1.29727 9.05238 1.458 8.79913L1.55175 8.66632C1.78396 8.36877 2.10091 8.15577 2.33398 7.98663L10.4521 2.09405C10.7179 1.90116 11.0731 1.62321 11.4951 1.51495L11.6201 1.48663ZM11.668 3.76984L3.5498 9.66144C3.37987 9.78476 3.28784 9.85273 3.2246 9.9046C3.24521 9.98379 3.27952 10.0928 3.34472 10.2933L6.44433 19.8245C6.50909 20.0236 6.54541 20.1323 6.57519 20.2083C6.65683 20.2132 6.77144 20.2151 6.98242 20.2151H17.0185C17.229 20.2151 17.3432 20.2132 17.4248 20.2083C17.4546 20.1323 17.4908 20.0238 17.5557 19.8245L20.6562 10.2933C20.7214 10.093 20.7548 9.98377 20.7754 9.9046C20.7122 9.85279 20.6207 9.78444 20.4512 9.66144L12.332 3.76984C12.1615 3.64611 12.0689 3.5794 12 3.53546C11.9312 3.57941 11.8381 3.64635 11.668 3.76984Z"/></svg>