<svg xmlns="http://www.w3.org/2000/svg" width="24" height="24" fill="none" viewBox="0 0 24 24"><path fill="currentColor" d="M18.2686 4.26855C18.6727 3.86436 19.3273 3.86436 19.7314 4.26855C20.1356 4.67275 20.1356 5.32725 19.7314 5.73145L5.73145 19.7314C5.32725 20.1356 4.67275 20.1356 4.26855 19.7314C3.86436 19.3273 3.86436 18.6727 4.26855 18.2686L18.2686 4.26855ZM17.9648 17C17.9648 16.467 17.533 16.0352 17 16.0352C16.467 16.0352 16.0352 16.467 16.0352 17C16.0352 17.533 16.467 17.9648 17 17.9648C17.533 17.9648 17.9648 17.533 17.9648 17ZM7.96484 7C7.96484 6.46705 7.53295 6.03516 7 6.03516C6.46705 6.03516 6.03516 6.46705 6.03516 7C6.03516 7.53295 6.46705 7.96484 7 7.96484C7.53295 7.96484 7.96484 7.53295 7.96484 7ZM20.0352 17C20.0352 18.6762 18.6762 20.0352 17 20.0352C15.3238 20.0352 13.9648 18.6762 13.9648 17C13.9648 15.3238 15.3238 13.9648 17 13.9648C18.6762 13.9648 20.0352 15.3238 20.0352 17ZM10.0352 7C10.0352 8.67618 8.67618 10.0352 7 10.0352C5.32382 10.0352 3.96484 8.67618 3.96484 7C3.96484 5.32382 5.32382 3.96484 7 3.96484C8.67618 3.96484 10.0352 5.32382 10.0352 7Z"/></svg>