<svg xmlns="http://www.w3.org/2000/svg" width="24" height="24" fill="none" viewBox="0 0 24 24"><path fill="currentColor" d="M18.2685 4.2686C18.6727 3.86441 19.3272 3.86441 19.7314 4.2686C20.1356 4.67279 20.1356 5.3273 19.7314 5.73149L5.73143 19.7315C5.32724 20.1357 4.67273 20.1357 4.26854 19.7315C3.86434 19.3273 3.86434 18.6728 4.26854 18.2686L18.2685 4.2686ZM17.5 17.4649C17.4807 17.4649 17.4648 17.4807 17.4648 17.5C17.4648 17.5194 17.4807 17.5352 17.5 17.5352C17.5096 17.5352 17.5181 17.5308 17.5244 17.5245L17.5351 17.5L17.5244 17.4756C17.5181 17.4693 17.5096 17.4649 17.5 17.4649ZM6.49998 6.46489C6.48065 6.46489 6.46483 6.48071 6.46483 6.50004C6.46483 6.51937 6.48065 6.5352 6.49998 6.5352C6.50965 6.5352 6.51806 6.53079 6.5244 6.52446L6.53514 6.50004L6.5244 6.47563C6.51806 6.4693 6.50965 6.46489 6.49998 6.46489ZM19.5351 17.5C19.5351 18.6239 18.6239 19.5352 17.5 19.5352C16.3761 19.5352 15.4648 18.6239 15.4648 17.5C15.4648 16.3761 16.3761 15.4649 17.5 15.4649C18.6239 15.4649 19.5351 16.3761 19.5351 17.5ZM8.53514 6.50004C8.53514 7.62394 7.62388 8.5352 6.49998 8.5352C5.44631 8.5352 4.57976 7.73424 4.47557 6.70805L4.46483 6.50004L4.47557 6.29204C4.57976 5.26585 5.44631 4.46489 6.49998 4.46489L6.70799 4.47563C7.73418 4.57982 8.53514 5.44637 8.53514 6.50004Z"/></svg>