<svg xmlns="http://www.w3.org/2000/svg" width="24" height="24" fill="none" viewBox="0 0 24 24"><path fill="currentColor" d="M19.9648 13.0353H17.0352V17.8205L18.2695 17.5471C18.7313 17.4444 19.0237 17.3789 19.2441 17.3127C19.452 17.2502 19.527 17.2059 19.5645 17.1789C19.7064 17.0766 19.8177 16.9373 19.8867 16.7765C19.905 16.734 19.9314 16.6511 19.9473 16.4347C19.9641 16.2053 19.9648 15.9062 19.9648 15.4338V13.0353ZM11.0352 19.1535L14.9648 18.2805V13.0353H11.0352V19.1535ZM11.0352 10.965H14.9648V5.71893L11.0352 4.84588V10.965ZM4.03516 18.0109C4.03516 18.7116 4.03617 19.1697 4.06641 19.5138C4.09588 19.8491 4.14597 19.9582 4.1709 20.0002C4.28993 20.2002 4.47719 20.3512 4.69824 20.424C4.74462 20.4392 4.86199 20.464 5.19531 20.4201C5.53786 20.375 5.98578 20.2762 6.66992 20.1242L8.96485 19.6135V13.0353H4.03516V18.0109ZM19.9648 8.56756C19.9648 8.09472 19.9641 7.79515 19.9473 7.56561C19.9314 7.34909 19.905 7.26628 19.8867 7.22381C19.8177 7.06304 19.7064 6.92377 19.5645 6.82147C19.527 6.79447 19.4518 6.75109 19.2441 6.68865C19.0237 6.62239 18.7313 6.55591 18.2695 6.4533L17.0352 6.17889V10.965H19.9648V8.56756ZM22.0352 15.4338C22.0352 15.8765 22.0354 16.2643 22.0117 16.5871C21.987 16.9229 21.9331 17.2586 21.7891 17.5939C21.5718 18.0996 21.221 18.5368 20.7744 18.8586C20.4782 19.072 20.1624 19.1982 19.8398 19.2951C19.5298 19.3883 19.1511 19.4715 18.7188 19.5676L7.11914 22.1457C6.47173 22.2896 5.91968 22.413 5.46582 22.4728C5.00376 22.5337 4.52688 22.5466 4.05078 22.3898C3.35555 22.1608 2.76595 21.6878 2.3916 21.0588C2.13538 20.628 2.04472 20.1597 2.00391 19.6955C1.96383 19.2395 1.96485 18.6741 1.96485 18.0109V5.98943C1.96485 5.32623 1.96383 4.76088 2.00391 4.30486C2.04473 3.84064 2.13536 3.37231 2.3916 2.94158C2.76595 2.31258 3.35555 1.83951 4.05078 1.61053C4.52691 1.45378 5.00374 1.46763 5.46582 1.5285C5.91968 1.58829 6.47173 1.71178 7.11914 1.85565L18.7188 4.43279C19.1511 4.52888 19.5298 4.61304 19.8398 4.70623C20.1623 4.80317 20.4783 4.92843 20.7744 5.14178C21.2211 5.46357 21.5718 5.90159 21.7891 6.4074C21.9329 6.74253 21.987 7.0777 22.0117 7.41326C22.0354 7.73613 22.0352 8.12464 22.0352 8.56756V15.4338ZM4.03516 10.965H8.96485V4.38592L6.66992 3.87615C5.98578 3.72412 5.53786 3.62539 5.19531 3.58025C4.86143 3.53629 4.74445 3.56211 4.69824 3.57733C4.4772 3.65013 4.28992 3.80019 4.1709 4.00018C4.14599 4.04207 4.0959 4.15101 4.06641 4.4865C4.03616 4.83068 4.03516 5.28866 4.03516 5.98943V10.965Z"/></svg>