<svg xmlns="http://www.w3.org/2000/svg" width="24" height="24" fill="none" viewBox="0 0 24 24"><path fill="currentColor" d="M19.9648 16.5996C19.9648 16.3166 19.9633 16.1576 19.9551 16.0439C19.8415 16.0358 19.6825 16.0352 19.4004 16.0352H18.5996C18.3167 16.0352 18.1576 16.0358 18.0439 16.0439C18.0358 16.1576 18.0352 16.3167 18.0352 16.5996V17.4004C18.0352 17.6825 18.0358 17.8415 18.0439 17.9551C18.1576 17.9633 18.3166 17.9648 18.5996 17.9648H19.4004C19.6826 17.9648 19.8415 17.9632 19.9551 17.9551C19.9632 17.8415 19.9648 17.6826 19.9648 17.4004V16.5996ZM7.96973 6.46973C7.93876 6.6154 7.89209 6.7695 7.81348 6.92383C7.61837 7.30674 7.30674 7.61837 6.92383 7.81348C6.6467 7.95465 6.37134 7.99873 6.14062 8.01758C6.10647 8.02036 6.07116 8.01953 6.03516 8.02148V15.9775C6.07118 15.9795 6.10645 15.9796 6.14062 15.9824C6.37134 16.0013 6.6467 16.0454 6.92383 16.1865C7.25872 16.3572 7.53886 16.617 7.73438 16.9355L7.81348 17.0762L7.90234 17.2832C7.93206 17.3667 7.9527 17.4494 7.96973 17.5293L15.9658 16.3867C15.9666 16.1989 15.9694 16.0184 15.9824 15.8594C16.0013 15.6287 16.0454 15.3533 16.1865 15.0762L16.2656 14.9355C16.4611 14.617 16.7413 14.3572 17.0762 14.1865L17.2832 14.0977C17.4881 14.0247 17.6864 13.9966 17.8594 13.9824C17.8935 13.9796 17.9288 13.9795 17.9648 13.9775V10.0215C17.9288 10.0195 17.8935 10.0204 17.8594 10.0176C17.6287 9.99873 17.3533 9.95465 17.0762 9.81348C16.6933 9.61837 16.3816 9.30674 16.1865 8.92383C16.0454 8.6467 16.0013 8.37134 15.9824 8.14062C15.9694 7.98133 15.9665 7.80044 15.9658 7.6123L7.96973 6.46973ZM4.03516 19.4004C4.03516 19.6825 4.03582 19.8415 4.04395 19.9551C4.15762 19.9633 4.31662 19.9648 4.59961 19.9648H5.40039C5.68258 19.9648 5.84147 19.9632 5.95508 19.9551C5.96321 19.8415 5.96484 19.6826 5.96484 19.4004V18.5996C5.96484 18.3166 5.96327 18.1576 5.95508 18.0439C5.84147 18.0358 5.68252 18.0352 5.40039 18.0352H4.59961C4.31668 18.0352 4.15762 18.0358 4.04395 18.0439C4.03576 18.1576 4.03516 18.3167 4.03516 18.5996V19.4004ZM19.9648 6.59961C19.9648 6.31662 19.9633 6.15762 19.9551 6.04395C19.8415 6.03582 19.6825 6.03516 19.4004 6.03516H18.5996C18.3167 6.03516 18.1576 6.03576 18.0439 6.04395C18.0358 6.15762 18.0352 6.31668 18.0352 6.59961V7.40039C18.0352 7.68252 18.0358 7.84147 18.0439 7.95508C18.1576 7.96327 18.3166 7.96484 18.5996 7.96484H19.4004C19.6826 7.96484 19.8415 7.96321 19.9551 7.95508C19.9632 7.84147 19.9648 7.68258 19.9648 7.40039V6.59961ZM22.0352 7.40039C22.0352 7.66304 22.0354 7.92215 22.0176 8.14062C21.9987 8.37134 21.9546 8.6467 21.8135 8.92383C21.6184 9.30674 21.3067 9.61837 20.9238 9.81348C20.6467 9.95465 20.3713 9.99873 20.1406 10.0176C20.1065 10.0204 20.0712 10.0195 20.0352 10.0215V13.9775C20.0712 13.9795 20.1065 13.9796 20.1406 13.9824C20.3713 14.0013 20.6467 14.0454 20.9238 14.1865C21.2587 14.3572 21.5389 14.617 21.7344 14.9355L21.8135 15.0762L21.9023 15.2832C21.9753 15.4881 22.0034 15.6864 22.0176 15.8594C22.0354 16.0779 22.0352 16.337 22.0352 16.5996V17.4004C22.0352 17.663 22.0354 17.9221 22.0176 18.1406C21.9987 18.3713 21.9546 18.6467 21.8135 18.9238C21.6184 19.3067 21.3067 19.6184 20.9238 19.8135C20.6467 19.9546 20.3713 19.9987 20.1406 20.0176C19.9221 20.0354 19.663 20.0352 19.4004 20.0352H18.5996C18.337 20.0352 18.0779 20.0354 17.8594 20.0176C17.6287 19.9987 17.3533 19.9546 17.0762 19.8135C16.6933 19.6184 16.3816 19.3067 16.1865 18.9238C16.1079 18.7694 16.0603 18.6155 16.0293 18.4697L8.0332 19.6123C8.03248 19.8004 8.03057 19.9813 8.01758 20.1406C7.99873 20.3713 7.95465 20.6467 7.81348 20.9238C7.61837 21.3067 7.30674 21.6184 6.92383 21.8135C6.6467 21.9546 6.37134 21.9987 6.14062 22.0176C5.92215 22.0354 5.66304 22.0352 5.40039 22.0352H4.59961C4.33696 22.0352 4.07785 22.0354 3.85938 22.0176C3.62866 21.9987 3.3533 21.9546 3.07617 21.8135C2.69326 21.6184 2.38163 21.3067 2.18652 20.9238C2.04535 20.6467 2.00127 20.3713 1.98242 20.1406C1.9646 19.9221 1.96484 19.663 1.96484 19.4004V18.5996C1.96484 18.337 1.9646 18.0779 1.98242 17.8594C2.00127 17.6287 2.04535 17.3533 2.18652 17.0762L2.26563 16.9355C2.46114 16.617 2.74128 16.3572 3.07617 16.1865L3.2832 16.0977C3.48814 16.0247 3.6864 15.9966 3.85938 15.9824C3.89355 15.9796 3.92882 15.9795 3.96484 15.9775V8.02148C3.92884 8.01953 3.89353 8.02036 3.85938 8.01758C3.62866 7.99873 3.3533 7.95465 3.07617 7.81348C2.69326 7.61837 2.38163 7.30674 2.18652 6.92383C2.04535 6.6467 2.00127 6.37134 1.98242 6.14062C1.9646 5.92215 1.96484 5.66304 1.96484 5.40039V4.59961C1.96484 4.33696 1.9646 4.07785 1.98242 3.85938C2.00127 3.62866 2.04535 3.3533 2.18652 3.07617L2.26563 2.93555C2.46114 2.61698 2.74128 2.35716 3.07617 2.18652L3.2832 2.09766C3.48814 2.02472 3.6864 1.99656 3.85938 1.98242C4.07785 1.9646 4.33696 1.96484 4.59961 1.96484H5.40039C5.66304 1.96484 5.92215 1.9646 6.14062 1.98242C6.3136 1.99656 6.51186 2.02472 6.7168 2.09766L6.92383 2.18652L7.06445 2.26563C7.33734 2.4331 7.5669 2.66266 7.73438 2.93555L7.81348 3.07617L7.90234 3.2832C7.97529 3.48814 8.00345 3.6864 8.01758 3.85938C8.03055 4.0184 8.03247 4.19894 8.0332 4.38672L16.0293 5.5293C16.0603 5.38384 16.108 5.23024 16.1865 5.07617L16.2656 4.93555C16.4611 4.61698 16.7413 4.35716 17.0762 4.18652L17.2832 4.09766C17.4881 4.02472 17.6864 3.99656 17.8594 3.98242C18.0779 3.9646 18.337 3.96484 18.5996 3.96484H19.4004C19.663 3.96484 19.9221 3.9646 20.1406 3.98242C20.3713 4.00127 20.6467 4.04535 20.9238 4.18652C21.2587 4.35716 21.5389 4.61698 21.7344 4.93555L21.8135 5.07617L21.9023 5.2832C21.9753 5.48814 22.0034 5.6864 22.0176 5.85938C22.0354 6.07785 22.0352 6.33696 22.0352 6.59961V7.40039ZM4.03516 5.40039C4.03516 5.68252 4.03582 5.84147 4.04395 5.95508C4.15762 5.96327 4.31662 5.96484 4.59961 5.96484H5.40039C5.68258 5.96484 5.84147 5.96321 5.95508 5.95508C5.96321 5.84147 5.96484 5.68258 5.96484 5.40039V4.59961C5.96484 4.31662 5.96327 4.15762 5.95508 4.04395C5.84147 4.03582 5.68252 4.03516 5.40039 4.03516H4.59961C4.31668 4.03516 4.15762 4.03576 4.04395 4.04395C4.03576 4.15762 4.03516 4.31668 4.03516 4.59961V5.40039Z"/></svg>