<svg xmlns="http://www.w3.org/2000/svg" width="24" height="24" fill="none" viewBox="0 0 24 24"><path fill="currentColor" d="M4.084 2.84668C4.94525 2.41106 5.96199 2.41108 6.82326 2.84668C7.29355 3.08455 7.69699 3.50558 8.17091 3.97949L8.36525 4.1748C8.67748 4.48704 8.9523 4.75232 9.14064 5.04199C9.79457 6.04777 9.79437 7.34472 9.14064 8.35059C8.9523 8.64026 8.67749 8.90651 8.36525 9.21875C8.33611 9.24789 8.31416 9.27056 8.29493 9.29004C8.2853 9.2998 8.27705 9.3077 8.27052 9.31445C8.27252 9.31877 8.27478 9.32362 8.27736 9.3291C8.2869 9.34938 8.29804 9.3731 8.31349 9.40527C8.95962 10.751 9.84117 12.013 10.959 13.1309C12.0768 14.2487 13.3388 15.1302 14.6846 15.7764C14.7167 15.7918 14.7405 15.803 14.7608 15.8125C14.7657 15.8148 14.7704 15.8165 14.7744 15.8184C14.7812 15.8118 14.79 15.8046 14.7998 15.7949C14.8193 15.7757 14.8419 15.7529 14.8711 15.7236C15.1831 15.4116 15.4488 15.1375 15.7383 14.9492C16.7442 14.2952 18.0419 14.2952 19.0479 14.9492C19.3374 15.1375 19.603 15.4116 19.9151 15.7236L20.1104 15.9189C20.5842 16.3928 21.0053 16.7963 21.2432 17.2666C21.6787 18.1278 21.6788 19.1447 21.2432 20.0059C21.0053 20.4761 20.5843 20.8796 20.1104 21.3535L19.9522 21.5107C19.4544 22.0085 19.0834 22.3911 18.5733 22.6777C18.0181 22.9896 17.2218 23.1972 16.585 23.1953C16.0078 23.1936 15.5919 23.069 15.0459 22.9141C11.8471 22.0061 8.82846 20.2933 6.31251 17.7773C3.79657 15.2614 2.08372 12.2427 1.17579 9.04395C1.02083 8.49796 0.896276 8.08207 0.894544 7.50488C0.892649 6.86807 1.10024 6.07181 1.41212 5.5166C1.69875 5.00641 2.0812 4.63463 2.57911 4.13672L2.73634 3.97949C3.21024 3.50559 3.61372 3.08456 4.084 2.84668ZM5.88966 4.69336C5.61594 4.55491 5.29234 4.55504 5.01857 4.69336C4.9181 4.74418 4.78918 4.85439 4.20021 5.44336L4.04298 5.60059C3.48189 6.16168 3.33465 6.32058 3.21681 6.53027C3.07986 6.77407 2.96402 7.21939 2.96486 7.49902C2.96563 7.74741 3.0017 7.89609 3.16701 8.47852C3.98102 11.3465 5.51638 14.0535 7.77638 16.3135C10.0364 18.5734 12.7434 20.1088 15.6113 20.9229C16.1937 21.0881 16.3424 21.1242 16.5908 21.125C16.8705 21.1258 17.3158 21.01 17.5596 20.873C17.7693 20.7552 17.9282 20.6079 18.4893 20.0469L18.6465 19.8896C19.2355 19.3007 19.3457 19.1718 19.3965 19.0713C19.5348 18.7975 19.535 18.4739 19.3965 18.2002C19.3457 18.0998 19.2351 17.9714 18.6465 17.3828L18.4512 17.1875C18.0645 16.8008 17.9808 16.7248 17.919 16.6846C17.5992 16.4769 17.1869 16.4768 16.8672 16.6846C16.8053 16.7248 16.7217 16.8008 16.335 17.1875C16.2426 17.2799 16.1183 17.4082 15.9668 17.5166C15.4711 17.8715 14.7982 17.9861 14.2129 17.8154C14.0365 17.764 13.8932 17.6931 13.7881 17.6426C12.2348 16.8967 10.7803 15.8799 9.49513 14.5947C8.20982 13.3094 7.19314 11.8543 6.44728 10.3008C6.39681 10.1957 6.3248 10.0531 6.27345 9.87695C6.10288 9.29167 6.21837 8.61873 6.57326 8.12305L6.65724 8.01465C6.7434 7.91156 6.83307 7.82417 6.90236 7.75488C7.28857 7.36867 7.36405 7.2845 7.40431 7.22266C7.61226 6.90281 7.61226 6.49074 7.40431 6.1709C7.36407 6.10901 7.28932 6.02466 6.90236 5.6377L6.70704 5.44336C6.11867 4.85499 5.99008 4.74424 5.88966 4.69336ZM13.9649 10V3C13.9649 2.42839 14.4284 1.96484 15 1.96484C15.5714 1.96505 16.0342 2.42851 16.0342 3V10C16.0342 10.5715 15.5714 11.0349 15 11.0352C14.4284 11.0352 13.9649 10.5716 13.9649 10ZM18.9649 10V3C18.9649 2.42839 19.4284 1.96484 20 1.96484C20.5714 1.96505 21.0342 2.42852 21.0342 3V10C21.0342 10.5715 20.5714 11.0349 20 11.0352C19.4284 11.0352 18.9649 10.5716 18.9649 10Z"/></svg>