<svg xmlns="http://www.w3.org/2000/svg" width="24" height="24" fill="none" viewBox="0 0 24 24"><path fill="currentColor" d="M20.2676 2.26847C20.6718 1.86427 21.3273 1.86427 21.7315 2.26847C22.1355 2.67267 22.1356 3.32818 21.7315 3.73233L12.6709 12.7919C13.6031 13.6013 14.6168 14.2636 15.6846 14.7763C15.7167 14.7917 15.7405 14.8029 15.7608 14.8124C15.7659 14.8148 15.7703 14.8173 15.7744 14.8192C15.7813 14.8126 15.7898 14.8047 15.7998 14.7948C15.8193 14.7756 15.842 14.7537 15.8711 14.7245C16.1833 14.4123 16.4487 14.1375 16.7383 13.9491C17.7442 13.2951 19.0419 13.2951 20.0479 13.9491C20.3375 14.1375 20.6028 14.4123 20.9151 14.7245L21.1104 14.9189C21.5843 15.3928 22.0053 15.7962 22.2432 16.2665C22.6787 17.1278 22.6788 18.1445 22.2432 19.0058C22.0053 19.4761 21.5843 19.8795 21.1104 20.3534L20.9522 20.5107C20.4543 21.0085 20.0834 21.391 19.5733 21.6776C19.0181 21.9895 18.2218 22.1971 17.585 22.1952C17.0077 22.1935 16.5919 22.0689 16.0459 21.914C13.1397 21.0891 10.3844 19.5976 8.01759 17.4452L3.73146 21.7323C3.32729 22.1362 2.67172 22.1363 2.26759 21.7323C1.86348 21.3282 1.86363 20.6727 2.26759 20.2685L20.2676 2.26847ZM9.48243 15.9804C11.5912 17.8774 14.0357 19.1917 16.6113 19.9228C17.1938 20.0881 17.3424 20.1241 17.5908 20.1249C17.8705 20.1257 18.3158 20.0099 18.5596 19.873C18.7692 19.7551 18.9283 19.6078 19.4893 19.0468L19.6465 18.8896C20.2355 18.3006 20.3457 18.1717 20.3965 18.0712C20.5348 17.7974 20.5349 17.4738 20.3965 17.2001C20.3456 17.0997 20.235 16.9712 19.6465 16.3827L19.4512 16.1874C19.0648 15.801 18.9808 15.7257 18.919 15.6855C18.5991 15.4775 18.187 15.4775 17.8672 15.6855C17.8054 15.7257 17.7213 15.8011 17.335 16.1874C17.2426 16.2798 17.1183 16.4081 16.9668 16.5165C16.4712 16.8714 15.7982 16.9868 15.2129 16.8163C15.0365 16.7649 14.8932 16.693 14.7881 16.6425C13.5134 16.0304 12.3078 15.2332 11.2051 14.2577L9.48243 15.9804ZM5.084 1.84659C5.94523 1.41099 6.96201 1.41101 7.82326 1.84659C8.29355 2.08446 8.697 2.50549 9.17091 2.9794L9.36525 3.17472C9.67746 3.48693 9.9523 3.75226 10.1406 4.0419C10.7947 5.04784 10.7947 6.34554 10.1406 7.35147C9.9523 7.64109 9.67744 7.90647 9.36525 8.21866C9.33611 8.2478 9.31416 8.27047 9.29493 8.28995C9.2851 8.29992 9.27615 8.30753 9.26954 8.31436C9.27159 8.31877 9.2747 8.32338 9.27736 8.32901C9.2869 8.34928 9.29805 8.37303 9.31349 8.40518C9.42569 8.63888 9.54456 8.87027 9.67091 9.09854C9.94772 9.59866 9.76673 10.228 9.26661 10.5048C8.7665 10.7816 8.13718 10.6006 7.86036 10.1005C7.71469 9.8373 7.57664 9.57109 7.44728 9.30167C7.39679 9.19652 7.32486 9.05322 7.27345 8.87686C7.10292 8.29158 7.21834 7.61862 7.57326 7.12296L7.65724 7.01456C7.74338 6.9115 7.83309 6.82406 7.90236 6.75479C8.28869 6.36846 8.36406 6.28442 8.40431 6.22257C8.61226 5.90272 8.61227 5.49066 8.40431 5.17081C8.36408 5.10896 8.28877 5.025 7.90236 4.63858L7.70704 4.44327C7.11858 3.85481 6.99009 3.74414 6.88966 3.69327C6.61596 3.55483 6.29232 3.55498 6.01857 3.69327C5.9181 3.74409 5.78918 3.8543 5.20021 4.44327L5.04298 4.6005C4.48197 5.16151 4.33464 5.32053 4.21681 5.53018C4.07986 5.77398 3.96402 6.2193 3.96486 6.49893C3.96562 6.74738 4.0017 6.896 4.16701 7.47843C4.64478 9.16173 5.37104 10.7892 6.34572 12.3026C6.65516 12.7832 6.51655 13.4238 6.03615 13.7333C5.55566 14.0427 4.91504 13.9041 4.60548 13.4237C3.51829 11.7355 2.7084 9.92035 2.17579 8.04386C2.02082 7.49785 1.89626 7.08202 1.89454 6.50479C1.89265 5.86798 2.10024 5.07172 2.41212 4.51651C2.69872 4.00641 3.08129 3.63543 3.57911 3.13761L3.73634 2.9794C4.21026 2.50549 4.6137 2.08446 5.084 1.84659Z"/></svg>