<svg xmlns="http://www.w3.org/2000/svg" width="24" height="24" fill="none" viewBox="0 0 24 24"><path fill="currentColor" d="M13.9648 3.03516H10.0352V3.40039C10.0352 3.68252 10.0358 3.84147 10.0439 3.95508C10.1576 3.96327 10.3166 3.96484 10.5996 3.96484H13.4004C13.6826 3.96484 13.8415 3.96321 13.9551 3.95508C13.9632 3.84147 13.9648 3.68258 13.9648 3.40039V3.03516ZM20.0352 18.7998C20.0352 19.3428 20.0354 19.8128 20.0039 20.1982C19.9714 20.5956 19.8998 20.9939 19.7041 21.3779C19.4131 21.9489 18.9489 22.4131 18.3779 22.7041C17.9939 22.8998 17.5956 22.9714 17.1982 23.0039C16.8128 23.0354 16.3428 23.0352 15.7998 23.0352H8.2002C7.65722 23.0352 7.18718 23.0354 6.80176 23.0039C6.40438 22.9714 6.00608 22.8998 5.62207 22.7041C5.05107 22.4131 4.58686 21.9489 4.2959 21.3779C4.10024 20.9939 4.02859 20.5956 3.99609 20.1982C3.9646 19.8128 3.96484 19.3428 3.96484 18.7998V5.2002C3.96484 4.65722 3.9646 4.18718 3.99609 3.80176C4.02859 3.40438 4.10024 3.00608 4.2959 2.62207C4.58686 2.05107 5.05107 1.58686 5.62207 1.2959C6.00608 1.10024 6.40438 1.02859 6.80176 0.996094C7.18718 0.964603 7.65722 0.964844 8.2002 0.964844H15.7998C16.3428 0.964844 16.8128 0.964603 17.1982 0.996094C17.5956 1.02859 17.9939 1.10024 18.3779 1.2959C18.9489 1.58686 19.4131 2.05107 19.7041 2.62207C19.8998 3.00608 19.9714 3.40438 20.0039 3.80176C20.0354 4.18718 20.0352 4.65722 20.0352 5.2002V18.7998ZM16.0352 3.40039C16.0352 3.66304 16.0354 3.92215 16.0176 4.14062C15.9987 4.37134 15.9546 4.6467 15.8135 4.92383C15.6184 5.30674 15.3067 5.61837 14.9238 5.81348C14.6467 5.95465 14.3713 5.99873 14.1406 6.01758C13.9221 6.0354 13.663 6.03516 13.4004 6.03516H10.5996C10.337 6.03516 10.0779 6.0354 9.85938 6.01758C9.62866 5.99873 9.3533 5.95465 9.07617 5.81348C8.69326 5.61837 8.38163 5.30674 8.18652 4.92383C8.04535 4.6467 8.00127 4.37134 7.98242 4.14062C7.9646 3.92215 7.96484 3.66304 7.96484 3.40039V3.03516C7.51877 3.03573 7.21203 3.03888 6.9707 3.05859C6.7012 3.08061 6.60521 3.11837 6.56152 3.14062C6.38033 3.23308 6.23308 3.38033 6.14062 3.56152C6.11837 3.60521 6.08061 3.7012 6.05859 3.9707C6.03559 4.25228 6.03516 4.62309 6.03516 5.2002V18.7998C6.03516 19.3769 6.03559 19.7477 6.05859 20.0293C6.08061 20.2988 6.11837 20.3948 6.14062 20.4385C6.23308 20.6197 6.38032 20.7669 6.56152 20.8594C6.60521 20.8816 6.7012 20.9194 6.9707 20.9414C7.25228 20.9644 7.62309 20.9648 8.2002 20.9648H15.7998C16.3769 20.9648 16.7477 20.9644 17.0293 20.9414C17.2988 20.9194 17.3948 20.8816 17.4385 20.8594C17.6197 20.7669 17.7669 20.6197 17.8594 20.4385C17.8816 20.3948 17.9194 20.2988 17.9414 20.0293C17.9644 19.7477 17.9648 19.3769 17.9648 18.7998V5.2002C17.9648 4.62309 17.9644 4.25228 17.9414 3.9707C17.9194 3.7012 17.8816 3.60521 17.8594 3.56152C17.7669 3.38033 17.6197 3.23308 17.4385 3.14062C17.3948 3.11837 17.2988 3.08061 17.0293 3.05859C16.788 3.03888 16.4812 3.03573 16.0352 3.03516V3.40039Z"/></svg>