<svg xmlns="http://www.w3.org/2000/svg" width="24" height="24" fill="none" viewBox="0 0 24 24"><g clip-path="url(#a)"><path fill="currentColor" d="M4.084 2.84663C4.94525 2.41101 5.96199 2.41103 6.82326 2.84663C7.29355 3.08451 7.697 3.50553 8.17091 3.97945L8.36525 4.17476C8.67748 4.487 8.9523 4.75228 9.14064 5.04195C9.79457 6.04773 9.79437 7.34467 9.14064 8.35054C8.9523 8.64021 8.67749 8.90647 8.36525 9.2187C8.33611 9.24785 8.31416 9.27051 8.29493 9.28999C8.2853 9.29976 8.27705 9.30765 8.27052 9.31441C8.27252 9.31872 8.27478 9.32358 8.27736 9.32906C8.2869 9.34933 8.29804 9.37305 8.31349 9.40523C8.95962 10.751 9.84117 12.013 10.959 13.1308C12.0768 14.2486 13.3388 15.1302 14.6846 15.7763C14.7167 15.7917 14.7405 15.8029 14.7608 15.8125C14.7657 15.8148 14.7704 15.8165 14.7744 15.8183C14.7812 15.8118 14.79 15.8045 14.7998 15.7949C14.8193 15.7756 14.8419 15.7528 14.8711 15.7236C15.1831 15.4116 15.4488 15.1374 15.7383 14.9492C16.7442 14.2951 18.0419 14.2951 19.0479 14.9492C19.3374 15.1374 19.603 15.4116 19.9151 15.7236L20.1104 15.9189C20.5842 16.3928 21.0053 16.7963 21.2432 17.2666C21.6787 18.1278 21.6788 19.1446 21.2432 20.0058C21.0053 20.4761 20.5843 20.8796 20.1104 21.3535L19.9522 21.5107C19.4544 22.0085 19.0834 22.3911 18.5733 22.6777C18.0181 22.9896 17.2218 23.1972 16.585 23.1953C16.0078 23.1935 15.5919 23.069 15.0459 22.914C11.8471 22.0061 8.82846 20.2932 6.31251 17.7773C3.79657 15.2614 2.08372 12.2427 1.17579 9.0439C1.02083 8.49792 0.896276 8.08202 0.894544 7.50484C0.892649 6.86803 1.10024 6.07177 1.41212 5.51656C1.69875 5.00636 2.0812 4.63459 2.57911 4.13667L2.73634 3.97945C3.21024 3.50554 3.61372 3.08451 4.084 2.84663ZM5.88966 4.69331C5.61594 4.55487 5.29234 4.55499 5.01857 4.69331C4.9181 4.74413 4.78918 4.85434 4.20021 5.44331L4.04298 5.60054C3.48189 6.16164 3.33465 6.32053 3.21681 6.53023C3.07986 6.77403 2.96402 7.21935 2.96486 7.49898C2.96563 7.74736 3.0017 7.89604 3.16701 8.47847C3.98102 11.3464 5.51638 14.0534 7.77638 16.3134C10.0364 18.5734 12.7434 20.1088 15.6113 20.9228C16.1937 21.0881 16.3424 21.1242 16.5908 21.125C16.8705 21.1258 17.3158 21.01 17.5596 20.873C17.7693 20.7552 17.9282 20.6079 18.4893 20.0468L18.6465 19.8896C19.2355 19.3006 19.3457 19.1717 19.3965 19.0712C19.5348 18.7975 19.535 18.4739 19.3965 18.2001C19.3457 18.0997 19.2351 17.9714 18.6465 17.3828L18.4512 17.1875C18.0645 16.8008 17.9808 16.7247 17.919 16.6845C17.5992 16.4768 17.1869 16.4768 16.8672 16.6845C16.8053 16.7247 16.7217 16.8008 16.335 17.1875C16.2426 17.2798 16.1183 17.4081 15.9668 17.5166C15.4711 17.8715 14.7982 17.986 14.2129 17.8154C14.0365 17.764 13.8932 17.693 13.7881 17.6425C12.2348 16.8967 10.7803 15.8799 9.49513 14.5947C8.20982 13.3094 7.19314 11.8542 6.44728 10.3007C6.39681 10.1956 6.3248 10.0531 6.27345 9.87691C6.10288 9.29162 6.21837 8.61868 6.57326 8.123L6.65724 8.0146C6.7434 7.91151 6.83307 7.82413 6.90236 7.75484C7.28857 7.36862 7.36405 7.28445 7.40431 7.22261C7.61226 6.90277 7.61226 6.4907 7.40431 6.17085C7.36407 6.10897 7.28932 6.02461 6.90236 5.63765L6.70704 5.44331C6.11867 4.85494 5.99008 4.7442 5.88966 4.69331ZM13.0342 5.80171C13.1437 5.24074 13.6871 4.87488 14.2481 4.98433C15.4267 5.21434 16.5102 5.79049 17.3594 6.6396C18.2087 7.48894 18.7856 8.57299 19.0156 9.75191C19.125 10.3128 18.759 10.8562 18.1983 10.9658C17.6373 11.0752 17.0929 10.7093 16.9834 10.1484C16.8323 9.37384 16.4535 8.66149 15.8955 8.10347C15.3376 7.54564 14.626 7.16668 13.8516 7.01558C13.2905 6.90612 12.9247 6.36275 13.0342 5.80171ZM14.1641 0.971634C16.4267 1.22303 18.5367 2.23596 20.1475 3.84468C21.7582 5.45338 22.7741 7.56197 23.0283 9.82417C23.0922 10.3922 22.6833 10.9049 22.1152 10.9687C21.5472 11.0325 21.0346 10.6236 20.9707 10.0556C20.769 8.26003 19.963 6.58641 18.6846 5.30952C17.4061 4.03265 15.7314 3.22781 13.9356 3.02827C13.3675 2.96516 12.9574 2.45379 13.0205 1.8857C13.0836 1.31758 13.596 0.90852 14.1641 0.971634Z"/></g><defs><clipPath id="a"><path fill="#fff" d="M0 0H24V24H0z"/></clipPath></defs></svg>