<svg xmlns="http://www.w3.org/2000/svg" width="24" height="24" fill="none" viewBox="0 0 24 24"><path fill="currentColor" d="M17.9648 5.2002C17.9648 4.62309 17.9644 4.25228 17.9414 3.9707C17.9194 3.7012 17.8816 3.60521 17.8594 3.56152C17.7669 3.38033 17.6197 3.23308 17.4385 3.14062C17.3948 3.11837 17.2988 3.08061 17.0293 3.05859C16.7477 3.03559 16.3769 3.03516 15.7998 3.03516H8.2002C7.62309 3.03516 7.25228 3.03559 6.9707 3.05859C6.7012 3.08061 6.60521 3.11837 6.56152 3.14062C6.38033 3.23308 6.23308 3.38033 6.14062 3.56152C6.11837 3.60521 6.08061 3.7012 6.05859 3.9707C6.03559 4.25228 6.03516 4.62309 6.03516 5.2002V18.7998C6.03516 19.3769 6.03559 19.7477 6.05859 20.0293C6.08061 20.2988 6.11837 20.3948 6.14062 20.4385C6.23308 20.6197 6.38032 20.7669 6.56152 20.8594C6.60521 20.8816 6.7012 20.9194 6.9707 20.9414C7.25228 20.9644 7.62309 20.9648 8.2002 20.9648H15.7998C16.3769 20.9648 16.7477 20.9644 17.0293 20.9414C17.2988 20.9194 17.3948 20.8816 17.4385 20.8594C17.6197 20.7669 17.7669 20.6197 17.8594 20.4385C17.8816 20.3948 17.9194 20.2988 17.9414 20.0293C17.9644 19.7477 17.9648 19.3769 17.9648 18.7998V5.2002ZM12 15.9648C12.8478 15.9648 13.5352 16.6522 13.5352 17.5C13.5352 18.3478 12.8478 19.0352 12 19.0352C11.1522 19.0352 10.4648 18.3478 10.4648 17.5C10.4648 16.6522 11.1522 15.9648 12 15.9648ZM20.0352 18.7998C20.0352 19.3428 20.0354 19.8128 20.0039 20.1982C19.9714 20.5956 19.8998 20.9939 19.7041 21.3779C19.4131 21.9489 18.9489 22.4131 18.3779 22.7041C17.9939 22.8998 17.5956 22.9714 17.1982 23.0039C16.8128 23.0354 16.3428 23.0352 15.7998 23.0352H8.2002C7.65722 23.0352 7.18718 23.0354 6.80176 23.0039C6.40438 22.9714 6.00608 22.8998 5.62207 22.7041C5.05107 22.4131 4.58686 21.9489 4.2959 21.3779C4.10024 20.9939 4.02859 20.5956 3.99609 20.1982C3.9646 19.8128 3.96484 19.3428 3.96484 18.7998V5.2002C3.96484 4.65722 3.9646 4.18718 3.99609 3.80176C4.02859 3.40438 4.10024 3.00608 4.2959 2.62207C4.58686 2.05107 5.05107 1.58686 5.62207 1.2959C6.00608 1.10024 6.40438 1.02859 6.80176 0.996094C7.18718 0.964603 7.65722 0.964844 8.2002 0.964844H15.7998C16.3428 0.964844 16.8128 0.964603 17.1982 0.996094C17.5956 1.02859 17.9939 1.10024 18.3779 1.2959C18.9489 1.58686 19.4131 2.05107 19.7041 2.62207C19.8998 3.00608 19.9714 3.40438 20.0039 3.80176C20.0354 4.18718 20.0352 4.65722 20.0352 5.2002V18.7998Z"/></svg>