<svg xmlns="http://www.w3.org/2000/svg" width="24" height="24" fill="none" viewBox="0 0 24 24"><path fill="currentColor" d="M4.084 2.84672C4.94525 2.4111 5.96199 2.41112 6.82326 2.84672C7.29355 3.0846 7.69699 3.50562 8.17091 3.97954L8.36525 4.17485C8.67748 4.48709 8.9523 4.75237 9.14064 5.04204C9.79457 6.04782 9.79437 7.34476 9.14064 8.35063C8.9523 8.6403 8.67749 8.90656 8.36525 9.21879C8.33611 9.24794 8.31416 9.2706 8.29493 9.29008C8.2853 9.29985 8.27705 9.30774 8.27052 9.3145C8.27252 9.31881 8.27478 9.32367 8.27736 9.32915C8.2869 9.34942 8.29804 9.37314 8.31349 9.40532C8.95962 10.7511 9.84117 12.0131 10.959 13.1309C12.0768 14.2487 13.3388 15.1303 14.6846 15.7764C14.7167 15.7918 14.7405 15.803 14.7608 15.8125C14.7657 15.8149 14.7704 15.8165 14.7744 15.8184C14.7812 15.8119 14.79 15.8046 14.7998 15.795C14.8193 15.7757 14.8419 15.7529 14.8711 15.7237C15.1831 15.4116 15.4488 15.1375 15.7383 14.9493C16.7442 14.2952 18.0419 14.2952 19.0479 14.9493C19.3374 15.1375 19.603 15.4116 19.9151 15.7237L20.1104 15.919C20.5842 16.3929 21.0053 16.7964 21.2432 17.2666C21.6787 18.1279 21.6788 19.1447 21.2432 20.0059C21.0053 20.4762 20.5843 20.8797 20.1104 21.3536L19.9522 21.5108C19.4544 22.0086 19.0834 22.3912 18.5733 22.6778C18.0181 22.9897 17.2218 23.1972 16.585 23.1954C16.0078 23.1936 15.5919 23.0691 15.0459 22.9141C11.8471 22.0062 8.82846 20.2933 6.31251 17.7774C3.79657 15.2614 2.08372 12.2428 1.17579 9.04399C1.02083 8.49801 0.896276 8.08211 0.894544 7.50493C0.892649 6.86812 1.10024 6.07186 1.41212 5.51665C1.69875 5.00645 2.0812 4.63468 2.57911 4.13676L2.73634 3.97954C3.21024 3.50563 3.61372 3.0846 4.084 2.84672ZM5.88966 4.6934C5.61594 4.55496 5.29234 4.55508 5.01857 4.6934C4.9181 4.74422 4.78918 4.85443 4.20021 5.4434L4.04298 5.60063C3.48189 6.16173 3.33465 6.32062 3.21681 6.53032C3.07986 6.77412 2.96402 7.21944 2.96486 7.49907C2.96563 7.74745 3.0017 7.89613 3.16701 8.47856C3.98102 11.3465 5.51638 14.0535 7.77638 16.3135C10.0364 18.5735 12.7434 20.1089 15.6113 20.9229C16.1937 21.0882 16.3424 21.1243 16.5908 21.125C16.8705 21.1259 17.3158 21.01 17.5596 20.8731C17.7693 20.7553 17.9282 20.608 18.4893 20.0469L18.6465 19.8897C19.2355 19.3007 19.3457 19.1718 19.3965 19.0713C19.5348 18.7976 19.535 18.474 19.3965 18.2002C19.3457 18.0998 19.2351 17.9715 18.6465 17.3829L18.4512 17.1875C18.0645 16.8009 17.9808 16.7248 17.919 16.6846C17.5992 16.4769 17.1869 16.4769 16.8672 16.6846C16.8053 16.7248 16.7217 16.8009 16.335 17.1875C16.2426 17.2799 16.1183 17.4082 15.9668 17.5166C15.4711 17.8716 14.7982 17.9861 14.2129 17.8155C14.0365 17.7641 13.8932 17.6931 13.7881 17.6426C12.2348 16.8968 10.7803 15.88 9.49513 14.5948C8.20982 13.3095 7.19314 11.8543 6.44728 10.3008C6.39681 10.1957 6.3248 10.0532 6.27345 9.877C6.10288 9.29171 6.21837 8.61877 6.57326 8.12309L6.65724 8.01469C6.7434 7.9116 6.83307 7.82421 6.90236 7.75493C7.28857 7.36871 7.36405 7.28454 7.40431 7.2227C7.61226 6.90286 7.61226 6.49079 7.40431 6.17094C7.36407 6.10906 7.28932 6.0247 6.90236 5.63774L6.70704 5.4434C6.11867 4.85503 5.99008 4.74429 5.88966 4.6934ZM20.2676 2.2686C20.6718 1.86441 21.3273 1.86441 21.7315 2.2686C22.1354 2.67274 22.1354 3.32735 21.7315 3.73149L19.4629 6.00004L21.7315 8.2686C22.1354 8.67274 22.1354 9.32735 21.7315 9.73149C21.3273 10.1357 20.6718 10.1357 20.2676 9.73149L17.999 7.46293L15.7315 9.73149C15.3273 10.1357 14.6718 10.1357 14.2676 9.73149C13.8638 9.32737 13.8638 8.67272 14.2676 8.2686L16.5361 6.00004L14.2676 3.73149C13.8638 3.32737 13.8638 2.67272 14.2676 2.2686C14.6718 1.86441 15.3273 1.86441 15.7315 2.2686L17.999 4.53618L20.2676 2.2686Z"/></svg>