<svg xmlns="http://www.w3.org/2000/svg" width="24" height="24" fill="none" viewBox="0 0 24 24"><path fill="currentColor" d="M5.084 1.84647C5.94523 1.41086 6.96201 1.41089 7.82326 1.84647C8.29355 2.08434 8.697 2.50537 9.17091 2.97928L9.36525 3.17459C9.67746 3.48681 9.9523 3.75214 10.1406 4.04178C10.7947 5.04772 10.7947 6.34541 10.1406 7.35135C9.9523 7.64097 9.67743 7.90635 9.36525 8.21854C9.33611 8.24768 9.31416 8.27035 9.29493 8.28983C9.28533 8.29956 9.27704 8.3075 9.27052 8.31424C9.27252 8.31855 9.27478 8.32341 9.27736 8.32889C9.2869 8.34916 9.29805 8.3729 9.31349 8.40506C9.95963 9.75083 10.8411 11.0128 11.959 12.1306C13.0768 13.2485 14.3388 14.13 15.6846 14.7762C15.7167 14.7916 15.7405 14.8027 15.7608 14.8123C15.7659 14.8147 15.7703 14.8172 15.7744 14.8191C15.7813 14.8125 15.7898 14.8046 15.7998 14.7947C15.8193 14.7755 15.842 14.7535 15.8711 14.7244C16.1833 14.4122 16.4487 14.1373 16.7383 13.949C17.7442 13.295 19.0419 13.295 20.0479 13.949C20.3375 14.1373 20.6028 14.4122 20.9151 14.7244L21.1104 14.9187C21.5843 15.3926 22.0053 15.7961 22.2432 16.2664C22.6787 17.1276 22.6788 18.1444 22.2432 19.0056C22.0053 19.4759 21.5843 19.8794 21.1104 20.3533L20.9522 20.5105C20.4543 21.0084 20.0834 21.3909 19.5733 21.6775C19.0181 21.9894 18.2218 22.197 17.585 22.1951C17.0077 22.1934 16.5919 22.0688 16.0459 21.9139C12.8471 21.0059 9.82848 19.2931 7.31251 16.7771C4.79655 14.2612 3.08372 11.2426 2.17579 8.04373C2.02082 7.49773 1.89626 7.0819 1.89454 6.50467C1.89265 5.86786 2.10024 5.0716 2.41212 4.51639C2.69872 4.00629 3.08129 3.6353 3.57911 3.13748L3.73634 2.97928C4.21026 2.50536 4.6137 2.08434 5.084 1.84647ZM6.88966 3.69315C6.61596 3.55471 6.29233 3.55485 6.01857 3.69315C5.9181 3.74396 5.78918 3.85418 5.20021 4.44315L5.04298 4.60037C4.48197 5.16139 4.33464 5.32041 4.21681 5.53006C4.07986 5.77386 3.96402 6.21918 3.96486 6.49881C3.96562 6.74725 4.0017 6.89588 4.16701 7.4783C4.98102 10.3463 6.51638 13.0533 8.77638 15.3133C11.0364 17.5733 13.7434 19.1086 16.6113 19.9226C17.1938 20.0879 17.3424 20.124 17.5908 20.1248C17.8705 20.1256 18.3158 20.0098 18.5596 19.8728C18.7692 19.755 18.9283 19.6077 19.4893 19.0467L19.6465 18.8894C20.2355 18.3005 20.3457 18.1715 20.3965 18.0711C20.5348 17.7973 20.5349 17.4737 20.3965 17.2C20.3456 17.0996 20.235 16.9711 19.6465 16.3826L19.4512 16.1873C19.0648 15.8009 18.9808 15.7256 18.919 15.6853C18.5991 15.4774 18.187 15.4774 17.8672 15.6853C17.8054 15.7256 17.7213 15.8009 17.335 16.1873C17.2426 16.2796 17.1183 16.4079 16.9668 16.5164C16.4712 16.8713 15.7982 16.9867 15.2129 16.8162C15.0365 16.7648 14.8932 16.6928 14.7881 16.6424C13.2348 15.8965 11.7803 14.8797 10.4951 13.5945C9.20992 12.3093 8.19312 10.8549 7.44728 9.30155C7.3968 9.1964 7.32486 9.0531 7.27345 8.87674C7.10291 8.29145 7.21835 7.61849 7.57326 7.12284L7.65724 7.01444C7.74338 6.91138 7.83308 6.82394 7.90236 6.75467C8.2887 6.36833 8.36407 6.28429 8.40431 6.22244C8.61226 5.9026 8.61226 5.49053 8.40431 5.17069C8.36407 5.10883 8.28877 5.02488 7.90236 4.63846L7.70704 4.44315C7.11858 3.85469 6.99009 3.74402 6.88966 3.69315Z"/></svg>