<svg xmlns="http://www.w3.org/2000/svg" width="24" height="24" fill="none" viewBox="0 0 24 24"><path fill="currentColor" d="M20.9649 18.5049V18.3066C20.9649 17.8058 20.9615 17.6705 20.9317 17.5107C20.8625 17.1393 20.5466 16.5999 20.2559 16.3584C20.1238 16.2487 20.0543 16.2088 19.7657 16.0479C17.4681 14.7662 14.821 14.0352 12.0001 14.0352C9.17919 14.0352 6.53204 14.7662 4.23445 16.0479C3.94589 16.2088 3.87634 16.2487 3.74422 16.3584C3.45357 16.5999 3.13763 17.1393 3.06844 17.5107C3.0387 17.6705 3.03523 17.8058 3.03523 18.3066V18.5049C3.03524 19.0137 3.03955 19.1191 3.05281 19.1865C3.12853 19.5707 3.42942 19.8715 3.81355 19.9473C3.88097 19.9605 3.98636 19.9648 4.49519 19.9648H4.74031C4.99763 19.9648 5.0515 19.9634 5.08601 19.96C5.54398 19.9147 5.90603 19.5527 5.95125 19.0947C5.95465 19.0602 5.95613 19.0063 5.95613 18.749C5.95613 18.6923 5.95531 18.6147 5.96199 18.5283C6.01853 17.7989 6.50146 17.1182 7.17098 16.8232L7.34773 16.7549C8.80503 16.243 10.3712 15.9648 12.0001 15.9648C13.629 15.9648 15.1951 16.243 16.6524 16.7549C16.6967 16.7704 16.7533 16.7898 16.8292 16.8232C17.457 17.0999 17.9206 17.7155 18.0225 18.3926L18.0382 18.5283L18.044 18.749C18.044 19.0063 18.0455 19.0602 18.0489 19.0947C18.0941 19.5527 18.4562 19.9147 18.9141 19.96C18.9487 19.9634 19.0025 19.9648 19.2598 19.9648H19.505C20.0138 19.9648 20.1192 19.9605 20.1866 19.9473C20.5707 19.8715 20.8716 19.5707 20.9473 19.1865C20.9606 19.1191 20.9649 19.0137 20.9649 18.5049ZM12.0001 5.96484C14.0836 5.96484 15.9566 6.87213 17.2432 8.30957C17.6245 8.7355 17.5881 9.39027 17.1622 9.77148C16.7363 10.1523 16.0824 10.1161 15.7012 9.69043C14.7906 8.67302 13.4704 8.03516 12.0001 8.03516C10.5297 8.03517 9.2095 8.67303 8.2989 9.69043C7.91775 10.1161 7.26384 10.1523 6.83797 9.77148C6.41204 9.39027 6.37569 8.7355 6.75691 8.30957C8.04357 6.87211 9.91656 5.96486 12.0001 5.96484ZM12.0001 1.96484C15.0868 1.96484 17.8794 3.23364 19.8809 5.27539C20.281 5.68359 20.2744 6.33913 19.8663 6.73926C19.4581 7.13941 18.8026 7.1328 18.4024 6.72461C16.7741 5.06364 14.5082 4.03516 12.0001 4.03516C9.49202 4.03518 7.226 5.06365 5.59773 6.72461C5.19757 7.13273 4.54203 7.13939 4.13387 6.73926C3.72581 6.33915 3.71926 5.68357 4.11922 5.27539C6.12076 3.23366 8.9134 1.96486 12.0001 1.96484ZM23.0352 18.5049C23.0352 18.9161 23.0398 19.2714 22.9776 19.5869C22.7395 20.795 21.7951 21.7394 20.587 21.9775C20.2714 22.0397 19.9161 22.0352 19.505 22.0352H19.2598C19.0519 22.0352 18.8725 22.0364 18.711 22.0205C17.2707 21.8783 16.1306 20.7382 15.9884 19.2979C15.9724 19.1364 15.9737 18.9569 15.9737 18.749C15.9737 18.7329 15.9737 18.7206 15.9737 18.71C15.9716 18.7092 15.9693 18.7089 15.9669 18.708C14.727 18.2725 13.3921 18.0352 12.0001 18.0352C10.608 18.0352 9.27319 18.2725 8.03328 18.708C8.03087 18.7089 8.0285 18.7092 8.02644 18.71C8.02641 18.7206 8.02644 18.7329 8.02644 18.749C8.02644 18.9569 8.02771 19.1364 8.0118 19.2979C7.86957 20.7382 6.72949 21.8783 5.28914 22.0205C5.1277 22.0364 4.94822 22.0352 4.74031 22.0352H4.49519C4.08401 22.0352 3.72871 22.0397 3.41316 21.9775C2.20505 21.7394 1.26068 20.795 1.02254 19.5869C0.96034 19.2714 0.964917 18.9161 0.96492 18.5049V18.3066C0.96492 17.8573 0.961653 17.5166 1.03328 17.1318C1.19099 16.2853 1.75951 15.3169 2.42195 14.7666C2.71604 14.5224 2.93627 14.4007 3.22566 14.2393C5.8236 12.79 8.8172 11.9648 12.0001 11.9648C15.183 11.9648 18.1766 12.79 20.7745 14.2393C21.0639 14.4007 21.2841 14.5224 21.5782 14.7666C22.2406 15.3169 22.8092 16.2853 22.9669 17.1318C23.0385 17.5166 23.0352 17.8573 23.0352 18.3066V18.5049Z"/></svg>