<svg xmlns="http://www.w3.org/2000/svg" width="24" height="24" fill="none" viewBox="0 0 24 24"><g clip-path="url(#a)"><path fill="currentColor" d="M9.09756 5.01008C9.2263 4.99716 9.57738 4.94005 9.94228 5.04426L10.0995 5.09895L10.2138 5.15461C10.4768 5.29433 10.7033 5.51518 10.8456 5.77473C10.9695 6.00078 11.0075 6.21815 11.0224 6.37922C11.0355 6.52101 11.0351 6.68058 11.0351 6.80012V12.9652H17.2001C17.3196 12.9652 17.4793 12.9638 17.621 12.9769C17.7819 12.9918 17.9987 13.03 18.2245 13.1536C18.4841 13.2959 18.7058 13.5225 18.8456 13.7855L18.9003 13.9007L18.956 14.057C19.0603 14.4217 19.0031 14.7726 18.9901 14.9017C18.8428 16.3699 18.3375 17.7853 17.5126 19.0198C16.5199 20.5055 15.1086 21.6631 13.4579 22.347C11.807 23.0308 9.98982 23.2103 8.23721 22.8616C6.48466 22.513 4.87477 21.6525 3.61123 20.389C2.34775 19.1255 1.48724 17.5155 1.13857 15.763C0.789957 14.0104 0.968414 12.1932 1.65224 10.5423C2.33608 8.89137 3.49457 7.4804 4.98037 6.48762C6.21482 5.6628 7.62944 5.15743 9.09756 5.01008ZM8.96474 7.11359C7.95502 7.26538 6.98678 7.63734 6.13076 8.2093C4.98548 8.97455 4.09251 10.0618 3.56533 11.3343C3.03817 12.607 2.90012 14.0077 3.16885 15.3587C3.43759 16.7098 4.10102 17.951 5.0751 18.9251C6.04915 19.8991 7.2905 20.5626 8.6415 20.8314C9.99233 21.1 11.3925 20.9619 12.6649 20.4349C13.9376 19.9077 15.0256 19.0148 15.7909 17.8695C16.3628 17.0135 16.7338 16.0451 16.8856 15.0355H10.7997C10.6769 15.0355 10.5227 15.0357 10.3876 15.0247C10.2402 15.0127 10.0263 14.9815 9.80264 14.8675C9.51398 14.7203 9.27884 14.4853 9.13174 14.1966C9.01792 13.973 8.98752 13.7599 8.97549 13.6126C8.96444 13.4773 8.96474 13.3225 8.96474 13.1995V7.11359ZM14.0575 1.04426C14.4224 0.940053 14.7735 0.997165 14.9022 1.01008C16.9671 1.21727 18.9082 2.13127 20.3886 3.61164C21.8689 5.09208 22.783 7.03307 22.9901 9.09797C23.0049 9.24516 23.0772 9.68301 22.9003 10.0999C22.7681 10.4112 22.5211 10.6835 22.2245 10.846C21.9987 10.9697 21.782 11.0079 21.621 11.0228C21.4793 11.0359 21.3196 11.0355 21.2001 11.0355H14.7997C14.6769 11.0355 14.5227 11.0357 14.3876 11.0247C14.2402 11.0127 14.0263 10.9815 13.8026 10.8675C13.514 10.7203 13.2788 10.4853 13.1317 10.1966C13.0179 9.97305 12.9875 9.75991 12.9755 9.61262C12.9644 9.47733 12.9647 9.32246 12.9647 9.19953V2.80012C12.9647 2.68057 12.9644 2.521 12.9774 2.37922C12.9923 2.21816 13.0303 2.00078 13.1542 1.77473L13.2196 1.66633C13.385 1.41846 13.6277 1.2146 13.9003 1.09895L14.0575 1.04426ZM15.0351 8.96516H20.8866C20.6666 7.50091 19.9844 6.13424 18.9247 5.07453C17.8651 4.01506 16.4991 3.33264 15.0351 3.11262V8.96516Z"/></g><defs><clipPath id="a"><path fill="#fff" d="M0 0H24V24H0z"/></clipPath></defs></svg>