<svg xmlns="http://www.w3.org/2000/svg" width="24" height="24" fill="none" viewBox="0 0 24 24"><g clip-path="url(#a)"><path fill="currentColor" d="M20.9648 12C20.9648 7.43088 17.5466 3.66223 13.1279 3.10742L13.0352 12.0107C13.0338 12.1399 13.0083 12.2679 12.96 12.3877L9.62402 20.6436C10.381 20.8512 11.1771 20.9648 12 20.9648C16.9512 20.9648 20.9648 16.9512 20.9648 12ZM3.12793 10.7266C3.11602 10.8095 3.10429 10.8924 3.09473 10.9756C3.08591 11.0531 3.07812 11.1309 3.07129 11.209C3.06492 11.2809 3.05931 11.3528 3.05469 11.4248C3.05041 11.4923 3.04672 11.56 3.04395 11.6279C3.03389 11.87 3.03441 12.1119 3.04395 12.3535C3.04561 12.3965 3.04558 12.4396 3.04785 12.4824C3.09258 13.3122 3.25262 14.1345 3.52539 14.9248C3.56313 15.0342 3.60272 15.1426 3.64453 15.25C3.7448 15.5078 3.85775 15.7615 3.98242 16.0107C4.04092 16.1274 4.10167 16.2427 4.16504 16.3564C4.17872 16.3811 4.19313 16.4052 4.20703 16.4297C4.26134 16.525 4.31636 16.6198 4.37402 16.7129C4.59025 17.0628 4.8296 17.3961 5.08984 17.7109C5.29024 17.9531 5.50413 18.1835 5.72852 18.4033C5.80222 18.4755 5.876 18.5476 5.95215 18.6172C5.99778 18.6589 6.04531 18.6985 6.0918 18.7393C6.14403 18.785 6.19573 18.8314 6.24902 18.876C6.30741 18.9249 6.36712 18.9721 6.42676 19.0195C6.47597 19.0586 6.52515 19.0977 6.5752 19.1357C6.64336 19.1876 6.71255 19.2381 6.78223 19.2881C6.82151 19.3162 6.86063 19.3446 6.90039 19.3721C6.97213 19.4218 7.04493 19.4699 7.11816 19.5176C7.16344 19.547 7.20904 19.5759 7.25488 19.6045C7.33101 19.6521 7.40771 19.6988 7.48535 19.7441C7.55745 19.7862 7.63074 19.8261 7.7041 19.8662L10.5996 12.7002L3.12793 10.7266ZM11.0576 3.08496C10.6594 3.12706 10.2652 3.19473 9.87793 3.28906C9.77654 3.31368 9.67618 3.34111 9.57617 3.36914C9.55146 3.37608 9.5266 3.3825 9.50195 3.38965C9.39955 3.41931 9.29812 3.4512 9.19727 3.48438C8.7212 3.64106 8.25816 3.83744 7.81348 4.07227C7.73741 4.11252 7.66264 4.15491 7.58789 4.19727C7.54591 4.22101 7.50354 4.24412 7.46191 4.26855C7.3877 4.31221 7.31404 4.35663 7.24121 4.40234C7.20113 4.42745 7.16179 4.45373 7.12207 4.47949C7.05192 4.52509 6.98186 4.57068 6.91309 4.61816C6.87123 4.64701 6.83047 4.67744 6.78906 4.70703C6.61778 4.82963 6.45008 4.95675 6.28809 5.09082C6.1883 5.17331 6.08998 5.25727 5.99414 5.34375C5.96012 5.37447 5.9271 5.40627 5.89355 5.4375C5.82252 5.50359 5.75232 5.57043 5.68359 5.63867C5.65827 5.66381 5.63342 5.6894 5.6084 5.71484C5.54248 5.78188 5.47776 5.84996 5.41406 5.91895C5.3795 5.95636 5.34545 5.99423 5.31152 6.03223C5.25448 6.09616 5.19869 6.16108 5.14355 6.22656C5.11006 6.2663 5.07578 6.30538 5.04297 6.3457C4.99161 6.40889 4.94217 6.47355 4.89258 6.53809C4.85847 6.5824 4.82333 6.62593 4.79004 6.6709C4.56115 6.98058 4.35236 7.30488 4.16504 7.6416C4.11361 7.73386 4.06483 7.82764 4.0166 7.92188C3.88806 8.1735 3.77156 8.43164 3.66699 8.69531L10.9785 10.6543L11.0576 3.08496ZM23.0352 12C23.0352 18.0945 18.0945 23.0352 12 23.0352C10.1894 23.0352 8.4822 22.596 6.97461 21.8232C6.96126 21.8164 6.94789 21.8096 6.93457 21.8027C6.81112 21.7388 6.68903 21.6729 6.56836 21.6045C6.52873 21.5821 6.48952 21.559 6.4502 21.5361C6.34828 21.4767 6.24726 21.4161 6.14746 21.3535C6.10013 21.3239 6.05368 21.293 6.00684 21.2627C5.91061 21.2003 5.81483 21.1375 5.7207 21.0723C5.66981 21.037 5.61961 21.0009 5.56934 20.9648C5.48606 20.905 5.40281 20.8453 5.32129 20.7832C5.26461 20.7401 5.20913 20.6955 5.15332 20.6514C5.07292 20.5876 4.99263 20.5239 4.91406 20.458C4.86577 20.4175 4.81907 20.3753 4.77148 20.334C4.69482 20.2674 4.61775 20.2014 4.54297 20.1328C4.45403 20.0513 4.36747 19.9672 4.28125 19.8828C4.24589 19.8482 4.2097 19.8144 4.1748 19.7793C4.10338 19.7075 4.03429 19.6334 3.96484 19.5596C3.82641 19.4125 3.6918 19.2619 3.56152 19.1074C3.43182 18.9534 3.30491 18.7969 3.18359 18.6357C3.10221 18.5278 3.02375 18.4176 2.94629 18.3066C2.92709 18.2791 2.90665 18.2524 2.8877 18.2246C2.81104 18.1126 2.7386 17.9977 2.66602 17.8828C2.64884 17.8556 2.63023 17.8292 2.61328 17.8018C2.54371 17.6894 2.47771 17.5749 2.41211 17.46C2.393 17.4264 2.37327 17.3932 2.35449 17.3594C2.27785 17.2217 2.20366 17.0826 2.13281 16.9414C2.13024 16.9363 2.12756 16.9309 2.125 16.9258C1.98426 16.6442 1.85696 16.3552 1.74023 16.0605C1.73136 16.0381 1.7226 16.0156 1.71387 15.9932C1.59816 15.6953 1.49424 15.3918 1.4043 15.082C1.40092 15.0704 1.39884 15.0585 1.39551 15.0469C1.35482 14.905 1.31634 14.7623 1.28125 14.6182C1.27181 14.5795 1.26293 14.5407 1.25391 14.502C1.14046 14.0128 1.05867 13.5117 1.0127 13C1.00053 12.8664 0.989705 12.7327 0.982422 12.5986C0.978672 12.5285 0.977043 12.4582 0.974609 12.3877C0.970843 12.2806 0.967444 12.1736 0.966797 12.0664C0.966666 12.0443 0.964844 12.0222 0.964844 12C0.964844 11.9498 0.968081 11.8997 0.96875 11.8496C0.970164 11.7458 0.973188 11.642 0.977539 11.5381C0.980956 11.4551 0.985972 11.3725 0.991211 11.29C0.997468 11.193 1.00386 11.096 1.0127 10.999C1.02004 10.9174 1.028 10.836 1.03711 10.7549C1.04651 10.6721 1.05707 10.5895 1.06836 10.5068C1.08274 10.4006 1.09785 10.2947 1.11523 10.1895C1.12088 10.1555 1.12782 10.1218 1.13379 10.0879C1.29515 9.16453 1.57061 8.28133 1.94629 7.45215C1.95307 7.43715 1.95995 7.42219 1.9668 7.40723C2.02156 7.28779 2.07688 7.16886 2.13574 7.05176C2.15122 7.02091 2.16784 6.99065 2.18359 6.95996C2.43331 6.47457 2.71792 6.01055 3.03418 5.57031C3.0606 5.53347 3.08543 5.4955 3.1123 5.45898C3.16398 5.38888 3.2182 5.32077 3.27148 5.25195C3.32437 5.18354 3.37713 5.11503 3.43164 5.04785C3.48338 4.98416 3.53673 4.92188 3.58984 4.85938C3.64272 4.7971 3.69572 4.73495 3.75 4.67383C3.80008 4.61748 3.85016 4.56117 3.90137 4.50586C3.96858 4.43322 4.03722 4.3619 4.10645 4.29102C4.1502 4.24622 4.19378 4.20127 4.23828 4.15723C4.32692 4.0695 4.41803 3.98423 4.50977 3.89941C4.53935 3.87205 4.56778 3.84345 4.59766 3.81641C4.69133 3.73167 4.78704 3.64903 4.88379 3.56738C4.96845 3.49587 5.05479 3.42641 5.1416 3.35742C5.20361 3.30822 5.26496 3.25791 5.32812 3.20996C5.33756 3.2028 5.34699 3.19561 5.35645 3.18848C5.42435 3.1372 5.49437 3.08879 5.56348 3.03906C5.62494 2.99492 5.68579 2.95004 5.74805 2.90723C5.82304 2.85556 5.89926 2.8057 5.97559 2.75586C6.03524 2.71698 6.09495 2.6783 6.15527 2.64062C6.23957 2.58787 6.32435 2.53587 6.41016 2.48535C6.45505 2.45898 6.50067 2.43392 6.5459 2.4082C6.64989 2.34895 6.75429 2.29031 6.86035 2.23438C6.86872 2.22997 6.87736 2.22606 6.88574 2.22168C7.53552 1.88113 8.22346 1.6052 8.94141 1.39844C8.96091 1.39281 8.98046 1.38736 9 1.38184C9.13128 1.34482 9.26326 1.30958 9.39648 1.27734C9.40915 1.27427 9.4219 1.27158 9.43457 1.26855C9.80382 1.18061 10.1799 1.11131 10.5625 1.06152C10.6441 1.0508 10.7257 1.04015 10.8076 1.03125C10.8732 1.0242 10.939 1.01859 11.0049 1.0127C11.1108 1.0031 11.2169 0.994816 11.3232 0.988281C11.3953 0.983918 11.4676 0.980511 11.54 0.977539C11.6447 0.973172 11.7495 0.970134 11.8545 0.96875C11.9029 0.968124 11.9514 0.964844 12 0.964844C12.0199 0.964844 12.0397 0.966692 12.0596 0.966797C12.0781 0.966897 12.0967 0.965627 12.1152 0.96582C12.1378 0.966057 12.1604 0.968072 12.1826 0.969727C18.1928 1.06727 23.0352 5.96654 23.0352 12Z"/></g><defs><clipPath id="a"><path fill="#fff" d="M0 0H24V24H0z"/></clipPath></defs></svg>