<svg xmlns="http://www.w3.org/2000/svg" width="24" height="24" fill="none" viewBox="0 0 24 24"><g clip-path="url(#a)"><path fill="currentColor" d="M12 0.964844C12.1836 0.964844 12.3669 0.970366 12.5498 0.979492C14.7654 1.08821 16.8078 1.85123 18.4912 3.07812C18.5212 3.09996 18.5522 3.12044 18.582 3.14258C19.4463 3.7859 20.213 4.55277 20.8564 5.41699C20.8762 5.4436 20.8945 5.47127 20.9141 5.49805C22.1454 7.18325 22.9114 9.22934 23.0205 11.4492C23.0206 11.4518 23.0214 11.4544 23.0215 11.457L23.0352 12L23.0303 12.3262C23.0289 12.3741 23.0255 12.4219 23.0234 12.4697C23.0216 12.5144 23.02 12.559 23.0176 12.6035C23.0094 12.7523 22.9985 12.9007 22.9844 13.0488C22.9783 13.1132 22.971 13.1772 22.9639 13.2412C22.9541 13.3274 22.9424 13.4132 22.9307 13.499C22.9155 13.6109 22.8984 13.7222 22.8799 13.833C22.8671 13.909 22.8533 13.9848 22.8389 14.0605C22.815 14.1867 22.7888 14.3119 22.7607 14.4365C22.7483 14.4915 22.7369 14.5468 22.7236 14.6016C22.6519 14.8982 22.5678 15.1898 22.4727 15.4766C22.4639 15.503 22.4543 15.5293 22.4453 15.5557C22.3865 15.7285 22.3239 15.8995 22.2568 16.0684C22.2474 16.0921 22.2381 16.1159 22.2285 16.1396C22.1122 16.4268 21.9849 16.7079 21.8457 16.9824C21.8411 16.9915 21.8366 17.0007 21.832 17.0098C21.8315 17.0108 21.8306 17.0117 21.8301 17.0127C21.7696 17.1311 21.7072 17.2483 21.6426 17.3643C21.5925 17.4543 21.5408 17.5433 21.4883 17.6318C21.4511 17.6944 21.4134 17.7566 21.375 17.8184C21.3328 17.8863 21.2897 17.9536 21.2461 18.0205C21.1868 18.1113 21.1263 18.2011 21.0645 18.29C21.0155 18.3606 20.9656 18.4306 20.915 18.5C20.882 18.5452 20.8501 18.5911 20.8164 18.6357C20.7355 18.7432 20.6521 18.8487 20.5674 18.9531C20.5298 18.9994 20.4915 19.0451 20.4531 19.0908C20.2515 19.3311 20.0398 19.5627 19.8184 19.7852C19.8089 19.7946 19.7995 19.804 19.79 19.8135C19.6785 19.9246 19.5645 20.0332 19.4482 20.1396C19.4176 20.1677 19.3864 20.195 19.3555 20.2227C19.2683 20.3006 19.1805 20.3779 19.0908 20.4531C19.0609 20.4782 19.0321 20.5045 19.002 20.5293C18.8972 20.6153 18.7897 20.698 18.6816 20.7803C18.6352 20.8156 18.589 20.8511 18.542 20.8857C18.5233 20.8995 18.5051 20.9141 18.4863 20.9277C18.4742 20.9365 18.4606 20.943 18.4482 20.9512C16.634 22.2604 14.4082 23.0352 12 23.0352C5.90554 23.0352 0.964844 18.0945 0.964844 12C0.964844 5.90554 5.90554 0.964844 12 0.964844ZM18.0703 18.5947C18.3819 18.3077 18.673 17.9991 18.9414 17.6709C19.0187 17.5763 19.0946 17.4805 19.168 17.3828C19.1838 17.3618 19.1992 17.3405 19.2148 17.3193C19.2745 17.2384 19.3327 17.1562 19.3896 17.0732C19.4106 17.0428 19.4326 17.0131 19.4531 16.9824C19.5117 16.8949 19.5676 16.8055 19.623 16.7158C19.6591 16.6576 19.6947 16.5991 19.7295 16.54C19.8045 16.4124 19.8766 16.2829 19.9453 16.1514C19.9688 16.1065 19.9909 16.0609 20.0137 16.0156C20.4188 15.2071 20.6985 14.345 20.8447 13.458C20.8676 13.3181 20.887 13.1772 20.9033 13.0352H14.0312L18.0703 18.5947ZM13.0352 10.9648H20.9023C20.8068 10.1431 20.6001 9.33669 20.2822 8.56934C19.8317 7.48167 19.1713 6.4936 18.3389 5.66113C17.5064 4.82867 16.5183 4.16831 15.4307 3.71777C14.6633 3.39991 13.8569 3.19222 13.0352 3.09668V10.9648ZM3.03516 12C3.03516 16.9512 7.04877 20.9648 12 20.9648C13.5978 20.9648 15.0963 20.5441 16.3955 19.8115L11.1631 12.6084C11.0346 12.4316 10.9648 12.2186 10.9648 12V3.0957C6.5013 3.60898 3.03516 7.39893 3.03516 12Z"/></g><defs><clipPath id="a"><path fill="#fff" d="M0 0H24V24H0z"/></clipPath></defs></svg>