<svg xmlns="http://www.w3.org/2000/svg" width="24" height="24" fill="none" viewBox="0 0 24 24"><g clip-path="url(#a)"><path fill="currentColor" d="M7.58696 1.88123C8.11077 1.65293 8.72071 1.89262 8.94927 2.41638C9.17759 2.9402 8.93788 3.55012 8.41411 3.77869C7.07207 4.36439 5.89374 5.2702 4.98247 6.41638C4.07129 7.56254 3.45466 8.91441 3.18657 10.3539C2.91852 11.7934 3.00686 13.2769 3.44439 14.6742C3.88204 16.0717 4.65594 17.3409 5.69732 18.3705C6.73869 19.4 8.01664 20.1588 9.419 20.5804C10.8213 21.002 12.3059 21.0739 13.7422 20.7894C15.1786 20.5049 16.5236 19.8729 17.6592 18.9486C18.795 18.0243 19.6866 16.8354 20.2569 15.4867C20.4795 14.9603 21.0869 14.7143 21.6133 14.9369C22.1398 15.1595 22.3867 15.7669 22.1641 16.2933C21.4621 17.9535 20.3638 19.4163 18.9659 20.5541C17.5678 21.6919 15.9118 22.4695 14.1436 22.8197C12.3755 23.1698 10.5484 23.0819 8.82232 22.5629C7.09624 22.0438 5.52401 21.1094 4.24224 19.8422C2.96047 18.5749 2.00849 17.0134 1.46978 15.2933C0.931071 13.5732 0.821431 11.747 1.15142 9.97498C1.48139 8.20307 2.24073 6.53915 3.36235 5.1283C4.48412 3.71736 5.93489 2.60216 7.58696 1.88123ZM12.0362 1.04822C12.3975 0.939573 12.7517 0.989882 12.8819 1.00037C14.0289 1.09233 15.1572 1.3633 16.2237 1.80505C17.5624 2.35961 18.7791 3.17204 19.8038 4.19666C20.8284 5.22127 21.6408 6.43802 22.1954 7.77673C22.6371 8.84323 22.9081 9.97147 23 11.1185C23.012 11.2673 23.0764 11.7093 22.8956 12.1195C22.7602 12.4263 22.5158 12.6915 22.2208 12.851C21.9951 12.9728 21.7784 13.0085 21.6202 13.0228C21.4797 13.0355 21.3206 13.0345 21.2002 13.0345H12.8008C12.6779 13.0345 12.523 13.0358 12.3877 13.0248C12.2404 13.0127 12.0274 12.9815 11.8038 12.8676C11.5149 12.7204 11.28 12.4855 11.1329 12.1967C11.0189 11.973 10.9877 11.76 10.9756 11.6127C10.9646 11.4774 10.9659 11.3225 10.9659 11.1996V2.80017C10.9659 2.6798 10.9649 2.52074 10.9776 2.38025C10.9919 2.22202 11.0276 2.00528 11.1495 1.77966L11.2149 1.67224C11.3766 1.42586 11.6124 1.22331 11.8809 1.10486L12.0362 1.04822ZM13.0352 10.9652H20.9053C20.8098 10.1433 20.6012 9.3363 20.2833 8.56873C19.8327 7.48117 19.1723 6.49292 18.3399 5.66052C17.5075 4.82813 16.5192 4.16769 15.4317 3.71716C14.6641 3.39921 13.8572 3.18962 13.0352 3.09412V10.9652Z"/></g><defs><clipPath id="a"><path fill="#fff" d="M0 0H24V24H0z"/></clipPath></defs></svg>