<svg xmlns="http://www.w3.org/2000/svg" width="24" height="24" fill="none" viewBox="0 0 24 24"><path fill="currentColor" d="M15.8916 7.96484C15.8732 7.97011 15.8313 7.97947 15.7822 7.99121C15.1653 9.76296 13.482 11.0352 11.5 11.0352C9.995 11.0352 8.66183 10.3014 7.83691 9.17285C6.73521 10.0844 6.03516 11.4609 6.03516 13C6.03516 14.3644 6.58409 15.5986 7.47559 16.4971C7.53437 16.5563 7.70014 16.7134 7.81055 16.8945C7.87457 16.9996 7.92344 17.106 7.95996 17.2197L7.99316 17.3369L8.02051 17.4893C8.0392 17.639 8.03516 17.7732 8.03516 17.8301V19.9648H9.46484V19.7998C9.46484 19.677 9.46457 19.5228 9.47559 19.3877C9.48763 19.2403 9.51786 19.0264 9.63184 18.8027C9.779 18.514 10.014 18.279 10.3027 18.1318C10.5264 18.0179 10.7403 17.9876 10.8877 17.9756C11.0228 17.9646 11.177 17.9648 11.2998 17.9648H12.7002C12.823 17.9648 12.9772 17.9646 13.1123 17.9756C13.2229 17.9846 13.3709 18.004 13.5322 18.0615L13.6973 18.1318L13.8027 18.1914C14.043 18.3388 14.2384 18.5503 14.3672 18.8027C14.4812 19.0264 14.5124 19.2403 14.5244 19.3877C14.5354 19.5228 14.5352 19.677 14.5352 19.7998V19.9648H15.9648V19.2246C15.9648 19.1103 15.9504 18.7854 16.0537 18.4941L16.1211 18.3311C16.1969 18.1747 16.2973 18.0371 16.4258 17.9111L16.5283 17.8203C16.6311 17.7382 16.7296 17.6831 16.7969 17.6475C16.8867 17.5998 16.9941 17.5494 17.0879 17.5059C17.9001 17.1287 18.5947 16.5378 19.0977 15.8047C19.1575 15.7174 19.3125 15.4709 19.5186 15.3047L19.6396 15.2158C19.7633 15.134 19.8953 15.0732 20.042 15.0293L20.2305 14.9873C20.417 14.9585 20.5875 14.9648 20.6592 14.9648H20.9648V12.0303C20.8316 12.0235 20.6696 12.0057 20.5166 11.9541C20.2728 11.8719 20.0695 11.7424 19.8926 11.5557C19.7668 11.4228 19.6885 11.2838 19.6436 11.1982C19.5984 11.1124 19.5512 11.0096 19.5098 10.9199C19.2655 10.3915 18.9305 9.91216 18.5244 9.50293C18.4657 9.44376 18.2999 9.28663 18.1895 9.10547C18.104 8.96517 18.045 8.82281 18.0068 8.66309C17.958 8.45853 17.9648 8.24567 17.9648 8.16992V7.37109L15.8916 7.96484ZM23.0352 15.2002C23.0352 15.323 23.0354 15.4772 23.0244 15.6123C23.0124 15.7597 22.9821 15.9736 22.8682 16.1973C22.721 16.486 22.486 16.721 22.1973 16.8682C21.9736 16.9821 21.7597 17.0124 21.6123 17.0244C21.4772 17.0354 21.323 17.0352 21.2002 17.0352H20.7627C20.071 18.0214 19.1323 18.8212 18.0352 19.3467V20.2002C18.0352 20.323 18.0354 20.4772 18.0244 20.6123C18.0124 20.7597 17.9821 20.9736 17.8682 21.1973C17.721 21.486 17.486 21.721 17.1973 21.8682C16.9736 21.9821 16.7597 22.0124 16.6123 22.0244C16.4772 22.0354 16.323 22.0352 16.2002 22.0352H14.2998C14.177 22.0352 14.0228 22.0354 13.8877 22.0244C13.7403 22.0124 13.5264 21.9821 13.3027 21.8682C13.014 21.721 12.779 21.486 12.6318 21.1973C12.5179 20.9736 12.4876 20.7597 12.4756 20.6123C12.4646 20.4772 12.4648 20.323 12.4648 20.2002V20.0352H11.5352V20.2002C11.5352 20.323 11.5354 20.4772 11.5244 20.6123C11.5124 20.7597 11.4812 20.9736 11.3672 21.1973C11.22 21.4858 10.9859 21.7211 10.6973 21.8682C10.4736 21.9821 10.2597 22.0124 10.1123 22.0244C9.97717 22.0354 9.823 22.0352 9.7002 22.0352H7.7998C7.67702 22.0352 7.52285 22.0354 7.3877 22.0244C7.24031 22.0124 7.02644 21.9821 6.80273 21.8682C6.51398 21.721 6.27899 21.486 6.13184 21.1973C6.01786 20.9736 5.98763 20.7597 5.97559 20.6123C5.96457 20.4772 5.96484 20.323 5.96484 20.2002V17.9111C4.9565 16.8775 4.26218 15.5333 4.04102 14.0352H4C2.32382 14.0352 0.964844 12.6762 0.964844 11C0.964844 9.87549 1.5772 8.89533 2.48145 8.37207C2.97611 8.08592 3.60918 8.25453 3.89551 8.74902C4.18165 9.24369 4.01304 9.87676 3.51855 10.1631C3.22741 10.3315 3.03516 10.6441 3.03516 11C3.03516 11.533 3.46705 11.9648 4 11.9648H4.04102C4.33246 9.98907 5.44481 8.28137 7.01855 7.19922C6.98328 6.97131 6.96484 6.73779 6.96484 6.5C6.96484 3.99539 8.99539 1.96484 11.5 1.96484C13.7616 1.96484 15.635 3.6208 15.9775 5.78613L17.6963 5.2959C17.8508 5.25175 18.0329 5.19853 18.1924 5.16797C18.3379 5.14011 18.5584 5.11088 18.8096 5.16016L18.9189 5.18652L19.0547 5.23145C19.3202 5.33432 19.5518 5.50932 19.7236 5.73633L19.8047 5.85449L19.8604 5.95215C19.9769 6.1804 20.0083 6.40129 20.0215 6.54883C20.0359 6.71062 20.0352 6.89985 20.0352 7.06055V8.08789C20.5689 8.63489 21.0135 9.26927 21.3477 9.96777C21.4331 9.96837 21.5241 9.96812 21.6074 9.97461C21.7126 9.98281 21.8532 10.0005 22.0078 10.0527L22.166 10.1172L22.2803 10.1787C22.5035 10.3105 22.6895 10.4965 22.8213 10.7197L22.8828 10.834L22.9473 10.9922C22.9995 11.1468 23.0172 11.2874 23.0254 11.3926C23.0354 11.5216 23.0352 11.6691 23.0352 11.7861V15.2002ZM9.03516 6.5C9.03516 7.86138 10.1386 8.96484 11.5 8.96484C12.7238 8.96484 13.736 8.07257 13.9287 6.90332C13.9325 6.8622 13.9388 6.82181 13.9473 6.78223C13.9578 6.68955 13.9648 6.59551 13.9648 6.5C13.9648 5.13862 12.8614 4.03516 11.5 4.03516C10.1386 4.03516 9.03516 5.13862 9.03516 6.5Z"/></svg>