<svg xmlns="http://www.w3.org/2000/svg" width="24" height="24" fill="none" viewBox="0 0 24 24"><path fill="currentColor" d="M19.5 2.96484C20.0716 2.96484 20.5352 3.42839 20.5352 4C20.5352 4.57161 20.0716 5.03516 19.5 5.03516H18.5352V18.9648H19.5C20.0716 18.9648 20.5352 19.4284 20.5352 20C20.5352 20.5716 20.0716 21.0352 19.5 21.0352H12C11.4284 21.0352 10.9648 20.5716 10.9648 20C10.9648 19.4284 11.4284 18.9648 12 18.9648H12.9648V13.0352H9C6.21925 13.0352 3.96484 10.7808 3.96484 8C3.96484 5.21925 6.21925 2.96484 9 2.96484H19.5ZM15.0352 18.9648H16.4648V5.03516H15.0352V18.9648ZM6.03516 8C6.03516 9.63752 7.36248 10.9648 9 10.9648H12.9648V5.03516H9C7.36248 5.03516 6.03516 6.36248 6.03516 8Z"/></svg>