<svg xmlns="http://www.w3.org/2000/svg" width="24" height="24" fill="none" viewBox="0 0 24 24"><path fill="currentColor" d="M18 2.96484C18.5716 2.96484 19.0352 3.42839 19.0352 4C19.0352 4.57161 18.5716 5.03516 18 5.03516H17.0352V18.9648H18C18.5716 18.9648 19.0352 19.4284 19.0352 20C19.0352 20.5716 18.5716 21.0352 18 21.0352H14C13.4284 21.0352 12.9648 20.5716 12.9648 20C12.9648 19.4284 13.4284 18.9648 14 18.9648H14.9648V14.0352H10.5C7.4431 14.0352 4.96484 11.5569 4.96484 8.5C4.96484 5.4431 7.4431 2.96484 10.5 2.96484H18ZM7.03516 8.5C7.03516 10.4137 8.58633 11.9648 10.5 11.9648H14.9648V5.03516H10.5C8.58633 5.03516 7.03516 6.58633 7.03516 8.5Z"/></svg>