<svg xmlns="http://www.w3.org/2000/svg" width="24" height="24" fill="none" viewBox="0 0 24 24"><path fill="currentColor" d="M14.9658 7.3086C14.9658 7.21598 14.9638 7.0898 14.9785 6.96094L15.002 6.80762C15.0117 6.75707 15.0236 6.70693 15.0371 6.65723L15.0957 6.47852C15.1163 6.42311 15.1371 6.37209 15.1543 6.3291L16.1621 3.80957C16.3112 3.43685 16.3971 3.21419 16.4473 3.05078C16.2769 3.03674 16.0378 3.03516 15.6367 3.03516H8.36328C7.96182 3.03516 7.72308 3.03667 7.55274 3.05078C7.60289 3.21421 7.6897 3.43664 7.83887 3.80957L8.84668 6.3291C8.86388 6.3721 8.88468 6.42309 8.90527 6.47852L8.96387 6.65723L8.99902 6.80762L9.02246 6.96094L9.03418 7.14844C9.03563 7.20743 9.03516 7.26236 9.03516 7.3086V9.43848C9.03516 9.60504 9.04057 9.83236 8.99414 10.0586C8.95727 10.2381 8.89589 10.412 8.8125 10.5752C8.70744 10.7808 8.56203 10.9549 8.45801 11.085L6.88867 13.0469C6.54764 13.4732 6.33387 13.7402 6.19922 13.9424C6.44123 13.9636 6.7828 13.9648 7.3291 13.9648H16.6719C17.2175 13.9648 17.5588 13.9635 17.8008 13.9424C17.6661 13.7402 17.4531 13.4729 17.1123 13.0469L15.543 11.085C15.439 10.9549 15.2935 10.7808 15.1885 10.5752C15.1051 10.412 15.0437 10.2381 15.0068 10.0586C14.9604 9.83236 14.9658 9.60503 14.9658 9.43848V7.3086ZM17.0352 9.43848C17.0352 9.54239 17.0349 9.59704 17.0361 9.63574C17.0593 9.66689 17.0933 9.70965 17.1592 9.79199L18.7295 11.7539C19.0494 12.1538 19.3346 12.5092 19.5332 12.8096C19.6978 13.0585 19.8969 13.4024 19.9443 13.8164L19.9551 13.998L19.9424 14.2285C19.8822 14.7611 19.6132 15.2526 19.1895 15.5908C18.8023 15.8998 18.3376 15.9731 17.998 16.0039C17.6395 16.0365 17.1838 16.0352 16.6719 16.0352H13.0352V22C13.0352 22.5716 12.5716 23.0352 12 23.0352C11.4286 23.0349 10.9658 22.5715 10.9658 22V16.0352H7.3291C6.81716 16.0352 6.36148 16.0365 6.00293 16.0039C5.6634 15.9731 5.19863 15.8997 4.81152 15.5908C4.32723 15.2042 4.0453 14.6177 4.0459 13.998L4.05664 13.8164C4.10413 13.4024 4.3032 13.0585 4.46777 12.8096C4.66637 12.5092 4.9516 12.1538 5.27149 11.7539L6.8418 9.79199C6.90739 9.71001 6.94066 9.66685 6.96387 9.63574C6.96514 9.59703 6.96582 9.54242 6.96582 9.43848V7.23633C6.96574 7.21906 6.96502 7.20706 6.96484 7.19824C6.9618 7.19022 6.95699 7.17977 6.95117 7.16504C6.94398 7.14682 6.93569 7.12584 6.92481 7.09863L5.91699 4.5791C5.77733 4.22995 5.64592 3.90225 5.56348 3.62598C5.48026 3.34703 5.40266 2.98387 5.48535 2.58594L5.53516 2.39258C5.67403 1.94845 5.96231 1.56304 6.35352 1.30371L6.48145 1.22656C6.78224 1.06392 7.09412 1.01327 7.34766 0.990236C7.63469 0.964186 7.98738 0.964845 8.36328 0.964845H15.6367C16.0126 0.964845 16.3653 0.964217 16.6523 0.990236C16.906 1.01326 17.2185 1.06379 17.5195 1.22656L17.6475 1.30371L17.8086 1.42285C18.1692 1.71671 18.4201 2.12653 18.5156 2.58594C18.5983 2.98386 18.5207 3.34704 18.4375 3.62598C18.3551 3.90225 18.2236 4.22995 18.084 4.5791L17.0762 7.09863C17.0653 7.12589 17.056 7.1468 17.0488 7.16504C17.0432 7.17931 17.0382 7.18935 17.0352 7.19727V9.43848Z"/></svg>