<svg xmlns="http://www.w3.org/2000/svg" width="24" height="24" fill="none" viewBox="0 0 24 24"><path fill="currentColor" d="M14.5773 1.20129L14.7755 1.23157L14.92 1.2677C15.248 1.36538 15.5046 1.54992 15.7003 1.71301C15.9218 1.89761 16.1707 2.14731 16.4366 2.41321L21.5792 7.55676C21.8451 7.82266 22.0958 8.07066 22.2804 8.29211C22.4434 8.48771 22.6279 8.74452 22.7257 9.07239L22.7618 9.21789L22.7921 9.41614C22.8392 9.8788 22.7261 10.3462 22.4689 10.7384C22.2459 11.0783 21.9339 11.2807 21.6778 11.4191C21.4242 11.5561 21.0995 11.6939 20.754 11.8419L18.2599 12.9103C18.233 12.9218 18.2124 12.9308 18.1944 12.9386C18.1787 12.9454 18.1673 12.9506 18.1593 12.9542L16.5226 14.5909C16.4582 14.6553 16.4244 14.6887 16.4015 14.713C16.394 14.7455 16.385 14.7915 16.3673 14.88L15.6349 18.545C15.5437 19.0009 15.462 19.4134 15.3663 19.7355C15.2736 20.0476 15.1192 20.4566 14.7696 20.7667C14.3246 21.1616 13.7291 21.3426 13.1398 21.2609C12.677 21.1967 12.3217 20.9418 12.0714 20.7335C11.813 20.5185 11.5164 20.2196 11.1876 19.8907L8.37608 17.0792L3.45128 22.005C3.04713 22.4089 2.39253 22.4089 1.98839 22.005C1.58419 21.6008 1.58419 20.9453 1.98839 20.5411L6.91221 15.6163L4.10167 12.8058C3.77285 12.477 3.47487 12.1794 3.25987 11.921C3.05162 11.6707 2.79668 11.3154 2.73253 10.8527C2.65095 10.2634 2.8309 9.66775 3.22569 9.22278C3.53585 8.87323 3.94576 8.71981 4.25792 8.62707C4.58006 8.5314 4.99254 8.44968 5.44835 8.35852L9.11339 7.62512C9.20217 7.60736 9.24786 7.59747 9.28038 7.58997C9.30462 7.56707 9.33802 7.53428 9.40147 7.47082L10.963 5.91028C10.9836 5.88968 10.9991 5.87335 11.0128 5.8595C11.025 5.84719 11.0331 5.83754 11.0392 5.83118C11.0427 5.8234 11.0476 5.81324 11.0538 5.79895C11.0616 5.78092 11.0705 5.75961 11.0821 5.73254L12.1515 3.2384C12.2996 2.89286 12.4373 2.56816 12.5743 2.31457C12.7127 2.05851 12.9152 1.74742 13.255 1.52454L13.4269 1.42297C13.7802 1.23791 14.1804 1.16083 14.5773 1.20129ZM14.3878 3.31457C14.3077 3.46563 14.2121 3.68452 14.0538 4.05383L12.9845 6.54797C12.948 6.63312 12.9004 6.74978 12.836 6.86243C12.7848 6.95207 12.7264 7.03744 12.6622 7.11829C12.5815 7.21989 12.4914 7.30862 12.4259 7.37415L10.8653 8.93469C10.7632 9.03681 10.6268 9.17814 10.462 9.29309C10.331 9.38445 10.1898 9.46035 10.0411 9.51868C9.854 9.59207 9.66029 9.62707 9.51866 9.65539L5.8546 10.3878C5.36821 10.4851 5.06856 10.5456 4.85948 10.6066C4.99959 10.7734 5.21439 10.9908 5.56553 11.3419L12.6515 18.4269C13.0014 18.7768 13.2183 18.9918 13.3849 19.132C13.4458 18.923 13.5075 18.6242 13.6046 18.1388L14.338 14.4738C14.3663 14.3322 14.4014 14.1392 14.4747 13.9523L14.5743 13.7345C14.6119 13.6643 14.6546 13.5968 14.7003 13.5314L14.7901 13.4132C14.8833 13.3005 14.9821 13.2047 15.0587 13.1281L16.6192 11.5665C16.6848 11.501 16.7726 11.4109 16.8741 11.3302C16.955 11.266 17.0413 11.2086 17.131 11.1573L17.298 11.0724C17.3517 11.0478 17.4019 11.0262 17.4444 11.0079L19.9386 9.9386C20.3078 9.78036 20.5268 9.68471 20.6778 9.60461C20.5674 9.47424 20.3999 9.30423 20.1163 9.02063L14.9728 3.87707C14.6885 3.59278 14.5183 3.42508 14.3878 3.31457Z"/></svg>