<svg xmlns="http://www.w3.org/2000/svg" width="24" height="24" fill="none" viewBox="0 0 24 24"><path fill="currentColor" d="M17.0011 2.09295C18.3679 0.681214 20.6261 0.662736 22.0157 2.05193C23.3671 3.40329 23.3929 5.58662 22.0733 6.96892L19.294 9.87908C19.1846 9.99365 19.1264 10.0544 19.087 10.0998C19.0977 10.159 19.1166 10.2414 19.1524 10.3967L20.88 17.884C20.9377 18.1342 21.0278 18.4738 21.0011 18.8215C20.9799 19.0962 20.9032 19.3644 20.7755 19.6086C20.6138 19.9176 20.3574 20.1584 20.1759 20.34L19.8048 20.7101C19.516 20.9989 19.2501 21.2672 19.0147 21.4631C18.7806 21.6579 18.4576 21.8872 18.0343 21.9621C17.4832 22.0596 16.9162 21.9255 16.4669 21.592C16.1218 21.3357 15.9349 20.9862 15.8126 20.7072C15.6897 20.4269 15.5716 20.0681 15.4425 19.6808L13.962 15.2394L11.8009 17.4006C11.7004 17.501 11.6475 17.5545 11.6114 17.5939C11.615 17.6472 11.6231 17.7215 11.6388 17.8625L11.8224 19.5168C11.8472 19.7401 11.8893 20.044 11.8409 20.3478C11.8025 20.5884 11.7219 20.8206 11.6017 21.0324C11.4496 21.3002 11.2255 21.5111 11.0665 21.6701L10.8692 21.8683C10.646 22.0916 10.4312 22.3072 10.2374 22.4699C10.0367 22.6383 9.77268 22.8258 9.42587 22.9162C8.95678 23.0384 8.45953 22.9884 8.02353 22.7765C7.70103 22.6198 7.47835 22.3844 7.31454 22.1799C7.15645 21.9824 6.98864 21.7286 6.81357 21.466L5.20419 19.0519C5.19432 19.0373 5.18694 19.0272 5.18173 19.0197C5.17436 19.0146 5.16434 19.0076 5.15048 18.9982L2.73642 17.3888C2.47376 17.2137 2.22007 17.046 2.02255 16.8879C1.81798 16.7241 1.58259 16.5014 1.42587 16.1789C1.21401 15.7428 1.16494 15.2457 1.2872 14.7765L1.32529 14.6506C1.42394 14.3649 1.58513 14.1407 1.73251 13.965C1.89517 13.7712 2.11081 13.5564 2.33407 13.3332L2.53232 13.1359C2.6913 12.9769 2.90224 12.7538 3.17001 12.6017L3.33212 12.5187C3.49813 12.4432 3.67392 12.3903 3.85458 12.3615L4.08114 12.34C4.30553 12.3327 4.51899 12.3614 4.68661 12.3801L6.33993 12.5637C6.47997 12.5792 6.55431 12.5864 6.60751 12.59C6.64692 12.5539 6.70134 12.502 6.80185 12.4015L8.96298 10.2394L4.52255 8.75994C4.13509 8.63079 3.77565 8.51272 3.49521 8.38982C3.21624 8.26754 2.86664 8.08146 2.61044 7.7365C2.27674 7.28709 2.14283 6.71934 2.24032 6.16814L2.27548 6.01385C2.3722 5.66542 2.56888 5.39251 2.73935 5.18767C2.93521 4.95235 3.2035 4.68641 3.49228 4.39764L3.86337 4.02654C4.04491 3.84499 4.28495 3.58849 4.59384 3.42693C4.83806 3.29925 5.10618 3.22251 5.38095 3.20135L5.51083 3.19646C5.81217 3.19654 6.09953 3.27192 6.31845 3.32244L13.7774 5.04412C13.9321 5.07981 14.0155 5.09771 14.0753 5.10857C14.1197 5.06692 14.1799 5.00662 14.2911 4.89178L17.0011 2.09295ZM20.5528 3.5158C19.9809 2.9439 19.051 2.95139 18.4884 3.5324L15.7784 6.33221C15.6029 6.51348 15.3708 6.76869 15.0714 6.93377C14.8134 7.07597 14.5273 7.15988 14.2335 7.18084C13.8924 7.20509 13.5585 7.11747 13.3126 7.06072L5.85361 5.33904C5.69465 5.30236 5.60981 5.28356 5.54892 5.27264C5.50311 5.31416 5.44138 5.37529 5.32626 5.49041L4.95614 5.8615C4.64748 6.17017 4.46207 6.35652 4.34091 6.50017C4.51353 6.57448 4.76273 6.65901 5.17685 6.79705L11.2061 8.80682C11.5463 8.92031 11.8034 9.20193 11.8858 9.55096C11.9681 9.89987 11.8639 10.2662 11.6104 10.5197L8.26572 13.8654C8.10673 14.0244 7.89485 14.2475 7.62704 14.3996C7.41512 14.5199 7.18313 14.6014 6.94247 14.6398C6.63863 14.6882 6.33477 14.6461 6.11142 14.6213L4.4581 14.4377C4.31679 14.422 4.24189 14.4139 4.18857 14.4103C4.14919 14.4464 4.09647 14.4995 3.99618 14.5998L3.79794 14.797C3.55894 15.0361 3.42126 15.1749 3.33017 15.2814C3.44036 15.3681 3.60194 15.4782 3.88388 15.6662L6.23642 17.2346C6.31634 17.2878 6.42608 17.3592 6.52841 17.4465C6.56916 17.4812 6.60873 17.518 6.64657 17.5558L6.75595 17.674L6.87411 17.8283C6.90948 17.8785 6.94118 17.926 6.96786 17.966L8.53622 20.3185C8.72356 20.5995 8.8335 20.7611 8.92001 20.8713C9.02651 20.7802 9.16629 20.6435 9.40536 20.4045L9.60263 20.2072C9.70299 20.1068 9.75502 20.0523 9.79111 20.0129C9.78751 19.9597 9.7803 19.8854 9.76474 19.7453L9.58115 18.092C9.55632 17.8686 9.51415 17.564 9.56259 17.2599L9.5997 17.0812C9.6444 16.9045 9.71254 16.7344 9.80282 16.5754L9.92782 16.3849C10.0622 16.2052 10.2178 16.0569 10.337 15.9377L13.6827 12.592L13.7823 12.5041C14.0273 12.3152 14.3469 12.2444 14.6524 12.3166C15.0013 12.3991 15.2832 12.6561 15.3966 12.9963L17.4063 19.0256C17.5441 19.4389 17.628 19.6879 17.7022 19.8605C17.8458 19.7394 18.0335 19.5546 18.3419 19.2463L18.712 18.8762C18.8272 18.761 18.8873 18.6983 18.9288 18.6525C18.9179 18.5918 18.8997 18.5074 18.8634 18.3498L17.1349 10.8615C17.0785 10.6176 16.9919 10.2862 17.0157 9.94646L17.0392 9.74627C17.073 9.54804 17.136 9.35533 17.2267 9.17498C17.3796 8.87059 17.624 8.63047 17.797 8.44939L20.5763 5.53924C21.1191 4.97033 21.1088 4.07191 20.5528 3.5158Z"/></svg>