<svg xmlns="http://www.w3.org/2000/svg" width="24" height="24" fill="none" viewBox="0 0 24 24"><path fill="currentColor" d="M19.9648 7.7998C19.9648 6.94287 19.9643 6.36234 19.9277 5.91406C19.8921 5.47781 19.8277 5.25807 19.751 5.10742C19.5626 4.73794 19.2621 4.43737 18.8926 4.24902C18.7419 4.17227 18.5222 4.10791 18.0859 4.07227C17.6377 4.03565 17.0571 4.03516 16.2002 4.03516H7.7998C6.94287 4.03516 6.36234 4.03565 5.91406 4.07227C5.47781 4.10791 5.25807 4.17227 5.10742 4.24902C4.73794 4.43737 4.43737 4.73794 4.24902 5.10742C4.17227 5.25807 4.10791 5.47781 4.07227 5.91406C4.03565 6.36234 4.03516 6.94287 4.03516 7.7998V16.2002C4.03516 17.0571 4.03565 17.6377 4.07227 18.0859C4.10791 18.5222 4.17227 18.7419 4.24902 18.8926C4.43737 19.2621 4.73794 19.5626 5.10742 19.751C5.25807 19.8277 5.47781 19.8921 5.91406 19.9277C6.36234 19.9643 6.94287 19.9648 7.7998 19.9648H16.2002C17.0571 19.9648 17.6377 19.9643 18.0859 19.9277C18.5222 19.8921 18.7419 19.8277 18.8926 19.751C19.2621 19.5626 19.5626 19.2621 19.751 18.8926C19.8277 18.7419 19.8921 18.5222 19.9277 18.0859C19.9643 17.6377 19.9648 17.0571 19.9648 16.2002V7.7998ZM10.0283 6.88184C10.3422 6.89195 10.5937 7.00969 10.7383 7.08496C10.9115 7.1751 11.1086 7.30396 11.292 7.42188L16.0127 10.4561C16.17 10.5572 16.3486 10.6706 16.4893 10.7803C16.6303 10.8903 16.8559 11.0869 16.9893 11.4023C17.1506 11.7843 17.1506 12.2157 16.9893 12.5977C16.8559 12.9131 16.6303 13.1097 16.4893 13.2197C16.3486 13.3294 16.17 13.4428 16.0127 13.5439L11.292 16.5781C11.1086 16.696 10.9115 16.8249 10.7383 16.915C10.5731 17.001 10.2686 17.1422 9.89062 17.1152C9.44651 17.0835 9.03832 16.8603 8.77148 16.5039C8.5444 16.2006 8.49845 15.8681 8.48145 15.6826C8.46364 15.4883 8.46484 15.2531 8.46484 15.0352V8.96582C8.46484 8.74777 8.46363 8.51183 8.48145 8.31738C8.49845 8.13194 8.5444 7.79942 8.77148 7.49609L8.87793 7.36816C9.14092 7.08647 9.50218 6.91251 9.89062 6.88477L10.0283 6.88184ZM10.5352 14.6035L14.5859 12L10.5352 9.39551V14.6035ZM22.0352 16.2002C22.0352 17.0231 22.0353 17.7027 21.9902 18.2549C21.9441 18.8191 21.8449 19.341 21.5947 19.832C21.2079 20.591 20.591 21.2079 19.832 21.5947C19.341 21.8449 18.8191 21.9441 18.2549 21.9902C17.7027 22.0353 17.0231 22.0352 16.2002 22.0352H7.7998C6.97689 22.0352 6.29725 22.0353 5.74512 21.9902C5.18095 21.9441 4.65899 21.8449 4.16797 21.5947C3.409 21.2079 2.79208 20.591 2.40527 19.832C2.15509 19.341 2.05588 18.8191 2.00977 18.2549C1.96465 17.7027 1.96484 17.0231 1.96484 16.2002V7.7998C1.96484 6.97689 1.96465 6.29725 2.00977 5.74512C2.05588 5.18095 2.15509 4.65899 2.40527 4.16797C2.79208 3.409 3.409 2.79208 4.16797 2.40527C4.65899 2.15509 5.18095 2.05588 5.74512 2.00977C6.29725 1.96465 6.97689 1.96484 7.7998 1.96484H16.2002C17.0231 1.96484 17.7027 1.96465 18.2549 2.00977C18.8191 2.05588 19.341 2.15509 19.832 2.40527C20.591 2.79208 21.2079 3.409 21.5947 4.16797C21.8449 4.65899 21.9441 5.18095 21.9902 5.74512C22.0353 6.29725 22.0352 6.97689 22.0352 7.7998V16.2002Z"/></svg>