<svg xmlns="http://www.w3.org/2000/svg" width="24" height="24" fill="none" viewBox="0 0 24 24"><path fill="currentColor" d="M6.05079 1.83594C6.44304 1.85401 6.77893 2.00887 7.02931 2.14453C7.32479 2.30467 7.67468 2.53897 8.06153 2.79688L18.5772 9.80762C18.8944 10.0191 19.1922 10.2156 19.419 10.3984C19.6188 10.5596 19.852 10.778 20.0127 11.084L20.0772 11.2207L20.1445 11.4102C20.2804 11.8587 20.2582 12.3426 20.0772 12.7793C19.92 13.1582 19.6473 13.4164 19.419 13.6006C19.1922 13.7834 18.8945 13.9808 18.5772 14.1924L8.06153 21.2031C7.67472 21.461 7.32476 21.6953 7.02931 21.8555C6.74309 22.0105 6.34503 22.1909 5.87891 22.1631C5.285 22.1276 4.73595 21.8338 4.37696 21.3594C4.09503 20.9867 4.02386 20.5547 3.99415 20.2305C3.96352 19.8959 3.96485 19.4754 3.96485 19.0107V4.98926C3.96485 4.52458 3.96353 4.10412 3.99415 3.76953C4.02386 3.44526 4.09504 3.01331 4.37696 2.64062L4.52052 2.47168C4.87416 2.09704 5.35916 1.86795 5.87891 1.83691L6.05079 1.83594ZM6.03517 19.0107C6.03517 19.5055 6.03599 19.8105 6.0547 20.0273C6.24559 19.9227 6.50078 19.7553 6.91309 19.4805L17.4287 12.4697C17.7678 12.2437 17.9684 12.1071 18.1045 11.999C17.9684 11.8911 17.7671 11.7549 17.4287 11.5293L6.91309 4.51953C6.50049 4.24446 6.24565 4.07637 6.0547 3.97168C6.03593 4.18859 6.03517 4.49383 6.03517 4.98926V19.0107Z"/></svg>