<svg xmlns="http://www.w3.org/2000/svg" width="24" height="24" fill="none" viewBox="0 0 24 24"><g clip-path="url(#a)"><path fill="currentColor" d="M20.9648 12C20.9648 7.04877 16.9512 3.03516 12 3.03516C7.04877 3.03516 3.03516 7.04877 3.03516 12C3.03516 16.9512 7.04877 20.9648 12 20.9648C16.9512 20.9648 20.9648 16.9512 20.9648 12ZM10.0283 6.88184C10.3422 6.89195 10.5937 7.00969 10.7383 7.08496C10.9115 7.1751 11.1086 7.30396 11.292 7.42188L16.0127 10.4561C16.17 10.5572 16.3486 10.6706 16.4893 10.7803C16.6303 10.8903 16.8559 11.0869 16.9893 11.4023C17.1506 11.7843 17.1506 12.2157 16.9893 12.5977C16.8559 12.9131 16.6303 13.1097 16.4893 13.2197C16.3486 13.3294 16.17 13.4428 16.0127 13.5439L11.292 16.5781C11.1086 16.696 10.9115 16.8249 10.7383 16.915C10.5731 17.001 10.2686 17.1422 9.89062 17.1152C9.44651 17.0835 9.03832 16.8603 8.77148 16.5039C8.5444 16.2006 8.49845 15.8681 8.48145 15.6826C8.46364 15.4883 8.46484 15.2531 8.46484 15.0352V8.96582C8.46484 8.74777 8.46363 8.51183 8.48145 8.31738C8.49845 8.13194 8.5444 7.79942 8.77148 7.49609L8.87793 7.36816C9.14092 7.08647 9.50218 6.91252 9.89062 6.88477L10.0283 6.88184ZM10.5352 14.6035L14.5859 12L10.5352 9.39551V14.6035ZM23.0352 12C23.0352 18.0945 18.0945 23.0352 12 23.0352C5.90554 23.0352 0.964844 18.0945 0.964844 12C0.964844 5.90554 5.90554 0.964844 12 0.964844C18.0945 0.964844 23.0352 5.90554 23.0352 12Z"/></g><defs><clipPath id="a"><path fill="#fff" d="M0 0H24V24H0z"/></clipPath></defs></svg>