<svg xmlns="http://www.w3.org/2000/svg" width="24" height="24" fill="none" viewBox="0 0 24 24"><path fill="currentColor" d="M10.9648 19V13.0352H5C4.42839 13.0352 3.96484 12.5716 3.96484 12C3.96484 11.4284 4.42839 10.9648 5 10.9648H10.9648V5C10.9648 4.42839 11.4284 3.96484 12 3.96484C12.5716 3.96484 13.0352 4.42839 13.0352 5V10.9648H19C19.5716 10.9648 20.0352 11.4284 20.0352 12C20.0352 12.5716 19.5716 13.0352 19 13.0352H13.0352V19C13.0352 19.5716 12.5716 20.0352 12 20.0352C11.4284 20.0352 10.9648 19.5716 10.9648 19Z"/></svg>