<svg xmlns="http://www.w3.org/2000/svg" width="24" height="24" fill="none" viewBox="0 0 24 24"><path fill="currentColor" d="M12.9648 18C12.9648 17.467 12.533 17.0352 12 17.0352C11.467 17.0352 11.0352 17.467 11.0352 18V20C11.0352 20.533 11.467 20.9648 12 20.9648C12.533 20.9648 12.9648 20.533 12.9648 20V18ZM19.9648 10.7852C19.9648 6.52856 16.4225 3.03516 12 3.03516C7.57745 3.03516 4.03516 6.52856 4.03516 10.7852C4.03522 13.4116 5.38284 15.7371 7.46094 17.1426C7.93443 17.4628 8.05851 18.1066 7.73828 18.5801C7.41807 19.0532 6.77513 19.1773 6.30176 18.8574C3.69316 17.0932 1.96491 14.1444 1.96484 10.7852C1.96484 5.33842 6.4817 0.964844 12 0.964844C17.5183 0.964844 22.0352 5.33842 22.0352 10.7852C22.0351 14.1444 20.3068 17.0932 17.6982 18.8574C17.2249 19.1773 16.5819 19.0532 16.2617 18.5801C15.9415 18.1066 16.0656 17.4628 16.5391 17.1426C18.6172 15.7371 19.9648 13.4116 19.9648 10.7852ZM15.9648 10.751C15.9648 8.74843 14.2401 7.03516 12 7.03516C9.75987 7.03516 8.03516 8.74843 8.03516 10.751C8.03528 11.7155 8.43141 12.601 9.0957 13.2725C9.49728 13.6787 9.49378 14.3334 9.08789 14.7354C8.68154 15.1374 8.02604 15.1339 7.62402 14.7275C6.60675 13.6992 5.96496 12.3023 5.96484 10.751C5.96484 7.50665 8.71774 4.96484 12 4.96484C15.2823 4.96484 18.0352 7.50665 18.0352 10.751C18.035 12.3032 17.3932 13.6993 16.376 14.7275C15.974 15.1339 15.3185 15.1374 14.9121 14.7354C14.5062 14.3334 14.5027 13.6787 14.9043 13.2725C15.5687 12.6009 15.9647 11.7162 15.9648 10.751ZM12 10.9648C11.9807 10.9648 11.9648 10.9807 11.9648 11C11.9648 11.0193 11.9807 11.0352 12 11.0352C12.0097 11.0352 12.0181 11.0307 12.0244 11.0244L12.0352 11L12.0244 10.9756C12.0181 10.9693 12.0097 10.9648 12 10.9648ZM15.0352 20C15.0352 21.6762 13.6762 23.0352 12 23.0352C10.3238 23.0352 8.96484 21.6762 8.96484 20V18C8.96484 16.3238 10.3238 14.9648 12 14.9648C13.6762 14.9648 15.0352 16.3238 15.0352 18V20ZM14.0352 11C14.0352 12.1239 13.1239 13.0352 12 13.0352C10.8761 13.0352 9.96484 12.1239 9.96484 11C9.96484 9.8761 10.8761 8.96484 12 8.96484C13.1239 8.96484 14.0352 9.8761 14.0352 11Z"/></svg>