<svg xmlns="http://www.w3.org/2000/svg" width="24" height="24" fill="none" viewBox="0 0 24 24"><g clip-path="url(#a)"><path fill="currentColor" d="M20.9648 12C20.9648 7.04877 16.9512 3.03516 12 3.03516C7.04877 3.03516 3.03516 7.04877 3.03516 12C3.03516 16.9512 7.04877 20.9648 12 20.9648C16.9512 20.9648 20.9648 16.9512 20.9648 12ZM5.96484 12C5.96484 10.6423 6.41489 9.38677 7.17285 8.37793C7.51622 7.921 8.1651 7.82854 8.62207 8.17188C9.07893 8.51526 9.17046 9.16414 8.82715 9.62109C8.32933 10.2837 8.03516 11.1061 8.03516 12C8.03516 14.1898 9.81019 15.9648 12 15.9648C14.1898 15.9648 15.9648 14.1898 15.9648 12C15.9648 11.1061 15.6707 10.2837 15.1729 9.62109C14.8295 9.16414 14.9211 8.51526 15.3779 8.17188C15.8349 7.82854 16.4838 7.921 16.8271 8.37793C17.5851 9.38677 18.0352 10.6423 18.0352 12C18.0352 15.333 15.333 18.0352 12 18.0352C8.66696 18.0352 5.96484 15.333 5.96484 12ZM10.9648 12V7C10.9648 6.42839 11.4284 5.96484 12 5.96484C12.5716 5.96484 13.0352 6.42839 13.0352 7V12C13.0352 12.5716 12.5716 13.0352 12 13.0352C11.4284 13.0352 10.9648 12.5716 10.9648 12ZM23.0352 12C23.0352 18.0945 18.0945 23.0352 12 23.0352C5.90554 23.0352 0.964844 18.0945 0.964844 12C0.964844 5.90554 5.90554 0.964844 12 0.964844C18.0945 0.964844 23.0352 5.90554 23.0352 12Z"/></g><defs><clipPath id="a"><path fill="#fff" d="M0 0H24V24H0z"/></clipPath></defs></svg>