<svg xmlns="http://www.w3.org/2000/svg" width="24" height="24" fill="none" viewBox="0 0 24 24"><path fill="currentColor" d="M17.6279 5.9082C18.0321 5.50414 18.6876 5.50412 19.0917 5.9082C20.4948 7.31175 21.4509 9.10037 21.8378 11.0469C22.2246 12.9932 22.0251 15.0105 21.2656 16.8438C20.506 18.6771 19.2203 20.2442 17.5703 21.3467C15.9201 22.4492 13.9797 23.0381 11.9951 23.0381C10.0105 23.0381 8.07005 22.4492 6.41987 21.3467C4.76988 20.2442 3.48412 18.6771 2.72456 16.8438C1.96502 15.0105 1.7655 12.9932 2.15229 11.0469C2.53923 9.10037 3.4953 7.31175 4.89839 5.9082C5.30253 5.50412 5.95805 5.50414 6.36225 5.9082C6.7662 6.31235 6.76628 6.96792 6.36225 7.37207C5.24862 8.48609 4.48968 9.90524 4.18257 11.4502C3.87552 12.9951 4.03378 14.5966 4.63667 16.0518C5.23961 17.507 6.26053 18.7509 7.57026 19.626C8.88001 20.501 10.4199 20.9678 11.9951 20.9678C13.5702 20.9678 15.1101 20.501 16.4199 19.626C17.7296 18.7509 18.7505 17.507 19.3535 16.0518C19.9564 14.5966 20.1146 12.9951 19.8076 11.4502C19.5005 9.90523 18.7415 8.48609 17.6279 7.37207C17.2239 6.96792 17.2239 6.31236 17.6279 5.9082ZM10.9648 12V2C10.9648 1.42843 11.4284 0.964909 11.9999 0.964844C12.5716 0.964844 13.0351 1.42839 13.0351 2V12C13.0351 12.5716 12.5716 13.0352 11.9999 13.0352C11.4284 13.0351 10.9648 12.5716 10.9648 12Z"/></svg>