<svg xmlns="http://www.w3.org/2000/svg" width="24" height="24" fill="none" viewBox="0 0 24 24"><path fill="currentColor" d="M19.9648 4.03516H4.03516V11.2002C4.03516 12.0571 4.03565 12.6377 4.07227 13.0859C4.10791 13.5222 4.17227 13.7419 4.24902 13.8926C4.43737 14.2621 4.73794 14.5626 5.10742 14.751C5.25807 14.8277 5.47781 14.8921 5.91406 14.9277C6.36234 14.9643 6.94287 14.9648 7.7998 14.9648H16.2002C17.0571 14.9648 17.6377 14.9643 18.0859 14.9277C18.5222 14.8921 18.7419 14.8277 18.8926 14.751C19.2621 14.5626 19.5626 14.2621 19.751 13.8926C19.8277 13.7419 19.8921 13.5222 19.9277 13.0859C19.9643 12.6377 19.9648 12.0571 19.9648 11.2002V4.03516ZM6.96484 12V9C6.96484 8.42839 7.42839 7.96484 8 7.96484C8.57161 7.96484 9.03516 8.42839 9.03516 9V12C9.03516 12.5716 8.57161 13.0352 8 13.0352C7.42839 13.0352 6.96484 12.5716 6.96484 12ZM10.9648 12V7C10.9648 6.42839 11.4284 5.96484 12 5.96484C12.5716 5.96484 13.0352 6.42839 13.0352 7V12C13.0352 12.5716 12.5716 13.0352 12 13.0352C11.4284 13.0352 10.9648 12.5716 10.9648 12ZM14.9648 12V11C14.9648 10.4284 15.4284 9.96484 16 9.96484C16.5716 9.96484 17.0352 10.4284 17.0352 11V12C17.0352 12.5716 16.5716 13.0352 16 13.0352C15.4284 13.0352 14.9648 12.5716 14.9648 12ZM22.0352 11.2002C22.0352 12.0231 22.0353 12.7027 21.9902 13.2549C21.9441 13.8191 21.8449 14.341 21.5947 14.832C21.2079 15.591 20.591 16.2079 19.832 16.5947C19.341 16.8449 18.8191 16.9441 18.2549 16.9902C17.7027 17.0353 17.0231 17.0352 16.2002 17.0352H14.8584L18.6621 20.2051C19.1012 20.571 19.1607 21.223 18.7949 21.6621C18.429 22.1012 17.777 22.1607 17.3379 21.7949L13.0352 18.209V21C13.0352 21.5716 12.5716 22.0352 12 22.0352C11.4284 22.0352 10.9648 21.5716 10.9648 21V18.209L6.66211 21.7949C6.22298 22.1607 5.57096 22.1012 5.20508 21.6621C4.83932 21.223 4.89883 20.571 5.33789 20.2051L9.1416 17.0352H7.7998C6.97689 17.0352 6.29725 17.0353 5.74512 16.9902C5.18095 16.9441 4.65899 16.8449 4.16797 16.5947C3.409 16.2079 2.79208 15.591 2.40527 14.832C2.15509 14.341 2.05588 13.8191 2.00977 13.2549C1.96465 12.7027 1.96484 12.0231 1.96484 11.2002V4.0332C1.40952 4.01465 0.964844 3.55984 0.964844 3C0.964844 2.42839 1.42839 1.96484 2 1.96484H22C22.5716 1.96484 23.0352 2.42839 23.0352 3C23.0352 3.55984 22.5905 4.01465 22.0352 4.0332V11.2002Z"/></svg>