<svg xmlns="http://www.w3.org/2000/svg" width="24" height="24" fill="none" viewBox="0 0 24 24"><g clip-path="url(#a)"><path fill="currentColor" d="M14.7999 12.9648C15.3429 12.9648 15.8129 12.9646 16.1983 12.9961C16.5957 13.0286 16.994 13.1002 17.378 13.2959C17.949 13.5869 18.4132 14.0511 18.7042 14.6221C18.8999 15.0061 18.9715 15.4044 19.004 15.8018C19.0306 16.1275 19.0328 16.5137 19.0333 16.9531C19.2672 16.9437 19.3984 16.928 19.5089 16.8984C20.1869 16.7167 20.7168 16.1868 20.8985 15.5088C20.9566 15.2921 20.9649 14.9966 20.9649 14V11.7998C20.9649 10.9429 20.9644 10.3623 20.9278 9.91406C20.8922 9.47781 20.8278 9.25806 20.7511 9.10742C20.5627 8.73794 20.2622 8.43737 19.8927 8.24902C19.742 8.17227 19.5223 8.10791 19.086 8.07227C18.6378 8.03565 18.0572 8.03516 17.2003 8.03516H6.7999C5.94297 8.03516 5.36243 8.03565 4.91416 8.07227C4.47791 8.10791 4.25816 8.17227 4.10752 8.24902C3.73804 8.43737 3.43746 8.73794 3.24912 9.10742C3.17236 9.25807 3.108 9.47781 3.07236 9.91406C3.03575 10.3623 3.03525 10.9429 3.03525 11.7998V14C3.03525 14.9966 3.04359 15.2921 3.10166 15.5088C3.28337 16.1868 3.81328 16.7167 4.49131 16.8984C4.60165 16.928 4.73261 16.9437 4.96592 16.9531C4.96638 16.5137 4.96957 16.1275 4.99619 15.8018C5.02868 15.4044 5.10033 15.0061 5.29599 14.6221C5.58696 14.0511 6.05117 13.5869 6.62217 13.2959C7.00617 13.1002 7.40447 13.0286 7.80185 12.9961C8.18728 12.9646 8.65732 12.9648 9.20029 12.9648H14.7999ZM9.20029 15.0352C8.62318 15.0352 8.25238 15.0356 7.9708 15.0586C7.7013 15.0806 7.60531 15.1184 7.56162 15.1406C7.38042 15.2331 7.23317 15.3803 7.14072 15.5615C7.11846 15.6052 7.08071 15.7012 7.05869 15.9707C7.03568 16.2523 7.03525 16.6231 7.03525 17.2002V18.7998C7.03525 19.3769 7.03568 19.7477 7.05869 20.0293C7.08071 20.2988 7.11846 20.3948 7.14072 20.4385C7.23317 20.6197 7.38042 20.7669 7.56162 20.8594C7.60531 20.8816 7.7013 20.9194 7.9708 20.9414C8.25238 20.9644 8.62318 20.9648 9.20029 20.9648H14.7999C15.377 20.9648 15.7478 20.9644 16.0294 20.9414C16.2989 20.9194 16.3949 20.8816 16.4386 20.8594C16.6198 20.7669 16.767 20.6197 16.8595 20.4385C16.8817 20.3948 16.9195 20.2988 16.9415 20.0293C16.9645 19.7477 16.9649 19.3769 16.9649 18.7998V17.2002C16.9649 16.6231 16.9645 16.2523 16.9415 15.9707C16.9195 15.7012 16.8817 15.6052 16.8595 15.5615C16.767 15.3803 16.6198 15.2331 16.4386 15.1406C16.3949 15.1184 16.2989 15.0806 16.0294 15.0586C15.7478 15.0356 15.377 15.0352 14.7999 15.0352H9.20029ZM18.0001 9.46484C18.5717 9.46484 19.0353 9.92839 19.0353 10.5C19.0353 11.0716 18.5717 11.5352 18.0001 11.5352H15.0001C14.4285 11.5352 13.9649 11.0716 13.9649 10.5C13.9649 9.92839 14.4285 9.46484 15.0001 9.46484H18.0001ZM16.9649 5.2002C16.9649 4.62309 16.9645 4.25228 16.9415 3.9707C16.9195 3.7012 16.8817 3.60521 16.8595 3.56152C16.767 3.38033 16.6198 3.23308 16.4386 3.14062C16.3949 3.11837 16.2989 3.08061 16.0294 3.05859C15.7478 3.03559 15.377 3.03516 14.7999 3.03516H9.20029C8.62318 3.03516 8.25238 3.03559 7.9708 3.05859C7.7013 3.08061 7.60531 3.11837 7.56162 3.14062C7.38042 3.23308 7.23317 3.38033 7.14072 3.56152C7.11846 3.60521 7.08071 3.7012 7.05869 3.9707C7.03568 4.25228 7.03525 4.62309 7.03525 5.2002V5.96484H16.9649V5.2002ZM19.0353 5.99609C19.1105 6.00048 19.184 6.00396 19.255 6.00977C19.8191 6.05588 20.3411 6.15509 20.8321 6.40527C21.5911 6.79208 22.208 7.409 22.5948 8.16797C22.845 8.65899 22.9442 9.18095 22.9903 9.74512C23.0354 10.2973 23.0353 10.9769 23.0353 11.7998V14C23.0353 14.8632 23.0438 15.4977 22.8976 16.0439C22.5245 17.4364 21.4365 18.5244 20.044 18.8975C19.7421 18.9783 19.413 19.0097 19.0333 19.0234C19.0329 19.4726 19.0311 19.8667 19.004 20.1982C18.9715 20.5956 18.8999 20.9939 18.7042 21.3779C18.4132 21.9489 17.949 22.4131 17.378 22.7041C16.994 22.8998 16.5957 22.9714 16.1983 23.0039C15.8129 23.0354 15.3429 23.0352 14.7999 23.0352H9.20029C8.65732 23.0352 8.18728 23.0354 7.80185 23.0039C7.40447 22.9714 7.00617 22.8998 6.62217 22.7041C6.05117 22.4131 5.58696 21.9489 5.29599 21.3779C5.10033 20.9939 5.02868 20.5956 4.99619 20.1982C4.9691 19.8667 4.96628 19.4726 4.96592 19.0234C4.58662 19.0097 4.25788 18.9783 3.95615 18.8975C2.5637 18.5244 1.47574 17.4364 1.10263 16.0439C0.956352 15.4977 0.964939 14.8632 0.964939 14V11.7998C0.964938 10.9769 0.964749 10.2973 1.00986 9.74512C1.05597 9.18095 1.15518 8.65899 1.40537 8.16797C1.79217 7.409 2.4091 6.79208 3.16806 6.40527C3.65908 6.15509 4.18104 6.05588 4.74521 6.00977C4.81623 6.00396 4.88968 6.00048 4.96494 5.99609V5.2002C4.96494 4.65722 4.9647 4.18718 4.99619 3.80176C5.02868 3.40438 5.10033 3.00608 5.29599 2.62207C5.58696 2.05107 6.05117 1.58686 6.62217 1.2959C7.00617 1.10024 7.40447 1.02859 7.80185 0.996094C8.18728 0.964603 8.65732 0.964844 9.20029 0.964844H14.7999C15.3429 0.964844 15.8129 0.964603 16.1983 0.996094C16.5957 1.02859 16.994 1.10024 17.378 1.2959C17.949 1.58686 18.4132 2.05107 18.7042 2.62207C18.8999 3.00608 18.9715 3.40438 19.004 3.80176C19.0355 4.18718 19.0353 4.65722 19.0353 5.2002V5.99609Z"/></g><defs><clipPath id="a"><path fill="#fff" d="M0 0H24V24H0z"/></clipPath></defs></svg>