<svg xmlns="http://www.w3.org/2000/svg" width="24" height="24" fill="none" viewBox="0 0 24 24"><g clip-path="url(#a)"><path fill="currentColor" d="M11.3467 1.19738C11.7532 0.865704 12.3525 0.889695 12.7314 1.26866L15.3213 3.85753C15.9538 2.88855 16.7606 2.27304 17.6806 2.03917C18.9612 1.71385 20.189 2.20083 20.9941 3.00597C21.7993 3.81111 22.2862 5.03892 21.9609 6.31945C21.727 7.23961 21.1107 8.04526 20.1416 8.67784L22.7314 11.2687C23.1356 11.6729 23.1356 12.3274 22.7314 12.7316L19.1318 16.3321C18.8837 16.5802 18.5267 16.6858 18.1836 16.6124C17.8405 16.539 17.5576 16.2967 17.4326 15.9689C16.908 14.5918 16.245 14.1557 15.8096 14.045C15.3557 13.9297 14.8521 14.0875 14.4697 14.4698C14.0873 14.8522 13.9296 15.3558 14.0449 15.8097C14.1556 16.2451 14.5916 16.9081 15.9687 17.4327C16.2966 17.5577 16.5389 17.8406 16.6123 18.1837C16.6856 18.5268 16.5801 18.8838 16.332 19.1319L12.7314 22.7316C12.3272 23.1357 11.6727 23.1357 11.2685 22.7316L8.67772 20.1417C8.04513 21.1108 7.23948 21.7272 6.31932 21.961C5.03879 22.2864 3.81098 21.7994 3.00584 20.9943C2.2007 20.1891 1.71372 18.9613 2.03905 17.6808C2.27292 16.7607 2.88842 15.954 3.8574 15.3214L1.26854 12.7316C0.864345 12.3274 0.864345 11.6729 1.26854 11.2687L4.86815 7.66808L4.9658 7.58214C5.20507 7.39659 5.51604 7.3236 5.81639 7.38781C6.1595 7.46119 6.44239 7.70351 6.56737 8.03136C7.09198 9.40846 7.75501 9.84447 8.19041 9.95519C8.64426 10.0705 9.1479 9.91274 9.53026 9.53038C9.91262 9.14802 10.0704 8.64439 9.95506 8.19054C9.84435 7.75513 9.40834 7.0921 8.03123 6.56749C7.70338 6.44252 7.46106 6.15963 7.38768 5.81652C7.31433 5.47341 7.41989 5.1164 7.66795 4.86827L11.2685 1.26866L11.3467 1.19738ZM10.1416 5.3214C11.111 5.95403 11.727 6.76047 11.9609 7.68077C12.2862 8.9613 11.7993 10.1891 10.9941 10.9943C10.189 11.7994 8.96117 12.2864 7.68065 11.961C6.76034 11.7271 5.9539 11.1111 5.32127 10.1417L3.46287 12.0001L6.33201 14.8683C6.58007 15.1164 6.68563 15.4734 6.61229 15.8165C6.5389 16.1596 6.29658 16.4425 5.96873 16.5675C4.59163 17.0921 4.15562 17.7551 4.0449 18.1905C3.9296 18.6444 4.08735 19.148 4.46971 19.5304C4.85207 19.9127 5.35571 20.0705 5.80955 19.9552C6.24496 19.8445 6.90799 19.4085 7.4326 18.0314C7.55757 17.7035 7.84046 17.4612 8.18358 17.3878C8.52668 17.3145 8.88369 17.42 9.13182 17.6681L12 20.5362L13.8574 18.6778C12.8887 18.0453 12.2729 17.2394 12.039 16.3194C11.7137 15.0389 12.2007 13.8111 13.0058 13.006C13.811 12.2008 15.0388 11.7138 16.3193 12.0392C17.2393 12.273 18.0452 12.8888 18.6777 13.8575L20.5361 12.0001L17.668 9.13195C17.4199 8.88382 17.3143 8.52681 17.3877 8.1837C17.4611 7.84059 17.7034 7.5577 18.0312 7.43273C19.4083 6.90812 19.8443 6.24509 19.9551 5.80968C20.0704 5.35583 19.9126 4.8522 19.5303 4.46984C19.1479 4.08748 18.6443 3.92973 18.1904 4.04503C17.755 4.15575 17.092 4.59176 16.5674 5.96886C16.4424 6.29671 16.1595 6.53903 15.8164 6.61241C15.4733 6.68576 15.1163 6.5802 14.8681 6.33214L12 3.463L10.1416 5.3214Z"/></g><defs><clipPath id="a"><path fill="#fff" d="M0 0H24V24H0z"/></clipPath></defs></svg>