<svg xmlns="http://www.w3.org/2000/svg" width="24" height="24" fill="none" viewBox="0 0 24 24"><g clip-path="url(#a)"><path fill="currentColor" d="M16.9648 17.2002V15.5C16.9648 14.9284 17.4284 14.4648 18 14.4648H19.5C20.3091 14.4648 20.9648 13.8091 20.9648 13C20.9648 12.1909 20.3091 11.5352 19.5 11.5352H18C17.4284 11.5352 16.9648 11.0716 16.9648 10.5C16.9648 9.78693 16.9641 9.30368 16.9385 8.92871C16.9135 8.56325 16.8686 8.37653 16.8154 8.24805C16.616 7.76657 16.2334 7.38401 15.752 7.18457C15.6235 7.13135 15.4367 7.08648 15.0713 7.06152C14.6963 7.03594 14.2131 7.03516 13.5 7.03516H12.5C11.9284 7.03516 11.4648 6.57161 11.4648 6V4.5C11.4648 3.6909 10.8091 3.03516 10 3.03516C9.1909 3.03516 8.53516 3.6909 8.53516 4.5V6C8.53516 6.57161 8.07161 7.03516 7.5 7.03516H6.5C5.78693 7.03516 5.30368 7.03594 4.92871 7.06152C4.56325 7.08648 4.37653 7.13135 4.24805 7.18457C3.76657 7.38401 3.38401 7.76657 3.18457 8.24805C3.13135 8.37653 3.08648 8.56325 3.06152 8.92871C3.05083 9.08548 3.04475 9.2614 3.04102 9.46484H3.5C5.45233 9.46484 7.03516 11.0477 7.03516 13C7.03516 14.9523 5.45233 16.5352 3.5 16.5352H3.03516V17.2002C3.03516 18.0571 3.03565 18.6377 3.07227 19.0859C3.10791 19.5222 3.17227 19.7419 3.24902 19.8926C3.43737 20.2621 3.73794 20.5626 4.10742 20.751C4.25807 20.8277 4.47781 20.8921 4.91406 20.9277C5.36234 20.9643 5.94287 20.9648 6.7998 20.9648H6.96484V20.25C6.96484 18.4357 8.43574 16.9648 10.25 16.9648C12.0643 16.9648 13.5352 18.4357 13.5352 20.25V20.9629C14.2127 20.9621 14.6987 20.9594 15.0859 20.9277C15.5222 20.8921 15.7419 20.8277 15.8926 20.751C16.2621 20.5626 16.5626 20.2621 16.751 19.8926C16.8277 19.7419 16.8921 19.5222 16.9277 19.0859C16.9643 18.6377 16.9648 18.0571 16.9648 17.2002ZM13.5352 4.96484C14.2041 4.96483 14.7581 4.96513 15.2119 4.99609C15.683 5.02823 16.1212 5.09735 16.5439 5.27246C17.5326 5.68199 18.318 6.46737 18.7275 7.45605C18.9027 7.87883 18.9718 8.31704 19.0039 8.78809C19.0179 8.99284 19.0251 9.21797 19.0293 9.46484H19.5C21.4523 9.46484 23.0352 11.0477 23.0352 13C23.0352 14.9523 21.4523 16.5352 19.5 16.5352H19.0352V17.2002C19.0352 18.0231 19.0353 18.7027 18.9902 19.2549C18.9441 19.8191 18.8449 20.341 18.5947 20.832C18.2079 21.591 17.591 22.2079 16.832 22.5947C16.341 22.8449 15.8191 22.9441 15.2549 22.9902C14.7027 23.0353 14.0231 23.0352 13.2002 23.0352H12.5C11.9284 23.0352 11.4648 22.5716 11.4648 22V20.25C11.4648 19.579 10.921 19.0352 10.25 19.0352C9.57897 19.0352 9.03516 19.579 9.03516 20.25V22C9.03516 22.5716 8.57161 23.0352 8 23.0352H6.7998C5.97689 23.0352 5.29725 23.0353 4.74512 22.9902C4.18095 22.9441 3.65899 22.8449 3.16797 22.5947C2.409 22.2079 1.79208 21.591 1.40527 20.832C1.15509 20.341 1.05588 19.8191 1.00977 19.2549C0.964654 18.7027 0.964844 18.0231 0.964844 17.2002V15.5C0.964844 14.9284 1.42839 14.4648 2 14.4648H3.5C4.3091 14.4648 4.96484 13.8091 4.96484 13C4.96484 12.1909 4.3091 11.5352 3.5 11.5352H2C1.42839 11.5352 0.964844 11.0716 0.964844 10.5C0.964844 9.81525 0.964587 9.24986 0.996094 8.78809C1.02823 8.31704 1.09735 7.87883 1.27246 7.45605C1.68199 6.46737 2.46737 5.68199 3.45605 5.27246C3.87883 5.09735 4.31704 5.02823 4.78809 4.99609C5.24193 4.96513 5.79587 4.96483 6.46484 4.96484V4.5C6.46484 2.54767 8.04767 0.964844 10 0.964844C11.9523 0.964844 13.5352 2.54767 13.5352 4.5V4.96484Z"/></g><defs><clipPath id="a"><path fill="#fff" d="M0 0H24V24H0z"/></clipPath></defs></svg>