<svg xmlns="http://www.w3.org/2000/svg" width="24" height="24" fill="none" viewBox="0 0 24 24"><path fill="currentColor" d="M8 19.9648C8.57161 19.9648 9.03516 20.4284 9.03516 21C9.03516 21.5716 8.57161 22.0352 8 22.0352H3C2.42839 22.0352 1.96484 21.5716 1.96484 21C1.96484 20.4284 2.42839 19.9648 3 19.9648H8ZM12.0098 19.9648C12.5814 19.9648 13.0449 20.4284 13.0449 21C13.0449 21.5716 12.5814 22.0352 12.0098 22.0352H12C11.4284 22.0352 10.9648 21.5716 10.9648 21C10.9648 20.4284 11.4284 19.9648 12 19.9648H12.0098ZM19.9648 17.5996C19.9648 17.3166 19.9633 17.1576 19.9551 17.0439C19.8415 17.0358 19.6825 17.0352 19.4004 17.0352H17.5996C17.3167 17.0352 17.1576 17.0358 17.0439 17.0439C17.0358 17.1576 17.0352 17.3167 17.0352 17.5996V19.4004C17.0352 19.6825 17.0358 19.8415 17.0439 19.9551C17.1576 19.9633 17.3166 19.9648 17.5996 19.9648H19.4004C19.6826 19.9648 19.8415 19.9632 19.9551 19.9551C19.9632 19.8415 19.9648 19.6826 19.9648 19.4004V17.5996ZM4.5 15.9648C5.07161 15.9648 5.53516 16.4284 5.53516 17C5.53516 17.5716 5.07161 18.0352 4.5 18.0352H3C2.42839 18.0352 1.96484 17.5716 1.96484 17C1.96484 16.4284 2.42839 15.9648 3 15.9648H4.5ZM8.00977 15.9648C8.58138 15.9648 9.04492 16.4284 9.04492 17C9.04492 17.5716 8.58138 18.0352 8.00977 18.0352H8C7.42839 18.0352 6.96484 17.5716 6.96484 17C6.96484 16.4284 7.42839 15.9648 8 15.9648H8.00977ZM10.9648 17V13.0352H7C6.42839 13.0352 5.96484 12.5716 5.96484 12C5.96484 11.4284 6.42839 10.9648 7 10.9648H12C12.5716 10.9648 13.0352 11.4284 13.0352 12V17C13.0352 17.5716 12.5716 18.0352 12 18.0352C11.4284 18.0352 10.9648 17.5716 10.9648 17ZM3.00977 10.9648C3.58138 10.9648 4.04492 11.4284 4.04492 12C4.04492 12.5716 3.58138 13.0352 3.00977 13.0352H3C2.42839 13.0352 1.96484 12.5716 1.96484 12C1.96484 11.4284 2.42839 10.9648 3 10.9648H3.00977ZM17.5 10.9648C18.0716 10.9648 18.5352 11.4284 18.5352 12C18.5352 12.5716 18.0716 13.0352 17.5 13.0352H15.5C14.9284 13.0352 14.4648 12.5716 14.4648 12C14.4648 11.4284 14.9284 10.9648 15.5 10.9648H17.5ZM21.0098 10.9648C21.5814 10.9648 22.0449 11.4284 22.0449 12C22.0449 12.5716 21.5814 13.0352 21.0098 13.0352H21C20.4284 13.0352 19.9648 12.5716 19.9648 12C19.9648 11.4284 20.4284 10.9648 21 10.9648H21.0098ZM6.96484 4.59961C6.96484 4.31662 6.96327 4.15762 6.95508 4.04395C6.84147 4.03582 6.68252 4.03516 6.40039 4.03516H4.59961C4.31668 4.03516 4.15762 4.03576 4.04395 4.04395C4.03576 4.15762 4.03516 4.31668 4.03516 4.59961V6.40039C4.03516 6.68252 4.03582 6.84147 4.04395 6.95508C4.15762 6.96327 4.31662 6.96484 4.59961 6.96484H6.40039C6.68258 6.96484 6.84147 6.96321 6.95508 6.95508C6.96321 6.84147 6.96484 6.68258 6.96484 6.40039V4.59961ZM10.9648 8V2C10.9648 1.42839 11.4284 0.964844 12 0.964844C12.5716 0.964844 13.0352 1.42839 13.0352 2V8C13.0352 8.57161 12.5716 9.03516 12 9.03516C11.4284 9.03516 10.9648 8.57161 10.9648 8ZM19.9648 4.59961C19.9648 4.31662 19.9633 4.15762 19.9551 4.04395C19.8415 4.03582 19.6825 4.03516 19.4004 4.03516H17.5996C17.3167 4.03516 17.1576 4.03576 17.0439 4.04395C17.0358 4.15762 17.0352 4.31668 17.0352 4.59961V6.40039C17.0352 6.68252 17.0358 6.84147 17.0439 6.95508C17.1576 6.96327 17.3166 6.96484 17.5996 6.96484H19.4004C19.6826 6.96484 19.8415 6.96321 19.9551 6.95508C19.9632 6.84147 19.9648 6.68258 19.9648 6.40039V4.59961ZM22.0352 19.4004C22.0352 19.663 22.0354 19.9221 22.0176 20.1406C21.9987 20.3713 21.9546 20.6467 21.8135 20.9238C21.6184 21.3067 21.3067 21.6184 20.9238 21.8135C20.6467 21.9546 20.3713 21.9987 20.1406 22.0176C19.9221 22.0354 19.663 22.0352 19.4004 22.0352H17.5996C17.337 22.0352 17.0779 22.0354 16.8594 22.0176C16.6287 21.9987 16.3533 21.9546 16.0762 21.8135C15.6933 21.6184 15.3816 21.3067 15.1865 20.9238C15.0454 20.6467 15.0013 20.3713 14.9824 20.1406C14.9646 19.9221 14.9648 19.663 14.9648 19.4004V17.5996C14.9648 17.337 14.9646 17.0779 14.9824 16.8594C15.0013 16.6287 15.0454 16.3533 15.1865 16.0762L15.2656 15.9355C15.4611 15.617 15.7413 15.3572 16.0762 15.1865L16.2832 15.0977C16.4881 15.0247 16.6864 14.9966 16.8594 14.9824C17.0779 14.9646 17.337 14.9648 17.5996 14.9648H19.4004C19.663 14.9648 19.9221 14.9646 20.1406 14.9824C20.3713 15.0013 20.6467 15.0454 20.9238 15.1865C21.2587 15.3572 21.5389 15.617 21.7344 15.9355L21.8135 16.0762L21.9023 16.2832C21.9753 16.4881 22.0034 16.6864 22.0176 16.8594C22.0354 17.0779 22.0352 17.337 22.0352 17.5996V19.4004ZM9.03516 6.40039C9.03516 6.66304 9.0354 6.92215 9.01758 7.14062C8.99873 7.37134 8.95465 7.6467 8.81348 7.92383C8.61837 8.30674 8.30674 8.61837 7.92383 8.81348C7.6467 8.95465 7.37134 8.99873 7.14062 9.01758C6.92215 9.0354 6.66304 9.03516 6.40039 9.03516H4.59961C4.33696 9.03516 4.07785 9.0354 3.85938 9.01758C3.62866 8.99873 3.3533 8.95465 3.07617 8.81348C2.69326 8.61837 2.38163 8.30674 2.18652 7.92383C2.04535 7.6467 2.00127 7.37134 1.98242 7.14062C1.9646 6.92215 1.96484 6.66304 1.96484 6.40039V4.59961C1.96484 4.33696 1.9646 4.07785 1.98242 3.85938C2.00127 3.62866 2.04535 3.3533 2.18652 3.07617L2.26563 2.93555C2.46114 2.61698 2.74128 2.35716 3.07617 2.18652L3.2832 2.09766C3.48814 2.02471 3.6864 1.99655 3.85938 1.98242C4.07785 1.9646 4.33696 1.96484 4.59961 1.96484H6.40039C6.66304 1.96484 6.92215 1.9646 7.14062 1.98242C7.37134 2.00127 7.6467 2.04535 7.92383 2.18652C8.25872 2.35716 8.53886 2.61698 8.73438 2.93555L8.81348 3.07617L8.90234 3.2832C8.97529 3.48814 9.00345 3.6864 9.01758 3.85938C9.0354 4.07785 9.03516 4.33696 9.03516 4.59961V6.40039ZM22.0352 6.40039C22.0352 6.66304 22.0354 6.92215 22.0176 7.14062C21.9987 7.37134 21.9546 7.6467 21.8135 7.92383C21.6184 8.30674 21.3067 8.61837 20.9238 8.81348C20.6467 8.95465 20.3713 8.99873 20.1406 9.01758C19.9221 9.0354 19.663 9.03516 19.4004 9.03516H17.5996C17.337 9.03516 17.0779 9.0354 16.8594 9.01758C16.6287 8.99873 16.3533 8.95465 16.0762 8.81348C15.6933 8.61837 15.3816 8.30674 15.1865 7.92383C15.0454 7.6467 15.0013 7.37134 14.9824 7.14062C14.9646 6.92215 14.9648 6.66304 14.9648 6.40039V4.59961C14.9648 4.33696 14.9646 4.07785 14.9824 3.85938C15.0013 3.62866 15.0454 3.3533 15.1865 3.07617L15.2656 2.93555C15.4611 2.61698 15.7413 2.35716 16.0762 2.18652L16.2832 2.09766C16.4881 2.02471 16.6864 1.99655 16.8594 1.98242C17.0779 1.9646 17.337 1.96484 17.5996 1.96484H19.4004C19.663 1.96484 19.9221 1.9646 20.1406 1.98242C20.3713 2.00127 20.6467 2.04535 20.9238 2.18652C21.2587 2.35716 21.5389 2.61698 21.7344 2.93555L21.8135 3.07617L21.9023 3.2832C21.9753 3.48814 22.0034 3.6864 22.0176 3.85938C22.0354 4.07785 22.0352 4.33696 22.0352 4.59961V6.40039Z"/></svg>