<svg xmlns="http://www.w3.org/2000/svg" width="24" height="24" fill="none" viewBox="0 0 24 24"><path fill="currentColor" d="M18.9648 7.7998C18.9648 6.94287 18.9643 6.36234 18.9277 5.91406C18.8921 5.47781 18.8277 5.25807 18.751 5.10742C18.5626 4.73794 18.2621 4.43737 17.8926 4.24902C17.7419 4.17227 17.5222 4.10791 17.0859 4.07227C16.6377 4.03565 16.0571 4.03516 15.2002 4.03516H8.7998C7.94287 4.03516 7.36234 4.03565 6.91406 4.07227C6.47781 4.10791 6.25807 4.17227 6.10742 4.24902C5.73794 4.43737 5.43737 4.73794 5.24902 5.10742C5.17227 5.25807 5.10791 5.47781 5.07227 5.91406C5.03565 6.36234 5.03516 6.94287 5.03516 7.7998V18.9678L6.1416 18.1631L6.28809 18.0732C6.64407 17.8956 7.07779 17.9366 7.39648 18.1914L9.28027 19.6982L11.3916 18.1631L11.5332 18.0762C11.8753 17.9032 12.291 17.9323 12.6084 18.1631L14.7188 19.6982L16.6035 18.1914L16.7461 18.0957C17.0936 17.9019 17.5283 17.9231 17.8584 18.1631L18.9648 18.9678V7.7998ZM21.0352 21C21.0352 21.3892 20.8165 21.7452 20.4697 21.9219C20.1229 22.0985 19.7064 22.0658 19.3916 21.8369L17.2803 20.3008L15.3965 21.8086C15.0324 22.0997 14.5187 22.111 14.1416 21.8369L12 20.2793L9.8584 21.8369C9.48135 22.111 8.9676 22.0997 8.60352 21.8086L6.71875 20.3008L4.6084 21.8369C4.29359 22.0658 3.87711 22.0985 3.53027 21.9219C3.1835 21.7452 2.96484 21.3892 2.96484 21V7.7998C2.96484 6.97689 2.96465 6.29725 3.00977 5.74512C3.05588 5.18095 3.15509 4.65899 3.40527 4.16797C3.79208 3.409 4.409 2.79208 5.16797 2.40527C5.65899 2.15509 6.18095 2.05588 6.74512 2.00977C7.29725 1.96465 7.97689 1.96484 8.7998 1.96484H15.2002C16.0231 1.96484 16.7027 1.96465 17.2549 2.00977C17.8191 2.05588 18.341 2.15509 18.832 2.40527C19.591 2.79208 20.2079 3.409 20.5947 4.16797C20.8449 4.65899 20.9441 5.18095 20.9902 5.74512C21.0353 6.29725 21.0352 6.97689 21.0352 7.7998V21Z"/></svg>