<svg xmlns="http://www.w3.org/2000/svg" width="24" height="24" fill="none" viewBox="0 0 24 24"><path fill="currentColor" d="M15.4648 21V3C15.4648 2.42839 15.9284 1.96484 16.5 1.96484C17.0716 1.96484 17.5352 2.42839 17.5352 3V21C17.5352 21.5716 17.0716 22.0352 16.5 22.0352C15.9284 22.0352 15.4648 21.5716 15.4648 21ZM10.9648 18V6C10.9648 5.42839 11.4284 4.96484 12 4.96484C12.5716 4.96484 13.0352 5.42839 13.0352 6V18C13.0352 18.5716 12.5716 19.0352 12 19.0352C11.4284 19.0352 10.9648 18.5716 10.9648 18ZM1.96484 14V10C1.96484 9.42839 2.42839 8.96484 3 8.96484C3.57161 8.96484 4.03516 9.42839 4.03516 10V14C4.03516 14.5716 3.57161 15.0352 3 15.0352C2.42839 15.0352 1.96484 14.5716 1.96484 14ZM19.9648 14V10C19.9648 9.42839 20.4284 8.96484 21 8.96484C21.5716 8.96484 22.0352 9.42839 22.0352 10V14C22.0352 14.5716 21.5716 15.0352 21 15.0352C20.4284 15.0352 19.9648 14.5716 19.9648 14ZM6.46484 13V11C6.46484 10.4284 6.92839 9.96484 7.5 9.96484C8.07161 9.96484 8.53516 10.4284 8.53516 11V13C8.53516 13.5716 8.07161 14.0352 7.5 14.0352C6.92839 14.0352 6.46484 13.5716 6.46484 13Z"/></svg>