<svg xmlns="http://www.w3.org/2000/svg" width="24" height="24" fill="none" viewBox="0 0 24 24"><path fill="currentColor" d="M10.9648 21V3C10.9648 2.42839 11.4284 1.96484 12 1.96484C12.5716 1.96484 13.0352 2.42839 13.0352 3V21C13.0352 21.5716 12.5716 22.0352 12 22.0352C11.4284 22.0352 10.9648 21.5716 10.9648 21ZM6.46484 18V6C6.46484 5.42839 6.92839 4.96484 7.5 4.96484C8.07161 4.96484 8.53516 5.42839 8.53516 6V18C8.53516 18.5716 8.07161 19.0352 7.5 19.0352C6.92839 19.0352 6.46484 18.5716 6.46484 18ZM15.4648 18V6C15.4648 5.42839 15.9284 4.96484 16.5 4.96484C17.0716 4.96484 17.5352 5.42839 17.5352 6V18C17.5352 18.5716 17.0716 19.0352 16.5 19.0352C15.9284 19.0352 15.4648 18.5716 15.4648 18ZM1.96484 14V10C1.96484 9.42839 2.42839 8.96484 3 8.96484C3.57161 8.96484 4.03516 9.42839 4.03516 10V14C4.03516 14.5716 3.57161 15.0352 3 15.0352C2.42839 15.0352 1.96484 14.5716 1.96484 14ZM19.9648 14V10C19.9648 9.42839 20.4284 8.96484 21 8.96484C21.5716 8.96484 22.0352 9.42839 22.0352 10V14C22.0352 14.5716 21.5716 15.0352 21 15.0352C20.4284 15.0352 19.9648 14.5716 19.9648 14Z"/></svg>