<svg xmlns="http://www.w3.org/2000/svg" width="24" height="24" fill="none" viewBox="0 0 24 24"><g clip-path="url(#a)"><path fill="currentColor" d="M20.9648 12C20.9648 7.04877 16.9512 3.03516 12 3.03516C7.04877 3.03516 3.03516 7.04877 3.03516 12C3.03516 16.9512 7.04877 20.9648 12 20.9648C16.9512 20.9648 20.9648 16.9512 20.9648 12ZM12.9648 17V7C12.9648 6.42839 13.4284 5.96484 14 5.96484C14.5716 5.96484 15.0352 6.42839 15.0352 7V17C15.0352 17.5716 14.5716 18.0352 14 18.0352C13.4284 18.0352 12.9648 17.5716 12.9648 17ZM8.96484 15V9C8.96484 8.42839 9.42839 7.96484 10 7.96484C10.5716 7.96484 11.0352 8.42839 11.0352 9V15C11.0352 15.5716 10.5716 16.0352 10 16.0352C9.42839 16.0352 8.96484 15.5716 8.96484 15ZM4.96484 13V11C4.96484 10.4284 5.42839 9.96484 6 9.96484C6.57161 9.96484 7.03516 10.4284 7.03516 11V13C7.03516 13.5716 6.57161 14.0352 6 14.0352C5.42839 14.0352 4.96484 13.5716 4.96484 13ZM16.9648 13V11C16.9648 10.4284 17.4284 9.96484 18 9.96484C18.5716 9.96484 19.0352 10.4284 19.0352 11V13C19.0352 13.5716 18.5716 14.0352 18 14.0352C17.4284 14.0352 16.9648 13.5716 16.9648 13ZM23.0352 12C23.0352 18.0945 18.0945 23.0352 12 23.0352C5.90554 23.0352 0.964844 18.0945 0.964844 12C0.964844 5.90554 5.90554 0.964844 12 0.964844C18.0945 0.964844 23.0352 5.90554 23.0352 12Z"/></g><defs><clipPath id="a"><path fill="#fff" d="M0 0H24V24H0z"/></clipPath></defs></svg>