<svg xmlns="http://www.w3.org/2000/svg" width="24" height="24" fill="none" viewBox="0 0 24 24"><path fill="currentColor" d="M10.9648 21V18C10.9648 17.4284 11.4284 16.9648 12 16.9648C12.5716 16.9648 13.0352 17.4284 13.0352 18V21C13.0352 21.5716 12.5716 22.0352 12 22.0352C11.4284 22.0352 10.9648 21.5716 10.9648 21ZM3.76855 7.26855C4.17275 6.86436 4.82725 6.86436 5.23145 7.26855L9.23145 11.2686C9.63564 11.6727 9.63564 12.3273 9.23145 12.7314L5.23145 16.7314C4.82725 17.1356 4.17275 17.1356 3.76855 16.7314C3.36436 16.3273 3.36436 15.6727 3.76855 15.2686L6.00195 13.0352H2C1.42839 13.0352 0.964844 12.5716 0.964844 12C0.964844 11.4284 1.42839 10.9648 2 10.9648H6.00195L3.76855 8.73145C3.36436 8.32725 3.36436 7.67275 3.76855 7.26855ZM18.7686 7.26855C19.1727 6.86436 19.8273 6.86436 20.2314 7.26855C20.6356 7.67275 20.6356 8.32725 20.2314 8.73145L17.998 10.9648H22C22.5716 10.9648 23.0352 11.4284 23.0352 12C23.0352 12.5716 22.5716 13.0352 22 13.0352H17.998L20.2314 15.2686C20.6356 15.6727 20.6356 16.3273 20.2314 16.7314C19.8273 17.1356 19.1727 17.1356 18.7686 16.7314L14.7686 12.7314C14.3644 12.3273 14.3644 11.6727 14.7686 11.2686L18.7686 7.26855ZM10.9648 13.5V10.5C10.9648 9.92839 11.4284 9.46484 12 9.46484C12.5716 9.46484 13.0352 9.92839 13.0352 10.5V13.5C13.0352 14.0716 12.5716 14.5352 12 14.5352C11.4284 14.5352 10.9648 14.0716 10.9648 13.5ZM10.9648 6V3C10.9648 2.42839 11.4284 1.96484 12 1.96484C12.5716 1.96484 13.0352 2.42839 13.0352 3V6C13.0352 6.57161 12.5716 7.03516 12 7.03516C11.4284 7.03516 10.9648 6.57161 10.9648 6Z"/></svg>