<svg xmlns="http://www.w3.org/2000/svg" width="24" height="24" fill="none" viewBox="0 0 24 24"><path fill="currentColor" d="M10.9649 21V18C10.9649 17.4284 11.4284 16.9648 12 16.9648C12.5716 16.9648 13.0352 17.4284 13.0352 18V21C13.0352 21.5716 12.5716 22.0352 12 22.0352C11.4284 22.0352 10.9649 21.5716 10.9649 21ZM2.62794 6.4873C2.95892 6.52021 3.21449 6.67006 3.35451 6.75879C3.52892 6.86932 3.72853 7.02344 3.91896 7.16992L8.30665 10.5459C8.43159 10.642 8.58022 10.7546 8.69826 10.8633C8.80636 10.9628 8.95989 11.1207 9.06935 11.3486L9.11329 11.4502L9.15822 11.585C9.24713 11.9016 9.23191 12.2404 9.11329 12.5498C9.0045 12.8334 8.82173 13.023 8.69826 13.1367C8.58022 13.2454 8.43159 13.358 8.30665 13.4541L3.91896 16.8301C3.72853 16.9766 3.52892 17.1307 3.35451 17.2412C3.19446 17.3426 2.88345 17.5244 2.48146 17.5195C2.01819 17.5139 1.58194 17.2992 1.29494 16.9355C1.04576 16.6197 0.999618 16.2619 0.982436 16.0732C0.96371 15.8676 0.964857 15.6153 0.964857 15.375V8.625C0.964857 8.38474 0.96371 8.13241 0.982436 7.92676C0.999618 7.73809 1.04576 7.3803 1.29494 7.06445C1.58194 6.70076 2.01819 6.48615 2.48146 6.48047L2.62794 6.4873ZM21.5186 6.48047C21.9818 6.48615 22.4181 6.70076 22.7051 7.06445C22.9543 7.3803 23.0004 7.73809 23.0176 7.92676C23.0363 8.13241 23.0352 8.38474 23.0352 8.625V15.375C23.0352 15.6153 23.0363 15.8676 23.0176 16.0732C23.0004 16.2619 22.9543 16.6197 22.7051 16.9355C22.4181 17.2992 21.9818 17.5139 21.5186 17.5195C21.1166 17.5244 20.8056 17.3426 20.6455 17.2412C20.4711 17.1307 20.2715 16.9766 20.0811 16.8301L15.6934 13.4541C15.5684 13.358 15.4198 13.2454 15.3018 13.1367C15.1783 13.023 14.9955 12.8334 14.8867 12.5498C14.7511 12.1961 14.7511 11.8039 14.8867 11.4502C14.9955 11.1666 15.1783 10.977 15.3018 10.8633C15.4198 10.7546 15.5684 10.642 15.6934 10.5459L20.0811 7.16992C20.2715 7.02344 20.4711 6.86932 20.6455 6.75879C20.8056 6.65737 21.1166 6.47562 21.5186 6.48047ZM3.03517 14.8975L6.80177 12L3.03517 9.10156V14.8975ZM17.1973 12L20.9649 14.8975V9.10156L17.1973 12ZM10.9649 13.5V10.5C10.9649 9.92839 11.4284 9.46484 12 9.46484C12.5716 9.46484 13.0352 9.92839 13.0352 10.5V13.5C13.0352 14.0716 12.5716 14.5352 12 14.5352C11.4284 14.5352 10.9649 14.0716 10.9649 13.5ZM10.9649 6V3C10.9649 2.42839 11.4284 1.96484 12 1.96484C12.5716 1.96484 13.0352 2.42839 13.0352 3V6C13.0352 6.57161 12.5716 7.03516 12 7.03516C11.4284 7.03516 10.9649 6.57161 10.9649 6Z"/></svg>