<svg xmlns="http://www.w3.org/2000/svg" width="24" height="24" fill="none" viewBox="0 0 24 24"><path fill="currentColor" d="M17.7747 6.6658C17.9226 6.11381 18.4902 5.78659 19.0423 5.93435L21.7747 6.6658C22.3267 6.81372 22.6539 7.38134 22.5061 7.93338C22.3582 8.48552 21.7907 8.81374 21.2385 8.6658L20.8997 8.57498C22.5632 12.8816 20.8912 17.8769 16.7678 20.2576C14.0223 21.8427 10.8157 21.9063 8.12722 20.7137C7.60472 20.4818 7.36905 19.8699 7.60085 19.3474C7.83274 18.8254 8.4438 18.5896 8.96609 18.8211C11.0758 19.7571 13.5843 19.705 15.7327 18.4646C18.8389 16.6711 20.1681 12.9828 19.1038 9.70291L19.0423 9.93338C18.8943 10.4855 18.3268 10.8137 17.7747 10.6658C17.2226 10.5178 16.8954 9.95031 17.0432 9.39822L17.7747 6.6658ZM7.23269 3.74295C9.97824 2.1579 13.1849 2.09417 15.8733 3.28689C16.3955 3.51873 16.6311 4.12982 16.3997 4.65213C16.1679 5.17463 15.556 5.4103 15.0335 5.1785C12.9238 4.24263 10.4152 4.29463 8.26687 5.53494C5.16113 7.32811 3.83249 11.0162 4.89577 14.2957L4.95827 14.0662C5.10622 13.5141 5.67371 13.1858 6.22585 13.3338C6.77767 13.4818 7.10496 14.0494 6.9573 14.6013L6.22488 17.3338C6.15384 17.5988 5.98106 17.8254 5.74343 17.9627C5.50571 18.0999 5.22244 18.1363 4.9573 18.0652L2.22585 17.3338C1.6738 17.1858 1.34565 16.6183 1.49343 16.0662C1.64134 15.5142 2.20899 15.1861 2.76101 15.3338L3.09988 15.4246C1.43681 11.1181 3.10945 6.1235 7.23269 3.74295Z"/></svg>