<svg xmlns="http://www.w3.org/2000/svg" width="24" height="24" fill="none" viewBox="0 0 24 24"><path fill="currentColor" d="M0.964844 20V14C0.964844 13.4284 1.42839 12.9648 2 12.9648H8C8.57161 12.9648 9.03516 13.4284 9.03516 14C9.03516 14.5716 8.57161 15.0351 8 15.0351H3.9502C4.46153 15.6466 5.22678 16.4904 6.36816 17.6318C9.47869 20.7423 14.5213 20.7423 17.6318 17.6318C18.735 16.5286 19.4457 15.1849 19.7666 13.7705C19.8932 13.2134 20.4477 12.864 21.0049 12.9902C21.5623 13.1167 21.9116 13.672 21.7852 14.2295C21.3803 16.0134 20.4829 17.7085 19.0957 19.0957C15.1768 23.0146 8.82321 23.0146 4.9043 19.0957C4.13763 18.329 3.52568 17.681 3.03516 17.1357V20C3.03516 20.5716 2.57161 21.0351 2 21.0351C1.42839 21.0351 0.964844 20.5716 0.964844 20ZM4.9043 4.90427C8.82321 0.98536 15.1768 0.98536 19.0957 4.90427C19.8621 5.67068 20.4744 6.31805 20.9648 6.86326V3.99997C20.9648 3.42836 21.4284 2.96482 22 2.96482C22.5716 2.96482 23.0352 3.42836 23.0352 3.99997V9.99997C23.0352 10.5716 22.5716 11.0351 22 11.0351H16C15.4284 11.0351 14.9648 10.5716 14.9648 9.99997C14.9648 9.42836 15.4284 8.96482 16 8.96482H20.0498C19.5385 8.35334 18.7732 7.50952 17.6318 6.36814C14.5213 3.25761 9.47869 3.25761 6.36816 6.36814C5.26498 7.47133 4.55433 8.81502 4.2334 10.2295C4.10677 10.7865 3.5523 11.1359 2.99512 11.0097C2.43767 10.8833 2.08836 10.3279 2.21484 9.77048C2.61971 7.98656 3.51707 6.29149 4.9043 4.90427Z"/></svg>