<svg xmlns="http://www.w3.org/2000/svg" width="24" height="24" fill="none" viewBox="0 0 24 24"><path fill="currentColor" d="M19.9648 12C19.9648 7.60105 16.3989 4.03516 12 4.03516C9.79925 4.03516 7.80888 4.92645 6.36621 6.37012C5.6265 7.11034 4.78837 8.10887 4.10449 8.96484H8C8.57161 8.96484 9.03516 9.42839 9.03516 10C9.03516 10.5716 8.57161 11.0352 8 11.0352H2C1.42839 11.0352 0.964844 10.5716 0.964844 10V4C0.964844 3.42839 1.42839 2.96484 2 2.96484C2.57161 2.96484 3.03516 3.42839 3.03516 4V6.99805C3.62236 6.28675 4.28239 5.52565 4.90137 4.90625C6.7164 3.08997 9.22795 1.96484 12 1.96484C17.5422 1.96484 22.0352 6.45782 22.0352 12C22.0352 17.5422 17.5422 22.0352 12 22.0352C7.4236 22.0352 3.56523 18.9724 2.35742 14.7871C2.19898 14.238 2.5155 13.6645 3.06445 13.5059C3.61365 13.3474 4.18819 13.6637 4.34668 14.2129C5.30562 17.536 8.37027 19.9648 12 19.9648C16.3989 19.9648 19.9648 16.3989 19.9648 12Z"/></svg>