<svg xmlns="http://www.w3.org/2000/svg" width="24" height="24" fill="none" viewBox="0 0 24 24"><path fill="currentColor" d="M2.46484 12.0004C2.46484 8.83006 4.01341 6.02045 6.39062 4.2885C6.85261 3.95211 7.50038 4.05412 7.83691 4.51604C8.1733 4.97802 8.0713 5.62578 7.60938 5.96232C5.74406 7.32144 4.53516 9.51979 4.53516 12.0004C4.53534 15.5859 7.0637 18.5787 10.4346 19.2983L10.2686 19.1322C9.86436 18.7281 9.86436 18.0726 10.2686 17.6684C10.6727 17.2643 11.3273 17.2643 11.7314 17.6684L13.7314 19.6684C14.1356 20.0726 14.1356 20.7281 13.7314 21.1322L11.7314 23.1322C11.3274 23.5359 10.6726 23.5359 10.2686 23.1322C9.86436 22.7281 9.86436 22.0726 10.2686 21.6684L10.5166 21.4194C5.95527 20.7068 2.46503 16.7616 2.46484 12.0004ZM19.4648 12.0004C19.4648 8.41356 16.9351 5.41796 13.5625 4.69963L13.7314 4.86857C14.1356 5.27277 14.1356 5.92727 13.7314 6.33146C13.3273 6.73566 12.6727 6.73566 12.2686 6.33146L10.2686 4.33146C9.86436 3.92727 9.86436 3.27277 10.2686 2.86857L12.2686 0.868574C12.6727 0.464382 13.3273 0.464382 13.7314 0.868574C14.1356 1.27277 14.1356 1.92727 13.7314 2.33146L13.4824 2.57951C18.0444 3.29163 21.5352 7.23861 21.5352 12.0004C21.535 15.1706 19.9865 17.9795 17.6094 19.7113C17.1474 20.0478 16.4996 19.9458 16.1631 19.4838C15.8268 19.0219 15.9289 18.375 16.3906 18.0385C18.256 16.6795 19.4647 14.481 19.4648 12.0004Z"/></svg>