<svg xmlns="http://www.w3.org/2000/svg" width="24" height="24" fill="none" viewBox="0 0 24 24"><path fill="currentColor" d="M20.5626 11.8636C21.1309 11.9241 21.5428 12.434 21.4825 13.0023C21.1712 15.927 19.5123 18.673 16.7667 20.2582C12.6433 22.6385 7.48182 21.5883 4.58404 17.9945L4.49322 18.3343C4.34517 18.8862 3.77759 19.2135 3.22564 19.0658C2.67354 18.9178 2.34534 18.3503 2.49322 17.7982L3.22564 15.0658C3.37373 14.5138 3.9412 14.1864 4.49322 14.3343L7.22564 15.0667C7.77746 15.2149 8.10499 15.7824 7.95709 16.3343C7.80899 16.8862 7.2415 17.2136 6.68951 17.0658L6.45904 17.0033C8.76737 19.5646 12.6253 20.2583 15.7315 18.4652C17.8799 17.2248 19.1796 15.0786 19.4239 12.7835C19.4844 12.2152 19.9942 11.8031 20.5626 11.8636ZM7.23248 3.74253C11.3558 1.36193 16.5172 2.41146 19.4151 6.00522L19.5069 5.66635C19.6548 5.11423 20.2223 4.78601 20.7745 4.93393C21.3265 5.08186 21.6537 5.64945 21.5059 6.20151L20.7745 8.93393C20.7034 9.19908 20.5298 9.42559 20.2921 9.56284C20.0544 9.69998 19.7719 9.73635 19.5069 9.66538L16.7745 8.93393C16.2224 8.78599 15.8952 8.21843 16.043 7.66635C16.191 7.11422 16.7585 6.78599 17.3106 6.93393L17.5381 6.99448C15.2296 4.43499 11.3729 3.74199 8.26764 5.53452C6.11937 6.77482 4.81964 8.92121 4.57525 11.2162C4.51475 11.7846 4.00499 12.1966 3.43658 12.1361C2.86822 12.0755 2.45617 11.5658 2.51666 10.9974C2.82797 8.0727 4.48688 5.3277 7.23248 3.74253Z"/></svg>