<svg xmlns="http://www.w3.org/2000/svg" width="24" height="24" fill="none" viewBox="0 0 24 24"><path fill="currentColor" d="M12.9902 2.99512C13.1166 2.43767 13.672 2.08836 14.2294 2.21484C16.0133 2.61971 17.7084 3.51708 19.0956 4.9043C23.0145 8.82321 23.0145 15.1768 19.0956 19.0957C18.329 19.8624 17.681 20.4743 17.1357 20.9648H19.9999C20.5715 20.9648 21.0351 21.4284 21.0351 22C21.0351 22.5716 20.5715 23.0352 19.9999 23.0352H13.9999C13.7254 23.0352 13.4626 22.9255 13.2685 22.7314C13.0744 22.5373 12.9648 22.2745 12.9648 22V16C12.9648 15.4284 13.4283 14.9648 13.9999 14.9648C14.5715 14.9648 15.0351 15.4284 15.0351 16V20.0488C15.6465 19.5375 16.4907 18.7729 17.6318 17.6318C20.7423 14.5213 20.7423 9.47869 17.6318 6.36816C16.5286 5.26498 15.1849 4.55433 13.7704 4.2334C13.2133 4.10677 12.864 3.5523 12.9902 2.99512ZM11.0351 8C11.0351 8.57161 10.5715 9.03516 9.99993 9.03516C9.42831 9.03516 8.96477 8.57161 8.96477 8V3.9502C8.3533 4.46151 7.50948 5.22677 6.36809 6.36816C3.2576 9.47866 3.25766 14.5213 6.36809 17.6318C7.47128 18.735 8.81497 19.4457 10.2294 19.7666C10.7867 19.8932 11.1361 20.4485 11.0097 21.0059C10.8831 21.5631 10.3278 21.9126 9.77043 21.7861C7.98645 21.3813 6.29149 20.483 4.90422 19.0957C0.985409 15.1768 0.985344 8.82318 4.90422 4.9043C5.67089 4.13763 6.31886 3.52567 6.86418 3.03516H3.99993C3.42832 3.03514 2.96477 2.5716 2.96477 2C2.96479 1.4284 3.42833 0.964843 3.99993 0.964844H9.99993C10.5715 0.964862 11.035 1.42849 11.0351 2V8Z"/></svg>