<svg xmlns="http://www.w3.org/2000/svg" width="24" height="24" fill="none" viewBox="0 0 24 24"><path fill="currentColor" d="M9.77043 2.21387C10.3278 2.08741 10.8831 2.43691 11.0097 2.99414C11.1361 3.55147 10.7867 4.10676 10.2294 4.2334C8.81497 4.55433 7.47128 5.26498 6.36809 6.36816C3.25766 9.4787 3.2576 14.5213 6.36809 17.6318C7.50919 18.7729 8.35334 19.5375 8.96477 20.0488V16C8.96477 15.4284 9.42831 14.9648 9.99993 14.9648C10.5715 14.9648 11.0351 15.4284 11.0351 16V22C11.035 22.5715 10.5715 23.0351 9.99993 23.0352H3.99993C3.42833 23.0352 2.96479 22.5716 2.96477 22C2.96477 21.4284 3.42832 20.9649 3.99993 20.9648H6.86418C6.31887 20.4743 5.67089 19.8624 4.90422 19.0957C0.985344 15.1768 0.985409 8.82322 4.90422 4.9043C6.29149 3.51703 7.98645 2.61871 9.77043 2.21387ZM12.9648 8V2C12.9648 1.7255 13.0744 1.46265 13.2685 1.26855C13.4626 1.07445 13.7254 0.964844 13.9999 0.964844H19.9999C20.5715 0.964844 21.0351 1.42839 21.0351 2C21.0351 2.57161 20.5715 3.03516 19.9999 3.03516H17.1357C17.681 3.52568 18.329 4.13763 19.0956 4.9043C23.0145 8.82321 23.0145 15.1768 19.0956 19.0957C17.7084 20.4829 16.0133 21.3803 14.2294 21.7852C13.672 21.9116 13.1166 21.5623 12.9902 21.0049C12.864 20.4477 13.2134 19.8932 13.7704 19.7666C15.1849 19.4457 16.5286 18.735 17.6318 17.6318C20.7423 14.5213 20.7423 9.47869 17.6318 6.36816C16.4904 5.22678 15.6466 4.46153 15.0351 3.9502V8C15.0351 8.57161 14.5715 9.03516 13.9999 9.03516C13.4283 9.03516 12.9648 8.57161 12.9648 8Z"/></svg>