<svg xmlns="http://www.w3.org/2000/svg" width="24" height="24" fill="none" viewBox="0 0 24 24"><path fill="currentColor" d="M1.96484 12C1.96484 6.45782 6.45782 1.96484 12 1.96484C14.772 1.96484 17.2836 3.08997 19.0986 4.90625C19.7176 5.52565 20.3776 6.28675 20.9648 6.99805V4C20.9648 3.42839 21.4284 2.96484 22 2.96484C22.5716 2.96484 23.0352 3.42839 23.0352 4V10C23.0352 10.5716 22.5716 11.0352 22 11.0352H16C15.4284 11.0352 14.9648 10.5716 14.9648 10C14.9648 9.42839 15.4284 8.96484 16 8.96484H19.8955C19.2116 8.10887 18.3735 7.11034 17.6338 6.37012C16.1911 4.92645 14.2008 4.03516 12 4.03516C7.60105 4.03516 4.03516 7.60105 4.03516 12C4.03516 16.3989 7.60105 19.9648 12 19.9648C15.6297 19.9648 18.6954 17.536 19.6543 14.2129C19.8129 13.6639 20.3864 13.3474 20.9355 13.5059C21.4845 13.6645 21.801 14.238 21.6426 14.7871C20.4348 18.9724 16.5764 22.0352 12 22.0352C6.45782 22.0352 1.96484 17.5422 1.96484 12Z"/></svg>