<svg xmlns="http://www.w3.org/2000/svg" width="24" height="24" fill="none" viewBox="0 0 24 24"><path fill="currentColor" d="M4.9043 4.90427C8.82321 0.98536 15.1768 0.98536 19.0957 4.90427C20.4829 6.29149 21.3803 7.98656 21.7852 9.77048C21.9116 10.3279 21.5623 10.8833 21.0049 11.0097C20.4477 11.1359 19.8932 10.7865 19.7666 10.2295C19.4457 8.81502 18.735 7.47133 17.6318 6.36814C14.5213 3.25761 9.47869 3.25761 6.36816 6.36814C5.22678 7.50952 4.46153 8.35334 3.9502 8.96482H8C8.57161 8.96482 9.03516 9.42836 9.03516 9.99997C9.03516 10.5716 8.57161 11.0351 8 11.0351H2C1.42839 11.0351 0.964844 10.5716 0.964844 9.99997V3.99997C0.964844 3.42836 1.42839 2.96482 2 2.96482C2.57161 2.96482 3.03516 3.42836 3.03516 3.99997V6.86326C3.5256 6.31805 4.13788 5.67068 4.9043 4.90427ZM23.0352 20C23.0352 20.5716 22.5716 21.0351 22 21.0351C21.4284 21.0351 20.9648 20.5716 20.9648 20V17.1357C20.4743 17.681 19.8624 18.329 19.0957 19.0957C15.1768 23.0146 8.82321 23.0146 4.9043 19.0957C3.51707 17.7085 2.61971 16.0134 2.21484 14.2295C2.08836 13.672 2.43767 13.1167 2.99512 12.9902C3.5523 12.864 4.10677 13.2134 4.2334 13.7705C4.55433 15.1849 5.26498 16.5286 6.36816 17.6318C9.47869 20.7423 14.5213 20.7423 17.6318 17.6318C18.7732 16.4904 19.5385 15.6466 20.0498 15.0351H16C15.4284 15.0351 14.9648 14.5716 14.9648 14C14.9648 13.4284 15.4284 12.9648 16 12.9648H22C22.5716 12.9648 23.0352 13.4284 23.0352 14V20Z"/></svg>