<svg xmlns="http://www.w3.org/2000/svg" width="24" height="24" fill="none" viewBox="0 0 24 24"><g clip-path="url(#a)"><path fill="currentColor" d="M20.9648 11.9999C20.9648 9.62196 19.5733 7.56681 17.5557 6.60832C17.0395 6.36297 16.8202 5.74566 17.0654 5.22941C17.3108 4.7132 17.9281 4.49295 18.4443 4.7382C21.1566 6.02664 23.0352 8.79309 23.0352 11.9999C23.0352 16.4375 19.4376 20.0351 15 20.0351H12.498L13.7314 21.2685C14.1356 21.6727 14.1356 22.3272 13.7314 22.7314C13.3273 23.1356 12.6727 23.1356 12.2686 22.7314L9.26855 19.7314C8.86436 19.3272 8.86436 18.6727 9.26855 18.2685L12.2686 15.2685C12.6727 14.8643 13.3273 14.8643 13.7314 15.2685C14.1356 15.6727 14.1356 16.3272 13.7314 16.7314L12.498 17.9648H15C18.2944 17.9648 20.9648 15.2943 20.9648 11.9999ZM0.964844 11.9999C0.964844 7.56231 4.56239 3.96477 9 3.96477H11.502L10.2686 2.73137C9.86436 2.32717 9.86436 1.67267 10.2686 1.26848C10.6727 0.864284 11.3273 0.864284 11.7314 1.26848L14.7314 4.26848C15.1356 4.67267 15.1356 5.32717 14.7314 5.73137L11.7314 8.73137C11.3273 9.13556 10.6727 9.13556 10.2686 8.73137C9.86436 8.32717 9.86436 7.67267 10.2686 7.26848L11.502 6.03508H9C5.70562 6.03508 3.03516 8.70554 3.03516 11.9999C3.03516 14.3779 4.42666 16.433 6.44434 17.3915C6.96049 17.6369 7.17981 18.2542 6.93457 18.7704C6.68925 19.2866 6.07193 19.5069 5.55566 19.2616C2.84345 17.9732 0.964844 15.2067 0.964844 11.9999Z"/></g><defs><clipPath id="a"><path fill="#fff" d="M0 0H24V24H0z"/></clipPath></defs></svg>