<svg xmlns="http://www.w3.org/2000/svg" width="24" height="24" fill="none" viewBox="0 0 24 24"><path fill="currentColor" d="M19.4648 12.0004C19.4648 9.51979 18.2559 7.32144 16.3906 5.96232C15.9287 5.62578 15.8267 4.97802 16.1631 4.51604C16.4996 4.05412 17.1474 3.95211 17.6094 4.2885C19.9866 6.02045 21.5352 8.83006 21.5352 12.0004C21.535 16.762 18.0442 20.7072 13.4824 21.4194L13.7314 21.6684C14.1356 22.0726 14.1356 22.7281 13.7314 23.1322C13.3274 23.5359 12.6726 23.5359 12.2686 23.1322L10.2686 21.1322C9.86436 20.7281 9.86436 20.0726 10.2686 19.6684L12.2686 17.6684C12.6727 17.2643 13.3273 17.2643 13.7314 17.6684C14.1356 18.0726 14.1356 18.7281 13.7314 19.1322L13.5645 19.2983C16.9358 18.5791 19.4647 15.5863 19.4648 12.0004ZM2.46484 12.0004C2.46484 7.23894 5.95506 3.29204 10.5166 2.57951L10.2686 2.33146C9.86436 1.92727 9.86436 1.27277 10.2686 0.868574C10.6727 0.464382 11.3273 0.464382 11.7314 0.868574L13.7314 2.86857C14.1356 3.27277 14.1356 3.92727 13.7314 4.33146L11.7314 6.33146C11.3273 6.73566 10.6727 6.73566 10.2686 6.33146C9.86436 5.92727 9.86436 5.27277 10.2686 4.86857L10.4365 4.69963C7.06438 5.41832 4.53516 8.41389 4.53516 12.0004C4.53528 14.481 5.74402 16.6795 7.60938 18.0385C8.07114 18.375 8.17316 19.0219 7.83691 19.4838C7.50035 19.9458 6.85262 20.0478 6.39062 19.7113C4.01351 17.9795 2.46497 15.1706 2.46484 12.0004Z"/></svg>