<svg xmlns="http://www.w3.org/2000/svg" width="24" height="24" fill="none" viewBox="0 0 24 24"><g clip-path="url(#a)"><path fill="currentColor" d="M20.9649 14.2001V8.49992C20.9649 8.0026 20.9628 7.85382 20.9483 7.74309C20.832 6.8616 20.1383 6.16788 19.2568 6.05168C19.1461 6.0371 18.9973 6.03508 18.5 6.03508C17.9284 6.03508 17.4649 5.57154 17.4649 4.99992C17.4649 4.42831 17.9284 3.96477 18.5 3.96477C18.9314 3.96477 19.2473 3.9632 19.5264 3.99992C21.337 4.2383 22.7616 5.66291 23 7.47355C23.0367 7.75265 23.0352 8.06852 23.0352 8.49992V14.2001C23.0352 15.023 23.0354 15.7027 22.9902 16.2548C22.9441 16.819 22.8449 17.3409 22.5947 17.832C22.2079 18.5909 21.591 19.2078 20.832 19.5946C20.341 19.8448 19.8191 19.944 19.2549 19.9902C18.7028 20.0353 18.0231 20.0351 17.2002 20.0351H12.4981L13.7315 21.2685C14.1356 21.6727 14.1356 22.3272 13.7315 22.7314C13.3273 23.1356 12.6728 23.1356 12.2686 22.7314L9.26856 19.7314C8.86437 19.3272 8.86437 18.6727 9.26856 18.2685L12.2686 15.2685C12.6728 14.8643 13.3273 14.8643 13.7315 15.2685C14.1356 15.6727 14.1356 16.3272 13.7315 16.7314L12.4981 17.9648H17.2002C18.0571 17.9648 18.6377 17.9643 19.0859 17.9277C19.5222 17.892 19.7419 17.8277 19.8926 17.7509C20.2621 17.5626 20.5626 17.262 20.751 16.8925C20.8277 16.7419 20.8921 16.5221 20.9277 16.0859C20.9644 15.6376 20.9649 15.057 20.9649 14.2001ZM0.964853 15.4999V9.79973C0.964853 8.97681 0.964664 8.29717 1.00978 7.74504C1.05589 7.18087 1.1551 6.65891 1.40528 6.16789C1.79209 5.40892 2.40901 4.792 3.16798 4.4052C3.659 4.15501 4.18096 4.0558 4.74513 4.00969C5.29726 3.96458 5.9769 3.96477 6.79981 3.96477H11.502L10.2686 2.73137C9.86437 2.32717 9.86437 1.67267 10.2686 1.26848C10.6728 0.864284 11.3273 0.864284 11.7315 1.26848L14.7315 4.26848C15.1356 4.67267 15.1356 5.32717 14.7315 5.73137L11.7315 8.73137C11.3273 9.13556 10.6728 9.13556 10.2686 8.73137C9.86437 8.32717 9.86437 7.67267 10.2686 7.26848L11.502 6.03508H6.79981C5.94288 6.03508 5.36235 6.03557 4.91407 6.07219C4.47782 6.10783 4.25807 6.17219 4.10743 6.24895C3.73795 6.43729 3.43738 6.73786 3.24903 7.10734C3.17228 7.25799 3.10792 7.47773 3.07228 7.91398C3.03566 8.36226 3.03517 8.9428 3.03517 9.79973V15.4999C3.03517 15.9972 3.03719 16.146 3.05177 16.2568C3.16797 17.1382 3.86169 17.832 4.74317 17.9482C4.85391 17.9627 5.00269 17.9648 5.50001 17.9648C6.07162 17.9648 6.53517 18.4283 6.53517 18.9999C6.53517 19.5715 6.07162 20.0351 5.50001 20.0351C5.06861 20.0351 4.75274 20.0366 4.47364 19.9999C2.663 19.7615 1.23838 18.3369 1.00001 16.5263C0.96329 16.2472 0.964853 15.9313 0.964853 15.4999Z"/></g><defs><clipPath id="a"><path fill="#fff" d="M0 0H24V24H0z"/></clipPath></defs></svg>