<svg xmlns="http://www.w3.org/2000/svg" width="24" height="24" fill="none" viewBox="0 0 24 24"><path fill="currentColor" d="M6.26855 13.2685C6.67275 12.8643 7.32725 12.8643 7.73145 13.2685C8.13564 13.6727 8.13564 14.3272 7.73145 14.7314L5.49805 16.9648H16.2002C17.0571 16.9648 17.6377 16.9643 18.0859 16.9277C18.5222 16.892 18.7419 16.8277 18.8926 16.7509C19.2621 16.5626 19.5626 16.262 19.751 15.8925C19.8277 15.7419 19.8921 15.5221 19.9277 15.0859C19.9643 14.6376 19.9648 14.057 19.9648 13.2001V12.9999C19.9648 12.4283 20.4284 11.9648 21 11.9648C21.5716 11.9648 22.0352 12.4283 22.0352 12.9999V13.2001C22.0352 14.023 22.0353 14.7027 21.9902 15.2548C21.9441 15.819 21.8449 16.3409 21.5947 16.832C21.2079 17.5909 20.591 18.2078 19.832 18.5946C19.341 18.8448 18.8191 18.944 18.2549 18.9902C17.7027 19.0353 17.0231 19.0351 16.2002 19.0351H5.49805L7.73145 21.2685C8.13564 21.6727 8.13564 22.3272 7.73145 22.7314C7.32725 23.1356 6.67275 23.1356 6.26855 22.7314L2.26855 18.7314C1.86436 18.3272 1.86436 17.6727 2.26855 17.2685L6.26855 13.2685ZM1.96484 10.9999V10.7997C1.96484 9.97681 1.96465 9.29717 2.00977 8.74504C2.05588 8.18087 2.15509 7.65891 2.40527 7.16789C2.79208 6.40892 3.409 5.792 4.16797 5.4052C4.65899 5.15501 5.18095 5.0558 5.74512 5.00969C6.29725 4.96458 6.97689 4.96477 7.7998 4.96477H18.502L16.2686 2.73137C15.8644 2.32717 15.8644 1.67267 16.2686 1.26848C16.6727 0.864284 17.3273 0.864284 17.7314 1.26848L21.7314 5.26848C22.1356 5.67267 22.1356 6.32717 21.7314 6.73137L17.7314 10.7314C17.3273 11.1356 16.6727 11.1356 16.2686 10.7314C15.8644 10.3272 15.8644 9.67267 16.2686 9.26848L18.502 7.03508H7.7998C6.94287 7.03508 6.36234 7.03557 5.91406 7.07219C5.47781 7.10783 5.25807 7.17219 5.10742 7.24895C4.73794 7.43729 4.43737 7.73786 4.24902 8.10734C4.17227 8.25799 4.10791 8.47773 4.07227 8.91398C4.03565 9.36226 4.03516 9.9428 4.03516 10.7997V10.9999C4.03516 11.5715 3.57161 12.0351 3 12.0351C2.42839 12.0351 1.96484 11.5715 1.96484 10.9999Z"/></svg>