<svg xmlns="http://www.w3.org/2000/svg" width="24" height="24" fill="none" viewBox="0 0 24 24"><path fill="currentColor" d="M18.9648 13C18.9648 10.258 16.7421 8.0352 14 8.0352H6.49805L8.73145 10.2686C9.13564 10.6728 9.13564 11.3273 8.73145 11.7315C8.32725 12.1357 7.67275 12.1357 7.26855 11.7315L3.26855 7.73149C2.86436 7.3273 2.86436 6.67279 3.26855 6.2686L7.26855 2.2686C7.67275 1.86441 8.32725 1.86441 8.73145 2.2686C9.13564 2.67279 9.13564 3.3273 8.73145 3.73149L6.49805 5.96489H14C17.8853 5.96489 21.0352 9.11472 21.0352 13C21.0352 16.8854 17.8853 20.0352 14 20.0352H4C3.42839 20.0352 2.96484 19.5717 2.96484 19C2.96484 18.4284 3.42839 17.9649 4 17.9649H14C16.7421 17.9649 18.9648 15.7421 18.9648 13Z"/></svg>