<svg xmlns="http://www.w3.org/2000/svg" width="24" height="24" fill="none" viewBox="0 0 24 24"><path fill="currentColor" d="M2.96484 13C2.96484 9.11472 6.11468 5.96489 10 5.96489H17.502L15.2686 3.73149C14.8644 3.3273 14.8644 2.67279 15.2686 2.2686C15.6727 1.86441 16.3273 1.86441 16.7314 2.2686L20.7314 6.2686C21.1356 6.67279 21.1356 7.3273 20.7314 7.73149L16.7314 11.7315C16.3273 12.1357 15.6727 12.1357 15.2686 11.7315C14.8644 11.3273 14.8644 10.6728 15.2686 10.2686L17.502 8.0352H10C7.25791 8.0352 5.03516 10.258 5.03516 13C5.03516 15.7421 7.25791 17.9649 10 17.9649H20C20.5716 17.9649 21.0352 18.4284 21.0352 19C21.0352 19.5717 20.5716 20.0352 20 20.0352H10C6.11468 20.0352 2.96484 16.8854 2.96484 13Z"/></svg>