<svg xmlns="http://www.w3.org/2000/svg" width="24" height="24" fill="none" viewBox="0 0 24 24"><path fill="currentColor" d="M21 18.9651C21.5716 18.9651 22.0352 19.4287 22.0352 20.0003C22.0351 20.5719 21.5716 21.0354 21 21.0354H3C2.4284 21.0354 1.96487 20.5719 1.96484 20.0003C1.96484 19.4287 2.42839 18.9651 3 18.9651H21ZM21 13.7151C21.5716 13.7151 22.0352 14.1787 22.0352 14.7503C22.0351 15.3219 21.5716 15.7854 21 15.7854H3C2.4284 15.7854 1.96487 15.3219 1.96484 14.7503C1.96484 14.1787 2.42839 13.7151 3 13.7151H21ZM20.7031 1.4788C21.0419 1.52401 21.3563 1.68108 21.5957 1.92509L21.709 2.05399L21.792 2.17313C21.9655 2.4535 22.0025 2.74468 22.0176 2.90946C22.0362 3.11334 22.0352 3.36314 22.0352 3.59989V9.40067C22.0352 9.63723 22.0361 9.88636 22.0176 10.0901C22.0004 10.2784 21.9547 10.6326 21.709 10.9466C21.425 11.3093 20.9928 11.5248 20.5322 11.5345C20.1338 11.5427 19.8231 11.3681 19.6621 11.2688C19.4878 11.1613 19.2881 11.0106 19.0986 10.8684L15.2324 7.96806C15.1031 7.87105 14.9503 7.75777 14.8291 7.64872C14.703 7.53529 14.5144 7.34505 14.4023 7.05692C14.2632 6.69905 14.2632 6.30151 14.4023 5.94364C14.5144 5.6555 14.703 5.46529 14.8291 5.35185C14.9503 5.24281 15.1031 5.12951 15.2324 5.03251L19.0986 2.13212C19.2881 1.99 19.4878 1.83923 19.6621 1.73173C19.8231 1.63246 20.1338 1.45684 20.5322 1.46513L20.7031 1.4788ZM12 8.21513C12.5716 8.21513 13.0352 8.67867 13.0352 9.25028C13.0351 9.82188 12.5716 10.2854 12 10.2854H3C2.4284 10.2854 1.96487 9.82188 1.96484 9.25028C1.96484 8.67867 2.42839 8.21513 3 8.21513H12ZM16.7246 6.49931L19.9648 8.92997V4.06962L16.7246 6.49931ZM12 2.96513C12.5716 2.96513 13.0352 3.42867 13.0352 4.00028C13.0351 4.57188 12.5716 5.03544 12 5.03544H3C2.4284 5.03544 1.96487 4.57188 1.96484 4.00028C1.96484 3.42867 2.42839 2.96513 3 2.96513H12Z"/></svg>