<svg xmlns="http://www.w3.org/2000/svg" width="24" height="24" fill="none" viewBox="0 0 24 24"><path fill="currentColor" d="M21 18.9648C21.5716 18.9648 22.0352 19.4284 22.0352 20C22.0352 20.5716 21.5716 21.0352 21 21.0352H3C2.42839 21.0352 1.96484 20.5716 1.96484 20C1.96484 19.4284 2.42839 18.9648 3 18.9648H21ZM20.7031 6.97852C21.0419 7.02373 21.3563 7.18081 21.5957 7.4248L21.709 7.55371L21.792 7.67285C21.9657 7.95347 22.0026 8.24544 22.0176 8.41016C22.0361 8.61393 22.0352 8.86306 22.0352 9.09961V14.9004C22.0352 15.1369 22.0361 15.3861 22.0176 15.5898C22.0004 15.7781 21.9547 16.1323 21.709 16.4463C21.425 16.809 20.9928 17.0255 20.5322 17.0352C20.1338 17.0434 19.8231 16.8678 19.6621 16.7686C19.4878 16.6611 19.2881 16.5103 19.0986 16.3682L15.2324 13.4678C15.1031 13.3708 14.9503 13.2575 14.8291 13.1484C14.703 13.035 14.5144 12.8448 14.4023 12.5566C14.2632 12.1988 14.2632 11.8012 14.4023 11.4434C14.5144 11.1552 14.703 10.965 14.8291 10.8516C14.9503 10.7425 15.1031 10.6292 15.2324 10.5322L19.0986 7.63184C19.2881 7.48972 19.4878 7.33895 19.6621 7.23145C19.8231 7.13218 20.1338 6.95656 20.5322 6.96484L20.7031 6.97852ZM12 13.7148C12.5716 13.7148 13.0352 14.1784 13.0352 14.75C13.0352 15.3216 12.5716 15.7852 12 15.7852H3C2.42839 15.7852 1.96484 15.3216 1.96484 14.75C1.96484 14.1784 2.42839 13.7148 3 13.7148H12ZM16.7256 12L19.9648 14.4297V9.56934L16.7256 12ZM12 8.21484C12.5716 8.21484 13.0352 8.67839 13.0352 9.25C13.0352 9.82161 12.5716 10.2852 12 10.2852H3C2.42839 10.2852 1.96484 9.82161 1.96484 9.25C1.96484 8.67839 2.42839 8.21484 3 8.21484H12ZM21 2.96484C21.5716 2.96484 22.0352 3.42839 22.0352 4C22.0352 4.57161 21.5716 5.03516 21 5.03516H3C2.42839 5.03516 1.96484 4.57161 1.96484 4C1.96484 3.42839 2.42839 2.96484 3 2.96484H21Z"/></svg>