<svg xmlns="http://www.w3.org/2000/svg" width="24" height="24" fill="none" viewBox="0 0 24 24"><path fill="currentColor" d="M2.49997 21.4998L2.63669 22.5261C2.31735 22.5687 1.99644 22.4599 1.76853 22.2322C1.54051 22.0042 1.43189 21.6827 1.47458 21.3631L2.49997 21.4998ZM6.00388 14.9539C6.69694 14.9753 7.36195 15.2198 7.90134 15.6472L8.12497 15.8416L8.13669 15.8533C9.33856 17.04 9.32264 18.9426 8.29196 20.1648C7.84474 20.6972 7.23037 21.0882 6.64157 21.3758C6.04107 21.6691 5.39337 21.8912 4.81247 22.0574C4.22815 22.2245 3.68871 22.3404 3.29685 22.4148C3.10027 22.4521 2.93897 22.4798 2.82517 22.4978C2.76829 22.5068 2.7232 22.5137 2.69138 22.5183C2.67546 22.5206 2.66237 22.522 2.65329 22.5232C2.64888 22.5238 2.64525 22.5248 2.64255 22.5252C2.64144 22.5253 2.64043 22.5251 2.63962 22.5252L2.63767 22.5261L2.49997 21.4998L1.47458 21.3621V21.3572C1.47495 21.3545 1.47591 21.3509 1.47653 21.3465C1.4778 21.3374 1.4791 21.3243 1.48142 21.3084C1.48604 21.2766 1.49293 21.2313 1.50192 21.1746C1.51997 21.0608 1.54761 20.8994 1.58493 20.7029C1.65932 20.3111 1.77527 19.7724 1.94235 19.1883C2.10855 18.6072 2.33158 17.9588 2.62497 17.3582C2.91249 16.7696 3.30184 16.1549 3.83396 15.7078C4.43968 15.1977 5.21235 14.9295 6.00388 14.9539ZM10.9648 19.9998V15.4285L8.57126 13.0349H3.99997C3.69312 13.0349 3.4017 12.8984 3.20505 12.6629C3.00869 12.4274 2.92667 12.1169 2.98142 11.8152V11.8142L2.98239 11.8133C2.98256 11.8123 2.98216 11.8106 2.98239 11.8094C2.98286 11.8068 2.98362 11.8034 2.98435 11.7996C2.98585 11.7916 2.98855 11.7808 2.99118 11.7674C2.99649 11.7402 3.00359 11.7017 3.01364 11.6541C3.03372 11.5589 3.06414 11.425 3.10446 11.2625C3.18482 10.9385 3.30849 10.4926 3.48337 10.0105C3.80805 9.1155 4.39984 7.82507 5.42478 7.13943L5.42575 7.13845C6.02737 6.73741 6.73196 6.57267 7.36911 6.51345C8.01514 6.45344 8.67138 6.49483 9.24021 6.56814C9.75607 6.63464 10.2231 6.73144 10.58 6.81619C11.7922 5.11154 13.3749 3.69873 15.2138 2.68728C17.2939 1.54323 19.6329 0.949899 22.0068 0.964623C22.5756 0.968373 23.035 1.43092 23.0351 1.99978C23.0351 4.81321 22.2445 9.71245 17.1855 13.4285C17.2698 13.7844 17.3656 14.2486 17.4316 14.7605C17.5049 15.3292 17.5463 15.9848 17.4863 16.6306C17.4271 17.2678 17.2623 17.9724 16.8613 18.574L16.8603 18.576C16.1746 19.6008 14.8842 20.1917 13.9892 20.5164C13.5071 20.6913 13.0613 20.8159 12.7373 20.8963C12.5748 20.9366 12.4408 20.966 12.3457 20.9861C12.298 20.9962 12.2596 21.0042 12.2324 21.0095C12.219 21.0122 12.2081 21.0139 12.2002 21.0154C12.1962 21.0162 12.193 21.0169 12.1904 21.0174C12.1893 21.0176 12.1883 21.0182 12.1875 21.0183H12.1855C12.1853 21.0184 12.1848 21.0181 12 19.9998L12.1845 21.0183C11.8828 21.073 11.5723 20.9912 11.3369 20.7947C11.1013 20.5981 10.9648 20.3066 10.9648 19.9998ZM5.9404 17.0222C5.65832 17.0135 5.38277 17.1099 5.16696 17.2918L5.16599 17.2927C4.9484 17.4755 4.71237 17.8005 4.48435 18.2674C4.26218 18.7223 4.07886 19.2462 3.93259 19.7576C3.89129 19.902 3.85287 20.0436 3.81833 20.1804C3.95561 20.1458 4.0983 20.1086 4.24313 20.0672C4.7545 19.9209 5.2785 19.7376 5.73337 19.5154C6.19967 19.2876 6.5242 19.0521 6.707 18.8347L6.70993 18.8318C7.09589 18.3749 7.05932 17.7028 6.68454 17.3299C6.48171 17.1409 6.21776 17.0309 5.9404 17.0222ZM15.3134 14.6033C14.5743 15.0094 13.8141 15.376 13.0351 15.7V18.656C13.1162 18.6291 13.1993 18.6015 13.2832 18.5711C14.1456 18.2582 14.8553 17.8495 15.1396 17.4246C15.2781 17.2162 15.3828 16.8905 15.4248 16.4392C15.4659 15.9962 15.4405 15.5035 15.3789 15.0252C15.3602 14.88 15.3367 14.7386 15.3134 14.6033ZM20.9189 3.07693C19.2716 3.21666 17.6675 3.70022 16.2119 4.50076C14.4414 5.47452 12.9494 6.88533 11.8779 8.59841L11.872 8.60818C11.2318 9.60813 10.6786 10.6607 10.2168 11.7537L12.248 13.7849C13.3557 13.3237 14.4233 12.7709 15.4384 12.1297C19.6262 9.31465 20.7072 5.64113 20.9189 3.07693ZM7.56052 8.57497C7.10841 8.61699 6.78255 8.72224 6.57419 8.86111C6.14974 9.1459 5.74218 9.85508 5.42966 10.7166C5.39927 10.8004 5.37158 10.8837 5.3447 10.9646H8.30368C8.63193 10.186 9.00149 9.42581 9.41306 8.68826C9.27302 8.66396 9.12639 8.64129 8.97556 8.62185C8.49698 8.56017 8.00376 8.53379 7.56052 8.57497Z"/></svg>