<svg xmlns="http://www.w3.org/2000/svg" width="24" height="24" fill="none" viewBox="0 0 24 24"><path fill="currentColor" d="M19.1777 1.24945C21.2319 0.90709 23.0133 2.68846 22.6709 4.74261L21.8526 9.64886C21.7268 10.403 21.3562 11.0953 20.7979 11.6176L17.2158 14.9682L17.9649 17.2133C18.1893 17.887 18.0465 18.6292 17.5879 19.1713L15.1699 22.0287C14.1627 23.2188 12.2461 22.8804 11.707 21.4174L11.0498 19.6342C9.56101 19.956 7.97094 19.675 6.66701 18.7953L4.23146 21.2319C3.82726 21.636 3.17175 21.636 2.76759 21.2319C2.36346 20.8277 2.36352 20.1722 2.76759 19.768L5.18947 17.3452C4.25976 16.0242 3.95546 14.3939 4.28517 12.8696L2.50294 12.2133C1.03986 11.6743 0.701432 9.75765 1.89162 8.75042L4.74904 6.33246L4.85255 6.25042C5.34798 5.88359 5.98386 5.7618 6.58009 5.91839L6.70705 5.9555L8.95216 6.70355L12.3037 3.1225C12.826 2.5642 13.5174 2.19353 14.2715 2.06781L19.1777 1.24945ZM13.7295 18.2299C13.4874 18.4564 13.2291 18.6563 12.961 18.8325L13.6279 20.645L15.9942 17.8481L15.5527 16.5239L13.7295 18.2299ZM7.20216 11.6059C6.10128 12.7828 5.93551 14.5048 6.68849 15.8461L12.2676 10.268C12.6718 9.86382 13.3273 9.86383 13.7315 10.268C14.1357 10.6722 14.1357 11.3277 13.7315 11.7319L8.1758 17.2866C9.50162 17.9758 11.1671 17.7915 12.3145 16.7182L19.3076 10.1762C18.5781 9.11353 17.7317 8.08861 16.7686 7.12542C15.8145 6.17133 14.8 5.33173 13.7481 4.60687L7.20216 11.6059ZM3.27443 10.2914L5.08693 10.9594C5.26319 10.6911 5.46387 10.433 5.69044 10.1909L7.39552 8.36664L6.0713 7.92523L3.27443 10.2914ZM19.5186 3.29144L16.1943 3.84515C16.8963 4.40278 17.5783 5.00747 18.2324 5.66156C18.8961 6.32523 19.5099 7.01707 20.0742 7.72992L20.6289 4.40179C20.7376 3.74881 20.1716 3.18273 19.5186 3.29144Z"/></svg>