<svg xmlns="http://www.w3.org/2000/svg" width="24" height="24" fill="none" viewBox="0 0 24 24"><path fill="currentColor" d="M12.9649 16.5997C12.9649 16.3167 12.9633 16.1577 12.9552 16.044C12.8415 16.0359 12.6826 16.0352 12.4005 16.0352H11.5997C11.3168 16.0352 11.1577 16.0358 11.044 16.044C11.0358 16.1577 11.0352 16.3168 11.0352 16.5997V20.4005C11.0352 20.6826 11.0359 20.8415 11.044 20.9552C11.1577 20.9633 11.3167 20.9649 11.5997 20.9649H12.4005C12.6827 20.9649 12.8415 20.9633 12.9552 20.9552C12.9633 20.8415 12.9649 20.6827 12.9649 20.4005V16.5997ZM15.0352 20.4005C15.0352 20.6631 15.0355 20.9222 15.0177 21.1407C14.9988 21.3714 14.9547 21.6468 14.8136 21.9239C14.6185 22.3068 14.3068 22.6185 13.9239 22.8136C13.6468 22.9547 13.3714 22.9988 13.1407 23.0177C12.9222 23.0355 12.6631 23.0352 12.4005 23.0352H11.5997C11.337 23.0352 11.0779 23.0355 10.8595 23.0177C10.6287 22.9988 10.3534 22.9547 10.0762 22.8136C9.69334 22.6185 9.3817 22.3068 9.1866 21.9239C9.04543 21.6468 9.00135 21.3714 8.9825 21.1407C8.96468 20.9222 8.96492 20.6631 8.96492 20.4005V16.5997C8.96492 16.337 8.96468 16.0779 8.9825 15.8595C9.00135 15.6287 9.04543 15.3534 9.1866 15.0762L9.2657 14.9356C9.46122 14.6171 9.74136 14.3572 10.0762 14.1866L10.2833 14.0977C10.4882 14.0248 10.6865 13.9966 10.8595 13.9825C10.8939 13.9797 10.9295 13.9796 10.9659 13.9776C10.9663 13.528 10.9691 13.1336 10.9962 12.8018C11.0287 12.4045 11.1003 12.0062 11.296 11.6221C11.5869 11.0512 12.0512 10.5869 12.6221 10.296C13.0062 10.1003 13.4045 10.0287 13.8018 9.99617C14.1873 9.96468 14.6573 9.96492 15.2003 9.96492H18.7999C19.377 9.96492 19.7478 9.96449 20.0294 9.94148C20.2989 9.91946 20.3949 9.88171 20.4386 9.85945C20.6198 9.767 20.767 9.61975 20.8595 9.43855C20.8817 9.39487 20.9195 9.29887 20.9415 9.02937C20.9645 8.7478 20.9649 8.37699 20.9649 7.79988V7.50008C20.9649 7.02025 20.9644 6.7121 20.9483 6.47664C20.9329 6.25073 20.9069 6.16765 20.8917 6.13094C20.7937 5.89449 20.6057 5.70642 20.3692 5.60848C20.3325 5.59329 20.2494 5.56725 20.0235 5.55184C20.0101 5.55092 19.9964 5.5507 19.9825 5.54988C19.98 5.56384 19.9794 5.57807 19.9766 5.59187C19.7372 6.79583 18.7958 7.73716 17.5919 7.97664C17.2736 8.03991 16.915 8.03523 16.5001 8.03523H5.50008C5.08515 8.03523 4.72659 8.03991 4.40828 7.97664C3.20432 7.73716 2.263 6.79583 2.02352 5.59187C1.96024 5.27356 1.96492 4.91501 1.96492 4.50008C1.96492 4.08515 1.96024 3.72659 2.02352 3.40828C2.263 2.20432 3.20432 1.263 4.40828 1.02352C4.72659 0.960241 5.08515 0.964921 5.50008 0.964921H16.5001C16.915 0.964921 17.2736 0.960242 17.5919 1.02352C18.7958 1.263 19.7372 2.20432 19.9766 3.40828C19.9813 3.43166 19.9825 3.45575 19.9864 3.47957C20.048 3.48218 20.1078 3.4825 20.1651 3.48641C20.4966 3.50904 20.8305 3.55939 21.1612 3.69637C21.9049 4.0044 22.4958 4.59528 22.8038 5.33894C22.9408 5.6697 22.9911 6.00357 23.0138 6.33504C23.0357 6.65735 23.0352 7.0483 23.0352 7.50008V7.79988C23.0352 8.34286 23.0355 8.81289 23.004 9.19832C22.9715 9.5957 22.8998 9.994 22.7042 10.378C22.4132 10.949 21.949 11.4132 21.378 11.7042C20.994 11.8998 20.5957 11.9715 20.1983 12.004C19.8129 12.0355 19.3429 12.0352 18.7999 12.0352H15.2003C14.6232 12.0352 14.2524 12.0357 13.9708 12.0587C13.7013 12.0807 13.6053 12.1184 13.5616 12.1407C13.3804 12.2332 13.2332 12.3804 13.1407 12.5616C13.1184 12.6053 13.0807 12.7013 13.0587 12.9708C13.0388 13.2144 13.0358 13.5247 13.0352 13.9776C13.0713 13.9796 13.1065 13.9797 13.1407 13.9825C13.3714 14.0013 13.6468 14.0454 13.9239 14.1866C14.2588 14.3572 14.5389 14.6171 14.7345 14.9356L14.8136 15.0762L14.9024 15.2833C14.9754 15.4882 15.0035 15.6865 15.0177 15.8595C15.0355 16.0779 15.0352 16.337 15.0352 16.5997V20.4005ZM4.03523 4.50008C4.03523 5.01434 4.04026 5.12054 4.05379 5.18855C4.12999 5.57117 4.42899 5.87016 4.8116 5.94637C4.87962 5.9599 4.98581 5.96492 5.50008 5.96492H16.5001C17.0143 5.96492 17.1205 5.9599 17.1886 5.94637C17.5712 5.87016 17.8702 5.57117 17.9464 5.18855C17.9599 5.12054 17.9649 5.01434 17.9649 4.50008C17.9649 3.98581 17.9599 3.87962 17.9464 3.8116C17.8702 3.42899 17.5712 3.12999 17.1886 3.05379C17.1205 3.04026 17.0143 3.03523 16.5001 3.03523H5.50008C4.98581 3.03523 4.87962 3.04026 4.8116 3.05379C4.42899 3.12999 4.12999 3.42899 4.05379 3.8116C4.04026 3.87962 4.03523 3.98581 4.03523 4.50008Z"/></svg>