<svg xmlns="http://www.w3.org/2000/svg" width="24" height="24" fill="none" viewBox="0 0 24 24"><g clip-path="url(#a)"><path fill="currentColor" d="M20.9648 19C20.9648 17.9148 20.0852 17.0352 19 17.0352C17.9148 17.0352 17.0352 17.9148 17.0352 19C17.0352 20.0852 17.9148 20.9648 19 20.9648C20.0852 20.9648 20.9648 20.0852 20.9648 19ZM11.9346 3.96484C13.4386 3.96484 14.6328 3.96438 15.5195 4.03711C15.9661 4.07374 16.3809 4.13227 16.7451 4.23535C17.1084 4.33822 17.4857 4.50332 17.7949 4.7959C18.5534 5.51367 18.8901 6.57075 18.6855 7.59473C18.6021 8.01214 18.3895 8.36542 18.1523 8.65918C17.9146 8.95365 17.609 9.24056 17.2656 9.52832C16.5837 10.0998 15.6078 10.7887 14.3799 11.6572L10.3154 14.5322C9.05587 15.4231 8.16543 16.0541 7.56445 16.5576C7.26663 16.8072 7.07605 16.9966 6.95898 17.1416C6.84127 17.2874 6.83932 17.3376 6.84473 17.3105C6.7796 17.6362 6.88671 17.9729 7.12793 18.2012C7.10792 18.1822 7.13806 18.2224 7.31836 18.2734C7.4976 18.3242 7.76218 18.3686 8.14941 18.4004C8.93084 18.4645 10.0224 18.4648 11.5654 18.4648H12.5C13.0716 18.4648 13.5352 18.9284 13.5352 19.5C13.5352 20.0716 13.0716 20.5352 12.5 20.5352H11.5654C10.0614 20.5352 8.8672 20.5356 7.98047 20.4629C7.53395 20.4263 7.11905 20.3677 6.75488 20.2646C6.39161 20.1618 6.01427 19.9967 5.70508 19.7041C4.94664 18.9863 4.60986 17.9292 4.81445 16.9053C4.89793 16.4879 5.11048 16.1346 5.34766 15.8408C5.58542 15.5463 5.89098 15.2594 6.23438 14.9717C6.91633 14.4002 7.89216 13.7113 9.12012 12.8428L13.1846 9.96777C14.4441 9.07687 15.3346 8.44592 15.9355 7.94238C16.2334 7.69283 16.4239 7.50336 16.541 7.3584C16.6587 7.2126 16.6607 7.16244 16.6553 7.18945C16.7204 6.8638 16.6133 6.52709 16.3721 6.29883C16.3921 6.31776 16.3619 6.27762 16.1816 6.22656C16.0024 6.17581 15.7378 6.13138 15.3506 6.09961C14.5692 6.03552 13.4776 6.03516 11.9346 6.03516H11.5C10.9284 6.03516 10.4648 5.57161 10.4648 5C10.4648 4.42839 10.9284 3.96484 11.5 3.96484H11.9346ZM6.96484 5C6.96484 3.91476 6.08524 3.03516 5 3.03516C3.91476 3.03516 3.03516 3.91476 3.03516 5C3.03516 6.08524 3.91476 6.96484 5 6.96484C6.08524 6.96484 6.96484 6.08524 6.96484 5ZM23.0352 19C23.0352 21.2285 21.2285 23.0352 19 23.0352C16.7715 23.0352 14.9648 21.2285 14.9648 19C14.9648 16.7715 16.7715 14.9648 19 14.9648C21.2285 14.9648 23.0352 16.7715 23.0352 19ZM9.03516 5C9.03516 7.22847 7.22847 9.03516 5 9.03516C2.77153 9.03516 0.964844 7.22847 0.964844 5C0.964844 2.77153 2.77153 0.964844 5 0.964844C7.22847 0.964844 9.03516 2.77153 9.03516 5Z"/></g><defs><clipPath id="a"><path fill="#fff" d="M0 0H24V24H0z"/></clipPath></defs></svg>