<svg xmlns="http://www.w3.org/2000/svg" width="24" height="24" fill="none" viewBox="0 0 24 24"><path fill="currentColor" d="M11.9648 20C11.9648 17.8876 11.1256 15.8619 9.63184 14.3682C8.13811 12.8744 6.11245 12.0352 4 12.0352C3.42839 12.0352 2.96484 11.5716 2.96484 11C2.96484 10.4284 3.42839 9.96484 4 9.96484C6.66145 9.96484 9.21378 11.0224 11.0957 12.9043C12.9776 14.7862 14.0352 17.3386 14.0352 20C14.0352 20.5716 13.5716 21.0352 13 21.0352C12.4284 21.0352 11.9648 20.5716 11.9648 20ZM18.9648 20C18.9648 16.031 17.3885 12.2245 14.582 9.41797C11.7755 6.61149 7.96896 5.03516 4 5.03516C3.42839 5.03516 2.96484 4.57161 2.96484 4C2.96484 3.42839 3.42839 2.96484 4 2.96484C8.51796 2.96484 12.8512 4.75942 16.0459 7.9541C19.2406 11.1488 21.0352 15.482 21.0352 20C21.0352 20.5716 20.5716 21.0352 20 21.0352C19.4284 21.0352 18.9648 20.5716 18.9648 20ZM5 18.9648C4.98067 18.9648 4.96484 18.9807 4.96484 19C4.96484 19.0193 4.98067 19.0352 5 19.0352C5.00966 19.0352 5.01808 19.0307 5.02441 19.0244L5.03516 19L5.02441 18.9756C5.01808 18.9693 5.00966 18.9648 5 18.9648ZM7.03516 19C7.03516 20.1239 6.1239 21.0352 5 21.0352C3.94633 21.0352 3.07977 20.2342 2.97559 19.208L2.96484 19L2.97559 18.792C3.07977 17.7658 3.94633 16.9648 5 16.9648C6.1239 16.9648 7.03516 17.8761 7.03516 19Z"/></svg>