<svg xmlns="http://www.w3.org/2000/svg" width="24" height="24" fill="none" viewBox="0 0 24 24"><path fill="currentColor" d="M5.96495 19C5.96495 18.4672 5.53283 18.0351 5.0001 18.0351C4.46737 18.0351 4.03526 18.4672 4.03526 19C4.03526 19.5327 4.46738 19.9648 5.0001 19.9648C5.53283 19.9648 5.96495 19.5327 5.96495 19ZM2.89952 7.00777C7.15023 6.59038 10.8998 7.9348 13.4825 10.5175C16.0653 13.1003 17.4097 16.8498 16.9923 21.1005C16.9364 21.6693 16.4302 22.0849 15.8614 22.0293C15.2926 21.9734 14.8759 21.4673 14.9317 20.8984C15.2938 17.2115 14.1272 14.09 12.0187 11.9814C9.91009 9.87283 6.78854 8.70624 3.10167 9.06832C2.53279 9.12419 2.0257 8.70751 1.96983 8.13863C1.91418 7.56991 2.33077 7.06363 2.89952 7.00777ZM2.92491 2.01949C14.2462 1.19517 22.8049 9.75384 21.9806 21.0752C21.939 21.6451 21.4431 22.0735 20.8731 22.0322C20.3031 21.9907 19.8747 21.4948 19.9161 20.9248C20.6488 10.8627 13.1374 3.35131 3.0753 4.08394C2.50527 4.12535 2.00938 3.69696 1.96788 3.12691C1.92657 2.55703 2.35504 2.06112 2.92491 2.01949ZM2.84678 11.999C5.709 11.5687 8.2448 12.3304 9.95713 14.0429C11.6693 15.7554 12.4308 18.2912 12.0011 21.1533C11.9162 21.7185 11.3886 22.1083 10.8233 22.0234C10.2583 21.9383 9.86935 21.4108 9.9542 20.8457C10.3029 18.523 9.66782 16.6805 8.49327 15.5058C7.31874 14.3313 5.47684 13.6967 3.1544 14.0459C2.58926 14.1308 2.06183 13.7418 1.97667 13.1767C1.89167 12.6115 2.28152 12.084 2.84678 11.999ZM8.03526 19C8.03526 20.6759 6.67606 22.0351 5.0001 22.0351C3.32414 22.0351 1.96495 20.6759 1.96495 19C1.96495 17.324 3.32415 15.9648 5.0001 15.9648C6.67606 15.9648 8.03526 17.324 8.03526 19Z"/></svg>