<svg xmlns="http://www.w3.org/2000/svg" width="24" height="24" fill="none" viewBox="0 0 24 24"><path fill="currentColor" d="M16.6425 1.21405C16.8774 1.15783 17.1225 1.15781 17.3574 1.21405L17.4745 1.24725L17.6406 1.31366C17.7951 1.387 17.9134 1.47722 17.998 1.54901C18.1015 1.63686 18.2109 1.74724 18.2978 1.83416L22.1659 5.70233C22.2527 5.78912 22.3623 5.89782 22.4501 6.00116C22.5219 6.08566 22.613 6.20411 22.6865 6.35858L22.7529 6.52557L22.7851 6.64276C22.8508 6.917 22.8405 7.20511 22.7529 7.47479C22.6753 7.71345 22.5458 7.88554 22.4501 7.99823C22.3623 8.10171 22.2529 8.21111 22.1659 8.29803L8.29778 22.1662C8.21086 22.2531 8.10146 22.3625 7.99798 22.4504C7.88529 22.546 7.7132 22.6755 7.47454 22.7531C7.16625 22.8533 6.83362 22.8533 6.52532 22.7531C6.2866 22.6755 6.11362 22.5461 6.00091 22.4504C5.89757 22.3626 5.78887 22.253 5.70208 22.1662L1.83392 18.298C1.74699 18.2111 1.63662 18.1017 1.54876 17.9982C1.45313 17.8855 1.32451 17.7131 1.247 17.4748C1.14683 17.1665 1.14683 16.8339 1.247 16.5256L1.31341 16.3586C1.38681 16.2041 1.47703 16.0857 1.54876 16.0012C1.6366 15.8977 1.74701 15.7892 1.83392 15.7023L15.7021 1.83416C15.789 1.74726 15.8974 1.63685 16.0009 1.54901C16.1136 1.45333 16.2866 1.32484 16.5253 1.24725L16.6425 1.21405ZM15.4638 5.00018L16.7314 6.26776C17.1356 6.67195 17.1356 7.32743 16.7314 7.73163C16.3272 8.13576 15.6727 8.13573 15.2685 7.73163L13.9999 6.46307L12.4638 8.00018L13.7314 9.26776C14.1356 9.67195 14.1356 10.3274 13.7314 10.7316C13.3272 11.1358 12.6727 11.1357 12.2685 10.7316L10.9999 9.46307L9.4638 11.0002L10.7314 12.2678C11.1356 12.672 11.1356 13.3274 10.7314 13.7316C10.3272 14.1358 9.67267 14.1357 9.26849 13.7316L7.99993 12.4631L6.4638 14.0002L7.73138 15.2678C8.13557 15.672 8.13557 16.3274 7.73138 16.7316C7.32721 17.1358 6.67267 17.1357 6.26849 16.7316L4.99993 15.4631L3.4638 17.0002L6.99993 20.5363L20.5361 7.00018L16.9999 3.46405L15.4638 5.00018Z"/></svg>