<svg xmlns="http://www.w3.org/2000/svg" width="24" height="24" fill="none" viewBox="0 0 24 24"><path fill="currentColor" d="M9 19.9648C9.57161 19.9648 10.0352 20.4284 10.0352 21C10.0352 21.5716 9.57161 22.0352 9 22.0352H6C5.42839 22.0352 4.96484 21.5716 4.96484 21C4.96484 20.4284 5.42839 19.9648 6 19.9648H9ZM18 19.9648C18.5716 19.9648 19.0352 20.4284 19.0352 21C19.0352 21.5716 18.5716 22.0352 18 22.0352H15C14.4284 22.0352 13.9648 21.5716 13.9648 21C13.9648 20.4284 14.4284 19.9648 15 19.9648H18ZM19.9648 6.2002C19.9648 5.62309 19.9644 5.25228 19.9414 4.9707C19.9194 4.7012 19.8816 4.60521 19.8594 4.56152C19.7669 4.38033 19.6197 4.23308 19.4385 4.14062C19.3948 4.11837 19.2988 4.08061 19.0293 4.05859C18.7477 4.03559 18.3769 4.03516 17.7998 4.03516H6.2002C5.62309 4.03516 5.25228 4.03559 4.9707 4.05859C4.7012 4.08061 4.60521 4.11837 4.56152 4.14062C4.38033 4.23308 4.23308 4.38033 4.14062 4.56152C4.11837 4.60521 4.08061 4.7012 4.05859 4.9707C4.03559 5.25228 4.03516 5.62309 4.03516 6.2002V14.7998C4.03516 15.3769 4.03559 15.7477 4.05859 16.0293C4.08061 16.2988 4.11837 16.3948 4.14062 16.4385C4.23308 16.6197 4.38033 16.7669 4.56152 16.8594C4.60521 16.8816 4.7012 16.9194 4.9707 16.9414C5.25228 16.9644 5.62309 16.9648 6.2002 16.9648H17.7998C18.3769 16.9648 18.7477 16.9644 19.0293 16.9414C19.2988 16.9194 19.3948 16.8816 19.4385 16.8594C19.6197 16.7669 19.7669 16.6197 19.8594 16.4385C19.8816 16.3948 19.9194 16.2988 19.9414 16.0293C19.9644 15.7477 19.9648 15.3769 19.9648 14.7998V6.2002ZM16.4648 14.5V6.5C16.4648 5.92839 16.9284 5.46484 17.5 5.46484C18.0716 5.46484 18.5352 5.92839 18.5352 6.5V14.5C18.5352 15.0716 18.0716 15.5352 17.5 15.5352C16.9284 15.5352 16.4648 15.0716 16.4648 14.5ZM10.4648 10.5C10.4648 9.6909 9.8091 9.03516 9 9.03516C8.1909 9.03516 7.53516 9.6909 7.53516 10.5C7.53516 11.3091 8.1909 11.9648 9 11.9648C9.8091 11.9648 10.4648 11.3091 10.4648 10.5ZM12.5352 10.5C12.5352 12.4523 10.9523 14.0352 9 14.0352C7.04767 14.0352 5.46484 12.4523 5.46484 10.5C5.46484 8.54767 7.04767 6.96484 9 6.96484C10.9523 6.96484 12.5352 8.54767 12.5352 10.5ZM22.0352 14.7998C22.0352 15.3428 22.0354 15.8128 22.0039 16.1982C21.9714 16.5956 21.8998 16.9939 21.7041 17.3779C21.4131 17.9489 20.9489 18.4131 20.3779 18.7041C19.9939 18.8998 19.5956 18.9714 19.1982 19.0039C18.8128 19.0354 18.3428 19.0352 17.7998 19.0352H6.2002C5.65722 19.0352 5.18718 19.0354 4.80176 19.0039C4.40438 18.9714 4.00608 18.8998 3.62207 18.7041C3.05107 18.4131 2.58686 17.9489 2.2959 17.3779C2.10024 16.9939 2.02859 16.5956 1.99609 16.1982C1.9646 15.8128 1.96484 15.3428 1.96484 14.7998V6.2002C1.96484 5.65722 1.9646 5.18718 1.99609 4.80176C2.02859 4.40438 2.10024 4.00608 2.2959 3.62207C2.58686 3.05107 3.05107 2.58686 3.62207 2.2959C4.00608 2.10024 4.40438 2.02859 4.80176 1.99609C5.18718 1.9646 5.65722 1.96484 6.2002 1.96484H17.7998C18.3428 1.96484 18.8128 1.9646 19.1982 1.99609C19.5956 2.02859 19.9939 2.10024 20.3779 2.2959C20.9489 2.58686 21.4131 3.05108 21.7041 3.62207C21.8998 4.00608 21.9714 4.40438 22.0039 4.80176C22.0354 5.18718 22.0352 5.65722 22.0352 6.2002V14.7998Z"/></svg>