<svg xmlns="http://www.w3.org/2000/svg" width="24" height="24" fill="none" viewBox="0 0 24 24"><g clip-path="url(#a)"><path fill="currentColor" d="M20.9648 12C20.9648 7.04877 16.9512 3.03516 12 3.03516C7.04877 3.03516 3.03516 7.04877 3.03516 12C3.03516 16.9512 7.04877 20.9648 12 20.9648C16.9512 20.9648 20.9648 16.9512 20.9648 12ZM15.2686 7.26855C15.6727 6.86436 16.3273 6.86436 16.7314 7.26855C17.1356 7.67275 17.1356 8.32725 16.7314 8.73145L8.73145 16.7314C8.32725 17.1356 7.67275 17.1356 7.26855 16.7314C6.86436 16.3273 6.86436 15.6727 7.26855 15.2686L15.2686 7.26855ZM15 13.4648C15.8478 13.4648 16.5352 14.1522 16.5352 15C16.5352 15.8478 15.8478 16.5352 15 16.5352C14.1522 16.5352 13.4648 15.8478 13.4648 15C13.4648 14.1522 14.1522 13.4648 15 13.4648ZM9 7.46484C9.84776 7.46484 10.5352 8.15224 10.5352 9C10.5352 9.84776 9.84776 10.5352 9 10.5352C8.15224 10.5352 7.46484 9.84776 7.46484 9C7.46484 8.15224 8.15224 7.46484 9 7.46484ZM23.0352 12C23.0352 18.0945 18.0945 23.0352 12 23.0352C5.90554 23.0352 0.964844 18.0945 0.964844 12C0.964844 5.90554 5.90554 0.964844 12 0.964844C18.0945 0.964844 23.0352 5.90554 23.0352 12Z"/></g><defs><clipPath id="a"><path fill="#fff" d="M0 0H24V24H0z"/></clipPath></defs></svg>