<svg xmlns="http://www.w3.org/2000/svg" width="24" height="24" fill="none" viewBox="0 0 24 24"><g clip-path="url(#a)"><path fill="currentColor" d="M8.84278 2.128C10.6619 0.577777 13.3381 0.577777 15.1572 2.128C15.6052 2.50959 16.1625 2.74037 16.749 2.78718C19.1311 2.9775 21.0226 4.86895 21.2129 7.25104C21.2597 7.83762 21.4905 8.39492 21.8721 8.84284C23.4223 10.6619 23.4223 13.3382 21.8721 15.1573C21.4905 15.6052 21.2597 16.1625 21.2129 16.7491C21.0226 19.1312 19.1311 21.0226 16.749 21.213C16.1625 21.2598 15.6052 21.4905 15.1572 21.8721C13.3381 23.4224 10.6619 23.4224 8.84278 21.8721C8.39486 21.4905 7.83756 21.2598 7.25098 21.213C4.86889 21.0226 2.97744 19.1312 2.78712 16.7491C2.74031 16.1625 2.50953 15.6052 2.12794 15.1573C0.577716 13.3382 0.577716 10.6619 2.12794 8.84284C2.50953 8.39492 2.74031 7.83762 2.78712 7.25104C2.97744 4.86895 4.86889 2.9775 7.25098 2.78718C7.83756 2.74037 8.39485 2.50959 8.84278 2.128ZM13.8145 3.70319C12.769 2.8123 11.231 2.8123 10.1856 3.70319C9.40605 4.36744 8.43691 4.76919 7.41602 4.85065C6.04692 4.95996 4.9599 6.04698 4.85059 7.41608C4.76913 8.43698 4.36738 9.40611 3.70313 10.1856C2.81223 11.231 2.81223 12.7691 3.70313 13.8145C4.36738 14.594 4.76913 15.5632 4.85059 16.5841C4.9599 17.9532 6.04692 19.0402 7.41602 19.1495C8.43691 19.2309 9.40605 19.6327 10.1856 20.2969C11.231 21.1878 12.769 21.1878 13.8145 20.2969C14.594 19.6327 15.5631 19.2309 16.584 19.1495C17.9531 19.0402 19.0401 17.9532 19.1494 16.5841C19.2309 15.5632 19.6326 14.594 20.2969 13.8145C21.1878 12.7691 21.1878 11.231 20.2969 10.1856C19.6326 9.40611 19.2309 8.43697 19.1494 7.41608C19.0401 6.04698 17.9531 4.95996 16.584 4.85065C15.5631 4.76919 14.594 4.36744 13.8145 3.70319ZM15.2686 7.26862C15.6728 6.86443 16.3273 6.86443 16.7315 7.26862C17.1356 7.67281 17.1356 8.32732 16.7315 8.73151L8.73145 16.7315C8.32726 17.1357 7.67275 17.1357 7.26856 16.7315C6.86437 16.3273 6.86437 15.6728 7.26856 15.2686L15.2686 7.26862ZM15 13.4649C15.8478 13.4649 16.5352 14.1523 16.5352 15.0001C16.5352 15.8478 15.8478 16.5352 15 16.5352C14.1522 16.5352 13.4649 15.8478 13.4649 15.0001C13.4649 14.1523 14.1522 13.4649 15 13.4649ZM9.00001 7.46491C9.84776 7.46491 10.5352 8.15231 10.5352 9.00007C10.5352 9.84782 9.84776 10.5352 9.00001 10.5352C8.15225 10.5352 7.46485 9.84782 7.46485 9.00007C7.46485 8.15231 8.15225 7.46491 9.00001 7.46491Z"/></g><defs><clipPath id="a"><path fill="#fff" d="M0 0H24V24H0z"/></clipPath></defs></svg>