<svg xmlns="http://www.w3.org/2000/svg" width="24" height="24" fill="none" viewBox="0 0 24 24"><g clip-path="url(#a)"><path fill="currentColor" d="M10.6943 1.41012C11.4637 0.817403 12.5356 0.817387 13.3047 1.40817L14.5517 2.36618C14.5663 2.37729 14.584 2.38101 14.5996 2.37887H14.6055L16.167 2.17282L16.3467 2.15719C17.2411 2.11479 18.0792 2.63628 18.4267 3.4775L19.0273 4.93161L19.0283 4.93258C19.0354 4.9497 19.0483 4.96258 19.0654 4.96969L19.0664 4.97067L20.5195 5.57125L20.5205 5.57223C21.3595 5.92032 21.8833 6.75553 21.8408 7.65133L21.8252 7.83102L21.6191 9.39254V9.3945C21.6168 9.41197 21.6216 9.43134 21.6338 9.44723L22.5908 10.6943L22.6953 10.8418C23.1488 11.546 23.1477 12.4524 22.6953 13.1562L22.5918 13.3037L21.6689 14.5068L21.668 14.5078C21.6433 14.5398 21.6286 14.5791 21.626 14.6201L21.6269 14.6611V14.6621L21.8252 16.167L21.8408 16.3466C21.8831 17.2414 21.3604 18.0795 20.5185 18.4267L20.5176 18.4257L19.0664 19.0273H19.0654C19.0481 19.0344 19.0355 19.0481 19.0283 19.0654L19.0273 19.0664L18.4267 20.5195L18.4258 20.5205C18.0777 21.3595 17.2425 21.8833 16.3467 21.8408L16.167 21.8252L14.6055 21.6191H14.6035C14.5861 21.6168 14.5667 21.6216 14.5508 21.6338L13.3037 22.5898C12.5343 23.1825 11.4634 23.1825 10.6943 22.5918V22.5908L9.49217 21.6689L9.49022 21.6679C9.44782 21.6353 9.39312 21.6197 9.33788 21.6269L7.83299 21.8261C6.8726 21.9529 5.94379 21.4182 5.57323 20.5205L4.97264 19.0673L4.97167 19.0664C4.96455 19.0492 4.95166 19.0364 4.93456 19.0293L4.93358 19.0283L3.48046 18.4277L3.47948 18.4267C2.58465 18.0555 2.04793 17.1299 2.17479 16.1679L2.38085 14.6064V14.6035C2.38304 14.5861 2.37828 14.5675 2.3662 14.5517L1.40819 13.3037L1.40917 13.3027C0.817614 12.5334 0.817974 11.4639 1.40819 10.6953L2.36522 9.44723C2.37601 9.43313 2.3831 9.41381 2.38085 9.39352L2.17479 7.832C2.04793 6.87004 2.58465 5.94446 3.47948 5.57321L3.48046 5.57223L4.93065 4.9736C4.95015 4.96514 4.9654 4.94932 4.97362 4.92965L5.57225 3.48043L5.57323 3.47946C5.94447 2.58456 6.86993 2.04778 7.83202 2.17477L9.39256 2.37985C9.41251 2.38224 9.43354 2.37781 9.45018 2.3652L10.6943 1.41012ZM11.958 3.04879L11.956 3.04977L10.708 4.00875L10.7051 4.01168C10.2553 4.35438 9.68693 4.50649 9.12499 4.43356L9.12303 4.43258L7.56151 4.2275H7.56053C7.52952 4.22362 7.49747 4.24084 7.48436 4.27243L6.88573 5.7236L6.88378 5.72848C6.66552 6.25044 6.25043 6.66543 5.7285 6.88375L5.72362 6.88571L4.27147 7.48434C4.24008 7.4976 4.22342 7.53037 4.22753 7.56149L4.4326 9.12399L4.43358 9.12594C4.50636 9.68727 4.35418 10.2561 4.00975 10.706L4.00878 10.707L3.04979 11.956C3.03963 11.9693 3.03508 11.9848 3.03514 12L3.04882 12.042L3.04979 12.0429L4.00878 13.292H4.00975C4.35529 13.7427 4.508 14.3132 4.4326 14.8779L4.22753 16.4384C4.2234 16.4697 4.24076 16.5015 4.27245 16.5146H4.27147L5.7246 17.1152H5.72362C6.25027 17.3324 6.66836 17.7498 6.88573 18.2763L7.48632 19.7295V19.7304C7.49803 19.7588 7.52903 19.7765 7.56151 19.7724L9.06639 19.5752C9.66589 19.4959 10.2725 19.6577 10.7519 20.0263L11.9551 20.9502H11.956C11.9824 20.9701 12.0173 20.9693 12.041 20.9511L12.042 20.9502L13.292 19.9902C13.7426 19.6449 14.3124 19.492 14.8769 19.5673H14.876L16.4375 19.7724L16.4609 19.7714C16.4837 19.7669 16.5038 19.7513 16.5137 19.7275L17.1142 18.2754C17.3315 17.7491 17.7491 17.3315 18.2754 17.1142L19.7285 16.5136L19.7295 16.5127C19.758 16.5009 19.7768 16.4702 19.7724 16.4375V16.4365L19.5752 14.9326L19.5566 14.707C19.5397 14.1822 19.7041 13.6648 20.0273 13.2451L20.9502 12.0429L20.9609 12.0214C20.9683 11.9993 20.9649 11.9749 20.9512 11.957L20.9502 11.956L19.9912 10.707L19.9902 10.706C19.6449 10.2554 19.492 9.68553 19.5674 9.12106L19.7724 7.56051L19.7715 7.53707C19.7669 7.51427 19.7513 7.49421 19.7275 7.48434V7.48336L18.2764 6.88278C17.7499 6.66556 17.3316 6.249 17.1142 5.72262L16.5137 4.2695V4.26852C16.5049 4.24719 16.4848 4.23137 16.4619 4.22653L16.4375 4.22555L14.875 4.43063L14.874 4.42965C14.3097 4.50528 13.741 4.35274 13.293 4.00973L13.292 4.00875L12.0439 3.04977H12.043C12.0166 3.02975 11.9818 3.03067 11.958 3.04879ZM15.2685 7.26852C15.6727 6.86433 16.3272 6.86433 16.7314 7.26852C17.1356 7.67271 17.1356 8.32722 16.7314 8.73141L8.73143 16.7314C8.32724 17.1356 7.67273 17.1356 7.26854 16.7314C6.86435 16.3272 6.86435 15.6727 7.26854 15.2685L15.2685 7.26852ZM15 13.4648C15.8477 13.4648 16.5351 14.1522 16.5351 15C16.5351 15.8477 15.8477 16.5351 15 16.5351C14.1522 16.5351 13.4648 15.8477 13.4648 15C13.4648 14.1522 14.1522 13.4648 15 13.4648ZM8.99999 7.46481C9.84774 7.46481 10.5351 8.15221 10.5351 8.99996C10.5351 9.84772 9.84774 10.5351 8.99999 10.5351C8.15223 10.5351 7.46483 9.84772 7.46483 8.99996C7.46483 8.15221 8.15223 7.46481 8.99999 7.46481Z"/></g><defs><clipPath id="a"><path fill="#fff" d="M0 0H24V24H0z"/></clipPath></defs></svg>