<svg xmlns="http://www.w3.org/2000/svg" width="24" height="24" fill="none" viewBox="0 0 24 24"><path fill="currentColor" d="M15.9648 14.5997C15.9648 14.3167 15.9633 14.1577 15.9551 14.044C15.8415 14.0359 15.6825 14.0353 15.4004 14.0353H8.59961C8.31668 14.0353 8.15762 14.0359 8.04395 14.044C8.03576 14.1577 8.03516 14.3168 8.03516 14.5997V19.9649H15.9648V14.5997ZM1.96484 7.79991C1.96484 6.97699 1.96465 6.29735 2.00977 5.74522C2.05588 5.18105 2.15509 4.65909 2.40527 4.16807C2.79208 3.4091 3.409 2.79218 4.16797 2.40538C4.65899 2.15519 5.18095 2.05598 5.74512 2.00987C6.0859 1.98202 6.47541 1.97367 6.91699 1.96983C6.94441 1.96765 6.97202 1.96495 7 1.96495C7.02267 1.96495 7.04507 1.96742 7.06738 1.96885C7.29775 1.96757 7.54171 1.96495 7.7998 1.96495H14.6748C15.1145 1.96494 15.503 1.95849 15.8799 2.04893C16.1896 2.12328 16.4863 2.24581 16.7578 2.41221C17.0882 2.61472 17.3581 2.8943 17.6689 3.20518L20.7949 6.33116C21.1058 6.64203 21.3854 6.91192 21.5879 7.24229C21.7543 7.51384 21.8768 7.81054 21.9512 8.12022C22.0416 8.49707 22.0352 8.88557 22.0352 9.3253V16.2003C22.0352 17.0232 22.0353 17.7028 21.9902 18.255C21.9441 18.8192 21.8449 19.3411 21.5947 19.8321C21.2079 20.5911 20.591 21.208 19.832 21.5948C19.341 21.845 18.8191 21.9442 18.2549 21.9903C17.9138 22.0182 17.524 22.0265 17.082 22.0304C17.0549 22.0325 17.0277 22.0353 17 22.0353C16.977 22.0353 16.9543 22.0328 16.9316 22.0314C16.7016 22.0326 16.4579 22.0353 16.2002 22.0353H7.7998C7.54171 22.0353 7.29775 22.0326 7.06738 22.0314C7.04507 22.0328 7.02267 22.0353 7 22.0353C6.97202 22.0353 6.94441 22.0326 6.91699 22.0304C6.47541 22.0265 6.0859 22.0182 5.74512 21.9903C5.18095 21.9442 4.65899 21.845 4.16797 21.5948C3.409 21.208 2.79208 20.5911 2.40527 19.8321C2.15509 19.3411 2.05588 18.8192 2.00977 18.255C1.96465 17.7028 1.96484 17.0232 1.96484 16.2003V7.79991ZM4.03516 16.2003C4.03516 17.0572 4.03565 17.6378 4.07227 18.086C4.10791 18.5223 4.17227 18.742 4.24902 18.8927C4.43737 19.2622 4.73794 19.5627 5.10742 19.7511C5.25807 19.8278 5.47781 19.8922 5.91406 19.9278C5.93078 19.9292 5.94775 19.9295 5.96484 19.9308V14.5997C5.96484 14.3371 5.9646 14.078 5.98242 13.8595C6.00127 13.6288 6.04535 13.3534 6.18652 13.0763L6.26562 12.9356C6.46114 12.6171 6.74128 12.3573 7.07617 12.1866L7.2832 12.0978C7.48814 12.0248 7.6864 11.9967 7.85938 11.9825C8.07785 11.9647 8.33696 11.9649 8.59961 11.9649H15.4004C15.663 11.9649 15.9221 11.9647 16.1406 11.9825C16.3713 12.0014 16.6467 12.0455 16.9238 12.1866C17.2587 12.3573 17.5389 12.6171 17.7344 12.9356L17.8135 13.0763L17.9023 13.2833C17.9753 13.4882 18.0034 13.6865 18.0176 13.8595C18.0354 14.078 18.0352 14.3371 18.0352 14.5997V19.9308C18.0522 19.9295 18.0692 19.9292 18.0859 19.9278C18.5222 19.8922 18.7419 19.8278 18.8926 19.7511C19.2621 19.5627 19.5626 19.2622 19.751 18.8927C19.8277 18.742 19.8921 18.5223 19.9277 18.086C19.9643 17.6378 19.9648 17.0572 19.9648 16.2003V9.3253C19.9648 8.78791 19.9584 8.68688 19.9385 8.60362C19.9149 8.50523 19.8761 8.41061 19.8232 8.32432C19.7785 8.25125 19.7116 8.17555 19.3311 7.79502L18.0342 6.49815C18.0341 6.7269 18.0332 6.94939 18.0176 7.14073C17.9987 7.37144 17.9546 7.6468 17.8135 7.92393C17.6184 8.30684 17.3067 8.61848 16.9238 8.81358C16.6467 8.95475 16.3713 8.99883 16.1406 9.01768C15.9221 9.0355 15.663 9.03526 15.4004 9.03526H8.59961C8.33696 9.03526 8.07785 9.0355 7.85938 9.01768C7.62866 8.99883 7.3533 8.95475 7.07617 8.81358C6.69326 8.61848 6.38163 8.30684 6.18652 7.92393C6.04535 7.6468 6.00127 7.37144 5.98242 7.14073C5.9646 6.92225 5.96484 6.66314 5.96484 6.40049V4.06846C5.94773 4.06973 5.9308 4.071 5.91406 4.07237C5.47781 4.10801 5.25807 4.17237 5.10742 4.24913C4.73794 4.43747 4.43737 4.73804 4.24902 5.10752C4.17227 5.25817 4.10791 5.47791 4.07227 5.91416C4.03565 6.36244 4.03516 6.94298 4.03516 7.79991V16.2003ZM8.03516 6.40049C8.03516 6.68262 8.03582 6.84157 8.04395 6.95518C8.15762 6.96337 8.31662 6.96494 8.59961 6.96495H15.4004C15.6826 6.96494 15.8415 6.96331 15.9551 6.95518C15.9632 6.84157 15.9648 6.68268 15.9648 6.40049V4.4337C15.7842 4.25716 15.73 4.21009 15.6758 4.17686C15.5895 4.12401 15.4949 4.08525 15.3965 4.06163C15.3132 4.04169 15.2122 4.03526 14.6748 4.03526H8.03516V6.40049Z"/></svg>