<svg xmlns="http://www.w3.org/2000/svg" width="24" height="24" fill="none" viewBox="0 0 24 24"><path fill="currentColor" d="M12.4648 16.5997C12.4648 16.3167 12.4633 16.1577 12.4551 16.044C12.3415 16.0359 12.1825 16.0353 11.9004 16.0353H8.59961C8.31668 16.0353 8.15762 16.0359 8.04395 16.044C8.03576 16.1577 8.03516 16.3168 8.03516 16.5997V19.9649H12.4648V16.5997ZM19.9648 17.0001V9.3253C19.9648 8.78791 19.9584 8.68688 19.9385 8.60362C19.9149 8.50523 19.8761 8.41061 19.8232 8.32432C19.7785 8.25124 19.7116 8.17555 19.3311 7.79502L16.2051 4.66905C15.8246 4.28853 15.7489 4.22164 15.6758 4.17686C15.5895 4.12401 15.4949 4.08525 15.3965 4.06163C15.3132 4.04169 15.2122 4.03526 14.6748 4.03526H7C6.42839 4.03526 5.96484 3.57172 5.96484 3.0001C5.96484 2.42849 6.42839 1.96495 7 1.96495H14.6748C15.1145 1.96494 15.503 1.95849 15.8799 2.04893C16.1896 2.12328 16.4863 2.24581 16.7578 2.41221C17.0882 2.61472 17.3581 2.8943 17.6689 3.20518L20.7949 6.33116C21.1058 6.64204 21.3854 6.91193 21.5879 7.24229C21.7543 7.51384 21.8768 7.81054 21.9512 8.12022C22.0416 8.49707 22.0352 8.88557 22.0352 9.3253V17.0001C22.0352 17.5717 21.5716 18.0353 21 18.0353C20.4284 18.0353 19.9648 17.5717 19.9648 17.0001ZM5.96484 8.40049V7.53526C5.51877 7.53583 5.21203 7.53898 4.9707 7.5587C4.7012 7.58071 4.60521 7.61847 4.56152 7.64073C4.38033 7.73318 4.23308 7.88043 4.14062 8.06163C4.11837 8.10531 4.08061 8.20131 4.05859 8.4708C4.03559 8.75238 4.03516 9.12319 4.03516 9.7003V17.7999C4.03516 18.377 4.03559 18.7478 4.05859 19.0294C4.08061 19.2989 4.11837 19.3949 4.14062 19.4386C4.23308 19.6198 4.38032 19.767 4.56152 19.8595C4.60521 19.8817 4.7012 19.9195 4.9707 19.9415C5.21203 19.9612 5.51877 19.9634 5.96484 19.964V16.5997C5.96484 16.3371 5.9646 16.078 5.98242 15.8595C6.00127 15.6288 6.04535 15.3534 6.18652 15.0763L6.26562 14.9356C6.46114 14.6171 6.74128 14.3573 7.07617 14.1866L7.2832 14.0978C7.48814 14.0248 7.6864 13.9967 7.85938 13.9825C8.07785 13.9647 8.33696 13.9649 8.59961 13.9649H11.9004C12.163 13.9649 12.4221 13.9647 12.6406 13.9825C12.8713 14.0014 13.1467 14.0455 13.4238 14.1866C13.7587 14.3573 14.0389 14.6171 14.2344 14.9356L14.3135 15.0763L14.4023 15.2833C14.4753 15.4882 14.5034 15.6865 14.5176 15.8595C14.5354 16.078 14.5352 16.3371 14.5352 16.5997V19.964C14.9812 19.9634 15.288 19.9612 15.5293 19.9415C15.7988 19.9195 15.8948 19.8817 15.9385 19.8595C16.1197 19.767 16.2669 19.6198 16.3594 19.4386C16.3816 19.3949 16.4194 19.2989 16.4414 19.0294C16.4644 18.7478 16.4648 18.377 16.4648 17.7999V10.1632C16.4648 10.0403 16.4647 9.97566 16.4629 9.92979C16.4317 9.89614 16.3865 9.85052 16.2998 9.76377L14.2363 7.7003C14.1487 7.61268 14.1031 7.56741 14.0693 7.53623C14.0235 7.5345 13.9589 7.53526 13.8369 7.53526H8.03516V8.40049C8.03516 8.68262 8.03582 8.84157 8.04395 8.95518C8.15762 8.96337 8.31662 8.96494 8.59961 8.96495H12.5C13.0716 8.96495 13.5352 9.42849 13.5352 10.0001C13.5352 10.5717 13.0716 11.0353 12.5 11.0353H8.59961C8.33696 11.0353 8.07785 11.0355 7.85938 11.0177C7.62866 10.9988 7.3533 10.9548 7.07617 10.8136C6.69326 10.6185 6.38163 10.3068 6.18652 9.92393C6.04535 9.6468 6.00127 9.37144 5.98242 9.14073C5.9646 8.92225 5.96484 8.66314 5.96484 8.40049ZM1.96484 9.7003C1.96484 9.15732 1.9646 8.68729 1.99609 8.30186C2.02859 7.90448 2.10024 7.50618 2.2959 7.12217C2.58686 6.55118 3.05107 6.08696 3.62207 5.796C4.00608 5.60034 4.40438 5.52869 4.80176 5.4962C5.18718 5.4647 5.65722 5.46495 6.2002 5.46495H13.8369C13.9835 5.46495 14.1705 5.4617 14.3652 5.48643L14.5605 5.52159L14.7148 5.56455C14.8162 5.59749 14.9148 5.63826 15.0098 5.68663L15.1494 5.76475L15.3125 5.87901C15.4673 5.999 15.5967 6.1329 15.7002 6.23643L17.7637 8.29991C17.8672 8.40342 18.0011 8.5328 18.1211 8.6876L18.2354 8.85069L18.3135 8.99034C18.3618 9.08527 18.4026 9.18393 18.4355 9.28526L18.4785 9.43955L18.5137 9.63487C18.5384 9.82962 18.5352 10.0166 18.5352 10.1632V17.7999C18.5352 18.3429 18.5354 18.8129 18.5039 19.1983C18.4714 19.5957 18.3998 19.994 18.2041 20.378C17.9131 20.949 17.4489 21.4132 16.8779 21.7042C16.4939 21.8999 16.0956 21.9715 15.6982 22.004C15.3128 22.0355 14.8428 22.0353 14.2998 22.0353H6.2002C5.65722 22.0353 5.18718 22.0355 4.80176 22.004C4.40438 21.9715 4.00608 21.8999 3.62207 21.7042C3.05107 21.4132 2.58686 20.949 2.2959 20.378C2.10024 19.994 2.02859 19.5957 1.99609 19.1983C1.9646 18.8129 1.96484 18.3429 1.96484 17.7999V9.7003Z"/></svg>