<svg xmlns="http://www.w3.org/2000/svg" width="24" height="24" fill="none" viewBox="0 0 24 24"><path fill="currentColor" d="M10.9648 6.2002C10.9648 5.65722 10.9646 5.18718 10.9961 4.80176C11.0171 4.54521 11.0543 4.28835 11.1309 4.03516H7.7998C6.94287 4.03516 6.36234 4.03565 5.91406 4.07227C5.47781 4.10791 5.25807 4.17227 5.10742 4.24902C4.73794 4.43737 4.43737 4.73794 4.24902 5.10742C4.17227 5.25807 4.10791 5.47781 4.07227 5.91406C4.03565 6.36234 4.03516 6.94287 4.03516 7.7998V16.2002C4.03516 17.0571 4.03565 17.6377 4.07227 18.0859C4.10791 18.5222 4.17227 18.7419 4.24902 18.8926C4.43737 19.2621 4.73794 19.5626 5.10742 19.751C5.25806 19.8277 5.47781 19.8921 5.91406 19.9277C6.36234 19.9643 6.94287 19.9648 7.7998 19.9648H16.2002C17.0571 19.9648 17.6377 19.9643 18.0859 19.9277C18.5222 19.8921 18.7419 19.8277 18.8926 19.751C19.2621 19.5626 19.5626 19.2621 19.751 18.8926C19.8277 18.7419 19.8921 18.5222 19.9277 18.0859C19.9643 17.6377 19.9648 17.0571 19.9648 16.2002V12.8682C19.7116 12.9448 19.4549 12.9829 19.1982 13.0039C18.8128 13.0354 18.3428 13.0352 17.7998 13.0352H15.2002C14.6572 13.0352 14.1872 13.0354 13.8018 13.0039C13.436 12.974 13.0703 12.9095 12.7148 12.7471L9.49805 15.9648H12C12.5716 15.9648 13.0352 16.4284 13.0352 17C13.0352 17.5716 12.5716 18.0352 12 18.0352H7C6.7255 18.0352 6.46265 17.9255 6.26855 17.7314C6.07445 17.5373 5.96484 17.2745 5.96484 17V12C5.96484 11.4284 6.42839 10.9648 7 10.9648C7.57161 10.9648 8.03516 11.4284 8.03516 12V14.502L11.252 11.2842C11.0899 10.9291 11.026 10.5636 10.9961 10.1982C10.9646 9.81282 10.9648 9.34278 10.9648 8.7998V6.2002ZM22.0352 16.2002C22.0352 17.0231 22.0353 17.7027 21.9902 18.2549C21.9441 18.8191 21.8449 19.341 21.5947 19.832C21.2079 20.591 20.591 21.2079 19.832 21.5947C19.341 21.8449 18.8191 21.9441 18.2549 21.9902C17.7027 22.0353 17.0231 22.0352 16.2002 22.0352H7.7998C6.97689 22.0352 6.29725 22.0353 5.74512 21.9902C5.18095 21.9441 4.65899 21.8449 4.16797 21.5947C3.409 21.2079 2.79208 20.591 2.40527 19.832C2.15509 19.341 2.05588 18.8191 2.00977 18.2549C1.96465 17.7027 1.96484 17.0231 1.96484 16.2002V7.7998C1.96484 6.97689 1.96465 6.29725 2.00977 5.74512C2.05588 5.18095 2.15509 4.65899 2.40527 4.16797C2.79208 3.409 3.409 2.79208 4.16797 2.40527C4.65899 2.15509 5.18095 2.05588 5.74512 2.00977C6.29725 1.96465 6.97689 1.96484 7.7998 1.96484H16.2002L17.3291 1.9707C17.6708 1.97614 17.9789 1.98721 18.2549 2.00977C18.8191 2.05588 19.341 2.15509 19.832 2.40527C20.591 2.79208 21.2079 3.409 21.5947 4.16797C21.8449 4.65899 21.9441 5.18095 21.9902 5.74512C22.0353 6.29725 22.0352 6.97689 22.0352 7.7998V16.2002ZM13.0352 8.7998C13.0352 9.37691 13.0356 9.74772 13.0586 10.0293C13.0806 10.2988 13.1184 10.3948 13.1406 10.4385C13.2331 10.6197 13.3803 10.7669 13.5615 10.8594C13.6052 10.8816 13.7012 10.9194 13.9707 10.9414C14.2523 10.9644 14.6231 10.9648 15.2002 10.9648H17.7998C18.3769 10.9648 18.7477 10.9644 19.0293 10.9414C19.2988 10.9194 19.3948 10.8816 19.4385 10.8594C19.6197 10.7669 19.7669 10.6197 19.8594 10.4385C19.8816 10.3948 19.9194 10.2988 19.9414 10.0293C19.9644 9.74772 19.9648 9.37691 19.9648 8.7998V7.7998C19.9648 6.94287 19.9643 6.36234 19.9277 5.91406C19.8921 5.47781 19.8277 5.25806 19.751 5.10742C19.5626 4.73794 19.2621 4.43737 18.8926 4.24902C18.7419 4.17227 18.5222 4.10791 18.0859 4.07227C17.8617 4.05395 17.6044 4.04482 17.2959 4.04004L16.2002 4.03516H15.2002L14.4746 4.03809C14.2746 4.04116 14.1115 4.04709 13.9707 4.05859C13.7012 4.08061 13.6052 4.11837 13.5615 4.14062C13.3803 4.23308 13.2331 4.38033 13.1406 4.56152C13.1184 4.60521 13.0806 4.7012 13.0586 4.9707C13.0356 5.25228 13.0352 5.62309 13.0352 6.2002V8.7998Z"/></svg>