<svg xmlns="http://www.w3.org/2000/svg" width="24" height="24" fill="none" viewBox="0 0 24 24"><path fill="currentColor" d="M10.9648 3C10.9648 2.42839 11.4284 1.96484 12 1.96484C12.5716 1.96484 13.0352 2.42839 13.0352 3V6.77832L17.8301 5.97949L17.9893 5.96484C18.3602 5.96089 18.7103 6.1572 18.8984 6.48633L22.4766 12.749C22.6181 12.9967 22.7462 13.2136 22.8369 13.4521C22.9117 13.6487 22.9654 13.8528 22.998 14.0605C23.0235 14.2227 23.0298 14.3848 23.0322 14.5557C23.0344 14.6411 23.0352 14.7261 23.0352 14.7998V15L23.0283 15.2588C22.8936 17.9193 20.694 20.0352 18 20.0352C15.2192 20.0352 12.9648 17.7808 12.9648 15V14.7998C12.9648 14.7261 12.9656 14.6411 12.9678 14.5557C12.9702 14.3848 12.9765 14.2227 13.002 14.0605C13.0346 13.8528 13.0883 13.6487 13.1631 13.4521C13.2538 13.2136 13.3819 12.9967 13.5234 12.749L16.0195 8.37793L7.63477 9.77539L10.4766 14.749C10.6181 14.9967 10.7462 15.2136 10.8369 15.4521C10.9117 15.6487 10.9654 15.8528 10.998 16.0605C11.0235 16.2227 11.0298 16.3848 11.0322 16.5557C11.0344 16.6411 11.0352 16.7261 11.0352 16.7998V17L11.0283 17.2588C10.8936 19.9193 8.69396 22.0352 6 22.0352C3.21925 22.0352 0.964844 19.7808 0.964844 17V16.7998L0.96582 16.5986C0.966057 16.5843 0.967411 16.57 0.967773 16.5557C0.970168 16.3848 0.976497 16.2227 1.00195 16.0605C1.03457 15.8528 1.08834 15.6487 1.16309 15.4521C1.25383 15.2136 1.38191 14.9967 1.52344 14.749L5.10156 8.48633L5.16406 8.38965C5.32281 8.17221 5.56154 8.02425 5.83008 7.97949L10.9648 7.12305V3ZM3.03613 17.0352C3.05498 18.6565 4.37421 19.9648 6 19.9648C7.62579 19.9648 8.94502 18.6565 8.96387 17.0352H3.03613ZM15.0361 15.0352C15.055 16.6565 16.3742 17.9648 18 17.9648C19.6258 17.9648 20.945 16.6565 20.9639 15.0352H15.0361ZM3.7832 14.9648H8.2168L6 11.0859L3.7832 14.9648ZM15.7832 12.9648H20.2168L18 9.08594L15.7832 12.9648Z"/></svg>