<svg xmlns="http://www.w3.org/2000/svg" width="24" height="24" fill="none" viewBox="0 0 24 24"><path fill="currentColor" d="M12 0.964844C13.5921 0.964844 14.9383 2.01768 15.3809 3.46484H20C20.5716 3.46484 21.0352 3.92839 21.0352 4.5C21.0352 5.07161 20.5716 5.53516 20 5.53516H15.3809C15.0384 6.65498 14.155 7.53748 13.0352 7.87988V19.9648H20C20.5716 19.9648 21.0352 20.4284 21.0352 21C21.0352 21.5716 20.5716 22.0352 20 22.0352H4.00003C3.42863 22.0349 2.96585 21.5715 2.96585 21C2.96585 20.4285 3.42863 19.9651 4.00003 19.9648H10.9659V7.87988C9.84598 7.53749 8.96265 6.65498 8.62015 5.53516H4.00003C3.42863 5.5349 2.96585 5.07146 2.96585 4.5C2.96585 3.92855 3.42864 3.4651 4.00003 3.46484H8.62015C9.06272 2.01782 10.4082 0.965053 12 0.964844ZM5.50003 6.96484C5.85083 6.96484 6.17837 7.14312 6.36917 7.4375L9.35452 12.043C9.52456 12.3053 9.67997 12.5384 9.80667 12.9131C9.85981 13.0703 9.89766 13.265 9.91995 13.4033C9.94224 13.5416 9.96786 13.7382 9.96683 13.9043C9.96593 14.0466 9.96027 14.1756 9.94339 14.3018C9.92556 14.4347 9.89745 14.538 9.88187 14.5977C9.36975 16.5585 7.61833 18.0352 5.50003 18.0352C3.38194 18.0349 1.63027 16.5583 1.11819 14.5977C1.1026 14.538 1.07545 14.4345 1.05765 14.3018C1.04076 14.1756 1.03511 14.0466 1.03421 13.9043C1.03317 13.7382 1.0588 13.5416 1.08109 13.4033C1.10338 13.265 1.14123 13.0703 1.19437 12.9131C1.32107 12.5384 1.47648 12.3053 1.64651 12.043L4.63187 7.4375L4.70999 7.33203C4.90508 7.1011 5.19338 6.96498 5.50003 6.96484ZM18.5 6.96484C18.8508 6.96484 19.1784 7.14312 19.3692 7.4375L22.3545 12.043C22.5246 12.3053 22.68 12.5384 22.8067 12.9131C22.8598 13.0703 22.8977 13.265 22.92 13.4033C22.9422 13.5416 22.9679 13.7382 22.9668 13.9043C22.9659 14.0466 22.9603 14.1756 22.9434 14.3018C22.9256 14.4347 22.8975 14.538 22.8819 14.5977C22.3698 16.5585 20.6183 18.0352 18.5 18.0352C16.3819 18.0349 14.6303 16.5583 14.1182 14.5977C14.1026 14.538 14.0755 14.4345 14.0576 14.3018C14.0408 14.1756 14.0351 14.0466 14.0342 13.9043C14.0332 13.7382 14.0588 13.5416 14.0811 13.4033C14.1034 13.265 14.1412 13.0703 14.1944 12.9131C14.3211 12.5384 14.4765 12.3053 14.6465 12.043L17.6319 7.4375L17.71 7.33203C17.9051 7.1011 18.1934 6.96498 18.5 6.96484ZM3.12112 14.0752C3.41044 15.1825 4.38241 15.9646 5.50003 15.9648C6.61785 15.9648 7.59056 15.1827 7.87991 14.0752C7.88482 14.0564 7.88761 14.0434 7.88968 14.0352H3.11038C3.11245 14.0434 3.11618 14.0563 3.12112 14.0752ZM16.1211 14.0752C16.4104 15.1825 17.3824 15.9646 18.5 15.9648C19.6179 15.9648 20.5906 15.1827 20.8799 14.0752C20.8848 14.0564 20.8876 14.0434 20.8897 14.0352H16.1104C16.1124 14.0434 16.1162 14.0563 16.1211 14.0752ZM17.1641 11.9648H19.8369L18.5 9.90234L17.1641 11.9648ZM4.16409 11.9648H6.83694L5.50003 9.90234L4.16409 11.9648ZM12 3.03516C11.1912 3.03541 10.5352 3.69106 10.5352 4.5C10.5352 5.30894 11.1912 5.96459 12 5.96484C12.8091 5.96484 13.4659 5.3091 13.4659 4.5C13.4659 3.6909 12.8091 3.03516 12 3.03516Z"/></svg>