<svg xmlns="http://www.w3.org/2000/svg" width="24" height="24" fill="none" viewBox="0 0 24 24"><path fill="currentColor" d="M10.9648 15.2002C10.9648 14.6231 10.9644 14.2523 10.9414 13.9707C10.9194 13.7012 10.8816 13.6052 10.8594 13.5615C10.7669 13.3803 10.6197 13.2331 10.4385 13.1406C10.3948 13.1184 10.2988 13.0806 10.0293 13.0586C9.74772 13.0356 9.37691 13.0352 8.7998 13.0352H6.2002C5.62309 13.0352 5.25228 13.0356 4.9707 13.0586C4.7012 13.0806 4.60521 13.1184 4.56152 13.1406C4.38033 13.2331 4.23308 13.3803 4.14062 13.5615C4.11837 13.6052 4.08061 13.7012 4.05859 13.9707C4.03559 14.2523 4.03516 14.6231 4.03516 15.2002V17.7998C4.03516 18.3769 4.03559 18.7477 4.05859 19.0293C4.08061 19.2988 4.11837 19.3948 4.14062 19.4385C4.23308 19.6197 4.38032 19.7669 4.56152 19.8594C4.60521 19.8816 4.7012 19.9194 4.9707 19.9414C5.25228 19.9644 5.62309 19.9648 6.2002 19.9648H8.7998C9.37691 19.9648 9.74772 19.9644 10.0293 19.9414C10.2988 19.9194 10.3948 19.8816 10.4385 19.8594C10.6197 19.7669 10.7669 19.6197 10.8594 19.4385C10.8816 19.3948 10.9194 19.2988 10.9414 19.0293C10.9644 18.7477 10.9648 18.3769 10.9648 17.7998V15.2002ZM19.9648 16.2002V7.7998C19.9648 6.94287 19.9643 6.36234 19.9277 5.91406C19.8921 5.47781 19.8277 5.25806 19.751 5.10742C19.5626 4.73794 19.2621 4.43737 18.8926 4.24902C18.7419 4.17227 18.5222 4.10791 18.0859 4.07227C17.6377 4.03565 17.0571 4.03516 16.2002 4.03516H7.7998C6.94287 4.03516 6.36234 4.03565 5.91406 4.07227C5.47781 4.10791 5.25807 4.17227 5.10742 4.24902C4.73794 4.43737 4.43737 4.73794 4.24902 5.10742C4.17227 5.25807 4.10791 5.47781 4.07227 5.91406C4.03565 6.36234 4.03516 6.94287 4.03516 7.7998V8C4.03516 8.57161 3.57161 9.03516 3 9.03516C2.42839 9.03516 1.96484 8.57161 1.96484 8V7.7998C1.96484 6.97689 1.96465 6.29725 2.00977 5.74512C2.05588 5.18095 2.15509 4.65899 2.40527 4.16797C2.79208 3.409 3.409 2.79208 4.16797 2.40527C4.65899 2.15509 5.18095 2.05588 5.74512 2.00977C6.29725 1.96465 6.97689 1.96484 7.7998 1.96484H16.2002C17.0231 1.96484 17.7027 1.96465 18.2549 2.00977C18.8191 2.05588 19.341 2.15509 19.832 2.40527C20.591 2.79208 21.2079 3.409 21.5947 4.16797C21.8449 4.65899 21.9441 5.18095 21.9902 5.74512C22.0353 6.29725 22.0352 6.97689 22.0352 7.7998V16.2002C22.0352 17.0231 22.0353 17.7027 21.9902 18.2549C21.9441 18.8191 21.8449 19.341 21.5947 19.832C21.2079 20.591 20.591 21.2079 19.832 21.5947C19.341 21.8449 18.8191 21.9441 18.2549 21.9902C17.7027 22.0353 17.0231 22.0352 16.2002 22.0352H16C15.4284 22.0352 14.9648 21.5716 14.9648 21C14.9648 20.4284 15.4284 19.9648 16 19.9648H16.2002C17.0571 19.9648 17.6377 19.9643 18.0859 19.9277C18.5222 19.8921 18.7419 19.8277 18.8926 19.751C19.2621 19.5626 19.5626 19.2621 19.751 18.8926C19.8277 18.7419 19.8921 18.5222 19.9277 18.0859C19.9643 17.6377 19.9648 17.0571 19.9648 16.2002ZM18.0352 12C18.0352 12.5716 17.5716 13.0352 17 13.0352C16.4284 13.0352 15.9648 12.5716 15.9648 12V9.49805L12.7471 12.7148C12.9095 13.0703 12.974 13.436 13.0039 13.8018C13.0354 14.1872 13.0352 14.6572 13.0352 15.2002V17.7998C13.0352 18.3428 13.0354 18.8128 13.0039 19.1982C12.9714 19.5956 12.8998 19.9939 12.7041 20.3779C12.4131 20.9489 11.9489 21.4131 11.3779 21.7041C10.9939 21.8998 10.5956 21.9714 10.1982 22.0039C9.81282 22.0354 9.34278 22.0352 8.7998 22.0352H6.2002C5.65722 22.0352 5.18718 22.0354 4.80176 22.0039C4.40438 21.9714 4.00608 21.8998 3.62207 21.7041C3.05107 21.4131 2.58686 20.9489 2.2959 20.3779C2.10024 19.9939 2.02859 19.5956 1.99609 19.1982C1.9646 18.8128 1.96484 18.3428 1.96484 17.7998V15.2002C1.96484 14.6572 1.9646 14.1872 1.99609 13.8018C2.02859 13.4044 2.10024 13.0061 2.2959 12.6221C2.58686 12.0511 3.05107 11.5869 3.62207 11.2959C4.00608 11.1002 4.40438 11.0286 4.80176 10.9961C5.18718 10.9646 5.65722 10.9648 6.2002 10.9648H8.7998C9.34278 10.9648 9.81282 10.9646 10.1982 10.9961C10.5636 11.026 10.9291 11.0899 11.2842 11.252L14.502 8.03516H12C11.4284 8.03516 10.9648 7.57161 10.9648 7C10.9648 6.42839 11.4284 5.96484 12 5.96484H17C17.5716 5.96484 18.0352 6.42839 18.0352 7V12Z"/></svg>