<svg xmlns="http://www.w3.org/2000/svg" width="24" height="24" fill="none" viewBox="0 0 24 24"><g clip-path="url(#a)"><path fill="currentColor" d="M10.9649 16.7999C10.9649 15.943 10.9644 15.3624 10.9278 14.9142C10.8922 14.4779 10.8278 14.2582 10.7511 14.1075C10.5627 13.738 10.2622 13.4375 9.89267 13.2491C9.74203 13.1724 9.52228 13.108 9.08603 13.0724C8.63776 13.0357 8.05722 13.0353 7.20029 13.0353H6.7999C5.94297 13.0353 5.36243 13.0357 4.91416 13.0724C4.47791 13.108 4.25816 13.1724 4.10752 13.2491C3.73804 13.4375 3.43746 13.738 3.24912 14.1075C3.17236 14.2582 3.108 14.4779 3.07236 14.9142C3.03575 15.3624 3.03525 15.943 3.03525 16.7999V17.2003L3.04013 18.296C3.04491 18.6045 3.05405 18.8618 3.07236 19.086C3.108 19.5223 3.17236 19.742 3.24912 19.8927C3.43746 20.2622 3.73804 20.5627 4.10752 20.7511C4.25816 20.8278 4.47791 20.8922 4.91416 20.9278C5.36243 20.9644 5.94297 20.9649 6.7999 20.9649H7.20029C8.05722 20.9649 8.63776 20.9644 9.08603 20.9278C9.52228 20.8922 9.74203 20.8278 9.89267 20.7511C10.2622 20.5627 10.5627 20.2622 10.7511 19.8927C10.8278 19.742 10.8922 19.5223 10.9278 19.086C10.9644 18.6378 10.9649 18.0572 10.9649 17.2003V16.7999ZM20.9649 18.0001C20.9649 17.4285 21.4285 16.9649 22.0001 16.9649C22.5717 16.9649 23.0353 17.4285 23.0353 18.0001C23.0353 18.8632 23.0438 19.4978 22.8976 20.044C22.5245 21.4365 21.4365 22.5245 20.044 22.8976C19.4978 23.0438 18.8632 23.0353 18.0001 23.0353C17.4285 23.0353 16.9649 22.5717 16.9649 22.0001C16.9649 21.4285 17.4285 20.9649 18.0001 20.9649C18.9967 20.9649 19.2922 20.9566 19.5089 20.8985C20.1869 20.7168 20.7168 20.1869 20.8985 19.5089C20.9566 19.2922 20.9649 18.9967 20.9649 18.0001ZM20.9649 14.0001V10.0001C20.9649 9.42848 21.4285 8.96494 22.0001 8.96494C22.5717 8.96494 23.0353 9.42848 23.0353 10.0001V14.0001C23.0353 14.5717 22.5717 15.0353 22.0001 15.0353C21.4285 15.0353 20.9649 14.5717 20.9649 14.0001ZM0.964939 6.00009C0.964939 5.13694 0.956353 4.50236 1.10263 3.95615C1.47574 2.5637 2.5637 1.47574 3.95615 1.10263C4.50236 0.956353 5.13694 0.964939 6.00009 0.964939C6.57171 0.964939 7.03525 1.42848 7.03525 2.00009C7.03525 2.57171 6.57171 3.03525 6.00009 3.03525C5.00349 3.03525 4.70801 3.04359 4.49131 3.10166C3.81328 3.28337 3.28337 3.81328 3.10166 4.49131C3.04359 4.70801 3.03525 5.00349 3.03525 6.00009C3.03525 6.57171 2.57171 7.03525 2.00009 7.03525C1.42848 7.03525 0.964939 6.57171 0.964939 6.00009ZM20.9649 6.00009C20.9649 5.00349 20.9566 4.70801 20.8985 4.49131C20.7168 3.81328 20.1869 3.28337 19.5089 3.10166C19.2922 3.04359 18.9967 3.03525 18.0001 3.03525C17.4285 3.03525 16.9649 2.57171 16.9649 2.00009C16.9649 1.42848 17.4285 0.964939 18.0001 0.964939C18.8632 0.964939 19.4978 0.956353 20.044 1.10263C21.4365 1.47574 22.5245 2.5637 22.8976 3.95615C23.0438 4.50236 23.0353 5.13694 23.0353 6.00009C23.0353 6.57171 22.5717 7.03525 22.0001 7.03525C21.4285 7.03525 20.9649 6.57171 20.9649 6.00009ZM14.0001 0.964939C14.5717 0.964939 15.0353 1.42848 15.0353 2.00009C15.0353 2.57171 14.5717 3.03525 14.0001 3.03525H10.0001C9.42848 3.03525 8.96494 2.57171 8.96494 2.00009C8.96494 1.42848 9.42848 0.964939 10.0001 0.964939H14.0001ZM13.0353 17.2003C13.0353 18.0232 13.0354 18.7028 12.9903 19.255C12.9442 19.8191 12.845 20.3411 12.5948 20.8321C12.5718 20.8774 12.5453 20.9207 12.5206 20.9649H14.0001C14.5717 20.9649 15.0353 21.4285 15.0353 22.0001C15.0353 22.5717 14.5717 23.0353 14.0001 23.0353H6.7999C5.97699 23.0353 5.29735 23.0354 4.74521 22.9903C4.18104 22.9442 3.65909 22.845 3.16806 22.5948C2.4091 22.208 1.79217 21.5911 1.40537 20.8321C1.15518 20.3411 1.05597 19.8191 1.00986 19.255C0.964749 18.7028 0.964938 18.0232 0.964939 17.2003V10.0001C0.964939 9.42848 1.42848 8.96494 2.00009 8.96494C2.57171 8.96494 3.03525 9.42848 3.03525 10.0001V11.4796C3.07949 11.4549 3.1228 11.4284 3.16806 11.4054C3.65908 11.1552 4.18104 11.056 4.74521 11.0099C5.29735 10.9647 5.97699 10.9649 6.7999 10.9649H7.20029C8.0232 10.9649 8.70284 10.9647 9.25498 11.0099C9.81915 11.056 10.3411 11.1552 10.8321 11.4054C11.5911 11.7922 12.208 12.4091 12.5948 13.1681C12.845 13.6591 12.9442 14.181 12.9903 14.7452C13.0354 15.2973 13.0353 15.977 13.0353 16.7999V17.2003Z"/></g><defs><clipPath id="a"><path fill="#fff" d="M0 0H24V24H0z"/></clipPath></defs></svg>