<svg xmlns="http://www.w3.org/2000/svg" width="24" height="24" fill="none" viewBox="0 0 24 24"><path fill="currentColor" d="M1.96484 16.2002V16C1.96484 15.4284 2.42839 14.9648 3 14.9648C3.57161 14.9648 4.03516 15.4284 4.03516 16V16.2002C4.03516 17.0571 4.03565 17.6377 4.07227 18.0859C4.10791 18.5222 4.17227 18.7419 4.24902 18.8926C4.43737 19.2621 4.73794 19.5626 5.10742 19.751C5.25806 19.8277 5.47781 19.8921 5.91406 19.9277C6.36234 19.9643 6.94287 19.9648 7.7998 19.9648H8C8.57161 19.9648 9.03516 20.4284 9.03516 21C9.03516 21.5716 8.57161 22.0352 8 22.0352H7.7998C6.97689 22.0352 6.29725 22.0353 5.74512 21.9902C5.18095 21.9441 4.65899 21.8449 4.16797 21.5947C3.409 21.2079 2.79208 20.591 2.40527 19.832C2.15509 19.341 2.05588 18.8191 2.00977 18.2549C1.96465 17.7027 1.96484 17.0231 1.96484 16.2002ZM19.9648 16.2002V16C19.9648 15.4284 20.4284 14.9648 21 14.9648C21.5716 14.9648 22.0352 15.4284 22.0352 16V16.2002C22.0352 17.0231 22.0353 17.7027 21.9902 18.2549C21.9441 18.8191 21.8449 19.341 21.5947 19.832C21.2079 20.591 20.591 21.2079 19.832 21.5947C19.341 21.8449 18.8191 21.9441 18.2549 21.9902C17.7027 22.0353 17.0231 22.0352 16.2002 22.0352H16C15.4284 22.0352 14.9648 21.5716 14.9648 21C14.9648 20.4284 15.4284 19.9648 16 19.9648H16.2002C17.0571 19.9648 17.6377 19.9643 18.0859 19.9277C18.5222 19.8921 18.7419 19.8277 18.8926 19.751C19.2621 19.5626 19.5626 19.2621 19.751 18.8926C19.8277 18.7419 19.8921 18.5222 19.9277 18.0859C19.9643 17.6377 19.9648 17.0571 19.9648 16.2002ZM3.00977 10.9648C3.58138 10.9648 4.04492 11.4284 4.04492 12C4.04492 12.5716 3.58138 13.0352 3.00977 13.0352H3C2.42839 13.0352 1.96484 12.5716 1.96484 12C1.96484 11.4284 2.42839 10.9648 3 10.9648H3.00977ZM7.50977 10.9648C8.08138 10.9648 8.54492 11.4284 8.54492 12C8.54492 12.5716 8.08138 13.0352 7.50977 13.0352H7.5C6.92839 13.0352 6.46484 12.5716 6.46484 12C6.46484 11.4284 6.92839 10.9648 7.5 10.9648H7.50977ZM12.0098 10.9648C12.5814 10.9648 13.0449 11.4284 13.0449 12C13.0449 12.5716 12.5814 13.0352 12.0098 13.0352H12C11.4284 13.0352 10.9648 12.5716 10.9648 12C10.9648 11.4284 11.4284 10.9648 12 10.9648H12.0098ZM16.5098 10.9648C17.0814 10.9648 17.5449 11.4284 17.5449 12C17.5449 12.5716 17.0814 13.0352 16.5098 13.0352H16.5C15.9284 13.0352 15.4648 12.5716 15.4648 12C15.4648 11.4284 15.9284 10.9648 16.5 10.9648H16.5098ZM21.0098 10.9648C21.5814 10.9648 22.0449 11.4284 22.0449 12C22.0449 12.5716 21.5814 13.0352 21.0098 13.0352H21C20.4284 13.0352 19.9648 12.5716 19.9648 12C19.9648 11.4284 20.4284 10.9648 21 10.9648H21.0098ZM1.96484 8V7.7998C1.96484 6.97689 1.96465 6.29725 2.00977 5.74512C2.05588 5.18095 2.15509 4.65899 2.40527 4.16797C2.79208 3.409 3.409 2.79208 4.16797 2.40527C4.65899 2.15509 5.18095 2.05588 5.74512 2.00977C6.29725 1.96465 6.97689 1.96484 7.7998 1.96484H8C8.57161 1.96484 9.03516 2.42839 9.03516 3C9.03516 3.57161 8.57161 4.03516 8 4.03516H7.7998C6.94287 4.03516 6.36234 4.03565 5.91406 4.07227C5.47781 4.10791 5.25807 4.17227 5.10742 4.24902C4.73794 4.43737 4.43737 4.73794 4.24902 5.10742C4.17227 5.25807 4.10791 5.47781 4.07227 5.91406C4.03565 6.36234 4.03516 6.94287 4.03516 7.7998V8C4.03516 8.57161 3.57161 9.03516 3 9.03516C2.42839 9.03516 1.96484 8.57161 1.96484 8ZM19.9648 8V7.7998C19.9648 6.94287 19.9643 6.36234 19.9277 5.91406C19.8921 5.47781 19.8277 5.25807 19.751 5.10742C19.5626 4.73794 19.2621 4.43737 18.8926 4.24902C18.7419 4.17227 18.5222 4.10791 18.0859 4.07227C17.6377 4.03565 17.0571 4.03516 16.2002 4.03516H16C15.4284 4.03516 14.9648 3.57161 14.9648 3C14.9648 2.42839 15.4284 1.96484 16 1.96484H16.2002C17.0231 1.96484 17.7027 1.96465 18.2549 2.00977C18.8191 2.05588 19.341 2.15509 19.832 2.40527C20.591 2.79208 21.2079 3.409 21.5947 4.16797C21.8449 4.65899 21.9441 5.18095 21.9902 5.74512C22.0353 6.29725 22.0352 6.97689 22.0352 7.7998V8C22.0352 8.57161 21.5716 9.03516 21 9.03516C20.4284 9.03516 19.9648 8.57161 19.9648 8Z"/></svg>