<svg xmlns="http://www.w3.org/2000/svg" width="24" height="24" fill="none" viewBox="0 0 24 24"><path fill="currentColor" d="M7.96484 18C7.96484 16.9148 7.08524 16.0352 6 16.0352C4.91476 16.0352 4.03516 16.9148 4.03516 18C4.03516 19.0852 4.91476 19.9648 6 19.9648C7.08524 19.9648 7.96484 19.0852 7.96484 18ZM7.96484 6C7.96484 4.91476 7.08524 4.03516 6 4.03516C4.91476 4.03516 4.03516 4.91476 4.03516 6C4.03516 7.08524 4.91476 7.96484 6 7.96484C7.08524 7.96484 7.96484 7.08524 7.96484 6ZM10.0352 6C10.0352 6.73863 9.83479 7.42989 9.48828 8.02539L12 10.5371L19.2686 3.26855C19.6727 2.86436 20.3273 2.86436 20.7314 3.26855C21.1356 3.67275 21.1356 4.32725 20.7314 4.73145L13.4629 12L20.7314 19.2686C21.1356 19.6727 21.1356 20.3273 20.7314 20.7314C20.3273 21.1356 19.6727 21.1356 19.2686 20.7314L12 13.4629L9.48828 15.9736C9.83506 16.5693 10.0352 17.2611 10.0352 18C10.0352 20.2285 8.22847 22.0352 6 22.0352C3.77153 22.0352 1.96484 20.2285 1.96484 18C1.96484 15.7715 3.77153 13.9648 6 13.9648C6.73845 13.9648 7.42998 14.1644 8.02539 14.5107L10.5371 12L8.02539 9.48828C7.42989 9.83479 6.73863 10.0352 6 10.0352C3.77153 10.0352 1.96484 8.22847 1.96484 6C1.96484 3.77153 3.77153 1.96484 6 1.96484C8.22847 1.96484 10.0352 3.77153 10.0352 6Z"/></svg>