<svg xmlns="http://www.w3.org/2000/svg" width="24" height="24" fill="none" viewBox="0 0 24 24"><path fill="currentColor" d="M7.96484 18C7.96484 16.9148 7.08524 16.0352 6 16.0352C4.91476 16.0352 4.03516 16.9148 4.03516 18C4.03516 19.0852 4.91476 19.9648 6 19.9648C7.08524 19.9648 7.96484 19.0852 7.96484 18ZM17.5098 10.9648C18.0814 10.9648 18.5449 11.4284 18.5449 12C18.5449 12.5716 18.0814 13.0352 17.5098 13.0352H17.5C16.9284 13.0352 16.4648 12.5716 16.4648 12C16.4648 11.4284 16.9284 10.9648 17.5 10.9648H17.5098ZM22.0098 10.9648C22.5814 10.9648 23.0449 11.4284 23.0449 12C23.0449 12.5716 22.5814 13.0352 22.0098 13.0352H22C21.4284 13.0352 20.9648 12.5716 20.9648 12C20.9648 11.4284 21.4284 10.9648 22 10.9648H22.0098ZM7.96484 6C7.96484 4.91476 7.08524 4.03516 6 4.03516C4.91476 4.03516 4.03516 4.91476 4.03516 6C4.03516 7.08524 4.91476 7.96484 6 7.96484C7.08524 7.96484 7.96484 7.08524 7.96484 6ZM10.0352 6C10.0352 7.39464 9.3267 8.62291 8.25098 9.34766L11.1777 10.8379L20.5303 6.07812C21.0396 5.81885 21.6624 6.02111 21.9219 6.53027C22.1812 7.03957 21.9789 7.66244 21.4697 7.92188L13.459 12L21.4697 16.0781C21.9789 16.3376 22.1812 16.9604 21.9219 17.4697C21.6624 17.9789 21.0396 18.1812 20.5303 17.9219L11.1777 13.1611L8.25098 14.6514C9.32695 15.3761 10.0352 16.6052 10.0352 18C10.0352 20.2285 8.22847 22.0352 6 22.0352C3.77153 22.0352 1.96484 20.2285 1.96484 18C1.96484 16.527 2.75388 15.2376 3.93262 14.5332C3.96365 14.5129 3.99649 14.4947 4.03027 14.4775L4.05078 14.4658C4.12722 14.4236 4.20579 14.385 4.28516 14.3477L8.89648 12L4.28516 9.65137C4.20577 9.61402 4.12723 9.57547 4.05078 9.5332L4.03027 9.52246C3.99633 9.50518 3.96379 9.48619 3.93262 9.46582C2.75412 8.76133 1.96484 7.47283 1.96484 6C1.96484 3.77153 3.77153 1.96484 6 1.96484C8.22847 1.96484 10.0352 3.77153 10.0352 6Z"/></svg>