<svg xmlns="http://www.w3.org/2000/svg" width="24" height="24" fill="none" viewBox="0 0 24 24"><path fill="currentColor" d="M15.9648 10C15.9648 6.70562 13.2944 4.03516 10 4.03516C6.70562 4.03516 4.03516 6.70562 4.03516 10C4.03516 13.2944 6.70562 15.9648 10 15.9648C13.2944 15.9648 15.9648 13.2944 15.9648 10ZM18.0352 10C18.0352 11.8455 17.4103 13.5438 16.3643 14.9004L21.7314 20.2686C22.1356 20.6727 22.1356 21.3273 21.7314 21.7314C21.3273 22.1356 20.6727 22.1356 20.2686 21.7314L14.9014 16.3643C13.5447 17.4106 11.8458 18.0352 10 18.0352C5.56239 18.0352 1.96484 14.4376 1.96484 10C1.96484 5.56239 5.56239 1.96484 10 1.96484C14.4376 1.96484 18.0352 5.56239 18.0352 10Z"/></svg>