<svg xmlns="http://www.w3.org/2000/svg" width="24" height="24" fill="none" viewBox="0 0 24 24"><path fill="currentColor" d="M18.9648 11.5C18.9648 7.37719 15.6228 4.03516 11.5 4.03516C7.37719 4.03516 4.03516 7.37719 4.03516 11.5C4.03516 15.6228 7.37719 18.9648 11.5 18.9648C13.5102 18.9648 15.3327 18.1682 16.6748 16.876C16.7032 16.8386 16.7344 16.8027 16.7686 16.7686C16.8027 16.7344 16.8386 16.7032 16.876 16.6748C18.1682 15.3327 18.9648 13.5102 18.9648 11.5ZM21.0352 11.5C21.0352 13.76 20.2466 15.8347 18.9326 17.4688L21.7314 20.2686C22.1356 20.6728 22.1356 21.3273 21.7314 21.7314C21.3272 22.1356 20.6727 22.1356 20.2686 21.7314L17.4697 18.9326C15.8355 20.2468 13.7603 21.0352 11.5 21.0352C6.23396 21.0352 1.96484 16.766 1.96484 11.5C1.96484 6.23396 6.23396 1.96484 11.5 1.96484C16.766 1.96484 21.0352 6.23396 21.0352 11.5Z"/></svg>