<svg xmlns="http://www.w3.org/2000/svg" width="24" height="24" fill="none" viewBox="0 0 24 24"><path fill="currentColor" d="M11.5234 1.77201C11.8573 1.65339 12.2222 1.65421 12.5557 1.77397L12.7197 1.8433L12.8535 1.91947C13.1463 2.11064 13.3077 2.38083 13.3896 2.5269C13.4956 2.71592 13.6041 2.96026 13.7109 3.19877L21.1992 19.9117C21.3087 20.156 21.4206 20.4041 21.4922 20.6119C21.5547 20.7932 21.6712 21.1651 21.5557 21.5777C21.4254 22.0422 21.0843 22.4191 20.6348 22.5943C20.2354 22.7497 19.8535 22.6699 19.667 22.6255C19.4532 22.5746 19.1953 22.4869 18.9414 22.4019L12.0371 20.0904L5.05956 22.4068C4.80519 22.4912 4.54701 22.5781 4.333 22.6285C4.14628 22.6724 3.76428 22.7509 3.36522 22.5943C2.91608 22.4179 2.57614 22.0407 2.44725 21.5757C2.33273 21.1623 2.45059 20.79 2.51366 20.6089C2.58597 20.4013 2.69921 20.1539 2.80956 19.9097L10.3642 3.19389C10.4719 2.95572 10.5809 2.71168 10.6875 2.52299C10.7816 2.35637 10.98 2.02815 11.3594 1.84135L11.5234 1.77201ZM4.916 20.272L10.9658 18.2642V11.9996C10.966 11.4282 11.4287 10.9646 12 10.9644C12.5715 10.9644 13.035 11.4281 13.0351 11.9996V18.2417L19.0898 20.2681L12.0342 4.52201L4.916 20.272Z"/></svg>