<svg xmlns="http://www.w3.org/2000/svg" width="24" height="24" fill="none" viewBox="0 0 24 24"><path fill="currentColor" d="M20.6378 1.44026C20.8221 1.38676 21.1992 1.28893 21.6056 1.42464C22.063 1.57746 22.4223 1.93601 22.5753 2.39339C22.7111 2.80001 22.6122 3.17799 22.5587 3.36214C22.4974 3.573 22.3981 3.8258 22.3009 4.07503L15.7101 20.9637C15.6014 21.2421 15.4954 21.5166 15.3917 21.7264C15.3062 21.8994 15.1123 22.2752 14.7081 22.4852C14.264 22.7158 13.735 22.7154 13.2911 22.4842C12.887 22.2737 12.6938 21.8974 12.6085 21.7244C12.5049 21.5144 12.3995 21.2395 12.2911 20.9608L9.69932 14.2987L3.03818 11.7088C2.75964 11.6005 2.48547 11.4949 2.27549 11.3914C2.10263 11.3062 1.72635 11.1128 1.51572 10.7088C1.28449 10.265 1.28413 9.73596 1.51475 9.29183L1.60068 9.14925C1.81562 8.8403 2.12227 8.68303 2.27354 8.60823C2.48348 8.50442 2.75764 8.39762 3.03623 8.2889L19.9239 1.69905C20.1733 1.60172 20.4268 1.50156 20.6378 1.44026ZM11.7091 13.7537L14.0011 19.6483L19.2403 6.22249L11.7091 13.7537ZM9.89072 14.3748H9.8917H9.89072ZM4.35068 9.99788L10.2452 12.2899L17.7765 4.75862L4.35068 9.99788Z"/></svg>