<svg xmlns="http://www.w3.org/2000/svg" width="24" height="24" fill="none" viewBox="0 0 24 24"><path fill="currentColor" d="M2.42178 2.44462C2.83444 2.32979 3.20637 2.44727 3.3876 2.51005C3.59511 2.58193 3.84292 2.69423 4.08682 2.80399L20.8036 10.3265C21.042 10.4337 21.2866 10.5424 21.4755 10.6487C21.6214 10.7308 21.8912 10.8927 22.0819 11.1858L22.1581 11.3196L22.2274 11.4837C22.3665 11.873 22.3434 12.3049 22.1581 12.68C21.9708 13.0588 21.6423 13.257 21.4755 13.3509C21.2866 13.4572 21.042 13.5659 20.8036 13.6731L4.09268 21.1936C3.84798 21.3038 3.5994 21.4165 3.39151 21.4886C3.21017 21.5514 2.83781 21.6692 2.42471 21.554C1.95966 21.4242 1.58261 21.0829 1.40714 20.6331C1.25118 20.2333 1.33146 19.851 1.37589 19.6643C1.42684 19.4503 1.51433 19.1922 1.59952 18.9378L3.90909 12.0364L1.59171 5.05497C1.50752 4.80132 1.42127 4.54397 1.371 4.33036C1.32709 4.14371 1.24777 3.76146 1.40421 3.36258L1.4794 3.1995C1.6758 2.83201 2.01543 2.55778 2.42178 2.44462ZM5.73428 10.9651H10.4999C11.0715 10.9651 11.5351 11.4287 11.5351 12.0003C11.535 12.5718 11.0715 13.0354 10.4999 13.0354H5.7587L3.73233 19.0852L19.4774 11.9993L3.72452 4.91044L5.73428 10.9651Z"/></svg>