<svg xmlns="http://www.w3.org/2000/svg" width="24" height="24" fill="none" viewBox="0 0 24 24"><path fill="currentColor" d="M12 0.964844C16.4376 0.964844 20.0352 4.56239 20.0352 9C20.0352 13.0867 16.9836 16.4578 13.0352 16.9658V17.1494C13.8778 17.4555 14.5445 18.1222 14.8506 18.9648H21C21.5716 18.9648 22.0352 19.4284 22.0352 20C22.0352 20.5716 21.5716 21.0352 21 21.0352H14.8506C14.4271 22.2011 13.3123 23.0352 12 23.0352C10.6877 23.0352 9.57291 22.2011 9.14941 21.0352H3C2.42839 21.0352 1.96484 20.5716 1.96484 20C1.96484 19.4284 2.42839 18.9648 3 18.9648H9.14941C9.45546 18.1222 10.1222 17.4555 10.9648 17.1494V16.9658C7.01637 16.4578 3.96484 13.0867 3.96484 9C3.96484 4.56239 7.56239 0.964844 12 0.964844ZM12 19.0352C11.467 19.0352 11.0352 19.467 11.0352 20C11.0352 20.533 11.467 20.9648 12 20.9648C12.533 20.9648 12.9648 20.533 12.9648 20C12.9648 19.467 12.533 19.0352 12 19.0352ZM6.12598 10.0352C6.47653 12.0382 7.82531 13.6967 9.6416 14.4795C8.88226 13.112 8.40108 11.6016 8.23242 10.0352H6.12598ZM15.7695 10.0352C15.6006 11.6019 15.1173 13.1119 14.3574 14.4795C16.1741 13.6969 17.5234 12.0385 17.874 10.0352H15.7695ZM10.3184 10.0352C10.522 11.589 11.0986 13.069 12 14.3486C12.9019 13.0688 13.4796 11.5888 13.6836 10.0352H10.3184ZM14.3574 3.51953C15.1176 4.88728 15.6006 6.39777 15.7695 7.96484H17.874C17.5234 5.96142 16.1743 4.30211 14.3574 3.51953ZM12 3.65039C11.0983 4.93013 10.5221 6.41078 10.3184 7.96484H13.6836C13.4796 6.41095 12.9022 4.93033 12 3.65039ZM9.6416 3.51953C7.82513 4.30225 6.47655 5.96172 6.12598 7.96484H8.23242C8.40111 6.39815 8.88202 4.88724 9.6416 3.51953Z"/></svg>