<svg xmlns="http://www.w3.org/2000/svg" width="24" height="24" fill="none" viewBox="0 0 24 24"><path fill="currentColor" d="M20.9648 18C20.9648 16.6386 19.8614 15.5352 18.5 15.5352H5.5C4.13862 15.5352 3.03516 16.6386 3.03516 18C3.03516 19.3614 4.13862 20.4648 5.5 20.4648H18.5C19.8614 20.4648 20.9648 19.3614 20.9648 18ZM6.00977 16.9648C6.58138 16.9648 7.04492 17.4284 7.04492 18C7.04492 18.5716 6.58138 19.0352 6.00977 19.0352H6C5.42839 19.0352 4.96484 18.5716 4.96484 18C4.96484 17.4284 5.42839 16.9648 6 16.9648H6.00977ZM18 16.9648C18.5716 16.9648 19.0352 17.4284 19.0352 18C19.0352 18.5716 18.5716 19.0352 18 19.0352H12C11.4284 19.0352 10.9648 18.5716 10.9648 18C10.9648 17.4284 11.4284 16.9648 12 16.9648H18ZM5.5 8.53516C4.13862 8.53516 3.03516 9.63862 3.03516 11C3.03516 12.3614 4.13862 13.4648 5.5 13.4648H18.5C19.8614 13.4648 20.9648 12.3614 20.9648 11C20.9648 9.63862 19.8614 8.53516 18.5 8.53516H5.5ZM6.00977 9.96484C6.58138 9.96484 7.04492 10.4284 7.04492 11C7.04492 11.5716 6.58138 12.0352 6.00977 12.0352H6C5.42839 12.0352 4.96484 11.5716 4.96484 11C4.96484 10.4284 5.42839 9.96484 6 9.96484H6.00977ZM18 9.96484C18.5716 9.96484 19.0352 10.4284 19.0352 11C19.0352 11.5716 18.5716 12.0352 18 12.0352H12C11.4284 12.0352 10.9648 11.5716 10.9648 11C10.9648 10.4284 11.4284 9.96484 12 9.96484H18ZM7.2373 3.53516C6.47153 3.53516 5.95562 3.53547 5.55469 3.56641C5.16673 3.59637 4.96558 3.65042 4.82227 3.7168C4.476 3.87725 4.18361 4.1353 3.98145 4.45898C3.89778 4.59296 3.81908 4.78563 3.74121 5.16699C3.66076 5.56103 3.59598 6.07299 3.50098 6.83301L3.4873 6.93555C4.09382 6.63463 4.77704 6.46484 5.5 6.46484H18.5C19.2227 6.46484 19.9054 6.63487 20.5117 6.93555L20.499 6.83301C20.404 6.07299 20.3392 5.56103 20.2588 5.16699C20.1809 4.78562 20.1022 4.59296 20.0186 4.45898C19.8164 4.1353 19.524 3.87725 19.1777 3.7168C19.0344 3.65042 18.8333 3.59637 18.4453 3.56641C18.0444 3.53547 17.5285 3.53516 16.7627 3.53516H7.2373ZM23.0352 18C23.0352 20.5046 21.0046 22.5352 18.5 22.5352H5.5C2.99539 22.5352 0.964844 20.5046 0.964844 18C0.964844 16.5908 1.60785 15.3318 2.61621 14.5C1.60785 13.6682 0.964844 12.4092 0.964844 11C0.964844 10.886 0.971221 10.7731 0.979492 10.6611C0.964767 10.5676 0.960369 10.4707 0.972656 10.3721L1.44727 6.57617C1.53832 5.84776 1.61373 5.24337 1.71387 4.75293C1.8166 4.24982 1.95896 3.78921 2.22559 3.3623C2.64072 2.69763 3.24112 2.16835 3.95215 1.83887C4.40864 1.62739 4.88281 1.54247 5.39453 1.50293C5.89363 1.46439 6.50317 1.46484 7.2373 1.46484H16.7627C17.4968 1.46484 18.1064 1.46439 18.6055 1.50293C19.1172 1.54247 19.5914 1.62739 20.0479 1.83887C20.7589 2.16835 21.3593 2.69764 21.7744 3.3623C22.041 3.78921 22.1834 4.24982 22.2861 4.75293C22.3863 5.24338 22.4617 5.84777 22.5527 6.57617L23.0273 10.3721C23.0396 10.4707 23.0352 10.5676 23.0205 10.6611C23.0288 10.7731 23.0352 10.886 23.0352 11C23.0352 12.4095 22.3915 13.6682 21.3828 14.5C22.3915 15.3318 23.0352 16.5905 23.0352 18Z"/></svg>