<svg xmlns="http://www.w3.org/2000/svg" width="24" height="24" fill="none" viewBox="0 0 24 24"><path fill="currentColor" d="M20.9648 16C20.9648 14.3625 19.6375 13.0352 18 13.0352H6C4.36248 13.0352 3.03516 14.3625 3.03516 16C3.03516 17.6375 4.36248 18.9648 6 18.9648H18C19.6375 18.9648 20.9648 17.6375 20.9648 16ZM6.00977 14.9648C6.58138 14.9648 7.04492 15.4284 7.04492 16C7.04492 16.5716 6.58138 17.0352 6.00977 17.0352H6C5.42839 17.0352 4.96484 16.5716 4.96484 16C4.96484 15.4284 5.42839 14.9648 6 14.9648H6.00977ZM6.00977 6.96484C6.58138 6.96484 7.04492 7.42839 7.04492 8C7.04492 8.57161 6.58138 9.03516 6.00977 9.03516H6C5.42839 9.03516 4.96484 8.57161 4.96484 8C4.96484 7.42839 5.42839 6.96484 6 6.96484H6.00977ZM20.9648 8C20.9648 6.36248 19.6375 5.03516 18 5.03516H6C4.36248 5.03516 3.03516 6.36248 3.03516 8C3.03516 9.63752 4.36248 10.9648 6 10.9648H18C19.6375 10.9648 20.9648 9.63752 20.9648 8ZM23.0352 8C23.0352 9.63092 22.2589 11.0799 21.0566 12C22.2589 12.9201 23.0352 14.3691 23.0352 16C23.0352 18.7808 20.7808 21.0352 18 21.0352H6C3.21925 21.0352 0.964844 18.7808 0.964844 16C0.964844 14.3694 1.74045 12.9202 2.94238 12C1.74045 11.0798 0.964844 9.63064 0.964844 8C0.964844 5.21925 3.21925 2.96484 6 2.96484H18C20.7808 2.96484 23.0352 5.21925 23.0352 8Z"/></svg>