<svg xmlns="http://www.w3.org/2000/svg" width="24" height="24" fill="none" viewBox="0 0 24 24"><path fill="currentColor" d="M16.5195 1.96484C17.2921 1.96484 17.9318 1.96447 18.4541 2.00586C18.9891 2.04828 19.4849 2.13974 19.957 2.36816C20.6898 2.72271 21.298 3.29043 21.7021 3.99707C21.9625 4.45232 22.0879 4.94003 22.167 5.4707C22.2443 5.98895 22.2877 6.62755 22.3408 7.39844L22.9971 16.9209C23.0213 17.1106 23.0352 17.3038 23.0352 17.5C23.0352 20.0046 21.0046 22.0352 18.5 22.0352H5.5C2.99539 22.0352 0.964844 20.0046 0.964844 17.5C0.964844 17.3038 0.978747 17.1106 1.00293 16.9209L1.65918 7.39844C1.71234 6.62755 1.75575 5.98895 1.83301 5.4707C1.91214 4.94003 2.03753 4.45233 2.29785 3.99707C2.70196 3.29043 3.31021 2.72271 4.04297 2.36816C4.51514 2.13974 5.01093 2.04828 5.5459 2.00586C6.06818 1.96447 6.70793 1.96484 7.48047 1.96484H16.5195ZM5.5 15.0352C4.25199 15.0352 3.2227 15.9627 3.05957 17.166L3.03516 17.5166C3.04409 18.8703 4.14416 19.9648 5.5 19.9648H18.5C19.8558 19.9648 20.9549 18.8703 20.9639 17.5166L20.9395 17.166C20.7763 15.9628 19.748 15.0352 18.5 15.0352H5.5ZM6.00977 16.4648C6.58138 16.4648 7.04492 16.9284 7.04492 17.5C7.04492 18.0716 6.58138 18.5352 6.00977 18.5352H6C5.42839 18.5352 4.96484 18.0716 4.96484 17.5C4.96484 16.9284 5.42839 16.4648 6 16.4648H6.00977ZM18 16.4648C18.5716 16.4648 19.0352 16.9284 19.0352 17.5C19.0352 18.0716 18.5716 18.5352 18 18.5352H12C11.4284 18.5352 10.9648 18.0716 10.9648 17.5C10.9648 16.9284 11.4284 16.4648 12 16.4648H18ZM7.48047 4.03516C6.67478 4.03516 6.13058 4.0359 5.70898 4.06934C5.30005 4.10177 5.09108 4.16046 4.94434 4.23145C4.58762 4.40408 4.2915 4.68042 4.09473 5.02441C4.0138 5.16593 3.94038 5.37058 3.87988 5.77637C3.81754 6.19463 3.78003 6.73738 3.72461 7.54102L3.31055 13.5273C3.95963 13.1689 4.70604 12.9648 5.5 12.9648H18.5C19.2937 12.9648 20.0396 13.1691 20.6885 13.5273L20.2754 7.54102C20.22 6.73737 20.1825 6.19464 20.1201 5.77637C20.0596 5.37058 19.9862 5.16593 19.9053 5.02441C19.7085 4.68042 19.4124 4.40408 19.0557 4.23145C18.9089 4.16046 18.6999 4.10177 18.291 4.06934C17.8694 4.0359 17.3252 4.03516 16.5195 4.03516H7.48047Z"/></svg>