<svg xmlns="http://www.w3.org/2000/svg" width="24" height="24" fill="none" viewBox="0 0 24 24"><g clip-path="url(#a)"><path fill="currentColor" d="M4.96484 20C4.96484 19.467 4.53295 19.0352 4 19.0352C3.46705 19.0352 3.03516 19.467 3.03516 20C3.03516 20.533 3.46705 20.9648 4 20.9648C4.53295 20.9648 4.96484 20.533 4.96484 20ZM20.9648 20C20.9648 19.467 20.533 19.0352 20 19.0352C19.467 19.0352 19.0352 19.467 19.0352 20C19.0352 20.533 19.467 20.9648 20 20.9648C20.533 20.9648 20.9648 20.533 20.9648 20ZM5.1123 13.0352C5.4941 15.5972 7.27078 17.7027 9.64551 18.5557C8.64263 16.8779 8.0193 14.9938 7.82812 13.0352H5.1123ZM16.1729 13.0352C15.9815 14.9941 15.3568 16.8778 14.3535 18.5557C16.7287 17.7029 18.5059 15.5976 18.8877 13.0352H16.1729ZM9.9082 13.0352C10.1316 14.9638 10.8539 16.7994 12 18.3643C13.1464 16.7993 13.8692 14.9637 14.0928 13.0352H9.9082ZM14.3535 5.44336C15.3571 7.12136 15.9815 9.00559 16.1729 10.9648H18.8877C18.5058 8.40233 16.7288 6.2961 14.3535 5.44336ZM12 5.63477C10.8536 7.19979 10.1317 9.03593 9.9082 10.9648H14.0928C13.8691 9.03605 13.1467 7.19989 12 5.63477ZM9.64551 5.44336C7.27063 6.2963 5.49412 8.40264 5.1123 10.9648H7.82812C8.01933 9.00588 8.64238 7.12131 9.64551 5.44336ZM4.96484 4C4.96484 3.46705 4.53295 3.03516 4 3.03516C3.46705 3.03516 3.03516 3.46705 3.03516 4C3.03516 4.53295 3.46705 4.96484 4 4.96484C4.53295 4.96484 4.96484 4.53295 4.96484 4ZM20.9648 4C20.9648 3.46705 20.533 3.03516 20 3.03516C19.467 3.03516 19.0352 3.46705 19.0352 4C19.0352 4.53295 19.467 4.96484 20 4.96484C20.533 4.96484 20.9648 4.53295 20.9648 4ZM23.0352 4C23.0352 5.67618 21.6762 7.03516 20 7.03516C19.8378 7.03516 19.6787 7.02157 19.5234 6.99707C20.4779 8.42955 21.0352 10.1495 21.0352 12C21.0352 13.8502 20.4776 15.5696 19.5234 17.002C19.6787 16.9775 19.8379 16.9648 20 16.9648C21.6762 16.9648 23.0352 18.3238 23.0352 20C23.0352 21.6762 21.6762 23.0352 20 23.0352C18.3238 23.0352 16.9648 21.6762 16.9648 20C16.9648 19.8379 16.9775 19.6787 17.002 19.5234C15.5696 20.4776 13.8502 21.0352 12 21.0352C10.1495 21.0352 8.42955 20.4779 6.99707 19.5234C7.02157 19.6787 7.03516 19.8378 7.03516 20C7.03516 21.6762 5.67618 23.0352 4 23.0352C2.32382 23.0352 0.964844 21.6762 0.964844 20C0.964844 18.3238 2.32382 16.9648 4 16.9648C4.16179 16.9648 4.32064 16.9776 4.47559 17.002C3.52157 15.5697 2.96484 13.85 2.96484 12C2.96484 10.1497 3.5213 8.42946 4.47559 6.99707C4.3206 7.02147 4.16185 7.03516 4 7.03516C2.32382 7.03516 0.964844 5.67618 0.964844 4C0.964844 2.32382 2.32382 0.964844 4 0.964844C5.67618 0.964844 7.03516 2.32382 7.03516 4C7.03516 4.16185 7.02147 4.3206 6.99707 4.47559C8.42946 3.5213 10.1497 2.96484 12 2.96484C13.85 2.96484 15.5697 3.52157 17.002 4.47559C16.9776 4.32064 16.9648 4.16179 16.9648 4C16.9648 2.32382 18.3238 0.964844 20 0.964844C21.6762 0.964844 23.0352 2.32382 23.0352 4Z"/></g><defs><clipPath id="a"><path fill="#fff" d="M0 0H24V24H0z"/></clipPath></defs></svg>