<svg xmlns="http://www.w3.org/2000/svg" width="24" height="24" fill="none" viewBox="0 0 24 24"><g clip-path="url(#a)"><path fill="currentColor" d="M20.9648 17.2002C20.9648 16.6231 20.9644 16.2523 20.9414 15.9707C20.9194 15.7012 20.8816 15.6052 20.8594 15.5615C20.7669 15.3803 20.6197 15.2331 20.4385 15.1406C20.3948 15.1184 20.2988 15.0806 20.0293 15.0586C19.7477 15.0356 19.3769 15.0352 18.7998 15.0352H5.2002C4.62309 15.0352 4.25228 15.0356 3.9707 15.0586C3.7012 15.0806 3.60521 15.1184 3.56152 15.1406C3.38033 15.2331 3.23308 15.3803 3.14062 15.5615C3.11837 15.6052 3.08061 15.7012 3.05859 15.9707C3.03559 16.2523 3.03516 16.6231 3.03516 17.2002V18.7998C3.03516 19.3769 3.03559 19.7477 3.05859 20.0293C3.08061 20.2988 3.11837 20.3948 3.14062 20.4385C3.23308 20.6197 3.38032 20.7669 3.56152 20.8594C3.60521 20.8816 3.7012 20.9194 3.9707 20.9414C4.25228 20.9644 4.62309 20.9648 5.2002 20.9648H18.7998C19.3769 20.9648 19.7477 20.9644 20.0293 20.9414C20.2988 20.9194 20.3948 20.8816 20.4385 20.8594C20.6197 20.7669 20.7669 20.6197 20.8594 20.4385C20.8816 20.3948 20.9194 20.2988 20.9414 20.0293C20.9644 19.7477 20.9648 19.3769 20.9648 18.7998V17.2002ZM6.00977 16.9648C6.58138 16.9648 7.04492 17.4284 7.04492 18C7.04492 18.5716 6.58138 19.0352 6.00977 19.0352H6C5.42839 19.0352 4.96484 18.5716 4.96484 18C4.96484 17.4284 5.42839 16.9648 6 16.9648H6.00977ZM20.9648 5.2002C20.9648 4.62309 20.9644 4.25228 20.9414 3.9707C20.9194 3.7012 20.8816 3.60521 20.8594 3.56152C20.7669 3.38032 20.6197 3.23308 20.4385 3.14062C20.3948 3.11837 20.2988 3.08061 20.0293 3.05859C19.7477 3.03559 19.3769 3.03516 18.7998 3.03516H5.2002C4.62309 3.03516 4.25228 3.03559 3.9707 3.05859C3.7012 3.08061 3.60521 3.11837 3.56152 3.14062C3.38033 3.23308 3.23308 3.38033 3.14062 3.56152C3.11837 3.60521 3.08061 3.7012 3.05859 3.9707C3.03559 4.25228 3.03516 4.62309 3.03516 5.2002V6.7998C3.03516 7.37691 3.03559 7.74772 3.05859 8.0293C3.08061 8.2988 3.11837 8.39479 3.14062 8.43848C3.23308 8.61967 3.38033 8.76692 3.56152 8.85938C3.60521 8.88163 3.7012 8.91939 3.9707 8.94141C4.25228 8.96441 4.62309 8.96484 5.2002 8.96484H18.7998C19.3769 8.96484 19.7477 8.96441 20.0293 8.94141C20.2988 8.91939 20.3948 8.88163 20.4385 8.85938C20.6197 8.76692 20.7669 8.61967 20.8594 8.43848C20.8816 8.39479 20.9194 8.2988 20.9414 8.0293C20.9644 7.74772 20.9648 7.37691 20.9648 6.7998V5.2002ZM6.00977 4.96484C6.58138 4.96484 7.04492 5.42839 7.04492 6C7.04492 6.57161 6.58138 7.03516 6.00977 7.03516H6C5.42839 7.03516 4.96484 6.57161 4.96484 6C4.96484 5.42839 5.42839 4.96484 6 4.96484H6.00977ZM23.0352 18.7998C23.0352 19.3428 23.0354 19.8128 23.0039 20.1982C22.9714 20.5956 22.8998 20.9939 22.7041 21.3779C22.4131 21.9489 21.9489 22.4131 21.3779 22.7041C20.9939 22.8998 20.5956 22.9714 20.1982 23.0039C19.8128 23.0354 19.3428 23.0352 18.7998 23.0352H5.2002C4.65722 23.0352 4.18718 23.0354 3.80176 23.0039C3.40438 22.9714 3.00608 22.8998 2.62207 22.7041C2.05107 22.4131 1.58686 21.9489 1.2959 21.3779C1.10024 20.9939 1.02859 20.5956 0.996094 20.1982C0.964603 19.8128 0.964844 19.3428 0.964844 18.7998V17.2002C0.964844 16.6572 0.964603 16.1872 0.996094 15.8018C1.02859 15.4044 1.10024 15.0061 1.2959 14.6221C1.58686 14.0511 2.05107 13.5869 2.62207 13.2959C3.00608 13.1002 3.40438 13.0286 3.80176 12.9961C4.18718 12.9646 4.65722 12.9648 5.2002 12.9648H18.7998C19.3428 12.9648 19.8128 12.9646 20.1982 12.9961C20.5956 13.0286 20.9939 13.1002 21.3779 13.2959C21.9489 13.5869 22.4131 14.0511 22.7041 14.6221C22.8998 15.0061 22.9714 15.4044 23.0039 15.8018C23.0354 16.1872 23.0352 16.6572 23.0352 17.2002V18.7998ZM23.0352 6.7998C23.0352 7.34278 23.0354 7.81282 23.0039 8.19824C22.9714 8.59562 22.8998 8.99392 22.7041 9.37793C22.4131 9.94893 21.9489 10.4131 21.3779 10.7041C20.9939 10.8998 20.5956 10.9714 20.1982 11.0039C19.8128 11.0354 19.3428 11.0352 18.7998 11.0352H5.2002C4.65722 11.0352 4.18718 11.0354 3.80176 11.0039C3.40438 10.9714 3.00608 10.8998 2.62207 10.7041C2.05107 10.4131 1.58686 9.94893 1.2959 9.37793C1.10024 8.99392 1.02859 8.59562 0.996094 8.19824C0.964603 7.81282 0.964844 7.34278 0.964844 6.7998V5.2002C0.964844 4.65722 0.964603 4.18718 0.996094 3.80176C1.02859 3.40438 1.10024 3.00608 1.2959 2.62207C1.58686 2.05107 2.05107 1.58686 2.62207 1.2959C3.00608 1.10024 3.40438 1.02859 3.80176 0.996094C4.18718 0.964603 4.65722 0.964844 5.2002 0.964844H18.7998C19.3428 0.964844 19.8128 0.964603 20.1982 0.996094C20.5956 1.02859 20.9939 1.10024 21.3779 1.2959C21.9489 1.58686 22.4131 2.05107 22.7041 2.62207C22.8998 3.00608 22.9714 3.40438 23.0039 3.80176C23.0354 4.18718 23.0352 4.65722 23.0352 5.2002V6.7998Z"/></g><defs><clipPath id="a"><path fill="#fff" d="M0 0H24V24H0z"/></clipPath></defs></svg>