<svg xmlns="http://www.w3.org/2000/svg" width="24" height="24" fill="none" viewBox="0 0 24 24"><g clip-path="url(#a)"><path fill="currentColor" d="M12.7832 3.81836C12.7832 3.61069 12.7005 3.41152 12.5537 3.26465C12.4068 3.11777 12.2077 3.03516 12 3.03516C11.7923 3.03516 11.5932 3.11777 11.4463 3.26465C11.2995 3.41152 11.2168 3.61069 11.2168 3.81836V3.97656C11.2148 4.47094 11.0679 4.95402 10.7949 5.36621C10.522 5.77834 10.135 6.10212 9.68066 6.29688C9.59792 6.33234 9.51053 6.35425 9.42188 6.36719C9.0117 6.50897 8.57093 6.54562 8.1416 6.46777C7.64337 6.37735 7.18328 6.13925 6.82129 5.78516L6.75879 5.72266C6.68618 5.64997 6.59976 5.59214 6.50488 5.55273C6.40981 5.51332 6.30702 5.49219 6.2041 5.49219C6.10133 5.49225 5.99924 5.51338 5.9043 5.55273C5.80939 5.59214 5.72302 5.64995 5.65039 5.72266L5.64941 5.72363C5.57676 5.7963 5.51884 5.88261 5.47949 5.97754C5.44013 6.07256 5.41992 6.17449 5.41992 6.27734C5.41993 6.38021 5.44011 6.48212 5.47949 6.57715C5.51886 6.67211 5.57672 6.75837 5.64941 6.83105L5.65039 6.83203L5.7041 6.88672L5.71289 6.89453C6.06698 7.25659 6.30418 7.71654 6.39453 8.21484C6.48097 8.69155 6.42682 9.18158 6.24316 9.62891L6.24414 9.62988C6.06861 10.1072 5.75341 10.5205 5.33984 10.8164C4.92611 11.1123 4.43235 11.2772 3.92383 11.2891H3.81836C3.6108 11.2891 3.41149 11.3719 3.26465 11.5186C3.11788 11.6653 3.03528 11.8647 3.03516 12.0723C3.03516 12.28 3.11777 12.4801 3.26465 12.627C3.41149 12.7736 3.61081 12.8555 3.81836 12.8555H3.97656C4.47088 12.8574 4.95406 13.0044 5.36621 13.2773C5.7784 13.5503 6.10212 13.9382 6.29688 14.3926H6.2959C6.49686 14.8533 6.55748 15.3636 6.46777 15.8584C6.37735 16.3566 6.13925 16.8167 5.78516 17.1787L5.72266 17.2412C5.64997 17.3138 5.59214 17.4002 5.55273 17.4951C5.51332 17.5902 5.49219 17.693 5.49219 17.7959C5.49225 17.8987 5.51338 18.0008 5.55273 18.0957C5.58234 18.167 5.62203 18.2335 5.6709 18.293L5.72266 18.3496L5.72363 18.3506C5.7963 18.4232 5.88261 18.4812 5.97754 18.5205C6.07256 18.5599 6.17449 18.5801 6.27734 18.5801C6.38022 18.5801 6.48212 18.5599 6.57715 18.5205C6.67211 18.4811 6.75838 18.4233 6.83105 18.3506L6.83203 18.3496L6.88672 18.2959L6.89453 18.2871C7.25659 17.933 7.71654 17.6958 8.21484 17.6055C8.71316 17.5151 9.22709 17.5758 9.69043 17.7803H9.68945C10.1414 17.9596 10.533 18.264 10.8164 18.6602C11.1123 19.0739 11.2772 19.5676 11.2891 20.0762V20.1816C11.2891 20.3892 11.3719 20.5885 11.5186 20.7354C11.6653 20.8821 11.8647 20.9647 12.0723 20.9648C12.28 20.9648 12.4801 20.8822 12.627 20.7354C12.7736 20.5885 12.8555 20.3892 12.8555 20.1816V20.0234C12.8574 19.5291 13.0044 19.0459 13.2773 18.6338C13.5163 18.273 13.8431 17.9802 14.2256 17.7822L14.3926 17.7031C14.8532 17.5023 15.3638 17.4425 15.8584 17.5322C16.2942 17.6113 16.7008 17.8031 17.0381 18.0869L17.1787 18.2148L17.2412 18.2773C17.3138 18.35 17.4002 18.4079 17.4951 18.4473C17.5902 18.4867 17.693 18.5078 17.7959 18.5078C17.8987 18.5078 18.0008 18.4866 18.0957 18.4473C18.1906 18.4079 18.277 18.3501 18.3496 18.2773L18.3506 18.2764C18.4232 18.2037 18.4812 18.1174 18.5205 18.0225C18.5599 17.9274 18.5801 17.8255 18.5801 17.7227C18.5801 17.6198 18.5599 17.5179 18.5205 17.4229C18.4811 17.3279 18.4233 17.2416 18.3506 17.1689L18.3496 17.168L18.2959 17.1133L18.2871 17.1055C17.933 16.7434 17.6958 16.2835 17.6055 15.7852C17.5264 15.3491 17.5625 14.901 17.71 14.4854L17.7803 14.3096C17.9754 13.8596 18.2971 13.476 18.7061 13.2051C19.1182 12.9321 19.6014 12.7852 20.0957 12.7832H20.1816C20.3893 12.7832 20.5885 12.7005 20.7354 12.5537C20.8822 12.4068 20.9648 12.2077 20.9648 12C20.9648 11.7923 20.8822 11.5932 20.7354 11.4463C20.5885 11.2995 20.3893 11.2168 20.1816 11.2168H20.0234C19.5291 11.2148 19.046 11.0679 18.6338 10.7949C18.2217 10.522 17.8979 10.135 17.7031 9.68066C17.6676 9.59788 17.6448 9.51058 17.6318 9.42188C17.4901 9.01178 17.4544 8.57082 17.5322 8.1416C17.6227 7.64337 17.8608 7.18328 18.2148 6.82129L18.2773 6.75879L18.3291 6.70117C18.3778 6.64191 18.4177 6.57595 18.4473 6.50488C18.4867 6.40981 18.5078 6.30703 18.5078 6.2041C18.5078 6.10133 18.4866 5.99924 18.4473 5.9043C18.4079 5.80939 18.3501 5.72302 18.2773 5.65039L18.2764 5.64941C18.2037 5.57675 18.1174 5.51884 18.0225 5.47949C17.9274 5.44013 17.8255 5.41992 17.7227 5.41992C17.6198 5.41993 17.5179 5.44011 17.4229 5.47949C17.3279 5.51886 17.2416 5.57672 17.1689 5.64941L17.168 5.65039L17.1133 5.7041L17.1055 5.71289C16.7434 6.06698 16.2835 6.30418 15.7852 6.39453C15.2868 6.48489 14.7729 6.42417 14.3096 6.21973V6.21875C13.8598 6.0236 13.476 5.70283 13.2051 5.29395C12.9321 4.8818 12.7852 4.39862 12.7832 3.9043V3.81836ZM13.9648 12C13.9648 10.9148 13.0852 10.0352 12 10.0352C10.9148 10.0352 10.0352 10.9148 10.0352 12C10.0352 13.0852 10.9148 13.9648 12 13.9648C13.0852 13.9648 13.9648 13.0852 13.9648 12ZM16.0352 12C16.0352 14.2285 14.2285 16.0352 12 16.0352C9.77153 16.0352 7.96484 14.2285 7.96484 12C7.96484 9.77153 9.77153 7.96484 12 7.96484C14.2285 7.96484 16.0352 9.77153 16.0352 12ZM14.8535 3.89551L14.8584 3.96289C14.8684 4.02969 14.8931 4.09361 14.9307 4.15039C14.9807 4.22593 15.0515 4.28555 15.1348 4.32129L15.1455 4.32617C15.2304 4.36354 15.3247 4.37495 15.416 4.3584C15.4847 4.34594 15.5494 4.3179 15.6055 4.27734L15.6582 4.23242L15.7041 4.18652L15.9121 3.99805C16.1285 3.82035 16.3703 3.67502 16.6299 3.56738C16.9762 3.42381 17.3477 3.34962 17.7227 3.34961C18.0976 3.34961 18.4691 3.4238 18.8154 3.56738C19.1613 3.71076 19.4755 3.92083 19.7402 4.18555C20.0055 4.45053 20.2158 4.76593 20.3594 5.1123C20.5029 5.4585 20.5771 5.82935 20.5771 6.2041C20.5771 6.57903 20.5029 6.95052 20.3594 7.29688C20.2159 7.64299 20.0062 7.9578 19.7412 8.22266L19.6943 8.26953L19.6494 8.32227C19.6091 8.37825 19.5818 8.44325 19.5693 8.51172C19.5528 8.60304 19.5641 8.69732 19.6016 8.78223C19.6262 8.838 19.6438 8.89617 19.6582 8.95508C19.6906 8.99954 19.7301 9.03863 19.7764 9.06934C19.8519 9.11938 19.9406 9.14609 20.0312 9.14648H20.1816C20.9383 9.14648 21.6642 9.4474 22.1992 9.98242C22.7343 10.5175 23.0352 11.2433 23.0352 12C23.0352 12.7567 22.7343 13.4825 22.1992 14.0176C21.6642 14.5526 20.9383 14.8535 20.1816 14.8535H20.1045L20.0371 14.8584C19.9703 14.8684 19.9064 14.8931 19.8496 14.9307C19.7741 14.9807 19.7144 15.0515 19.6787 15.1348L19.6738 15.1455C19.6365 15.2304 19.6251 15.3247 19.6416 15.416C19.6582 15.5074 19.7026 15.5918 19.7676 15.6582H19.7666L19.8135 15.7041L20.002 15.9121C20.1797 16.1285 20.325 16.3703 20.4326 16.6299C20.5762 16.9762 20.6504 17.3477 20.6504 17.7227C20.6504 18.0976 20.5762 18.4691 20.4326 18.8154C20.2892 19.1613 20.0782 19.4745 19.8135 19.7393L19.8145 19.7402C19.5495 20.0055 19.2341 20.2158 18.8877 20.3594C18.5415 20.5029 18.1706 20.5771 17.7959 20.5771C17.421 20.5771 17.0495 20.5029 16.7031 20.3594C16.357 20.2159 16.0422 20.0062 15.7773 19.7412L15.7305 19.6943C15.6641 19.6295 15.5796 19.5859 15.4883 19.5693C15.397 19.5528 15.3027 19.5641 15.2178 19.6016L15.208 19.6055C15.1247 19.6412 15.053 19.7008 15.0029 19.7764C14.9529 19.8519 14.9262 19.9406 14.9258 20.0312V20.1816C14.9258 20.9384 14.6249 21.6641 14.0898 22.1992C13.5548 22.7342 12.8289 23.0352 12.0723 23.0352C11.3158 23.035 10.5906 22.7341 10.0557 22.1992C9.52059 21.6641 9.21973 20.9384 9.21973 20.1816V20.124C9.21751 20.0308 9.18706 19.9401 9.13281 19.8643C9.07855 19.7885 9.00247 19.7304 8.91504 19.6982C8.89475 19.6908 8.87428 19.6826 8.85449 19.6738C8.7696 19.6365 8.67526 19.6251 8.58398 19.6416C8.49259 19.6582 8.4082 19.7026 8.3418 19.7676L8.34082 19.7666L8.2959 19.8135C8.03098 20.0787 7.71636 20.2891 7.37012 20.4326C7.02377 20.5762 6.65227 20.6504 6.27734 20.6504C5.90239 20.6504 5.53094 20.5762 5.18457 20.4326C4.83831 20.2891 4.52372 20.0787 4.25879 19.8135V19.8125C3.99404 19.5478 3.78401 19.2336 3.64062 18.8877C3.49713 18.5415 3.42291 18.1706 3.42285 17.7959C3.42285 17.421 3.49706 17.0495 3.64062 16.7031C3.78421 16.3568 3.99449 16.0414 4.25977 15.7764L4.30566 15.7305C4.37051 15.6641 4.41411 15.5796 4.43066 15.4883C4.44716 15.397 4.43591 15.3027 4.39844 15.2178L4.39453 15.208C4.35881 15.1247 4.29924 15.053 4.22363 15.0029C4.16694 14.9654 4.10284 14.9407 4.03613 14.9307L3.96875 14.9258H3.81836C3.06165 14.9258 2.33586 14.6249 1.80078 14.0898C1.26579 13.5548 0.964844 12.8289 0.964844 12.0723C0.964966 11.3158 1.26592 10.5906 1.80078 10.0557C2.33586 9.52059 3.06165 9.21973 3.81836 9.21973H3.87598C3.96919 9.21751 4.0599 9.18706 4.13574 9.13281C4.21145 9.07855 4.2696 9.00247 4.30176 8.91504L4.32617 8.85449C4.36354 8.7696 4.37495 8.67526 4.3584 8.58398C4.34181 8.49259 4.29738 8.4082 4.23242 8.3418V8.34082L4.18652 8.2959C3.92134 8.03099 3.71095 7.71636 3.56738 7.37012C3.42381 7.02377 3.34962 6.65227 3.34961 6.27734C3.34961 5.90239 3.4238 5.53094 3.56738 5.18457C3.71093 4.83831 3.92135 4.52372 4.18652 4.25879C4.45137 3.99381 4.76621 3.78409 5.1123 3.64062C5.4585 3.49713 5.82935 3.42291 6.2041 3.42285C6.57903 3.42285 6.95052 3.49706 7.29688 3.64062C7.64299 3.7841 7.9578 3.99379 8.22266 4.25879L8.26953 4.30566L8.32227 4.35059C8.37825 4.39094 8.44325 4.41825 8.51172 4.43066C8.60304 4.44716 8.69732 4.43591 8.78223 4.39844L8.88281 4.36035C8.9066 4.35269 8.93083 4.34673 8.95508 4.34082C8.99935 4.30848 9.03874 4.26978 9.06934 4.22363C9.11866 4.14915 9.14535 4.06192 9.14648 3.97266V3.81836C9.14648 3.06169 9.4474 2.33585 9.98242 1.80078C10.5175 1.26571 11.2433 0.964844 12 0.964844C12.7567 0.964844 13.4825 1.26571 14.0176 1.80078C14.5526 2.33585 14.8535 3.06169 14.8535 3.81836V3.89551Z"/></g><defs><clipPath id="a"><path fill="#fff" d="M0 0H24V24H0z"/></clipPath></defs></svg>