<svg xmlns="http://www.w3.org/2000/svg" width="24" height="24" fill="none" viewBox="0 0 24 24"><path fill="currentColor" d="M6 11.9648C7.87057 11.9648 9.4433 13.238 9.90039 14.9648H21C21.5716 14.9648 22.0352 15.4284 22.0352 16C22.0352 16.5716 21.5716 17.0352 21 17.0352H9.90039C9.4433 18.762 7.87057 20.0352 6 20.0352C3.77153 20.0352 1.96484 18.2285 1.96484 16C1.96484 13.7715 3.77153 11.9648 6 11.9648ZM19.9648 8C19.9648 6.91476 19.0852 6.03516 18 6.03516C16.9148 6.03516 16.0352 6.91476 16.0352 8C16.0352 9.08524 16.9148 9.96484 18 9.96484C19.0852 9.96484 19.9648 9.08524 19.9648 8ZM4.03516 16C4.03516 17.0852 4.91476 17.9648 6 17.9648C7.08524 17.9648 7.96484 17.0852 7.96484 16C7.96484 14.9148 7.08524 14.0352 6 14.0352C4.91476 14.0352 4.03516 14.9148 4.03516 16ZM22.0352 8C22.0352 10.2285 20.2285 12.0352 18 12.0352C16.1294 12.0352 14.5567 10.762 14.0996 9.03516H3C2.42839 9.03516 1.96484 8.57161 1.96484 8C1.96484 7.42839 2.42839 6.96484 3 6.96484H14.0996C14.5567 5.23801 16.1294 3.96484 18 3.96484C20.2285 3.96484 22.0352 5.77153 22.0352 8Z"/></svg>