<svg xmlns="http://www.w3.org/2000/svg" width="24" height="24" fill="none" viewBox="0 0 24 24"><path fill="currentColor" d="M12.002 0.964844C12.6302 0.964821 13.2449 1.14701 13.7716 1.48926C14.2976 1.83118 14.7137 2.31847 14.9688 2.8916L15.5577 4.20605L15.5597 4.20996V4.21094C15.6779 4.47825 15.8776 4.70118 16.13 4.84863C16.3853 4.99589 16.6806 5.05888 16.9737 5.02832L18.4034 4.87598H18.4044C19.0289 4.80999 19.6592 4.92697 20.2188 5.21191C20.7787 5.49704 21.2447 5.93824 21.5587 6.48242H21.5577C21.8721 7.02636 22.0224 7.64997 21.9894 8.27734C21.9563 8.90457 21.7418 9.50875 21.3722 10.0166L20.5255 11.1797C20.3522 11.418 20.2588 11.7054 20.2589 12V12.0049C20.2574 12.299 20.3491 12.5863 20.5206 12.8252L21.3673 13.9883C21.7371 14.4963 21.9515 15.1011 21.9845 15.7285C22.0175 16.3559 21.8682 16.9795 21.5538 17.5234L21.5528 17.5225C21.2389 18.0666 20.7747 18.5088 20.2149 18.7939C19.6551 19.0791 19.0243 19.195 18.3995 19.1289H18.3985L16.9708 18.9766V18.9775C16.6775 18.9467 16.3816 19.009 16.1261 19.1562L16.1251 19.1553C15.8723 19.302 15.6729 19.526 15.5538 19.793L14.9698 21.1064C14.7148 21.6804 14.2982 22.1684 13.7716 22.5107C13.2449 22.853 12.6302 23.0352 12.002 23.0352C11.3736 23.0353 10.7584 22.8532 10.2315 22.5107C9.70466 22.1683 9.28832 21.6798 9.0333 21.1055L8.44932 19.792V19.791C8.32993 19.5221 8.12799 19.2975 7.87314 19.1504C7.61787 19.0033 7.32242 18.9401 7.02939 18.9707L5.60068 19.124H5.59873C4.97422 19.1896 4.34383 19.0731 3.78428 18.7881C3.22466 18.5031 2.7596 18.0614 2.44541 17.5176C2.13114 16.9737 1.98174 16.35 2.01474 15.7227C2.04781 15.0953 2.26225 14.4913 2.63193 13.9834L3.47764 12.8203L3.53916 12.7285C3.65393 12.5412 3.72301 12.3294 3.74033 12.1104L3.74424 12C3.74429 11.7054 3.65091 11.418 3.47764 11.1797L2.63193 10.0166C2.26225 9.50871 2.04781 8.90466 2.01474 8.27734C1.98174 7.65005 2.13114 7.02631 2.44541 6.48242L2.57041 6.2832C2.87741 5.83043 3.29455 5.46133 3.78428 5.21191C4.34415 4.92677 4.97489 4.80989 5.59971 4.87598L7.03428 5.02832H7.0333C7.32674 5.05913 7.62244 4.99606 7.87803 4.84863C8.13037 4.70119 8.33007 4.47825 8.44834 4.21094L8.44932 4.20801L9.0333 2.89453L9.13682 2.68359C9.39453 2.20063 9.77043 1.78898 10.2315 1.48926C10.7584 1.14679 11.3736 0.964741 12.002 0.964844ZM13.9649 12C13.9649 10.9148 13.0853 10.0352 12.0001 10.0352C10.9149 10.0352 10.0353 10.9148 10.0353 12C10.0353 13.0852 10.9149 13.9648 12.0001 13.9648C13.0853 13.9648 13.9649 13.0852 13.9649 12ZM5.80381 12.2734C5.75362 12.9084 5.52901 13.5191 5.15244 14.0371V14.0381L4.30576 15.2012H4.30478C4.17086 15.3852 4.09408 15.6047 4.08213 15.832C4.07023 16.0593 4.12353 16.2854 4.2374 16.4824H4.23838C4.35241 16.6796 4.52075 16.84 4.72373 16.9434C4.92639 17.0466 5.15477 17.0889 5.38096 17.0654L6.81162 16.9131H6.8126C7.4496 16.8462 8.09099 16.9566 8.66611 17.2305L8.9083 17.3574V17.3584C9.54207 17.7243 10.0438 18.2814 10.3409 18.9502L10.9249 20.2646L10.9259 20.2656C11.0183 20.4736 11.1687 20.6503 11.3595 20.7744C11.5505 20.8986 11.7742 20.9649 12.002 20.9648C12.2298 20.9649 12.4527 20.8986 12.6437 20.7744C12.8346 20.6503 12.9858 20.4738 13.0782 20.2656V20.2646L13.6632 18.9502V18.9492C13.96 18.2839 14.4594 17.7293 15.0899 17.3643L15.0909 17.3633C15.6455 17.0434 16.2766 16.8841 16.9132 16.9004L17.1866 16.918L17.1876 16.9189L18.6163 17.0703H18.6173C18.8438 17.0943 19.0725 17.0526 19.2755 16.9492C19.4785 16.8458 19.647 16.6856 19.7608 16.4883V16.4873C19.8748 16.2902 19.929 16.0642 19.9171 15.8369C19.9051 15.6097 19.8274 15.391 19.6935 15.207L18.8468 14.0439L18.8448 14.041C18.4149 13.4459 18.185 12.7292 18.1886 11.9951C18.1895 11.2648 18.4221 10.5537 18.8517 9.96289V9.96191L19.6983 8.79883L19.7882 8.6543C19.8671 8.50445 19.913 8.3384 19.922 8.16797C19.9309 7.99763 19.9026 7.8281 19.8399 7.6709L19.7657 7.51758C19.652 7.32042 19.4831 7.16002 19.2804 7.05664C19.1283 6.97918 18.9613 6.93539 18.7921 6.92871L18.6222 6.93457L17.1925 7.08691H17.1915C16.4637 7.16335 15.7297 7.00817 15.0958 6.64258L15.0929 6.64062C14.4624 6.27433 13.9637 5.71818 13.6681 5.05176L13.0792 3.7373L13.0782 3.73438C12.9858 3.52622 12.8346 3.34973 12.6437 3.22559C12.4527 3.10144 12.2298 3.03513 12.002 3.03516C11.7742 3.03512 11.5505 3.10143 11.3595 3.22559C11.1687 3.34969 11.0183 3.52642 10.9259 3.73438L10.9249 3.73535L10.3409 5.0498C10.0454 5.71711 9.54623 6.27397 8.91514 6.64062L8.91221 6.64258C8.27842 7.00809 7.54512 7.16324 6.81748 7.08691H6.81553L5.38193 6.93457C5.15542 6.91061 4.9267 6.95326 4.72373 7.05664C4.52078 7.16002 4.3522 7.3203 4.23838 7.51758H4.2374C4.12353 7.71458 4.07023 7.94074 4.08213 8.16797C4.09408 8.39525 4.17086 8.6148 4.30478 8.79883H4.30576L5.15244 9.96191V9.96289C5.58282 10.5549 5.81464 11.268 5.81455 12L5.80381 12.2734ZM16.0353 12C16.0353 14.2284 14.2285 16.0351 12.0001 16.0352C9.77163 16.0352 7.96494 14.2285 7.96494 12C7.96494 9.77153 9.77163 7.96484 12.0001 7.96484C14.2285 7.96489 16.0353 9.77156 16.0353 12Z"/></svg>