<svg width="24" height="24" viewBox="0 0 24 24" fill="none" xmlns="http://www.w3.org/2000/svg">
<path d="M17.7689 13.4213C18.2959 13.4214 18.7237 13.8485 18.724 14.3754V16.8051H21.0892C21.6163 16.8053 22.0433 17.2331 22.0433 17.7602C22.043 18.2541 21.6679 18.6604 21.1869 18.7094L21.0892 18.7143H18.724V21.144L18.7191 21.2416C18.6699 21.7228 18.263 22.099 17.7689 22.0991L17.6713 22.0942C17.2223 22.0484 16.8655 21.6906 16.8197 21.2416L16.8148 21.144V18.7143H14.3217L14.224 18.7094C13.7428 18.6606 13.3669 18.2542 13.3666 17.7602C13.3666 17.233 13.7944 16.8051 14.3217 16.8051H16.8148V14.3754C16.8151 13.8485 17.242 13.4214 17.7689 13.4213ZM7.11853 13.4301C9.18151 13.4302 10.8538 15.1025 10.8539 17.1655V18.3539L10.849 18.5453C10.7524 20.4556 9.22106 21.9875 7.31091 22.0844L7.11853 22.0893H5.9115L5.71912 22.0844C3.80906 21.9874 2.27766 20.4555 2.18103 18.5453L2.17615 18.3539V17.1655C2.17628 15.1025 3.84858 13.4302 5.9115 13.4301H7.11853ZM5.9115 15.6459C5.07235 15.6461 4.3921 16.3263 4.39197 17.1655V18.3539C4.3922 19.193 5.07241 19.8733 5.9115 19.8735H7.11853C7.95767 19.8734 8.63783 19.193 8.63806 18.3539V17.1655C8.63793 16.3263 7.95774 15.646 7.11853 15.6459H5.9115ZM4.94177 2.65765C5.80707 1.79236 7.21021 1.79244 8.07556 2.65765L10.4056 4.98773C11.2707 5.85303 11.2708 7.25526 10.4056 8.12054L8.08728 10.4389C7.27607 11.25 5.9927 11.3009 5.12244 10.5912L4.95447 10.4389L2.62439 8.10883C1.8133 7.29761 1.76236 6.01426 2.47205 5.14398L2.62439 4.97504L4.94177 2.65765ZM17.9281 2.21527C20.2204 2.33136 22.0431 4.22719 22.0433 6.54828L22.0375 6.77094C21.9214 9.06324 20.0265 10.886 17.7054 10.8862L17.4818 10.8803C15.2634 10.7678 13.4848 8.98942 13.3724 6.77094L13.3666 6.54828C13.3668 4.15238 15.3095 2.20941 17.7054 2.20941L17.9281 2.21527ZM4.1908 6.54242L6.52087 8.8725L8.83923 6.55414L6.50916 4.22406L4.1908 6.54242ZM17.7054 4.42523C16.5333 4.42523 15.5826 5.37616 15.5824 6.54828C15.5826 7.72043 16.5332 8.67035 17.7054 8.67035C18.8775 8.67013 19.8273 7.72029 19.8275 6.54828C19.8273 5.37629 18.8774 4.42546 17.7054 4.42523Z" fill="#111418"/>
</svg>
