<svg xmlns="http://www.w3.org/2000/svg" width="24" height="24" fill="none" viewBox="0 0 24 24"><path fill="currentColor" d="M19.9648 19C19.9648 17.9148 19.0852 17.0352 18 17.0352C17.3202 17.0352 16.72 17.3796 16.3672 17.9043C16.3514 17.9402 16.3346 17.9761 16.3145 18.0107C16.2954 18.0435 16.2739 18.0747 16.252 18.1045C16.114 18.3732 16.0352 18.6772 16.0352 19C16.0352 20.0852 16.9148 20.9648 18 20.9648C19.0852 20.9648 19.9648 20.0852 19.9648 19ZM7.96484 12C7.96484 10.9148 7.08524 10.0352 6 10.0352C4.91476 10.0352 4.03516 10.9148 4.03516 12C4.03516 13.0852 4.91476 13.9648 6 13.9648C7.08524 13.9648 7.96484 13.0852 7.96484 12ZM19.9648 5C19.9648 3.91476 19.0852 3.03516 18 3.03516C16.9148 3.03516 16.0352 3.91476 16.0352 5C16.0352 6.08524 16.9148 6.96484 18 6.96484C19.0852 6.96484 19.9648 6.08524 19.9648 5ZM22.0352 5C22.0352 7.22847 20.2285 9.03516 18 9.03516C16.8882 9.03516 15.8812 8.58572 15.1514 7.8584L9.88965 10.9287C9.98343 11.27 10.0352 11.6289 10.0352 12C10.0352 12.3703 9.98404 12.7287 9.89062 13.0693L15.1553 16.1377C15.8848 15.4127 16.8902 14.9648 18 14.9648C20.2285 14.9648 22.0352 16.7715 22.0352 19C22.0352 21.2285 20.2285 23.0352 18 23.0352C15.7715 23.0352 13.9648 21.2285 13.9648 19C13.9648 18.6273 14.0158 18.2665 14.1104 17.9238L8.84766 14.8574C8.11785 15.5847 7.11175 16.0352 6 16.0352C3.77153 16.0352 1.96484 14.2285 1.96484 12C1.96484 9.77153 3.77153 7.96484 6 7.96484C7.11125 7.96484 8.11793 8.41387 8.84766 9.14062L14.1094 6.07031C14.0158 5.72939 13.9648 5.37064 13.9648 5C13.9648 2.77153 15.7715 0.964844 18 0.964844C20.2285 0.964844 22.0352 2.77153 22.0352 5Z"/></svg>