<svg xmlns="http://www.w3.org/2000/svg" width="24" height="24" fill="none" viewBox="0 0 24 24"><path fill="currentColor" d="M1.96482 16.2003V15.0001C1.96482 14.137 1.95623 13.5024 2.10251 12.9562C2.47562 11.5637 3.56358 10.4758 4.95603 10.1026C5.50224 9.95637 6.13682 9.96495 6.99997 9.96495C7.57159 9.96495 8.03513 10.4285 8.03513 11.0001C8.03513 11.5717 7.57159 12.0353 6.99997 12.0353C6.00337 12.0353 5.70789 12.0436 5.49118 12.1017C4.81316 12.2834 4.28325 12.8133 4.10154 13.4913C4.04347 13.708 4.03513 14.0035 4.03513 15.0001V16.2003C4.03513 17.0572 4.03563 17.6378 4.07224 18.086C4.10788 18.5223 4.17224 18.742 4.249 18.8927C4.43734 19.2622 4.73791 19.5627 5.10739 19.7511C5.25804 19.8278 5.47778 19.8922 5.91404 19.9278C6.36231 19.9645 6.94285 19.965 7.79978 19.965H16.2002C17.0571 19.965 17.6376 19.9645 18.0859 19.9278C18.5222 19.8922 18.7419 19.8278 18.8926 19.7511C19.262 19.5627 19.5626 19.2622 19.7509 18.8927C19.8277 18.742 19.8921 18.5223 19.9277 18.086C19.9643 17.6378 19.9648 17.0572 19.9648 16.2003V15.0001C19.9648 14.0035 19.9565 13.708 19.8984 13.4913C19.7167 12.8133 19.1868 12.2834 18.5088 12.1017C18.2921 12.0436 17.9966 12.0353 17 12.0353C16.4284 12.0353 15.9648 11.5717 15.9648 11.0001C15.9648 10.4285 16.4284 9.96495 17 9.96495C17.8631 9.96495 18.4977 9.95637 19.0439 10.1026C20.4364 10.4758 21.5243 11.5637 21.8974 12.9562C22.0437 13.5024 22.0351 14.137 22.0351 15.0001V16.2003C22.0351 17.0232 22.0353 17.7029 21.9902 18.255C21.9441 18.8192 21.8449 19.3411 21.5947 19.8321C21.2079 20.5911 20.591 21.208 19.832 21.5948C19.341 21.845 18.819 21.9442 18.2549 21.9903C17.7027 22.0355 17.0231 22.0353 16.2002 22.0353H7.79978C6.97686 22.0353 6.29723 22.0355 5.74509 21.9903C5.18092 21.9442 4.65896 21.845 4.16794 21.5948C3.40897 21.208 2.79205 20.5911 2.40525 19.8321C2.15506 19.3411 2.05585 18.8192 2.00974 18.255C1.96463 17.7029 1.96482 17.0232 1.96482 16.2003ZM10.9648 15.0001V5.49816L8.73142 7.73156C8.32723 8.13575 7.67272 8.13575 7.26853 7.73156C6.86433 7.32736 6.86433 6.67286 7.26853 6.26866L11.2685 2.26866L11.3467 2.19738C11.7532 1.8657 12.3524 1.8897 12.7314 2.26866L16.7314 6.26866C17.1356 6.67286 17.1356 7.32736 16.7314 7.73156C16.3272 8.13575 15.6727 8.13575 15.2685 7.73156L13.0351 5.49816V15.0001C13.0351 15.5717 12.5716 16.0353 12 16.0353C11.4284 16.0353 10.9648 15.5717 10.9648 15.0001Z"/></svg>