<svg xmlns="http://www.w3.org/2000/svg" width="24" height="24" fill="none" viewBox="0 0 24 24"><path fill="currentColor" d="M1.96484 16.2003V12.0001C1.96484 11.4285 2.42839 10.965 3 10.965C3.57161 10.965 4.03516 11.4285 4.03516 12.0001V16.2003C4.03516 17.0572 4.03565 17.6378 4.07227 18.086C4.10791 18.5223 4.17227 18.742 4.24902 18.8927C4.43737 19.2622 4.73794 19.5627 5.10742 19.7511C5.25806 19.8278 5.47781 19.8922 5.91406 19.9278C6.36234 19.9645 6.94287 19.965 7.7998 19.965H16.2002C17.0571 19.965 17.6377 19.9645 18.0859 19.9278C18.5222 19.8922 18.7419 19.8278 18.8926 19.7511C19.2621 19.5627 19.5626 19.2622 19.751 18.8927C19.8277 18.742 19.8921 18.5223 19.9277 18.086C19.9643 17.6378 19.9648 17.0572 19.9648 16.2003V12.0001C19.9648 11.4285 20.4284 10.965 21 10.965C21.5716 10.965 22.0352 11.4285 22.0352 12.0001V16.2003C22.0352 17.0232 22.0353 17.7029 21.9902 18.255C21.9441 18.8192 21.8449 19.3411 21.5947 19.8321C21.2079 20.5911 20.591 21.208 19.832 21.5948C19.341 21.845 18.8191 21.9442 18.2549 21.9903C17.7027 22.0355 17.0231 22.0353 16.2002 22.0353H7.7998C6.97689 22.0353 6.29725 22.0355 5.74512 21.9903C5.18095 21.9442 4.65899 21.845 4.16797 21.5948C3.409 21.208 2.79208 20.5911 2.40527 19.8321C2.15509 19.3411 2.05588 18.8192 2.00977 18.255C1.96465 17.7029 1.96484 17.0232 1.96484 16.2003ZM10.9648 15.0001V5.49816L8.73145 7.73156C8.32725 8.13575 7.67275 8.13575 7.26855 7.73156C6.86436 7.32736 6.86436 6.67286 7.26855 6.26866L11.2686 2.26866L11.3467 2.19738C11.7532 1.8657 12.3525 1.8897 12.7314 2.26866L16.7314 6.26866C17.1356 6.67286 17.1356 7.32736 16.7314 7.73156C16.3273 8.13575 15.6727 8.13575 15.2686 7.73156L13.0352 5.49816V15.0001C13.0352 15.5717 12.5716 16.0353 12 16.0353C11.4284 16.0353 10.9648 15.5717 10.9648 15.0001Z"/></svg>