<svg xmlns="http://www.w3.org/2000/svg" width="24" height="24" fill="none" viewBox="0 0 24 24"><path fill="currentColor" d="M11.6895 2.5656C12.0317 2.61407 12.2896 2.78606 12.4258 2.88298C12.6003 3.00716 12.7997 3.17924 12.9941 3.34587L21.4648 10.6066C21.573 10.6993 21.7053 10.811 21.8105 10.9181C21.8946 11.0038 22.0047 11.1285 22.0947 11.297L22.1768 11.4806L22.2158 11.6086C22.2948 11.9079 22.2821 12.2254 22.1768 12.5187C22.0816 12.7835 21.9227 12.9669 21.8105 13.0812C21.7054 13.1884 21.5729 13.3001 21.4648 13.3927L12.9941 20.6535C12.7997 20.8202 12.6003 20.9931 12.4258 21.1174C12.2701 21.2281 11.9556 21.4371 11.5381 21.4474C11.0636 21.4592 10.6105 21.2507 10.3105 20.883C10.0466 20.5591 10.0006 20.1835 9.9834 19.9933C9.96416 19.7801 9.96484 19.5168 9.96484 19.2609V16.2394C9.04031 16.4031 8.1392 16.6905 7.28809 17.0988C5.94139 17.7449 4.74993 18.6751 3.7959 19.8244C3.51731 20.1596 3.05846 20.2849 2.64844 20.1369C2.23833 19.9888 1.96498 19.5992 1.96484 19.1633V18.55C1.96631 15.9208 2.9362 13.3841 4.68848 11.424C6.09939 9.84581 7.9381 8.73004 9.96484 8.20134V4.73943C9.96484 4.48332 9.96413 4.21937 9.9834 4.00603C10.0006 3.81572 10.0467 3.44106 10.3105 3.11736L10.4297 2.9865C10.7239 2.70037 11.1229 2.54261 11.5381 2.5529L11.6895 2.5656ZM12.0352 9.03435C12.0352 9.53702 11.6738 9.96708 11.1787 10.0539C9.27263 10.3873 7.52786 11.3537 6.23145 12.8039C5.27747 13.871 4.61098 15.1499 4.27832 16.5207C4.93675 16.0235 5.64537 15.5915 6.39355 15.2326C7.81785 14.5494 9.35748 14.1449 10.9297 14.0383C11.2157 14.0189 11.4976 14.1189 11.707 14.3146C11.9162 14.5103 12.0352 14.784 12.0352 15.0705V18.7492L19.9092 12.0002L12.0352 5.25017V9.03435Z"/></svg>