<svg xmlns="http://www.w3.org/2000/svg" width="24" height="24" fill="none" viewBox="0 0 24 24"><path fill="currentColor" d="M1.96484 16.2002V7.7998C1.96484 6.97689 1.96465 6.29725 2.00977 5.74512C2.05588 5.18095 2.15509 4.65899 2.40527 4.16797C2.79208 3.409 3.409 2.79208 4.16797 2.40527C4.65899 2.15509 5.18095 2.05588 5.74512 2.00977C6.29725 1.96465 6.97689 1.96484 7.7998 1.96484H10C10.5716 1.96484 11.0352 2.42839 11.0352 3C11.0352 3.57161 10.5716 4.03516 10 4.03516H7.7998C6.94287 4.03516 6.36234 4.03565 5.91406 4.07227C5.47781 4.10791 5.25807 4.17227 5.10742 4.24902C4.73794 4.43737 4.43737 4.73794 4.24902 5.10742C4.17227 5.25807 4.10791 5.47781 4.07227 5.91406C4.03565 6.36234 4.03516 6.94287 4.03516 7.7998V16.2002C4.03516 17.0571 4.03565 17.6377 4.07227 18.0859C4.10791 18.5222 4.17227 18.7419 4.24902 18.8926C4.43737 19.2621 4.73794 19.5626 5.10742 19.751C5.25806 19.8277 5.47781 19.8921 5.91406 19.9277C6.36234 19.9643 6.94287 19.9648 7.7998 19.9648H16.2002C17.0571 19.9648 17.6377 19.9643 18.0859 19.9277C18.5222 19.8921 18.7419 19.8277 18.8926 19.751C19.2621 19.5626 19.5626 19.2621 19.751 18.8926C19.8277 18.7419 19.8921 18.5222 19.9277 18.0859C19.9643 17.6377 19.9648 17.0571 19.9648 16.2002V14C19.9648 13.4284 20.4284 12.9648 21 12.9648C21.5716 12.9648 22.0352 13.4284 22.0352 14V16.2002C22.0352 17.0231 22.0353 17.7027 21.9902 18.2549C21.9441 18.8191 21.8449 19.341 21.5947 19.832C21.2079 20.591 20.591 21.2079 19.832 21.5947C19.341 21.8449 18.8191 21.9441 18.2549 21.9902C17.7027 22.0353 17.0231 22.0352 16.2002 22.0352H7.7998C6.97689 22.0352 6.29725 22.0353 5.74512 21.9902C5.18095 21.9441 4.65899 21.8449 4.16797 21.5947C3.409 21.2079 2.79208 20.591 2.40527 19.832C2.15509 19.341 2.05588 18.8191 2.00977 18.2549C1.96465 17.7027 1.96484 17.0231 1.96484 16.2002ZM11.9648 12V10.7998C11.9648 9.97689 11.9647 9.29725 12.0098 8.74512C12.0559 8.18095 12.1551 7.65899 12.4053 7.16797C12.7921 6.409 13.409 5.79208 14.168 5.40527C14.659 5.15509 15.1809 5.05588 15.7451 5.00977C16.2973 4.96465 16.9769 4.96484 17.7998 4.96484H18.502L17.2686 3.73145C16.8644 3.32725 16.8644 2.67275 17.2686 2.26855C17.6727 1.86436 18.3273 1.86436 18.7314 2.26855L21.7314 5.26855C22.1356 5.67275 22.1356 6.32725 21.7314 6.73145L18.7314 9.73145C18.3273 10.1356 17.6727 10.1356 17.2686 9.73145C16.8644 9.32725 16.8644 8.67275 17.2686 8.26855L18.502 7.03516H17.7998C16.9429 7.03516 16.3623 7.03565 15.9141 7.07227C15.4778 7.10791 15.2581 7.17227 15.1074 7.24902C14.7379 7.43737 14.4374 7.73794 14.249 8.10742C14.1723 8.25807 14.1079 8.47781 14.0723 8.91406C14.0357 9.36234 14.0352 9.94287 14.0352 10.7998V12C14.0352 12.5716 13.5716 13.0352 13 13.0352C12.4284 13.0352 11.9648 12.5716 11.9648 12Z"/></svg>