<svg xmlns="http://www.w3.org/2000/svg" width="24" height="24" fill="none" viewBox="0 0 24 24"><path fill="currentColor" d="M18.9649 7.21739C18.9649 6.33333 18.9492 6.16548 18.9024 6.04259C18.8467 5.89613 18.7553 5.76534 18.6377 5.66173C18.5391 5.57491 18.3874 5.50012 17.5606 5.19005L13.0352 3.49278V20.19C13.9838 19.5724 15.2267 18.6581 16.3331 17.5055C17.8325 15.9434 18.9649 14.0684 18.9649 11.9996V7.21739ZM5.03521 11.9996C5.03521 14.0684 6.16761 15.9434 7.66704 17.5055C8.77341 18.6581 10.0163 19.5724 10.9649 20.19V3.49278L6.4395 5.19005C5.61266 5.50012 5.46101 5.57491 5.36235 5.66173C5.24479 5.76534 5.15344 5.89613 5.09771 6.04259C5.05094 6.16548 5.03521 6.33333 5.03521 7.21739V11.9996ZM21.0352 11.9996C21.0352 14.8393 19.4908 17.205 17.8262 18.9391C16.1504 20.6849 14.2333 21.9171 13.2198 22.5084C13.031 22.6185 12.7744 22.7796 12.4268 22.8541C12.1625 22.9108 11.8376 22.9108 11.5733 22.8541C11.2257 22.7796 10.9691 22.6185 10.7803 22.5084C9.76685 21.9171 7.84972 20.6849 6.17388 18.9391C4.50932 17.205 2.96489 14.8393 2.96489 11.9996V7.21739C2.96489 6.50266 2.9484 5.87057 3.16314 5.30626C3.33842 4.84571 3.62353 4.43482 3.99321 4.10899C4.44619 3.70979 5.04373 3.5035 5.71294 3.25255L11.0752 1.24181C11.2415 1.17945 11.4659 1.08944 11.709 1.05431L11.8545 1.03868C12.0001 1.02825 12.1464 1.0334 12.2911 1.05431C12.5342 1.08944 12.7586 1.17945 12.9249 1.24181L18.2872 3.25255C18.9564 3.5035 19.5539 3.70979 20.0069 4.10899C20.3766 4.43482 20.6617 4.84571 20.837 5.30626C21.0517 5.87057 21.0352 6.50267 21.0352 7.21739V11.9996Z"/></svg>