<svg xmlns="http://www.w3.org/2000/svg" width="24" height="24" fill="none" viewBox="0 0 24 24"><path fill="currentColor" d="M18.9648 8.19971C18.9648 7.64919 18.9642 7.28649 18.9463 7.01221C18.9285 6.74052 18.8974 6.64977 18.8848 6.62061C18.8246 6.48218 18.7857 6.42357 18.7578 6.38916C18.7299 6.35482 18.6805 6.30376 18.5566 6.21631C18.5615 6.21972 18.5379 6.20194 18.457 6.17041C18.3763 6.13897 18.2604 6.10242 18.0928 6.05811C17.7508 5.96773 17.2843 5.86979 16.6074 5.729C14.9833 5.39122 13.7126 4.77269 12.5615 3.88232C12.3051 3.68399 12.1456 3.56046 12.0264 3.47803C12.0169 3.47148 12.008 3.46581 12 3.46045C11.992 3.46581 11.9831 3.47148 11.9736 3.47803C11.8544 3.56046 11.6949 3.68399 11.4385 3.88232C10.2874 4.77269 9.01671 5.39122 7.39258 5.729C6.71567 5.86979 6.24918 5.96773 5.90723 6.05811C5.73958 6.10242 5.62367 6.13897 5.54297 6.17041C5.46205 6.20194 5.43853 6.21972 5.44336 6.21631C5.31949 6.30376 5.27012 6.35482 5.24219 6.38916C5.21428 6.42357 5.17535 6.48218 5.11523 6.62061C5.10258 6.64977 5.07149 6.74052 5.05371 7.01221C5.03577 7.28649 5.03516 7.64919 5.03516 8.19971V12.0005C5.03531 14.0691 6.16768 15.9434 7.66699 17.5054C9.15483 19.0554 10.8886 20.1759 11.8232 20.7212C11.8804 20.7545 11.9215 20.7783 11.957 20.7983C11.9746 20.8082 11.9892 20.815 12 20.8208C12.0108 20.815 12.0254 20.8082 12.043 20.7983C12.0785 20.7783 12.1196 20.7545 12.1768 20.7212C13.1114 20.1759 14.8452 19.0554 16.333 17.5054C17.8323 15.9434 18.9647 14.0691 18.9648 12.0005V8.19971ZM21.0352 12.0005C21.035 14.84 19.4906 17.2049 17.8262 18.939C16.1501 20.685 14.2331 21.9181 13.2197 22.5093C13.031 22.6194 12.7743 22.7795 12.4268 22.854C12.1625 22.9107 11.8375 22.9107 11.5732 22.854C11.2257 22.7795 10.969 22.6194 10.7803 22.5093C9.76686 21.9181 7.84988 20.685 6.17383 18.939C4.50935 17.2049 2.965 14.84 2.96484 12.0005V8.19971C2.96484 7.67688 2.96486 7.23424 2.98828 6.87646C3.01188 6.51621 3.06295 6.1474 3.21582 5.79541C3.32364 5.54716 3.45258 5.30891 3.63672 5.08252C3.82078 4.85624 4.02805 4.68194 4.24902 4.52588C4.58043 4.29189 4.98777 4.16026 5.37793 4.05713C5.78623 3.94921 6.31796 3.8386 6.97168 3.70264C8.28096 3.43031 9.26335 2.94741 10.1719 2.24463C10.4093 2.06096 10.6209 1.89749 10.7969 1.77588C10.9617 1.66198 11.1938 1.51363 11.4707 1.43896L11.7129 1.38525C11.8012 1.37097 11.897 1.36182 12 1.36182C12.206 1.36182 12.3835 1.39938 12.5303 1.43896C12.807 1.51367 13.0384 1.66204 13.2031 1.77588C13.3791 1.89749 13.5907 2.06096 13.8281 2.24463C14.7366 2.94741 15.719 3.43031 17.0283 3.70264C17.682 3.8386 18.2138 3.94921 18.6221 4.05713C19.0122 4.16026 19.4196 4.29189 19.751 4.52588C19.972 4.68194 20.1792 4.85624 20.3633 5.08252C20.5474 5.30891 20.6764 5.54716 20.7842 5.79541C20.937 6.1474 20.9881 6.51621 21.0117 6.87646C21.0351 7.23424 21.0352 7.67688 21.0352 8.19971V12.0005Z"/></svg>