<svg xmlns="http://www.w3.org/2000/svg" width="24" height="24" fill="none" viewBox="0 0 24 24"><path fill="currentColor" d="M18.9649 7.21764C18.9649 6.33358 18.9492 6.16572 18.9024 6.04283C18.8467 5.89637 18.7553 5.76558 18.6377 5.66197C18.5391 5.57516 18.3874 5.50036 17.5606 5.19029L12.1983 3.17955C12.0937 3.14032 12.0394 3.11948 12 3.10631C11.9607 3.11948 11.9064 3.14032 11.8018 3.17955L6.4395 5.19029C5.61266 5.50036 5.46101 5.57516 5.36235 5.66197C5.24479 5.76558 5.15344 5.89637 5.09771 6.04283C5.05094 6.16572 5.03521 6.33358 5.03521 7.21764V11.9999C5.03521 14.0686 6.16761 15.9436 7.66704 17.5057C9.15491 19.0557 10.8887 20.1763 11.8233 20.7215C11.8804 20.7549 11.9215 20.7787 11.9571 20.7987C11.9747 20.8086 11.9892 20.8154 12 20.8211C12.0109 20.8154 12.0254 20.8086 12.043 20.7987C12.0786 20.7787 12.1196 20.7549 12.1768 20.7215C13.1114 20.1763 14.8452 19.0557 16.3331 17.5057C17.8325 15.9436 18.9649 14.0686 18.9649 11.9999V7.21764ZM10.9649 14.4999V12.535H9.00005C8.42843 12.535 7.96489 12.0715 7.96489 11.4999C7.96509 10.9284 8.42855 10.4657 9.00005 10.4657H10.9649V8.49986C10.9651 7.92841 11.4286 7.46568 12 7.46568C12.5715 7.46568 13.035 7.92841 13.0352 8.49986V10.4657H15C15.5715 10.4657 16.035 10.9284 16.0352 11.4999C16.0352 12.0715 15.5717 12.535 15 12.535H13.0352V14.4999C13.0352 15.0715 12.5717 15.535 12 15.535C11.4284 15.535 10.9649 15.0715 10.9649 14.4999ZM21.0352 11.9999C21.0352 14.8395 19.4908 17.2052 17.8262 18.9393C16.1504 20.6851 14.2333 21.9174 13.2198 22.5086C13.031 22.6188 12.7744 22.7798 12.4268 22.8544C12.1625 22.911 11.8376 22.911 11.5733 22.8544C11.2257 22.7798 10.9691 22.6188 10.7803 22.5086C9.76685 21.9174 7.84972 20.6851 6.17388 18.9393C4.50932 17.2052 2.96489 14.8395 2.96489 11.9999V7.21764C2.96489 6.50291 2.9484 5.87081 3.16314 5.3065C3.33842 4.84595 3.62353 4.43506 3.99321 4.10924C4.44619 3.71004 5.04373 3.50374 5.71294 3.25279L11.0752 1.24205C11.2415 1.17969 11.4659 1.08968 11.709 1.05455L11.8545 1.03892C12.0001 1.02849 12.1464 1.03364 12.2911 1.05455C12.5342 1.08968 12.7586 1.17969 12.9249 1.24205L18.2872 3.25279C18.9564 3.50374 19.5539 3.71004 20.0069 4.10924C20.3766 4.43506 20.6617 4.84595 20.837 5.3065C21.0517 5.87081 21.0352 6.50291 21.0352 7.21764V11.9999Z"/></svg>