<svg xmlns="http://www.w3.org/2000/svg" width="24" height="24" fill="none" viewBox="0 0 24 24"><path fill="currentColor" d="M18.9649 7.21739C18.9649 6.33333 18.9492 6.16548 18.9024 6.04259C18.8467 5.89613 18.7553 5.76534 18.6377 5.66173C18.5391 5.57491 18.3874 5.50012 17.5606 5.19005L12.1983 3.17931C12.0937 3.14008 12.0394 3.11923 12 3.10606C11.9607 3.11923 11.9064 3.14008 11.8018 3.17931L6.4395 5.19005C5.61266 5.50012 5.46101 5.57491 5.36235 5.66173C5.24479 5.76534 5.15344 5.89613 5.09771 6.04259C5.05094 6.16548 5.03521 6.33333 5.03521 7.21739V11.9996C5.03521 14.0684 6.16761 15.9434 7.66704 17.5055C9.15491 19.0555 10.8887 20.176 11.8233 20.7213C11.8804 20.7546 11.9215 20.7784 11.9571 20.7984C11.9747 20.8084 11.9892 20.8151 12 20.8209C12.0109 20.8151 12.0254 20.8084 12.043 20.7984C12.0786 20.7784 12.1196 20.7546 12.1768 20.7213C13.1114 20.176 14.8452 19.0555 16.3331 17.5055C17.8325 15.9434 18.9649 14.0684 18.9649 11.9996V7.21739ZM10.9649 16.9996V16.5348H10.8663C9.74873 16.5346 8.7808 15.9025 8.29692 14.9811C8.03119 14.4751 8.22558 13.8494 8.73149 13.5836C9.23757 13.3178 9.86319 13.5131 10.129 14.0191C10.2694 14.2864 10.548 14.4653 10.8663 14.4654H13C13.533 14.4654 13.9649 14.0326 13.9649 13.4996C13.9647 12.9668 13.5329 12.5348 13 12.5348H11C9.32387 12.5348 7.96489 11.1758 7.96489 9.49962C7.96509 7.83533 9.30503 6.48428 10.9649 6.46544V5.99962C10.9651 5.42817 11.4286 4.96544 12 4.96544C12.5715 4.96544 13.035 5.42817 13.0352 5.99962V6.46544H13.1338C14.2514 6.46561 15.2193 7.09774 15.7032 8.01915C15.9688 8.52515 15.7745 9.15085 15.2686 9.41661C14.7625 9.68237 14.1369 9.4871 13.8711 8.98106C13.7307 8.71371 13.4521 8.53494 13.1338 8.53477H11C10.4672 8.53477 10.0354 8.96683 10.0352 9.49962C10.0352 10.0326 10.4671 10.4654 11 10.4654H13C14.6761 10.4654 16.035 11.8236 16.0352 13.4996C16.0352 15.1641 14.6952 16.5149 13.0352 16.5338V16.9996C13.0352 17.5712 12.5717 18.0348 12 18.0348C11.4284 18.0348 10.9649 17.5712 10.9649 16.9996ZM21.0352 11.9996C21.0352 14.8393 19.4908 17.205 17.8262 18.9391C16.1504 20.6849 14.2333 21.9171 13.2198 22.5084C13.031 22.6185 12.7744 22.7796 12.4268 22.8541C12.1625 22.9108 11.8376 22.9108 11.5733 22.8541C11.2257 22.7796 10.9691 22.6185 10.7803 22.5084C9.76685 21.9171 7.84972 20.6849 6.17388 18.9391C4.50932 17.205 2.96489 14.8393 2.96489 11.9996V7.21739C2.96489 6.50266 2.9484 5.87057 3.16314 5.30626C3.33842 4.84571 3.62353 4.43482 3.99321 4.10899C4.44619 3.70979 5.04373 3.5035 5.71294 3.25255L11.0752 1.24181C11.2415 1.17945 11.4659 1.08944 11.709 1.05431L11.8545 1.03868C12.0001 1.02825 12.1464 1.0334 12.2911 1.05431C12.5342 1.08944 12.7586 1.17945 12.9249 1.24181L18.2872 3.25255C18.9564 3.5035 19.5539 3.70979 20.0069 4.10899C20.3766 4.43482 20.6617 4.84571 20.837 5.30626C21.0517 5.87057 21.0352 6.50267 21.0352 7.21739V11.9996Z"/></svg>