<svg xmlns="http://www.w3.org/2000/svg" width="24" height="24" fill="none" viewBox="0 0 24 24"><path fill="currentColor" d="M2.26848 2.26842C2.67262 1.86446 3.32722 1.86446 3.73137 2.26842L21.7314 20.2684C22.1356 20.6726 22.1356 21.3281 21.7314 21.7323C21.3273 22.1361 20.6726 22.1361 20.2685 21.7323L17.6513 19.1151C16.016 20.7691 14.1961 21.939 13.2216 22.5077C13.0323 22.6181 12.7745 22.7797 12.4267 22.8544C12.2285 22.8968 11.9963 22.9078 11.7812 22.8866L11.5732 22.8544C11.2256 22.7798 10.9689 22.6188 10.7802 22.5086C9.76672 21.9174 7.8496 20.6851 6.17375 18.9393C4.50919 17.2052 2.96477 14.8395 2.96477 11.9999V5.77623C2.96482 5.39384 3.0661 5.0286 3.24699 4.7108L2.26848 3.73228C1.86428 3.32809 1.86428 2.67261 2.26848 2.26842ZM18.9648 11.9999V7.21764C18.9648 6.33358 18.949 6.16572 18.9023 6.04283C18.8465 5.89637 18.7552 5.76558 18.6376 5.66197C18.539 5.57516 18.3873 5.50036 17.5605 5.19029L12.1982 3.17955C12.0936 3.14032 12.0393 3.11948 11.9999 3.10631C11.9606 3.11948 11.9063 3.14032 11.8017 3.17955L9.1718 4.16588C8.63665 4.36648 8.0405 4.09551 7.83977 3.56041C7.63906 3.02519 7.91002 2.42811 8.44523 2.2274L11.0751 1.24205C11.2414 1.17969 11.4658 1.08968 11.7089 1.05455L11.8544 1.03892C11.9999 1.02849 12.1463 1.03364 12.2909 1.05455C12.534 1.08968 12.7585 1.17969 12.9247 1.24205L18.287 3.25279C18.9562 3.50374 19.5538 3.71004 20.0068 4.10924C20.3764 4.43506 20.6616 4.84595 20.8368 5.3065C21.0516 5.87081 21.0351 6.50291 21.0351 7.21764V11.9999C21.0351 12.8321 20.9014 13.6266 20.6708 14.3758C20.5026 14.9221 19.9231 15.2286 19.3769 15.0604C18.8308 14.8921 18.5242 14.3127 18.6923 13.7665C18.8675 13.1973 18.9648 12.6082 18.9648 11.9999ZM5.03508 11.9999C5.03508 14.0686 6.16748 15.9436 7.66691 17.5057C9.15478 19.0557 10.8886 20.1763 11.8232 20.7215C11.8803 20.7549 11.9214 20.7787 11.957 20.7987C11.9742 20.8084 11.9882 20.8154 11.9989 20.8211C12.01 20.8153 12.0245 20.808 12.0429 20.7977C12.0786 20.7776 12.1203 20.754 12.1777 20.7206C13.0875 20.1897 14.738 19.1218 16.1884 17.6522L5.03508 6.49889V11.9999Z"/></svg>