<svg xmlns="http://www.w3.org/2000/svg" width="24" height="24" fill="none" viewBox="0 0 24 24"><path fill="currentColor" d="M17 20.9648C16.9807 20.9648 16.9648 20.9807 16.9648 21C16.9648 21.0193 16.9807 21.0352 17 21.0352C17.0097 21.0352 17.0181 21.0308 17.0244 21.0244L17.0352 21L17.0244 20.9756C17.0181 20.9693 17.0097 20.9648 17 20.9648ZM9.02441 20.9756C9.01808 20.9693 9.00966 20.9648 9 20.9648C8.98067 20.9648 8.96484 20.9807 8.96484 21C8.96484 21.0193 8.98067 21.0352 9 21.0352C9.00966 21.0352 9.01808 21.0308 9.02441 21.0244L9.03516 21L9.02441 20.9756ZM3.30664 0.96485C3.41366 0.964848 3.55163 0.964314 3.67383 0.973639C3.77547 0.981419 3.90849 0.998504 4.05469 1.0459L4.2041 1.10352L4.30273 1.15333C4.49564 1.25881 4.66419 1.40404 4.7959 1.58008L4.8584 1.6709L4.9375 1.81153C5.00486 1.94927 5.04047 2.07841 5.0625 2.17774C5.08901 2.29741 5.10791 2.43411 5.12305 2.54005L5.46875 4.96485H21.0332C21.1804 4.96485 21.3578 4.96422 21.5107 4.97755C21.6525 4.98991 21.8589 5.0195 22.0752 5.12403L22.1689 5.17383L22.2832 5.24708C22.5044 5.40372 22.6795 5.61669 22.792 5.86329L22.8428 5.98926L22.874 6.08985C22.9363 6.32206 22.9275 6.53021 22.9131 6.67188C22.8976 6.82463 22.8635 6.99891 22.8359 7.14356L21.5117 14.0928C21.4264 14.5405 21.3529 14.9323 21.2666 15.2529C21.177 15.586 21.0567 15.9128 20.8447 16.2207C20.5255 16.6844 20.0835 17.0504 19.5684 17.2773C19.2262 17.428 18.8822 17.485 18.5381 17.5107C18.2069 17.5355 17.8075 17.5352 17.3516 17.5352H8.79395C8.31478 17.5352 7.89676 17.5354 7.55078 17.5088C7.19208 17.4812 6.83354 17.4204 6.47949 17.2578C5.94796 17.0136 5.49821 16.6207 5.18457 16.127C4.97561 15.7979 4.8667 15.4505 4.79102 15.0986C4.71808 14.7595 4.66223 14.3458 4.59766 13.8711L3.54688 6.14649L3.10254 3.03516H2C1.42839 3.03516 0.964844 2.57162 0.964844 2.00001C0.964844 1.42839 1.42839 0.96485 2 0.96485H3.30664ZM6.64844 13.5918C6.71732 14.0981 6.76205 14.4205 6.81445 14.6641C6.8641 14.8948 6.90614 14.9774 6.93164 15.0176C7.03136 15.1745 7.17477 15.2993 7.34375 15.377C7.38709 15.3968 7.47492 15.4273 7.70996 15.4453C7.95835 15.4644 8.28326 15.4649 8.79395 15.4649H17.3516C17.8382 15.4649 18.1475 15.464 18.3838 15.4463C18.6064 15.4296 18.6906 15.4016 18.7334 15.3828C18.8973 15.3107 19.0381 15.1943 19.1396 15.0469C19.1662 15.0083 19.2095 14.9307 19.2676 14.7149C19.3291 14.486 19.3875 14.1831 19.4785 13.7051L20.75 7.03516H5.75684L6.64844 13.5918ZM11.0352 21C11.0352 22.1239 10.1239 23.0352 9 23.0352C7.8761 23.0352 6.96484 22.1239 6.96484 21C6.96484 19.8761 7.8761 18.9648 9 18.9648C10.1239 18.9648 11.0352 19.8761 11.0352 21ZM19.0352 21C19.0352 22.1239 18.1239 23.0352 17 23.0352C15.8761 23.0352 14.9648 22.1239 14.9648 21C14.9648 19.8761 15.8761 18.9648 17 18.9648C18.1239 18.9648 19.0352 19.8761 19.0352 21Z"/></svg>