<svg xmlns="http://www.w3.org/2000/svg" width="24" height="24" fill="none" viewBox="0 0 24 24"><path fill="currentColor" d="M19.9639 7.02323C19.7878 7.03254 19.5901 7.03495 19.4004 7.03495H4.59961C4.40951 7.03495 4.21143 7.0326 4.03516 7.02323V18.7996C4.03516 19.3767 4.03559 19.7475 4.05859 20.0291C4.08061 20.2986 4.11836 20.3946 4.14062 20.4383C4.23308 20.6195 4.38032 20.7667 4.56152 20.8592C4.60521 20.8814 4.7012 20.9192 4.9707 20.9412C5.25228 20.9642 5.62309 20.9646 6.20019 20.9646H17.7998C18.3769 20.9646 18.7477 20.9642 19.0293 20.9412C19.2988 20.9192 19.3948 20.8814 19.4385 20.8592C19.6197 20.7667 19.7669 20.6195 19.8594 20.4383C19.8816 20.3946 19.9194 20.2986 19.9414 20.0291C19.9644 19.7475 19.9648 19.3767 19.9648 18.7996V7.0662C19.9648 7.05147 19.9639 7.03715 19.9639 7.02323ZM6.96484 9.99979C6.96484 9.42818 7.42838 8.96463 8 8.96463C8.57161 8.96463 9.03516 9.42818 9.03516 9.99979C9.03516 10.7862 9.34728 11.5404 9.90332 12.0965C10.4594 12.6525 11.2136 12.9646 12 12.9646C12.7864 12.9646 13.5406 12.6525 14.0967 12.0965C14.6527 11.5404 14.9648 10.7862 14.9648 9.99979C14.9648 9.42818 15.4284 8.96463 16 8.96463C16.5716 8.96463 17.0352 9.42818 17.0352 9.99979C17.0352 11.3352 16.5048 12.6161 15.5605 13.5603C14.6163 14.5046 13.3354 15.0349 12 15.0349C10.6646 15.0349 9.3837 14.5046 8.43945 13.5603C7.49521 12.6161 6.96484 11.3352 6.96484 9.99979ZM6.51855 3.0369C6.48316 3.07987 6.43638 3.14224 6.34766 3.26053L5.07031 4.96463H18.9297L17.6523 3.26053C17.5633 3.1418 17.5159 3.07988 17.4805 3.0369C17.425 3.03441 17.3471 3.03495 17.2002 3.03495H6.7998C6.65206 3.03495 6.57414 3.03437 6.51855 3.0369ZM22.0352 18.7996C22.0352 19.3426 22.0354 19.8126 22.0039 20.198C21.9714 20.5954 21.8998 20.9937 21.7041 21.3777C21.4131 21.9487 20.9489 22.4129 20.3779 22.7039C19.9939 22.8996 19.5956 22.9712 19.1982 23.0037C18.8128 23.0352 18.3428 23.0349 17.7998 23.0349H6.20019C5.65722 23.0349 5.18718 23.0352 4.80176 23.0037C4.40438 22.9712 4.00608 22.8996 3.62207 22.7039C3.05108 22.4129 2.58686 21.9487 2.2959 21.3777C2.10024 20.9937 2.02859 20.5954 1.99609 20.198C1.9646 19.8126 1.96484 19.3426 1.96484 18.7996V7.0662C1.96484 6.70987 1.96069 6.39479 2.02148 6.08378C2.07149 5.82814 2.1542 5.58001 2.26758 5.34549C2.40557 5.06015 2.59768 4.81031 2.81152 4.52518L4.69238 2.01835C4.8323 1.83177 5.01579 1.57131 5.26953 1.3787C5.47054 1.22617 5.69878 1.11205 5.94141 1.04276L6.05664 1.01444C6.32619 0.957595 6.59568 0.96463 6.7998 0.964635H17.2002C17.4043 0.96463 17.6738 0.957595 17.9434 1.01444L18.0586 1.04276L18.2383 1.10331C18.3552 1.14882 18.4677 1.20505 18.5742 1.27128L18.7305 1.3787L18.8223 1.45389C19.0293 1.63531 19.1852 1.85508 19.3076 2.01835L21.1885 4.52518C21.4023 4.81031 21.5944 5.06015 21.7324 5.34549C21.8458 5.58001 21.9285 5.82814 21.9785 6.08378C22.0393 6.39479 22.0352 6.70987 22.0352 7.0662V18.7996Z"/></svg>