<svg xmlns="http://www.w3.org/2000/svg" width="24" height="24" fill="none" viewBox="0 0 24 24"><path fill="currentColor" d="M15.583 1.96484C16.3457 1.96484 16.9778 1.96421 17.4941 2.00488C18.0229 2.04656 18.5124 2.13645 18.9805 2.36035C19.7077 2.70835 20.3145 3.26608 20.7217 3.96191C20.9837 4.40976 21.1138 4.89054 21.1992 5.41406C21.2826 5.92521 21.3341 6.5554 21.3975 7.31543L22.0977 15.7158C22.1714 16.6002 22.233 17.3281 22.2324 17.9199C22.2318 18.5228 22.1689 19.0854 21.9346 19.6201C21.5741 20.4424 20.9497 21.1214 20.1602 21.5488C19.6467 21.8268 19.0911 21.9357 18.4902 21.9863C17.9005 22.036 17.1705 22.0352 16.2832 22.0352H7.71582C6.82851 22.0352 6.09851 22.036 5.50879 21.9863C4.90787 21.9356 4.35238 21.8268 3.83887 21.5488C3.04929 21.1214 2.42495 20.4424 2.06446 19.6201C1.83012 19.0854 1.76723 18.5228 1.76661 17.9199C1.76602 17.3281 1.82767 16.6002 1.90137 15.7158L2.60157 7.31543C2.6649 6.5554 2.7164 5.92521 2.79981 5.41406C2.88527 4.89053 3.01528 4.40977 3.27735 3.96191C3.68458 3.26605 4.29127 2.70836 5.01856 2.36035C5.48674 2.13635 5.9769 2.04655 6.50586 2.00488C7.02205 1.96425 7.65366 1.96484 8.41602 1.96484H15.583ZM8.41602 4.03516C7.6208 4.03516 7.08415 4.03558 6.66797 4.06836C6.26462 4.10013 6.058 4.15777 5.91211 4.22754C5.55791 4.39702 5.26277 4.66891 5.06446 5.00781C4.98277 5.14741 4.90797 5.34855 4.84278 5.74805C4.77555 6.16008 4.73011 6.69481 4.66407 7.48731L3.96387 15.8877C3.88725 16.8072 3.83647 17.4328 3.83692 17.917C3.83739 18.3902 3.88932 18.6279 3.95997 18.7891C4.13551 19.1895 4.4397 19.5203 4.82422 19.7285C4.97899 19.8123 5.2111 19.8841 5.68262 19.9238C6.16515 19.9645 6.79295 19.9648 7.71582 19.9648H16.2832C17.2061 19.9648 17.8339 19.9645 18.3164 19.9238C18.7878 19.8841 19.02 19.8123 19.1748 19.7285C19.5593 19.5204 19.8635 19.1895 20.0391 18.7891C20.1097 18.6279 20.1616 18.3902 20.1621 17.917C20.1626 17.4328 20.1118 16.8072 20.0352 15.8877L19.335 7.48731C19.2689 6.6948 19.2235 6.16008 19.1563 5.74805C19.0911 5.34887 19.0172 5.14739 18.9356 5.00781C18.7372 4.66891 18.4411 4.39702 18.0869 4.22754C17.941 4.1578 17.7343 4.10013 17.3311 4.06836C16.9149 4.03558 16.3782 4.03516 15.583 4.03516H8.41602ZM6.96485 8C6.96485 7.42839 7.42839 6.96484 8 6.96484C8.57143 6.96507 9.03418 7.42852 9.03418 8C9.03418 8.78637 9.34728 9.54064 9.90332 10.0967C10.4593 10.6526 11.2137 10.9648 12 10.9648C12.7861 10.9647 13.5398 10.6525 14.0957 10.0967C14.6518 9.54064 14.9648 8.78637 14.9648 8C14.9648 7.42839 15.4284 6.96484 16 6.96484C16.5714 6.96507 17.0342 7.42852 17.0342 8C17.0342 9.33537 16.5038 10.6163 15.5596 11.5605C14.6155 12.5045 13.3351 13.035 12 13.0352C10.6647 13.0352 9.38368 12.5047 8.43946 11.5605C7.49521 10.6163 6.96485 9.33537 6.96485 8Z"/></svg>