<svg xmlns="http://www.w3.org/2000/svg" width="24" height="24" fill="none" viewBox="0 0 24 24"><path fill="currentColor" d="M12 0.964844C14.4299 0.964844 16.4567 2.6867 16.9297 4.97656C17.1423 4.98236 17.3396 4.99056 17.5224 5.00488C18.0471 5.04602 18.5337 5.1336 18.999 5.35449C19.7222 5.69778 20.327 6.2486 20.7363 6.93652C20.9997 7.3792 21.1327 7.85545 21.2226 8.37402C21.3103 8.87987 21.368 9.50305 21.4385 10.2549L22.039 16.6553C22.1227 17.5473 22.1919 18.2812 22.1972 18.8779C22.2027 19.4856 22.1452 20.0526 21.9131 20.5928C21.5563 21.4231 20.9311 22.1093 20.1377 22.542C19.6215 22.8235 19.0625 22.9341 18.457 22.9854C17.8624 23.0357 17.1254 23.0352 16.2295 23.0352H7.77147C6.87549 23.0352 6.13859 23.0357 5.54393 22.9854C4.93843 22.9341 4.37946 22.8235 3.86326 22.542C3.06987 22.1093 2.44464 21.4231 2.08787 20.5928C1.85577 20.0526 1.79822 19.4856 1.80369 18.8779C1.80909 18.2812 1.87826 17.5473 1.9619 16.6553L2.5615 10.2549C2.63199 9.503 2.69058 8.87989 2.7783 8.37402C2.86823 7.85545 3.00127 7.3792 3.26463 6.93652C3.67397 6.24863 4.27879 5.69776 5.00193 5.35449C5.4671 5.13371 5.95303 5.04603 6.47752 5.00488C6.65993 4.99058 6.85725 4.98237 7.06932 4.97656C7.54213 2.68665 9.57006 0.965018 12 0.964844ZM14.9658 9V7.03516H9.03514V9C9.03514 9.57161 8.5716 10.0352 7.99998 10.0352C7.42854 10.035 6.9658 9.57149 6.9658 9V7.04883C6.84861 7.05341 6.74054 7.06045 6.63963 7.06836C6.24016 7.09968 6.03488 7.15568 5.88963 7.22461C5.53752 7.39175 5.24327 7.66019 5.04393 7.99512C4.96171 8.13331 4.88586 8.33259 4.81736 8.72754C4.7467 9.13502 4.69655 9.66398 4.62303 10.4482L4.02244 16.8486C3.93548 17.7762 3.87745 18.4077 3.87303 18.8965C3.86872 19.3739 3.91951 19.613 3.98924 19.7754C4.16296 20.1797 4.46718 20.5149 4.8535 20.7256C5.00873 20.8102 5.24262 20.8826 5.71873 20.9229C6.20576 20.9641 6.83984 20.9648 7.77147 20.9648H16.2295C17.1611 20.9648 17.7952 20.9641 18.2822 20.9229C18.7578 20.8826 18.9912 20.8101 19.1465 20.7256C19.5329 20.5149 19.838 20.1798 20.0117 19.7754C20.0814 19.613 20.1322 19.3738 20.1279 18.8965C20.1235 18.4077 20.0645 17.7763 19.9775 16.8486L19.3779 10.4482C19.3044 9.66399 19.2542 9.13502 19.1836 8.72754C19.1151 8.33259 19.0392 8.13331 18.957 7.99512C18.7577 7.66017 18.4634 7.39177 18.1113 7.22461C17.9661 7.15567 17.7607 7.09969 17.3613 7.06836C17.2605 7.06045 17.1522 7.05341 17.0351 7.04883V9C17.0351 9.57161 16.5716 10.0352 16 10.0352C15.4285 10.035 14.9658 9.57149 14.9658 9ZM12 3.03516C10.7272 3.03531 9.64482 3.83849 9.22459 4.96484H14.7763C14.3561 3.83834 13.273 3.03516 12 3.03516Z"/></svg>