<svg xmlns="http://www.w3.org/2000/svg" width="24" height="24" fill="none" viewBox="0 0 24 24"><path fill="currentColor" d="M3.31641 0.964846C3.42199 0.964846 3.55859 0.96446 3.67969 0.973635C3.78038 0.981285 3.91197 0.997519 4.05664 1.04395L4.20508 1.10156L4.30273 1.14942C4.49393 1.25275 4.66108 1.39562 4.79297 1.56836L4.85645 1.65723L4.93555 1.79492C5.00397 1.93059 5.04022 2.05798 5.06348 2.15625C5.09143 2.27441 5.11244 2.40936 5.12891 2.51367L5.51562 4.96485H21.041C21.187 4.96485 21.3635 4.96434 21.5156 4.97754C21.657 4.98984 21.8626 5.01929 22.0781 5.12305L22.1709 5.17188L22.2842 5.24512C22.5047 5.40034 22.6807 5.6107 22.7939 5.85547L22.8457 5.98047L22.877 6.08008C22.9405 6.31066 22.9331 6.51787 22.9199 6.65918C22.9057 6.81115 22.8728 6.98428 22.8467 7.12793L21.4961 14.5576C21.4139 15.0097 21.3431 15.4049 21.2588 15.7285C21.1713 16.0647 21.0524 16.3948 20.8408 16.7061C20.5223 17.1745 20.0785 17.5448 19.5605 17.7744C19.2164 17.927 18.8699 17.9847 18.5234 18.0107C18.19 18.0357 17.7885 18.0352 17.3291 18.0352H7.58008L7.88477 19.9648H19C19.5716 19.9648 20.0352 20.4284 20.0352 21C20.0352 21.5716 19.5716 22.0352 19 22.0352H7.68359C7.57801 22.0352 7.44141 22.0355 7.32031 22.0264C7.18616 22.0162 6.99719 21.9898 6.79492 21.8984C6.52965 21.7785 6.30333 21.5861 6.14355 21.3428C6.02176 21.1572 5.96751 20.9747 5.93652 20.8438C5.90857 20.7256 5.88756 20.5906 5.87109 20.4863L3.11523 3.03516H2C1.42839 3.03516 0.964844 2.57162 0.964844 2C0.964844 1.42839 1.42839 0.964846 2 0.964846H3.31641ZM7.25293 15.9648H17.3291C17.8195 15.9648 18.1309 15.9642 18.3691 15.9463C18.5941 15.9294 18.6788 15.9008 18.7217 15.8818C18.8863 15.8089 19.0276 15.6918 19.1289 15.543C19.1553 15.5042 19.198 15.4254 19.2549 15.207C19.3151 14.9759 19.3713 14.6698 19.459 14.1875L20.7598 7.03516H5.84277L7.25293 15.9648Z"/></svg>