<svg xmlns="http://www.w3.org/2000/svg" width="24" height="24" fill="none" viewBox="0 0 24 24"><path fill="currentColor" d="M7.5 19.9648C8.34776 19.9648 9.03516 20.6522 9.03516 21.5C9.03516 22.3478 8.34776 23.0352 7.5 23.0352C6.65224 23.0352 5.96484 22.3478 5.96484 21.5C5.96484 20.6522 6.65224 19.9648 7.5 19.9648ZM16.5 19.9648C17.3478 19.9648 18.0352 20.6522 18.0352 21.5C18.0352 22.3478 17.3478 23.0352 16.5 23.0352C15.6522 23.0352 14.9648 22.3478 14.9648 21.5C14.9648 20.6522 15.6522 19.9648 16.5 19.9648ZM3.24805 0.964849C3.36384 0.964849 3.51198 0.964305 3.6416 0.974614C3.74819 0.983113 3.88868 1.00194 4.04297 1.05469L4.20117 1.11915L4.30371 1.17383C4.5378 1.31035 4.73208 1.5071 4.86621 1.74415C4.98394 1.95223 5.02573 2.15277 5.0459 2.29395C5.06427 2.42268 5.07286 2.56999 5.08008 2.68555L5.16016 3.96485H21.1064C21.2429 3.96485 21.4103 3.96422 21.5557 3.97657C21.6729 3.98655 21.8334 4.00819 22.0068 4.07422L22.1836 4.15626L22.2939 4.22364C22.5452 4.39146 22.7427 4.63037 22.8594 4.91114C22.964 5.16298 22.9718 5.398 22.9678 5.55469C22.964 5.70062 22.9448 5.86725 22.9297 6.00293L22.3447 11.2676C22.2906 11.7549 22.244 12.1795 22.1777 12.5273C22.1091 12.8876 22.0069 13.2443 21.7998 13.583C21.4894 14.0908 21.036 14.4956 20.4971 14.7481C20.1374 14.9165 19.7719 14.9794 19.4062 15.0078C19.0533 15.0353 18.6261 15.0352 18.1357 15.0352H5.85156L5.97266 16.9648H19C19.5716 16.9648 20.0352 17.4284 20.0352 18C20.0352 18.5716 19.5716 19.0352 19 19.0352H5.75195C5.63616 19.0352 5.48802 19.0357 5.3584 19.0254C5.2163 19.0141 5.01363 18.9852 4.79883 18.8809C4.51906 18.7449 4.28699 18.5266 4.13379 18.2559C4.01606 18.0478 3.97427 17.8472 3.9541 17.7061C3.93573 17.5773 3.92714 17.43 3.91992 17.3145L3.02734 3.03516H2C1.42839 3.03516 0.964844 2.57162 0.964844 2.00001C0.964844 1.42839 1.42839 0.964849 2 0.964849H3.24805ZM5.72266 12.9648H18.1357C18.658 12.9648 18.9909 12.9641 19.2451 12.9443C19.4863 12.9256 19.5757 12.8944 19.6191 12.874C19.7905 12.7938 19.9345 12.6644 20.0332 12.5029C20.0582 12.4619 20.0993 12.3769 20.1445 12.1397C20.1922 11.8892 20.2304 11.5584 20.2881 11.0391L20.8438 6.03516H5.28906L5.72266 12.9648Z"/></svg>