<svg xmlns="http://www.w3.org/2000/svg" width="24" height="24" fill="none" viewBox="0 0 24 24"><path fill="currentColor" d="M14.2685 14.2686C14.6727 13.8644 15.3272 13.8644 15.7314 14.2686L19.9648 18.502V16C19.9648 15.4284 20.4283 14.9648 20.9999 14.9648C21.5715 14.9648 22.0351 15.4284 22.0351 16V21C22.0351 21.5716 21.5715 22.0352 20.9999 22.0352H15.9999C15.4283 22.0352 14.9648 21.5716 14.9648 21C14.9648 20.4284 15.4283 19.9648 15.9999 19.9648H18.5019L14.2685 15.7314C13.8643 15.3273 13.8643 14.6727 14.2685 14.2686ZM2.26848 2.26855C2.67267 1.86436 3.32717 1.86436 3.73137 2.26855L9.73137 8.26855C10.1356 8.67275 10.1356 9.32725 9.73137 9.73145C9.32717 10.1356 8.67267 10.1356 8.26848 9.73145L2.26848 3.73145C1.86428 3.32725 1.86428 2.67275 2.26848 2.26855ZM22.0351 8C22.0351 8.57161 21.5715 9.03516 20.9999 9.03516C20.4283 9.03516 19.9648 8.57161 19.9648 8V5.49805L3.73137 21.7314C3.32717 22.1356 2.67267 22.1356 2.26848 21.7314C1.86428 21.3273 1.86428 20.6727 2.26848 20.2686L18.5019 4.03516H15.9999C15.4283 4.03516 14.9648 3.57161 14.9648 3C14.9648 2.42839 15.4283 1.96484 15.9999 1.96484H20.9999C21.5715 1.96484 22.0351 2.42839 22.0351 3V8Z"/></svg>