<svg xmlns="http://www.w3.org/2000/svg" width="24" height="24" fill="none" viewBox="0 0 24 24"><path fill="currentColor" d="M17.2686 14.2685C17.6727 13.8643 18.3273 13.8643 18.7314 14.2685L21.7314 17.2685C22.1356 17.6727 22.1356 18.3272 21.7314 18.7314L18.7314 21.7314C18.3273 22.1356 17.6727 22.1356 17.2686 21.7314C16.8644 21.3272 16.8644 20.6727 17.2686 20.2685L18.502 19.0341C17.6606 19.0345 17.0251 19.0412 16.4326 18.8612C15.9253 18.7071 15.4536 18.4538 15.0439 18.1171C14.553 17.7136 14.1991 17.1643 13.7139 16.4364L13.4717 16.0741C13.1548 15.5986 13.2834 14.9557 13.7588 14.6386C14.2344 14.3216 14.8772 14.4502 15.1943 14.9257L15.4365 15.288C15.9928 16.1224 16.1602 16.3553 16.3574 16.5175C16.5569 16.6814 16.7872 16.8047 17.0342 16.8798C17.2731 16.9524 17.5521 16.9633 18.501 16.9638L17.2686 15.7314C16.8644 15.3272 16.8644 14.6727 17.2686 14.2685ZM17.2686 2.26848C17.6727 1.86428 18.3273 1.86428 18.7314 2.26848L21.7314 5.26848C22.1356 5.67267 22.1356 6.32717 21.7314 6.73137L18.7314 9.73137C18.3273 10.1356 17.6727 10.1356 17.2686 9.73137C16.8644 9.32717 16.8644 8.67267 17.2686 8.26848L18.501 7.03508C17.5521 7.03558 17.2731 7.04749 17.0342 7.12004C16.7872 7.19512 16.5569 7.31841 16.3574 7.48234C16.1602 7.64456 15.9928 7.87744 15.4365 8.71184L10.2861 16.4364C9.8009 17.1643 9.44698 17.7136 8.95605 18.1171C8.54639 18.4538 8.07474 18.7071 7.56738 18.8612C6.95934 19.0459 6.30543 19.0351 5.43066 19.0351H3C2.42839 19.0351 1.96484 18.5715 1.96484 17.9999C1.96484 17.4283 2.42839 16.9648 3 16.9648H5.43066C6.43432 16.9648 6.72133 16.9541 6.96582 16.8798C7.21283 16.8047 7.44313 16.6814 7.64258 16.5175C7.83976 16.3553 8.00721 16.1224 8.56348 15.288L13.7139 7.5634C14.1991 6.83555 14.553 6.28623 15.0439 5.88273C15.4536 5.54608 15.9253 5.29271 16.4326 5.13859C17.0251 4.95868 17.6606 4.96437 18.502 4.96477L17.2686 3.73137C16.8644 3.32717 16.8644 2.67267 17.2686 2.26848ZM5.43066 4.96477C6.30543 4.96477 6.95934 4.95394 7.56738 5.13859C8.07474 5.29271 8.54639 5.54608 8.95605 5.88273C9.44698 6.28623 9.8009 6.83555 10.2861 7.5634L10.5283 7.9257C10.8452 8.40123 10.7166 9.04416 10.2412 9.36125C9.76565 9.67829 9.12277 9.54963 8.80566 9.07414L8.56348 8.71184C8.00721 7.87744 7.83976 7.64456 7.64258 7.48234C7.44313 7.31841 7.21283 7.19512 6.96582 7.12004C6.72133 7.04579 6.43432 7.03508 5.43066 7.03508H3C2.42839 7.03508 1.96484 6.57154 1.96484 5.99992C1.96484 5.42831 2.42839 4.96477 3 4.96477H5.43066Z"/></svg>