<svg xmlns="http://www.w3.org/2000/svg" width="24" height="24" fill="none" viewBox="0 0 24 24"><path fill="currentColor" d="M4.19735 4.19743C4.60155 3.79324 5.25703 3.79324 5.66122 4.19743C6.06491 4.60153 6.06491 5.25623 5.66122 5.66032C2.16017 9.16137 2.16017 14.838 5.66122 18.339C6.06525 18.7432 6.06522 19.3987 5.66122 19.8029C5.25706 20.2071 4.60155 20.207 4.19735 19.8029C-0.112045 15.4935 -0.111971 8.50688 4.19735 4.19743ZM18.339 4.19743C18.7431 3.79324 19.3986 3.79324 19.8028 4.19743C24.1122 8.50687 24.1122 15.4935 19.8028 19.8029C19.3986 20.207 18.7431 20.2071 18.339 19.8029C17.935 19.3987 17.9349 18.7432 18.339 18.339C21.84 14.838 21.84 9.16137 18.339 5.66032C17.9353 5.25622 17.9353 4.60152 18.339 4.19743ZM7.02548 7.02556C7.42967 6.62136 8.08515 6.62136 8.48935 7.02556C8.89345 7.42976 8.89351 8.08526 8.48935 8.48942C6.55052 10.4284 6.55043 13.572 8.48935 15.5109C8.89341 15.9151 8.8935 16.5706 8.48935 16.9748C8.08518 17.3788 7.42963 17.3788 7.02548 16.9748C4.27818 14.2275 4.27827 9.77291 7.02548 7.02556ZM15.5108 7.02556C15.915 6.62136 16.5705 6.62136 16.9747 7.02556C19.7219 9.7729 19.722 14.2275 16.9747 16.9748C16.5705 17.3788 15.915 17.3788 15.5108 16.9748C15.1067 16.5706 15.1067 15.9151 15.5108 15.5109C17.4497 13.572 17.4497 10.4284 15.5108 8.48942C15.1067 8.08526 15.1067 7.42976 15.5108 7.02556ZM12.9649 12.0002C12.9649 11.4672 12.533 11.0353 12.0001 11.0353C11.4671 11.0353 11.0352 11.4672 11.0352 12.0002C11.0354 12.533 11.4672 12.965 12.0001 12.965C12.533 12.965 12.9648 12.533 12.9649 12.0002ZM15.0352 12.0002C15.0351 13.6762 13.6762 15.0353 12.0001 15.0353C10.324 15.0353 8.96505 13.6762 8.96493 12.0002C8.96493 10.324 10.3239 8.96501 12.0001 8.96501C13.6763 8.96501 15.0352 10.324 15.0352 12.0002Z"/></svg>