<svg xmlns="http://www.w3.org/2000/svg" width="24" height="24" fill="none" viewBox="0 0 24 24"><path fill="currentColor" d="M4.19716 4.19716C8.5066 -0.112271 15.4932 -0.112271 19.8026 4.19716C24.1121 8.5066 24.1121 15.4932 19.8026 19.8026C19.3984 20.2068 18.743 20.2068 18.3388 19.8026C17.9348 19.3984 17.9347 18.7429 18.3388 18.3388C21.8398 14.8377 21.8398 9.16208 18.3388 5.66103C14.8377 2.15998 9.16208 2.15998 5.66103 5.66103C2.15998 9.16208 2.15998 14.8377 5.66103 18.3388C6.06514 18.7429 6.06496 19.3984 5.66103 19.8026C5.25684 20.2068 4.60136 20.2068 4.19716 19.8026C-0.112271 15.4932 -0.112271 8.5066 4.19716 4.19716ZM7.02529 7.02529C9.77263 4.27795 14.2272 4.27795 16.9745 7.02529C19.7218 9.77263 19.7218 14.2272 16.9745 16.9745C16.5703 17.3787 15.9148 17.3787 15.5106 16.9745C15.1064 16.5703 15.1064 15.9148 15.5106 15.5106C17.4496 13.5717 17.4496 10.4281 15.5106 8.48916C13.5717 6.5502 10.4281 6.5502 8.48916 8.48916C6.5502 10.4281 6.5502 13.5717 8.48916 15.5106C8.89335 15.9148 8.89335 16.5703 8.48916 16.9745C8.08496 17.3787 7.42947 17.3787 7.02529 16.9745C4.27795 14.2272 4.27795 9.77263 7.02529 7.02529ZM9.85341 9.85341C11.0387 8.66817 12.9611 8.66817 14.1464 9.85341C15.3316 11.0387 15.3316 12.9611 14.1464 14.1464C13.7423 14.5505 13.0867 14.5502 12.6825 14.1464C12.2783 13.7422 12.2783 13.0867 12.6825 12.6825C13.0594 12.3057 13.0594 11.6941 12.6825 11.3173C12.3057 10.9404 11.6941 10.9404 11.3173 11.3173C10.9404 11.6941 10.9404 12.3057 11.3173 12.6825C11.7215 13.0867 11.7215 13.7422 11.3173 14.1464C10.9131 14.5502 10.2575 14.5505 9.85341 14.1464C8.66817 12.9611 8.66817 11.0387 9.85341 9.85341Z"/></svg>