<svg xmlns="http://www.w3.org/2000/svg" width="24" height="24" fill="none" viewBox="0 0 24 24"><path fill="currentColor" d="M12.9647 10.0002C12.9647 9.46721 12.5328 9.03532 11.9998 9.03532C11.467 9.03544 11.035 9.46729 11.035 10.0002C11.0351 10.5329 11.4671 10.9649 11.9998 10.965C12.5327 10.965 12.9646 10.533 12.9647 10.0002ZM4.19711 2.19743C4.6013 1.79324 5.25678 1.79324 5.66098 2.19743C6.06467 2.60153 6.06467 3.25623 5.66098 3.66032C2.15993 7.16137 2.15993 12.838 5.66098 16.339C6.06501 16.7432 6.06498 17.3987 5.66098 17.8029C5.25682 18.2071 4.60131 18.207 4.19711 17.8029C-0.112289 13.4935 -0.112216 6.50688 4.19711 2.19743ZM18.3397 2.19743C18.7439 1.79324 19.3994 1.79324 19.8036 2.19743C24.1126 6.50685 24.1127 13.4936 19.8036 17.8029C19.3994 18.2071 18.7439 18.207 18.3397 17.8029C17.9355 17.3987 17.9355 16.7432 18.3397 16.339C21.8406 12.838 21.8407 7.16132 18.3397 3.66032C17.9356 3.25616 17.9356 2.6016 18.3397 2.19743ZM7.02523 5.02556C7.42942 4.62137 8.08491 4.62137 8.4891 5.02556C8.89329 5.42975 8.89329 6.08523 8.4891 6.48942C6.5504 8.4284 6.55023 11.572 8.4891 13.5109C8.89327 13.9151 8.89328 14.5706 8.4891 14.9748C8.0849 15.3787 7.42933 15.3788 7.02523 14.9748C4.27798 12.2275 4.27815 7.77292 7.02523 5.02556ZM15.5106 5.02556C15.9148 4.62136 16.5703 4.62136 16.9745 5.02556C19.7218 7.7729 19.7218 12.2274 16.9745 14.9748C16.5703 15.3787 15.9147 15.3788 15.5106 14.9748C15.1065 14.5707 15.1067 13.9151 15.5106 13.5109C17.4495 11.572 17.4495 8.42838 15.5106 6.48942C15.1065 6.08531 15.1066 5.42977 15.5106 5.02556ZM15.035 10.0002C15.0349 11.3123 14.2009 12.4263 13.035 12.8498V21.0002C13.0349 21.5717 12.5714 22.0353 11.9998 22.0353C11.4284 22.0352 10.9648 21.5716 10.9647 21.0002V12.8488C9.79921 12.4251 8.96479 11.312 8.96469 10.0002C8.96469 8.32406 10.3238 6.96513 11.9998 6.96501C13.676 6.96501 15.035 8.32398 15.035 10.0002Z"/></svg>