<svg xmlns="http://www.w3.org/2000/svg" width="24" height="24" fill="none" viewBox="0 0 24 24"><path fill="currentColor" d="M2.96484 17.2003V6.79988C2.96484 5.97696 2.96465 5.29732 3.00977 4.74519C3.05588 4.18102 3.15509 3.65906 3.40527 3.16804C3.79208 2.40907 4.409 1.79215 5.16797 1.40535C5.65899 1.15516 6.18095 1.05595 6.74512 1.00984C7.29725 0.964726 7.97689 0.964915 8.7998 0.964915H12.0117C12.6962 0.964915 13.2072 0.958144 13.6992 1.07624C14.1108 1.17506 14.5043 1.3385 14.8652 1.55964C15.2967 1.82404 15.6537 2.18994 16.1377 2.6739L19.3262 5.86238C19.8101 6.34633 20.176 6.70338 20.4404 7.13484C20.6616 7.49577 20.825 7.88925 20.9238 8.30085C21.0419 8.79289 21.0352 9.30392 21.0352 9.98835V17.2003C21.0352 18.0232 21.0353 18.7028 20.9902 19.255C20.9441 19.8191 20.8449 20.3411 20.5947 20.8321C20.2079 21.5911 19.591 22.208 18.832 22.5948C18.341 22.845 17.8191 22.9442 17.2549 22.9903C16.7027 23.0354 16.0231 23.0352 15.2002 23.0352H8.7998C7.97689 23.0352 7.29725 23.0354 6.74512 22.9903C6.18095 22.9442 5.65899 22.845 5.16797 22.5948C4.409 22.208 3.79208 21.5911 3.40527 20.8321C3.15509 20.3411 3.05588 19.8191 3.00977 19.255C2.96465 18.7028 2.96484 18.0232 2.96484 17.2003ZM9.03516 16.9649H14.9648V14.0352H9.03516V16.9649ZM17.0352 17.2003C17.0352 17.3231 17.0354 17.4772 17.0244 17.6124C17.0124 17.7598 16.9821 17.9736 16.8682 18.1973C16.721 18.4861 16.486 18.7211 16.1973 18.8682C15.9736 18.9822 15.7597 19.0124 15.6123 19.0245C15.4772 19.0355 15.323 19.0352 15.2002 19.0352H8.7998C8.67701 19.0352 8.52284 19.0355 8.3877 19.0245C8.24031 19.0124 8.02644 18.9822 7.80273 18.8682C7.514 18.7211 7.27898 18.4861 7.13184 18.1973C7.01785 17.9736 6.98763 17.7598 6.97559 17.6124C6.96457 17.4772 6.96484 17.3231 6.96484 17.2003V13.7999C6.96484 13.6771 6.96457 13.5229 6.97559 13.3878C6.98763 13.2404 7.01785 13.0265 7.13184 12.8028C7.27899 12.5141 7.514 12.2791 7.80273 12.1319C8.02644 12.0179 8.24031 11.9877 8.3877 11.9757C8.52284 11.9646 8.67701 11.9649 8.7998 11.9649H15.2002C15.323 11.9649 15.4772 11.9646 15.6123 11.9757C15.7229 11.9847 15.8709 12.0041 16.0322 12.0616L16.1973 12.1319L16.3027 12.1915C16.5088 12.3179 16.6822 12.4913 16.8086 12.6973L16.8682 12.8028L16.9385 12.9678C16.9959 13.1292 17.0154 13.2772 17.0244 13.3878C17.0354 13.5229 17.0352 13.6771 17.0352 13.7999V17.2003ZM5.03516 17.2003C5.03516 18.0572 5.03565 18.6377 5.07227 19.086C5.10791 19.5223 5.17227 19.742 5.24902 19.8927C5.43737 20.2621 5.73794 20.5627 6.10742 20.751C6.25807 20.8278 6.47781 20.8922 6.91406 20.9278C7.36234 20.9644 7.94287 20.9649 8.7998 20.9649H15.2002C16.0571 20.9649 16.6377 20.9644 17.0859 20.9278C17.5222 20.8922 17.7419 20.8278 17.8926 20.751C18.2621 20.5627 18.5626 20.2621 18.751 19.8927C18.8277 19.742 18.8921 19.5223 18.9277 19.086C18.9643 18.6377 18.9648 18.0572 18.9648 17.2003V9.98835C18.9648 9.20577 18.9587 8.98261 18.9111 8.78425C18.863 8.58378 18.7835 8.39169 18.6758 8.21589C18.5692 8.0419 18.4159 7.87983 17.8623 7.32624L14.6738 4.13777C14.1202 3.58418 13.9582 3.43091 13.7842 3.32429C13.6084 3.21657 13.4163 3.13707 13.2158 3.08894C13.0175 3.04137 12.7943 3.03523 12.0117 3.03523H8.7998C7.94287 3.03523 7.36234 3.03572 6.91406 3.07234C6.47781 3.10798 6.25807 3.17234 6.10742 3.2491C5.73794 3.43744 5.43737 3.73801 5.24902 4.10749C5.17227 4.25814 5.10791 4.47788 5.07227 4.91413C5.03565 5.36241 5.03516 5.94295 5.03516 6.79988V17.2003Z"/></svg>