<svg xmlns="http://www.w3.org/2000/svg" width="24" height="24" fill="none" viewBox="0 0 24 24"><path fill="currentColor" d="M18.9648 18.5996C18.9648 18.3166 18.9633 18.1576 18.9551 18.0439C18.8415 18.0358 18.6825 18.0352 18.4004 18.0352H17.5996C17.3167 18.0352 17.1576 18.0358 17.0439 18.0439C17.0358 18.1576 17.0352 18.3167 17.0352 18.5996V19.4004C17.0352 19.6825 17.0358 19.8415 17.0439 19.9551C17.1576 19.9633 17.3166 19.9648 17.5996 19.9648H18.4004C18.6826 19.9648 18.8415 19.9632 18.9551 19.9551C18.9632 19.8415 18.9648 19.6826 18.9648 19.4004V18.5996ZM9.01758 6.14062C8.99873 6.37134 8.95465 6.6467 8.81348 6.92383C8.61837 7.30674 8.30674 7.61837 7.92383 7.81348C7.6467 7.95465 7.37134 7.99873 7.14062 8.01758C7.09909 8.02097 7.05594 8.02029 7.01172 8.02246L5.57617 16.0557C5.68936 16.0862 5.80665 16.1268 5.92383 16.1865C6.25872 16.3572 6.53886 16.617 6.73438 16.9355L6.81348 17.0762L6.90234 17.2832C6.97529 17.4881 7.00345 17.6864 7.01758 17.8594C7.02037 17.8935 7.02051 17.9288 7.02246 17.9648H14.9775C14.9795 17.9288 14.9796 17.8935 14.9824 17.8594C15.0013 17.6287 15.0454 17.3533 15.1865 17.0762L15.2656 16.9355C15.4611 16.617 15.7413 16.3572 16.0762 16.1865L16.2832 16.0977C16.4881 16.0247 16.6864 15.9966 16.8594 15.9824C17.0184 15.9694 17.1989 15.9666 17.3867 15.9658L18.5293 7.96973C18.3839 7.93876 18.2302 7.89193 18.0762 7.81348C17.6933 7.61837 17.3816 7.30674 17.1865 6.92383C17.0454 6.6467 17.0013 6.37134 16.9824 6.14062C16.9796 6.10645 16.9795 6.07118 16.9775 6.03516H9.02246C9.02051 6.07118 9.02037 6.10645 9.01758 6.14062ZM3.03516 19.4004C3.03516 19.6825 3.03582 19.8415 3.04395 19.9551C3.15762 19.9633 3.31662 19.9648 3.59961 19.9648H4.40039C4.68258 19.9648 4.84147 19.9632 4.95508 19.9551C4.96321 19.8415 4.96484 19.6826 4.96484 19.4004V18.5996C4.96484 18.3166 4.96327 18.1576 4.95508 18.0439C4.84147 18.0358 4.68252 18.0352 4.40039 18.0352H3.59961C3.31668 18.0352 3.15762 18.0358 3.04395 18.0439C3.03576 18.1576 3.03516 18.3167 3.03516 18.5996V19.4004ZM20.9648 4.59961C20.9648 4.31662 20.9633 4.15762 20.9551 4.04395C20.8415 4.03582 20.6825 4.03516 20.4004 4.03516H19.5996C19.3167 4.03516 19.1576 4.03576 19.0439 4.04395C19.0358 4.15762 19.0352 4.31668 19.0352 4.59961V5.40039C19.0352 5.68252 19.0358 5.84147 19.0439 5.95508C19.1576 5.96327 19.3166 5.96484 19.5996 5.96484H20.4004C20.6826 5.96484 20.8415 5.96321 20.9551 5.95508C20.9632 5.84147 20.9648 5.68258 20.9648 5.40039V4.59961ZM5.03516 5.40039C5.03516 5.68252 5.03582 5.84147 5.04395 5.95508C5.15762 5.96327 5.31662 5.96484 5.59961 5.96484H6.40039C6.68258 5.96484 6.84147 5.96321 6.95508 5.95508C6.96321 5.84147 6.96484 5.68258 6.96484 5.40039V4.59961C6.96484 4.31662 6.96327 4.15762 6.95508 4.04395C6.84147 4.03582 6.68252 4.03516 6.40039 4.03516H5.59961C5.31668 4.03516 5.15762 4.03576 5.04395 4.04395C5.03576 4.15762 5.03516 4.31668 5.03516 4.59961V5.40039ZM23.0352 5.40039C23.0352 5.66304 23.0354 5.92215 23.0176 6.14062C22.9987 6.37134 22.9546 6.6467 22.8135 6.92383C22.6184 7.30674 22.3067 7.61837 21.9238 7.81348C21.6467 7.95465 21.3713 7.99873 21.1406 8.01758C20.9811 8.03059 20.7998 8.03249 20.6113 8.0332L19.4697 16.0293C19.6155 16.0603 19.7694 16.1079 19.9238 16.1865C20.2587 16.3572 20.5389 16.617 20.7344 16.9355L20.8135 17.0762L20.9023 17.2832C20.9753 17.4881 21.0034 17.6864 21.0176 17.8594C21.0354 18.0779 21.0352 18.337 21.0352 18.5996V19.4004C21.0352 19.663 21.0354 19.9221 21.0176 20.1406C20.9987 20.3713 20.9546 20.6467 20.8135 20.9238C20.6184 21.3067 20.3067 21.6184 19.9238 21.8135C19.6467 21.9546 19.3713 21.9987 19.1406 22.0176C18.9221 22.0354 18.663 22.0352 18.4004 22.0352H17.5996C17.337 22.0352 17.0779 22.0354 16.8594 22.0176C16.6287 21.9987 16.3533 21.9546 16.0762 21.8135C15.6933 21.6184 15.3816 21.3067 15.1865 20.9238C15.0454 20.6467 15.0013 20.3713 14.9824 20.1406C14.9796 20.1065 14.9795 20.0712 14.9775 20.0352H7.02246C7.02051 20.0712 7.02037 20.1065 7.01758 20.1406C6.99873 20.3713 6.95465 20.6467 6.81348 20.9238C6.61837 21.3067 6.30674 21.6184 5.92383 21.8135C5.6467 21.9546 5.37134 21.9987 5.14062 22.0176C4.92215 22.0354 4.66304 22.0352 4.40039 22.0352H3.59961C3.33696 22.0352 3.07785 22.0354 2.85938 22.0176C2.62866 21.9987 2.3533 21.9546 2.07617 21.8135C1.69326 21.6184 1.38163 21.3067 1.18652 20.9238C1.04535 20.6467 1.00127 20.3713 0.982422 20.1406C0.9646 19.9221 0.964843 19.663 0.964844 19.4004V18.5996C0.964843 18.337 0.9646 18.0779 0.982422 17.8594C1.00127 17.6287 1.04535 17.3533 1.18652 17.0762L1.26563 16.9355C1.46114 16.617 1.74128 16.3572 2.07617 16.1865L2.2832 16.0977C2.48814 16.0247 2.6864 15.9966 2.85938 15.9824C3.04744 15.9671 3.26561 15.965 3.49023 15.9648L4.90918 8.01953C4.8924 8.0184 4.87572 8.01891 4.85938 8.01758C4.62866 7.99873 4.3533 7.95465 4.07617 7.81348C3.69326 7.61837 3.38163 7.30674 3.18652 6.92383C3.04535 6.6467 3.00127 6.37134 2.98242 6.14062C2.9646 5.92215 2.96484 5.66304 2.96484 5.40039V4.59961C2.96484 4.33696 2.9646 4.07785 2.98242 3.85938C3.00127 3.62866 3.04535 3.3533 3.18652 3.07617L3.26563 2.93555C3.46114 2.61698 3.74128 2.35716 4.07617 2.18652L4.2832 2.09766C4.48814 2.02472 4.6864 1.99656 4.85938 1.98242C5.07785 1.9646 5.33696 1.96484 5.59961 1.96484H6.40039C6.66304 1.96484 6.92215 1.9646 7.14062 1.98242C7.3136 1.99656 7.51186 2.02471 7.7168 2.09766L7.92383 2.18652L8.06445 2.26563C8.33734 2.4331 8.5669 2.66266 8.73438 2.93555L8.81348 3.07617L8.90234 3.2832C8.97529 3.48814 9.00345 3.6864 9.01758 3.85938C9.02037 3.89355 9.02051 3.92882 9.02246 3.96484H16.9775C16.9795 3.92882 16.9796 3.89355 16.9824 3.85938C17.0013 3.62866 17.0454 3.3533 17.1865 3.07617L17.2656 2.93555C17.4611 2.61698 17.7413 2.35716 18.0762 2.18652L18.2832 2.09766C18.4881 2.02472 18.6864 1.99656 18.8594 1.98242C19.0779 1.9646 19.337 1.96484 19.5996 1.96484H20.4004C20.663 1.96484 20.9221 1.9646 21.1406 1.98242C21.3136 1.99656 21.5119 2.02472 21.7168 2.09766L21.9238 2.18652L22.0645 2.26563C22.3373 2.4331 22.5669 2.66266 22.7344 2.93555L22.8135 3.07617L22.9023 3.2832C22.9753 3.48814 23.0034 3.6864 23.0176 3.85938C23.0354 4.07785 23.0352 4.33696 23.0352 4.59961V5.40039Z"/></svg>