<svg xmlns="http://www.w3.org/2000/svg" width="24" height="24" fill="none" viewBox="0 0 24 24"><path fill="currentColor" d="M3.96484 19V5C3.96484 4.42839 4.42839 3.96484 5 3.96484C5.57161 3.96484 6.03516 4.42839 6.03516 5V19C6.03516 19.5716 5.57161 20.0352 5 20.0352C4.42839 20.0352 3.96484 19.5716 3.96484 19ZM17.9648 7.3291C17.9648 6.78293 17.9636 6.44126 17.9424 6.19922C17.7402 6.33388 17.473 6.54677 17.0469 6.8877L11.208 11.5586C10.9375 11.775 10.7816 11.9016 10.6768 12C10.7816 12.0984 10.9375 12.225 11.208 12.4414L17.0469 17.1123C17.4727 17.453 17.7403 17.6651 17.9424 17.7998C17.9635 17.5578 17.9648 17.2163 17.9648 16.6709V7.3291ZM20.0352 16.6709C20.0352 17.1831 20.0365 17.6394 20.0039 17.998C19.9731 18.3375 19.8995 18.8015 19.5908 19.1885C19.2042 19.6728 18.6177 19.9547 17.998 19.9541C17.5028 19.9536 17.094 19.7212 16.8096 19.5332C16.5091 19.3346 16.1539 19.0485 15.7539 18.7285L9.91504 14.0576C9.66294 13.8559 9.42049 13.6631 9.23438 13.4854C9.04216 13.3018 8.82321 13.0553 8.69531 12.7139C8.52288 12.2536 8.52288 11.7464 8.69531 11.2861L8.74707 11.1621C8.87729 10.8839 9.06624 10.6752 9.23438 10.5146C9.42049 10.3369 9.66294 10.1441 9.91504 9.94238L15.7539 5.27148C16.1539 4.95151 16.5091 4.66542 16.8096 4.4668C17.094 4.27876 17.5028 4.04643 17.998 4.0459L18.2285 4.05859C18.6849 4.11015 19.1111 4.31447 19.4365 4.63867L19.5908 4.81152L19.6953 4.95996C19.9166 5.31271 19.9769 5.7049 20.0039 6.00195C20.0365 6.36063 20.0352 6.81689 20.0352 7.3291V16.6709Z"/></svg>