<svg xmlns="http://www.w3.org/2000/svg" width="24" height="24" fill="none" viewBox="0 0 24 24"><path fill="currentColor" d="M17.9649 19V5C17.9649 4.42839 18.4284 3.96484 19 3.96484C19.5716 3.96484 20.0352 4.42839 20.0352 5V19C20.0352 19.5716 19.5716 20.0352 19 20.0352C18.4284 20.0352 17.9649 19.5716 17.9649 19ZM6.00196 4.0459C6.49723 4.04643 6.906 4.27876 7.19044 4.4668C7.49087 4.66542 7.84613 4.95151 8.2461 5.27148L14.085 9.94238C14.3371 10.1441 14.5795 10.3369 14.7656 10.5146C14.9338 10.6752 15.1227 10.8839 15.2529 11.1621L15.3047 11.2861L15.3613 11.4609C15.4745 11.8726 15.4556 12.3112 15.3047 12.7139C15.1768 13.0553 14.9578 13.3018 14.7656 13.4854C14.5795 13.6631 14.3371 13.8559 14.085 14.0576L8.2461 18.7285C7.84613 19.0485 7.49087 19.3346 7.19044 19.5332C6.906 19.7212 6.49723 19.9536 6.00196 19.9541C5.38231 19.9547 4.79576 19.6728 4.40919 19.1885C4.10054 18.8015 4.02695 18.3375 3.9961 17.998C3.96352 17.6394 3.96485 17.1831 3.96485 16.6709V7.3291C3.96485 6.81689 3.96352 6.36063 3.9961 6.00195C4.02695 5.66252 4.10054 5.19848 4.40919 4.81152L4.56348 4.63867C4.94311 4.26043 5.45986 4.04538 6.00196 4.0459ZM6.03516 16.6709C6.03516 17.2163 6.03554 17.5578 6.05665 17.7998C6.25886 17.6652 6.52682 17.4534 6.95313 17.1123L12.792 12.4414C13.0621 12.2253 13.2174 12.0984 13.3223 12C13.2174 11.9016 13.0621 11.7747 12.792 11.5586L6.95313 6.8877C6.5265 6.54639 6.25891 6.33386 6.05665 6.19922C6.03546 6.44125 6.03516 6.783 6.03516 7.3291V16.6709Z"/></svg>