<svg xmlns="http://www.w3.org/2000/svg" width="24" height="24" fill="none" viewBox="0 0 24 24"><g clip-path="url(#a)"><path fill="currentColor" d="M20.9629 8.28905C20.9317 8.25539 20.8865 8.20969 20.7998 8.12303L15.8769 3.20018C15.7894 3.11265 15.7437 3.06732 15.7099 3.03612C15.6641 3.03437 15.5999 3.03514 15.4775 3.03514H8.52245C8.39925 3.03514 8.33492 3.03433 8.28905 3.03612C8.25535 3.0673 8.21011 3.11311 8.12303 3.20018L6.39354 4.92968L19.0703 17.6064L20.7998 15.8769C20.8869 15.7898 20.9317 15.7437 20.9629 15.7099C20.9646 15.6641 20.9648 15.5999 20.9648 15.4775V8.52245C20.9648 8.39922 20.9647 8.33492 20.9629 8.28905ZM3.03514 15.4775C3.03514 15.5999 3.03437 15.6641 3.03612 15.7099C3.06732 15.7437 3.11265 15.7894 3.20018 15.8769L8.12303 20.7998C8.20969 20.8865 8.25539 20.9317 8.28905 20.9629C8.33492 20.9647 8.39922 20.9648 8.52245 20.9648H15.4775C15.5999 20.9648 15.6641 20.9646 15.7099 20.9629C15.7437 20.9317 15.7898 20.8869 15.8769 20.7998L17.6064 19.0703L4.92968 6.39354L3.20018 8.12303C3.11311 8.21011 3.0673 8.25535 3.03612 8.28905C3.03433 8.33492 3.03514 8.39925 3.03514 8.52245V15.4775ZM23.0351 15.4775C23.0352 15.6728 23.0414 15.9394 22.9785 16.2012C22.9287 16.4086 22.8468 16.6071 22.7353 16.7891C22.5946 17.0187 22.4018 17.2027 22.2637 17.3408L17.3408 22.2637C17.2027 22.4018 17.0187 22.5946 16.7891 22.7353C16.6071 22.8468 16.4086 22.9287 16.2012 22.9785C15.9394 23.0414 15.6728 23.0352 15.4775 23.0351H8.52245C8.32715 23.0352 8.0606 23.0414 7.79882 22.9785C7.59134 22.9287 7.39286 22.8468 7.21093 22.7353C6.9813 22.5946 6.79728 22.4018 6.65917 22.2637L1.73632 17.3408C1.5982 17.2027 1.40535 17.0187 1.26464 16.7891C1.15316 16.6071 1.07132 16.4086 1.02147 16.2012C0.958624 15.9394 0.964825 15.6728 0.964832 15.4775V8.52245C0.964825 8.32715 0.958624 8.0606 1.02147 7.79882C1.07132 7.59135 1.15316 7.39286 1.26464 7.21093L1.37889 7.04686C1.49893 6.89207 1.63283 6.76265 1.73632 6.65917L6.65917 1.73632C6.79728 1.5982 6.9813 1.40535 7.21093 1.26464L7.35057 1.18651C7.49278 1.11408 7.64328 1.05884 7.79882 1.02147C8.0606 0.958624 8.32715 0.964825 8.52245 0.964832H15.4775C15.624 0.964827 15.8104 0.961652 16.0049 0.986316L16.2012 1.02147L16.3545 1.06444C16.4558 1.09736 16.5545 1.13815 16.6494 1.18651L16.7891 1.26464L16.9531 1.37889C17.1079 1.49893 17.2373 1.63283 17.3408 1.73632L22.2637 6.65917C22.3671 6.76265 22.501 6.89207 22.6211 7.04686L22.7353 7.21093L22.8135 7.35057C22.8859 7.49278 22.9411 7.64328 22.9785 7.79882C23.0414 8.0606 23.0352 8.32715 23.0351 8.52245V15.4775Z"/></g><defs><clipPath id="a"><path fill="#fff" d="M0 0H24V24H0z"/></clipPath></defs></svg>