<svg xmlns="http://www.w3.org/2000/svg" width="24" height="24" fill="none" viewBox="0 0 24 24"><g clip-path="url(#a)"><path fill="currentColor" d="M20.9648 12C20.9648 9.89723 20.2386 7.96547 19.0264 6.43652L13.4639 12L19.0264 17.5625C20.2383 16.0336 20.9648 14.1025 20.9648 12ZM6.43652 19.0264C7.96547 20.2386 9.89723 20.9648 12 20.9648C14.1025 20.9648 16.0336 20.2383 17.5625 19.0264L12 13.4639L6.43652 19.0264ZM12 3.03516C9.89745 3.03516 7.9654 3.76063 6.43652 4.97266L12 10.5361L17.5625 4.97266C16.0337 3.76092 14.1023 3.03516 12 3.03516ZM3.03516 12C3.03516 14.1023 3.76092 16.0337 4.97266 17.5625L10.5361 12L4.97266 6.43652C3.76063 7.9654 3.03516 9.89745 3.03516 12ZM23.0352 12C23.0352 18.0945 18.0945 23.0352 12 23.0352C5.90554 23.0352 0.964844 18.0945 0.964844 12C0.964844 5.90554 5.90554 0.964844 12 0.964844C18.0945 0.964844 23.0352 5.90554 23.0352 12Z"/></g><defs><clipPath id="a"><path fill="#fff" d="M0 0H24V24H0z"/></clipPath></defs></svg>