<svg xmlns="http://www.w3.org/2000/svg" width="24" height="24" fill="none" viewBox="0 0 24 24"><path fill="currentColor" d="M5.96484 13C5.96484 12.467 5.53295 12.0352 5 12.0352C4.46705 12.0352 4.03516 12.467 4.03516 13C4.03516 13.533 4.46705 13.9648 5 13.9648C5.53295 13.9648 5.96484 13.533 5.96484 13ZM10.9648 21V15C10.9648 14.4284 11.4284 13.9648 12 13.9648C12.5716 13.9648 13.0352 14.4284 13.0352 15V21C13.0352 21.5716 12.5716 22.0352 12 22.0352C11.4284 22.0352 10.9648 21.5716 10.9648 21ZM19.9648 15C19.9648 14.467 19.533 14.0352 19 14.0352C18.467 14.0352 18.0352 14.467 18.0352 15C18.0352 15.533 18.467 15.9648 19 15.9648C19.533 15.9648 19.9648 15.533 19.9648 15ZM12.9648 9C12.9648 8.46705 12.533 8.03516 12 8.03516C11.467 8.03516 11.0352 8.46705 11.0352 9C11.0352 9.53295 11.467 9.96484 12 9.96484C12.533 9.96484 12.9648 9.53296 12.9648 9ZM17.9648 9V3C17.9648 2.42839 18.4284 1.96484 19 1.96484C19.5716 1.96484 20.0352 2.42839 20.0352 3V9C20.0352 9.57161 19.5716 10.0352 19 10.0352C18.4284 10.0352 17.9648 9.57161 17.9648 9ZM3.96484 7V3C3.96484 2.42839 4.42839 1.96484 5 1.96484C5.57161 1.96484 6.03516 2.42839 6.03516 3V7C6.03516 7.57161 5.57161 8.03516 5 8.03516C4.42839 8.03516 3.96484 7.57161 3.96484 7ZM22.0352 15C22.0352 16.3121 21.2009 17.426 20.0352 17.8496V21C20.0352 21.5716 19.5716 22.0352 19 22.0352C18.4284 22.0352 17.9648 21.5716 17.9648 21V17.8496C16.7991 17.426 15.9648 16.3121 15.9648 15C15.9648 13.3238 17.3238 11.9648 19 11.9648C20.6762 11.9648 22.0352 13.3238 22.0352 15ZM8.03516 13C8.03516 14.3121 7.20094 15.426 6.03516 15.8496V21C6.03516 21.5716 5.57161 22.0352 5 22.0352C4.42839 22.0352 3.96484 21.5716 3.96484 21V15.8496C2.79906 15.426 1.96484 14.3121 1.96484 13C1.96484 11.3238 3.32382 9.96484 5 9.96484C6.67618 9.96484 8.03516 11.3238 8.03516 13ZM15.0352 9C15.0352 10.6762 13.6762 12.0352 12 12.0352C10.3238 12.0352 8.96484 10.6762 8.96484 9C8.96484 7.68773 9.7989 6.57291 10.9648 6.14941V3C10.9648 2.42839 11.4284 1.96484 12 1.96484C12.5716 1.96484 13.0352 2.42839 13.0352 3V6.14941C14.2011 6.57291 15.0352 7.68773 15.0352 9Z"/></svg>