<svg xmlns="http://www.w3.org/2000/svg" width="24" height="24" fill="none" viewBox="0 0 24 24"><path fill="currentColor" d="M3.96484 21V15.0352H2C1.42839 15.0352 0.964844 14.5716 0.964844 14C0.964844 13.4284 1.42839 12.9648 2 12.9648H8C8.57161 12.9648 9.03516 13.4284 9.03516 14C9.03516 14.5716 8.57161 15.0352 8 15.0352H6.03516V21C6.03516 21.5716 5.57161 22.0352 5 22.0352C4.42839 22.0352 3.96484 21.5716 3.96484 21ZM10.9648 21V12C10.9648 11.4284 11.4284 10.9648 12 10.9648C12.5716 10.9648 13.0352 11.4284 13.0352 12V21C13.0352 21.5716 12.5716 22.0352 12 22.0352C11.4284 22.0352 10.9648 21.5716 10.9648 21ZM17.9648 21V17.0352H16C15.4284 17.0352 14.9648 16.5716 14.9648 16C14.9648 15.4284 15.4284 14.9648 16 14.9648H22C22.5716 14.9648 23.0352 15.4284 23.0352 16C23.0352 16.5716 22.5716 17.0352 22 17.0352H20.0352V21C20.0352 21.5716 19.5716 22.0352 19 22.0352C18.4284 22.0352 17.9648 21.5716 17.9648 21ZM17.9648 12V3C17.9648 2.42839 18.4284 1.96484 19 1.96484C19.5716 1.96484 20.0352 2.42839 20.0352 3V12C20.0352 12.5716 19.5716 13.0352 19 13.0352C18.4284 13.0352 17.9648 12.5716 17.9648 12ZM3.96484 10V3C3.96484 2.42839 4.42839 1.96484 5 1.96484C5.57161 1.96484 6.03516 2.42839 6.03516 3V10C6.03516 10.5716 5.57161 11.0352 5 11.0352C4.42839 11.0352 3.96484 10.5716 3.96484 10ZM10.9648 3C10.9648 2.42839 11.4284 1.96484 12 1.96484C12.5716 1.96484 13.0352 2.42839 13.0352 3V6.96484H15C15.5716 6.96484 16.0352 7.42839 16.0352 8C16.0352 8.57161 15.5716 9.03516 15 9.03516H9C8.42839 9.03516 7.96484 8.57161 7.96484 8C7.96484 7.42839 8.42839 6.96484 9 6.96484H10.9648V3Z"/></svg>