<svg xmlns="http://www.w3.org/2000/svg" width="24" height="24" fill="none" viewBox="0 0 24 24"><path fill="currentColor" d="M8.96484 17.5C8.96484 16.1386 7.86138 15.0352 6.5 15.0352C5.13862 15.0352 4.03516 16.1386 4.03516 17.5C4.03516 18.8614 5.13862 19.9648 6.5 19.9648C7.86138 19.9648 8.96484 18.8614 8.96484 17.5ZM12.9648 6.5C12.9648 5.98727 13.0512 5.49479 13.208 5.03516H5.5C4.6909 5.03516 4.03516 5.6909 4.03516 6.5C4.03516 7.3091 4.6909 7.96484 5.5 7.96484H13.208C13.0512 7.50521 12.9648 7.01273 12.9648 6.5ZM11.0352 17.5C11.0352 18.0127 10.9488 18.5052 10.792 18.9648H18.5C19.3091 18.9648 19.9648 18.3091 19.9648 17.5C19.9648 16.6909 19.3091 16.0352 18.5 16.0352H10.792C10.9488 16.4948 11.0352 16.9873 11.0352 17.5ZM22.0352 17.5C22.0352 19.4523 20.4523 21.0352 18.5 21.0352H9.33887C8.56167 21.6601 7.57489 22.0352 6.5 22.0352C3.99539 22.0352 1.96484 20.0046 1.96484 17.5C1.96484 14.9954 3.99539 12.9648 6.5 12.9648C7.57489 12.9648 8.56167 13.3399 9.33887 13.9648H18.5C20.4523 13.9648 22.0352 15.5477 22.0352 17.5ZM15.0352 6.5C15.0352 7.86138 16.1386 8.96484 17.5 8.96484C18.8614 8.96484 19.9648 7.86138 19.9648 6.5C19.9648 5.13862 18.8614 4.03516 17.5 4.03516C16.1386 4.03516 15.0352 5.13862 15.0352 6.5ZM22.0352 6.5C22.0352 9.00461 20.0046 11.0352 17.5 11.0352C16.4251 11.0352 15.4383 10.6601 14.6611 10.0352H5.5C3.54767 10.0352 1.96484 8.45233 1.96484 6.5C1.96484 4.54767 3.54767 2.96484 5.5 2.96484H14.6611C15.4383 2.33992 16.4251 1.96484 17.5 1.96484C20.0046 1.96484 22.0352 3.99539 22.0352 6.5Z"/></svg>