<svg xmlns="http://www.w3.org/2000/svg" width="24" height="24" fill="none" viewBox="0 0 24 24"><g clip-path="url(#a)"><path fill="currentColor" d="M10.9648 22V18.498L7.73145 21.7314C7.32725 22.1356 6.67275 22.1356 6.26855 21.7314C5.86436 21.3273 5.86436 20.6727 6.26855 20.2686L10.9648 15.5723V13.0352H8.42773L3.73145 17.7314C3.32725 18.1356 2.67275 18.1356 2.26855 17.7314C1.86436 17.3273 1.86436 16.6727 2.26855 16.2686L5.50195 13.0352H2C1.42839 13.0352 0.964844 12.5716 0.964844 12C0.964844 11.4284 1.42839 10.9648 2 10.9648H5.50195L2.26855 7.73145C1.86436 7.32725 1.86436 6.67275 2.26855 6.26855C2.67275 5.86436 3.32725 5.86436 3.73145 6.26855L8.42773 10.9648H10.9648V8.42773L6.26855 3.73145C5.86436 3.32725 5.86436 2.67275 6.26855 2.26855C6.67275 1.86436 7.32725 1.86436 7.73145 2.26855L10.9648 5.50195V2C10.9648 1.42839 11.4284 0.964844 12 0.964844C12.5716 0.964844 13.0352 1.42839 13.0352 2V5.50195L16.2686 2.26855C16.6727 1.86436 17.3273 1.86436 17.7314 2.26855C18.1356 2.67275 18.1356 3.32725 17.7314 3.73145L13.0352 8.42773V10.9648H15.5723L20.2686 6.26855C20.6727 5.86436 21.3273 5.86436 21.7314 6.26855C22.1356 6.67275 22.1356 7.32725 21.7314 7.73145L18.498 10.9648H22C22.5716 10.9648 23.0352 11.4284 23.0352 12C23.0352 12.5716 22.5716 13.0352 22 13.0352H18.498L21.7314 16.2686C22.1356 16.6727 22.1356 17.3273 21.7314 17.7314C21.3273 18.1356 20.6727 18.1356 20.2686 17.7314L15.5723 13.0352H13.0352V15.5723L17.7314 20.2686C18.1356 20.6727 18.1356 21.3273 17.7314 21.7314C17.3273 22.1356 16.6727 22.1356 16.2686 21.7314L13.0352 18.498V22C13.0352 22.5716 12.5716 23.0352 12 23.0352C11.4284 23.0352 10.9648 22.5716 10.9648 22Z"/></g><defs><clipPath id="a"><path fill="#fff" d="M0 0H24V24H0z"/></clipPath></defs></svg>