<svg xmlns="http://www.w3.org/2000/svg" width="24" height="24" fill="none" viewBox="0 0 24 24"><g clip-path="url(#a)"><path fill="currentColor" d="M14.2684 1.26848C14.6726 0.864284 15.3281 0.864284 15.7323 1.26848C16.1359 1.67256 16.1359 2.32729 15.7323 2.73137L13.035 5.42863V10.207L17.1727 7.8173L18.16 4.13371C18.308 3.58165 18.8765 3.25433 19.4286 3.40227C19.9804 3.55041 20.3079 4.11787 20.16 4.66984L19.3289 7.7675L22.4286 8.59855C22.9804 8.74672 23.3079 9.31417 23.16 9.86613C23.012 10.4181 22.4445 10.7455 21.8924 10.5976L18.2079 9.61027L14.0702 11.9999L18.2079 14.3886L21.8924 13.4023C22.4445 13.2543 23.012 13.5816 23.16 14.1337C23.3079 14.6857 22.9804 15.2531 22.4286 15.4013L19.3289 16.2314L20.16 19.33C20.3079 19.882 19.9804 20.4494 19.4286 20.5976C18.8765 20.7455 18.308 20.4181 18.16 19.8661L17.1727 16.1816L13.035 13.7919V18.5712L15.7323 21.2685C16.1359 21.6726 16.1359 22.3273 15.7323 22.7314C15.3281 23.1356 14.6726 23.1356 14.2684 22.7314L11.9998 20.4628L9.73226 22.7314C9.32807 23.1356 8.67259 23.1356 8.2684 22.7314C7.86427 22.3272 7.86427 21.6727 8.2684 21.2685L10.9647 18.5722V13.7919L6.82601 16.1816L5.83969 19.8661C5.69169 20.4181 5.12411 20.7453 4.57211 20.5976C4.01997 20.4496 3.69174 19.8821 3.83969 19.33L4.66976 16.2314L1.57211 15.4013C1.01997 15.2533 0.691742 14.6858 0.839687 14.1337C0.987682 13.5818 1.55526 13.2545 2.10726 13.4023L5.79184 14.3886L9.92953 11.9999L5.79086 9.61027L2.10824 10.5976C1.55611 10.7456 0.987671 10.4183 0.839687 9.86613C0.691726 9.31402 1.01999 8.74654 1.57211 8.59855L4.66976 7.7675L3.83969 4.66984C3.6918 4.11772 4.01998 3.55019 4.57211 3.40227C5.1241 3.25444 5.69163 3.58181 5.83969 4.13371L6.82601 7.8173L10.9647 10.207V5.42766L8.2684 2.73137C7.86427 2.32719 7.86427 1.67266 8.2684 1.26848C8.67259 0.864284 9.32807 0.864284 9.73226 1.26848L11.9998 3.53605L14.2684 1.26848Z"/></g><defs><clipPath id="a"><path fill="#fff" d="M0 0H24V24H0z"/></clipPath></defs></svg>