<svg xmlns="http://www.w3.org/2000/svg" width="24" height="24" fill="none" viewBox="0 0 24 24"><path fill="currentColor" d="M1.96484 21V3C1.96484 2.42839 2.42839 1.96484 3 1.96484C3.57161 1.96484 4.03516 2.42839 4.03516 3V21C4.03516 21.5716 3.57161 22.0352 3 22.0352C2.42839 22.0352 1.96484 21.5716 1.96484 21ZM19.9648 21V3C19.9648 2.42839 20.4284 1.96484 21 1.96484C21.5716 1.96484 22.0352 2.42839 22.0352 3V21C22.0352 21.5716 21.5716 22.0352 21 22.0352C20.4284 22.0352 19.9648 21.5716 19.9648 21ZM15.4258 8.13867C15.9014 7.8216 16.5443 7.95017 16.8613 8.42578L18.8613 11.4258C19.0931 11.7734 19.0931 12.2266 18.8613 12.5742L16.8613 15.5742C16.5443 16.0498 15.9014 16.1784 15.4258 15.8613C14.9502 15.5443 14.8216 14.9014 15.1387 14.4258L16.0654 13.0352H7.93457L8.86133 14.4258C9.1784 14.9014 9.04983 15.5443 8.57422 15.8613C8.09861 16.1784 7.45575 16.0498 7.13867 15.5742L5.13867 12.5742C4.9069 12.2266 4.9069 11.7734 5.13867 11.4258L7.13867 8.42578C7.45575 7.95017 8.09861 7.8216 8.57422 8.13867C9.04983 8.45575 9.1784 9.09861 8.86133 9.57422L7.93457 10.9648H16.0654L15.1387 9.57422C14.8216 9.09861 14.9502 8.45575 15.4258 8.13867Z"/></svg>