<svg xmlns="http://www.w3.org/2000/svg" width="24" height="24" fill="none" viewBox="0 0 24 24"><path fill="currentColor" d="M21 19.9648C21.5716 19.9648 22.0352 20.4284 22.0352 21C22.0352 21.5716 21.5716 22.0352 21 22.0352H3C2.42839 22.0352 1.96484 21.5716 1.96484 21C1.96484 20.4284 2.42839 19.9648 3 19.9648H21ZM15 5.46484C15.5716 5.46484 16.0352 5.92839 16.0352 6.5C16.0352 7.07161 15.5716 7.53516 15 7.53516H13.0352V16.4648H15C15.5716 16.4648 16.0352 16.9284 16.0352 17.5C16.0352 18.0716 15.5716 18.5352 15 18.5352H9C8.42839 18.5352 7.96484 18.0716 7.96484 17.5C7.96484 16.9284 8.42839 16.4648 9 16.4648H10.9648V7.53516H9C8.42839 7.53516 7.96484 7.07161 7.96484 6.5C7.96484 5.92839 8.42839 5.46484 9 5.46484H15ZM21 1.96484C21.5716 1.96484 22.0352 2.42839 22.0352 3C22.0352 3.57161 21.5716 4.03516 21 4.03516H3C2.42839 4.03516 1.96484 3.57161 1.96484 3C1.96484 2.42839 2.42839 1.96484 3 1.96484H21Z"/></svg>