<svg xmlns="http://www.w3.org/2000/svg" width="24" height="24" fill="none" viewBox="0 0 24 24"><path fill="currentColor" d="M1.96484 21V3C1.96484 2.42839 2.42839 1.96484 3 1.96484C3.57161 1.96484 4.03516 2.42839 4.03516 3V21C4.03516 21.5716 3.57161 22.0352 3 22.0352C2.42839 22.0352 1.96484 21.5716 1.96484 21ZM19.9648 21V3C19.9648 2.42839 20.4284 1.96484 21 1.96484C21.5716 1.96484 22.0352 2.42839 22.0352 3V21C22.0352 21.5716 21.5716 22.0352 21 22.0352C20.4284 22.0352 19.9648 21.5716 19.9648 21ZM16.4648 15V13.0352H7.53516V15C7.53516 15.5716 7.07161 16.0352 6.5 16.0352C5.92839 16.0352 5.46484 15.5716 5.46484 15V9C5.46484 8.42839 5.92839 7.96484 6.5 7.96484C7.07161 7.96484 7.53516 8.42839 7.53516 9V10.9648H16.4648V9C16.4648 8.42839 16.9284 7.96484 17.5 7.96484C18.0716 7.96484 18.5352 8.42839 18.5352 9V15C18.5352 15.5716 18.0716 16.0352 17.5 16.0352C16.9284 16.0352 16.4648 15.5716 16.4648 15Z"/></svg>