<svg xmlns="http://www.w3.org/2000/svg" width="24" height="24" fill="none" viewBox="0 0 24 24"><path fill="currentColor" d="M21 19.9648C21.5716 19.9648 22.0352 20.4284 22.0352 21C22.0352 21.5716 21.5716 22.0352 21 22.0352H3C2.42839 22.0352 1.96484 21.5716 1.96484 21C1.96484 20.4284 2.42839 19.9648 3 19.9648H21ZM11.4258 5.13867C11.7734 4.9069 12.2266 4.9069 12.5742 5.13867L15.5742 7.13867C16.0498 7.45575 16.1784 8.09861 15.8613 8.57422C15.5443 9.04983 14.9014 9.1784 14.4258 8.86133L13.0352 7.93359V16.0654L14.4258 15.1387C14.9014 14.8216 15.5443 14.9502 15.8613 15.4258C16.1784 15.9014 16.0498 16.5443 15.5742 16.8613L12.5742 18.8613C12.2266 19.0931 11.7734 19.0931 11.4258 18.8613L8.42578 16.8613C7.95017 16.5443 7.8216 15.9014 8.13867 15.4258C8.45575 14.9502 9.09861 14.8216 9.57422 15.1387L10.9648 16.0654V7.93359L9.57422 8.86133C9.09861 9.1784 8.45575 9.04983 8.13867 8.57422C7.8216 8.09861 7.95017 7.45575 8.42578 7.13867L11.4258 5.13867ZM21 1.96484C21.5716 1.96484 22.0352 2.42839 22.0352 3C22.0352 3.57161 21.5716 4.03516 21 4.03516H3C2.42839 4.03516 1.96484 3.57161 1.96484 3C1.96484 2.42839 2.42839 1.96484 3 1.96484H21Z"/></svg>