<svg xmlns="http://www.w3.org/2000/svg" width="24" height="24" fill="none" viewBox="0 0 24 24"><g clip-path="url(#a)"><path fill="currentColor" d="M20.9648 6.7998C20.9648 5.94287 20.9643 5.36234 20.9277 4.91406C20.8921 4.47781 20.8277 4.25807 20.751 4.10742C20.5626 3.73794 20.2621 3.43737 19.8926 3.24902C19.7419 3.17227 19.5222 3.10791 19.0859 3.07227C18.6377 3.03565 18.0571 3.03516 17.2002 3.03516H6.7998C5.94287 3.03516 5.36234 3.03565 4.91406 3.07227C4.47781 3.10791 4.25807 3.17227 4.10742 3.24902C3.73794 3.43737 3.43737 3.73794 3.24902 4.10742C3.17227 4.25807 3.10791 4.47781 3.07227 4.91406C3.03565 5.36234 3.03516 5.94287 3.03516 6.7998V17.2002C3.03516 18.0571 3.03565 18.6377 3.07227 19.0859C3.10791 19.5222 3.17227 19.7419 3.24902 19.8926C3.43737 20.2621 3.73794 20.5626 4.10742 20.751C4.25807 20.8277 4.47781 20.8921 4.91406 20.9277C5.36234 20.9643 5.94287 20.9648 6.7998 20.9648H17.2002C18.0571 20.9648 18.6377 20.9643 19.0859 20.9277C19.5222 20.8921 19.7419 20.8277 19.8926 20.751C20.2621 20.5626 20.5626 20.2621 20.751 19.8926C20.8277 19.7419 20.8921 19.5222 20.9277 19.0859C20.9643 18.6377 20.9648 18.0571 20.9648 17.2002V6.7998ZM6.00977 16.9648C6.58138 16.9648 7.04492 17.4284 7.04492 18C7.04492 18.5716 6.58138 19.0352 6.00977 19.0352H6C5.42839 19.0352 4.96484 18.5716 4.96484 18C4.96484 17.4284 5.42839 16.9648 6 16.9648H6.00977ZM18.0098 16.9648C18.5814 16.9648 19.0449 17.4284 19.0449 18C19.0449 18.5716 18.5814 19.0352 18.0098 19.0352H18C17.4284 19.0352 16.9648 18.5716 16.9648 18C16.9648 17.4284 17.4284 16.9648 18 16.9648H18.0098ZM15.9648 12C15.9648 9.81019 14.1898 8.03516 12 8.03516C9.81019 8.03516 8.03516 9.81019 8.03516 12C8.03516 14.1898 9.81019 15.9648 12 15.9648C14.1898 15.9648 15.9648 14.1898 15.9648 12ZM12 10.4648C12.8478 10.4648 13.5352 11.1522 13.5352 12C13.5352 12.8478 12.8478 13.5352 12 13.5352C11.1522 13.5352 10.4648 12.8478 10.4648 12C10.4648 11.1522 11.1522 10.4648 12 10.4648ZM6.00977 4.96484C6.58138 4.96484 7.04492 5.42839 7.04492 6C7.04492 6.57161 6.58138 7.03516 6.00977 7.03516H6C5.42839 7.03516 4.96484 6.57161 4.96484 6C4.96484 5.42839 5.42839 4.96484 6 4.96484H6.00977ZM18.0098 4.96484C18.5814 4.96484 19.0449 5.42839 19.0449 6C19.0449 6.57161 18.5814 7.03516 18.0098 7.03516H18C17.4284 7.03516 16.9648 6.57161 16.9648 6C16.9648 5.42839 17.4284 4.96484 18 4.96484H18.0098ZM18.0352 12C18.0352 15.333 15.333 18.0352 12 18.0352C8.66696 18.0352 5.96484 15.333 5.96484 12C5.96484 8.66696 8.66696 5.96484 12 5.96484C15.333 5.96484 18.0352 8.66696 18.0352 12ZM23.0352 17.2002C23.0352 18.0231 23.0353 18.7027 22.9902 19.2549C22.9441 19.8191 22.8449 20.341 22.5947 20.832C22.2079 21.591 21.591 22.2079 20.832 22.5947C20.341 22.8449 19.8191 22.9441 19.2549 22.9902C18.7027 23.0353 18.0231 23.0352 17.2002 23.0352H6.7998C5.97689 23.0352 5.29725 23.0353 4.74512 22.9902C4.18095 22.9441 3.65899 22.8449 3.16797 22.5947C2.409 22.2079 1.79208 21.591 1.40527 20.832C1.15509 20.341 1.05588 19.8191 1.00977 19.2549C0.964654 18.7027 0.964844 18.0231 0.964844 17.2002V6.7998C0.964844 5.97689 0.964654 5.29725 1.00977 4.74512C1.05588 4.18095 1.15509 3.65899 1.40527 3.16797C1.79208 2.409 2.409 1.79208 3.16797 1.40527C3.65899 1.15509 4.18095 1.05588 4.74512 1.00977C5.29725 0.964654 5.97689 0.964844 6.7998 0.964844H17.2002C18.0231 0.964844 18.7027 0.964654 19.2549 1.00977C19.8191 1.05588 20.341 1.15509 20.832 1.40527C21.591 1.79208 22.2079 2.409 22.5947 3.16797C22.8449 3.65899 22.9441 4.18095 22.9902 4.74512C23.0353 5.29725 23.0352 5.97689 23.0352 6.7998V17.2002Z"/></g><defs><clipPath id="a"><path fill="#fff" d="M0 0H24V24H0z"/></clipPath></defs></svg>