<svg xmlns="http://www.w3.org/2000/svg" width="24" height="24" fill="none" viewBox="0 0 24 24"><path fill="currentColor" d="M16.9648 19.0303C16.725 19.0318 16.4704 19.0352 16.2002 19.0352H7.7998C7.52964 19.0352 7.27496 19.0318 7.03516 19.0303V20.4004C7.03516 20.6825 7.03582 20.8415 7.04395 20.9551C7.15762 20.9633 7.31662 20.9648 7.59961 20.9648H16.4004C16.6826 20.9648 16.8415 20.9632 16.9551 20.9551C16.9632 20.8415 16.9648 20.6826 16.9648 20.4004V19.0303ZM15.9648 10C15.9648 7.81019 14.1898 6.03516 12 6.03516C9.81019 6.03516 8.03516 7.81019 8.03516 10C8.03516 12.1898 9.81019 13.9648 12 13.9648C14.1898 13.9648 15.9648 12.1898 15.9648 10ZM12 8.46484C12.8478 8.46484 13.5352 9.15224 13.5352 10C13.5352 10.8478 12.8478 11.5352 12 11.5352C11.1522 11.5352 10.4648 10.8478 10.4648 10C10.4648 9.15224 11.1522 8.46484 12 8.46484ZM19.9648 6.7998C19.9648 5.94287 19.9643 5.36234 19.9277 4.91406C19.8921 4.47781 19.8277 4.25807 19.751 4.10742C19.5626 3.73794 19.2621 3.43737 18.8926 3.24902C18.7419 3.17227 18.5222 3.10791 18.0859 3.07227C17.6377 3.03565 17.0571 3.03516 16.2002 3.03516H7.7998C6.94287 3.03516 6.36234 3.03565 5.91406 3.07227C5.47781 3.10791 5.25807 3.17227 5.10742 3.24902C4.73794 3.43737 4.43737 3.73794 4.24902 4.10742C4.17227 4.25807 4.10791 4.47781 4.07227 4.91406C4.03565 5.36234 4.03516 5.94287 4.03516 6.7998V13.2002C4.03516 14.0571 4.03565 14.6377 4.07227 15.0859C4.10791 15.5222 4.17227 15.7419 4.24902 15.8926C4.43737 16.2621 4.73794 16.5626 5.10742 16.751C5.25807 16.8277 5.47781 16.8921 5.91406 16.9277C6.36234 16.9643 6.94287 16.9648 7.7998 16.9648H16.2002C17.0571 16.9648 17.6377 16.9643 18.0859 16.9277C18.5222 16.8921 18.7419 16.8277 18.8926 16.751C19.2621 16.5626 19.5626 16.2621 19.751 15.8926C19.8277 15.7419 19.8921 15.5222 19.9277 15.0859C19.9643 14.6377 19.9648 14.0571 19.9648 13.2002V6.7998ZM18.0352 10C18.0352 13.333 15.333 16.0352 12 16.0352C8.66696 16.0352 5.96484 13.333 5.96484 10C5.96484 6.66696 8.66696 3.96484 12 3.96484C15.333 3.96484 18.0352 6.66696 18.0352 10ZM22.0352 13.2002C22.0352 14.0231 22.0353 14.7027 21.9902 15.2549C21.9441 15.8191 21.8449 16.341 21.5947 16.832C21.2079 17.591 20.591 18.2079 19.832 18.5947C19.5755 18.7254 19.3101 18.8137 19.0352 18.876V20.4004C19.0352 20.663 19.0354 20.9221 19.0176 21.1406C18.9987 21.3713 18.9546 21.6467 18.8135 21.9238C18.6184 22.3067 18.3067 22.6184 17.9238 22.8135C17.6467 22.9546 17.3713 22.9987 17.1406 23.0176C16.9221 23.0354 16.663 23.0352 16.4004 23.0352H7.59961C7.33696 23.0352 7.07785 23.0354 6.85938 23.0176C6.62866 22.9987 6.3533 22.9546 6.07617 22.8135C5.69326 22.6184 5.38163 22.3067 5.18652 21.9238C5.04535 21.6467 5.00127 21.3713 4.98242 21.1406C4.9646 20.9221 4.96484 20.663 4.96484 20.4004V18.876C4.68991 18.8137 4.42447 18.7254 4.16797 18.5947C3.409 18.2079 2.79208 17.591 2.40527 16.832C2.15509 16.341 2.05588 15.8191 2.00977 15.2549C1.96465 14.7027 1.96484 14.0231 1.96484 13.2002V6.7998C1.96484 5.97689 1.96465 5.29725 2.00977 4.74512C2.05588 4.18095 2.15509 3.65899 2.40527 3.16797C2.79208 2.409 3.409 1.79208 4.16797 1.40527C4.65899 1.15509 5.18095 1.05588 5.74512 1.00977C6.29725 0.964654 6.97689 0.964844 7.7998 0.964844H16.2002C17.0231 0.964844 17.7027 0.964654 18.2549 1.00977C18.8191 1.05588 19.341 1.15509 19.832 1.40527C20.591 1.79208 21.2079 2.409 21.5947 3.16797C21.8449 3.65899 21.9441 4.18095 21.9902 4.74512C22.0353 5.29725 22.0352 5.97689 22.0352 6.7998V13.2002Z"/></svg>