<svg xmlns="http://www.w3.org/2000/svg" width="24" height="24" fill="none" viewBox="0 0 24 24"><g clip-path="url(#a)"><path fill="currentColor" d="M20.9648 12C20.9648 7.04877 16.9512 3.03516 12 3.03516C7.04877 3.03516 3.03516 7.04877 3.03516 12C3.03516 16.9512 7.04877 20.9648 12 20.9648C16.9512 20.9648 20.9648 16.9512 20.9648 12ZM3.96484 12C3.96484 7.56239 7.56239 3.96484 12 3.96484C12.4833 3.96484 12.9577 4.00759 13.4189 4.08984C13.9816 4.19024 14.3562 4.72832 14.2559 5.29102C14.1554 5.85346 13.6182 6.22809 13.0557 6.12793C12.7138 6.06697 12.3609 6.03516 12 6.03516C8.70562 6.03516 6.03516 8.70562 6.03516 12C6.03516 13.2687 6.42987 14.4424 7.10352 15.4082C7.43037 15.877 7.31542 16.5216 6.84668 16.8486C6.37785 17.1757 5.73327 17.0606 5.40625 16.5918C4.49815 15.2899 3.96484 13.7058 3.96484 12ZM17.9648 12C17.9648 11.5598 17.9179 11.1319 17.8281 10.7207C17.7062 10.1623 18.0597 9.61122 18.6182 9.48926C19.1766 9.36733 19.7277 9.72084 19.8496 10.2793C19.9708 10.8346 20.0352 11.4104 20.0352 12C20.0352 13.7058 19.5018 15.2899 18.5938 16.5918C18.2667 17.0606 17.6221 17.1756 17.1533 16.8486C16.6846 16.5217 16.5697 15.877 16.8965 15.4082C17.5701 14.4424 17.9648 13.2687 17.9648 12ZM15.7676 6.76855C16.1718 6.36436 16.8273 6.36436 17.2314 6.76855C17.6356 7.17274 17.6356 7.82726 17.2314 8.23145L13.9688 11.4932C14.0104 11.6554 14.0352 11.8248 14.0352 12C14.0352 13.1239 13.1239 14.0352 12 14.0352C10.8761 14.0352 9.96484 13.1239 9.96484 12C9.96484 10.8761 10.8761 9.96484 12 9.96484C12.1745 9.96484 12.3433 9.98898 12.5049 10.0303L15.7676 6.76855ZM23.0352 12C23.0352 18.0945 18.0945 23.0352 12 23.0352C5.90554 23.0352 0.964844 18.0945 0.964844 12C0.964844 5.90554 5.90554 0.964844 12 0.964844C18.0945 0.964844 23.0352 5.90554 23.0352 12Z"/></g><defs><clipPath id="a"><path fill="#fff" d="M0 0H24V24H0z"/></clipPath></defs></svg>