<svg xmlns="http://www.w3.org/2000/svg" width="24" height="24" fill="none" viewBox="0 0 24 24"><g clip-path="url(#a)"><path fill="currentColor" d="M12 0.964844C18.0945 0.964844 23.0352 5.90554 23.0352 12C23.0352 14.9879 21.8448 17.6957 19.916 19.6826C19.884 19.7268 19.8504 19.7707 19.8105 19.8105C19.7707 19.8504 19.7268 19.884 19.6826 19.916C17.6957 21.8448 14.9879 23.0352 12 23.0352C9.0119 23.0352 6.30342 21.845 4.31641 19.916C4.27245 19.8842 4.22906 19.8502 4.18945 19.8105C4.15036 19.7715 4.11649 19.7289 4.08496 19.6855C2.15508 17.6984 0.964844 14.9889 0.964844 12C0.964844 5.90554 5.90554 0.964844 12 0.964844ZM12.9648 12C12.9648 11.467 12.533 11.0352 12 11.0352C11.467 11.0352 11.0352 11.467 11.0352 12C11.0352 12.533 11.467 12.9648 12 12.9648C12.533 12.9648 12.9648 12.533 12.9648 12ZM10.9648 4.5V3.0957C9.24516 3.29346 7.674 3.97705 6.3916 5.00684L7.38965 6.00488C7.79384 6.40908 7.79384 7.06456 7.38965 7.46875C6.98543 7.87258 6.32985 7.87282 5.92578 7.46875L4.9375 6.48047C3.94676 7.74638 3.28993 9.28449 3.09668 10.9648H4.5C5.07161 10.9648 5.53516 11.4284 5.53516 12C5.53516 12.5716 5.07161 13.0352 4.5 13.0352H3.09668C3.29216 14.7349 3.96277 16.2884 4.97266 17.5625L5.96484 16.5713C6.36903 16.1671 7.02452 16.1671 7.42871 16.5713C7.8329 16.9755 7.8329 17.631 7.42871 18.0352L6.43652 19.0264C7.71083 20.0367 9.26466 20.7078 10.9648 20.9033V19.5C10.9648 18.9284 11.4284 18.4648 12 18.4648C12.5716 18.4648 13.0352 18.9284 13.0352 19.5V20.9033C14.7353 20.7078 16.2892 20.0367 17.5635 19.0264L16.5732 18.0361C16.169 17.6319 16.169 16.9774 16.5732 16.5732C16.9774 16.169 17.6319 16.169 18.0361 16.5732L19.0264 17.5635C20.0367 16.2892 20.7078 14.7353 20.9033 13.0352H19.5C18.9284 13.0352 18.4648 12.5716 18.4648 12C18.4648 11.4284 18.9284 10.9648 19.5 10.9648H20.9033C20.7097 9.28135 20.0505 7.74089 19.0566 6.47363L14.749 10.7207C14.9304 11.1099 15.0352 11.5423 15.0352 12C15.0352 13.6762 13.6762 15.0352 12 15.0352C10.3238 15.0352 8.96484 13.6762 8.96484 12C8.96484 10.3238 10.3238 8.96484 12 8.96484C12.4609 8.96484 12.8968 9.07005 13.2881 9.25391L17.6006 5.00195C16.3195 3.97536 14.7517 3.29309 13.0352 3.0957V4.5C13.0352 5.07161 12.5716 5.53516 12 5.53516C11.4284 5.53516 10.9648 5.07161 10.9648 4.5Z"/></g><defs><clipPath id="a"><path fill="#fff" d="M0 0H24V24H0z"/></clipPath></defs></svg>