<svg xmlns="http://www.w3.org/2000/svg" width="24" height="24" fill="none" viewBox="0 0 24 24"><g clip-path="url(#a)"><path fill="currentColor" d="M20.9648 7.2002C20.9648 6.62309 20.9644 6.25228 20.9414 5.9707C20.9194 5.7012 20.8816 5.60521 20.8594 5.56152C20.7669 5.38032 20.6197 5.23308 20.4385 5.14062C20.3948 5.11837 20.2988 5.08061 20.0293 5.05859C19.7477 5.03559 19.3769 5.03516 18.7998 5.03516H5.2002C4.62309 5.03516 4.25228 5.03559 3.9707 5.05859C3.7012 5.08061 3.60521 5.11837 3.56152 5.14062C3.38033 5.23308 3.23308 5.38033 3.14062 5.56152C3.11837 5.60521 3.08061 5.7012 3.05859 5.9707C3.03559 6.25228 3.03516 6.62309 3.03516 7.2002V13.7998C3.03516 14.3769 3.03559 14.7477 3.05859 15.0293C3.08061 15.2988 3.11837 15.3948 3.14062 15.4385C3.23308 15.6197 3.38033 15.7669 3.56152 15.8594C3.60521 15.8816 3.7012 15.9194 3.9707 15.9414C4.25228 15.9644 4.62309 15.9648 5.2002 15.9648H18.7998C19.3769 15.9648 19.7477 15.9644 20.0293 15.9414C20.2988 15.9194 20.3948 15.8816 20.4385 15.8594C20.6197 15.7669 20.7669 15.6197 20.8594 15.4385C20.8816 15.3948 20.9194 15.2988 20.9414 15.0293C20.9644 14.7477 20.9648 14.3769 20.9648 13.7998V7.2002ZM23.0352 13.7998C23.0352 14.3428 23.0354 14.8128 23.0039 15.1982C22.9714 15.5956 22.8998 15.9939 22.7041 16.3779C22.4131 16.9489 21.9489 17.4131 21.3779 17.7041C20.9939 17.8998 20.5956 17.9714 20.1982 18.0039C19.8128 18.0354 19.3428 18.0352 18.7998 18.0352H17.498L20.7314 21.2686C21.1356 21.6727 21.1356 22.3273 20.7314 22.7314C20.3273 23.1356 19.6727 23.1356 19.2686 22.7314L14.5723 18.0352H13.0352V22C13.0352 22.5716 12.5716 23.0352 12 23.0352C11.4284 23.0352 10.9648 22.5716 10.9648 22V18.0352H9.42773L4.73145 22.7314C4.32725 23.1356 3.67275 23.1356 3.26855 22.7314C2.86436 22.3273 2.86436 21.6727 3.26855 21.2686L6.50195 18.0352H5.2002C4.65722 18.0352 4.18718 18.0354 3.80176 18.0039C3.40438 17.9714 3.00608 17.8998 2.62207 17.7041C2.05107 17.4131 1.58686 16.9489 1.2959 16.3779C1.10024 15.9939 1.02859 15.5956 0.996094 15.1982C0.964603 14.8128 0.964844 14.3428 0.964844 13.7998V7.2002C0.964844 6.65722 0.964603 6.18718 0.996094 5.80176C1.02859 5.40438 1.10024 5.00608 1.2959 4.62207C1.58686 4.05107 2.05107 3.58686 2.62207 3.2959C3.00608 3.10024 3.40438 3.02859 3.80176 2.99609C4.18718 2.9646 4.65722 2.96484 5.2002 2.96484H10.9648V2C10.9648 1.42839 11.4284 0.964844 12 0.964844C12.5716 0.964844 13.0352 1.42839 13.0352 2V2.96484H18.7998C19.3428 2.96484 19.8128 2.9646 20.1982 2.99609C20.5956 3.02859 20.9939 3.10024 21.3779 3.2959C21.9489 3.58686 22.4131 4.05108 22.7041 4.62207C22.8998 5.00608 22.9714 5.40438 23.0039 5.80176C23.0354 6.18718 23.0352 6.65722 23.0352 7.2002V13.7998Z"/></g><defs><clipPath id="a"><path fill="#fff" d="M0 0H24V24H0z"/></clipPath></defs></svg>