<svg xmlns="http://www.w3.org/2000/svg" width="24" height="24" fill="none" viewBox="0 0 24 24"><g clip-path="url(#a)"><path fill="currentColor" d="M12 0.964844C12.4283 0.964844 12.8121 1.2292 12.9658 1.62891L14.9775 6.85938C15.2785 7.64184 15.3721 7.86194 15.498 8.03906C15.6253 8.21808 15.7819 8.37466 15.9609 8.50195C16.1381 8.62786 16.3582 8.72151 17.1406 9.02246L22.3711 11.0342C22.7708 11.1879 23.0352 11.5717 23.0352 12C23.0352 12.4283 22.7708 12.8121 22.3711 12.9658L17.1406 14.9775C16.3582 15.2785 16.1381 15.3721 15.9609 15.498C15.7819 15.6253 15.6253 15.7819 15.498 15.9609C15.3721 16.1381 15.2785 16.3582 14.9775 17.1406L12.9658 22.3711C12.8121 22.7708 12.4283 23.0352 12 23.0352C11.5717 23.0352 11.1879 22.7708 11.0342 22.3711L9.02246 17.1406C8.72151 16.3582 8.62786 16.1381 8.50195 15.9609C8.37466 15.7819 8.21808 15.6253 8.03906 15.498C7.86194 15.3721 7.64184 15.2785 6.85938 14.9775L1.62891 12.9658C1.2292 12.8121 0.964844 12.4283 0.964844 12C0.964844 11.5717 1.2292 11.1879 1.62891 11.0342L6.85938 9.02246C7.64184 8.72151 7.86194 8.62786 8.03906 8.50195C8.21808 8.37466 8.37466 8.21808 8.50195 8.03906C8.62786 7.86194 8.72151 7.64184 9.02246 6.85938L11.0342 1.62891L11.1025 1.48535C11.2849 1.16714 11.6253 0.964844 12 0.964844ZM10.9541 7.60254C10.6911 8.28628 10.502 8.79966 10.1895 9.23926C9.92807 9.60685 9.60685 9.92807 9.23926 10.1895C8.79966 10.502 8.28628 10.6911 7.60254 10.9541L4.88184 12L7.60254 13.0459C8.28628 13.3089 8.79966 13.498 9.23926 13.8105C9.60685 14.0719 9.92807 14.3932 10.1895 14.7607C10.502 15.2003 10.6911 15.7137 10.9541 16.3975L12 19.1172L13.0459 16.3975C13.3089 15.7137 13.498 15.2003 13.8105 14.7607C14.0719 14.3932 14.3932 14.0719 14.7607 13.8105C15.2003 13.498 15.7137 13.3089 16.3975 13.0459L19.1172 12L16.3975 10.9541C15.7137 10.6911 15.2003 10.502 14.7607 10.1895C14.3932 9.92807 14.0719 9.60685 13.8105 9.23926C13.498 8.79966 13.3089 8.28628 13.0459 7.60254L12 4.88184L10.9541 7.60254Z"/></g><defs><clipPath id="a"><path fill="#fff" d="M0 0H24V24H0z"/></clipPath></defs></svg>