<svg xmlns="http://www.w3.org/2000/svg" width="24" height="24" fill="none" viewBox="0 0 24 24"><g clip-path="url(#a)"><path fill="currentColor" d="M6.5 11.9648C6.89203 11.9648 7.25046 12.1865 7.42578 12.5371L8.20996 14.1064C8.49295 14.6724 8.57765 14.8315 8.67969 14.9639C8.7827 15.0975 8.90253 15.2173 9.03613 15.3203C9.1685 15.4223 9.32758 15.507 9.89355 15.79L11.4629 16.5742C11.8135 16.7495 12.0352 17.108 12.0352 17.5C12.0352 17.892 11.8135 18.2505 11.4629 18.4258L9.89355 19.21C9.32758 19.493 9.1685 19.5777 9.03613 19.6797C8.90252 19.7827 8.78269 19.9025 8.67969 20.0361C8.57765 20.1685 8.49295 20.3276 8.20996 20.8936L7.42578 22.4629C7.25046 22.8135 6.89203 23.0352 6.5 23.0352C6.10797 23.0352 5.74954 22.8135 5.57422 22.4629L4.79004 20.8936C4.50705 20.3276 4.42235 20.1685 4.32031 20.0361C4.21731 19.9025 4.09748 19.7827 3.96387 19.6797C3.8315 19.5777 3.67242 19.493 3.10645 19.21L1.53711 18.4258C1.18647 18.2505 0.964844 17.892 0.964844 17.5C0.964844 17.108 1.18647 16.7495 1.53711 16.5742L3.10645 15.79C3.67242 15.507 3.8315 15.4223 3.96387 15.3203C4.09747 15.2173 4.2173 15.0975 4.32031 14.9639C4.42235 14.8315 4.50705 14.6724 4.79004 14.1064L5.57422 12.5371C5.74954 12.1865 6.10797 11.9648 6.5 11.9648ZM6.5 15.3076C6.31732 15.67 6.16321 15.9639 5.95996 16.2275C5.74832 16.5021 5.50211 16.7483 5.22754 16.96C4.96386 17.1632 4.67002 17.3173 4.30762 17.5C4.67002 17.6827 4.96386 17.8368 5.22754 18.04C5.5021 18.2517 5.74831 18.4979 5.95996 18.7725C6.16307 19.036 6.31749 19.3294 6.5 19.6914C6.68251 19.3294 6.83693 19.036 7.04004 18.7725C7.25169 18.4979 7.4979 18.2517 7.77246 18.04C8.03595 17.8369 8.32936 17.6825 8.69141 17.5C8.32936 17.3175 8.03595 17.1631 7.77246 16.96C7.49789 16.7483 7.25168 16.5021 7.04004 16.2275C6.83679 15.9639 6.68268 15.67 6.5 15.3076ZM15 0.964844C15.4283 0.964844 15.8121 1.2292 15.9658 1.62891L17.1445 4.69336C17.4454 5.4757 17.5381 5.69593 17.6641 5.87305C17.7914 6.05207 17.9479 6.20864 18.127 6.33594C18.3041 6.46187 18.5243 6.55457 19.3066 6.85547L22.3711 8.03418C22.7708 8.18791 23.0352 8.57175 23.0352 9C23.0352 9.42825 22.7708 9.81209 22.3711 9.96582L19.3066 11.1445C18.5243 11.4454 18.3041 11.5381 18.127 11.6641C17.9479 11.7914 17.7914 11.9479 17.6641 12.127C17.5381 12.3041 17.4454 12.5243 17.1445 13.3066L15.9658 16.3711C15.8121 16.7708 15.4283 17.0352 15 17.0352C14.5717 17.0352 14.1879 16.7708 14.0342 16.3711L12.8555 13.3066C12.5546 12.5243 12.4619 12.3041 12.3359 12.127C12.2086 11.9479 12.0521 11.7914 11.873 11.6641C11.6959 11.5381 11.4757 11.4454 10.6934 11.1445L7.62891 9.96582C7.2292 9.81209 6.96484 9.42825 6.96484 9C6.96484 8.57175 7.2292 8.18791 7.62891 8.03418L10.6934 6.85547C11.4757 6.55457 11.6959 6.46187 11.873 6.33594C12.0521 6.20864 12.2086 6.05207 12.3359 5.87305C12.4619 5.69593 12.5546 5.4757 12.8555 4.69336L14.0342 1.62891L14.1025 1.48535C14.2849 1.16714 14.6253 0.964844 15 0.964844ZM14.7871 5.43555C14.5241 6.11927 14.335 6.63267 14.0225 7.07227C13.7611 7.43987 13.4399 7.76107 13.0723 8.02246C12.6327 8.33503 12.1193 8.52414 11.4355 8.78711L10.8818 9L11.4355 9.21289C12.1193 9.47586 12.6327 9.66497 13.0723 9.97754C13.4399 10.2389 13.7611 10.5601 14.0225 10.9277C14.335 11.3673 14.5241 11.8807 14.7871 12.5645L15 13.1172L15.2129 12.5645C15.4759 11.8807 15.665 11.3673 15.9775 10.9277C16.2389 10.5601 16.5601 10.2389 16.9277 9.97754C17.3673 9.66497 17.8807 9.47586 18.5645 9.21289L19.1172 9L18.5645 8.78711C17.8807 8.52414 17.3673 8.33502 16.9277 8.02246C16.5601 7.76107 16.2389 7.43987 15.9775 7.07227C15.665 6.63267 15.4759 6.11927 15.2129 5.43555L15 4.88184L14.7871 5.43555Z"/></g><defs><clipPath id="a"><path fill="#fff" d="M0 0H24V24H0z"/></clipPath></defs></svg>