<svg xmlns="http://www.w3.org/2000/svg" width="24" height="24" fill="none" viewBox="0 0 24 24"><g clip-path="url(#a)"><path fill="currentColor" d="M17 10.9648C17.392 10.9648 17.7505 11.1865 17.9258 11.5371L18.877 13.4395C19.16 14.0055 19.2446 14.1645 19.3467 14.2969C19.4497 14.4305 19.5695 14.5503 19.7031 14.6533C19.8355 14.7554 19.9945 14.84 20.5605 15.123L22.4629 16.0742C22.8135 16.2495 23.0352 16.608 23.0352 17C23.0352 17.392 22.8135 17.7505 22.4629 17.9258L20.5605 18.877C19.9945 19.16 19.8355 19.2446 19.7031 19.3467C19.5695 19.4497 19.4497 19.5695 19.3467 19.7031C19.2446 19.8355 19.16 19.9945 18.877 20.5605L17.9258 22.4629C17.7505 22.8135 17.392 23.0352 17 23.0352C16.608 23.0352 16.2495 22.8135 16.0742 22.4629L15.123 20.5605C14.84 19.9945 14.7554 19.8355 14.6533 19.7031C14.5503 19.5695 14.4305 19.4497 14.2969 19.3467C14.1645 19.2446 14.0055 19.16 13.4395 18.877L11.5371 17.9258C11.1865 17.7505 10.9648 17.392 10.9648 17C10.9648 16.608 11.1865 16.2495 11.5371 16.0742L13.4395 15.123C14.0055 14.84 14.1645 14.7554 14.2969 14.6533C14.4305 14.5503 14.5503 14.4305 14.6533 14.2969C14.7554 14.1645 14.84 14.0055 15.123 13.4395L16.0742 11.5371C16.2495 11.1865 16.608 10.9648 17 10.9648ZM4.46484 21V19.5352H3C2.42839 19.5352 1.96484 19.0716 1.96484 18.5C1.96484 17.9284 2.42839 17.4648 3 17.4648H4.46484V16C4.46484 15.4284 4.92839 14.9648 5.5 14.9648C6.07161 14.9648 6.53516 15.4284 6.53516 16V17.4648H8C8.57161 17.4648 9.03516 17.9284 9.03516 18.5C9.03516 19.0716 8.57161 19.5352 8 19.5352H6.53516V21C6.53516 21.5716 6.07161 22.0352 5.5 22.0352C4.92839 22.0352 4.46484 21.5716 4.46484 21ZM16.9746 14.3652C16.7267 14.861 16.5456 15.2328 16.293 15.5605C16.0813 15.8351 15.8351 16.0813 15.5605 16.293C15.2328 16.5456 14.861 16.7267 14.3652 16.9746L14.3145 17L14.3652 17.0254C14.861 17.2733 15.2328 17.4544 15.5605 17.707C15.8351 17.9187 16.0813 18.1649 16.293 18.4395C16.5456 18.7672 16.7267 19.139 16.9746 19.6348L17 19.6855L17.0254 19.6348C17.2733 19.139 17.4544 18.7672 17.707 18.4395C17.9187 18.1649 18.1649 17.9187 18.4395 17.707C18.7672 17.4544 19.139 17.2733 19.6348 17.0254L19.6855 17L19.6348 16.9746C19.139 16.7267 18.7672 16.5456 18.4395 16.293C18.1649 16.0813 17.9187 15.8351 17.707 15.5605C17.4544 15.2328 17.2733 14.861 17.0254 14.3652L17 14.3145L16.9746 14.3652ZM6.5 0.964844C6.89203 0.964844 7.25046 1.18647 7.42578 1.53711L8.20996 3.10645C8.49295 3.67242 8.57765 3.8315 8.67969 3.96387C8.7827 4.09748 8.90253 4.2173 9.03613 4.32031C9.1685 4.42235 9.32758 4.50705 9.89355 4.79004L11.4629 5.57422C11.8135 5.74954 12.0352 6.10797 12.0352 6.5C12.0352 6.89203 11.8135 7.25046 11.4629 7.42578L9.89355 8.20996C9.32758 8.49295 9.1685 8.57765 9.03613 8.67969C8.90252 8.7827 8.7827 8.90253 8.67969 9.03613C8.57765 9.1685 8.49295 9.32758 8.20996 9.89355L7.42578 11.4629C7.25046 11.8135 6.89203 12.0352 6.5 12.0352C6.10797 12.0352 5.74954 11.8135 5.57422 11.4629L4.79004 9.89355C4.50705 9.32758 4.42235 9.1685 4.32031 9.03613C4.2173 8.90253 4.09748 8.7827 3.96387 8.67969C3.8315 8.57765 3.67242 8.49295 3.10645 8.20996L1.53711 7.42578C1.18647 7.25046 0.964844 6.89203 0.964844 6.5C0.964844 6.10797 1.18647 5.74954 1.53711 5.57422L3.10645 4.79004C3.67242 4.50705 3.8315 4.42235 3.96387 4.32031C4.09747 4.2173 4.2173 4.09747 4.32031 3.96387C4.42235 3.8315 4.50705 3.67242 4.79004 3.10645L5.57422 1.53711L5.64844 1.41211C5.83984 1.13476 6.15694 0.964844 6.5 0.964844ZM17.4648 8V6.53516H16C15.4284 6.53516 14.9648 6.07161 14.9648 5.5C14.9648 4.92839 15.4284 4.46484 16 4.46484H17.4648V3C17.4648 2.42839 17.9284 1.96484 18.5 1.96484C19.0716 1.96484 19.5352 2.42839 19.5352 3V4.46484H21C21.5716 4.46484 22.0352 4.92839 22.0352 5.5C22.0352 6.07161 21.5716 6.53516 21 6.53516H19.5352V8C19.5352 8.57161 19.0716 9.03516 18.5 9.03516C17.9284 9.03516 17.4648 8.57161 17.4648 8ZM6.5 4.30762C6.31732 4.67002 6.16321 4.96386 5.95996 5.22754C5.74832 5.50211 5.50211 5.74832 5.22754 5.95996C4.96386 6.16321 4.67002 6.31732 4.30762 6.5C4.67002 6.68268 4.96386 6.83679 5.22754 7.04004C5.50211 7.25168 5.74831 7.49789 5.95996 7.77246C6.16307 8.03595 6.31749 8.32936 6.5 8.69141C6.68251 8.32936 6.83693 8.03595 7.04004 7.77246C7.25168 7.49789 7.49789 7.25168 7.77246 7.04004C8.03595 6.83693 8.32936 6.68251 8.69141 6.5C8.32936 6.31749 8.03595 6.16307 7.77246 5.95996C7.49789 5.74831 7.25168 5.50211 7.04004 5.22754C6.83679 4.96386 6.68268 4.67002 6.5 4.30762Z"/></g><defs><clipPath id="a"><path fill="#fff" d="M0 0H24V24H0z"/></clipPath></defs></svg>