<svg xmlns="http://www.w3.org/2000/svg" width="24" height="24" fill="none" viewBox="0 0 24 24"><path fill="currentColor" d="M11.5262 1.54366C11.8341 1.44377 12.1657 1.4438 12.4735 1.54366L12.6259 1.60225L12.745 1.6628C13.0091 1.81407 13.1728 2.0261 13.2655 2.15791C13.3747 2.31313 13.4872 2.51099 13.5907 2.69112L15.4774 5.9753L19.2655 5.96748C19.4733 5.96706 19.7014 5.96615 19.8905 5.98311C20.051 5.99751 20.3168 6.03307 20.58 6.18623L20.6923 6.25948L20.8182 6.36201C21.0588 6.57874 21.2255 6.86564 21.2929 7.18233L21.3182 7.34248L21.3251 7.47627C21.3262 7.78086 21.2239 8.02923 21.1561 8.17549C21.0763 8.34758 20.9615 8.54376 20.8573 8.72334L18.9559 11.9997L20.8573 15.2771C20.9615 15.4567 21.0763 15.6528 21.1561 15.8249C21.2336 15.992 21.3563 16.2925 21.3182 16.6579C21.273 17.0913 21.045 17.4851 20.6923 17.7409C20.3949 17.9566 20.074 18.0008 19.8905 18.0173C19.7014 18.0342 19.4733 18.0324 19.2655 18.0319L15.4774 18.0241L13.5907 21.3083C13.4871 21.4885 13.3748 21.6872 13.2655 21.8425C13.1595 21.9931 12.9609 22.2485 12.6259 22.3981C12.2279 22.5757 11.7729 22.5757 11.3749 22.3981C11.0395 22.2485 10.8403 21.9932 10.7343 21.8425C10.625 21.6872 10.5126 21.4885 10.4091 21.3083L8.52137 18.0241L4.73426 18.0319C4.52639 18.0324 4.2984 18.0343 4.10926 18.0173C3.92578 18.0008 3.60491 17.9566 3.3075 17.7409C2.95476 17.4851 2.72781 17.0913 2.6825 16.6579C2.64439 16.2925 2.76615 15.992 2.84363 15.8249C2.92342 15.6528 3.03828 15.4567 3.14246 15.2771L5.04383 11.9997L3.14246 8.72334C3.03829 8.54376 2.92344 8.34757 2.84363 8.17549C2.76615 8.00837 2.64439 7.7079 2.6825 7.34248C2.72776 6.90906 2.95476 6.51537 3.3075 6.25948L3.4198 6.18623C3.68298 6.03302 3.9487 5.99751 4.10926 5.98311C4.2984 5.96614 4.52639 5.96706 4.73426 5.96748L8.52137 5.9753L10.4091 2.69112C10.5126 2.51097 10.6251 2.31315 10.7343 2.15791C10.8403 2.00725 11.0394 1.75195 11.3749 1.60225L11.5262 1.54366ZM10.2489 7.12471C10.1997 7.21039 10.0694 7.46145 9.85926 7.65108C9.699 7.7956 9.50983 7.90481 9.30457 7.97139C9.03552 8.05857 8.75335 8.04584 8.65418 8.04561L5.13758 8.0378L6.90223 11.0798C6.95193 11.1654 7.10387 11.4029 7.16297 11.6794C7.20801 11.8905 7.20796 12.1089 7.16297 12.32C7.10389 12.5969 6.95186 12.835 6.90223 12.9206L5.13758 15.9616L8.65418 15.9548C8.74095 15.9546 8.96747 15.9447 9.20301 16.0007L9.30457 16.029L9.45496 16.0866C9.55319 16.1303 9.64632 16.1845 9.73328 16.2478L9.85926 16.3493L9.93445 16.4226C10.1007 16.5986 10.2058 16.7997 10.2489 16.8747L11.9999 19.9216L13.7518 16.8747C13.8013 16.7886 13.9308 16.5386 14.1405 16.3493L14.2665 16.2478C14.397 16.1529 14.542 16.0789 14.6962 16.029L14.7968 16.0007C15.0327 15.9446 15.26 15.9546 15.3466 15.9548L18.8612 15.9616L17.0975 12.9206C17.0479 12.835 16.8959 12.5968 16.8368 12.32C16.7918 12.109 16.7918 11.8905 16.8368 11.6794L16.8632 11.5778C16.9324 11.346 17.054 11.1548 17.0975 11.0798L18.8612 8.0378L15.3466 8.04561C15.2477 8.04581 14.9654 8.05856 14.6962 7.97139C14.4907 7.90482 14.3009 7.79571 14.1405 7.65108C13.9304 7.46146 13.8011 7.21038 13.7518 7.12471L11.9999 4.07686L10.2489 7.12471Z"/></svg>