<svg xmlns="http://www.w3.org/2000/svg" width="24" height="24" fill="none" viewBox="0 0 24 24"><g clip-path="url(#a)"><path fill="currentColor" d="M3.46484 22V20.5352H2C1.42839 20.5352 0.964844 20.0716 0.964844 19.5C0.964844 18.9284 1.42839 18.4648 2 18.4648H3.46484V17C3.46484 16.4284 3.92839 15.9648 4.5 15.9648C5.07161 15.9648 5.53516 16.4284 5.53516 17V18.4648H7C7.57161 18.4648 8.03516 18.9284 8.03516 19.5C8.03516 20.0716 7.57161 20.5352 7 20.5352H5.53516V22C5.53516 22.5716 5.07161 23.0352 4.5 23.0352C3.92839 23.0352 3.46484 22.5716 3.46484 22ZM13 1.96484C13.4283 1.96484 13.8121 2.2292 13.9658 2.62891L15.7002 7.1377C16.0011 7.92005 16.0938 8.14026 16.2197 8.31738C16.347 8.4964 16.5036 8.65298 16.6826 8.78027C16.8597 8.9062 17.0799 8.9989 17.8623 9.2998L22.3711 11.0342C22.7708 11.1879 23.0352 11.5717 23.0352 12C23.0352 12.4283 22.7708 12.8121 22.3711 12.9658L17.8623 14.7002C17.08 15.0011 16.8597 15.0938 16.6826 15.2197C16.5036 15.347 16.347 15.5036 16.2197 15.6826C16.0938 15.8597 16.0011 16.08 15.7002 16.8623L13.9658 21.3711C13.8121 21.7708 13.4283 22.0352 13 22.0352C12.5717 22.0352 12.1879 21.7708 12.0342 21.3711L10.2998 16.8623C9.9989 16.08 9.9062 15.8597 9.78027 15.6826C9.65298 15.5036 9.4964 15.347 9.31738 15.2197C9.14026 15.0938 8.92005 15.0011 8.1377 14.7002L3.62891 12.9658C3.2292 12.8121 2.96484 12.4283 2.96484 12C2.96484 11.5717 3.2292 11.1879 3.62891 11.0342L8.1377 9.2998C8.92005 8.9989 9.14026 8.9062 9.31738 8.78027C9.4964 8.65298 9.65298 8.4964 9.78027 8.31738C9.9062 8.14026 9.9989 7.92005 10.2998 7.1377L12.0342 2.62891L12.1025 2.48535C12.2849 2.16714 12.6253 1.96484 13 1.96484ZM12.2314 7.88086C11.9686 8.5643 11.7793 9.07713 11.4668 9.5166C11.2054 9.88421 10.8842 10.2054 10.5166 10.4668C10.0771 10.7793 9.56431 10.9686 8.88086 11.2314L6.88184 12L8.88086 12.7686C9.56431 13.0314 10.0771 13.2207 10.5166 13.5332C10.8842 13.7946 11.2054 14.1158 11.4668 14.4834C11.7793 14.9229 11.9686 15.4357 12.2314 16.1191L13 18.1172L13.7686 16.1191C14.0314 15.4357 14.2207 14.9229 14.5332 14.4834C14.7946 14.1158 15.1158 13.7946 15.4834 13.5332C15.9229 13.2207 16.4357 13.0314 17.1191 12.7686L19.1172 12L17.1191 11.2314C16.4357 10.9686 15.9229 10.7793 15.4834 10.4668C15.1158 10.2054 14.7946 9.88421 14.5332 9.5166C14.2207 9.07713 14.0314 8.56431 13.7686 7.88086L13 5.88184L12.2314 7.88086ZM3.46484 7V5.53516H2C1.42839 5.53516 0.964844 5.07161 0.964844 4.5C0.964844 3.92839 1.42839 3.46484 2 3.46484H3.46484V2C3.46484 1.42839 3.92839 0.964844 4.5 0.964844C5.07161 0.964844 5.53516 1.42839 5.53516 2V3.46484H7C7.57161 3.46484 8.03516 3.92839 8.03516 4.5C8.03516 5.07161 7.57161 5.53516 7 5.53516H5.53516V7C5.53516 7.57161 5.07161 8.03516 4.5 8.03516C3.92839 8.03516 3.46484 7.57161 3.46484 7Z"/></g><defs><clipPath id="a"><path fill="#fff" d="M0 0H24V24H0z"/></clipPath></defs></svg>