<svg xmlns="http://www.w3.org/2000/svg" width="24" height="24" fill="none" viewBox="0 0 24 24"><g clip-path="url(#a)"><path fill="currentColor" d="M12 0.964844C12.4749 0.964844 12.8887 1.28828 13.0039 1.74902L14.3057 6.95508C14.5771 8.04083 14.667 8.34826 14.8184 8.58496C14.9716 8.82442 15.1756 9.02841 15.415 9.18164C15.6517 9.333 15.9592 9.4229 17.0449 9.69434L22.251 10.9961C22.7117 11.1113 23.0352 11.5251 23.0352 12C23.0352 12.4749 22.7117 12.8887 22.251 13.0039L17.0449 14.3057C15.9592 14.5771 15.6517 14.667 15.415 14.8184C15.1756 14.9716 14.9716 15.1756 14.8184 15.415C14.667 15.6517 14.5771 15.9592 14.3057 17.0449L13.0039 22.251C12.8887 22.7117 12.4749 23.0352 12 23.0352C11.5251 23.0352 11.1113 22.7117 10.9961 22.251L9.69434 17.0449C9.42289 15.9592 9.333 15.6517 9.18164 15.415C9.02841 15.1756 8.82442 14.9716 8.58496 14.8184C8.34826 14.667 8.04083 14.5771 6.95508 14.3057L1.74902 13.0039C1.28828 12.8887 0.964844 12.4749 0.964844 12C0.964844 11.5251 1.28828 11.1113 1.74902 10.9961L6.95508 9.69434C8.04083 9.4229 8.34826 9.333 8.58496 9.18164C8.82442 9.02841 9.02841 8.82442 9.18164 8.58496C9.333 8.34826 9.4229 8.04083 9.69434 6.95508L10.9961 1.74902L11.0527 1.58301C11.2156 1.21249 11.5845 0.964844 12 0.964844ZM11.7021 7.45703C11.4658 8.40228 11.3022 9.11134 10.9248 9.70117C10.6102 10.1927 10.1927 10.6102 9.70117 10.9248C9.11134 11.3022 8.40228 11.4658 7.45703 11.7021L6.26562 12L7.45703 12.2979C8.40228 12.5342 9.11134 12.6978 9.70117 13.0752C10.1927 13.3898 10.6102 13.8073 10.9248 14.2988C11.3022 14.8887 11.4658 15.5977 11.7021 16.543L12 17.7334L12.2979 16.543C12.5342 15.5977 12.6978 14.8887 13.0752 14.2988C13.3898 13.8073 13.8073 13.3898 14.2988 13.0752C14.8887 12.6978 15.5977 12.5342 16.543 12.2979L17.7334 12L16.543 11.7021C15.5977 11.4658 14.8887 11.3022 14.2988 10.9248C13.8073 10.6102 13.3898 10.1927 13.0752 9.70117C12.6978 9.11134 12.5342 8.40228 12.2979 7.45703L12 6.26562L11.7021 7.45703Z"/></g><defs><clipPath id="a"><path fill="#fff" d="M0 0H24V24H0z"/></clipPath></defs></svg>