<svg xmlns="http://www.w3.org/2000/svg" width="24" height="24" fill="none" viewBox="0 0 24 24"><path fill="currentColor" d="M11.5078 1.6303C11.8799 1.50443 12.2885 1.52584 12.6484 1.69377C13.0019 1.85874 13.2012 2.14302 13.3027 2.3012C13.411 2.47006 13.5225 2.68633 13.6279 2.88909L15.0595 5.64495L18.1074 5.04631C18.3315 5.00227 18.57 4.95461 18.7695 4.93401C18.9331 4.91713 19.2193 4.89819 19.5224 5.01018L19.6523 5.06682L19.7998 5.14983C20.0831 5.33193 20.2985 5.60258 20.413 5.91936L20.4619 6.08147L20.4882 6.22112C20.5299 6.54146 20.4483 6.81637 20.3955 6.9721C20.331 7.16201 20.2305 7.3835 20.1376 7.59221L18.875 10.4301L21.2441 12.4399C21.4183 12.5876 21.6046 12.744 21.7451 12.8871C21.8602 13.0044 22.0528 13.2164 22.1542 13.5229L22.1923 13.6606L22.2187 13.8276C22.2587 14.2185 22.1472 14.6126 21.9033 14.9262C21.6638 15.2341 21.3418 15.3654 21.165 15.4291C20.9763 15.4971 20.7405 15.5571 20.5195 15.6147L17.5136 16.3969L17.4199 19.5014C17.4129 19.7297 17.4061 19.9732 17.3818 20.1723C17.359 20.3588 17.3035 20.7023 17.0566 21.0043C16.7692 21.3558 16.3406 21.5612 15.8867 21.5668C15.4967 21.5716 15.1932 21.4026 15.0332 21.3041C14.8623 21.199 14.6682 21.0515 14.4853 20.9145L11.999 19.0532L9.51362 20.9145C9.33073 21.0515 9.13664 21.199 8.96577 21.3041C8.80568 21.4026 8.50221 21.5716 8.11225 21.5668C7.65853 21.5612 7.23064 21.3555 6.94331 21.0043C6.69639 20.7023 6.63993 20.3588 6.61714 20.1723C6.59283 19.9732 6.58598 19.7297 6.57905 19.5014L6.48432 16.3969L3.47944 15.6147C3.25838 15.5571 3.02263 15.4971 2.83393 15.4291C2.65715 15.3654 2.33517 15.2341 2.09565 14.9262C1.81699 14.5679 1.71105 14.1043 1.80659 13.6606L1.84468 13.5229C1.94617 13.2164 2.13873 13.0044 2.25386 12.8871C2.39435 12.744 2.58065 12.5876 2.75483 12.4399L5.123 10.4301L3.86128 7.59221C3.76851 7.38361 3.66891 7.16194 3.60444 6.9721C3.54404 6.79415 3.44564 6.46073 3.53706 6.08147L3.58589 5.91936C3.71948 5.54979 3.99081 5.24353 4.34663 5.06682L4.47651 5.01018C4.77966 4.89816 5.06581 4.91712 5.22944 4.93401C5.42895 4.9546 5.66741 5.00227 5.89155 5.04631L8.93843 5.64495L10.371 2.88909C10.4764 2.68632 10.5879 2.47007 10.6962 2.3012C10.7977 2.14303 10.997 1.85876 11.3505 1.69377L11.5078 1.6303ZM10.6953 6.7553C10.6386 6.86433 10.4909 7.18911 10.2255 7.41545C10.0242 7.58711 9.78119 7.70392 9.52143 7.75432C9.17903 7.82069 8.83345 7.73408 8.71284 7.71038L5.93647 7.16448L7.08589 9.75041C7.12966 9.8488 7.25855 10.1041 7.2978 10.3998L7.30952 10.5287L7.30268 10.726C7.2838 10.9224 7.22766 11.1145 7.13569 11.2905C6.97412 11.5995 6.6904 11.8154 6.59663 11.8949L4.43745 13.725L7.17671 14.4389C7.2956 14.4699 7.64505 14.5412 7.92475 14.7494C8.08384 14.868 8.21805 15.0164 8.32026 15.185L8.41206 15.3598L8.45796 15.4809C8.55109 15.7646 8.54552 16.051 8.54878 16.1586L8.63374 18.9867L10.8994 17.2905C10.9978 17.2167 11.2719 16.9886 11.6093 16.8998L11.8027 16.8617C11.9983 16.8365 12.1977 16.8494 12.3896 16.8998C12.7269 16.9885 13.0011 17.2167 13.0996 17.2905L15.3642 18.9867L15.4501 16.1586C15.4539 16.0357 15.4459 15.6789 15.5869 15.3598C15.6938 15.1179 15.8621 14.9075 16.0742 14.7494L16.1816 14.6781C16.4375 14.5243 16.7181 14.466 16.8222 14.4389L19.5605 13.725L17.4023 11.8949C17.3085 11.8154 17.0248 11.5995 16.8632 11.2905C16.7407 11.0559 16.6817 10.7932 16.6904 10.5287L16.7011 10.3998C16.7404 10.1041 16.8693 9.84882 16.913 9.75041L18.0615 7.16448L15.2861 7.71038C15.1654 7.73411 14.8198 7.82071 14.4775 7.75432C14.2178 7.70394 13.9757 7.58702 13.7744 7.41545C13.5088 7.1891 13.3603 6.86437 13.3037 6.7553L11.999 4.24456L10.6953 6.7553Z"/></svg>