<svg xmlns="http://www.w3.org/2000/svg" width="24" height="24" fill="none" viewBox="0 0 24 24"><path fill="currentColor" d="M11.4991 1.6785C11.8235 1.56647 12.1766 1.56648 12.501 1.6785L12.6612 1.74393L12.7891 1.81424C13.0715 1.98966 13.2348 2.23735 13.3213 2.3787C13.4289 2.55448 13.5395 2.78015 13.6455 2.99491L15.7764 7.31424L20.5469 8.01151C20.784 8.04616 21.033 8.08148 21.2334 8.12967C21.4175 8.17394 21.7639 8.27091 22.0401 8.56229C22.3584 8.89828 22.5079 9.36027 22.4473 9.81913C22.3947 10.2173 22.171 10.4994 22.0479 10.6433C21.9139 10.7999 21.7331 10.9743 21.5616 11.1414L18.1114 14.5008L18.9258 19.2469C18.9664 19.4832 19.0101 19.7317 19.0264 19.9373C19.0413 20.1261 19.0569 20.4858 18.8653 20.8387C18.6443 21.2455 18.2511 21.5306 17.7959 21.615C17.401 21.6882 17.0637 21.5626 16.8887 21.49C16.6982 21.411 16.4759 21.293 16.2637 21.1814L12 18.9383L7.73636 21.1814C7.5242 21.293 7.30182 21.411 7.11136 21.49C6.93637 21.5626 6.59907 21.6882 6.20414 21.615C5.74899 21.5306 5.35576 21.2454 5.1348 20.8387C4.94316 20.4858 4.95873 20.1261 4.97367 19.9373C4.98995 19.7317 5.03372 19.4832 5.07425 19.2469L5.88773 14.5008L2.43851 11.1414C2.267 10.9743 2.08616 10.7999 1.95218 10.6433C1.82907 10.4994 1.60536 10.2173 1.55277 9.81913C1.49222 9.36028 1.64168 8.89828 1.96 8.56229C2.23617 8.27092 2.58254 8.17395 2.76664 8.12967C2.96706 8.08148 3.21611 8.04616 3.45316 8.01151L8.22269 7.31424L10.3545 2.99491C10.4605 2.78015 10.5712 2.55448 10.6787 2.3787C10.7776 2.21718 10.9772 1.91683 11.3399 1.74393L11.4991 1.6785ZM10.0245 8.34159C9.98437 8.42279 9.87909 8.65801 9.70218 8.84842C9.56719 8.99364 9.40538 9.11145 9.22562 9.1951C8.98995 9.3047 8.7332 9.33142 8.64359 9.34452L4.22367 9.991L7.42093 13.1053C7.46983 13.1529 7.58995 13.2616 7.70023 13.409L7.80375 13.5682L7.87015 13.701C7.92955 13.8372 7.96839 13.9817 7.98636 14.1297C8.01764 14.3876 7.96469 14.6395 7.94925 14.7293L7.19437 19.1277L11.1455 17.0496C11.2258 17.0074 11.4498 16.879 11.7051 16.8289L11.8516 16.8074C11.9503 16.7978 12.0497 16.7978 12.1485 16.8074L12.2959 16.8289L12.4795 16.8787C12.6536 16.938 12.7944 17.018 12.8545 17.0496L16.8047 19.1277L16.0508 14.7293C16.0354 14.6395 15.9824 14.3876 16.0137 14.1297L16.0381 13.9832C16.0702 13.8381 16.1238 13.6984 16.1963 13.5682L16.3008 13.409C16.411 13.2618 16.5303 13.1528 16.5791 13.1053L19.7754 9.991L15.3565 9.34452C15.2669 9.33142 15.0101 9.3047 14.7745 9.1951C14.5947 9.11145 14.4329 8.99364 14.2979 8.84842C14.121 8.65801 14.0157 8.42279 13.9756 8.34159L12 4.33866L10.0245 8.34159ZM15.4209 7.8035L15.6055 7.63163L15.6211 7.52909L15.5274 7.57499L15.4209 7.8035ZM15.6055 7.63163L15.4209 7.8035L15.5274 7.57499L15.6211 7.52909L15.6055 7.63163Z"/></svg>