<svg xmlns="http://www.w3.org/2000/svg" width="24" height="24" fill="none" viewBox="0 0 24 24"><g clip-path="url(#a)"><path fill="currentColor" d="M10.9648 22V20C10.9648 19.4284 11.4284 18.9648 12 18.9648C12.5716 18.9648 13.0352 19.4284 13.0352 20V22C13.0352 22.5716 12.5716 23.0352 12 23.0352C11.4284 23.0352 10.9648 22.5716 10.9648 22ZM5.61133 16.9248C6.01554 16.5208 6.67108 16.5207 7.0752 16.9248C7.4792 17.3289 7.47912 17.9845 7.0752 18.3887L5.66016 19.8027C5.25599 20.2068 4.60143 20.2068 4.19727 19.8027C3.79307 19.3985 3.79307 18.7431 4.19727 18.3389L5.61133 16.9248ZM16.9248 16.9248C17.329 16.5207 17.9845 16.5207 18.3887 16.9248L19.8027 18.3389C20.2069 18.743 20.2069 19.3985 19.8027 19.8027C19.3985 20.2069 18.7431 20.2069 18.3389 19.8027L16.9248 18.3887C16.5207 17.9845 16.5206 17.329 16.9248 16.9248ZM12 5.96484C12.3939 5.96484 12.7534 6.18877 12.9277 6.54199L14.2314 9.18359L17.1494 9.61133C17.539 9.66828 17.8628 9.94094 17.9844 10.3154C18.1059 10.6901 18.0038 11.1012 17.7217 11.376L15.6123 13.4307L16.1104 16.335C16.177 16.7233 16.017 17.1161 15.6982 17.3477C15.3795 17.5791 14.957 17.6091 14.6084 17.4258L12 16.0537L9.3916 17.4258C9.04296 17.6091 8.62049 17.5791 8.30176 17.3477C7.983 17.1161 7.82305 16.7233 7.88965 16.335L8.38672 13.4307L6.27832 11.376C5.99616 11.1012 5.89414 10.6901 6.01562 10.3154C6.1372 9.94094 6.46097 9.66828 6.85059 9.61133L9.76758 9.18359L11.0723 6.54199L11.1455 6.41602C11.3365 6.13637 11.6552 5.96484 12 5.96484ZM11.3828 10.5879C11.2322 10.8931 10.9412 11.1051 10.6045 11.1543L9.22266 11.3555L10.2217 12.3281C10.4658 12.5659 10.5781 12.9092 10.5205 13.2451L10.2842 14.6172L11.5186 13.9688L11.6338 13.917C11.9088 13.8129 12.2176 13.8301 12.4814 13.9688L13.7148 14.6172L13.4795 13.2451C13.4219 12.9092 13.5342 12.5659 13.7783 12.3281L14.7764 11.3555L13.3955 11.1543C13.0588 11.1051 12.7678 10.8931 12.6172 10.5879L12 9.33691L11.3828 10.5879ZM4 10.9648C4.57161 10.9648 5.03516 11.4284 5.03516 12C5.03516 12.5716 4.57161 13.0352 4 13.0352H2C1.42839 13.0352 0.964844 12.5716 0.964844 12C0.964844 11.4284 1.42839 10.9648 2 10.9648H4ZM22 10.9648C22.5716 10.9648 23.0352 11.4284 23.0352 12C23.0352 12.5716 22.5716 13.0352 22 13.0352H20C19.4284 13.0352 18.9648 12.5716 18.9648 12C18.9648 11.4284 19.4284 10.9648 20 10.9648H22ZM4.19727 4.19727C4.60143 3.79324 5.25599 3.79324 5.66016 4.19727L7.0752 5.61133C7.47913 6.0155 7.47919 6.67106 7.0752 7.0752C6.67107 7.47932 6.01554 7.47917 5.61133 7.0752L4.19727 5.66113C3.79307 5.25694 3.79307 4.60146 4.19727 4.19727ZM18.3389 4.19727C18.7431 3.79307 19.3985 3.79307 19.8027 4.19727C20.2069 4.60146 20.2069 5.25696 19.8027 5.66113L18.3887 7.0752C17.9845 7.47933 17.329 7.47933 16.9248 7.0752C16.5206 6.67102 16.5207 6.01552 16.9248 5.61133L18.3389 4.19727ZM10.9648 4V2C10.9648 1.42839 11.4284 0.964844 12 0.964844C12.5716 0.964844 13.0352 1.42839 13.0352 2V4C13.0352 4.57161 12.5716 5.03516 12 5.03516C11.4284 5.03516 10.9648 4.57161 10.9648 4Z"/></g><defs><clipPath id="a"><path fill="#fff" d="M0 0H24V24H0z"/></clipPath></defs></svg>