<svg xmlns="http://www.w3.org/2000/svg" width="24" height="24" fill="none" viewBox="0 0 24 24"><path fill="currentColor" d="M20.9658 12.1172C20.9658 7.10136 16.8996 3.03532 11.8838 3.03516C8.07922 3.03516 4.81807 5.37487 3.46681 8.69629C3.70107 8.68159 3.93712 8.67286 4.17482 8.67285C10.3339 8.67285 15.327 13.6661 15.3272 19.8252C15.3272 20.0625 15.3184 20.2984 15.3037 20.5322C18.6251 19.181 20.9658 15.9217 20.9658 12.1172ZM13.2539 19.7295C13.2028 14.7889 9.20944 10.795 4.26857 10.7451L13.2539 19.7295ZM23.0352 12.1172C23.0351 17.1173 19.7456 21.3462 15.2149 22.7627C14.994 22.8317 14.6894 22.9384 14.3213 22.9297C14.0367 22.9229 13.723 22.8458 13.4678 22.7197C13.2171 22.5958 13.018 22.4182 12.8574 22.2607L12.4912 21.8945C12.4225 21.8279 12.3551 21.7603 12.292 21.6973L2.30275 11.709C2.25003 11.6563 2.19454 11.5999 2.13869 11.543L1.88771 11.292C1.70623 11.1105 1.44645 10.8674 1.28126 10.5332C1.15516 10.278 1.07804 9.96429 1.0713 9.67969C1.06263 9.31188 1.16827 9.00797 1.23732 8.78711C2.65354 4.25586 6.88328 0.964844 11.8838 0.964844C18.0428 0.965009 23.0352 5.95814 23.0352 12.1172Z"/></svg>