<svg xmlns="http://www.w3.org/2000/svg" width="24" height="24" fill="none" viewBox="0 0 24 24"><path fill="currentColor" d="M1.96484 16.2003V7.79988C1.96484 6.97696 1.96465 6.29732 2.00977 5.74519C2.05588 5.18102 2.15509 4.65906 2.40527 4.16804C2.79208 3.40907 3.409 2.79215 4.16797 2.40535C4.65899 2.15516 5.18095 2.05595 5.74512 2.00984C6.29725 1.96473 6.97689 1.96492 7.7998 1.96492H11.0117C11.6962 1.96492 12.2072 1.95814 12.6992 2.07624C13.1108 2.17506 13.5043 2.3385 13.8652 2.55964C14.2967 2.82404 14.6537 3.18994 15.1377 3.6739L20.3262 8.86238C20.8101 9.34633 21.176 9.70338 21.4404 10.1348C21.6616 10.4958 21.825 10.8893 21.9238 11.3009C22.0419 11.7929 22.0352 12.3039 22.0352 12.9884V16.2003C22.0352 17.0232 22.0353 17.7028 21.9902 18.255C21.9441 18.8191 21.8449 19.3411 21.5947 19.8321C21.2079 20.5911 20.591 21.208 19.832 21.5948C19.341 21.845 18.8191 21.9442 18.2549 21.9903C17.7027 22.0354 17.0231 22.0352 16.2002 22.0352H7.7998C6.97689 22.0352 6.29725 22.0354 5.74512 21.9903C5.18095 21.9442 4.65899 21.845 4.16797 21.5948C3.409 21.208 2.79208 20.5911 2.40527 19.8321C2.15509 19.3411 2.05588 18.8191 2.00977 18.255C1.96465 17.7028 1.96484 17.0232 1.96484 16.2003ZM4.03516 16.2003C4.03516 17.0572 4.03565 17.6377 4.07227 18.086C4.10791 18.5223 4.17227 18.742 4.24902 18.8927C4.43737 19.2621 4.73794 19.5627 5.10742 19.751C5.25807 19.8278 5.47781 19.8922 5.91406 19.9278C6.36234 19.9644 6.94287 19.9649 7.7998 19.9649H16.2002C17.0571 19.9649 17.6377 19.9644 18.0859 19.9278C18.5222 19.8922 18.7419 19.8278 18.8926 19.751C19.2621 19.5627 19.5626 19.2621 19.751 18.8927C19.8277 18.742 19.8921 18.5223 19.9277 18.086C19.9643 17.6377 19.9648 17.0572 19.9648 16.2003V12.9884C19.9648 12.4893 19.9606 12.2179 19.9463 12.0352H17.7998C16.9769 12.0352 16.2973 12.0354 15.7451 11.9903C15.1809 11.9442 14.659 11.845 14.168 11.5948C13.409 11.208 12.7921 10.5911 12.4053 9.8321C12.1551 9.34108 12.0559 8.81912 12.0098 8.25495C11.9647 7.70282 11.9648 7.02318 11.9648 6.20027V4.05378C11.7822 4.03949 11.5108 4.03523 11.0117 4.03523H7.7998C6.94287 4.03523 6.36234 4.03572 5.91406 4.07234C5.47781 4.10798 5.25807 4.17234 5.10742 4.2491C4.73794 4.43744 4.43737 4.73801 4.24902 5.10749C4.17227 5.25814 4.10791 5.47788 4.07227 5.91413C4.03565 6.36241 4.03516 6.94295 4.03516 7.79988V16.2003ZM14.0352 6.20027C14.0352 7.0572 14.0357 7.63773 14.0723 8.08601C14.1079 8.52226 14.1723 8.74201 14.249 8.89265C14.4374 9.26213 14.7379 9.5627 15.1074 9.75105C15.2581 9.8278 15.4778 9.89216 15.9141 9.92781C16.3623 9.96442 16.9429 9.96492 17.7998 9.96492H18.501L14.0352 5.4991V6.20027Z"/></svg>