<svg xmlns="http://www.w3.org/2000/svg" width="24" height="24" fill="none" viewBox="0 0 24 24"><path fill="currentColor" d="M19.9648 7.7998C19.9648 6.94287 19.9643 6.36234 19.9277 5.91406C19.8921 5.47781 19.8277 5.25807 19.751 5.10742C19.5626 4.73794 19.2621 4.43737 18.8926 4.24902C18.7419 4.17227 18.5222 4.10791 18.0859 4.07227C17.6377 4.03565 17.0571 4.03516 16.2002 4.03516H7.7998C6.94287 4.03516 6.36234 4.03565 5.91406 4.07227C5.47781 4.10791 5.25807 4.17227 5.10742 4.24902C4.73794 4.43737 4.43737 4.73794 4.24902 5.10742C4.17227 5.25807 4.10791 5.47781 4.07227 5.91406C4.03565 6.36234 4.03516 6.94287 4.03516 7.7998V16.2002C4.03516 17.0571 4.03565 17.6377 4.07227 18.0859C4.10791 18.5222 4.17227 18.7419 4.24902 18.8926C4.43737 19.2621 4.73794 19.5626 5.10742 19.751C5.25807 19.8277 5.47781 19.8921 5.91406 19.9277C6.36234 19.9643 6.94287 19.9648 7.7998 19.9648H16.2002C17.0571 19.9648 17.6377 19.9643 18.0859 19.9277C18.5222 19.8921 18.7419 19.8277 18.8926 19.751C19.2621 19.5626 19.5626 19.2621 19.751 18.8926C19.8277 18.7419 19.8921 18.5222 19.9277 18.0859C19.9643 17.6377 19.9648 17.0571 19.9648 16.2002V7.7998ZM14.9648 9.59961C14.9648 9.31662 14.9633 9.15762 14.9551 9.04395C14.8415 9.03582 14.6825 9.03516 14.4004 9.03516H9.59961C9.31668 9.03516 9.15762 9.03576 9.04395 9.04395C9.03576 9.15762 9.03516 9.31668 9.03516 9.59961V14.4004C9.03516 14.6825 9.03582 14.8415 9.04395 14.9551C9.15762 14.9633 9.31662 14.9648 9.59961 14.9648H14.4004C14.6826 14.9648 14.8415 14.9632 14.9551 14.9551C14.9632 14.8415 14.9648 14.6826 14.9648 14.4004V9.59961ZM17.0352 14.4004C17.0352 14.663 17.0354 14.9221 17.0176 15.1406C16.9987 15.3713 16.9546 15.6467 16.8135 15.9238C16.6184 16.3067 16.3067 16.6184 15.9238 16.8135C15.6467 16.9546 15.3713 16.9987 15.1406 17.0176C14.9221 17.0354 14.663 17.0352 14.4004 17.0352H9.59961C9.33696 17.0352 9.07785 17.0354 8.85938 17.0176C8.62866 16.9987 8.3533 16.9546 8.07617 16.8135C7.69326 16.6184 7.38163 16.3067 7.18652 15.9238C7.04535 15.6467 7.00127 15.3713 6.98242 15.1406C6.9646 14.9221 6.96484 14.663 6.96484 14.4004V9.59961C6.96484 9.33696 6.9646 9.07785 6.98242 8.85938C7.00127 8.62866 7.04535 8.3533 7.18652 8.07617L7.26562 7.93555C7.46114 7.61698 7.74128 7.35716 8.07617 7.18652L8.2832 7.09766C8.48814 7.02471 8.6864 6.99655 8.85938 6.98242C9.07785 6.9646 9.33696 6.96484 9.59961 6.96484H14.4004C14.663 6.96484 14.9221 6.9646 15.1406 6.98242C15.3713 7.00127 15.6467 7.04535 15.9238 7.18652C16.2587 7.35716 16.5389 7.61698 16.7344 7.93555L16.8135 8.07617L16.9023 8.2832C16.9753 8.48814 17.0034 8.6864 17.0176 8.85938C17.0354 9.07785 17.0352 9.33696 17.0352 9.59961V14.4004ZM22.0352 16.2002C22.0352 17.0231 22.0353 17.7027 21.9902 18.2549C21.9441 18.8191 21.8449 19.341 21.5947 19.832C21.2079 20.591 20.591 21.2079 19.832 21.5947C19.341 21.8449 18.8191 21.9441 18.2549 21.9902C17.7027 22.0353 17.0231 22.0352 16.2002 22.0352H7.7998C6.97689 22.0352 6.29725 22.0353 5.74512 21.9902C5.18095 21.9441 4.65899 21.8449 4.16797 21.5947C3.409 21.2079 2.79208 20.591 2.40527 19.832C2.15509 19.341 2.05588 18.8191 2.00977 18.2549C1.96465 17.7027 1.96484 17.0231 1.96484 16.2002V7.7998C1.96484 6.97689 1.96465 6.29725 2.00977 5.74512C2.05588 5.18095 2.15509 4.65899 2.40527 4.16797C2.79208 3.409 3.409 2.79208 4.16797 2.40527C4.65899 2.15509 5.18095 2.05588 5.74512 2.00977C6.29725 1.96465 6.97689 1.96484 7.7998 1.96484H16.2002C17.0231 1.96484 17.7027 1.96465 18.2549 2.00977C18.8191 2.05588 19.341 2.15509 19.832 2.40527C20.591 2.79208 21.2079 3.409 21.5947 4.16797C21.8449 4.65899 21.9441 5.18095 21.9902 5.74512C22.0353 6.29725 22.0352 6.97689 22.0352 7.7998V16.2002Z"/></svg>