<svg xmlns="http://www.w3.org/2000/svg" width="24" height="24" fill="none" viewBox="0 0 24 24"><g clip-path="url(#a)"><path fill="currentColor" d="M20.9648 12C20.9648 7.04877 16.9512 3.03516 12 3.03516C7.04877 3.03516 3.03516 7.04877 3.03516 12C3.03516 16.9512 7.04877 20.9648 12 20.9648C16.9512 20.9648 20.9648 16.9512 20.9648 12ZM14.9648 9.59961C14.9648 9.31662 14.9633 9.15762 14.9551 9.04395C14.8415 9.03582 14.6825 9.03516 14.4004 9.03516H9.59961C9.31668 9.03516 9.15762 9.03576 9.04395 9.04395C9.03576 9.15762 9.03516 9.31668 9.03516 9.59961V14.4004C9.03516 14.6825 9.03582 14.8415 9.04395 14.9551C9.15762 14.9633 9.31662 14.9648 9.59961 14.9648H14.4004C14.6826 14.9648 14.8415 14.9632 14.9551 14.9551C14.9632 14.8415 14.9648 14.6826 14.9648 14.4004V9.59961ZM23.0352 12C23.0352 18.0945 18.0945 23.0352 12 23.0352C5.90554 23.0352 0.964844 18.0945 0.964844 12C0.964844 5.90554 5.90554 0.964844 12 0.964844C18.0945 0.964844 23.0352 5.90554 23.0352 12ZM17.0352 14.4004C17.0352 14.663 17.0354 14.9221 17.0176 15.1406C16.9987 15.3713 16.9546 15.6467 16.8135 15.9238C16.6184 16.3067 16.3067 16.6184 15.9238 16.8135C15.6467 16.9546 15.3713 16.9987 15.1406 17.0176C14.9221 17.0354 14.663 17.0352 14.4004 17.0352H9.59961C9.33696 17.0352 9.07785 17.0354 8.85938 17.0176C8.62866 16.9987 8.3533 16.9546 8.07617 16.8135C7.69326 16.6184 7.38163 16.3067 7.18652 15.9238C7.04535 15.6467 7.00127 15.3713 6.98242 15.1406C6.9646 14.9221 6.96484 14.663 6.96484 14.4004V9.59961C6.96484 9.33696 6.9646 9.07785 6.98242 8.85938C7.00127 8.62866 7.04535 8.3533 7.18652 8.07617L7.26562 7.93555C7.46114 7.61698 7.74128 7.35716 8.07617 7.18652L8.2832 7.09766C8.48814 7.02471 8.6864 6.99655 8.85938 6.98242C9.07785 6.9646 9.33696 6.96484 9.59961 6.96484H14.4004C14.663 6.96484 14.9221 6.9646 15.1406 6.98242C15.3713 7.00127 15.6467 7.04535 15.9238 7.18652C16.2587 7.35716 16.5389 7.61698 16.7344 7.93555L16.8135 8.07617L16.9023 8.2832C16.9753 8.48814 17.0034 8.6864 17.0176 8.85938C17.0354 9.07785 17.0352 9.33696 17.0352 9.59961V14.4004Z"/></g><defs><clipPath id="a"><path fill="#fff" d="M0 0H24V24H0z"/></clipPath></defs></svg>