<svg xmlns="http://www.w3.org/2000/svg" width="24" height="24" fill="none" viewBox="0 0 24 24"><path fill="currentColor" d="M19.9648 7.7998C19.9648 6.94287 19.9643 6.36234 19.9277 5.91406C19.8921 5.47781 19.8277 5.25807 19.751 5.10742C19.5626 4.73794 19.2621 4.43737 18.8926 4.24902C18.7419 4.17227 18.5222 4.10791 18.0859 4.07227C17.6377 4.03565 17.0571 4.03516 16.2002 4.03516H7.7998C6.94287 4.03516 6.36234 4.03565 5.91406 4.07227C5.47781 4.10791 5.25807 4.17227 5.10742 4.24902C4.73794 4.43737 4.43737 4.73794 4.24902 5.10742C4.17227 5.25807 4.10791 5.47781 4.07227 5.91406C4.03565 6.36234 4.03516 6.94287 4.03516 7.7998V16.2002C4.03516 17.0571 4.03565 17.6377 4.07227 18.0859C4.10791 18.5222 4.17227 18.7419 4.24902 18.8926C4.43737 19.2621 4.73794 19.5626 5.10742 19.751C5.25807 19.8277 5.47781 19.8921 5.91406 19.9277C6.36234 19.9643 6.94287 19.9648 7.7998 19.9648H16.2002C17.0571 19.9648 17.6377 19.9643 18.0859 19.9277C18.5222 19.8921 18.7419 19.8277 18.8926 19.751C19.2621 19.5626 19.5626 19.2621 19.751 18.8926C19.8277 18.7419 19.8921 18.5222 19.9277 18.0859C19.9643 17.6377 19.9648 17.0571 19.9648 16.2002V7.7998ZM8.2832 14.5332C8.81701 14.329 9.41582 14.5962 9.62012 15.1299C9.8074 15.6195 10.2811 15.9647 10.833 15.9648H13C13.8091 15.9648 14.4648 15.3091 14.4648 14.5C14.4648 13.7414 13.8883 13.1178 13.1494 13.043L13 13.0352H6C5.42839 13.0352 4.96484 12.5716 4.96484 12C4.96484 11.4284 5.42839 10.9648 6 10.9648H18C18.5716 10.9648 19.0352 11.4284 19.0352 12C19.0352 12.5716 18.5716 13.0352 18 13.0352H16.2168C16.4204 13.4816 16.5352 13.9773 16.5352 14.5C16.5352 16.4523 14.9523 18.0352 13 18.0352H10.833C9.3952 18.035 8.17021 17.1343 7.68652 15.8701C7.48235 15.3363 7.74944 14.7375 8.2832 14.5332ZM13.167 5.96484C14.6048 5.96498 15.8298 6.86566 16.3135 8.12988C16.5177 8.66371 16.2506 9.26252 15.7168 9.4668C15.183 9.67096 14.5842 9.40384 14.3799 8.87012C14.1926 8.38046 13.7189 8.03529 13.167 8.03516H11C10.4009 8.03516 9.88331 8.39459 9.65625 8.91406C9.42742 9.4378 8.8177 9.67696 8.29395 9.44824C7.77021 9.21941 7.53106 8.60969 7.75977 8.08594C8.30431 6.83961 9.54882 5.96484 11 5.96484H13.167ZM22.0352 16.2002C22.0352 17.0231 22.0353 17.7027 21.9902 18.2549C21.9441 18.8191 21.8449 19.341 21.5947 19.832C21.2079 20.591 20.591 21.2079 19.832 21.5947C19.341 21.8449 18.8191 21.9441 18.2549 21.9902C17.7027 22.0353 17.0231 22.0352 16.2002 22.0352H7.7998C6.97689 22.0352 6.29725 22.0353 5.74512 21.9902C5.18095 21.9441 4.65899 21.8449 4.16797 21.5947C3.409 21.2079 2.79208 20.591 2.40527 19.832C2.15509 19.341 2.05588 18.8191 2.00977 18.2549C1.96465 17.7027 1.96484 17.0231 1.96484 16.2002V7.7998C1.96484 6.97689 1.96465 6.29725 2.00977 5.74512C2.05588 5.18095 2.15509 4.65899 2.40527 4.16797C2.79208 3.409 3.409 2.79208 4.16797 2.40527C4.65899 2.15509 5.18095 2.05588 5.74512 2.00977C6.29725 1.96465 6.97689 1.96484 7.7998 1.96484H16.2002C17.0231 1.96484 17.7027 1.96465 18.2549 2.00977C18.8191 2.05588 19.341 2.15509 19.832 2.40527C20.591 2.79208 21.2079 3.409 21.5947 4.16797C21.8449 4.65899 21.9441 5.18095 21.9902 5.74512C22.0353 6.29725 22.0352 6.97689 22.0352 7.7998V16.2002Z"/></svg>