<svg xmlns="http://www.w3.org/2000/svg" width="24" height="24" fill="none" viewBox="0 0 24 24"><path fill="currentColor" d="M16.9648 16C16.9648 14.5731 15.9569 13.3826 14.6143 13.0996C15.1934 13.9197 15.5352 14.9197 15.5352 16C15.5352 17.0801 15.1932 18.0794 14.6143 18.8994C15.9568 18.6164 16.9648 17.4268 16.9648 16ZM16.9648 8C16.9648 6.36248 15.6375 5.03516 14 5.03516H13.5C11.8625 5.03516 10.5352 6.36248 10.5352 8C10.5352 8.57161 10.0716 9.03516 9.5 9.03516C8.92839 9.03516 8.46484 8.57161 8.46484 8C8.46484 6.91986 8.80577 5.91961 9.38477 5.09961C8.04256 5.38291 7.03516 6.57347 7.03516 8C7.03516 8.57161 6.57161 9.03516 6 9.03516C5.42839 9.03516 4.96484 8.57161 4.96484 8C4.96484 5.21925 7.21925 2.96484 10 2.96484H14C16.7808 2.96484 19.0352 5.21925 19.0352 8C19.0352 8.57161 18.5716 9.03516 18 9.03516C17.4284 9.03516 16.9648 8.57161 16.9648 8ZM19.0352 16C19.0352 18.7808 16.7808 21.0352 14 21.0352H10C7.21925 21.0352 4.96484 18.7808 4.96484 16C4.96484 15.4284 5.42839 14.9648 6 14.9648C6.57161 14.9648 7.03516 15.4284 7.03516 16C7.03516 17.6375 8.36248 18.9648 10 18.9648H10.5C12.1375 18.9648 13.4648 17.6375 13.4648 16C13.4648 14.4136 12.2191 13.1184 10.6523 13.0391L10.5 13.0352H3C2.42839 13.0352 1.96484 12.5716 1.96484 12C1.96484 11.4284 2.42839 10.9648 3 10.9648H21C21.5716 10.9648 22.0352 11.4284 22.0352 12C22.0352 12.5716 21.5716 13.0352 21 13.0352H18.0693C18.6764 13.8669 19.0352 14.8915 19.0352 16Z"/></svg>