<svg xmlns="http://www.w3.org/2000/svg" width="24" height="24" fill="none" viewBox="0 0 24 24"><path fill="currentColor" d="M19.9648 13.9999C19.9647 13.7792 19.8842 13.5605 19.7372 13.3886C19.5747 13.2079 19.356 13.0871 19.1161 13.0468C18.8745 13.0063 18.6257 13.0481 18.412 13.1679L18.413 13.1689C18.2047 13.2881 18.0512 13.4739 17.9755 13.6864C17.784 14.225 17.1918 14.5068 16.6532 14.3154C16.1147 14.1239 15.8328 13.5317 16.0243 12.9931C16.2687 12.3059 16.7553 11.7318 17.3866 11.371L17.3905 11.3691C18.0179 11.0143 18.7481 10.8855 19.4589 11.0048C20.0811 11.1093 20.6558 11.3983 21.1093 11.831L21.2958 12.0253L21.3046 12.0341V12.0351C21.7759 12.5826 22.0351 13.282 22.0351 13.9999C22.0351 15.0968 21.4222 15.8641 20.7958 16.3681C20.1898 16.8556 19.4458 17.1985 18.9413 17.4364C18.4639 17.6617 18.3044 17.8094 18.2216 17.9374C18.2163 17.9456 18.2133 17.9555 18.2079 17.9648H20.9999C21.5715 17.9648 22.035 18.4283 22.0351 18.9999C22.0351 19.5715 21.5715 20.0351 20.9999 20.0351H16.9999C16.4283 20.0351 15.9648 19.5715 15.9648 18.9999C15.9648 18.1681 16.0829 17.4327 16.4833 16.8134C16.8855 16.1914 17.4762 15.8391 18.0585 15.5644C18.6139 15.3024 19.1201 15.0596 19.4989 14.7548C19.8574 14.4663 19.9648 14.233 19.9648 13.9999ZM12.2685 4.26848C12.6727 3.86428 13.3272 3.86428 13.7314 4.26848C14.1356 4.67267 14.1356 5.32717 13.7314 5.73137L9.46281 9.99992L13.7314 14.2685C14.1356 14.6727 14.1356 15.3272 13.7314 15.7314C13.3272 16.1356 12.6727 16.1356 12.2685 15.7314L7.99992 11.4628L3.73137 15.7314C3.32717 16.1356 2.67267 16.1356 2.26848 15.7314C1.86428 15.3272 1.86428 14.6727 2.26848 14.2685L6.53703 9.99992L2.26848 5.73137C1.86428 5.32717 1.86428 4.67267 2.26848 4.26848C2.67267 3.86428 3.32717 3.86428 3.73137 4.26848L7.99992 8.53703L12.2685 4.26848Z"/></svg>