<svg xmlns="http://www.w3.org/2000/svg" width="24" height="24" fill="none" viewBox="0 0 24 24"><path fill="currentColor" d="M20 18.9648C20.5716 18.9648 21.0352 19.4284 21.0352 20C21.0352 20.5716 20.5716 21.0352 20 21.0352H4C3.42839 21.0352 2.96484 20.5716 2.96484 20C2.96484 19.4284 3.42839 18.9648 4 18.9648H20ZM22 15.4648C22.5716 15.4648 23.0352 15.9284 23.0352 16.5C23.0352 17.0716 22.5716 17.5352 22 17.5352H2C1.42839 17.5352 0.964844 17.0716 0.964844 16.5C0.964844 15.9284 1.42839 15.4648 2 15.4648H22ZM4 11.9648C4.57161 11.9648 5.03516 12.4284 5.03516 13C5.03516 13.5716 4.57161 14.0352 4 14.0352H2C1.42839 14.0352 0.964844 13.5716 0.964844 13C0.964844 12.4284 1.42839 11.9648 2 11.9648H4ZM15.9648 13C15.9648 10.8102 14.1898 9.03516 12 9.03516C9.81019 9.03516 8.03516 10.8102 8.03516 13C8.03516 13.5716 7.57161 14.0352 7 14.0352C6.42839 14.0352 5.96484 13.5716 5.96484 13C5.96484 9.66696 8.66696 6.96484 12 6.96484C15.333 6.96484 18.0352 9.66696 18.0352 13C18.0352 13.5716 17.5716 14.0352 17 14.0352C16.4284 14.0352 15.9648 13.5716 15.9648 13ZM22 11.9648C22.5716 11.9648 23.0352 12.4284 23.0352 13C23.0352 13.5716 22.5716 14.0352 22 14.0352H20C19.4284 14.0352 18.9648 13.5716 18.9648 13C18.9648 12.4284 19.4284 11.9648 20 11.9648H22ZM4.16797 5.16797C4.57216 4.76378 5.22764 4.76378 5.63184 5.16797L7.0459 6.58203C7.45009 6.98622 7.45009 7.64171 7.0459 8.0459C6.64171 8.45009 5.98622 8.45009 5.58203 8.0459L4.16797 6.63184C3.76378 6.22764 3.76378 5.57216 4.16797 5.16797ZM18.3682 5.16797C18.7724 4.76394 19.4279 4.76383 19.832 5.16797C20.236 5.57212 20.236 6.22769 19.832 6.63184L18.417 8.0459C18.0128 8.44987 17.3583 8.44987 16.9541 8.0459C16.5499 7.64171 16.5499 6.98622 16.9541 6.58203L18.3682 5.16797ZM10.9648 5V3C10.9648 2.42839 11.4284 1.96484 12 1.96484C12.5716 1.96484 13.0352 2.42839 13.0352 3V5C13.0352 5.57161 12.5716 6.03516 12 6.03516C11.4284 6.03516 10.9648 5.57161 10.9648 5Z"/></svg>