<svg xmlns="http://www.w3.org/2000/svg" width="24" height="24" fill="none" viewBox="0 0 24 24"><path fill="currentColor" d="M19 17.9648C19.5716 17.9648 20.0352 18.4284 20.0352 19C20.0352 19.5716 19.5716 20.0352 19 20.0352H5C4.42839 20.0352 3.96484 19.5716 3.96484 19C3.96484 18.4284 4.42839 17.9648 5 17.9648H19ZM12 7.96484C15.5336 7.96484 18.4584 10.5703 18.959 13.9648H22C22.5716 13.9648 23.0352 14.4284 23.0352 15C23.0352 15.5716 22.5716 16.0352 22 16.0352H2C1.42839 16.0352 0.964844 15.5716 0.964844 15C0.964844 14.4284 1.42839 13.9648 2 13.9648H5.04102C5.54162 10.5703 8.46637 7.96484 12 7.96484ZM12 10.0352C9.61293 10.0352 7.61977 11.7197 7.14355 13.9648H16.8564C16.3802 11.7197 14.3871 10.0352 12 10.0352ZM3.16797 5.16797C3.57216 4.76378 4.22764 4.76378 4.63184 5.16797L6.0459 6.58203C6.45009 6.98622 6.45009 7.64171 6.0459 8.0459C5.64171 8.45009 4.98622 8.45009 4.58203 8.0459L3.16797 6.63184C2.76378 6.22764 2.76378 5.57216 3.16797 5.16797ZM19.3682 5.16797C19.7724 4.76382 20.4279 4.76379 20.832 5.16797C21.2362 5.57215 21.2362 6.22766 20.832 6.63184L19.418 8.0459C19.0138 8.45008 18.3583 8.45004 17.9541 8.0459C17.5499 7.64171 17.5499 6.98622 17.9541 6.58203L19.3682 5.16797ZM10.9648 5V3C10.9648 2.42839 11.4284 1.96484 12 1.96484C12.5716 1.96484 13.0352 2.42839 13.0352 3V5C13.0352 5.57161 12.5716 6.03516 12 6.03516C11.4284 6.03516 10.9648 5.57161 10.9648 5Z"/></svg>