<svg xmlns="http://www.w3.org/2000/svg" width="24" height="24" fill="none" viewBox="0 0 24 24"><path fill="currentColor" d="M9.5918 19.9707C11.0739 19.297 12.9261 19.297 14.4082 19.9707C15.346 20.397 16.5739 20.3969 17.5117 19.9707C18.0321 19.7342 18.6453 19.964 18.8818 20.4844C19.1184 21.0048 18.8885 21.618 18.3682 21.8545C16.886 22.5282 15.0339 22.5282 13.5518 21.8545C12.6139 21.4282 11.3861 21.4282 10.4482 21.8545C8.96611 22.5282 7.11396 22.5282 5.63184 21.8545C5.11149 21.6179 4.88164 21.0047 5.11816 20.4844C5.3547 19.964 5.9679 19.7342 6.48828 19.9707C7.42609 20.3969 8.65398 20.3969 9.5918 19.9707ZM17.5117 16.4707C18.9938 15.797 20.846 15.797 22.3281 16.4707C22.8485 16.7072 23.0792 17.3205 22.8428 17.8408C22.6062 18.3612 21.9921 18.591 21.4717 18.3545C20.5338 17.9283 19.306 17.9282 18.3682 18.3545C16.8861 19.0281 15.0339 19.0282 13.5518 18.3545C12.6139 17.9282 11.3861 17.9282 10.4482 18.3545C8.96612 19.0282 7.11395 19.0282 5.63184 18.3545C4.69398 17.9282 3.46617 17.9282 2.52832 18.3545C2.00799 18.591 1.39479 18.3611 1.1582 17.8408C0.921684 17.3205 1.15157 16.7073 1.67188 16.4707C3.154 15.797 5.00615 15.797 6.48828 16.4707C7.42609 16.8969 8.65397 16.8969 9.5918 16.4707C11.0739 15.797 12.9261 15.797 14.4082 16.4707C15.346 16.897 16.5739 16.8969 17.5117 16.4707ZM4 11.9648C4.57161 11.9648 5.03516 12.4284 5.03516 13C5.03516 13.5716 4.57161 14.0352 4 14.0352H2C1.42839 14.0352 0.964844 13.5716 0.964844 13C0.964844 12.4284 1.42839 11.9648 2 11.9648H4ZM15.9648 13C15.9648 10.8102 14.1898 9.03516 12 9.03516C9.81019 9.03516 8.03516 10.8102 8.03516 13C8.03516 13.5716 7.57161 14.0352 7 14.0352C6.42839 14.0352 5.96484 13.5716 5.96484 13C5.96484 9.66696 8.66696 6.96484 12 6.96484C15.333 6.96484 18.0352 9.66696 18.0352 13C18.0352 13.5716 17.5716 14.0352 17 14.0352C16.4284 14.0352 15.9648 13.5716 15.9648 13ZM22 11.9648C22.5716 11.9648 23.0352 12.4284 23.0352 13C23.0352 13.5716 22.5716 14.0352 22 14.0352H20C19.4284 14.0352 18.9648 13.5716 18.9648 13C18.9648 12.4284 19.4284 11.9648 20 11.9648H22ZM4.16797 5.16797C4.57216 4.76378 5.22764 4.76378 5.63184 5.16797L7.0459 6.58203C7.45009 6.98622 7.45009 7.64171 7.0459 8.0459C6.64171 8.45009 5.98622 8.45009 5.58203 8.0459L4.16797 6.63184C3.76378 6.22764 3.76378 5.57216 4.16797 5.16797ZM18.3682 5.16797C18.7724 4.76394 19.4279 4.76383 19.832 5.16797C20.236 5.57212 20.236 6.22769 19.832 6.63184L18.417 8.0459C18.0128 8.44987 17.3583 8.44987 16.9541 8.0459C16.5499 7.64171 16.5499 6.98622 16.9541 6.58203L18.3682 5.16797ZM10.9648 5V3C10.9648 2.42839 11.4284 1.96484 12 1.96484C12.5716 1.96484 13.0352 2.42839 13.0352 3V5C13.0352 5.57161 12.5716 6.03516 12 6.03516C11.4284 6.03516 10.9648 5.57161 10.9648 5Z"/></svg>