<svg xmlns="http://www.w3.org/2000/svg" width="24" height="24" fill="none" viewBox="0 0 24 24"><g clip-path="url(#a)"><path fill="currentColor" d="M10.9648 22V20C10.9648 19.4284 11.4284 18.9648 12 18.9648C12.5716 18.9648 13.0352 19.4284 13.0352 20V22C13.0352 22.5716 12.5716 23.0352 12 23.0352C11.4284 23.0352 10.9648 22.5716 10.9648 22ZM5.58203 16.958C5.98619 16.5538 6.6417 16.5539 7.0459 16.958C7.45009 17.3622 7.45009 18.0177 7.0459 18.4219L5.63184 19.8359C5.22764 20.2401 4.57216 20.2401 4.16797 19.8359C3.76388 19.4317 3.76381 18.7762 4.16797 18.3721L5.58203 16.958ZM16.9541 16.958C17.3583 16.5539 18.0138 16.5538 18.418 16.958L19.832 18.3721C20.2362 18.7762 20.2361 19.4317 19.832 19.8359C19.4278 20.2401 18.7724 20.2401 18.3682 19.8359L16.9541 18.4219C16.5499 18.0177 16.5499 17.3622 16.9541 16.958ZM15.9648 12C15.9648 9.81019 14.1898 8.03516 12 8.03516C9.81019 8.03516 8.03516 9.81019 8.03516 12C8.03516 14.1898 9.81019 15.9648 12 15.9648C14.1898 15.9648 15.9648 14.1898 15.9648 12ZM4 10.9648C4.57161 10.9648 5.03516 11.4284 5.03516 12C5.03516 12.5716 4.57161 13.0352 4 13.0352H2C1.42839 13.0352 0.964844 12.5716 0.964844 12C0.964844 11.4284 1.42839 10.9648 2 10.9648H4ZM22 10.9648C22.5716 10.9648 23.0352 11.4284 23.0352 12C23.0352 12.5716 22.5716 13.0352 22 13.0352H20C19.4284 13.0352 18.9648 12.5716 18.9648 12C18.9648 11.4284 19.4284 10.9648 20 10.9648H22ZM4.16797 4.16797C4.57216 3.76378 5.22764 3.76378 5.63184 4.16797L7.0459 5.58203C7.45009 5.98622 7.45009 6.64171 7.0459 7.0459C6.64171 7.45009 5.98622 7.45009 5.58203 7.0459L4.16797 5.63184C3.76378 5.22764 3.76378 4.57216 4.16797 4.16797ZM18.3682 4.16797C18.7724 3.76378 19.4278 3.76378 19.832 4.16797C20.2362 4.57216 20.2362 5.22764 19.832 5.63184L18.418 7.0459C18.0138 7.45009 17.3583 7.45009 16.9541 7.0459C16.5499 6.64171 16.5499 5.98622 16.9541 5.58203L18.3682 4.16797ZM10.9648 4V2C10.9648 1.42839 11.4284 0.964844 12 0.964844C12.5716 0.964844 13.0352 1.42839 13.0352 2V4C13.0352 4.57161 12.5716 5.03516 12 5.03516C11.4284 5.03516 10.9648 4.57161 10.9648 4ZM18.0352 12C18.0352 15.333 15.333 18.0352 12 18.0352C8.66696 18.0352 5.96484 15.333 5.96484 12C5.96484 8.66696 8.66696 5.96484 12 5.96484C15.333 5.96484 18.0352 8.66696 18.0352 12Z"/></g><defs><clipPath id="a"><path fill="#fff" d="M0 0H24V24H0z"/></clipPath></defs></svg>