<svg xmlns="http://www.w3.org/2000/svg" width="24" height="24" fill="none" viewBox="0 0 24 24"><g clip-path="url(#a)"><path fill="currentColor" d="M22 20.965C22.5716 20.965 23.0352 21.4285 23.0352 22.0001C23.0352 22.5717 22.5716 23.0353 22 23.0353H2C1.42839 23.0353 0.964844 22.5717 0.964844 22.0001C0.964844 21.4285 1.42839 20.965 2 20.965H22ZM4 16.965C4.57161 16.965 5.03516 17.4285 5.03516 18.0001C5.03516 18.5717 4.57161 19.0353 4 19.0353H2C1.42839 19.0353 0.964844 18.5717 0.964844 18.0001C0.964844 17.4285 1.42839 16.965 2 16.965H4ZM15.9648 18.0001C15.9648 15.8103 14.1898 14.0353 12 14.0353C9.81019 14.0353 8.03516 15.8103 8.03516 18.0001C8.03516 18.5717 7.57161 19.0353 7 19.0353C6.42839 19.0353 5.96484 18.5717 5.96484 18.0001C5.96484 14.6671 8.66696 11.965 12 11.965C15.333 11.965 18.0352 14.6671 18.0352 18.0001C18.0352 18.5717 17.5716 19.0353 17 19.0353C16.4284 19.0353 15.9648 18.5717 15.9648 18.0001ZM22 16.965C22.5716 16.965 23.0352 17.4285 23.0352 18.0001C23.0352 18.5717 22.5716 19.0353 22 19.0353H20C19.4284 19.0353 18.9648 18.5717 18.9648 18.0001C18.9648 17.4285 19.4284 16.965 20 16.965H22ZM4.16797 10.1681C4.57216 9.76389 5.22764 9.76389 5.63184 10.1681L7.0459 11.5821C7.45009 11.9863 7.45009 12.6418 7.0459 13.046C6.64171 13.4502 5.98622 13.4502 5.58203 13.046L4.16797 11.6319C3.76378 11.2278 3.76378 10.5723 4.16797 10.1681ZM18.3682 10.1681C18.7724 9.76393 19.4279 9.7639 19.832 10.1681C20.2362 10.5723 20.2362 11.2278 19.832 11.6319L18.418 13.046C18.0138 13.4502 17.3583 13.4502 16.9541 13.046C16.5499 12.6418 16.5499 11.9863 16.9541 11.5821L18.3682 10.1681ZM10.9648 9.00011V4.49816L8.73145 6.73156C8.32725 7.13575 7.67275 7.13575 7.26855 6.73156C6.86436 6.32736 6.86436 5.67286 7.26855 5.26866L11.2686 1.26866L11.3467 1.19738C11.7532 0.865704 12.3525 0.889695 12.7314 1.26866L16.7314 5.26866C17.1356 5.67286 17.1356 6.32736 16.7314 6.73156C16.3273 7.13575 15.6727 7.13575 15.2686 6.73156L13.0352 4.49816V9.00011C13.0352 9.57173 12.5716 10.0353 12 10.0353C11.4284 10.0353 10.9648 9.57173 10.9648 9.00011Z"/></g><defs><clipPath id="a"><path fill="#fff" d="M0 0H24V24H0z"/></clipPath></defs></svg>