<svg xmlns="http://www.w3.org/2000/svg" width="24" height="24" fill="none" viewBox="0 0 24 24"><g clip-path="url(#a)"><path fill="currentColor" d="M22 20.9648C22.5716 20.9648 23.0352 21.4284 23.0352 22C23.0352 22.5716 22.5716 23.0352 22 23.0352H2C1.42839 23.0352 0.964844 22.5716 0.964844 22C0.964844 21.4284 1.42839 20.9648 2 20.9648H22ZM4 16.9648C4.57161 16.9648 5.03516 17.4284 5.03516 18C5.03516 18.5716 4.57161 19.0352 4 19.0352H2C1.42839 19.0352 0.964844 18.5716 0.964844 18C0.964844 17.4284 1.42839 16.9648 2 16.9648H4ZM15.9648 18C15.9648 15.8102 14.1898 14.0352 12 14.0352C9.81019 14.0352 8.03516 15.8102 8.03516 18C8.03516 18.5716 7.57161 19.0352 7 19.0352C6.42839 19.0352 5.96484 18.5716 5.96484 18C5.96484 14.667 8.66696 11.9648 12 11.9648C15.333 11.9648 18.0352 14.667 18.0352 18C18.0352 18.5716 17.5716 19.0352 17 19.0352C16.4284 19.0352 15.9648 18.5716 15.9648 18ZM22 16.9648C22.5716 16.9648 23.0352 17.4284 23.0352 18C23.0352 18.5716 22.5716 19.0352 22 19.0352H20C19.4284 19.0352 18.9648 18.5716 18.9648 18C18.9648 17.4284 19.4284 16.9648 20 16.9648H22ZM4.16797 10.168C4.57216 9.76378 5.22764 9.76378 5.63184 10.168L7.0459 11.582C7.45009 11.9862 7.45009 12.6417 7.0459 13.0459C6.64171 13.4501 5.98622 13.4501 5.58203 13.0459L4.16797 11.6318C3.76378 11.2276 3.76378 10.5722 4.16797 10.168ZM18.3682 10.168C18.7724 9.76382 19.4279 9.76379 19.832 10.168C20.2362 10.5721 20.2362 11.2277 19.832 11.6318L18.418 13.0459C18.0138 13.4501 17.3583 13.45 16.9541 13.0459C16.5499 12.6417 16.5499 11.9862 16.9541 11.582L18.3682 10.168ZM10.9648 2C10.9648 1.42839 11.4284 0.964844 12 0.964844C12.5716 0.964844 13.0352 1.42839 13.0352 2V6.50195L15.2686 4.26855C15.6727 3.86436 16.3273 3.86436 16.7314 4.26855C17.1356 4.67275 17.1356 5.32725 16.7314 5.73145L12.7314 9.73145C12.3273 10.1356 11.6727 10.1356 11.2686 9.73145L7.26855 5.73145C6.86436 5.32725 6.86436 4.67275 7.26855 4.26855C7.67275 3.86436 8.32725 3.86436 8.73145 4.26855L10.9648 6.50195V2Z"/></g><defs><clipPath id="a"><path fill="#fff" d="M0 0H24V24H0z"/></clipPath></defs></svg>