<svg xmlns="http://www.w3.org/2000/svg" width="24" height="24" fill="none" viewBox="0 0 24 24"><path fill="currentColor" d="M5.96477 4C5.96477 3.42839 6.42831 2.96484 6.99992 2.96484C7.57154 2.96484 8.03508 3.42839 8.03508 4V17.502L10.2685 15.2686C10.6727 14.8644 11.3272 14.8644 11.7314 15.2686C12.1356 15.6727 12.1356 16.3273 11.7314 16.7314L7.73137 20.7314C7.32717 21.1356 6.67267 21.1356 6.26848 20.7314L2.26848 16.7314C1.86428 16.3273 1.86428 15.6727 2.26848 15.2686C2.67267 14.8644 3.32717 14.8644 3.73137 15.2686L5.96477 17.502V4ZM15.9648 20V6.49805L13.7314 8.73145C13.3272 9.13564 12.6727 9.13564 12.2685 8.73145C11.8643 8.32725 11.8643 7.67275 12.2685 7.26855L16.2685 3.26855L16.3466 3.19727C16.7531 2.86559 17.3524 2.88958 17.7314 3.26855L21.7314 7.26855C22.1356 7.67275 22.1356 8.32725 21.7314 8.73145C21.3272 9.13564 20.6727 9.13564 20.2685 8.73145L18.0351 6.49805V20C18.0351 20.5716 17.5715 21.0352 16.9999 21.0352C16.4283 21.0352 15.9648 20.5716 15.9648 20Z"/></svg>