<svg xmlns="http://www.w3.org/2000/svg" width="24" height="24" fill="none" viewBox="0 0 24 24"><path fill="currentColor" d="M5.96477 20V6.49805L3.73137 8.73145C3.32717 9.13564 2.67267 9.13564 2.26848 8.73145C1.86428 8.32725 1.86428 7.67275 2.26848 7.26855L6.26848 3.26855L6.3466 3.19727C6.75312 2.86559 7.3524 2.88958 7.73137 3.26855L11.7314 7.26855C12.1356 7.67275 12.1356 8.32725 11.7314 8.73145C11.3272 9.13564 10.6727 9.13564 10.2685 8.73145L8.03508 6.49805V20C8.03508 20.5716 7.57154 21.0352 6.99992 21.0352C6.42831 21.0352 5.96477 20.5716 5.96477 20ZM15.9648 4C15.9648 3.42839 16.4283 2.96484 16.9999 2.96484C17.5715 2.96484 18.0351 3.42839 18.0351 4V17.502L20.2685 15.2686C20.6727 14.8644 21.3272 14.8644 21.7314 15.2686C22.1356 15.6727 22.1356 16.3273 21.7314 16.7314L17.7314 20.7314C17.3272 21.1356 16.6727 21.1356 16.2685 20.7314L12.2685 16.7314C11.8643 16.3273 11.8643 15.6727 12.2685 15.2686C12.6727 14.8644 13.3272 14.8644 13.7314 15.2686L15.9648 17.502V4Z"/></svg>