<svg xmlns="http://www.w3.org/2000/svg" width="24" height="24" fill="none" viewBox="0 0 24 24"><path fill="currentColor" d="M7.26855 12.2686C7.67275 11.8644 8.32725 11.8644 8.73145 12.2686C9.13564 12.6728 9.13564 13.3273 8.73145 13.7315L6.49805 15.9649H20C20.5716 15.9649 21.0352 16.4284 21.0352 17C21.0352 17.5717 20.5716 18.0352 20 18.0352H6.49805L8.73145 20.2686C9.13564 20.6728 9.13564 21.3273 8.73145 21.7315C8.32725 22.1357 7.67275 22.1357 7.26855 21.7315L3.26855 17.7315C2.86436 17.3273 2.86436 16.6728 3.26855 16.2686L7.26855 12.2686ZM15.2686 2.2686C15.6727 1.86441 16.3273 1.86441 16.7314 2.2686L20.7314 6.2686C21.1356 6.67279 21.1356 7.3273 20.7314 7.73149L16.7314 11.7315C16.3273 12.1357 15.6727 12.1357 15.2686 11.7315C14.8644 11.3273 14.8644 10.6728 15.2686 10.2686L17.502 8.0352H4C3.42839 8.0352 2.96484 7.57166 2.96484 7.00004C2.96484 6.42843 3.42839 5.96489 4 5.96489H17.502L15.2686 3.73149C14.8644 3.3273 14.8644 2.67279 15.2686 2.2686Z"/></svg>