<svg xmlns="http://www.w3.org/2000/svg" width="24" height="24" fill="none" viewBox="0 0 24 24"><path fill="currentColor" d="M15.2686 12.2686C15.6727 11.8644 16.3273 11.8644 16.7314 12.2686L20.7314 16.2686C21.1356 16.6728 21.1356 17.3273 20.7314 17.7315L16.7314 21.7315C16.3273 22.1357 15.6727 22.1357 15.2686 21.7315C14.8644 21.3273 14.8644 20.6728 15.2686 20.2686L17.502 18.0352H4C3.42839 18.0352 2.96484 17.5717 2.96484 17C2.96484 16.4284 3.42839 15.9649 4 15.9649H17.502L15.2686 13.7315C14.8644 13.3273 14.8644 12.6728 15.2686 12.2686ZM7.26855 2.2686C7.67275 1.86441 8.32725 1.86441 8.73145 2.2686C9.13564 2.67279 9.13564 3.3273 8.73145 3.73149L6.49805 5.96489H20C20.5716 5.96489 21.0352 6.42843 21.0352 7.00004C21.0352 7.57166 20.5716 8.0352 20 8.0352H6.49805L8.73145 10.2686C9.13564 10.6728 9.13564 11.3273 8.73145 11.7315C8.32725 12.1357 7.67275 12.1357 7.26855 11.7315L3.26855 7.73149C2.86436 7.3273 2.86436 6.67279 3.26855 6.2686L7.26855 2.2686Z"/></svg>