<svg xmlns="http://www.w3.org/2000/svg" width="24" height="24" fill="none" viewBox="0 0 24 24"><path fill="currentColor" d="M13.9648 3.03516H10.0352V3.40039C10.0352 3.68252 10.0358 3.84147 10.0439 3.95508C10.1576 3.96327 10.3166 3.96484 10.5996 3.96484H13.4004C13.6826 3.96484 13.8415 3.96321 13.9551 3.95508C13.9632 3.84147 13.9648 3.68258 13.9648 3.40039V3.03516ZM21.0352 18.7998C21.0352 19.3428 21.0354 19.8128 21.0039 20.1982C20.9714 20.5956 20.8998 20.9939 20.7041 21.3779C20.4131 21.9489 19.9489 22.4131 19.3779 22.7041C18.9939 22.8998 18.5956 22.9714 18.1982 23.0039C17.8128 23.0354 17.3428 23.0352 16.7998 23.0352H7.2002C6.65722 23.0352 6.18718 23.0354 5.80176 23.0039C5.40438 22.9714 5.00608 22.8998 4.62207 22.7041C4.05107 22.4131 3.58686 21.9489 3.2959 21.3779C3.10024 20.9939 3.02859 20.5956 2.99609 20.1982C2.9646 19.8128 2.96484 19.3428 2.96484 18.7998V5.2002C2.96484 4.65722 2.9646 4.18718 2.99609 3.80176C3.02859 3.40438 3.10024 3.00608 3.2959 2.62207C3.58686 2.05107 4.05107 1.58686 4.62207 1.2959C5.00608 1.10024 5.40438 1.02859 5.80176 0.996094C6.18718 0.964603 6.65722 0.964844 7.2002 0.964844H16.7998C17.3428 0.964844 17.8128 0.964603 18.1982 0.996094C18.5956 1.02859 18.9939 1.10024 19.3779 1.2959C19.9489 1.58686 20.4131 2.05107 20.7041 2.62207C20.8998 3.00608 20.9714 3.40438 21.0039 3.80176C21.0354 4.18718 21.0352 4.65722 21.0352 5.2002V18.7998ZM16.0352 3.40039C16.0352 3.66304 16.0354 3.92215 16.0176 4.14062C15.9987 4.37134 15.9546 4.6467 15.8135 4.92383C15.6184 5.30674 15.3067 5.61837 14.9238 5.81348C14.6467 5.95465 14.3713 5.99873 14.1406 6.01758C13.9221 6.0354 13.663 6.03516 13.4004 6.03516H10.5996C10.337 6.03516 10.0779 6.0354 9.85938 6.01758C9.62866 5.99873 9.3533 5.95465 9.07617 5.81348C8.69326 5.61837 8.38163 5.30674 8.18652 4.92383C8.04535 4.6467 8.00127 4.37134 7.98242 4.14062C7.9646 3.92215 7.96484 3.66304 7.96484 3.40039V3.03516H7.2002C6.62309 3.03516 6.25228 3.03559 5.9707 3.05859C5.7012 3.08061 5.60521 3.11837 5.56152 3.14062C5.38033 3.23308 5.23308 3.38033 5.14062 3.56152C5.11837 3.60521 5.08061 3.7012 5.05859 3.9707C5.03559 4.25228 5.03516 4.62309 5.03516 5.2002V18.7998C5.03516 19.3769 5.03559 19.7477 5.05859 20.0293C5.08061 20.2988 5.11837 20.3948 5.14062 20.4385C5.23308 20.6197 5.38032 20.7669 5.56152 20.8594C5.60521 20.8816 5.7012 20.9194 5.9707 20.9414C6.25228 20.9644 6.62309 20.9648 7.2002 20.9648H16.7998C17.3769 20.9648 17.7477 20.9644 18.0293 20.9414C18.2988 20.9194 18.3948 20.8816 18.4385 20.8594C18.6197 20.7669 18.7669 20.6197 18.8594 20.4385C18.8816 20.3948 18.9194 20.2988 18.9414 20.0293C18.9644 19.7477 18.9648 19.3769 18.9648 18.7998V5.2002C18.9648 4.62309 18.9644 4.25228 18.9414 3.9707C18.9194 3.7012 18.8816 3.60521 18.8594 3.56152C18.7669 3.38033 18.6197 3.23308 18.4385 3.14062C18.3948 3.11837 18.2988 3.08061 18.0293 3.05859C17.7477 3.03559 17.3769 3.03516 16.7998 3.03516H16.0352V3.40039Z"/></svg>