<svg xmlns="http://www.w3.org/2000/svg" width="24" height="24" fill="none" viewBox="0 0 24 24"><path fill="currentColor" d="M9.67478 0.964945C10.1145 0.964942 10.503 0.958489 10.8799 1.04893C11.1895 1.12328 11.4862 1.24581 11.7578 1.41221C12.0882 1.61472 12.358 1.8943 12.6689 2.20518L20.3379 9.87413C20.9198 10.456 21.4012 10.9362 21.7597 11.3585C22.126 11.7899 22.4244 12.2291 22.5947 12.753C22.858 13.5634 22.858 14.4368 22.5947 15.2472C22.4244 15.7711 22.126 16.2103 21.7597 16.6417C21.4012 17.064 20.9198 17.5442 20.3379 18.1261L18.126 20.338C17.544 20.9199 17.0639 21.4013 16.6416 21.7599C16.2102 22.1261 15.771 22.4245 15.2471 22.5948C14.4366 22.8581 13.5633 22.8581 12.7529 22.5948C12.2289 22.4245 11.7898 22.1261 11.3584 21.7599C10.936 21.4013 10.4559 20.9199 9.874 20.338L2.20506 12.669C1.89417 12.3582 1.6146 12.0883 1.41209 11.7579C1.24568 11.4864 1.12316 11.1897 1.04881 10.88C0.958367 10.5031 0.96482 10.1146 0.964823 9.67491V5.2003C0.964823 4.65732 0.964583 4.18729 0.996073 3.80186C1.02857 3.40448 1.10022 3.00618 1.29588 2.62217C1.58684 2.05118 2.05105 1.58696 2.62205 1.296C3.00606 1.10034 3.40436 1.02869 3.80174 0.996195C4.18716 0.964705 4.6572 0.964945 5.20017 0.964945H9.67478ZM7.99998 6.46495C8.84774 6.46495 9.53514 7.15234 9.53514 8.0001C9.53514 8.84786 8.84774 9.53526 7.99998 9.53526C7.20529 9.53526 6.55136 8.93124 6.47264 8.15733L6.46482 8.0001L6.47264 7.84288C6.55136 7.06896 7.20529 6.46495 7.99998 6.46495ZM3.03514 9.67491C3.03514 10.2123 3.04156 10.3133 3.0615 10.3966C3.08512 10.495 3.12389 10.5896 3.17674 10.6759C3.22152 10.749 3.2884 10.8247 3.66892 11.2052L11.3379 18.8741C11.9439 19.4802 12.3553 19.8906 12.6982 20.1817C13.0315 20.4646 13.2319 20.5738 13.3926 20.6261C13.7872 20.7543 14.2127 20.7543 14.6074 20.6261C14.7681 20.5738 14.9685 20.4646 15.3017 20.1817C15.6446 19.8906 16.056 19.4802 16.6621 18.8741L18.874 16.6622C19.4801 16.0561 19.8905 15.6448 20.1816 15.3019C20.4645 14.9686 20.5737 14.7682 20.626 14.6075C20.7542 14.2129 20.7542 13.7873 20.626 13.3927C20.5737 13.232 20.4645 13.0316 20.1816 12.6983C19.8905 12.3554 19.4801 11.9441 18.874 11.338L11.2051 3.66905C10.8245 3.28852 10.7488 3.22164 10.6758 3.17686C10.5895 3.12401 10.4949 3.08525 10.3965 3.06163C10.3132 3.04169 10.2122 3.03526 9.67478 3.03526H5.20017C4.62307 3.03526 4.25226 3.03569 3.97068 3.0587C3.70118 3.08071 3.60519 3.11847 3.5615 3.14073C3.38031 3.23318 3.23306 3.38043 3.1406 3.56163C3.11834 3.60531 3.08059 3.70131 3.05857 3.9708C3.03557 4.25238 3.03514 4.62319 3.03514 5.2003V9.67491Z"/></svg>