<svg xmlns="http://www.w3.org/2000/svg" width="24" height="24" fill="none" viewBox="0 0 24 24"><path fill="currentColor" d="M9.17478 4.46492C9.61451 4.46491 10.003 4.45846 10.3799 4.5489C10.6895 4.62325 10.9862 4.74578 11.2578 4.91218C11.5882 5.11469 11.858 5.39427 12.1689 5.70515L19.4687 13.0059C19.8526 13.3898 20.1853 13.7209 20.4355 14.0157C20.6936 14.3197 20.9244 14.6525 21.0576 15.0626C21.2556 15.672 21.2556 16.3281 21.0576 16.9376C20.9244 17.3476 20.6936 17.6804 20.4355 17.9844C20.1853 18.2792 19.8526 18.6103 19.4687 18.9942L16.9941 21.4688C16.6102 21.8527 16.2791 22.1854 15.9844 22.4356C15.6803 22.6937 15.3475 22.9245 14.9375 23.0577C14.328 23.2557 13.6719 23.2557 13.0625 23.0577C12.6525 22.9245 12.3197 22.6937 12.0156 22.4356C11.7208 22.1854 11.3897 21.8527 11.0058 21.4688L3.20506 13.669C2.89417 13.3581 2.6146 13.0882 2.41209 12.7579C2.24568 12.4863 2.12316 12.1896 2.04881 11.88C1.95837 11.5031 1.96482 11.1146 1.96482 10.6749V8.70027C1.96482 8.15729 1.96458 7.68726 1.99607 7.30183C2.02857 6.90445 2.10022 6.50615 2.29588 6.12214C2.58684 5.55115 3.05105 5.08693 3.62205 4.79597C4.00606 4.60031 4.40436 4.52866 4.80174 4.49617C5.18716 4.46467 5.6572 4.46492 6.20017 4.46492H9.17478ZM10.0117 0.964915C10.6961 0.964916 11.2072 0.958144 11.6992 1.07624C12.1108 1.17506 12.5043 1.3385 12.8652 1.55964C13.2967 1.82404 13.6537 2.18994 14.1377 2.6739L21.7314 10.2686C22.1356 10.6728 22.1356 11.3273 21.7314 11.7315C21.3272 12.1357 20.6727 12.1357 20.2685 11.7315L12.6738 4.13777C12.1202 3.58418 11.9582 3.43091 11.7842 3.32429C11.6084 3.21657 11.4163 3.13707 11.2158 3.08894C11.0174 3.04137 10.7943 3.03523 10.0117 3.03523H5.99998C5.42837 3.03523 4.96482 2.57169 4.96482 2.00007C4.96482 1.42846 5.42837 0.964916 5.99998 0.964915H10.0117ZM4.03514 10.6749C4.03514 11.2123 4.04157 11.3133 4.0615 11.3966C4.08512 11.4949 4.12389 11.5896 4.17674 11.6759C4.22152 11.7489 4.2884 11.8246 4.66892 12.2051L12.4687 20.0059C12.8768 20.414 13.1401 20.6747 13.3554 20.8575C13.5616 21.0325 13.6555 21.0738 13.7021 21.0889C13.8958 21.1518 14.1041 21.1518 14.2978 21.0889C14.3445 21.0738 14.4384 21.0325 14.6445 20.8575C14.8599 20.6747 15.1232 20.414 15.5312 20.0059L18.0058 17.5313C18.4139 17.1233 18.6746 16.86 18.8574 16.6446C19.0324 16.4385 19.0737 16.3446 19.0888 16.2979C19.1517 16.1042 19.1517 15.8959 19.0888 15.7022C19.0737 15.6556 19.0324 15.5617 18.8574 15.3555C18.6746 15.1402 18.4139 14.8769 18.0058 14.4688L10.7051 7.16902C10.3245 6.7885 10.2488 6.72161 10.1758 6.67683C10.0895 6.62398 9.99485 6.58522 9.89646 6.56159C9.8132 6.54166 9.71217 6.53523 9.17478 6.53523H6.20017C5.62307 6.53523 5.25226 6.53566 4.97068 6.55867C4.70118 6.58068 4.60519 6.61844 4.5615 6.6407C4.38031 6.73315 4.23306 6.8804 4.1406 7.06159C4.11834 7.10528 4.08059 7.20128 4.05857 7.47077C4.03557 7.75235 4.03514 8.12316 4.03514 8.70027V10.6749Z"/></svg>