<svg xmlns="http://www.w3.org/2000/svg" width="24" height="24" fill="none" viewBox="0 0 24 24"><g clip-path="url(#a)"><path fill="currentColor" d="M10.9648 22V20.9736C6.80239 20.4987 3.50129 17.1976 3.02637 13.0352H2C1.42839 13.0352 0.964844 12.5716 0.964844 12C0.964844 11.4284 1.42839 10.9648 2 10.9648H3.02637C3.50129 6.80236 6.80234 3.50027 10.9648 3.02539V2C10.9648 1.42839 11.4284 0.964844 12 0.964844C12.5716 0.964844 13.0352 1.42839 13.0352 2V3.02539C17.1977 3.50027 20.4987 6.80236 20.9736 10.9648H22C22.5716 10.9648 23.0352 11.4284 23.0352 12C23.0352 12.5716 22.5716 13.0352 22 13.0352H20.9736C20.4987 17.1976 17.1976 20.4987 13.0352 20.9736V22C13.0352 22.5716 12.5716 23.0352 12 23.0352C11.4284 23.0352 10.9648 22.5716 10.9648 22ZM13.9648 12C13.9648 10.9148 13.0852 10.0352 12 10.0352C10.9148 10.0352 10.0352 10.9148 10.0352 12C10.0352 13.0852 10.9148 13.9648 12 13.9648C13.0852 13.9648 13.9648 13.0852 13.9648 12ZM10.9648 6V5.11133C7.94689 5.56099 5.56203 7.94691 5.1123 10.9648H6C6.57161 10.9648 7.03516 11.4284 7.03516 12C7.03516 12.5716 6.57161 13.0352 6 13.0352H5.1123C5.56202 16.053 7.94696 18.438 10.9648 18.8877V18C10.9648 17.4284 11.4284 16.9648 12 16.9648C12.5716 16.9648 13.0352 17.4284 13.0352 18V18.8877C16.053 18.438 18.438 16.053 18.8877 13.0352H18C17.4284 13.0352 16.9648 12.5716 16.9648 12C16.9648 11.4284 17.4284 10.9648 18 10.9648H18.8877C18.438 7.94691 16.0531 5.56099 13.0352 5.11133V6C13.0352 6.57161 12.5716 7.03516 12 7.03516C11.4284 7.03516 10.9648 6.57161 10.9648 6ZM16.0352 12C16.0352 14.2285 14.2285 16.0352 12 16.0352C9.77153 16.0352 7.96484 14.2285 7.96484 12C7.96484 9.77153 9.77153 7.96484 12 7.96484C14.2285 7.96484 16.0352 9.77153 16.0352 12Z"/></g><defs><clipPath id="a"><path fill="#fff" d="M0 0H24V24H0z"/></clipPath></defs></svg>