<svg xmlns="http://www.w3.org/2000/svg" width="24" height="24" fill="none" viewBox="0 0 24 24"><g clip-path="url(#a)"><path fill="currentColor" d="M0.964844 12C0.964844 5.90554 5.90554 0.964844 12 0.964844C12.5716 0.964844 13.0352 1.42839 13.0352 2C13.0352 2.57161 12.5716 3.03516 12 3.03516C7.04877 3.03516 3.03516 7.04877 3.03516 12C3.03516 16.9512 7.04877 20.9648 12 20.9648C16.9512 20.9648 20.9648 16.9512 20.9648 12C20.9648 11.4284 21.4284 10.9648 22 10.9648C22.5716 10.9648 23.0352 11.4284 23.0352 12C23.0352 18.0945 18.0945 23.0352 12 23.0352C5.90554 23.0352 0.964844 18.0945 0.964844 12ZM5.96484 12C5.96484 8.66696 8.66696 5.96484 12 5.96484C12.5716 5.96484 13.0352 6.42839 13.0352 7C13.0352 7.57161 12.5716 8.03516 12 8.03516C9.81019 8.03516 8.03516 9.81019 8.03516 12C8.03516 14.1898 9.81019 15.9648 12 15.9648C14.1898 15.9648 15.9648 14.1898 15.9648 12C15.9648 11.4284 16.4284 10.9648 17 10.9648C17.5716 10.9648 18.0352 11.4284 18.0352 12C18.0352 15.333 15.333 18.0352 12 18.0352C8.66696 18.0352 5.96484 15.333 5.96484 12ZM19.166 0.978516C19.4943 1.03188 19.777 1.23963 19.9258 1.53711L20.7715 3.22852L22.4629 4.07422C22.7604 4.22297 22.9681 4.5057 23.0215 4.83398C23.0748 5.16237 22.9667 5.4962 22.7314 5.73145L19.7314 8.73145C19.5374 8.92554 19.2745 9.03515 19 9.03516H16.4277L12.7314 12.7314C12.3273 13.1356 11.6727 13.1356 11.2686 12.7314C10.8644 12.3273 10.8644 11.6727 11.2686 11.2686L14.9648 7.57227V5C14.9648 4.7255 15.0745 4.46265 15.2686 4.26855L18.2686 1.26855L18.3604 1.18555C18.5864 1.00802 18.8787 0.931883 19.166 0.978516ZM17.0352 5.42773V6.96484H18.5723L20.2529 5.2832L19.5371 4.92578C19.3368 4.82563 19.1744 4.66318 19.0742 4.46289L18.7158 3.74609L17.0352 5.42773Z"/></g><defs><clipPath id="a"><path fill="#fff" d="M0 0H24V24H0z"/></clipPath></defs></svg>