<svg xmlns="http://www.w3.org/2000/svg" width="24" height="24" fill="none" viewBox="0 0 24 24"><g clip-path="url(#a)"><path fill="currentColor" d="M20.9648 12C20.9648 7.04877 16.9512 3.03516 12 3.03516C7.04877 3.03516 3.03516 7.04877 3.03516 12C3.03516 16.9512 7.04877 20.9648 12 20.9648C16.9512 20.9648 20.9648 16.9512 20.9648 12ZM16.9648 12C16.9648 9.25791 14.7421 7.03516 12 7.03516C9.25791 7.03516 7.03516 9.25791 7.03516 12C7.03516 14.7421 9.25791 16.9648 12 16.9648C14.7421 16.9648 16.9648 14.7421 16.9648 12ZM12.9648 12C12.9648 11.467 12.533 11.0352 12 11.0352C11.467 11.0352 11.0352 11.467 11.0352 12C11.0352 12.533 11.467 12.9648 12 12.9648C12.533 12.9648 12.9648 12.533 12.9648 12ZM15.0352 12C15.0352 13.6762 13.6762 15.0352 12 15.0352C10.3238 15.0352 8.96484 13.6762 8.96484 12C8.96484 10.3238 10.3238 8.96484 12 8.96484C13.6762 8.96484 15.0352 10.3238 15.0352 12ZM19.0352 12C19.0352 15.8853 15.8853 19.0352 12 19.0352C8.11468 19.0352 4.96484 15.8853 4.96484 12C4.96484 8.11468 8.11468 4.96484 12 4.96484C15.8853 4.96484 19.0352 8.11468 19.0352 12ZM23.0352 12C23.0352 18.0945 18.0945 23.0352 12 23.0352C5.90554 23.0352 0.964844 18.0945 0.964844 12C0.964844 5.90554 5.90554 0.964844 12 0.964844C18.0945 0.964844 23.0352 5.90554 23.0352 12Z"/></g><defs><clipPath id="a"><path fill="#fff" d="M0 0H24V24H0z"/></clipPath></defs></svg>