<svg xmlns="http://www.w3.org/2000/svg" width="24" height="24" fill="none" viewBox="0 0 24 24"><g clip-path="url(#a)"><path fill="currentColor" d="M12 0.964844C18.0945 0.964844 23.0352 5.90554 23.0352 12C23.0352 18.0945 18.0945 23.0352 12 23.0352C5.90554 23.0352 0.964844 18.0945 0.964844 12C0.964844 5.90554 5.90554 0.964844 12 0.964844ZM10.9648 6V3.0957C6.84103 3.56991 3.57094 6.84104 3.09668 10.9648H6C6.57161 10.9648 7.03516 11.4284 7.03516 12C7.03516 12.5716 6.57161 13.0352 6 13.0352H3.09668C3.57094 17.1589 6.84108 20.4291 10.9648 20.9033V18C10.9648 17.4284 11.4284 16.9648 12 16.9648C12.5716 16.9648 13.0352 17.4284 13.0352 18V20.9033C17.1589 20.4291 20.4291 17.1589 20.9033 13.0352H18C17.4284 13.0352 16.9648 12.5716 16.9648 12C16.9648 11.4284 17.4284 10.9648 18 10.9648H20.9033C20.4291 6.84104 17.159 3.56991 13.0352 3.0957V6C13.0352 6.57161 12.5716 7.03516 12 7.03516C11.4284 7.03516 10.9648 6.57161 10.9648 6Z"/></g><defs><clipPath id="a"><path fill="#fff" d="M0 0H24V24H0z"/></clipPath></defs></svg>