<svg xmlns="http://www.w3.org/2000/svg" width="24" height="24" fill="none" viewBox="0 0 24 24"><path fill="currentColor" d="M12.9658 13.2C12.9658 12.667 12.5329 12.2351 11.9999 12.2351C11.4672 12.2353 11.0351 12.6671 11.0351 13.2C11.0352 13.4981 11.1712 13.7642 11.3837 13.9412C11.4101 13.956 11.4364 13.9716 11.4619 13.989C11.4891 14.0076 11.5151 14.0279 11.54 14.0486C11.6766 14.1229 11.8335 14.1647 11.9999 14.1648C12.1676 14.1648 12.3255 14.1218 12.4628 14.0466C12.4871 14.0267 12.5125 14.0071 12.539 13.989C12.5643 13.9718 12.59 13.9558 12.6162 13.9412C12.829 13.7642 12.9657 13.4984 12.9658 13.2ZM5.85932 8.62769L6.61713 11.4578L17.1748 8.62964L16.4169 5.79956L5.85932 8.62769ZM3.22065 10.3699L3.46088 11.2683L4.35834 11.0281L4.35346 11.0095L4.11811 10.1296L3.22065 10.3699ZM20.0214 3.79956C19.591 3.9155 19.2952 3.99739 19.0673 4.07886C18.8132 4.16972 18.7308 4.23061 18.6943 4.26343C18.5428 4.39979 18.4378 4.5807 18.3955 4.78003C18.3853 4.82816 18.3744 4.93075 18.4228 5.19605C18.4732 5.47216 18.5671 5.82755 18.7148 6.37867L18.873 6.96851C19.0224 7.52598 19.1197 7.88412 19.2148 8.15015C19.3057 8.40453 19.3656 8.48774 19.3984 8.52417C19.5347 8.67553 19.7158 8.77961 19.915 8.82203C19.9629 8.83222 20.0652 8.84311 20.331 8.79468C20.5691 8.75128 20.8661 8.67415 21.2968 8.55933L20.0214 3.79956ZM15.0351 13.2C15.0351 13.8622 14.8199 14.4725 14.4599 14.9714L18.8554 21.4168C19.1774 21.889 19.0552 22.5332 18.583 22.8552C18.1108 23.1768 17.4674 23.0548 17.1455 22.5828L12.7499 16.1365C12.5098 16.1976 12.2591 16.2351 11.9999 16.2351C11.7407 16.2351 11.4902 16.1977 11.2499 16.1365L6.85541 22.5828C6.53339 23.055 5.8892 23.1772 5.41694 22.8552C4.9447 22.5332 4.82345 21.889 5.14545 21.4168L9.53901 14.9705C9.17965 14.4718 8.96581 13.8615 8.96577 13.2C8.96577 13.1225 8.96885 13.0455 8.97456 12.9695L6.9267 13.5193C6.80797 13.5511 6.65887 13.5916 6.52534 13.616C6.37986 13.6425 6.16545 13.6672 5.91987 13.615C5.60304 13.5475 5.31536 13.3821 5.09858 13.1414C5.05734 13.0956 5.02116 13.0488 4.9892 13.0027L3.76948 13.3298C3.65093 13.3616 3.50234 13.4022 3.36909 13.4265C3.22361 13.453 3.0092 13.4777 2.76362 13.4255C2.44674 13.3581 2.15916 13.1926 1.94233 12.9519C1.77433 12.7653 1.68937 12.5667 1.63959 12.4275C1.59394 12.2997 1.5542 12.1506 1.52241 12.032L1.1601 10.6794C1.12829 10.5607 1.08775 10.4115 1.06342 10.2781C1.03693 10.1327 1.01131 9.91893 1.06342 9.67359L1.0937 9.5564C1.17386 9.28595 1.32729 9.04214 1.53803 8.8523L1.67866 8.74097C1.81962 8.64369 1.95695 8.58596 2.06147 8.54859C2.1893 8.50289 2.33921 8.46419 2.45795 8.43238L3.6767 8.10523C3.68132 8.0495 3.69032 7.99146 3.70307 7.9314L3.73237 7.81324C3.81261 7.54294 3.96601 7.29885 4.1767 7.10913C4.36328 6.94114 4.56188 6.85618 4.70112 6.8064C4.82881 6.76078 4.97803 6.72197 5.09663 6.69019L16.6406 3.59546C16.808 3.26916 17.0327 2.97274 17.3085 2.72437C17.6289 2.43597 17.9955 2.26388 18.371 2.12964C18.7351 1.99951 19.1886 1.87852 19.7128 1.73804C19.8315 1.70624 19.9807 1.66571 20.1142 1.64136C20.2234 1.62147 20.3712 1.60223 20.5419 1.61597L20.7197 1.64136L20.8369 1.67163C21.0685 1.74037 21.2806 1.86286 21.456 2.02906L21.541 2.11597L21.6523 2.2566C21.7494 2.39741 21.8063 2.53496 21.8437 2.63941C21.8894 2.76723 21.9291 2.91715 21.9609 3.03589L23.3583 8.25171C23.3902 8.37044 23.4307 8.51956 23.455 8.65308C23.4815 8.79848 23.5071 9.01223 23.455 9.25757C23.3876 9.57465 23.2213 9.86293 22.9804 10.0798C22.794 10.2477 22.5962 10.3328 22.457 10.3826C22.3291 10.4283 22.1792 10.467 22.0605 10.4988C21.536 10.6393 21.0825 10.7615 20.7021 10.8308C20.3099 10.9023 19.9068 10.936 19.4853 10.8464C19.1216 10.7691 18.7782 10.6249 18.4697 10.4255L14.5048 11.488C14.8386 11.9755 15.0351 12.5645 15.0351 13.2Z"/></svg>