<svg xmlns="http://www.w3.org/2000/svg" width="24" height="24" fill="none" viewBox="0 0 24 24"><g clip-path="url(#a)"><path fill="currentColor" d="M20.9648 12C20.9648 7.04877 16.9512 3.03516 12 3.03516C7.04877 3.03516 3.03516 7.04877 3.03516 12C3.03516 16.9512 7.04877 20.9648 12 20.9648C16.9512 20.9648 20.9648 16.9512 20.9648 12ZM6.26855 8.26855C6.67275 7.86436 7.32725 7.86436 7.73145 8.26855L10.7314 11.2686C11.1356 11.6727 11.1356 12.3273 10.7314 12.7314L7.73145 15.7314C7.32725 16.1356 6.67275 16.1356 6.26855 15.7314C5.86436 15.3273 5.86436 14.6727 6.26855 14.2686L8.53711 12L6.26855 9.73145C5.86436 9.32725 5.86436 8.67275 6.26855 8.26855ZM17 13.9648C17.5716 13.9648 18.0352 14.4284 18.0352 15C18.0352 15.5716 17.5716 16.0352 17 16.0352H13C12.4284 16.0352 11.9648 15.5716 11.9648 15C11.9648 14.4284 12.4284 13.9648 13 13.9648H17ZM23.0352 12C23.0352 18.0945 18.0945 23.0352 12 23.0352C5.90554 23.0352 0.964844 18.0945 0.964844 12C0.964844 5.90554 5.90554 0.964844 12 0.964844C18.0945 0.964844 23.0352 5.90554 23.0352 12Z"/></g><defs><clipPath id="a"><path fill="#fff" d="M0 0H24V24H0z"/></clipPath></defs></svg>