<svg xmlns="http://www.w3.org/2000/svg" width="24" height="24" fill="none" viewBox="0 0 24 24"><path fill="currentColor" d="M20 17.9648C20.5716 17.9648 21.0351 18.4283 21.0351 18.9999C21.0351 19.5715 20.5716 20.0351 20 20.0351H12C11.4284 20.0351 10.9648 19.5715 10.9648 18.9999C10.9648 18.4283 11.4284 17.9648 12 17.9648H20ZM3.26854 4.26848C3.67273 3.86428 4.32724 3.86428 4.73143 4.26848L10.7314 10.2685C11.1356 10.6727 11.1356 11.3272 10.7314 11.7314L4.73143 17.7314C4.32724 18.1356 3.67273 18.1356 3.26854 17.7314C2.86434 17.3272 2.86434 16.6727 3.26854 16.2685L8.53709 10.9999L3.26854 5.73137C2.86434 5.32717 2.86434 4.67267 3.26854 4.26848Z"/></svg>