<svg xmlns="http://www.w3.org/2000/svg" width="24" height="24" fill="none" viewBox="0 0 24 24"><g clip-path="url(#a)"><path fill="currentColor" d="M18.9648 4C18.9648 3.46705 18.533 3.03516 18 3.03516C17.467 3.03516 17.0352 3.46705 17.0352 4V14.5352C17.0351 14.9045 16.8381 15.2456 16.5186 15.4307C15.6296 15.9449 15.0352 16.9038 15.0352 18C15.0352 19.6375 16.3625 20.9648 18 20.9648C19.6375 20.9648 20.9648 19.6375 20.9648 18C20.9648 16.9038 20.3704 15.9449 19.4814 15.4307C19.1619 15.2456 18.9649 14.9045 18.9648 14.5352V4ZM5.86816 17.668C6.27236 17.2639 6.92787 17.2638 7.33203 17.668C7.73619 18.0721 7.73613 18.7276 7.33203 19.1318L5.93164 20.5322C5.52742 20.9361 4.87187 20.9363 4.46777 20.5322C4.06368 20.1281 4.06387 19.4726 4.46777 19.0684L5.86816 17.668ZM12.0166 7.96484C12.5881 7.97405 13.0443 8.4451 13.0352 9.0166C13.0259 9.58812 12.5549 10.0443 11.9834 10.0352C11.3221 10.0245 10.6762 10.2351 10.1484 10.6338C9.62067 11.0325 9.24076 11.5962 9.07031 12.2354C8.89987 12.8745 8.94886 13.5525 9.20801 14.1611C9.46717 14.7696 9.92216 15.2747 10.501 15.5947C11.001 15.8714 11.1818 16.5008 10.9053 17.001C10.6286 17.501 9.99915 17.6818 9.49902 17.4053C8.51614 16.8617 7.74276 16.0051 7.30273 14.9717C6.86282 13.9383 6.78094 12.7874 7.07031 11.7021C7.35974 10.6168 8.00417 9.65958 8.90039 8.98242C9.79662 8.30528 10.8935 7.94676 12.0166 7.96484ZM4 11.9648C4.57161 11.9648 5.03516 12.4284 5.03516 13C5.03516 13.5716 4.57161 14.0352 4 14.0352H2C1.42839 14.0352 0.964844 13.5716 0.964844 13C0.964844 12.4284 1.42839 11.9648 2 11.9648H4ZM4.46777 5.46777C4.87187 5.06368 5.52742 5.06387 5.93164 5.46777L7.33203 6.86816C7.73613 7.27236 7.73619 7.92787 7.33203 8.33203C6.92787 8.73619 6.27236 8.73613 5.86816 8.33203L4.46777 6.93164C4.06387 6.52742 4.06368 5.87187 4.46777 5.46777ZM10.9648 5V3C10.9648 2.42839 11.4284 1.96484 12 1.96484C12.5716 1.96484 13.0352 2.42839 13.0352 3V5C13.0352 5.57161 12.5716 6.03516 12 6.03516C11.4284 6.03516 10.9648 5.57161 10.9648 5ZM21.0352 13.9834C22.2483 14.9015 23.0352 16.3582 23.0352 18C23.0352 20.7808 20.7808 23.0352 18 23.0352C15.2192 23.0352 12.9648 20.7808 12.9648 18C12.9648 16.3582 13.7517 14.9015 14.9648 13.9834V4C14.9648 2.32382 16.3238 0.964844 18 0.964844C19.6762 0.964844 21.0352 2.32382 21.0352 4V13.9834Z"/></g><defs><clipPath id="a"><path fill="#fff" d="M0 0H24V24H0z"/></clipPath></defs></svg>