<svg xmlns="http://www.w3.org/2000/svg" width="24" height="24" fill="none" viewBox="0 0 24 24"><path fill="currentColor" d="M9.46484 4.5C9.46484 3.6909 8.8091 3.03516 8 3.03516C7.1909 3.03516 6.53516 3.6909 6.53516 4.5V13.7578C6.53514 14.1031 6.36306 14.426 6.07617 14.6182C5.14496 15.2415 4.53516 16.2996 4.53516 17.5C4.53516 19.4137 6.08633 20.9648 8 20.9648C9.91367 20.9648 11.4648 19.4137 11.4648 17.5C11.4648 16.2996 10.855 15.2415 9.92383 14.6182C9.63694 14.426 9.46486 14.1031 9.46484 13.7578V4.5ZM8 17.4648C7.98067 17.4648 7.96484 17.4807 7.96484 17.5C7.96484 17.5193 7.98067 17.5352 8 17.5352C8.00967 17.5352 8.01808 17.5307 8.02441 17.5244L8.03516 17.5L8.02441 17.4756C8.01808 17.4693 8.00967 17.4648 8 17.4648ZM21 9.96484C21.5716 9.96484 22.0352 10.4284 22.0352 11C22.0352 11.5716 21.5716 12.0352 21 12.0352H15C14.4284 12.0352 13.9648 11.5716 13.9648 11C13.9648 10.4284 14.4284 9.96484 15 9.96484H21ZM21 5.96484C21.5716 5.96484 22.0352 6.42839 22.0352 7C22.0352 7.57161 21.5716 8.03516 21 8.03516H15C14.4284 8.03516 13.9648 7.57161 13.9648 7C13.9648 6.42839 14.4284 5.96484 15 5.96484H21ZM21 1.96484C21.5716 1.96484 22.0352 2.42839 22.0352 3C22.0352 3.57161 21.5716 4.03516 21 4.03516H15C14.4284 4.03516 13.9648 3.57161 13.9648 3C13.9648 2.42839 14.4284 1.96484 15 1.96484H21ZM10.0352 17.5C10.0352 18.6239 9.1239 19.5352 8 19.5352C6.8761 19.5352 5.96484 18.6239 5.96484 17.5C5.96484 16.3761 6.8761 15.4648 8 15.4648C9.1239 15.4648 10.0352 16.3761 10.0352 17.5ZM11.5352 13.2432C12.7549 14.2572 13.5352 15.7868 13.5352 17.5C13.5352 20.5569 11.0569 23.0352 8 23.0352C4.9431 23.0352 2.46484 20.5569 2.46484 17.5C2.46484 15.7868 3.24512 14.2572 4.46484 13.2432V4.5C4.46484 2.54767 6.04767 0.964844 8 0.964844C9.95233 0.964844 11.5352 2.54767 11.5352 4.5V13.2432Z"/></svg>