<svg xmlns="http://www.w3.org/2000/svg" width="24" height="24" fill="none" viewBox="0 0 24 24"><g clip-path="url(#a)"><path fill="currentColor" d="M18.9648 4C18.9648 3.46705 18.533 3.03516 18 3.03516C17.467 3.03516 17.0352 3.46705 17.0352 4V14.5352C17.0351 14.9045 16.8381 15.2456 16.5186 15.4307C15.6296 15.9449 15.0352 16.9038 15.0352 18C15.0352 19.6375 16.3625 20.9648 18 20.9648C19.6375 20.9648 20.9648 19.6375 20.9648 18C20.9648 16.9038 20.3704 15.9449 19.4814 15.4307C19.1619 15.2456 18.9649 14.9045 18.9648 14.5352V4ZM7.96484 20V17.498L6.73145 18.7314C6.32725 19.1356 5.67275 19.1356 5.26855 18.7314C4.86436 18.3273 4.86436 17.6727 5.26855 17.2686L7.96484 14.5723V13.0352H6.42773L3.73145 15.7314C3.32725 16.1356 2.67275 16.1356 2.26855 15.7314C1.86436 15.3273 1.86436 14.6727 2.26855 14.2686L3.50195 13.0352H2C1.42839 13.0352 0.964844 12.5716 0.964844 12C0.964844 11.4284 1.42839 10.9648 2 10.9648H3.50195L2.26855 9.73145C1.86436 9.32725 1.86436 8.67275 2.26855 8.26855C2.67275 7.86436 3.32725 7.86436 3.73145 8.26855L6.42773 10.9648H7.96484V9.42773L5.26855 6.73145C4.86436 6.32725 4.86436 5.67275 5.26855 5.26855C5.67275 4.86436 6.32725 4.86436 6.73145 5.26855L7.96484 6.50195V4C7.96484 3.42839 8.42839 2.96484 9 2.96484C9.57161 2.96484 10.0352 3.42839 10.0352 4V6.50195L11.2686 5.26855C11.6727 4.86436 12.3273 4.86436 12.7314 5.26855C13.1356 5.67275 13.1356 6.32725 12.7314 6.73145L10.0352 9.42773V10.9648H12C12.5716 10.9648 13.0352 11.4284 13.0352 12C13.0352 12.5716 12.5716 13.0352 12 13.0352H10.0352V14.5723L11.2314 15.7686C11.6356 16.1727 11.6356 16.8273 11.2314 17.2314C10.9075 17.5554 10.4232 17.6191 10.0352 17.4238V20C10.0352 20.5716 9.57161 21.0352 9 21.0352C8.42839 21.0352 7.96484 20.5716 7.96484 20ZM21.0352 13.9834C22.2483 14.9015 23.0352 16.3582 23.0352 18C23.0352 20.7808 20.7808 23.0352 18 23.0352C15.2192 23.0352 12.9648 20.7808 12.9648 18C12.9648 16.3582 13.7517 14.9015 14.9648 13.9834V4C14.9648 2.32382 16.3238 0.964844 18 0.964844C19.6762 0.964844 21.0352 2.32382 21.0352 4V13.9834Z"/></g><defs><clipPath id="a"><path fill="#fff" d="M0 0H24V24H0z"/></clipPath></defs></svg>