<svg xmlns="http://www.w3.org/2000/svg" width="24" height="24" fill="none" viewBox="0 0 24 24"><path fill="currentColor" d="M13.4648 4.5C13.4648 3.6909 12.8091 3.03516 12 3.03516C11.1909 3.03516 10.5352 3.6909 10.5352 4.5V13.7578C10.5351 14.1031 10.3631 14.426 10.0762 14.6182C9.14496 15.2415 8.53516 16.2996 8.53516 17.5C8.53516 19.4137 10.0863 20.9648 12 20.9648C13.9137 20.9648 15.4648 19.4137 15.4648 17.5C15.4648 16.2996 14.855 15.2415 13.9238 14.6182C13.6369 14.426 13.4649 14.1031 13.4648 13.7578V4.5ZM12 17.4648C11.9807 17.4648 11.9648 17.4807 11.9648 17.5C11.9648 17.5193 11.9807 17.5352 12 17.5352C12.0097 17.5352 12.0181 17.5307 12.0244 17.5244L12.0352 17.5L12.0244 17.4756C12.0181 17.4693 12.0097 17.4648 12 17.4648ZM14.0352 17.5C14.0352 18.6239 13.1239 19.5352 12 19.5352C10.8761 19.5352 9.96484 18.6239 9.96484 17.5C9.96484 16.3761 10.8761 15.4648 12 15.4648C13.1239 15.4648 14.0352 16.3761 14.0352 17.5ZM15.5352 13.2432C16.7549 14.2572 17.5352 15.7868 17.5352 17.5C17.5352 20.5569 15.0569 23.0352 12 23.0352C8.9431 23.0352 6.46484 20.5569 6.46484 17.5C6.46484 15.7868 7.24512 14.2572 8.46484 13.2432V4.5C8.46484 2.54767 10.0477 0.964844 12 0.964844C13.9523 0.964844 15.5352 2.54767 15.5352 4.5V13.2432Z"/></svg>