<svg xmlns="http://www.w3.org/2000/svg" width="24" height="24" fill="none" viewBox="0 0 24 24"><path fill="currentColor" d="M20.9647 5.2002C20.9647 4.62309 20.9643 4.25228 20.9413 3.97071C20.9192 3.70121 20.8825 3.60521 20.8602 3.56153C20.7678 3.38014 20.6197 3.23314 20.4383 3.14063C20.3946 3.11837 20.2987 3.08062 20.0292 3.0586C19.7476 3.0356 19.3767 3.03516 18.7997 3.03516H18.035V11.9648H18.7997C19.3767 11.9648 19.7476 11.9644 20.0292 11.9414C20.2987 11.9194 20.3946 11.8816 20.4383 11.8594C20.6197 11.7669 20.7678 11.6199 20.8602 11.4385C20.8825 11.3948 20.9192 11.2988 20.9413 11.0293C20.9643 10.7477 20.9647 10.3769 20.9647 9.79981V5.2002ZM11.035 19.5342C11.035 20.2786 11.6034 20.8896 12.3299 20.958L15.6317 13.5303C15.7164 13.3397 15.8172 13.0966 15.9647 12.8691V3.03516H8.11802C7.3716 3.03516 6.86916 3.03568 6.47837 3.06543C6.10063 3.0942 5.90401 3.14586 5.76255 3.20996C5.4219 3.36432 5.13198 3.61259 4.92759 3.92578C4.84274 4.05583 4.76149 4.24249 4.67564 4.61133C4.58681 4.99306 4.50984 5.4898 4.39634 6.22754L3.87388 9.62793C3.72457 10.5984 3.62299 11.2615 3.58872 11.7754C3.55516 12.2792 3.59636 12.5308 3.66099 12.7002C3.82349 13.1262 4.12889 13.4826 4.52525 13.708C4.68294 13.7977 4.92622 13.8765 5.42954 13.9199C5.94267 13.9642 6.61291 13.9648 7.59458 13.9648H8.40025C8.66308 13.9648 8.92288 13.9646 9.14146 13.9824C9.37206 14.0013 9.64677 14.0455 9.92368 14.1865C10.2586 14.3572 10.5387 14.617 10.7342 14.9355L10.8133 15.0762L10.9022 15.2832C10.9751 15.4882 11.0033 15.6864 11.0174 15.8594C11.0353 16.0779 11.035 16.337 11.035 16.5996V19.5342ZM23.035 9.79981C23.035 10.3428 23.0353 10.8128 23.0038 11.1982C22.9713 11.5956 22.8996 11.9939 22.704 12.3779C22.413 12.9489 21.9488 13.4131 21.3778 13.7041C20.9938 13.8998 20.5955 13.9714 20.1981 14.0039C19.8127 14.0354 19.3426 14.0352 18.7997 14.0352H18.0399C17.8505 14.0352 17.7484 14.035 17.6756 14.0391C17.6424 14.1039 17.6004 14.1967 17.5233 14.3701L14.1629 21.9326C13.8649 22.6031 13.1994 23.0352 12.4657 23.0352C10.5323 23.0351 8.96471 21.4676 8.9647 19.5342V16.5996C8.9647 16.3166 8.96313 16.1576 8.95493 16.0439C8.84132 16.0358 8.68236 16.0352 8.40025 16.0352H7.59458C6.64923 16.0352 5.87375 16.0362 5.25083 15.9824C4.61805 15.9278 4.03365 15.8102 3.50181 15.5078C2.68782 15.0449 2.06013 14.3124 1.72642 13.4375C1.50858 12.8661 1.48109 12.2712 1.52329 11.6377C1.5649 11.0138 1.68422 10.247 1.82798 9.3125L2.35044 5.91309C2.45917 5.20634 2.54921 4.61877 2.66001 4.14258C2.77376 3.65379 2.92502 3.20749 3.19419 2.79492C3.6139 2.15168 4.20847 1.64123 4.90806 1.32422C5.35671 1.12093 5.82079 1.03908 6.32115 1.00098C6.80864 0.963869 7.40296 0.964846 8.11802 0.964846H18.7997C19.3426 0.964846 19.8127 0.964606 20.1981 0.996096C20.5955 1.02859 20.9938 1.10023 21.3778 1.2959C21.9488 1.58686 22.413 2.05107 22.704 2.62207C22.8996 3.00608 22.9713 3.40438 23.0038 3.80176C23.0353 4.18719 23.035 4.65722 23.035 5.2002V9.79981Z"/></svg>