<svg xmlns="http://www.w3.org/2000/svg" width="24" height="24" fill="none" viewBox="0 0 24 24"><path fill="currentColor" d="M12.9648 4.46582C12.9648 3.72104 12.396 3.10893 11.6689 3.04102L8.20996 10.8262C8.16087 10.9366 8.10131 11.0407 8.03516 11.1387V20.9648H17.4258C18.3956 20.9648 19.2207 20.2574 19.3682 19.2988L20.4453 12.2988C20.6284 11.1085 19.7072 10.0352 18.5029 10.0352H15C13.8761 10.0352 12.9648 9.1239 12.9648 8V4.46582ZM3.03516 20C3.03516 20.533 3.46705 20.9648 4 20.9648H5.96484V12.0352H4C3.46705 12.0352 3.03516 12.467 3.03516 13V20ZM15.0352 7.96484H18.5029C20.9758 7.96484 22.8671 10.1691 22.4912 12.6133L21.4141 19.6133C21.1112 21.5817 19.4173 23.0352 17.4258 23.0352H4C2.32382 23.0352 0.964844 21.6762 0.964844 20V13C0.964844 11.3238 2.32382 9.96484 4 9.96484H6.32715L9.83691 2.06738C10.135 1.3969 10.8004 0.964844 11.5342 0.964844L11.7139 0.969727C13.5638 1.06327 15.0351 2.59264 15.0352 4.46582V7.96484Z"/></svg>