<svg xmlns="http://www.w3.org/2000/svg" width="24" height="24" fill="none" viewBox="0 0 24 24"><path fill="currentColor" d="M20.9648 7.2002C20.9648 6.62309 20.9644 6.25228 20.9414 5.9707C20.9194 5.7012 20.8816 5.60521 20.8594 5.56152C20.7669 5.38033 20.6197 5.23308 20.4385 5.14062C20.3948 5.11836 20.2988 5.08061 20.0293 5.05859C19.7477 5.03559 19.3769 5.03516 18.7998 5.03516H5.2002C4.62309 5.03516 4.25228 5.03559 3.9707 5.05859C3.7012 5.08061 3.60521 5.11837 3.56152 5.14062C3.38033 5.23308 3.23308 5.38033 3.14062 5.56152C3.11837 5.60521 3.08061 5.7012 3.05859 5.9707C3.03559 6.25228 3.03516 6.62309 3.03516 7.2002V7.58496C5.04082 8.05338 6.53516 9.85162 6.53516 12C6.53516 14.1483 5.04071 15.9456 3.03516 16.4141V16.7998C3.03516 17.3769 3.03559 17.7477 3.05859 18.0293C3.08061 18.2988 3.11837 18.3948 3.14062 18.4385C3.23308 18.6197 3.38033 18.7669 3.56152 18.8594C3.60521 18.8816 3.7012 18.9194 3.9707 18.9414C4.25228 18.9644 4.62309 18.9648 5.2002 18.9648H18.7998C19.3769 18.9648 19.7477 18.9644 20.0293 18.9414C20.2988 18.9194 20.3948 18.8816 20.4385 18.8594C20.6197 18.7669 20.7669 18.6197 20.8594 18.4385C20.8816 18.3948 20.9194 18.2988 20.9414 18.0293C20.9644 17.7477 20.9648 17.3769 20.9648 16.7998V16.4141C18.9593 15.9456 17.4648 14.1483 17.4648 12C17.4648 9.85162 18.9592 8.05338 20.9648 7.58496V7.2002ZM8.96484 17V16C8.96484 15.4284 9.42839 14.9648 10 14.9648C10.5716 14.9648 11.0352 15.4284 11.0352 16V17C11.0352 17.5716 10.5716 18.0352 10 18.0352C9.42839 18.0352 8.96484 17.5716 8.96484 17ZM8.96484 12.5V11.5C8.96484 10.9284 9.42839 10.4648 10 10.4648C10.5716 10.4648 11.0352 10.9284 11.0352 11.5V12.5C11.0352 13.0716 10.5716 13.5352 10 13.5352C9.42839 13.5352 8.96484 13.0716 8.96484 12.5ZM8.96484 8V7C8.96484 6.42839 9.42839 5.96484 10 5.96484C10.5716 5.96484 11.0352 6.42839 11.0352 7V8C11.0352 8.57161 10.5716 9.03516 10 9.03516C9.42839 9.03516 8.96484 8.57161 8.96484 8ZM23.0352 8.5C23.0352 9.07161 22.5716 9.53516 22 9.53516C20.6386 9.53516 19.5352 10.6386 19.5352 12C19.5352 13.3614 20.6386 14.4648 22 14.4648C22.5716 14.4648 23.0352 14.9284 23.0352 15.5V16.7998C23.0352 17.3428 23.0354 17.8128 23.0039 18.1982C22.9714 18.5956 22.8998 18.9939 22.7041 19.3779C22.4131 19.9489 21.9489 20.4131 21.3779 20.7041C20.9939 20.8998 20.5956 20.9714 20.1982 21.0039C19.8128 21.0354 19.3428 21.0352 18.7998 21.0352H5.2002C4.65722 21.0352 4.18718 21.0354 3.80176 21.0039C3.40438 20.9714 3.00608 20.8998 2.62207 20.7041C2.05107 20.4131 1.58686 19.9489 1.2959 19.3779C1.10024 18.9939 1.02859 18.5956 0.996094 18.1982C0.964603 17.8128 0.964844 17.3428 0.964844 16.7998V15.5C0.964844 14.9284 1.42839 14.4648 2 14.4648C3.36138 14.4648 4.46484 13.3614 4.46484 12C4.46484 10.6386 3.36138 9.53516 2 9.53516C1.42839 9.53516 0.964844 9.07161 0.964844 8.5V7.2002C0.964844 6.65722 0.964603 6.18718 0.996094 5.80176C1.02859 5.40438 1.10024 5.00608 1.2959 4.62207C1.58686 4.05107 2.05107 3.58686 2.62207 3.2959C3.00608 3.10024 3.40438 3.02859 3.80176 2.99609C4.18718 2.9646 4.65722 2.96484 5.2002 2.96484H18.7998C19.3428 2.96484 19.8128 2.9646 20.1982 2.99609C20.5956 3.02859 20.9939 3.10024 21.3779 3.2959C21.9489 3.58686 22.4131 4.05107 22.7041 4.62207C22.8998 5.00608 22.9714 5.40438 23.0039 5.80176C23.0354 6.18718 23.0352 6.65722 23.0352 7.2002V8.5Z"/></svg>