<svg xmlns="http://www.w3.org/2000/svg" width="24" height="24" fill="none" viewBox="0 0 24 24"><path fill="currentColor" d="M20.9648 8.7998C20.9648 7.94287 20.9643 7.36234 20.9277 6.91406C20.8921 6.47781 20.8277 6.25807 20.751 6.10742C20.5626 5.73794 20.2621 5.43737 19.8926 5.24902C19.7419 5.17227 19.5222 5.10791 19.0859 5.07227C18.6377 5.03565 18.0571 5.03516 17.2002 5.03516H6.7998C5.94287 5.03516 5.36234 5.03565 4.91406 5.07227C4.47781 5.10791 4.25807 5.17227 4.10742 5.24902C3.73794 5.43737 3.43737 5.73794 3.24902 6.10742C3.17227 6.25807 3.10791 6.47781 3.07227 6.91406C3.03565 7.36234 3.03516 7.94287 3.03516 8.7998V15.2002C3.03516 16.0571 3.03565 16.6377 3.07227 17.0859C3.10791 17.5222 3.17227 17.7419 3.24902 17.8926C3.43737 18.2621 3.73794 18.5626 4.10742 18.751C4.25807 18.8277 4.47781 18.8921 4.91406 18.9277C5.36234 18.9643 5.94287 18.9648 6.7998 18.9648H17.2002C18.0571 18.9648 18.6377 18.9643 19.0859 18.9277C19.5222 18.8921 19.7419 18.8277 19.8926 18.751C20.2621 18.5626 20.5626 18.2621 20.751 17.8926C20.8277 17.7419 20.8921 17.5222 20.9277 17.0859C20.9643 16.6377 20.9648 16.0571 20.9648 15.2002V8.7998ZM6.96484 17V16C6.96484 15.4284 7.42839 14.9648 8 14.9648C8.57161 14.9648 9.03516 15.4284 9.03516 16V17C9.03516 17.5716 8.57161 18.0352 8 18.0352C7.42839 18.0352 6.96484 17.5716 6.96484 17ZM6.96484 12.5V11.5C6.96484 10.9284 7.42839 10.4648 8 10.4648C8.57161 10.4648 9.03516 10.9284 9.03516 11.5V12.5C9.03516 13.0716 8.57161 13.5352 8 13.5352C7.42839 13.5352 6.96484 13.0716 6.96484 12.5ZM6.96484 8V7C6.96484 6.42839 7.42839 5.96484 8 5.96484C8.57161 5.96484 9.03516 6.42839 9.03516 7V8C9.03516 8.57161 8.57161 9.03516 8 9.03516C7.42839 9.03516 6.96484 8.57161 6.96484 8ZM23.0352 15.2002C23.0352 16.0231 23.0353 16.7027 22.9902 17.2549C22.9441 17.8191 22.8449 18.341 22.5947 18.832C22.2079 19.591 21.591 20.2079 20.832 20.5947C20.341 20.8449 19.8191 20.9441 19.2549 20.9902C18.7027 21.0353 18.0231 21.0352 17.2002 21.0352H6.7998C5.97689 21.0352 5.29725 21.0353 4.74512 20.9902C4.18095 20.9441 3.65899 20.8449 3.16797 20.5947C2.409 20.2079 1.79208 19.591 1.40527 18.832C1.15509 18.341 1.05588 17.8191 1.00977 17.2549C0.964654 16.7027 0.964844 16.0231 0.964844 15.2002V8.7998C0.964844 7.97689 0.964654 7.29725 1.00977 6.74512C1.05588 6.18095 1.15509 5.65899 1.40527 5.16797C1.79208 4.409 2.409 3.79208 3.16797 3.40527C3.65899 3.15509 4.18095 3.05588 4.74512 3.00977C5.29725 2.96465 5.97689 2.96484 6.7998 2.96484H17.2002C18.0231 2.96484 18.7027 2.96465 19.2549 3.00977C19.8191 3.05588 20.341 3.15509 20.832 3.40527C21.591 3.79208 22.2079 4.409 22.5947 5.16797C22.8449 5.65899 22.9441 6.18095 22.9902 6.74512C23.0353 7.29725 23.0352 7.97689 23.0352 8.7998V15.2002Z"/></svg>