<svg xmlns="http://www.w3.org/2000/svg" width="24" height="24" fill="none" viewBox="0 0 24 24"><path fill="currentColor" d="M10.9648 12C10.9648 9.81019 9.18981 8.03516 7 8.03516C4.81019 8.03516 3.03516 9.81019 3.03516 12C3.03516 14.1898 4.81019 15.9648 7 15.9648C9.18981 15.9648 10.9648 14.1898 10.9648 12ZM13.0352 12C13.0352 13.0779 12.751 14.089 12.2559 14.9648H18C19.6375 14.9648 20.9648 13.6375 20.9648 12C20.9648 10.3625 19.6375 9.03516 18 9.03516H12.2559C12.751 9.91101 13.0352 10.9221 13.0352 12ZM23.0352 12C23.0352 14.7808 20.7808 17.0352 18 17.0352H10.3252C9.37156 17.6662 8.22914 18.0352 7 18.0352C3.66696 18.0352 0.964844 15.333 0.964844 12C0.964844 8.66696 3.66696 5.96484 7 5.96484C8.22914 5.96484 9.37156 6.3338 10.3252 6.96484H18C20.7808 6.96484 23.0352 9.21925 23.0352 12Z"/></svg>