<svg xmlns="http://www.w3.org/2000/svg" width="24" height="24" fill="none" viewBox="0 0 24 24"><path fill="currentColor" d="M20.9648 12C20.9648 9.25791 18.7421 7.03516 16 7.03516H8C5.25791 7.03516 3.03516 9.25791 3.03516 12C3.03516 14.7421 5.25791 16.9648 8 16.9648H16C18.7421 16.9648 20.9648 14.7421 20.9648 12ZM17.4648 12C17.4648 11.1909 16.8091 10.5352 16 10.5352C15.1909 10.5352 14.5352 11.1909 14.5352 12C14.5352 12.8091 15.1909 13.4648 16 13.4648C16.8091 13.4648 17.4648 12.8091 17.4648 12ZM19.5352 12C19.5352 13.9523 17.9523 15.5352 16 15.5352C14.0477 15.5352 12.4648 13.9523 12.4648 12C12.4648 10.0477 14.0477 8.46484 16 8.46484C17.9523 8.46484 19.5352 10.0477 19.5352 12ZM23.0352 12C23.0352 15.8853 19.8853 19.0352 16 19.0352H8C4.11468 19.0352 0.964844 15.8853 0.964844 12C0.964844 8.11468 4.11468 4.96484 8 4.96484H16C19.8853 4.96484 23.0352 8.11468 23.0352 12Z"/></svg>