<svg xmlns="http://www.w3.org/2000/svg" width="24" height="24" fill="none" viewBox="0 0 24 24"><path fill="currentColor" d="M10.9648 12C10.9648 9.81019 9.18981 8.03516 7 8.03516C4.81019 8.03516 3.03516 9.81019 3.03516 12C3.03516 14.1898 4.81019 15.9648 7 15.9648C9.18981 15.9648 10.9648 14.1898 10.9648 12ZM13.0352 12C13.0352 13.5181 12.4733 14.9043 11.5479 15.9648H17C19.1898 15.9648 20.9648 14.1898 20.9648 12C20.9648 9.81019 19.1898 8.03516 17 8.03516H11.5479C12.4733 9.09575 13.0352 10.4819 13.0352 12ZM23.0352 12C23.0352 15.333 20.333 18.0352 17 18.0352H7C3.66696 18.0352 0.964844 15.333 0.964844 12C0.964844 8.77111 3.50073 6.13428 6.68945 5.97266L7 5.96484H17C20.333 5.96484 23.0352 8.66696 23.0352 12Z"/></svg>