<svg xmlns="http://www.w3.org/2000/svg" width="24" height="24" fill="none" viewBox="0 0 24 24"><path fill="currentColor" d="M20.9648 12C20.9648 9.25791 18.7421 7.03516 16 7.03516H8C5.25791 7.03516 3.03516 9.25791 3.03516 12C3.03516 14.7421 5.25791 16.9648 8 16.9648H16C18.7421 16.9648 20.9648 14.7421 20.9648 12ZM9.46484 12C9.46484 11.1909 8.8091 10.5352 8 10.5352C7.1909 10.5352 6.53516 11.1909 6.53516 12C6.53516 12.8091 7.1909 13.4648 8 13.4648C8.8091 13.4648 9.46484 12.8091 9.46484 12ZM11.5352 12C11.5352 13.9523 9.95233 15.5352 8 15.5352C6.04767 15.5352 4.46484 13.9523 4.46484 12C4.46484 10.0477 6.04767 8.46484 8 8.46484C9.95233 8.46484 11.5352 10.0477 11.5352 12ZM23.0352 12C23.0352 15.8853 19.8853 19.0352 16 19.0352H8C4.11468 19.0352 0.964844 15.8853 0.964844 12C0.964844 8.11468 4.11468 4.96484 8 4.96484H16C19.8853 4.96484 23.0352 8.11468 23.0352 12Z"/></svg>