<svg xmlns="http://www.w3.org/2000/svg" width="24" height="24" fill="none" viewBox="0 0 24 24"><path fill="currentColor" d="M10.9648 12C10.9648 10.922 11.2489 9.91106 11.7441 9.03516H6C4.36248 9.03516 3.03516 10.3625 3.03516 12C3.03516 13.6375 4.36248 14.9648 6 14.9648H11.7441C11.2489 14.0889 10.9648 13.078 10.9648 12ZM13.0342 12C13.0342 14.1898 14.8102 15.9648 17 15.9648C19.1896 15.9646 20.9648 14.1896 20.9648 12C20.9648 9.81035 19.1896 8.03542 17 8.03516C14.8102 8.03516 13.0342 9.81019 13.0342 12ZM23.0342 12C23.0342 15.3329 20.3328 18.0349 17 18.0352C15.7707 18.0352 14.6275 17.6663 13.6738 17.0352H6C3.21925 17.0352 0.964844 14.7808 0.964844 12C0.964844 9.21925 3.21925 6.96484 6 6.96484H13.6738C14.6275 6.33366 15.7707 5.96484 17 5.96484C20.3328 5.96511 23.0342 8.66712 23.0342 12Z"/></svg>