<svg xmlns="http://www.w3.org/2000/svg" width="24" height="24" fill="none" viewBox="0 0 24 24"><path fill="currentColor" d="M20.9639 7.49902L19.8633 8.60059C19.6774 8.78648 19.4944 8.97033 19.3271 9.1123C19.1506 9.26214 18.9248 9.42535 18.6289 9.52148C18.2202 9.65427 17.7798 9.65427 17.3711 9.52148C17.0752 9.42535 16.8493 9.26214 16.6728 9.1123C16.5056 8.97033 16.3226 8.78648 16.1367 8.60059L15.8994 8.36328C15.7135 8.17738 15.5297 7.99438 15.3877 7.82715C15.2378 7.65065 15.0746 7.42477 14.9785 7.12891C14.8457 6.72021 14.8457 6.27979 14.9785 5.87109C15.0746 5.57523 15.2378 5.34935 15.3877 5.17285C15.5297 5.00562 15.7135 4.82262 15.8994 4.63672L17.4082 3.12695C17.1153 3.06651 16.8115 3.03516 16.5 3.03516C14.034 3.03516 12.0351 5.03405 12.0351 7.5C12.0351 7.79862 12.0638 8.08954 12.1191 8.37012C12.1654 8.60471 12.2065 8.80971 12.2324 8.97363C12.256 9.1229 12.2842 9.33407 12.2627 9.5498C12.2516 9.66107 12.2332 9.79433 12.1885 9.94141C12.1437 10.0885 12.085 10.209 12.0322 10.3076C11.8712 10.6085 11.5933 10.8706 11.3887 11.0752L4.23143 18.2314C3.8072 18.6557 3.8072 19.3443 4.23143 19.7686C4.65566 20.1928 5.34431 20.1928 5.76854 19.7686L13.208 12.3281L13.3223 12.2227C13.4031 12.1532 13.4871 12.0911 13.5742 12.0371C13.6127 12.0121 13.6524 11.9891 13.6924 11.9678L13.8574 11.8867C13.9183 11.8599 13.9851 11.8339 14.0586 11.8115C14.2057 11.7668 14.3389 11.7484 14.4502 11.7373L14.4785 11.7354C14.7653 11.7069 15.0515 11.7345 15.3144 11.8066C15.4632 11.8475 15.6157 11.8789 15.7705 11.9043C16.0074 11.9432 16.2508 11.9648 16.5 11.9648C18.9659 11.9648 20.9648 9.96595 20.9648 7.5L20.9639 7.49902ZM14.3887 14.0752L13.4629 15L18.2314 19.7676C18.6557 20.1918 19.3443 20.1918 19.7685 19.7676C20.1923 19.3433 20.1926 18.6555 19.7685 18.2314L15.4922 13.9561C15.4863 13.9551 15.4805 13.9541 15.4746 13.9531C15.4006 13.9415 15.327 13.9292 15.2539 13.915C15.2458 13.9135 15.2375 13.9127 15.2295 13.9111C14.9784 13.8616 14.819 13.8308 14.7031 13.8125C14.6872 13.81 14.673 13.8083 14.6611 13.8066C14.6025 13.8599 14.5256 13.9382 14.3887 14.0752ZM3.18358 3.2793L3.7451 4.96484H4.96483V3.74512L3.27928 3.18359L3.18358 3.2793ZM23.0351 7.5C23.0351 10.5003 21.0123 13.0253 18.2568 13.793L21.2314 16.7676C22.4641 18.0002 22.4641 19.9988 21.2314 21.2314C19.9988 22.464 18.0011 22.464 16.7685 21.2314L12 16.4629L7.23143 21.2314C5.99881 22.4641 4.00116 22.4641 2.76854 21.2314C1.53592 19.9988 1.53593 18.0012 2.76854 16.7686L9.03612 10.499L5.57225 7.03516H2.99999C2.55449 7.03516 2.15942 6.74978 2.01854 6.32715L1.01854 3.32715C0.89457 2.95524 0.991334 2.54576 1.26854 2.26855L2.26854 1.26855L2.37792 1.17285C2.6472 0.970254 3.00167 0.910067 3.32713 1.01855L6.32713 2.01855C6.74977 2.15943 7.03514 2.5545 7.03514 3V5.57227L10.0586 8.5957C9.99822 8.23872 9.96483 7.8728 9.96483 7.5C9.96483 3.89082 12.8908 0.964844 16.5 0.964844C17.693 0.964844 18.8146 1.28524 19.7793 1.8457C20.057 2.00711 20.2436 2.28888 20.2851 2.60742C20.3266 2.92584 20.2182 3.24552 19.9912 3.47266L17.3633 6.10059C17.1631 6.30073 17.0512 6.41381 16.9765 6.5C17.0512 6.58619 17.1631 6.69927 17.3633 6.89941L17.6006 7.13672C17.8003 7.33649 17.9139 7.44784 18 7.52246C18.0861 7.44784 18.1996 7.33649 18.3994 7.13672L20.8574 4.67871C21.1022 4.43398 21.4536 4.32751 21.793 4.39551C22.1323 4.46359 22.4153 4.69747 22.5469 5.01758C22.8619 5.78431 23.0351 6.62325 23.0351 7.5Z"/></svg>