<svg xmlns="http://www.w3.org/2000/svg" width="24" height="24" fill="none" viewBox="0 0 24 24"><path fill="currentColor" d="M20.9646 8C20.9646 7.83842 20.9562 7.67888 20.9412 7.52148L19.3631 9.10059C19.1772 9.28647 18.9942 9.47035 18.8269 9.6123C18.6504 9.76213 18.4245 9.92536 18.1287 10.0215C17.72 10.1542 17.2795 10.1543 16.8709 10.0215C16.5751 9.92535 16.3491 9.76211 16.1726 9.6123C16.0054 9.47033 15.8224 9.28644 15.6365 9.10059L14.8992 8.36328C14.7133 8.1774 14.5294 7.99437 14.3875 7.82715C14.2377 7.65069 14.0754 7.42466 13.9793 7.12891C13.8465 6.72019 13.8465 6.27981 13.9793 5.87109L14.0623 5.66211C14.1556 5.46549 14.2751 5.30522 14.3875 5.17285C14.5294 5.00563 14.7133 4.8226 14.8992 4.63672L16.4773 3.05762C16.3204 3.04268 16.1609 3.03516 15.9998 3.03516C13.2578 3.03528 11.0349 5.25798 11.0349 8C11.0349 8.4077 11.0838 8.80262 11.1756 9.17969C11.233 9.41548 11.2846 9.62389 11.3182 9.79102C11.3491 9.94485 11.3862 10.1597 11.3709 10.3838C11.3501 10.6871 11.2871 10.9117 11.1473 11.1816C10.9831 11.4983 10.6924 11.7712 10.4793 11.9844L4.23221 18.2314C3.80798 18.6557 3.80798 19.3443 4.23221 19.7686C4.65644 20.1924 5.34423 20.1926 5.76835 19.7686L12.0164 13.5205C12.2296 13.3073 12.5024 13.0167 12.8191 12.8525L13.0144 12.7617C13.2056 12.684 13.3885 12.6445 13.616 12.6289L13.782 12.627C13.9442 12.6326 14.0944 12.6594 14.2098 12.6826C14.3768 12.7162 14.5845 12.7668 14.8201 12.8242C15.1972 12.9161 15.5921 12.9648 15.9998 12.9648C18.7419 12.9648 20.9646 10.7421 20.9646 8ZM23.0349 8C23.0349 11.8853 19.8851 15.0352 15.9998 15.0352C15.4257 15.0351 14.8662 14.9656 14.3299 14.835C14.0768 14.7733 13.9176 14.7352 13.8015 14.7119C13.7873 14.709 13.7744 14.7071 13.7635 14.7051C13.7024 14.7604 13.622 14.8417 13.4793 14.9844L7.23221 21.2314C5.99959 22.4641 4.00097 22.4641 2.76835 21.2314C1.53588 19.9989 1.53588 18.0011 2.76835 16.7686L9.01639 10.5205C9.15907 10.3778 9.23843 10.2965 9.29374 10.2354C9.29177 10.2247 9.29063 10.2119 9.28788 10.1982C9.26453 10.0822 9.22646 9.92291 9.16483 9.66992C9.03418 9.13359 8.96463 8.57417 8.96463 8C8.96463 4.11475 12.1146 0.964966 15.9998 0.964844C17.0301 0.964844 18.0117 1.1869 18.8963 1.58691C19.2059 1.72694 19.4271 2.01043 19.4881 2.34473C19.5489 2.67882 19.4419 3.02149 19.2019 3.26172L16.3631 6.10059C16.1633 6.30037 16.0519 6.41387 15.9773 6.5C16.0519 6.58613 16.1633 6.69963 16.3631 6.89941L17.1004 7.63672C17.3001 7.8364 17.4137 7.94784 17.4998 8.02246C17.5859 7.94785 17.6994 7.83652 17.8992 7.63672L20.7381 4.79883L20.8328 4.71484C21.0639 4.53431 21.3627 4.45852 21.6551 4.51172C21.9893 4.57266 22.2728 4.794 22.4129 5.10352C22.8129 5.98809 23.0349 6.96962 23.0349 8Z"/></svg>