<svg xmlns="http://www.w3.org/2000/svg" width="24" height="24" fill="none" viewBox="0 0 24 24"><path fill="currentColor" d="M14.5 20.9648C15.0716 20.9648 15.5352 21.4284 15.5352 22C15.5352 22.5716 15.0716 23.0352 14.5 23.0352H9.5C8.92839 23.0352 8.46484 22.5716 8.46484 22C8.46484 21.4284 8.92839 20.9648 9.5 20.9648H14.5ZM18.9648 13.0352H5.03516V14.2002C5.03516 15.0571 5.03565 15.6377 5.07227 16.0859C5.10791 16.5222 5.17227 16.7419 5.24902 16.8926C5.43737 17.2621 5.73794 17.5626 6.10742 17.751C6.25807 17.8277 6.47781 17.8921 6.91406 17.9277C7.36234 17.9643 7.94287 17.9648 8.7998 17.9648H15.2002C16.0571 17.9648 16.6377 17.9643 17.0859 17.9277C17.5222 17.8921 17.7419 17.8277 17.8926 17.751C18.2621 17.5626 18.5626 17.2621 18.751 16.8926C18.8277 16.7419 18.8921 16.5222 18.9277 16.0859C18.9643 15.6377 18.9648 15.0571 18.9648 14.2002V13.0352ZM8.5 13.9648C9.34776 13.9648 10.0352 14.6522 10.0352 15.5C10.0352 16.3478 9.34776 17.0352 8.5 17.0352C7.65224 17.0352 6.96484 16.3478 6.96484 15.5C6.96484 14.6522 7.65224 13.9648 8.5 13.9648ZM15.5 13.9648C16.3478 13.9648 17.0352 14.6522 17.0352 15.5C17.0352 16.3478 16.3478 17.0352 15.5 17.0352C14.6522 17.0352 13.9648 16.3478 13.9648 15.5C13.9648 14.6522 14.6522 13.9648 15.5 13.9648ZM18.9648 9.7998C18.9648 8.94287 18.9643 8.36234 18.9277 7.91406C18.8921 7.47781 18.8277 7.25807 18.751 7.10742C18.5626 6.73794 18.2621 6.43737 17.8926 6.24902C17.7419 6.17227 17.5222 6.10791 17.0859 6.07227C16.6377 6.03565 16.0571 6.03516 15.2002 6.03516H8.7998C7.94287 6.03516 7.36234 6.03565 6.91406 6.07227C6.47781 6.10791 6.25807 6.17227 6.10742 6.24902C5.73794 6.43737 5.43737 6.73794 5.24902 7.10742C5.17227 7.25807 5.10791 7.47781 5.07227 7.91406C5.03565 8.36234 5.03516 8.94287 5.03516 9.7998V10.9648H18.9648V9.7998ZM21.0352 14.2002C21.0352 15.0231 21.0353 15.7027 20.9902 16.2549C20.9441 16.8191 20.8449 17.341 20.5947 17.832C20.2079 18.591 19.591 19.2079 18.832 19.5947C18.7304 19.6465 18.6268 19.6908 18.5225 19.7305L19.4258 21.5371C19.6814 22.0484 19.4742 22.6701 18.9629 22.9258C18.4516 23.1814 17.8299 22.9742 17.5742 22.4629L16.3564 20.0283C16.0074 20.0342 15.6227 20.0352 15.2002 20.0352H8.7998C8.37689 20.0352 7.9919 20.0342 7.64258 20.0283L6.42578 22.4629C6.17015 22.9742 5.54838 23.1814 5.03711 22.9258C4.52584 22.6701 4.31858 22.0484 4.57422 21.5371L5.47656 19.7305C5.37253 19.6908 5.26928 19.6463 5.16797 19.5947C4.409 19.2079 3.79208 18.591 3.40527 17.832C3.15509 17.341 3.05588 16.8191 3.00977 16.2549C2.96465 15.7027 2.96484 15.0231 2.96484 14.2002V9.7998C2.96484 8.97689 2.96465 8.29725 3.00977 7.74512C3.05588 7.18095 3.15509 6.65899 3.40527 6.16797C3.79208 5.409 4.409 4.79208 5.16797 4.40527C5.65899 4.15509 6.18095 4.05588 6.74512 4.00977C7.29725 3.96465 7.97689 3.96484 8.7998 3.96484H10.9648V3.03516H8C7.42839 3.03516 6.96484 2.57161 6.96484 2C6.96484 1.42839 7.42839 0.964844 8 0.964844H16C16.5716 0.964844 17.0352 1.42839 17.0352 2C17.0352 2.57161 16.5716 3.03516 16 3.03516H13.0352V3.96484H15.2002C16.0231 3.96484 16.7027 3.96465 17.2549 4.00977C17.8191 4.05588 18.341 4.15509 18.832 4.40527C19.591 4.79208 20.2079 5.409 20.5947 6.16797C20.8449 6.65899 20.9441 7.18095 20.9902 7.74512C21.0353 8.29725 21.0352 8.97689 21.0352 9.7998V14.2002Z"/></svg>