<svg xmlns="http://www.w3.org/2000/svg" width="24" height="24" fill="none" viewBox="0 0 24 24"><path fill="currentColor" d="M18.9648 14.0352H5.03516V15.2002C5.03516 16.0571 5.03565 16.6377 5.07227 17.086C5.10791 17.5222 5.17227 17.742 5.24902 17.8926C5.43737 18.2621 5.73794 18.5627 6.10742 18.751C6.25807 18.8278 6.47781 18.8921 6.91406 18.9278C7.36234 18.9644 7.94287 18.9649 8.7998 18.9649H15.2002C16.0571 18.9649 16.6377 18.9644 17.0859 18.9278C17.5222 18.8921 17.7419 18.8278 17.8926 18.751C18.2621 18.5627 18.5626 18.2621 18.751 17.8926C18.8277 17.742 18.8921 17.5222 18.9277 17.086C18.9643 16.6377 18.9648 16.0571 18.9648 15.2002V14.0352ZM8.5 14.9649C9.34776 14.9649 10.0352 15.6523 10.0352 16.5C10.0352 17.3478 9.34776 18.0352 8.5 18.0352C7.65224 18.0352 6.96484 17.3478 6.96484 16.5C6.96484 15.6523 7.65224 14.9649 8.5 14.9649ZM15.5 14.9649C16.3478 14.9649 17.0352 15.6523 17.0352 16.5C17.0352 17.3478 16.3478 18.0352 15.5 18.0352C14.6522 18.0352 13.9648 17.3478 13.9648 16.5C13.9648 15.6523 14.6522 14.9649 15.5 14.9649ZM11.6396 4.96486H12.3604L13.3252 3.03518H10.6748L11.6396 4.96486ZM18.9648 10.7998C18.9648 9.94289 18.9643 9.36236 18.9277 8.91408C18.8921 8.47783 18.8277 8.25809 18.751 8.10744C18.5626 7.73796 18.2621 7.43739 17.8926 7.24904C17.7419 7.17229 17.5222 7.10793 17.0859 7.07229C16.6377 7.03567 16.0571 7.03518 15.2002 7.03518H8.7998C7.94287 7.03518 7.36234 7.03567 6.91406 7.07229C6.47781 7.10793 6.25807 7.17229 6.10742 7.24904C5.73794 7.43739 5.43737 7.73796 5.24902 8.10744C5.17227 8.25809 5.10791 8.47783 5.07227 8.91408C5.03565 9.36236 5.03516 9.94289 5.03516 10.7998V11.9649H18.9648V10.7998ZM21.0352 15.2002C21.0352 16.0231 21.0353 16.7028 20.9902 17.2549C20.9441 17.8191 20.8449 18.341 20.5947 18.8321C20.2079 19.591 19.591 20.2079 18.832 20.5947C18.7304 20.6465 18.6268 20.6908 18.5225 20.7305L18.9258 21.5371C19.1814 22.0484 18.9742 22.6702 18.4629 22.9258C17.9516 23.1814 17.3299 22.9742 17.0742 22.4629L16.3564 21.0283C16.0074 21.0342 15.6227 21.0352 15.2002 21.0352H8.7998C8.37689 21.0352 7.9919 21.0343 7.64258 21.0283L6.92578 22.4629C6.67014 22.9741 6.04835 23.1814 5.53711 22.9258C5.02596 22.6701 4.81865 22.0484 5.07422 21.5371L5.47656 20.7305C5.37253 20.6909 5.26928 20.6464 5.16797 20.5947C4.409 20.2079 3.79208 19.591 3.40527 18.8321C3.15509 18.341 3.05588 17.8191 3.00977 17.2549C2.96465 16.7028 2.96484 16.0231 2.96484 15.2002V10.7998C2.96484 9.97691 2.96465 9.29727 3.00977 8.74514C3.05588 8.18097 3.15509 7.65901 3.40527 7.16799C3.79208 6.40902 4.409 5.7921 5.16797 5.40529C5.65899 5.15511 6.18095 5.0559 6.74512 5.00979C7.29725 4.96467 7.97689 4.96486 8.7998 4.96486H9.3252L8.36035 3.03615C8.12201 3.03752 8.02616 3.04104 7.93555 3.05373C7.81534 3.07057 7.69708 3.09903 7.58203 3.13772C7.46792 3.17611 7.35191 3.23129 6.94922 3.43264L5.96289 3.9258C5.45162 4.18144 4.82985 3.97418 4.57422 3.46291C4.31858 2.95164 4.52584 2.32987 5.03711 2.07424L6.02344 1.58107C6.37671 1.40444 6.63985 1.27069 6.92188 1.1758C7.15827 1.09629 7.40144 1.03853 7.64844 1.00393C7.94305 0.962681 8.238 0.964863 8.63281 0.964864H15.3672C15.762 0.964863 16.0569 0.962681 16.3516 1.00393C16.5986 1.03853 16.8417 1.09629 17.0781 1.1758C17.3602 1.27069 17.6233 1.40444 17.9766 1.58107L18.9629 2.07424C19.4742 2.32987 19.6814 2.95164 19.4258 3.46291C19.1701 3.97418 18.5484 4.18144 18.0371 3.9258L17.0508 3.43264C16.6481 3.23129 16.5321 3.17611 16.418 3.13772C16.3029 3.09903 16.1847 3.07057 16.0645 3.05373C15.9737 3.04103 15.8777 3.03751 15.6387 3.03615L14.6748 4.96486H15.2002C16.0231 4.96486 16.7027 4.96467 17.2549 5.00979C17.8191 5.0559 18.341 5.15511 18.832 5.40529C19.591 5.7921 20.2079 6.40902 20.5947 7.16799C20.8449 7.65901 20.9441 8.18097 20.9902 8.74514C21.0353 9.29727 21.0352 9.97691 21.0352 10.7998V15.2002Z"/></svg>