<svg xmlns="http://www.w3.org/2000/svg" width="24" height="24" fill="none" viewBox="0 0 24 24"><path fill="currentColor" d="M15.832 9.27637C16.2012 9.09811 16.6243 9.07613 17.0068 9.20996L17.168 9.27637L17.2979 9.34863C17.584 9.52922 17.747 9.78472 17.832 9.92773C17.9392 10.1079 18.0488 10.34 18.1553 10.5625L22.9336 20.5537C23.1801 21.0693 22.9619 21.687 22.4463 21.9336C21.9307 22.1801 21.313 21.9619 21.0664 21.4463L19.4346 18.0352H13.5654L11.9336 21.4463C11.687 21.9619 11.0693 22.1801 10.5537 21.9336C10.0381 21.687 9.81991 21.0693 10.0664 20.5537L14.8447 10.5625C14.9512 10.34 15.0608 10.1079 15.168 9.92773C15.2652 9.76435 15.464 9.45422 15.832 9.27637ZM14.5557 15.9648H18.4443L16.5 11.8984L14.5557 15.9648ZM14 3.96484C14.5716 3.96484 15.0352 4.42839 15.0352 5C15.0352 5.57161 14.5716 6.03516 14 6.03516H12.5537L10.8613 8.57422C10.8235 8.63093 10.7796 8.68325 10.7314 8.73145L8.96289 10.5L10.7314 12.2686C11.1356 12.6727 11.1356 13.3273 10.7314 13.7314C10.3273 14.1356 9.67275 14.1356 9.26855 13.7314L7.5 11.9629L4.73145 14.7314C4.32725 15.1356 3.67275 15.1356 3.26855 14.7314C2.86436 14.3273 2.86436 13.6727 3.26855 13.2686L6.03711 10.5L4.26855 8.73145C3.86436 8.32725 3.86436 7.67275 4.26855 7.26855C4.67275 6.86436 5.32725 6.86436 5.73145 7.26855L7.5 9.03711L9.19336 7.34375L10.0654 6.03516H2C1.42839 6.03516 0.964844 5.57161 0.964844 5C0.964844 4.42839 1.42839 3.96484 2 3.96484H14ZM8 0.964844C8.57161 0.964844 9.03516 1.42839 9.03516 2C9.03516 2.57161 8.57161 3.03516 8 3.03516H7C6.42839 3.03516 5.96484 2.57161 5.96484 2C5.96484 1.42839 6.42839 0.964844 7 0.964844H8Z"/></svg>