<svg xmlns="http://www.w3.org/2000/svg" width="24" height="24" fill="none" viewBox="0 0 24 24"><path fill="currentColor" d="M15.832 9.27637C16.2012 9.09811 16.6243 9.07613 17.0068 9.20996L17.168 9.27637L17.2979 9.34863C17.584 9.52922 17.747 9.78472 17.832 9.92773C17.9392 10.1079 18.0488 10.34 18.1553 10.5625L22.9336 20.5537C23.1801 21.0693 22.9619 21.687 22.4463 21.9336C21.9307 22.1801 21.313 21.9619 21.0664 21.4463L19.4346 18.0352H13.5654L11.9336 21.4463C11.687 21.9619 11.0693 22.1801 10.5537 21.9336C10.0381 21.687 9.81991 21.0693 10.0664 20.5537L14.8447 10.5625C14.9512 10.34 15.0608 10.1079 15.168 9.92773C15.2652 9.76435 15.464 9.45422 15.832 9.27637ZM6.96484 3C6.96484 2.42839 7.42839 1.96484 8 1.96484C8.57161 1.96484 9.03516 2.42839 9.03516 3V3.96484H14C14.5716 3.96484 15.0352 4.42839 15.0352 5C15.0352 5.57161 14.5716 6.03516 14 6.03516H12.3545C11.8426 8.44318 10.9106 10.6675 9.61328 12.626C9.88701 12.7928 10.1591 12.9367 10.4238 13.0557C10.9451 13.2899 11.1783 13.9025 10.9443 14.4238C10.7101 14.9451 10.0975 15.1783 9.57617 14.9443C9.17038 14.762 8.76576 14.5403 8.37012 14.2891C6.76338 16.202 4.76818 17.7801 2.46094 18.9268C1.94915 19.1811 1.32772 18.9726 1.07324 18.4609C0.818905 17.9492 1.02739 17.3277 1.53906 17.0732C3.56337 16.0672 5.31155 14.6912 6.72461 13.0283C5.59356 11.9986 4.60557 10.7247 4.04688 9.40234C3.82463 8.87587 4.07121 8.2693 4.59766 8.04688C5.12413 7.82463 5.7307 8.07121 5.95312 8.59766C6.3512 9.53966 7.08342 10.5188 7.96875 11.3564C9.00102 9.7665 9.77072 7.97661 10.2334 6.03516H2C1.42839 6.03516 0.964844 5.57161 0.964844 5C0.964844 4.42839 1.42839 3.96484 2 3.96484H6.96484V3ZM14.5557 15.9648H18.4443L16.5 11.8984L14.5557 15.9648Z"/></svg>