<svg xmlns="http://www.w3.org/2000/svg" width="24" height="24" fill="none" viewBox="0 0 24 24"><path fill="currentColor" d="M17.9648 7.03516H6.03516V17.2002C6.03516 18.0571 6.03565 18.6377 6.07227 19.0859C6.10791 19.5222 6.17227 19.7419 6.24902 19.8926C6.43737 20.2621 6.73794 20.5626 7.10742 20.751C7.25806 20.8277 7.47781 20.8921 7.91406 20.9277C8.36234 20.9643 8.94287 20.9648 9.7998 20.9648H14.2002C15.0571 20.9648 15.6377 20.9643 16.0859 20.9277C16.5222 20.8921 16.7419 20.8277 16.8926 20.751C17.2621 20.5626 17.5626 20.2621 17.751 19.8926C17.8277 19.7419 17.8921 19.5222 17.9277 19.0859C17.9643 18.6377 17.9648 18.0571 17.9648 17.2002V7.03516ZM11.2002 3.03516C10.6231 3.03516 10.2523 3.03559 9.9707 3.05859C9.7012 3.08061 9.60521 3.11837 9.56152 3.14062C9.38033 3.23308 9.23308 3.38033 9.14062 3.56152C9.11837 3.60521 9.08061 3.7012 9.05859 3.9707C9.03888 4.21203 9.0367 4.51877 9.03613 4.96484H14.9639C14.9633 4.51877 14.9611 4.21203 14.9414 3.9707C14.9194 3.7012 14.8816 3.60521 14.8594 3.56152C14.7669 3.38033 14.6197 3.23308 14.4385 3.14062C14.3948 3.11837 14.2988 3.08061 14.0293 3.05859C13.7477 3.03559 13.3769 3.03516 12.7998 3.03516H11.2002ZM20.0352 17.2002C20.0352 18.0231 20.0353 18.7027 19.9902 19.2549C19.9441 19.8191 19.8449 20.341 19.5947 20.832C19.2079 21.591 18.591 22.2079 17.832 22.5947C17.341 22.8449 16.8191 22.9441 16.2549 22.9902C15.7027 23.0353 15.0231 23.0352 14.2002 23.0352H9.7998C8.97689 23.0352 8.29725 23.0353 7.74512 22.9902C7.18095 22.9441 6.65899 22.8449 6.16797 22.5947C5.409 22.2079 4.79208 21.591 4.40527 20.832C4.15509 20.341 4.05588 19.8191 4.00977 19.2549C3.96465 18.7027 3.96484 18.0231 3.96484 17.2002V7.03516H3C2.42839 7.03516 1.96484 6.57161 1.96484 6C1.96484 5.42839 2.42839 4.96484 3 4.96484H6.96582C6.96623 4.52052 6.96924 4.1304 6.99609 3.80176C7.02859 3.40438 7.10024 3.00608 7.2959 2.62207C7.58686 2.05107 8.05107 1.58686 8.62207 1.2959C9.00608 1.10024 9.40438 1.02859 9.80176 0.996094C10.1872 0.964603 10.6572 0.964844 11.2002 0.964844H12.7998C13.3428 0.964844 13.8128 0.964603 14.1982 0.996094C14.5956 1.02859 14.9939 1.10024 15.3779 1.2959C15.9489 1.58686 16.4131 2.05107 16.7041 2.62207C16.8998 3.00608 16.9714 3.40438 17.0039 3.80176C17.0308 4.1304 17.0338 4.52052 17.0342 4.96484H21C21.5716 4.96484 22.0352 5.42839 22.0352 6C22.0352 6.57161 21.5716 7.03516 21 7.03516H20.0352V17.2002Z"/></svg>