<svg xmlns="http://www.w3.org/2000/svg" width="24" height="24" fill="none" viewBox="0 0 24 24"><path fill="currentColor" d="M21 4.96484C21.5716 4.96484 22.0352 5.42839 22.0352 6C22.0352 6.57161 21.5716 7.03516 21 7.03516H19.9678L19.3311 16.5879C19.2796 17.3603 19.2383 18.0002 19.1621 18.5195C19.084 19.0514 18.9592 19.5406 18.6992 19.9971C18.2956 20.7055 17.6869 21.2752 16.9531 21.6309C16.4803 21.86 15.9841 21.9516 15.4482 21.9941C14.925 22.0357 14.284 22.0352 13.5098 22.0352H10.4902C9.71603 22.0352 9.075 22.0357 8.55176 21.9941C8.01586 21.9516 7.51966 21.86 7.04688 21.6309C6.31314 21.2752 5.70439 20.7055 5.30078 19.9971C5.04077 19.5406 4.91598 19.0514 4.83789 18.5195C4.76167 18.0002 4.72044 17.3603 4.66895 16.5879L4.03223 7.03516H3C2.42839 7.03516 1.96484 6.57161 1.96484 6C1.96484 5.42839 2.42839 4.96484 3 4.96484H21ZM6.73438 16.4502C6.78808 17.2558 6.82516 17.8004 6.88672 18.2197C6.94643 18.6262 7.01885 18.8309 7.09961 18.9727C7.29618 19.3176 7.59288 19.5954 7.9502 19.7686C8.09706 19.8396 8.30641 19.8982 8.71582 19.9307C9.13818 19.9642 9.68323 19.9648 10.4902 19.9648H13.5098C14.3168 19.9648 14.8618 19.9642 15.2842 19.9307C15.6936 19.8982 15.9029 19.8396 16.0498 19.7686L16.1816 19.6982C16.4803 19.5244 16.7285 19.2744 16.9004 18.9727C16.9812 18.8309 17.0536 18.6262 17.1133 18.2197C17.1748 17.8004 17.2119 17.2558 17.2656 16.4502L17.8945 7.03516H6.10547L6.73438 16.4502ZM15 1.96484C15.5716 1.96484 16.0352 2.42839 16.0352 3C16.0352 3.57161 15.5716 4.03516 15 4.03516H9C8.42839 4.03516 7.96484 3.57161 7.96484 3C7.96484 2.42839 8.42839 1.96484 9 1.96484H15Z"/></svg>