<svg xmlns="http://www.w3.org/2000/svg" width="24" height="24" fill="none" viewBox="0 0 24 24"><path fill="currentColor" d="M23.0351 14C23.0351 14.5716 22.5715 15.0352 21.9999 15.0352C21.4283 15.0352 20.9648 14.5716 20.9648 14V9.49805L14.8632 15.6006C14.6773 15.7865 14.4943 15.9703 14.3271 16.1123C14.1506 16.2621 13.9247 16.4254 13.6288 16.5215C13.2201 16.6543 12.7797 16.6543 12.371 16.5215C12.0752 16.4254 11.8493 16.2621 11.6728 16.1123C11.5055 15.9703 11.3225 15.7865 11.1366 15.6006L8.39934 12.8633C8.19919 12.6631 8.08611 12.5512 7.99992 12.4766C7.91373 12.5512 7.80065 12.6631 7.60051 12.8633L2.73137 17.7314C2.32717 18.1356 1.67267 18.1356 1.26848 17.7314C0.864284 17.3273 0.864284 16.6727 1.26848 16.2686L6.13664 11.3994C6.32254 11.2135 6.50554 11.0297 6.67277 10.8877C6.84928 10.7379 7.07515 10.5746 7.37102 10.4785C7.72877 10.3623 8.11075 10.3483 8.47453 10.4355L8.62883 10.4785L8.83781 10.5625C9.03441 10.6559 9.19471 10.7753 9.32707 10.8877C9.4943 11.0297 9.67731 11.2135 9.8632 11.3994L12.6005 14.1367C12.8003 14.3365 12.9138 14.4478 12.9999 14.5225C13.0861 14.4478 13.1996 14.3365 13.3993 14.1367L19.5019 8.03516H14.9999C14.4283 8.03516 13.9648 7.57161 13.9648 7C13.9648 6.42839 14.4283 5.96484 14.9999 5.96484H21.9999C22.5715 5.96484 23.0351 6.42839 23.0351 7V14Z"/></svg>