<svg xmlns="http://www.w3.org/2000/svg" width="24" height="24" fill="none" viewBox="0 0 24 24"><path fill="currentColor" d="M1.26848 6.26854C1.67267 5.86434 2.32717 5.86434 2.73137 6.26854L7.60051 11.1367C7.80028 11.3365 7.91379 11.4478 7.99992 11.5224C8.08605 11.4478 8.19956 11.3365 8.39934 11.1367L11.1366 8.3994C11.3225 8.2135 11.5055 8.02966 11.6728 7.88768C11.8493 7.73784 12.0752 7.57463 12.371 7.4785C12.7288 7.36226 13.1107 7.34827 13.4745 7.43553L13.6288 7.4785L13.8378 7.56248C14.0344 7.65584 14.1947 7.77531 14.3271 7.88768C14.4943 8.02966 14.6773 8.2135 14.8632 8.3994L20.9648 14.501V9.99998C20.9648 9.42837 21.4283 8.96483 21.9999 8.96483C22.5715 8.96483 23.0351 9.42837 23.0351 9.99998V17C23.0351 17.5716 22.5715 18.0351 21.9999 18.0351H14.9999C14.4283 18.0351 13.9648 17.5716 13.9648 17C13.9648 16.4284 14.4283 15.9648 14.9999 15.9648H19.5019L13.3993 9.86326C13.1992 9.66312 13.0861 9.55117 12.9999 9.47655C12.9137 9.55117 12.8007 9.66312 12.6005 9.86326L9.8632 12.6006C9.67731 12.7865 9.4943 12.9703 9.32707 13.1123C9.15057 13.2621 8.92469 13.4253 8.62883 13.5215C8.22013 13.6543 7.77971 13.6543 7.37102 13.5215C7.07515 13.4253 6.84928 13.2621 6.67277 13.1123C6.50554 12.9703 6.32254 12.7865 6.13664 12.6006L1.26848 7.73143C0.864284 7.32724 0.864284 6.67273 1.26848 6.26854Z"/></svg>