<svg xmlns="http://www.w3.org/2000/svg" width="24" height="24" fill="none" viewBox="0 0 24 24"><path fill="currentColor" d="M7.96484 18.5C7.96484 17.6909 7.3091 17.0352 6.5 17.0352C5.6909 17.0352 5.03516 17.6909 5.03516 18.5C5.03516 19.3091 5.6909 19.9648 6.5 19.9648C7.3091 19.9648 7.96484 19.3091 7.96484 18.5ZM18.9648 18.5C18.9648 17.6909 18.3091 17.0352 17.5 17.0352C16.6909 17.0352 16.0352 17.6909 16.0352 18.5C16.0352 19.3091 16.6909 19.9648 17.5 19.9648C18.3091 19.9648 18.9648 19.3091 18.9648 18.5ZM20.9629 11.4297C20.9317 11.396 20.8865 11.3504 20.7998 11.2637L18.7363 9.2002C18.6487 9.11258 18.6031 9.0673 18.5693 9.03613C18.5235 9.0344 18.4589 9.03516 18.3369 9.03516H17.0352V14.9648H20.4004C20.6826 14.9648 20.8415 14.9632 20.9551 14.9551C20.9632 14.8415 20.9648 14.6826 20.9648 14.4004V11.6631C20.9648 11.5402 20.9647 11.4756 20.9629 11.4297ZM14.9648 6.2002C14.9648 5.62309 14.9644 5.25228 14.9414 4.9707C14.9194 4.7012 14.8816 4.60521 14.8594 4.56152C14.7669 4.38033 14.6197 4.23308 14.4385 4.14062C14.3948 4.11837 14.2988 4.08061 14.0293 4.05859C13.7477 4.03559 13.3769 4.03516 12.7998 4.03516H5.2002C4.62309 4.03516 4.25228 4.03559 3.9707 4.05859C3.7012 4.08061 3.60521 4.11837 3.56152 4.14062C3.38033 4.23308 3.23308 4.38033 3.14062 4.56152C3.11837 4.60521 3.08061 4.7012 3.05859 4.9707C3.03559 5.25228 3.03516 5.62309 3.03516 6.2002V12.7998C3.03516 13.3769 3.03559 13.7477 3.05859 14.0293C3.08061 14.2988 3.11837 14.3948 3.14062 14.4385C3.23308 14.6197 3.38033 14.7669 3.56152 14.8594C3.60521 14.8816 3.7012 14.9194 3.9707 14.9414C4.25228 14.9644 4.62309 14.9648 5.2002 14.9648H14.9648V6.2002ZM17.0352 6.96484H18.3369C18.4835 6.96484 18.6705 6.9616 18.8652 6.98633L19.0605 7.02148L19.2148 7.06445C19.3162 7.09739 19.4148 7.13815 19.5098 7.18652L19.6494 7.26465L19.8125 7.37891C19.9673 7.49889 20.0967 7.6328 20.2002 7.73633L22.2637 9.7998C22.3672 9.90332 22.5011 10.0327 22.6211 10.1875L22.7354 10.3506L22.8135 10.4902C22.8618 10.5852 22.9026 10.6838 22.9355 10.7852L22.9785 10.9395L23.0137 11.1348C23.0384 11.3295 23.0352 11.5165 23.0352 11.6631V14.4004C23.0352 14.663 23.0354 14.9221 23.0176 15.1406C22.9987 15.3713 22.9546 15.6467 22.8135 15.9238C22.6184 16.3067 22.3067 16.6184 21.9238 16.8135C21.6467 16.9546 21.3713 16.9987 21.1406 17.0176C21.0108 17.0282 20.8666 17.0317 20.7158 17.0332C20.92 17.4802 21.0352 17.9765 21.0352 18.5C21.0352 20.4523 19.4523 22.0352 17.5 22.0352C15.5477 22.0352 13.9648 20.4523 13.9648 18.5C13.9648 17.9773 14.0796 17.4816 14.2832 17.0352H9.7168C9.92042 17.4816 10.0352 17.9773 10.0352 18.5C10.0352 20.4523 8.45233 22.0352 6.5 22.0352C4.54767 22.0352 2.96484 20.4523 2.96484 18.5C2.96484 17.9391 3.0956 17.4086 3.32812 16.9375C3.09009 16.891 2.8531 16.8218 2.62207 16.7041C2.05107 16.4131 1.58686 15.9489 1.2959 15.3779C1.10024 14.9939 1.02859 14.5956 0.996094 14.1982C0.964603 13.8128 0.964844 13.3428 0.964844 12.7998V6.2002C0.964844 5.65722 0.964603 5.18718 0.996094 4.80176C1.02859 4.40438 1.10024 4.00608 1.2959 3.62207C1.58686 3.05107 2.05107 2.58686 2.62207 2.2959C3.00608 2.10024 3.40438 2.02859 3.80176 1.99609C4.18718 1.9646 4.65722 1.96484 5.2002 1.96484H12.7998C13.3428 1.96484 13.8128 1.9646 14.1982 1.99609C14.5956 2.02859 14.9939 2.10024 15.3779 2.2959C15.9489 2.58686 16.4131 3.05107 16.7041 3.62207C16.8998 4.00608 16.9714 4.40438 17.0039 4.80176C17.0354 5.18718 17.0352 5.65722 17.0352 6.2002V6.96484Z"/></svg>