<svg xmlns="http://www.w3.org/2000/svg" width="24" height="24" fill="none" viewBox="0 0 24 24"><path fill="currentColor" d="M20.9629 12.4297C20.9317 12.396 20.8865 12.3504 20.7998 12.2637L16.7363 8.2002C16.6487 8.11258 16.6031 8.0673 16.5693 8.03613C16.5235 8.0344 16.4589 8.03516 16.3369 8.03516H15.0352V15.5752C15.6656 14.6061 16.7577 13.9648 18 13.9648C19.2413 13.9648 20.3322 14.6054 20.9629 15.5732C20.9629 15.55 20.9648 15.5256 20.9648 15.5V12.6631C20.9648 12.5402 20.9647 12.4756 20.9629 12.4297ZM7 15.0352C5.91476 15.0352 5.03516 15.9148 5.03516 17C5.03516 18.0852 5.91476 18.9648 7 18.9648C8.08524 18.9648 8.96484 18.0852 8.96484 17C8.96484 15.9148 8.08524 15.0352 7 15.0352ZM18 16.0352C17.1909 16.0352 16.5352 16.6909 16.5352 17.5C16.5352 18.3091 17.1909 18.9648 18 18.9648C18.8091 18.9648 19.4648 18.3091 19.4648 17.5C19.4648 16.6909 18.8091 16.0352 18 16.0352ZM23.0352 15.5C23.0352 15.7186 23.0359 15.9344 23.0234 16.1172C23.0103 16.3093 22.9788 16.5394 22.8799 16.7783C22.6733 17.277 22.277 17.6733 21.7783 17.8799C21.6847 17.9186 21.592 17.9449 21.5029 17.9658C21.2748 19.6979 19.7943 21.0352 18 21.0352C16.2296 21.0352 14.7638 19.7335 14.5059 18.0352H10.9004C10.4433 19.762 8.87057 21.0352 7 21.0352C5.07589 21.0352 3.46725 19.688 3.06348 17.8857C1.84591 17.4909 0.964844 16.3492 0.964844 15V7.2002C0.964844 6.65722 0.964603 6.18718 0.996094 5.80176C1.02859 5.40438 1.10024 5.00608 1.2959 4.62207C1.58686 4.05107 2.05107 3.58686 2.62207 3.2959C3.00608 3.10024 3.40438 3.02859 3.80176 2.99609C4.18718 2.9646 4.65722 2.96484 5.2002 2.96484H10.7998C11.3428 2.96484 11.8128 2.9646 12.1982 2.99609C12.5956 3.02859 12.9939 3.10024 13.3779 3.2959C13.9489 3.58686 14.4131 4.05107 14.7041 4.62207C14.8998 5.00608 14.9714 5.40438 15.0039 5.80176C15.0082 5.8544 15.0105 5.90909 15.0137 5.96484H16.3369C16.4835 5.96484 16.6705 5.9616 16.8652 5.98633L17.0605 6.02148L17.2148 6.06445C17.3162 6.09739 17.4148 6.13815 17.5098 6.18652L17.6494 6.26465L17.8125 6.37891C17.9673 6.4989 18.0967 6.6328 18.2002 6.73633L22.2637 10.7998C22.3672 10.9033 22.5011 11.0327 22.6211 11.1875L22.7354 11.3506L22.8135 11.4902C22.8618 11.5852 22.9026 11.6838 22.9355 11.7852L22.9785 11.9395L23.0137 12.1348C23.0384 12.3295 23.0352 12.5165 23.0352 12.6631V15.5ZM3.03516 15C3.03516 15.2149 3.10586 15.4129 3.22461 15.5732C3.80096 14.0489 5.27385 12.9648 7 12.9648C8.87057 12.9648 10.4433 14.238 10.9004 15.9648H12.9648V7.2002C12.9648 6.62309 12.9644 6.25228 12.9414 5.9707C12.9194 5.7012 12.8816 5.60521 12.8594 5.56152C12.7669 5.38033 12.6197 5.23308 12.4385 5.14062C12.3948 5.11837 12.2988 5.08061 12.0293 5.05859C11.7477 5.03559 11.3769 5.03516 10.7998 5.03516H5.2002C4.62309 5.03516 4.25228 5.03559 3.9707 5.05859C3.7012 5.08061 3.60521 5.11837 3.56152 5.14062C3.38033 5.23308 3.23308 5.38033 3.14062 5.56152C3.11837 5.60521 3.08061 5.7012 3.05859 5.9707C3.03559 6.25228 3.03516 6.62309 3.03516 7.2002V15Z"/></svg>