<svg xmlns="http://www.w3.org/2000/svg" width="24" height="24" fill="none" viewBox="0 0 24 24"><path fill="currentColor" d="M16.9648 18.0352H7.03516V19.4004C7.03516 19.6825 7.03582 19.8415 7.04395 19.9551C7.15762 19.9633 7.31662 19.9648 7.59961 19.9648H16.4004C16.6826 19.9648 16.8415 19.9632 16.9551 19.9551C16.9632 19.8415 16.9648 19.6826 16.9648 19.4004V18.0352ZM20.9648 7.7998C20.9648 6.94287 20.9643 6.36234 20.9277 5.91406C20.8921 5.47781 20.8277 5.25807 20.751 5.10742C20.5626 4.73794 20.2621 4.43737 19.8926 4.24902C19.7419 4.17227 19.5222 4.10791 19.0859 4.07227C18.6377 4.03565 18.0571 4.03516 17.2002 4.03516H6.7998C5.94287 4.03516 5.36234 4.03565 4.91406 4.07227C4.47781 4.10791 4.25807 4.17227 4.10742 4.24902C3.73794 4.43737 3.43737 4.73794 3.24902 5.10742C3.17227 5.25807 3.10791 5.47781 3.07227 5.91406C3.03565 6.36234 3.03516 6.94287 3.03516 7.7998V12.2002C3.03516 13.0571 3.03565 13.6377 3.07227 14.0859C3.10791 14.5222 3.17227 14.7419 3.24902 14.8926C3.43737 15.2621 3.73794 15.5626 4.10742 15.751C4.25807 15.8277 4.47781 15.8921 4.91406 15.9277C5.36234 15.9643 5.94287 15.9648 6.7998 15.9648H17.2002C18.0571 15.9648 18.6377 15.9643 19.0859 15.9277C19.5222 15.8921 19.7419 15.8277 19.8926 15.751C20.2621 15.5626 20.5626 15.2621 20.751 14.8926C20.8277 14.7419 20.8921 14.5222 20.9277 14.0859C20.9643 13.6377 20.9648 13.0571 20.9648 12.2002V7.7998ZM23.0352 12.2002C23.0352 13.0231 23.0353 13.7027 22.9902 14.2549C22.9441 14.8191 22.8449 15.341 22.5947 15.832C22.2079 16.591 21.591 17.2079 20.832 17.5947C20.341 17.8449 19.8191 17.9441 19.2549 17.9902C19.1839 17.996 19.1104 17.9985 19.0352 18.0029V19.4004C19.0352 19.663 19.0354 19.9221 19.0176 20.1406C18.9987 20.3713 18.9546 20.6467 18.8135 20.9238C18.6184 21.3067 18.3067 21.6184 17.9238 21.8135C17.6467 21.9546 17.3713 21.9987 17.1406 22.0176C16.9221 22.0354 16.663 22.0352 16.4004 22.0352H7.59961C7.33696 22.0352 7.07785 22.0354 6.85938 22.0176C6.62866 21.9987 6.3533 21.9546 6.07617 21.8135C5.69326 21.6184 5.38163 21.3067 5.18652 20.9238C5.04535 20.6467 5.00127 20.3713 4.98242 20.1406C4.9646 19.9221 4.96484 19.663 4.96484 19.4004V18.0029C4.8896 17.9985 4.81612 17.996 4.74512 17.9902C4.18095 17.9441 3.65899 17.8449 3.16797 17.5947C2.409 17.2079 1.79208 16.591 1.40527 15.832C1.15509 15.341 1.05588 14.8191 1.00977 14.2549C0.964654 13.7027 0.964844 13.0231 0.964844 12.2002V7.7998C0.964844 6.97689 0.964654 6.29725 1.00977 5.74512C1.05588 5.18095 1.15509 4.65899 1.40527 4.16797C1.79208 3.409 2.409 2.79208 3.16797 2.40527C3.65899 2.15509 4.18095 2.05588 4.74512 2.00977C5.29725 1.96465 5.97689 1.96484 6.7998 1.96484H17.2002C18.0231 1.96484 18.7027 1.96465 19.2549 2.00977C19.8191 2.05588 20.341 2.15509 20.832 2.40527C21.591 2.79208 22.2079 3.409 22.5947 4.16797C22.8449 4.65899 22.9441 5.18095 22.9902 5.74512C23.0353 6.29725 23.0352 6.97689 23.0352 7.7998V12.2002Z"/></svg>