<svg xmlns="http://www.w3.org/2000/svg" width="24" height="24" fill="none" viewBox="0 0 24 24"><path fill="currentColor" d="M20.9648 7.7998C20.9648 6.94287 20.9643 6.36234 20.9277 5.91406C20.8921 5.47781 20.8277 5.25807 20.751 5.10742C20.5626 4.73794 20.2621 4.43737 19.8926 4.24902C19.7419 4.17227 19.5222 4.10791 19.0859 4.07227C18.6377 4.03565 18.0571 4.03516 17.2002 4.03516H6.7998C5.94287 4.03516 5.36234 4.03565 4.91406 4.07227C4.47781 4.10791 4.25807 4.17227 4.10742 4.24902C3.73794 4.43737 3.43737 4.73794 3.24902 5.10742C3.17227 5.25807 3.10791 5.47781 3.07227 5.91406C3.03565 6.36234 3.03516 6.94287 3.03516 7.7998V12.2002C3.03516 13.0571 3.03565 13.6377 3.07227 14.0859C3.10791 14.5222 3.17227 14.7419 3.24902 14.8926C3.43737 15.2621 3.73794 15.5626 4.10742 15.751C4.25807 15.8277 4.47781 15.8921 4.91406 15.9277C5.36234 15.9643 5.94287 15.9648 6.7998 15.9648H17.2002C18.0571 15.9648 18.6377 15.9643 19.0859 15.9277C19.5222 15.8921 19.7419 15.8277 19.8926 15.751C20.2621 15.5626 20.5626 15.2621 20.751 14.8926C20.8277 14.7419 20.8921 14.5222 20.9277 14.0859C20.9643 13.6377 20.9648 13.0571 20.9648 12.2002V7.7998ZM23.0352 12.2002C23.0352 13.0231 23.0353 13.7027 22.9902 14.2549C22.9441 14.8191 22.8449 15.341 22.5947 15.832C22.2079 16.591 21.591 17.2079 20.832 17.5947C20.341 17.8449 19.8191 17.9441 19.2549 17.9902C18.7027 18.0353 18.0231 18.0352 17.2002 18.0352H14.9512L17.6465 20.1914C18.0928 20.5484 18.1655 21.2001 17.8086 21.6465C17.4516 22.0928 16.7999 22.1655 16.3535 21.8086L12 18.3252L7.64648 21.8086C7.20014 22.1655 6.54843 22.0928 6.19141 21.6465C5.83454 21.2001 5.90724 20.5484 6.35352 20.1914L9.04883 18.0352H6.7998C5.97689 18.0352 5.29725 18.0353 4.74512 17.9902C4.18095 17.9441 3.65899 17.8449 3.16797 17.5947C2.409 17.2079 1.79208 16.591 1.40527 15.832C1.15509 15.341 1.05588 14.8191 1.00977 14.2549C0.964654 13.7027 0.964844 13.0231 0.964844 12.2002V7.7998C0.964844 6.97689 0.964654 6.29725 1.00977 5.74512C1.05588 5.18095 1.15509 4.65899 1.40527 4.16797C1.79208 3.409 2.409 2.79208 3.16797 2.40527C3.65899 2.15509 4.18095 2.05588 4.74512 2.00977C5.29725 1.96465 5.97689 1.96484 6.7998 1.96484H17.2002C18.0231 1.96484 18.7027 1.96465 19.2549 2.00977C19.8191 2.05588 20.341 2.15509 20.832 2.40527C21.591 2.79208 22.2079 3.409 22.5947 4.16797C22.8449 4.65899 22.9441 5.18095 22.9902 5.74512C23.0353 6.29725 23.0352 6.97689 23.0352 7.7998V12.2002Z"/></svg>