<svg xmlns="http://www.w3.org/2000/svg" width="24" height="24" fill="none" viewBox="0 0 24 24"><path fill="currentColor" d="M20.9648 11.7998C20.9648 10.9429 20.9643 10.3623 20.9277 9.91404C20.8921 9.47779 20.8277 9.25804 20.751 9.1074C20.5626 8.73792 20.2621 8.43735 19.8926 8.249C19.7419 8.17224 19.5222 8.10789 19.0859 8.07224C18.6377 8.03563 18.0571 8.03513 17.2002 8.03513H6.7998C5.94287 8.03513 5.36234 8.03563 4.91406 8.07224C4.47781 8.10789 4.25807 8.17224 4.10742 8.249C3.73794 8.43735 3.43737 8.73792 3.24902 9.1074C3.17227 9.25804 3.10791 9.47779 3.07227 9.91404C3.03565 10.3623 3.03516 10.9429 3.03516 11.7998V16.2002C3.03516 17.0571 3.03565 17.6376 3.07227 18.0859C3.10791 18.5222 3.17227 18.7419 3.24902 18.8926C3.43737 19.262 3.73794 19.5626 4.10742 19.751C4.25807 19.8277 4.47781 19.8921 4.91406 19.9277C5.36234 19.9643 5.94287 19.9648 6.7998 19.9648H17.2002C18.0571 19.9648 18.6377 19.9643 19.0859 19.9277C19.5222 19.8921 19.7419 19.8277 19.8926 19.751C20.2621 19.5626 20.5626 19.262 20.751 18.8926C20.8277 18.7419 20.8921 18.5222 20.9277 18.0859C20.9643 17.6376 20.9648 17.0571 20.9648 16.2002V11.7998ZM23.0352 16.2002C23.0352 17.0231 23.0353 17.7027 22.9902 18.2549C22.9441 18.819 22.8449 19.341 22.5947 19.832C22.2079 20.591 21.591 21.2079 20.832 21.5947C20.341 21.8449 19.8191 21.9441 19.2549 21.9902C18.7027 22.0353 18.0231 22.0351 17.2002 22.0351H6.7998C5.97689 22.0351 5.29725 22.0353 4.74512 21.9902C4.18095 21.9441 3.65899 21.8449 3.16797 21.5947C2.409 21.2079 1.79208 20.591 1.40527 19.832C1.15509 19.341 1.05588 18.819 1.00977 18.2549C0.964654 17.7027 0.964844 17.0231 0.964844 16.2002V11.7998C0.964844 10.9769 0.964654 10.2972 1.00977 9.74509C1.05588 9.18092 1.15509 8.65897 1.40527 8.16795C1.79208 7.40898 2.409 6.79205 3.16797 6.40525C3.65899 6.15506 4.18095 6.05585 4.74512 6.00974C5.29725 5.96463 5.97689 5.96482 6.7998 5.96482H9.04883L6.35352 3.80857C5.90724 3.45155 5.83454 2.79984 6.19141 2.35349C6.54843 1.90722 7.20014 1.83451 7.64648 2.19138L12 5.6738L16.3535 2.19138C16.7999 1.83451 17.4516 1.90722 17.8086 2.35349C18.1655 2.79984 18.0928 3.45155 17.6465 3.80857L14.9512 5.96482H17.2002C18.0231 5.96482 18.7027 5.96463 19.2549 6.00974C19.8191 6.05585 20.341 6.15506 20.832 6.40525C21.591 6.79205 22.2079 7.40898 22.5947 8.16795C22.8449 8.65897 22.9441 9.18092 22.9902 9.74509C23.0353 10.2972 23.0352 10.9769 23.0352 11.7998V16.2002Z"/></svg>