<svg xmlns="http://www.w3.org/2000/svg" width="24" height="24" fill="none" viewBox="0 0 24 24"><path fill="currentColor" d="M11.2852 18.9648H12.7148V5.03516H11.2852V18.9648ZM18.9648 7C18.9648 6.52018 18.9643 6.21202 18.9482 5.97656C18.9328 5.75065 18.9068 5.66757 18.8916 5.63086C18.7937 5.39441 18.6056 5.20634 18.3691 5.1084C18.3324 5.09321 18.2494 5.06717 18.0234 5.05176C17.788 5.03572 17.4798 5.03516 17 5.03516H14.7852V18.9648H16C16.5716 18.9648 17.0352 19.4284 17.0352 20C17.0352 20.5716 16.5716 21.0352 16 21.0352H8C7.42839 21.0352 6.96484 20.5716 6.96484 20C6.96484 19.4284 7.42839 18.9648 8 18.9648H9.21484V5.03516H7C6.52018 5.03516 6.21202 5.03572 5.97656 5.05176C5.75065 5.06717 5.66757 5.09321 5.63086 5.1084C5.39441 5.20634 5.20634 5.39441 5.1084 5.63086C5.09321 5.66757 5.06717 5.75065 5.05176 5.97656C5.03572 6.21202 5.03516 6.52018 5.03516 7C5.03516 7.57162 4.57162 8.03516 4 8.03516C3.42839 8.03516 2.96484 7.57162 2.96484 7C2.96484 6.54822 2.96434 6.15728 2.98633 5.83496C3.00896 5.5035 3.05932 5.16963 3.19629 4.83887C3.50432 4.09521 4.09521 3.50432 4.83887 3.19629C5.16963 3.05932 5.5035 3.00896 5.83496 2.98633C6.15728 2.96434 6.54822 2.96484 7 2.96484H17C17.4518 2.96484 17.8427 2.96434 18.165 2.98633C18.4965 3.00896 18.8304 3.05932 19.1611 3.19629C19.9048 3.50432 20.4957 4.09521 20.8037 4.83887C20.9407 5.16963 20.991 5.5035 21.0137 5.83496C21.0357 6.15728 21.0352 6.54822 21.0352 7C21.0352 7.57162 20.5716 8.03516 20 8.03516C19.4284 8.03516 18.9648 7.57162 18.9648 7Z"/></svg>