<svg xmlns="http://www.w3.org/2000/svg" width="24" height="24" fill="none" viewBox="0 0 24 24"><path fill="currentColor" d="M11.2851 18.9648H12.7148V14.1777L11.2851 12.748V18.9648ZM2.96477 6.99992V5.99992C2.96477 5.54063 3.06897 5.1053 3.25187 4.71477L2.26848 3.73137C1.86428 3.32717 1.86428 2.67267 2.26848 2.26848C2.67267 1.86428 3.32717 1.86428 3.73137 2.26848L21.7314 20.2685C22.1356 20.6727 22.1356 21.3272 21.7314 21.7314C21.3272 22.1356 20.6727 22.1356 20.2685 21.7314L14.7851 16.248V18.9648H15.9999C16.5715 18.9648 17.0351 19.4283 17.0351 19.9999C17.0351 20.5715 16.5715 21.0351 15.9999 21.0351H7.99992C7.42831 21.0351 6.96477 20.5715 6.96477 19.9999C6.96477 19.4283 7.42831 18.9648 7.99992 18.9648H9.21477V10.6777L5.03508 6.49797V6.99992C5.03505 7.57151 4.57152 8.03508 3.99992 8.03508C3.42832 8.03508 2.96479 7.57151 2.96477 6.99992ZM18.9648 6.99992C18.9648 6.5201 18.9642 6.21194 18.9482 5.97648C18.9327 5.75057 18.9067 5.66749 18.8915 5.63078C18.7936 5.39433 18.6055 5.20626 18.3691 5.10832C18.3324 5.09313 18.2493 5.06709 18.0234 5.05168C17.7879 5.03564 17.4797 5.03508 16.9999 5.03508H14.7851V7.99992C14.7851 8.57154 14.3215 9.03508 13.7499 9.03508C13.1783 9.03508 12.7148 8.57154 12.7148 7.99992V5.03508H11.2831C11.2646 5.5904 10.8098 6.03508 10.2499 6.03508C9.67831 6.03508 9.21477 5.57154 9.21477 4.99992V4.99309C8.7821 4.86909 8.46477 4.47243 8.46477 3.99992C8.46477 3.42831 8.92831 2.96477 9.49992 2.96477H16.9999C17.4517 2.96477 17.8426 2.96426 18.165 2.98625C18.4964 3.00888 18.8303 3.05924 19.1611 3.19621C19.9047 3.50424 20.4956 4.09513 20.8036 4.83879C20.9406 5.16955 20.991 5.50342 21.0136 5.83488C21.0356 6.1572 21.0351 6.54814 21.0351 6.99992C21.0351 7.57154 20.5715 8.03508 19.9999 8.03508C19.4283 8.03508 18.9648 7.57154 18.9648 6.99992Z"/></svg>