<svg xmlns="http://www.w3.org/2000/svg" width="24" height="24" fill="none" viewBox="0 0 24 24"><g clip-path="url(#a)"><path fill="currentColor" d="M3.44238 5.03046C6.69655 1.02608 12.387 -0.226739 17.0674 2.19745L17.5176 2.44354L17.9551 2.71015C22.3949 5.55132 24.1553 11.1055 22.3145 15.926C22.178 16.2833 22.0082 16.8062 21.5469 17.1848C21.1972 17.4716 20.6984 17.6488 20.2461 17.6467C19.9194 17.645 19.646 17.5557 19.415 17.4514C19.2058 17.3567 18.9765 17.2227 18.7568 17.0959L14.9561 14.9016C14.9529 14.8998 14.9494 14.8985 14.9463 14.8967C14.9426 14.8945 14.9392 14.892 14.9355 14.8898L12.3789 13.4133L8.01953 20.965H22C22.5716 20.965 23.0352 21.4286 23.0352 22.0002C23.035 22.5717 22.5715 23.0353 22 23.0353H2C1.42848 23.0353 0.964997 22.5717 0.964844 22.0002C0.964844 21.4286 1.42839 20.965 2 20.965H5.62891L10.5859 12.3781L4.20801 8.69647C3.98832 8.56963 3.75785 8.43781 3.57129 8.3039C3.3654 8.15608 3.15105 7.96399 2.98633 7.68183C2.75835 7.29122 2.6627 6.77064 2.73633 6.3244L2.78418 6.11249C2.92295 5.63562 3.23125 5.29023 3.44238 5.03046ZM19.1006 6.52655C19.0833 6.82411 19.0543 7.12874 19.0098 7.43769C18.7455 9.27214 18.0039 11.434 16.8594 13.6105L19.792 15.3039C20.017 15.4338 20.1433 15.5028 20.2344 15.5471C20.245 15.5236 20.26 15.495 20.2754 15.4572C20.3048 15.385 20.3377 15.3006 20.3809 15.1877C21.5063 12.2406 20.9713 8.95543 19.1006 6.52655ZM16.4824 4.23554C16.33 4.14764 16.0516 4.08552 15.5547 4.23358C15.0545 4.38269 14.4313 4.72109 13.7266 5.27558C12.5067 6.23543 11.1711 7.74159 9.96875 9.63202L15.0645 12.5744C16.1005 10.5878 16.7396 8.67915 16.9609 7.14276C17.0888 6.25517 17.0692 5.54607 16.9482 5.03827C16.8279 4.53367 16.6348 4.32351 16.4824 4.23554ZM13.1885 3.11347C10.1501 2.70831 7.03809 3.88733 5.04883 6.33515C4.97248 6.42909 4.916 6.50008 4.86816 6.56171C4.84282 6.59437 4.82373 6.62072 4.80859 6.64179C4.89247 6.69877 5.01652 6.77265 5.24316 6.90351L8.1748 8.59589C9.48735 6.5166 10.9899 4.79467 12.4463 3.64862C12.6914 3.45575 12.9396 3.27714 13.1885 3.11347Z"/></g><defs><clipPath id="a"><path fill="#fff" d="M0 0H24V24H0z"/></clipPath></defs></svg>