<svg xmlns="http://www.w3.org/2000/svg" width="24" height="24" fill="none" viewBox="0 0 24 24"><path fill="currentColor" d="M10.9647 19.4004V13.0352H3.6004C3.3469 13.0352 3.08174 13.0363 2.85333 13.0137C2.60109 12.9886 2.31876 12.9296 2.03497 12.7676C1.64222 12.5433 1.29882 12.1401 1.13946 11.7168C0.929226 11.1582 1.04383 10.6198 1.10431 10.2422C1.94679 4.98302 6.50315 0.964946 11.9998 0.964844C17.4966 0.964844 22.0528 4.98299 22.8953 10.2422C22.9558 10.6199 23.0705 11.1581 22.8602 11.7168C22.7008 12.14 22.3583 12.5433 21.9656 12.7676C21.6818 12.9297 21.3996 12.9886 21.1473 13.0137C20.9188 13.0364 20.6538 13.0352 20.4002 13.0352H13.035V19.4004C13.0352 20.3031 13.7288 20.9647 14.4998 20.9648C15.2709 20.9648 15.9645 20.3032 15.9647 19.4004C15.9647 18.8288 16.4283 18.3653 16.9998 18.3652C17.5714 18.3652 18.035 18.8288 18.035 19.4004C18.0348 21.3691 16.4899 23.0352 14.4998 23.0352C12.5098 23.035 10.9649 21.3691 10.9647 19.4004ZM11.9998 3.03516C7.53594 3.03526 3.83232 6.29909 3.14825 10.5703C3.12914 10.6897 3.11491 10.7792 3.10431 10.8564C3.0988 10.8966 3.09613 10.9286 3.09356 10.9541C3.19467 10.9615 3.33907 10.9648 3.6004 10.9648H20.4002C20.6602 10.9648 20.8041 10.9614 20.9051 10.9541C20.9025 10.9286 20.9008 10.8965 20.8953 10.8564C20.8847 10.7792 20.8705 10.6897 20.8514 10.5703C20.1673 6.29902 16.4638 3.03516 11.9998 3.03516Z"/></svg>