<svg xmlns="http://www.w3.org/2000/svg" width="24" height="24" fill="none" viewBox="0 0 24 24"><g clip-path="url(#a)"><path fill="currentColor" d="M21.3965 12.8408L21.3984 12.8418V12.8428C21.398 12.8425 21.3967 12.8414 21.3945 12.8398C21.3892 12.8362 21.379 12.8291 21.3643 12.8193C21.3347 12.7997 21.2871 12.7687 21.2236 12.7305C21.0956 12.6533 20.9066 12.547 20.6748 12.4414C20.1997 12.225 19.602 12.0352 19 12.0352C18.398 12.0352 17.8003 12.225 17.3252 12.4414C17.0934 12.547 16.9044 12.6533 16.7764 12.7305C16.7129 12.7687 16.6653 12.7997 16.6357 12.8193C16.621 12.8291 16.6108 12.8362 16.6055 12.8398C16.6033 12.8414 16.602 12.8425 16.6016 12.8428V12.8418L16.6025 12.8408H16.6045C16.3126 13.0507 15.9323 13.0938 15.6006 12.9551C15.6001 12.9549 15.5992 12.9538 15.5977 12.9531C15.5944 12.9518 15.5886 12.9494 15.5811 12.9463C15.5658 12.94 15.542 12.9305 15.5107 12.918C15.448 12.8929 15.3547 12.8567 15.2373 12.8125C15.0017 12.7239 14.6714 12.6052 14.2949 12.4873C13.8845 12.3589 13.4487 12.2416 13.0352 12.1582V19.4004C13.035 21.3691 11.4901 23.0352 9.5 23.0352C7.50992 23.0352 5.96505 21.3691 5.96484 19.4004C5.96484 18.8288 6.42839 18.3652 7 18.3652C7.57161 18.3652 8.03516 18.8288 8.03516 19.4004C8.03536 20.3032 8.7289 20.9648 9.5 20.9648C10.2711 20.9648 10.9646 20.3032 10.9648 19.4004V12.1582C10.5513 12.2416 10.1155 12.3589 9.70508 12.4873C9.32856 12.6052 8.99828 12.7239 8.7627 12.8125C8.64533 12.8567 8.55196 12.8929 8.48926 12.918C8.45799 12.9305 8.4342 12.94 8.41895 12.9463C8.41137 12.9494 8.40565 12.9518 8.40234 12.9531C8.40082 12.9538 8.39993 12.9549 8.39941 12.9551C8.06797 13.0937 7.6883 13.0503 7.39648 12.8408L7.39844 12.8418V12.8428C7.39798 12.8425 7.39674 12.8414 7.39453 12.8398C7.38923 12.8362 7.379 12.8291 7.36426 12.8193C7.3347 12.7997 7.28707 12.7687 7.22363 12.7305C7.0956 12.6533 6.90659 12.547 6.6748 12.4414C6.19973 12.225 5.60203 12.0352 5 12.0352C4.39797 12.0352 3.80027 12.225 3.3252 12.4414C3.09341 12.547 2.9044 12.6533 2.77637 12.7305C2.71293 12.7687 2.6653 12.7997 2.63574 12.8193C2.621 12.8291 2.61077 12.8362 2.60547 12.8398C2.60326 12.8414 2.60202 12.8425 2.60156 12.8428V12.8418L2.60254 12.8408H2.60449C2.28936 13.0674 1.87377 13.0978 1.52832 12.9209C1.18271 12.7438 0.964844 12.3883 0.964844 12C0.964844 5.90554 5.90554 0.964844 12 0.964844C18.0945 0.964844 23.0352 5.90554 23.0352 12C23.0352 12.3883 22.8173 12.7438 22.4717 12.9209C22.1265 13.0977 21.7115 13.067 21.3965 12.8408ZM12 3.03516C7.64043 3.03516 4.00811 6.14689 3.20215 10.2705C3.72324 10.0988 4.33879 9.96484 5 9.96484C6.0081 9.96484 6.91084 10.275 7.5332 10.5586C7.75312 10.6588 7.94439 10.7608 8.10254 10.8496C8.35907 10.7542 8.70027 10.6337 9.08691 10.5127C9.90197 10.2576 11.0285 9.96484 12 9.96484C12.9715 9.96484 14.098 10.2576 14.9131 10.5127C15.2993 10.6336 15.64 10.7543 15.8965 10.8496C16.0548 10.7606 16.2465 10.659 16.4668 10.5586C17.0892 10.275 17.9919 9.96484 19 9.96484C19.6608 9.96484 20.276 10.099 20.7969 10.2705C19.9908 6.14699 16.3595 3.03516 12 3.03516Z"/></g><defs><clipPath id="a"><path fill="#fff" d="M0 0H24V24H0z"/></clipPath></defs></svg>