<svg xmlns="http://www.w3.org/2000/svg" width="24" height="24" fill="none" viewBox="0 0 24 24"><path fill="currentColor" d="M20 19.9648C20.5716 19.9648 21.0352 20.4284 21.0352 21C21.0352 21.5716 20.5716 22.0352 20 22.0352H4C3.42839 22.0352 2.96484 21.5716 2.96484 21C2.96484 20.4284 3.42839 19.9648 4 19.9648H20ZM4.96484 11V4C4.96484 3.42839 5.42839 2.96484 6 2.96484C6.57161 2.96484 7.03516 3.42839 7.03516 4V11C7.03516 13.7421 9.25791 15.9648 12 15.9648C14.7421 15.9648 16.9648 13.7421 16.9648 11V4C16.9648 3.42839 17.4284 2.96484 18 2.96484C18.5716 2.96484 19.0352 3.42839 19.0352 4V11C19.0352 14.8853 15.8853 18.0352 12 18.0352C8.11468 18.0352 4.96484 14.8853 4.96484 11Z"/></svg>