<svg xmlns="http://www.w3.org/2000/svg" width="24" height="24" fill="none" viewBox="0 0 24 24"><path fill="currentColor" d="M20 19.9648C20.5716 19.9648 21.0352 20.4284 21.0352 21C21.0352 21.5716 20.5716 22.0352 20 22.0352H4C3.42839 22.0352 2.96484 21.5716 2.96484 21C2.96484 20.4284 3.42839 19.9648 4 19.9648H20ZM7.46484 5.03516H6.03516V10C6.03516 12.4451 7.5069 14.5448 9.6123 15.4658C8.2805 14.0321 7.46484 12.1121 7.46484 10V5.03516ZM9.53516 10C9.53516 12.6841 11.309 14.9552 13.75 15.7031C16.1903 14.9552 17.9648 12.6853 17.9648 10V5.03516H17C16.4284 5.03516 15.9648 4.57161 15.9648 4C15.9648 3.42839 16.4284 2.96484 17 2.96484H21C21.5716 2.96484 22.0352 3.42839 22.0352 4C22.0352 4.57161 21.5716 5.03516 21 5.03516H20.0352V10C20.0352 14.4376 16.4376 18.0352 12 18.0352C7.56239 18.0352 3.96484 14.4376 3.96484 10V5.03516H3C2.42839 5.03516 1.96484 4.57161 1.96484 4C1.96484 3.42839 2.42839 2.96484 3 2.96484H10.5C11.0716 2.96484 11.5352 3.42839 11.5352 4C11.5352 4.57161 11.0716 5.03516 10.5 5.03516H9.53516V10Z"/></svg>