<svg xmlns="http://www.w3.org/2000/svg" width="24" height="24" fill="none" viewBox="0 0 24 24"><path fill="currentColor" d="M10.9648 21V14.498L8.73145 16.7314C8.32725 17.1356 7.67275 17.1356 7.26855 16.7314C6.86436 16.3273 6.86436 15.6727 7.26855 15.2686L11.2686 11.2686L11.3467 11.1973C11.7532 10.8656 12.3525 10.8896 12.7314 11.2686L16.7314 15.2686C17.1356 15.6727 17.1356 16.3273 16.7314 16.7314C16.3273 17.1356 15.6727 17.1356 15.2686 16.7314L13.0352 14.498V21C13.0352 21.5716 12.5716 22.0352 12 22.0352C11.4284 22.0352 10.9648 21.5716 10.9648 21ZM20.9648 12.5C20.9648 10.6962 19.5859 9.21306 17.8252 9.0498C17.3564 9.00638 16.9759 8.65207 16.8994 8.1875C16.5122 5.83223 14.4647 4.03516 12 4.03516C9.53526 4.03516 7.48778 5.83223 7.10059 8.1875C7.02407 8.65207 6.64365 9.00638 6.1748 9.0498C4.41414 9.21306 3.03516 10.6962 3.03516 12.5C3.03516 13.7004 3.64496 14.7585 4.57617 15.3818C5.05105 15.6998 5.17828 16.3434 4.86035 16.8184C4.54235 17.2932 3.89879 17.4205 3.42383 17.1025C1.94319 16.1113 0.964844 14.42 0.964844 12.5C0.964844 9.88254 2.78119 7.69024 5.22266 7.11328C6.04768 4.14423 8.76783 1.96484 12 1.96484C15.2321 1.96484 17.9513 4.14436 18.7764 7.11328C21.2183 7.68991 23.0352 9.88221 23.0352 12.5C23.0352 14.42 22.0568 16.1113 20.5762 17.1025C20.1012 17.4205 19.4577 17.2932 19.1396 16.8184C18.8217 16.3434 18.949 15.6998 19.4238 15.3818C20.355 14.7585 20.9648 13.7004 20.9648 12.5Z"/></svg>