<svg xmlns="http://www.w3.org/2000/svg" width="24" height="24" fill="none" viewBox="0 0 24 24"><path fill="currentColor" d="M1.96484 16.2002V15C1.96484 14.4284 2.42839 13.9648 3 13.9648C3.57161 13.9648 4.03516 14.4284 4.03516 15V16.2002C4.03516 17.0571 4.03565 17.6377 4.07227 18.0859C4.10791 18.5222 4.17227 18.7419 4.24902 18.8926C4.43737 19.262 4.73794 19.5626 5.10742 19.751C5.25806 19.8277 5.47781 19.8921 5.91406 19.9277C6.36234 19.9643 6.94287 19.9648 7.7998 19.9648H16.2002C17.0571 19.9648 17.6377 19.9643 18.0859 19.9277C18.5222 19.8921 18.7419 19.8277 18.8926 19.751C19.2621 19.5626 19.5626 19.262 19.751 18.8926C19.8277 18.7419 19.8921 18.5222 19.9277 18.0859C19.9643 17.6377 19.9648 17.0571 19.9648 16.2002V15C19.9648 14.4284 20.4284 13.9648 21 13.9648C21.5716 13.9648 22.0352 14.4284 22.0352 15V16.2002C22.0352 17.0231 22.0353 17.7027 21.9902 18.2549C21.9441 18.819 21.8449 19.341 21.5947 19.832C21.2079 20.591 20.591 21.2079 19.832 21.5947C19.341 21.8449 18.8191 21.9441 18.2549 21.9902C17.7027 22.0353 17.0231 22.0351 16.2002 22.0351H7.7998C6.97689 22.0351 6.29725 22.0353 5.74512 21.9902C5.18095 21.9441 4.65899 21.8449 4.16797 21.5947C3.409 21.2079 2.79208 20.591 2.40527 19.832C2.15509 19.341 2.05588 18.819 2.00977 18.2549C1.96465 17.7027 1.96484 17.0231 1.96484 16.2002ZM10.9648 15V5.49804L7.73145 8.73143C7.32725 9.13563 6.67275 9.13563 6.26855 8.73143C5.86436 8.32724 5.86436 7.67274 6.26855 7.26854L11.2686 2.26854L11.3467 2.19725C11.7532 1.86558 12.3525 1.88957 12.7314 2.26854L17.7314 7.26854C18.1356 7.67274 18.1356 8.32724 17.7314 8.73143C17.3273 9.13563 16.6727 9.13563 16.2686 8.73143L13.0352 5.49804V15C13.0352 15.5716 12.5716 16.0351 12 16.0351C11.4284 16.0351 10.9648 15.5716 10.9648 15Z"/></svg>