<svg xmlns="http://www.w3.org/2000/svg" width="24" height="24" fill="none" viewBox="0 0 24 24"><path fill="currentColor" d="M20.9648 12C20.9648 7.04877 16.9512 3.03516 12 3.03516C7.04877 3.03516 3.03516 7.04877 3.03516 12C3.03516 15.317 4.83621 18.215 7.51855 19.7666C8.01306 20.0529 8.18166 20.686 7.89551 21.1807C7.60919 21.6752 6.97612 21.8438 6.48145 21.5576C3.18601 19.6511 0.964844 16.0856 0.964844 12C0.964844 5.90554 5.90554 0.964844 12 0.964844C18.0945 0.964844 23.0352 5.90554 23.0352 12C23.0352 16.2572 20.6239 19.9494 17.0977 21.7891C16.7639 21.9632 16.3866 22.1655 15.9541 22.2783C15.4885 22.3997 15.0193 22.4071 14.458 22.3311C13.9388 22.2607 13.3761 21.9971 12.9395 21.7324C12.5027 21.4677 12.0077 21.0901 11.7051 20.6621C10.9339 19.5714 10.9648 18.5281 10.9648 17.2002V10.498L8.73145 12.7314C8.32725 13.1356 7.67275 13.1356 7.26855 12.7314C6.86436 12.3273 6.86436 11.6727 7.26855 11.2686L11.2686 7.26855L11.3438 7.19922C11.5279 7.04826 11.7598 6.96484 12 6.96484C12.2745 6.96484 12.5373 7.07445 12.7314 7.26855L16.7314 11.2686C17.1356 11.6727 17.1356 12.3273 16.7314 12.7314C16.3273 13.1356 15.6727 13.1356 15.2686 12.7314L13.0352 10.498V17.2002C13.0352 18.6532 13.066 19.0007 13.3955 19.4668C13.4586 19.5561 13.6737 19.7569 14.0117 19.9619C14.35 20.167 14.6279 20.2646 14.7363 20.2793C15.1196 20.3312 15.3022 20.3091 15.4316 20.2754C15.5942 20.233 15.7558 20.1543 16.1396 19.9541C19.0093 18.4571 20.9648 15.4561 20.9648 12Z"/></svg>