<svg xmlns="http://www.w3.org/2000/svg" width="24" height="24" fill="none" viewBox="0 0 24 24"><path fill="currentColor" d="M10.9648 21V9.49805L6.73145 13.7314C6.32725 14.1356 5.67275 14.1356 5.26855 13.7314C4.86436 13.3273 4.86436 12.6727 5.26855 12.2686L11.2686 6.26855L11.3438 6.19922C11.5279 6.04826 11.7598 5.96484 12 5.96484C12.2745 5.96484 12.5373 6.07445 12.7314 6.26855L18.7314 12.2686C19.1356 12.6727 19.1356 13.3273 18.7314 13.7314C18.3273 14.1356 17.6727 14.1356 17.2686 13.7314L13.0352 9.49805V21C13.0352 21.5716 12.5716 22.0352 12 22.0352C11.4284 22.0352 10.9648 21.5716 10.9648 21ZM21 1.96484C21.5716 1.96484 22.0352 2.42839 22.0352 3C22.0352 3.57161 21.5716 4.03516 21 4.03516H3C2.42839 4.03516 1.96484 3.57161 1.96484 3C1.96484 2.42839 2.42839 1.96484 3 1.96484H21Z"/></svg>