<svg xmlns="http://www.w3.org/2000/svg" width="24" height="24" fill="none" viewBox="0 0 24 24"><path fill="currentColor" d="M10.9648 21V14.498L8.73145 16.7314C8.32725 17.1356 7.67275 17.1356 7.26855 16.7314C6.86436 16.3273 6.86436 15.6727 7.26855 15.2686L11.2686 11.2686L11.3467 11.1973C11.7532 10.8656 12.3525 10.8896 12.7314 11.2686L16.7314 15.2686C17.1356 15.6727 17.1356 16.3273 16.7314 16.7314C16.3273 17.1356 15.6727 17.1356 15.2686 16.7314L13.0352 14.498V21C13.0352 21.5716 12.5716 22.0352 12 22.0352C11.4284 22.0352 10.9648 21.5716 10.9648 21ZM0.964844 10.5C0.964844 5.78625 4.78625 1.96484 9.5 1.96484C12.5511 1.96484 15.2265 3.56695 16.7344 5.9707C20.235 6.09413 23.0352 8.96929 23.0352 12.5C23.0352 14.5297 22.1086 16.344 20.6592 17.541C20.2186 17.9049 19.5662 17.8428 19.2021 17.4023C18.8382 16.9616 18.9001 16.3083 19.3408 15.9443C20.3344 15.1237 20.9648 13.8861 20.9648 12.5C20.9648 10.034 18.966 8.03516 16.5 8.03516C15.9243 8.03516 15.3759 7.73533 15.0742 7.22363C13.9485 5.31341 11.8731 4.03516 9.5 4.03516C5.92948 4.03516 3.03516 6.92948 3.03516 10.5C3.03516 12.2813 3.75381 13.8931 4.91992 15.0635C5.32325 15.4684 5.32188 16.123 4.91699 16.5264C4.51218 16.9296 3.85756 16.929 3.4541 16.5244C1.91721 14.9819 0.964844 12.8509 0.964844 10.5Z"/></svg>