<svg xmlns="http://www.w3.org/2000/svg" width="24" height="24" fill="none" viewBox="0 0 24 24"><path fill="currentColor" d="M18.9648 12.2002C18.9648 11.6231 18.9644 11.2523 18.9414 10.9707C18.9194 10.7012 18.8816 10.6052 18.8594 10.5615C18.7669 10.3803 18.6197 10.2331 18.4385 10.1406C18.3948 10.1184 18.2988 10.0806 18.0293 10.0586C17.7477 10.0356 17.3769 10.0352 16.7998 10.0352H7.2002C6.62309 10.0352 6.25228 10.0356 5.9707 10.0586C5.7012 10.0806 5.60521 10.1184 5.56152 10.1406C5.38033 10.2331 5.23308 10.3803 5.14062 10.5615C5.11837 10.6052 5.08061 10.7012 5.05859 10.9707C5.03559 11.2523 5.03516 11.6231 5.03516 12.2002V17.2002C5.03516 18.0571 5.03565 18.6377 5.07227 19.0859C5.10791 19.5222 5.17227 19.7419 5.24902 19.8926C5.43737 20.2621 5.73794 20.5626 6.10742 20.751C6.25807 20.8277 6.47781 20.8921 6.91406 20.9277C7.36234 20.9643 7.94287 20.9648 8.7998 20.9648H15.2002C16.0571 20.9648 16.6377 20.9643 17.0859 20.9277C17.5222 20.8921 17.7419 20.8277 17.8926 20.751C18.2621 20.5626 18.5626 20.2621 18.751 19.8926C18.8277 19.7419 18.8921 19.5222 18.9277 19.0859C18.9643 18.6377 18.9648 18.0571 18.9648 17.2002V12.2002ZM8.96484 6V5C8.96484 4.42839 9.42839 3.96484 10 3.96484C10.5716 3.96484 11.0352 4.42839 11.0352 5V6C11.0352 6.57161 10.5716 7.03516 10 7.03516C9.42839 7.03516 8.96484 6.57161 8.96484 6ZM12.9648 6V5C12.9648 4.42839 13.4284 3.96484 14 3.96484C14.5716 3.96484 15.0352 4.42839 15.0352 5V6C15.0352 6.57161 14.5716 7.03516 14 7.03516C13.4284 7.03516 12.9648 6.57161 12.9648 6ZM16.9648 3.59961C16.9648 3.31662 16.9633 3.15762 16.9551 3.04395C16.8415 3.03582 16.6825 3.03516 16.4004 3.03516H7.59961C7.31668 3.03516 7.15762 3.03576 7.04395 3.04395C7.03576 3.15762 7.03516 3.31668 7.03516 3.59961V7.96484H16.9648V3.59961ZM19.0352 8.15332C19.1503 8.19163 19.2648 8.23827 19.3779 8.2959C19.9489 8.58686 20.4131 9.05107 20.7041 9.62207C20.8998 10.0061 20.9714 10.4044 21.0039 10.8018C21.0354 11.1872 21.0352 11.6572 21.0352 12.2002V17.2002C21.0352 18.0231 21.0353 18.7027 20.9902 19.2549C20.9441 19.8191 20.8449 20.341 20.5947 20.832C20.2079 21.591 19.591 22.2079 18.832 22.5947C18.341 22.8449 17.8191 22.9441 17.2549 22.9902C16.7027 23.0353 16.0231 23.0352 15.2002 23.0352H8.7998C7.97689 23.0352 7.29725 23.0353 6.74512 22.9902C6.18095 22.9441 5.65899 22.8449 5.16797 22.5947C4.409 22.2079 3.79208 21.591 3.40527 20.832C3.15509 20.341 3.05588 19.8191 3.00977 19.2549C2.96465 18.7027 2.96484 18.0231 2.96484 17.2002V12.2002C2.96484 11.6572 2.9646 11.1872 2.99609 10.8018C3.02859 10.4044 3.10024 10.0061 3.2959 9.62207C3.58686 9.05107 4.05107 8.58686 4.62207 8.2959C4.73516 8.23827 4.84967 8.19163 4.96484 8.15332V3.59961C4.96484 3.33696 4.9646 3.07785 4.98242 2.85938C5.00127 2.62866 5.04535 2.3533 5.18652 2.07617L5.26562 1.93555C5.46114 1.61698 5.74128 1.35716 6.07617 1.18652L6.2832 1.09766C6.48814 1.02472 6.6864 0.996555 6.85938 0.982422C7.07785 0.9646 7.33696 0.964843 7.59961 0.964844H16.4004C16.663 0.964843 16.9221 0.9646 17.1406 0.982422C17.3136 0.996555 17.5119 1.02472 17.7168 1.09766L17.9238 1.18652L18.0645 1.26563C18.3373 1.4331 18.5669 1.66266 18.7344 1.93555L18.8135 2.07617L18.9023 2.2832C18.9753 2.48814 19.0034 2.6864 19.0176 2.85938C19.0354 3.07785 19.0352 3.33696 19.0352 3.59961V8.15332Z"/></svg>