<svg xmlns="http://www.w3.org/2000/svg" width="24" height="24" fill="none" viewBox="0 0 24 24"><path fill="currentColor" d="M14.9648 21V19.7998C14.9648 18.9429 14.9643 18.3623 14.9277 17.9141C14.8921 17.4778 14.8277 17.2581 14.751 17.1074C14.5626 16.7379 14.2621 16.4374 13.8926 16.249C13.7419 16.1723 13.5222 16.1079 13.0859 16.0723C12.6377 16.0357 12.0571 16.0352 11.2002 16.0352H6.7998C5.94287 16.0352 5.36234 16.0357 4.91406 16.0723C4.47781 16.1079 4.25807 16.1723 4.10742 16.249C3.73794 16.4374 3.43737 16.7379 3.24902 17.1074C3.17227 17.2581 3.10791 17.4778 3.07227 17.9141C3.03565 18.3623 3.03516 18.9429 3.03516 19.7998V21C3.03516 21.5716 2.57161 22.0352 2 22.0352C1.42839 22.0352 0.964844 21.5716 0.964844 21V19.7998C0.964844 18.9769 0.964654 18.2973 1.00977 17.7451C1.05588 17.1809 1.15509 16.659 1.40527 16.168C1.79208 15.409 2.409 14.7921 3.16797 14.4053C3.65899 14.1551 4.18095 14.0559 4.74512 14.0098C5.29725 13.9647 5.97689 13.9648 6.7998 13.9648H11.2002C12.0231 13.9648 12.7027 13.9647 13.2549 14.0098C13.8191 14.0559 14.341 14.1551 14.832 14.4053C15.591 14.7921 16.2079 15.409 16.5947 16.168C16.8449 16.659 16.9441 17.1809 16.9902 17.7451C17.0353 18.2973 17.0352 18.9769 17.0352 19.7998V21C17.0352 21.5716 16.5716 22.0352 16 22.0352C15.4284 22.0352 14.9648 21.5716 14.9648 21ZM11.4648 7.5C11.4648 6.13862 10.3614 5.03516 9 5.03516C7.63862 5.03516 6.53516 6.13862 6.53516 7.5C6.53516 8.86138 7.63862 9.96484 9 9.96484C10.3614 9.96484 11.4648 8.86138 11.4648 7.5ZM17.9648 4C17.9648 3.42839 18.4284 2.96484 19 2.96484C19.5716 2.96484 20.0352 3.42839 20.0352 4V7.50195L21.2686 6.26855C21.6727 5.86436 22.3273 5.86436 22.7314 6.26855C23.1356 6.67275 23.1356 7.32725 22.7314 7.73145L19.7314 10.7314C19.3273 11.1356 18.6727 11.1356 18.2686 10.7314L15.2686 7.73145C14.8644 7.32725 14.8644 6.67275 15.2686 6.26855C15.6727 5.86436 16.3273 5.86436 16.7314 6.26855L17.9648 7.50195V4ZM13.5352 7.5C13.5352 10.0046 11.5046 12.0352 9 12.0352C6.49539 12.0352 4.46484 10.0046 4.46484 7.5C4.46484 4.99539 6.49539 2.96484 9 2.96484C11.5046 2.96484 13.5352 4.99539 13.5352 7.5Z"/></svg>