<svg xmlns="http://www.w3.org/2000/svg" width="24" height="24" fill="none" viewBox="0 0 24 24"><path fill="currentColor" d="M18.9648 21C18.9648 19.5294 18.9533 19.0235 18.8369 18.6396C18.5494 17.692 17.8079 16.9505 16.8603 16.6631C16.4765 16.5467 15.9706 16.5352 14.5 16.5352H9.49997C8.02936 16.5352 7.52344 16.5467 7.13962 16.6631C6.192 16.9505 5.45051 17.692 5.16305 18.6396C5.04667 19.0235 5.03512 19.5294 5.03512 21C5.03512 21.5716 4.57158 22.0352 3.99997 22.0352C3.42835 22.0352 2.96481 21.5716 2.96481 21C2.96481 19.6797 2.95357 18.7898 3.18161 18.0381C3.66978 16.4291 4.92907 15.1698 6.53805 14.6816C7.2898 14.4536 8.17971 14.4648 9.49997 14.4648H14.5C15.8202 14.4648 16.7101 14.4536 17.4619 14.6816C19.0709 15.1698 20.3302 16.4291 20.8183 18.0381C21.0464 18.7898 21.0351 19.6797 21.0351 21C21.0351 21.5716 20.5716 22.0352 20 22.0352C19.4284 22.0352 18.9648 21.5716 18.9648 21ZM15.4648 7.5C15.4648 5.58633 13.9136 4.03516 12 4.03516C10.0863 4.03516 8.53512 5.58633 8.53512 7.5C8.53512 9.41367 10.0863 10.9648 12 10.9648C13.9136 10.9648 15.4648 9.41367 15.4648 7.5ZM17.5351 7.5C17.5351 10.5569 15.0569 13.0352 12 13.0352C8.94307 13.0352 6.46481 10.5569 6.46481 7.5C6.46481 4.4431 8.94307 1.96484 12 1.96484C15.0569 1.96484 17.5351 4.4431 17.5351 7.5Z"/></svg>