<svg xmlns="http://www.w3.org/2000/svg" width="24" height="24" fill="none" viewBox="0 0 24 24"><path fill="currentColor" d="M0.964812 21C0.964812 19.6797 0.953569 18.7898 1.18161 18.0381C1.66978 16.4291 2.92907 15.1698 4.53805 14.6816C5.2898 14.4536 6.17971 14.4648 7.49997 14.4648H12C12.5716 14.4648 13.0351 14.9284 13.0351 15.5C13.0351 16.0716 12.5716 16.5352 12 16.5352H7.49997C6.02936 16.5352 5.52344 16.5467 5.13962 16.6631C4.192 16.9505 3.45051 17.692 3.16305 18.6396C3.04667 19.0235 3.03512 19.5294 3.03512 21C3.03512 21.5716 2.57158 22.0352 1.99997 22.0352C1.42835 22.0352 0.964812 21.5716 0.964812 21ZM18.2685 14.2686C18.6727 13.8644 19.3272 13.8644 19.7314 14.2686L22.7314 17.2686C23.1356 17.6727 23.1356 18.3273 22.7314 18.7314L19.7314 21.7314C19.3272 22.1356 18.6727 22.1356 18.2685 21.7314C17.8643 21.3273 17.8643 20.6727 18.2685 20.2686L19.5019 19.0352H16C15.4284 19.0352 14.9648 18.5716 14.9648 18C14.9648 17.4284 15.4284 16.9648 16 16.9648H19.5019L18.2685 15.7314C17.8643 15.3273 17.8643 14.6727 18.2685 14.2686ZM13.4648 7.5C13.4648 5.58633 11.9136 4.03516 9.99997 4.03516C8.0863 4.03516 6.53512 5.58633 6.53512 7.5C6.53512 9.41367 8.0863 10.9648 9.99997 10.9648C11.9136 10.9648 13.4648 9.41367 13.4648 7.5ZM15.5351 7.5C15.5351 10.5569 13.0569 13.0352 9.99997 13.0352C6.94307 13.0352 4.46481 10.5569 4.46481 7.5C4.46481 4.4431 6.94307 1.96484 9.99997 1.96484C13.0569 1.96484 15.5351 4.4431 15.5351 7.5Z"/></svg>