<svg xmlns="http://www.w3.org/2000/svg" width="24" height="24" fill="none" viewBox="0 0 24 24"><path fill="currentColor" d="M0.964812 21C0.964812 19.6797 0.953569 18.7898 1.18161 18.0381C1.66978 16.4291 2.92907 15.1698 4.53805 14.6816C5.2898 14.4536 6.17971 14.4648 7.49997 14.4648H8.99997C9.57158 14.4648 10.0351 14.9284 10.0351 15.5C10.0351 16.0716 9.57158 16.5352 8.99997 16.5352H7.49997C6.02936 16.5352 5.52344 16.5467 5.13962 16.6631C4.192 16.9505 3.45051 17.692 3.16305 18.6396C3.04667 19.0235 3.03512 19.5294 3.03512 21C3.03512 21.5716 2.57158 22.0352 1.99997 22.0352C1.42835 22.0352 0.964812 21.5716 0.964812 21ZM18.0185 10.0186C19.1131 8.92401 20.8868 8.92403 21.9814 10.0186C23.076 11.1131 23.076 12.8869 21.9814 13.9814L15.5254 20.4385C15.4377 20.5262 15.3201 20.6476 15.1806 20.75C15.0696 20.8315 14.9503 20.9015 14.8252 20.959C14.6678 21.0312 14.505 21.0753 14.3857 21.1094L11.2841 21.9951C10.9228 22.0983 10.5343 21.9972 10.2685 21.7314C10.0028 21.4657 9.90165 21.0772 10.0049 20.7158L10.8906 17.6143C10.9247 17.495 10.9687 17.3322 11.041 17.1748L11.1367 16.9922C11.1716 16.9329 11.2092 16.8749 11.25 16.8193L11.4111 16.6279C11.4652 16.5702 11.5176 16.5185 11.5615 16.4746L18.0185 10.0186ZM20.5185 11.4814C20.2323 11.1953 19.7676 11.1953 19.4814 11.4814L12.9218 18.042C12.9183 18.0533 12.9145 18.0691 12.9082 18.0908C12.9008 18.116 12.8916 18.1449 12.8808 18.1826L12.5058 19.4932L13.8174 19.1191C13.8551 19.1084 13.8839 19.0992 13.9091 19.0918C13.9305 19.0856 13.9458 19.0807 13.957 19.0771C13.9655 19.0691 13.9774 19.0586 13.9931 19.043C14.0119 19.0244 14.0336 19.0025 14.0615 18.9746L20.5185 12.5186C20.8047 12.2324 20.8047 11.7676 20.5185 11.4814ZM13.4648 7.5C13.4648 5.58633 11.9136 4.03516 9.99997 4.03516C8.0863 4.03516 6.53512 5.58633 6.53512 7.5C6.53512 9.41367 8.0863 10.9648 9.99997 10.9648C11.9136 10.9648 13.4648 9.41367 13.4648 7.5ZM15.5351 7.5C15.5351 10.5569 13.0569 13.0352 9.99997 13.0352C6.94307 13.0352 4.46481 10.5569 4.46481 7.5C4.46481 4.4431 6.94307 1.96484 9.99997 1.96484C13.0569 1.96484 15.5351 4.4431 15.5351 7.5Z"/></svg>