<svg xmlns="http://www.w3.org/2000/svg" width="24" height="24" fill="none" viewBox="0 0 24 24"><path fill="currentColor" d="M9.49999 14.9648C12.7958 14.9648 15.7166 16.6917 17.8135 19.3604C18.1665 19.8097 18.0888 20.4603 17.6396 20.8135C17.1903 21.1665 16.5397 21.0888 16.1865 20.6396C14.3904 18.3536 12.0257 17.0352 9.49999 17.0352C6.97424 17.0352 4.60958 18.3536 2.81346 20.6396C2.46026 21.0888 1.80971 21.1665 1.36034 20.8135C0.91114 20.4603 0.833443 19.8097 1.18651 19.3604C3.28336 16.6917 6.20422 14.9648 9.49999 14.9648ZM17.0566 16.3398C17.2923 15.8191 17.906 15.5876 18.4267 15.8232C20.1104 16.5851 21.5983 17.8138 22.8135 19.3604C23.1665 19.8097 23.0888 20.4603 22.6396 20.8135C22.1903 21.1665 21.5397 21.0888 21.1865 20.6396C20.1468 19.3163 18.9124 18.315 17.5732 17.709C17.0527 17.4733 16.8212 16.8605 17.0566 16.3398ZM12.9648 7.5C12.9648 5.58633 11.4137 4.03516 9.49999 4.03516C7.58632 4.03516 6.03514 5.58633 6.03514 7.5C6.03514 9.41367 7.58632 10.9648 9.49999 10.9648C11.4137 10.9648 12.9648 9.41367 12.9648 7.5ZM17.4648 7.5C17.4648 6.14103 16.6825 4.96277 15.5391 4.39453C15.0274 4.14005 14.8189 3.51863 15.0732 3.00684C15.3277 2.49516 15.9491 2.28668 16.4609 2.54102C18.2808 3.44554 19.5351 5.32537 19.5351 7.5C19.5351 9.67463 18.2808 11.5545 16.4609 12.459C15.9491 12.7133 15.3277 12.5048 15.0732 11.9932C14.8189 11.4814 15.0274 10.8599 15.5391 10.6055C16.6825 10.0372 17.4648 8.85897 17.4648 7.5ZM15.0351 7.5C15.0351 10.5569 12.5569 13.0352 9.49999 13.0352C6.44309 13.0352 3.96483 10.5569 3.96483 7.5C3.96483 4.4431 6.44309 1.96484 9.49999 1.96484C12.5569 1.96484 15.0351 4.4431 15.0351 7.5Z"/></svg>