<svg xmlns="http://www.w3.org/2000/svg" width="24" height="24" fill="none" viewBox="0 0 24 24"><path fill="currentColor" d="M14.9648 21.0001V19.7999C14.9648 18.943 14.9643 18.3624 14.9277 17.9142C14.8921 17.4779 14.8277 17.2582 14.751 17.1075C14.5626 16.7381 14.2621 16.4375 13.8926 16.2491C13.7419 16.1724 13.5222 16.108 13.0859 16.0724C12.6377 16.0358 12.0571 16.0353 11.2002 16.0353H6.7998C5.94287 16.0353 5.36234 16.0358 4.91406 16.0724C4.47781 16.108 4.25807 16.1724 4.10742 16.2491C3.73794 16.4375 3.43737 16.7381 3.24902 17.1075C3.17227 17.2582 3.10791 17.4779 3.07227 17.9142C3.03565 18.3624 3.03516 18.943 3.03516 19.7999V21.0001C3.03516 21.5717 2.57161 22.0353 2 22.0353C1.42839 22.0353 0.964844 21.5717 0.964844 21.0001V19.7999C0.964844 18.977 0.964654 18.2974 1.00977 17.7452C1.05588 17.1811 1.15509 16.6591 1.40527 16.1681C1.79208 15.4091 2.409 14.7922 3.16797 14.4054C3.65899 14.1552 4.18095 14.056 4.74512 14.0099C5.29725 13.9648 5.97689 13.965 6.7998 13.965H11.2002C12.0231 13.965 12.7027 13.9648 13.2549 14.0099C13.8191 14.056 14.341 14.1552 14.832 14.4054C15.591 14.7922 16.2079 15.4091 16.5947 16.1681C16.8449 16.6591 16.9441 17.1811 16.9902 17.7452C17.0353 18.2974 17.0352 18.977 17.0352 19.7999V21.0001C17.0352 21.5717 16.5716 22.0353 16 22.0353C15.4284 22.0353 14.9648 21.5717 14.9648 21.0001ZM11.4648 7.50011C11.4648 6.13873 10.3614 5.03527 9 5.03527C7.63862 5.03527 6.53516 6.13873 6.53516 7.50011C6.53516 8.86149 7.63862 9.96495 9 9.96495C10.3614 9.96495 11.4648 8.86149 11.4648 7.50011ZM17.9648 9.00011V5.49816L16.7314 6.73156C16.3273 7.13575 15.6727 7.13575 15.2686 6.73156C14.8644 6.32736 14.8644 5.67286 15.2686 5.26866L18.2686 2.26866L18.3467 2.19738C18.7532 1.8657 19.3525 1.8897 19.7314 2.26866L22.7314 5.26866C23.1356 5.67286 23.1356 6.32736 22.7314 6.73156C22.3273 7.13575 21.6727 7.13575 21.2686 6.73156L20.0352 5.49816V9.00011C20.0352 9.57172 19.5716 10.0353 19 10.0353C18.4284 10.0353 17.9648 9.57172 17.9648 9.00011ZM13.5352 7.50011C13.5352 10.0047 11.5046 12.0353 9 12.0353C6.49539 12.0353 4.46484 10.0047 4.46484 7.50011C4.46484 4.9955 6.49539 2.96495 9 2.96495C11.5046 2.96495 13.5352 4.9955 13.5352 7.50011Z"/></svg>