<svg xmlns="http://www.w3.org/2000/svg" width="24" height="24" fill="none" viewBox="0 0 24 24"><path fill="currentColor" d="M12.0002 13.9648C15.5128 13.9649 18.6304 15.6629 20.6096 18.2822C20.7861 18.5158 20.983 18.7716 21.1213 19.0186C21.2807 19.3032 21.3992 19.6343 21.3918 20.0371C21.3859 20.3612 21.2877 20.6642 21.1691 20.9023C21.0506 21.1404 20.8683 21.4006 20.6135 21.6006C20.2732 21.8676 19.9032 21.9619 19.5773 22.001C19.2792 22.0367 18.9238 22.0352 18.5725 22.0352H5.42696C5.07567 22.0352 4.72014 22.0367 4.42207 22.001C4.09633 21.9619 3.72697 21.8674 3.38692 21.6006C3.13194 21.4005 2.94884 21.1405 2.83028 20.9023C2.71172 20.6642 2.61355 20.3612 2.60762 20.0371C2.60028 19.6343 2.71967 19.3032 2.87911 19.0186C3.01735 18.7718 3.21341 18.5157 3.38985 18.2822C5.36905 15.6629 8.48749 13.9648 12.0002 13.9648ZM12.0002 16.0352C9.17275 16.0352 6.6526 17.399 5.04219 19.5303C4.94323 19.6612 4.86751 19.761 4.80489 19.8486C4.77697 19.8877 4.75586 19.9215 4.7375 19.9492C4.88071 19.9606 5.08357 19.9648 5.42696 19.9648H18.5725C18.9147 19.9648 19.1178 19.9604 19.2609 19.9492C19.2427 19.9217 19.2231 19.8873 19.1955 19.8486C19.1329 19.761 19.0571 19.6612 18.9582 19.5303C17.3478 17.399 14.8276 16.0352 12.0002 16.0352ZM15.465 7.5C15.465 5.58638 13.9138 4.03524 12.0002 4.03516C10.0865 4.03516 8.53536 5.58633 8.53536 7.5C8.53536 9.41367 10.0865 10.9648 12.0002 10.9648C13.9138 10.9648 15.465 9.41362 15.465 7.5ZM17.5354 7.5C17.5354 10.5568 15.057 13.0351 12.0002 13.0352C8.9433 13.0352 6.46504 10.5569 6.46504 7.5C6.46504 4.4431 8.9433 1.96484 12.0002 1.96484C15.057 1.96492 17.5354 4.44315 17.5354 7.5Z"/></svg>