<svg xmlns="http://www.w3.org/2000/svg" width="24" height="24" fill="none" viewBox="0 0 24 24"><path fill="currentColor" d="M9.50014 13.9648C12.728 13.9649 15.5459 15.728 17.3019 18.3643C17.4618 18.6043 17.6391 18.8659 17.7609 19.1143C17.9006 19.3992 18.0013 19.7287 17.9777 20.1221C17.9588 20.4359 17.8547 20.7262 17.7316 20.9561C17.6085 21.1859 17.4247 21.4334 17.174 21.623C16.838 21.8772 16.4763 21.966 16.1593 22.0029C15.8683 22.0368 15.5214 22.0352 15.1779 22.0352H3.82241C3.47882 22.0352 3.13206 22.0368 2.84096 22.0029C2.52395 21.966 2.16241 21.8772 1.82632 21.623C1.57561 21.4334 1.39181 21.1859 1.2687 20.9561C1.14561 20.7262 1.04147 20.4359 1.02261 20.1221C0.998993 19.7287 1.0997 19.3992 1.2394 19.1143C1.36118 18.8659 1.53759 18.6042 1.69741 18.3643C3.45338 15.7278 6.27208 13.9648 9.50014 13.9648ZM17.0753 15.3721C17.332 14.8615 17.9543 14.6556 18.465 14.9121C20.1055 15.7363 21.4913 17.0484 22.4943 18.6641C22.626 18.8762 22.8146 19.157 22.9064 19.5254L22.9396 19.6885L22.9582 19.8682C22.9804 20.2839 22.8594 20.6743 22.6896 20.9795C22.4955 21.3284 22.1738 21.6822 21.7248 21.873C21.2981 22.0544 20.8341 22.0352 20.5001 22.0352C19.9285 22.0352 19.465 21.5716 19.465 21C19.465 20.4284 19.9285 19.9648 20.5001 19.9648C20.6764 19.9648 20.7831 19.9611 20.8595 19.958C20.855 19.9503 20.8502 19.9416 20.8449 19.9326C20.8165 19.885 20.7819 19.8306 20.7355 19.7559C19.9163 18.4362 18.8064 17.4003 17.5353 16.7617C17.0246 16.5051 16.8188 15.8828 17.0753 15.3721ZM9.50014 16.0352C7.06714 16.0352 4.8537 17.3609 3.42104 19.5117C3.33161 19.646 3.26279 19.7489 3.2062 19.8389C3.1789 19.8822 3.15904 19.9192 3.14175 19.9492C3.28265 19.9604 3.48222 19.9648 3.82241 19.9648H15.1779C15.5174 19.9648 15.7167 19.9604 15.8576 19.9492C15.8403 19.9193 15.8213 19.8821 15.7941 19.8389C15.7375 19.7489 15.6687 19.646 15.5792 19.5117C14.1466 17.3609 11.9331 16.0352 9.50014 16.0352ZM12.965 7.5C12.965 5.58639 11.4137 4.03524 9.50014 4.03516C7.58648 4.03516 6.0353 5.58633 6.0353 7.5C6.0353 9.41367 7.58648 10.9648 9.50014 10.9648C11.4137 10.9648 12.965 9.41361 12.965 7.5ZM17.465 7.5C17.465 6.14103 16.6826 4.96277 15.5392 4.39453C15.0274 4.14009 14.819 3.51867 15.0734 3.00684C15.3278 2.49532 15.9484 2.28695 16.4601 2.54102C18.2801 3.44548 19.5353 5.32525 19.5353 7.5C19.5353 9.67475 18.2801 11.5545 16.4601 12.459C15.9484 12.713 15.3278 12.5047 15.0734 11.9932C14.819 11.4813 15.0274 10.8599 15.5392 10.6055C16.6826 10.0372 17.465 8.85897 17.465 7.5ZM15.0353 7.5C15.0353 10.5568 12.557 13.0351 9.50014 13.0352C6.44325 13.0352 3.96499 10.5569 3.96499 7.5C3.96499 4.4431 6.44325 1.96484 9.50014 1.96484C12.557 1.96493 15.0353 4.44316 15.0353 7.5Z"/></svg>