<svg xmlns="http://www.w3.org/2000/svg" width="24" height="24" fill="none" viewBox="0 0 24 24"><path fill="currentColor" d="M15.9648 21C15.9648 20.054 15.9648 19.3963 15.9297 18.8818C15.8952 18.3767 15.8306 18.0856 15.7393 17.8652C15.4383 17.1388 14.8612 16.5617 14.1348 16.2607C13.9144 16.1694 13.6233 16.1048 13.1182 16.0703C12.6037 16.0352 11.946 16.0352 11 16.0352H8C7.05397 16.0352 6.39626 16.0352 5.88184 16.0703C5.37671 16.1048 5.08564 16.1694 4.86523 16.2607C4.13881 16.5617 3.56167 17.1388 3.26074 17.8652C3.16945 18.0856 3.10478 18.3767 3.07031 18.8818C3.03522 19.3963 3.03516 20.054 3.03516 21C3.03516 21.5716 2.57161 22.0352 2 22.0352C1.42839 22.0352 0.964844 21.5716 0.964844 21C0.964844 20.0824 0.964856 19.3424 1.00586 18.7412C1.04752 18.1307 1.13545 17.5879 1.34863 17.0732C1.85965 15.8396 2.83959 14.8597 4.07324 14.3486C4.58792 14.1354 5.13069 14.0475 5.74121 14.0059C6.34239 13.9649 7.08241 13.9648 8 13.9648H11C11.9176 13.9648 12.6576 13.9649 13.2588 14.0059C13.8693 14.0475 14.4121 14.1354 14.9268 14.3486C16.1604 14.8597 17.1403 15.8396 17.6514 17.0732C17.8646 17.5879 17.9525 18.1307 17.9941 18.7412C18.0351 19.3424 18.0352 20.0824 18.0352 21C18.0352 21.5716 17.5716 22.0352 17 22.0352C16.4284 22.0352 15.9648 21.5716 15.9648 21ZM20.9648 21V19C20.9648 17.6199 20.0212 16.4572 18.7422 16.1279C18.1886 15.9855 17.8556 15.4217 17.998 14.8682C18.1405 14.3146 18.7043 13.9816 19.2578 14.124C21.4292 14.6829 23.0352 16.6525 23.0352 19V21C23.0352 21.5716 22.5716 22.0352 22 22.0352C21.4284 22.0352 20.9648 21.5716 20.9648 21ZM12.4648 7C12.4648 5.36248 11.1375 4.03516 9.5 4.03516C7.86248 4.03516 6.53516 5.36248 6.53516 7C6.53516 8.63752 7.86248 9.96484 9.5 9.96484C11.1375 9.96484 12.4648 8.63752 12.4648 7ZM16.9648 7C16.9648 5.7573 16.1998 4.69062 15.1113 4.25C14.5817 4.03541 14.3266 3.43209 14.541 2.90234C14.7556 2.37263 15.3589 2.1166 15.8887 2.33105C17.7319 3.07725 19.0352 4.88538 19.0352 7C19.0352 9.11462 17.7319 10.9227 15.8887 11.6689C15.3589 11.8834 14.7556 11.6274 14.541 11.0977C14.3266 10.5679 14.5817 9.96459 15.1113 9.75C16.1998 9.30938 16.9648 8.2427 16.9648 7ZM14.5352 7C14.5352 9.78075 12.2808 12.0352 9.5 12.0352C6.71925 12.0352 4.46484 9.78075 4.46484 7C4.46484 4.21925 6.71925 1.96484 9.5 1.96484C12.2808 1.96484 14.5352 4.21925 14.5352 7Z"/></svg>