<svg xmlns="http://www.w3.org/2000/svg" width="24" height="24" fill="none" viewBox="0 0 24 24"><path fill="currentColor" d="M12 14.9648C15.8053 14.9648 19.2411 16.626 21.7529 19.29C22.145 19.7059 22.1258 20.3608 21.7099 20.7529C21.294 21.145 20.6392 21.1258 20.247 20.71C18.0873 18.4192 15.1806 17.0352 12 17.0352C8.81934 17.0352 5.91268 18.4192 3.75291 20.71C3.36077 21.1258 2.70591 21.145 2.29001 20.7529C1.87415 20.3608 1.85493 19.7059 2.24705 19.29C4.75885 16.626 8.19466 14.9648 12 14.9648ZM15.4648 7.5C15.4648 5.58633 13.9136 4.03516 12 4.03516C10.0863 4.03516 8.53513 5.58633 8.53513 7.5C8.53513 9.41367 10.0863 10.9648 12 10.9648C13.9136 10.9648 15.4648 9.41367 15.4648 7.5ZM17.5351 7.5C17.5351 10.5569 15.0569 13.0352 12 13.0352C8.94308 13.0352 6.46482 10.5569 6.46482 7.5C6.46482 4.4431 8.94308 1.96484 12 1.96484C15.0569 1.96484 17.5351 4.4431 17.5351 7.5Z"/></svg>