<svg xmlns="http://www.w3.org/2000/svg" width="24" height="24" fill="none" viewBox="0 0 24 24"><path fill="currentColor" d="M18.7686 11.2686C19.725 10.3121 21.275 10.3121 22.2314 11.2686C23.188 12.225 23.1879 13.7749 22.2314 14.7314L15.5742 21.3896C15.4721 21.4918 15.3356 21.6332 15.1709 21.748C15.0399 21.8394 14.8986 21.9153 14.75 21.9736C14.5629 22.047 14.3691 22.082 14.2275 22.1104L12.2031 22.5146C11.8638 22.5825 11.5123 22.4762 11.2676 22.2314C11.0232 21.9868 10.9175 21.636 10.9854 21.2969L11.3896 19.2715C11.418 19.13 11.4531 18.9369 11.5264 18.75L11.627 18.5332C11.6646 18.4629 11.7062 18.3947 11.752 18.3291L11.8418 18.2109C11.9349 18.0982 12.0337 18.0024 12.1104 17.9258L18.7686 11.2686ZM0.964844 21C0.964844 20.0824 0.964856 19.3424 1.00586 18.7412C1.04752 18.1307 1.13545 17.5879 1.34863 17.0732C1.85965 15.8396 2.83959 14.8597 4.07324 14.3486C4.58792 14.1354 5.13069 14.0475 5.74121 14.0059C6.34239 13.9649 7.08241 13.9648 8 13.9648H11C11.5716 13.9648 12.0352 14.4284 12.0352 15C12.0352 15.5716 11.5716 16.0352 11 16.0352H8C7.05397 16.0352 6.39626 16.0352 5.88184 16.0703C5.37671 16.1048 5.08564 16.1694 4.86523 16.2607C4.13881 16.5617 3.56167 17.1388 3.26074 17.8652C3.16945 18.0856 3.10478 18.3767 3.07031 18.8818C3.03522 19.3963 3.03516 20.054 3.03516 21C3.03516 21.5716 2.57161 22.0352 2 22.0352C1.42839 22.0352 0.964844 21.5716 0.964844 21ZM20.7686 12.7314C20.6204 12.5834 20.3795 12.5833 20.2314 12.7314L13.5742 19.3896C13.5103 19.4536 13.477 19.4865 13.4541 19.5107C13.4466 19.5433 13.4376 19.5892 13.4199 19.6777L13.3184 20.1807L13.8223 20.0801C13.9101 20.0625 13.9558 20.0524 13.9883 20.0449C14.0126 20.022 14.0464 19.9897 14.1104 19.9258L20.7686 13.2686C20.9167 13.1204 20.9167 12.8796 20.7686 12.7314ZM12.4648 7C12.4648 5.36248 11.1375 4.03516 9.5 4.03516C7.86248 4.03516 6.53516 5.36248 6.53516 7C6.53516 8.63752 7.86248 9.96484 9.5 9.96484C11.1375 9.96484 12.4648 8.63752 12.4648 7ZM16.9648 7C16.9648 5.7573 16.1998 4.69062 15.1113 4.25C14.5817 4.03541 14.3266 3.43209 14.541 2.90234C14.7556 2.37263 15.3589 2.1166 15.8887 2.33105C17.7319 3.07725 19.0352 4.88538 19.0352 7C19.0352 7.57161 18.5716 8.03516 18 8.03516C17.4284 8.03516 16.9648 7.57161 16.9648 7ZM14.5352 7C14.5352 9.78075 12.2808 12.0352 9.5 12.0352C6.71925 12.0352 4.46484 9.78075 4.46484 7C4.46484 4.21925 6.71925 1.96484 9.5 1.96484C12.2808 1.96484 14.5352 4.21925 14.5352 7Z"/></svg>