<svg xmlns="http://www.w3.org/2000/svg" width="24" height="24" fill="none" viewBox="0 0 24 24"><path fill="currentColor" d="M0.964844 21C0.964844 20.0824 0.964856 19.3424 1.00586 18.7412C1.04752 18.1307 1.13545 17.5879 1.34863 17.0732C1.85965 15.8396 2.83959 14.8597 4.07324 14.3486C4.58792 14.1354 5.13069 14.0475 5.74121 14.0059C6.34239 13.9649 7.08241 13.9648 8 13.9648H12C12.5716 13.9648 13.0352 14.4284 13.0352 15C13.0352 15.5716 12.5716 16.0352 12 16.0352H8C7.05397 16.0352 6.39626 16.0352 5.88184 16.0703C5.37671 16.1048 5.08564 16.1694 4.86523 16.2607C4.13881 16.5617 3.56167 17.1388 3.26074 17.8652C3.16945 18.0856 3.10478 18.3767 3.07031 18.8818C3.03522 19.3963 3.03516 20.054 3.03516 21C3.03516 21.5716 2.57161 22.0352 2 22.0352C1.42839 22.0352 0.964844 21.5716 0.964844 21ZM18.2686 14.2686C18.6727 13.8644 19.3273 13.8644 19.7314 14.2686C20.1356 14.6727 20.1356 15.3273 19.7314 15.7314L18.498 16.9648H22C22.5716 16.9648 23.0352 17.4284 23.0352 18C23.0352 18.5716 22.5716 19.0352 22 19.0352H18.498L19.7314 20.2686C20.1356 20.6727 20.1356 21.3273 19.7314 21.7314C19.3273 22.1356 18.6727 22.1356 18.2686 21.7314L15.2686 18.7314C14.8644 18.3273 14.8644 17.6727 15.2686 17.2686L18.2686 14.2686ZM12.4648 7C12.4648 5.36248 11.1375 4.03516 9.5 4.03516C7.86248 4.03516 6.53516 5.36248 6.53516 7C6.53516 8.63752 7.86248 9.96484 9.5 9.96484C11.1375 9.96484 12.4648 8.63752 12.4648 7ZM16.9648 7C16.9648 5.7573 16.1998 4.69062 15.1113 4.25C14.5817 4.03541 14.3266 3.43209 14.541 2.90234C14.7556 2.37263 15.3589 2.1166 15.8887 2.33105C17.7319 3.07725 19.0352 4.88538 19.0352 7C19.0352 9.11462 17.7319 10.9227 15.8887 11.6689C15.3589 11.8834 14.7556 11.6274 14.541 11.0977C14.3266 10.5679 14.5817 9.96459 15.1113 9.75C16.1998 9.30938 16.9648 8.2427 16.9648 7ZM14.5352 7C14.5352 9.78075 12.2808 12.0352 9.5 12.0352C6.71925 12.0352 4.46484 9.78075 4.46484 7C4.46484 4.21925 6.71925 1.96484 9.5 1.96484C12.2808 1.96484 14.5352 4.21925 14.5352 7Z"/></svg>