<svg xmlns="http://www.w3.org/2000/svg" width="24" height="24" fill="none" viewBox="0 0 24 24"><g clip-path="url(#a)"><path fill="currentColor" d="M20.9648 12C20.9648 7.04877 16.9512 3.03516 12 3.03516C7.04877 3.03516 3.03516 7.04877 3.03516 12C3.03516 14.1974 3.82645 16.2094 5.13867 17.7686C6.06167 16.6667 7.44828 15.9648 9 15.9648H15C16.5515 15.9648 17.9374 16.667 18.8604 17.7686C20.1728 16.2093 20.9648 14.1976 20.9648 12ZM9 18.0352C8.04364 18.0352 7.19216 18.4883 6.64941 19.1934C8.1429 20.3061 9.99441 20.9648 12 20.9648C14.0053 20.9648 15.8562 20.3058 17.3496 19.1934C16.8068 18.4886 15.9561 18.0352 15 18.0352H9ZM14.9648 9.5C14.9648 7.86248 13.6375 6.53516 12 6.53516C10.3625 6.53516 9.03516 7.86248 9.03516 9.5C9.03516 11.1375 10.3625 12.4648 12 12.4648C13.6375 12.4648 14.9648 11.1375 14.9648 9.5ZM23.0352 12C23.0352 15.2517 21.6274 18.1738 19.3896 20.1934C19.3701 20.2116 19.3502 20.2293 19.3291 20.2461C17.3799 21.9798 14.8139 23.0352 12 23.0352C9.18589 23.0352 6.61918 21.9801 4.66992 20.2461C4.6489 20.2293 4.62885 20.2116 4.60938 20.1934C2.37189 18.1738 0.964844 15.2515 0.964844 12C0.964844 5.90554 5.90554 0.964844 12 0.964844C18.0945 0.964844 23.0352 5.90554 23.0352 12ZM17.0352 9.5C17.0352 12.2808 14.7808 14.5352 12 14.5352C9.21925 14.5352 6.96484 12.2808 6.96484 9.5C6.96484 6.71925 9.21925 4.46484 12 4.46484C14.7808 4.46484 17.0352 6.71925 17.0352 9.5Z"/></g><defs><clipPath id="a"><path fill="#fff" d="M0 0H24V24H0z"/></clipPath></defs></svg>