<svg xmlns="http://www.w3.org/2000/svg" width="24" height="24" fill="none" viewBox="0 0 24 24"><path fill="currentColor" d="M14.9648 20.9999V19.7997C14.9648 18.9428 14.9643 18.3623 14.9277 17.914C14.8921 17.4777 14.8277 17.258 14.751 17.1073C14.5626 16.7379 14.2621 16.4373 13.8926 16.2489C13.7419 16.1722 13.5222 16.1078 13.0859 16.0722C12.6377 16.0356 12.0571 16.0351 11.2002 16.0351H6.7998C5.94287 16.0351 5.36234 16.0356 4.91406 16.0722C4.47781 16.1078 4.25807 16.1722 4.10742 16.2489C3.73794 16.4373 3.43737 16.7379 3.24902 17.1073C3.17227 17.258 3.10791 17.4777 3.07227 17.914C3.03565 18.3623 3.03516 18.9428 3.03516 19.7997V20.9999C3.03516 21.5715 2.57161 22.0351 2 22.0351C1.42839 22.0351 0.964844 21.5715 0.964844 20.9999V19.7997C0.964844 18.9768 0.964654 18.2972 1.00977 17.745C1.05588 17.1809 1.15509 16.6589 1.40527 16.1679C1.79208 15.4089 2.409 14.792 3.16797 14.4052C3.65899 14.155 4.18095 14.0558 4.74512 14.0097C5.29725 13.9646 5.97689 13.9648 6.7998 13.9648H11.2002C12.0231 13.9648 12.7027 13.9646 13.2549 14.0097C13.8191 14.0558 14.341 14.155 14.832 14.4052C15.591 14.792 16.2079 15.4089 16.5947 16.1679C16.8449 16.6589 16.9441 17.1809 16.9902 17.745C17.0353 18.2972 17.0352 18.9768 17.0352 19.7997V20.9999C17.0352 21.5715 16.5716 22.0351 16 22.0351C15.4284 22.0351 14.9648 21.5715 14.9648 20.9999ZM11.4648 7.49992C11.4648 6.13854 10.3614 5.03508 9 5.03508C7.63862 5.03508 6.53516 6.13854 6.53516 7.49992C6.53516 8.8613 7.63862 9.96477 9 9.96477C10.3614 9.96477 11.4648 8.8613 11.4648 7.49992ZM18.2686 2.26848C18.6727 1.86428 19.3273 1.86428 19.7314 2.26848C20.1356 2.67267 20.1356 3.32717 19.7314 3.73137L18.498 4.96477H22C22.5716 4.96477 23.0352 5.42831 23.0352 5.99992C23.0352 6.57154 22.5716 7.03508 22 7.03508H18.498L19.7314 8.26848C20.1356 8.67267 20.1356 9.32717 19.7314 9.73137C19.3273 10.1356 18.6727 10.1356 18.2686 9.73137L15.2686 6.73137C15.0745 6.53727 14.9648 6.27442 14.9648 5.99992C14.9648 5.72542 15.0745 5.46258 15.2686 5.26848L18.2686 2.26848ZM13.5352 7.49992C13.5352 10.0045 11.5046 12.0351 9 12.0351C6.49539 12.0351 4.46484 10.0045 4.46484 7.49992C4.46484 4.99531 6.49539 2.96477 9 2.96477C11.5046 2.96477 13.5352 4.99531 13.5352 7.49992Z"/></svg>