<svg xmlns="http://www.w3.org/2000/svg" width="24" height="24" fill="none" viewBox="0 0 24 24"><path fill="currentColor" d="M0.964844 12C0.964844 8.60468 1.75672 5.39179 3.16602 2.54105C3.4194 2.02878 4.04039 1.81901 4.55273 2.0723C5.06505 2.32566 5.27478 2.94664 5.02148 3.45901C3.7503 6.0305 3.03516 8.92973 3.03516 12C3.03516 15.0703 3.7503 17.9696 5.02148 20.541C5.27478 21.0534 5.06505 21.6744 4.55273 21.9278C4.04039 22.1811 3.4194 21.9713 3.16602 21.459C1.75672 18.6083 0.964844 15.3954 0.964844 12ZM20.9648 12C20.9648 8.92973 20.2497 6.0305 18.9785 3.45901C18.7252 2.94664 18.9349 2.32566 19.4473 2.0723C19.9596 1.81901 20.5806 2.02878 20.834 2.54105C22.2433 5.39178 23.0352 8.60468 23.0352 12C23.0352 15.3954 22.2433 18.6083 20.834 21.459C20.5806 21.9713 19.9596 22.1811 19.4473 21.9278C18.9349 21.6744 18.7252 21.0534 18.9785 20.541C20.2497 17.9696 20.9648 15.0703 20.9648 12ZM10.1094 7.58987C11.0746 7.59007 11.9178 8.23345 12.1807 9.15823L12.5391 10.419L13.9717 8.73929C14.5929 8.01077 15.5014 7.58987 16.459 7.58987H16.5488C17.1204 7.58998 17.584 8.05348 17.584 8.62503C17.584 9.19658 17.1204 9.66008 16.5488 9.66019H16.459C16.1097 9.66019 15.7761 9.81318 15.5469 10.0821L13.2188 12.8116L13.9551 15.4014C13.9668 15.4421 14.0015 15.4647 14.0352 15.4649H15.4297C16.0013 15.4649 16.4648 15.9285 16.4648 16.5C16.4648 17.0716 16.0013 17.5351 15.4297 17.5352H14.0352C13.0698 17.535 12.2267 16.8916 11.9639 15.9668L11.6045 14.7041L10.1719 16.3858C9.55075 17.1141 8.64293 17.5351 7.68555 17.5352H7.5957C7.02409 17.5352 6.56055 17.0716 6.56055 16.5C6.56055 15.9284 7.02409 15.4649 7.5957 15.4649H7.68555C8.03457 15.4648 8.36747 15.3116 8.59668 15.043L10.9248 12.3116L10.1895 9.72366C10.1778 9.683 10.143 9.66039 10.1094 9.66019H8.71484C8.14323 9.66019 7.67969 9.19664 7.67969 8.62503C7.67969 8.05341 8.14323 7.58987 8.71484 7.58987H10.1094Z"/></svg>