<svg xmlns="http://www.w3.org/2000/svg" width="24" height="24" fill="none" viewBox="0 0 24 24"><path fill="currentColor" d="M12.2002 3.96484C13.0231 3.96484 13.7027 3.96465 14.2549 4.00977C14.8191 4.05588 15.341 4.15509 15.832 4.40527C16.591 4.79208 17.2079 5.409 17.5947 6.16797C17.8449 6.65899 17.9441 7.18095 17.9902 7.74512C18.0298 8.22941 18.0328 8.81185 18.0332 9.50293L19.9023 7.63379C20.1021 7.43408 20.3009 7.23334 20.4746 7.08789C20.6222 6.96435 20.9396 6.71141 21.3799 6.67676L21.5625 6.67383C21.9865 6.69108 22.3878 6.8832 22.667 7.20996C22.9537 7.5457 22.9986 7.94883 23.0156 8.14062C23.0356 8.36633 23.0352 8.64921 23.0352 8.93164V15.0684C23.0352 15.3508 23.0356 15.6337 23.0156 15.8594C22.9986 16.0512 22.9537 16.4543 22.667 16.79C22.3479 17.1634 21.8695 17.3617 21.3799 17.3232C20.9396 17.2886 20.6222 17.0357 20.4746 16.9121C20.3009 16.7667 20.1021 16.5659 19.9023 16.3662L18.0332 14.4961C18.0328 15.1876 18.0298 15.7704 17.9902 16.2549C17.9441 16.8191 17.8449 17.341 17.5947 17.832C17.2079 18.591 16.591 19.2079 15.832 19.5947C15.341 19.8449 14.8191 19.9441 14.2549 19.9902C13.7027 20.0353 13.0231 20.0352 12.2002 20.0352H6.7998C5.97689 20.0352 5.29725 20.0353 4.74512 19.9902C4.18095 19.9441 3.65899 19.8449 3.16797 19.5947C2.409 19.2079 1.79208 18.591 1.40527 17.832C1.15509 17.341 1.05588 16.8191 1.00977 16.2549C0.964654 15.7027 0.964844 15.0231 0.964844 14.2002V9.7998C0.964844 8.97689 0.964654 8.29725 1.00977 7.74512C1.05588 7.18095 1.15509 6.65899 1.40527 6.16797C1.79208 5.409 2.409 4.79208 3.16797 4.40527C3.65899 4.15509 4.18095 4.05588 4.74512 4.00977C5.29725 3.96465 5.97689 3.96484 6.7998 3.96484H12.2002ZM18.4629 12L20.9648 14.501V9.49805L18.4629 12ZM3.03516 14.2002C3.03516 15.0571 3.03565 15.6377 3.07227 16.0859C3.10791 16.5222 3.17227 16.7419 3.24902 16.8926C3.43737 17.2621 3.73794 17.5626 4.10742 17.751C4.25807 17.8277 4.47781 17.8921 4.91406 17.9277C5.36234 17.9643 5.94287 17.9648 6.7998 17.9648H12.2002C13.0571 17.9648 13.6377 17.9643 14.0859 17.9277C14.5222 17.8921 14.7419 17.8277 14.8926 17.751C15.2621 17.5626 15.5626 17.2621 15.751 16.8926C15.8277 16.7419 15.8921 16.5222 15.9277 16.0859C15.9643 15.6377 15.9648 15.0571 15.9648 14.2002V9.7998C15.9648 8.94287 15.9643 8.36234 15.9277 7.91406C15.8921 7.47781 15.8277 7.25807 15.751 7.10742C15.5626 6.73794 15.2621 6.43737 14.8926 6.24902C14.7419 6.17227 14.5222 6.10791 14.0859 6.07227C13.6377 6.03565 13.0571 6.03516 12.2002 6.03516H6.7998C5.94287 6.03516 5.36234 6.03565 4.91406 6.07227C4.47781 6.10791 4.25807 6.17227 4.10742 6.24902C3.73794 6.43737 3.43737 6.73794 3.24902 7.10742C3.17227 7.25807 3.10791 7.47781 3.07227 7.91406C3.03565 8.36234 3.03516 8.94287 3.03516 9.7998V14.2002Z"/></svg>