<svg xmlns="http://www.w3.org/2000/svg" width="24" height="24" fill="none" viewBox="0 0 24 24"><g clip-path="url(#a)"><path fill="currentColor" d="M1.26855 1.26848C1.67275 0.864284 2.32725 0.864284 2.73145 1.26848L22.7314 21.2685C23.1356 21.6727 23.1356 22.3272 22.7314 22.7314C22.3273 23.1356 21.6727 23.1356 21.2686 22.7314L17.1094 18.5722C16.3697 19.4656 15.2518 20.0351 14 20.0351H5C2.77153 20.0351 0.964844 18.2284 0.964844 15.9999V7.99992C0.964844 6.49082 1.79358 5.17544 3.02051 4.48332L1.26855 2.73137C0.864362 2.32717 0.864362 1.67267 1.26855 1.26848ZM12.2002 3.96477C13.0231 3.96477 13.7027 3.96458 14.2549 4.00969C14.8191 4.0558 15.341 4.15501 15.832 4.4052C16.591 4.792 17.2079 5.40892 17.5947 6.16789C17.8449 6.65891 17.9441 7.18087 17.9902 7.74504C18.0298 8.22933 18.0328 8.81177 18.0332 9.50285L19.9023 7.63371C20.1021 7.434 20.3009 7.23327 20.4746 7.08781C20.6222 6.96427 20.9396 6.71133 21.3799 6.67668L21.5625 6.67375C21.9865 6.691 22.3878 6.88313 22.667 7.20988C22.9537 7.54562 22.9986 7.94875 23.0156 8.14055C23.0356 8.36625 23.0352 8.64913 23.0352 8.93156V15.0683C23.0352 15.3507 23.0356 15.6336 23.0156 15.8593C22.9986 16.0511 22.9537 16.4542 22.667 16.79C22.3479 17.1634 21.8695 17.3616 21.3799 17.3232C20.9396 17.2885 20.6222 17.0356 20.4746 16.912C20.3009 16.7666 20.1021 16.5658 19.9023 16.3661L16.2686 12.7314C16.0745 12.5373 15.9648 12.2744 15.9648 11.9999V9.79973C15.9648 8.9428 15.9643 8.36226 15.9277 7.91398C15.8921 7.47773 15.8277 7.25799 15.751 7.10734C15.5626 6.73786 15.2621 6.43729 14.8926 6.24895C14.7419 6.17219 14.5222 6.10783 14.0859 6.07219C13.6377 6.03557 13.0571 6.03508 12.2002 6.03508H9.5C8.92839 6.03508 8.46484 5.57154 8.46484 4.99992C8.46484 4.42831 8.92839 3.96477 9.5 3.96477H12.2002ZM18.4629 11.9999L20.9648 14.5009V9.49797L18.4629 11.9999ZM3.03516 15.9999C3.03516 17.0852 3.91476 17.9648 5 17.9648H14C14.6791 17.9648 15.2777 17.619 15.6309 17.0937L4.61035 6.07316C3.71172 6.2539 3.03516 7.04806 3.03516 7.99992V15.9999Z"/></g><defs><clipPath id="a"><path fill="#fff" d="M0 0H24V24H0z"/></clipPath></defs></svg>