<svg xmlns="http://www.w3.org/2000/svg" width="24" height="24" fill="none" viewBox="0 0 24 24"><g clip-path="url(#a)"><path fill="currentColor" d="M12 0.964844C12.7856 0.964845 13.5531 1.04738 14.2939 1.2041C14.8531 1.3224 15.211 1.8715 15.0928 2.43066C14.9745 2.98976 14.4253 3.34753 13.8662 3.22949C13.5939 3.17188 13.3164 3.12702 13.0352 3.09473V6.05469C13.9303 6.20945 14.757 6.56167 15.4707 7.06445L17.5635 4.97168C17.3441 4.79778 17.1171 4.63259 16.8818 4.47949C16.403 4.16771 16.2676 3.52686 16.5791 3.04785C16.8908 2.56888 17.5317 2.43277 18.0107 2.74414C19.3062 3.58705 20.4141 4.69466 21.2568 5.99023C21.5684 6.46932 21.4321 7.11018 20.9531 7.42188C20.474 7.7335 19.8332 7.59813 19.5215 7.11914C19.3679 6.88305 19.2018 6.6556 19.0273 6.43555L16.9346 8.52832C17.4377 9.2422 17.7895 10.0693 17.9443 10.9648H20.9043C20.872 10.6836 20.8281 10.4061 20.7705 10.1338C20.6524 9.57465 21.0102 9.02553 21.5693 8.90723C22.1283 8.78909 22.6774 9.14618 22.7959 9.70508C22.9527 10.4461 23.0352 11.2142 23.0352 12C23.0352 12.7855 22.9526 13.5532 22.7959 14.2939C22.6775 14.853 22.1285 15.21 21.5693 15.0918C21.0101 14.9735 20.6523 14.4245 20.7705 13.8652C20.8281 13.5931 20.872 13.3161 20.9043 13.0352H17.9443C17.7895 13.9304 17.4375 14.757 16.9346 15.4707L19.0273 17.5635C19.2007 17.3448 19.3658 17.1193 19.5186 16.8848C19.8305 16.4058 20.4722 16.2701 20.9512 16.582C21.43 16.894 21.5648 17.5357 21.2529 18.0146C20.4101 19.3088 19.3035 20.4149 18.0088 21.2568C17.5296 21.5685 16.8888 21.4323 16.5771 20.9531C16.2657 20.474 16.4009 19.8331 16.8799 19.5215C17.116 19.3679 17.3434 19.2019 17.5635 19.0273L15.4707 16.9346C14.757 17.4375 13.9304 17.7895 13.0352 17.9443V20.9043C13.3154 20.8721 13.5919 20.8288 13.8633 20.7715C14.4225 20.6534 14.9717 21.0111 15.0898 21.5703C15.2078 22.1295 14.8502 22.6787 14.291 22.7969C13.5511 22.9532 12.7845 23.0352 12 23.0352C11.2127 23.0352 10.4436 22.9523 9.70117 22.7949C9.14199 22.6764 8.78475 22.1266 8.90332 21.5674C9.02205 21.0085 9.57095 20.6512 10.1299 20.7695C10.4034 20.8275 10.6823 20.8709 10.9648 20.9033V17.9443C10.0693 17.7895 9.24221 17.4377 8.52832 16.9346L6.43555 19.0273C6.65532 19.2016 6.8824 19.3671 7.11816 19.5205C7.59724 19.8322 7.73249 20.473 7.4209 20.9521C7.10918 21.4313 6.46839 21.5675 5.98926 21.2559C4.69565 20.4142 3.58938 19.3087 2.74707 18.0156C2.43534 17.5368 2.5711 16.896 3.0498 16.584C3.52877 16.272 4.17043 16.4068 4.48242 16.8857C4.63478 17.1196 4.79973 17.3444 4.97266 17.5625L7.06445 15.4707C6.5617 14.7571 6.21044 13.9302 6.05566 13.0352H3.0957C3.128 13.3164 3.17187 13.5939 3.22949 13.8662C3.34764 14.4253 2.98981 14.9745 2.43066 15.0928C1.87165 15.2109 1.32261 14.8538 1.2041 14.2949C1.04731 13.5539 0.964844 12.7857 0.964844 12C0.964845 11.2131 1.04783 10.4442 1.20508 9.70215C1.32364 9.14312 1.87257 8.78593 2.43164 8.9043C2.99084 9.02279 3.34799 9.57264 3.22949 10.1318C3.17166 10.4049 3.12808 10.6829 3.0957 10.9648H6.05566C6.21049 10.0695 6.56146 9.2421 7.06445 8.52832L4.97168 6.43555C4.79754 6.65517 4.63278 6.88257 4.47949 7.11816C4.16777 7.5973 3.52601 7.7336 3.04688 7.42188C2.5678 7.11013 2.43244 6.46837 2.74414 5.98926C3.58662 4.69434 4.69347 3.58775 5.98828 2.74512C6.46732 2.43337 7.10809 2.5689 7.41992 3.04785C7.73168 3.52691 7.59618 4.16768 7.11719 4.47949C6.88188 4.63262 6.65492 4.79774 6.43555 4.97168L8.52832 7.06445C9.24214 6.56142 10.0694 6.20949 10.9648 6.05469V3.09473C10.6836 3.12702 10.4061 3.17188 10.1338 3.22949C9.57469 3.34756 9.02551 2.98977 8.90723 2.43066C8.78904 1.8715 9.14689 1.3224 9.70605 1.2041C10.4469 1.04738 11.2144 0.964844 12 0.964844ZM12 8.03516C9.81021 8.03516 8.03517 9.81019 8.03516 12C8.03516 14.1898 9.81019 15.9648 12 15.9648C14.1898 15.9648 15.9648 14.1898 15.9648 12C15.9648 9.81021 14.1898 8.03517 12 8.03516Z"/></g><defs><clipPath id="a"><path fill="#fff" d="M0 0H24V24H0z"/></clipPath></defs></svg>