<svg xmlns="http://www.w3.org/2000/svg" width="24" height="24" fill="none" viewBox="0 0 24 24"><path fill="currentColor" d="M8.96484 12C8.96484 10.3625 7.63752 9.03516 6 9.03516C4.36248 9.03516 3.03516 10.3625 3.03516 12C3.03516 13.6375 4.36248 14.9648 6 14.9648C7.63752 14.9648 8.96484 13.6375 8.96484 12ZM20.9648 12C20.9648 10.3625 19.6375 9.03516 18 9.03516C16.3625 9.03516 15.0352 10.3625 15.0352 12C15.0352 13.6375 16.3625 14.9648 18 14.9648C19.6375 14.9648 20.9648 13.6375 20.9648 12ZM23.0352 12C23.0352 14.7808 20.7808 17.0352 18 17.0352H6C3.21925 17.0352 0.964844 14.7808 0.964844 12C0.964844 9.21925 3.21925 6.96484 6 6.96484C8.78075 6.96484 11.0352 9.21925 11.0352 12C11.0352 13.1085 10.6764 14.1331 10.0693 14.9648H13.9307C13.3236 14.1331 12.9648 13.1085 12.9648 12C12.9648 9.21925 15.2192 6.96484 18 6.96484C20.7808 6.96484 23.0352 9.21925 23.0352 12Z"/></svg>