<svg xmlns="http://www.w3.org/2000/svg" width="24" height="24" fill="none" viewBox="0 0 24 24"><path fill="currentColor" d="M10.5625 2.67285C10.9259 2.68763 11.2726 2.83167 11.54 3.07812L11.667 3.20996L11.7637 3.33887C11.9646 3.64354 12.0008 3.97284 12.0156 4.14062C12.0356 4.36633 12.0352 4.64921 12.0352 4.93164V19.0684C12.0352 19.3508 12.0356 19.6337 12.0156 19.8594C11.9986 20.0512 11.9537 20.4543 11.667 20.79C11.348 21.1634 10.8695 21.3617 10.3799 21.3232C9.93946 21.2886 9.62214 21.0346 9.47461 20.9111C9.30095 20.7657 9.10192 20.5658 8.90234 20.3662L5.73633 17.2002C5.64872 17.1126 5.60309 17.0673 5.56934 17.0361C5.52353 17.0344 5.45887 17.0352 5.33691 17.0352H3.59961C3.33697 17.0352 3.07785 17.0354 2.85938 17.0176C2.62867 16.9987 2.35329 16.9546 2.07617 16.8135C1.69326 16.6184 1.38163 16.3067 1.18652 15.9238C1.04533 15.6467 1.00127 15.3714 0.982422 15.1406C0.964596 14.9222 0.964843 14.663 0.964844 14.4004V9.59961C0.964843 9.33677 0.964563 9.07699 0.982422 8.8584C1.00129 8.6278 1.04547 8.35309 1.18652 8.07617L1.26563 7.93555C1.46114 7.61695 1.74126 7.35717 2.07617 7.18652L2.2832 7.09766C2.48815 7.02471 2.68639 6.99656 2.85938 6.98242C3.07785 6.9646 3.33696 6.96484 3.59961 6.96484H5.33691C5.4589 6.96484 5.52353 6.96463 5.56934 6.96289C5.60304 6.93174 5.64912 6.88701 5.73633 6.7998L8.90234 3.63379C9.10205 3.43408 9.30087 3.23334 9.47461 3.08789C9.62217 2.96436 9.93953 2.71141 10.3799 2.67676L10.5625 2.67285ZM20.9648 12C20.9648 9.6118 20.2029 7.40445 18.9082 5.60449C18.5744 5.14052 18.6797 4.494 19.1436 4.16016C19.6075 3.82638 20.2541 3.93157 20.5879 4.39551C22.1277 6.53596 23.0352 9.16362 23.0352 12C23.0351 14.8364 22.1277 17.4641 20.5879 19.6045C20.254 20.0683 19.6075 20.1736 19.1436 19.8398C18.6796 19.506 18.5744 18.8595 18.9082 18.3955C20.203 16.5956 20.9648 14.3882 20.9648 12ZM15.9648 12C15.9648 10.7313 15.5701 9.55757 14.8965 8.5918C14.5696 8.123 14.6846 7.47837 15.1533 7.15137C15.6222 6.82435 16.2667 6.93937 16.5938 7.4082C17.5018 8.71008 18.0352 10.2943 18.0352 12C18.0351 13.7057 17.5018 15.2899 16.5938 16.5918C16.2667 17.0606 15.6221 17.1756 15.1533 16.8486C14.6846 16.5217 14.5697 15.877 14.8965 15.4082C15.5701 14.4424 15.9648 13.2687 15.9648 12ZM3.03516 14.4004C3.03516 14.6825 3.03582 14.8415 3.04395 14.9551C3.15762 14.9633 3.31662 14.9648 3.59961 14.9648H5.33691C5.48354 14.9648 5.67048 14.9616 5.86523 14.9863L6.06055 15.0215L6.21484 15.0645C6.31618 15.0974 6.41483 15.1382 6.50977 15.1865L6.64941 15.2646L6.8125 15.3789C6.96731 15.4989 7.09668 15.6328 7.2002 15.7363L9.96484 18.501V5.49805L7.2002 8.2627C7.0621 8.40079 6.87902 8.59462 6.64941 8.73535C6.46734 8.84693 6.26819 8.92866 6.06055 8.97852C5.79872 9.04133 5.53218 9.03516 5.33691 9.03516H3.59961C3.31667 9.03516 3.15762 9.03576 3.04395 9.04395C3.03576 9.15762 3.03516 9.31669 3.03516 9.59961V14.4004Z"/></svg>