<svg xmlns="http://www.w3.org/2000/svg" width="24" height="24" fill="none" viewBox="0 0 24 24"><path fill="currentColor" d="M13.0625 2.67285C13.4259 2.68763 13.7726 2.83167 14.04 3.07812L14.167 3.20996L14.2637 3.33887C14.4646 3.64354 14.5008 3.97284 14.5156 4.14062C14.5356 4.36633 14.5352 4.64921 14.5352 4.93164V19.0684C14.5352 19.3508 14.5356 19.6337 14.5156 19.8594C14.4986 20.0512 14.4537 20.4543 14.167 20.79C13.848 21.1634 13.3695 21.3617 12.8799 21.3232C12.4395 21.2886 12.1221 21.0346 11.9746 20.9111C11.801 20.7657 11.6019 20.5658 11.4023 20.3662L8.23633 17.2002C8.14872 17.1126 8.10309 17.0673 8.06934 17.0361C8.02353 17.0344 7.95887 17.0352 7.83691 17.0352H6.09961C5.83697 17.0352 5.57785 17.0354 5.35938 17.0176C5.12867 16.9987 4.85329 16.9546 4.57617 16.8135C4.19326 16.6184 3.88163 16.3067 3.68652 15.9238C3.54533 15.6467 3.50127 15.3714 3.48242 15.1406C3.4646 14.9222 3.46484 14.663 3.46484 14.4004V9.59961C3.46484 9.33677 3.46456 9.07699 3.48242 8.8584C3.50129 8.6278 3.54547 8.35309 3.68652 8.07617L3.76563 7.93555C3.96114 7.61695 4.24126 7.35717 4.57617 7.18652L4.7832 7.09766C4.98815 7.02471 5.18639 6.99656 5.35938 6.98242C5.57785 6.9646 5.83696 6.96484 6.09961 6.96484H7.83691C7.9589 6.96484 8.02353 6.96463 8.06934 6.96289C8.10304 6.93174 8.14912 6.88701 8.23633 6.7998L11.4023 3.63379C11.6021 3.43408 11.8009 3.23334 11.9746 3.08789C12.1222 2.96436 12.4395 2.71141 12.8799 2.67676L13.0625 2.67285ZM18.4648 12C18.4648 10.7313 18.0701 9.55757 17.3965 8.5918C17.0695 8.12297 17.1845 7.47838 17.6533 7.15137C18.1221 6.8244 18.7667 6.93939 19.0938 7.4082C20.0018 8.71007 20.5352 10.2943 20.5352 12C20.5351 13.7057 20.0018 15.2899 19.0938 16.5918C18.7668 17.0606 18.1221 17.1755 17.6533 16.8486C17.1845 16.5216 17.0696 15.877 17.3965 15.4082C18.0701 14.4424 18.4648 13.2687 18.4648 12ZM5.53516 14.4004C5.53516 14.6825 5.53582 14.8415 5.54395 14.9551C5.65762 14.9633 5.81662 14.9648 6.09961 14.9648H7.83691C7.98354 14.9648 8.17048 14.9616 8.36523 14.9863L8.56055 15.0215L8.71484 15.0645C8.81618 15.0974 8.91483 15.1382 9.00977 15.1865L9.14941 15.2646L9.3125 15.3789C9.46731 15.4989 9.59668 15.6328 9.7002 15.7363L12.4648 18.501V5.49805L9.7002 8.2627C9.5621 8.40079 9.37902 8.59462 9.14941 8.73535C8.96734 8.84693 8.76819 8.92866 8.56055 8.97852C8.29872 9.04133 8.03218 9.03516 7.83691 9.03516H6.09961C5.81667 9.03516 5.65762 9.03576 5.54395 9.04395C5.53576 9.15762 5.53516 9.31669 5.53516 9.59961V14.4004Z"/></svg>