<svg xmlns="http://www.w3.org/2000/svg" width="24" height="24" fill="none" viewBox="0 0 24 24"><path fill="currentColor" d="M20.9648 12C20.9648 11.4857 20.9598 11.3795 20.9463 11.3115C20.8701 10.9289 20.5711 10.6299 20.1885 10.5537C20.1205 10.5402 20.0143 10.5352 19.5 10.5352H17.5C16.9857 10.5352 16.8795 10.5402 16.8115 10.5537C16.4289 10.6299 16.1299 10.9289 16.0537 11.3115C16.0402 11.3795 16.0352 11.4857 16.0352 12C16.0352 12.5143 16.0402 12.6205 16.0537 12.6885C16.1299 13.0711 16.4289 13.3701 16.8115 13.4463C16.8795 13.4598 16.9857 13.4648 17.5 13.4648H19.5C20.0143 13.4648 20.1205 13.4598 20.1885 13.4463C20.5711 13.3701 20.8701 13.0711 20.9463 12.6885C20.9598 12.6205 20.9648 12.5143 20.9648 12ZM18.9648 7.2002C18.9648 6.62309 18.9644 6.25228 18.9414 5.9707C18.9194 5.7012 18.8816 5.60521 18.8594 5.56152C18.7669 5.38033 18.6197 5.23308 18.4385 5.14062C18.3948 5.11837 18.2988 5.08061 18.0293 5.05859C17.7477 5.03559 17.3769 5.03516 16.7998 5.03516H5.2002C4.62309 5.03516 4.25228 5.03559 3.9707 5.05859C3.7012 5.08061 3.60521 5.11837 3.56152 5.14062C3.38033 5.23308 3.23308 5.38033 3.14062 5.56152C3.11837 5.60521 3.08061 5.7012 3.05859 5.9707C3.03559 6.25228 3.03516 6.62309 3.03516 7.2002V16.7998C3.03516 17.3769 3.03559 17.7477 3.05859 18.0293C3.08061 18.2988 3.11837 18.3948 3.14062 18.4385C3.23308 18.6197 3.38033 18.7669 3.56152 18.8594C3.60521 18.8816 3.7012 18.9194 3.9707 18.9414C4.25228 18.9644 4.62309 18.9648 5.2002 18.9648H16.7998C17.3769 18.9648 17.7477 18.9644 18.0293 18.9414C18.2988 18.9194 18.3948 18.8816 18.4385 18.8594C18.6197 18.7669 18.7669 18.6197 18.8594 18.4385C18.8816 18.3948 18.9194 18.2988 18.9414 18.0293C18.9644 17.7477 18.9648 17.3769 18.9648 16.7998V15.5352H17.5C17.0851 15.5352 16.7265 15.5398 16.4082 15.4766C15.2042 15.2371 14.2629 14.2958 14.0234 13.0918C13.9602 12.7735 13.9648 12.4149 13.9648 12C13.9648 11.5851 13.9602 11.2265 14.0234 10.9082C14.2629 9.70425 15.2042 8.76292 16.4082 8.52344C16.7265 8.46016 17.0851 8.46484 17.5 8.46484H18.9648V7.2002ZM21.0352 8.64746C22.0227 9.00555 22.7674 9.85649 22.9766 10.9082C23.0398 11.2265 23.0352 11.5851 23.0352 12C23.0352 12.4149 23.0398 12.7735 22.9766 13.0918C22.7674 14.1434 22.0225 14.9934 21.0352 15.3516V16.7998C21.0352 17.3428 21.0354 17.8128 21.0039 18.1982C20.9714 18.5956 20.8998 18.9939 20.7041 19.3779C20.4131 19.9489 19.9489 20.4131 19.3779 20.7041C18.9939 20.8998 18.5956 20.9714 18.1982 21.0039C17.8128 21.0354 17.3428 21.0352 16.7998 21.0352H5.2002C4.65722 21.0352 4.18718 21.0354 3.80176 21.0039C3.40438 20.9714 3.00608 20.8998 2.62207 20.7041C2.05107 20.4131 1.58686 19.9489 1.2959 19.3779C1.10024 18.9939 1.02859 18.5956 0.996094 18.1982C0.964603 17.8128 0.964844 17.3428 0.964844 16.7998V7.2002C0.964844 6.65722 0.964603 6.18718 0.996094 5.80176C1.02859 5.40438 1.10024 5.00608 1.2959 4.62207C1.58686 4.05107 2.05107 3.58686 2.62207 3.2959C3.00608 3.10024 3.40438 3.02859 3.80176 2.99609C4.18718 2.9646 4.65722 2.96484 5.2002 2.96484H16.7998C17.3428 2.96484 17.8128 2.9646 18.1982 2.99609C18.5956 3.02859 18.9939 3.10024 19.3779 3.2959C19.9489 3.58686 20.4131 4.05107 20.7041 4.62207C20.8998 5.00608 20.9714 5.40438 21.0039 5.80176C21.0354 6.18718 21.0352 6.65722 21.0352 7.2002V8.64746Z"/></svg>