<svg xmlns="http://www.w3.org/2000/svg" width="24" height="24" fill="none" viewBox="0 0 24 24"><path fill="currentColor" d="M20.9648 13.5352H18.4531C17.8775 13.5352 17.7138 13.5386 17.5635 13.5654C17.4116 13.5925 17.2634 13.6375 17.1221 13.6992C16.9822 13.7603 16.8439 13.8479 16.3652 14.167L15.7832 14.5547C15.3634 14.8346 15.0524 15.0471 14.7061 15.1982C14.4158 15.3249 14.1116 15.4171 13.7998 15.4727C13.4279 15.539 13.0513 15.5352 12.5469 15.5352H11.4531C10.9487 15.5352 10.5721 15.539 10.2002 15.4727C9.88841 15.4171 9.5842 15.3249 9.29395 15.1982C8.94764 15.0471 8.63662 14.8346 8.2168 14.5547L7.63477 14.167C7.15613 13.8479 7.01781 13.7603 6.87793 13.6992C6.73658 13.6375 6.58836 13.5925 6.43652 13.5654C6.28619 13.5386 6.12253 13.5352 5.54688 13.5352H3.03516V16.7998C3.03516 17.3769 3.03559 17.7477 3.05859 18.0293C3.08061 18.2988 3.11837 18.3948 3.14062 18.4385C3.23308 18.6197 3.38033 18.7669 3.56152 18.8594C3.60521 18.8816 3.7012 18.9194 3.9707 18.9414C4.25228 18.9644 4.62309 18.9648 5.2002 18.9648H18.7998C19.3769 18.9648 19.7477 18.9644 20.0293 18.9414C20.2988 18.9194 20.3948 18.8816 20.4385 18.8594C20.6197 18.7669 20.7669 18.6197 20.8594 18.4385C20.8816 18.3948 20.9194 18.2988 20.9414 18.0293C20.9644 17.7477 20.9648 17.3769 20.9648 16.7998V13.5352ZM3.03516 11.4648H5.54688C6.05133 11.4648 6.42786 11.461 6.7998 11.5273C7.11159 11.5829 7.4158 11.6751 7.70605 11.8018C8.05236 11.9529 8.36338 12.1654 8.7832 12.4453L9.36523 12.833C9.84387 13.1521 9.98219 13.2397 10.1221 13.3008C10.2634 13.3625 10.4116 13.4075 10.5635 13.4346C10.7138 13.4614 10.8775 13.4648 11.4531 13.4648H12.5469C13.1225 13.4648 13.2862 13.4614 13.4365 13.4346C13.5884 13.4075 13.7366 13.3625 13.8779 13.3008C14.0178 13.2397 14.1561 13.1521 14.6348 12.833L15.2168 12.4453C15.6366 12.1654 15.9476 11.9529 16.2939 11.8018C16.5842 11.6751 16.8884 11.5829 17.2002 11.5273C17.5721 11.461 17.9487 11.4648 18.4531 11.4648H20.9648V9.53516H3.03516V11.4648ZM20.9648 7.2002C20.9648 6.62309 20.9644 6.25228 20.9414 5.9707C20.9194 5.7012 20.8816 5.60521 20.8594 5.56152C20.7669 5.38033 20.6197 5.23308 20.4385 5.14062C20.3948 5.11837 20.2988 5.08061 20.0293 5.05859C19.7477 5.03559 19.3769 5.03516 18.7998 5.03516H5.2002C4.62309 5.03516 4.25228 5.03559 3.9707 5.05859C3.7012 5.08061 3.60521 5.11837 3.56152 5.14062C3.38033 5.23308 3.23308 5.38033 3.14062 5.56152C3.11837 5.60521 3.08061 5.7012 3.05859 5.9707C3.03559 6.25228 3.03516 6.62309 3.03516 7.2002V7.46484H20.9648V7.2002ZM23.0352 16.7998C23.0352 17.3428 23.0354 17.8128 23.0039 18.1982C22.9714 18.5956 22.8998 18.9939 22.7041 19.3779C22.4131 19.9489 21.9489 20.4131 21.3779 20.7041C20.9939 20.8998 20.5956 20.9714 20.1982 21.0039C19.8128 21.0354 19.3428 21.0352 18.7998 21.0352H5.2002C4.65722 21.0352 4.18719 21.0354 3.80176 21.0039C3.40438 20.9714 3.00608 20.8998 2.62207 20.7041C2.05107 20.4131 1.58686 19.9489 1.2959 19.3779C1.10024 18.9939 1.02859 18.5956 0.996094 18.1982C0.964603 17.8128 0.964844 17.3428 0.964844 16.7998V7.2002C0.964844 6.65722 0.964603 6.18718 0.996094 5.80176C1.02859 5.40438 1.10024 5.00608 1.2959 4.62207C1.58686 4.05107 2.05107 3.58686 2.62207 3.2959C3.00608 3.10024 3.40438 3.02859 3.80176 2.99609C4.18718 2.9646 4.65722 2.96484 5.2002 2.96484H18.7998C19.3428 2.96484 19.8128 2.9646 20.1982 2.99609C20.5956 3.02859 20.9939 3.10024 21.3779 3.2959C21.9489 3.58686 22.4131 4.05107 22.7041 4.62207C22.8998 5.00608 22.9714 5.40438 23.0039 5.80176C23.0354 6.18718 23.0352 6.65722 23.0352 7.2002V16.7998Z"/></svg>