<svg xmlns="http://www.w3.org/2000/svg" width="24" height="24" fill="none" viewBox="0 0 24 24"><path fill="currentColor" d="M16.465 4.5C16.465 4.23811 16.363 3.99015 16.1867 3.81055C16.0109 3.6316 15.7757 3.53516 15.5353 3.53516C14.7456 3.53535 14.1315 4.0964 13.6476 4.99219C13.5623 5.15008 13.488 5.30992 13.421 5.46484H15.5353C15.7757 5.46484 16.0109 5.3684 16.1867 5.18945C16.363 5.00985 16.465 4.76189 16.465 4.5ZM4.02357 13.6396C3.5778 14.3826 3.457 14.5984 3.39466 14.8135C3.3317 15.031 3.30714 15.2584 3.32142 15.4844C3.33557 15.708 3.40572 15.9453 3.67982 16.7676L3.88783 17.3906C4.30909 18.6544 4.44599 19.0114 4.65443 19.2607C4.86546 19.5131 5.13736 19.7087 5.44349 19.8291C5.74586 19.9479 6.1285 19.9648 7.46009 19.9648H16.5402C17.8722 19.9648 18.2544 19.948 18.5568 19.8291C18.8628 19.7087 19.1339 19.513 19.3449 19.2607C19.5533 19.0114 19.6911 18.6546 20.1124 17.3906L20.3204 16.7676C20.5946 15.9453 20.6647 15.708 20.6788 15.4844C20.6931 15.2584 20.6676 15.031 20.6046 14.8135C20.5423 14.5984 20.4223 14.3823 19.9767 13.6396L18.4142 11.0352H5.58607L4.02357 13.6396ZM6.12123 7.53516C5.75579 7.53516 5.54222 7.53652 5.38978 7.54883C5.41985 7.69871 5.47802 7.90404 5.57826 8.25488L5.78138 8.96484H18.2189L18.422 8.25488C18.5222 7.90434 18.5784 7.69867 18.6085 7.54883C18.4562 7.53665 18.243 7.53516 17.879 7.53516H6.12123ZM7.53529 4.5C7.53529 4.76189 7.63722 5.00985 7.81361 5.18945C7.98929 5.36824 8.22379 5.46477 8.464 5.46484H10.5792C10.5123 5.30993 10.438 5.15008 10.3527 4.99219C9.8687 4.09625 9.2539 3.53516 8.464 3.53516C8.22379 3.53523 7.98929 3.63176 7.81361 3.81055C7.63722 3.99015 7.53529 4.23811 7.53529 4.5ZM18.5353 4.5C18.5353 4.83211 18.4773 5.15793 18.3742 5.46777C18.5305 5.47051 18.6777 5.47644 18.8107 5.48828C19.0501 5.50963 19.3396 5.55693 19.6242 5.70215L19.7462 5.77051L19.9025 5.87695C20.2538 6.14284 20.5107 6.51718 20.632 6.94434C20.7354 7.30902 20.6983 7.65106 20.6466 7.9209C20.5961 8.18417 20.5059 8.4965 20.4122 8.82422L20.1183 9.85156L21.7521 12.5742C22.1416 13.2234 22.4392 13.704 22.5939 14.2383C22.7232 14.6849 22.7736 15.1512 22.7443 15.6152C22.7091 16.1702 22.5227 16.7039 22.2833 17.4219L22.0763 18.0449C21.7108 19.1414 21.454 19.9656 20.9327 20.5889C20.4995 21.1069 19.943 21.5077 19.3146 21.7549C18.5585 22.0523 17.6959 22.0352 16.5402 22.0352H7.46009C6.30442 22.0352 5.44174 22.0522 4.68568 21.7549C4.05706 21.5076 3.49988 21.107 3.06654 20.5889C2.54532 19.9656 2.28945 19.1414 1.92396 18.0449L1.71595 17.4219C1.47661 16.7039 1.29016 16.1702 1.25502 15.6152C1.22569 15.1512 1.27709 14.6849 1.40638 14.2383C1.56105 13.704 1.85868 13.2234 2.24818 12.5742L3.88099 9.85254L3.58705 8.82422C3.49341 8.4965 3.40411 8.18417 3.35365 7.9209C3.30194 7.65105 3.26483 7.30904 3.3683 6.94434L3.42787 6.76465C3.58704 6.3538 3.87661 6.00438 4.25404 5.77051L4.37513 5.70215C4.6597 5.55679 4.94906 5.50965 5.18861 5.48828C5.32121 5.47646 5.46826 5.47053 5.62416 5.46777C5.52111 5.15808 5.46498 4.83194 5.46498 4.5C5.46498 3.70103 5.77669 2.9309 6.33705 2.36035C6.89795 1.78935 7.66264 1.46491 8.464 1.46484C10.2491 1.46484 11.3646 2.65897 12.0001 3.70605C12.6356 2.65908 13.7505 1.46502 15.5353 1.46484C16.3368 1.46484 17.1022 1.78919 17.6632 2.36035C18.2236 2.9309 18.5353 3.70103 18.5353 4.5Z"/></svg>