<svg xmlns="http://www.w3.org/2000/svg" width="24" height="24" fill="none" viewBox="0 0 24 24"><path fill="currentColor" d="M19.9648 9C19.9648 8.46705 19.533 8.03516 19 8.03516H5C4.66232 8.03516 4.33856 7.97678 4.03516 7.875V19C4.03516 19.533 4.46705 19.9648 5 19.9648H19C19.533 19.9648 19.9648 19.533 19.9648 19V9ZM16.5 12.4648C17.3478 12.4648 18.0352 13.1522 18.0352 14C18.0352 14.8478 17.3478 15.5352 16.5 15.5352C15.6522 15.5352 14.9648 14.8478 14.9648 14C14.9648 13.1522 15.6522 12.4648 16.5 12.4648ZM22.0352 19C22.0352 20.6762 20.6762 22.0352 19 22.0352H5C3.32382 22.0352 1.96484 20.6762 1.96484 19V5C1.96484 3.32382 3.32382 1.96484 5 1.96484H17C17.5716 1.96484 18.0352 2.42839 18.0352 3C18.0352 3.57161 17.5716 4.03516 17 4.03516H5C4.46705 4.03516 4.03516 4.46705 4.03516 5C4.03516 5.53295 4.46705 5.96484 5 5.96484H19C20.6762 5.96484 22.0352 7.32382 22.0352 9V19Z"/></svg>