<svg xmlns="http://www.w3.org/2000/svg" width="24" height="24" fill="none" viewBox="0 0 24 24"><path fill="currentColor" d="M19.9648 11.1996C19.9648 10.6226 19.9644 10.2517 19.9414 9.97015C19.9194 9.70096 19.8816 9.60564 19.8594 9.56195C19.7669 9.38049 19.6199 9.2326 19.4385 9.14007C19.3948 9.11781 19.2988 9.08104 19.0293 9.05902C18.7477 9.03601 18.3769 9.03461 17.7998 9.03461H6.20017C5.62304 9.03461 5.25226 9.03601 4.97068 9.05902C4.7012 9.08104 4.60519 9.11781 4.5615 9.14007C4.38009 9.2326 4.23306 9.38049 4.1406 9.56195C4.11835 9.60564 4.08059 9.70096 4.05857 9.97015C4.03557 10.2517 4.03513 10.6226 4.03513 11.1996V17.8002C4.03514 18.3769 4.0356 18.7473 4.05857 19.0287C4.08059 19.2982 4.11834 19.3942 4.1406 19.4379C4.23309 19.6193 4.3801 19.7673 4.5615 19.8598C4.60519 19.8821 4.70118 19.9188 4.97068 19.9409C5.25226 19.9639 5.62305 19.9643 6.20017 19.9643H17.7998C18.3769 19.9643 18.7477 19.9639 19.0293 19.9409C19.2988 19.9188 19.3948 19.8821 19.4385 19.8598C19.6199 19.7673 19.7669 19.6193 19.8594 19.4379C19.8816 19.3942 19.9194 19.2982 19.9414 19.0287C19.9644 18.7473 19.9648 18.3769 19.9648 17.8002V11.1996ZM16.5 12.9643C17.3476 12.9643 18.035 13.6518 18.0351 14.4994C18.0351 15.3472 17.3477 16.0346 16.5 16.0346C15.6522 16.0346 14.9648 15.3472 14.9648 14.4994C14.965 13.6518 15.6523 12.9643 16.5 12.9643ZM14.9648 4.50043C14.9648 4.07714 14.9625 3.8237 14.9472 3.643C14.7769 3.70495 14.5464 3.8108 14.1631 3.98773L7.71385 6.96429H14.9648V4.50043ZM17.0351 6.96429H17.7998C18.3428 6.96429 18.8128 6.96405 19.1982 6.99554C19.5956 7.02803 19.9939 7.09969 20.3779 7.29535C20.9489 7.58626 21.4131 8.05061 21.7041 8.62152C21.8998 9.00565 21.9714 9.40467 22.0039 9.80218C22.0354 10.1875 22.0351 10.6568 22.0351 11.1996V17.8002C22.0351 18.343 22.0354 18.8124 22.0039 19.1977C21.9714 19.5951 21.8997 19.9933 21.7041 20.3774C21.4131 20.9484 20.9489 21.4126 20.3779 21.7036C19.9939 21.8992 19.5956 21.9718 19.1982 22.0043C18.8128 22.0358 18.3428 22.0346 17.7998 22.0346H6.20017C5.6572 22.0346 5.18716 22.0358 4.80174 22.0043C4.40434 21.9718 4.00608 21.8992 3.62205 21.7036C3.05108 21.4126 2.58681 20.9484 2.29588 20.3774C2.10022 19.9933 2.02855 19.5951 1.99607 19.1977C1.96459 18.8124 1.96482 18.343 1.96482 17.8002V10.0473C1.96482 9.38337 1.95103 8.7965 2.1406 8.26312C2.29556 7.82717 2.548 7.4322 2.87888 7.10882C3.28366 6.71329 3.82211 6.47975 4.42478 6.2016L13.2959 2.10785C13.6551 1.94206 13.9886 1.78714 14.2705 1.68695C14.5174 1.59922 14.8342 1.51092 15.1875 1.53753L15.3418 1.55609L15.542 1.60101C15.9366 1.71003 16.2893 1.93588 16.5537 2.24847L16.6787 2.41156L16.7597 2.54339C16.9321 2.85311 16.9849 3.17781 17.0088 3.4389C17.036 3.73692 17.0351 4.10472 17.0351 4.50043V6.96429Z"/></svg>