<svg xmlns="http://www.w3.org/2000/svg" width="24" height="24" fill="none" viewBox="0 0 24 24"><path fill="currentColor" d="M17.4648 8.70002C17.4648 8.12291 17.4644 7.75211 17.4414 7.47053C17.4194 7.20103 17.3816 7.10504 17.3594 7.06135C17.2669 6.88015 17.1197 6.7329 16.9385 6.64045C16.8948 6.61819 16.7988 6.58044 16.5293 6.55842C16.2477 6.53542 15.8769 6.53498 15.2998 6.53498H8.7002C8.12309 6.53498 7.75228 6.53542 7.4707 6.55842C7.2012 6.58044 7.10521 6.61819 7.06152 6.64045C6.88033 6.7329 6.73308 6.88015 6.64062 7.06135C6.61837 7.10504 6.58061 7.20103 6.55859 7.47053C6.53559 7.75211 6.53516 8.12291 6.53516 8.70002V15.2996C6.53516 15.8767 6.53559 16.2475 6.55859 16.5291C6.58061 16.7986 6.61837 16.8946 6.64062 16.9383C6.73308 17.1195 6.88033 17.2667 7.06152 17.3592C7.10521 17.3815 7.2012 17.4192 7.4707 17.4412C7.75228 17.4642 8.12309 17.4647 8.7002 17.4647H15.2998C15.8769 17.4647 16.2477 17.4642 16.5293 17.4412C16.7988 17.4192 16.8948 17.3815 16.9385 17.3592C17.1197 17.2667 17.2669 17.1195 17.3594 16.9383C17.3816 16.8946 17.4194 16.7986 17.4414 16.5291C17.4644 16.2475 17.4648 15.8767 17.4648 15.2996V8.70002ZM15.2998 19.535H8.7002C8.5877 19.535 8.47816 19.5333 8.37207 19.533C8.60267 20.3332 8.66802 20.4922 8.75 20.5965C8.85328 20.7278 8.9889 20.8302 9.14355 20.8934C9.27317 20.9463 9.45617 20.9647 10.4141 20.9647H13.5859C14.5438 20.9647 14.7268 20.9463 14.8564 20.8934C15.0111 20.8302 15.1467 20.7278 15.25 20.5965C15.332 20.4922 15.3964 20.333 15.627 19.533C15.5212 19.5333 15.412 19.535 15.2998 19.535ZM10.9648 8.99983C10.9648 8.42821 11.4284 7.96467 12 7.96467C12.5716 7.96467 13.0352 8.42821 13.0352 8.99983V11.5721L14.2314 12.7684C14.6356 13.1726 14.6356 13.8271 14.2314 14.2313C13.8273 14.6355 13.1727 14.6355 12.7686 14.2313L11.2686 12.7313C11.0745 12.5372 10.9648 12.2743 10.9648 11.9998V8.99983ZM10.4141 3.03498C9.45617 3.03498 9.27317 3.05333 9.14355 3.10627C8.9889 3.16945 8.85328 3.27184 8.75 3.40315C8.66805 3.50743 8.60246 3.66624 8.37207 4.46565C8.47816 4.46542 8.5877 4.46467 8.7002 4.46467H15.2998C15.412 4.46467 15.5212 4.46542 15.627 4.46565C15.3966 3.66647 15.3319 3.50742 15.25 3.40315C15.1467 3.27184 15.0111 3.16945 14.8564 3.10627C14.7268 3.05333 14.5438 3.03498 13.5859 3.03498H10.4141ZM19.5352 15.2996C19.5352 15.8426 19.5354 16.3126 19.5039 16.6981C19.4714 17.0954 19.3998 17.4937 19.2041 17.8778C18.9131 18.4487 18.4489 18.913 17.8779 19.2039C17.8768 19.2045 17.8752 19.2043 17.874 19.2049L17.6582 19.9637C17.4461 20.7062 17.2765 21.3675 16.8779 21.8748C16.5529 22.2884 16.1256 22.6105 15.6387 22.8094C15.0413 23.0533 14.3584 23.035 13.5859 23.035H10.4141C9.64158 23.035 8.95872 23.0533 8.36133 22.8094C7.87441 22.6105 7.44705 22.2884 7.12207 21.8748C6.72354 21.3675 6.55394 20.7062 6.3418 19.9637L6.125 19.2049L6.12207 19.2039C5.55107 18.913 5.08686 18.4487 4.7959 17.8778C4.60024 17.4937 4.52859 17.0954 4.49609 16.6981C4.4646 16.3126 4.46484 15.8426 4.46484 15.2996V8.70002C4.46484 8.15705 4.4646 7.68701 4.49609 7.30158C4.52859 6.9042 4.60024 6.5059 4.7959 6.1219C5.08686 5.5509 5.55107 5.08669 6.12207 4.79572C6.12308 4.79521 6.12399 4.79428 6.125 4.79377L6.3418 4.03596C6.55394 3.29342 6.72355 2.63211 7.12207 2.12483C7.44705 1.71128 7.87441 1.38912 8.36133 1.19025C8.95872 0.946328 9.64158 0.964669 10.4141 0.964669H13.5859C14.3584 0.964669 15.0413 0.946328 15.6387 1.19025C16.1256 1.38912 16.5529 1.71128 16.8779 2.12483C17.2765 2.63211 17.4461 3.29342 17.6582 4.03596L17.874 4.79377C17.8753 4.79441 17.8767 4.79508 17.8779 4.79572C18.4489 5.08669 18.9131 5.5509 19.2041 6.1219C19.3998 6.5059 19.4714 6.9042 19.5039 7.30158C19.5354 7.68701 19.5352 8.15705 19.5352 8.70002V15.2996Z"/></svg>