<svg xmlns="http://www.w3.org/2000/svg" width="24" height="24" fill="none" viewBox="0 0 24 24"><path fill="currentColor" d="M17.9648 12C17.9648 8.70563 15.2944 6.03516 12 6.03516C8.70562 6.03516 6.03516 8.70563 6.03516 12C6.03516 15.2944 8.70562 17.9648 12 17.9648C15.2944 17.9648 17.9648 15.2944 17.9648 12ZM15.4971 19.2344C14.4397 19.7465 13.2537 20.0352 12 20.0352C10.746 20.0352 9.55956 19.7467 8.50195 19.2344C8.59547 19.7019 8.65616 19.9989 8.71875 20.2236C8.77827 20.4374 8.82196 20.5145 8.84863 20.5527C8.95032 20.6983 9.09028 20.8126 9.25293 20.8838C9.29561 20.9024 9.37955 20.9308 9.60059 20.9473C9.83482 20.9647 10.1407 20.9648 10.623 20.9648H13.377C13.8593 20.9648 14.1652 20.9647 14.3994 20.9473C14.6204 20.9308 14.7044 20.9024 14.7471 20.8838C14.9097 20.8126 15.0497 20.6983 15.1514 20.5527C15.178 20.5145 15.2217 20.4374 15.2812 20.2236C15.3438 19.9989 15.4036 19.7018 15.4971 19.2344ZM10.9648 9.00001C10.9648 8.42839 11.4284 7.96485 12 7.96485C12.5716 7.96485 13.0352 8.42839 13.0352 9.00001V11.5723L14.2314 12.7686C14.6356 13.1728 14.6356 13.8273 14.2314 14.2315C13.8273 14.6356 13.1727 14.6356 12.7686 14.2315L11.2686 12.7315C11.0745 12.5374 10.9648 12.2745 10.9648 12V9.00001ZM10.623 3.03516C10.1407 3.03516 9.83482 3.03533 9.60059 3.05274C9.37955 3.06919 9.29561 3.09756 9.25293 3.11622C9.09028 3.18738 8.95032 3.30175 8.84863 3.44727C8.82196 3.48548 8.77827 3.56264 8.71875 3.77637C8.6562 4.00099 8.59536 4.29768 8.50195 4.76465C9.55946 4.25244 10.7461 3.96485 12 3.96485C13.2536 3.96485 14.4398 4.25268 15.4971 4.76465C15.4037 4.29778 15.3438 4.00096 15.2812 3.77637C15.2217 3.56264 15.178 3.48548 15.1514 3.44727C15.0497 3.30175 14.9097 3.18738 14.7471 3.11622C14.7044 3.09756 14.6204 3.06919 14.3994 3.05274C14.1652 3.03533 13.8593 3.03516 13.377 3.03516H10.623ZM20.0352 12C20.0352 14.0605 19.2576 15.9382 17.9824 17.3604L17.5293 19.6309C17.4407 20.0739 17.3638 20.4619 17.2754 20.7793C17.1835 21.1093 17.0611 21.4329 16.8486 21.7373C16.5286 22.1957 16.0885 22.5573 15.5762 22.7813C15.236 22.9299 14.8944 22.9863 14.5527 23.0117C14.2241 23.0361 13.8288 23.0352 13.377 23.0352H10.623C10.1712 23.0352 9.77588 23.0361 9.44727 23.0117C9.10562 22.9863 8.76404 22.9299 8.42383 22.7813C7.91154 22.5573 7.47144 22.1957 7.15137 21.7373C6.93889 21.4329 6.81652 21.1093 6.72461 20.7793C6.63621 20.4619 6.55932 20.0739 6.4707 19.6309L6.0166 17.3604C4.7417 15.9382 3.96484 14.0603 3.96484 12C3.96484 9.93949 4.74142 8.06086 6.0166 6.63868L6.4707 4.36915C6.55932 3.92607 6.63621 3.53816 6.72461 3.22071C6.81652 2.89074 6.93889 2.56709 7.15137 2.2627C7.47144 1.80429 7.91154 1.44269 8.42383 1.21876C8.76404 1.07007 9.10562 1.01369 9.44727 0.988287C9.77588 0.963863 10.1712 0.964849 10.623 0.964849H13.377C13.8288 0.964849 14.2241 0.963863 14.5527 0.988287C14.8944 1.01369 15.236 1.07007 15.5762 1.21876C16.0885 1.4427 16.5286 1.80429 16.8486 2.2627C17.0611 2.56709 17.1835 2.89074 17.2754 3.22071C17.3638 3.53816 17.4407 3.92607 17.5293 4.36915L17.9824 6.63868C19.2579 8.06092 20.0352 9.93926 20.0352 12Z"/></svg>