<svg xmlns="http://www.w3.org/2000/svg" width="24" height="24" fill="none" viewBox="0 0 24 24"><path fill="currentColor" d="M19.5 15.9648C20.2934 15.9648 20.924 16.1202 21.4628 16.3809C21.9806 16.6314 22.3718 16.9632 22.6621 17.2051C23.1011 17.571 23.1606 18.223 22.7949 18.6621C22.429 19.1012 21.777 19.1607 21.3378 18.7949C21.0281 18.5368 20.8186 18.3685 20.5615 18.2441C20.3254 18.1299 20.0062 18.0352 19.5 18.0352C19.0255 18.0352 18.7103 18.1269 18.4638 18.2451C18.1952 18.374 17.9693 18.5503 17.6464 18.8086C17.3444 19.0502 16.9449 19.3741 16.4326 19.6201C15.8979 19.8768 15.2752 20.0352 14.5 20.0352C13.7065 20.0352 13.0759 19.8798 12.5371 19.6191C12.0193 19.3686 11.6281 19.0368 11.3378 18.7949C11.0281 18.5368 10.8186 18.3685 10.5615 18.2441C10.3254 18.1299 10.0062 18.0352 9.49996 18.0352C9.02546 18.0352 8.7103 18.1269 8.46382 18.2451C8.19522 18.374 7.96931 18.5503 7.64644 18.8086C7.34443 19.0502 6.94486 19.3741 6.43257 19.6201C5.89787 19.8768 5.27515 20.0352 4.49996 20.0352C3.70647 20.0352 3.07587 19.8798 2.53706 19.6191C2.01928 19.3686 1.62811 19.0368 1.33785 18.7949C0.898784 18.429 0.839272 17.777 1.20503 17.3379C1.57092 16.8988 2.22294 16.8393 2.66206 17.2051C2.97178 17.4632 3.18133 17.6315 3.43843 17.7559C3.67454 17.8701 3.99371 17.9648 4.49996 17.9648C4.97445 17.9648 5.28961 17.8731 5.53609 17.7549C5.80469 17.626 6.0306 17.4497 6.35347 17.1914C6.65548 16.9498 7.05505 16.6259 7.56734 16.3799C8.10204 16.1232 8.72476 15.9648 9.49996 15.9648C10.2934 15.9648 10.924 16.1202 11.4628 16.3809C11.9806 16.6314 12.3718 16.9632 12.6621 17.2051C12.9718 17.4632 13.1813 17.6315 13.4384 17.7559C13.6745 17.8701 13.9937 17.9648 14.5 17.9648C14.9745 17.9648 15.2896 17.8731 15.5361 17.7549C15.8047 17.626 16.0306 17.4497 16.3535 17.1914C16.6555 16.9498 17.0551 16.6259 17.5673 16.3799C18.102 16.1232 18.7248 15.9648 19.5 15.9648ZM19.5 9.96484C20.2934 9.96484 20.924 10.1202 21.4628 10.3809C21.9806 10.6314 22.3718 10.9632 22.6621 11.2051C23.1011 11.571 23.1606 12.223 22.7949 12.6621C22.429 13.1012 21.777 13.1607 21.3378 12.7949C21.0281 12.5368 20.8186 12.3685 20.5615 12.2441C20.3254 12.1299 20.0062 12.0352 19.5 12.0352C19.0255 12.0352 18.7103 12.1269 18.4638 12.2451C18.1952 12.374 17.9693 12.5503 17.6464 12.8086C17.3444 13.0502 16.9449 13.3741 16.4326 13.6201C15.8979 13.8768 15.2752 14.0352 14.5 14.0352C13.7065 14.0352 13.0759 13.8798 12.5371 13.6191C12.0193 13.3686 11.6281 13.0368 11.3378 12.7949C11.0281 12.5368 10.8186 12.3685 10.5615 12.2441C10.3254 12.1299 10.0062 12.0352 9.49996 12.0352C9.02546 12.0352 8.7103 12.1269 8.46382 12.2451C8.19522 12.374 7.96931 12.5503 7.64644 12.8086C7.34443 13.0502 6.94486 13.3741 6.43257 13.6201C5.89787 13.8768 5.27515 14.0352 4.49996 14.0352C3.70647 14.0352 3.07587 13.8798 2.53706 13.6191C2.01928 13.3686 1.62811 13.0368 1.33785 12.7949C0.898784 12.429 0.839272 11.777 1.20503 11.3379C1.57092 10.8988 2.22294 10.8393 2.66206 11.2051C2.97178 11.4632 3.18133 11.6315 3.43843 11.7559C3.67454 11.8701 3.99371 11.9648 4.49996 11.9648C4.97445 11.9648 5.28961 11.8731 5.53609 11.7549C5.80469 11.626 6.0306 11.4497 6.35347 11.1914C6.65548 10.9498 7.05505 10.6259 7.56734 10.3799C8.10204 10.1232 8.72476 9.96484 9.49996 9.96484C10.2934 9.96484 10.924 10.1202 11.4628 10.3809C11.9806 10.6314 12.3718 10.9632 12.6621 11.2051C12.9718 11.4632 13.1813 11.6315 13.4384 11.7559C13.6745 11.8701 13.9937 11.9648 14.5 11.9648C14.9745 11.9648 15.2896 11.8731 15.5361 11.7549C15.8047 11.626 16.0306 11.4497 16.3535 11.1914C16.6555 10.9498 17.0551 10.6259 17.5673 10.3799C18.102 10.1232 18.7248 9.96484 19.5 9.96484ZM19.5 3.96484C20.2934 3.96484 20.924 4.12021 21.4628 4.38086C21.9806 4.6314 22.3718 4.96319 22.6621 5.20508C23.1011 5.57096 23.1606 6.22298 22.7949 6.66211C22.429 7.10117 21.777 7.16068 21.3378 6.79492C21.0281 6.53683 20.8186 6.36854 20.5615 6.24414C20.3254 6.12992 20.0062 6.03516 19.5 6.03516C19.0255 6.03516 18.7103 6.12688 18.4638 6.24512C18.1952 6.37404 17.9693 6.5503 17.6464 6.80859C17.3444 7.0502 16.9449 7.37414 16.4326 7.62012C15.8979 7.87677 15.2752 8.03516 14.5 8.03516C13.7065 8.03516 13.0759 7.87979 12.5371 7.61914C12.0193 7.3686 11.6281 7.03681 11.3378 6.79492C11.0281 6.53683 10.8186 6.36854 10.5615 6.24414C10.3254 6.12992 10.0062 6.03516 9.49996 6.03516C9.02546 6.03516 8.7103 6.12688 8.46382 6.24512C8.19522 6.37404 7.96931 6.5503 7.64644 6.80859C7.34443 7.0502 6.94486 7.37414 6.43257 7.62012C5.89787 7.87677 5.27515 8.03516 4.49996 8.03516C3.70647 8.03516 3.07587 7.87979 2.53706 7.61914C2.01928 7.3686 1.62811 7.03681 1.33785 6.79492C0.898784 6.42904 0.839272 5.77702 1.20503 5.33789C1.57092 4.89883 2.22294 4.83932 2.66206 5.20508C2.97178 5.46317 3.18133 5.63146 3.43843 5.75586C3.67454 5.87008 3.99371 5.96484 4.49996 5.96484C4.97445 5.96484 5.28961 5.87312 5.53609 5.75488C5.80469 5.62596 6.0306 5.4497 6.35347 5.19141C6.65548 4.9498 7.05505 4.62586 7.56734 4.37988C8.10204 4.12323 8.72476 3.96484 9.49996 3.96484C10.2934 3.96484 10.924 4.12021 11.4628 4.38086C11.9806 4.6314 12.3718 4.96319 12.6621 5.20508C12.9718 5.46317 13.1813 5.63146 13.4384 5.75586C13.6745 5.87008 13.9937 5.96484 14.5 5.96484C14.9745 5.96484 15.2896 5.87312 15.5361 5.75488C15.8047 5.62596 16.0306 5.4497 16.3535 5.19141C16.6555 4.9498 17.0551 4.62586 17.5673 4.37988C18.102 4.12323 18.7248 3.96484 19.5 3.96484Z"/></svg>