<svg xmlns="http://www.w3.org/2000/svg" width="24" height="24" fill="none" viewBox="0 0 24 24"><path fill="currentColor" d="M16 20.9648C16.5716 20.9648 17.0352 21.4284 17.0352 22C17.0352 22.5716 16.5716 23.0352 16 23.0352H8C7.42839 23.0352 6.96484 22.5716 6.96484 22C6.96484 21.4284 7.42839 20.9648 8 20.9648H16ZM19.4648 10.5C19.4648 6.37719 16.1228 3.03516 12 3.03516C7.87719 3.03516 4.53516 6.37719 4.53516 10.5C4.53516 14.6228 7.87719 17.9648 12 17.9648C16.1228 17.9648 19.4648 14.6228 19.4648 10.5ZM14.1523 10.5C14.1523 9.31121 13.1888 8.34766 12 8.34766C10.8112 8.34766 9.84766 9.31121 9.84766 10.5C9.84766 11.6888 10.8112 12.6523 12 12.6523C13.1888 12.6523 14.1523 11.6888 14.1523 10.5ZM16.2227 10.5C16.2227 12.832 14.332 14.7227 12 14.7227C9.66798 14.7227 7.77734 12.832 7.77734 10.5C7.77734 8.16798 9.66798 6.27734 12 6.27734C14.332 6.27734 16.2227 8.16798 16.2227 10.5ZM21.5352 10.5C21.5352 15.766 17.266 20.0352 12 20.0352C6.73396 20.0352 2.46484 15.766 2.46484 10.5C2.46484 5.23396 6.73396 0.964844 12 0.964844C17.266 0.964844 21.5352 5.23396 21.5352 10.5Z"/></svg>