<svg xmlns="http://www.w3.org/2000/svg" width="24" height="24" fill="none" viewBox="0 0 24 24"><path fill="currentColor" d="M18.9648 10C18.9648 6.15334 15.8467 3.03516 12 3.03516C8.15334 3.03516 5.03516 6.15334 5.03516 10C5.03516 13.8467 8.15334 16.9648 12 16.9648C15.8467 16.9648 18.9648 13.8467 18.9648 10ZM13.9648 10C13.9648 8.91476 13.0852 8.03516 12 8.03516C10.9148 8.03516 10.0352 8.91476 10.0352 10C10.0352 11.0852 10.9148 11.9648 12 11.9648C13.0852 11.9648 13.9648 11.0852 13.9648 10ZM16.0352 10C16.0352 12.2285 14.2285 14.0352 12 14.0352C9.77153 14.0352 7.96484 12.2285 7.96484 10C7.96484 7.77153 9.77153 5.96484 12 5.96484C14.2285 5.96484 16.0352 7.77153 16.0352 10ZM21.0352 10C21.0352 14.6397 17.5374 18.4599 13.0352 18.9736V20.9648H17C17.5716 20.9648 18.0352 21.4284 18.0352 22C18.0352 22.5716 17.5716 23.0352 17 23.0352H7C6.42839 23.0352 5.96484 22.5716 5.96484 22C5.96484 21.4284 6.42839 20.9648 7 20.9648H10.9648V18.9736C6.46261 18.4599 2.96484 14.6397 2.96484 10C2.96484 5.01011 7.01011 0.964844 12 0.964844C16.9899 0.964844 21.0352 5.01011 21.0352 10Z"/></svg>