<svg xmlns="http://www.w3.org/2000/svg" width="24" height="24" fill="none" viewBox="0 0 24 24"><path fill="currentColor" d="M12.0099 18.4648C12.5815 18.4648 13.045 18.9284 13.045 19.5C13.045 20.0716 12.5815 20.5352 12.0099 20.5352H12.0001C11.4285 20.5352 10.965 20.0716 10.965 19.5C10.965 18.9284 11.4285 18.4648 12.0001 18.4648H12.0099ZM12.0001 13.4648C13.635 13.4649 15.1423 14.0244 16.337 14.9609C16.7867 15.3136 16.8654 15.9643 16.5128 16.4141C16.1601 16.8636 15.5094 16.9424 15.0597 16.5898C14.2163 15.9288 13.1557 15.5352 12.0001 15.5352C10.827 15.5352 9.75098 15.9408 8.90149 16.6201C8.45512 16.9768 7.80431 16.9042 7.44739 16.458C7.09038 16.0116 7.16308 15.3599 7.6095 15.0029C8.81265 14.0409 10.3406 13.4648 12.0001 13.4648ZM12.0001 8.46484C15.0474 8.46485 17.8324 9.59939 19.9523 11.4668C20.3809 11.8446 20.4225 12.4979 20.045 12.9268C19.6672 13.3557 19.013 13.3974 18.5841 13.0195C16.8277 11.4723 14.5246 10.5352 12.0001 10.5352C9.47563 10.5352 7.17252 11.4723 5.41614 13.0195C4.98721 13.3974 4.33304 13.3557 3.9552 12.9268C3.5777 12.4979 3.61933 11.8446 4.04797 11.4668C6.16784 9.59939 8.9528 8.46484 12.0001 8.46484ZM12.0001 3.46484C16.4347 3.46487 20.4758 5.16072 23.506 7.9375C23.9274 8.32369 23.9556 8.97896 23.5695 9.40039C23.1833 9.8215 22.5289 9.84981 22.1075 9.46387C19.4441 7.02315 15.8969 5.53519 12.0001 5.53516C8.10327 5.53516 4.5562 7.02313 1.8927 9.46387C1.4714 9.8499 0.817006 9.82144 0.430785 9.40039C0.0446003 8.97896 0.0728299 8.32368 0.494262 7.9375C3.52449 5.16076 7.56555 3.46484 12.0001 3.46484Z"/></svg>