<svg xmlns="http://www.w3.org/2000/svg" width="24" height="24" fill="none" viewBox="0 0 24 24"><path fill="currentColor" d="M2.26868 2.26848C2.67287 1.86428 3.32737 1.86428 3.73157 2.26848L21.7316 20.2685C22.1358 20.6727 22.1358 21.3272 21.7316 21.7314C21.3274 22.1356 20.6729 22.1356 20.2687 21.7314L15.2404 16.703C15.1777 16.672 15.1169 16.6346 15.0597 16.5898C14.9016 16.4659 14.7361 16.3513 14.5636 16.247C13.793 15.7835 12.909 15.5361 12.005 15.5361C10.9745 15.5361 9.96911 15.8572 9.12903 16.454C9.11003 16.4675 9.09 16.4791 9.07043 16.4911C9.01338 16.5329 8.95667 16.5759 8.90149 16.62C8.45512 16.9767 7.80431 16.9041 7.44739 16.4579C7.09038 16.0115 7.16308 15.3599 7.6095 15.0029C8.81265 14.0408 10.3406 13.4648 12.0001 13.4648H12.0021L9.41125 10.8739C7.91116 11.2763 6.5499 12.0207 5.41614 13.0195C4.98721 13.3973 4.33304 13.3556 3.9552 12.9267C3.5777 12.4978 3.61933 11.8445 4.04797 11.4667C5.1318 10.512 6.39 9.74929 7.76868 9.23137L5.53625 6.99895C4.2004 7.63974 2.97373 8.47317 1.8927 9.46379C1.4714 9.84982 0.817006 9.82136 0.430785 9.40031C0.0446003 8.97888 0.0728299 8.32361 0.494262 7.93742C1.54787 6.97195 2.72383 6.13731 3.99621 5.45891L2.26868 3.73137C1.86448 3.32717 1.86448 2.67267 2.26868 2.26848ZM12.0099 18.4648C12.5815 18.4648 13.045 18.9283 13.045 19.4999C13.045 20.0715 12.5815 20.5351 12.0099 20.5351H12.0001C11.4285 20.5351 10.965 20.0715 10.965 19.4999C10.965 18.9283 11.4285 18.4648 12.0001 18.4648H12.0099ZM14.3243 9.6923C14.4944 9.14656 15.0745 8.84161 15.6202 9.01164C17.1171 9.47805 18.5196 10.2364 19.7423 11.2548C20.1815 11.6206 20.241 12.2736 19.8751 12.7128C19.5093 13.1515 18.8572 13.211 18.4181 12.8456C17.4056 12.0023 16.2436 11.3744 15.004 10.9882C14.4584 10.8181 14.1544 10.238 14.3243 9.6923ZM12.0001 3.4677C16.1478 3.46771 20.1533 4.9809 23.2648 7.72355C23.6934 8.10157 23.7345 8.75576 23.3566 9.18449C22.9786 9.61324 22.3244 9.65425 21.8956 9.27629C19.1623 6.86692 15.6438 5.53803 12.0001 5.53801C11.4342 5.53801 10.8709 5.56955 10.3136 5.63273C9.74575 5.69693 9.23345 5.28849 9.16907 4.72062C9.10487 4.15278 9.51331 3.64048 10.0812 3.57609C10.7155 3.50419 11.3561 3.4677 12.0001 3.4677Z"/></svg>