<svg xmlns="http://www.w3.org/2000/svg" width="24" height="24" fill="none" viewBox="0 0 24 24"><path fill="currentColor" d="M14.9648 18C14.9648 16.9148 14.0852 16.0352 13 16.0352H2C1.42839 16.0352 0.964844 15.5716 0.964844 15C0.964844 14.4284 1.42839 13.9648 2 13.9648H13C15.2285 13.9648 17.0352 15.7715 17.0352 18C17.0352 20.2285 15.2285 22.0352 13 22.0352C11.805 22.0352 10.7305 21.5141 9.99316 20.6904C9.61197 20.2645 9.64739 19.6097 10.0732 19.2285C10.4991 18.8473 11.1539 18.8837 11.5352 19.3096C11.8964 19.7132 12.4181 19.9648 13 19.9648C14.0852 19.9648 14.9648 19.0852 14.9648 18ZM20.9648 8.5C20.9648 7.41476 20.0852 6.53516 19 6.53516C18.4181 6.53516 17.8964 6.78678 17.5352 7.19043C17.1539 7.61628 16.4991 7.65268 16.0732 7.27148C15.6474 6.89025 15.612 6.23547 15.9932 5.80957C16.7305 4.98592 17.805 4.46485 19 4.46484C21.2285 4.46484 23.0352 6.27153 23.0352 8.5C23.0352 10.7285 21.2285 12.5352 19 12.5352H13C12.4284 12.5352 11.9648 12.0716 11.9648 11.5C11.9648 10.9284 12.4284 10.4648 13 10.4648H19C20.0852 10.4648 20.9648 9.58524 20.9648 8.5ZM10.9648 6C10.9648 4.91476 10.0852 4.03516 9 4.03516C8.41813 4.03516 7.89644 4.28677 7.53516 4.69043C7.15393 5.11629 6.49915 5.15268 6.07324 4.77148C5.64739 4.39026 5.61197 3.73547 5.99316 3.30957C6.73051 2.48593 7.80503 1.96484 9 1.96484C11.2285 1.96484 13.0352 3.77153 13.0352 6C13.0352 8.22847 11.2285 10.0352 9 10.0352H2C1.42839 10.0352 0.964844 9.57161 0.964844 9C0.964844 8.42839 1.42839 7.96484 2 7.96484H9C10.0852 7.96484 10.9648 7.08524 10.9648 6Z"/></svg>