<svg xmlns="http://www.w3.org/2000/svg" width="24" height="24" fill="none" viewBox="0 0 24 24"><path fill="currentColor" d="M11.6845 17.0149C13.8732 16.3147 16.3814 15.4877 19.2812 16.3059C19.7252 16.4312 20.2552 16.6171 20.6591 16.7649C20.8644 16.84 21.0439 16.9073 21.1718 16.9563C21.2355 16.9807 21.2866 17.001 21.3222 17.0149C21.3401 17.0218 21.3546 17.0277 21.3642 17.0315C21.3687 17.0332 21.3724 17.0344 21.3749 17.0354C21.3761 17.0358 21.3772 17.037 21.3779 17.0373H21.3798C21.9115 17.2471 22.1726 17.8484 21.9628 18.3801C21.7662 18.8785 21.2255 19.1394 20.7206 18.9973L20.6201 18.9631L20.6181 18.9621C20.6162 18.9614 20.6124 18.9598 20.6083 18.9582C20.6002 18.955 20.588 18.9507 20.5722 18.9445C20.5397 18.9319 20.4916 18.9128 20.4316 18.8899C20.3111 18.8437 20.1416 18.78 19.9482 18.7092C19.5545 18.5652 19.0842 18.4012 18.7187 18.2981C16.4984 17.6717 14.5664 18.2655 12.3154 18.9856C10.1267 19.6857 7.61851 20.5127 4.7187 19.6945C4.27465 19.5693 3.74468 19.3834 3.34077 19.2356C3.13549 19.1604 2.956 19.0932 2.82807 19.0442C2.76436 19.0198 2.71334 18.9994 2.67768 18.9856C2.65983 18.9786 2.64533 18.9727 2.63569 18.969C2.63118 18.9672 2.62751 18.9661 2.62495 18.9651C2.62377 18.9646 2.62274 18.9634 2.62202 18.9631H2.62006C2.08838 18.7533 1.82734 18.152 2.03706 17.6203C2.24682 17.0886 2.84811 16.8276 3.37983 17.0373L3.38178 17.0383C3.38371 17.0391 3.38745 17.0406 3.39155 17.0422C3.39966 17.0454 3.41192 17.0497 3.42768 17.0559C3.46017 17.0685 3.50829 17.0876 3.56831 17.1106C3.6888 17.1567 3.85834 17.2205 4.0517 17.2912C4.44535 17.4353 4.91571 17.5992 5.2812 17.7024C7.50149 18.3287 9.43349 17.7349 11.6845 17.0149ZM11.6845 11.0149C13.8732 10.3147 16.3814 9.48771 19.2812 10.3059C19.7252 10.4312 20.2552 10.6171 20.6591 10.7649C20.8644 10.84 21.0439 10.9073 21.1718 10.9563C21.2355 10.9807 21.2866 11.001 21.3222 11.0149C21.3401 11.0218 21.3546 11.0277 21.3642 11.0315C21.3687 11.0332 21.3724 11.0344 21.3749 11.0354C21.3761 11.0358 21.3772 11.037 21.3779 11.0373H21.3798C21.9115 11.2471 22.1726 11.8484 21.9628 12.3801C21.7662 12.8785 21.2255 13.1394 20.7206 12.9973L20.6201 12.9631L20.6181 12.9621C20.6162 12.9614 20.6124 12.9598 20.6083 12.9582C20.6002 12.955 20.588 12.9507 20.5722 12.9445C20.5397 12.9319 20.4916 12.9128 20.4316 12.8899C20.3111 12.8437 20.1416 12.78 19.9482 12.7092C19.5545 12.5652 19.0842 12.4012 18.7187 12.2981C16.4984 11.6717 14.5664 12.2655 12.3154 12.9856C10.1267 13.6857 7.61851 14.5127 4.7187 13.6945C4.27465 13.5693 3.74468 13.3834 3.34077 13.2356C3.13549 13.1604 2.956 13.0932 2.82807 13.0442C2.76436 13.0198 2.71334 12.9994 2.67768 12.9856C2.65983 12.9786 2.64533 12.9727 2.63569 12.969C2.63118 12.9672 2.62751 12.9661 2.62495 12.9651C2.62377 12.9646 2.62274 12.9634 2.62202 12.9631H2.62006C2.08838 12.7533 1.82734 12.152 2.03706 11.6203C2.24682 11.0886 2.84811 10.8276 3.37983 11.0373L3.38178 11.0383C3.38371 11.0391 3.38745 11.0406 3.39155 11.0422C3.39966 11.0454 3.41192 11.0497 3.42768 11.0559C3.46017 11.0685 3.50829 11.0876 3.56831 11.1106C3.6888 11.1567 3.85834 11.2205 4.0517 11.2912C4.44535 11.4353 4.91571 11.5992 5.2812 11.7024C7.50149 12.3287 9.43349 11.7349 11.6845 11.0149ZM11.6845 5.01486C13.8732 4.31473 16.3814 3.48771 19.2812 4.30588C19.7252 4.43117 20.2552 4.61706 20.6591 4.76486C20.8644 4.83998 21.0439 4.90727 21.1718 4.95627C21.2355 4.98067 21.2866 5.00098 21.3222 5.01486C21.3401 5.02181 21.3546 5.02769 21.3642 5.03146C21.3687 5.03323 21.3724 5.03436 21.3749 5.03537C21.3761 5.03583 21.3772 5.03704 21.3779 5.03732H21.3798C21.9115 5.24709 22.1726 5.84838 21.9628 6.3801C21.7662 6.8785 21.2255 7.13937 20.7206 6.99728L20.6201 6.9631L20.6181 6.96213C20.6162 6.96137 20.6124 6.95983 20.6083 6.95822C20.6002 6.95504 20.588 6.95068 20.5722 6.94455C20.5397 6.93191 20.4916 6.91285 20.4316 6.88986C20.3111 6.84371 20.1416 6.77996 19.9482 6.7092C19.5545 6.56515 19.0842 6.40119 18.7187 6.29807C16.4984 5.67171 14.5664 6.26548 12.3154 6.98557C10.1267 7.6857 7.61851 8.51272 4.7187 7.69455C4.27465 7.56926 3.74468 7.38337 3.34077 7.23557C3.13549 7.16045 2.956 7.09315 2.82807 7.04416C2.76436 7.01976 2.71334 6.99944 2.67768 6.98557C2.65983 6.97862 2.64533 6.97274 2.63569 6.96896C2.63118 6.96719 2.62751 6.96607 2.62495 6.96506C2.62377 6.96459 2.62274 6.96339 2.62202 6.9631H2.62006C2.08838 6.75334 1.82734 6.15205 2.03706 5.62033C2.24682 5.08864 2.84811 4.8276 3.37983 5.03732L3.38178 5.0383C3.38371 5.03906 3.38745 5.0406 3.39155 5.04221C3.39966 5.04538 3.41192 5.04974 3.42768 5.05588C3.46017 5.06852 3.50829 5.08758 3.56831 5.11057C3.6888 5.15671 3.85834 5.22047 4.0517 5.29123C4.44535 5.43527 4.91571 5.59924 5.2812 5.70236C7.50149 6.32872 9.43349 5.73495 11.6845 5.01486Z"/></svg>