<svg xmlns="http://www.w3.org/2000/svg" width="24" height="24" fill="none" viewBox="0 0 24 24"><path fill="currentColor" d="M14.9648 18C14.9648 17.467 14.533 17.0352 14 17.0352H2C1.4284 17.0351 0.964844 16.5716 0.964844 16C0.964844 15.4284 1.4284 14.9649 2 14.9648H14C15.6762 14.9648 17.0352 16.3238 17.0352 18C17.0352 19.6762 15.6762 21.0352 14 21.0352C13.1011 21.0351 12.2925 20.6427 11.7383 20.0234C11.3571 19.5975 11.3934 18.9437 11.8193 18.5625C12.2453 18.1813 12.8991 18.2176 13.2803 18.6436C13.4584 18.8425 13.7144 18.9648 14 18.9648C14.533 18.9648 14.9648 18.533 14.9648 18ZM20.9648 9C20.9648 7.91476 20.0852 7.03516 19 7.03516C18.4181 7.03516 17.8964 7.28678 17.5352 7.69043C17.1539 8.11628 16.4991 8.15268 16.0732 7.77148C15.6474 7.39025 15.612 6.73547 15.9932 6.30957C16.7305 5.48592 17.805 4.96485 19 4.96484C21.2285 4.96484 23.0352 6.77153 23.0352 9C23.0352 11.2285 21.2285 13.0352 19 13.0352H2C1.42839 13.0352 0.964844 12.5716 0.964844 12C0.964844 11.4284 1.42839 10.9648 2 10.9648H19C20.0852 10.9648 20.9648 10.0852 20.9648 9ZM11.9648 6C11.9648 5.46704 11.533 5.03516 11 5.03516C10.7144 5.03516 10.4584 5.15746 10.2803 5.35645C9.89906 5.78238 9.24527 5.81872 8.81934 5.4375C8.39342 5.05628 8.35707 4.40249 8.73828 3.97656C9.29253 3.35732 10.1011 2.96485 11 2.96484C12.6762 2.96484 14.0352 4.32382 14.0352 6C14.0352 7.67618 12.6762 9.03516 11 9.03516H2C1.4284 9.03514 0.964844 8.57161 0.964844 8C0.964844 7.42839 1.4284 6.96486 2 6.96484H11C11.533 6.96484 11.9648 6.53296 11.9648 6Z"/></svg>