<svg xmlns="http://www.w3.org/2000/svg" width="24" height="24" fill="none" viewBox="0 0 24 24"><g clip-path="url(#a)"><path fill="currentColor" d="M20.9648 12C20.9648 7.04877 16.9512 3.03516 12 3.03516C7.04877 3.03516 3.03516 7.04877 3.03516 12C3.03516 16.9512 7.04877 20.9648 12 20.9648C16.9512 20.9648 20.9648 16.9512 20.9648 12ZM14.2686 8.26855C14.6727 7.86436 15.3273 7.86436 15.7314 8.26855C16.1356 8.67275 16.1356 9.32725 15.7314 9.73145L13.4629 12L15.7314 14.2686C16.1356 14.6727 16.1356 15.3273 15.7314 15.7314C15.3273 16.1356 14.6727 16.1356 14.2686 15.7314L12 13.4629L9.73145 15.7314C9.32725 16.1356 8.67275 16.1356 8.26855 15.7314C7.86436 15.3273 7.86436 14.6727 8.26855 14.2686L10.5371 12L8.26855 9.73145C7.86436 9.32725 7.86436 8.67275 8.26855 8.26855C8.67275 7.86436 9.32725 7.86436 9.73145 8.26855L12 10.5371L14.2686 8.26855ZM23.0352 12C23.0352 18.0945 18.0945 23.0352 12 23.0352C5.90554 23.0352 0.964844 18.0945 0.964844 12C0.964844 5.90554 5.90554 0.964844 12 0.964844C18.0945 0.964844 23.0352 5.90554 23.0352 12Z"/></g><defs><clipPath id="a"><path fill="#fff" d="M0 0H24V24H0z"/></clipPath></defs></svg>