<svg xmlns="http://www.w3.org/2000/svg" width="24" height="24" fill="none" viewBox="0 0 24 24"><path fill="currentColor" d="M17.2685 5.26848C17.6727 4.86428 18.3272 4.86428 18.7314 5.26848C19.1356 5.67267 19.1356 6.32717 18.7314 6.73137L13.4629 11.9999L18.7314 17.2685C19.1356 17.6727 19.1356 18.3272 18.7314 18.7314C18.3272 19.1356 17.6727 19.1356 17.2685 18.7314L12 13.4628L6.73143 18.7314C6.32724 19.1356 5.67273 19.1356 5.26854 18.7314C4.86434 18.3272 4.86434 17.6727 5.26854 17.2685L10.5371 11.9999L5.26854 6.73137C4.86434 6.32717 4.86434 5.67267 5.26854 5.26848C5.67273 4.86428 6.32724 4.86428 6.73143 5.26848L12 10.537L17.2685 5.26848Z"/></svg>