<svg xmlns="http://www.w3.org/2000/svg" width="24" height="24" fill="none" viewBox="0 0 24 24"><path fill="currentColor" d="M16.2685 6.26848C16.6727 5.86428 17.3272 5.86428 17.7314 6.26848C18.1356 6.67267 18.1356 7.32717 17.7314 7.73137L13.4629 11.9999L17.7314 16.2685C18.1356 16.6727 18.1356 17.3272 17.7314 17.7314C17.3272 18.1356 16.6727 18.1356 16.2685 17.7314L12 13.4628L7.73143 17.7314C7.32724 18.1356 6.67273 18.1356 6.26854 17.7314C5.86434 17.3272 5.86434 16.6727 6.26854 16.2685L10.5371 11.9999L6.26854 7.73137C5.86434 7.32717 5.86434 6.67267 6.26854 6.26848C6.67273 5.86428 7.32724 5.86428 7.73143 6.26848L12 10.537L16.2685 6.26848Z"/></svg>