<svg xmlns="http://www.w3.org/2000/svg" width="24" height="24" fill="none" viewBox="0 0 24 24"><path fill="currentColor" d="M12.0723 3.96484C12.1192 3.96494 12.1886 3.96544 12.2764 3.96582C12.4521 3.96657 12.7044 3.9677 13.0118 3.9707C13.6264 3.97671 14.4634 3.98862 15.3506 4.0127C16.2364 4.03673 17.1804 4.07295 18.0059 4.12793C18.7048 4.17448 19.3809 4.23871 19.8672 4.33398L20.0635 4.37598L20.0997 4.38574C20.7027 4.55637 21.2502 4.88317 21.6866 5.33301C22.1229 5.78287 22.4328 6.34029 22.585 6.94824C22.5906 6.9706 22.5956 6.99392 22.5997 7.0166C22.8987 8.67451 23.0442 10.3564 23.0342 12.041C23.0402 13.704 22.8947 15.3644 22.5997 17.001C22.5956 17.0237 22.5906 17.047 22.585 17.0693C22.4328 17.6772 22.1229 18.2347 21.6866 18.6846C21.2502 19.1344 20.7027 19.4612 20.0997 19.6318C20.0949 19.6332 20.0898 19.6345 20.085 19.6357C19.5868 19.7689 18.81 19.851 18.0118 19.9092C17.1846 19.9695 16.2398 20.0098 15.3536 20.0361C14.4656 20.0625 13.6278 20.0755 13.0127 20.082C12.705 20.0853 12.4523 20.0871 12.2764 20.0879C12.1888 20.0883 12.1202 20.0888 12.0733 20.0889H11.9268C11.8799 20.0888 11.8113 20.0883 11.7237 20.0879C11.5478 20.0871 11.2951 20.0853 10.9874 20.082C10.3723 20.0755 9.53455 20.0625 8.64653 20.0361C7.76029 20.0098 6.81554 19.9695 5.98833 19.9092C5.1901 19.851 4.41326 19.7689 3.91509 19.6357L3.90923 19.6338C3.3183 19.4721 2.77925 19.1605 2.3438 18.7295C1.90839 18.2985 1.59069 17.763 1.4229 17.1738C1.41358 17.1411 1.40649 17.1077 1.40044 17.0742C1.10077 15.4129 0.955299 13.7272 0.965869 12.0391C0.958288 10.3672 1.10372 8.69813 1.40044 7.05273L1.41509 6.98535C1.56728 6.3773 1.87713 5.82006 2.31353 5.37012C2.74999 4.92015 3.29724 4.59253 3.90044 4.42188L3.91509 4.41797C4.41326 4.28478 5.19011 4.20275 5.98833 4.14453C6.81554 4.0842 7.7603 4.04392 8.64653 4.01758C9.53455 3.99119 10.3723 3.97826 10.9874 3.97168C11.2951 3.96839 11.5478 3.96665 11.7237 3.96582C11.8113 3.96541 11.8799 3.96495 11.9268 3.96484H12.0723ZM11.9317 6.03516C11.8864 6.03526 11.8194 6.03573 11.7334 6.03613C11.5612 6.03694 11.3127 6.03778 11.0098 6.04102C10.4033 6.0475 9.57904 6.06103 8.70806 6.08691C7.83547 6.11285 6.92377 6.15172 6.13872 6.20898C5.33257 6.26778 4.74482 6.34094 4.45806 6.41602C4.20779 6.48796 3.98024 6.62359 3.79888 6.81055C3.62156 6.99335 3.49543 7.21906 3.42974 7.46484C3.16024 8.97482 3.02763 10.5062 3.03521 12.04V12.0518C3.02556 13.5901 3.15676 15.126 3.42583 16.6406C3.49837 16.8739 3.62593 17.0867 3.79985 17.2588C3.98072 17.4377 4.20422 17.5676 4.44927 17.6357C4.73288 17.7116 5.32469 17.7854 6.13872 17.8447C6.92377 17.902 7.83547 17.9409 8.70806 17.9668C9.57904 17.9927 10.4033 18.0062 11.0098 18.0127C11.3127 18.0159 11.5612 18.0168 11.7334 18.0176C11.8194 18.018 11.8864 18.0185 11.9317 18.0186H12.0684C12.1137 18.0185 12.1807 18.018 12.2667 18.0176C12.4389 18.0168 12.6874 18.0159 12.9903 18.0127C13.5968 18.0062 14.4211 17.9927 15.292 17.9668C16.1646 17.9409 17.0763 17.902 17.8614 17.8447C18.6669 17.786 19.2541 17.7117 19.5411 17.6367C19.7916 17.5648 20.0197 17.4303 20.2012 17.2432C20.3787 17.0602 20.5038 16.834 20.5694 16.5879C20.8367 15.0897 20.9704 13.5707 20.9649 12.0488V12.0391C20.9746 10.4935 20.841 8.95016 20.5694 7.42871C20.5037 7.18298 20.3785 6.9572 20.2012 6.77441C20.0225 6.59018 19.7987 6.45654 19.5528 6.38379C19.2544 6.31422 18.6643 6.24638 17.8682 6.19336C17.0814 6.14096 16.1681 6.10572 15.295 6.08203C14.4232 6.05838 13.5981 6.04694 12.9913 6.04102C12.6883 6.03806 12.44 6.03687 12.2676 6.03613C12.1814 6.03576 12.1139 6.03525 12.0684 6.03516H11.9317ZM10.2784 7.38184C10.5923 7.39195 10.8437 7.50969 10.9883 7.58496C11.1615 7.6751 11.3586 7.80396 11.542 7.92188L15.4854 10.4561C15.6426 10.5571 15.8204 10.6707 15.961 10.7803C16.0844 10.8765 16.2728 11.0395 16.4073 11.29L16.462 11.4023L16.5147 11.5479C16.6206 11.8914 16.6032 12.2634 16.462 12.5977C16.3286 12.9131 16.102 13.1097 15.961 13.2197C15.8204 13.3293 15.6426 13.4429 15.4854 13.5439L11.542 16.0781C11.3586 16.196 11.1615 16.3249 10.9883 16.415C10.8231 16.501 10.5186 16.6422 10.1407 16.6152C9.69656 16.5835 9.28837 16.3603 9.02153 16.0039C8.79445 15.7006 8.7485 15.3681 8.73149 15.1826C8.71369 14.9883 8.71489 14.7531 8.71489 14.5352V9.46582C8.71489 9.24777 8.71368 9.01183 8.73149 8.81738C8.7485 8.63194 8.79445 8.29942 9.02153 7.99609L9.12798 7.86816C9.39097 7.58647 9.75223 7.41251 10.1407 7.38477L10.2784 7.38184ZM10.7852 14.1035L14.0586 12L10.7852 9.89551V14.1035Z"/></svg>