<svg xmlns="http://www.w3.org/2000/svg" width="24" height="24" fill="none" viewBox="0 0 24 24"><g clip-path="url(#a)"><path fill="currentColor" d="M20.9648 12C20.9648 7.04877 16.9512 3.03516 12 3.03516C7.04877 3.03516 3.03516 7.04877 3.03516 12C3.03516 16.9512 7.04877 20.9648 12 20.9648C16.9512 20.9648 20.9648 16.9512 20.9648 12ZM11.1475 4.91406C11.4042 4.54056 11.8738 4.37741 12.3066 4.51172C12.7396 4.64619 13.0352 5.04664 13.0352 5.5V9.46484H15.9795C16.2052 9.46484 16.4462 9.46429 16.6445 9.48242C16.8079 9.49738 17.0901 9.53378 17.3643 9.7002L17.4805 9.78027L17.6084 9.88965C17.851 10.1209 18.0122 10.425 18.0654 10.7559L18.083 10.9238L18.082 11.0654C18.0638 11.3853 17.9347 11.6382 17.8545 11.7812C17.757 11.9551 17.6192 12.1537 17.4912 12.3398L12.8525 19.0859C12.5958 19.4594 12.1262 19.6226 11.6934 19.4883C11.2604 19.3538 10.9648 18.9534 10.9648 18.5V14.5352H8.02051C7.79484 14.5352 7.55378 14.5357 7.35547 14.5176C7.16873 14.5005 6.82741 14.4547 6.51953 14.2197C6.16033 13.9456 5.93941 13.5275 5.91699 13.0762C5.89779 12.6895 6.05379 12.3824 6.14551 12.2188C6.24297 12.0449 6.38084 11.8463 6.50879 11.6602L11.1475 4.91406ZM8.46777 12.4648H12C12.5716 12.4648 13.0352 12.9284 13.0352 13.5V15.167L15.5322 11.5352H12C11.4284 11.5352 10.9648 11.0716 10.9648 10.5V8.83203L8.46777 12.4648ZM23.0352 12C23.0352 18.0945 18.0945 23.0352 12 23.0352C5.90554 23.0352 0.964844 18.0945 0.964844 12C0.964844 5.90554 5.90554 0.964844 12 0.964844C18.0945 0.964844 23.0352 5.90554 23.0352 12Z"/></g><defs><clipPath id="a"><path fill="#fff" d="M0 0H24V24H0z"/></clipPath></defs></svg>