<svg xmlns="http://www.w3.org/2000/svg" width="24" height="24" fill="none" viewBox="0 0 24 24"><path fill="currentColor" d="M16.1582 2.39837C16.4345 2.01168 16.9388 1.86233 17.3809 2.03704C17.8228 2.21182 18.0891 2.66558 18.0264 3.13665L17.1826 9.46477H20.9453C21.1759 9.46477 21.4212 9.46399 21.6221 9.48235C21.7862 9.49737 22.0718 9.5345 22.3486 9.70403L22.4658 9.78508L22.5947 9.89544C22.8381 10.1304 22.9972 10.4397 23.0469 10.7743L23.0625 10.9433L23.0596 11.0859C23.0366 11.4098 22.9005 11.6644 22.8174 11.8066C22.7156 11.9805 22.5724 12.1787 22.4385 12.3661L15.8418 21.6015C15.5655 21.9882 15.0612 22.1375 14.6191 21.9628C14.1772 21.788 13.9109 21.3343 13.9736 20.8632L14.8174 14.5351H11.0547C10.8241 14.5351 10.5788 14.5359 10.3779 14.5175C10.1904 14.5003 9.84445 14.4542 9.53418 14.2148C9.17339 13.9363 8.95439 13.512 8.9375 13.0566C8.92304 12.6647 9.08764 12.3557 9.18262 12.1933C9.28436 12.0193 9.42765 11.8211 9.56152 11.6337L16.1582 2.39837ZM9 16.4648C9.57161 16.4648 10.0352 16.9283 10.0352 17.4999C10.0352 18.0715 9.57161 18.5351 9 18.5351H3.5C2.92839 18.5351 2.46484 18.0715 2.46484 17.4999C2.46484 16.9283 2.92839 16.4648 3.5 16.4648H9ZM11.5117 12.4648H16C16.2983 12.4648 16.5818 12.5939 16.7783 12.8183C16.9748 13.0427 17.0658 13.341 17.0264 13.6366L16.5762 17.0116L20.4883 11.5351H16C15.7017 11.5351 15.4182 11.406 15.2217 11.1816C15.0252 10.9571 14.9342 10.6589 14.9736 10.3632L15.4229 6.98723L11.5117 12.4648ZM6.5 10.9648C7.07161 10.9648 7.53516 11.4283 7.53516 11.9999C7.53516 12.5715 7.07161 13.0351 6.5 13.0351H2C1.42839 13.0351 0.964844 12.5715 0.964844 11.9999C0.964844 11.4283 1.42839 10.9648 2 10.9648H6.5ZM9 5.46477C9.57161 5.46477 10.0352 5.92831 10.0352 6.49993C10.0352 7.07154 9.57161 7.53508 9 7.53508H4C3.42839 7.53508 2.96484 7.07154 2.96484 6.49993C2.96484 5.92831 3.42839 5.46477 4 5.46477H9Z"/></svg>