<svg xmlns="http://www.w3.org/2000/svg" width="24" height="24" fill="none" viewBox="0 0 24 24"><path fill="currentColor" d="M19.9648 7.7998C19.9648 6.94287 19.9643 6.36234 19.9277 5.91406C19.8921 5.47781 19.8277 5.25807 19.751 5.10742C19.5626 4.73794 19.2621 4.43737 18.8926 4.24902C18.7419 4.17227 18.5222 4.10791 18.0859 4.07227C17.6377 4.03565 17.0571 4.03516 16.2002 4.03516H7.7998C6.94287 4.03516 6.36234 4.03565 5.91406 4.07227C5.47781 4.10791 5.25807 4.17227 5.10742 4.24902C4.73794 4.43737 4.43737 4.73794 4.24902 5.10742C4.17227 5.25807 4.10791 5.47781 4.07227 5.91406C4.03565 6.36234 4.03516 6.94287 4.03516 7.7998V16.2002C4.03516 17.0571 4.03565 17.6377 4.07227 18.0859C4.10791 18.5222 4.17227 18.7419 4.24902 18.8926C4.43737 19.2621 4.73794 19.5626 5.10742 19.751C5.25807 19.8277 5.47781 19.8921 5.91406 19.9277C6.36234 19.9643 6.94287 19.9648 7.7998 19.9648H16.2002C17.0571 19.9648 17.6377 19.9643 18.0859 19.9277C18.5222 19.8921 18.7419 19.8277 18.8926 19.751C19.2621 19.5626 19.5626 19.2621 19.751 18.8926C19.8277 18.7419 19.8921 18.5222 19.9277 18.0859C19.9643 17.6377 19.9648 17.0571 19.9648 16.2002V7.7998ZM11.165 5.3877C11.4297 5.02679 11.8969 4.87736 12.3223 5.0166C12.7474 5.15593 13.0352 5.55256 13.0352 6V9.46484H15.9209C16.1548 9.46484 16.403 9.46393 16.6055 9.48242C16.7699 9.49746 17.0583 9.53456 17.3369 9.70605L17.4561 9.78809L17.585 9.90039C17.8284 10.1376 17.9859 10.4495 18.0332 10.7861L18.0479 10.957L18.0439 11.1006C18.0176 11.4271 17.8761 11.6818 17.791 11.8232C17.6862 11.9974 17.5396 12.1963 17.4014 12.3848L12.835 18.6123C12.5703 18.9732 12.1031 19.1226 11.6777 18.9834C11.2526 18.8441 10.9648 18.4474 10.9648 18V14.5352H8.0791C7.8452 14.5352 7.59704 14.5361 7.39453 14.5176C7.20653 14.5004 6.85609 14.4547 6.54395 14.2119C6.18226 13.9306 5.96527 13.502 5.95215 13.0439C5.94094 12.6484 6.11171 12.3384 6.20898 12.1768C6.31375 12.0026 6.4604 11.8037 6.59863 11.6152L11.165 5.3877ZM8.54297 12.4648H12C12.5716 12.4648 13.0352 12.9284 13.0352 13.5V14.8369L15.457 11.5352H12C11.4284 11.5352 10.9648 11.0716 10.9648 10.5V9.16211L8.54297 12.4648ZM22.0352 16.2002C22.0352 17.0231 22.0353 17.7027 21.9902 18.2549C21.9441 18.8191 21.8449 19.341 21.5947 19.832C21.2079 20.591 20.591 21.2079 19.832 21.5947C19.341 21.8449 18.8191 21.9441 18.2549 21.9902C17.7027 22.0353 17.0231 22.0352 16.2002 22.0352H7.7998C6.97689 22.0352 6.29725 22.0353 5.74512 21.9902C5.18095 21.9441 4.65899 21.8449 4.16797 21.5947C3.409 21.2079 2.79208 20.591 2.40527 19.832C2.15509 19.341 2.05588 18.8191 2.00977 18.2549C1.96465 17.7027 1.96484 17.0231 1.96484 16.2002V7.7998C1.96484 6.97689 1.96465 6.29725 2.00977 5.74512C2.05588 5.18095 2.15509 4.65899 2.40527 4.16797C2.79208 3.409 3.409 2.79208 4.16797 2.40527C4.65899 2.15509 5.18095 2.05588 5.74512 2.00977C6.29725 1.96465 6.97689 1.96484 7.7998 1.96484H16.2002C17.0231 1.96484 17.7027 1.96465 18.2549 2.00977C18.8191 2.05588 19.341 2.15509 19.832 2.40527C20.591 2.79208 21.2079 3.409 21.5947 4.16797C21.8449 4.65899 21.9441 5.18095 21.9902 5.74512C22.0353 6.29725 22.0352 6.97689 22.0352 7.7998V16.2002Z"/></svg>