<svg xmlns="http://www.w3.org/2000/svg" width="24" height="24" fill="none" viewBox="0 0 24 24"><path fill="currentColor" d="M2.26854 2.26844C2.67273 1.86425 3.32724 1.86425 3.73143 2.26844L8.7285 7.26551C8.73473 7.27168 8.74101 7.27777 8.74705 7.28407L16.7285 15.2655C16.7347 15.2717 16.741 15.2778 16.7471 15.2841L21.7314 20.2684C22.1356 20.6726 22.1356 21.3271 21.7314 21.7313C21.3272 22.1355 20.6727 22.1355 20.2685 21.7313L16.0693 17.5321L11.7949 22.662C11.5008 23.015 11.0093 23.1321 10.5879 22.9491C10.1666 22.7662 9.91589 22.3277 9.97264 21.872L10.8271 15.035H4.70799C4.4562 15.035 4.19562 15.0356 3.98436 15.0165C3.79447 14.9993 3.42415 14.9541 3.10252 14.6942C2.73558 14.3977 2.5251 13.9482 2.53221 13.4765L2.54393 13.3261C2.58826 12.9872 2.75383 12.7299 2.84862 12.5927C2.96917 12.4181 3.13762 12.2187 3.29881 12.0253L6.59959 8.06239L2.26854 3.73133C1.86434 3.32714 1.86434 2.67264 2.26854 2.26844ZM12.4648 18.6249L14.5996 16.0624L12.9863 14.4491L12.4648 18.6249ZM19.292 8.96473C19.5438 8.96473 19.8043 8.96416 20.0156 8.98329C20.1818 8.99834 20.4855 9.03555 20.7744 9.21864L20.8974 9.30555L21.0273 9.42372C21.3134 9.71474 21.474 10.1105 21.4678 10.5233C21.4614 10.9366 21.2597 11.2502 21.1514 11.4071C21.0308 11.5817 20.8624 11.7811 20.7012 11.9745L19.3457 13.6024C18.9797 14.0416 18.3268 14.1002 17.8877 13.7343C17.4488 13.3684 17.3892 12.7163 17.7549 12.2772L18.79 11.035H15.6504C15.0788 11.035 14.6152 10.5715 14.6152 9.99989C14.6152 9.42827 15.0788 8.96473 15.6504 8.96473H19.292ZM5.20994 12.9647H11.5019L8.06932 9.53211L5.20994 12.9647ZM12.2051 1.33778C12.4992 0.984809 12.9906 0.867714 13.4121 1.05067C13.8334 1.23358 14.0841 1.67211 14.0273 2.12782L13.4277 6.92567C13.3568 7.49287 12.8387 7.89598 12.2715 7.82508C11.7044 7.75403 11.3021 7.23593 11.373 6.66883L11.5342 5.37489L11.3681 5.57508C11.0022 6.01417 10.3493 6.07373 9.91014 5.7079C9.47105 5.34199 9.41149 4.68901 9.77733 4.24989L12.2051 1.33778Z"/></svg>