<svg xmlns="http://www.w3.org/2000/svg" width="24" height="24" fill="none" viewBox="0 0 24 24"><path fill="currentColor" d="M12.2052 1.33778C12.4993 0.984809 12.9908 0.867714 13.4122 1.05067C13.8334 1.2336 14.0842 1.67214 14.0275 2.12782L13.173 8.96473H19.2921C19.5438 8.96473 19.8045 8.96416 20.0157 8.98329C20.1819 8.99835 20.4857 9.03554 20.7745 9.21864L20.8976 9.30555L21.0275 9.42372C21.3135 9.71473 21.4731 10.1105 21.4669 10.5233C21.4606 10.9368 21.2588 11.2503 21.1505 11.4071C21.03 11.5816 20.8625 11.7811 20.7013 11.9745L11.795 22.662C11.5009 23.0149 11.0095 23.132 10.588 22.9491C10.1667 22.7662 9.91601 22.3277 9.97277 21.872L10.8273 15.035H4.70812C4.45633 15.035 4.19576 15.0356 3.98449 15.0165C3.79466 14.9993 3.42434 14.9541 3.10265 14.6942C2.73571 14.3977 2.52523 13.9482 2.53234 13.4765L2.54406 13.3261C2.58841 12.9872 2.75397 12.7299 2.84875 12.5927C2.96925 12.4182 3.13684 12.2186 3.29797 12.0253L12.2052 1.33778ZM5.21007 12.9647H12.0001C12.2969 12.9648 12.5791 13.0928 12.7755 13.3153C12.9718 13.5377 13.0641 13.8334 13.0275 14.1278L12.465 18.6249L18.7902 11.035H12.0001C11.7032 11.035 11.4202 10.907 11.2237 10.6845C11.0276 10.4621 10.9361 10.1662 10.9728 9.87196L11.5343 5.37391L5.21007 12.9647Z"/></svg>