<svg xmlns="http://www.w3.org/2000/svg" width="24" height="24" fill="none" viewBox="0 0 24 24"><path fill="currentColor" d="M17.9648 11C17.9648 7.15334 14.8467 4.03516 11 4.03516C7.15334 4.03516 4.03516 7.15334 4.03516 11C4.03516 14.8467 7.15334 17.9648 11 17.9648C12.8813 17.9648 14.5865 17.2171 15.8398 16.0049C15.8639 15.9748 15.8901 15.9459 15.918 15.918C15.9459 15.8901 15.9748 15.8639 16.0049 15.8398C17.2171 14.5865 17.9648 12.8813 17.9648 11ZM14 9.96484C14.5716 9.96484 15.0352 10.4284 15.0352 11C15.0352 11.5716 14.5716 12.0352 14 12.0352H8C7.42839 12.0352 6.96484 11.5716 6.96484 11C6.96484 10.4284 7.42839 9.96484 8 9.96484H14ZM20.0352 11C20.0352 13.1221 19.3009 15.0714 18.0762 16.6133L21.7314 20.2686C22.1356 20.6727 22.1356 21.3273 21.7314 21.7314C21.3273 22.1356 20.6727 22.1356 20.2686 21.7314L16.6133 18.0762C15.0714 19.3009 13.1221 20.0352 11 20.0352C6.01011 20.0352 1.96484 15.9899 1.96484 11C1.96484 6.01011 6.01011 1.96484 11 1.96484C15.9899 1.96484 20.0352 6.01011 20.0352 11Z"/></svg>