<svg width="24" height="24" viewBox="0 0 24 24" fill="none" xmlns="http://www.w3.org/2000/svg">
<path d="M14 5C14 4.68934 14.2553 4.4442 14.5578 4.37339C15.456 4.16311 16.1631 3.45603 16.3734 2.55775C16.4442 2.25527 16.6893 2 17 2C17.3107 2 17.5558 2.25527 17.6266 2.55775C17.8369 3.45603 18.544 4.16311 19.4422 4.37339C19.7447 4.4442 20 4.68934 20 5C20 5.31066 19.7447 5.5558 19.4422 5.62661C18.544 5.83689 17.8369 6.54397 17.6266 7.44225C17.5558 7.74473 17.3107 8 17 8C16.6893 8 16.4442 7.74473 16.3734 7.44225C16.1631 6.54397 15.456 5.83689 14.5578 5.62661C14.2553 5.5558 14 5.31066 14 5ZM1 12C1 11.4477 1.45108 11.0087 1.99581 10.9177C4.5117 10.4975 6.49749 8.5117 6.91774 5.99581C7.00873 5.45108 7.44772 5 8 5C8.55228 5 8.99127 5.45108 9.08226 5.99581C9.50251 8.5117 11.4883 10.4975 14.0042 10.9177C14.5489 11.0087 15 11.4477 15 12C15 12.5523 14.5489 12.9913 14.0042 13.0823C11.4883 13.5025 9.50251 15.4883 9.08226 18.0042C8.99127 18.5489 8.55228 19 8 19C7.44772 19 7.00873 18.5489 6.91774 18.0042C6.49749 15.4883 4.5117 13.5025 1.99581 13.0823C1.45108 12.9913 1 12.5523 1 12ZM4.87601 12C6.18717 12.7276 7.27243 13.8128 8 15.124C8.72757 13.8128 9.81283 12.7276 11.124 12C9.81283 11.2724 8.72757 10.1872 8 8.87601C7.27243 10.1872 6.18717 11.2724 4.87601 12ZM18 14C17.5858 14 17.2589 14.3404 17.1645 14.7437C16.8841 15.9414 15.9414 16.8841 14.7437 17.1645C14.3404 17.2589 14 17.5858 14 18C14 18.4142 14.3404 18.7411 14.7437 18.8355C15.9414 19.1159 16.8841 20.0586 17.1645 21.2563C17.2589 21.6596 17.5858 22 18 22C18.4142 22 18.7411 21.6596 18.8355 21.2563C19.1159 20.0586 20.0586 19.1159 21.2563 18.8355C21.6596 18.7411 22 18.4142 22 18C22 17.5858 21.6596 17.2589 21.2563 17.1645C20.0586 16.8841 19.1159 15.9414 18.8355 14.7437C18.7411 14.3404 18.4142 14 18 14Z" fill="#111418"/>
</svg>
