<svg fill="none" height="474" viewBox="0 0 479 474" width="479" xmlns="http://www.w3.org/2000/svg" xmlns:xlink="http://www.w3.org/1999/xlink"><linearGradient id="a"><stop offset=".18" stop-color="#0052cc"/><stop offset="1" stop-color="#2684ff"/></linearGradient><linearGradient id="b" gradientUnits="userSpaceOnUse" x1="447.699" x2="440.223" xlink:href="#a" y1="117.161" y2="99.7281"/><linearGradient id="c" gradientUnits="userSpaceOnUse" x1="417.994" x2="425.483" xlink:href="#a" y1="81.697" y2="99.1494"/><clipPath id="d"><path d="m26.2402 358.025h39.7583v39.7583h-39.7583z"/></clipPath><clipPath id="e"><path d="m416.216 83.8572h33.1319v31.4753h-33.1319z"/></clipPath><circle cx="45.7221" cy="45.9218" fill="#fff" r="45.3245" stroke="#dfe0e2" stroke-width=".795167"/><path d="m30.6523 58.9061 1.6072 2.9001c.334.6105.8141 1.0902 1.3777 1.4391l5.7402-10.3791h-11.4804c0 .676.167 1.3519.5009 1.9624z" fill="#0066da"/><path d="m46.1195 40.6554-5.7402-10.379c-.5636.3488-1.0436.8285-1.3776 1.4391l-10.6038 19.1882c-.3278.5974-.5005 1.2738-.5009 1.9624h11.4804z" fill="#00ac47"/><path d="m58.6019 63.2453c.5636-.3489 1.0437-.8286 1.3776-1.4391l.668-1.1993 3.1936-5.7783c.334-.6105.501-1.2864.501-1.9624h-11.4813l2.4431 5.0151z" fill="#ea4335"/><path d="m46.1196 40.6556 5.7402-10.3791c-.5636-.3489-1.2106-.5233-1.8786-.5233h-7.7232c-.6679 0-1.315.1962-1.8786.5233z" fill="#00832d"/><path d="m52.8617 52.8662h-13.4843l-5.7402 10.3791c.5636.3489 1.2107.5233 1.8786.5233h21.2075c.668 0 1.315-.1962 1.8786-.5233z" fill="#2684fc"/><path d="m58.5394 41.3096-5.3019-9.5941c-.334-.6106-.8141-1.0903-1.3777-1.4391l-5.7402 10.379 6.7422 12.2107h11.4595c0-.6759-.167-1.3519-.5009-1.9624z" fill="#ffba00"/><circle cx="45.7221" cy="156.45" fill="#fff" r="45.3245" stroke="#dfe0e2" stroke-width=".795167"/><path d="m36.5381 161.226c0 1.926-1.5551 3.482-3.4793 3.482-1.9241 0-3.4792-1.556-3.4792-3.482 0-1.925 1.5551-3.482 3.4792-3.482h3.4793zm1.7396 0c0-1.925 1.5551-3.482 3.4793-3.482 1.9241 0 3.4792 1.557 3.4792 3.482v8.705c0 1.926-1.5551 3.482-3.4792 3.482-1.9242 0-3.4793-1.556-3.4793-3.482z" fill="#e01e5a"/><path d="m41.757 147.246c-1.9242 0-3.4793-1.557-3.4793-3.482 0-1.926 1.5551-3.483 3.4793-3.483 1.9241 0 3.4792 1.557 3.4792 3.483v3.482zm0 1.767c1.9241 0 3.4792 1.556 3.4792 3.482s-1.5551 3.482-3.4792 3.482h-8.7245c-1.9242 0-3.4793-1.556-3.4793-3.482s1.5551-3.482 3.4793-3.482z" fill="#36c5f0"/><path d="m55.7006 152.495c0-1.926 1.5551-3.482 3.4792-3.482s3.4793 1.556 3.4793 3.482-1.5552 3.482-3.4793 3.482h-3.4792zm-1.7397 0c0 1.926-1.5551 3.482-3.4792 3.482s-3.4793-1.556-3.4793-3.482v-8.731c0-1.926 1.5552-3.483 3.4793-3.483s3.4792 1.557 3.4792 3.483z" fill="#2eb67d"/><path d="m50.4817 166.449c1.9241 0 3.4792 1.557 3.4792 3.482 0 1.926-1.5551 3.482-3.4792 3.482s-3.4793-1.556-3.4793-3.482v-3.482zm0-1.741c-1.9241 0-3.4793-1.556-3.4793-3.482 0-1.925 1.5552-3.482 3.4793-3.482h8.7245c1.9241 0 3.4792 1.557 3.4792 3.482 0 1.926-1.5551 3.482-3.4792 3.482z" fill="#ecb22e"/><circle cx="45.7221" cy="266.978" fill="#fff" r="45.3245" stroke="#dfe0e2" stroke-width=".795167"/><path d="m61.9389 264.07c.8379-2.482.5494-5.2-.7907-7.458-2.0153-3.462-6.0667-5.243-10.0234-4.405-1.7602-1.957-4.2891-3.069-6.9404-3.054-4.0444-.009-7.6329 2.561-8.8772 6.358-2.5982.525-4.8409 2.13-6.1532 4.404-2.0303 3.454-1.5675 7.807 1.145 10.768-.838 2.482-.5495 5.2.7906 7.458 2.0153 3.462 6.0667 5.243 10.0234 4.405 1.759 1.957 4.2891 3.069 6.9404 3.052 4.0468.011 7.6364-2.561 8.8807-6.362 2.5982-.525 4.8409-2.13 6.1532-4.404 2.028-3.453 1.564-7.803-1.1473-10.764zm-13.8832 19.147c-1.6194.002-3.188-.557-4.4311-1.581.0566-.03.1547-.083.2182-.122l7.3547-4.191c.3763-.211.6072-.606.6049-1.033v-10.231l3.1083 1.771c.0335.016.0554.048.06.084v8.473c-.0046 3.767-3.0968 6.822-6.915 6.83zm-14.8712-6.268c-.8114-1.382-1.1034-3.003-.8252-4.576.0542.032.15.09.2181.129l7.3548 4.191c.3728.215.8345.215 1.2085 0l8.9788-5.116v3.542c.0023.036-.015.072-.0439.094l-7.4344 4.236c-3.3115 1.882-7.5406.763-9.4555-2.5zm-1.9356-15.841c.808-1.385 2.0834-2.444 3.6024-2.995 0 .063-.0035.174-.0035.251v8.384c-.0023.426.2285.821.6037 1.032l8.9788 5.115-3.1084 1.771c-.0312.02-.0704.024-.105.009l-7.4356-4.239c-3.3046-1.889-4.438-6.061-2.5336-9.327zm25.5386 5.864-8.9788-5.116 3.1084-1.77c.0311-.02.0704-.024.105-.009l7.4356 4.236c3.3103 1.887 4.4449 6.066 2.5324 9.332-.8091 1.383-2.0834 2.442-3.6012 2.993v-8.634c.0034-.426-.2263-.82-.6002-1.032zm3.0934-4.594c-.0543-.033-.1501-.09-.2182-.129l-7.3548-4.191c-.3728-.216-.8345-.216-1.2085 0l-8.9788 5.116v-3.542c-.0023-.037.015-.072.0439-.095l7.4344-4.232c3.3115-1.885 7.5453-.763 9.4544 2.506.8068 1.38 1.0988 2.996.8252 4.567zm-19.4501 6.313-3.1095-1.771c-.0334-.016-.0554-.048-.06-.085v-8.472c.0023-3.772 3.1037-6.829 6.9266-6.827 1.6171 0 3.1822.56 4.4253 1.581-.0565.03-.1535.083-.2181.122l-7.3548 4.191c-.3763.211-.6072.605-.6048 1.032l-.0047 10.227zm1.6887-3.592 3.9994-2.279 3.9994 2.277v4.557l-3.9994 2.278-3.9994-2.278z" fill="#000"/><circle cx="45.7221" cy="377.507" fill="#fff" r="45.3245" stroke="#dfe0e2" stroke-width=".795167"/><g clip-path="url(#d)"><path clip-rule="evenodd" d="m42.7486 367.692c1.2834-1.336 3.0696-2.164 5.0429-2.164 2.6311 0 4.9113 1.462 6.1391 3.64 1.0899-.487 2.2704-.739 3.4643-.738 4.7359 0 8.5802 3.873 8.5802 8.653s-3.8443 8.653-8.5802 8.653c-.5788 0-1.1431-.058-1.6956-.168-1.0743 1.915-3.128 3.216-5.4668 3.216-.9521.002-1.8921-.214-2.748-.631-1.0889 2.558-3.625 4.355-6.5776 4.355-3.0842 0-5.7007-1.944-6.7092-4.677-.4489.095-.9065.142-1.3653.142-3.6689 0-6.6361-3.011-6.6361-6.709 0-2.485 1.336-4.648 3.3181-5.818-.4205-.968-.637-2.013-.6359-3.069 0-4.268 3.4643-7.718 7.7324-7.718 2.4995 0 4.7359 1.191 6.1392 3.04" fill="#00a1e0" fill-rule="evenodd"/></g><circle cx="174.609" cy="99.1977" fill="#fff" r="45.3245" stroke="#dfe0e2" stroke-width=".795167"/><path d="m160.098 84.6855h14.0811v14.0811h-14.0811z" fill="#f25022"/><path d="m160.098 100.423h14.0811v14.0811h-14.0811z" fill="#00a4ef"/><path d="m175.835 84.6855h14.0811v14.0811h-14.0811z" fill="#7fba00"/><path d="m175.835 100.423h14.0811v14.0811h-14.0811z" fill="#ffb900"/><circle cx="174.609" cy="209.726" fill="#fff" r="45.3245" stroke="#dfe0e2" stroke-width=".795167"/><path d="m183.071 196.871h-5.581l10.159 25.726h5.581zm-16.127 0-10.159 25.726h5.694l2.05-5.403h10.66l2.073 5.403h5.695l-10.182-25.726zm-.547 15.542 3.462-9.047 3.485 9.047z" fill="#000"/><circle cx="174.609" cy="320.255" fill="#fff" r="45.3245" stroke="#dfe0e2" stroke-width=".795167"/><g fill="#1a1c20"><path d="m163.41 309.885h1.61807v21.5358h-1.61807z"/><path d="m180.669 322.806h1.61807v8.61431h-1.61807z"/><path d="m176.354 314.192h1.61807v4.30715h-1.61807z"/><path d="m172.04 322.806h1.61807v4.30715h-1.61807z"/><path d="m180.669 309.885h1.61807v4.30715h-1.61807z"/></g><path d="m165.028 309.885h4.31486v4.30715h-4.31486z" fill="#ffcd00"/><path d="m182.287 309.885h4.31486v4.30715h-4.31486z" fill="#ffcd00"/><path d="m165.028 314.192h4.31486v4.30715h-4.31486z" fill="#ffa301"/><path d="m182.287 314.192h4.31486v4.30715h-4.31486z" fill="#ffa301"/><path d="m169.343 314.192h4.31486v4.30715h-4.31486z" fill="#ffa301"/><path d="m177.973 314.192h4.31486v4.30715h-4.31486z" fill="#ffa301"/><path d="m165.028 318.499h4.31486v4.30715h-4.31486z" fill="#ff6f00"/><path d="m182.287 318.499h4.31486v4.30715h-4.31486z" fill="#ff6f00"/><path d="m169.343 318.499h4.31486v4.30715h-4.31486z" fill="#ff6f00"/><path d="m177.973 318.499h4.31486v4.30715h-4.31486z" fill="#ff6f00"/><path d="m173.658 318.499h4.31486v4.30715h-4.31486z" fill="#ff6f00"/><path d="m165.028 322.806h4.31486v4.30715h-4.31486z" fill="#ff4606"/><path d="m182.287 322.806h4.31486v4.30715h-4.31486z" fill="#ff4606"/><path d="m173.658 322.806h4.31486v4.30715h-4.31486z" fill="#ff4606"/><path d="m165.028 327.113h4.31486v4.30715h-4.31486z" fill="#ff0107"/><path d="m182.287 327.113h4.31486v4.30715h-4.31486z" fill="#ff0107"/><circle cx="303.496" cy="45.9218" fill="#fff" r="45.3245" stroke="#dfe0e2" stroke-width=".795167"/><path d="m290.15 31.1821 18.333-1.3541c2.252-.1932 2.83-.063 4.246.9664l5.852 4.1226c.965.709 1.287.9022 1.287 1.6742v22.6102c0 1.4171-.515 2.2553-2.316 2.3832l-21.289 1.2895c-1.352.0639-1.996-.1292-2.704-1.0314l-4.309-5.6039c-.773-1.0314-1.094-1.8034-1.094-2.7059v-20.0979c0-1.1586.515-2.1247 1.994-2.2529z" fill="#fff"/><path clip-rule="evenodd" d="m308.483 29.8283-18.333 1.3541c-1.479.1279-1.994 1.0943-1.994 2.2526v20.0979c0 .9022.321 1.6741 1.094 2.7059l4.309 5.6036c.708.9021 1.352 1.0956 2.704 1.0314l21.289-1.2889c1.8-.1282 2.316-.9664 2.316-2.3832v-22.6102c0-.7322-.289-.9433-1.141-1.5681l-5.998-4.229c-1.416-1.0294-1.994-1.1596-4.246-.9664zm-11.739 6.3931c-1.738.117-2.133.1435-3.12-.6593l-2.51-1.9965c-.255-.2585-.127-.5808.516-.6451l17.624-1.2878c1.48-.1293 2.25.3866 2.829.8372l3.023 2.19c.129.0653.45.4506.064.4506l-18.201 1.0957zm-2.027 22.7872v-19.1943c0-.8383.258-1.2249 1.028-1.2899l20.905-1.2239c.709-.0639 1.029.3867 1.029 1.2236v19.0664c0 .8383-.129 1.5473-1.286 1.6112l-20.004 1.1597c-1.158.0639-1.671-.3214-1.671-1.3528zm19.747-18.1653c.128.5798 0 1.1597-.58 1.2259l-.964.1912v14.1715c-.837.4506-1.608.708-2.252.708-1.029 0-1.286-.3223-2.057-1.2878l-6.305-9.9197v9.5973l1.994.4516s0 1.1596-1.609 1.1596l-4.436.2575c-.13-.2585 0-.9022.449-1.0304l1.159-.3214v-12.6895l-1.608-.1303c-.129-.5798.192-1.417 1.093-1.4819l4.76-.3204 6.56 10.0479v-8.8893l-1.672-.1922c-.129-.71.386-1.2259 1.028-1.2888z" fill="#000" fill-rule="evenodd"/><circle cx="303.496" cy="156.45" fill="#fff" r="45.3245" stroke="#dfe0e2" stroke-width=".795167"/><path d="m305.682 143.595v20.06l16.676-20.06z" fill="#000"/><path d="m294.009 151.953c-4.605 0-8.338-3.742-8.338-8.358h16.676c0 4.616-3.733 8.358-8.338 8.358z" fill="#000"/><path d="m314.02 161.983c4.605 0 8.338 3.743 8.338 8.359h-16.676c0-4.616 3.733-8.359 8.338-8.359z" fill="#000"/><path d="m302.347 150.282v20.06h-16.676z" fill="#000"/><circle cx="303.496" cy="266.978" fill="#fff" r="45.3245" stroke="#dfe0e2" stroke-width=".795167"/><path clip-rule="evenodd" d="m320.523 267.753c0-1.175-.108-2.305-.308-3.389h-15.957v6.408h9.118c-.393 2.071-1.586 3.825-3.381 5v4.157h5.476c3.203-2.884 5.052-7.131 5.052-12.176z" fill="#4285f4" fill-rule="evenodd"/><path clip-rule="evenodd" d="m304.258 283.942c4.574 0 8.409-1.483 11.212-4.014l-5.475-4.156c-1.517.994-3.458 1.581-5.737 1.581-4.413 0-8.148-2.914-9.48-6.83h-5.661v4.293c2.788 5.414 8.518 9.126 15.141 9.126z" fill="#34a853" fill-rule="evenodd"/><path clip-rule="evenodd" d="m294.778 270.524c-.339-.994-.532-2.056-.532-3.148s.193-2.153.532-3.147v-4.292h-5.661c-1.147 2.236-1.802 4.766-1.802 7.439s.655 5.203 1.802 7.44z" fill="#fbbc05" fill-rule="evenodd"/><path clip-rule="evenodd" d="m304.258 257.399c2.487 0 4.72.836 6.476 2.477l4.86-4.751c-2.934-2.673-6.77-4.315-11.336-4.315-6.623 0-12.353 3.712-15.141 9.126l5.661 4.293c1.332-3.916 5.067-6.83 9.48-6.83z" fill="#ea4335" fill-rule="evenodd"/><circle cx="303.496" cy="377.507" fill="#fff" r="45.3245" stroke="#dfe0e2" stroke-width=".795167"/><path d="m298.95 382.602c.442-.254.941-.329 1.406-.239.979.155 1.728 1.002 1.728 2.026v8.113c0 1.131-.92 2.05-2.051 2.05-1.134 0-2.052-.919-2.053-2.05v-4.582l-3.982 2.298c-.985.57-2.244.233-2.814-.755-.57-.985-.229-2.244.755-2.811zm7.026.755c.57-.985 1.83-1.322 2.815-.755l7.011 4.05c.988.567 1.325 1.826.755 2.811-.567.985-1.83 1.326-2.815.756l-3.928-2.269v4.552c0 1.131-.919 2.05-2.05 2.05-1.134 0-2.054-.919-2.054-2.05v-7.916c-.042-.415.045-.841.266-1.229zm11.392-11.253c.985-.57 2.248-.232 2.816.756.569.985.232 2.244-.756 2.811l-3.97 2.292 3.97 2.292c.985.57 1.326 1.831.756 2.816-.571.984-1.831 1.322-2.816.754l-7.011-4.05c-.665-.382-1.036-1.084-1.03-1.803-.012-.722.359-1.432 1.03-1.82zm-28.023-.227c.349 0 .698.093 1.003.269l7.011 4.048c.633.367 1.018 1.047 1.006 1.778.006.725-.379 1.4-1.006 1.765l-7.011 4.046c-.305.176-.654.269-1.006.269-.716 0-1.385-.385-1.743-1.006-.269-.465-.34-1.009-.2-1.528.138-.519.471-.952.937-1.221l4.042-2.334-4.042-2.331c-.961-.555-1.292-1.788-.737-2.749.358-.621 1.027-1.006 1.746-1.006zm14.896 2.251c.155 0 .373.089.484.199l2.779 2.783c.11.11.2.325.2.483v.707c0 .155-.09.371-.2.484l-2.779 2.779c-.111.11-.329.2-.484.2h-.707c-.155 0-.373-.09-.483-.2l-2.782-2.779c-.111-.113-.201-.329-.201-.484v-.707c0-.158.09-.373.201-.483l2.782-2.783c.11-.11.328-.199.483-.199zm-.37 2.48c-.113 0-.271.066-.354.149l-.819.818c-.08.081-.146.239-.146.355v.03c0 .117.066.275.146.356l.819.82c.083.08.241.146.354.146h.03c.117 0 .275-.065.356-.146l.82-.82c.081-.081.147-.239.147-.356v-.03c-.001-.113-.066-.271-.147-.355l-.82-.818c-.081-.083-.239-.149-.356-.149zm3.894-15.27c1.131 0 2.05.92 2.05 2.054v4.587l3.928-2.268c.985-.57 2.245-.233 2.815.752s.23 2.247-.755 2.815l-7.012 4.046c-.985.57-2.244.233-2.814-.751-.224-.388-.305-.818-.266-1.23v-7.951c0-1.134.919-2.054 2.054-2.054zm-7.732 0c1.131 0 2.051.92 2.051 2.054v8.112c0 .597-.253 1.135-.662 1.511-.645.63-1.654.784-2.472.309l-7.011-4.046c-.984-.57-1.325-1.83-.755-2.815s1.829-1.322 2.814-.752l3.982 2.298v-4.617c0-1.134.919-2.054 2.053-2.054z" fill="#29b5e8"/><circle cx="432.383" cy="99.1972" fill="#fff" r="45.3245" stroke="#dfe0e2" stroke-width=".795167"/><g clip-path="url(#e)"><path d="m417.417 107.885c-.342.553-.728 1.193-1.054 1.705-.292.489-.135 1.118.352 1.417l6.853 4.17c.24.146.531.193.806.126s.511-.24.655-.48c.274-.454.628-1.043 1.012-1.672 2.715-4.431 5.445-3.888 10.37-1.564l6.795 3.195c.257.121.554.134.82.036.267-.099.483-.299.598-.557l3.263-7.297c.231-.52-.004-1.128-.527-1.366-1.433-.667-4.285-1.996-6.852-3.221-9.238-4.4363-17.087-4.1489-23.091 5.508z" fill="url(#b)"/><path d="m448.146 91.3261c.342-.5528.728-1.1929 1.054-1.7046.292-.4887.135-1.1185-.352-1.4174l-6.854-4.1687c-.243-.1616-.543-.2167-.827-.1513-.285.0654-.529.245-.676.4951-.273.4541-.628 1.0428-1.012 1.6726-2.715 4.4303-5.445 3.8878-10.369 1.5636l-6.774-3.1785c-.257-.1206-.554-.1334-.82-.0359-.267.0988-.482.2989-.598.5567l-3.263 7.2971c-.231.5207.004 1.1287.527 1.366 1.434.667 4.285 1.9958 6.853 3.2208 9.256 4.4304 17.105 4.1324 23.111-5.5142z" fill="url(#c)"/></g><circle cx="432.383" cy="209.726" fill="#fff" r="45.3245" stroke="#dfe0e2" stroke-width=".795167"/><path d="m432.792 193.557c.936.002 1.856.081 2.751.23v9.645l6.838-6.82c.755.536 1.461 1.133 2.114 1.785.654.651 1.254 1.358 1.792 2.111l-6.838 6.82h9.669c.15.892.23 1.806.23 2.742v.022c0 .935-.08 1.852-.23 2.744h-9.671l6.84 6.818c-.538.753-1.138 1.46-1.79 2.111h-.002c-.653.652-1.359 1.25-2.112 1.785l-6.84-6.82v9.644c-.893.15-1.813.229-2.749.231h-.024c-.936-.002-1.853-.081-2.748-.231v-9.644l-6.837 6.82c-1.51-1.071-2.831-2.39-3.906-3.896l6.838-6.818h-9.67c-.152-.894-.231-1.814-.231-2.749v-.048c.001-.243.017-.539.04-.846l.007-.092c.068-.864.184-1.773.184-1.773h9.67l-6.838-6.82c.536-.753 1.134-1.458 1.787-2.108l.003-.003c.652-.652 1.36-1.249 2.116-1.785l6.837 6.82v-9.645c.895-.149 1.814-.228 2.751-.23zm-.001 12.394h-.016c-1.231 0-2.41.225-3.499.634-.409 1.085-.635 2.261-.636 3.488v.016c.001 1.227.227 2.403.637 3.488 1.088.409 2.267.634 3.498.634h.016c1.23 0 2.409-.225 3.497-.634.41-1.087.636-2.261.636-3.488v-.016c0-1.227-.226-2.403-.636-3.488-1.088-.409-2.267-.634-3.497-.634z" fill="#ff4a00"/><circle cx="432.383" cy="320.254" fill="#fff" r="45.3245" stroke="#dfe0e2" stroke-width=".795167"/><path d="m449.017 311.123c-.334-.163-.477.147-.672.305-.066.052-.123.119-.179.179-.488.522-1.058.864-1.8.823-1.089-.06-2.017.282-2.837 1.116-.175-1.028-.755-1.641-1.636-2.035-.463-.205-.929-.409-1.252-.854-.226-.316-.287-.668-.401-1.015-.071-.21-.144-.425-.384-.461-.261-.042-.364.179-.466.362-.411.751-.569 1.58-.555 2.418.036 1.885.832 3.386 2.412 4.455.18.122.226.246.169.425-.108.367-.235.724-.35 1.092-.071.236-.178.288-.43.184-.867-.362-1.616-.898-2.277-1.548-1.124-1.087-2.14-2.288-3.407-3.228-.298-.22-.594-.425-.902-.618-1.293-1.258.17-2.292.508-2.413.354-.126.122-.566-1.021-.561s-2.19.388-3.523.898c-.196.077-.4.134-.611.178-1.21-.227-2.467-.279-3.78-.131-2.473.277-4.447 1.447-5.9 3.445-1.743 2.399-2.154 5.127-1.652 7.974.529 2.998 2.057 5.482 4.407 7.424 2.436 2.011 5.242 2.997 8.443 2.808 1.944-.111 4.109-.372 6.55-2.44.616.305 1.262.427 2.335.52.825.078 1.62-.042 2.236-.169.964-.204.897-1.097.549-1.263-2.827-1.317-2.207-.781-2.771-1.213 1.437-1.704 3.602-3.471 4.449-9.197.066-.456.009-.741 0-1.11-.005-.223.045-.311.301-.337.708-.08 1.396-.274 2.027-.623 1.831-1.002 2.569-2.645 2.743-4.618.026-.301-.005-.614-.322-.772zm-15.958 17.749c-2.74-2.156-4.068-2.866-4.616-2.835-.513.028-.421.616-.308.999.118.378.272.64.488.971.149.22.251.548-.148.792-.883.549-2.417-.184-2.489-.22-1.785-1.051-3.277-2.441-4.33-4.341-1.015-1.83-1.605-3.792-1.702-5.886-.025-.508.123-.687.626-.777.661-.122 1.344-.147 2.005-.051 2.796.409 5.176 1.661 7.17 3.641 1.139 1.131 2.001 2.48 2.889 3.797.943 1.401 1.96 2.734 3.252 3.826.456.383.821.675 1.169.891-1.051.117-2.806.142-4.006-.808zm1.313-8.457c0-.226.18-.404.407-.404.05 0 .097.01.138.026.056.021.108.051.148.098.073.07.114.174.114.28 0 .225-.18.404-.405.404-.226 0-.402-.179-.402-.404zm4.078 2.097c-.261.106-.522.199-.773.209-.39.018-.816-.14-1.048-.334-.359-.3-.614-.468-.723-.996-.045-.226-.02-.572.02-.772.094-.43-.01-.704-.312-.955-.247-.204-.559-.258-.903-.258-.128 0-.246-.057-.334-.104-.143-.072-.261-.251-.148-.471.036-.07.211-.243.252-.274.466-.266 1.004-.179 1.502.021.463.188.811.536 1.312 1.025.514.592.606.758.898 1.201.231.35.442.707.585 1.116.087.253-.025.463-.328.592z" fill="#4d6bfe"/></svg>