<svg width="659" height="399" viewBox="0 0 659 399" fill="none" xmlns="http://www.w3.org/2000/svg">
<circle cx="57.5" cy="57.5" r="57" fill="white" stroke="#DFE0E2"/>
<path d="M38.5481 73.8294L40.5694 77.4765C40.9894 78.2443 41.5931 78.8476 42.3019 79.2863L49.5208 66.2336H35.083C35.083 67.0837 35.293 67.9338 35.713 68.7016L38.5481 73.8294Z" fill="#0066DA"/>
<path d="M57.9997 50.8774L50.7808 37.8247C50.072 38.2635 49.4683 38.8667 49.0483 39.6345L35.713 63.7656C35.3007 64.5168 35.0836 65.3676 35.083 66.2335H49.5208L57.9997 50.8774Z" fill="#00AC47"/>
<path d="M73.6975 79.2863C74.4062 78.8476 75.01 78.2443 75.43 77.4765L76.27 75.9683L80.2863 68.7016C80.7063 67.9338 80.9164 67.0837 80.9164 66.2336H66.4775L69.5499 72.5406L73.6975 79.2863Z" fill="#EA4335"/>
<path d="M58.0001 50.8776L65.219 37.8249C64.5103 37.3861 63.6965 37.1667 62.8565 37.1667H53.1438C52.3038 37.1667 51.49 37.4135 50.7812 37.8249L58.0001 50.8776Z" fill="#00832D"/>
<path d="M66.4784 66.2336H49.5206L42.3018 79.2863C43.0105 79.7251 43.8243 79.9445 44.6643 79.9445H71.3348C72.1748 79.9445 72.9886 79.6977 73.6973 79.2863L66.4784 66.2336Z" fill="#2684FC"/>
<path d="M73.619 51.7001L66.9514 39.6345C66.5314 38.8667 65.9276 38.2635 65.2189 37.8247L58 50.8774L66.4789 66.2335H80.8904C80.8904 65.3835 80.6804 64.5334 80.2604 63.7656L73.619 51.7001Z" fill="#FFBA00"/>
<circle cx="57.5" cy="199.5" r="57" fill="white" stroke="#DFE0E2"/>
<path d="M45.9512 205.507C45.9512 207.929 43.9955 209.886 41.5757 209.886C39.1559 209.886 37.2002 207.929 37.2002 205.507C37.2002 203.085 39.1559 201.128 41.5757 201.128H45.9512V205.507ZM48.1389 205.507C48.1389 203.085 50.0947 201.128 52.5144 201.128C54.9342 201.128 56.8899 203.085 56.8899 205.507V216.454C56.8899 218.876 54.9342 220.833 52.5144 220.833C50.0947 220.833 48.1389 218.876 48.1389 216.454V205.507Z" fill="#E01E5A"/>
<path d="M52.5144 187.925C50.0946 187.925 48.1389 185.967 48.1389 183.546C48.1389 181.124 50.0946 179.167 52.5144 179.167C54.9342 179.167 56.8899 181.124 56.8899 183.546V187.925H52.5144ZM52.5144 190.147C54.9342 190.147 56.8899 192.105 56.8899 194.526C56.8899 196.948 54.9342 198.905 52.5144 198.905H41.5425C39.1227 198.905 37.167 196.948 37.167 194.526C37.167 192.105 39.1227 190.147 41.5425 190.147H52.5144Z" fill="#36C5F0"/>
<path d="M70.0491 194.526C70.0491 192.105 72.0048 190.147 74.4246 190.147C76.8444 190.147 78.8001 192.105 78.8001 194.526C78.8001 196.948 76.8444 198.905 74.4246 198.905H70.0491V194.526ZM67.8613 194.526C67.8613 196.948 65.9056 198.905 63.4858 198.905C61.0661 198.905 59.1104 196.948 59.1104 194.526V183.546C59.1104 181.124 61.0661 179.167 63.4858 179.167C65.9056 179.167 67.8613 181.124 67.8613 183.546V194.526Z" fill="#2EB67D"/>
<path d="M63.4858 212.075C65.9056 212.075 67.8613 214.033 67.8613 216.454C67.8613 218.876 65.9056 220.833 63.4858 220.833C61.0661 220.833 59.1104 218.876 59.1104 216.454V212.075H63.4858ZM63.4858 209.886C61.0661 209.886 59.1104 207.929 59.1104 205.507C59.1104 203.085 61.0661 201.128 63.4858 201.128H74.4577C76.8775 201.128 78.8332 203.085 78.8332 205.507C78.8332 207.929 76.8775 209.886 74.4577 209.886H63.4858Z" fill="#ECB22E"/>
<circle cx="193.5" cy="57.5" r="57" fill="white" stroke="#DFE0E2"/>
<g clip-path="url(#clip0_1273_16155)">
<path fill-rule="evenodd" clip-rule="evenodd" d="M189.761 45.1567C191.375 43.4766 193.622 42.4362 196.103 42.4362C199.412 42.4362 202.28 44.2744 203.824 47.0134C205.195 46.4006 206.679 46.0843 208.181 46.0851C214.136 46.0851 218.971 50.9564 218.971 56.9674C218.971 62.9784 214.136 67.8498 208.181 67.8498C207.453 67.8498 206.743 67.7766 206.048 67.6384C204.697 70.0465 202.114 71.6825 199.173 71.6825C197.976 71.6848 196.794 71.4132 195.717 70.8884C194.348 74.1053 191.159 76.3663 187.445 76.3663C183.567 76.3663 180.276 73.9214 179.008 70.4839C178.443 70.6031 177.868 70.663 177.291 70.6626C172.677 70.6626 168.945 66.8759 168.945 62.2251C168.945 59.1001 170.625 56.3795 173.118 54.9089C172.589 53.6908 172.317 52.3767 172.318 51.0487C172.318 45.681 176.675 41.3428 182.043 41.3428C185.186 41.3428 187.999 42.8409 189.763 45.1663" fill="#00A1E0"/>
</g>
<circle cx="329.5" cy="57.5" r="57" fill="white" stroke="#DFE0E2"/>
<path fill-rule="evenodd" clip-rule="evenodd" d="M330 37.1667C318.49 37.1667 309.167 46.5485 309.167 58.1315C309.167 67.4084 315.131 75.2439 323.412 78.0218C324.453 78.2052 324.844 77.5763 324.844 77.0259C324.844 76.528 324.818 74.877 324.818 73.1213C319.584 74.0909 318.229 71.8372 317.813 70.6579C317.578 70.0552 316.563 68.1945 315.677 67.6966C314.948 67.3035 313.907 66.3339 315.651 66.3077C317.292 66.2815 318.464 67.8277 318.854 68.4566C320.729 71.6275 323.724 70.7365 324.922 70.1862C325.104 68.8235 325.651 67.9063 326.25 67.3822C321.615 66.858 316.771 65.0498 316.771 57.0308C316.771 54.7509 317.578 52.8641 318.907 51.3966C318.698 50.8724 317.969 48.7236 319.115 45.8409C319.115 45.8409 320.86 45.2906 324.844 47.9898C326.511 47.5181 328.282 47.2822 330.052 47.2822C331.823 47.2822 333.594 47.5181 335.261 47.9898C339.245 45.2644 340.99 45.8409 340.99 45.8409C342.136 48.7236 341.407 50.8724 341.198 51.3966C342.526 52.8641 343.334 54.7247 343.334 57.0308C343.334 65.076 338.464 66.858 333.828 67.3822C334.584 68.0373 335.235 69.2952 335.235 71.2606C335.235 74.0647 335.209 76.3184 335.209 77.0259C335.209 77.5763 335.599 78.2314 336.641 78.0218C344.87 75.2439 350.834 67.3822 350.834 58.1315C350.834 46.5485 341.511 37.1667 330 37.1667Z" fill="black"/>
<circle cx="465.5" cy="57.5" r="57" fill="white" stroke="#DFE0E2"/>
<path d="M448.715 38.9638L471.771 37.2609C474.603 37.018 475.33 37.1818 477.111 38.4763L484.471 43.6609C485.684 44.5526 486.088 44.7955 486.088 45.7663V74.2009C486.088 75.983 485.441 77.0372 483.176 77.198L456.403 78.8197C454.703 78.9001 453.893 78.6572 453.003 77.5226L447.583 70.4751C446.611 69.178 446.208 68.2072 446.208 67.0722V41.7972C446.208 40.3401 446.855 39.1251 448.715 38.9638Z" fill="white"/>
<path fill-rule="evenodd" clip-rule="evenodd" d="M471.771 37.2613L448.715 38.9643C446.855 39.1251 446.208 40.3405 446.208 41.7972V67.0722C446.208 68.2068 446.611 69.1776 447.583 70.4751L453.003 77.5222C453.893 78.6568 454.703 78.9001 456.403 78.8193L483.176 77.1984C485.44 77.0372 486.089 75.983 486.089 74.2013V45.7668C486.089 44.8459 485.725 44.5805 484.654 43.7947L477.111 38.4763C475.331 37.1818 474.603 37.018 471.771 37.2609V37.2613ZM457.008 45.3013C454.822 45.4484 454.326 45.4818 453.084 44.4722L449.928 41.9613C449.607 41.6363 449.768 41.2309 450.576 41.1501L472.74 39.5305C474.601 39.368 475.571 40.0168 476.298 40.5834L480.1 43.3376C480.262 43.4197 480.666 43.9043 480.18 43.9043L457.291 45.2822L457.008 45.3013ZM454.459 73.9584V49.8197C454.459 48.7655 454.783 48.2793 455.752 48.1976L482.041 46.6584C482.933 46.578 483.336 47.1447 483.336 48.1972V72.1751C483.336 73.2293 483.173 74.1209 481.718 74.2013L456.561 75.6597C455.106 75.7401 454.46 75.2555 454.46 73.9584H454.459ZM479.293 51.1138C479.454 51.843 479.293 52.5722 478.563 52.6555L477.351 52.8959V70.718C476.298 71.2847 475.329 71.6084 474.519 71.6084C473.224 71.6084 472.901 71.203 471.931 69.9888L464.002 57.5138V69.5834L466.511 70.1513C466.511 70.1513 466.511 71.6097 464.487 71.6097L458.908 71.9334C458.745 71.6084 458.908 70.7988 459.473 70.6376L460.93 70.2334V54.2751L458.908 54.1113C458.746 53.3822 459.15 52.3293 460.283 52.2476L466.269 51.8447L474.519 64.4809V53.3018L472.416 53.0601C472.254 52.1672 472.901 51.5184 473.709 51.4393L479.293 51.1138Z" fill="black"/>
<circle cx="601.5" cy="57.5" r="57" fill="white" stroke="#DFE0E2"/>
<g clip-path="url(#clip1_1273_16155)">
<path d="M582.678 68.4262C582.247 69.1214 581.763 69.9263 581.351 70.5699C580.984 71.1845 581.182 71.9765 581.795 72.3524L590.413 77.5965C590.715 77.7804 591.08 77.8385 591.426 77.7546C591.772 77.6707 592.069 77.4529 592.25 77.1513C592.595 76.5803 593.04 75.8399 593.523 75.0478C596.938 69.4763 600.371 70.1586 606.564 73.0815L615.11 77.0997C615.433 77.2513 615.807 77.2674 616.141 77.1448C616.477 77.0206 616.748 76.769 616.893 76.4448L620.997 67.268C621.287 66.6131 620.992 65.8485 620.334 65.55C618.531 64.7112 614.945 63.0401 611.716 61.4996C600.1 55.92 590.229 56.2813 582.678 68.4262Z" fill="url(#paint0_linear_1273_16155)"/>
<path d="M621.322 47.6012C621.752 46.9059 622.237 46.101 622.648 45.4574C623.015 44.8428 622.818 44.0508 622.204 43.6749L613.585 38.4324C613.28 38.2292 612.903 38.1598 612.546 38.2421C612.187 38.3244 611.88 38.5502 611.696 38.8647C611.351 39.4358 610.906 40.1762 610.423 40.9682C607.008 46.5398 603.575 45.8574 597.382 42.9345L588.864 38.9373C588.541 38.7857 588.167 38.7696 587.832 38.8922C587.496 39.0164 587.225 39.268 587.08 39.5922L582.977 48.769C582.686 49.424 582.982 50.1886 583.639 50.487C585.442 51.3258 589.028 52.9969 592.257 54.5374C603.898 60.109 613.769 59.7347 621.322 47.6028V47.6012Z" fill="url(#paint1_linear_1273_16155)"/>
</g>
<circle cx="193.5" cy="199.5" r="57" fill="white" stroke="#DFE0E2"/>
<rect x="175.25" y="181.25" width="17.7083" height="17.7083" fill="#F25022"/>
<rect x="175.25" y="201.042" width="17.7083" height="17.7083" fill="#00A4EF"/>
<rect x="195.042" y="181.25" width="17.7083" height="17.7083" fill="#7FBA00"/>
<rect x="195.042" y="201.042" width="17.7083" height="17.7083" fill="#FFB900"/>
<circle cx="329.5" cy="199.5" r="57" fill="white" stroke="#DFE0E2"/>
<path d="M332.083 183.333L332.083 208.333L352.916 183.333L332.083 183.333Z" fill="black"/>
<path d="M317.5 193.75C311.747 193.75 307.083 189.086 307.083 183.333H327.916C327.916 189.086 323.253 193.75 317.5 193.75Z" fill="black"/>
<path d="M342.5 206.25C348.253 206.25 352.916 210.914 352.916 216.667H332.083C332.083 210.914 336.747 206.25 342.5 206.25Z" fill="black"/>
<path d="M327.916 191.667V216.667H307.083L327.916 191.667Z" fill="black"/>
<circle cx="465.5" cy="199.5" r="57" fill="white" stroke="#DFE0E2"/>
<path fill-rule="evenodd" clip-rule="evenodd" d="M459.781 194.241L450.964 189.151C449.725 188.434 449.297 186.85 450.014 185.611C450.731 184.373 452.315 183.949 453.554 184.666L458.561 187.556V181.749C458.561 180.323 459.717 179.167 461.144 179.167C462.566 179.167 463.722 180.323 463.722 181.749V191.951C463.722 192.702 463.403 193.378 462.889 193.851C462.078 194.643 460.81 194.838 459.781 194.241ZM459.045 200.086C459.06 199.166 458.576 198.31 457.78 197.849L448.963 192.759C448.58 192.537 448.141 192.421 447.702 192.421C446.797 192.421 445.956 192.905 445.506 193.686C444.808 194.894 445.224 196.445 446.433 197.143L451.515 200.074L446.433 203.01C445.847 203.348 445.427 203.892 445.254 204.545C445.078 205.198 445.168 205.881 445.506 206.467C445.956 207.248 446.797 207.732 447.698 207.732C448.141 207.732 448.58 207.615 448.963 207.394L457.78 202.304C458.568 201.846 459.053 200.998 459.045 200.086ZM480.974 211.001L472.156 205.907C470.918 205.194 469.334 205.618 468.617 206.857C468.339 207.345 468.23 207.882 468.283 208.403V218.358C468.283 219.781 469.439 220.937 470.865 220.937C472.288 220.937 473.444 219.781 473.444 218.358V212.634L478.384 215.487C479.622 216.203 481.21 215.776 481.923 214.537C482.64 213.298 482.216 211.714 480.974 211.001ZM470.79 200.498C470.79 200.694 470.677 200.964 470.538 201.106L467.043 204.601C466.905 204.74 466.631 204.853 466.435 204.853H465.546C465.351 204.853 465.077 204.74 464.938 204.601L461.439 201.106C461.3 200.964 461.188 200.694 461.188 200.498V199.609C461.188 199.41 461.3 199.14 461.439 199.001L464.938 195.502C465.077 195.363 465.351 195.251 465.546 195.251H466.435C466.631 195.251 466.905 195.363 467.043 195.502L470.538 199.001C470.677 199.14 470.79 199.41 470.79 199.609V200.498ZM467.67 200.07V200.033C467.67 199.89 467.588 199.691 467.486 199.586L466.454 198.558C466.353 198.453 466.154 198.37 466.007 198.37H465.97C465.827 198.37 465.628 198.453 465.523 198.558L464.495 199.586C464.393 199.688 464.311 199.887 464.311 200.033V200.07C464.311 200.217 464.393 200.416 464.495 200.517L465.523 201.549C465.628 201.651 465.827 201.733 465.97 201.733H466.007C466.154 201.733 466.353 201.651 466.454 201.549L467.486 200.517C467.588 200.416 467.67 200.217 467.67 200.07ZM480.975 189.151L472.157 194.241C470.919 194.958 469.335 194.534 468.618 193.295C468.336 192.807 468.235 192.267 468.284 191.749V181.749C468.284 180.323 469.44 179.167 470.866 179.167C472.289 179.167 473.445 180.323 473.445 181.749V187.518L478.385 184.666C479.623 183.949 481.207 184.373 481.924 185.611C482.641 186.85 482.213 188.438 480.975 189.151ZM461.549 205.607C460.963 205.494 460.337 205.588 459.781 205.907L450.964 211.001C449.725 211.714 449.297 213.298 450.014 214.537C450.731 215.779 452.315 216.203 453.554 215.486L458.561 212.596V218.358C458.561 219.781 459.717 220.937 461.144 220.937C462.566 220.937 463.722 219.781 463.722 218.358V208.156C463.722 206.868 462.78 205.802 461.549 205.607ZM482.944 192.706C484.183 191.989 485.77 192.413 486.484 193.655C487.2 194.894 486.776 196.478 485.534 197.191L480.542 200.074L485.534 202.957C486.773 203.674 487.2 205.258 486.484 206.497C485.767 207.735 484.183 208.159 482.944 207.446L474.127 202.353C473.29 201.872 472.824 200.99 472.832 200.085C472.817 199.177 473.282 198.284 474.127 197.796L482.944 192.706Z" fill="#29B5E8"/>
<circle cx="601.5" cy="199.5" r="57" fill="white" stroke="#DFE0E2"/>
<path d="M602.013 179.167C603.19 179.169 604.348 179.268 605.473 179.456V191.585L614.072 183.009C615.021 183.683 615.91 184.433 616.731 185.253C617.553 186.072 618.308 186.961 618.984 187.908L610.385 196.484H622.545C622.734 197.607 622.834 198.757 622.834 199.933V199.961C622.834 201.137 622.734 202.29 622.545 203.412H610.383L618.984 211.986C618.308 212.933 617.553 213.822 616.734 214.641H616.731C615.91 215.461 615.021 216.213 614.074 216.885L605.473 208.309V220.437C604.35 220.626 603.192 220.725 602.015 220.727H601.985C600.808 220.725 599.655 220.626 598.53 220.437V208.309L589.931 216.885C588.032 215.538 586.372 213.88 585.019 211.986L593.618 203.412H581.457C581.267 202.287 581.167 201.131 581.167 199.955V199.894C581.169 199.589 581.189 199.216 581.218 198.83L581.227 198.714C581.312 197.628 581.457 196.484 581.457 196.484H593.618L585.019 187.908C585.693 186.961 586.445 186.074 587.267 185.257L587.271 185.253C588.091 184.433 588.981 183.683 589.931 183.009L598.53 191.585V179.456C599.655 179.268 600.81 179.169 601.989 179.167H602.013ZM602.011 194.753H601.991C600.444 194.753 598.961 195.036 597.591 195.55C597.078 196.915 596.793 198.394 596.791 199.937V199.957C596.793 201.5 597.078 202.979 597.593 204.343C598.961 204.858 600.444 205.141 601.991 205.141H602.011C603.559 205.141 605.041 204.858 606.409 204.343C606.925 202.977 607.209 201.5 607.209 199.957V199.937C607.209 198.394 606.925 196.915 606.409 195.55C605.041 195.036 603.559 194.753 602.011 194.753Z" fill="#FF4A00"/>
<circle cx="57.5" cy="341.5" r="57" fill="white" stroke="#DFE0E2"/>
<path d="M77.894 337.843C78.9479 334.722 78.585 331.303 76.8997 328.464C74.3653 324.109 69.2703 321.869 64.2943 322.924C62.0807 320.463 58.9003 319.063 55.5661 319.083C50.4798 319.072 45.9669 322.303 44.4021 327.079C41.1346 327.739 38.3142 329.757 36.6638 332.617C34.1105 336.96 34.6926 342.435 38.1037 346.159C37.0499 349.28 37.4128 352.699 39.0981 355.538C41.6325 359.892 46.7275 362.132 51.7034 361.078C53.9156 363.538 57.0975 364.938 60.4317 364.916C65.5209 364.929 70.0353 361.695 71.6 356.915C74.8675 356.255 77.6879 354.237 79.3383 351.377C81.8887 347.034 81.3052 341.564 77.8955 337.84L77.894 337.843ZM60.4346 361.921C58.3981 361.924 56.4254 361.221 54.8621 359.933C54.9332 359.896 55.0566 359.829 55.1364 359.78L64.3858 354.509C64.859 354.244 65.1493 353.747 65.1464 353.21V340.343L69.0554 342.571C69.0975 342.591 69.1251 342.631 69.1309 342.677V353.332C69.1251 358.07 65.2364 361.911 60.4346 361.921ZM41.7327 354.039C40.7122 352.3 40.345 350.262 40.6948 348.284C40.763 348.324 40.8835 348.397 40.9691 348.446L50.2185 353.717C50.6874 353.988 51.268 353.988 51.7383 353.717L63.03 347.283V351.738C63.0329 351.783 63.0111 351.828 62.9748 351.856L53.6253 357.183C49.4608 359.549 44.1422 358.143 41.7341 354.039H41.7327ZM39.2984 334.117C40.3145 332.375 41.9185 331.043 43.8287 330.352C43.8287 330.43 43.8244 330.569 43.8244 330.667V341.21C43.8215 341.746 44.1118 342.243 44.5835 342.508L55.8752 348.94L51.9662 351.167C51.927 351.193 51.8776 351.198 51.8341 351.179L42.4831 345.848C38.3273 343.473 36.9018 338.226 39.2969 334.119L39.2984 334.117ZM71.4157 341.492L60.124 335.058L64.033 332.832C64.0722 332.807 64.1216 332.802 64.1651 332.821L73.5161 338.148C77.6792 340.521 79.1061 345.776 76.7008 349.884C75.6833 351.623 74.0808 352.955 72.172 353.648V342.79C72.1763 342.254 71.8874 341.759 71.4171 341.492H71.4157ZM75.3059 335.714C75.2377 335.673 75.1172 335.601 75.0315 335.552L65.7822 330.281C65.3133 330.011 64.7327 330.011 64.2624 330.281L52.9707 336.715V332.261C52.9678 332.215 52.9895 332.171 53.0258 332.142L62.3753 326.819C66.5399 324.449 71.8642 325.86 74.2651 329.971C75.2798 331.707 75.647 333.739 75.303 335.714H75.3059ZM50.8456 343.654L46.9351 341.426C46.893 341.406 46.8654 341.366 46.8596 341.32V330.665C46.8625 325.921 50.7628 322.077 55.5704 322.08C57.6041 322.08 59.5724 322.785 61.1357 324.068C61.0646 324.105 60.9427 324.173 60.8614 324.221L51.612 329.492C51.1388 329.757 50.8485 330.253 50.8514 330.79L50.8456 343.651V343.654ZM52.9692 339.136L57.9989 336.27L63.0285 339.135V344.865L57.9989 347.73L52.9692 344.865V339.136Z" fill="black"/>
<circle cx="193.5" cy="341.5" r="57" fill="white" stroke="#DFE0E2"/>
<path d="M204.14 325.333H197.122L209.898 357.686H216.916L204.14 325.333ZM183.859 325.333L171.083 357.686H178.244L180.823 350.892H194.229L196.836 357.686H203.997L191.192 325.333H183.859ZM183.172 344.88L187.526 333.502L191.909 344.88H183.172Z" fill="black"/>
<circle cx="329.5" cy="341.5" r="57" fill="white" stroke="#DFE0E2"/>
<rect x="315.417" y="328.458" width="2.03488" height="27.0833" fill="#1A1C20"/>
<rect x="337.122" y="344.708" width="2.03488" height="10.8333" fill="#1A1C20"/>
<rect x="331.696" y="333.875" width="2.03488" height="5.41667" fill="#1A1C20"/>
<rect x="326.27" y="344.708" width="2.03488" height="5.41667" fill="#1A1C20"/>
<rect x="337.122" y="328.458" width="2.03488" height="5.41667" fill="#1A1C20"/>
<rect x="317.452" y="328.458" width="5.42636" height="5.41667" fill="#FFCD00"/>
<rect x="339.157" y="328.458" width="5.42636" height="5.41667" fill="#FFCD00"/>
<rect x="317.452" y="333.875" width="5.42636" height="5.41667" fill="#FFA301"/>
<rect x="339.157" y="333.875" width="5.42636" height="5.41667" fill="#FFA301"/>
<rect x="322.878" y="333.875" width="5.42636" height="5.41667" fill="#FFA301"/>
<rect x="333.731" y="333.875" width="5.42636" height="5.41667" fill="#FFA301"/>
<rect x="317.452" y="339.292" width="5.42636" height="5.41667" fill="#FF6F00"/>
<rect x="339.157" y="339.292" width="5.42636" height="5.41667" fill="#FF6F00"/>
<rect x="322.878" y="339.292" width="5.42636" height="5.41667" fill="#FF6F00"/>
<rect x="333.731" y="339.292" width="5.42636" height="5.41667" fill="#FF6F00"/>
<rect x="328.305" y="339.292" width="5.42636" height="5.41667" fill="#FF6F00"/>
<rect x="317.452" y="344.708" width="5.42636" height="5.41667" fill="#FF4606"/>
<rect x="339.157" y="344.708" width="5.42636" height="5.41667" fill="#FF4606"/>
<rect x="328.305" y="344.708" width="5.42636" height="5.41667" fill="#FF4606"/>
<rect x="317.452" y="350.125" width="5.42636" height="5.41666" fill="#FF0107"/>
<rect x="339.157" y="350.125" width="5.42636" height="5.41666" fill="#FF0107"/>
<circle cx="465.5" cy="341.5" r="57" fill="white" stroke="#DFE0E2"/>
<path fill-rule="evenodd" clip-rule="evenodd" d="M486.912 342.474C486.912 340.997 486.776 339.576 486.524 338.212H466.457V346.271H477.924C477.43 348.875 475.929 351.082 473.672 352.559V357.786H480.558C484.587 354.159 486.912 348.819 486.912 342.474Z" fill="#4285F4"/>
<path fill-rule="evenodd" clip-rule="evenodd" d="M466.457 362.833C472.209 362.833 477.032 360.968 480.558 357.786L473.672 352.559C471.764 353.809 469.323 354.547 466.457 354.547C460.907 354.547 456.21 350.883 454.534 345.958H447.416V351.356C450.922 358.165 458.128 362.833 466.457 362.833Z" fill="#34A853"/>
<path fill-rule="evenodd" clip-rule="evenodd" d="M454.535 345.959C454.109 344.709 453.867 343.374 453.867 342C453.867 340.627 454.109 339.292 454.535 338.042V332.644H447.417C445.974 335.457 445.15 338.639 445.15 342C445.15 345.362 445.974 348.544 447.417 351.357L454.535 345.959Z" fill="#FBBC05"/>
<path fill-rule="evenodd" clip-rule="evenodd" d="M466.457 329.453C469.585 329.453 472.393 330.504 474.602 332.568L480.713 326.593C477.023 323.231 472.2 321.167 466.457 321.167C458.128 321.167 450.922 325.835 447.416 332.644L454.534 338.042C456.21 333.118 460.907 329.453 466.457 329.453Z" fill="#EA4335"/>
<circle cx="601.5" cy="341.5" r="57" fill="white" stroke="#DFE0E2"/>
<path d="M622.418 329.865C621.998 329.66 621.818 330.051 621.572 330.249C621.489 330.314 621.418 330.399 621.347 330.474C620.733 331.131 620.018 331.561 619.083 331.509C617.715 331.434 616.547 331.863 615.516 332.912C615.296 331.62 614.567 330.848 613.458 330.353C612.877 330.096 612.29 329.838 611.885 329.279C611.6 328.882 611.524 328.439 611.38 328.003C611.291 327.739 611.199 327.468 610.897 327.423C610.568 327.371 610.439 327.648 610.311 327.879C609.794 328.822 609.595 329.865 609.613 330.92C609.658 333.29 610.66 335.177 612.646 336.522C612.872 336.675 612.93 336.831 612.859 337.056C612.723 337.518 612.563 337.967 612.419 338.43C612.33 338.726 612.194 338.791 611.878 338.661C610.788 338.205 609.845 337.531 609.014 336.714C607.601 335.347 606.324 333.837 604.73 332.655C604.355 332.378 603.983 332.12 603.596 331.877C601.97 330.295 603.809 328.996 604.234 328.843C604.68 328.684 604.388 328.131 602.95 328.137C601.513 328.143 600.196 328.625 598.519 329.266C598.274 329.364 598.017 329.435 597.751 329.491C596.229 329.205 594.649 329.139 592.997 329.325C589.888 329.674 587.404 331.145 585.578 333.658C583.385 336.675 582.869 340.105 583.501 343.687C584.165 347.456 586.087 350.581 589.043 353.022C592.106 355.552 595.635 356.792 599.66 356.555C602.105 356.415 604.828 356.086 607.898 353.485C608.673 353.87 609.485 354.023 610.834 354.139C611.872 354.237 612.871 354.087 613.646 353.927C614.858 353.67 614.774 352.547 614.337 352.339C610.782 350.683 611.561 351.357 610.852 350.813C612.658 348.671 615.381 346.447 616.447 339.247C616.53 338.674 616.458 338.316 616.447 337.851C616.44 337.57 616.503 337.46 616.826 337.428C617.716 337.327 618.581 337.082 619.374 336.643C621.677 335.384 622.605 333.317 622.824 330.836C622.857 330.458 622.818 330.064 622.419 329.866L622.418 329.865ZM602.35 352.186C598.904 349.475 597.233 348.582 596.544 348.621C595.899 348.657 596.015 349.396 596.157 349.878C596.305 350.353 596.499 350.682 596.771 351.098C596.957 351.376 597.087 351.788 596.584 352.095C595.474 352.785 593.545 351.864 593.454 351.817C591.209 350.496 589.333 348.748 588.009 346.358C586.733 344.057 585.991 341.59 585.869 338.956C585.836 338.318 586.023 338.093 586.655 337.98C587.486 337.826 588.346 337.794 589.177 337.915C592.693 338.429 595.686 340.005 598.194 342.494C599.627 343.917 600.71 345.613 601.827 347.269C603.013 349.031 604.291 350.707 605.917 352.081C606.49 352.563 606.949 352.93 607.387 353.201C606.065 353.348 603.858 353.38 602.35 352.185V352.186ZM604.001 341.551C604.001 341.267 604.226 341.043 604.512 341.043C604.575 341.043 604.634 341.055 604.686 341.075C604.756 341.101 604.822 341.14 604.872 341.199C604.963 341.287 605.015 341.417 605.015 341.551C605.015 341.834 604.789 342.059 604.506 342.059C604.222 342.059 604.001 341.834 604.001 341.551ZM609.129 344.187C608.801 344.321 608.472 344.438 608.156 344.451C607.666 344.474 607.131 344.275 606.839 344.031C606.388 343.653 606.066 343.442 605.929 342.778C605.872 342.494 605.905 342.059 605.955 341.808C606.073 341.267 605.943 340.922 605.563 340.607C605.252 340.35 604.859 340.282 604.427 340.282C604.265 340.282 604.117 340.21 604.007 340.151C603.826 340.06 603.678 339.836 603.82 339.559C603.865 339.471 604.086 339.253 604.137 339.214C604.723 338.879 605.4 338.989 606.027 339.24C606.608 339.478 607.046 339.914 607.677 340.529C608.323 341.275 608.439 341.483 608.806 342.04C609.096 342.48 609.361 342.929 609.542 343.443C609.651 343.762 609.509 344.026 609.128 344.188L609.129 344.187Z" fill="#4D6BFE"/>
<defs>
<linearGradient id="paint0_linear_1273_16155" x1="620.761" y1="80.0917" x2="611.359" y2="58.1677" gradientUnits="userSpaceOnUse">
<stop offset="0.18" stop-color="#0052CC"/>
<stop offset="1" stop-color="#2684FF"/>
</linearGradient>
<linearGradient id="paint1_linear_1273_16155" x1="583.403" y1="35.4916" x2="592.822" y2="57.4398" gradientUnits="userSpaceOnUse">
<stop offset="0.18" stop-color="#0052CC"/>
<stop offset="1" stop-color="#2684FF"/>
</linearGradient>
<clipPath id="clip0_1273_16155">
<rect width="50" height="50" fill="white" transform="translate(169 33)"/>
</clipPath>
<clipPath id="clip1_1273_16155">
<rect width="41.6667" height="39.5833" fill="white" transform="translate(581.167 38.2083)"/>
</clipPath>
</defs>
</svg>
