<svg width="479" height="474" viewBox="0 0 479 474" fill="none" xmlns="http://www.w3.org/2000/svg">
<circle cx="45.7221" cy="45.9218" r="45.3245" fill="white" stroke="#DFE0E2" stroke-width="0.795167"/>
<path d="M30.6523 58.9061L32.2595 61.8062C32.5935 62.4167 33.0736 62.8964 33.6372 63.2453L39.3774 52.8662H27.897C27.897 53.5422 28.064 54.2181 28.3979 54.8286L30.6523 58.9061Z" fill="#0066DA"/>
<path d="M46.1195 40.6554L40.3793 30.2764C39.8157 30.6252 39.3357 31.1049 39.0017 31.7155L28.3979 50.9037C28.0701 51.5011 27.8974 52.1775 27.897 52.8661H39.3774L46.1195 40.6554Z" fill="#00AC47"/>
<path d="M58.6019 63.2453C59.1655 62.8964 59.6456 62.4167 59.9795 61.8062L60.6475 60.6069L63.8411 54.8286C64.1751 54.2181 64.3421 53.5422 64.3421 52.8662H52.8608L55.3039 57.8813L58.6019 63.2453Z" fill="#EA4335"/>
<path d="M46.1196 40.6556L51.8598 30.2765C51.2962 29.9276 50.6492 29.7532 49.9812 29.7532H42.258C41.5901 29.7532 40.943 29.9494 40.3794 30.2765L46.1196 40.6556Z" fill="#00832D"/>
<path d="M52.8617 52.8662H39.3774L33.6372 63.2453C34.2008 63.5942 34.8479 63.7686 35.5158 63.7686H56.7233C57.3913 63.7686 58.0383 63.5724 58.6019 63.2453L52.8617 52.8662Z" fill="#2684FC"/>
<path d="M58.5394 41.3096L53.2375 31.7155C52.9035 31.1049 52.4234 30.6252 51.8598 30.2764L46.1196 40.6554L52.8618 52.8661H64.3213C64.3213 52.1902 64.1543 51.5142 63.8204 50.9037L58.5394 41.3096Z" fill="#FFBA00"/>
<circle cx="45.7221" cy="156.45" r="45.3245" fill="white" stroke="#DFE0E2" stroke-width="0.795167"/>
<path d="M36.5381 161.226C36.5381 163.152 34.983 164.708 33.0588 164.708C31.1347 164.708 29.5796 163.152 29.5796 161.226C29.5796 159.301 31.1347 157.744 33.0588 157.744H36.5381V161.226ZM38.2777 161.226C38.2777 159.301 39.8328 157.744 41.757 157.744C43.6811 157.744 45.2362 159.301 45.2362 161.226V169.931C45.2362 171.857 43.6811 173.413 41.757 173.413C39.8328 173.413 38.2777 171.857 38.2777 169.931V161.226Z" fill="#E01E5A"/>
<path d="M41.757 147.246C39.8328 147.246 38.2777 145.689 38.2777 143.764C38.2777 141.838 39.8328 140.281 41.757 140.281C43.6811 140.281 45.2362 141.838 45.2362 143.764V147.246H41.757ZM41.757 149.013C43.6811 149.013 45.2362 150.569 45.2362 152.495C45.2362 154.421 43.6811 155.977 41.757 155.977H33.0325C31.1083 155.977 29.5532 154.421 29.5532 152.495C29.5532 150.569 31.1083 149.013 33.0325 149.013H41.757Z" fill="#36C5F0"/>
<path d="M55.7006 152.495C55.7006 150.569 57.2557 149.013 59.1798 149.013C61.1039 149.013 62.6591 150.569 62.6591 152.495C62.6591 154.421 61.1039 155.977 59.1798 155.977H55.7006V152.495ZM53.9609 152.495C53.9609 154.421 52.4058 155.977 50.4817 155.977C48.5576 155.977 47.0024 154.421 47.0024 152.495V143.764C47.0024 141.838 48.5576 140.281 50.4817 140.281C52.4058 140.281 53.9609 141.838 53.9609 143.764V152.495Z" fill="#2EB67D"/>
<path d="M50.4817 166.449C52.4058 166.449 53.9609 168.006 53.9609 169.931C53.9609 171.857 52.4058 173.413 50.4817 173.413C48.5576 173.413 47.0024 171.857 47.0024 169.931V166.449H50.4817ZM50.4817 164.708C48.5576 164.708 47.0024 163.152 47.0024 161.226C47.0024 159.301 48.5576 157.744 50.4817 157.744H59.2062C61.1303 157.744 62.6854 159.301 62.6854 161.226C62.6854 163.152 61.1303 164.708 59.2062 164.708H50.4817Z" fill="#ECB22E"/>
<circle cx="45.7221" cy="266.978" r="45.3245" fill="white" stroke="#DFE0E2" stroke-width="0.795167"/>
<path d="M61.9389 264.07C62.7768 261.588 62.4883 258.87 61.1482 256.612C59.1329 253.15 55.0815 251.369 51.1248 252.207C49.3646 250.25 46.8357 249.138 44.1844 249.153C40.14 249.144 36.5515 251.714 35.3072 255.511C32.709 256.036 30.4663 257.641 29.154 259.915C27.1237 263.369 27.5865 267.722 30.299 270.683C29.461 273.165 29.7495 275.883 31.0896 278.141C33.1049 281.603 37.1563 283.384 41.113 282.546C42.872 284.503 45.4021 285.615 48.0534 285.598C52.1002 285.609 55.6898 283.037 56.9341 279.236C59.5323 278.711 61.775 277.106 63.0873 274.832C65.1153 271.379 64.6513 267.029 61.94 264.068L61.9389 264.07ZM48.0557 283.217C46.4363 283.219 44.8677 282.66 43.6246 281.636C43.6812 281.606 43.7793 281.553 43.8428 281.514L51.1975 277.323C51.5738 277.112 51.8047 276.717 51.8024 276.29V266.059L54.9107 267.83C54.9442 267.846 54.9661 267.878 54.9707 267.914V276.387C54.9661 280.154 51.8739 283.209 48.0557 283.217ZM33.1845 276.949C32.3731 275.567 32.0811 273.946 32.3593 272.373C32.4135 272.405 32.5093 272.463 32.5774 272.502L39.9322 276.693C40.305 276.908 40.7667 276.908 41.1407 276.693L50.1195 271.577V275.119C50.1218 275.155 50.1045 275.191 50.0756 275.213L42.6412 279.449C39.3297 281.331 35.1006 280.212 33.1857 276.949H33.1845ZM31.2489 261.108C32.0569 259.723 33.3323 258.664 34.8513 258.113C34.8513 258.176 34.8478 258.287 34.8478 258.364V266.748C34.8455 267.174 35.0763 267.569 35.4515 267.78L44.4303 272.895L41.3219 274.666C41.2907 274.686 41.2515 274.69 41.2169 274.675L33.7813 270.436C30.4767 268.547 29.3433 264.375 31.2477 261.109L31.2489 261.108ZM56.7875 266.972L47.8087 261.856L50.9171 260.086C50.9482 260.066 50.9875 260.062 51.0221 260.077L58.4577 264.313C61.768 266.2 62.9026 270.379 60.9901 273.645C60.181 275.028 58.9067 276.087 57.3889 276.638V268.004C57.3923 267.578 57.1626 267.184 56.7887 266.972H56.7875ZM59.8809 262.378C59.8266 262.345 59.7308 262.288 59.6627 262.249L52.3079 258.058C51.9351 257.842 51.4734 257.842 51.0994 258.058L42.1206 263.174V259.632C42.1183 259.595 42.1356 259.56 42.1645 259.537L49.5989 255.305C52.9104 253.42 57.1442 254.542 59.0533 257.811C59.8601 259.191 60.1521 260.807 59.8785 262.378H59.8809ZM40.4308 268.691L37.3213 266.92C37.2879 266.904 37.2659 266.872 37.2613 266.835V258.363C37.2636 254.591 40.365 251.534 44.1879 251.536C45.805 251.536 47.3701 252.096 48.6132 253.117C48.5567 253.147 48.4597 253.2 48.3951 253.239L41.0403 257.43C40.664 257.641 40.4331 258.035 40.4355 258.462L40.4308 268.689V268.691ZM42.1195 265.099L46.1189 262.82L50.1183 265.097V269.654L46.1189 271.932L42.1195 269.654V265.099Z" fill="black"/>
<circle cx="45.7221" cy="377.507" r="45.3245" fill="white" stroke="#DFE0E2" stroke-width="0.795167"/>
<g clip-path="url(#clip0_2173_7682)">
<path fill-rule="evenodd" clip-rule="evenodd" d="M42.7486 367.692C44.032 366.356 45.8182 365.528 47.7915 365.528C50.4226 365.528 52.7028 366.99 53.9306 369.168C55.0205 368.681 56.201 368.429 57.3949 368.43C62.1308 368.43 65.9751 372.303 65.9751 377.083C65.9751 381.863 62.1308 385.736 57.3949 385.736C56.8161 385.736 56.2518 385.678 55.6993 385.568C54.625 387.483 52.5713 388.784 50.2325 388.784C49.2804 388.786 48.3404 388.57 47.4845 388.153C46.3956 390.711 43.8595 392.508 40.9069 392.508C37.8227 392.508 35.2062 390.564 34.1977 387.831C33.7488 387.926 33.2912 387.973 32.8324 387.973C29.1635 387.973 26.1963 384.962 26.1963 381.264C26.1963 378.779 27.5323 376.616 29.5144 375.446C29.0939 374.478 28.8774 373.433 28.8785 372.377C28.8785 368.109 32.3428 364.659 36.6109 364.659C39.1104 364.659 41.3468 365.85 42.7501 367.699" fill="#00A1E0"/>
</g>
<circle cx="174.609" cy="99.1977" r="45.3245" fill="white" stroke="#DFE0E2" stroke-width="0.795167"/>
<rect x="160.098" y="84.6855" width="14.0811" height="14.0811" fill="#F25022"/>
<rect x="160.098" y="100.423" width="14.0811" height="14.0811" fill="#00A4EF"/>
<rect x="175.835" y="84.6855" width="14.0811" height="14.0811" fill="#7FBA00"/>
<rect x="175.835" y="100.423" width="14.0811" height="14.0811" fill="#FFB900"/>
<circle cx="174.609" cy="209.726" r="45.3245" fill="white" stroke="#DFE0E2" stroke-width="0.795167"/>
<path d="M183.071 196.871H177.49L187.649 222.597H193.23L183.071 196.871ZM166.944 196.871L156.785 222.597H162.479L164.529 217.194H175.189L177.262 222.597H182.957L172.775 196.871H166.944ZM166.397 212.413L169.859 203.366L173.344 212.413H166.397Z" fill="black"/>
<circle cx="174.609" cy="320.255" r="45.3245" fill="white" stroke="#DFE0E2" stroke-width="0.795167"/>
<rect x="163.41" y="309.885" width="1.61807" height="21.5358" fill="#1A1C20"/>
<rect x="180.669" y="322.806" width="1.61807" height="8.61431" fill="#1A1C20"/>
<rect x="176.354" y="314.192" width="1.61807" height="4.30715" fill="#1A1C20"/>
<rect x="172.04" y="322.806" width="1.61807" height="4.30715" fill="#1A1C20"/>
<rect x="180.669" y="309.885" width="1.61807" height="4.30715" fill="#1A1C20"/>
<rect x="165.028" y="309.885" width="4.31486" height="4.30715" fill="#FFCD00"/>
<rect x="182.287" y="309.885" width="4.31486" height="4.30715" fill="#FFCD00"/>
<rect x="165.028" y="314.192" width="4.31486" height="4.30715" fill="#FFA301"/>
<rect x="182.287" y="314.192" width="4.31486" height="4.30715" fill="#FFA301"/>
<rect x="169.343" y="314.192" width="4.31486" height="4.30715" fill="#FFA301"/>
<rect x="177.973" y="314.192" width="4.31486" height="4.30715" fill="#FFA301"/>
<rect x="165.028" y="318.499" width="4.31486" height="4.30715" fill="#FF6F00"/>
<rect x="182.287" y="318.499" width="4.31486" height="4.30715" fill="#FF6F00"/>
<rect x="169.343" y="318.499" width="4.31486" height="4.30715" fill="#FF6F00"/>
<rect x="177.973" y="318.499" width="4.31486" height="4.30715" fill="#FF6F00"/>
<rect x="173.658" y="318.499" width="4.31486" height="4.30715" fill="#FF6F00"/>
<rect x="165.028" y="322.806" width="4.31486" height="4.30715" fill="#FF4606"/>
<rect x="182.287" y="322.806" width="4.31486" height="4.30715" fill="#FF4606"/>
<rect x="173.658" y="322.806" width="4.31486" height="4.30715" fill="#FF4606"/>
<rect x="165.028" y="327.113" width="4.31486" height="4.30715" fill="#FF0107"/>
<rect x="182.287" y="327.113" width="4.31486" height="4.30715" fill="#FF0107"/>
<circle cx="303.496" cy="45.9218" r="45.3245" fill="white" stroke="#DFE0E2" stroke-width="0.795167"/>
<path d="M290.15 31.1821L308.483 29.828C310.735 29.6348 311.313 29.765 312.729 30.7944L318.581 34.917C319.546 35.626 319.868 35.8192 319.868 36.5912V59.2014C319.868 60.6185 319.353 61.4567 317.552 61.5846L296.263 62.8741C294.911 62.938 294.267 62.7449 293.559 61.8427L289.25 56.2388C288.477 55.2074 288.156 54.4354 288.156 53.5329V33.435C288.156 32.2764 288.671 31.3103 290.15 31.1821Z" fill="white"/>
<path fill-rule="evenodd" clip-rule="evenodd" d="M308.483 29.8283L290.15 31.1824C288.671 31.3103 288.156 32.2767 288.156 33.435V53.5329C288.156 54.4351 288.477 55.207 289.25 56.2388L293.559 61.8424C294.267 62.7445 294.911 62.938 296.263 62.8738L317.552 61.5849C319.352 61.4567 319.868 60.6185 319.868 59.2017V36.5915C319.868 35.8593 319.579 35.6482 318.727 35.0234L312.729 30.7944C311.313 29.765 310.735 29.6348 308.483 29.828V29.8283ZM296.744 36.2214C295.006 36.3384 294.611 36.3649 293.624 35.5621L291.114 33.5656C290.859 33.3071 290.987 32.9848 291.63 32.9205L309.254 31.6327C310.734 31.5034 311.504 32.0193 312.083 32.4699L315.106 34.6599C315.235 34.7252 315.556 35.1105 315.17 35.1105L296.969 36.2062L296.744 36.2214ZM294.717 59.0086V39.8143C294.717 38.976 294.975 38.5894 295.745 38.5244L316.65 37.3005C317.359 37.2366 317.679 37.6872 317.679 38.5241V57.5905C317.679 58.4288 317.55 59.1378 316.393 59.2017L296.389 60.3614C295.231 60.4253 294.718 60.04 294.718 59.0086H294.717ZM314.464 40.8433C314.592 41.4231 314.464 42.003 313.884 42.0692L312.92 42.2604V56.4319C312.083 56.8825 311.312 57.1399 310.668 57.1399C309.639 57.1399 309.382 56.8176 308.611 55.8521L302.306 45.9324V55.5297L304.3 55.9813C304.3 55.9813 304.3 57.1409 302.691 57.1409L298.255 57.3984C298.125 57.1399 298.255 56.4962 298.704 56.368L299.863 56.0466V43.3571L298.255 43.2268C298.126 42.647 298.447 41.8098 299.348 41.7449L304.108 41.4245L310.668 51.4724V42.5831L308.996 42.3909C308.867 41.6809 309.382 41.165 310.024 41.1021L314.464 40.8433Z" fill="black"/>
<circle cx="303.496" cy="156.45" r="45.3245" fill="white" stroke="#DFE0E2" stroke-width="0.795167"/>
<path d="M305.682 143.595L305.682 163.655L322.358 143.595L305.682 143.595Z" fill="black"/>
<path d="M294.009 151.953C289.404 151.953 285.671 148.211 285.671 143.595H302.347C302.347 148.211 298.614 151.953 294.009 151.953Z" fill="black"/>
<path d="M314.02 161.983C318.625 161.983 322.358 165.726 322.358 170.342H305.682C305.682 165.726 309.415 161.983 314.02 161.983Z" fill="black"/>
<path d="M302.347 150.282V170.342H285.671L302.347 150.282Z" fill="black"/>
<circle cx="303.496" cy="266.978" r="45.3245" fill="white" stroke="#DFE0E2" stroke-width="0.795167"/>
<path fill-rule="evenodd" clip-rule="evenodd" d="M320.523 267.753C320.523 266.578 320.415 265.448 320.215 264.364H304.258V270.772H313.376C312.983 272.843 311.79 274.597 309.995 275.772V279.929H315.471C318.674 277.045 320.523 272.798 320.523 267.753Z" fill="#4285F4"/>
<path fill-rule="evenodd" clip-rule="evenodd" d="M304.258 283.942C308.832 283.942 312.667 282.459 315.47 279.928L309.995 275.772C308.478 276.766 306.537 277.353 304.258 277.353C299.845 277.353 296.11 274.439 294.778 270.523H289.117V274.816C291.905 280.23 297.635 283.942 304.258 283.942Z" fill="#34A853"/>
<path fill-rule="evenodd" clip-rule="evenodd" d="M294.778 270.524C294.439 269.53 294.246 268.468 294.246 267.376C294.246 266.284 294.439 265.223 294.778 264.229V259.937H289.117C287.97 262.173 287.315 264.703 287.315 267.376C287.315 270.049 287.97 272.579 289.117 274.816L294.778 270.524Z" fill="#FBBC05"/>
<path fill-rule="evenodd" clip-rule="evenodd" d="M304.258 257.399C306.745 257.399 308.978 258.235 310.734 259.876L315.594 255.125C312.66 252.452 308.824 250.81 304.258 250.81C297.635 250.81 291.905 254.522 289.117 259.936L294.778 264.229C296.11 260.313 299.845 257.399 304.258 257.399Z" fill="#EA4335"/>
<circle cx="303.496" cy="377.507" r="45.3245" fill="white" stroke="#DFE0E2" stroke-width="0.795167"/>
<path d="M298.95 382.602C299.392 382.348 299.891 382.273 300.356 382.363C301.335 382.518 302.084 383.365 302.084 384.389V392.502C302.084 393.633 301.164 394.552 300.033 394.552C298.899 394.552 297.981 393.633 297.98 392.502V387.92L293.998 390.218C293.013 390.788 291.754 390.451 291.184 389.463C290.614 388.478 290.955 387.219 291.939 386.652L298.95 382.602ZM305.976 383.357C306.546 382.372 307.806 382.035 308.791 382.602L315.802 386.652C316.79 387.219 317.127 388.478 316.557 389.463C315.99 390.448 314.727 390.789 313.742 390.219L309.814 387.95V392.502C309.814 393.633 308.895 394.552 307.764 394.552C306.63 394.552 305.71 393.633 305.71 392.502V384.586C305.668 384.171 305.755 383.745 305.976 383.357ZM317.368 372.104C318.353 371.534 319.616 371.872 320.184 372.86C320.753 373.845 320.416 375.104 319.428 375.671L315.458 377.963L319.428 380.255C320.413 380.825 320.754 382.086 320.184 383.071C319.613 384.055 318.353 384.393 317.368 383.825L310.357 379.775C309.692 379.393 309.321 378.691 309.327 377.972C309.315 377.25 309.686 376.54 310.357 376.152L317.368 372.104ZM289.345 371.877C289.694 371.877 290.043 371.97 290.348 372.146L297.359 376.194C297.992 376.561 298.377 377.241 298.365 377.972C298.371 378.697 297.986 379.372 297.359 379.737L290.348 383.783C290.043 383.959 289.694 384.052 289.342 384.052C288.626 384.052 287.957 383.667 287.599 383.046C287.33 382.581 287.259 382.037 287.399 381.518C287.537 380.999 287.87 380.566 288.336 380.297L292.378 377.963L288.336 375.632C287.375 375.077 287.044 373.844 287.599 372.883C287.957 372.262 288.626 371.877 289.345 371.877ZM304.241 374.128C304.396 374.128 304.614 374.217 304.725 374.327L307.504 377.11C307.614 377.22 307.704 377.435 307.704 377.593V378.3C307.704 378.455 307.614 378.671 307.504 378.784L304.725 381.563C304.614 381.673 304.396 381.763 304.241 381.763H303.534C303.379 381.763 303.161 381.673 303.051 381.563L300.269 378.784C300.158 378.671 300.068 378.455 300.068 378.3V377.593C300.068 377.435 300.158 377.22 300.269 377.11L303.051 374.327C303.161 374.217 303.379 374.128 303.534 374.128H304.241ZM303.871 376.608C303.758 376.608 303.6 376.674 303.517 376.757L302.698 377.575C302.618 377.656 302.552 377.814 302.552 377.93V377.96C302.552 378.077 302.618 378.235 302.698 378.316L303.517 379.136C303.6 379.216 303.758 379.282 303.871 379.282H303.901C304.018 379.282 304.176 379.217 304.257 379.136L305.077 378.316C305.158 378.235 305.224 378.077 305.224 377.96V377.93C305.223 377.817 305.158 377.659 305.077 377.575L304.257 376.757C304.176 376.674 304.018 376.608 303.901 376.608H303.871ZM307.765 361.338C308.896 361.338 309.815 362.258 309.815 363.392V367.979L313.743 365.711C314.728 365.141 315.988 365.478 316.558 366.463C317.128 367.448 316.788 368.71 315.803 369.278L308.791 373.324C307.806 373.894 306.547 373.557 305.977 372.573C305.753 372.185 305.672 371.755 305.711 371.343V363.392C305.711 362.258 306.63 361.338 307.765 361.338ZM300.033 361.338C301.164 361.338 302.084 362.258 302.084 363.392V371.504C302.084 372.101 301.831 372.639 301.422 373.015C300.777 373.645 299.768 373.799 298.95 373.324L291.939 369.278C290.955 368.708 290.614 367.448 291.184 366.463C291.754 365.478 293.013 365.141 293.998 365.711L297.98 368.009V363.392C297.98 362.258 298.899 361.338 300.033 361.338Z" fill="#29B5E8"/>
<circle cx="432.383" cy="99.1972" r="45.3245" fill="white" stroke="#DFE0E2" stroke-width="0.795167"/>
<g clip-path="url(#clip1_2173_7682)">
<path d="M417.417 107.885C417.075 108.438 416.689 109.078 416.363 109.59C416.071 110.079 416.228 110.708 416.715 111.007L423.568 115.177C423.808 115.323 424.099 115.37 424.374 115.303C424.649 115.236 424.885 115.063 425.029 114.823C425.303 114.369 425.657 113.78 426.041 113.151C428.756 108.72 431.486 109.263 436.411 111.587L443.206 114.782C443.463 114.903 443.76 114.916 444.026 114.818C444.293 114.719 444.509 114.519 444.624 114.261L447.887 106.964C448.118 106.444 447.883 105.836 447.36 105.598C445.927 104.931 443.075 103.602 440.508 102.377C431.27 97.9407 423.421 98.2281 417.417 107.885Z" fill="url(#paint0_linear_2173_7682)"/>
<path d="M448.146 91.3261C448.488 90.7733 448.874 90.1332 449.2 89.6215C449.492 89.1328 449.335 88.503 448.848 88.2041L441.994 84.0354C441.751 83.8738 441.451 83.8187 441.167 83.8841C440.882 83.9495 440.638 84.1291 440.491 84.3792C440.218 84.8333 439.863 85.422 439.479 86.0518C436.764 90.4821 434.034 89.9396 429.11 87.6154L422.336 84.4369C422.079 84.3163 421.782 84.3035 421.516 84.401C421.249 84.4998 421.034 84.6999 420.918 84.9577L417.655 92.2548C417.424 92.7755 417.659 93.3835 418.182 93.6208C419.616 94.2878 422.467 95.6166 425.035 96.8416C434.291 101.272 442.14 100.974 448.146 91.3274V91.3261Z" fill="url(#paint1_linear_2173_7682)"/>
</g>
<circle cx="432.383" cy="209.726" r="45.3245" fill="white" stroke="#DFE0E2" stroke-width="0.795167"/>
<path d="M432.792 193.557C433.728 193.559 434.648 193.638 435.543 193.787V203.432L442.381 196.612C443.136 197.148 443.842 197.745 444.495 198.397C445.149 199.048 445.749 199.755 446.287 200.508L439.449 207.328H449.118C449.268 208.22 449.348 209.134 449.348 210.07V210.092C449.348 211.027 449.268 211.944 449.118 212.836H439.447L446.287 219.654C445.749 220.407 445.149 221.114 444.497 221.765H444.495C443.842 222.417 443.136 223.015 442.383 223.55L435.543 216.73V226.374C434.65 226.524 433.73 226.603 432.794 226.605H432.77C431.834 226.603 430.917 226.524 430.022 226.374V216.73L423.185 223.55C421.675 222.479 420.354 221.16 419.279 219.654L426.117 212.836H416.447C416.295 211.942 416.216 211.022 416.216 210.087V210.039C416.217 209.796 416.233 209.5 416.256 209.193L416.263 209.101C416.331 208.237 416.447 207.328 416.447 207.328H426.117L419.279 200.508C419.815 199.755 420.413 199.05 421.066 198.4L421.069 198.397C421.721 197.745 422.429 197.148 423.185 196.612L430.022 203.432V193.787C430.917 193.638 431.836 193.559 432.773 193.557H432.792ZM432.791 205.951H432.775C431.544 205.951 430.365 206.176 429.276 206.585C428.867 207.67 428.641 208.846 428.64 210.073V210.089C428.641 211.316 428.867 212.492 429.277 213.577C430.365 213.986 431.544 214.211 432.775 214.211H432.791C434.021 214.211 435.2 213.986 436.288 213.577C436.698 212.49 436.924 211.316 436.924 210.089V210.073C436.924 208.846 436.698 207.67 436.288 206.585C435.2 206.176 434.021 205.951 432.791 205.951Z" fill="#FF4A00"/>
<circle cx="432.383" cy="320.254" r="45.3245" fill="white" stroke="#DFE0E2" stroke-width="0.795167"/>
<path d="M449.017 311.123C448.683 310.96 448.54 311.27 448.345 311.428C448.279 311.48 448.222 311.547 448.166 311.607C447.678 312.129 447.108 312.471 446.366 312.43C445.277 312.37 444.349 312.712 443.529 313.546C443.354 312.518 442.774 311.905 441.893 311.511C441.43 311.306 440.964 311.102 440.641 310.657C440.415 310.341 440.354 309.989 440.24 309.642C440.169 309.432 440.096 309.217 439.856 309.181C439.595 309.139 439.492 309.36 439.39 309.543C438.979 310.294 438.821 311.123 438.835 311.961C438.871 313.846 439.667 315.347 441.247 316.416C441.427 316.538 441.473 316.662 441.416 316.841C441.308 317.208 441.181 317.565 441.066 317.933C440.995 318.169 440.888 318.221 440.636 318.117C439.769 317.755 439.02 317.219 438.359 316.569C437.235 315.482 436.219 314.281 434.952 313.341C434.654 313.121 434.358 312.916 434.05 312.723C432.757 311.465 434.22 310.431 434.558 310.31C434.912 310.184 434.68 309.744 433.537 309.749C432.394 309.754 431.347 310.137 430.014 310.647C429.818 310.724 429.614 310.781 429.403 310.825C428.193 310.598 426.936 310.546 425.623 310.694C423.15 310.971 421.176 312.141 419.723 314.139C417.98 316.538 417.569 319.266 418.071 322.113C418.6 325.111 420.128 327.595 422.478 329.537C424.914 331.548 427.72 332.534 430.921 332.345C432.865 332.234 435.03 331.973 437.471 329.905C438.087 330.21 438.733 330.332 439.806 330.425C440.631 330.503 441.426 330.383 442.042 330.256C443.006 330.052 442.939 329.159 442.591 328.993C439.764 327.676 440.384 328.212 439.82 327.78C441.257 326.076 443.422 324.309 444.269 318.583C444.335 318.127 444.278 317.842 444.269 317.473C444.264 317.25 444.314 317.162 444.57 317.136C445.278 317.056 445.966 316.862 446.597 316.513C448.428 315.511 449.166 313.868 449.34 311.895C449.366 311.594 449.335 311.281 449.018 311.123L449.017 311.123ZM433.059 328.872C430.319 326.716 428.991 326.006 428.443 326.037C427.93 326.065 428.022 326.653 428.135 327.036C428.253 327.414 428.407 327.676 428.623 328.007C428.772 328.227 428.874 328.555 428.475 328.799C427.592 329.348 426.058 328.615 425.986 328.579C424.201 327.528 422.709 326.138 421.656 324.238C420.641 322.408 420.051 320.446 419.954 318.352C419.929 317.844 420.077 317.665 420.58 317.575C421.241 317.453 421.924 317.428 422.585 317.524C425.381 317.933 427.761 319.185 429.755 321.165C430.894 322.296 431.756 323.645 432.644 324.962C433.587 326.363 434.604 327.696 435.896 328.788C436.352 329.171 436.717 329.463 437.065 329.679C436.014 329.796 434.259 329.821 433.059 328.871V328.872ZM434.372 320.415C434.372 320.189 434.552 320.011 434.779 320.011C434.829 320.011 434.876 320.021 434.917 320.037C434.973 320.058 435.025 320.088 435.065 320.135C435.138 320.205 435.179 320.309 435.179 320.415C435.179 320.64 434.999 320.819 434.774 320.819C434.548 320.819 434.372 320.64 434.372 320.415ZM438.45 322.512C438.189 322.618 437.928 322.711 437.677 322.721C437.287 322.739 436.861 322.581 436.629 322.387C436.27 322.087 436.015 321.919 435.906 321.391C435.861 321.165 435.886 320.819 435.926 320.619C436.02 320.189 435.916 319.915 435.614 319.664C435.367 319.46 435.055 319.406 434.711 319.406C434.583 319.406 434.465 319.349 434.377 319.302C434.234 319.23 434.116 319.051 434.229 318.831C434.265 318.761 434.44 318.588 434.481 318.557C434.947 318.291 435.485 318.378 435.983 318.578C436.446 318.766 436.794 319.114 437.295 319.603C437.809 320.195 437.901 320.361 438.193 320.804C438.424 321.154 438.635 321.511 438.778 321.92C438.865 322.173 438.753 322.383 438.45 322.512L438.45 322.512Z" fill="#4D6BFE"/>
<defs>
<linearGradient id="paint0_linear_2173_7682" x1="447.699" y1="117.161" x2="440.223" y2="99.7281" gradientUnits="userSpaceOnUse">
<stop offset="0.18" stop-color="#0052CC"/>
<stop offset="1" stop-color="#2684FF"/>
</linearGradient>
<linearGradient id="paint1_linear_2173_7682" x1="417.994" y1="81.697" x2="425.483" y2="99.1494" gradientUnits="userSpaceOnUse">
<stop offset="0.18" stop-color="#0052CC"/>
<stop offset="1" stop-color="#2684FF"/>
</linearGradient>
<clipPath id="clip0_2173_7682">
<rect width="39.7583" height="39.7583" fill="white" transform="translate(26.2402 358.025)"/>
</clipPath>
<clipPath id="clip1_2173_7682">
<rect width="33.1319" height="31.4753" fill="white" transform="translate(416.216 83.8572)"/>
</clipPath>
</defs>
</svg>
