<svg width="610" height="344" viewBox="0 0 610 344" fill="none" xmlns="http://www.w3.org/2000/svg">
<line x1="244.437" y1="151.826" x2="134.437" y2="76.8262" stroke="#FFDCEC" stroke-width="2"/>
<line x1="244.527" y1="193.85" x2="123.527" y2="268.85" stroke="#FFDCEC" stroke-width="2"/>
<path d="M507.531 268.883C508.018 269.142 508.624 268.957 508.883 268.469C509.142 267.982 508.957 267.376 508.469 267.117L507.531 268.883ZM364.531 192.883L507.531 268.883L508.469 267.117L365.469 191.117L364.531 192.883Z" fill="#FFDCEC"/>
<line x1="364.506" y1="151.131" x2="496.506" y2="76.1305" stroke="#FFDCEC" stroke-width="2"/>
<rect x="26.8" y="27.8" width="208.4" height="49.4" rx="12" fill="white"/>
<rect x="26.8" y="27.8" width="208.4" height="49.4" rx="12" stroke="#FFDCEC" stroke-width="1.6"/>
<path d="M47 58.5H43.941C43.6439 57.2274 42.3041 56.1857 41.754 55.4992C40.6565 54.1297 40 52.3915 40 50.5C40 46.0817 43.5817 42.5 48 42.5C52.4183 42.5 56 46.0817 56 50.5C56 52.3925 55.3428 54.1315 54.2443 55.5014C53.6944 56.187 52.3558 57.2276 52.059 58.5H49V53.5H47V58.5ZM52 60.5V61.5C52 62.6046 51.1046 63.5 50 63.5H46C44.8954 63.5 44 62.6046 44 61.5V60.5H52Z" fill="#020617"/>
<path d="M68.32 58L72.416 46.64H74.608L78.704 58H76.864L75.824 55.04H71.184L70.16 58H68.32ZM71.728 53.472H75.296L73.504 48.288L71.728 53.472ZM82.9427 58.192C82.2174 58.192 81.5828 58.0107 81.0388 57.648C80.5054 57.2853 80.0948 56.7733 79.8068 56.112C79.5294 55.44 79.3908 54.6507 79.3908 53.744C79.3908 52.8373 79.5348 52.0533 79.8228 51.392C80.1108 50.72 80.5214 50.2027 81.0548 49.84C81.5881 49.4773 82.2174 49.296 82.9427 49.296C83.5294 49.296 84.0521 49.4187 84.5108 49.664C84.9694 49.9093 85.3161 50.2507 85.5508 50.688V46.64H87.2468V58H85.6628L85.6148 56.72C85.3801 57.1787 85.0228 57.5413 84.5428 57.808C84.0734 58.064 83.5401 58.192 82.9427 58.192ZM83.3908 56.72C83.8494 56.72 84.2388 56.6027 84.5588 56.368C84.8788 56.1333 85.1241 55.792 85.2948 55.344C85.4654 54.896 85.5508 54.3627 85.5508 53.744C85.5508 53.104 85.4654 52.5653 85.2948 52.128C85.1241 51.68 84.8788 51.344 84.5588 51.12C84.2388 50.8853 83.8494 50.768 83.3908 50.768C82.7081 50.768 82.1641 51.0347 81.7588 51.568C81.3534 52.0907 81.1508 52.816 81.1508 53.744C81.1508 54.6613 81.3534 55.3867 81.7588 55.92C82.1641 56.4533 82.7081 56.72 83.3908 56.72ZM91.7529 58L88.6489 49.488H90.4569L92.7769 56.272L95.0969 49.488H96.9209L93.8009 58H91.7529ZM100.443 58.192C99.558 58.192 98.8487 57.9893 98.3154 57.584C97.7927 57.1787 97.5314 56.608 97.5314 55.872C97.5314 55.136 97.75 54.5653 98.1874 54.16C98.6354 53.744 99.3234 53.4453 100.251 53.264L103.179 52.704C103.179 52.0427 103.025 51.552 102.715 51.232C102.406 50.9013 101.947 50.736 101.339 50.736C100.795 50.736 100.369 50.8587 100.059 51.104C99.75 51.3387 99.5367 51.6907 99.4194 52.16L97.6754 52.048C97.8354 51.1947 98.23 50.5227 98.8594 50.032C99.4994 49.5413 100.326 49.296 101.339 49.296C102.491 49.296 103.366 49.6053 103.963 50.224C104.571 50.832 104.875 51.6907 104.875 52.8V56.112C104.875 56.3147 104.907 56.4587 104.971 56.544C105.046 56.6187 105.163 56.656 105.323 56.656H105.627V58C105.574 58.0107 105.489 58.0213 105.371 58.032C105.254 58.0427 105.131 58.048 105.003 58.048C104.641 58.048 104.326 57.9893 104.059 57.872C103.803 57.7547 103.611 57.5627 103.483 57.296C103.355 57.0187 103.291 56.6507 103.291 56.192L103.467 56.272C103.382 56.6453 103.195 56.976 102.907 57.264C102.63 57.552 102.273 57.7813 101.835 57.952C101.409 58.112 100.945 58.192 100.443 58.192ZM100.715 56.848C101.227 56.848 101.665 56.752 102.027 56.56C102.39 56.3573 102.673 56.08 102.875 55.728C103.078 55.376 103.179 54.976 103.179 54.528V53.984L100.683 54.464C100.171 54.56 99.8087 54.7147 99.5954 54.928C99.3927 55.1307 99.2914 55.392 99.2914 55.712C99.2914 56.0747 99.414 56.3573 99.6594 56.56C99.9154 56.752 100.267 56.848 100.715 56.848ZM107.059 58V49.488H108.611L108.675 51.76L108.467 51.648C108.563 51.0933 108.745 50.6453 109.011 50.304C109.278 49.9627 109.603 49.712 109.987 49.552C110.371 49.3813 110.787 49.296 111.235 49.296C111.875 49.296 112.403 49.44 112.819 49.728C113.246 50.0053 113.566 50.3893 113.779 50.88C114.003 51.36 114.115 51.9093 114.115 52.528V58H112.419V53.04C112.419 52.5387 112.366 52.1173 112.259 51.776C112.153 51.4347 111.977 51.1733 111.731 50.992C111.486 50.8107 111.166 50.72 110.771 50.72C110.174 50.72 109.689 50.9173 109.315 51.312C108.942 51.7067 108.755 52.2827 108.755 53.04V58H107.059ZM119.829 58.192C119.018 58.192 118.309 58.0107 117.701 57.648C117.093 57.2853 116.624 56.768 116.293 56.096C115.962 55.424 115.797 54.64 115.797 53.744C115.797 52.848 115.962 52.0693 116.293 51.408C116.624 50.736 117.093 50.2187 117.701 49.856C118.309 49.4827 119.018 49.296 119.829 49.296C120.522 49.296 121.136 49.4187 121.669 49.664C122.213 49.8987 122.65 50.2453 122.981 50.704C123.322 51.1627 123.541 51.7227 123.637 52.384L121.861 52.48C121.776 51.9253 121.552 51.504 121.189 51.216C120.826 50.9173 120.373 50.768 119.829 50.768C119.114 50.768 118.554 51.0347 118.149 51.568C117.754 52.0907 117.557 52.816 117.557 53.744C117.557 54.672 117.754 55.4027 118.149 55.936C118.554 56.4587 119.114 56.72 119.829 56.72C120.373 56.72 120.826 56.5707 121.189 56.272C121.552 55.9627 121.776 55.4987 121.861 54.88L123.637 54.976C123.541 55.6267 123.322 56.192 122.981 56.672C122.65 57.152 122.213 57.5253 121.669 57.792C121.136 58.0587 120.522 58.192 119.829 58.192ZM128.688 58.192C127.856 58.192 127.136 58.0107 126.528 57.648C125.931 57.2853 125.467 56.768 125.136 56.096C124.816 55.424 124.656 54.64 124.656 53.744C124.656 52.848 124.816 52.0693 125.136 51.408C125.467 50.736 125.931 50.2187 126.528 49.856C127.126 49.4827 127.83 49.296 128.64 49.296C129.408 49.296 130.086 49.4773 130.672 49.84C131.259 50.192 131.712 50.704 132.032 51.376C132.363 52.048 132.528 52.8587 132.528 53.808V54.24H126.416C126.459 55.072 126.678 55.696 127.072 56.112C127.478 56.528 128.022 56.736 128.704 56.736C129.206 56.736 129.622 56.6187 129.952 56.384C130.283 56.1493 130.512 55.8347 130.64 55.44L132.4 55.552C132.176 56.3413 131.734 56.9813 131.072 57.472C130.422 57.952 129.627 58.192 128.688 58.192ZM126.416 52.96H130.736C130.683 52.2027 130.464 51.6427 130.08 51.28C129.707 50.9173 129.227 50.736 128.64 50.736C128.032 50.736 127.531 50.928 127.136 51.312C126.752 51.6853 126.512 52.2347 126.416 52.96ZM137.271 58.192C136.546 58.192 135.911 58.0107 135.367 57.648C134.834 57.2853 134.423 56.7733 134.135 56.112C133.858 55.44 133.719 54.6507 133.719 53.744C133.719 52.8373 133.863 52.0533 134.151 51.392C134.439 50.72 134.85 50.2027 135.383 49.84C135.916 49.4773 136.546 49.296 137.271 49.296C137.858 49.296 138.38 49.4187 138.839 49.664C139.298 49.9093 139.644 50.2507 139.879 50.688V46.64H141.575V58H139.991L139.943 56.72C139.708 57.1787 139.351 57.5413 138.871 57.808C138.402 58.064 137.868 58.192 137.271 58.192ZM137.719 56.72C138.178 56.72 138.567 56.6027 138.887 56.368C139.207 56.1333 139.452 55.792 139.623 55.344C139.794 54.896 139.879 54.3627 139.879 53.744C139.879 53.104 139.794 52.5653 139.623 52.128C139.452 51.68 139.207 51.344 138.887 51.12C138.567 50.8853 138.178 50.768 137.719 50.768C137.036 50.768 136.492 51.0347 136.087 51.568C135.682 52.0907 135.479 52.816 135.479 53.744C135.479 54.6613 135.682 55.3867 136.087 55.92C136.492 56.4533 137.036 56.72 137.719 56.72ZM148.048 58V46.64H152.576C153.387 46.64 154.085 46.7787 154.672 47.056C155.259 47.3333 155.712 47.728 156.032 48.24C156.352 48.752 156.512 49.36 156.512 50.064C156.512 50.576 156.395 51.0347 156.16 51.44C155.936 51.8453 155.632 52.1707 155.248 52.416C154.875 52.6507 154.475 52.784 154.048 52.816L153.968 52.672C154.683 52.672 155.237 52.8373 155.632 53.168C156.027 53.488 156.256 53.9947 156.32 54.688L156.624 58H154.88L154.608 54.912C154.576 54.4533 154.421 54.1173 154.144 53.904C153.867 53.68 153.413 53.568 152.784 53.568H149.776V58H148.048ZM149.776 51.984H152.608C153.259 51.984 153.771 51.824 154.144 51.504C154.528 51.1733 154.72 50.7093 154.72 50.112C154.72 49.504 154.528 49.04 154.144 48.72C153.76 48.3893 153.2 48.224 152.464 48.224H149.776V51.984ZM162.032 58.192C161.2 58.192 160.48 58.0107 159.872 57.648C159.275 57.2853 158.811 56.768 158.48 56.096C158.16 55.424 158 54.64 158 53.744C158 52.848 158.16 52.0693 158.48 51.408C158.811 50.736 159.275 50.2187 159.872 49.856C160.469 49.4827 161.173 49.296 161.984 49.296C162.752 49.296 163.429 49.4773 164.016 49.84C164.603 50.192 165.056 50.704 165.376 51.376C165.707 52.048 165.872 52.8587 165.872 53.808V54.24H159.76C159.803 55.072 160.021 55.696 160.416 56.112C160.821 56.528 161.365 56.736 162.048 56.736C162.549 56.736 162.965 56.6187 163.296 56.384C163.627 56.1493 163.856 55.8347 163.984 55.44L165.744 55.552C165.52 56.3413 165.077 56.9813 164.416 57.472C163.765 57.952 162.971 58.192 162.032 58.192ZM159.76 52.96H164.08C164.027 52.2027 163.808 51.6427 163.424 51.28C163.051 50.9173 162.571 50.736 161.984 50.736C161.376 50.736 160.875 50.928 160.48 51.312C160.096 51.6853 159.856 52.2347 159.76 52.96ZM170.147 58.192C169.261 58.192 168.552 57.9893 168.019 57.584C167.496 57.1787 167.235 56.608 167.235 55.872C167.235 55.136 167.453 54.5653 167.891 54.16C168.339 53.744 169.027 53.4453 169.955 53.264L172.883 52.704C172.883 52.0427 172.728 51.552 172.419 51.232C172.109 50.9013 171.651 50.736 171.043 50.736C170.499 50.736 170.072 50.8587 169.763 51.104C169.453 51.3387 169.24 51.6907 169.123 52.16L167.379 52.048C167.539 51.1947 167.933 50.5227 168.562 50.032C169.203 49.5413 170.029 49.296 171.043 49.296C172.195 49.296 173.069 49.6053 173.667 50.224C174.275 50.832 174.579 51.6907 174.579 52.8V56.112C174.579 56.3147 174.611 56.4587 174.675 56.544C174.749 56.6187 174.867 56.656 175.027 56.656H175.331V58C175.277 58.0107 175.192 58.0213 175.075 58.032C174.957 58.0427 174.835 58.048 174.707 58.048C174.344 58.048 174.029 57.9893 173.763 57.872C173.507 57.7547 173.315 57.5627 173.187 57.296C173.059 57.0187 172.995 56.6507 172.995 56.192L173.171 56.272C173.085 56.6453 172.899 56.976 172.611 57.264C172.333 57.552 171.976 57.7813 171.539 57.952C171.112 58.112 170.648 58.192 170.147 58.192ZM170.419 56.848C170.931 56.848 171.368 56.752 171.731 56.56C172.093 56.3573 172.376 56.08 172.579 55.728C172.781 55.376 172.883 54.976 172.883 54.528V53.984L170.387 54.464C169.875 54.56 169.512 54.7147 169.299 54.928C169.096 55.1307 168.995 55.392 168.995 55.712C168.995 56.0747 169.117 56.3573 169.363 56.56C169.619 56.752 169.971 56.848 170.419 56.848ZM179.98 58.192C179.18 58.192 178.503 58.0693 177.948 57.824C177.404 57.5787 176.983 57.2427 176.684 56.816C176.385 56.3787 176.215 55.8773 176.172 55.312L177.916 55.232C178.001 55.7013 178.204 56.0747 178.524 56.352C178.844 56.6293 179.329 56.768 179.98 56.768C180.513 56.768 180.935 56.6827 181.244 56.512C181.553 56.3413 181.708 56.0693 181.708 55.696C181.708 55.4933 181.655 55.3227 181.548 55.184C181.452 55.0347 181.26 54.912 180.972 54.816C180.684 54.7093 180.257 54.608 179.692 54.512C178.849 54.352 178.188 54.1653 177.708 53.952C177.228 53.7387 176.887 53.4667 176.684 53.136C176.481 52.8053 176.38 52.4053 176.38 51.936C176.38 51.1573 176.668 50.5227 177.244 50.032C177.831 49.5413 178.673 49.296 179.772 49.296C180.508 49.296 181.127 49.424 181.628 49.68C182.129 49.9253 182.519 50.2613 182.796 50.688C183.084 51.104 183.265 51.5733 183.34 52.096L181.596 52.192C181.543 51.8933 181.436 51.6373 181.276 51.424C181.127 51.2 180.924 51.0293 180.668 50.912C180.412 50.784 180.108 50.72 179.756 50.72C179.212 50.72 178.807 50.8267 178.54 51.04C178.273 51.2533 178.14 51.5307 178.14 51.872C178.14 52.128 178.199 52.336 178.316 52.496C178.444 52.656 178.647 52.7893 178.924 52.896C179.201 52.992 179.569 53.0773 180.028 53.152C180.913 53.3013 181.607 53.488 182.108 53.712C182.609 53.9253 182.961 54.192 183.164 54.512C183.367 54.832 183.468 55.2213 183.468 55.68C183.468 56.2133 183.319 56.6667 183.02 57.04C182.721 57.4133 182.311 57.7013 181.788 57.904C181.265 58.096 180.663 58.192 179.98 58.192ZM188.688 58.192C187.878 58.192 187.168 58.0107 186.56 57.648C185.952 57.2853 185.483 56.768 185.152 56.096C184.822 55.424 184.656 54.64 184.656 53.744C184.656 52.8373 184.822 52.0533 185.152 51.392C185.483 50.7307 185.952 50.2187 186.56 49.856C187.168 49.4827 187.878 49.296 188.688 49.296C189.499 49.296 190.208 49.4827 190.816 49.856C191.424 50.2187 191.894 50.7307 192.224 51.392C192.555 52.0533 192.72 52.8373 192.72 53.744C192.72 54.64 192.555 55.424 192.224 56.096C191.894 56.768 191.424 57.2853 190.816 57.648C190.208 58.0107 189.499 58.192 188.688 58.192ZM188.688 56.72C189.414 56.72 189.974 56.4587 190.368 55.936C190.763 55.4027 190.96 54.672 190.96 53.744C190.96 52.816 190.763 52.0907 190.368 51.568C189.974 51.0347 189.414 50.768 188.688 50.768C187.974 50.768 187.414 51.0347 187.008 51.568C186.614 52.0907 186.416 52.816 186.416 53.744C186.416 54.672 186.614 55.4027 187.008 55.936C187.414 56.4587 187.974 56.72 188.688 56.72ZM194.434 58V49.488H195.986L196.05 51.76L195.842 51.648C195.938 51.0933 196.12 50.6453 196.386 50.304C196.653 49.9627 196.978 49.712 197.362 49.552C197.746 49.3813 198.162 49.296 198.61 49.296C199.25 49.296 199.778 49.44 200.194 49.728C200.621 50.0053 200.941 50.3893 201.154 50.88C201.378 51.36 201.49 51.9093 201.49 52.528V58H199.794V53.04C199.794 52.5387 199.741 52.1173 199.634 51.776C199.528 51.4347 199.352 51.1733 199.106 50.992C198.861 50.8107 198.541 50.72 198.146 50.72C197.549 50.72 197.064 50.9173 196.69 51.312C196.317 51.7067 196.13 52.2827 196.13 53.04V58H194.434ZM203.731 58V49.488H205.427V58H203.731ZM203.699 48.256V46.56H205.459V48.256H203.699ZM207.966 58V49.488H209.518L209.582 51.76L209.374 51.648C209.47 51.0933 209.651 50.6453 209.918 50.304C210.184 49.9627 210.51 49.712 210.894 49.552C211.278 49.3813 211.694 49.296 212.142 49.296C212.782 49.296 213.31 49.44 213.726 49.728C214.152 50.0053 214.472 50.3893 214.686 50.88C214.91 51.36 215.022 51.9093 215.022 52.528V58H213.326V53.04C213.326 52.5387 213.272 52.1173 213.166 51.776C213.059 51.4347 212.883 51.1733 212.638 50.992C212.392 50.8107 212.072 50.72 211.678 50.72C211.08 50.72 210.595 50.9173 210.222 51.312C209.848 51.7067 209.662 52.2827 209.662 53.04V58H207.966ZM220.655 60.592C219.983 60.592 219.391 60.4907 218.879 60.288C218.367 60.0853 217.946 59.7973 217.615 59.424C217.285 59.0613 217.061 58.6347 216.943 58.144L218.703 58.032C218.821 58.384 219.023 58.6613 219.311 58.864C219.61 59.0773 220.058 59.184 220.655 59.184C221.359 59.184 221.898 59.0347 222.271 58.736C222.655 58.4373 222.847 57.984 222.847 57.376V56.144C222.645 56.5813 222.319 56.928 221.871 57.184C221.423 57.44 220.922 57.568 220.367 57.568C219.653 57.568 219.018 57.392 218.463 57.04C217.909 56.688 217.477 56.2027 217.167 55.584C216.858 54.9653 216.703 54.2507 216.703 53.44C216.703 52.6187 216.853 51.8987 217.151 51.28C217.461 50.6613 217.887 50.176 218.431 49.824C218.986 49.472 219.61 49.296 220.303 49.296C220.911 49.296 221.445 49.4347 221.903 49.712C222.373 49.9893 222.709 50.3627 222.911 50.832V49.488H224.543V57.328C224.543 58.032 224.383 58.624 224.063 59.104C223.754 59.5947 223.306 59.9627 222.719 60.208C222.143 60.464 221.455 60.592 220.655 60.592ZM220.639 56.128C221.301 56.128 221.829 55.888 222.223 55.408C222.629 54.928 222.837 54.2667 222.847 53.424C222.858 52.8693 222.773 52.3947 222.591 52C222.41 51.5947 222.149 51.2853 221.807 51.072C221.477 50.848 221.087 50.736 220.639 50.736C219.946 50.736 219.407 50.9813 219.023 51.472C218.65 51.952 218.463 52.6027 218.463 53.424C218.463 54.256 218.655 54.9173 219.039 55.408C219.434 55.888 219.967 56.128 220.639 56.128Z" fill="#2A3241"/>
<rect x="26.8" y="267.8" width="186.4" height="49.4" rx="12" fill="white"/>
<rect x="26.8" y="267.8" width="186.4" height="49.4" rx="12" stroke="#FFDCEC" stroke-width="1.6"/>
<path d="M48 302.5C42.4771 302.5 38 298.023 38 292.5C38 286.977 42.4771 282.5 48 282.5C53.5228 282.5 58 286.977 58 292.5C58 298.023 53.5228 302.5 48 302.5ZM49 292.5V287.5H47V294.5H53V292.5H49Z" fill="#020617"/>
<path d="M69.376 298V286.64H73.024C74.8053 286.64 76.176 287.136 77.136 288.128C78.096 289.109 78.576 290.512 78.576 292.336C78.576 294.149 78.1013 295.547 77.152 296.528C76.2133 297.509 74.8693 298 73.12 298H69.376ZM71.104 296.416H73.024C74.2827 296.416 75.2213 296.08 75.84 295.408C76.4693 294.725 76.784 293.701 76.784 292.336C76.784 290.949 76.4693 289.92 75.84 289.248C75.2213 288.565 74.2827 288.224 73.024 288.224H71.104V296.416ZM82.9903 298.192C82.1049 298.192 81.3956 297.989 80.8623 297.584C80.3396 297.179 80.0783 296.608 80.0783 295.872C80.0783 295.136 80.2969 294.565 80.7343 294.16C81.1823 293.744 81.8703 293.445 82.7983 293.264L85.7263 292.704C85.7263 292.043 85.5716 291.552 85.2623 291.232C84.9529 290.901 84.4943 290.736 83.8863 290.736C83.3423 290.736 82.9156 290.859 82.6063 291.104C82.2969 291.339 82.0836 291.691 81.9663 292.16L80.2223 292.048C80.3823 291.195 80.7769 290.523 81.4062 290.032C82.0463 289.541 82.8729 289.296 83.8863 289.296C85.0383 289.296 85.9129 289.605 86.5103 290.224C87.1183 290.832 87.4223 291.691 87.4223 292.8V296.112C87.4223 296.315 87.4543 296.459 87.5183 296.544C87.5929 296.619 87.7103 296.656 87.8703 296.656H88.1743V298C88.1209 298.011 88.0356 298.021 87.9183 298.032C87.8009 298.043 87.6783 298.048 87.5503 298.048C87.1876 298.048 86.8729 297.989 86.6063 297.872C86.3503 297.755 86.1583 297.563 86.0303 297.296C85.9023 297.019 85.8383 296.651 85.8383 296.192L86.0143 296.272C85.9289 296.645 85.7423 296.976 85.4543 297.264C85.1769 297.552 84.8196 297.781 84.3823 297.952C83.9556 298.112 83.4916 298.192 82.9903 298.192ZM83.2623 296.848C83.7743 296.848 84.2116 296.752 84.5743 296.56C84.9369 296.357 85.2196 296.08 85.4223 295.728C85.6249 295.376 85.7263 294.976 85.7263 294.528V293.984L83.2303 294.464C82.7183 294.56 82.3556 294.715 82.1423 294.928C81.9396 295.131 81.8383 295.392 81.8383 295.712C81.8383 296.075 81.9609 296.357 82.2063 296.56C82.4623 296.752 82.8143 296.848 83.2623 296.848ZM92.4328 298C91.6221 298 91.0248 297.813 90.6408 297.44C90.2568 297.067 90.0648 296.485 90.0648 295.696V287.488H91.7608V295.568C91.7608 295.963 91.8461 296.235 92.0168 296.384C92.1874 296.533 92.4488 296.608 92.8008 296.608H94.0168V298H92.4328ZM88.7688 290.88V289.488H94.0168V290.88H88.7688ZM97.9746 298.192C97.0893 298.192 96.38 297.989 95.8466 297.584C95.324 297.179 95.0626 296.608 95.0626 295.872C95.0626 295.136 95.2813 294.565 95.7186 294.16C96.1666 293.744 96.8546 293.445 97.7826 293.264L100.711 292.704C100.711 292.043 100.556 291.552 100.247 291.232C99.9373 290.901 99.4786 290.736 98.8706 290.736C98.3266 290.736 97.9 290.859 97.5906 291.104C97.2813 291.339 97.068 291.691 96.9506 292.16L95.2066 292.048C95.3666 291.195 95.7613 290.523 96.3906 290.032C97.0306 289.541 97.8573 289.296 98.8706 289.296C100.023 289.296 100.897 289.605 101.495 290.224C102.103 290.832 102.407 291.691 102.407 292.8V296.112C102.407 296.315 102.439 296.459 102.503 296.544C102.577 296.619 102.695 296.656 102.855 296.656H103.159V298C103.105 298.011 103.02 298.021 102.903 298.032C102.785 298.043 102.663 298.048 102.535 298.048C102.172 298.048 101.857 297.989 101.591 297.872C101.335 297.755 101.143 297.563 101.015 297.296C100.887 297.019 100.823 296.651 100.823 296.192L100.999 296.272C100.913 296.645 100.727 296.976 100.439 297.264C100.161 297.552 99.804 297.781 99.3666 297.952C98.94 298.112 98.476 298.192 97.9746 298.192ZM98.2466 296.848C98.7586 296.848 99.196 296.752 99.5586 296.56C99.9213 296.357 100.204 296.08 100.407 295.728C100.609 295.376 100.711 294.976 100.711 294.528V293.984L98.2146 294.464C97.7026 294.56 97.34 294.715 97.1266 294.928C96.924 295.131 96.8226 295.392 96.8226 295.712C96.8226 296.075 96.9453 296.357 97.1906 296.56C97.4466 296.752 97.7986 296.848 98.2466 296.848ZM111.744 298L107.648 286.64H109.488L112.832 296.08L116.176 286.64H118.016L113.904 298H111.744ZM119.153 298V289.488H120.849V298H119.153ZM119.121 288.256V286.56H120.881V288.256H119.121ZM126.371 298.192C125.571 298.192 124.893 298.069 124.339 297.824C123.795 297.579 123.373 297.243 123.075 296.816C122.776 296.379 122.605 295.877 122.563 295.312L124.307 295.232C124.392 295.701 124.595 296.075 124.915 296.352C125.235 296.629 125.72 296.768 126.371 296.768C126.904 296.768 127.325 296.683 127.635 296.512C127.944 296.341 128.099 296.069 128.099 295.696C128.099 295.493 128.045 295.323 127.939 295.184C127.843 295.035 127.651 294.912 127.363 294.816C127.075 294.709 126.648 294.608 126.083 294.512C125.24 294.352 124.579 294.165 124.099 293.952C123.619 293.739 123.277 293.467 123.075 293.136C122.872 292.805 122.771 292.405 122.771 291.936C122.771 291.157 123.059 290.523 123.635 290.032C124.221 289.541 125.064 289.296 126.163 289.296C126.899 289.296 127.517 289.424 128.019 289.68C128.52 289.925 128.909 290.261 129.187 290.688C129.475 291.104 129.656 291.573 129.731 292.096L127.987 292.192C127.933 291.893 127.827 291.637 127.667 291.424C127.517 291.2 127.315 291.029 127.059 290.912C126.803 290.784 126.499 290.72 126.147 290.72C125.603 290.72 125.197 290.827 124.931 291.04C124.664 291.253 124.531 291.531 124.531 291.872C124.531 292.128 124.589 292.336 124.707 292.496C124.835 292.656 125.037 292.789 125.315 292.896C125.592 292.992 125.96 293.077 126.419 293.152C127.304 293.301 127.997 293.488 128.499 293.712C129 293.925 129.352 294.192 129.555 294.512C129.757 294.832 129.859 295.221 129.859 295.68C129.859 296.213 129.709 296.667 129.411 297.04C129.112 297.413 128.701 297.701 128.179 297.904C127.656 298.096 127.053 298.192 126.371 298.192ZM134.375 298.192C133.522 298.192 132.839 297.909 132.327 297.344C131.826 296.768 131.575 295.973 131.575 294.96V289.488H133.271V294.528C133.271 295.296 133.404 295.861 133.671 296.224C133.938 296.587 134.343 296.768 134.887 296.768C135.506 296.768 135.986 296.571 136.327 296.176C136.679 295.771 136.855 295.205 136.855 294.48V289.488H138.551V298H136.967L136.935 295.776L137.175 295.872C137.026 296.619 136.711 297.195 136.231 297.6C135.751 297.995 135.132 298.192 134.375 298.192ZM143.334 298.192C142.449 298.192 141.739 297.989 141.206 297.584C140.683 297.179 140.422 296.608 140.422 295.872C140.422 295.136 140.641 294.565 141.078 294.16C141.526 293.744 142.214 293.445 143.142 293.264L146.07 292.704C146.07 292.043 145.915 291.552 145.606 291.232C145.297 290.901 144.838 290.736 144.23 290.736C143.686 290.736 143.259 290.859 142.95 291.104C142.641 291.339 142.427 291.691 142.31 292.16L140.566 292.048C140.726 291.195 141.121 290.523 141.75 290.032C142.39 289.541 143.217 289.296 144.23 289.296C145.382 289.296 146.257 289.605 146.854 290.224C147.462 290.832 147.766 291.691 147.766 292.8V296.112C147.766 296.315 147.798 296.459 147.862 296.544C147.937 296.619 148.054 296.656 148.214 296.656H148.518V298C148.465 298.011 148.379 298.021 148.262 298.032C148.145 298.043 148.022 298.048 147.894 298.048C147.531 298.048 147.217 297.989 146.95 297.872C146.694 297.755 146.502 297.563 146.374 297.296C146.246 297.019 146.182 296.651 146.182 296.192L146.358 296.272C146.273 296.645 146.086 296.976 145.798 297.264C145.521 297.552 145.163 297.781 144.726 297.952C144.299 298.112 143.835 298.192 143.334 298.192ZM143.606 296.848C144.118 296.848 144.555 296.752 144.918 296.56C145.281 296.357 145.563 296.08 145.766 295.728C145.969 295.376 146.07 294.976 146.07 294.528V293.984L143.574 294.464C143.062 294.56 142.699 294.715 142.486 294.928C142.283 295.131 142.182 295.392 142.182 295.712C142.182 296.075 142.305 296.357 142.55 296.56C142.806 296.752 143.158 296.848 143.606 296.848ZM151.697 298C151.142 298 150.694 297.856 150.353 297.568C150.011 297.28 149.841 296.821 149.841 296.192V286.64H151.537V296.032C151.537 296.224 151.585 296.368 151.681 296.464C151.787 296.56 151.937 296.608 152.129 296.608H152.801V298H151.697ZM154.231 298V289.488H155.927V298H154.231ZM154.199 288.256V286.56H155.959V288.256H154.199ZM158.037 298V296.48L163.173 290.88H158.197V289.488H165.125V291.008L159.941 296.608H165.253V298H158.037ZM169.49 298.192C168.605 298.192 167.896 297.989 167.362 297.584C166.84 297.179 166.578 296.608 166.578 295.872C166.578 295.136 166.797 294.565 167.234 294.16C167.682 293.744 168.37 293.445 169.298 293.264L172.226 292.704C172.226 292.043 172.072 291.552 171.762 291.232C171.453 290.901 170.994 290.736 170.386 290.736C169.842 290.736 169.416 290.859 169.106 291.104C168.797 291.339 168.584 291.691 168.466 292.16L166.722 292.048C166.882 291.195 167.277 290.523 167.906 290.032C168.546 289.541 169.373 289.296 170.386 289.296C171.538 289.296 172.413 289.605 173.01 290.224C173.618 290.832 173.922 291.691 173.922 292.8V296.112C173.922 296.315 173.954 296.459 174.018 296.544C174.093 296.619 174.21 296.656 174.37 296.656H174.674V298C174.621 298.011 174.536 298.021 174.418 298.032C174.301 298.043 174.178 298.048 174.05 298.048C173.688 298.048 173.373 297.989 173.106 297.872C172.85 297.755 172.658 297.563 172.53 297.296C172.402 297.019 172.338 296.651 172.338 296.192L172.514 296.272C172.429 296.645 172.242 296.976 171.954 297.264C171.677 297.552 171.32 297.781 170.882 297.952C170.456 298.112 169.992 298.192 169.49 298.192ZM169.762 296.848C170.274 296.848 170.712 296.752 171.074 296.56C171.437 296.357 171.72 296.08 171.922 295.728C172.125 295.376 172.226 294.976 172.226 294.528V293.984L169.73 294.464C169.218 294.56 168.856 294.715 168.642 294.928C168.44 295.131 168.338 295.392 168.338 295.712C168.338 296.075 168.461 296.357 168.706 296.56C168.962 296.752 169.314 296.848 169.762 296.848ZM178.933 298C178.122 298 177.525 297.813 177.141 297.44C176.757 297.067 176.565 296.485 176.565 295.696V287.488H178.261V295.568C178.261 295.963 178.346 296.235 178.517 296.384C178.687 296.533 178.949 296.608 179.301 296.608H180.517V298H178.933ZM175.269 290.88V289.488H180.517V290.88H175.269ZM182.138 298V289.488H183.834V298H182.138ZM182.106 288.256V286.56H183.866V288.256H182.106ZM189.579 298.192C188.768 298.192 188.059 298.011 187.451 297.648C186.843 297.285 186.374 296.768 186.043 296.096C185.712 295.424 185.547 294.64 185.547 293.744C185.547 292.837 185.712 292.053 186.043 291.392C186.374 290.731 186.843 290.219 187.451 289.856C188.059 289.483 188.768 289.296 189.579 289.296C190.39 289.296 191.099 289.483 191.707 289.856C192.315 290.219 192.784 290.731 193.115 291.392C193.446 292.053 193.611 292.837 193.611 293.744C193.611 294.64 193.446 295.424 193.115 296.096C192.784 296.768 192.315 297.285 191.707 297.648C191.099 298.011 190.39 298.192 189.579 298.192ZM189.579 296.72C190.304 296.72 190.864 296.459 191.259 295.936C191.654 295.403 191.851 294.672 191.851 293.744C191.851 292.816 191.654 292.091 191.259 291.568C190.864 291.035 190.304 290.768 189.579 290.768C188.864 290.768 188.304 291.035 187.899 291.568C187.504 292.091 187.307 292.816 187.307 293.744C187.307 294.672 187.504 295.403 187.899 295.936C188.304 296.459 188.864 296.72 189.579 296.72ZM195.325 298V289.488H196.877L196.941 291.76L196.733 291.648C196.829 291.093 197.01 290.645 197.277 290.304C197.544 289.963 197.869 289.712 198.253 289.552C198.637 289.381 199.053 289.296 199.501 289.296C200.141 289.296 200.669 289.44 201.085 289.728C201.512 290.005 201.832 290.389 202.045 290.88C202.269 291.36 202.381 291.909 202.381 292.528V298H200.685V293.04C200.685 292.539 200.632 292.117 200.525 291.776C200.418 291.435 200.242 291.173 199.997 290.992C199.752 290.811 199.432 290.72 199.037 290.72C198.44 290.72 197.954 290.917 197.581 291.312C197.208 291.707 197.021 292.283 197.021 293.04V298H195.325Z" fill="#2A3241"/>
<rect x="241.8" y="147.8" width="126.4" height="49.4" rx="12" fill="white"/>
<rect x="241.8" y="147.8" width="126.4" height="49.4" rx="12" stroke="#FFDCEC" stroke-width="1.6"/>
<g clip-path="url(#clip0_1564_26320)">
<path d="M251 162.5C251 159.739 253.239 157.5 256 157.5H276C278.761 157.5 281 159.739 281 162.5V182.5C281 185.261 278.761 187.5 276 187.5H256C253.239 187.5 251 185.261 251 182.5V162.5Z" fill="#FFDCEC"/>
<path d="M258.5 180.988H273.5V165.987H258.5V180.988Z" fill="black"/>
</g>
<path d="M299.368 179.12C298.803 179.355 298.216 179.531 297.608 179.648C297.011 179.765 296.376 179.824 295.704 179.824C294.445 179.824 293.368 179.595 292.472 179.136C291.576 178.677 290.888 178.016 290.408 177.152C289.939 176.277 289.704 175.232 289.704 174.016C289.704 172.928 289.875 171.936 290.216 171.04C290.568 170.133 291.064 169.355 291.704 168.704C292.355 168.043 293.123 167.536 294.008 167.184C294.893 166.821 295.875 166.64 296.952 166.64C298.189 166.64 299.267 166.875 300.184 167.344C301.112 167.813 301.827 168.475 302.328 169.328C302.84 170.181 303.096 171.184 303.096 172.336C303.096 173.211 302.963 173.979 302.696 174.64C302.429 175.291 302.061 175.797 301.592 176.16C301.123 176.523 300.579 176.704 299.96 176.704C299.427 176.704 298.995 176.555 298.664 176.256C298.333 175.957 298.152 175.552 298.12 175.04L298.408 174.976C298.291 175.307 298.093 175.611 297.816 175.888C297.539 176.165 297.219 176.384 296.856 176.544C296.493 176.704 296.12 176.784 295.736 176.784C295.117 176.784 294.589 176.661 294.152 176.416C293.725 176.171 293.4 175.829 293.176 175.392C292.952 174.944 292.84 174.427 292.84 173.84C292.84 173.115 292.979 172.459 293.256 171.872C293.533 171.285 293.923 170.821 294.424 170.48C294.936 170.139 295.528 169.968 296.2 169.968C296.776 169.968 297.267 170.096 297.672 170.352C298.077 170.608 298.333 170.944 298.44 171.36L298.216 171.472L298.328 170.016H299.72L299.448 173.312C299.437 173.547 299.416 173.808 299.384 174.096C299.363 174.384 299.352 174.624 299.352 174.816C299.352 175.04 299.416 175.216 299.544 175.344C299.672 175.472 299.864 175.536 300.12 175.536C300.643 175.536 301.053 175.264 301.352 174.72C301.661 174.165 301.816 173.403 301.816 172.432C301.816 171.44 301.629 170.603 301.256 169.92C300.883 169.237 300.328 168.725 299.592 168.384C298.867 168.032 297.971 167.856 296.904 167.856C296.019 167.856 295.213 168.005 294.488 168.304C293.763 168.592 293.139 169.008 292.616 169.552C292.093 170.085 291.688 170.725 291.4 171.472C291.123 172.219 290.984 173.051 290.984 173.968C290.984 174.949 291.165 175.787 291.528 176.48C291.901 177.173 292.445 177.701 293.16 178.064C293.875 178.427 294.739 178.608 295.752 178.608C296.349 178.608 296.925 178.549 297.48 178.432C298.035 178.325 298.563 178.165 299.064 177.952L299.368 179.12ZM296.008 175.552C296.488 175.552 296.883 175.435 297.192 175.2C297.501 174.955 297.731 174.645 297.88 174.272C298.04 173.888 298.12 173.483 298.12 173.056C298.12 172.704 298.061 172.389 297.944 172.112C297.827 171.824 297.645 171.6 297.4 171.44C297.155 171.28 296.829 171.2 296.424 171.2C295.987 171.2 295.619 171.317 295.32 171.552C295.021 171.776 294.792 172.08 294.632 172.464C294.472 172.837 294.392 173.259 294.392 173.728C294.392 174.251 294.515 174.688 294.76 175.04C295.005 175.381 295.421 175.552 296.008 175.552ZM307.381 178.192C306.496 178.192 305.786 177.989 305.253 177.584C304.73 177.179 304.469 176.608 304.469 175.872C304.469 175.136 304.688 174.565 305.125 174.16C305.573 173.744 306.261 173.445 307.189 173.264L310.117 172.704C310.117 172.043 309.962 171.552 309.653 171.232C309.344 170.901 308.885 170.736 308.277 170.736C307.733 170.736 307.306 170.859 306.997 171.104C306.688 171.339 306.474 171.691 306.357 172.16L304.613 172.048C304.773 171.195 305.168 170.523 305.797 170.032C306.437 169.541 307.264 169.296 308.277 169.296C309.429 169.296 310.304 169.605 310.901 170.224C311.509 170.832 311.813 171.691 311.813 172.8V176.112C311.813 176.315 311.845 176.459 311.909 176.544C311.984 176.619 312.101 176.656 312.261 176.656H312.565V178C312.512 178.011 312.426 178.021 312.309 178.032C312.192 178.043 312.069 178.048 311.941 178.048C311.578 178.048 311.264 177.989 310.997 177.872C310.741 177.755 310.549 177.563 310.421 177.296C310.293 177.019 310.229 176.651 310.229 176.192L310.405 176.272C310.32 176.645 310.133 176.976 309.845 177.264C309.568 177.552 309.21 177.781 308.773 177.952C308.346 178.112 307.882 178.192 307.381 178.192ZM307.653 176.848C308.165 176.848 308.602 176.752 308.965 176.56C309.328 176.357 309.61 176.08 309.813 175.728C310.016 175.376 310.117 174.976 310.117 174.528V173.984L307.621 174.464C307.109 174.56 306.746 174.715 306.533 174.928C306.33 175.131 306.229 175.392 306.229 175.712C306.229 176.075 306.352 176.357 306.597 176.56C306.853 176.752 307.205 176.848 307.653 176.848ZM313.997 178V169.488H315.549L315.613 171.76L315.405 171.648C315.501 171.093 315.682 170.645 315.949 170.304C316.216 169.963 316.541 169.712 316.925 169.552C317.309 169.381 317.725 169.296 318.173 169.296C318.813 169.296 319.341 169.44 319.757 169.728C320.184 170.005 320.504 170.389 320.717 170.88C320.941 171.36 321.053 171.909 321.053 172.528V178H319.357V173.04C319.357 172.539 319.304 172.117 319.197 171.776C319.09 171.435 318.914 171.173 318.669 170.992C318.424 170.811 318.104 170.72 317.709 170.72C317.112 170.72 316.626 170.917 316.253 171.312C315.88 171.707 315.693 172.283 315.693 173.04V178H313.997ZM325.662 178.192C324.777 178.192 324.067 177.989 323.534 177.584C323.011 177.179 322.75 176.608 322.75 175.872C322.75 175.136 322.969 174.565 323.406 174.16C323.854 173.744 324.542 173.445 325.47 173.264L328.398 172.704C328.398 172.043 328.243 171.552 327.934 171.232C327.625 170.901 327.166 170.736 326.558 170.736C326.014 170.736 325.587 170.859 325.278 171.104C324.969 171.339 324.755 171.691 324.638 172.16L322.894 172.048C323.054 171.195 323.449 170.523 324.078 170.032C324.718 169.541 325.545 169.296 326.558 169.296C327.71 169.296 328.585 169.605 329.182 170.224C329.79 170.832 330.094 171.691 330.094 172.8V176.112C330.094 176.315 330.126 176.459 330.19 176.544C330.265 176.619 330.382 176.656 330.542 176.656H330.846V178C330.793 178.011 330.707 178.021 330.59 178.032C330.473 178.043 330.35 178.048 330.222 178.048C329.859 178.048 329.545 177.989 329.278 177.872C329.022 177.755 328.83 177.563 328.702 177.296C328.574 177.019 328.51 176.651 328.51 176.192L328.686 176.272C328.601 176.645 328.414 176.976 328.126 177.264C327.849 177.552 327.491 177.781 327.054 177.952C326.627 178.112 326.163 178.192 325.662 178.192ZM325.934 176.848C326.446 176.848 326.883 176.752 327.246 176.56C327.609 176.357 327.891 176.08 328.094 175.728C328.297 175.376 328.398 174.976 328.398 174.528V173.984L325.902 174.464C325.39 174.56 325.027 174.715 324.814 174.928C324.611 175.131 324.51 175.392 324.51 175.712C324.51 176.075 324.633 176.357 324.878 176.56C325.134 176.752 325.486 176.848 325.934 176.848ZM334.025 178C333.47 178 333.022 177.856 332.681 177.568C332.339 177.28 332.169 176.821 332.169 176.192V166.64H333.865V176.032C333.865 176.224 333.913 176.368 334.009 176.464C334.115 176.56 334.265 176.608 334.457 176.608H335.129V178H334.025ZM336.727 180.4V179.008H337.767C338.055 179.008 338.268 178.965 338.407 178.88C338.546 178.795 338.652 178.651 338.727 178.448L338.999 177.744H338.471L335.399 169.488H337.191L339.527 176.176L341.751 169.488H343.559L340.167 178.992C339.996 179.483 339.74 179.84 339.399 180.064C339.068 180.288 338.604 180.4 338.007 180.4H336.727ZM347.933 178.192C347.133 178.192 346.456 178.069 345.901 177.824C345.357 177.579 344.936 177.243 344.637 176.816C344.338 176.379 344.168 175.877 344.125 175.312L345.869 175.232C345.954 175.701 346.157 176.075 346.477 176.352C346.797 176.629 347.282 176.768 347.933 176.768C348.466 176.768 348.888 176.683 349.197 176.512C349.506 176.341 349.661 176.069 349.661 175.696C349.661 175.493 349.608 175.323 349.501 175.184C349.405 175.035 349.213 174.912 348.925 174.816C348.637 174.709 348.21 174.608 347.645 174.512C346.802 174.352 346.141 174.165 345.661 173.952C345.181 173.739 344.84 173.467 344.637 173.136C344.434 172.805 344.333 172.405 344.333 171.936C344.333 171.157 344.621 170.523 345.197 170.032C345.784 169.541 346.626 169.296 347.725 169.296C348.461 169.296 349.08 169.424 349.581 169.68C350.082 169.925 350.472 170.261 350.749 170.688C351.037 171.104 351.218 171.573 351.293 172.096L349.549 172.192C349.496 171.893 349.389 171.637 349.229 171.424C349.08 171.2 348.877 171.029 348.621 170.912C348.365 170.784 348.061 170.72 347.709 170.72C347.165 170.72 346.76 170.827 346.493 171.04C346.226 171.253 346.093 171.531 346.093 171.872C346.093 172.128 346.152 172.336 346.269 172.496C346.397 172.656 346.6 172.789 346.877 172.896C347.154 172.992 347.522 173.077 347.981 173.152C348.866 173.301 349.56 173.488 350.061 173.712C350.562 173.925 350.914 174.192 351.117 174.512C351.32 174.832 351.421 175.221 351.421 175.68C351.421 176.213 351.272 176.667 350.973 177.04C350.674 177.413 350.264 177.701 349.741 177.904C349.218 178.096 348.616 178.192 347.933 178.192ZM356.089 178C355.278 178 354.681 177.813 354.297 177.44C353.913 177.067 353.721 176.485 353.721 175.696V167.488H355.417V175.568C355.417 175.963 355.502 176.235 355.673 176.384C355.844 176.533 356.105 176.608 356.457 176.608H357.673V178H356.089ZM352.425 170.88V169.488H357.673V170.88H352.425Z" fill="#2A3241"/>
<rect x="395.8" y="27.8" width="187.4" height="49.4" rx="12" fill="white"/>
<rect x="395.8" y="27.8" width="187.4" height="49.4" rx="12" stroke="#FFDCEC" stroke-width="1.6"/>
<path d="M410.322 46.4658C410.424 46.354 410.528 46.2441 410.636 46.1362C411.119 45.6528 411.644 45.2359 412.199 44.8854C411.885 44.7989 411.603 44.7477 411.355 44.729C410.783 44.6858 410.532 44.8218 410.426 44.9287C410.319 45.0356 410.183 45.2862 410.226 45.8585C410.24 46.0422 410.272 46.245 410.322 46.4658ZM425.726 54.7109C425.787 54.8339 425.846 54.9559 425.903 55.0768C426.379 56.0979 426.694 57.0946 426.762 57.9905C426.829 58.8821 426.656 59.8109 425.982 60.485C425.308 61.1591 424.379 61.332 423.487 61.2648C422.707 61.2059 421.85 60.9593 420.967 60.5817L420.964 60.5829C420.811 60.5174 420.657 60.448 420.502 60.3748C418.469 59.4125 416.143 57.7207 413.96 55.5371C411.779 53.3558 410.088 51.0323 409.125 49.0009C409.052 48.846 408.982 48.6917 408.916 48.5381L408.917 48.536C408.538 47.6507 408.291 46.7914 408.232 46.009C408.164 45.1173 408.337 44.1886 409.011 43.5144C409.685 42.8403 410.614 42.6674 411.506 42.7347C412.402 42.8022 413.398 43.117 414.419 43.5935C414.543 43.651 414.667 43.7111 414.792 43.7738C417.762 43.0252 421.04 43.8126 423.364 46.1362C425.688 48.4605 426.476 51.7397 425.726 54.7109ZM424.613 57.3044C424.263 57.8579 423.846 58.3816 423.364 58.8641C423.257 58.9711 423.148 59.0749 423.037 59.1754C423.255 59.2254 423.456 59.2567 423.638 59.2704C424.21 59.3136 424.461 59.1777 424.568 59.0708C424.675 58.9639 424.81 58.7132 424.767 58.1409C424.749 57.8954 424.698 57.6156 424.613 57.3044ZM410.636 58.8641C408.372 56.6005 407.567 53.4311 408.219 50.5226C409.301 52.5034 410.924 54.6223 412.899 56.5978C414.876 58.5748 416.997 60.1986 418.979 61.281C416.07 61.9339 412.9 61.1282 410.636 58.8641Z" fill="#1C222D"/>
<path d="M434.376 58V46.64H436.104V52.064L440.888 46.64H442.984L438.632 51.6L443.272 58H441.24L437.48 52.816L436.104 54.352V58H434.376ZM444.403 58V49.488H445.955L446.019 51.76L445.811 51.648C445.907 51.0933 446.088 50.6453 446.355 50.304C446.622 49.9627 446.947 49.712 447.331 49.552C447.715 49.3813 448.131 49.296 448.579 49.296C449.219 49.296 449.747 49.44 450.163 49.728C450.59 50.0053 450.91 50.3893 451.123 50.88C451.347 51.36 451.459 51.9093 451.459 52.528V58H449.763V53.04C449.763 52.5387 449.71 52.1173 449.603 51.776C449.496 51.4347 449.32 51.1733 449.075 50.992C448.83 50.8107 448.51 50.72 448.115 50.72C447.518 50.72 447.032 50.9173 446.659 51.312C446.286 51.7067 446.099 52.2827 446.099 53.04V58H444.403ZM457.173 58.192C456.362 58.192 455.653 58.0107 455.045 57.648C454.437 57.2853 453.967 56.768 453.637 56.096C453.306 55.424 453.141 54.64 453.141 53.744C453.141 52.8373 453.306 52.0533 453.637 51.392C453.967 50.7307 454.437 50.2187 455.045 49.856C455.653 49.4827 456.362 49.296 457.173 49.296C457.983 49.296 458.693 49.4827 459.301 49.856C459.909 50.2187 460.378 50.7307 460.709 51.392C461.039 52.0533 461.205 52.8373 461.205 53.744C461.205 54.64 461.039 55.424 460.709 56.096C460.378 56.768 459.909 57.2853 459.301 57.648C458.693 58.0107 457.983 58.192 457.173 58.192ZM457.173 56.72C457.898 56.72 458.458 56.4587 458.853 55.936C459.247 55.4027 459.445 54.672 459.445 53.744C459.445 52.816 459.247 52.0907 458.853 51.568C458.458 51.0347 457.898 50.768 457.173 50.768C456.458 50.768 455.898 51.0347 455.493 51.568C455.098 52.0907 454.901 52.816 454.901 53.744C454.901 54.672 455.098 55.4027 455.493 55.936C455.898 56.4587 456.458 56.72 457.173 56.72ZM464.397 58L461.805 49.488H463.581L465.405 56.144L467.277 49.488H468.877L470.749 56.144L472.589 49.488H474.365L471.773 58H469.869L468.077 51.92L466.285 58H464.397ZM477.619 58C477.064 58 476.616 57.856 476.275 57.568C475.933 57.28 475.763 56.8213 475.763 56.192V46.64H477.459V56.032C477.459 56.224 477.507 56.368 477.603 56.464C477.709 56.56 477.859 56.608 478.051 56.608H478.723V58H477.619ZM483.673 58.192C482.841 58.192 482.121 58.0107 481.513 57.648C480.915 57.2853 480.451 56.768 480.121 56.096C479.801 55.424 479.641 54.64 479.641 53.744C479.641 52.848 479.801 52.0693 480.121 51.408C480.451 50.736 480.915 50.2187 481.513 49.856C482.11 49.4827 482.814 49.296 483.625 49.296C484.393 49.296 485.07 49.4773 485.657 49.84C486.243 50.192 486.697 50.704 487.017 51.376C487.347 52.048 487.513 52.8587 487.513 53.808V54.24H481.401C481.443 55.072 481.662 55.696 482.057 56.112C482.462 56.528 483.006 56.736 483.689 56.736C484.19 56.736 484.606 56.6187 484.937 56.384C485.267 56.1493 485.497 55.8347 485.625 55.44L487.385 55.552C487.161 56.3413 486.718 56.9813 486.057 57.472C485.406 57.952 484.611 58.192 483.673 58.192ZM481.401 52.96H485.721C485.667 52.2027 485.449 51.6427 485.065 51.28C484.691 50.9173 484.211 50.736 483.625 50.736C483.017 50.736 482.515 50.928 482.121 51.312C481.737 51.6853 481.497 52.2347 481.401 52.96ZM492.255 58.192C491.53 58.192 490.895 58.0107 490.351 57.648C489.818 57.2853 489.407 56.7733 489.119 56.112C488.842 55.44 488.703 54.6507 488.703 53.744C488.703 52.8373 488.847 52.0533 489.135 51.392C489.423 50.72 489.834 50.2027 490.367 49.84C490.901 49.4773 491.53 49.296 492.255 49.296C492.842 49.296 493.365 49.4187 493.823 49.664C494.282 49.9093 494.629 50.2507 494.863 50.688V46.64H496.559V58H494.975L494.927 56.72C494.693 57.1787 494.335 57.5413 493.855 57.808C493.386 58.064 492.853 58.192 492.255 58.192ZM492.703 56.72C493.162 56.72 493.551 56.6027 493.871 56.368C494.191 56.1333 494.437 55.792 494.607 55.344C494.778 54.896 494.863 54.3627 494.863 53.744C494.863 53.104 494.778 52.5653 494.607 52.128C494.437 51.68 494.191 51.344 493.871 51.12C493.551 50.8853 493.162 50.768 492.703 50.768C492.021 50.768 491.477 51.0347 491.071 51.568C490.666 52.0907 490.463 52.816 490.463 53.744C490.463 54.6613 490.666 55.3867 491.071 55.92C491.477 56.4533 492.021 56.72 492.703 56.72ZM502.233 60.592C501.561 60.592 500.969 60.4907 500.457 60.288C499.945 60.0853 499.524 59.7973 499.193 59.424C498.863 59.0613 498.639 58.6347 498.521 58.144L500.281 58.032C500.399 58.384 500.601 58.6613 500.889 58.864C501.188 59.0773 501.636 59.184 502.233 59.184C502.937 59.184 503.476 59.0347 503.849 58.736C504.233 58.4373 504.425 57.984 504.425 57.376V56.144C504.223 56.5813 503.897 56.928 503.449 57.184C503.001 57.44 502.5 57.568 501.945 57.568C501.231 57.568 500.596 57.392 500.041 57.04C499.487 56.688 499.055 56.2027 498.745 55.584C498.436 54.9653 498.281 54.2507 498.281 53.44C498.281 52.6187 498.431 51.8987 498.729 51.28C499.039 50.6613 499.465 50.176 500.009 49.824C500.564 49.472 501.188 49.296 501.881 49.296C502.489 49.296 503.023 49.4347 503.481 49.712C503.951 49.9893 504.287 50.3627 504.489 50.832V49.488H506.121V57.328C506.121 58.032 505.961 58.624 505.641 59.104C505.332 59.5947 504.884 59.9627 504.297 60.208C503.721 60.464 503.033 60.592 502.233 60.592ZM502.217 56.128C502.879 56.128 503.407 55.888 503.801 55.408C504.207 54.928 504.415 54.2667 504.425 53.424C504.436 52.8693 504.351 52.3947 504.169 52C503.988 51.5947 503.727 51.2853 503.385 51.072C503.055 50.848 502.665 50.736 502.217 50.736C501.524 50.736 500.985 50.9813 500.601 51.472C500.228 51.952 500.041 52.6027 500.041 53.424C500.041 54.256 500.233 54.9173 500.617 55.408C501.012 55.888 501.545 56.128 502.217 56.128ZM511.876 58.192C511.044 58.192 510.324 58.0107 509.716 57.648C509.119 57.2853 508.655 56.768 508.324 56.096C508.004 55.424 507.844 54.64 507.844 53.744C507.844 52.848 508.004 52.0693 508.324 51.408C508.655 50.736 509.119 50.2187 509.716 49.856C510.313 49.4827 511.017 49.296 511.828 49.296C512.596 49.296 513.273 49.4773 513.86 49.84C514.447 50.192 514.9 50.704 515.22 51.376C515.551 52.048 515.716 52.8587 515.716 53.808V54.24H509.604C509.647 55.072 509.865 55.696 510.26 56.112C510.665 56.528 511.209 56.736 511.892 56.736C512.393 56.736 512.809 56.6187 513.14 56.384C513.471 56.1493 513.7 55.8347 513.828 55.44L515.588 55.552C515.364 56.3413 514.921 56.9813 514.26 57.472C513.609 57.952 512.815 58.192 511.876 58.192ZM509.604 52.96H513.924C513.871 52.2027 513.652 51.6427 513.268 51.28C512.895 50.9173 512.415 50.736 511.828 50.736C511.22 50.736 510.719 50.928 510.324 51.312C509.94 51.6853 509.7 52.2347 509.604 52.96ZM525.753 58.256C524.847 58.256 524.057 58.0907 523.385 57.76C522.724 57.4293 522.201 56.9707 521.817 56.384C521.433 55.7973 521.209 55.1147 521.145 54.336L522.921 54.224C522.996 54.7573 523.151 55.2107 523.385 55.584C523.62 55.9467 523.935 56.224 524.329 56.416C524.735 56.5973 525.22 56.688 525.785 56.688C526.276 56.688 526.692 56.6293 527.033 56.512C527.385 56.384 527.652 56.1973 527.833 55.952C528.015 55.7067 528.105 55.408 528.105 55.056C528.105 54.736 528.025 54.4533 527.865 54.208C527.716 53.952 527.423 53.7227 526.985 53.52C526.559 53.3067 525.929 53.0987 525.097 52.896C524.191 52.672 523.465 52.4267 522.921 52.16C522.377 51.8933 521.983 51.5627 521.737 51.168C521.503 50.7627 521.385 50.2667 521.385 49.68C521.385 49.0293 521.54 48.4587 521.849 47.968C522.169 47.4667 522.623 47.0773 523.209 46.8C523.796 46.5227 524.5 46.384 525.321 46.384C526.185 46.384 526.921 46.544 527.529 46.864C528.148 47.184 528.633 47.6213 528.985 48.176C529.348 48.7307 529.572 49.3653 529.657 50.08L527.881 50.176C527.828 49.7387 527.695 49.3547 527.481 49.024C527.268 48.6827 526.98 48.4213 526.617 48.24C526.255 48.048 525.812 47.952 525.289 47.952C524.628 47.952 524.105 48.1067 523.721 48.416C523.348 48.7147 523.161 49.1147 523.161 49.616C523.161 49.936 523.236 50.208 523.385 50.432C523.545 50.6453 523.823 50.832 524.217 50.992C524.623 51.152 525.193 51.3227 525.929 51.504C526.911 51.728 527.689 52.0053 528.265 52.336C528.852 52.656 529.268 53.0347 529.513 53.472C529.759 53.9093 529.881 54.4053 529.881 54.96C529.881 55.632 529.705 56.2187 529.353 56.72C529.012 57.2107 528.532 57.5893 527.913 57.856C527.295 58.1227 526.575 58.256 525.753 58.256ZM535.641 58.192C534.81 58.192 534.09 58.0107 533.482 57.648C532.884 57.2853 532.42 56.768 532.09 56.096C531.77 55.424 531.61 54.64 531.61 53.744C531.61 52.848 531.77 52.0693 532.09 51.408C532.42 50.736 532.884 50.2187 533.482 49.856C534.079 49.4827 534.783 49.296 535.594 49.296C536.362 49.296 537.039 49.4773 537.626 49.84C538.212 50.192 538.666 50.704 538.986 51.376C539.316 52.048 539.482 52.8587 539.482 53.808V54.24H533.37C533.412 55.072 533.631 55.696 534.026 56.112C534.431 56.528 534.975 56.736 535.658 56.736C536.159 56.736 536.575 56.6187 536.906 56.384C537.236 56.1493 537.466 55.8347 537.594 55.44L539.354 55.552C539.13 56.3413 538.687 56.9813 538.026 57.472C537.375 57.952 536.58 58.192 535.641 58.192ZM533.37 52.96H537.69C537.636 52.2027 537.418 51.6427 537.034 51.28C536.66 50.9173 536.18 50.736 535.594 50.736C534.986 50.736 534.484 50.928 534.09 51.312C533.706 51.6853 533.466 52.2347 533.37 52.96ZM543.756 58.192C542.871 58.192 542.161 57.9893 541.628 57.584C541.105 57.1787 540.844 56.608 540.844 55.872C540.844 55.136 541.063 54.5653 541.5 54.16C541.948 53.744 542.636 53.4453 543.564 53.264L546.492 52.704C546.492 52.0427 546.337 51.552 546.028 51.232C545.719 50.9013 545.26 50.736 544.652 50.736C544.108 50.736 543.681 50.8587 543.372 51.104C543.063 51.3387 542.849 51.6907 542.732 52.16L540.988 52.048C541.148 51.1947 541.543 50.5227 542.172 50.032C542.812 49.5413 543.639 49.296 544.652 49.296C545.804 49.296 546.679 49.6053 547.276 50.224C547.884 50.832 548.188 51.6907 548.188 52.8V56.112C548.188 56.3147 548.22 56.4587 548.284 56.544C548.359 56.6187 548.476 56.656 548.636 56.656H548.94V58C548.887 58.0107 548.801 58.0213 548.684 58.032C548.567 58.0427 548.444 58.048 548.316 58.048C547.953 58.048 547.639 57.9893 547.372 57.872C547.116 57.7547 546.924 57.5627 546.796 57.296C546.668 57.0187 546.604 56.6507 546.604 56.192L546.78 56.272C546.695 56.6453 546.508 56.976 546.22 57.264C545.943 57.552 545.585 57.7813 545.148 57.952C544.721 58.112 544.257 58.192 543.756 58.192ZM544.028 56.848C544.54 56.848 544.977 56.752 545.34 56.56C545.703 56.3573 545.985 56.08 546.188 55.728C546.391 55.376 546.492 54.976 546.492 54.528V53.984L543.996 54.464C543.484 54.56 543.121 54.7147 542.908 54.928C542.705 55.1307 542.604 55.392 542.604 55.712C542.604 56.0747 542.727 56.3573 542.972 56.56C543.228 56.752 543.58 56.848 544.028 56.848ZM550.372 58V49.488H551.924L551.988 51.744L551.844 51.696C551.961 50.928 552.196 50.368 552.548 50.016C552.911 49.664 553.396 49.488 554.004 49.488H554.82V51.008H554.004C553.577 51.008 553.22 51.0773 552.932 51.216C552.644 51.3547 552.425 51.568 552.276 51.856C552.137 52.144 552.068 52.5173 552.068 52.976V58H550.372ZM559.532 58.192C558.721 58.192 558.012 58.0107 557.404 57.648C556.796 57.2853 556.327 56.768 555.996 56.096C555.665 55.424 555.5 54.64 555.5 53.744C555.5 52.848 555.665 52.0693 555.996 51.408C556.327 50.736 556.796 50.2187 557.404 49.856C558.012 49.4827 558.721 49.296 559.532 49.296C560.225 49.296 560.839 49.4187 561.372 49.664C561.916 49.8987 562.353 50.2453 562.684 50.704C563.025 51.1627 563.244 51.7227 563.34 52.384L561.564 52.48C561.479 51.9253 561.255 51.504 560.892 51.216C560.529 50.9173 560.076 50.768 559.532 50.768C558.817 50.768 558.257 51.0347 557.852 51.568C557.457 52.0907 557.26 52.816 557.26 53.744C557.26 54.672 557.457 55.4027 557.852 55.936C558.257 56.4587 558.817 56.72 559.532 56.72C560.076 56.72 560.529 56.5707 560.892 56.272C561.255 55.9627 561.479 55.4987 561.564 54.88L563.34 54.976C563.244 55.6267 563.025 56.192 562.684 56.672C562.353 57.152 561.916 57.5253 561.372 57.792C560.839 58.0587 560.225 58.192 559.532 58.192ZM564.888 58V46.64H566.584V51.408L566.376 51.376C566.472 50.896 566.648 50.5067 566.904 50.208C567.16 49.8987 567.474 49.6693 567.848 49.52C568.221 49.3707 568.632 49.296 569.08 49.296C569.698 49.296 570.221 49.4347 570.648 49.712C571.074 49.9787 571.394 50.3573 571.608 50.848C571.832 51.3387 571.944 51.8987 571.944 52.528V58H570.248V52.976C570.248 52.208 570.114 51.6427 569.848 51.28C569.592 50.9067 569.186 50.72 568.632 50.72C568.013 50.72 567.517 50.9173 567.144 51.312C566.77 51.696 566.584 52.2613 566.584 53.008V58H564.888Z" fill="#2A3241"/>
<rect x="420.8" y="267.8" width="162.4" height="49.4" rx="12" fill="white"/>
<rect x="420.8" y="267.8" width="162.4" height="49.4" rx="12" stroke="#FFDCEC" stroke-width="1.6"/>
<path fill-rule="evenodd" clip-rule="evenodd" d="M437 302.5H457V282.5H437V302.5ZM446 284.5V288.5H439V284.5H446ZM439 294.5V290.5H446V294.5H439ZM439 296.5H446V300.5H439V296.5ZM448 296.5H455V300.5H448V296.5ZM455 294.5H448V290.5H455V294.5ZM455 284.5V288.5H448V284.5H455Z" fill="#020617"/>
<path d="M468.376 298V286.64H472.024C473.805 286.64 475.176 287.136 476.136 288.128C477.096 289.109 477.576 290.512 477.576 292.336C477.576 294.149 477.101 295.547 476.152 296.528C475.213 297.509 473.869 298 472.12 298H468.376ZM470.104 296.416H472.024C473.283 296.416 474.221 296.08 474.84 295.408C475.469 294.725 475.784 293.701 475.784 292.336C475.784 290.949 475.469 289.92 474.84 289.248C474.221 288.565 473.283 288.224 472.024 288.224H470.104V296.416ZM481.99 298.192C481.105 298.192 480.396 297.989 479.862 297.584C479.34 297.179 479.078 296.608 479.078 295.872C479.078 295.136 479.297 294.565 479.734 294.16C480.182 293.744 480.87 293.445 481.798 293.264L484.726 292.704C484.726 292.043 484.572 291.552 484.262 291.232C483.953 290.901 483.494 290.736 482.886 290.736C482.342 290.736 481.916 290.859 481.606 291.104C481.297 291.339 481.084 291.691 480.966 292.16L479.222 292.048C479.382 291.195 479.777 290.523 480.406 290.032C481.046 289.541 481.873 289.296 482.886 289.296C484.038 289.296 484.913 289.605 485.51 290.224C486.118 290.832 486.422 291.691 486.422 292.8V296.112C486.422 296.315 486.454 296.459 486.518 296.544C486.593 296.619 486.71 296.656 486.87 296.656H487.174V298C487.121 298.011 487.036 298.021 486.918 298.032C486.801 298.043 486.678 298.048 486.55 298.048C486.188 298.048 485.873 297.989 485.606 297.872C485.35 297.755 485.158 297.563 485.03 297.296C484.902 297.019 484.838 296.651 484.838 296.192L485.014 296.272C484.929 296.645 484.742 296.976 484.454 297.264C484.177 297.552 483.82 297.781 483.382 297.952C482.956 298.112 482.492 298.192 481.99 298.192ZM482.262 296.848C482.774 296.848 483.212 296.752 483.574 296.56C483.937 296.357 484.22 296.08 484.422 295.728C484.625 295.376 484.726 294.976 484.726 294.528V293.984L482.23 294.464C481.718 294.56 481.356 294.715 481.142 294.928C480.94 295.131 480.838 295.392 480.838 295.712C480.838 296.075 480.961 296.357 481.206 296.56C481.462 296.752 481.814 296.848 482.262 296.848ZM491.433 298C490.622 298 490.025 297.813 489.641 297.44C489.257 297.067 489.065 296.485 489.065 295.696V287.488H490.761V295.568C490.761 295.963 490.846 296.235 491.017 296.384C491.187 296.533 491.449 296.608 491.801 296.608H493.017V298H491.433ZM487.769 290.88V289.488H493.017V290.88H487.769ZM496.975 298.192C496.089 298.192 495.38 297.989 494.847 297.584C494.324 297.179 494.063 296.608 494.063 295.872C494.063 295.136 494.281 294.565 494.719 294.16C495.167 293.744 495.855 293.445 496.783 293.264L499.711 292.704C499.711 292.043 499.556 291.552 499.247 291.232C498.937 290.901 498.479 290.736 497.871 290.736C497.327 290.736 496.9 290.859 496.591 291.104C496.281 291.339 496.068 291.691 495.951 292.16L494.207 292.048C494.367 291.195 494.761 290.523 495.391 290.032C496.031 289.541 496.857 289.296 497.871 289.296C499.023 289.296 499.897 289.605 500.495 290.224C501.103 290.832 501.407 291.691 501.407 292.8V296.112C501.407 296.315 501.439 296.459 501.503 296.544C501.577 296.619 501.695 296.656 501.855 296.656H502.159V298C502.105 298.011 502.02 298.021 501.903 298.032C501.785 298.043 501.663 298.048 501.535 298.048C501.172 298.048 500.857 297.989 500.591 297.872C500.335 297.755 500.143 297.563 500.015 297.296C499.887 297.019 499.823 296.651 499.823 296.192L499.999 296.272C499.913 296.645 499.727 296.976 499.439 297.264C499.161 297.552 498.804 297.781 498.367 297.952C497.94 298.112 497.476 298.192 496.975 298.192ZM497.247 296.848C497.759 296.848 498.196 296.752 498.559 296.56C498.921 296.357 499.204 296.08 499.407 295.728C499.609 295.376 499.711 294.976 499.711 294.528V293.984L497.215 294.464C496.703 294.56 496.34 294.715 496.127 294.928C495.924 295.131 495.823 295.392 495.823 295.712C495.823 296.075 495.945 296.357 496.191 296.56C496.447 296.752 496.799 296.848 497.247 296.848ZM506.648 298L510.744 286.64H512.936L517.032 298H515.192L514.152 295.04H509.512L508.488 298H506.648ZM510.056 293.472H513.624L511.832 288.288L510.056 293.472ZM518.247 298V289.488H519.799L519.863 291.76L519.655 291.648C519.751 291.093 519.932 290.645 520.199 290.304C520.466 289.963 520.791 289.712 521.175 289.552C521.559 289.381 521.975 289.296 522.423 289.296C523.063 289.296 523.591 289.44 524.007 289.728C524.434 290.005 524.754 290.389 524.967 290.88C525.191 291.36 525.303 291.909 525.303 292.528V298H523.607V293.04C523.607 292.539 523.554 292.117 523.447 291.776C523.34 291.435 523.164 291.173 522.919 290.992C522.674 290.811 522.354 290.72 521.959 290.72C521.362 290.72 520.876 290.917 520.503 291.312C520.13 291.707 519.943 292.283 519.943 293.04V298H518.247ZM529.912 298.192C529.027 298.192 528.317 297.989 527.784 297.584C527.261 297.179 527 296.608 527 295.872C527 295.136 527.219 294.565 527.656 294.16C528.104 293.744 528.792 293.445 529.72 293.264L532.648 292.704C532.648 292.043 532.493 291.552 532.184 291.232C531.875 290.901 531.416 290.736 530.808 290.736C530.264 290.736 529.837 290.859 529.528 291.104C529.219 291.339 529.005 291.691 528.888 292.16L527.144 292.048C527.304 291.195 527.699 290.523 528.328 290.032C528.968 289.541 529.795 289.296 530.808 289.296C531.96 289.296 532.835 289.605 533.432 290.224C534.04 290.832 534.344 291.691 534.344 292.8V296.112C534.344 296.315 534.376 296.459 534.44 296.544C534.515 296.619 534.632 296.656 534.792 296.656H535.096V298C535.043 298.011 534.957 298.021 534.84 298.032C534.723 298.043 534.6 298.048 534.472 298.048C534.109 298.048 533.795 297.989 533.528 297.872C533.272 297.755 533.08 297.563 532.952 297.296C532.824 297.019 532.76 296.651 532.76 296.192L532.936 296.272C532.851 296.645 532.664 296.976 532.376 297.264C532.099 297.552 531.741 297.781 531.304 297.952C530.877 298.112 530.413 298.192 529.912 298.192ZM530.184 296.848C530.696 296.848 531.133 296.752 531.496 296.56C531.859 296.357 532.141 296.08 532.344 295.728C532.547 295.376 532.648 294.976 532.648 294.528V293.984L530.152 294.464C529.64 294.56 529.277 294.715 529.064 294.928C528.861 295.131 528.76 295.392 528.76 295.712C528.76 296.075 528.883 296.357 529.128 296.56C529.384 296.752 529.736 296.848 530.184 296.848ZM538.275 298C537.72 298 537.272 297.856 536.931 297.568C536.589 297.28 536.419 296.821 536.419 296.192V286.64H538.115V296.032C538.115 296.224 538.163 296.368 538.259 296.464C538.365 296.56 538.515 296.608 538.707 296.608H539.379V298H538.275ZM540.977 300.4V299.008H542.017C542.305 299.008 542.518 298.965 542.657 298.88C542.796 298.795 542.902 298.651 542.977 298.448L543.249 297.744H542.721L539.649 289.488H541.441L543.777 296.176L546.001 289.488H547.809L544.417 298.992C544.246 299.483 543.99 299.84 543.649 300.064C543.318 300.288 542.854 300.4 542.257 300.4H540.977ZM552.183 298.192C551.383 298.192 550.706 298.069 550.151 297.824C549.607 297.579 549.186 297.243 548.887 296.816C548.588 296.379 548.418 295.877 548.375 295.312L550.119 295.232C550.204 295.701 550.407 296.075 550.727 296.352C551.047 296.629 551.532 296.768 552.183 296.768C552.716 296.768 553.138 296.683 553.447 296.512C553.756 296.341 553.911 296.069 553.911 295.696C553.911 295.493 553.858 295.323 553.751 295.184C553.655 295.035 553.463 294.912 553.175 294.816C552.887 294.709 552.46 294.608 551.895 294.512C551.052 294.352 550.391 294.165 549.911 293.952C549.431 293.739 549.09 293.467 548.887 293.136C548.684 292.805 548.583 292.405 548.583 291.936C548.583 291.157 548.871 290.523 549.447 290.032C550.034 289.541 550.876 289.296 551.975 289.296C552.711 289.296 553.33 289.424 553.831 289.68C554.332 289.925 554.722 290.261 554.999 290.688C555.287 291.104 555.468 291.573 555.543 292.096L553.799 292.192C553.746 291.893 553.639 291.637 553.479 291.424C553.33 291.2 553.127 291.029 552.871 290.912C552.615 290.784 552.311 290.72 551.959 290.72C551.415 290.72 551.01 290.827 550.743 291.04C550.476 291.253 550.343 291.531 550.343 291.872C550.343 292.128 550.402 292.336 550.519 292.496C550.647 292.656 550.85 292.789 551.127 292.896C551.404 292.992 551.772 293.077 552.231 293.152C553.116 293.301 553.81 293.488 554.311 293.712C554.812 293.925 555.164 294.192 555.367 294.512C555.57 294.832 555.671 295.221 555.671 295.68C555.671 296.213 555.522 296.667 555.223 297.04C554.924 297.413 554.514 297.701 553.991 297.904C553.468 298.096 552.866 298.192 552.183 298.192ZM557.388 298V289.488H559.084V298H557.388ZM557.356 288.256V286.56H559.116V288.256H557.356ZM564.605 298.192C563.805 298.192 563.128 298.069 562.573 297.824C562.029 297.579 561.608 297.243 561.309 296.816C561.01 296.379 560.84 295.877 560.797 295.312L562.541 295.232C562.626 295.701 562.829 296.075 563.149 296.352C563.469 296.629 563.954 296.768 564.605 296.768C565.138 296.768 565.56 296.683 565.869 296.512C566.178 296.341 566.333 296.069 566.333 295.696C566.333 295.493 566.28 295.323 566.173 295.184C566.077 295.035 565.885 294.912 565.597 294.816C565.309 294.709 564.882 294.608 564.317 294.512C563.474 294.352 562.813 294.165 562.333 293.952C561.853 293.739 561.512 293.467 561.309 293.136C561.106 292.805 561.005 292.405 561.005 291.936C561.005 291.157 561.293 290.523 561.869 290.032C562.456 289.541 563.298 289.296 564.397 289.296C565.133 289.296 565.752 289.424 566.253 289.68C566.754 289.925 567.144 290.261 567.421 290.688C567.709 291.104 567.89 291.573 567.965 292.096L566.221 292.192C566.168 291.893 566.061 291.637 565.901 291.424C565.752 291.2 565.549 291.029 565.293 290.912C565.037 290.784 564.733 290.72 564.381 290.72C563.837 290.72 563.432 290.827 563.165 291.04C562.898 291.253 562.765 291.531 562.765 291.872C562.765 292.128 562.824 292.336 562.941 292.496C563.069 292.656 563.272 292.789 563.549 292.896C563.826 292.992 564.194 293.077 564.653 293.152C565.538 293.301 566.232 293.488 566.733 293.712C567.234 293.925 567.586 294.192 567.789 294.512C567.992 294.832 568.093 295.221 568.093 295.68C568.093 296.213 567.944 296.667 567.645 297.04C567.346 297.413 566.936 297.701 566.413 297.904C565.89 298.096 565.288 298.192 564.605 298.192Z" fill="#2A3241"/>
<defs>
<clipPath id="clip0_1564_26320">
<rect x="251" y="157.5" width="30" height="30" rx="5" fill="white"/>
</clipPath>
</defs>
</svg>
