<svg width="24" height="24" viewBox="0 0 24 24" fill="none" xmlns="http://www.w3.org/2000/svg">
<g clip-path="url(#clip0_292_515)">
<rect width="24" height="24" rx="4" fill="#020617"/>
<path fill-rule="evenodd" clip-rule="evenodd" d="M5.65958 14.1158C5.21989 14.9323 5 16.0101 5 17.3491H13.3655V15.1936H8.20142C8.30868 14.8125 8.45884 14.5077 8.65188 14.2791C8.85567 14.0505 9.19349 13.8056 9.66542 13.5443L11.2903 12.6625C11.9981 12.2924 12.5344 11.8188 12.899 11.2418C13.2744 10.6539 13.4621 10.0007 13.4621 9.28224C13.4621 8.25893 13.1082 7.45878 12.4003 6.8818C11.6925 6.29393 10.7111 6 9.45629 6C8.61973 6 7.8797 6.16329 7.23617 6.48989C6.6034 6.81648 6.11004 7.27915 5.75612 7.87791C5.41292 8.47666 5.24132 9.17339 5.24132 9.96809H7.89575C7.89575 9.34759 8.02982 8.87402 8.29796 8.54742C8.57682 8.20994 8.96826 8.0412 9.47234 8.0412C9.86917 8.0412 10.1856 8.1664 10.4215 8.41678C10.6682 8.65628 10.7916 8.97744 10.7916 9.38024C10.7916 10.1314 10.3893 10.7192 9.58498 11.1438L7.83141 12.0746C6.82329 12.6081 6.09932 13.2884 5.65958 14.1158ZM14.0932 10.3274H16.4098V17.3492H18.9999V6.24501H16.7476C16.7476 6.7349 16.6725 7.12137 16.5224 7.40442C16.383 7.68746 16.1202 7.89975 15.7341 8.04127C15.348 8.1828 14.801 8.25356 14.0932 8.25356V10.3274Z" fill="white"/>
</g>
<defs>
<clipPath id="clip0_292_515">
<rect width="24" height="24" fill="white"/>
</clipPath>
</defs>
</svg>
