<svg width="24" height="24" viewBox="0 0 24 24" fill="none" xmlns="http://www.w3.org/2000/svg">
<path d="M7 12.5996C9.15391 12.5996 10.9004 14.3461 10.9004 16.5C10.9004 18.6539 9.15391 20.4004 7 20.4004C4.84609 20.4004 3.09961 18.6539 3.09961 16.5C3.09961 14.3461 4.84609 12.5996 7 12.5996Z" fill="#F06A6A"/>
<path d="M17 12.5996C19.1539 12.5996 20.9004 14.3461 20.9004 16.5C20.9004 18.6539 19.1539 20.4004 17 20.4004C14.8461 20.4004 13.0996 18.6539 13.0996 16.5C13.0996 14.3461 14.8461 12.5996 17 12.5996Z" fill="#F06A6A"/>
<path d="M12 3.59961C14.1539 3.59961 15.9004 5.34609 15.9004 7.5C15.9004 9.65391 14.1539 11.4004 12 11.4004C9.84609 11.4004 8.09961 9.65391 8.09961 7.5C8.09961 5.34609 9.84609 3.59961 12 3.59961Z" fill="#F06A6A"/>
</svg>
