<svg width="24" height="24" viewBox="0 0 24 24" fill="none" xmlns="http://www.w3.org/2000/svg">
<rect x="15.9606" y="17.2651" width="1.59659" height="8.26656" rx="0.798295" transform="rotate(-44.9004 15.9606 17.2651)" fill="#4584ED"/>
<rect x="6.14453" y="8.80554" width="1.59659" height="10.5848" rx="0.798295" fill="#3BA256"/>
<rect x="9.81079" y="6.26288" width="1.59659" height="13.0092" rx="0.798295" fill="#3BA256"/>
<rect x="13.5953" y="11.23" width="1.59659" height="7.56902" rx="0.798295" fill="#3BA256"/>
<mask id="path-5-inside-1_1373_114" fill="white">
<path d="M17.4542 3.8231C16.1062 2.47511 14.3888 1.55711 12.5191 1.1852C10.6494 0.813294 8.71135 1.00417 6.95011 1.7337C5.18887 2.46323 3.68352 3.69864 2.62441 5.28371C1.5653 6.86878 1 8.73232 1 10.6387L2.74533 10.6387C2.74533 9.07752 3.20827 7.55142 4.0756 6.25337C4.94293 4.95532 6.1757 3.94361 7.61802 3.34618C9.06034 2.74875 10.6474 2.59244 12.1786 2.897C13.7097 3.20157 15.1162 3.95334 16.2201 5.05724L17.4542 3.8231Z"/>
</mask>
<path d="M17.4542 3.8231C16.1062 2.47511 14.3888 1.55711 12.5191 1.1852C10.6494 0.813294 8.71135 1.00417 6.95011 1.7337C5.18887 2.46323 3.68352 3.69864 2.62441 5.28371C1.5653 6.86878 1 8.73232 1 10.6387L2.74533 10.6387C2.74533 9.07752 3.20827 7.55142 4.0756 6.25337C4.94293 4.95532 6.1757 3.94361 7.61802 3.34618C9.06034 2.74875 10.6474 2.59244 12.1786 2.897C13.7097 3.20157 15.1162 3.95334 16.2201 5.05724L17.4542 3.8231Z" stroke="#EC4131" stroke-width="3.54798" mask="url(#path-5-inside-1_1373_114)"/>
<mask id="path-6-inside-2_1373_114" fill="white">
<path d="M1 10.6387C1 12.4725 1.52312 14.2682 2.50796 15.8151C3.4928 17.362 4.89849 18.5959 6.56001 19.3719C8.22153 20.1478 10.0699 20.4337 11.8883 20.196C13.7066 19.9583 15.4194 19.2067 16.8255 18.0297L15.7052 16.6913C14.5537 17.6553 13.1511 18.2707 11.662 18.4654C10.1729 18.6601 8.65922 18.426 7.29856 17.7905C5.9379 17.155 4.78675 16.1446 3.98024 14.8778C3.17373 13.611 2.74533 12.1404 2.74533 10.6387H1Z"/>
</mask>
<path d="M1 10.6387C1 12.4725 1.52312 14.2682 2.50796 15.8151C3.4928 17.362 4.89849 18.5959 6.56001 19.3719C8.22153 20.1478 10.0699 20.4337 11.8883 20.196C13.7066 19.9583 15.4194 19.2067 16.8255 18.0297L15.7052 16.6913C14.5537 17.6553 13.1511 18.2707 11.662 18.4654C10.1729 18.6601 8.65922 18.426 7.29856 17.7905C5.9379 17.155 4.78675 16.1446 3.98024 14.8778C3.17373 13.611 2.74533 12.1404 2.74533 10.6387H1Z" stroke="#FFBE07" stroke-width="3.54798" mask="url(#path-6-inside-2_1373_114)"/>
<mask id="path-7-inside-3_1373_114" fill="white">
<path d="M16.7364 18.1033C17.7838 17.2477 18.6394 16.1813 19.2476 14.9734C19.8558 13.7654 20.203 12.443 20.2667 11.0921C20.3303 9.74118 20.1089 8.39198 19.6169 7.13223C19.1249 5.87247 18.3733 4.73036 17.411 3.78012L16.1847 5.02204C16.9728 5.80021 17.5883 6.73552 17.9912 7.76716C18.3941 8.79881 18.5754 9.90369 18.5233 11.01C18.4712 12.1163 18.1868 13.1993 17.6888 14.1885C17.1907 15.1777 16.49 16.051 15.6323 16.7517L16.7364 18.1033Z"/>
</mask>
<path d="M16.7364 18.1033C17.7838 17.2477 18.6394 16.1813 19.2476 14.9734C19.8558 13.7654 20.203 12.443 20.2667 11.0921C20.3303 9.74118 20.1089 8.39198 19.6169 7.13223C19.1249 5.87247 18.3733 4.73036 17.411 3.78012L16.1847 5.02204C16.9728 5.80021 17.5883 6.73552 17.9912 7.76716C18.3941 8.79881 18.5754 9.90369 18.5233 11.01C18.4712 12.1163 18.1868 13.1993 17.6888 14.1885C17.1907 15.1777 16.49 16.051 15.6323 16.7517L16.7364 18.1033Z" stroke="#4584ED" stroke-width="3.54798" mask="url(#path-7-inside-3_1373_114)"/>
</svg>
