<svg width="24" height="24" viewBox="0 0 24 24" fill="none" xmlns="http://www.w3.org/2000/svg">
<g clip-path="url(#clip0_1947_55)">
<circle cx="12" cy="12" r="11" fill="url(#paint0_radial_1947_55)"/>
<path d="M11.4159 19.0718C10.7685 19.0373 10.1369 18.8906 9.54938 18.6381C9.3955 18.5719 9.11043 18.4257 9.0004 18.3564C8.36117 17.954 7.89224 17.5016 7.47851 16.888C7.39534 16.7647 7.36987 16.724 7.29891 16.6013C6.97498 16.0413 6.75201 15.4432 6.59782 14.7206C6.49394 14.234 6.44829 13.8015 6.43858 13.2126C6.42265 12.2438 6.51077 11.4849 6.74217 10.598C6.87323 10.0957 7.14887 9.34395 7.29512 9.08996C7.30965 9.06473 7.36703 8.95636 7.42262 8.84914C7.71285 8.28944 8.03291 7.80667 8.41484 7.3526C8.94213 6.72568 9.60517 6.17128 10.3006 5.77585C10.556 5.63062 10.9719 5.42625 11.1501 5.35838C11.2359 5.3257 11.3232 5.29141 11.3442 5.28214C11.4692 5.22698 11.9288 5.09407 12.1498 5.04916C12.631 4.95134 12.9434 4.91951 13.4211 4.91956C13.8455 4.91962 14.1105 4.9418 14.4612 5.00662C15.294 5.16054 15.9768 5.5123 16.4125 6.01193C16.5791 6.20296 16.7418 6.46018 16.8075 6.63646C16.8192 6.66768 16.8322 6.69836 16.8364 6.70467C16.8406 6.71098 16.8531 6.7471 16.8642 6.78494C16.8753 6.82279 16.8887 6.86664 16.8941 6.88242C16.8994 6.8982 16.9123 6.9498 16.9227 6.9971C16.9331 7.04439 16.9464 7.10375 16.9522 7.12898C16.9851 7.27035 16.9965 7.65411 16.9743 7.8703C16.9615 7.995 16.9202 8.21653 16.888 8.33309C16.8775 8.37093 16.8649 8.41738 16.8599 8.4363C16.8185 8.59331 16.7505 8.75382 16.6025 9.04409C16.5747 9.09842 16.4378 9.30448 16.37 9.39385C16.2952 9.49243 16.0668 9.72073 15.9521 9.81149C15.8192 9.91674 15.7631 9.95458 15.6541 10.0125C15.3749 10.161 15.1105 10.2295 14.867 10.2163C14.6873 10.2066 14.6034 10.1679 14.5548 10.0723C14.5181 10.0001 14.5102 9.94233 14.5239 9.84683C14.5431 9.71369 14.5762 9.63112 14.738 9.31232C15.0524 8.69311 15.1583 8.36105 15.206 7.84571C15.236 7.52156 15.2018 7.184 15.1132 6.92719C15.076 6.81955 14.9751 6.62545 14.905 6.52703C14.8288 6.41986 14.6819 6.27257 14.5808 6.20183C14.4358 6.10037 14.2245 6.00729 14.0431 5.96495C13.8621 5.92268 13.8502 5.92062 13.7447 5.91346C13.6875 5.90957 13.6152 5.9042 13.5842 5.90152C13.5531 5.89885 13.452 5.90174 13.3594 5.90794C12.9387 5.93606 12.5467 6.03945 12.15 6.22692C11.7224 6.42896 11.4637 6.59781 11.0908 6.91808C10.9288 7.05723 10.6728 7.314 10.5619 7.44844C10.183 7.908 9.91073 8.3199 9.67003 8.79753C9.57378 8.98852 9.42245 9.32647 9.36878 9.47034C9.35505 9.50711 9.33866 9.55009 9.33233 9.56587C9.22011 9.84532 9.0651 10.3586 8.99469 10.684C8.9783 10.7597 8.95716 10.8551 8.94766 10.8961C8.93818 10.9371 8.92574 11.0042 8.91999 11.0452C8.91425 11.0862 8.90147 11.161 8.89158 11.2115C8.73673 12.0009 8.69383 13.2105 8.79378 13.9695C8.81412 14.1239 8.87339 14.4737 8.89093 14.5429C8.89974 14.5776 8.92595 14.6834 8.94918 14.778C9.02953 15.105 9.16835 15.4846 9.31825 15.7871C9.50955 16.1732 9.73173 16.4852 10.0168 16.7683C10.2501 16.9999 10.4032 17.1221 10.6358 17.2618C10.7602 17.3367 10.9709 17.4421 11.0634 17.4757C11.0825 17.4827 11.1397 17.5039 11.1905 17.5229C11.4556 17.6219 11.7627 17.6735 12.1362 17.6818C12.5907 17.6919 12.9929 17.6435 13.3517 17.5357C13.4211 17.5149 13.5611 17.4687 13.589 17.4575C13.6047 17.4511 13.667 17.4268 13.7274 17.4033C14.2696 17.1927 14.843 16.8155 15.3099 16.3623C15.4771 16.2 15.7232 15.9313 15.8308 15.7937C15.8721 15.7409 15.9193 15.6817 15.9355 15.6621C15.9518 15.6426 15.998 15.5801 16.0381 15.5234C16.0782 15.4666 16.1206 15.4073 16.1325 15.3915C16.1639 15.3496 16.4232 14.9369 16.4603 14.8697C16.4777 14.8382 16.4961 14.8072 16.5011 14.8009C16.5061 14.7946 16.5504 14.712 16.5994 14.6174C16.723 14.3789 16.7627 14.3167 16.8155 14.2787C16.9433 14.1869 17.104 14.2497 17.1638 14.4147C17.1977 14.5081 17.1875 14.7542 17.1422 14.9385C17.1154 15.0479 17.0054 15.3627 16.946 15.5004C16.8864 15.6383 16.7687 15.8669 16.6669 16.0422C16.3811 16.5344 16.0395 16.9735 15.6115 17.3991C15.2941 17.7146 14.9922 17.9624 14.6596 18.1804C14.5632 18.2435 14.4714 18.3041 14.4555 18.315C14.4396 18.3259 14.385 18.357 14.3341 18.3842C14.2833 18.4114 14.2365 18.4376 14.2301 18.4424C14.2013 18.4643 13.8682 18.6234 13.7274 18.6826C12.9921 18.9915 12.2515 19.1162 11.4159 19.0718Z" fill="white" stroke="white" stroke-width="0.114943"/>
</g>
<defs>
<radialGradient id="paint0_radial_1947_55" cx="0" cy="0" r="1" gradientUnits="userSpaceOnUse" gradientTransform="translate(5.95 2.34444) rotate(51.7431) scale(21.713)">
<stop offset="0.355769" stop-color="#02C1CC"/>
<stop offset="1" stop-color="#752AEC"/>
</radialGradient>
<clipPath id="clip0_1947_55">
<rect width="22" height="22" fill="white" transform="translate(1 1)"/>
</clipPath>
</defs>
</svg>
