<svg width="24" height="24" viewBox="0 0 24 24" fill="none" xmlns="http://www.w3.org/2000/svg">
<g clip-path="url(#clip0_1759_96)">
<path d="M11.9997 16.9989C14.7611 16.9989 16.9997 14.7604 16.9997 11.9989C16.9997 9.2375 14.7611 6.99893 11.9997 6.99893C9.23826 6.99893 6.99968 9.2375 6.99968 11.9989C6.99968 14.7604 9.23826 16.9989 11.9997 16.9989Z" fill="white"/>
<path d="M7.66956 14.5L3.34012 7.00125C2.46226 8.52125 2.00006 10.2456 2 12.0009C1.99994 13.7562 2.46202 15.4806 3.33977 17.0006C4.21753 18.5207 5.48003 19.7829 7.00032 20.6603C8.5206 21.5377 10.2451 21.9993 12.0004 21.9988L16.3298 14.5V14.4987C15.8913 15.2592 15.2603 15.8907 14.5002 16.3299C13.7402 16.769 12.8779 17.0003 12.0001 17.0004C11.1223 17.0006 10.2599 16.7696 9.49968 16.3306C8.73952 15.8917 8.10829 15.2603 7.66956 14.5Z" fill="url(#paint0_linear_1759_96)"/>
<path d="M16.3295 14.4997L12.0001 21.9985C13.7554 21.9988 15.4798 21.5369 17 20.6592C18.5201 19.7817 19.7824 18.5193 20.66 16.9991C21.5375 15.4789 21.9994 13.7545 21.9991 11.9992C21.9988 10.2439 21.5363 8.5196 20.6582 6.99969H11.9994L11.9983 7.00036C12.8761 6.99992 13.7385 7.23065 14.4989 7.66928C15.2592 8.10795 15.8907 8.73906 16.3297 9.49922C16.7687 10.2593 16.9998 11.1217 16.9998 11.9995C16.9998 12.8773 16.7685 13.7396 16.3295 14.4997Z" fill="url(#paint1_linear_1759_96)"/>
<path d="M11.9997 15.9584C14.1858 15.9584 15.958 14.1861 15.958 12C15.958 9.81388 14.1858 8.04166 11.9997 8.04166C9.81356 8.04166 8.04137 9.81388 8.04137 12C8.04137 14.1861 9.81356 15.9584 11.9997 15.9584Z" fill="#1A73E8"/>
<path d="M11.9997 7H20.6586C19.7811 5.47975 18.5189 4.21729 16.9988 3.33959C15.4787 2.46189 13.7543 1.99988 11.999 2C10.2437 2.00012 8.51937 2.46238 6.9994 3.3403C5.4794 4.21822 4.21736 5.48086 3.34014 7.00121L7.66956 14.5L7.67067 14.5006C7.2314 13.7406 6.99997 12.8784 6.99968 12.0006C6.9994 11.1228 7.23029 10.2603 7.66908 9.50009C8.10784 8.73984 8.73911 8.10851 9.4993 7.66965C10.2595 7.23076 11.1219 6.99981 11.9997 7Z" fill="url(#paint2_linear_1759_96)"/>
</g>
<defs>
<linearGradient id="paint0_linear_1759_96" x1="13.0821" y1="21.3743" x2="4.42293" y2="6.37611" gradientUnits="userSpaceOnUse">
<stop stop-color="#1E8E3E"/>
<stop offset="1" stop-color="#34A853"/>
</linearGradient>
<linearGradient id="paint1_linear_1759_96" x1="10.541" y1="22.025" x2="19.2003" y2="7.02684" gradientUnits="userSpaceOnUse">
<stop stop-color="#FCC934"/>
<stop offset="1" stop-color="#FBBC04"/>
</linearGradient>
<linearGradient id="paint2_linear_1759_96" x1="3.34014" y1="8.25029" x2="20.6586" y2="8.25029" gradientUnits="userSpaceOnUse">
<stop stop-color="#D93025"/>
<stop offset="1" stop-color="#EA4335"/>
</linearGradient>
<clipPath id="clip0_1759_96">
<rect width="20" height="20" fill="white" transform="translate(2 2)"/>
</clipPath>
</defs>
</svg>
