<svg width="24" height="24" viewBox="0 0 24 24" fill="none" xmlns="http://www.w3.org/2000/svg">
<path d="M3 8.13164C3 5.04898 5.39433 2.54999 8.34788 2.54999H16.8847C18.9778 2.54999 20.6747 4.32101 20.6747 6.50569C20.6747 8.08808 19.7712 9.51821 18.3776 10.1415L12.4759 12.7814C11.124 13.3861 9.67019 13.7034 8.19946 13.7146C5.33404 13.7364 3 11.3181 3 8.32729V8.13164Z" fill="#355146"/>
<path d="M21 17.0545C21 19.4821 19.1145 21.45 16.7886 21.45H13.9864C11.9808 21.45 10.3451 19.7727 10.3096 17.6798C10.2827 16.0976 11.189 14.6605 12.5918 14.0604L15.0848 12.9941C15.5899 12.778 16.1298 12.6646 16.6756 12.6599L16.7537 12.6592C19.0931 12.6389 21 14.6127 21 17.0545Z" fill="#D9A6E5"/>
<path d="M3 17.6587C3 15.8773 4.3836 14.4332 6.09036 14.4332C7.79712 14.4332 9.18072 15.8773 9.18072 17.6587V18.1114C9.18072 19.8927 7.79712 21.3368 6.09036 21.3368C4.3836 21.3368 3 19.8927 3 18.1114V17.6587Z" fill="#FF7759"/>
</svg>
