<svg width="24" height="24" viewBox="0 0 24 24" fill="none" xmlns="http://www.w3.org/2000/svg">
<g clip-path="url(#clip0_602_27)">
<path d="M2.7252 17.0045C2.51845 17.3383 2.28585 17.7246 2.0885 18.0336C1.91229 18.3286 2.00705 18.7087 2.30152 18.8891L6.4381 21.4063C6.58298 21.4946 6.7584 21.5225 6.92443 21.4822C7.09046 21.4419 7.23299 21.3374 7.31992 21.1926C7.48516 20.9185 7.69896 20.5631 7.93077 20.183C9.5699 17.5086 11.2176 17.8361 14.1905 19.2391L18.2926 21.1678C18.4476 21.2406 18.627 21.2484 18.7875 21.1895C18.9489 21.1299 19.0789 21.0091 19.1486 20.8535L21.1182 16.4486C21.2576 16.1343 21.1158 15.7673 20.8002 15.624C19.9348 15.2214 18.2135 14.4192 16.6636 13.6798C11.0876 11.0016 6.3496 11.175 2.7252 17.0045Z" fill="url(#paint0_linear_602_27)"/>
<path d="M21.2748 7.0086C21.4815 6.67489 21.7141 6.28852 21.9115 5.97959C22.0877 5.68459 21.9929 5.30442 21.6985 5.12401L17.5611 2.60761C17.4147 2.51005 17.2338 2.47675 17.0622 2.51624C16.89 2.55573 16.7427 2.66413 16.6542 2.81511C16.489 3.08921 16.2752 3.4446 16.0434 3.82477C14.4042 6.49913 12.7565 6.17161 9.78368 4.76862L5.69487 2.84996C5.53981 2.77717 5.36046 2.76943 5.19992 2.82828C5.03859 2.8879 4.90859 3.00868 4.83889 3.16431L2.86928 7.56918C2.72988 7.88354 2.87162 8.25054 3.18723 8.39378C4.05261 8.79641 5.77397 9.59856 7.32381 10.338C12.9116 13.0124 17.6496 12.8327 21.2748 7.00938V7.0086Z" fill="url(#paint1_linear_602_27)"/>
</g>
<defs>
<linearGradient id="paint0_linear_602_27" x1="21.0049" y1="22.604" x2="16.492" y2="12.0805" gradientUnits="userSpaceOnUse">
<stop offset="0.18" stop-color="#0052CC"/>
<stop offset="1" stop-color="#2684FF"/>
</linearGradient>
<linearGradient id="paint1_linear_602_27" x1="3.07383" y1="1.19601" x2="7.59472" y2="11.7311" gradientUnits="userSpaceOnUse">
<stop offset="0.18" stop-color="#0052CC"/>
<stop offset="1" stop-color="#2684FF"/>
</linearGradient>
<clipPath id="clip0_602_27">
<rect width="20" height="19" fill="white" transform="translate(2 2.5)"/>
</clipPath>
</defs>
</svg>
