<svg width="24" height="24" viewBox="0 0 24 24" fill="none" xmlns="http://www.w3.org/2000/svg">
<path fill-rule="evenodd" clip-rule="evenodd" d="M18.7527 16.9094L16.9717 15.757L15.4861 18.1913L13.7581 17.6958L12.2367 19.9736L12.3146 20.6905L20.5872 19.1951L20.1067 14.1249L18.7527 16.9094ZM11.0382 14.7237L12.3656 14.5446C12.5802 14.6393 12.7297 14.6753 12.9871 14.7396C13.3883 14.8418 13.8523 14.9401 14.5396 14.6005C14.6995 14.5228 15.0329 14.2239 15.1675 14.0534L20.6054 13.086L21.1602 19.6717L11.8436 21.3187L11.0382 14.7237ZM21.1392 12.3506L20.6024 12.4509L19.5712 2L2 3.99843L4.1649 21.2296L6.22182 20.9367C6.0575 20.7067 5.80173 20.4283 5.36511 20.0722C4.75944 19.5787 4.97336 18.74 5.33103 18.2105C5.80376 17.3159 8.2396 16.179 8.1016 14.7491C8.052 14.2292 7.96798 13.5527 7.47568 13.0886C7.45712 13.2813 7.49053 13.4663 7.49053 13.4663C7.49053 13.4663 7.28841 13.2134 7.18786 12.8689C7.08798 12.7365 7.00936 12.6945 6.90308 12.5177C6.82716 12.7219 6.83728 12.9589 6.83728 12.9589C6.83728 12.9589 6.67194 12.576 6.64529 12.2526C6.54743 12.3972 6.5228 12.672 6.5228 12.672C6.5228 12.672 6.3082 12.0683 6.35713 11.7429C6.25928 11.4599 5.96875 10.8983 6.05075 9.62202C6.58691 9.99039 7.76755 9.90302 8.22746 9.23809C8.37997 9.01766 8.48491 8.41661 8.1512 7.23172C7.93694 6.47213 7.40651 5.34086 7.19967 4.91159L7.17504 4.92913C7.28402 5.275 7.50875 5.9995 7.59513 6.35133C7.85629 7.41706 7.92614 7.78842 7.80365 8.27992C7.69939 8.7072 7.44936 8.98655 6.81568 9.29899C6.18201 9.61242 5.34081 8.84952 5.28784 8.80749C4.67204 8.32625 4.1956 7.54151 4.14263 7.1599C4.08729 6.74254 4.38793 6.49199 4.53944 6.15075C4.32247 6.21132 4.08088 6.31955 4.08088 6.31955C4.08088 6.31955 4.36938 6.02664 4.72502 5.77344C4.87247 5.67779 4.95885 5.61689 5.11407 5.49046C4.88934 5.48682 4.7068 5.49311 4.7068 5.49311C4.7068 5.49311 5.08167 5.29452 5.47005 5.14989C5.18594 5.13764 4.91364 5.1479 4.91364 5.1479C4.91364 5.1479 5.75011 4.78085 6.41044 4.51177C6.86461 4.32907 7.30832 4.38302 7.55767 4.73683C7.88497 5.2002 8.22881 5.45174 8.9573 5.60763C9.40472 5.41301 9.54036 5.31339 10.1025 5.1628C10.5972 4.62893 10.9855 4.56009 10.9855 4.56009C10.9855 4.56009 10.7929 4.73352 10.7412 5.00591C11.0216 4.78912 11.329 4.60808 11.329 4.60808C11.329 4.60808 11.2099 4.75206 11.0989 4.98109L11.1246 5.01882C11.4519 4.82619 11.8365 4.67461 11.8365 4.67461C11.8365 4.67461 11.7265 4.81097 11.5976 4.98738C11.8446 4.98539 12.345 4.99764 12.5394 5.01915C13.6863 5.04398 13.9241 3.81804 14.3641 3.66414C14.9152 3.47118 15.1615 3.35435 16.1005 4.25923C16.9059 5.03636 17.5356 6.42646 17.2228 6.7379C16.9606 6.9964 16.4437 6.63696 15.8707 5.93661C15.5681 5.56559 15.339 5.12705 15.2317 4.56969C15.1412 4.09937 14.789 3.82665 14.789 3.82665C14.789 3.82665 14.9931 4.27347 14.9931 4.66699C14.9931 4.88213 15.0204 5.68607 15.372 6.13752C15.3373 6.20338 15.3211 6.46386 15.2826 6.51383C14.8737 6.02896 13.9953 5.68209 13.8519 5.57982C14.3368 5.96938 15.451 6.86434 15.8788 7.72255C16.2837 8.53377 16.0452 9.27747 16.25 9.46977C16.3084 9.52471 17.1205 10.5176 17.2768 11.0164C17.5494 11.8856 17.293 12.7994 16.9363 13.366L15.9399 13.5183C15.7941 13.4785 15.696 13.4587 15.5654 13.3845C15.6376 13.2594 15.7806 12.9477 15.782 12.8831L15.7256 12.7865C15.4156 13.2174 14.8963 13.6357 14.4647 13.876C13.8999 14.1901 13.249 14.1415 12.8252 14.0131C11.6226 13.6493 10.4851 12.852 10.2108 12.6425C10.2108 12.6425 10.2024 12.8096 10.254 12.8474C10.557 13.183 11.2518 13.7897 11.9236 14.213L10.4919 14.3675L11.1688 19.5364C10.8688 19.5784 10.8219 19.5993 10.4936 19.6449C10.2041 18.6417 9.65036 17.9867 9.04503 17.6051C8.51123 17.2685 7.77497 17.1927 7.07044 17.3298L7.02522 17.3814C7.51516 17.3314 8.0935 17.4009 8.6877 17.77C9.27076 18.1317 9.74079 19.0661 9.91389 19.6284C10.1356 20.3473 10.2888 21.1164 9.6922 21.9316C9.26807 22.5112 8.02973 22.8312 7.02893 22.1385C7.29617 22.5602 7.65721 22.9047 8.14378 22.9696C8.86586 23.0659 9.55116 22.9428 10.0229 22.4678C10.4254 22.0617 10.6393 21.2124 10.583 20.3181L11.2204 20.2274L11.4505 21.8327L22 20.5866L21.1392 12.3506ZM14.7208 7.99131C14.6914 8.05717 14.6449 8.10053 14.7144 8.315L14.7184 8.32725L14.7296 8.35505L14.7586 8.41926C14.8838 8.67047 15.0211 8.90711 15.2512 9.02825C15.3106 9.01832 15.3724 9.0117 15.4361 9.00872C15.6521 8.99946 15.7884 9.03288 15.8744 9.07856C15.8822 9.03619 15.8839 8.97463 15.8792 8.88361C15.8623 8.56555 15.9433 8.02473 15.3201 7.7401C15.0849 7.63319 14.7549 7.66596 14.6449 7.79967C14.6648 7.80232 14.6827 7.80629 14.6968 7.81092C14.8635 7.86752 14.7508 7.92379 14.7208 7.99131ZM16.468 10.9588C16.3863 10.9145 16.0044 10.932 15.7358 10.9635C15.2242 11.0227 14.6719 11.1965 14.5511 11.2891C14.3311 11.4559 14.431 11.7465 14.5936 11.866C15.0494 12.2 15.449 12.4241 15.8704 12.3694C16.1292 12.336 16.3576 11.9339 16.5193 11.5691C16.6299 11.3179 16.6299 11.0469 16.468 10.9588ZM11.9394 8.38483C12.0835 8.25046 11.2211 8.07405 10.5516 8.52186C10.058 8.85217 10.0421 9.56046 10.5148 9.96193C10.5621 10.0016 10.6012 10.0298 10.6373 10.0529C10.7753 9.98907 10.9326 9.92486 11.1138 9.86727C11.4195 9.76996 11.6739 9.71966 11.8827 9.69285C11.9826 9.58329 12.099 9.39034 12.07 9.04083C12.0302 8.56654 11.6644 8.64167 11.9394 8.38483Z" fill="#632CA6"/>
</svg>
