<svg width="24" height="24" viewBox="0 0 24 24" fill="none" xmlns="http://www.w3.org/2000/svg">
<rect width="24" height="24" rx="4" fill="white"/>
<path d="M21.8007 6.17504C21.5992 6.07679 21.5125 6.26422 21.3946 6.35945C21.3548 6.39069 21.3205 6.4315 21.2868 6.46727C20.992 6.78268 20.6484 6.98925 20.2 6.96406C19.543 6.92829 18.9827 7.13436 18.4875 7.6377C18.3821 7.01747 18.032 6.64714 17.4999 6.40933C17.2208 6.28589 16.9392 6.16245 16.7447 5.8939C16.6081 5.70345 16.5713 5.49083 16.5023 5.28123C16.4595 5.15476 16.4157 5.02477 16.2706 5.00311C16.1129 4.97791 16.0509 5.11093 15.9894 5.22177C15.741 5.67473 15.6458 6.17504 15.6544 6.6814C15.676 7.81908 16.1567 8.72499 17.11 9.37041C17.2188 9.44397 17.2465 9.51904 17.2122 9.62687C17.1472 9.84856 17.0702 10.0642 17.0011 10.2864C16.9583 10.4285 16.8933 10.4597 16.7416 10.3972C16.2182 10.1786 15.7657 9.85511 15.3667 9.46261C14.6885 8.80661 14.0753 8.08158 13.3105 7.51426C13.1306 7.38124 12.9518 7.2578 12.7659 7.14091C11.9854 6.38162 12.8681 5.75786 13.0722 5.6848C13.2863 5.60822 13.1462 5.3427 12.456 5.34572C11.7662 5.34874 11.1339 5.58001 10.3293 5.88785C10.2114 5.93471 10.0879 5.96897 9.96047 5.99568C9.2299 5.85813 8.47163 5.82689 7.67858 5.91607C6.18621 6.08334 4.99412 6.78973 4.11744 7.99593C3.06492 9.44397 2.81703 11.0905 3.12035 12.8096C3.43928 14.6189 4.36181 16.1189 5.78062 17.2908C7.25082 18.5051 8.94473 19.1001 10.877 18.9862C12.0504 18.9192 13.3574 18.7615 14.8311 17.513C15.2029 17.6974 15.5929 17.771 16.2403 17.8269C16.7386 17.8738 17.2183 17.8017 17.5901 17.7251C18.172 17.6017 18.1317 17.0626 17.9216 16.9628C16.2151 16.1677 16.5895 16.4912 16.2489 16.2302C17.116 15.2019 18.423 14.1347 18.9344 10.6784C18.9742 10.4033 18.9399 10.2315 18.9344 10.0083C18.9313 9.87375 18.9616 9.82084 19.1162 9.80523C19.5435 9.75686 19.9587 9.63946 20.3396 9.42886C21.445 8.82424 21.8904 7.83218 21.9957 6.6411C22.0113 6.45971 21.9927 6.27077 21.8012 6.17555L21.8007 6.17504ZM12.1678 16.8892C10.5137 15.5878 9.71208 15.1596 9.38106 15.1782C9.0717 15.1953 9.12712 15.55 9.19514 15.7813C9.26618 16.0095 9.35939 16.1672 9.48988 16.3673C9.57957 16.5003 9.64154 16.6983 9.4002 16.8454C8.86764 17.1769 7.94159 16.7346 7.89775 16.7124C6.82054 16.0781 5.91968 15.2392 5.28434 14.0919C4.67167 12.9875 4.31545 11.803 4.25701 10.5388C4.24139 10.2325 4.33107 10.1247 4.63438 10.0702C5.03342 9.99669 5.44607 9.98107 5.84511 10.039C7.53247 10.2859 8.96942 11.0422 10.1731 12.2373C10.8608 12.92 11.3808 13.7342 11.9169 14.5292C12.4862 15.3747 13.0999 16.1793 13.8803 16.8389C14.1554 17.0701 14.3756 17.2465 14.5857 17.3765C13.9514 17.447 12.8918 17.4626 12.1678 16.8887V16.8892ZM12.9603 11.7843C12.9603 11.6483 13.0687 11.5405 13.2057 11.5405C13.2359 11.5405 13.2641 11.5465 13.2893 11.5561C13.3231 11.5687 13.3543 11.5873 13.3785 11.6155C13.4224 11.6579 13.447 11.7203 13.447 11.7843C13.447 11.9204 13.3387 12.0282 13.2027 12.0282C13.0666 12.0282 12.9603 11.9204 12.9603 11.7843ZM15.4221 13.05C15.2644 13.114 15.1067 13.1704 14.955 13.1764C14.7197 13.1875 14.4628 13.0918 14.3227 12.9749C14.1061 12.7935 13.9519 12.6922 13.8859 12.3733C13.8587 12.2373 13.8743 12.0282 13.8985 11.9078C13.9549 11.6483 13.8924 11.4825 13.71 11.3314C13.5609 11.2079 13.3725 11.1752 13.1649 11.1752C13.0873 11.1752 13.0163 11.1409 12.9634 11.1127C12.8767 11.0689 12.8057 10.961 12.8737 10.8285C12.8953 10.7862 13.0011 10.6814 13.0258 10.6628C13.307 10.502 13.632 10.5549 13.9327 10.6754C14.2119 10.7892 14.422 10.9988 14.7248 11.2941C15.0351 11.6518 15.0906 11.7521 15.2669 12.0191C15.406 12.2302 15.5334 12.4459 15.6201 12.6927C15.6725 12.8459 15.6045 12.9724 15.4216 13.0505L15.4221 13.05Z" fill="#4D6BFE"/>
</svg>
