<svg width="24" height="24" viewBox="0 0 24 24" fill="none" xmlns="http://www.w3.org/2000/svg">
<path d="M22.4866 5.34291C22.2563 5.23062 22.1573 5.44483 22.0225 5.55366C21.977 5.58936 21.9379 5.636 21.8993 5.67688C21.5624 6.03734 21.1697 6.27343 20.6572 6.24464C19.9064 6.20376 19.2661 6.43927 18.7 7.01451C18.5797 6.30568 18.1795 5.88245 17.5714 5.61066C17.2524 5.46959 16.9305 5.32851 16.7083 5.0216C16.5522 4.80394 16.5102 4.56094 16.4313 4.3214C16.3824 4.17687 16.3323 4.02831 16.1664 4.00355C15.9862 3.97476 15.9154 4.12678 15.8451 4.25346C15.5612 4.77112 15.4524 5.34291 15.4622 5.92161C15.487 7.22181 16.0363 8.25713 17.1257 8.99475C17.2501 9.07882 17.2818 9.16462 17.2426 9.28785C17.1684 9.54121 17.0803 9.78766 17.0014 10.0416C16.9524 10.204 16.8781 10.2397 16.7048 10.1683C16.1065 9.91837 15.5895 9.54869 15.1334 9.10013C14.3584 8.35041 13.6576 7.52181 12.7835 6.87343C12.5779 6.72142 12.3735 6.58034 12.161 6.44675C11.2691 5.57899 12.2779 4.86613 12.5111 4.78263C12.7559 4.69511 12.5958 4.39165 11.8069 4.39511C11.0186 4.39856 10.2959 4.66286 9.37636 5.01469C9.24162 5.06824 9.10055 5.1074 8.95486 5.13791C8.11993 4.98072 7.25332 4.94502 6.34698 5.04694C4.6414 5.23811 3.27901 6.04541 2.27709 7.42392C1.0742 9.07882 0.790895 10.9606 1.13754 12.9253C1.50203 14.9931 2.55636 16.7073 4.17787 18.0466C5.85811 19.4344 7.79401 20.1144 10.0023 19.9843C11.3434 19.9077 12.837 19.7275 14.5213 18.3006C14.9463 18.5113 15.392 18.5954 16.1319 18.6593C16.7014 18.7129 17.2495 18.6305 17.6745 18.543C18.3396 18.4019 18.2935 17.7858 18.0534 17.6718C16.1031 16.7631 16.5309 17.1328 16.1417 16.8345C17.1327 15.6593 18.6263 14.4397 19.2108 10.4896C19.2563 10.1752 19.2171 9.97883 19.2108 9.72374C19.2073 9.57 19.2419 9.50954 19.4187 9.49169C19.907 9.43641 20.3814 9.30224 20.8167 9.06155C22.0801 8.37057 22.5891 7.23678 22.7095 5.87554C22.7273 5.66824 22.706 5.45231 22.4872 5.34348L22.4866 5.34291ZM11.4775 17.5877C9.58712 16.1004 8.67099 15.6109 8.29267 15.6322C7.93912 15.6518 8.00246 16.0572 8.08019 16.3215C8.16139 16.5823 8.26791 16.7626 8.41705 16.9912C8.51955 17.1432 8.59037 17.3695 8.31455 17.5376C7.70591 17.9165 6.64756 17.4109 6.59746 17.3856C5.36636 16.6606 4.33679 15.7019 3.61068 14.3908C2.91049 13.1286 2.50338 11.7748 2.43659 10.3301C2.41874 9.97998 2.52123 9.85676 2.86788 9.79457C3.32393 9.7105 3.79552 9.69265 4.25157 9.75887C6.17999 10.041 7.82223 10.9053 9.19786 12.2712C9.98385 13.0514 10.5781 13.9819 11.1908 14.8906C11.8414 15.8568 12.5428 16.7764 13.4347 17.5301C13.7491 17.7944 14.0008 17.996 14.2409 18.1445C13.5159 18.2251 12.305 18.243 11.4775 17.5871V17.5877ZM12.3833 11.7535C12.3833 11.598 12.5071 11.4748 12.6637 11.4748C12.6983 11.4748 12.7305 11.4817 12.7593 11.4927C12.7979 11.5071 12.8336 11.5284 12.8612 11.5606C12.9113 11.609 12.9395 11.6804 12.9395 11.7535C12.9395 11.909 12.8157 12.0322 12.6603 12.0322C12.5048 12.0322 12.3833 11.909 12.3833 11.7535ZM15.1967 13.2C15.0165 13.2731 14.8363 13.3376 14.663 13.3445C14.3941 13.3572 14.1004 13.2478 13.9403 13.1142C13.6927 12.9069 13.5165 12.7911 13.4411 12.4266C13.41 12.2712 13.4278 12.0322 13.4555 11.8946C13.52 11.598 13.4486 11.4086 13.2401 11.2358C13.0697 11.0948 12.8543 11.0573 12.6171 11.0573C12.5284 11.0573 12.4472 11.0182 12.3867 10.9859C12.2877 10.9358 12.2065 10.8126 12.2843 10.6612C12.309 10.6128 12.4299 10.493 12.4582 10.4717C12.7795 10.288 13.1509 10.3485 13.4946 10.4861C13.8136 10.6163 14.0537 10.8558 14.3998 11.1932C14.7545 11.6021 14.8179 11.7167 15.0194 12.0218C15.1783 12.2631 15.324 12.5096 15.423 12.7917C15.4829 12.9668 15.4052 13.1113 15.1962 13.2005L15.1967 13.2Z" fill="#4D6BFE"/>
</svg>
