<svg width="24" height="24" viewBox="0 0 24 24" fill="none" xmlns="http://www.w3.org/2000/svg">
<path d="M2.66323 19.5981L3.63345 21.3487C3.83505 21.7173 4.12486 22.0068 4.46506 22.2174L7.93013 15.9521H1C1 16.3602 1.1008 16.7682 1.30241 17.1368L2.66323 19.5981Z" fill="#0066DA"/>
<path d="M12 8.58119L8.53494 2.31589C8.19473 2.52649 7.90493 2.81606 7.70332 3.18461L1.30241 14.7675C1.10451 15.1281 1.00026 15.5365 1 15.9521H7.93013L12 8.58119Z" fill="#00AC47"/>
<path d="M19.535 22.2174C19.8752 22.0068 20.165 21.7173 20.3666 21.3487L20.7698 20.6248L22.6976 17.1368C22.8992 16.7682 23 16.3602 23 15.9521H16.0694L17.5441 18.9795L19.535 22.2174Z" fill="#EA4335"/>
<path d="M12 8.5812L15.465 2.3159C15.1248 2.1053 14.7342 2 14.331 2H9.66893C9.26573 2 8.87512 2.11846 8.53491 2.3159L12 8.5812Z" fill="#00832D"/>
<path d="M16.0699 15.9521H7.93015L4.46509 22.2174C4.80529 22.428 5.1959 22.5333 5.59911 22.5333H18.4009C18.8041 22.5333 19.1948 22.4149 19.535 22.2174L16.0699 15.9521Z" fill="#2684FC"/>
<path d="M19.4971 8.97606L16.2967 3.18461C16.0951 2.81606 15.8053 2.52649 15.4651 2.31589L12 8.58119L16.0699 15.9521H22.9874C22.9874 15.5441 22.8866 15.1361 22.685 14.7675L19.4971 8.97606Z" fill="#FFBA00"/>
</svg>
