<svg width="24" height="24" viewBox="0 0 24 24" fill="none" xmlns="http://www.w3.org/2000/svg">
<path d="M17.2507 13.6081L4.2489 6.49995C3.03444 5.78557 2.64153 4.39251 3.35592 3.17805C4.0703 2.07075 5.57052 1.67784 6.74926 2.28507L19.7511 9.39322C20.9656 10.1076 21.3585 11.5007 20.6441 12.6794C20.0726 13.8939 18.4652 14.2868 17.2507 13.6081ZM11.2499 17.8944L4.35606 14.1082C3.1416 13.3938 2.74869 12.0007 3.46308 10.822C4.17746 9.7147 5.67768 9.32178 6.85641 9.92901L13.7502 13.751C14.9647 14.4654 15.3576 15.8584 14.6432 17.0372C13.9646 18.1087 12.4644 18.5017 11.2499 17.8944Z" fill="#00BEFF"/>
<path opacity="0.5" d="M3.03442 19.5018V12.1079C3.03442 10.7148 4.14172 9.60754 5.53478 9.60754C6.92783 9.60754 8.03513 10.7148 8.03513 12.1079V19.5018C8.03513 20.8949 6.92783 22.0022 5.53478 22.0022C4.14172 22.0022 3.03442 20.8949 3.03442 19.5018Z" fill="#00BEFF"/>
</svg>
