<svg width="24" height="24" viewBox="0 0 24 24" fill="none" xmlns="http://www.w3.org/2000/svg">
<path d="M6 18C6 16.3431 7.34315 15 9 15H12V18C12 19.6569 10.6569 21 9 21V21C7.34315 21 6 19.6569 6 18V18Z" fill="#0ACF83"/>
<path d="M12 12C12 10.3432 13.3431 9 15 9V9C16.6568 9 18 10.3431 18 12V12C18 13.6569 16.6568 15 15 15V15C13.3431 15 12 13.6568 12 12V12Z" fill="#1ABCFE"/>
<path d="M6 12C6 13.6569 7.34315 15 9 15H12V9H9C7.34315 9 6 10.3431 6 12V12Z" fill="#A259FF"/>
<path d="M12 3V9H15C16.6569 9 18 7.65685 18 6V6C18 4.34315 16.6569 3 15 3H12Z" fill="#FF7262"/>
<path d="M6 6C6 7.65685 7.34315 9 9 9H12V3L9 3C7.34315 3 6 4.34315 6 6V6Z" fill="#F24E1E"/>
</svg>
