<svg width="24" height="24" viewBox="0 0 24 24" fill="none" xmlns="http://www.w3.org/2000/svg">
<g clip-path="url(#clip0_1374_286)">
<path d="M0 4C0 1.79086 1.79086 0 4 0H20C22.2091 0 24 1.79086 24 4V20C24 22.2091 22.2091 24 20 24H4C1.79086 24 0 22.2091 0 20V4Z" fill="#4A1DBD"/>
<g clip-path="url(#clip1_1374_286)">
<path d="M11.9863 13.0398C11.4314 13.0398 10.9335 12.7063 10.7212 12.1898L8.16141 6H9.65962L11.995 11.6623L14.3283 6H15.8265L13.2514 12.192C13.038 12.7063 12.5412 13.0398 11.9863 13.0398Z" fill="white"/>
<path d="M15.3264 15.9979C14.7737 15.9979 14.278 15.6665 14.0634 15.1545C13.8479 14.638 13.9595 14.0484 14.3491 13.6483L19.0112 8.86603L19.5934 10.2569L15.3253 14.6269L21.409 14.5926L21.9912 15.9834L15.3275 16.0001L15.3253 15.9979H15.3264Z" fill="white"/>
<path d="M2 15.9812L2.58222 14.5903L8.66593 14.6247L4.3989 10.2536L4.98112 8.8627L9.64323 13.645C10.0328 14.0439 10.1455 14.6358 9.92884 15.1511C9.71436 15.6643 9.2164 15.9945 8.66593 15.9945L2.00219 15.979L2 15.9812Z" fill="white"/>
</g>
</g>
<defs>
<clipPath id="clip0_1374_286">
<rect width="24" height="24" rx="4" fill="white"/>
</clipPath>
<clipPath id="clip1_1374_286">
<rect width="20" height="10" fill="white" transform="translate(2 6)"/>
</clipPath>
</defs>
</svg>
