<svg width="24" height="24" viewBox="0 0 24 24" fill="none" xmlns="http://www.w3.org/2000/svg">
<path fill-rule="evenodd" clip-rule="evenodd" d="M12 2C6.475 2 2 6.50322 2 12.0631C2 16.516 4.8625 20.277 8.8375 21.6104C9.3375 21.6985 9.525 21.3966 9.525 21.1324C9.525 20.8934 9.5125 20.1009 9.5125 19.2582C7 19.7236 6.35 18.6418 6.15 18.0758C6.0375 17.7864 5.55 16.8933 5.125 16.6543C4.775 16.4657 4.275 16.0002 5.1125 15.9877C5.9 15.9751 6.4625 16.7172 6.65 17.0191C7.55 18.5412 8.9875 18.1135 9.5625 17.8493C9.65 17.1952 9.9125 16.755 10.2 16.5034C7.975 16.2518 5.65 15.3839 5.65 11.5348C5.65 10.4404 6.0375 9.53472 6.675 8.83031C6.575 8.57873 6.225 7.54727 6.775 6.16359C6.775 6.16359 7.6125 5.89944 9.525 7.19506C10.325 6.96864 11.175 6.85543 12.025 6.85543C12.875 6.85543 13.725 6.96864 14.525 7.19506C16.4375 5.88686 17.275 6.16359 17.275 6.16359C17.825 7.54727 17.475 8.57873 17.375 8.83031C18.0125 9.53472 18.4 10.4278 18.4 11.5348C18.4 15.3965 16.0625 16.2518 13.8375 16.5034C14.2 16.8179 14.5125 17.4217 14.5125 18.3651C14.5125 19.711 14.5 20.7928 14.5 21.1324C14.5 21.3966 14.6875 21.711 15.1875 21.6104C19.1375 20.277 22 16.5034 22 12.0631C22 6.50322 17.525 2 12 2Z" fill="white"/>
</svg>
