<svg width="24" height="24" viewBox="0 0 24 24" fill="none" xmlns="http://www.w3.org/2000/svg">
<path d="M21.7965 9.62465L21.7691 9.55297L19.0467 2.45013C18.9923 2.31098 18.8944 2.19375 18.7671 2.11278C18.6402 2.0314 18.4913 1.99303 18.3403 2.00104C18.1902 2.00905 18.046 2.06387 17.9284 2.15748C17.8116 2.25194 17.7272 2.37971 17.6876 2.52393L15.8495 8.14961H8.41265L6.57453 2.52393C6.5349 2.37971 6.45056 2.25194 6.33375 2.15748C6.2161 2.06387 6.07189 2.00905 5.92177 2.00104C5.77081 1.99303 5.62195 2.0314 5.49503 2.11278C5.36768 2.19375 5.26985 2.31098 5.21545 2.45013L2.49307 9.55339L2.46565 9.62465C1.65897 11.7289 2.34631 14.1076 4.14269 15.4662C4.14605 15.4683 4.14901 15.4709 4.15239 15.4734L4.17642 15.4915L8.32325 18.596L10.3743 20.1486L11.6225 21.0923C11.9232 21.32 12.3389 21.32 12.6396 21.0923L13.8878 20.1486L15.9384 18.596L20.1097 15.4734C20.1135 15.4705 20.1169 15.4679 20.1207 15.465C21.9158 14.1063 22.6027 11.7284 21.7965 9.62465Z" fill="#E24329"/>
<path d="M21.7964 9.62467L21.769 9.55298C20.4184 9.83045 19.1744 10.4018 18.1092 11.1988C18.092 11.2115 14.8724 13.6463 12.131 15.7188C14.1665 17.258 15.9384 18.596 15.9384 18.596L20.1097 15.4734C20.1135 15.4705 20.1169 15.4679 20.1207 15.465C21.9158 14.1063 22.6027 11.7284 21.7964 9.62467Z" fill="#FC6D26"/>
<path d="M8.32324 18.596L10.3743 20.1486L11.6225 21.0923C11.9232 21.32 12.3389 21.32 12.6396 21.0923L13.8878 20.1486L15.9384 18.596C15.9384 18.596 14.1665 17.258 12.131 15.7188C10.0952 17.258 8.32324 18.596 8.32324 18.596Z" fill="#FCA326"/>
<path d="M6.15243 11.1988C5.08768 10.4023 3.84413 9.83045 2.49307 9.55341L2.46565 9.62467C1.65897 11.7289 2.34631 14.1076 4.14269 15.4662C4.14605 15.4684 4.14901 15.4709 4.15239 15.4734L4.17643 15.4916L8.32325 18.596C8.32325 18.596 10.0952 17.258 12.1311 15.7188C9.38969 13.6463 6.16972 11.2115 6.15243 11.1988Z" fill="#FC6D26"/>
</svg>
