<svg width="24" height="24" viewBox="0 0 24 24" fill="none" xmlns="http://www.w3.org/2000/svg">
<path d="M2.5 20.5004H6V12.0004L1 8.25043V19.0004C1 19.8304 1.6725 20.5004 2.5 20.5004Z" fill="#4285F4"/>
<path d="M18 20.5004H21.5C22.33 20.5004 23 19.8279 23 19.0004V8.25043L18 12.0004" fill="#34A853"/>
<path d="M18 5.50035V12.0004L23 8.25035V6.25035C23 4.39535 20.8825 3.33785 19.4 4.45035" fill="#FBBC04"/>
<path d="M6 12.0004V5.50043L12 10.0004L18 5.50043V12.0004L12 16.5004" fill="#EA4335"/>
<path d="M1 6.25035V8.25035L6 12.0004V5.50035L4.6 4.45035C3.115 3.33785 1 4.39535 1 6.25035Z" fill="#C5221F"/>
</svg>
