<svg width="24" height="24" viewBox="0 0 24 24" fill="none" xmlns="http://www.w3.org/2000/svg">
<path d="M19.0276 18.931C18.5994 19.4158 18.2324 19.7094 18.0301 19.8497C17.9351 19.9135 17.8756 20.0027 17.7923 20.0792C17.3522 20.4619 16.8751 20.5758 16.542 20.8437C16.0899 21.2009 14.401 21.6256 13.9211 21.7746C13.109 21.9607 12.1954 22.0279 11.1961 21.9897C10.9799 21.9897 10.7799 21.9896 10.5961 21.9752C10.5215 21.9693 10.4467 21.9887 10.3718 21.9896C10.3688 21.9897 10.366 21.9897 10.3634 21.9897C10.3555 21.9897 10.3422 21.9839 10.3236 21.9725C10.3026 21.9596 10.2788 21.9513 10.2541 21.9513C10.2476 21.9513 10.2411 21.9507 10.2347 21.9499C10.134 21.936 10.0805 21.9716 10.0417 21.9914C10.0124 22.0064 9.98045 21.9938 9.95268 21.9761C9.86481 21.9198 9.6688 21.7933 9.60209 21.7729C9.53631 21.7527 9.52986 21.7802 9.49491 21.7864C9.47149 21.7906 9.44714 21.7823 9.42953 21.7662C9.40982 21.7482 9.38873 21.7222 9.34033 21.6962C9.25132 21.6485 9.20393 21.7569 9.07168 21.6356C9.05246 21.6179 9.04117 21.5833 9.01526 21.5816C9.00876 21.5812 9.00405 21.5808 8.99767 21.5796C8.86452 21.5535 8.62258 21.5036 8.45999 21.4538C8.26964 21.4027 8.32897 21.3646 8.24568 21.3263C7.1274 20.9053 5.53335 20.076 4.95041 19.4892C4.73629 19.2723 4.48648 18.7748 4.33181 18.6472C4.21284 18.5451 3.97486 18.341 3.91537 18.239C3.86779 18.1497 3.91528 17.9839 3.83204 17.8691C3.72497 17.7287 3.51078 17.6521 3.30854 17.3332C3.08251 16.976 2.95166 16.504 2.72564 16.0192C2.53529 15.5982 2 14.2204 2 11.7072C2 10.0232 2.77329 7.68854 3.1064 7.36962C3.32047 7.16548 3.29666 6.71905 3.45127 6.50218C5.21619 4.02725 8.30524 2.20645 11.9813 2.01509C12.1307 2.00735 12.2802 2.00253 12.4297 2.00077C13.3367 1.99009 14.2457 2.09016 15.1271 2.30699C16.0077 2.52363 16.8496 2.86169 17.6702 3.24601C17.6702 3.24601 17.7677 3.2538 17.7934 3.26652C17.8362 3.28775 17.8542 3.32642 17.897 3.34768C17.9399 3.36891 18.0017 3.3509 18.0485 3.36055C18.2027 3.39239 18.2303 3.48472 18.2587 3.5215C18.2932 3.56617 18.3347 3.58324 18.4131 3.60594C18.6175 3.66513 18.6444 3.73329 18.6722 3.76468C18.6944 3.78977 18.7041 3.8223 18.7152 3.85146C18.7265 3.8811 18.7488 3.90816 18.7802 3.91558C18.8479 3.93159 18.9401 4.01525 18.9591 4.12936C18.9716 4.20376 19.0513 4.23582 19.0295 4.37538C19.0225 4.42058 19.0702 4.48741 18.8194 4.73678C18.5687 4.98616 18.0425 5.14335 17.7221 5.01948C16.6147 4.5913 16.4505 4.50889 16.0057 4.38651C15.1936 4.16311 14.5016 4.01132 13.6589 4.02732C12.3145 4.05284 11.2556 4.18042 9.98264 4.62693C9.42465 4.82637 8.37122 5.36909 7.84262 5.7917C7.31403 6.21431 6.54873 6.79803 6.23289 7.33837C6.12228 7.52758 5.99781 7.7083 5.73609 8.00171C5.35541 8.42268 4.91477 9.64041 4.77199 10.2273C4.73629 10.3548 4.83131 10.4952 4.78375 10.6228C4.73616 10.7631 4.51011 10.827 4.48631 10.9418C4.39116 11.3501 4.41495 11.8731 4.41495 12.3195C4.41495 12.5619 4.48638 12.8935 4.56965 13.0849C4.62912 13.2125 4.81956 13.3018 4.84335 13.4294C4.85523 13.5187 4.73642 13.6207 4.73631 13.6972C4.73631 13.761 4.84326 14.6287 4.90276 14.7563C4.98607 14.9093 5.24783 15.1007 5.31921 15.2792C5.36677 15.4068 5.23579 15.5345 5.33096 15.662C5.39044 15.7386 5.58094 15.7385 5.65233 15.8405C5.74748 15.9681 5.94965 16.3379 6.04485 16.4528C6.11623 16.5421 6.24711 16.5806 6.30659 16.6188C6.48498 16.7464 6.33047 16.8611 6.49698 17.0524C7.02043 17.652 7.82944 18.3921 8.60274 18.7238C8.72203 18.7749 9.94616 19.2464 10.0183 19.2468C11.7433 19.5033 13.6833 19.4793 15.3607 18.5353C15.7534 18.3183 17.9774 16.7591 18.3462 14.9093C18.4295 14.5394 18.5366 13.6462 18.489 13.289C18.2986 11.9623 17.4881 10.0539 16.0025 9.34713C15.211 8.97065 14.6105 8.97713 14.4559 9.00265C14.0038 9.09193 13.8492 8.82402 13.4328 8.86227C12.1599 8.96434 10.9107 9.3216 9.9352 10.3549C9.04294 11.3117 8.86432 12.5364 9.31641 13.3147C9.36399 13.4167 9.3402 13.5443 9.24503 13.6081C9.20341 13.6336 9.16477 13.6655 9.14693 13.699C9.11144 13.7656 9.21405 13.8012 9.28479 13.8261C9.77965 14.0008 9.95809 14.843 10.6132 14.8073H10.7559C10.7559 14.8073 11.0296 14.8072 11.1367 14.6796C11.2247 14.5748 11.2243 14.4527 11.1619 14.3984C11.1341 14.3742 11.0989 14.3597 11.0908 14.3236C11.0818 14.2837 11.0773 14.2313 11.0773 14.2077C11.0773 14.1822 11.113 14.1693 11.113 14.1438C11.1129 14.0673 11.0297 14.0035 11.0416 13.927C11.0492 13.8862 11.1053 13.8299 11.1448 13.7878C11.1749 13.7559 11.1753 13.7151 11.1557 13.6758C11.155 13.6744 11.1542 13.673 11.1536 13.6715C11.1345 13.632 11.1309 13.5852 11.1439 13.5433C11.1514 13.5192 11.1604 13.4934 11.1604 13.4677C11.1723 13.3529 11.1249 13.3019 11.113 13.2126C11.113 13.1811 11.2824 13.1062 11.3422 13.0594C11.3598 13.0456 11.3617 13.0225 11.3559 13.0008C11.3435 12.9545 11.3271 12.9401 11.3271 12.8554C11.3271 12.835 11.3441 12.8065 11.3646 12.7796C11.406 12.7254 11.444 12.6677 11.4626 12.6019L11.4955 12.4862C11.5092 12.4378 11.5457 12.3993 11.593 12.3833C11.675 12.3555 11.637 12.2207 11.7151 12.1831C11.7378 12.1722 11.7949 12.1861 11.8862 12.1665C12.0765 12.1282 11.9457 12.0644 11.9813 11.9624C11.998 11.8999 12.0496 11.9061 12.0994 11.9111C12.1394 11.9151 12.1783 11.9019 12.2071 11.8736C12.2354 11.8457 12.264 11.8131 12.3025 11.7966C12.3507 11.7759 12.4772 11.7719 12.5678 11.7711C12.605 11.7708 12.642 11.7654 12.679 11.761C12.78 11.749 12.9234 11.7562 12.9927 11.7456C13.0759 11.7328 13.1234 11.6562 13.1948 11.6562C13.2543 11.6562 13.3377 11.7583 13.3971 11.7583C13.4566 11.7582 13.5161 11.7072 13.5756 11.7072C13.6112 11.7072 13.6231 11.7709 13.6826 11.771H13.7063C13.7063 11.771 14.2537 11.7837 14.8247 12.1408C15.2173 12.3832 15.5029 12.9702 15.5029 12.9702C15.7765 13.4422 15.4729 13.9274 15.4729 14.3612C15.4729 14.5398 15.5324 14.6929 15.4967 14.8587C15.4729 14.9863 15.3777 15.0884 15.342 15.1905C15.3063 15.2798 15.3064 15.3946 15.1875 15.5604C15.0923 15.7007 15.0446 15.7007 15.0208 15.7262C14.9851 15.7644 14.6771 16.2343 14.4748 16.4129C13.9395 16.8977 13.4446 17.0397 12.7189 17.0524C12.3977 17.0652 12.362 17.1291 12.3145 17.1291C12.1479 17.1418 11.3867 17.1036 11.1487 17.0654C11.1487 17.0654 10.0899 16.8613 9.67345 16.6572C9.44741 16.5551 7.96021 15.4451 7.6271 14.82C6.59207 12.8554 6.83009 10.7631 7.9008 9.35984C8.6741 8.33924 9.947 7.01247 12.9687 6.75729C14.5034 6.62973 15.8717 6.83391 16.9424 7.34421C18.4533 8.05863 19.5597 9.32157 20.2497 10.8142C21.4274 13.3656 21.3594 16.252 19.0276 18.931Z" fill="#1E1E1E"/>
</svg>
