<svg width="24" height="24" viewBox="0 0 24 24" fill="none" xmlns="http://www.w3.org/2000/svg">
<g clip-path="url(#clip0_1690_350)">
<path d="M0 4C0 1.79086 1.79086 0 4 0H20C22.2091 0 24 1.79086 24 4V20C24 22.2091 22.2091 24 20 24H4C1.79086 24 0 22.2091 0 20V4Z" fill="black"/>
<g clip-path="url(#clip1_1690_350)">
<path fill-rule="evenodd" clip-rule="evenodd" d="M9.9525 14.4675L15.936 10.0447C16.2292 9.82725 16.6485 9.912 16.7887 10.2487C17.5238 12.0255 17.1953 14.16 15.7313 15.6255C14.268 17.091 12.231 17.412 10.3695 16.68L8.33625 17.6227C11.253 19.6185 14.7945 19.125 17.0077 16.908C18.7635 15.15 19.3073 12.7537 18.7987 10.593L18.8032 10.5982C18.066 7.42425 18.9847 6.15525 20.8657 3.561C20.9107 3.4995 20.9557 3.438 21 3.375L18.5243 5.85375V5.84625L9.95025 14.469M8.71725 15.5422C6.62325 13.5397 6.98475 10.4415 8.7705 8.65425C10.0912 7.332 12.2557 6.792 14.145 7.5855L16.1737 6.648C15.7521 6.33781 15.2907 6.08557 14.802 5.898C13.5733 5.39512 12.2234 5.2668 10.922 5.52916C9.62061 5.79152 8.42585 6.43286 7.488 7.3725C5.58825 9.2745 4.9905 12.1995 6.0165 14.6955C6.783 16.5608 5.52675 17.88 4.2615 19.212C3.81225 19.6845 3.36225 20.1562 3 20.6558L8.715 15.5445" fill="white"/>
</g>
</g>
<defs>
<clipPath id="clip0_1690_350">
<rect width="24" height="24" rx="4" fill="white"/>
</clipPath>
<clipPath id="clip1_1690_350">
<rect width="18" height="18" fill="white" transform="translate(3 3)"/>
</clipPath>
</defs>
</svg>
