<svg width="24" height="24" viewBox="0 0 24 24" fill="none" xmlns="http://www.w3.org/2000/svg">
<path d="M0 4C0 1.79086 1.79086 0 4 0H20C22.2091 0 24 1.79086 24 4V20C24 22.2091 22.2091 24 20 24H4C1.79086 24 0 22.2091 0 20V4Z" fill="#01011B"/>
<path fill-rule="evenodd" clip-rule="evenodd" d="M5.46154 8V10.7893H4.69231V8H2V10.2613V10.2693V12.9307V16H4.69231V12H5.46154V16H8.15385V8H5.46154ZM8.92308 16H15.0769V12.8H12.3846V14.8H11.6154V12H15.0769V8H8.92308V16ZM11.6154 10.8V9.2H12.3846V10.8H11.6154ZM19.3077 10.8V8H22V10L20.8462 11.4L22 12.8V16H19.3077V11.9893H18.5385V16H15.8462V12.8L17 11.4L15.8462 10V8H18.5385V10.8H19.3077Z" fill="#FEC7C6"/>
</svg>
