<svg id="dust_hubspot" xmlns="http://www.w3.org/2000/svg" viewBox="0 0 150 150"><path fill="none" d="M0 0h150v150H0z"/><path d="M109.46 49.94V32.18a13.69 13.69 0 0 0 7.89-12.33v-.41a13.69 13.69 0 0 0-13.68-13.68h-.41a13.68 13.68 0 0 0-13.68 13.68v.41a13.66 13.66 0 0 0 7.89 12.33v17.76a38.75 38.75 0 0 0-18.42 8.11L30.33 20.11a15.09 15.09 0 0 0 .55-3.84 15.41 15.41 0 1 0-15.44 15.38A15.25 15.25 0 0 0 23 29.59l48 37.33a38.86 38.86 0 0 0 .59 43.77L57 125.28a12.21 12.21 0 0 0-3.64-.59A12.66 12.66 0 1 0 66 137.35a12.23 12.23 0 0 0-.59-3.65l14.44-14.43a38.92 38.92 0 1 0 29.58-69.33m-6 58.42a20 20 0 1 1 20-20 20 20 0 0 1-20 20" fill="#f4795b"/></svg>