<svg width="24" height="24" viewBox="0 0 24 24" fill="none" xmlns="http://www.w3.org/2000/svg">
<path fill-rule="evenodd" clip-rule="evenodd" d="M16.3097 16.6916C14.8905 16.6916 13.74 15.5531 13.74 14.1489C13.74 12.7445 14.8905 11.606 16.3097 11.606C17.7288 11.606 18.8793 12.7445 18.8793 14.1489C18.8793 15.5531 17.7288 16.6916 16.3097 16.6916ZM17.0789 9.25338V6.99129C17.6756 6.71241 18.0935 6.1151 18.0935 5.42191V5.36969C18.0935 4.41298 17.3025 3.63024 16.3358 3.63024H16.2833C15.3165 3.63024 14.5256 4.41298 14.5256 5.36969V5.42191C14.5256 6.1151 14.9435 6.71265 15.5402 6.99154V9.25338C14.6518 9.38929 13.8401 9.75187 13.1707 10.2855L6.89462 5.45412C6.93604 5.29674 6.96514 5.13473 6.96538 4.96442C6.96637 3.88107 6.08024 3.00147 4.98503 3C3.89032 2.99878 3.00123 3.87595 3 4.95954C2.99877 6.04312 3.8849 6.92273 4.9801 6.92395C5.33687 6.92444 5.66726 6.82416 5.95672 6.66117L12.1303 11.414C11.6053 12.1982 11.2976 13.1376 11.2976 14.1489C11.2976 15.2076 11.6357 16.187 12.2067 16.9925L10.3294 18.8505C10.181 18.8063 10.0271 18.7756 9.86391 18.7756C8.96422 18.7756 8.23466 19.4973 8.23466 20.3877C8.23466 21.2783 8.96422 22 9.86391 22C10.7638 22 11.4932 21.2783 11.4932 20.3877C11.4932 20.2266 11.4621 20.0741 11.4175 19.9273L13.2745 18.0895C14.1175 18.7261 15.1674 19.1086 16.3097 19.1086C19.0778 19.1086 21.3214 16.888 21.3214 14.1489C21.3214 11.6692 19.4806 9.6206 17.0789 9.25338Z" fill="#FF7A59"/>
</svg>
