<svg width="24" height="24" viewBox="0 0 24 24" fill="none" xmlns="http://www.w3.org/2000/svg">
<path fill-rule="evenodd" clip-rule="evenodd" d="M16.0762 16.6916C14.6819 16.6916 13.5516 15.5531 13.5516 14.1489C13.5516 12.7445 14.6819 11.606 16.0762 11.606C17.4704 11.606 18.6007 12.7445 18.6007 14.1489C18.6007 15.5531 17.4704 16.6916 16.0762 16.6916ZM16.8319 9.25338V6.99129C17.4181 6.71241 17.8287 6.1151 17.8287 5.42191V5.36969C17.8287 4.41298 17.0516 3.63024 16.1018 3.63024H16.0502C15.1004 3.63024 14.3234 4.41298 14.3234 5.36969V5.42191C14.3234 6.1151 14.7339 6.71265 15.3201 6.99154V9.25338C14.4474 9.38929 13.65 9.75187 12.9923 10.2855L6.82629 5.45412C6.86699 5.29674 6.89557 5.13473 6.89581 4.96442C6.89678 3.88107 6.0262 3.00147 4.95021 3C3.8747 2.99878 3.00121 3.87595 3 4.95954C2.99879 6.04312 3.86937 6.92273 4.94536 6.92395C5.29587 6.92444 5.62046 6.82416 5.90484 6.66117L11.9701 11.414C11.4544 12.1982 11.1521 13.1376 11.1521 14.1489C11.1521 15.2076 11.4842 16.187 12.0452 16.9925L10.2008 18.8505C10.055 18.8063 9.90385 18.7756 9.74349 18.7756C8.85959 18.7756 8.14282 19.4973 8.14282 20.3877C8.14282 21.2783 8.85959 22 9.74349 22C10.6276 22 11.3442 21.2783 11.3442 20.3877C11.3442 20.2266 11.3136 20.0741 11.2698 19.9273L13.0943 18.0895C13.9225 18.7261 14.9539 19.1086 16.0762 19.1086C18.7957 19.1086 21 16.888 21 14.1489C21 11.6692 19.1915 9.6206 16.8319 9.25338Z" fill="#FF7A59"/>
</svg>
