<svg width="24" height="24" viewBox="0 0 24 24" fill="none" xmlns="http://www.w3.org/2000/svg">
<path d="M11.9359 19.3864C13.9732 19.3864 15.927 18.5543 17.3676 17.0732C18.8082 15.5921 19.6175 13.5832 19.6175 11.4886C19.6175 9.39403 18.8082 7.38521 17.3676 5.9041C15.927 4.42299 13.9732 3.59091 11.9359 3.59091C9.89863 3.59091 7.94479 4.42299 6.50422 5.9041C5.06364 7.38521 4.25433 9.39403 4.25433 11.4886C4.25433 13.5832 5.06364 15.5921 6.50422 17.0732C7.94479 18.5543 9.89863 19.3864 11.9359 19.3864Z" fill="#FFD21E"/>
<path d="M19.6175 11.4886C19.6175 9.39403 18.8082 7.38522 17.3676 5.90411C15.927 4.42299 13.9732 3.59091 11.9359 3.59091C9.89863 3.59091 7.94479 4.42299 6.50421 5.90411C5.06363 7.38522 4.25433 9.39403 4.25433 11.4886C4.25433 13.5832 5.06363 15.5921 6.50421 17.0732C7.94479 18.5543 9.89863 19.3864 11.9359 19.3864C13.9732 19.3864 15.927 18.5543 17.3676 17.0732C18.8082 15.5921 19.6175 13.5832 19.6175 11.4886ZM3.37012 11.4886C3.37012 10.3321 3.59168 9.18691 4.02215 8.11842C4.45262 7.04993 5.08357 6.07907 5.87898 5.26128C6.67439 4.44349 7.61867 3.79479 8.65792 3.3522C9.69717 2.90962 10.811 2.68182 11.9359 2.68182C13.0608 2.68182 14.1746 2.90962 15.2139 3.3522C16.2531 3.79479 17.1974 4.44349 17.9928 5.26128C18.7882 6.07907 19.4192 7.04993 19.8497 8.11842C20.2801 9.18691 20.5017 10.3321 20.5017 11.4886C20.5017 13.8244 19.5992 16.0644 17.9928 17.716C16.3864 19.3676 14.2077 20.2955 11.9359 20.2955C9.66412 20.2955 7.48538 19.3676 5.87898 17.716C4.27258 16.0644 3.37012 13.8244 3.37012 11.4886Z" fill="#FF9D0B"/>
<path d="M14.4316 9.34092C14.7145 9.44092 14.8251 10.0364 15.1102 9.88183C15.3033 9.77643 15.4617 9.61453 15.5653 9.41659C15.6688 9.21865 15.713 8.99358 15.6922 8.76984C15.6713 8.54609 15.5864 8.33373 15.4482 8.1596C15.31 7.98547 15.1246 7.8574 14.9156 7.79159C14.7065 7.72578 14.4832 7.72518 14.2738 7.78988C14.0645 7.85457 13.8785 7.98164 13.7393 8.15503C13.6002 8.32841 13.5142 8.54032 13.4923 8.76395C13.4703 8.98758 13.5133 9.21289 13.6159 9.41138C13.7508 9.67274 14.1796 9.24774 14.4338 9.33865L14.4316 9.34092ZM9.22581 9.34092C8.94287 9.44092 8.83013 10.0364 8.54718 9.88183C8.35409 9.77643 8.19574 9.61453 8.09215 9.41659C7.98857 9.21865 7.9444 8.99358 7.96524 8.76984C7.98608 8.54609 8.07098 8.33373 8.20922 8.1596C8.34746 7.98547 8.53282 7.8574 8.74186 7.79159C8.95089 7.72578 9.17421 7.72518 9.38358 7.78988C9.59295 7.85457 9.77895 7.98164 9.91807 8.15503C10.0572 8.32841 10.1432 8.54032 10.1651 8.76395C10.1871 8.98758 10.1441 9.21289 10.0415 9.41138C9.90665 9.67274 9.4756 9.24774 9.2236 9.33865L9.22581 9.34092Z" fill="#3A3B45"/>
<path d="M11.8806 14.7932C14.0536 14.7932 14.7543 12.8023 14.7543 11.7795C14.7543 11.2477 14.4073 11.4159 13.8502 11.6977C13.3352 11.9591 12.6433 12.3204 11.8828 12.3204C10.2935 12.3204 9.00916 10.7568 9.00916 11.7795C9.00916 12.8023 9.70768 14.7932 11.8828 14.7932H11.8806Z" fill="#FF323D"/>
<path fill-rule="evenodd" clip-rule="evenodd" d="M10.2161 14.2727C10.3328 14.029 10.497 13.8127 10.6986 13.6371C10.9001 13.4615 11.1347 13.3305 11.3877 13.2523C11.4761 13.225 11.5667 13.3818 11.6618 13.5432C11.7502 13.6977 11.8431 13.8546 11.9359 13.8546C12.0354 13.8546 12.1349 13.7 12.2299 13.5477C12.3294 13.3886 12.4266 13.2341 12.5217 13.2636C12.9966 13.4186 13.3934 13.7589 13.627 14.2114C14.4515 13.5432 14.7543 12.4523 14.7543 11.7796C14.7543 11.2477 14.4073 11.4159 13.8502 11.6977L13.8193 11.7136C13.3086 11.975 12.6278 12.3205 11.8806 12.3205C11.1335 12.3205 10.4549 11.975 9.94201 11.7136C9.36727 11.4205 9.00696 11.2364 9.00696 11.7796C9.00696 12.4727 9.3297 13.6114 10.2161 14.2727Z" fill="#3A3B45"/>
<path d="M17.1307 10.4091C17.3212 10.4091 17.5039 10.3313 17.6387 10.1928C17.7734 10.0542 17.8491 9.86636 17.8491 9.67046C17.8491 9.47456 17.7734 9.28669 17.6387 9.14817C17.5039 9.00964 17.3212 8.93182 17.1307 8.93182C16.9401 8.93182 16.7574 9.00964 16.6227 9.14817C16.4879 9.28669 16.4122 9.47456 16.4122 9.67046C16.4122 9.86636 16.4879 10.0542 16.6227 10.1928C16.7574 10.3313 16.9401 10.4091 17.1307 10.4091ZM6.85171 10.4091C7.04225 10.4091 7.22498 10.3313 7.35971 10.1928C7.49444 10.0542 7.57013 9.86636 7.57013 9.67046C7.57013 9.47456 7.49444 9.28669 7.35971 9.14817C7.22498 9.00964 7.04225 8.93182 6.85171 8.93182C6.66118 8.93182 6.47844 9.00964 6.34371 9.14817C6.20898 9.28669 6.13329 9.47456 6.13329 9.67046C6.13329 9.86636 6.20898 10.0542 6.34371 10.1928C6.47844 10.3313 6.66118 10.4091 6.85171 10.4091ZM5.37287 12.9091C5.01477 12.9091 4.69645 13.0591 4.47319 13.3341C4.28281 13.5759 4.17901 13.8776 4.17919 14.1886C4.04 14.1456 3.89567 14.1227 3.75035 14.1205C3.40771 14.1205 3.09824 14.2546 2.8794 14.4977C2.68416 14.7062 2.56106 14.9749 2.5291 15.2624C2.49714 15.5499 2.55809 15.8403 2.70256 16.0886C2.50692 16.2528 2.36813 16.4777 2.30687 16.7296C2.25382 16.9341 2.20077 17.3659 2.48371 17.8068C2.37764 17.9745 2.31453 18.167 2.30023 18.3665C2.28593 18.5659 2.32091 18.7659 2.40192 18.9477C2.6274 19.475 3.19108 19.8886 4.28529 20.3341C4.96392 20.6114 5.58729 20.7886 5.59171 20.7909C6.37919 21.0152 7.19085 21.1374 8.00782 21.1546C9.30319 21.1546 10.2294 20.7455 10.7621 19.9409C11.6198 18.6477 11.4982 17.4636 10.3863 16.3227C9.77403 15.6909 9.36508 14.7614 9.28108 14.5568C9.10866 13.9523 8.65329 13.2796 7.8995 13.2796C7.69897 13.2828 7.50208 13.3352 7.32523 13.4325C7.14837 13.5297 6.99664 13.669 6.88266 13.8386C6.66161 13.5523 6.44498 13.3273 6.25045 13.1977C5.99087 13.0171 5.68625 12.9169 5.37287 12.9091ZM5.37287 13.8182C5.48561 13.8182 5.62487 13.8682 5.77519 13.9659C6.24824 14.275 7.15677 15.8818 7.49056 16.5068C7.60108 16.7159 7.7934 16.8046 7.96361 16.8046C8.30624 16.8046 8.5715 16.4568 7.99677 16.0136C7.13024 15.3477 7.43308 14.2591 7.84645 14.1932C7.86413 14.1886 7.88403 14.1886 7.8995 14.1886C8.27529 14.1886 8.44108 14.8546 8.44108 14.8546C8.44108 14.8546 8.9274 16.1091 9.76298 16.9682C10.5963 17.825 10.6406 18.5136 10.0327 19.4296C9.61708 20.0546 8.8235 20.2432 8.00782 20.2432C7.16561 20.2432 6.29908 20.0386 5.81498 19.9114C5.79066 19.9046 2.84182 19.0477 3.2154 18.3205C3.27729 18.1977 3.38119 18.1477 3.51161 18.1477C4.03771 18.1477 4.99266 18.9523 5.40603 18.9523C5.49666 18.9523 5.56077 18.9136 5.5895 18.8159C5.76413 18.1682 2.92361 17.8955 3.16235 16.9591C3.20656 16.7932 3.31929 16.7273 3.48066 16.7273C4.17477 16.7273 5.7354 17.9841 6.06256 17.9841C6.08687 17.9841 6.10677 17.9773 6.11561 17.9614C6.27919 17.6886 6.18856 17.4977 5.03245 16.7796C3.88077 16.0614 3.0695 15.6296 3.52929 15.1136C3.58235 15.0546 3.6575 15.0273 3.75035 15.0273C4.45108 15.0273 6.10677 16.5773 6.10677 16.5773C6.10677 16.5773 6.55329 17.0546 6.82519 17.0546C6.88708 17.0546 6.94013 17.0318 6.9755 16.9682C7.16561 16.6364 5.19382 15.1 5.08329 14.4659C5.00813 14.0341 5.13635 13.8182 5.37287 13.8182Z" fill="#FF9D0B"/>
<path d="M10.0326 19.4295C10.6405 18.5114 10.5963 17.8227 9.76296 16.9659C8.92738 16.1091 8.44107 14.8523 8.44107 14.8523C8.44107 14.8523 8.2598 14.125 7.84644 14.1932C7.43307 14.2614 7.13023 15.3477 7.99675 16.0136C8.86107 16.6795 7.82433 17.1318 7.49054 16.5068C7.15896 15.8818 6.24823 14.275 5.77517 13.9659C5.30433 13.6591 4.97275 13.8295 5.08328 14.4659C5.1938 15.1 7.1678 16.6364 6.97549 16.9659C6.78317 17.3 6.10675 16.5773 6.10675 16.5773C6.10675 16.5773 3.99128 14.5977 3.52928 15.1136C3.06949 15.6295 3.88075 16.0614 5.03244 16.7795C6.18854 17.4977 6.27917 17.6886 6.11559 17.9614C5.9498 18.2341 3.40107 16.0227 3.16233 16.9614C2.92359 17.8955 5.76412 18.1659 5.58949 18.8136C5.41265 19.4614 3.58675 17.5909 3.21538 18.3182C2.83959 19.0477 5.79065 19.9045 5.81496 19.9114C6.76549 20.1659 9.18601 20.7045 10.0326 19.4295Z" fill="#FFD21E"/>
<path d="M18.6095 12.9091C18.9676 12.9091 19.2881 13.0591 19.5091 13.3341C19.6995 13.5759 19.8033 13.8776 19.8031 14.1886C19.943 14.1454 20.0881 14.1224 20.2342 14.1205C20.5768 14.1205 20.8863 14.2545 21.1051 14.4977C21.3004 14.7062 21.4235 14.9749 21.4554 15.2624C21.4874 15.5499 21.4264 15.8403 21.282 16.0886C21.4768 16.2532 21.6148 16.4779 21.6755 16.7295C21.7285 16.9341 21.7816 17.3659 21.4986 17.8068C21.6047 17.9745 21.6678 18.167 21.6821 18.3665C21.6964 18.5659 21.6614 18.7659 21.5804 18.9477C21.3549 19.475 20.7912 19.8886 19.6992 20.3341C19.0184 20.6114 18.395 20.7886 18.3906 20.7909C17.6031 21.0152 16.7915 21.1374 15.9745 21.1545C14.6791 21.1545 13.7529 20.7455 13.2202 19.9409C12.3625 18.6477 12.4841 17.4636 13.596 16.3227C14.2105 15.6909 14.6195 14.7614 14.7035 14.5568C14.8759 13.9523 15.329 13.2795 16.0828 13.2795C16.2834 13.2828 16.4802 13.3352 16.6571 13.4325C16.834 13.5297 16.9857 13.669 17.0997 13.8386C17.3207 13.5523 17.5373 13.3273 17.7341 13.1977C17.993 13.0175 18.2968 12.9173 18.6095 12.9091ZM18.6095 13.8182C18.4967 13.8182 18.3597 13.8682 18.2071 13.9659C17.7363 14.275 16.8256 15.8818 16.4918 16.5068C16.4467 16.596 16.3789 16.6708 16.2955 16.7233C16.2122 16.7758 16.1165 16.8039 16.0187 16.8045C15.6783 16.8045 15.4108 16.4568 15.9878 16.0136C16.8521 15.3477 16.5492 14.2591 16.1359 14.1932C16.1183 14.1902 16.1006 14.1887 16.0828 14.1886C15.707 14.1886 15.5412 14.8545 15.5412 14.8545C15.5412 14.8545 15.0549 16.1091 14.2216 16.9682C13.386 17.825 13.3418 18.5136 13.9519 19.4295C14.3652 20.0545 15.161 20.2432 15.9745 20.2432C16.8189 20.2432 17.6832 20.0386 18.1696 19.9114C18.1917 19.9045 21.1427 19.0477 20.7691 18.3205C20.705 18.1977 20.6033 18.1477 20.4729 18.1477C19.9468 18.1477 18.9897 18.9523 18.5785 18.9523C18.4857 18.9523 18.4216 18.9136 18.395 18.8159C18.2182 18.1682 21.0587 17.8955 20.82 16.9591C20.778 16.7932 20.6652 16.7273 20.5017 16.7273C19.8076 16.7273 18.2469 17.9841 17.9198 17.9841C17.8977 17.9841 17.8778 17.9773 17.8689 17.9614C17.7053 17.6886 17.7938 17.4977 18.9477 16.7795C20.1038 16.0614 20.915 15.6295 20.4508 15.1136C20.4 15.0545 20.3248 15.0273 20.2342 15.0273C19.5312 15.0273 17.8756 16.5773 17.8756 16.5773C17.8756 16.5773 17.429 17.0545 17.1593 17.0545C17.129 17.0559 17.0988 17.0486 17.0722 17.0333C17.0457 17.0181 17.0238 16.9955 17.009 16.9682C16.8167 16.6364 18.7885 15.1 18.899 14.4659C18.9742 14.0341 18.846 13.8182 18.6095 13.8182Z" fill="#FF9D0B"/>
<path d="M13.9519 19.4295C13.344 18.5114 13.386 17.8227 14.2216 16.9659C15.055 16.1091 15.5413 14.8523 15.5413 14.8523C15.5413 14.8523 15.7225 14.125 16.1381 14.1932C16.5493 14.2614 16.8521 15.3477 15.9878 16.0136C15.1213 16.6795 16.1602 17.1318 16.4918 16.5068C16.8256 15.8818 17.7363 14.275 18.2072 13.9659C18.678 13.6591 19.0118 13.8295 18.8991 14.4659C18.7885 15.1 16.8168 16.6364 17.0091 16.9659C17.1992 17.3 17.8756 16.5773 17.8756 16.5773C17.8756 16.5773 19.9933 14.5977 20.4531 15.1136C20.9129 15.6295 20.1038 16.0614 18.9499 16.7795C17.7938 17.4977 17.7054 17.6886 17.8668 17.9614C18.0325 18.2341 20.5813 16.0227 20.82 16.9614C21.0588 17.8955 18.2204 18.1659 18.3951 18.8136C18.5719 19.4614 20.3956 17.5909 20.7692 18.3182C21.1428 19.0477 18.1939 19.9045 18.1696 19.9114C17.2169 20.1659 14.7963 20.7045 13.9519 19.4295Z" fill="#FFD21E"/>
</svg>
