<svg width="24" height="24" viewBox="0 0 24 24" fill="none" xmlns="http://www.w3.org/2000/svg">
<rect width="24" height="24" rx="5" fill="#041728"/>
<path d="M11.942 18.6477C13.7853 18.6477 15.553 17.8989 16.8564 16.5659C18.1598 15.2329 18.892 13.4249 18.892 11.5398C18.892 9.65463 18.1598 7.8467 16.8564 6.5137C15.553 5.1807 13.7853 4.43182 11.942 4.43182C10.0987 4.43182 8.33099 5.1807 7.02761 6.5137C5.72423 7.8467 4.992 9.65463 4.992 11.5398C4.992 13.4249 5.72423 15.2329 7.02761 16.5659C8.33099 17.8989 10.0987 18.6477 11.942 18.6477Z" fill="#FFD21E"/>
<path d="M18.892 11.5398C18.892 9.65464 18.1598 7.8467 16.8564 6.5137C15.553 5.1807 13.7852 4.43183 11.942 4.43183C10.0987 4.43183 8.33097 5.1807 7.02759 6.5137C5.72422 7.8467 4.99199 9.65464 4.99199 11.5398C4.99199 13.4249 5.72422 15.2329 7.02759 16.5659C8.33097 17.8989 10.0987 18.6477 11.942 18.6477C13.7852 18.6477 15.553 17.8989 16.8564 16.5659C18.1598 15.2329 18.892 13.4249 18.892 11.5398ZM4.19199 11.5398C4.19199 10.4989 4.39245 9.46823 4.78192 8.50658C5.17139 7.54494 5.74225 6.67117 6.46191 5.93516C7.18156 5.19915 8.03592 4.61531 8.97619 4.21699C9.91646 3.81866 10.9242 3.61365 11.942 3.61365C12.9597 3.61365 13.9675 3.81866 14.9078 4.21699C15.8481 4.61531 16.7024 5.19915 17.4221 5.93516C18.1417 6.67117 18.7126 7.54494 19.1021 8.50658C19.4915 9.46823 19.692 10.4989 19.692 11.5398C19.692 13.6419 18.8755 15.658 17.4221 17.1444C15.9687 18.6308 13.9974 19.4659 11.942 19.4659C9.88656 19.4659 7.91532 18.6308 6.46191 17.1444C5.0085 15.658 4.19199 13.6419 4.19199 11.5398Z" fill="#FF9D0B"/>
<path d="M14.2 9.60682C14.456 9.69682 14.556 10.2327 14.814 10.0936C14.9887 9.99878 15.132 9.85306 15.2257 9.67492C15.3194 9.49678 15.3594 9.29421 15.3405 9.09284C15.3217 8.89147 15.2449 8.70034 15.1198 8.54363C14.9947 8.38691 14.827 8.27165 14.6379 8.21242C14.4488 8.15319 14.2467 8.15266 14.0573 8.21088C13.8678 8.2691 13.6996 8.38347 13.5737 8.53952C13.4478 8.69556 13.37 8.88628 13.3501 9.08755C13.3303 9.28882 13.3692 9.49159 13.462 9.67023C13.584 9.90546 13.972 9.52296 14.202 9.60478L14.2 9.60682ZM9.49001 9.60682C9.23401 9.69682 9.13201 10.2327 8.87601 10.0936C8.70131 9.99878 8.55804 9.85306 8.46432 9.67492C8.3706 9.49678 8.33064 9.29421 8.34949 9.09284C8.36835 8.89147 8.44517 8.70034 8.57024 8.54363C8.69531 8.38691 8.86302 8.27165 9.05215 8.21242C9.24128 8.15319 9.44333 8.15266 9.63276 8.21088C9.82218 8.2691 9.99047 8.38347 10.1163 8.53952C10.2422 8.69556 10.32 8.88628 10.3399 9.08755C10.3598 9.28882 10.3208 9.49159 10.228 9.67023C10.106 9.90546 9.71601 9.52296 9.48801 9.60478L9.49001 9.60682Z" fill="#3A3B45"/>
<path d="M11.892 14.5139C13.858 14.5139 14.492 12.722 14.492 11.8016C14.492 11.323 14.178 11.4743 13.674 11.728C13.208 11.9632 12.582 12.2884 11.894 12.2884C10.456 12.2884 9.29401 10.8811 9.29401 11.8016C9.29401 12.722 9.92601 14.5139 11.894 14.5139H11.892Z" fill="#FF323D"/>
<path fill-rule="evenodd" clip-rule="evenodd" d="M10.386 14.0455C10.4915 13.8261 10.6401 13.6314 10.8225 13.4734C11.0049 13.3154 11.2171 13.1975 11.446 13.1271C11.526 13.1025 11.608 13.2436 11.694 13.3889C11.774 13.528 11.858 13.6691 11.942 13.6691C12.032 13.6691 12.122 13.53 12.208 13.393C12.298 13.2498 12.386 13.1107 12.472 13.1373C12.9016 13.2768 13.2607 13.583 13.472 13.9902C14.218 13.3889 14.492 12.4071 14.492 11.8016C14.492 11.323 14.178 11.4743 13.674 11.728L13.646 11.7423C13.184 11.9775 12.568 12.2884 11.892 12.2884C11.216 12.2884 10.602 11.9775 10.138 11.7423C9.61799 11.4784 9.29199 11.3127 9.29199 11.8016C9.29199 12.4255 9.58399 13.4502 10.386 14.0455Z" fill="#3A3B45"/>
<path d="M16.642 10.5682C16.8144 10.5682 16.9797 10.4982 17.1016 10.3735C17.2235 10.2488 17.292 10.0797 17.292 9.90342C17.292 9.72711 17.2235 9.55802 17.1016 9.43335C16.9797 9.30869 16.8144 9.23865 16.642 9.23865C16.4696 9.23865 16.3043 9.30869 16.1824 9.43335C16.0605 9.55802 15.992 9.72711 15.992 9.90342C15.992 10.0797 16.0605 10.2488 16.1824 10.3735C16.3043 10.4982 16.4696 10.5682 16.642 10.5682ZM7.34201 10.5682C7.5144 10.5682 7.67973 10.4982 7.80163 10.3735C7.92353 10.2488 7.99201 10.0797 7.99201 9.90342C7.99201 9.72711 7.92353 9.55802 7.80163 9.43335C7.67973 9.30869 7.5144 9.23865 7.34201 9.23865C7.16962 9.23865 7.00429 9.30869 6.88239 9.43335C6.76049 9.55802 6.69201 9.72711 6.69201 9.90342C6.69201 10.0797 6.76049 10.2488 6.88239 10.3735C7.00429 10.4982 7.16962 10.5682 7.34201 10.5682ZM6.00401 12.8182C5.68001 12.8182 5.39201 12.9532 5.19001 13.2007C5.01776 13.4183 4.92385 13.6898 4.92401 13.9698C4.79808 13.9311 4.6675 13.9104 4.53601 13.9084C4.22601 13.9084 3.94601 14.0291 3.74801 14.248C3.57136 14.4356 3.45999 14.6774 3.43107 14.9362C3.40216 15.1949 3.45731 15.4563 3.58801 15.6798C3.41101 15.8276 3.28544 16.0299 3.23001 16.2566C3.18201 16.4407 3.13401 16.8293 3.39001 17.2261C3.29404 17.377 3.23694 17.5503 3.224 17.7298C3.21106 17.9094 3.24271 18.0893 3.31601 18.253C3.52001 18.7275 4.03001 19.0998 5.02001 19.5007C5.63401 19.7502 6.19801 19.9098 6.20201 19.9118C6.91449 20.1137 7.64885 20.2237 8.38801 20.2391C9.56001 20.2391 10.398 19.8709 10.88 19.1468C11.656 17.983 11.546 16.9173 10.54 15.8905C9.98601 15.3218 9.61601 14.4852 9.54001 14.3011C9.38401 13.7571 8.97201 13.1516 8.29001 13.1516C8.10857 13.1545 7.93044 13.2017 7.77043 13.2892C7.61041 13.3768 7.47313 13.5021 7.37001 13.6548C7.17001 13.3971 6.97401 13.1946 6.79801 13.078C6.56315 12.9154 6.28755 12.8252 6.00401 12.8182ZM6.00401 13.6364C6.10601 13.6364 6.23201 13.6814 6.36801 13.7693C6.79601 14.0475 7.61801 15.4936 7.92001 16.0561C8.02001 16.2443 8.19401 16.3241 8.34801 16.3241C8.65801 16.3241 8.89801 16.0111 8.37801 15.6123C7.59401 15.013 7.86801 14.0332 8.24201 13.9739C8.25801 13.9698 8.27601 13.9698 8.29001 13.9698C8.63001 13.9698 8.78001 14.5691 8.78001 14.5691C8.78001 14.5691 9.22001 15.6982 9.97601 16.4714C10.73 17.2425 10.77 17.8623 10.22 18.6866C9.84401 19.2491 9.12601 19.4189 8.38801 19.4189C7.62601 19.4189 6.84201 19.2348 6.40401 19.1202C6.38201 19.1141 3.71401 18.343 4.05201 17.6884C4.10801 17.578 4.20201 17.533 4.32001 17.533C4.79601 17.533 5.66001 18.2571 6.03401 18.2571C6.11601 18.2571 6.17401 18.2223 6.20001 18.1343C6.35801 17.5514 3.78801 17.3059 4.00401 16.4632C4.04401 16.3139 4.14601 16.2546 4.29201 16.2546C4.92001 16.2546 6.33201 17.3857 6.62801 17.3857C6.65001 17.3857 6.66801 17.3796 6.67601 17.3652C6.82401 17.1198 6.74201 16.948 5.69601 16.3016C4.65401 15.6552 3.92001 15.2666 4.33601 14.8023C4.38401 14.7491 4.45201 14.7246 4.53601 14.7246C5.17001 14.7246 6.66801 16.1196 6.66801 16.1196C6.66801 16.1196 7.07201 16.5491 7.31801 16.5491C7.37401 16.5491 7.42201 16.5286 7.45401 16.4714C7.62601 16.1727 5.84201 14.79 5.74201 14.2193C5.67401 13.8307 5.79001 13.6364 6.00401 13.6364Z" fill="#FF9D0B"/>
<path d="M10.22 18.6866C10.77 17.8602 10.73 17.2404 9.97599 16.4693C9.21999 15.6982 8.77999 14.567 8.77999 14.567C8.77999 14.567 8.61599 13.9125 8.24199 13.9739C7.86799 14.0352 7.59399 15.0129 8.37799 15.6123C9.15999 16.2116 8.22199 16.6186 7.91999 16.0561C7.61999 15.4936 6.79599 14.0475 6.36799 13.7693C5.94199 13.4932 5.64199 13.6466 5.74199 14.2193C5.84199 14.79 7.62799 16.1727 7.45399 16.4693C7.27999 16.77 6.66799 16.1195 6.66799 16.1195C6.66799 16.1195 4.75399 14.3379 4.33599 14.8023C3.91999 15.2666 4.65399 15.6552 5.69599 16.3016C6.74199 16.9479 6.82399 17.1198 6.67599 17.3652C6.52599 17.6107 4.21999 15.6204 4.00399 16.4652C3.78799 17.3059 6.35799 17.5493 6.19999 18.1323C6.03999 18.7152 4.38799 17.0318 4.05199 17.6864C3.71199 18.3429 6.38199 19.1141 6.40399 19.1202C7.26399 19.3493 9.45399 19.8341 10.22 18.6866Z" fill="#FFD21E"/>
<path d="M17.98 12.8182C18.304 12.8182 18.594 12.9532 18.794 13.2007C18.9662 13.4183 19.0602 13.6898 19.06 13.9698C19.1866 13.9308 19.3178 13.9102 19.45 13.9084C19.76 13.9084 20.04 14.0291 20.238 14.2479C20.4146 14.4356 20.526 14.6774 20.5549 14.9362C20.5839 15.1949 20.5287 15.4562 20.398 15.6798C20.5743 15.8279 20.6991 16.0301 20.754 16.2566C20.802 16.4407 20.85 16.8293 20.594 17.2261C20.69 17.377 20.7471 17.5503 20.76 17.7298C20.7729 17.9093 20.7413 18.0893 20.668 18.2529C20.464 18.7275 19.954 19.0998 18.966 19.5007C18.35 19.7502 17.786 19.9098 17.782 19.9118C17.0695 20.1137 16.3352 20.2236 15.596 20.2391C14.424 20.2391 13.586 19.8709 13.104 19.1468C12.328 17.9829 12.438 16.9173 13.444 15.8904C14 15.3218 14.37 14.4852 14.446 14.3011C14.602 13.757 15.012 13.1516 15.694 13.1516C15.8754 13.1545 16.0536 13.2017 16.2136 13.2892C16.3736 13.3767 16.5109 13.5021 16.614 13.6548C16.814 13.397 17.01 13.1945 17.188 13.0779C17.4223 12.9157 17.6971 12.8256 17.98 12.8182ZM17.98 13.6364C17.878 13.6364 17.754 13.6814 17.616 13.7693C17.19 14.0475 16.366 15.4936 16.064 16.0561C16.0232 16.1364 15.9618 16.2038 15.8864 16.251C15.811 16.2982 15.7244 16.3235 15.636 16.3241C15.328 16.3241 15.086 16.0111 15.608 15.6123C16.39 15.0129 16.116 14.0332 15.742 13.9739C15.7261 13.9712 15.7101 13.9698 15.694 13.9698C15.354 13.9698 15.204 14.5691 15.204 14.5691C15.204 14.5691 14.764 15.6982 14.01 16.4714C13.254 17.2425 13.214 17.8623 13.766 18.6866C14.14 19.2491 14.86 19.4189 15.596 19.4189C16.36 19.4189 17.142 19.2348 17.582 19.1202C17.602 19.1141 20.272 18.3429 19.934 17.6884C19.876 17.5779 19.784 17.5329 19.666 17.5329C19.19 17.5329 18.324 18.257 17.952 18.257C17.868 18.257 17.81 18.2223 17.786 18.1343C17.626 17.5514 20.196 17.3059 19.98 16.4632C19.942 16.3139 19.84 16.2545 19.692 16.2545C19.064 16.2545 17.652 17.3857 17.356 17.3857C17.336 17.3857 17.318 17.3795 17.31 17.3652C17.162 17.1198 17.242 16.9479 18.286 16.3016C19.332 15.6552 20.066 15.2666 19.646 14.8023C19.6 14.7491 19.532 14.7245 19.45 14.7245C18.814 14.7245 17.316 16.1195 17.316 16.1195C17.316 16.1195 16.912 16.5491 16.668 16.5491C16.6405 16.5503 16.6132 16.5437 16.5892 16.53C16.5652 16.5163 16.5454 16.496 16.532 16.4714C16.358 16.1727 18.142 14.79 18.242 14.2193C18.31 13.8307 18.194 13.6364 17.98 13.6364Z" fill="#FF9D0B"/>
<path d="M13.766 18.6866C13.216 17.8602 13.254 17.2404 14.01 16.4693C14.764 15.6982 15.204 14.567 15.204 14.567C15.204 14.567 15.368 13.9125 15.744 13.9739C16.116 14.0352 16.39 15.0129 15.608 15.6123C14.824 16.2116 15.764 16.6186 16.064 16.0561C16.366 15.4936 17.19 14.0475 17.616 13.7693C18.042 13.4932 18.344 13.6466 18.242 14.2193C18.142 14.79 16.358 16.1727 16.532 16.4693C16.704 16.77 17.316 16.1195 17.316 16.1195C17.316 16.1195 19.232 14.3379 19.648 14.8023C20.064 15.2666 19.332 15.6552 18.288 16.3016C17.242 16.9479 17.162 17.1198 17.308 17.3652C17.458 17.6107 19.764 15.6204 19.98 16.4652C20.196 17.3059 17.628 17.5493 17.786 18.1323C17.946 18.7152 19.596 17.0318 19.934 17.6864C20.272 18.3429 17.604 19.1141 17.582 19.1202C16.72 19.3493 14.53 19.8341 13.766 18.6866Z" fill="#FFD21E"/>
</svg>
