<svg width="24" height="24" viewBox="0 0 24 24" fill="none" xmlns="http://www.w3.org/2000/svg">
<g clip-path="url(#clip0_485_22)">
<path d="M19.3334 12.9959C19.3315 13.1715 19.2604 13.3392 19.1356 13.4627C19.0107 13.5862 18.8423 13.6554 18.6667 13.6554C18.4911 13.6554 18.3226 13.5862 18.1978 13.4627C18.073 13.3392 18.0019 13.1715 18 12.9959V7C18.0019 6.82444 18.073 6.65671 18.1978 6.53323C18.3226 6.40975 18.4911 6.3405 18.6667 6.3405C18.8423 6.3405 19.0107 6.40975 19.1356 6.53323C19.2604 6.65671 19.3315 6.82444 19.3334 7V12.9959ZM19.1007 17.1688C18.9977 17.257 16.528 19.3294 12 19.3294C7.47203 19.3294 5.0025 17.257 4.89945 17.1688C4.76523 17.0537 4.68222 16.89 4.66867 16.7137C4.65511 16.5374 4.71213 16.3629 4.82719 16.2287C4.94199 16.0946 5.10528 16.0116 5.28123 15.9978C5.45717 15.984 5.63141 16.0406 5.7657 16.1551C5.80484 16.1879 8.01016 17.9959 12.0001 17.9959C16.0401 17.9959 18.2113 16.1748 18.2327 16.1565C18.5117 15.9169 18.9334 15.9491 19.1728 16.2288C19.2879 16.363 19.345 16.5374 19.3314 16.7137C19.3179 16.89 19.2349 17.0537 19.1007 17.1688ZM4.66664 7C4.66854 6.82444 4.73962 6.65671 4.86444 6.53323C4.98926 6.40975 5.15775 6.3405 5.33332 6.3405C5.5089 6.3405 5.67738 6.40975 5.8022 6.53323C5.92702 6.65671 5.9981 6.82444 6 7V12.9959C5.9981 13.1715 5.92702 13.3392 5.8022 13.4627C5.67738 13.5862 5.5089 13.6554 5.33332 13.6554C5.15775 13.6554 4.98926 13.5862 4.86444 13.4627C4.73962 13.3392 4.66854 13.1715 4.66664 12.9959V7ZM8.00008 5.66664C8.00276 5.4916 8.07417 5.32464 8.1989 5.20181C8.32363 5.07898 8.49166 5.01013 8.66672 5.01013C8.84178 5.01013 9.00981 5.07898 9.13454 5.20181C9.25927 5.32464 9.33068 5.4916 9.33336 5.66664V14.573C9.33068 14.748 9.25927 14.915 9.13454 15.0378C9.00981 15.1606 8.84178 15.2295 8.66672 15.2295C8.49166 15.2295 8.32363 15.1606 8.1989 15.0378C8.07417 14.915 8.00276 14.748 8.00008 14.573V5.66664ZM11.3334 5.3293C11.3333 5.24175 11.3506 5.15506 11.3841 5.07417C11.4176 4.99329 11.4667 4.91979 11.5286 4.85789C11.5905 4.79598 11.664 4.74688 11.7449 4.71338C11.8258 4.67988 11.9125 4.66265 12 4.66266C12.0876 4.66264 12.1743 4.67986 12.2551 4.71336C12.336 4.74685 12.4095 4.79595 12.4715 4.85786C12.5334 4.91977 12.5825 4.99326 12.616 5.07415C12.6495 5.15504 12.6667 5.24174 12.6667 5.3293V14.9959C12.6648 15.1715 12.5937 15.3392 12.4689 15.4627C12.3441 15.5862 12.1756 15.6554 12 15.6554C11.8245 15.6554 11.656 15.5862 11.5312 15.4627C11.4063 15.3392 11.3353 15.1715 11.3334 14.9959V5.3293ZM14.6667 5.66664C14.6694 5.4916 14.7408 5.32464 14.8655 5.20181C14.9903 5.07898 15.1583 5.01013 15.3334 5.01013C15.5084 5.01013 15.6764 5.07898 15.8012 5.20181C15.9259 5.32464 15.9973 5.4916 16 5.66664V14.573C15.9973 14.748 15.9259 14.915 15.8012 15.0378C15.6764 15.1606 15.5084 15.2295 15.3334 15.2295C15.1583 15.2295 14.9903 15.1606 14.8655 15.0378C14.7408 14.915 14.6694 14.748 14.6667 14.573V5.66664ZM19.5 2H4.5C3.1193 2 2 3.1193 2 4.5V19.5C2 20.8806 3.1193 22 4.5 22H19.5C20.8807 22 22 20.8806 22 19.5V4.5C22 3.1193 20.8807 2 19.5 2Z" fill="#1F8DED"/>
</g>
<defs>
<clipPath id="clip0_485_22">
<rect width="24" height="24" fill="white"/>
</clipPath>
</defs>
</svg>
