<svg width="24" height="24" viewBox="0 0 24 24" fill="none" xmlns="http://www.w3.org/2000/svg">
<path d="M0 4C0 1.79086 1.79086 0 4 0H20C22.2091 0 24 1.79086 24 4V20C24 22.2091 22.2091 24 20 24H4C1.79086 24 0 22.2091 0 20V4Z" fill="white"/>
<path d="M4.16024 14.2327C4.16024 15.0375 4.32786 15.6554 4.54695 16.0292C4.83419 16.5188 5.26262 16.7263 5.6994 16.7263C6.26276 16.7263 6.77813 16.579 7.77132 15.1313C8.56698 13.971 9.50452 12.3423 10.1353 11.3213L11.2036 9.59141C11.9458 8.39005 12.8047 7.05456 13.7895 6.14932C14.5935 5.41047 15.4608 5 16.3337 5C17.7991 5 19.195 5.89497 20.2633 7.57351C21.4325 9.41183 22 11.7273 22 14.1169C22 15.5374 21.7343 16.5812 21.2822 17.4058C20.8455 18.2032 19.9942 19 18.5621 19V16.7263C19.7883 16.7263 20.0943 15.5388 20.0943 14.1799C20.0943 12.2434 19.6659 10.0942 18.7221 8.55864C18.0523 7.46942 17.1843 6.80387 16.2294 6.80387C15.1965 6.80387 14.3654 7.62482 13.4314 9.08859C12.9348 9.86628 12.425 10.814 11.8526 11.8835L11.2224 13.0599C9.9566 15.4252 9.63597 15.964 9.00306 16.8531C7.89373 18.4099 6.94645 19 5.6994 19C4.22006 19 3.2846 18.3249 2.70524 17.3075C2.2323 16.4785 2 15.3908 2 14.1513L4.16024 14.2327Z" fill="#0081FB"/>
<path d="M3.70331 7.73403C4.69371 6.12513 6.12298 5 7.76229 5C8.71165 5 9.65546 5.29613 10.641 6.14419C11.719 7.07141 12.868 8.59822 14.3014 11.1146L14.8154 12.0176C16.0562 14.196 16.7621 15.3168 17.1753 15.8452C17.7066 16.524 18.0787 16.7263 18.5621 16.7263C19.7883 16.7263 20.0943 15.5388 20.0943 14.1799L22 14.1169C22 15.5374 21.7343 16.5812 21.2822 17.4058C20.8455 18.2032 19.9942 19 18.5621 19C17.6719 19 16.8832 18.7962 16.011 17.9291C15.3405 17.2636 14.5567 16.0813 13.9537 15.0184L12.16 11.8607C11.26 10.276 10.4344 9.09445 9.95661 8.55937C9.44263 7.98398 8.7819 7.28911 7.72751 7.28911C6.87413 7.28911 6.14941 7.92021 5.54292 8.88555L3.70331 7.73403Z" fill="url(#paint0_linear_1486_388)"/>
<path d="M7.7275 7.28911C6.87411 7.28911 6.14939 7.92021 5.54291 8.88555C4.68535 10.2496 4.16024 12.2815 4.16024 14.2327C4.16024 15.0375 4.32786 15.6554 4.54695 16.0292L2.70524 17.3075C2.2323 16.4785 2 15.3908 2 14.1513C2 11.8974 2.58701 9.54817 3.7033 7.73403C4.6937 6.12513 6.12297 5 7.76228 5L7.7275 7.28911Z" fill="url(#paint1_linear_1486_388)"/>
<defs>
<linearGradient id="paint0_linear_1486_388" x1="6.2426" y1="13.5759" x2="20.0171" y2="14.236" gradientUnits="userSpaceOnUse">
<stop stop-color="#0064E1"/>
<stop offset="0.4" stop-color="#0064E1"/>
<stop offset="0.83" stop-color="#0073EE"/>
<stop offset="1" stop-color="#0082FB"/>
</linearGradient>
<linearGradient id="paint1_linear_1486_388" x1="5.12978" y1="15.1885" x2="5.12978" y2="9.8377" gradientUnits="userSpaceOnUse">
<stop stop-color="#0082FB"/>
<stop offset="1" stop-color="#0064E0"/>
</linearGradient>
</defs>
</svg>
