<svg width="24" height="24" viewBox="0 0 24 24" fill="none" xmlns="http://www.w3.org/2000/svg">
<path d="M4 4C4 2.89543 4.89543 2 6 2H18C19.1046 2 20 2.89543 20 4V7H4V4Z" fill="#93C5FD"/>
<rect x="4" y="12" width="16" height="5" fill="#3B82F6"/>
<rect x="4" y="7" width="16" height="5" fill="#60A5FA"/>
<path d="M4 17H20V20C20 21.1046 19.1046 22 18 22H6C4.89543 22 4 21.1046 4 20V17Z" fill="#2563EB"/>
<path d="M2.83318 7H11.1668C11.627 7 12 7.37303 12 7.83318V16.1668C12 16.627 11.627 17 11.1668 17H2.83318C2.37303 17 2 16.627 2 16.1668V7.83318C2 7.37303 2.37303 7 2.83318 7Z" fill="#1D4ED8"/>
<path d="M5.24349 13.5403C5.26161 13.6827 5.27369 13.8065 5.27923 13.9128H5.30036C5.30841 13.8121 5.32519 13.6908 5.3507 13.5488C5.3762 13.4069 5.39919 13.2869 5.41966 13.1889L6.39013 9.00201H7.645L8.65171 13.126C8.7102 13.3824 8.75207 13.6424 8.77705 13.9042H8.79366C8.81243 13.6505 8.8474 13.3984 8.89836 13.1492L9.70121 9H10.8433L9.43292 15H8.09852L7.14215 11.0265C7.11447 10.9122 7.08276 10.7627 7.04802 10.579C7.01329 10.3953 6.99165 10.2609 6.98309 10.1763H6.96647C6.95541 10.274 6.93375 10.419 6.90154 10.6112C6.86932 10.8035 6.84348 10.9458 6.82402 11.0381L5.92502 14.999H4.56797L3.15002 9.002H4.31277L5.1871 13.1975C5.20674 13.2836 5.22537 13.3983 5.24349 13.5403Z" fill="white"/>
</svg>
