<svg width="24" height="24" viewBox="0 0 24 24" fill="none" xmlns="http://www.w3.org/2000/svg">
<path d="M4 4C4 2.89543 4.89543 2 6 2H12V7H4V4Z" fill="#91C174"/>
<rect x="4" y="12" width="8" height="5" fill="#418B5C"/>
<rect x="4" y="7" width="8" height="5" fill="#6AA668"/>
<path d="M4 17H12V22H6C4.89543 22 4 21.1046 4 20V17Z" fill="#418B5C"/>
<path d="M12 2H18C19.1046 2 20 2.89543 20 4V7H12V2Z" fill="#BCDE81"/>
<rect x="12" y="12" width="8" height="5" fill="#6AA668"/>
<rect x="12" y="7" width="8" height="5" fill="#91C174"/>
<path d="M12 17H20V20C20 21.1046 19.1046 22 18 22H12V17Z" fill="#418B5C"/>
<path d="M2.83318 7H11.1668C11.627 7 12 7.37303 12 7.83318V16.1668C12 16.627 11.627 17 11.1668 17H2.83318C2.37303 17 2 16.627 2 16.1668V7.83318C2 7.37303 2.37303 7 2.83318 7Z" fill="#105B2B"/>
<path d="M4.29999 15L6.24141 11.9917L4.46261 9H5.89351L6.86422 10.9132C6.95384 11.095 7.01526 11.2299 7.0485 11.319H7.06108C7.12486 11.174 7.19199 11.0332 7.26247 10.8966L8.30015 9.00101H9.61373L7.78961 11.9751L9.66006 15H8.26239L7.14114 12.9C7.08832 12.8106 7.0435 12.7168 7.00722 12.6195H6.9906C6.95776 12.7148 6.91418 12.806 6.8607 12.8914L5.70622 15H4.29999Z" fill="white"/>
</svg>
