<svg width="24" height="24" viewBox="0 0 24 24" fill="none" xmlns="http://www.w3.org/2000/svg">
<path d="M16.3453 9.5H22.0279C22.5648 9.5 23 9.92532 23 10.45V15.5085C23 17.4368 21.4005 19 19.4273 19H19.4104C17.4373 19.0003 15.8375 17.4373 15.8372 15.509C15.8372 15.5088 15.8372 15.5087 15.8372 15.5085V9.9965C15.8372 9.72229 16.0647 9.5 16.3453 9.5Z" fill="#5059C9"/>
<path d="M20.1861 8.5C21.4576 8.5 22.4884 7.49264 22.4884 6.25C22.4884 5.00736 21.4576 4 20.1861 4C18.9145 4 17.8837 5.00736 17.8837 6.25C17.8837 7.49264 18.9145 8.5 20.1861 8.5Z" fill="#5059C9"/>
<path d="M13.0233 8.50001C14.8599 8.50001 16.3489 7.04493 16.3489 5.25C16.3489 3.45508 14.8599 2 13.0233 2C11.1866 2 9.69769 3.45508 9.69769 5.25C9.69769 7.04493 11.1866 8.50001 13.0233 8.50001Z" fill="#7B83EB"/>
<path d="M17.4575 9.5H8.07734C7.54686 9.51283 7.12722 9.94306 7.13953 10.4615V16.231C7.06545 19.3421 9.58406 21.9239 12.7674 22C15.9508 21.9239 18.4694 19.3421 18.3954 16.231V10.4615C18.4076 9.94306 17.988 9.51283 17.4575 9.5Z" fill="#7B83EB"/>
<rect x="1" y="7" width="11" height="10" rx="1" fill="url(#paint0_linear_1923_225)"/>
<path d="M9 10H7.1V15H5.9V10L4 9.98899V9H9V10Z" fill="white"/>
<defs>
<linearGradient id="paint0_linear_1923_225" x1="2.91093" y1="6.34897" x2="9.11238" y2="18.1637" gradientUnits="userSpaceOnUse">
<stop stop-color="#5A62C3"/>
<stop offset="0.5" stop-color="#4D55BD"/>
<stop offset="1" stop-color="#3940AB"/>
</linearGradient>
</defs>
</svg>
