<svg width="24" height="24" viewBox="0 0 24 24" fill="none" xmlns="http://www.w3.org/2000/svg">
<path d="M22.9999 12.5C23.0012 12.3319 22.9123 12.1754 22.7656 12.0875H22.7631L22.7539 12.0825L15.1306 7.67251C15.0977 7.65077 15.0635 7.63091 15.0283 7.61301C14.7339 7.46461 14.3843 7.46461 14.0899 7.61301C14.0547 7.63092 14.0205 7.65077 13.9876 7.67251L6.36438 12.0825L6.35518 12.0875C6.12219 12.2291 6.05076 12.5285 6.19565 12.7562C6.23834 12.8233 6.29714 12.8792 6.36694 12.919L13.9902 17.329C14.0232 17.3505 14.0574 17.3704 14.0925 17.3885C14.3869 17.5369 14.7365 17.5369 15.0309 17.3885C15.066 17.3704 15.1001 17.3506 15.1332 17.329L22.7564 12.919C22.9087 12.8322 23.0017 12.6723 22.9999 12.5Z" fill="#0A2767"/>
<path d="M7.13953 5H12.2558V9.5H7.13953V5Z" fill="#0078D4"/>
<path d="M22.7657 12.8915L22.7559 12.8965L15.1327 17.0865C15.0994 17.1065 15.0657 17.1255 15.0304 17.1425C14.9009 17.2028 14.7602 17.2368 14.617 17.2425L14.2005 17.0045C14.1653 16.9872 14.1311 16.968 14.0982 16.947L6.37259 12.638H6.36901L6.11627 12.5V20.982C6.12021 21.5479 6.59269 22.0036 7.17175 22H21.9609C21.9696 22 21.9772 21.996 21.9864 21.996C22.1087 21.9884 22.2293 21.9638 22.3446 21.923C22.3944 21.9024 22.4424 21.878 22.4883 21.85C22.5226 21.831 22.5815 21.7895 22.5815 21.7895C22.8435 21.6 22.9987 21.3006 23 20.982V12.5C22.9998 12.6622 22.9103 12.8118 22.7657 12.8915Z" fill="url(#paint0_linear_1923_226)"/>
<path d="M17.3721 5H21.9767V9.5H17.3721V5Z" fill="#50D9FF"/>
<rect x="7" y="5" width="5" height="4" fill="#0078D4"/>
<path d="M7 3C7 2.44772 7.44772 2 8 2H21C21.5523 2 22 2.44772 22 3V5H7V3Z" fill="#0364B8"/>
<rect x="12" y="5" width="5" height="4" fill="#28A8EA"/>
<rect x="12" y="9" width="5" height="4" fill="#0078D4"/>
<rect x="17" y="13" width="5" height="5" fill="#0078D4"/>
<rect x="12" y="13" width="5" height="5" fill="#0364B8"/>
<rect x="17" y="5" width="5" height="4" fill="#50D9FF"/>
<rect x="17" y="9" width="5" height="4" fill="#28A8EA"/>
<path d="M22.7656 12.8915L22.7559 12.897L15.1327 17.087C15.0994 17.107 15.0657 17.126 15.0303 17.143C14.7343 17.2843 14.3881 17.2843 14.092 17.143C14.057 17.126 14.0228 17.1073 13.9897 17.087L6.36645 12.897L6.35725 12.8915C6.21007 12.8135 6.1178 12.6636 6.11627 12.5V20.982C6.11994 21.5478 6.59225 22.0036 7.1712 22C7.1712 22 7.17123 22 7.17125 22H21.945C22.524 22.0036 22.9963 21.5478 23 20.982C23 20.982 23 20.982 23 20.982V12.5C22.9998 12.6622 22.9103 12.8118 22.7656 12.8915Z" fill="#1490DF"/>
<path d="M7.18557 22H21.9435L6.11627 12.5V20.953C6.1157 21.5307 6.59443 21.9994 7.18557 22Z" fill="#28A8EA"/>
<rect x="1" y="7" width="11" height="10" rx="1" fill="url(#paint1_linear_1923_226)"/>
<path d="M3.81439 10.3748C4.04553 9.89353 4.41861 9.49078 4.88574 9.2183C5.40306 8.92886 5.99207 8.78456 6.58793 8.80129C7.14019 8.78959 7.68513 8.9264 8.16323 9.19679C8.61275 9.45877 8.97479 9.84263 9.20541 10.3018C9.45657 10.8077 9.58174 11.3645 9.57072 11.9268C9.58289 12.5144 9.4541 13.0966 9.19467 13.6268C8.95856 14.1024 8.58503 14.4999 8.12025 14.7703C7.62372 15.049 7.05855 15.1894 6.48612 15.1763C5.92206 15.1896 5.3651 15.0512 4.87602 14.7763C4.42261 14.514 4.05603 14.1297 3.82002 13.6693C3.56738 13.1706 3.44072 12.6201 3.45063 12.0638C3.4401 11.4812 3.56446 10.9038 3.81439 10.3748ZM4.95634 13.0898C5.07957 13.394 5.28856 13.6579 5.55903 13.8508C5.83453 14.039 6.16442 14.136 6.50042 14.1278C6.85826 14.1416 7.21098 14.0412 7.50527 13.8418C7.77232 13.6495 7.97581 13.3849 8.09056 13.0808C8.21884 12.7411 8.28215 12.3813 8.27731 12.0193C8.28127 11.6538 8.22176 11.2903 8.1013 10.9443C7.99491 10.6319 7.79798 10.3564 7.53443 10.1513C7.24751 9.94241 6.89575 9.83646 6.53828 9.85129C6.195 9.8426 5.85772 9.94045 5.57489 10.1308C5.29984 10.3245 5.08689 10.5907 4.96094 10.8983C4.68154 11.6034 4.68008 12.3847 4.95684 13.0908L4.95634 13.0898Z" fill="white"/>
<defs>
<linearGradient id="paint0_linear_1923_226" x1="14.5581" y1="12.5" x2="14.5581" y2="22" gradientUnits="userSpaceOnUse">
<stop stop-color="#35B8F1"/>
<stop offset="1" stop-color="#28A8EA"/>
</linearGradient>
<linearGradient id="paint1_linear_1923_226" x1="2.91092" y1="6.34897" x2="9.11238" y2="18.1637" gradientUnits="userSpaceOnUse">
<stop stop-color="#1784D9"/>
<stop offset="0.5" stop-color="#107AD5"/>
<stop offset="1" stop-color="#0A63C9"/>
</linearGradient>
</defs>
</svg>
