<svg width="24" height="24" viewBox="0 0 24 24" fill="none" xmlns="http://www.w3.org/2000/svg">
<rect x="4" y="4" width="1.125" height="15" fill="#1A1C20"/>
<rect x="16" y="13" width="1.125" height="6" fill="#1A1C20"/>
<rect x="13" y="7" width="1.125" height="3" fill="#1A1C20"/>
<rect x="10" y="13" width="1.125" height="3" fill="#1A1C20"/>
<rect x="16" y="4" width="1.125" height="3" fill="#1A1C20"/>
<rect x="5.125" y="4" width="3" height="3" fill="#FFCD00"/>
<rect x="17.125" y="4" width="3" height="3" fill="#FFCD00"/>
<rect x="5.125" y="7" width="3" height="3" fill="#FFA301"/>
<rect x="17.125" y="7" width="3" height="3" fill="#FFA301"/>
<rect x="8.125" y="7" width="3" height="3" fill="#FFA301"/>
<rect x="14.125" y="7" width="3" height="3" fill="#FFA301"/>
<rect x="5.125" y="10" width="3" height="3" fill="#FF6F00"/>
<rect x="17.125" y="10" width="3" height="3" fill="#FF6F00"/>
<rect x="8.125" y="10" width="3" height="3" fill="#FF6F00"/>
<rect x="14.125" y="10" width="3" height="3" fill="#FF6F00"/>
<rect x="11.125" y="10" width="3" height="3" fill="#FF6F00"/>
<rect x="5.125" y="13" width="3" height="3" fill="#FF4606"/>
<rect x="17.125" y="13" width="3" height="3" fill="#FF4606"/>
<rect x="11.125" y="13" width="3" height="3" fill="#FF4606"/>
<rect x="5.125" y="16" width="3" height="3" fill="#FF0107"/>
<rect x="17.125" y="16" width="3" height="3" fill="#FF0107"/>
</svg>
