<svg width="24" height="24" viewBox="0 0 24 24" fill="none" xmlns="http://www.w3.org/2000/svg">
<rect x="5" y="5.5" width="0.976744" height="13" fill="#1A1C20"/>
<rect x="15.4186" y="13.3" width="0.976744" height="5.2" fill="#1A1C20"/>
<rect x="12.814" y="8.10001" width="0.976744" height="2.6" fill="#1A1C20"/>
<rect x="10.2093" y="13.3" width="0.976744" height="2.6" fill="#1A1C20"/>
<rect x="15.4186" y="5.5" width="0.976744" height="2.6" fill="#1A1C20"/>
<rect x="5.97675" y="5.5" width="2.60465" height="2.6" fill="#FFCD00"/>
<rect x="16.3953" y="5.5" width="2.60465" height="2.6" fill="#FFCD00"/>
<rect x="5.97675" y="8.10001" width="2.60465" height="2.6" fill="#FFA301"/>
<rect x="16.3953" y="8.10001" width="2.60465" height="2.6" fill="#FFA301"/>
<rect x="8.58142" y="8.10001" width="2.60465" height="2.6" fill="#FFA301"/>
<rect x="13.7907" y="8.10001" width="2.60465" height="2.6" fill="#FFA301"/>
<rect x="5.97675" y="10.7" width="2.60465" height="2.6" fill="#FF6F00"/>
<rect x="16.3953" y="10.7" width="2.60465" height="2.6" fill="#FF6F00"/>
<rect x="8.58142" y="10.7" width="2.60465" height="2.6" fill="#FF6F00"/>
<rect x="13.7907" y="10.7" width="2.60465" height="2.6" fill="#FF6F00"/>
<rect x="11.186" y="10.7" width="2.60465" height="2.6" fill="#FF6F00"/>
<rect x="5.97675" y="13.3" width="2.60465" height="2.6" fill="#FF4606"/>
<rect x="16.3953" y="13.3" width="2.60465" height="2.6" fill="#FF4606"/>
<rect x="11.186" y="13.3" width="2.60465" height="2.6" fill="#FF4606"/>
<rect x="5.97675" y="15.9" width="2.60465" height="2.6" fill="#FF0107"/>
<rect x="16.3953" y="15.9" width="2.60465" height="2.6" fill="#FF0107"/>
</svg>
