<svg width="24" height="24" viewBox="0 0 24 24" fill="none" xmlns="http://www.w3.org/2000/svg">
<path d="M3.2034 2.86259L14.27 2.04519C15.6294 1.92859 15.9786 2.00719 16.8334 2.62859L20.366 5.11719C20.9486 5.54519 21.1426 5.66179 21.1426 6.12779V19.7764C21.1426 20.6318 20.832 21.1378 19.7446 21.215L6.8934 21.9934C6.0774 22.032 5.6888 21.9154 5.2614 21.3708L2.66 17.988C2.1934 17.3654 2 16.8994 2 16.3546V4.22259C2 3.52319 2.3106 2.93999 3.2034 2.86259Z" fill="white"/>
<path fill-rule="evenodd" clip-rule="evenodd" d="M14.27 2.04539L3.2034 2.86279C2.3106 2.93999 2 3.52339 2 4.22259V16.3546C2 16.8992 2.1934 17.3652 2.66 17.988L5.2614 21.3706C5.6888 21.9152 6.0774 22.032 6.8934 21.9932L19.7448 21.2152C20.8314 21.1378 21.1428 20.6318 21.1428 19.7766V6.12799C21.1428 5.68599 20.9682 5.55859 20.4542 5.18139L16.8334 2.62859C15.9788 2.00719 15.6294 1.92859 14.27 2.04519V2.04539ZM7.184 5.90459C6.1346 5.97519 5.8966 5.99119 5.3006 5.50659L3.7854 4.30139C3.6314 4.14539 3.7088 3.95079 4.0968 3.91199L14.7354 3.13459C15.6288 3.05659 16.094 3.36799 16.4434 3.63999L18.268 4.96199C18.346 5.00139 18.54 5.23399 18.3066 5.23399L7.32 5.89539L7.184 5.90459ZM5.9606 19.66V8.07339C5.9606 7.56739 6.116 7.33399 6.5812 7.29479L19.2 6.55599C19.628 6.51739 19.8214 6.78939 19.8214 7.29459V18.804C19.8214 19.31 19.7434 19.738 19.0448 19.7766L6.9694 20.4766C6.2708 20.5152 5.9608 20.2826 5.9608 19.66H5.9606ZM17.8806 8.69459C17.958 9.04459 17.8806 9.39459 17.5306 9.43459L16.9486 9.54999V18.1046C16.4432 18.3766 15.978 18.532 15.5892 18.532C14.9678 18.532 14.8126 18.3374 14.3472 17.7546L10.5412 11.7666V17.56L11.7452 17.8326C11.7452 17.8326 11.7452 18.5326 10.7738 18.5326L8.0958 18.688C8.0178 18.532 8.0958 18.1434 8.3672 18.066L9.0666 17.872V10.212L8.096 10.1334C8.018 9.78339 8.212 9.27799 8.756 9.23879L11.6294 9.04539L15.5894 15.1108V9.74479L14.58 9.6288C14.502 9.20019 14.8126 8.88879 15.2006 8.8508L17.8806 8.69459Z" fill="black"/>
</svg>
