<svg width="24" height="24" viewBox="0 0 24 24" fill="none" xmlns="http://www.w3.org/2000/svg">
<path d="M3.2034 2.86259L14.27 2.04519C15.6294 1.92859 15.9786 2.00719 16.8334 2.62859L20.366 5.11719C20.9486 5.54519 21.1426 5.66179 21.1426 6.12779V19.7764C21.1426 20.6318 20.832 21.1378 19.7446 21.215L6.8934 21.9934C6.0774 22.032 5.6888 21.9154 5.2614 21.3708L2.66 17.988C2.1934 17.3654 2 16.8994 2 16.3546V4.22259C2 3.52319 2.3106 2.93999 3.2034 2.86259Z" fill="white"/>
<path fill-rule="evenodd" clip-rule="evenodd" d="M14.77 2.04539L3.7034 2.86279C2.8106 2.93999 2.5 3.52339 2.5 4.22259V16.3546C2.5 16.8992 2.6934 17.3652 3.16 17.988L5.7614 21.3706C6.1888 21.9152 6.5774 22.032 7.3934 21.9932L20.2448 21.2152C21.3314 21.1378 21.6428 20.6318 21.6428 19.7766V6.12799C21.6428 5.68599 21.4682 5.55859 20.9542 5.18139L17.3334 2.62859C16.4788 2.00719 16.1294 1.92859 14.77 2.04519V2.04539ZM7.684 5.90459C6.6346 5.97519 6.3966 5.99119 5.8006 5.50659L4.2854 4.30139C4.1314 4.14539 4.2088 3.95079 4.5968 3.91199L15.2354 3.13459C16.1288 3.05659 16.594 3.36799 16.9434 3.63999L18.768 4.96199C18.846 5.00139 19.04 5.23399 18.8066 5.23399L7.82 5.89539L7.684 5.90459ZM6.4606 19.66V8.07339C6.4606 7.56739 6.616 7.33399 7.0812 7.29479L19.7 6.55599C20.128 6.51739 20.3214 6.78939 20.3214 7.29459V18.804C20.3214 19.31 20.2434 19.738 19.5448 19.7766L7.4694 20.4766C6.7708 20.5152 6.4608 20.2826 6.4608 19.66H6.4606ZM18.3806 8.69459C18.458 9.04459 18.3806 9.39459 18.0306 9.43459L17.4486 9.54999V18.1046C16.9432 18.3766 16.478 18.532 16.0892 18.532C15.4678 18.532 15.3126 18.3374 14.8472 17.7546L11.0412 11.7666V17.56L12.2452 17.8326C12.2452 17.8326 12.2452 18.5326 11.2738 18.5326L8.5958 18.688C8.5178 18.532 8.5958 18.1434 8.8672 18.066L9.5666 17.872V10.212L8.596 10.1334C8.518 9.78339 8.712 9.27799 9.256 9.23879L12.1294 9.04539L16.0894 15.1108V9.74479L15.08 9.6288C15.002 9.20019 15.3126 8.88879 15.7006 8.8508L18.3806 8.69459Z" fill="black"/>
</svg>
