<svg width="24" height="24" viewBox="0 0 24 24" fill="none" xmlns="http://www.w3.org/2000/svg">
<path d="M10.22 2.46545L10.1179 2.52723C9.95539 2.62551 9.80234 2.73539 9.65952 2.85546L9.95412 2.64823H12.4545L12.9091 6.0902L10.6363 8.36303L8.36346 9.94282V11.7645C8.36346 13.0368 9.02845 14.2166 10.1169 14.8755L12.5096 16.3238L7.45434 19.2727H6.47934L4.66211 18.1727C3.57366 17.5139 2.90869 16.334 2.90869 15.0617V8.93605C2.90869 7.66332 3.57408 6.48318 4.66309 5.82447L10.1179 2.525C10.1517 2.50455 10.1857 2.4847 10.22 2.46545Z" fill="url(#paint0_radial_861_49)"/>
<path d="M10.22 2.46545L10.1179 2.52723C9.95539 2.62551 9.80234 2.73539 9.65952 2.85546L9.95412 2.64823H12.4545L12.9091 6.0902L10.6363 8.36303L8.36346 9.94282V11.7645C8.36346 13.0368 9.02845 14.2166 10.1169 14.8755L12.5096 16.3238L7.45434 19.2727H6.47934L4.66211 18.1727C3.57366 17.5139 2.90869 16.334 2.90869 15.0617V8.93605C2.90869 7.66332 3.57408 6.48318 4.66309 5.82447L10.1179 2.525C10.1517 2.50455 10.1857 2.4847 10.22 2.46545Z" fill="url(#paint1_linear_861_49)"/>
<path d="M15.6365 9.72668V11.7633C15.6365 13.0356 14.9715 14.2154 13.883 14.8743L8.42826 18.176C7.31239 18.8515 5.92401 18.8758 4.78851 18.2492L10.1168 21.4744C11.2744 22.1752 12.7254 22.1752 13.883 21.4744L19.3378 18.1726C20.4263 17.5138 21.0912 16.334 21.0912 15.0616V13.5905L20.6366 12.9086L15.6365 9.72668Z" fill="url(#paint2_radial_861_49)"/>
<path d="M15.6365 9.72668V11.7633C15.6365 13.0356 14.9715 14.2154 13.883 14.8743L8.42826 18.176C7.31239 18.8515 5.92401 18.8758 4.78851 18.2492L10.1168 21.4744C11.2744 22.1752 12.7254 22.1752 13.883 21.4744L19.3378 18.1726C20.4263 17.5138 21.0912 16.334 21.0912 15.0616V13.5905L20.6366 12.9086L15.6365 9.72668Z" fill="url(#paint3_linear_861_49)"/>
<path d="M19.3369 5.82441L13.8821 2.52494C12.7608 1.8467 11.3645 1.82569 10.2262 2.46191L10.1179 2.52746C9.02886 3.18618 8.36346 4.36629 8.36346 5.63904V9.95008L10.1179 8.88885C11.275 8.18896 12.725 8.18896 13.8821 8.88885L19.3369 12.1883C20.3918 12.8265 21.0493 13.9539 21.0893 15.1808C21.0906 15.1412 21.0913 15.1015 21.0913 15.0617V8.93599C21.0913 7.66326 20.4259 6.48312 19.3369 5.82441Z" fill="url(#paint4_radial_861_49)"/>
<path d="M19.3369 5.82441L13.8821 2.52494C12.7608 1.8467 11.3645 1.82569 10.2262 2.46191L10.1179 2.52746C9.02886 3.18618 8.36346 4.36629 8.36346 5.63904V9.95008L10.1179 8.88885C11.275 8.18896 12.725 8.18896 13.8821 8.88885L19.3369 12.1883C20.3918 12.8265 21.0493 13.9539 21.0893 15.1808C21.0906 15.1412 21.0913 15.1015 21.0913 15.0617V8.93599C21.0913 7.66326 20.4259 6.48312 19.3369 5.82441Z" fill="url(#paint5_linear_861_49)"/>
<defs>
<radialGradient id="paint0_radial_861_49" cx="0" cy="0" r="1" gradientUnits="userSpaceOnUse" gradientTransform="translate(9.00831 5.92579) rotate(110.528) scale(15.1669 26.4541)">
<stop offset="0.06441" stop-color="#AE7FE2"/>
<stop offset="1" stop-color="#0078D4"/>
</radialGradient>
<linearGradient id="paint1_linear_861_49" x1="9.05072" y1="18.3037" x2="6.88672" y2="14.5609" gradientUnits="userSpaceOnUse">
<stop stop-color="#114A8B"/>
<stop offset="1" stop-color="#0078D4" stop-opacity="0"/>
</linearGradient>
<radialGradient id="paint2_radial_861_49" cx="0" cy="0" r="1" gradientUnits="userSpaceOnUse" gradientTransform="translate(5.83147 17.6139) rotate(-8.36717) scale(14.1144 9.32348)">
<stop offset="0.133928" stop-color="#D59DFF"/>
<stop offset="1" stop-color="#5E438F"/>
</radialGradient>
<linearGradient id="paint3_linear_861_49" x1="19.4351" y1="12.6254" x2="17.1162" y2="15.9504" gradientUnits="userSpaceOnUse">
<stop stop-color="#493474"/>
<stop offset="1" stop-color="#8C66BA" stop-opacity="0"/>
</linearGradient>
<radialGradient id="paint4_radial_861_49" cx="0" cy="0" r="1" gradientUnits="userSpaceOnUse" gradientTransform="translate(19.7527 13.1378) rotate(-165.772) scale(11.329 19.0713)">
<stop offset="0.0584996" stop-color="#50E6FF"/>
<stop offset="1" stop-color="#436DCD"/>
</radialGradient>
<linearGradient id="paint5_linear_861_49" x1="8.80703" y1="2.47938" x2="12.2213" y2="2.47938" gradientUnits="userSpaceOnUse">
<stop stop-color="#2D3F80"/>
<stop offset="1" stop-color="#436DCD" stop-opacity="0"/>
</linearGradient>
</defs>
</svg>
