<svg width="24" height="24" viewBox="0 0 24 24" fill="none" xmlns="http://www.w3.org/2000/svg">
<path d="M21.5493 10.0045C22.0551 8.50639 21.8809 6.86529 21.072 5.50264C19.8555 3.41259 17.4099 2.33732 15.0214 2.84333C13.9589 1.66218 12.4323 0.990477 10.8319 1.0001C8.39045 0.994602 6.22425 2.54564 5.47315 4.83781C3.90477 5.15475 2.55098 6.12346 1.75878 7.49643C0.533191 9.58097 0.812588 12.2087 2.44995 13.9962C1.94411 15.4943 2.1183 17.1354 2.92723 18.498C4.14375 20.5881 6.58935 21.6634 8.97781 21.1573C10.0397 22.3385 11.5669 23.0102 13.1674 22.9999C15.6102 23.0061 17.7771 21.4537 18.5282 19.1594C20.0966 18.8425 21.4503 17.8738 22.2426 16.5008C23.4667 14.4163 23.1866 11.7906 21.55 10.0031L21.5493 10.0045ZM13.1688 21.5623C12.1912 21.5637 11.2443 21.2261 10.4939 20.608C10.5281 20.5901 10.5873 20.5578 10.6256 20.5345L15.0653 18.0044C15.2925 17.8772 15.4318 17.6386 15.4304 17.3808V11.2049L17.3068 12.274C17.327 12.2836 17.3402 12.3028 17.343 12.3248V17.4393C17.3402 19.7136 15.4736 21.5575 13.1688 21.5623ZM4.19183 17.7789C3.70201 16.9443 3.52574 15.9659 3.69365 15.0165C3.7264 15.0357 3.78423 15.0708 3.82534 15.0942L8.26503 17.6242C8.49008 17.7541 8.76878 17.7541 8.99453 17.6242L14.4146 14.5359V16.6741C14.416 16.6961 14.4055 16.7174 14.3881 16.7311L9.90031 19.288C7.90133 20.4238 5.34844 19.7486 4.19253 17.7789H4.19183ZM3.02338 8.21626C3.5111 7.38024 4.28101 6.74085 5.19794 6.40878C5.19794 6.44659 5.19585 6.51328 5.19585 6.56003V11.6208C5.19445 11.878 5.3338 12.1165 5.56025 12.2437L10.9803 15.3313L9.10392 16.4004C9.08511 16.4128 9.06142 16.4149 9.04052 16.4059L4.55205 13.847C2.55725 12.7071 1.87304 10.1887 3.02268 8.21694L3.02338 8.21626ZM18.4397 11.7563L13.0197 8.66795L14.896 7.59956C14.9148 7.58718 14.9385 7.58512 14.9594 7.59406L19.4479 10.1509C21.4462 11.2901 22.1311 13.8126 20.9766 15.7844C20.4881 16.6191 19.7189 17.2584 18.8027 17.5912V12.3792C18.8048 12.122 18.6661 11.8841 18.4404 11.7563H18.4397ZM20.307 8.98284C20.2742 8.9629 20.2164 8.92852 20.1753 8.90515L15.7356 6.37509C15.5105 6.24515 15.2318 6.24515 15.0061 6.37509L9.58607 9.46341V7.32524C9.58468 7.30324 9.59513 7.28192 9.61255 7.26817L14.1003 4.71337C16.0993 3.57553 18.655 4.25273 19.8074 6.2259C20.2944 7.05917 20.4707 8.03475 20.3056 8.98284H20.307ZM8.56603 12.7937L6.68898 11.7246C6.66878 11.715 6.65554 11.6958 6.65275 11.6738V6.55935C6.65415 4.2823 8.52632 2.43701 10.834 2.43838C11.8101 2.43838 12.7549 2.77664 13.5053 3.39265C13.4712 3.41053 13.4126 3.44284 13.3736 3.46622L8.93391 5.99627C8.70677 6.12346 8.56742 6.36134 8.56882 6.61916L8.56603 12.7924V12.7937ZM9.58538 10.6253L11.9996 9.24959L14.4139 10.6246V13.3754L11.9996 14.7504L9.58538 13.3754V10.6253Z" fill="black"/>
</svg>
