<svg width="24" height="24" viewBox="0 0 24 24" fill="none" xmlns="http://www.w3.org/2000/svg">
<path d="M4 4C4 2.89543 4.89543 2 6 2H18C19.1046 2 20 2.89543 20 4V20C20 21.1046 19.1046 22 18 22H6C4.89543 22 4 21.1046 4 20V4Z" fill="#ED756C"/>
<path fill-rule="evenodd" clip-rule="evenodd" d="M8 15H7V10H8.5C9.32843 10 10 10.6716 10 11.5C10 12.3284 9.32843 13 8.5 13H8V15ZM8 12H8.5C8.77614 12 9 11.7761 9 11.5C9 11.2239 8.77614 11 8.5 11H8V12Z" fill="white"/>
<path d="M15 15H16V13H17V12H16V11.5C16 11.2239 16.2239 11 16.5 11H17V10H16.5C15.6716 10 15 10.6716 15 11.5V15Z" fill="white"/>
<path fill-rule="evenodd" clip-rule="evenodd" d="M11 15V10H12.5C13.3284 10 14 10.6716 14 11.5V13.5C14 14.3284 13.3284 15 12.5 15H11ZM12.5 14C12.7761 14 13 13.7761 13 13.5V11.5C13 11.2239 12.7761 11 12.5 11H12V14H12.5Z" fill="white"/>
</svg>
