<?xml version="1.0" encoding="UTF-8"?>
<svg version="1.1" xmlns="http://www.w3.org/2000/svg" width="320" height="320">
<path d="M0 0 C1.14560394 -0.0065712 2.29120789 -0.0131424 3.4715271 -0.01991272 C7.25787428 -0.03959899 11.04418179 -0.05130067 14.83056641 -0.0612793 C16.77821836 -0.06739259 16.77821836 -0.06739259 18.76521683 -0.07362938 C24.93539251 -0.09232827 31.10554854 -0.10689483 37.2757467 -0.11524135 C44.35615191 -0.12498133 51.43624179 -0.15122195 58.51653612 -0.19174224 C64.01495326 -0.22210917 69.51328114 -0.23672984 75.01178038 -0.24002236 C78.28312434 -0.24235126 81.55405824 -0.25306399 84.82532883 -0.27648354 C103.66321534 -0.40291824 119.32740261 0.94823912 136.55712891 9.17700195 C137.45689453 9.60625977 138.35666016 10.03551758 139.28369141 10.4777832 C163.25683269 22.7407013 180.42294239 43.91582529 188.98887634 69.22554016 C193.31566507 83.29558346 193.27064697 97.10999661 193.18603516 111.7199707 C193.18686607 114.34491575 193.1893338 116.96986074 193.19334412 119.59480286 C193.19782853 125.06366836 193.18222071 130.53218775 193.15405273 136.00097656 C193.12196885 142.27749046 193.1220472 148.5533827 193.1392675 154.82994097 C193.1552566 160.93236775 193.14821824 167.03453545 193.13133049 173.13695717 C193.1261906 175.70548311 193.12657879 178.27402691 193.13287544 180.84255028 C193.1614429 199.48623828 191.7001643 215.12677535 183.55712891 232.17700195 C183.12787109 233.07676758 182.69861328 233.9765332 182.25634766 234.90356445 C170.68285121 257.52893497 150.07366916 275.7995338 125.86181641 283.8215332 C118.53444903 286.07235809 111.18086357 288.28616112 103.46989441 288.32417297 C102.46803101 288.33132828 101.4661676 288.33848358 100.4339447 288.34585571 C98.80145531 288.34988907 98.80145531 288.34988907 97.13598633 288.35400391 C95.98077484 288.3605751 94.82556335 288.3671463 93.63534546 288.37391663 C89.81109548 288.39362836 85.98688485 288.405311 82.16259766 288.4152832 C80.19702125 288.42139649 80.19702125 288.42139649 78.19173622 288.42763329 C71.96389502 288.44667847 65.73606553 288.46090462 59.50820082 288.46924525 C52.35873622 288.47898173 45.20958418 288.50520918 38.06022948 288.54574615 C32.51087752 288.57611166 26.96161402 288.59073371 21.41218072 288.59402627 C18.10952427 288.59635581 14.807274 288.60707451 11.50469017 288.63048744 C-20.49022503 288.84310933 -45.13414104 280.98189773 -68.63037109 258.30200195 C-85.72893437 240.69740643 -95.55877298 217.17003825 -95.61987305 192.73413086 C-95.62644424 191.58852692 -95.63301544 190.44292297 -95.63978577 189.26260376 C-95.65947204 185.47625658 -95.67117372 181.68994907 -95.68115234 177.90356445 C-95.68522787 176.60512981 -95.6893034 175.30669518 -95.69350243 173.96891403 C-95.71220132 167.79873835 -95.72676788 161.62858232 -95.7351144 155.45838416 C-95.74485438 148.37797895 -95.771095 141.29788907 -95.81161529 134.21759474 C-95.84198221 128.7191776 -95.85660289 123.22084971 -95.85989541 117.72235048 C-95.86222431 114.45100652 -95.87293704 111.18007262 -95.89635658 107.90880203 C-96.10719669 76.49510139 -88.26759323 50.67397597 -66.13037109 27.55200195 C-48.20238467 10.20233768 -24.89996522 0.06226041 0 0 Z M21.41650391 63.05200195 C20.44367125 64.02348538 19.47054204 64.99467192 18.49713135 65.96557617 C16.46666518 67.99310601 14.43982964 70.02417796 12.41552734 72.05786133 C9.82427938 74.66053347 7.22411371 77.25408183 4.62118149 79.84506226 C2.6135409 81.8454699 0.61069533 83.85062382 -1.39073944 85.85723877 C-2.81168933 87.28016486 -4.23665642 88.69907567 -5.66168213 90.11791992 C-6.523078 90.98562012 -7.38447388 91.85332031 -8.27197266 92.74731445 C-9.03108948 93.50802246 -9.7902063 94.26873047 -10.57232666 95.05249023 C-14.03261748 98.98259115 -14.67019146 101.81870537 -14.80615234 107.0793457 C-13.80155903 112.88006195 -9.08886216 116.76860722 -5.06005859 120.68481445 C-4.44518585 121.29211395 -3.83031311 121.89941345 -3.19680786 122.52511597 C-1.24192926 124.4556583 0.71926578 126.37958045 2.68212891 128.30200195 C5.27378407 130.84054684 7.85881078 133.38557425 10.43994141 135.93481445 C11.03783478 136.51611115 11.63572815 137.09740784 12.2517395 137.69631958 C16.44433985 141.83863479 16.44433985 141.83863479 17.55712891 145.17700195 C16.65881348 146.06484375 15.76049805 146.95268555 14.83496094 147.86743164 C11.50143275 151.16474241 8.17454199 154.46868188 4.84960938 157.7746582 C3.4100048 159.20420922 1.96860976 160.63195952 0.52539062 162.05786133 C-1.54950444 164.10848026 -3.617861 166.16550213 -5.68505859 168.22387695 C-6.3309494 168.85944519 -6.97684021 169.49501343 -7.64230347 170.14984131 C-8.24277496 170.75016174 -8.84324646 171.35048218 -9.46191406 171.96899414 C-10.25467239 172.75509064 -10.25467239 172.75509064 -11.06344604 173.55706787 C-14.18464572 177.22246291 -14.68202893 180.27672434 -14.80615234 185.0793457 C-13.94716923 190.03928048 -10.3632301 193.50861047 -6.92724609 196.95141602 C-5.56067871 198.32743988 -5.56067871 198.32743988 -4.16650391 199.73126221 C-3.17554765 200.71863946 -2.18433046 201.70575489 -1.19287109 202.69262695 C-0.17272184 203.71412449 0.84713044 204.73591868 1.86669922 205.75799561 C3.99855538 207.89279262 6.13396775 210.02394941 8.27197266 212.15258789 C11.01265302 214.88184536 13.74421793 217.62002262 16.47320557 220.36096573 C18.57480448 222.46978658 20.68113725 224.57382704 22.78894043 226.67644501 C23.79832798 227.68449849 24.80623221 228.69403952 25.81262207 229.70508575 C27.21741186 231.11494918 28.62929734 232.51773175 30.04150391 233.92016602 C31.24371582 235.11999115 31.24371582 235.11999115 32.47021484 236.34405518 C35.95967541 239.40886537 39.57417052 239.6639627 44.05212975 239.56191826 C51.44415307 238.42606546 57.73297555 230.28846046 62.77734375 225.21557617 C63.55558502 224.44083954 64.33382629 223.66610291 65.13565063 222.8678894 C67.68481436 220.32746797 70.22666379 217.7798732 72.76806641 215.23168945 C74.54516889 213.45593522 76.32256809 211.68047789 78.10025024 209.90530396 C81.81358082 206.19491401 85.52339186 202.48104077 89.23046875 198.7644043 C93.51209145 194.47186789 97.80091459 190.18662684 102.09348524 185.90504062 C106.23498308 181.77371507 110.37083734 177.63678197 114.50432205 173.49744034 C116.25955992 171.74086777 118.01628617 169.98578116 119.77451706 168.23220444 C122.22563951 165.78615107 124.6702763 163.33379582 127.11328125 160.87963867 C127.84158142 160.15538696 128.56988159 159.43113525 129.32025146 158.68493652 C130.31673203 157.67999649 130.31673203 157.67999649 131.33334351 156.65475464 C131.91105688 156.07628721 132.48877026 155.49781979 133.0839901 154.90182304 C135.94681253 151.54989417 136.86401348 148.67501208 136.93212891 144.30200195 C136.96048828 143.47958008 136.98884766 142.6571582 137.01806641 141.80981445 C135.80744023 134.89488191 129.51796897 129.84712499 124.76269531 125.10791016 C123.59121696 123.92876541 123.59121696 123.92876541 122.39607239 122.72579956 C119.82208345 120.13795016 117.24077214 117.55755715 114.65869141 114.9777832 C112.86252173 113.17772536 111.06657567 111.37744437 109.27084351 109.57695007 C105.50997206 105.80862454 101.74532854 102.04412002 97.97802734 98.28222656 C93.63060986 93.94085386 89.29246305 89.59037221 84.95872176 85.23535091 C80.77827622 81.0351391 76.58948286 76.8433251 72.39738083 72.6547451 C70.61924591 70.87609693 68.84347231 69.09508484 67.07011795 67.3116703 C64.59063596 64.81984988 62.10179681 62.33776134 59.61035156 59.85791016 C58.51602058 58.75211357 58.51602058 58.75211357 57.39958191 57.62397766 C52.88669759 53.15737132 48.30043324 48.7535505 41.55712891 48.73950195 C40.93837891 48.72016602 40.31962891 48.70083008 39.68212891 48.6809082 C32.2218197 50.42256127 26.56926115 57.87669754 21.41650391 63.05200195 Z " fill="#FFD65B" transform="translate(111.44287109375,15.822998046875)"/>
</svg>
