<svg width="24" height="24" viewBox="0 0 24 24" fill="none" xmlns="http://www.w3.org/2000/svg">
<path d="M16.6718 19.7584C16.6718 18.7213 17.5017 17.8397 18.5905 17.8397C19.7317 17.8397 20.5616 18.7213 20.5616 19.7584C20.5616 20.7956 19.7317 21.6771 18.6429 21.6771C17.4499 21.7289 16.6718 20.7956 16.6718 19.7584Z" fill="#B4D625"/>
<path d="M7.31882 5.92448C7.31882 4.57621 8.61524 3.48722 10.2747 3.48722C12.4008 3.48722 13.6972 4.47249 14.4232 9.60629H14.8899L15.564 2.60566C10.7414 0.946246 4.8297 2.70937 4.72599 7.73945C4.72599 13.1844 13.386 13.1844 13.386 18.1626C13.386 19.6146 12.0896 20.5999 10.6376 20.5999C6.80026 20.5999 5.91869 17.3848 5.71127 14.0141H5.24456L4 20.3406C4 20.3406 6.85211 22 9.91165 22C13.5935 21.9481 16.0308 19.2516 16.1345 16.3995C16.1345 10.9545 7.31882 9.81376 7.31882 5.92448Z" fill="#06492E"/>
</svg>
