<svg width="24" height="24" viewBox="0 0 24 24" fill="none" xmlns="http://www.w3.org/2000/svg">
<path d="M6.21641 14.6434C6.21641 15.8058 5.27766 16.7453 4.11617 16.7453C2.95467 16.7453 2.01593 15.8058 2.01593 14.6434C2.01593 13.4809 2.95467 12.5414 4.11617 12.5414H6.21641V14.6434ZM7.26653 14.6434C7.26653 13.4809 8.20527 12.5414 9.36677 12.5414C10.5283 12.5414 11.467 13.4809 11.467 14.6434V19.8981C11.467 21.0606 10.5283 22 9.36677 22C8.20527 22 7.26653 21.0606 7.26653 19.8981V14.6434Z" fill="#E01E5A"/>
<path d="M9.36674 6.20382C8.20525 6.20382 7.26651 5.26433 7.26651 4.10191C7.26651 2.93949 8.20525 2 9.36674 2C10.5282 2 11.467 2.93949 11.467 4.10191V6.20382H9.36674ZM9.36674 7.2707C10.5282 7.2707 11.467 8.21019 11.467 9.37261C11.467 10.535 10.5282 11.4745 9.36674 11.4745H4.10024C2.93874 11.4745 2 10.535 2 9.37261C2 8.21019 2.93874 7.2707 4.10024 7.2707H9.36674Z" fill="#36C5F0"/>
<path d="M17.7836 9.37261C17.7836 8.21019 18.7223 7.2707 19.8838 7.2707C21.0453 7.2707 21.984 8.21019 21.984 9.37261C21.984 10.535 21.0453 11.4745 19.8838 11.4745H17.7836V9.37261ZM16.7334 9.37261C16.7334 10.535 15.7947 11.4745 14.6332 11.4745C13.4717 11.4745 12.533 10.535 12.533 9.37261V4.10191C12.533 2.93949 13.4717 2 14.6332 2C15.7947 2 16.7334 2.93949 16.7334 4.10191V9.37261Z" fill="#2EB67D"/>
<path d="M14.6332 17.7962C15.7947 17.7962 16.7334 18.7357 16.7334 19.8981C16.7334 21.0606 15.7947 22 14.6332 22C13.4717 22 12.533 21.0606 12.533 19.8981V17.7962H14.6332ZM14.6332 16.7453C13.4717 16.7453 12.533 15.8058 12.533 14.6434C12.533 13.4809 13.4717 12.5414 14.6332 12.5414H19.8997C21.0612 12.5414 21.9999 13.4809 21.9999 14.6434C21.9999 15.8058 21.0612 16.7453 19.8997 16.7453H14.6332Z" fill="#ECB22E"/>
</svg>
