<svg width="24" height="24" viewBox="0 0 24 24" fill="none" xmlns="http://www.w3.org/2000/svg">
<path fill-rule="evenodd" clip-rule="evenodd" d="M9.0151 9.23579L4.78281 6.79263C4.18823 6.4485 3.98284 5.68816 4.32697 5.09359C4.6711 4.49901 5.43143 4.29542 6.02601 4.63955L8.42953 6.02689V3.2396C8.42953 2.55494 8.98447 2 9.66913 2C10.352 2 10.9069 2.55494 10.9069 3.2396V8.13673C10.9069 8.49708 10.7538 8.82139 10.5069 9.04841C10.1178 9.42858 9.50877 9.52227 9.0151 9.23579ZM8.66197 12.0411C8.66918 11.5997 8.43675 11.1889 8.05478 10.9673L3.8225 8.52412C3.63872 8.41782 3.42791 8.36196 3.21711 8.36196C2.78289 8.36196 2.3793 8.59439 2.16309 8.96915C1.82797 9.54931 2.02796 10.2934 2.60812 10.6286L5.04768 12.0357L2.60812 13.4447C2.32705 13.6068 2.12526 13.8681 2.04238 14.1816C1.95769 14.4951 2.00094 14.823 2.16309 15.1041C2.3793 15.4788 2.78289 15.7113 3.21531 15.7113C3.42791 15.7113 3.63872 15.6554 3.8225 15.5491L8.05478 13.1059C8.43315 12.8861 8.66558 12.4789 8.66197 12.0411ZM19.1877 17.2806L14.9554 14.8357C14.3609 14.4933 13.6005 14.6969 13.2564 15.2915C13.1231 15.5257 13.0708 15.7834 13.096 16.0338V20.812C13.096 21.4949 13.651 22.0498 14.3356 22.0498C15.0185 22.0498 15.5734 21.4949 15.5734 20.812V18.0644L17.9445 19.4337C18.5391 19.7778 19.3012 19.5724 19.6436 18.9779C19.9877 18.3833 19.7841 17.6229 19.1877 17.2806ZM14.2996 12.2393C14.2996 12.333 14.2456 12.4627 14.1789 12.5311L12.5015 14.2086C12.4348 14.2752 12.3033 14.3293 12.2096 14.3293H11.7826C11.6889 14.3293 11.5574 14.2752 11.4907 14.2086L9.81149 12.5311C9.74482 12.4627 9.69077 12.333 9.69077 12.2393V11.8122C9.69077 11.7168 9.74482 11.587 9.81149 11.5204L11.4907 9.84114C11.5574 9.77448 11.6889 9.72043 11.7826 9.72043H12.2096C12.3033 9.72043 12.4348 9.77448 12.5015 9.84114L14.1789 11.5204C14.2456 11.587 14.2996 11.7168 14.2996 11.8122V12.2393ZM12.8024 12.0339V12.0158C12.8024 11.9474 12.7627 11.8519 12.7141 11.8014L12.2186 11.3078C12.17 11.2573 12.0745 11.2177 12.0042 11.2177H11.9862C11.9177 11.2177 11.8222 11.2573 11.7718 11.3078L11.2781 11.8014C11.2295 11.8501 11.1898 11.9456 11.1898 12.0158V12.0339C11.1898 12.1041 11.2295 12.1996 11.2781 12.2483L11.7718 12.7437C11.8222 12.7924 11.9177 12.832 11.9862 12.832H12.0042C12.0745 12.832 12.17 12.7924 12.2186 12.7437L12.7141 12.2483C12.7627 12.1996 12.8024 12.1041 12.8024 12.0339ZM19.1877 6.79263L14.9554 9.23579C14.3609 9.57992 13.6005 9.37633 13.2564 8.78175C13.1213 8.54753 13.0726 8.28808 13.096 8.03944V3.2396C13.096 2.55494 13.651 2 14.3356 2C15.0185 2 15.5734 2.55494 15.5734 3.2396V6.00887L17.9445 4.63955C18.5391 4.29542 19.2994 4.49901 19.6436 5.09359C19.9877 5.68816 19.7823 6.4503 19.1877 6.79263ZM9.86372 14.6915C9.58265 14.6374 9.28175 14.6825 9.0151 14.8356L4.78281 17.2806C4.18823 17.6229 3.98284 18.3832 4.32697 18.9778C4.6711 19.5742 5.43143 19.7778 6.02601 19.4336L8.42953 18.0463V20.812C8.42953 21.4948 8.98447 22.0498 9.66913 22.0498C10.352 22.0498 10.9069 21.4948 10.9069 20.812V15.9148C10.9069 15.2968 10.4547 14.7852 9.86372 14.6915ZM20.1337 8.49887C20.7282 8.15474 21.4904 8.35834 21.8327 8.95471C22.1768 9.54929 21.9732 10.3096 21.3769 10.652L18.9805 12.0357L21.3769 13.4194C21.9714 13.7636 22.1768 14.5239 21.8327 15.1185C21.4886 15.713 20.7282 15.9166 20.1337 15.5743L15.9014 13.1293C15.4996 12.8987 15.2762 12.4753 15.2798 12.0411C15.2726 11.6051 15.496 11.1763 15.9014 10.942L20.1337 8.49887Z" fill="#29B5E8"/>
</svg>
