<svg width="24" height="24" viewBox="0 0 24 24" fill="none" xmlns="http://www.w3.org/2000/svg">
  <defs>
    <linearGradient id="paint0_linear_2060_45" x1="523.178" y1="864.9" x2="523.178" y2="-49.7846" gradientUnits="userSpaceOnUse">
      <stop stop-color="#2684FF"/>
      <stop offset="0.82" stop-color="#0052CC"/>
    </linearGradient>
  </defs>  
  <path d="M12.0393 20.2397C14.8908 20.2397 17.2023 17.9282 17.2023 15.0767C17.2023 12.2253 14.8908 9.9137 12.0393 9.9137C9.18787 9.9137 6.87631 12.2253 6.87631 15.0767C6.87631 17.9282 9.18787 20.2397 12.0393 20.2397Z" fill="url(#paint0_linear_2060_45)"/>
  <path d="M1.13939 9.1104L3.91505 12.398C4.01764 12.5186 4.16431 12.5931 4.32225 12.6048C4.48019 12.6165 4.63621 12.5644 4.75544 12.4601C9.25035 8.42981 14.8165 8.42981 19.3232 12.4601C19.4424 12.5644 19.5985 12.6165 19.7564 12.6048C19.9143 12.5931 20.061 12.5186 20.1636 12.398L22.9392 9.1104C23.149 8.86165 23.1186 8.49023 22.8712 8.27889C16.3611 2.5737 7.72936 2.5737 1.20745 8.27889C0.96004 8.49023 0.929638 8.86165 1.13939 9.1104Z" fill="#2684FF"/>
</svg>