<svg width="24" height="24" viewBox="0 0 24 24" fill="none" xmlns="http://www.w3.org/2000/svg">
<path fill-rule="evenodd" clip-rule="evenodd" d="M10.7811 8.36044C10.7811 7.58901 11.3858 7.29231 12.3874 7.29231C13.8236 7.29231 15.6378 7.74725 17.074 8.55824V3.90989C15.5055 3.25714 13.9559 3 12.3874 3C8.55118 3 6 5.0967 6 8.5978C6 14.0571 13.1811 13.1868 13.1811 15.5407C13.1811 16.4505 12.4252 16.7473 11.3669 16.7473C9.79843 16.7473 7.79528 16.0747 6.20787 15.1648V19.8725C7.96535 20.6637 9.74173 21 11.3669 21C15.2976 21 18 18.9626 18 15.422C17.9811 9.52747 10.7811 10.5758 10.7811 8.36044Z" fill="#635BFF"/>
</svg>
