<svg width="24" height="24" viewBox="0 0 24 24" fill="none" xmlns="http://www.w3.org/2000/svg">
<g clip-path="url(#clip0_2000_18)">
<path d="M13.605 21.5193C13.1065 22.1567 12.0959 21.8075 12.0839 20.9936L11.9083 9.09076H19.7906C21.2183 9.09076 22.0146 10.7651 21.1268 11.9004L13.605 21.5193Z" fill="url(#paint0_linear_2000_18)"/>
<path d="M13.605 21.5193C13.1065 22.1567 12.0959 21.8075 12.0839 20.9936L11.9083 9.09076H19.7906C21.2183 9.09076 22.0146 10.7651 21.1268 11.9004L13.605 21.5193Z" fill="url(#paint1_linear_2000_18)" fill-opacity="0.2"/>
<path d="M10.3993 2.36653C10.8977 1.72911 11.9084 2.07837 11.9204 2.89219L11.9973 14.7951H4.21366C2.78591 14.7951 1.98963 13.1207 2.87745 11.9854L10.3993 2.36653Z" fill="#3ECF8E"/>
</g>
<defs>
<linearGradient id="paint0_linear_2000_18" x1="11.9083" y1="11.7299" x2="18.9454" y2="14.6366" gradientUnits="userSpaceOnUse">
<stop stop-color="#249361"/>
<stop offset="1" stop-color="#3ECF8E"/>
</linearGradient>
<linearGradient id="paint1_linear_2000_18" x1="8.80237" y1="7.41205" x2="12.0739" y2="13.4774" gradientUnits="userSpaceOnUse">
<stop/>
<stop offset="1" stop-opacity="0"/>
</linearGradient>
<clipPath id="clip0_2000_18">
<rect width="19" height="20" fill="white" transform="translate(2.5 2)"/>
</clipPath>
</defs>
</svg>
