<svg width="24" height="24" viewBox="0 0 24 24" fill="none" xmlns="http://www.w3.org/2000/svg">
<g clip-path="url(#clip0_1374_287)">
<path d="M0 4C0 1.79086 1.79086 0 4 0H20C22.2091 0 24 1.79086 24 4V20C24 22.2091 22.2091 24 20 24H4C1.79086 24 0 22.2091 0 20V4Z" fill="#448FFF"/>
<path d="M4.17239 10.4662H3V9.51047H4.17239V7.68814H5.21734V9.51047H6.86126V10.4662H5.21734V14.302C5.21734 14.5739 5.26835 14.7693 5.3703 14.8882C5.48073 14.9987 5.66763 15.0539 5.93102 15.0539H7.06517V16.0097H5.86731C5.25558 16.0097 4.81806 15.8737 4.55473 15.6019C4.29981 15.33 4.17239 14.9009 4.17239 14.3148V10.4662Z" fill="black"/>
<path d="M19.3098 15.0539V16.0097H18.736C18.3197 16.0097 18.0226 15.9247 17.8441 15.7548C17.6658 15.5849 17.5723 15.3343 17.5638 15.0029C17.0626 15.7251 16.3362 16.0861 15.3846 16.0861C14.6625 16.0861 14.0806 15.9162 13.6388 15.5764C13.2055 15.2366 12.9889 14.7735 12.9889 14.1873C12.9889 13.5332 13.2098 13.032 13.6515 12.6836C14.1018 12.3353 14.7517 12.1611 15.6013 12.1611H17.5128V11.7151C17.5128 11.2903 17.3684 10.959 17.0796 10.7211C16.7992 10.4832 16.4041 10.3643 15.8944 10.3643C15.4441 10.3643 15.0703 10.4662 14.773 10.6701C14.4841 10.8655 14.3057 11.1289 14.2377 11.4602H13.1928C13.2692 10.8231 13.5496 10.3261 14.0338 9.96925C14.5266 9.61243 15.1638 9.43402 15.9454 9.43402C16.7779 9.43402 17.4194 9.63792 17.8695 10.0457C18.3281 10.445 18.558 11.0227 18.558 11.7788V14.5824C18.558 14.8967 18.7021 15.0539 18.9913 15.0539H19.3098ZM17.5128 13.0404H15.4994C14.5308 13.0404 14.0466 13.4015 14.0466 14.1236C14.0466 14.4465 14.174 14.7056 14.4289 14.901C14.6838 15.0964 15.0278 15.1941 15.4611 15.1941C16.0983 15.1941 16.5995 15.0284 16.9648 14.6971C17.3302 14.3572 17.5128 13.9112 17.5128 13.359V13.0404Z" fill="black"/>
<path d="M20.4259 7C20.6214 7 20.7829 7.06372 20.91 7.19115C21.0376 7.31859 21.1015 7.48001 21.1015 7.6754C21.1015 7.87081 21.0376 8.03223 20.91 8.15966C20.7829 8.28709 20.6214 8.35081 20.4259 8.35081C20.2305 8.35081 20.0689 8.28709 19.9419 8.15966C19.8142 8.03223 19.7504 7.87081 19.7504 7.6754C19.7504 7.48001 19.8142 7.31859 19.9419 7.19115C20.0689 7.06372 20.2305 7 20.4259 7ZM19.9034 9.51047H20.9484V16.0097H19.9034V9.51047Z" fill="black"/>
<path d="M10.9457 15.0201C10.9457 15.5666 10.4972 16.0097 9.94402 16.0097C9.39087 16.0097 8.94244 15.5666 8.94244 15.0201C8.94244 14.4735 9.39087 14.0305 9.94402 14.0305C10.4972 14.0305 10.9457 14.4735 10.9457 15.0201Z" fill="white"/>
</g>
<defs>
<clipPath id="clip0_1374_287">
<rect width="24" height="24" rx="4" fill="white"/>
</clipPath>
</defs>
</svg>
