<svg width="24" height="24" viewBox="0 0 24 24" fill="none" xmlns="http://www.w3.org/2000/svg">
<path d="M6.9373 4.46699C6.93764 4.95539 6.7931 5.43291 6.52197 5.83914C6.25084 6.24538 5.86531 6.56205 5.41415 6.74911C4.963 6.93617 4.46649 6.9852 3.98746 6.89001C3.50843 6.79481 3.0684 6.55966 2.72305 6.21431C2.3777 5.86896 2.14255 5.42893 2.04735 4.9499C1.95215 4.47087 2.00119 3.97436 2.18824 3.52321C2.3753 3.07205 2.69198 2.68652 3.09821 2.41539C3.50444 2.14426 3.98197 1.99972 4.47037 2.00006C5.1245 2.00052 5.75171 2.26057 6.21425 2.72311C6.67679 3.18565 6.93684 3.81286 6.9373 4.46699Z" fill="#2CD5C4"/>
<path d="M22 4.46695C21.9986 4.95365 21.8529 5.429 21.5813 5.83287C21.3097 6.23674 20.9245 6.55097 20.4742 6.73581C20.024 6.92064 19.529 6.96777 19.052 6.87124C18.575 6.7747 18.1373 6.53884 17.7944 6.19349C17.4514 5.84815 17.2186 5.40883 17.1254 4.93114C17.0322 4.45345 17.0828 3.95885 17.2708 3.50991C17.4588 3.06098 17.7757 2.6779 18.1814 2.40913C18.5872 2.14036 19.0636 1.99798 19.5503 2.00002C20.2013 2.00545 20.8238 2.26765 21.2825 2.7296C21.7413 3.19156 21.9991 3.81592 22 4.46695Z" fill="#2CD5C4"/>
<path d="M12.0209 22C9.36334 21.9983 6.8152 21.0239 4.93649 19.291C3.05778 17.5581 2.00221 15.2084 2.00174 12.7583V11.292C1.98955 10.9999 2.04141 10.7086 2.15424 10.4354C2.26706 10.1622 2.43852 9.9129 2.65835 9.70228C2.87818 9.49167 3.14185 9.32412 3.43358 9.20968C3.7253 9.09523 4.03908 9.03624 4.35612 9.03624C4.67316 9.03624 4.98694 9.09523 5.27867 9.20968C5.57039 9.32412 5.83407 9.49167 6.05389 9.70228C6.27372 9.9129 6.44518 10.1622 6.558 10.4354C6.67083 10.7086 6.72269 10.9999 6.7105 11.292V12.8146C6.7105 15.4996 8.43704 17.6895 12 17.6895C15.3136 17.6895 17.2878 15.4996 17.2878 12.8146V11.292C17.2703 10.997 17.3183 10.7018 17.4288 10.4245C17.5392 10.1472 17.7098 9.89355 17.9301 9.67905C18.1505 9.46456 18.4159 9.29372 18.7103 9.17697C19.0046 9.06021 19.3217 9 19.6421 9C19.9626 9 20.2796 9.06021 20.574 9.17697C20.8683 9.29372 21.1338 9.46456 21.3541 9.67905C21.5745 9.89355 21.7451 10.1472 21.8555 10.4245C21.966 10.7018 22.0139 10.997 21.9965 11.292V12.7583C22.0027 13.9702 21.749 15.1713 21.2498 16.2924C20.7507 17.4136 20.0161 18.4327 19.0881 19.2911C18.1602 20.1496 17.0574 20.8304 15.843 21.2945C14.6287 21.7585 13.3268 21.9967 12.0122 21.9952" fill="#005857"/>
</svg>
