<svg width="24" height="24" viewBox="0 0 24 24" fill="none" xmlns="http://www.w3.org/2000/svg">
<mask id="mask0_1976_132" style="mask-type:luminance" maskUnits="userSpaceOnUse" x="2" y="5" width="20" height="15">
<path d="M22 5H2V19.386H22V5Z" fill="white"/>
</mask>
<g mask="url(#mask0_1976_132)">
<path d="M18.5026 19.3002C17.783 19.3002 17.1994 19.0767 16.7518 18.6293C16.3038 18.1821 16.0802 17.5841 16.0802 16.8363V10.6761H14.6364V8.3881H16.0802V5H18.8548V8.3881H21.85V10.6761H18.8548V16.3521C18.8548 16.7921 19.0604 17.0123 19.4716 17.0123H21.5856V19.3002H18.5026Z" fill="black"/>
<path d="M12.4362 9.63247L7.82299 17.2768H7.4266V10.0601C7.4266 9.13697 6.67759 8.38867 5.75359 8.38867H4.65179V17.501C4.65179 18.495 5.45859 19.301 6.45359 19.301H8.33959C9.33959 19.301 10.2638 18.7682 10.764 17.903L16.2664 8.38867H14.6404C13.7384 8.38867 12.902 8.86057 12.4362 9.63247Z" fill="black"/>
<path d="M1.99939 8.38867H4.78V10.6769H1.99939V8.38867Z" fill="black"/>
</g>
</svg>
