<svg width="24" height="24" viewBox="0 0 60 80" fill="none" xmlns="http://www.w3.org/2000/svg">
<path d="M33.8729 38.1756C33.7109 38.2655 33.5238 38.1942 33.3425 38.1251C33.2973 38.1079 33.2523 38.0907 33.2083 38.0763C32.765 37.9304 32.2618 38.078 31.8963 38.3683C31.6456 38.5684 31.4538 38.83 31.2981 39.112C31.2534 39.1932 31.2183 39.2812 31.1842 39.3669C31.0886 39.6064 31.0005 39.8271 30.7318 39.8271C30.4319 39.8271 30.2811 39.4114 30.2484 39.24C30.0722 38.3092 30.5212 37.2735 31.3563 36.8274C32.1913 36.3814 33.3493 36.6175 33.8893 37.3949C33.9729 37.5154 34.0442 37.6516 34.054 37.7984C34.0638 37.9451 34.0016 38.1042 33.8729 38.1756Z" fill="currentColor"/>
<path fill-rule="evenodd" clip-rule="evenodd" d="M51.7966 67.1964C49.4185 71.9321 41.5401 76.6546 26.3027 76.6546C20.2361 76.6546 11.4915 76.1864 6.83115 70.2404C6.44026 69.7418 6.12067 69.1891 5.91662 68.5888C5.46345 67.2571 5.36265 65.6843 5.96087 62.8773C6.92294 58.7772 7.61212 55.4643 7.98498 51.7865C6.72134 53.0378 4.53744 52.4105 4.20883 51.2395C5.42657 50.8574 6.36323 49.9832 6.36323 47.8364C6.36323 47.8156 6.36322 47.7944 6.36321 47.773C6.36276 46.8435 6.36205 45.3987 7.20074 43.5911C6.80985 42.6825 6.64268 41.2147 6.69758 40.3963C6.78363 39.1113 7.15567 37.9403 7.43757 37.5032C7.43757 37.5032 5.44296 35.6451 6.0969 32.3403C6.74019 28.9315 6.2862 27.0011 2.88702 21.4094C2.80302 21.2564 2.70656 21.0875 2.60101 20.9027C1.66139 19.2573 0.00147344 16.3506 0 12.2111C0.0811282 7.64194 0.916994 5.18842 2.23225 2.8415C4.0586 -0.030968 5.66398 -0.00712238 6.21112 0.00100469C6.23722 0.00139239 6.26091 0.00174433 6.28211 0.00174433C7.19992 0.00174433 8.06856 0.976757 8.36849 2.62829C8.40127 2.80542 8.41848 2.98336 8.43487 3.16213C9.0462 9.99624 11.0941 21.3725 13.3681 21.3725C14.1442 21.3725 14.5998 20.6041 14.7997 19.7808C14.9436 19.065 14.8466 18.4646 14.7761 18.0285C14.7057 17.5927 14.6618 17.3211 14.9112 17.2625C15.484 17.2289 16.5321 18.1145 17.2565 20.026C18.864 18.6066 19.3876 15.2553 19.8949 12.0085C19.9242 11.8208 19.9535 11.6335 19.9829 11.4469C20.0912 10.7639 20.1895 9.82003 20.2988 8.77161C20.5726 6.1445 20.9148 2.86063 21.6522 1.37775C21.9652 0.711068 22.4102 0.229712 23.0109 0.0566862C23.2182 -0.00317584 23.4378 -0.008096 23.6525 0.0099446C26.6368 0.263308 27.9316 3.94044 28.4782 5.4925C28.503 5.56298 28.5263 5.62908 28.5481 5.69027C29.6216 9.46404 30.7066 16.6155 28.0843 17.871C27.5614 18.0727 27.2091 18.2269 26.9763 18.3384C26.8657 18.3909 26.9001 18.5549 27.0222 18.5606C27.7483 18.5942 29.1398 18.8402 29.838 20.1646C30.0528 20.5541 30.3599 20.5039 30.7303 20.4434C30.8784 20.4192 31.0367 20.3934 31.2032 20.3934C33.1126 20.3934 34.3746 22.2089 34.4074 23.4061C35.9512 23.7825 37.1928 25.1651 37.673 26.9528C37.7639 27.1971 38.0081 27.3759 38.2179 27.5104C38.5041 27.6957 38.7925 27.8784 39.081 28.0611C40.3298 28.8523 41.5802 29.6444 42.6587 30.6503C42.9774 30.9414 43.2815 31.2554 43.5134 31.6187C43.9682 32.3338 44.1214 33.2047 44.1181 34.0509C44.127 34.4966 44.2168 34.6163 44.3368 34.7762C44.3502 34.794 44.3639 34.8123 44.3779 34.8316C45.7596 36.5774 46.5233 38.9432 45.3834 41.0146C44.8815 41.9242 44.1232 42.5188 43.3606 43.1168C43.162 43.2726 42.9632 43.4285 42.7685 43.5903C42.6513 43.7264 42.6277 43.8558 42.6024 43.9946C42.5959 44.0305 42.5892 44.067 42.5808 44.1045C42.4153 44.872 42.0326 45.66 41.5343 46.271C41.9433 47.1099 42.3948 48.2194 41.8482 49.9045C43.8469 52.2867 43.2003 54.8649 43.0414 55.192C45.7235 55.9793 46.4733 64.0467 46.4733 64.0467C46.6979 65.9492 48.6998 67.5974 51.382 66.7102C51.6713 66.6142 51.9335 66.9234 51.7966 67.1964ZM21.8989 66.2509C23.0453 67.5187 24.6162 68.3559 26.2954 68.629L26.2945 68.6298C30.6591 69.3293 34.8507 65.9016 34.6974 61.4226C34.6786 60.965 34.0001 60.9224 33.9255 61.3751C33.8198 62.013 33.6379 62.6289 33.3592 63.2103C31.4589 67.3719 25.7922 68.0673 23.0609 64.3599C22.7478 63.8556 22.0808 63.7007 21.6194 64.1074C20.3722 65.1947 18.3374 64.7749 17.6548 63.2144C17.3983 62.6879 17.2885 62.0762 17.3836 61.4784C17.4491 61.0151 16.787 60.8519 16.6329 61.2963C15.6676 64.6912 18.8439 67.2628 21.8989 66.2509ZM5.87822 20.9298C5.10464 20.9298 2.56836 16.8133 2.56836 11.0009C2.56836 8.39239 3.23787 5.6084 4.45479 5.6084C5.2038 5.6084 5.37343 7.20417 5.40784 7.67733C5.56425 9.65822 5.55731 11.387 5.5507 13.0343C5.54065 15.5387 5.53136 17.8549 6.09784 20.5829C6.16012 20.8478 6.00033 20.9298 5.87822 20.9298ZM22.8857 27.5234C22.0884 27.5349 21.3148 27.8776 20.751 28.4566C20.4339 28.7821 19.7275 29.835 19.7963 31.4579C19.7849 31.6965 19.471 31.7818 19.3448 31.5784C18.8359 30.6665 18.8064 29.7153 19.0039 29.0134C19.4423 27.5947 20.6805 26.4155 22.3539 26.4155C24.5493 26.4155 25.1 27.8522 25.2098 28.2975C25.2622 28.482 25.0344 28.6181 24.8943 28.4869C24.8651 28.4597 24.8346 28.4307 24.8027 28.4003C24.4372 28.0522 23.8826 27.524 22.8857 27.5234ZM43.428 36.647C43.1363 36.647 42.8224 37.0546 42.7421 37.6893C42.7015 37.8986 42.6736 38.1495 42.6445 38.411C42.5494 39.2673 42.4416 40.2379 41.8308 40.2379C41.5382 40.2379 41.3867 39.9257 41.1705 39.4799C40.9793 39.0857 40.7375 38.587 40.3025 38.1075C39.7586 37.5466 39.0813 37.2707 38.4354 37.0077C37.9397 36.8059 37.4626 36.6116 37.0787 36.3018C36.587 35.9607 36.2945 35.5408 36.3264 34.82C36.3264 34.82 36.4313 33.672 37.9801 33.8819C38.3833 33.9241 38.9234 33.997 39.451 34.0682C39.8875 34.1271 40.3153 34.1848 40.65 34.223C41.9701 34.3723 42.2922 33.3899 42.3315 33.0561C42.41 32.3291 41.6984 31.7181 41.1759 31.2695C41.1362 31.2354 41.0976 31.2023 41.0605 31.1701C40.3968 30.592 39.6732 30.0729 38.9233 29.6071C38.7873 29.5226 38.6488 29.4349 38.5103 29.3463C36.6296 28.1466 33.2862 26.1384 31.4112 28.4312C30.7392 29.3316 30.4475 30.3689 30.2369 31.2283C29.9655 32.3249 29.4861 32.952 29.0241 33.5563C28.8234 33.8187 28.6261 34.0769 28.4504 34.3674C27.5285 35.8902 26.8951 37.6196 26.8467 39.3991C26.8385 41.9682 28.4267 44.4849 30.9605 46.0577C33.0633 47.1614 34.1425 47.1614 34.9849 46.9359C35.139 46.8834 35.4766 46.6481 35.2447 46.2586C35.2159 46.2014 35.1511 46.097 35.0903 45.999C35.063 45.955 35.0365 45.9122 35.0144 45.8756C34.7743 45.4336 35.1029 45.0294 35.5897 45.4074C35.9101 45.6583 36.2371 45.9092 36.614 46.0626C36.9312 46.1913 37.2926 46.2422 37.6204 46.1553C38.0039 46.0298 38.1989 45.778 38.221 45.4566C38.2432 45.0728 38.0694 44.776 37.7818 44.6177C37.3442 44.4045 36.3756 43.8715 35.9667 43.5697C35.5053 43.2466 35.012 42.7636 34.8407 42.5816C34.6168 42.3434 34.457 42.1074 34.3235 41.9102C34.1242 41.616 33.9834 41.4081 33.7754 41.4081C33.7172 41.4114 33.6607 41.4442 33.6213 41.4885C33.4181 41.7056 33.4029 42.0538 33.3932 42.2774L33.391 42.3241C33.3902 42.3429 33.3898 42.363 33.3894 42.3836C33.3862 42.5395 33.3823 42.7316 33.1829 42.7316C32.6224 42.7316 32.624 41.5623 32.6248 41.2449C32.6248 40.8103 32.7838 39.6828 33.455 39.6828C33.6622 39.6828 33.944 39.9605 34.0547 40.0697C35.5338 41.7122 37.2532 42.99 39.4314 42.99C41.099 42.99 42.4922 42.0477 43.3682 41.1646C44.0541 40.4757 44.5056 39.6131 44.5359 38.7217C44.5548 38.1567 44.2835 36.647 43.428 36.647ZM22.0802 29.9203C22.1269 30.4443 22.5408 30.783 23.0652 30.7362C23.5889 30.6895 23.9478 30.2836 23.9011 29.7587C23.8552 29.2438 23.4299 28.8871 22.9055 28.9338C22.381 28.9805 22.0343 29.4053 22.0802 29.9203Z" fill="currentColor"/>
</svg>
