<svg width="24" height="24" viewBox="0 0 24 24" fill="none" xmlns="http://www.w3.org/2000/svg">
<path d="M12.0063 2C12.5712 2.00104 13.1268 2.04878 13.6668 2.13906V7.96093L17.7943 3.84412C18.2502 4.16789 18.6766 4.528 19.0709 4.92132C19.4654 5.31463 19.8275 5.74116 20.1521 6.1957L16.0245 10.3125H21.8616C21.9521 10.8511 22 11.4032 22 11.9678V11.9813C22 12.5458 21.9521 13.0989 21.8616 13.6375H16.0235L20.1521 17.7533C19.8275 18.2079 19.4654 18.6344 19.0721 19.0277H19.0709C18.6766 19.421 18.2502 19.7822 17.7955 20.1049L13.6668 15.9881V21.81C13.1278 21.9003 12.5722 21.9479 12.0072 21.9491H11.9928C11.4276 21.9479 10.8742 21.9003 10.3341 21.81V15.9881L6.2067 20.1049C5.29516 19.4584 4.49824 18.6624 3.8489 17.7533L7.97654 13.6375H2.13944C2.04787 13.0979 2 12.5427 2 11.9781V11.9492C2.00095 11.8027 2.01054 11.6237 2.02432 11.4385L2.02858 11.3828C2.06937 10.8616 2.13944 10.3125 2.13944 10.3125H7.97654L3.8489 6.1957C4.17248 5.74116 4.53359 5.31567 4.92789 4.9234L4.92987 4.92132C5.32337 4.528 5.75083 4.16789 6.2067 3.84412L10.3341 7.96093V2.13906C10.8742 2.04878 11.4288 2.00104 11.9947 2H12.0063ZM12.0053 9.48127H11.9957C11.2528 9.48127 10.5413 9.61722 9.88364 9.8642C9.63713 10.519 9.50067 11.2289 9.49968 11.9698V11.9792C9.50067 12.7201 9.63713 13.43 9.88463 14.0848C10.5413 14.3318 11.2528 14.4678 11.9957 14.4678H12.0053C12.7482 14.4678 13.4597 14.3318 14.1164 14.0848C14.3639 13.4289 14.5003 12.7201 14.5003 11.9792V11.9698C14.5003 11.2289 14.3639 10.519 14.1164 9.8642C13.4597 9.61722 12.7482 9.48127 12.0053 9.48127Z" fill="#FF4A00"/>
</svg>
