<svg width="24" height="24" viewBox="0 0 24 24" fill="none" xmlns="http://www.w3.org/2000/svg">
<path fill-rule="evenodd" clip-rule="evenodd" d="M9.58575 5.00004L7.29283 2.70712L8.70705 1.29291L20.4142 13.0001L13.1213 20.293C11.9497 21.4645 10.0502 21.4645 8.87864 20.293L3.70705 15.1214C2.53548 13.9498 2.53547 12.0503 3.70705 10.8787L9.58575 5.00004ZM11 6.41425L5.12126 12.2929C4.92601 12.4882 4.82838 12.7441 4.82837 13H17.5857L11 6.41425Z" fill="#111418"/>
<path d="M20.9954 16.9644L19.2276 18.7321C18.2513 19.7084 18.2513 21.2914 19.2276 22.2677C20.2039 23.244 21.7868 23.244 22.7631 22.2677C23.7394 21.2914 23.7394 19.7084 22.7631 18.7321L20.9954 16.9644Z" fill="#111418"/>
</svg>
