<svg fill="none" height="300" viewBox="0 -140.2 908 454" width="600" xmlns="http://www.w3.org/2000/svg"><g fill="#364153"><path clip-rule="evenodd" d="m174.553 86.7961c0-47.9356-38.884-86.7961-86.8472-86.7961-47.9636 0-86.846913 38.8605-86.846913 86.7961 0 47.9379 38.883313 86.7959 86.846913 86.7959 47.9632 0 86.8472-38.858 86.8472-86.7959zm-102.6544-48.2201c-.6828 1.3392-.6828 3.0924-.6828 6.5987v19.8725c0 .8759 0 1.3138.1107 1.7187.098.3587.2592.6971.476.9993.2446.3411.5847.6172 1.2649 1.1695l5.0298 4.0835c.8199.6656 1.2298.9984 1.3786 1.3991.1305.3514.1305.738 0 1.0894-.1488.4006-.5587.7334-1.3786 1.399l-5.0297 4.0836c-.6802.5522-1.0204.8283-1.265 1.1694-.2168.3022-.378.6406-.476.9994-.1107.4049-.1107.8428-.1107 1.7187v43.5402c0 3.506 0 5.259.6828 6.598.6006 1.179 1.5589 2.136 2.7376 2.736 1.3401.683 3.0943.683 6.6026.683h12.9339c3.5083 0 5.2625 0 6.6023-.683 1.179-.6 2.137-1.557 2.738-2.736.683-1.339.683-3.092.683-6.598v-19.873c0-.876 0-1.314-.111-1.718-.098-.359-.259-.698-.476-1-.245-.341-.585-.617-1.265-1.169l-5.0297-4.084c-.8198-.6653-1.2298-.9982-1.3786-1.3989-.1305-.3514-.1305-.7379 0-1.0893.1488-.4007.5587-.7335 1.3786-1.3991l5.0297-4.0835c.68-.5522 1.02-.8284 1.265-1.1695.217-.3022.378-.6406.476-.9993.111-.4049.111-.8428.111-1.7187v-43.54c0-3.5063 0-5.2595-.683-6.5987-.601-1.178-1.559-2.1358-2.738-2.736-1.3398-.6824-3.094-.6824-6.6023-.6824h-12.9339c-3.5083 0-5.2625 0-6.6026.6824-1.1787.6002-2.137 1.558-2.7376 2.736z" fill-rule="evenodd"/><path d="m244.271 138.719c.861 0 1.558-.697 1.558-1.557v-101.9556c0-.8599-.697-1.557-1.558-1.557h-15.034c-.557 0-1.067.3013-1.373.7665-3.447 5.2385-9.857 7.877-18.641 8.1517-.86.0268-1.559.721-1.559 1.581v15.2492c0 .8599.697 1.557 1.558 1.557h12.15c.86 0 1.558.6971 1.558 1.5571v74.6501c0 .86.697 1.557 1.558 1.557z"/><path d="m304.292 54.7273c8.11 0 14.63 4.3114 14.63 15.1696 0 10.539-6.52 15.1697-14.63 15.1697h-17.652v-30.3393zm0 49.9797c23.853 0 37.688-14.5306 37.688-35.4488 0-19.8004-13.835-34.3313-37.688-34.3313h-38.834c-.861 0-1.558.6971-1.558 1.557v100.6781c0 .86.697 1.557 1.558 1.557h19.624c.86 0 1.558-.697 1.558-1.557v-30.898c0-.86.698-1.557 1.558-1.557z"/><path d="m377.251 124.029c-6.679 0-10.813-3.034-10.813-8.463 0-4.791 2.862-7.984 9.7-7.984h18.606v1.596c0 9.262-7.951 14.851-17.493 14.851zm19.242 13.133c0 .86.698 1.557 1.558 1.557h17.08c.861 0 1.558-.697 1.558-1.557v-45.0694c0-21.7166-12.245-34.3314-34.349-34.3314-16.412 0-28.977 8.7644-34.129 22.8545-.309.8462.204 1.7587 1.08 1.9733l17.208 4.2178c.778.1906 1.568-.2408 1.871-.9814 2.613-6.3921 6.964-10.1799 13.97-10.1799 7.315 0 12.404 4.7904 12.404 13.4131v1.1178c0 2.3952-.795 3.3533-3.658 3.3533h-19.878c-16.538 0-26.557 8.7823-26.557 22.6743 0 14.851 11.45 24.432 27.352 24.432 8.002 0 15.69-2.63 21.108-8.486 1.065-1.151 3.382-.449 3.382 1.119z"/><path d="m458.999 124.667c-7.727 0-13.372-3.207-16.155-9.101-.337-.715-1.121-1.131-1.889-.937l-16.085 4.072c-.827.209-1.336 1.047-1.09 1.864 4.072 13.524 17.693 20.071 34.424 20.071 21.469 0 33.713-11.018 33.713-26.028 0-29.0623-45.958-19.1621-45.958-33.5334 0-4.7904 3.976-7.8244 11.132-7.8244 7.122 0 11.891 3.8924 14.177 9.8612.283.7404 1.043 1.2049 1.822 1.0574l16.417-3.1077c.877-.1662 1.439-1.037 1.186-1.8932-3.766-12.7145-14.349-21.4067-33.443-21.4067-20.991 0-32.123 11.1777-32.123 25.2296 0 30.0202 46.117 21.0782 46.117 33.5332 0 4.95-4.134 8.143-12.245 8.143z"/><path d="m530.442 124.667c-7.728 0-13.372-3.207-16.155-9.101-.338-.715-1.122-1.131-1.889-.937l-16.085 4.072c-.827.209-1.336 1.047-1.09 1.864 4.072 13.524 17.692 20.071 34.424 20.071 21.468 0 33.713-11.018 33.713-26.028 0-29.0623-45.958-19.1621-45.958-33.5334 0-4.7904 3.976-7.8244 11.132-7.8244 7.122 0 11.89 3.8924 14.176 9.8612.284.7404 1.043 1.2049 1.823 1.0574l16.416-3.1077c.878-.1662 1.44-1.037 1.186-1.8932-3.765-12.7145-14.349-21.4067-33.442-21.4067-20.991 0-32.123 11.1777-32.123 25.2296 0 30.0202 46.117 21.0782 46.117 33.5332 0 4.95-4.135 8.143-12.245 8.143z"/><path d="m583.463 137.53c.17.698.795 1.189 1.514 1.189h24.734c.723 0 1.351-.497 1.517-1.2l12.598-53.5702 12.599 53.5702c.165.703.793 1.2 1.517 1.2h25.532c.717 0 1.342-.489 1.513-1.186l18.636-75.9276c.241-.9811-.502-1.928-1.513-1.928h-17.577c-.739 0-1.376.5186-1.526 1.2417l-12.465 60.2349-15.443-60.3056c-.177-.6891-.798-1.171-1.509-1.171h-19.664c-.722 0-1.349.4952-1.516 1.1967l-14.346 60.2799-12.308-60.2311c-.148-.7249-.786-1.2455-1.526-1.2455h-17.737c-1.01 0-1.753.9448-1.514 1.9251z"/><path d="m725.638 140.636c23.853 0 40.233-18.523 40.233-41.3578 0-22.994-16.38-41.517-40.233-41.517-23.695 0-40.233 18.523-40.233 41.517 0 22.8348 16.538 41.3578 40.233 41.3578zm0-19.002c-9.86 0-17.493-8.304-17.493-22.3558 0-14.0519 7.633-22.515 17.493-22.515 9.859 0 17.651 8.4631 17.651 22.515 0 14.0518-7.792 22.3558-17.651 22.3558z"/><path d="m797.237 96.883c0-13.5729 6.838-16.7665 17.333-16.7665 2.012 0 4.223.1997 6.318.5991.888.1692 1.768-.3975 1.925-1.2871l3.329-18.8046c.117-.6605-.199-1.3302-.816-1.5931-1.913-.8144-4.279-1.2696-7.098-1.2696-10.655 0-18.924 6.2276-22.899 18.8423v-15.3691c0-.8599-.698-1.557-1.558-1.557h-17.24c-.86 0-1.557.6971-1.557 1.557v75.9276c0 .86.697 1.557 1.557 1.557h19.148c.86 0 1.558-.697 1.558-1.557z"/><path d="m867.288 122.113c-11.45 0-17.493-9.422-17.493-22.8348 0-13.4132 6.043-22.994 17.493-22.994s17.493 9.5808 17.493 22.994c0 13.4128-6.043 22.8348-17.493 22.8348zm18.765 15.049c0 .86.697 1.557 1.558 1.557h17.875c.86 0 1.558-.697 1.558-1.557v-100.4459c0-.8599-.698-1.557-1.558-1.557h-18.511c-.861 0-1.558.6971-1.558 1.557v33.9792c-4.93-9.2614-13.199-12.9341-23.695-12.9341-20.514 0-34.508 17.8843-34.508 41.517 0 23.6328 13.994 41.3578 34.508 41.3578 11.132 0 19.719-4.472 24.331-15.969z"/></g></svg>