<svg width="600" height="240" viewBox="0 0 600 240" fill="none" xmlns="http://www.w3.org/2000/svg">
<mask id="mask0_1904_3270" style="mask-type:luminance" maskUnits="userSpaceOnUse" x="75" y="82" width="450" height="76">
<path d="M525 82.35H75V157.649H525V82.35Z" fill="white"/>
</mask>
<g mask="url(#mask0_1904_3270)">
<path fill-rule="evenodd" clip-rule="evenodd" d="M157.394 141.874C150.689 141.874 147.337 137.19 147.337 131.401V107.437H142.386V103.072H147.337V82.3507H153.085V103.067H161.463V107.431H153.085V131.236C153.085 134.809 154.763 136.951 158.431 136.951H161.463V141.874H157.394ZM101.622 138.139V141.871L101.627 141.861H107.375V115.356C107.375 106.866 102.184 102.342 91.6509 102.342C85.2621 102.342 81.2736 103.612 77.7609 108.136L81.6692 111.703C83.9841 108.45 86.5344 107.259 91.5654 107.259C98.7512 107.259 101.622 110.119 101.622 115.834V119.566H89.8119C81.0328 119.566 76.2422 124.01 76.2422 130.836C76.2422 133.935 77.2794 136.869 79.1938 138.772C81.6692 141.313 85.0213 142.345 90.2878 142.345C95.5539 142.345 98.4306 141.313 101.622 138.139ZM90.6084 123.856H101.622V128.061C101.622 131.314 100.986 133.536 99.6279 134.806C97.1526 137.188 94.2013 137.427 90.8492 137.427C84.6204 137.427 81.8293 135.285 81.8293 130.761C81.8293 126.237 84.7007 123.856 90.6084 123.856ZM110.705 122.354C110.705 135.687 118.206 142.353 128.103 142.353V142.347C133.529 142.347 136.962 140.923 141.031 136.558L137.122 132.826C134.166 136.08 131.936 137.271 128.103 137.271C124.269 137.271 121.077 135.761 119.003 132.826C117.164 130.291 116.447 127.271 116.447 122.354C116.447 117.437 117.164 114.423 119.003 111.882C121.077 108.947 124.349 107.437 128.103 107.437C131.856 107.437 134.166 108.549 137.122 111.802L141.031 108.15C136.962 103.785 133.529 102.355 128.103 102.355C118.206 102.355 110.705 109.021 110.705 122.354ZM181.815 137.35C174.31 137.35 170.241 132.43 170.24 123.864H196.737V121.243C196.737 109.654 190.588 102.355 180.617 102.355C170.646 102.355 164.497 109.734 164.497 122.354C164.497 136.165 171.277 142.353 181.654 142.353C188.359 142.353 192.032 140.29 196.021 136.319L192.112 132.906C188.995 136 186.365 137.35 181.815 137.35ZM180.612 107.193C184.761 107.193 188.273 109.495 189.792 113.067H189.787C190.663 115.209 190.824 116.4 190.984 119.574H170.234C170.395 116.4 170.555 115.209 171.432 113.067C172.95 109.495 176.463 107.193 180.612 107.193ZM228.179 141.876V137.511C225.383 140.685 221.475 142.354 217.085 142.354C212.696 142.354 209.344 141.084 206.948 138.702C204.152 136.002 202.96 132.275 202.96 127.751V102.835H208.702V126.879C208.702 133.779 212.375 137.272 218.283 137.272C224.191 137.272 228.1 133.705 228.1 126.879V102.835H233.847V141.881L228.179 141.876ZM255.625 107.439C258.657 107.439 260.254 108.151 262.409 110.293L266.638 106.014C263.847 103.239 260.977 102.362 257.222 102.362C252.673 102.362 248.364 104.345 246.209 107.598V102.835H240.462V141.876H246.209V117.911C246.209 111.963 249.877 107.439 255.625 107.439ZM282.211 142.351C275.586 142.351 270.394 140.847 266.086 136.716L269.919 132.905C273.032 136.158 277.259 137.429 282.13 137.429C288.595 137.429 292.582 135.127 292.582 130.523C292.582 127.11 290.589 125.208 286.039 124.809L279.575 124.256C271.913 123.618 267.845 120.21 267.845 113.778C267.845 106.639 273.908 102.349 282.292 102.349C287.878 102.349 292.903 103.699 296.417 106.554L292.663 110.28C289.871 108.138 286.279 107.186 282.211 107.186C276.463 107.186 273.431 109.647 273.431 113.613C273.431 116.946 275.346 118.935 280.296 119.328L286.6 119.881C293.464 120.519 298.171 123.134 298.171 130.433C298.171 137.732 291.706 142.335 282.211 142.335V142.351ZM316.597 102.127C318.79 100.655 321.255 100.054 324.36 100.054C328.435 100.054 332.182 101.484 334.499 103.786C338.647 107.911 338.726 114.976 338.726 121.164C338.726 127.351 338.647 134.496 334.499 138.622C332.182 140.923 328.43 142.353 324.36 142.353C321.271 142.353 318.774 141.747 316.597 140.248V131.307C317.646 132.423 319.148 133.066 321.329 133.066C327.559 133.066 328.355 127.91 328.355 121.164C328.355 114.418 327.559 109.341 321.329 109.341C319.148 109.341 317.646 109.974 316.597 111.074V102.127ZM303.924 100.534V157.032H313.987V104.42V100.534H303.924ZM352.934 125.53C352.934 131.164 356.522 133.068 359.794 133.068C361.361 133.068 363.008 132.626 364.312 131.558V140.207C361.997 141.626 359.302 142.354 356.602 142.354C352.454 142.354 349.101 141.01 346.787 138.708C343.434 135.369 342.557 131.483 342.557 126.96V100.534H352.934V125.53ZM366.924 138.123L366.983 138.065V141.876H377.118V100.534H366.924V138.123ZM394.297 102.223C396.502 100.671 399.022 100.054 402.168 100.054C406.24 100.054 409.99 101.484 412.304 103.786C416.452 107.911 416.534 114.976 416.534 121.164C416.534 127.351 416.452 134.496 412.304 138.622C409.99 140.923 406.24 142.353 402.168 142.353C399.01 142.353 396.52 141.731 394.297 140.206V131.2C395.35 132.386 396.884 133.066 399.134 133.066C405.359 133.066 406.158 127.91 406.158 121.164C406.158 114.418 405.359 109.341 399.134 109.341C396.884 109.341 395.35 110.011 394.297 111.18V102.223ZM391.679 82.6755H381.73V141.885H391.679V82.6755ZM430.818 82.6755V129.419H430.81C430.81 131.88 431.849 133.151 434.485 133.151H438.472V141.88H432.569C424.03 141.88 420.438 135.931 420.438 130.057V82.6755H430.818ZM453.093 82.3507H442.48V93.4665H453.093V82.3507ZM442.642 100.534H453.018V141.876H442.642V100.534ZM474.802 109.341C477.517 109.341 479.35 110.293 481.507 112.594L488.53 105.609C484.855 101.798 480.547 100.054 474.802 100.054C466.503 100.054 456.205 104.418 456.205 121.164C456.205 137.909 466.503 142.353 474.802 142.353C480.547 142.353 485.429 140.221 489.1 136.41L482.077 129.51C479.92 131.812 477.517 133.072 474.802 133.072C472.33 133.072 470.41 132.2 468.899 130.376C467.305 128.394 466.582 125.533 466.582 121.169C466.582 116.805 467.305 114.024 468.899 112.042C470.418 110.218 472.33 109.341 474.802 109.341ZM505.533 116.092L512.077 116.725V116.719C520.3 117.512 524.448 121.876 524.448 128.861C524.448 137.989 516.633 142.353 506.815 142.353C500.272 142.353 494.365 141.636 489.097 136.399L495.884 129.654C499.315 133.061 503.785 133.539 506.977 133.539C510.565 133.539 514.319 132.349 514.319 129.255C514.319 127.192 513.202 125.762 509.928 125.443L503.384 124.811C495.877 124.098 491.249 120.845 491.249 113.227C491.249 104.658 498.828 100.054 507.288 100.054C513.753 100.054 519.183 101.17 523.173 104.897L516.787 111.324C514.394 109.187 510.719 108.549 507.127 108.549C502.979 108.549 501.224 110.457 501.224 112.52C501.224 114.03 501.865 115.779 505.533 116.092Z" fill="#364153"/>
</g>
</svg>
