<svg width="600" height="240" viewBox="0 0 600 240" fill="none" xmlns="http://www.w3.org/2000/svg">
<mask id="mask0_1904_3276" style="mask-type:luminance" maskUnits="userSpaceOnUse" x="106" y="67" width="388" height="106">
<path d="M493.125 67.5H106.875V172.5H493.125V67.5Z" fill="white"/>
</mask>
<g mask="url(#mask0_1904_3276)">
<path d="M239.845 94.4786H247.181L265.749 147.136H253.856L250.391 136.307H231.066L227.506 147.136H216.035L233.066 99.2659C234.093 96.3968 236.802 94.4786 239.845 94.4786ZM234.046 127.237H247.483L240.856 106.514L234.046 127.237Z" fill="#1D1D1B"/>
<path d="M279.895 94.4786H290.688V116.176L308.834 96.7643C310.196 95.31 312.1 94.4786 314.091 94.4786H325.139L303.6 116.136L326.239 147.136H312.14L295.969 124.152L290.688 129.522V147.136H279.895V94.4786Z" fill="#1D1D1B"/>
<path d="M346.877 93.7977H350.812V126.14C350.812 129.76 351.234 132.398 352.095 134.068C353.417 137.016 356.3 138.495 360.753 138.495C365.174 138.495 368.05 137.016 369.372 134.068C370.224 132.405 370.647 129.76 370.647 126.14V93.7977H381.791V126.164C381.791 131.758 380.921 136.122 379.193 139.238C375.968 144.952 369.818 147.813 360.745 147.813C351.672 147.813 345.515 144.952 342.265 139.238C340.536 136.122 339.668 131.758 339.668 126.164V101.022C339.676 97.0344 342.902 93.7977 346.877 93.7977Z" fill="#1D1D1B"/>
<path d="M433.261 95.8373C435.189 96.6686 436.831 97.899 438.177 99.5134C439.291 100.848 440.169 102.327 440.814 103.941C441.466 105.563 441.785 107.409 441.785 109.479C441.785 111.981 441.159 114.442 439.899 116.855C438.639 119.277 436.561 120.979 433.67 121.986C436.092 122.961 437.802 124.352 438.815 126.15C439.827 127.948 440.33 130.689 440.33 134.381V137.921C440.33 140.327 440.424 141.957 440.615 142.812C440.904 144.171 441.579 145.17 442.64 145.817V147.136H430.531C430.197 145.969 429.965 145.026 429.822 144.315C429.534 142.836 429.384 141.326 429.361 139.776L429.286 134.885C429.241 131.528 428.667 129.29 427.55 128.172C426.436 127.053 424.359 126.494 421.306 126.494H410.592V147.144H399.871V101.695C399.871 97.7074 403.089 94.4786 407.064 94.4786H424.977C428.57 94.5506 431.326 94.9984 433.261 95.8373ZM410.592 103.621V117.767H422.397C424.741 117.767 426.5 117.479 427.67 116.912C429.744 115.913 430.786 113.939 430.786 110.982C430.786 107.793 429.781 105.651 427.775 104.556C426.65 103.933 424.955 103.629 422.701 103.629H410.592V103.621Z" fill="#1D1D1B"/>
<path d="M457.922 123.894C459.227 121.537 461.147 119.763 463.671 118.572C461.169 116.902 459.546 115.104 458.796 113.162C458.049 111.22 457.674 109.406 457.674 107.711C457.674 103.947 459.092 100.743 461.919 98.0813C464.747 95.4282 468.744 94.1018 473.908 94.1018C479.068 94.1018 483.069 95.4282 485.897 98.0813C488.724 100.735 490.142 103.947 490.142 107.711C490.142 109.406 489.767 111.22 489.017 113.162C488.271 115.104 486.651 116.79 484.161 118.212C486.707 119.643 488.627 121.537 489.917 123.894C491.211 126.252 491.844 128.889 491.844 131.79C491.844 136.146 490.236 139.862 487.018 142.915C483.801 145.976 479.301 147.502 473.526 147.502C467.751 147.502 463.378 145.968 460.404 142.915C457.434 139.854 455.953 136.146 455.953 131.79C455.953 128.881 456.606 126.252 457.922 123.894ZM468.474 137.041C469.791 138.447 471.613 139.151 473.938 139.151C476.267 139.151 478.089 138.447 479.402 137.041C480.718 135.634 481.378 133.66 481.378 131.111C481.378 128.466 480.711 126.46 479.372 125.093C478.033 123.727 476.218 123.039 473.938 123.039C471.662 123.039 469.854 123.727 468.508 125.093C467.169 126.46 466.498 128.466 466.498 131.111C466.491 133.66 467.151 135.634 468.474 137.041ZM469.112 113.465C470.267 114.656 471.868 115.256 473.916 115.256C475.986 115.256 477.587 114.664 478.719 113.465C479.848 112.275 480.414 110.74 480.414 108.854C480.414 106.808 479.848 105.202 478.719 104.051C477.587 102.893 475.986 102.317 473.916 102.317C471.868 102.317 470.267 102.893 469.112 104.051C467.957 105.21 467.383 106.808 467.383 108.854C467.383 110.732 467.957 112.275 469.112 113.465Z" fill="#1D1D1B"/>
<path d="M129.574 152.633L110.074 152.64L134.043 84.9034C136.791 77.1432 145.227 70.7821 152.786 70.7821L172.286 70.7738L148.317 138.511C145.569 146.271 137.134 152.633 129.574 152.633Z" fill="#364153"/>
<path d="M175.697 170.822L195.197 170.83L171.228 103.093C168.479 95.3329 160.044 88.9717 152.484 88.9717L132.984 88.9635L156.953 156.701C159.709 164.461 168.137 170.822 175.697 170.822Z" fill="#364153"/>
</g>
</svg>
