<svg fill="none" height="262" viewBox="0 0 600 262" width="600" xmlns="http://www.w3.org/2000/svg" xmlns:xlink="http://www.w3.org/1999/xlink"><mask id="a" height="260" maskUnits="userSpaceOnUse" width="520" x="40" y="1"><path d="m560.001 1.2478h-520.001v259.5042h520.001z" fill="#fff"/></mask><mask id="b" height="260" maskUnits="userSpaceOnUse" width="520" x="40" y="1"><path d="m560.001 1.2478h-520.001v259.5042h520.001z" fill="#fff"/></mask><g mask="url(#a)"><g mask="url(#b)"><path d="m323.664 114.779h-12.75c-.521 0-1.021.208-1.388.578-.369.37-.575.873-.575 1.397v4.765c-3.109-4.691-8.734-7.817-15.335-7.817-14.748 0-24.164 11.623-24.164 26.279 0 14.95 9.808 26.48 24.261 26.48 7.087 0 12.036-3.032 15.238-8.014v4.937c0 .525.206 1.027.575 1.398.367.37.867.577 1.388.577h12.75c.521 0 1.02-.207 1.387-.577.369-.371.575-.873.575-1.398v-46.625c.001-.26-.05-.517-.148-.757-.098-.241-.243-.459-.425-.643s-.399-.33-.637-.429c-.238-.1-.494-.151-.752-.151zm-25.992 38.513c-7.083 0-11.453-5.865-11.453-13.292 0-7.13 4.174-12.99 11.281-12.99 7.106 0 11.839 5.371 11.839 13.479-.01 7.999-5.057 12.788-11.658 12.788zm115.143-38.513h-12.75c-.522 0-1.02.208-1.388.578-.367.37-.574.873-.574 1.397v4.765c-3.105-4.691-8.73-7.817-15.333-7.817-14.746 0-24.162 11.623-24.162 26.279 0 14.95 9.808 26.48 24.263 26.48 7.08 0 12.034-3.032 15.232-8.014v4.937c0 .525.207 1.027.574 1.398.368.37.866.577 1.388.577h12.75c.521 0 1.02-.207 1.387-.577.368-.371.574-.873.574-1.398v-46.625c.004-.523-.203-1.026-.57-1.397-.364-.371-.863-.58-1.38-.583zm-25.992 38.513c-7.083 0-11.452-5.865-11.452-13.292 0-7.13 4.174-12.99 11.28-12.99s11.835 5.371 11.835 13.479c0 7.999-5.029 12.788-11.644 12.788zm-31.766-.089h-2.639c-2.089-.069-3.011-1.669-3.011-3.831v-.988-50.6647c0-.524-.207-1.0259-.574-1.3961-.369-.3709-.868-.5787-1.388-.5787h-12.398c-.52 0-1.019.2078-1.387.5787-.368.3702-.575.8721-.575 1.3961v50.7587c0 14.531 9.275 17.904 17.97 17.904 1.197 0 2.344-.079 4.178-.232.494-.039.954-.264 1.29-.63s.521-.847.52-1.345v-9.007c0-.26-.05-.518-.148-.758-.099-.241-.244-.46-.426-.643-.183-.184-.401-.33-.639-.429-.239-.099-.495-.15-.754-.15zm98.798-39.501c-6.402 0-11.355 2.341-14.944 7.718v-4.666c0-.524-.206-1.027-.574-1.397-.367-.37-.866-.578-1.387-.578h-12.75c-.522 0-1.02.208-1.388.578-.367.37-.577.873-.577 1.397v46.65c0 .525.21 1.026.577 1.397.368.371.866.578 1.388.578h12.75c.521 0 1.02-.207 1.387-.578.368-.371.574-.872.574-1.397v-25.369c0-5.767 2.036-10.863 8.051-10.863 6.116 0 7.961 5.96 7.961 10.863v25.374c0 .524.207 1.026.574 1.396.368.371.87.58 1.388.58h12.753c.518 0 1.017-.209 1.388-.58.367-.37.574-.872.574-1.396v-26.351c.037-11.056-3.068-23.351-17.727-23.351zm-237.576 32.213c-4.252-1.925-9.965 1.359-14.796 2.154-5.608 1.033-11.356 1.033-16.964 0-4.826-.795-10.54-4.075-14.792-2.154-2.158.988-2.82 3.377-1.962 6.236.639 1.98 1.752 3.772 3.242 5.215 3.07 2.929 6.674 5.233 10.614 6.784 3.597 1.528 7.463 2.315 11.368 2.315s7.77-.787 11.368-2.315c3.936-1.554 7.538-3.857 10.608-6.784 1.494-1.436 2.614-3.22 3.261-5.195.873-2.879.211-5.278-1.947-6.256zm41.373-36.395c0-.069 0-.143 0-.212 0-.212-.029-.425-.049-.637v-.049c0-.237-.054-.494-.083-.707v-.078c-.03-.213-.064-.42-.103-.633v-.073c-.044-.213-.089-.425-.138-.638.001-.011.001-.022 0-.035-1.363-5.767-5.831-10.447-11.77-11.5481-8.019-1.4811-15.694 4.1426-17.116 12.5661-.03.194-.054.386-.074.578-.49 4.592 2.501 8.853 6.866 9.668 1.582.297 3.214.109 4.689-.539.592-.26 1.248-.335 1.884-.22.635.116 1.222.42 1.686.872 1.17 1.144 2.649 1.915 4.252 2.217 4.576.85 8.941-2.355 9.75-7.164.12-.731.192-1.468.216-2.207 0-.089 0-.183 0-.272s0-.118 0-.173 0-.138 0-.202c0-.173-.005-.326-.01-.514zm-64.649-12.6103c-16.184 0-26.253 5.7473-26.253 14.9953 0 10.784 10.3 25.503 26.253 25.503 15.694 0 26.253-14.882 26.253-25.503 0-9.391-9.814-14.9953-26.253-14.9953zm-35.365 10.5663c-1.422-8.4235-9.097-14.0618-17.115-12.5661-5.916 1.1011-10.383 5.7811-11.747 11.5481v.035c-.049.213-.093.425-.137.638v.073c-.039.213-.074.42-.103.633-.003.025-.003.052 0 .078-.034.233-.064.47-.088.707v.049c0 .217-.035.43-.05.642v.207.494.202.173.272c.024.74.097 1.477.216 2.207.814 4.809 5.18 8.014 9.75 7.164 1.604-.301 3.082-1.072 4.252-2.217.464-.452 1.052-.756 1.687-.872.636-.115 1.291-.039 1.884.221 1.473.648 3.107.835 4.688.538 4.414-.815 7.357-5.076 6.89-9.668-.055-.178-.097-.364-.127-.558z" fill="#364153"/></g></g></svg>