<svg fill="none" height="240" viewBox="0 0 600 240" width="600" xmlns="http://www.w3.org/2000/svg" xmlns:xlink="http://www.w3.org/1999/xlink"><mask id="a" height="90" maskUnits="userSpaceOnUse" width="318" x="141" y="75"><path d="m458.906 75h-317.812v90h317.812z" fill="#fff"/></mask><g mask="url(#a)"><path d="m423.24 148.024c-9.799 0-17.749-8.329-17.749-18.618 0-10.29 7.95-18.619 17.749-18.619s17.738 8.341 17.738 18.607c0 10.267-7.951 18.619-17.738 18.619zm17.738-52.5126v9.4506c-2.577-3.47-5.918-6.2868-9.762-8.2244-3.84-1.9376-8.077-2.9434-12.371-2.9377-17.625 0-31.279 15.9451-31.279 35.5941 0 19.651 13.643 35.606 31.279 35.606 4.601-.002 9.131-1.157 13.178-3.362 4.05-2.206 7.499-5.392 10.031-9.273v10.935h16.818v-67.7774zm-205.424-18.789h17.939v86.5776h-17.939zm38.558 48.1386c0-18.63 11.312-31.0611 26.998-31.0611 9.732 0 17.412 4.3743 22.054 11.8191 4.642-7.4448 12.333-11.8191 22.065-11.8191 15.696 0 26.998 12.4661 26.998 31.0611v38.439h-17.939v-40.388c0-7.264-4.765-12.012-11.077-12.012s-11.078 4.748-11.078 12.012v40.388h-17.939v-40.388c0-7.264-4.765-12.012-11.077-12.012s-11.078 4.748-11.078 12.012v40.388h-17.938zm-71.039-28.636c-4.249-16.0804-13.219-21.225-21.774-21.225-8.554 0-17.524 5.1446-21.762 21.225l-18.443 67.075h18.174c1.212-4.982 4.041-9.41 8.036-12.576 3.995-3.165 8.925-4.885 14.001-4.885s10.006 1.72 14.001 4.885c3.995 3.166 6.825 7.594 8.036 12.576h18.175zm-21.774 33.996c-5.51-.027-10.828 2.049-14.889 5.814l10.405-39.0281c.998-3.7283 2.467-4.9182 4.484-4.9182 2.019 0 3.499 1.1333 4.485 4.9182l10.416 39.0401c-4.063-3.771-9.385-5.851-14.901-5.826z" fill="#364153"/></g></svg>