<svg fill="none" height="240" viewBox="0 0 600 240" width="600" xmlns="http://www.w3.org/2000/svg" xmlns:xlink="http://www.w3.org/1999/xlink"><mask id="a" height="68" maskUnits="userSpaceOnUse" width="450" x="75" y="86"><path d="m525 86.6573h-450v66.6847h450z" fill="#fff"/></mask><g fill="#364153" mask="url(#a)"><path d="m75 127.641c0-14.361 8.8046-25.313 22.6793-25.313 3.0017-.158 5.9877.52 8.6297 1.96 2.642 1.441 4.837 3.587 6.341 6.202v-6.888h15.074v47.975h-15.074v-6.888c-1.596 2.572-3.841 4.676-6.506 6.097s-5.656 2.11-8.6702 1.996c-14.2515.172-22.4738-10.711-22.4738-25.141zm38.267 0c0-6.888-3.871-12.57-11.408-12.57-7.5371 0-11.4083 5.269-11.4083 12.57s4.3508 12.639 11.4083 12.639c7.057 0 11.408-5.682 11.408-12.639z"/><path d="m130.258 103.602h15.177v6.888c1.514-2.722 3.777-4.95 6.516-6.415 2.74-1.466 5.842-2.108 8.935-1.85 11.613 0 17.472 6.578 17.472 19.63v29.722h-15.28v-24.659c0-8.059-2.295-11.744-8.428-11.744-6.132 0-9.215 3.995-9.215 11.365v25.038h-15.177z"/><path d="m221.285 127.744c0-14.671 10.277-25.312 26.551-25.312 16.272 0 26.481 10.641 26.481 25.312s-10.277 25.313-26.481 25.313c-16.205 0-26.551-10.676-26.551-25.313zm37.959 0c0-7.266-4.249-12.467-11.408-12.467-7.161 0-11.409 5.304-11.409 12.467 0 7.164 4.18 12.467 11.409 12.467 7.228 0 11.408-5.2 11.408-12.467z"/><path d="m307.754 137.319h15.073c0 3.444 3.187 5.579 7.846 5.579 3.426 0 5.55-1.619 5.55-4.409 0-2.169-1.096-3.444-5.173-4.477l-10.004-2.479c-7.639-1.894-11.99-6.888-11.99-14.051 0-9.092 8.119-15.05 20.555-15.05 13.498 0 21.309 5.269 21.309 14.843h-14.971c0-3.444-2.467-5.201-6.543-5.201-3.426 0-5.448 1.619-5.448 3.892s1.405 3.444 5.276 4.58l10.278 2.79c7.537 1.998 12.093 6.578 12.093 13.776 0 9.953-8.222 15.842-20.932 15.842-13.875.103-22.919-6.268-22.919-15.635z"/><path d="m386.994 139.592v12.156c-3.394.571-6.833.836-10.275.793-7.162 0-17.131-1.584-17.131-17.633v-17.771h-7.537v-12.054h7.537v-14.4642h15.176v14.6362h10.793v11.882h-10.793v14.465c0 6.887 2.877 8.162 6.646 8.162 1.864.069 3.731.011 5.584-.172z"/><path d="m386.719 127.744c0-14.671 10.279-25.312 26.554-25.312 16.271 0 26.478 10.641 26.478 25.312s-10.275 25.313-26.478 25.313c-16.208 0-26.554-10.676-26.554-25.313zm37.961 0c0-7.266-4.249-12.467-11.407-12.467-7.163 0-11.374 5.201-11.374 12.467 0 7.267 4.144 12.467 11.374 12.467 7.226 0 11.407-5.2 11.407-12.467z"/><path d="m441.566 103.706h15.18v9.987c.589-3.075 2.232-5.846 4.639-7.834 2.408-1.987 5.434-3.065 8.55-3.049 1.335-.048 2.674.091 3.975.414v14.257c-1.511-.209-3.034-.313-4.556-.31-8.224 0-12.608 5.373-12.608 16.049v18.528h-15.18z"/><path d="m524.268 131.912h-35.115c.274 6.302 4.455 9.677 11.201 9.677 4.662 0 7.643-1.309 8.91-4.27h14.869c-1.474 9.436-11.1 15.738-23.779 15.738-16.271 0-26.276-9.264-26.276-25.313 0-16.048 10.279-25.312 25.763-25.312 14.868 0 25.008 9.264 25.008 22.798-.045 2.238-.24 4.47-.581 6.682zm-14.561-9.471c.12-1.361-.071-2.732-.555-4.008-.484-1.277-1.249-2.427-2.239-3.365-.986-.937-2.175-1.638-3.469-2.049-1.297-.411-2.67-.522-4.012-.325-1.328-.101-2.659.078-3.911.524-1.257.446-2.404 1.151-3.372 2.068-.963.918-1.732 2.028-2.25 3.259-.513 1.232-.768 2.559-.746 3.896z"/><path clip-rule="evenodd" d="m291.31 114.025c2.307-8.7 8.496-13.162 23.981-10.663-5.571 3.257-7.563 7.252-9.274 10.683-2.404 4.823-4.253 8.534-14.707 7.517v30.187h-15.142v-48.043h15.142z" fill-rule="evenodd"/><path d="m210.972 151.577-15.245-20.664v20.664h-14.903v-64.9186h15.006v37.3666l15.656-20.181h17.78l-18.979 22.66 19.185 25.073z"/></g></svg>