<svg fill="none" height="300" viewBox="0 0 600 300" width="600" xmlns="http://www.w3.org/2000/svg"><g fill="#364153"><path d="m309.641 113.998-9.829-24.551h-.239l-9.829 24.551-4.795 12.276-3.596 8.819c-.479 1.192-1.558 1.907-2.876 1.907h-12.946l26.61-62.0931c.479-1.1918 1.558-1.9069 2.877-1.9069h11.866l27.449 64h-13.425c-1.199 0-2.397-.715-2.877-1.907l-3.596-8.819"/><path d="m89.5205 197.942h-22.6541l-3.1165 7.27c-.2396.596-.8391 1.073-1.5583 1.073h-7.1916l19.058-42.905c.2399-.596.8392-1.073 1.5584-1.073h6.5923l19.5383 43.978h-7.432c-.7192 0-1.3184-.358-1.5583-1.073zm-11.3871-26.697-8.2704 19.784h16.7807l-8.2704-19.784z"/><path d="m105.102 206.285v-43.978h19.537c10.668 0 16.302 4.767 16.302 13.944 0 7.032-3.356 11.561-9.829 13.229l11.147 16.805h-8.51c-.599 0-1.198-.358-1.438-.835l-9.35-15.255h-9.828v14.421c0 .954-.72 1.669-1.678 1.669zm19.298-23.241c5.753 0 8.51-2.264 8.51-6.793 0-4.648-2.757-6.912-8.51-6.912h-11.267v13.705z"/><path d="m179.059 197.942h-22.654l-3.116 7.27c-.24.596-.839 1.073-1.558 1.073h-7.192l19.058-42.905c.24-.596.839-1.073 1.558-1.073h6.593l19.537 43.978h-7.431c-.719 0-1.319-.358-1.558-1.073zm-11.387-26.697-8.27 19.784h16.781l-8.391-19.784z"/><path d="m241.146 206.285c-.96 0-1.679-.715-1.679-1.669v-33.728h-.119l-14.864 35.397h-6.112c-.72 0-1.319-.358-1.558-1.073l-14.144-33.728h-.12v33.013c0 .953-.719 1.668-1.678 1.668h-5.993v-42.19c0-.953.719-1.668 1.678-1.668h10.308l13.904 33.609h.119l13.786-32.536c.239-.596.838-1.073 1.558-1.073h11.146v43.978z"/><path d="m257.325 162.307h6.235v42.309c0 .954-.72 1.669-1.679 1.669h-6.233v-42.31c0-.953.72-1.668 1.677-1.668z"/><path d="m302.279 164.571c.48.238.72.834.72 1.43v7.508h-.362c-2.876-3.098-7.909-4.886-13.783-4.886-5.634 0-9.23 2.384-9.23 6.078 0 3.099 2.278 4.648 9.829 5.483 11.748 1.191 16.063 5.243 16.063 13.348 0 8.462-6.353 13.348-17.26 13.348-6.834 0-12.228-1.311-15.824-3.694-.477-.358-.717-.835-.717-1.431v-7.627h.359c3.954 3.694 9.47 5.601 15.942 5.601 6.111 0 9.589-2.145 9.589-6.078 0-3.337-2.397-5.006-10.309-5.84-11.508-1.311-15.702-5.005-15.702-12.633 0-8.462 6.593-13.587 17.26-13.587 5.394 0 10.427 1.192 13.425 2.98z"/><path d="m339.198 161.711c-14.382 0-23.733 8.82-23.733 22.645 0 13.706 9.351 22.644 23.733 22.644 6.833 0 11.988-1.43 16.063-4.41v-17.757h-17.98v3.337h14.384v12.633l-.361.119c-3.356 1.788-7.192 2.622-11.985 2.622-11.988 0-20.018-7.747-20.018-19.307 0-11.561 8.03-19.308 20.018-19.308 6.712 0 11.627 1.669 15.942 5.363v-4.171c-4.197-2.979-9.23-4.41-16.063-4.41z"/><path d="m397.09 206.165h4.553l-12.344-17.996.957-.119c7.074-1.192 10.67-5.483 10.67-12.634 0-8.7-5.154-12.99-15.223-12.99h-19.058v43.858h3.836v-17.877h15.101zm-11.627-21.095h-15.103v-19.307h15.103c7.67 0 11.506 3.218 11.506 9.653 0 6.317-3.955 9.654-11.506 9.654z"/><path d="m431.253 161.711c-13.424 0-22.894 9.297-22.894 22.645s9.348 22.644 22.894 22.644c13.543 0 22.892-9.296 22.892-22.644.121-13.348-9.349-22.645-22.892-22.645zm0 41.833c-11.147 0-18.94-7.866-18.94-19.307 0-11.323 7.793-19.308 18.94-19.308s19.059 7.866 19.059 19.308c0 11.441-7.793 19.307-19.059 19.307z"/><path d="m462.41 162.426v25.505c0 12.394 6.475 18.949 18.579 18.949 12.227 0 18.7-6.555 18.7-18.949v-25.505h-3.715v25.147c0 10.25-5.276 15.97-14.985 15.97-9.589 0-14.862-5.601-14.862-15.97v-25.147z"/><path d="m510.961 206.166h3.836v-17.282h14.982c10.069 0 15.223-4.41 15.223-13.229s-5.154-13.348-15.223-13.348h-18.818zm18.579-20.619h-14.743v-19.784h14.743c7.671 0 11.507 3.337 11.507 10.011 0 6.436-3.836 9.773-11.507 9.773z"/></g></svg>