<svg width="600" height="300" viewBox="0 0 600 300" fill="none" xmlns="http://www.w3.org/2000/svg">
<path d="M309.642 113.998L299.813 89.447H299.574L289.745 113.998L284.95 126.274L281.354 135.093C280.875 136.285 279.796 137 278.478 137H265.532L292.142 74.9069C292.621 73.7151 293.7 73 295.019 73H306.885L334.334 137H320.909C319.71 137 318.512 136.285 318.032 135.093L314.436 126.274" fill="#969CA5"/>
<path d="M89.5205 197.942H66.8664L63.7499 205.212C63.5103 205.808 62.9108 206.285 62.1916 206.285H55L74.058 163.38C74.2979 162.784 74.8972 162.307 75.6164 162.307H82.2087L101.747 206.285H94.315C93.5958 206.285 92.9966 205.927 92.7567 205.212L89.5205 197.942ZM78.1334 171.245L69.863 191.029H86.6437L78.3733 171.245H78.1334Z" fill="#969CA5"/>
<path d="M105.103 206.285V162.307H124.64C135.308 162.307 140.942 167.074 140.942 176.251C140.942 183.283 137.586 187.812 131.113 189.48L142.26 206.285H133.75C133.151 206.285 132.552 205.927 132.312 205.45L122.962 190.195H113.134V204.616C113.134 205.57 112.414 206.285 111.456 206.285H105.103ZM124.401 183.044C130.154 183.044 132.911 180.78 132.911 176.251C132.911 171.603 130.154 169.339 124.401 169.339H113.134V183.044H124.401Z" fill="#969CA5"/>
<path d="M179.058 197.942H156.404L153.288 205.212C153.048 205.808 152.449 206.285 151.73 206.285H144.538L163.596 163.38C163.836 162.784 164.435 162.307 165.154 162.307H171.747L191.284 206.285H183.853C183.134 206.285 182.534 205.927 182.295 205.212L179.058 197.942ZM167.671 171.245L159.401 191.029H176.182L167.791 171.245H167.671Z" fill="#969CA5"/>
<path d="M241.147 206.285C240.187 206.285 239.468 205.57 239.468 204.616V170.888H239.349L224.485 206.285H218.373C217.653 206.285 217.054 205.927 216.815 205.212L202.671 171.484H202.551V204.497C202.551 205.45 201.832 206.165 200.873 206.165H194.88V163.975C194.88 163.022 195.599 162.307 196.558 162.307H206.866L220.77 195.916H220.889L234.675 163.38C234.914 162.784 235.513 162.307 236.233 162.307H247.379V206.285H241.147Z" fill="#969CA5"/>
<path d="M257.327 162.307H263.562V204.616C263.562 205.57 262.842 206.285 261.883 206.285H255.65V163.975C255.65 163.022 256.37 162.307 257.327 162.307Z" fill="#969CA5"/>
<path d="M302.277 164.571C302.757 164.809 302.997 165.405 302.997 166.001V173.509H302.635C299.759 170.411 294.726 168.623 288.852 168.623C283.218 168.623 279.622 171.007 279.622 174.701C279.622 177.8 281.9 179.349 289.451 180.184C301.199 181.375 305.514 185.427 305.514 193.532C305.514 201.994 299.161 206.88 288.254 206.88C281.42 206.88 276.026 205.569 272.43 203.186C271.953 202.828 271.713 202.351 271.713 201.755V194.128H272.072C276.026 197.822 281.542 199.729 288.014 199.729C294.125 199.729 297.603 197.584 297.603 193.651C297.603 190.314 295.206 188.645 287.294 187.811C275.786 186.5 271.592 182.806 271.592 175.178C271.592 166.716 278.185 161.591 288.852 161.591C294.246 161.591 299.279 162.783 302.277 164.571Z" fill="#969CA5"/>
<path d="M339.197 161.711C324.815 161.711 315.464 170.531 315.464 184.356C315.464 198.062 324.815 207 339.197 207C346.03 207 351.185 205.57 355.26 202.59V184.833H337.28V188.17H351.664V200.803L351.303 200.922C347.947 202.71 344.111 203.544 339.318 203.544C327.33 203.544 319.3 195.797 319.3 184.237C319.3 172.676 327.33 164.929 339.318 164.929C346.03 164.929 350.945 166.598 355.26 170.292V166.121C351.063 163.142 346.03 161.711 339.197 161.711Z" fill="#969CA5"/>
<path d="M397.09 206.165H401.643L389.299 188.169L390.256 188.05C397.33 186.858 400.926 182.567 400.926 175.416C400.926 166.716 395.772 162.426 385.703 162.426H366.645V206.284H370.481V188.407H385.582L397.09 206.165ZM385.463 185.07H370.36V165.763H385.463C393.133 165.763 396.969 168.981 396.969 175.416C396.969 181.733 393.014 185.07 385.463 185.07Z" fill="#969CA5"/>
<path d="M431.252 161.711C417.828 161.711 408.358 171.008 408.358 184.356C408.358 197.704 417.706 207 431.252 207C444.795 207 454.144 197.704 454.144 184.356C454.265 171.008 444.795 161.711 431.252 161.711ZM431.252 203.544C420.105 203.544 412.312 195.678 412.312 184.237C412.312 172.914 420.105 164.929 431.252 164.929C442.399 164.929 450.311 172.795 450.311 184.237C450.311 195.678 442.518 203.544 431.252 203.544Z" fill="#969CA5"/>
<path d="M462.412 162.426V187.931C462.412 200.325 468.887 206.88 480.991 206.88C493.218 206.88 499.691 200.325 499.691 187.931V162.426H495.976V187.573C495.976 197.823 490.7 203.543 480.991 203.543C471.402 203.543 466.129 197.942 466.129 187.573V162.426H462.412Z" fill="#969CA5"/>
<path d="M510.959 206.165H514.795V188.884H529.777C539.846 188.884 545 184.474 545 175.655C545 166.836 539.846 162.307 529.777 162.307H510.959V206.165ZM529.538 185.547H514.795V165.763H529.538C537.209 165.763 541.045 169.1 541.045 175.774C541.045 182.21 537.209 185.547 529.538 185.547Z" fill="#969CA5"/>
</svg>
