<svg fill="none" height="300" viewBox="0 0 600 300" width="600" xmlns="http://www.w3.org/2000/svg"><g fill="#364153"><path d="m108.014 116v68.424h-20.4876v-47.937h-37.4746v-20.487z"/><path d="m60.2807 141.443c-12.3053 0-22.2807 9.976-22.2807 22.281 0 12.306 9.9754 22.281 22.2807 22.281s22.2806-9.975 22.2806-22.28h-22.2801z"/><path d="m158.365 116-19.658 68.386h13.576l4.344-15.739h19.984l4.236 15.739h14.77l-19.657-68.386zm8.146 16.717h.434l6.517 24.423h-13.685z"/><path d="m196.64 168.538c.434 10.747 8.145 16.825 19.875 16.825 11.512 0 18.571-5.644 18.571-15.088 0-8.033-4.67-12.049-13.467-14.437l-6.842-1.845c-3.041-.978-4.779-1.955-4.779-4.668 0-2.714 2.173-4.234 5.431-4.234 4.887 0 7.059 3.04 7.059 7.382h11.73c-.109-9.878-6.3-17.151-18.898-17.151-10.752 0-17.812 6.296-17.812 15.197 0 8.467 4.779 12.592 12.816 14.654l7.385 1.845c3.258.869 4.779 1.846 4.779 4.342 0 2.823-2.389 4.234-5.973 4.234-4.562 0-7.711-2.28-8.037-7.056z"/><path d="m238.11 168.538c.435 10.747 8.146 16.825 19.875 16.825 11.513 0 18.573-5.644 18.573-15.088 0-8.033-4.671-12.049-13.468-14.437l-6.842-1.845c-3.041-.978-4.779-1.955-4.779-4.668 0-2.714 2.172-4.234 5.43-4.234 4.888 0 7.06 3.04 7.06 7.382h11.729c-.108-9.878-6.299-17.151-18.897-17.151-10.752 0-17.812 6.296-17.812 15.197 0 8.467 4.779 12.592 12.816 14.654l7.385 1.845c3.258.869 4.779 1.846 4.779 4.342 0 2.823-2.39 4.234-5.974 4.234-4.561 0-7.71-2.28-8.036-7.056z"/><path d="m301.628 185.363c11.947 0 18.572-6.947 19.441-18.345h-12.382c-.108 4.885-2.389 7.49-6.951 7.49-5.321 0-8.037-3.799-8.037-11.289h27.695v-3.799c0-14.763-6.516-24.098-20.309-24.098-12.707 0-20.744 9.335-20.744 24.098v1.845c0 14.763 8.037 24.098 21.287 24.098zm-7.929-29.851c0-6.079 2.716-9.335 7.386-9.335 4.779 0 7.276 3.256 7.276 9.335z"/><path d="m368.211 157.14c0-5.21 1.411-10.42 6.842-10.42 4.887 0 5.975 3.582 5.975 8.901v28.766h13.902v-33.325c0-8.793-3.913-15.74-14.664-15.74-6.625 0-10.969 3.148-13.576 6.947-2.063-3.691-5.974-6.947-12.816-6.947-5.756 0-10.426 2.822-12.49 6.839v-5.862h-13.902v48.088h13.902v-27.247c0-5.21 1.521-10.42 6.951-10.42 4.887 0 5.974 3.582 5.974 8.901v28.766h13.902z"/><path d="m432.649 162.568c0 7.707-2.716 11.723-7.927 11.723-5.107 0-7.823-4.016-7.823-9.986v-7.924c0-5.971 2.716-10.096 7.823-10.096 5.211 0 7.927 4.125 7.927 11.832zm-15.75 15.848c2.282 4.016 6.409 6.947 12.709 6.947 10.969 0 16.835-8.467 16.835-23.338v-3.365c0-14.871-5.866-23.338-16.835-23.338-6.3 0-10.427 2.931-12.709 6.947v-26.269h-13.902v68.386h12.383z"/><path d="m452.529 116v68.386h13.902v-68.386z"/><path d="m493.812 185.363c11.946 0 18.571-6.947 19.443-18.345h-12.383c-.109 4.885-2.391 7.49-6.951 7.49-5.32 0-8.036-3.799-8.036-11.289h27.695v-3.799c0-14.763-6.517-24.098-20.31-24.098-12.709 0-20.745 9.335-20.745 24.098v1.845c0 14.763 8.036 24.098 21.287 24.098zm-7.927-29.851c0-6.079 2.716-9.335 7.385-9.335 4.777 0 7.276 3.256 7.276 9.335z"/><path d="m531.29 158.117c0-7.707 2.712-11.832 7.927-11.832 4.995 0 7.819 4.125 7.819 10.096v7.924c0 5.97-2.824 9.986-7.819 9.986-5.215 0-7.927-4.016-7.927-11.723zm15.746 26.269h13.902v-68.386h-13.902v26.269c-2.39-4.016-6.408-6.947-12.708-6.947-10.969 0-16.832 8.467-16.832 23.338v3.365c0 14.871 5.863 23.338 16.832 23.338 6.3 0 10.318-2.931 12.708-6.947z"/></g></svg>