<svg fill="none" height="240" viewBox="0 0 600 240" width="600" xmlns="http://www.w3.org/2000/svg"><g fill="#364153"><path d="m129.449 146.694v-53.4615h20.529c9.374 0 15.881 6.0435 15.881 14.6435 0 4.572-2.247 8.756-6.275 11.003 5.345 2.014 8.444 6.586 8.444 12.552 0 8.987-6.352 15.263-16.036 15.263zm8.908-30.837h10.691c4.88 0 7.979-2.944 7.979-7.361 0-4.416-3.099-7.438-7.979-7.438h-10.691zm0 23.012h11.776c5.422 0 8.986-3.022 8.986-7.748 0-4.727-3.564-7.749-8.986-7.749h-11.776zm33.415-11.39c0-11.235 8.367-19.99 19.367-19.99 5.422 0 9.993 2.169 12.859 5.889v-5.114h8.212v38.43h-8.212v-5.113c-2.788 3.719-7.437 5.888-12.859 5.888-11 0-19.367-8.755-19.367-19.99zm31.917 0c0-6.896-4.881-11.932-11.62-11.932-6.74 0-11.698 5.036-11.698 11.932s4.958 11.855 11.698 11.855c6.739 0 11.62-4.959 11.62-11.855zm13.23 0c0-11.235 8.754-19.99 20.219-19.99 9.451 0 15.881 5.811 18.282 11.932l-8.056 3.099c-1.549-4.029-5.5-6.973-10.226-6.973-6.739 0-11.62 5.191-11.62 11.932s4.958 11.932 11.62 11.932c4.803 0 8.677-2.867 10.226-6.896l8.056 3.022c-2.401 6.198-8.831 11.932-18.282 11.932-11.465 0-20.219-8.755-20.219-19.99zm44.001 19.215v-53.4615h8.6v32.0765l15.028-17.045h10.148l-15.958 18.363 16.655 20.067h-10.458l-15.415-18.285v18.285zm46.29-.009v-53.685h10.727l18.75 35.399 18.67-35.399h10.488v53.685h-8.819v-38.515l-17.081 32.287h-6.834l-17.082-32.287v38.512zm63.36-19.216c0-11.234 8.367-19.99 19.366-19.99 5.423 0 9.994 2.17 12.859 5.889v-5.114h8.212v38.431h-8.212v-5.114c-2.79 3.719-7.436 5.888-12.859 5.888-10.999 0-19.366-8.755-19.366-19.99zm31.917 0c0-6.895-4.882-11.932-11.621-11.932-6.742 0-11.7 5.037-11.7 11.932 0 6.896 4.958 11.855 11.7 11.855 6.739 0 11.621-4.959 11.621-11.855zm14.434 19.216v-38.431h8.209v5.346c2.171-3.332 5.812-5.346 11.235-5.346h2.632v8.601h-3.637c-6.975 0-9.84 3.796-9.84 9.762v20.068zm26.955 0v-53.4656h8.603v32.0806l15.026-17.046h10.147l-15.956 18.363 16.654 20.068h-10.459l-15.412-18.286v18.286z"/><path d="m476.316 127.468c0-11.234 8.599-19.99 19.523-19.99 10.923 0 19.211 8.368 19.211 19.758 0 .93 0 1.937-.158 2.867h-30.056c1.009 6.276 5.348 9.84 11.389 9.84 4.65 0 8.212-2.324 10.226-5.811l7.129 4.029c-3.874 5.811-9.919 9.298-17.355 9.298-11.31 0-19.909-8.833-19.909-19.991zm8.753-3.641h21.303c-.772-5.191-4.799-8.911-10.612-8.911-5.344 0-9.45 3.332-10.691 8.911zm51.36 22.857c-8.757 0-12.938-3.797-12.938-11.777v-18.751h-6.352v-7.903h4.413c1.163 0 1.939-.775 1.939-2.169v-7.4418h8.599v9.6078h10.222v7.903h-10.222v17.898c0 3.022 1.47 4.571 4.957 4.571h5.265v8.059zm-424.38-53.4527h-49.3525c-2.595 0-4.6965 2.0955-4.6965 4.6845v44.0932c0 2.589 2.1015 4.685 4.6965 4.685h49.3525c2.592 0 4.697-2.099 4.697-4.685v-44.0932c0-2.586-2.102-4.6845-4.697-4.6845zm-22.0483 42.9277h-9.6867c-.3101 0-.6037-.123-.8231-.342l-15.5066-15.509c-.1902-.191-.1902-.5 0-.694l15.5066-15.509c.2194-.22.513-.343.8231-.343h9.6867c.2643 0 .3967.32.2096.504l-15.345 15.348c-.1905.19-.1905.5 0 .694l15.345 15.347c.1871.188.0547.504-.2096.504zm5.1772-15.851 15.3441 15.347c.188.188.056.504-.209.504h-9.687c-.31 0-.604-.123-.8228-.342l-15.5063-15.512c-.1905-.191-.1905-.501 0-.694l15.5063-15.51c.2188-.219.5128-.342.8228-.342h9.687c.265 0 .397.32.209.504l-15.3441 15.348c-.1905.19-.1905.503 0 .697z"/></g></svg>