<svg width="600" height="300" viewBox="0 0 600 300" fill="none" xmlns="http://www.w3.org/2000/svg">
<g clip-path="url(#clip0_1505_26203)">
<mask id="mask0_1505_26203" style="mask-type:luminance" maskUnits="userSpaceOnUse" x="31" y="112" width="538" height="76">
<path d="M31 112H569V188H31V112Z" fill="white"/>
</mask>
<g mask="url(#mask0_1505_26203)">
<path d="M97.0386 187.822H41.8421C35.8461 187.822 31 183.042 31 177.129V122.693C31 116.779 35.8461 112 41.8421 112H97.1205C103.117 112 107.963 116.779 107.963 122.693V177.21C107.881 183.042 103.034 187.822 97.0386 187.822ZM41.8421 119.696C40.1994 119.696 38.8852 120.992 38.8852 122.612V177.129C38.8852 178.749 40.1994 180.045 41.8421 180.045H97.1205C98.7633 180.045 100.078 178.749 100.078 177.129V122.693C100.078 121.073 98.7633 119.777 97.1205 119.777H41.8421V119.696Z" fill="#969CA5"/>
<path d="M42.8276 153.799H34.9424V146.023H42.9097C55.3946 146.023 65.4974 136.059 65.4974 123.665V115.888H73.3006V123.746C73.3826 140.271 59.6657 153.799 42.8276 153.799Z" fill="#969CA5"/>
<path d="M103.938 153.799H95.9707C79.2145 153.799 65.4977 140.271 65.4977 123.665V115.888H73.3006V123.746C73.3829 136.059 83.4856 146.023 96.0526 146.023H104.02V153.799H103.938ZM73.3826 183.933H65.4974V176.076C65.4974 163.763 55.3125 153.718 42.8276 153.718H34.9424V146.023H42.9097C59.7479 146.023 73.3826 159.551 73.3826 176.076V183.933ZM172.933 151.693C172.276 150.883 171.537 150.235 170.716 149.749C170.305 149.506 169.812 149.263 169.319 149.02C169.401 148.939 169.484 148.939 169.566 148.858C170.141 148.453 170.716 147.886 171.291 147.237C171.866 146.59 172.358 145.78 172.687 144.807C173.098 143.835 173.262 142.701 173.262 141.486C173.262 140.19 173.015 138.975 172.523 137.76C172.03 136.545 171.291 135.573 170.305 134.682C169.319 133.791 168.005 133.143 166.527 132.575C165.048 132.089 163.159 131.765 161.106 131.765H151.167C149.935 131.765 148.949 132.089 148.292 132.738C147.635 133.386 147.307 134.277 147.307 135.411V166.031C147.307 167.084 148.21 167.975 149.278 167.975H162.42C164.884 167.975 166.937 167.651 168.498 167.003C170.141 166.355 171.373 165.464 172.358 164.492C173.344 163.439 174.001 162.386 174.412 161.17C174.822 159.955 174.987 158.821 174.987 157.768C174.987 156.553 174.822 155.5 174.412 154.447C174.083 153.394 173.59 152.503 172.933 151.693ZM165.13 145.293C164.227 146.185 162.748 146.671 160.777 146.671H154.781C154.37 146.671 154.042 146.346 154.042 145.941V138.246C154.042 137.841 154.37 137.517 154.781 137.517H160.613C162.666 137.517 164.227 137.922 165.13 138.732C166.034 139.542 166.527 140.595 166.527 141.891C166.527 143.268 166.034 144.321 165.13 145.293ZM154.042 161.575V153.07C154.042 152.665 154.37 152.341 154.781 152.341H162.091C163.159 152.341 164.062 152.503 164.802 152.746C165.541 152.989 166.198 153.394 166.609 153.799C167.102 154.204 167.43 154.771 167.677 155.419C167.923 156.067 168.005 156.715 168.005 157.363C168.005 158.821 167.512 160.036 166.609 160.928C165.623 161.819 164.145 162.305 162.009 162.305H154.699C154.37 162.305 154.042 161.98 154.042 161.575ZM211.127 162.062H196.507C196.096 162.062 195.767 161.738 195.767 161.333V132.657L195.439 132.495C195.192 132.333 194.864 132.252 194.289 132.09C193.714 131.927 193.139 131.846 192.482 131.846C191.414 131.846 190.593 132.09 189.936 132.657C189.279 133.224 188.95 134.034 188.95 135.087V166.193C188.95 167.246 189.854 168.137 190.921 168.137H211.127C212.195 168.137 213.099 167.246 213.099 166.193V164.006C213.099 162.872 212.195 162.062 211.127 162.062ZM254.578 132.09C254.003 131.927 253.428 131.846 252.771 131.846C250.553 131.846 249.239 132.981 249.239 135.006V151.531C249.239 153.394 249.075 155.014 248.746 156.472C248.418 157.85 247.843 159.065 247.186 160.036C246.446 161.009 245.461 161.738 244.311 162.305C243.079 162.791 241.6 163.115 239.793 163.115C237.986 163.115 236.508 162.872 235.276 162.305C234.126 161.819 233.14 161.009 232.401 160.036C231.662 159.065 231.087 157.85 230.84 156.472C230.511 155.014 230.347 153.394 230.347 151.531V132.657L230.019 132.495C229.773 132.333 229.444 132.252 228.951 132.09C228.376 131.927 227.801 131.846 227.144 131.846C226.076 131.846 225.173 132.09 224.598 132.657C223.941 133.224 223.612 134.034 223.612 135.087V152.098C223.612 157.606 224.926 161.819 227.637 164.654C230.347 167.489 234.454 168.947 239.875 168.947C245.296 168.947 249.485 167.489 252.114 164.654C254.742 161.819 256.139 157.606 256.139 152.098V132.657L255.81 132.495C255.481 132.414 255.071 132.252 254.578 132.09ZM278.48 137.841H294.908L295.072 137.517C295.236 137.274 295.318 136.95 295.565 136.545C295.729 136.059 295.893 135.411 295.893 134.844C295.893 132.9 294.743 131.846 292.69 131.846H274.866C273.634 131.846 272.648 132.171 271.991 132.819C271.334 133.467 271.005 134.358 271.005 135.492V166.112C271.005 167.165 271.909 168.056 272.977 168.056H293.676C294.743 168.056 295.647 167.165 295.647 166.112V163.925C295.647 162.872 294.743 161.981 293.676 161.981H278.562C278.151 161.981 277.823 161.657 277.823 161.252V153.313C277.823 152.908 278.151 152.584 278.562 152.584H294.25L294.414 152.26C294.497 152.098 294.661 151.774 294.908 151.288C295.072 150.802 295.236 150.235 295.236 149.587C295.236 147.643 294.086 146.59 292.033 146.59H278.562C278.151 146.59 277.823 146.266 277.823 145.861V138.57C277.741 138.165 278.069 137.841 278.48 137.841ZM318.152 140.19C319.22 139.056 320.616 138.165 322.095 137.598C323.656 137.031 325.298 136.707 327.105 136.707C328.337 136.707 329.487 136.869 330.555 137.112C331.623 137.355 332.526 137.679 333.348 138.084C334.087 138.408 334.826 138.813 335.319 139.218C335.894 139.623 336.305 140.028 336.551 140.352L336.88 140.676L337.29 140.433C337.455 140.352 337.701 140.19 337.948 139.947C338.276 139.704 338.523 139.461 338.769 139.137C339.015 138.813 339.262 138.489 339.508 138.084C339.755 137.679 339.837 137.193 339.837 136.707C339.837 136.221 339.672 135.654 339.344 135.087C339.015 134.52 338.523 134.034 337.865 133.629C337.537 133.386 336.962 133.062 336.305 132.738C335.648 132.414 334.908 132.089 334.005 131.846C333.101 131.603 332.116 131.36 330.966 131.198C329.816 131.036 328.584 130.955 327.188 130.955C324.395 130.955 321.766 131.36 319.384 132.251C317.003 133.143 314.867 134.439 313.142 136.059C311.417 137.679 310.021 139.704 309.035 142.053C308.05 144.402 307.557 146.995 307.557 149.911C307.557 153.07 308.05 155.824 309.117 158.174C310.185 160.523 311.581 162.548 313.388 164.087C315.196 165.626 317.413 166.841 319.877 167.651C322.341 168.461 325.134 168.785 328.009 168.785C329.487 168.785 330.802 168.785 332.116 168.704C333.43 168.623 334.58 168.542 335.565 168.461C336.551 168.38 337.373 168.299 338.03 168.218C338.933 168.137 339.18 168.056 339.262 168.056L339.755 167.975V151.126C339.755 148.777 338.44 147.562 335.976 147.562H325.545L325.38 147.886C325.298 148.129 325.134 148.453 324.888 148.858C324.723 149.344 324.559 149.992 324.559 150.559C324.559 152.422 325.709 153.475 327.763 153.475H332.362C332.773 153.475 333.101 153.799 333.101 154.204V162.062C333.101 162.386 332.855 162.71 332.444 162.791L331.869 162.872C331.048 162.953 329.816 163.034 328.337 163.034C326.284 163.034 324.395 162.791 322.67 162.224C321.027 161.738 319.549 160.928 318.317 159.875C317.085 158.821 316.181 157.444 315.524 155.824C314.867 154.204 314.538 152.179 314.538 149.911C314.538 147.805 314.867 145.942 315.442 144.321C316.181 142.701 317.085 141.324 318.152 140.19ZM382.301 163.763C381.564 162.548 380.823 161.17 379.918 159.874C379.099 158.579 378.193 157.201 377.291 155.986C376.798 155.257 376.304 154.609 375.814 153.961C375.649 153.799 375.649 153.637 375.649 153.394C375.649 153.151 375.814 152.989 375.978 152.908C377.538 152.017 378.769 150.802 379.592 149.344C380.741 147.481 381.317 145.456 381.317 143.268C381.317 141.729 381.07 140.19 380.494 138.813C379.918 137.436 379.099 136.14 378.029 135.168C376.962 134.115 375.567 133.305 374.007 132.656C372.446 132.089 370.557 131.765 368.421 131.765H359.303C356.838 131.765 355.442 133.062 355.442 135.33V165.95C355.442 167.003 356.347 167.894 357.414 167.894H360.205C361.275 167.894 362.177 167.003 362.177 165.95V155.5C362.177 155.095 362.506 154.771 363 154.771L363.984 154.852C364.889 154.933 366.12 154.933 367.598 154.933H368.503C369.24 155.824 370.063 156.877 370.804 158.011C371.706 159.308 372.529 160.523 373.266 161.738C374.007 162.953 374.744 164.087 375.32 165.14C375.731 165.788 375.978 166.436 376.222 166.922C376.551 167.57 377.209 167.975 377.95 167.975H381.317C381.972 167.975 382.63 167.651 382.959 167.003C383.289 166.436 383.289 165.707 382.959 165.14C382.795 164.735 382.548 164.249 382.301 163.763ZM362.177 138.246C362.177 137.841 362.506 137.517 362.917 137.517H367.433C369.899 137.517 371.706 138.084 372.772 139.218C373.924 140.352 374.418 141.729 374.418 143.43C374.418 144.24 374.253 145.051 374.007 145.78C373.76 146.508 373.266 147.076 372.69 147.642C372.035 148.21 371.212 148.615 370.146 148.939C369.076 149.263 367.763 149.425 366.285 149.425C364.889 149.425 363.819 149.344 363.082 149.263C362.671 149.182 362.341 149.182 362.177 149.182V138.246ZM425.177 136.383C423.534 134.682 421.563 133.386 419.183 132.414C416.882 131.441 414.334 130.955 411.543 130.955C408.749 130.955 406.204 131.441 403.986 132.414C401.685 133.386 399.713 134.682 398.071 136.383C396.428 138.084 395.115 140.109 394.21 142.377C393.308 144.646 392.814 147.237 392.814 149.911C392.814 152.584 393.308 155.095 394.21 157.444C395.115 159.713 396.428 161.738 398.071 163.439C399.713 165.14 401.685 166.517 403.986 167.408C406.287 168.38 408.831 168.866 411.543 168.866C414.334 168.866 416.882 168.38 419.183 167.408C421.48 166.436 423.452 165.059 425.177 163.439C426.819 161.738 428.136 159.713 429.038 157.444C429.943 155.176 430.433 152.584 430.433 149.911C430.433 147.237 429.943 144.726 429.038 142.377C428.136 140.109 426.819 138.084 425.177 136.383ZM422.55 155.176C421.974 156.796 421.151 158.174 420.167 159.308C419.183 160.441 417.866 161.414 416.471 162.062C415.075 162.71 413.432 163.034 411.625 163.034C409.901 163.034 408.258 162.71 406.777 162.062C405.299 161.414 404.068 160.523 403.084 159.308C402.096 158.174 401.277 156.715 400.701 155.176C400.125 153.556 399.878 151.774 399.878 149.911C399.878 148.048 400.125 146.266 400.701 144.646C401.277 143.025 402.096 141.648 403.084 140.514C404.068 139.38 405.381 138.489 406.777 137.841C408.258 137.193 409.818 136.869 411.625 136.869C413.35 136.869 414.993 137.193 416.471 137.841C417.866 138.489 419.183 139.38 420.167 140.514C421.233 141.648 421.974 143.025 422.55 144.646C423.123 146.266 423.37 147.967 423.37 149.911C423.37 151.774 423.123 153.556 422.55 155.176ZM473.802 132.09C473.226 131.927 472.654 131.846 471.995 131.846C469.777 131.846 468.463 132.981 468.463 135.006V151.531C468.463 153.394 468.299 155.014 467.97 156.472C467.644 157.85 467.15 159.065 466.41 160.036C465.672 161.009 464.685 161.738 463.536 162.305C462.305 162.791 460.824 163.115 459.017 163.115C457.21 163.115 455.732 162.872 454.501 162.305C453.352 161.819 452.365 161.009 451.624 160.036C450.887 159.065 450.311 157.85 450.064 156.472C449.738 155.014 449.573 153.394 449.573 151.531V132.657L449.244 132.495C448.997 132.333 448.668 132.252 448.175 132.09C447.602 131.927 447.026 131.846 446.368 131.846C445.301 131.846 444.399 132.09 443.823 132.657C443.165 133.224 442.836 134.034 442.836 135.087V152.098C442.836 157.606 444.152 161.819 446.861 164.654C449.573 167.489 453.678 168.947 459.099 168.947C464.52 168.947 468.71 167.489 471.337 164.654C473.967 161.819 475.363 157.606 475.363 152.098V132.657L475.033 132.495C474.707 132.414 474.378 132.252 473.802 132.09ZM519.798 132.089C519.225 131.927 518.649 131.846 517.991 131.846C516.925 131.846 516.105 132.089 515.529 132.656C514.871 133.224 514.542 134.034 514.542 135.087V154.528C514.542 154.771 514.459 154.933 514.298 155.095C514.133 155.257 513.969 155.257 513.804 155.257C513.64 155.257 513.393 155.176 513.146 154.852L512.652 154.042C511.586 152.341 510.437 150.64 509.203 148.858C508.054 147.076 506.905 145.374 505.753 143.673C504.604 141.972 503.538 140.433 502.633 139.056C501.649 137.679 500.826 136.464 500.006 135.411C499.348 134.52 498.854 133.791 498.525 133.386C498.36 133.224 498.199 133.062 498.035 132.9C497.705 132.738 497.376 132.494 496.883 132.251C496.227 131.927 495.405 131.765 494.42 131.765C493.104 131.765 492.037 132.17 491.379 132.9C490.724 133.629 490.313 134.439 490.313 135.33V166.112C490.313 167.165 491.215 168.056 492.284 168.056H495.076C496.145 168.056 497.047 167.165 497.047 166.112V143.997C497.047 143.511 497.459 143.268 497.788 143.268C497.952 143.268 498.199 143.349 498.36 143.592C499.266 144.969 500.332 146.427 501.402 147.967C502.468 149.587 503.617 151.207 504.769 152.989C505.918 154.771 507.07 156.472 508.219 158.254C509.367 160.036 510.437 161.657 511.503 163.277C512.409 164.654 513.228 165.869 513.969 167.084C514.298 167.651 514.953 167.975 515.611 167.975H519.39C520.456 167.975 521.362 167.084 521.362 166.031V132.656L521.032 132.494C520.703 132.413 520.292 132.251 519.798 132.089ZM567.687 142.458C566.781 140.19 565.468 138.327 563.826 136.707C562.101 135.168 560.047 133.953 557.664 133.062C555.284 132.17 552.572 131.765 549.616 131.765H540.416C539.185 131.765 538.198 132.089 537.543 132.738C536.884 133.386 536.555 134.277 536.555 135.411V166.031C536.555 167.084 537.46 167.975 538.527 167.975H549.698C552.654 167.975 555.366 167.57 557.746 166.679C560.129 165.788 562.183 164.573 563.908 163.034C565.633 161.414 566.946 159.55 567.769 157.282C568.671 155.095 569.082 152.584 569.082 149.83C569.082 147.076 568.588 144.646 567.687 142.458ZM561.196 154.852C560.623 156.31 559.8 157.687 558.734 158.74C557.664 159.794 556.351 160.685 554.79 161.333C553.23 161.98 551.341 162.224 549.287 162.224H544.03C543.619 162.224 543.29 161.9 543.29 161.495V138.327C543.29 137.922 543.619 137.598 544.03 137.598H549.287C551.341 137.598 553.23 137.922 554.79 138.489C556.351 139.056 557.664 139.947 558.734 141C559.8 142.053 560.623 143.43 561.196 144.888C561.772 146.427 562.019 148.047 562.019 149.83C562.019 151.612 561.689 153.313 561.196 154.852Z" fill="#969CA5"/>
</g>
</g>
<defs>
<clipPath id="clip0_1505_26203">
<rect width="538" height="76" fill="white" transform="translate(31 112)"/>
</clipPath>
</defs>
</svg>
