<svg fill="none" height="263" viewBox="0 0 600 263" width="600" xmlns="http://www.w3.org/2000/svg" xmlns:xlink="http://www.w3.org/1999/xlink"><mask id="a" height="261" maskUnits="userSpaceOnUse" width="520" x="40" y="1"><path d="m560.001 1.25256h-520.001v260.49544h520.001z" fill="#fff"/></mask><mask id="b" height="261" maskUnits="userSpaceOnUse" width="520" x="40" y="1"><path d="m560.001 1.25256h-520.001v260.49544h520.001z" fill="#fff"/></mask><mask id="c" height="67" maskUnits="userSpaceOnUse" width="468" x="66" y="98"><path d="m533.134 98.504h-466.2668v65.992h466.2668z" fill="#fff"/></mask><mask id="d" height="67" maskUnits="userSpaceOnUse" width="468" x="66" y="98"><path d="m66.8672 98.504h466.2668v65.992h-466.2668z" fill="#fff"/></mask><g mask="url(#a)"><g mask="url(#b)"><g mask="url(#c)"><g fill="#364153" mask="url(#d)"><path d="m124.1 164.342h-47.8364c-5.1968 0-9.3964-4.151-9.3964-9.285v-47.268c0-5.135 4.1996-9.285 9.3964-9.285h47.9074c5.197 0 9.397 4.15 9.397 9.285v47.338c-.071 5.064-4.272 9.215-9.468 9.215zm-47.8364-59.156c-1.4239 0-2.5628 1.126-2.5628 2.532v47.339c0 1.406 1.1389 2.531 2.5628 2.531h47.9074c1.424 0 2.563-1.125 2.563-2.531v-47.268c0-1.407-1.139-2.532-2.563-2.532h-47.9074z"/><path d="m77.1188 134.799h-6.8336v-6.752h6.9048c10.8203 0 19.5762-8.652 19.5762-19.414v-6.753h6.7628v6.823c.071 14.349-11.8171 26.096-26.4102 26.096z"/><path d="m130.081 134.799h-6.905c-14.522 0-26.4095-11.747-26.4095-26.166v-6.753h6.7625v6.823c.071 10.692 8.827 19.344 19.719 19.344h6.904v6.752zm-26.481 26.166h-6.8338v-6.823c0-10.691-8.8272-19.413-19.6474-19.413h-6.8336v-6.682h6.9048c14.5932 0 26.41 11.746 26.41 26.095zm86.278-27.995c-.57-.703-1.211-1.266-1.922-1.688-.357-.211-.784-.422-1.211-.633.071-.07.143-.07.214-.14.498-.352.997-.845 1.495-1.408.498-.562.926-1.265 1.21-2.11.356-.844.498-1.829.498-2.884 0-1.125-.213-2.18-.64-3.235-.428-1.055-1.068-1.899-1.923-2.673-.854-.774-1.993-1.336-3.274-1.829-1.282-.422-2.919-.704-4.698-.704h-8.614c-1.068 0-1.921.282-2.492.845-.569.563-.853 1.336-.853 2.321v26.588c0 .914.782 1.688 1.708 1.688h11.39c2.135 0 3.914-.281 5.267-.844 1.424-.563 2.492-1.336 3.347-2.18.853-.915 1.422-1.829 1.779-2.885.356-1.055.498-2.04.498-2.954 0-1.055-.142-1.969-.498-2.884-.285-.914-.712-1.687-1.281-2.391zm-6.764-5.557c-.782.774-2.063 1.196-3.772 1.196h-5.197c-.356 0-.64-.282-.64-.634v-6.681c0-.352.284-.633.64-.633h5.054c1.78 0 3.133.351 3.915 1.055.784.703 1.211 1.618 1.211 2.743 0 1.196-.427 2.11-1.211 2.954zm-9.609 14.138v-7.385c0-.352.284-.633.64-.633h6.335c.926 0 1.71.141 2.35.351.641.212 1.21.563 1.566.915.427.352.712.844.926 1.407.213.562.284 1.125.284 1.688 0 1.265-.427 2.32-1.21 3.095-.854.774-2.135 1.196-3.986 1.196h-6.336c-.285 0-.569-.283-.569-.634zm49.473.423h-12.67c-.356 0-.641-.282-.641-.633v-24.9l-.285-.141c-.213-.14-.498-.211-.997-.351-.498-.142-.996-.212-1.566-.212-.925 0-1.637.212-2.206.704s-.855 1.196-.855 2.11v27.01c0 .914.784 1.688 1.709 1.688h17.511c.926 0 1.709-.774 1.709-1.688v-1.899c0-.985-.783-1.688-1.709-1.688zm37.658-26.025c-.498-.142-.997-.212-1.566-.212-1.922 0-3.061.985-3.061 2.743v14.349c0 1.618-.142 3.025-.427 4.291-.285 1.196-.783 2.251-1.353 3.094-.64.845-1.494 1.478-2.491 1.971-1.068.422-2.35.703-3.916.703s-2.847-.211-3.914-.703c-.997-.422-1.852-1.126-2.492-1.971-.641-.843-1.139-1.898-1.353-3.094-.284-1.266-.427-2.673-.427-4.291v-16.388l-.285-.141c-.213-.14-.498-.211-.925-.351-.499-.142-.997-.212-1.566-.212-.926 0-1.708.212-2.207.704-.569.492-.854 1.196-.854 2.11v14.771c0 4.782 1.139 8.441 3.488 10.902 2.349 2.462 5.908 3.728 10.606 3.728s8.33-1.266 10.607-3.728c2.278-2.461 3.489-6.12 3.489-10.902v-16.881l-.285-.141c-.285-.07-.641-.211-1.068-.351zm20.715 4.993h14.238l.142-.281c.142-.211.213-.492.427-.844.142-.422.284-.985.284-1.477 0-1.688-.996-2.603-2.776-2.603h-15.447c-1.068 0-1.922.282-2.492.845-.569.562-.853 1.336-.853 2.32v26.589c0 .914.782 1.687 1.708 1.687h17.939c.925 0 1.708-.773 1.708-1.687v-1.9c0-.914-.783-1.688-1.708-1.688h-13.099c-.356 0-.64-.281-.64-.632v-6.894c0-.352.284-.633.64-.633h13.596l.143-.282c.071-.14.213-.422.428-.843.142-.423.284-.915.284-1.478 0-1.687-.997-2.602-2.776-2.602h-11.675c-.356 0-.64-.281-.64-.633v-6.331c-.072-.351.214-.633.569-.633zm34.383 2.04c.925-.985 2.135-1.758 3.417-2.251 1.353-.492 2.776-.774 4.342-.774 1.067 0 2.064.141 2.99.352.925.211 1.709.493 2.42.844.641.282 1.281.633 1.708.985.499.352.855.703 1.068.984l.285.282.356-.211c.143-.071.356-.211.57-.422.284-.211.498-.422.712-.704.213-.281.427-.562.64-.914.214-.351.285-.773.285-1.196 0-.422-.143-.914-.427-1.406-.285-.492-.712-.914-1.282-1.266-.284-.211-.783-.493-1.352-.774s-1.21-.563-1.993-.774c-.783-.212-1.637-.422-2.634-.563s-2.065-.211-3.274-.211c-2.421 0-4.699.352-6.764 1.125-2.063.775-3.915 1.9-5.41 3.307s-2.704 3.165-3.559 5.205c-.854 2.039-1.281 4.291-1.281 6.823 0 2.743.427 5.134 1.352 7.175.926 2.039 2.137 3.798 3.703 5.134s3.487 2.391 5.622 3.095c2.137.703 4.557.984 7.048.984 1.281 0 2.421 0 3.56-.07 1.138-.07 2.135-.14 2.989-.211.854-.07 1.566-.141 2.136-.211.783-.07.996-.141 1.068-.141l.427-.07v-14.63c0-2.04-1.14-3.095-3.275-3.095h-9.04l-.142.281c-.072.211-.214.493-.428.845-.142.421-.285.984-.285 1.476 0 1.618.997 2.532 2.777 2.532h3.986c.356 0 .641.282.641.634v6.823c0 .281-.214.562-.569.633l-.499.07c-.712.07-1.78.141-3.062.141-1.779 0-3.416-.211-4.911-.704-1.424-.422-2.705-1.125-3.773-2.039-1.068-.916-1.851-2.111-2.42-3.518-.57-1.406-.855-3.165-.855-5.134 0-1.829.285-3.447.784-4.854.64-1.407 1.424-2.602 2.349-3.587zm55.595 20.469c-.638-1.055-1.281-2.252-2.065-3.377-.71-1.125-1.494-2.321-2.276-3.376-.428-.633-.856-1.196-1.281-1.759-.143-.14-.143-.281-.143-.492s.143-.351.285-.422c1.352-.774 2.42-1.829 3.132-3.095.996-1.617 1.495-3.376 1.495-5.275 0-1.337-.214-2.673-.713-3.869s-1.209-2.321-2.136-3.165c-.925-.914-2.134-1.617-3.486-2.181-1.353-.492-2.99-.774-4.841-.774h-7.902c-2.137 0-3.347 1.126-3.347 3.096v26.588c0 .914.786 1.688 1.709 1.688h2.419c.927 0 1.709-.774 1.709-1.688v-9.074c0-.352.285-.633.714-.633l.852.07c.785.071 1.852.071 3.133.071h.784c.64.773 1.352 1.687 1.994 2.672.782 1.126 1.495 2.181 2.134 3.236.642 1.055 1.281 2.04 1.78 2.954.356.563.57 1.126.782 1.548.285.562.855.914 1.497.914h2.918c.568 0 1.138-.281 1.424-.844.285-.492.285-1.125 0-1.618-.143-.351-.357-.773-.571-1.195zm-17.441-22.157c0-.352.285-.633.642-.633h3.915c2.136 0 3.702.492 4.626 1.477.998.984 1.426 2.18 1.426 3.657 0 .704-.143 1.408-.356 2.041-.214.632-.642 1.125-1.141 1.616-.568.494-1.281.845-2.205 1.127-.928.281-2.065.422-3.346.422-1.21 0-2.138-.071-2.776-.141-.356-.07-.641-.07-.785-.07zm54.601-1.618c-1.425-1.477-3.135-2.602-5.197-3.446-1.991-.845-4.2-1.267-6.619-1.267-2.422 0-4.627.422-6.551 1.267-1.995.844-3.701 1.969-5.126 3.446-1.422 1.477-2.562 3.236-3.345 5.205-.784 1.97-1.212 4.22-1.212 6.542 0 2.321.428 4.501 1.212 6.541.783 1.97 1.923 3.728 3.345 5.205 1.425 1.477 3.131 2.673 5.126 3.447 1.995.844 4.2 1.266 6.551 1.266 2.419 0 4.628-.422 6.619-1.266s3.701-2.04 5.197-3.447c1.422-1.477 2.565-3.235 3.345-5.205.784-1.97 1.208-4.22 1.208-6.541 0-2.322-.424-4.503-1.208-6.542-.78-1.969-1.923-3.728-3.345-5.205zm-2.276 16.318c-.502 1.407-1.215 2.604-2.066 3.588-.855.984-1.995 1.829-3.203 2.392-1.211.562-2.632.844-4.2.844-1.496 0-2.917-.282-4.203-.844-1.279-.563-2.348-1.337-3.199-2.392-.855-.984-1.568-2.251-2.066-3.588-.499-1.406-.713-2.954-.713-4.571 0-1.618.214-3.165.713-4.572.498-1.407 1.211-2.603 2.066-3.588.851-.984 1.991-1.758 3.199-2.321 1.286-.562 2.636-.844 4.203-.844 1.493 0 2.918.282 4.2.844 1.208.563 2.348 1.337 3.203 2.321.922.985 1.564 2.181 2.066 3.588.495 1.407.709 2.884.709 4.572 0 1.617-.214 3.165-.709 4.571zm44.415-20.045c-.495-.142-.994-.212-1.564-.212-1.923 0-3.06.985-3.06 2.743v14.349c0 1.618-.142 3.025-.427 4.291-.285 1.196-.713 2.251-1.354 3.094-.637.845-1.496 1.478-2.49 1.971-1.069.422-2.351.703-3.915.703-1.567 0-2.85-.211-3.915-.703-.997-.422-1.852-1.126-2.494-1.971-.637-.843-1.14-1.898-1.353-3.094-.282-1.266-.424-2.673-.424-4.291v-16.388l-.285-.141c-.214-.14-.499-.211-.926-.351-.499-.142-.998-.212-1.568-.212-.922 0-1.706.212-2.205.704-.57.492-.855 1.196-.855 2.11v14.771c0 4.782 1.14 8.441 3.488 10.902 2.351 2.462 5.91 3.728 10.605 3.728 4.698 0 8.332-1.266 10.608-3.728 2.28-2.461 3.488-6.12 3.488-10.902v-16.881l-.285-.141c-.281-.07-.566-.211-1.069-.351zm39.866-.001c-.498-.141-.997-.211-1.567-.211-.923 0-1.635.211-2.134.703-.57.493-.855 1.197-.855 2.111v16.881c0 .211-.071.352-.21.492-.146.141-.285.141-.431.141-.139 0-.356-.071-.57-.352l-.428-.703c-.922-1.477-1.92-2.954-2.988-4.501-.994-1.548-1.992-3.026-2.989-4.503-.998-1.477-1.92-2.813-2.704-4.009-.855-1.195-1.567-2.25-2.276-3.165-.574-.773-1.001-1.407-1.286-1.758-.143-.141-.282-.282-.424-.422-.285-.141-.57-.353-.998-.564-.57-.281-1.282-.422-2.133-.422-1.144 0-2.067.352-2.637.986-.57.633-.926 1.336-.926 2.11v26.729c0 .914.784 1.687 1.71 1.687h2.419c.926 0 1.71-.773 1.71-1.687v-19.204c0-.422.356-.632.641-.632.143 0 .356.07.495.281.788 1.196 1.71 2.461 2.636 3.799.927 1.406 1.92 2.813 2.918 4.361.997 1.547 1.995 3.024 2.992 4.571.994 1.547 1.92 2.955 2.847 4.362.783 1.195 1.492 2.25 2.137 3.305.285.493.851.774 1.421.774h3.274c.926 0 1.71-.774 1.71-1.688v-28.98l-.285-.141c-.285-.07-.641-.211-1.069-.351zm41.502 9.003c-.784-1.969-1.92-3.587-3.345-4.994-1.497-1.336-3.274-2.391-5.34-3.165-2.063-.774-4.414-1.126-6.975-1.126h-7.973c-1.069 0-1.924.282-2.49.845-.57.563-.859 1.336-.859 2.321v26.588c0 .914.788 1.688 1.71 1.688h9.683c2.561 0 4.912-.352 6.975-1.125 2.066-.774 3.844-1.829 5.34-3.165 1.496-1.407 2.632-3.026 3.345-4.995.784-1.899 1.14-4.079 1.14-6.471 0-2.391-.428-4.501-1.211-6.401zm-5.625 10.762c-.495 1.266-1.208 2.462-2.134 3.376-.926.915-2.066 1.689-3.416 2.252-1.354.561-2.989.773-4.77.773h-4.557c-.356 0-.641-.281-.641-.633v-20.117c0-.352.285-.633.641-.633h4.557c1.781 0 3.416.281 4.77.774 1.35.492 2.49 1.266 3.416 2.18.926.915 1.639 2.11 2.134 3.376.498 1.336.712 2.743.712 4.291s-.285 3.025-.712 4.361z"/></g></g></g></g></svg>