<svg width="600" height="300" viewBox="-75 -75 750 320" fill="none" xmlns="http://www.w3.org/2000/svg">
  <path d="M 80.700418,48.467063 V 155.1708 H 106.5154 v -31.58603 h 8.1252 c 17.9077,0 26.7672,-6.93333 31.19591,-15.02623 a 45.210098,45.210098 0 0 0 4.42581,-21.765842 h -0.0269 c 0,-11.943056 -3.66347,-38.325635 -33.32138,-38.325635 z m 25.814982,10.210305 2.50213,0.02693 c 11.3645,0 15.21456,10.972154 15.21456,28.115329 0,16.371773 -3.85447,26.393443 -15.60468,26.393443 h -2.11201 z" fill="#364153"/>
  <path d="M 0,16.881036 V 123.39644 h 36.213623 c 29.664792,0 33.321374,-26.194248 33.321374,-38.137304 A 45.210098,45.210098 0 0 0 65.095736,63.493295 C 60.667024,55.40728 51.807524,48.467063 33.899825,48.467063 H 25.801534 V 16.881036 Z m 25.801534,41.796332 h 2.125465 c 11.750205,0 15.604681,10.008213 15.604681,26.379982 0,17.14318 -3.850063,28.12878 -15.214564,28.12878 h -2.515582 z" fill="#364153"/>
  <path d="m 326.66248,46.153266 a 92.011228,92.011228 0 0 0 -24.28142,2.690462 v 11.555536 a 49.204897,49.204897 0 0 1 5.01771,-1.735348 c 9.82857,-2.885895 27.55033,-4.807516 27.55033,12.91422 v 2.313794 h -0.39011 c -2.50019,0 -6.17171,0.0044 -10.60043,0.390113 a 60.769149,60.769149 0 0 0 -13.85587,2.690462 23.231819,23.231819 0 0 0 -17.1517,23.501185 c 0,16.95033 10.96354,23.11107 26.17819,23.11107 h 41.43312 l 0.18831,-49.692837 c 0,-17.336028 -11.93771,-27.738664 -34.08816,-27.738664 z m 7.92341,37.343613 h 0.39011 v 29.460561 l -4.62759,0.0138 c -5.58583,-0.20663 -11.36721,-1.34783 -11.36721,-13.290882 a 15.207784,15.207784 0 0 1 15.60469,-16.183135 z" fill="#364153"/>
  <path d="m 566.47684,45.803505 c -28.8865,-0.192852 -36.01184,21.02867 -36.01184,37.558853 0,14.443248 5.59254,42.374782 43.34335,42.374782 a 84.414223,84.414223 0 0 0 23.2994,-3.28237 v -12.51064 c -16.56462,6.51564 -39.8634,7.28703 -41.40621,-24.106547 V 85.44747 H 600 V 77.779647 C 600,59.293395 587.66303,45.803505 566.47684,45.803505 Z m -0.94166,10.586969 c 6.54319,0 8.08925,8.825693 8.47495,16.53289 v 1.54702 0.228668 h -17.91848 v -0.578488 c 0.77141,-10.207386 3.08629,-17.730145 9.44353,-17.730145 z" fill="#364153"/>
  <path d="m 491.72525,56.168242 c -7.90006,0 -11.75022,14.057558 -9.24314,35.050913 2.8859,25.422075 25.61492,25.422075 41.02245,18.878865 v 12.52163 a 91.226043,91.226043 0 0 1 -23.88614,3.2716 39.569167,39.569167 0 0 1 -42.75812,-41.408152 c 0,-16.178933 5.77868,-38.522254 36.40088,-38.522254 a 29.837012,29.837012 0 0 1 32.16501,30.994125 h -24.48535 c 0,-11.17166 -2.31423,-20.800502 -9.24314,-20.800502" fill="#364153"/>
  <path d="M 187.01855,48.467924 V 123.58391 H 161.40363 V 48.467924 Z" fill="#364153"/>
  <path d="M 445.49579,123.58391 H 419.68801 V 78.511563 c 0,-17.721752 -6.74294,-18.686014 -16.17893,-18.878866 h -1.73567 V 123.57702 H 376.15849 V 48.275072 c 2.12137,0.192852 9.05028,0.385704 32.16501,0.385704 37.19295,0 37.36514,17.336048 37.36514,31.200754 z" fill="#364153"/>
  <path d="m 250.96288,16.881466 v 10.785956 c -2.50708,0 -5.00727,0 -7.51435,0.192852 a 21.399722,21.399722 0 0 0 -7.12865,1.542819 12.039496,12.039496 0 0 0 -7.12865,12.714479 v 6.35724 h 18.10746 V 59.45362 h -18.10746 v 63.94433 H 203.58319 V 48.082219 c 0,-27.929151 19.06483,-31.200753 42.37242,-31.200753 z" fill="#364153"/>
  <path d="M 292.37103,56.946539 A 14.615452,14.615452 0 0 0 276.96351,73.47674 v 49.88677 H 251.34858 V 72.70533 c 0,-15.214672 14.05756,-26.772037 35.81544,-26.772037 h 5.20012 z" fill="#364153"/>
  <path d="M 174.27653,33.0604 A 16.5302,16.5302 0 1 1 190.80673,16.530199 16.5302,16.5302 0 0 1 174.27653,33.0604" fill="#364153"/>
  <path d="m 174.27653,172.12071 a 16.5302,16.5302 0 1 1 16.5302,-16.5302 16.5302,16.5302 0 0 1 -16.5302,16.5302" fill="#364153"/>
</svg>
