<svg width="600" height="240" viewBox="0 0 600 240" fill="none" xmlns="http://www.w3.org/2000/svg">
<mask id="mask0_1904_3364" style="mask-type:luminance" maskUnits="userSpaceOnUse" x="71" y="63" width="458" height="114">
<path d="M528.627 63.75H71.3711V176.25H528.627V63.75Z" fill="white"/>
</mask>
<g mask="url(#mask0_1904_3364)">
<path fill-rule="evenodd" clip-rule="evenodd" d="M71.3711 118.65C71.3711 104.929 71.3711 98.0681 73.0305 92.4769C76.8948 79.4572 87.0783 69.2734 100.098 65.4094C105.69 63.75 112.55 63.75 126.271 63.75C139.992 63.75 146.852 63.75 152.443 65.4094C165.463 69.2734 175.647 79.4572 179.511 92.4769C181.17 98.0681 181.17 104.929 181.17 118.65C181.17 132.37 181.17 139.231 179.511 144.822C175.647 157.842 165.463 168.026 152.443 171.89C146.852 173.549 139.992 173.549 126.271 173.549C112.55 173.549 105.69 173.549 100.098 171.89C87.0783 168.026 76.8948 157.842 73.0305 144.822C71.3711 139.231 71.3711 132.37 71.3711 118.65ZM122.589 95.6017C122.589 112.913 105.254 126.947 83.8691 126.947V141.697C109.327 141.697 129.964 121.06 129.964 95.6017H122.589ZM131.194 103.506C130.466 107.891 129.144 112.075 127.311 115.973C134.832 131.213 150.528 141.697 168.672 141.697V126.947C150.66 126.947 135.521 116.991 131.194 103.506ZM329.14 97.3444V154.34H344.743V97.3444H329.14ZM330.006 87.0506C331.668 88.2787 334.015 88.8926 337.049 88.8926C340.155 88.8926 342.504 88.2428 344.092 86.9423C345.754 85.6421 346.585 83.8001 346.585 81.4163C346.585 78.888 345.754 76.9736 344.092 75.6731C342.504 74.373 340.155 73.7228 337.049 73.7228C334.015 73.7228 331.668 74.373 330.006 75.6731C328.417 76.9736 327.622 78.888 327.622 81.4163C327.622 83.8721 328.417 85.7505 330.006 87.0506ZM219.267 154.34V82.8247H248.956C253.362 82.8247 257.299 83.2219 260.767 84.0165C264.234 84.7391 267.196 85.8585 269.652 87.3757C272.181 88.8926 274.094 90.8794 275.395 93.3353C276.767 95.7191 277.453 98.5725 277.453 101.895C277.453 104.713 276.84 107.169 275.612 109.263C274.456 111.358 272.614 113.056 270.085 114.356C267.629 115.656 264.379 116.56 260.334 117.065V118.691C267.196 119.196 272.216 120.93 275.395 123.892C278.646 126.781 280.271 130.682 280.271 135.594C280.271 139.712 279.187 143.179 277.02 145.996C274.926 148.741 271.747 150.836 267.485 152.281C263.223 153.654 257.95 154.34 251.665 154.34H219.267ZM234.111 141.77H251.448C256.071 141.77 259.503 141.084 261.742 139.712C263.981 138.267 265.101 136.064 265.101 133.102C265.101 129.707 263.692 127.179 260.875 125.517C258.058 123.783 253.796 122.916 248.089 122.916H234.111V141.77ZM234.111 113.165H245.814C251.448 113.165 255.565 112.406 258.166 110.889C260.839 109.3 262.176 106.988 262.176 103.954C262.176 100.92 260.983 98.7169 258.6 97.3444C256.216 95.8995 252.568 95.1772 247.656 95.1772H234.111V113.165ZM286.447 154.34V97.3444H299.341L299.45 116.848H301.509C302.086 112.008 303.062 108.072 304.434 105.038C305.879 102.004 307.866 99.7642 310.394 98.3197C312.922 96.8749 316.065 96.1526 319.821 96.1526C320.471 96.1526 321.157 96.1886 321.88 96.261C322.674 96.261 323.577 96.3694 324.588 96.5858V113.165C323.505 112.659 321.663 112.298 320.362 112.081C319.062 111.864 317.907 111.756 316.895 111.756C314.078 111.756 311.658 112.406 309.635 113.706C307.612 115.006 305.951 116.884 304.651 119.341C303.423 121.725 302.592 124.65 302.159 128.117V154.34H286.447ZM374.541 155.857C369.773 155.857 365.583 154.629 361.971 152.172C358.432 149.716 355.687 146.249 353.736 141.771C351.786 137.292 350.811 131.982 350.811 125.842C350.811 120.063 351.678 114.934 353.411 110.455C355.145 105.977 357.709 102.473 361.104 99.945C364.5 97.4168 368.725 96.1526 373.782 96.1526C377.468 96.1526 380.573 96.8389 383.1 98.2114C385.628 99.5839 387.687 101.607 389.277 104.279C390.938 106.88 392.239 110.022 393.177 113.706H395.67C395.164 111.394 394.695 109.155 394.26 106.988C393.9 104.749 393.612 102.618 393.394 100.595C393.177 98.5725 393.068 96.8025 393.068 95.2856V76.8653H408.672V154.34H395.67V137.87H393.503C392.708 141.915 391.482 145.274 389.82 147.947C388.159 150.619 386.025 152.606 383.427 153.906C380.899 155.207 377.937 155.857 374.541 155.857ZM379.74 143.07C382.125 143.07 384.147 142.565 385.812 141.554C387.473 140.543 388.845 139.242 389.929 137.653C391.009 135.992 391.804 134.221 392.31 132.343C392.817 130.393 393.068 128.587 393.068 126.926V124.867C393.068 123.494 392.854 122.086 392.419 120.641C392.059 119.124 391.515 117.643 390.795 116.198C390.072 114.753 389.168 113.49 388.084 112.406C387 111.25 385.737 110.347 384.293 109.697C382.849 109.047 381.259 108.722 379.527 108.722C376.924 108.722 374.721 109.444 372.915 110.889C371.109 112.334 369.701 114.357 368.689 116.957C367.678 119.485 367.173 122.447 367.173 125.842C367.173 129.309 367.678 132.343 368.689 134.944C369.773 137.544 371.254 139.567 373.132 141.012C375.012 142.384 377.213 143.07 379.74 143.07ZM423.949 172.652C427.995 173.663 433.125 174.169 439.335 174.169C446.637 174.169 452.667 173.519 457.433 172.218C462.274 170.918 465.848 168.896 468.158 166.151C470.543 163.406 471.735 159.938 471.735 155.748C471.735 151.92 470.94 148.994 469.354 146.972C467.764 144.877 465.81 143.36 463.5 142.421C461.19 141.482 458.88 140.94 456.567 140.795C454.257 140.578 452.378 140.47 450.93 140.47H434.678C433.74 140.47 432.799 140.398 431.862 140.253C430.995 140.109 430.272 139.856 429.694 139.495C429.188 139.134 428.937 138.7 428.937 138.195C428.937 137.544 429.297 136.858 430.02 136.136C430.812 135.341 431.895 134.438 433.268 133.427C435.799 133.716 437.603 133.897 438.687 133.969C439.774 134.041 440.783 134.077 441.72 134.077C446.704 134.077 450.968 133.463 454.508 132.235C458.119 130.935 460.902 129.165 462.848 126.926C464.802 124.686 465.777 122.086 465.777 119.124C465.777 116.162 464.73 113.851 462.634 112.189C460.609 110.528 457.29 109.372 452.667 108.722V106.23L470.543 108.722V96.8025H441.72C435.87 96.8025 430.92 97.6695 426.878 99.4031C422.903 101.065 419.907 103.34 417.882 106.23C415.86 109.047 414.848 112.261 414.848 115.873C414.848 119.991 416.112 123.35 418.643 125.95C421.17 128.551 424.673 129.996 429.15 130.285V132.452C424.384 133.391 420.953 134.655 418.857 136.244C416.835 137.833 415.823 139.639 415.823 141.662C415.823 143.757 416.873 145.238 418.965 146.105C421.062 146.899 424.058 147.297 427.962 147.297V149.464C422.832 149.897 418.932 151.161 416.258 153.256C413.655 155.351 412.358 158.06 412.358 161.383C412.358 164.2 413.295 166.548 415.174 168.426C417.053 170.304 419.978 171.713 423.949 172.652ZM451.365 160.949C448.909 161.455 445.478 161.708 441.072 161.708C437.967 161.708 435.364 161.528 433.268 161.166C431.247 160.877 429.732 160.335 428.719 159.541C427.707 158.746 427.2 157.554 427.2 155.965C427.2 154.231 427.853 152.714 429.15 151.414C430.523 150.042 432.728 149.211 435.762 148.922H449.415C450.135 148.922 450.968 148.994 451.909 149.139C452.918 149.211 453.893 149.427 454.834 149.788C455.847 150.078 456.638 150.62 457.215 151.414C457.868 152.209 458.19 153.328 458.19 154.773C458.19 156.362 457.65 157.662 456.567 158.674C455.554 159.757 453.822 160.516 451.365 160.949ZM448.658 123.458C446.922 125.12 444.323 125.95 440.854 125.95C438.615 125.95 436.703 125.553 435.113 124.758C433.523 123.964 432.293 122.88 431.427 121.508C430.632 120.063 430.234 118.438 430.234 116.632C430.234 113.742 431.175 111.395 433.054 109.589C434.933 107.711 437.528 106.772 440.854 106.772C444.252 106.772 446.813 107.711 448.549 109.589C450.353 111.467 451.257 113.851 451.257 116.74C451.257 119.485 450.39 121.725 448.658 123.458ZM501.402 155.857C496.703 155.857 492.518 155.206 488.832 153.906C485.22 152.606 482.149 150.728 479.622 148.272C477.094 145.815 475.144 142.782 473.768 139.17C472.47 135.558 471.822 131.477 471.822 126.926C471.822 122.447 472.433 118.329 473.659 114.573C474.964 110.745 476.839 107.458 479.295 104.713C481.752 101.895 484.752 99.7282 488.288 98.2114C491.832 96.6941 495.837 95.9359 500.318 95.9359C504.653 95.9359 508.515 96.6581 511.909 98.103C515.307 99.4755 518.123 101.57 520.362 104.388C522.675 107.205 524.337 110.672 525.349 114.79C526.429 118.835 526.83 123.494 526.538 128.768L486.747 129.154C487.077 134.008 488.385 137.672 490.673 140.145C493.422 143.034 496.995 144.479 501.402 144.479C503.423 144.479 505.122 144.227 506.49 143.721C507.942 143.143 509.093 142.421 509.963 141.554C510.9 140.687 511.624 139.711 512.127 138.628C512.704 137.544 513.177 136.461 513.537 135.377L527.078 138.303C526.429 140.976 525.458 143.395 524.153 145.563C522.927 147.658 521.265 149.5 519.173 151.089C517.077 152.606 514.549 153.762 511.587 154.556C508.699 155.423 505.302 155.857 501.402 155.857ZM488.397 116.632C487.89 117.84 487.493 119.16 487.208 120.593L512.262 120.364C512.202 118.405 511.868 116.691 511.26 115.223C510.252 112.767 508.767 110.961 506.82 109.805C504.938 108.65 502.845 108.072 500.532 108.072C497.79 108.072 495.368 108.794 493.275 110.239C491.183 111.683 489.555 113.814 488.397 116.632Z" fill="#364153"/>
</g>
</svg>
