<svg fill="none" height="300" viewBox="0 0 600 300" width="600" xmlns="http://www.w3.org/2000/svg" xmlns:xlink="http://www.w3.org/1999/xlink"><clipPath id="a"><path d="m73 104h454v91h-454z"/></clipPath><g clip-path="url(#a)" fill="#364153"><path d="m416.095 123.857c7.724-.499 14.786 1.147 19.404 7.945.115-2.285.261-4.568.435-6.849 3.973-.031 7.947-.022 11.92.029l.002 49.063c-3.912.034-7.825.035-11.737.004l-.667-7.185c-.607.988-.938 1.521-1.676 2.402-.049.06-.096.121-.145.181-8.131 8.51-23.683 7.598-32.313.52-5.297-4.333-7.691-10.431-8.409-17.029-1.314-12.044 3.876-23.604 15.834-27.579 2.594-.863 4.61-1.232 7.352-1.502zm6.648 40.595c8.201-1.382 13.749-9.153 12.418-17.392-1.334-8.239-9.046-13.849-17.262-12.556-8.277 1.303-13.919 9.116-12.577 17.418 1.343 8.301 9.158 13.922 17.421 12.53z"/><path d="m249.963 123.857c7.867-.417 14.901 1.032 19.509 8.144.068-2.356.177-4.709.334-7.061l11.949-.008-.019 49.122c-3.907.029-7.813.026-11.722-.009-.249-2.467-.435-4.94-.552-7.417-.941 1.614-1.357 2.135-2.549 3.516-3.299 2.967-7.833 4.882-12.185 5.28-14.51 1.199-26.47-7.078-27.895-22.087-1.545-16.283 6.583-27.77 23.13-29.48zm6.72 40.592c8.183-1.395 13.715-9.152 12.392-17.377-1.324-8.226-9.009-13.84-17.213-12.578-8.299 1.277-13.971 9.098-12.632 17.416 1.339 8.319 9.175 13.949 17.453 12.539z"/><path d="m512.979 124.943c4.57-.052 9.28.001 13.86.002-1.119 1.965-3.353 7.391-4.387 9.722l-9.216 20.676c-5.427 12.879-11.75 26.426-17.459 39.245-4.354.131-9.361.023-13.759.003 3.057-6.238 6.686-14.849 9.463-21.319-6.555-16.143-13.657-32.186-20.232-48.326 4.739-.08 9.734-.005 14.492-.007l7.754 21.324c1.587 4.397 3.508 9.59 4.847 14.05 4.218-11.785 9.662-23.879 14.637-35.37z"/><path d="m290.186 124.921 12.538.021-.013 17.64c-.008 3.187.064 6.379.072 9.557.026 11.148 13.879 15.586 21.289 8.065 1.78-1.835 3.02-4.129 3.582-6.627.697-2.998.472-8.618.472-11.897l-.003-16.741 12.373.01c.154 5.546.014 11.786.014 17.386v31.823c-3.733.059-7.467.058-11.2-.005-.303-2.251-.539-4.595-.796-6.858-4.839 4.833-9.884 7.423-16.744 7.562-8.908.181-16.222-4.337-19.542-12.733-2.581-6.526-2.012-13.074-2.008-19.947.024-5.752.013-11.504-.034-17.256z"/><path d="m364.502 123.667c.034-.004.068-.009.102-.014 9.127-.452 15.562.61 22.6 6.324-2.23 2.64-4.64 5.321-6.921 7.933-3.477-2.99-7.161-4.227-11.64-4.352-3.466-.179-10.445.309-10.355 5.145.097 5.087 8.992 5.13 12.482 5.448 1.645.138 3.281.373 4.899.703 8.16 1.665 14.114 5.802 13.919 15.003-.123 9.019-7.762 14.191-15.866 15.419-3.228.489-5.788.536-9.067.42-8.554-.535-14.176-2.782-20.357-8.697 2.029-2.868 4.084-5.715 6.168-8.543.34.328.694.64 1.061.938 4.74 3.874 12.285 6.187 18.4 5.745 3.163-.229 8.066-2.843 7.306-6.54-1.095-5.311-11.512-4.155-15.62-5.208-3.969-1.016-7.29-1.663-10.604-4.285-5.705-4.188-6.607-12.936-2.179-18.411 3.816-4.716 9.867-6.355 15.672-7.028z"/><path d="m109.378 114.558c.192-.556.322-1.261.705-1.581 5.087.043 10.173.055 15.26.035 1.127 0 5.819-.063 6.557.095.245.399.216.557.254 1.041l.361.138c1.469 5.853 5.081 8.121 9.378 11.903 4.207 3.703 10.036 7.442 9.594 13.853-.476 6.893-7.586 10.566-12.057 14.854-4.137 3.894-6.583 5.557-7.008 11.606l-23.209-.005c.462-10.249 10.171-13.928 17.63-18.711 2.019-1.288 4.644-2.858 5.939-4.926 4.854-7.752-7.879-12.428-12.706-15.76-5.273-3.64-9.048-5.806-10.698-12.542z"/><path d="m206.504 123.668c7.868-.409 12.729.314 19.19 5.031-3.357 3.174-4.748 4.955-6.523 9.266-5.177-3.411-11.398-4.299-16.934-1.053-3.225 1.9-5.552 5.023-6.455 8.665-.344 1.336-.496 2.569-.497 3.944-.012 13.603 13.991 17.981 24.392 11.495 1.129 2.202 1.779 3.407 3.326 5.318 1.085 1.337 2.506 2.533 3.818 3.63-15.493 11.628-41.576 4.946-43.762-16.189-1.749-16.915 6.606-28.045 23.445-30.107z"/><path d="m455.001 104.384c4.126-.026 8.252-.023 12.376.009.134 9.677.006 19.682.004 29.383l-.012 40.261c-4.118.034-8.234.042-12.353.024-.14-7.745.008-15.959.008-23.738z"/><path d="m109.215 112.405 23.18.012c.041.532.131 1.369.12 1.869l-.361-.137c-.037-.485-.009-.643-.254-1.042-.737-.158-5.429-.095-6.556-.095-5.087.02-10.174.008-15.261-.035-.383.32-.513 1.025-.704 1.581z"/><path d="m92.1699 132.532 23.2061.013c-.507 15.539-24.3219 17.204-24.5918 26.908-.0576 1.678.5598 3.308 1.713 4.524 6.3851 6.69 22.8428 10.2 22.8758 22.643-7.708.009-15.545-.061-23.2413.03-.2225-10.263-12.899-14.037-17.5841-21.941-.7924-1.337-1.1472-2.748-1.5476-4.227v-1.857c.1596-.551.3164-1.124.4982-1.666 3.3581-10.014 18.228-12.925 18.6717-24.427z"/></g></svg>