<svg width="600" height="300" viewBox="0 0 600 300" fill="none" xmlns="http://www.w3.org/2000/svg">
<mask id="mask0_1904_3370" style="mask-type:luminance" maskUnits="userSpaceOnUse" x="174" y="81" width="252" height="135">
<path d="M426 81H174V216H426V81Z" fill="white"/>
</mask>
<g mask="url(#mask0_1904_3370)">
<path fill-rule="evenodd" clip-rule="evenodd" d="M273.063 81.2358L253.822 81L252.43 191.49L271.672 191.726L273.063 81.2358ZM231.015 136.64L246.817 127.266C243.667 121.877 233.033 110.668 215.693 110.668C190.689 110.668 174 127.137 174 147.908C174 172.272 191.057 187.244 211.956 187.244C241.37 187.244 249.464 165.921 249.464 165.921L232.563 159.283C230.659 162.881 224.224 170.078 213.718 170.078C197.863 170.078 192.896 158.342 192.896 148.864C192.896 139.385 198.397 127.793 213.398 127.793C224.982 127.793 229.253 133.954 231.015 136.64ZM281.272 135.974L297.493 142.806C298.927 138.97 302.817 131.636 311.595 131.636C323.844 131.636 324.477 140.707 324.783 145.059L324.786 145.096C310.545 145.096 280.678 147.457 280.678 169.276C280.678 190.724 299.333 190.711 304.146 190.708H304.317C315.714 190.708 322.512 185.773 327.969 180.09C329.82 183.206 333.522 189.438 343.359 189.438C351.231 189.438 356.682 185.6 358.425 183.681L353.286 169.815C349.053 172.948 344.361 174.941 344.361 158.404V157.95C344.361 149.908 344.361 141.731 342.783 136.081C338.274 119.95 324.003 114.43 311.595 114.43C291.659 114.43 282.142 128.792 281.272 135.974ZM325.494 159.6C325.494 167.423 316.872 175.246 307.863 175.246C301.317 175.246 300.009 171.146 300.009 168.183C300.009 160.614 311.958 160.169 320.685 159.844C322.464 159.778 324.111 159.716 325.494 159.6ZM344.19 109.873L365.133 111.733L381.471 162.762L405.978 115.452L426.501 116.691L375.189 215.65L355.92 213.79L370.581 185.487L344.19 109.873Z" fill="#364153"/>
</g>
</svg>
