<svg width="600" height="300" viewBox="0 0 600 300" fill="none" xmlns="http://www.w3.org/2000/svg">
<path fill-rule="evenodd" clip-rule="evenodd" d="M338.811 86.2253L320.743 86L319.435 191.579L337.504 191.805L338.811 86.2253ZM299.327 139.167L314.166 130.209C311.208 125.06 301.222 114.349 284.939 114.349C261.459 114.349 245.787 130.086 245.787 149.934C245.787 173.215 261.804 187.522 281.43 187.522C309.05 187.522 316.651 167.146 316.651 167.146L300.78 160.803C298.993 164.242 292.95 171.118 283.085 171.118C268.196 171.118 263.531 159.905 263.531 150.847C263.531 141.79 268.697 130.713 282.783 130.713C293.662 130.713 297.673 136.6 299.327 139.167ZM346.523 138.53L361.755 145.059C363.102 141.393 366.753 134.386 374.997 134.386C386.5 134.386 387.096 143.053 387.382 147.212L387.384 147.247C374.009 147.247 345.966 149.504 345.966 170.352C345.966 190.848 363.483 190.835 368.004 190.832H368.163C378.865 190.832 385.248 186.116 390.372 180.685C392.11 183.663 395.589 189.619 404.826 189.619C412.219 189.619 417.337 185.951 418.973 184.117L414.149 170.868C410.171 173.861 405.766 175.766 405.766 159.964V159.53C405.766 151.846 405.768 144.032 404.285 138.633C400.052 123.218 386.649 117.944 374.997 117.944C356.278 117.944 347.341 131.668 346.523 138.53ZM388.051 161.106C388.051 168.582 379.952 176.057 371.492 176.057C365.346 176.057 364.118 172.139 364.118 169.307C364.118 162.075 375.338 161.65 383.532 161.339C385.205 161.276 386.751 161.217 388.051 161.106ZM405.603 113.589L425.271 115.366L440.611 164.128L463.623 118.92L482.897 120.105L434.712 214.665L416.617 212.888L430.385 185.843L405.603 113.589Z" fill="#969CA5"/>
<path d="M128.287 150.5C128.287 127.058 143.931 108.241 163.018 108.241H202.791V127.399H163.018C152.994 127.399 145.093 137.884 145.093 150.5C145.093 163.117 152.994 173.601 163.018 173.601H202.791V192.759H163.018C143.931 192.759 128.287 173.942 128.287 150.5Z" fill="#969CA5"/>
<path d="M147.135 150.5C147.135 162.046 154.027 171.407 162.53 171.407H203.013V129.593H162.53C154.027 129.593 147.135 138.953 147.135 150.5Z" fill="#969CA5"/>
<path d="M107 150.5C107 115.303 132.142 86.8896 163.018 86.8896H202.791V106.029H163.018C142.508 106.029 126.046 126.04 126.046 150.5C126.046 174.96 142.508 194.971 163.018 194.971H202.791V214.11H163.018C132.142 214.11 107 185.697 107 150.5Z" fill="#969CA5"/>
</svg>
