<svg fill="none" height="300" viewBox="0 0 600 300" width="600" xmlns="http://www.w3.org/2000/svg"><path d="m172.893 108.175c9.561 0 16.072 6.086 16.072 13.572v.823h-6.429v-1.728c0-3.702-1.73-6.087-6.015-6.087h-7.829c-3.627 0-6.511 2.962-6.511 6.498v11.68c0 3.619 2.884 6.581 6.511 6.581h7.829c4.368 0 6.098-1.893 6.098-6.169v-1.645h6.428v.987c0 6.744-6.264 13.407-16.154 13.407-9.891 0-18.049-8.473-18.049-19.001-.002-10.365 8.158-18.918 18.049-18.918zm-15.578 71.066 6.428-.083v2.796c0 1.892 1.318 3.208 3.297 3.208h12.362c1.979 0 3.297-1.316 3.297-3.208v-.823c0-1.892-.907-2.467-2.308-2.878l-15.329-4.606c-3.709-1.152-7.088-3.702-7.088-9.048v-.165c0-6.004 5.686-10.446 15.164-10.446 10.303 0 15.659 4.935 15.659 12.009v.575h-6.428v-2.715c0-1.892-1.236-3.207-3.296-3.207h-11.702c-1.979 0-3.297 1.315-3.297 3.207v1.398c0 1.645.824 2.385 2.72 2.962l13.6 4.03c5.192 1.564 8.406 3.866 8.406 9.213 0 5.923-5.686 10.363-15.329 10.363-10.797 0-16.155-5.265-16.155-12.009zm41.374-52.149c0-10.364 8.16-18.919 18.049-18.919 9.973 0 18.049 8.554 18.049 18.919 0 10.528-8.077 19-18.049 19-9.89 0-18.049-8.472-18.049-19zm17.966 27.062c9.974 0 17.968 8.472 17.968 18.835 0 4.194-1.813 8.636-4.698 12.009-.165.165-.165.494 0 .658l4.286 4.688c.083.083.083.247.083.329 0 .246-.166.494-.496.494h-17.143c-9.89 0-17.967-8.473-17.967-18.178.001-10.363 8.079-18.835 17.967-18.835zm-4.285 30.515h9.149l-4.945-5.675 4.039-3.619 4.697 5.1c.247.246.577.412.908.412.659 0 1.237-.495 1.237-1.235v-12.503c0-3.619-2.885-6.58-6.511-6.58h-8.571c-3.626 0-6.511 2.961-6.511 6.58v10.94c-.003 3.619 2.882 6.58 6.508 6.58zm.166-45.157h8.489c3.626 0 6.511-2.961 6.511-6.58v-11.68c0-3.537-2.885-6.498-6.511-6.498h-8.489c-3.627 0-6.511 2.961-6.511 6.498v11.68c0 3.619 2.884 6.58 6.511 6.58zm33.708-30.597h5.439l14.259 21.057c.659.986 1.483 1.398 2.225 1.398.989 0 1.813-.74 1.813-2.056l-.082-20.399h6.098v36.437h-5.439l-14.423-21.222c-.576-.905-1.401-1.315-2.142-1.315-.989 0-1.814.823-1.814 2.056v20.481h-5.934zm39.149 0h34.698v4.935h-10.632c-2.142 0-3.709 1.563-3.709 3.701v27.801h-5.934v-27.801c0-2.138-1.567-3.701-3.709-3.701h-10.715zm45.082 0h25.88v4.935h-16.319c-2.143 0-3.709 1.563-3.709 3.701v2.879c0 2.139 1.566 3.702 3.709 3.702h14.093v4.605h-17.721v11.681h20.852v4.934h-26.785zm0 45.814h17.72c6.264 0 10.22 4.605 10.22 9.705 0 3.454-1.814 5.594-3.05 6.744-.577.575-.908.987-.908 1.481 0 .411.33.905.825 1.315 1.647 1.316 2.472 2.879 2.472 5.346v11.844h-6.016l.083-12.009c0-1.975-1.318-3.29-3.297-3.29h-8.902c-1.896 0-3.214 1.315-3.214 3.29v12.009h-5.934zm9.313 16.533h5.357c3.791 0 6.757-1.809 6.757-6.004 0-3.947-2.967-5.593-6.757-5.593h-5.357c-1.896 0-3.38 1.48-3.38 3.454v4.688c0 1.892 1.484 3.455 3.38 3.455zm31.731-62.347h5.439l14.259 21.057c.659.986 1.484 1.398 2.225 1.398.989 0 1.814-.74 1.814-2.056l-.083-20.399h6.098v36.437h-5.439l-14.423-21.222c-.576-.905-1.401-1.315-2.142-1.315-.989 0-1.814.823-1.814 2.056v20.481h-5.934zm38.901 0h35.029v4.935h-10.964c-2.142 0-3.708 1.563-3.708 3.701v27.801h-5.933v-27.801c0-2.138-1.569-3.701-3.711-3.701h-10.716zm-38.901 45.814h25.879v4.934h-16.318c-2.143 0-3.709 1.563-3.709 3.702v2.879c0 2.138 1.566 3.701 3.709 3.701h14.093v4.606h-17.72v11.68h20.853v4.934h-26.786zm-65.77.001h-5.769l-15.082 36.435h6.264l3.79-9.211h15.824l3.79 9.211h6.264zm-8.901 22.619 4.203-10.858c.825-2.055 2.802-2.055 3.626 0l4.203 10.858zm-50.603-22.619h5.933v24.757c0 4.031 3.297 5.675 5.933 5.675h5.44c3.379 0 6.511-1.81 6.511-5.675v-24.757h5.933v23.77c0 7.321-5.769 13.242-14.916 13.242-9.149 0-14.835-5.921-14.835-13.242z" fill="#364153"/></svg>