<svg width="117px" height="24px" viewBox="0 0 117 24" version="1.1" xmlns="http://www.w3.org/2000/svg" xmlns:xlink="http://www.w3.org/1999/xlink">
 <title>
  Criteo-Logo-White Copy
 </title>
 <g id="v5" stroke="none" stroke-width="1" fill="none" fill-rule="evenodd">
  <g id="Homepage-Revamp-v5" transform="translate(-165.000000, -5110.000000)" fill="#364153" fill-rule="nonzero">
   <g id="Criteo-Logo-White-Copy" transform="translate(165.000000, 5110.000000)">
    <path d="M42.8315465,21.2642505 L38.8519924,15.3620778 C38.70457,15.1438595 38.6504842,14.875769 38.7017702,14.6174623 C38.7530563,14.3591556 38.9054594,14.1320629 39.1250664,13.9867173 C40.9477799,12.7656546 42.0911385,10.5810626 42.0911385,8.0612334 C42.0911385,3.74644213 38.4812334,0.333017078 34.0332353,0.333017078 L24.4712049,0.333017078 C24.2976077,0.333017078 24.1311366,0.402053967 24.008489,0.524909854 C23.8858413,0.64776574 23.8170867,0.814353632 23.8173771,0.987950664 L23.8173771,5.17064516 C23.8164991,5.34297105 23.9506111,5.4858613 24.1226471,5.49589184 C27.358463,5.67017078 29.9571063,8.45974383 29.9571063,11.642277 C29.9571063,14.8547818 27.3307116,17.5844118 24.1226471,17.7575806 C23.9506111,17.7676112 23.8164991,17.9105014 23.8173771,18.0828273 L23.8173771,22.1400854 C23.8173771,22.5011822 24.1101082,22.7939089 24.4712049,22.7939089 L30.0270398,22.7939089 C30.3881366,22.7939089 30.6808634,22.5011822 30.6808634,22.1400854 L30.6808634,20.1852751 C30.6808634,18.7921537 31.8841651,18.4546964 32.8044023,19.5469924 L35.1355218,22.4653321 C35.3449698,22.6772433 35.6301542,22.7970687 35.9281025,22.7983627 L42.0156546,22.7983627 C42.3803079,22.8002592 42.7159474,22.599804 42.8871763,22.277847 C43.0584053,21.95589 43.0369812,21.5655348 42.8315465,21.2642505 Z" id="Path">
    </path>
    <path d="M45.8797628,0.321916509 L50.6951898,0.321916509 C51.056466,0.322528842 51.3490133,0.615573324 51.3490133,0.976850095 L51.3490133,22.132315 C51.3490133,22.4934118 51.0562865,22.7861385 50.6951898,22.7861385 L45.8797628,22.7861385 C45.518486,22.7861385 45.2254416,22.4935912 45.2248292,22.132315 L45.2248292,0.976850095 C45.2248292,0.615140263 45.518053,0.321916509 45.8797628,0.321916509 Z" id="Path">
    </path>
    <path d="M59.1660342,5.8655408 L54.0919639,5.8655408 C53.7330236,5.86555373 53.4411874,5.57619492 53.4381404,5.21726755 L53.4381404,0.976850095 C53.4381404,0.615573324 53.7306877,0.322528842 54.0919639,0.321916509 L70.8971157,0.321916509 C71.258392,0.322528842 71.5509393,0.615573324 71.5509393,0.976850095 L71.5509393,5.21726755 C71.5509393,5.57836432 71.2582125,5.87109108 70.8971157,5.87109108 L65.9473719,5.87109108 C65.768195,5.87465102 65.6239667,6.01936986 65.6210152,6.19855787 L65.6210152,22.132315 C65.6210152,22.4934118 65.3282884,22.7861385 64.9671917,22.7861385 L60.1517647,22.7861385 C59.7904879,22.7861385 59.4974435,22.4935912 59.4968311,22.132315 L59.4968311,6.19300759 C59.4938197,6.01211907 59.3469439,5.86672182 59.1660342,5.8655408 Z" id="Path">
    </path>
    <path d="M74.3871347,0.321916509 L89.6448672,0.321916509 C90.0061434,0.322528842 90.2986912,0.615573324 90.2986907,0.976850095 L90.2986907,5.17952562 C90.2986907,5.3529304 90.2298059,5.51923297 90.1071902,5.64184867 C89.9845745,5.76446436 89.818272,5.83334915 89.6448672,5.83334915 L80.183852,5.83334915 C79.9999317,5.83334915 79.8508349,5.98244597 79.8508349,6.16636622 L79.8508349,8.60849146 C79.8508166,8.69621308 79.8861133,8.78024873 79.9487652,8.8416476 C80.0114171,8.90304647 80.0961486,8.93663844 80.183852,8.9348482 L88.9677324,8.9348482 C89.3290087,8.93546053 89.6215565,9.22850501 89.621556,9.58978178 L89.621556,13.3095825 C89.621556,13.6706793 89.3288292,13.9634061 88.9677324,13.9634061 L80.183852,13.9634061 C80.0025017,13.9633698 79.8544619,14.1084488 79.8508349,14.2897628 L79.8508349,17.0526945 C79.8544619,17.2340085 80.0025017,17.3790875 80.183852,17.3790512 L89.9024004,17.3790512 C90.2636766,17.3796636 90.5562239,17.672708 90.5562239,18.0339848 L90.5562239,22.1411954 C90.5562239,22.5022922 90.2634971,22.795019 89.9024004,22.795019 L74.3871347,22.795019 C74.026038,22.795019 73.7333103,22.5022922 73.7333103,22.1411954 L73.7333103,0.976850095 C73.7330165,0.803253063 73.8017711,0.636665171 73.9244188,0.513809284 C74.0470664,0.390953398 74.2135374,0.321916509 74.3871347,0.321916509 Z" id="Path">
    </path>
    <path d="M104.534061,0 C97.6694687,0 92.1580361,5.21726755 92.1580361,11.6345066 C92.1580361,18.0517457 97.6694687,23.2379317 104.534061,23.2379317 C111.430844,23.2379317 116.942277,18.0484156 116.942277,11.6345066 C116.942277,5.22059772 111.430844,0 104.534061,0 Z M104.534061,17.7609368 C102.908481,17.7656476 101.34813,17.1219085 100.198771,15.9723406 C99.0494115,14.8227728 98.4059553,13.2623061 98.4109574,11.6367268 C98.4109574,8.31765655 101.150607,5.4814611 104.534061,5.4814611 C107.917514,5.4814611 110.690445,8.3498482 110.690445,11.6367268 C110.695987,14.9546869 107.897533,17.7609368 104.539611,17.7609368 L104.534061,17.7609368 Z" id="Shape">
    </path>
    <path d="M12.2472581,0 C15.7417173,0 18.8698577,1.49191651 21.1055123,3.8707685 C21.2268251,4.00244713 21.2889405,4.17804972 21.2774066,4.35671983 C21.2658728,4.53538994 21.1816953,4.70154873 21.0444592,4.816537 L17.8719165,7.47512334 C17.6133522,7.68859223 17.2353237,7.67230203 16.9960816,7.4373814 C15.7284644,6.19332012 14.0266516,5.49109841 12.2505882,5.47924099 C8.86602467,5.47924099 6.12640417,8.05790323 6.12640417,11.5701233 C6.12640417,15.0823435 8.86602467,17.6299241 12.2505882,17.6299241 C14.0265576,17.6176009 15.7282026,16.9154484 16.9960816,15.6717837 C17.2350324,15.4365312 17.6130737,15.4197613 17.8719165,15.6329317 L21.0466793,18.291518 C21.1843548,18.4061663 21.2689522,18.5722878 21.2807027,18.7510634 C21.2924532,18.9298389 21.2303273,19.1056043 21.1088425,19.2372865 C18.8731879,21.6161385 15.7450474,23.108055 12.2505882,23.108055 C5.47924099,23.108055 0,18.2415655 0,11.5701233 C0,4.89868121 5.47924099,0 12.2472581,0 Z" id="Path">
    </path>
   </g>
  </g>
 </g>
</svg>