<svg fill="none" height="300" viewBox="0 0 600 300" width="600" xmlns="http://www.w3.org/2000/svg"><path d="m168.273 182.833h-8.225l15.59-65.722h8.142l-15.498 65.722zm38.259 0h-27.468l15.701-65.722h8.225l-13.963 58.367h19.226zm21.543-25.414-5.934 25.414h-8.327l6.028-25.605-4.59-40.117h8.328l2.392 32.024 17.891-32.024h9.281zm184.209-32.953h-12.057l-13.028 58.367h-8.327l13.028-58.367h-13.207l1.822-7.355h33.591zm-.271 58.367h-7.374l14.749-65.722h8.131l-14.645 65.722zm53.754-47.233-7.272 32.248c-.987 4.564-2.367 7.827-4.155 10.156-2.725 3.635-7.187 5.409-13.223 5.409-9.955 0-15.659-4.291-15.77-11.648-.034-2.145.23-4.1 1.031-7.637l7.271-32.248c2.418-10.909 8.089-15.855 17.95-15.855 9.859 0 14.994 4.474 15.105 11.929.034 2.146-.23 4.382-.946 7.637h.009zm-14.543-12.674c-2.87 0-5.058.928-6.557 2.791-1.226 1.491-1.857 3.447-2.767 7.266l-7.272 32.431c-.451 1.953-.707 3.817-.689 5.217.059 3.919 2.673 6.055 7.169 6.055 4.785 0 7.331-2.7 8.856-9.41l7.365-32.058c.715-3.172.987-4.662.961-6.153-.059-4.01-2.579-6.155-7.084-6.155h.009zm-191.704-5.749h13.785l3.789 37.684c.682 7.264 1.065 13.129 1.559 21.064h.195c3.202-7.835 5.927-13.784 9.511-21.066l18.818-37.682h13.982l-7.468 65.631h-9.127l4.759-39.189c.876-7.082 1.847-13.13 3.015-20.394l-.197-.1c-3.303 7.082-6.215 13.312-9.799 20.494l-19.22 39.189h-11.749l-3.687-39.189c-.681-7.082-1.167-13.412-1.652-20.394h-.188c-1.643 6.982-3.202 13.221-5.245 20.394l-10.677 39.189h-9.223l18.819-65.628zm116.161 32.778c-4.931 25.207-15.659 34.045-32.579 34.045-13.343 0-20.692-5.641-20.692-20.13 0-4.332.478-8.565 1.551-13.825 5.126-25.198 15.668-34.045 32.68-34.045 13.241 0 20.691 5.641 20.691 20.13 0 4.332-.579 8.565-1.644 13.825zm-20.113-26.988c-11.019 0-18.46 7.057-22.522 27.268-1.065 4.698-1.643 9.311-1.643 13.08 0 9.775 4.249 13.727 12.661 13.727 11.121 0 18.46-7.057 22.624-27.27.97-4.696 1.644-9.31 1.644-13.08 0-9.691-4.249-13.725-12.764-13.725zm-250.354-5.872c-1.575 0-15.3603.224-15.3603.224l-13.8537 65.622h6.5303v-.008c3.7214-.034 5.1013.042 8.736.042 16.9887 0 27.7417-7.531 32.6887-32.656h.009c1.065-5.242 1.652-9.457 1.652-13.775 0-14.446-7.101-19.449-20.402-19.449zm10.449 33.201c-4.181 20.144-10.875 24.751-22.0372 24.808-3.9006.017-4.7861-.016-7.7399-.059l10.6011-50.635v.018c3.3212-.075 4.104-.108 7.153-.075 8.548.073 13.675 3.263 13.675 12.922 0 3.752-.672 8.351-1.643 13.03zm400.001-33.201-13.164 58.871-9.775-58.871h-13.759l-14.962 65.763h8.652l13.155-59.882 9.698 59.882h13.616l14.875-65.763zm-368.335.02-27.365 65.724h8.795l4.982-12.285 3.159-7.63 1.115-2.949h9.23l-.298 2.949-.672 7.637-.954 12.285h8.328l5.156-65.731h-11.483zm-6.394 35.131 10.601-29.164-3.492 29.166z" fill="#364153"/></svg>