<svg fill="none" height="300" viewBox="0 -17.25 149 74.5" width="600" xmlns="http://www.w3.org/2000/svg"><g fill="#364153"><path d="m33.222 15.6273-6.5158-3.8077v-5.32265l11.0553 6.45985v12.9381l-4.5395-2.6525z"/><path d="m5.18248 24.3788 6.51572 3.8073v5.3235l-11.055622-6.4599v-12.9381l4.539902 2.6526z"/><path d="m25.7179 13.535-17.58654 10.2763 4.55474 2.6614 17.5867-10.2761z"/><path d="m31.2458 23.2416-17.5714 10.2676v-5.3231l17.5714-10.2668z"/><path d="m25.7183 34.0866-4.5551-2.6614 11.0709-6.469 4.5554 2.6617z"/><path d="m24.73 6.49697-17.57132 10.26753v5.3223l17.57132-10.2672z"/><path d="m6.17004 15.0503 11.07086-6.46902-4.5548-2.66136-11.07087 6.46868z"/><path d="m137.789 15.736h2.808v1.584c.368-.576.856-1.04 1.464-1.392.624-.368 1.352-.552 2.184-.552s1.552.176 2.16.528c.624.336 1.096.84 1.416 1.512.336.656.504 1.456.504 2.4v8.184h-2.88v-7.944c0-.704-.168-1.264-.504-1.68-.32-.432-.832-.648-1.536-.648-.48 0-.928.12-1.344.36s-.752.624-1.008 1.152c-.256.512-.384 1.152-.384 1.92v6.84h-2.88z"/><path d="m128.989 28.36c-1.184 0-2.256-.272-3.216-.816-.96-.56-1.712-1.336-2.256-2.328s-.816-2.112-.816-3.36c0-1.232.272-2.344.816-3.336s1.296-1.76 2.256-2.304c.96-.56 2.032-.84 3.216-.84 1.168 0 2.232.28 3.192.84.96.544 1.712 1.312 2.256 2.304s.816 2.104.816 3.336c0 1.248-.272 2.368-.816 3.36s-1.296 1.768-2.256 2.328c-.96.544-2.024.816-3.192.816zm0-2.328c.672 0 1.256-.16 1.752-.48.496-.3201.88-.7921 1.152-1.416.288-.6401.432-1.4.432-2.28 0-.864-.144-1.608-.432-2.232-.272-.624-.656-1.096-1.152-1.416-.496-.336-1.08-.504-1.752-.504s-1.264.168-1.776.504c-.496.32-.888.792-1.176 1.416-.272.624-.408 1.368-.408 2.232 0 .88.136 1.6399.408 2.28.288.6239.68 1.0959 1.176 1.416.512.32 1.104.48 1.776.48z"/><path d="m114.148 33.04c-1.616 0-2.888-.32-3.816-.96-.912-.64-1.456-1.576-1.632-2.808h2.976c.128.528.4.92.816 1.176.432.256 1.016.384 1.752.384 1.008 0 1.768-.256 2.28-.768s.768-1.256.768-2.232v-2.064c-.32.576-.8 1.04-1.44 1.392-.624.352-1.368.528-2.232.528-1.008 0-1.928-.232-2.76-.696-.832-.48-1.488-1.184-1.968-2.112s-.72-2.04-.72-3.336c0-1.28.24-2.384.72-3.312s1.136-1.632 1.968-2.112 1.752-.72 2.76-.72c.832 0 1.576.184 2.232.552.656.352 1.136.808 1.44 1.368v-1.584h2.856v11.976c0 1.024-.216 1.936-.648 2.736-.416.8-1.072 1.432-1.968 1.896s-2.024.696-3.384.696zm.048-7.56c.624 0 1.168-.168 1.632-.504.48-.336.848-.8 1.104-1.392.272-.608.408-1.288.408-2.04 0-.768-.136-1.448-.408-2.04-.256-.592-.624-1.056-1.104-1.392-.464-.336-1.008-.504-1.632-.504-.64 0-1.192.16-1.656.48s-.816.776-1.056 1.368c-.24.576-.36 1.272-.36 2.088 0 1.232.264 2.2.792 2.904.528.688 1.288 1.032 2.28 1.032z"/><path d="m98.9908 28.336c-1.232 0-2.272-.32-3.12-.96-.832-.656-1.248-1.576-1.248-2.76 0-.912.248-1.624.744-2.136.512-.528 1.104-.896 1.776-1.104s1.456-.376 2.352-.504l.8882-.096c.624-.08 1.104-.176 1.44-.288.352-.112.608-.272.768-.48.176-.208.264-.504.264-.888 0-.512-.192-.912-.576-1.2-.368-.304-.896-.456-1.584-.456-.672 0-1.2162.136-1.6322.408-.416.256-.672.6-.768 1.032h-3.144c.144-.688.448-1.296.912-1.824.48-.528 1.112-.944 1.896-1.248s1.704-.456 2.7602-.456c1.12 0 2.048.152 2.784.456.736.288 1.28.72 1.632 1.296.368.576.552 1.272.552 2.088v5.832c0 .48.04.984.12 1.512.08.512.176.992.288 1.44h-2.856c-.128-.576-.216-1.112-.264-1.608-.336.544-.848 1.008-1.536 1.392-.672.368-1.4882.552-2.4482.552zm.792-2.208c.6082 0 1.1442-.136 1.6082-.408s.824-.648 1.08-1.128c.256-.496.384-1.04.384-1.632v-1.32c-.208.272-.496.488-.864.648-.352.144-.888.272-1.608.384-.9602.16-1.6562.36-2.0882.6s-.648.656-.648 1.248c0 .512.2.912.6 1.2.4.272.912.408 1.536.408z"/><path d="m87.504 28.36c-1.168 0-2.216-.264-3.144-.792s-1.656-1.272-2.184-2.232c-.512-.976-.768-2.128-.768-3.456 0-1.28.264-2.408.792-3.384.528-.992 1.256-1.752 2.184-2.28.944-.544 2.008-.816 3.192-.816 1.024 0 1.928.192 2.712.576.8.368 1.432.872 1.896 1.512.48.64.784 1.352.912 2.136h-2.856c-.192-.576-.512-1.032-.96-1.368-.432-.336-.984-.504-1.656-.504-.624 0-1.176.16-1.656.48s-.864.792-1.152 1.416c-.272.624-.408 1.368-.408 2.232 0 .88.136 1.632.408 2.256.288.6079.664 1.072 1.128 1.392.48.304 1.024.456 1.632.456.704 0 1.272-.168 1.704-.504.448-.336.776-.784.984-1.344h2.832c-.112.7679-.408 1.48-.888 2.136-.48.64-1.128 1.152-1.944 1.536-.8.368-1.72.552-2.76.552z"/><path d="m73.7535 28.36c-1.296 0-2.424-.264-3.384-.792-.96-.544-1.704-1.304-2.232-2.28-.512-.976-.768-2.112-.768-3.408 0-1.248.28-2.368.84-3.36s1.312-1.76 2.256-2.304c.944-.56 1.968-.84 3.072-.84 1.232 0 2.304.288 3.216.864.928.576 1.648 1.416 2.16 2.52.512 1.088.776 2.4.792 3.936h-10.68v-2.112h8.904l-1.008.912c-.016-1.152-.312-2.08-.888-2.784s-1.376-1.056-2.4-1.056c-.624 0-1.192.16-1.704.48-.496.304-.896.736-1.2 1.296-.288.544-.432 1.144-.432 1.8v1.128c0 .72.152 1.368.456 1.944.304.56.712 1 1.224 1.32.528.32 1.136.48 1.824.48.64 0 1.168-.12 1.584-.36.432-.24.752-.56.96-.96h3.024c-.32 1.088-.976 1.96-1.968 2.616-.976.64-2.192.96-3.648.96z"/><path d="m51.2012 11.2h5.52c1.68 0 3.192.352 4.536 1.056s2.392 1.696 3.144 2.976c.768 1.264 1.152 2.72 1.152 4.368s-.384 3.112-1.152 4.392c-.752 1.264-1.8 2.248-3.144 2.952s-2.856 1.056-4.536 1.056h-5.52zm5.28 14.232c1.264 0 2.344-.224 3.24-.672.912-.464 1.6-1.128 2.064-1.992.48-.88.72-1.936.72-3.168s-.24-2.28-.72-3.144c-.464-.88-1.152-1.544-2.064-1.992-.896-.464-1.976-.696-3.24-.696h-2.256v11.664z"/></g></svg>