<svg width="600" height="300" viewBox="0 0 600 300" fill="none" xmlns="http://www.w3.org/2000/svg">
<path fill-rule="evenodd" clip-rule="evenodd" d="M95.9998 184.975C95.9998 185.605 96.5109 186.116 97.1413 186.116H128.515C136.158 186.116 142.946 184.674 148.851 181.756L148.861 181.751C154.756 178.769 159.39 174.619 162.729 169.303L162.733 169.297C166.083 163.896 167.739 157.598 167.739 150.444C167.739 143.227 166.084 136.925 162.729 131.585C159.389 126.268 154.754 122.15 148.856 119.233C142.95 116.247 136.16 114.772 128.515 114.772H97.1413C96.5109 114.772 95.9998 115.283 95.9998 115.913V184.975ZM146.573 161.208L146.565 161.223C144.837 164.247 142.372 166.594 139.141 168.273C135.98 169.883 132.187 170.711 127.726 170.711H114.266V130.177H127.726C132.183 130.177 135.971 131.036 139.129 132.708L139.141 132.714L139.153 132.72C142.378 134.332 144.839 136.644 146.565 139.665L146.571 139.675L146.579 139.688C148.359 142.635 149.276 146.204 149.276 150.444C149.276 154.613 148.361 158.188 146.573 161.208Z" fill="#969CA5"/>
<path d="M181.713 184.975C181.713 185.605 182.224 186.116 182.854 186.116H198.837C199.468 186.116 199.979 185.605 199.979 184.975V115.913C199.979 115.283 199.468 114.772 198.837 114.772C189.379 114.772 181.71 122.437 181.709 131.896C181.708 149.589 181.713 167.282 181.713 184.975Z" fill="#969CA5"/>
<path fill-rule="evenodd" clip-rule="evenodd" d="M216.345 184.975C216.345 185.605 216.856 186.116 217.487 186.116H248.86C256.503 186.116 263.292 184.674 269.197 181.756L269.206 181.751C275.102 178.769 279.735 174.619 283.075 169.303L283.079 169.297C286.429 163.896 288.084 157.598 288.084 150.444C288.084 143.227 286.43 136.925 283.075 131.585C279.735 126.268 275.1 122.15 269.201 119.233C263.295 116.247 256.505 114.772 248.86 114.772H217.487C216.856 114.772 216.345 115.283 216.345 115.913V184.975ZM259.498 132.72C262.723 134.332 265.184 136.644 266.91 139.665L266.916 139.675L266.924 139.688C268.705 142.635 269.621 146.204 269.621 150.444C269.621 154.613 268.707 158.188 266.919 161.208L266.91 161.223C265.182 164.247 262.718 166.594 259.486 168.273C256.325 169.883 252.532 170.711 248.071 170.711H234.611V130.177H248.071C252.528 130.177 256.316 131.036 259.475 132.708L259.486 132.714L259.498 132.72Z" fill="#969CA5"/>
<path fill-rule="evenodd" clip-rule="evenodd" d="M323.611 184.014L323.617 184.017C328.35 185.817 333.469 186.711 338.962 186.711C344.391 186.711 349.417 185.816 354.025 184.013C358.678 182.218 362.719 179.716 366.132 176.503C369.608 173.228 372.317 169.381 374.254 164.973L374.257 164.967C376.198 160.48 377.164 155.635 377.164 150.444C377.164 145.193 376.2 140.376 374.252 136.009C372.317 131.604 369.61 127.76 366.137 124.486C362.724 121.207 358.681 118.671 354.024 116.875C349.414 115.071 344.356 114.177 338.865 114.177C333.435 114.177 328.379 115.072 323.708 116.874C319.05 118.671 314.977 121.206 311.5 124.482C308.024 127.758 305.316 131.604 303.379 136.012L303.373 136.026C301.497 140.449 300.566 145.259 300.566 150.444C300.566 155.629 301.497 160.44 303.373 164.862L303.379 164.876C305.314 169.279 307.986 173.123 311.395 176.398L311.403 176.406C314.88 179.682 318.953 182.218 323.611 184.014ZM346.77 169.53L346.76 169.534C344.396 170.504 341.769 170.998 338.865 170.998C335.962 170.998 333.299 170.505 330.863 169.53C328.425 168.555 326.298 167.157 324.474 165.335C322.715 163.513 321.311 161.351 320.266 158.837C319.291 156.27 318.798 153.476 318.798 150.444C318.798 147.342 319.293 144.551 320.265 142.055C321.307 139.545 322.741 137.384 324.564 135.56C326.394 133.731 328.493 132.331 330.867 131.356C333.302 130.383 335.964 129.89 338.865 129.89C341.768 129.89 344.431 130.384 346.867 131.358C349.305 132.333 351.395 133.729 353.152 135.546L353.166 135.56C354.986 137.381 356.386 139.538 357.364 142.044C357.367 142.052 357.37 142.059 357.373 142.067C358.406 144.559 358.932 147.346 358.932 150.444C358.932 153.542 358.406 156.329 357.373 158.821C357.37 158.829 357.367 158.836 357.364 158.844C356.386 161.35 354.986 163.507 353.166 165.328C351.34 167.154 349.211 168.554 346.77 169.53Z" fill="#969CA5"/>
<path d="M389.641 184.975C389.641 185.605 390.151 186.116 390.78 186.116H405.777C406.407 186.116 406.92 185.605 406.92 184.975V148.491L425.026 178.267C425.233 178.607 425.603 178.815 426.002 178.815H433.204C433.606 178.815 433.979 178.603 434.186 178.258L452.406 147.658L452.485 184.977C452.488 185.606 452.998 186.116 453.627 186.116H468.624C468.927 186.116 469.218 185.995 469.431 185.781C469.647 185.566 469.766 185.274 469.763 184.971V115.91C469.763 115.281 469.253 114.772 468.624 114.772H455.306C454.901 114.772 454.528 114.984 454.324 115.331L429.861 156.572L404.979 115.324C404.772 114.981 404.402 114.772 404.002 114.772H390.78C390.151 114.772 389.641 115.283 389.641 115.913V184.975Z" fill="#969CA5"/>
<path d="M485.733 184.975C485.733 185.605 486.246 186.116 486.876 186.116H502.858C503.49 186.116 504 185.605 504 184.975V115.913C504 115.283 503.49 114.772 502.858 114.772C493.401 114.772 485.733 122.439 485.733 131.896C485.733 149.589 485.733 167.282 485.733 184.975Z" fill="#969CA5"/>
</svg>
