<svg fill="none" height="300" viewBox="0 0 600 300" width="600" xmlns="http://www.w3.org/2000/svg"><g fill="#364153"><path clip-rule="evenodd" d="m96 184.975c0 .63.5111 1.141 1.1415 1.141h31.3735c7.643 0 14.431-1.442 20.336-4.36l.01-.005c5.895-2.982 10.529-7.132 13.868-12.448l.004-.006c3.35-5.401 5.006-11.699 5.006-18.853 0-7.217-1.655-13.519-5.01-18.859-3.34-5.317-7.975-9.435-13.873-12.352-5.906-2.986-12.696-4.461-20.341-4.461h-31.3735c-.6304 0-1.1415.511-1.1415 1.141zm50.573-23.767-.008.015c-1.728 3.024-4.193 5.371-7.424 7.05-3.161 1.61-6.954 2.438-11.415 2.438h-13.46v-40.534h13.46c4.457 0 8.245.859 11.403 2.531l.012.006.012.006c3.225 1.612 5.686 3.924 7.412 6.945l.006.01.008.013c1.78 2.947 2.697 6.516 2.697 10.756 0 4.169-.915 7.744-2.703 10.764z" fill-rule="evenodd"/><path d="m181.711 184.975c0 .63.511 1.141 1.141 1.141h15.983c.631 0 1.142-.511 1.142-1.141v-69.062c0-.63-.511-1.141-1.142-1.141-9.458 0-17.127 7.665-17.128 17.124-.001 17.693.004 35.386.004 53.079z"/><path clip-rule="evenodd" d="m216.344 184.975c0 .63.511 1.141 1.142 1.141h31.373c7.643 0 14.432-1.442 20.337-4.36l.009-.005c5.896-2.982 10.529-7.132 13.869-12.448l.004-.006c3.35-5.401 5.005-11.699 5.005-18.853 0-7.217-1.654-13.519-5.009-18.859-3.34-5.317-7.975-9.435-13.874-12.352-5.906-2.986-12.696-4.461-20.341-4.461h-31.373c-.631 0-1.142.511-1.142 1.141zm43.153-52.255c3.225 1.612 5.686 3.924 7.412 6.945l.006.01.008.013c1.781 2.947 2.697 6.516 2.697 10.756 0 4.169-.914 7.744-2.702 10.764l-.009.015c-1.728 3.024-4.192 5.371-7.424 7.05-3.161 1.61-6.954 2.438-11.415 2.438h-13.46v-40.534h13.46c4.457 0 8.245.859 11.404 2.531l.011.006z" fill-rule="evenodd"/><path clip-rule="evenodd" d="m323.611 184.014.006.003c4.733 1.8 9.852 2.694 15.345 2.694 5.429 0 10.455-.895 15.063-2.698 4.653-1.795 8.694-4.297 12.107-7.51 3.476-3.275 6.185-7.122 8.122-11.53l.003-.006c1.941-4.487 2.907-9.332 2.907-14.523 0-5.251-.964-10.068-2.912-14.435-1.935-4.405-4.642-8.249-8.115-11.523-3.413-3.279-7.456-5.815-12.113-7.611-4.61-1.804-9.668-2.698-15.159-2.698-5.43 0-10.486.895-15.157 2.697-4.658 1.797-8.731 4.332-12.208 7.608-3.476 3.276-6.184 7.122-8.121 11.53l-.006.014c-1.876 4.423-2.807 9.233-2.807 14.418s.931 9.996 2.807 14.418l.006.014c1.935 4.403 4.607 8.247 8.016 11.522l.008.008c3.477 3.276 7.55 5.812 12.208 7.608zm23.159-14.484-.01.004c-2.364.97-4.991 1.464-7.895 1.464-2.903 0-5.566-.493-8.002-1.468-2.438-.975-4.565-2.373-6.389-4.195-1.759-1.822-3.163-3.984-4.208-6.498-.975-2.567-1.468-5.361-1.468-8.393 0-3.102.495-5.893 1.467-8.389 1.042-2.51 2.476-4.671 4.299-6.495 1.83-1.829 3.929-3.229 6.303-4.204 2.435-.973 5.097-1.466 7.998-1.466 2.903 0 5.566.494 8.002 1.468 2.438.975 4.528 2.371 6.285 4.188l.014.014c1.82 1.821 3.22 3.978 4.198 6.484.003.008.006.015.009.023 1.033 2.492 1.559 5.279 1.559 8.377s-.526 5.885-1.559 8.377c-.003.008-.006.015-.009.023-.978 2.506-2.378 4.663-4.198 6.484-1.826 1.826-3.955 3.226-6.396 4.202z" fill-rule="evenodd"/><path d="m389.641 184.975c0 .63.51 1.141 1.139 1.141h14.997c.63 0 1.143-.511 1.143-1.141v-36.484l18.106 29.776c.207.34.577.548.976.548h7.202c.402 0 .775-.212.982-.557l18.22-30.6.079 37.319c.003.629.513 1.139 1.142 1.139h14.997c.303 0 .594-.121.807-.335.216-.215.335-.507.332-.81v-69.061c0-.629-.51-1.138-1.139-1.138h-13.318c-.405 0-.778.212-.982.559l-24.463 41.241-24.882-41.248c-.207-.343-.577-.552-.977-.552h-13.222c-.629 0-1.139.511-1.139 1.141z"/><path d="m485.734 184.975c0 .63.513 1.141 1.143 1.141h15.982c.632 0 1.142-.511 1.142-1.141v-69.062c0-.63-.51-1.141-1.142-1.141-9.457 0-17.125 7.667-17.125 17.124z"/></g></svg>