<svg fill="none" height="240" viewBox="0 0 600 240" width="600" xmlns="http://www.w3.org/2000/svg"><path d="m142.468 164.078c-17.97 0-20.693-2.112-19.771-6.167.67-2.872 15.373-58.1169 15.708-59.3841 1.466-5.913 7.624-4.477 7.875-4.4348.168.0425.293.2112.252.3803-.545 4.7305-9.174 51.4016-9.258 51.9926-.712 4.604 0 5.068 5.655 5.068 27.94 0 38.077-19.471 40.842-35.013 4.776-26.9472-21.447-35.0143-58.016-31.7198-.335.0422-2.765.169-3.812-.3379-1.383-.6759-2.556-2.3653-2.849-3.2944-.125-.3379-.125-.6757 0-.8869.084-.1269.168-.2535.293-.2957 11.813-2.1119 28.234-4.9417 38.832-3.8014 40.13 4.2658 40.13 29.7341 37.784 42.6161-1.299 7.476-8.085 45.278-53.535 45.278zm143.848-16.642c-2.597 8.912-10.514 15.079-19.73 15.332-7.749.423-15.499-4.012-18.892-10.855-1.34-2.576-2.094-5.363-2.387-8.658-1.174.549-2.388 1.056-3.603 1.436-1.592 4.52-4.357 8.701-8.169 11.573-8.168 6.124-19.226 7.898-29.154 2.408-12.232-8.49-10.724-25.596-2.179-35.648 8.504-10.052 24.129-11.742 31.962-6.8 5.32 3.463 8.168 9.419 8.922 15.628 1.131-.803 2.137-1.817 3.31-3.168 1.089-1.309 3.225-4.52 3.225-4.52 1.257-1.942 2.807-3.758 4.524-5.321 3.603-3.168 8.168-4.731 12.776-4.731 3.98 0 8.043 1.183 11.562 3.59 1.131.761 1.424 1.183 1.047 1.816-.503.93-1.047 1.774-1.717 2.577-1.257 1.52-2.556.971-3.435.591-.126-.042-.252-.127-.377-.169-3.938-1.394-7.163-1.098-10.515.929-7.246 4.435-8.336 13.051-6.995 19.64 1.382 6.716 5.069 8.997 7.959 9.715 5.278 1.351 12.357-1.521 16.839-6.843 1.341-1.605 3.393-.549 4.859.634.084.042.126.084.168.127.209.253 0 .675 0 .717zm-55.084-22.638c-5.404-6.758-15.206-4.477-20.735 1.774-5.53 6.293-5.614 16.599.419 20.949 5.654 4.055 14.661 1.901 19.101-4.604 3.1-4.561 5.906-12.248 1.215-18.119zm135.218 14.191c-.754 6.589-4.105 13.263-9.467 17.317-8.168 6.124-19.227 7.898-29.155 2.408-1.256-.887-2.388-1.859-3.351-2.915-1.675 1.521-3.644 3.041-5.823 4.351-6.66 4.054-15.959 2.999-21.698-2.408-3.645-3.294-5.404-8.743-4.733-14.276.586-4.899 4.942-21.794 9.006-36.914-3.98.126-7.457 0-9.384-.929-3.099-1.521-2.346-6.7158-2.052-8.1943.042-.2109.251-.38.461-.38 1.508 0 7.205-.0422 13.53-.0843 2.639-9.7145 4.733-17.0213 4.733-17.0213.754-2.5766 3.561-3.9704 6.116-3.9704.503 0 .964.0425 1.424.169.168.0422.252.2113.21.4226-.67 4.1814-1.969 11.7838-3.519 20.4001 3.435 0 6.535.0421 8.629.0843 7.373.1691 17.091.5913 19.06.6757.209 0 .419.1691.461.3803.209.9291.377 3.2523-2.262 4.7723-2.263 1.267-18.683 2.45-26.223 2.957-.419.042-.796.042-1.215.084-3.141 17.486-6.493 35.605-6.66 36.408-.838 4.224 1.801 6.8 4.147 7.307 4.314.929 7.833-.929 10.765-3.633-1.633-7.898.922-16.767 6.158-22.976 8.504-10.052 24.128-11.742 31.962-6.8 7.371 4.857 9.97 14.402 8.88 22.765zm-11.729-14.191c-5.404-6.758-15.206-4.477-20.735 1.774-5.529 6.293-5.613 16.599.419 20.949 5.655 4.055 14.661 1.901 19.101-4.604 3.1-4.561 5.907-12.248 1.215-18.119zm60.825-21.16c2.429 1.604 5.485.844 7.454-.634 1.34-1.014 2.219-2.661 2.429-4.4349.254-1.8582-.21-4.477-2.26-5.8283-.798-.5069-1.719-.7182-2.683-.7182-1.506 0-3.056.5491-4.27 1.2669-.379.2535-.67.5069-.965.8448-.169.2112-.335.4647-.46.7181-1.719 3.0411-2.094 6.7996.755 8.7856zm56.296 12.67c-5.57-3.547-15.162-3.674-23.289.212 1.759-9.757 5.572-36.5347 6.117-39.9136.041-.1268 0-.2112-.044-.2956-.041-.0847-.125-.1269-.21-.1269-.46-.0843-.92-.1687-1.424-.1687-2.555 0-5.36 1.3938-6.114 3.9701 0 0-14.912 60.6937-15.416 63.5237-3.434 5.364-7.582 7.433-12.106 6.039-3.77-1.182-3.56-4.097-3.435-5.533.21-2.28 4.105-24.792 4.818-29.818.041-.338-.169-.634-.504-.718-.795-.127-1.634-.212-2.47-.212-2.764 0-5.613 1.014-7.288 5.238-.044.169-4.943 17.443-5.867 21.16-.125.465-.21.929-.335 1.394-3.6 5.491-9.173 10.305-17.216 8.574-2.344-.507-4.943-2.239-4.148-7.307.21-1.352 7.583-44.3482 9.721-58.0749.041-.2113-.044-.38-.21-.4222-.46-.1269-.964-.1691-1.424-.1691-2.555 0-5.322 1.3938-6.118 3.9702 0 0-11.771 43.546-14.282 55.836-1.133 5.406-.335 10.686 4.44 14.952 4.439 4.012 12.986 5.28 20.064 2.281 4.105-1.732 7.539-4.562 9.928-7.011 3.099 6.25 10.516 10.305 17.341 8.658 5.278-1.267 9.301-5.111 11.94-8.321 1.046 1.521 2.26 2.872 3.56 3.928 6.073 4.857 14.661 5.745 22.453 3.421 3.938-.886 7.708-2.618 10.976-5.068 5.36-4.097 8.754-10.728 9.464-17.317 1.09-8.363-1.549-17.908-8.922-22.681zm-3.854 27.581c-4.396 6.504-14.492 8.954-20.146 4.899-6.074-4.35-4.903-14.994.626-21.245 5.532-6.293 15.331-8.531 20.738-1.774 4.69 5.829 1.884 13.516-1.218 18.12z" fill="#364153"/></svg>