<svg width="600" height="300" viewBox="0 0 600 300" fill="none" xmlns="http://www.w3.org/2000/svg">
<path d="M105.914 204C83.7737 204 80.4191 201.413 81.5545 196.445C82.3803 192.927 100.495 125.246 100.908 123.693C102.714 116.449 110.301 118.208 110.61 118.26C110.817 118.312 110.972 118.519 110.92 118.726C110.249 124.521 99.6177 181.698 99.5145 182.423C98.6371 188.063 99.5145 188.632 106.482 188.632C140.905 188.632 153.394 164.778 156.801 145.736C162.684 112.723 130.377 102.84 85.322 106.876C84.9091 106.928 81.9158 107.083 80.6255 106.462C78.9224 105.635 77.4774 103.565 77.1161 102.426C76.9613 102.012 76.9613 101.599 77.1161 101.34C77.2193 101.185 77.3226 101.029 77.4774 100.978C92.0312 98.3904 112.262 94.9235 125.319 96.3206C174.761 101.547 174.761 132.748 171.871 148.53C170.271 157.689 161.91 204 105.914 204ZM283.14 183.613C279.94 194.531 270.186 202.085 258.832 202.396C249.284 202.913 239.737 197.48 235.556 189.098C233.905 185.941 232.976 182.526 232.615 178.49C231.17 179.163 229.673 179.784 228.176 180.249C226.215 185.786 222.809 190.909 218.112 194.427C208.049 201.93 194.424 204.103 182.192 197.377C167.123 186.976 168.98 166.02 179.509 153.705C189.985 141.39 209.236 139.32 218.887 145.374C225.441 149.617 228.95 156.913 229.879 164.519C231.273 163.536 232.511 162.294 233.956 160.638C235.298 159.034 237.93 155.102 237.93 155.102C239.479 152.722 241.388 150.497 243.504 148.582C247.942 144.701 253.568 142.787 259.245 142.787C264.148 142.787 269.154 144.236 273.489 147.185C274.882 148.116 275.244 148.634 274.779 149.41C274.16 150.548 273.489 151.583 272.663 152.566C271.115 154.429 269.515 153.757 268.431 153.291C268.277 153.239 268.122 153.136 267.967 153.084C263.116 151.376 259.142 151.739 255.013 154.222C246.085 159.655 244.743 170.211 246.394 178.283C248.097 186.511 252.639 189.305 256.2 190.184C262.703 191.84 271.425 188.322 276.947 181.802C278.598 179.836 281.127 181.129 282.934 182.578C283.037 182.63 283.088 182.681 283.14 182.733C283.398 183.044 283.14 183.561 283.14 183.613ZM215.274 155.878C208.616 147.599 196.54 150.393 189.727 158.051C182.915 165.761 182.812 178.387 190.243 183.716C197.211 188.684 208.307 186.045 213.777 178.076C217.596 172.488 221.054 163.07 215.274 155.878ZM381.868 173.264C380.939 181.336 376.811 189.512 370.205 194.479C360.141 201.982 346.516 204.155 334.285 197.429C332.736 196.342 331.343 195.152 330.156 193.858C328.092 195.721 325.666 197.584 322.982 199.188C314.776 204.155 303.319 202.862 296.249 196.238C291.759 192.202 289.591 185.527 290.417 178.749C291.139 172.747 296.507 152.049 301.513 133.525C296.61 133.68 292.326 133.525 289.952 132.386C286.133 130.523 287.062 124.159 287.424 122.348C287.475 122.089 287.733 121.882 287.991 121.882C289.849 121.882 296.868 121.83 304.661 121.779C307.912 109.878 310.493 100.926 310.493 100.926C311.422 97.7695 314.88 96.0619 318.028 96.0619C318.647 96.0619 319.215 96.1136 319.782 96.2689C319.989 96.3206 320.092 96.5276 320.041 96.7863C319.215 101.909 317.615 111.223 315.705 121.779C319.937 121.779 323.756 121.83 326.337 121.882C335.42 122.089 347.393 122.607 349.819 122.71C350.077 122.71 350.335 122.917 350.387 123.176C350.645 124.314 350.851 127.16 347.6 129.023C344.813 130.575 324.582 132.024 315.292 132.645C314.776 132.697 314.312 132.697 313.796 132.748C309.925 154.17 305.796 176.369 305.59 177.352C304.558 182.526 307.809 185.683 310.699 186.304C316.015 187.442 320.35 185.165 323.963 181.854C321.95 172.177 325.098 161.311 331.549 153.705C342.026 141.39 361.276 139.32 370.927 145.374C380.01 151.325 383.21 163.019 381.868 173.264ZM367.418 155.878C360.76 147.599 348.684 150.393 341.871 158.051C335.059 165.761 334.956 178.387 342.387 183.716C349.355 188.684 360.451 186.045 365.921 178.076C369.74 172.488 373.198 163.07 367.418 155.878ZM442.354 129.954C445.348 131.921 449.115 130.989 451.541 129.178C453.192 127.936 454.276 125.918 454.534 123.745C454.844 121.468 454.276 118.26 451.747 116.604C450.767 115.983 449.631 115.725 448.444 115.725C446.586 115.725 444.677 116.397 443.18 117.277C442.716 117.587 442.354 117.898 441.993 118.312C441.787 118.571 441.58 118.881 441.425 119.191C439.309 122.917 438.845 127.522 442.354 129.954ZM511.717 145.477C504.853 141.131 493.034 140.976 483.022 145.736C485.19 133.783 489.886 100.978 490.557 96.838C490.609 96.6828 490.557 96.5793 490.506 96.4758C490.454 96.3724 490.351 96.3206 490.248 96.3206C489.68 96.2171 489.112 96.1136 488.493 96.1136C485.345 96.1136 481.887 97.8212 480.958 100.978C480.958 100.978 462.585 175.334 461.966 178.801C457.734 185.372 452.625 187.908 447.051 186.2C442.406 184.751 442.664 181.181 442.819 179.422C443.077 176.627 447.876 149.048 448.754 142.89C448.805 142.476 448.547 142.114 448.134 142.011C447.154 141.855 446.122 141.752 445.09 141.752C441.683 141.752 438.174 142.994 436.11 148.168C436.058 148.375 430.02 169.538 428.884 174.092C428.729 174.661 428.626 175.23 428.471 175.799C424.033 182.526 417.169 188.425 407.26 186.304C404.37 185.683 401.17 183.561 402.151 177.352C402.409 175.696 411.492 123.021 414.124 106.204C414.176 105.945 414.072 105.738 413.866 105.686C413.298 105.531 412.679 105.479 412.111 105.479C408.963 105.479 405.557 107.187 404.576 110.343C404.576 110.343 390.074 163.691 386.978 178.749C385.584 185.372 386.565 191.84 392.448 197.066C397.919 201.982 408.447 203.534 417.169 199.86C422.227 197.739 426.459 194.272 429.4 191.271C433.219 198.929 442.354 203.896 450.767 201.878C457.269 200.326 462.224 195.617 465.475 191.685C466.765 193.548 468.262 195.204 469.862 196.497C477.345 202.448 487.925 203.534 497.524 200.688C502.376 199.602 507.021 197.48 511.046 194.479C517.652 189.46 521.832 181.336 522.71 173.264C524.052 163.019 520.8 151.325 511.717 145.477ZM506.969 179.266C501.55 187.235 489.112 190.236 482.145 185.269C474.662 179.939 476.107 166.9 482.919 159.241C489.731 151.532 501.808 148.789 508.466 157.068C514.246 164.209 510.788 173.626 506.969 179.266Z" fill="#969CA5"/>
</svg>
