<svg fill="none" height="240" viewBox="0 0 600 240" width="600" xmlns="http://www.w3.org/2000/svg" xmlns:xlink="http://www.w3.org/1999/xlink"><mask id="a" height="76" maskUnits="userSpaceOnUse" width="396" x="102" y="82"><path d="m497.369 82.4985h-394.736v74.9995h394.736z" fill="#fff"/></mask><g mask="url(#a)"><path d="m103.129 156.247v-72.4998h41.562v14.5939h-25.562v13.8749h22.781v14.406h-22.781v15h25.562v14.625zm64.812 0c-11.375 0-15.187-4.125-15.187-15.625v-56.8748h16.125v57.9068h23.25v14.593zm31.219 0v-72.4998h41.563v14.5939h-25.563v13.8749h22.781v14.406h-22.781v15h25.531v14.625h-41.562zm46.719-36.25c0-20.6246 17.25-37.4996 38.125-37.4996 15.281 0 27.031 8.2811 33.25 20.4996l-14.375 7.25c-1.587-3.662-4.21-6.779-7.548-8.967-3.337-2.1877-7.243-3.3506-11.233-3.3454-11.969 0-20.875 9.6254-20.875 21.8754 0 12.187 8.906 22.156 20.875 22.156 4.007-.049 7.914-1.258 11.247-3.483 3.334-2.224 5.95-5.367 7.534-9.048l14.562 7.344c-2.988 6.305-7.732 11.614-13.664 15.289-5.931 3.675-12.797 5.56-19.773 5.429-20.969 0-38.125-16.875-38.125-37.5zm90.906 36.25v-57.9059h-15.844v-14.5939h47.782v14.5939h-15.907v57.9059h-15.999zm142.126 0-3.128-12.5h-22.875l-3.187 12.5h-16.313l16.095-57.3749c2.907-10.2498 6.405-15.8437 15.499-15.8437 8.438 0 12.503 5.469 15.188 15.6251l15.843 57.5935zm-22.001-26.312h15.498l-7.56-30.9376zm-42.968-3.906c10.125-4.844 13.841-11.563 13.841-19.376 0-14.4371-10.125-22.9058-24.123-22.9058h-28.844v72.4998h16l.157-57.9996h12.06c5.689 0 8.907 3.7496 8.907 8.4376-.06 8.375-9 10.875-11.937 11.781-1.447.442-2.711 1.336-3.611 2.551s-1.387 2.687-1.387 4.199c0 2.094 1.248 4.813 4.372 6.594 7.125 4.125 12.439 12.75 13.969 24.437h15.814c-1.812-16.25-7.752-26.312-15.218-30.218z" fill="#364153"/></g></svg>