<svg width="600" height="300" viewBox="-200 -150 1941 970" fill="none" xmlns="http://www.w3.org/2000/svg">
  <path d="m1058.8 80.7c-272.3 144.7-293.1 179.3-461.3 135.4 0 0 33.9 20.8 80.5 79.5 46 58.6 85.5 59.2 109 59.2 23.6 0 47.1-5.5 109.6-55.9 63-50.5 313.4-303.2 644.3-269.2 0 0-66.3-29.6-172.6-29.6-83.3 0-190.1 17.5-309.5 80.6z" fill="#364153"/>
  <path fill-rule="evenodd" d="m331.8 435.9c-26.9 0-48.8 22-48.8 48.8v111.3c0 8.2-6.6 14.3-14.3 14.3-7.6 0-13.7-6.1-13.7-14.3v-111.3c0-42.7 34-76.7 76.7-76.7 7.7 0 13.7 6 13.7 13.7 0 8.2-6 14.2-13.7 14.2zm831.2 67.5c0 7.6-6.6 14.2-14.3 14.2h-159.4c4.4 36.2 35.1 64.7 72.9 64.7 23 0 43.8-11 57.5-28.5 2.2-3.8 6.6-6 11.5-6 7.7 0 14.2 6 14.2 13.7 0 3.8-1.1 6.5-3.2 9.3-18.7 24.1-47.7 39.5-80 39.5-55.9 0-101.4-45.5-101.4-101.5 0-55.3 45.5-100.8 101.4-100.8 53.7 0 97.5 42.2 100.8 95.4zm-30.7-14.3c-8.8-30.7-36.7-53.2-70.1-53.2-34 0-61.9 22.5-70.7 53.2zm243.2-67.4c0 8.2-6 14.2-14.2 14.2h-72.9v160.1c0 8.2-6 14.3-14.2 14.3-7.7 0-13.7-6.1-13.7-14.3v-160.1h-73.4c-7.7 0-13.7-6-13.7-14.2 0-7.7 6-13.7 13.7-13.7 0.3 0 87.6 0 87.6 0h86.6c8.2 0 14.2 6 14.2 13.7z" fill="#364153"/>
  <path fill-rule="evenodd" d="m568.4 421.7v174.3c0 8.2-6.5 14.3-14.2 14.3-7.7 0-14.3-6.1-14.3-14.3v-17c-18.6 19.2-44.3 31.3-72.8 31.3-55.9 0-101.4-45.5-101.4-101.5 0-55.3 45.5-100.8 101.4-100.8 28.5 0 54.2 12 72.8 31.2v-17.5c0-7.7 6.6-13.7 14.3-13.7 7.7 0 14.2 6 14.2 13.7zm-28.5 87.4c0-40.5-32.7-73.2-73.1-73.2-40.4 0-73.1 32.7-73.1 73.2 0 40.5 32.7 73.2 73.1 73.2 40.4 0 73.1-32.7 73.1-73.2zm197.3 30.4l-49.3-92.1-38.9 152.4c-2.2 7.7-9.9 12.1-17.6 9.9-7.1-1.6-12-9.3-9.8-17l43.8-169.9c2.7-8.8 11-14.8 20.3-14.8 8.2 0 15.3 4.4 19.2 10.9 0 0 54.7 103.1 56.9 107.5 2.2 3.8 5 7.7 11.5 7.7 6.6 0 9.3-3.9 11.5-7.7 2.2-4.4 57-107.5 57-107.5 3.3-6.5 10.4-10.9 18.6-10.9 9.9 0 18.1 6 20.9 14.8l43.8 169.9c1.6 7.7-2.7 15.4-10.4 17-7.1 2.2-14.8-2.2-17-9.9l-39.4-152.4-48.8 92.1c-6.6 13.2-20.3 22.5-36.2 22.5-15.9 0-29.5-9.3-36.1-22.5zm-534.7-36.1c0 7.6-6.6 14.2-14.3 14.2h-159.4c4.4 36.2 35 64.7 72.3 64.7 23.6 0 44.4-11 58.1-28.5 2.2-3.8 6.5-6 11.5-6 7.6 0 14.2 6 14.2 13.7 0 3.8-1.1 6.5-3.3 9.3-18.6 24.1-47.6 39.5-80.5 39.5-55.3 0-100.8-45.5-100.8-101.5 0-55.3 45.5-100.8 100.8-100.8 54.2 0 98.1 42.2 101.4 95.4zm-30.7-14.3c-8.8-30.7-36.7-53.2-70.7-53.2-33.4 0-61.4 22.5-70.1 53.2z" fill="#364153"/>
</svg>
