<svg fill="none" height="300" viewBox="0 -29 140 89.3" width="600" xmlns="http://www.w3.org/2000/svg"><g clip-rule="evenodd" fill="#364153" fill-rule="evenodd"><path d="m7.17946 9.82031v13.39079c-4.28171-2.0935-7.17946-6.2016-7.17946-10.9022v-2.44913h7.17946z"/><path d="m16.7185 4.46289v20.07451c-1.1245.2915-2.3355.4581-3.5897.4581-1.2543 0-2.422-.1666-3.58974-.4581v-20.07451z"/><path d="m18.8457 0v23.2108c4.2817-2.1469 7.1795-6.3597 7.1795-11.1801v-12.0307z"/><path d="m32.3076 24.1035v-24.1035h15.2565v3.78885h-11.0507v6.40875h10.0198v3.7083h-10.0198v6.4088h11.0507v3.7888z"/><path d="m59.059 24.2733h-3.8867l-6.6235-16.37096h4.2835l4.3231 11.71056 4.2435-11.71056h4.0854z"/><path d="m77.4471 14.201c-.0807-1.8674-1.37-3.5402-4.069-3.5402-2.4974 0-3.9076 1.8284-4.0284 3.5402zm3.7868 5.174c-.8863 2.8011-3.5051 5.0575-7.4928 5.0575-4.4715 0-8.4599-3.1512-8.4599-8.5587 0-5.0574 3.8675-8.4031 8.0568-8.4031 5.1162 0 8.0969 3.2679 8.0969 8.2864 0 .6225-.0802 1.167-.1208 1.206h-12.0852c.1208 2.4119 2.0548 4.1626 4.5122 4.1626 2.3766 0 3.5852-1.206 4.1492-2.801z"/><path d="m87.5684 24.1043h-4.1075v-16.48059h3.9821v2.20546c1.1313-1.88464 3.185-2.68659 5.0711-2.68659 4.1915 0 6.2034 2.92722 6.2034 6.53612v10.4256h-4.1074v-9.744c0-2.045-.9642-3.649-3.5209-3.649-2.3472 0-3.5626 1.7243-3.5626 3.8896z"/><path d="m102.308 15.955v-15.955h4.015v15.7096c0 3.4365 1.847 5.3593 4.898 5.3593 3.092 0 4.899-1.8819 4.899-5.3593v-15.7096h4.136v15.955c0 5.8911-3.935 9.0413-8.994 9.0413-5.02 0-8.954-3.1502-8.954-9.0413z"/><path d="m131.454 11.5108c-2.629 0-4.561 2.0374-4.561 5.0736 0 3.1161 1.89 5.1535 4.561 5.1535s4.561-2.0374 4.561-5.1535c-.041-3.0362-1.849-5.0736-4.561-5.0736zm-8.505 19.7352v-22.85125h3.863v2.23715c.821-1.39822 2.752-2.59674 5.382-2.59674 4.971 0 7.806 3.71534 7.806 8.54924 0 4.9138-3.081 8.6291-7.929 8.6291-2.424 0-4.274-.9987-5.136-2.277v8.2696z"/></g></svg>