<svg fill="none" height="240" viewBox="0 0 600 240" width="600" xmlns="http://www.w3.org/2000/svg" xmlns:xlink="http://www.w3.org/1999/xlink"><clipPath id="a"><path d="m146 71h308v98.6387h-308z"/></clipPath><g clip-path="url(#a)"><g fill="#364153"><path d="m268.758 80.5547c-9.282 2.3606-13.894 9.5547-13.894 21.6953v4.159h-4.501-4.5v5.901 5.902h4.5 4.501v21.076 21.077h7.031 7.032v-21.077-21.076h10.969 10.969v21.076 21.077h6.751 6.75v-39.905-39.9053h-6.75-6.751v12.927 12.9273h-10.969-10.969v-4.272c0-5.6203 1.069-7.8684 4.388-9.3297 1.912-.8431 3.093-1.0117 5.231-.7307l2.756.3934v-5.6204c0-3.8219-.225-5.7891-.675-6.0701-1.068-.6744-9.45-.7868-11.869-.2248z"/><path d="m430.934 95.5613c0 4.4967-.225 5.8457-1.125 7.3067-1.406 2.304-3.825 3.541-7.032 3.541h-2.531v5.901 5.902h4.725 4.726l.225 15.568c.168 14.894.225 15.738 1.462 18.435 2.813 6.07 7.032 8.431 15.301 8.431 7.594 0 7.313.225 7.313-6.295v-5.508h-3.713c-3.375 0-3.825-.169-5.063-1.574-1.35-1.573-1.35-1.63-1.35-15.343v-13.714h5.063 5.063v-5.902-5.901h-5.063-5.063v-8.1499-8.1496h-6.469-6.469z"/><path d="m331.651 105.509c-8.719 2.136-15.751 8.712-18.901 17.817-1.744 5.115-1.8 13.827-.112 19.335 4.612 14.838 19.294 22.313 35.045 17.873 4.05-1.125 7.257-3.035 10.407-6.183 2.475-2.529 5.344-7.419 5.344-9.105 0-.618-1.575-1.349-5.232-2.473-2.812-.843-5.4-1.574-5.738-1.518-.281 0-1.237 1.237-2.081 2.811-5.006 9.049-19.295 7.868-23.851-1.967-2.419-5.171-3.938-4.778 18.001-4.778h19.407l.338-2.417c.45-3.091-.619-11.016-1.969-14.5-3.263-8.262-9.62-13.489-18.282-15.063-4.163-.787-8.776-.731-12.376.168zm10.069 11.073c4.219 1.068 7.369 4.384 8.494 9.049l.394 1.573h-12.488-12.488l.337-1.742c.732-3.766 4.107-7.475 7.932-8.824 2.25-.787 4.894-.787 7.819-.056z"/><path d="m387.621 105.341c-4.051.787-9.226 3.653-12.488 6.969-7.37 7.307-10.013 18.21-7.201 29.226 1.294 4.946 3.094 8.375 6.301 11.86 9.731 10.566 28.295 11.297 38.701 1.573 2.982-2.754 6.751-9.442 5.851-10.285-.675-.618-9.226-3.429-10.463-3.429-.563 0-1.35.844-1.913 1.968-2.925 6.182-10.857 8.768-17.382 5.676-4.444-2.079-8.157-6.857-8.157-10.454 0-1.068.338-1.124 19.295-1.236l19.238-.169.169-4.609c.394-11.128-4.669-20.795-13.05-24.842-5.007-2.473-12.995-3.372-18.901-2.248zm12.263 12.252c2.7 1.406 5.062 4.609 5.569 7.588l.337 2.023h-12.488-12.488l.338-1.292c1.35-4.328 4.387-7.757 8.213-9.218 2.587-.955 7.706-.562 10.519.899z"/></g><path d="m224.959 77.2766c2.975-1.1817 6.102 1.3324 5.586 4.4916l-10.988 67.3498c-.508 3.115-4.187 4.525-6.647 2.547l-52.43-42.156c-2.46-1.978-1.874-5.874 1.06-7.04z" stroke="#364153" stroke-width="8.23888"/><path d="m201.88 106.291c2.975-1.181 6.103 1.333 5.587 4.492l-8.223 50.4c-.508 3.115-4.188 4.525-6.648 2.547l-39.235-31.547c-2.46-1.978-1.873-5.874 1.06-7.039z" stroke="#364153" stroke-width="8.23888"/></g></svg>