<svg fill="none" height="300" viewBox="0 0 600 300" width="600" xmlns="http://www.w3.org/2000/svg" xmlns:xlink="http://www.w3.org/1999/xlink"><mask id="a" height="112" maskUnits="userSpaceOnUse" width="462" x="69" y="94"><path d="m531 94h-462v112h462z" fill="#fff"/></mask><g fill="#364153" mask="url(#a)"><path d="m196.106 174.576c5.005 0 9.598-1.305 13.643-3.778v-18.754h-7.747v14.151c-1.851.687-3.633.893-5.621.893-6.925 0-10.764-4.327-10.764-15.662 0-10.992 3.771-15.251 10.764-15.251 3.085 0 6.238.893 9.118 2.542l3.427-6.732c-3.907-2.336-8.021-3.298-12.683-3.298-12.066 0-19.196 7.9-19.196 22.739 0 15.868 7.062 23.15 19.059 23.15z"/><path d="m222.777 135.007c3.085 0 4.731-1.992 4.731-4.602 0-2.542-1.646-4.672-4.731-4.672-3.016 0-4.73 2.13-4.73 4.672 0 2.61 1.714 4.602 4.73 4.602zm4.045 4.603h-8.09v34.279h8.09z"/><path d="m258.05 139.61h-10.284v-8.587h-5.896l-1.646 8.587-6.513.962v5.839h6.102v16.693c0 7.763 4.182 11.472 11.038 11.472 3.085 0 6.102-.824 8.706-2.267l-2.261-6.389c-1.99.962-3.703 1.374-5.348 1.374-2.811 0-4.182-1.168-4.182-4.533v-16.35h10.284z"/><path d="m283.746 174.576c5.004 0 9.598-1.305 13.642-3.778v-18.754h-7.746v14.151c-1.851.687-3.634.893-5.622.893-6.924 0-10.763-4.327-10.763-15.662 0-10.992 3.77-15.251 10.763-15.251 3.085 0 6.239.893 9.119 2.542l3.428-6.732c-3.908-2.336-8.022-3.298-12.685-3.298-12.066 0-19.194 7.9-19.194 22.739 0 15.868 7.061 23.15 19.058 23.15z"/><path d="m306.098 139.61v23.425c0 7.488 3.704 11.541 10.216 11.541 3.359 0 6.375-1.099 10.488-4.809v4.122h7.817v-34.279h-8.09v24.318c-3.154 2.405-5.69 3.229-7.746 3.229-3.087 0-4.594-1.511-4.594-5.221v-22.326z"/><path d="m371.396 173.889v-22.189c0-9.068-4.594-12.777-12.89-12.777-4.182 0-9.05 1.237-13.984 3.641l2.468 6.389c4.387-1.993 7.61-2.817 10.283-2.817 4.456 0 6.239 1.718 6.239 6.114v1.992h-7.748c-8.5 0-12.409 4.534-12.409 10.167 0 6.183 4.388 10.167 10.353 10.167 3.839 0 7.062-1.236 10.009-4.465v3.778zm-15.494-5.701c-2.949 0-4.732-1.443-4.732-4.26 0-2.335 1.44-4.053 5.075-4.053h7.267v5.084c-2.742 2.335-5.006 3.229-7.61 3.229z"/><path d="m389.576 173.889v-23.975c3.566-2.335 7.063-3.091 11.588-3.091v-7.9c-4.114 0-7.541 1.099-11.861 5.221v-4.534h-7.815v34.279z"/><path d="m436.516 173.889v-46.576h-8.09v13.259c-2.331-1.099-4.661-1.649-7.198-1.649-8.227 0-14.74 5.152-14.74 17.93 0 13.052 5.69 17.723 12.888 17.723 3.428 0 6.445-1.236 9.393-4.396v3.709zm-14.808-6.526c-4.801 0-7.062-2.473-7.062-10.51 0-8.45 2.468-11.06 8.022-11.06 1.782 0 3.77.412 5.758 1.236v17.792c-2.331 1.924-4.594 2.542-6.718 2.542z"/><path d="m451.078 135.007c3.084 0 4.731-1.992 4.731-4.602 0-2.542-1.647-4.672-4.731-4.672-3.017 0-4.73 2.13-4.73 4.672 0 2.61 1.713 4.602 4.73 4.602zm4.046 4.603h-8.091v34.279h8.091z"/><path d="m491.974 173.889v-22.189c0-9.068-4.594-12.777-12.889-12.777-4.183 0-9.05 1.237-13.985 3.641l2.468 6.389c4.387-1.993 7.61-2.817 10.283-2.817 4.456 0 6.239 1.718 6.239 6.114v1.992h-7.748c-8.5 0-12.408 4.534-12.408 10.167 0 6.183 4.387 10.167 10.352 10.167 3.839 0 7.062-1.236 10.009-4.465v3.778zm-15.494-5.701c-2.949 0-4.732-1.443-4.732-4.26 0-2.335 1.441-4.053 5.075-4.053h7.267v5.084c-2.742 2.335-5.005 3.229-7.61 3.229z"/><path d="m510.155 173.889v-24.249c3.292-2.474 6.034-3.298 8.16-3.298 3.085 0 4.592 1.58 4.592 5.29v22.257h8.09v-23.425c0-7.488-3.701-11.541-10.214-11.541-3.428 0-6.651 1.099-10.902 4.877v-4.19h-7.815v34.279z"/><path d="m95.1797 128.075c0-2.553 1.6199-4.629 3.6114-4.629 1.9919 0 3.6109 2.076 3.6109 4.629 0 2.552-1.619 4.628-3.6109 4.628-1.9915 0-3.6114-2.076-3.6114-4.628z"/><path d="m116.761 134.187c-.12-1.835-1.351-3.068-3.063-3.068s-2.944 1.233-3.062 3.068c-.019.273-.027.553-.027.832 0 2.922.589 5.305 1.972 7.968l.052.102.002.004c.201.394.503.987 1.063.987.562 0 .864-.596 1.064-.991l.053-.102c1.383-2.663 1.972-5.046 1.972-7.968 0-.279-.008-.559-.026-.832z"/><path d="m133.276 127.352c-.476-1.51-1.874-2.674-3.48-2.896-2.242-.309-4.521 1.033-6.098 3.588-.474.765-.258 1.413.102 1.764.246.24.574.372.946.381.009.001.017.001.024.001.441 0 .85-.29 1.15-.503l.003-.002.136-.094c1.626-1.099 2.995-1.178 4.442-.26.8.508 1.628.558 2.213.132.605-.442.826-1.271.562-2.111z"/><path clip-rule="evenodd" d="m150.121 129.844-5.932-4.394c.605-5.82.108-17.232-10.282-26.498-2.176-1.9006-5.477-1.892-7.675.0181-3.472 3.0169-7.919 4.6779-12.524 4.6779s-9.052-1.661-12.523-4.6779c-2.1991-1.9111-5.5004-1.9177-7.6775-.0162-10.6891 9.5891-10.8442 20.9391-10.2688 26.4881l-5.9247 4.388c-2.9892 2.171-4.7749 5.673-4.7749 9.366v5.803c0 17.829 7.0067 35.235 18.2845 45.425 9.0833 8.206 16.3544 12.033 22.8884 12.044 6.527-.011 13.798-3.838 22.881-12.044 11.279-10.19 18.284-27.596 18.284-45.425v-5.803c0-3.693-1.784-7.195-4.756-9.352zm-9.061 47.914-.002.003c1.578-4.467 2.528-9.145 2.667-13.643.012-.381.018-.76.018-1.138m-2.683 14.778-.002.003c3.361-5.312 5.903-11.515 7.436-18.138 1.092-4.718 1.672-9.649 1.672-14.624v-5.804c0-2.228-1.034-4.255-2.836-5.564l-4.108-3.043c-.192.672-.413 1.352-.663 2.035-.186.51-.388 1.021-.606 1.531-.906 2.122-2.079 4.227-3.49 6.139-.335.453-.684.896-1.045 1.325 2.677 4.115 4.536 8.644 5.516 13.397.536 2.598.809 5.264.809 7.965m-18.218 30.243c-4.525 3.035-8.433 4.539-11.813 4.544-1.691-.002-3.516-.384-5.48-1.135 7.106-7.306 11.14-17.112 11.14-27.35 0-5.982-1.292-11.823-3.671-16.797 6.914-.418 13.333-3.021 18.407-7.472 3.291 5.408 5.026 11.574 5.026 17.966 0 10.989-5.822 23.862-13.609 30.244zm-48.2733-48.224v-5.803c0-2.228 1.0331-4.257 2.8542-5.579l4.1525-3.075c.6822 2.352 1.6413 4.609 2.8572 6.725.0976.17.1967.339.2975.507.6288 1.047 1.3216 2.058 2.0757 3.027l-10.711 18.166c-.9958-4.519-1.5261-9.223-1.5261-13.968zm36.4563-17.616c1.455 0 2.591-1.378 4.041-3.138.598-.725 1.25-1.515 1.999-2.301 4.621-4.911 10.527-6.14 14.819-4.436 3.669 1.456 5.429 4.816 4.942 9.099-.909 5.335-3.379 10.186-7.191 13.972-4.874 4.839-11.415 7.504-18.61 7.504s-13.7359-2.665-18.6094-7.504c-3.8134-3.786-6.2838-8.637-7.1914-13.972-.4873-4.283 1.2735-7.643 4.9414-9.099 4.2943-1.704 10.1994-.475 14.8194 4.436.75.786 1.402 1.577 2 2.302 1.449 1.76 2.584 3.137 4.04 3.137z" fill-rule="evenodd"/></g></svg>