<svg width="600" height="300" viewBox="0 0 600 300" fill="none" xmlns="http://www.w3.org/2000/svg">
<g clip-path="url(#clip0_1794_3578)">
<path d="M196.107 174.576C201.112 174.576 205.705 173.271 209.75 170.798V152.044H202.003V166.195C200.152 166.882 198.37 167.088 196.382 167.088C189.457 167.088 185.618 162.761 185.618 151.426C185.618 140.434 189.389 136.175 196.382 136.175C199.467 136.175 202.62 137.068 205.5 138.717L208.927 131.985C205.02 129.649 200.906 128.687 196.244 128.687C184.178 128.687 177.048 136.587 177.048 151.426C177.048 167.294 184.11 174.576 196.107 174.576Z" fill="#7B818D"/>
<path d="M222.778 135.007C225.863 135.007 227.509 133.015 227.509 130.405C227.509 127.863 225.863 125.733 222.778 125.733C219.762 125.733 218.048 127.863 218.048 130.405C218.048 133.015 219.762 135.007 222.778 135.007ZM226.823 139.61H218.733V173.889H226.823V139.61Z" fill="#7B818D"/>
<path d="M258.051 139.61H247.767V131.023H241.871L240.225 139.61L233.712 140.572V146.411H239.814V163.104C239.814 170.867 243.996 174.576 250.852 174.576C253.937 174.576 256.954 173.752 259.558 172.309L257.297 165.92C255.307 166.882 253.594 167.294 251.949 167.294C249.138 167.294 247.767 166.126 247.767 162.761V146.411H258.051V139.61Z" fill="#7B818D"/>
<path d="M283.746 174.576C288.75 174.576 293.344 173.271 297.388 170.798V152.044H289.642V166.195C287.791 166.882 286.008 167.088 284.02 167.088C277.096 167.088 273.256 162.761 273.256 151.426C273.256 140.434 277.027 136.175 284.02 136.175C287.105 136.175 290.259 137.068 293.139 138.717L296.567 131.985C292.659 129.649 288.545 128.687 283.882 128.687C271.816 128.687 264.687 136.587 264.687 151.426C264.687 167.294 271.749 174.576 283.746 174.576Z" fill="#7B818D"/>
<path d="M306.097 139.61V163.035C306.097 170.523 309.801 174.576 316.313 174.576C319.672 174.576 322.688 173.477 326.801 169.767V173.889H334.618V139.61H326.528V163.928C323.374 166.333 320.838 167.157 318.782 167.157C315.695 167.157 314.188 165.646 314.188 161.936V139.61H306.097Z" fill="#7B818D"/>
<path d="M371.396 173.889V151.7C371.396 142.632 366.802 138.923 358.506 138.923C354.324 138.923 349.456 140.16 344.522 142.564L346.99 148.953C351.377 146.96 354.6 146.136 357.273 146.136C361.729 146.136 363.512 147.854 363.512 152.25V154.242H355.764C347.264 154.242 343.355 158.776 343.355 164.409C343.355 170.592 347.743 174.576 353.708 174.576C357.547 174.576 360.77 173.34 363.717 170.111V173.889H371.396ZM355.902 168.188C352.953 168.188 351.17 166.745 351.17 163.928C351.17 161.593 352.61 159.875 356.245 159.875H363.512V164.959C360.77 167.294 358.506 168.188 355.902 168.188Z" fill="#7B818D"/>
<path d="M389.579 173.889V149.914C393.145 147.579 396.642 146.823 401.167 146.823V138.923C397.053 138.923 393.626 140.022 389.306 144.144V139.61H381.491V173.889H389.579Z" fill="#7B818D"/>
<path d="M436.517 173.889V127.313H428.427V140.572C426.096 139.473 423.766 138.923 421.229 138.923C413.002 138.923 406.489 144.075 406.489 156.853C406.489 169.905 412.179 174.576 419.377 174.576C422.805 174.576 425.822 173.34 428.77 170.18V173.889H436.517ZM421.709 167.363C416.908 167.363 414.647 164.89 414.647 156.853C414.647 148.403 417.115 145.793 422.669 145.793C424.451 145.793 426.439 146.205 428.427 147.029V164.821C426.096 166.745 423.833 167.363 421.709 167.363Z" fill="#7B818D"/>
<path d="M451.08 135.007C454.164 135.007 455.811 133.015 455.811 130.405C455.811 127.863 454.164 125.733 451.08 125.733C448.063 125.733 446.35 127.863 446.35 130.405C446.35 133.015 448.063 135.007 451.08 135.007ZM455.126 139.61H447.035V173.889H455.126V139.61Z" fill="#7B818D"/>
<path d="M491.974 173.889V151.7C491.974 142.632 487.38 138.923 479.085 138.923C474.902 138.923 470.035 140.16 465.1 142.564L467.568 148.953C471.955 146.96 475.178 146.136 477.851 146.136C482.307 146.136 484.09 147.854 484.09 152.25V154.242H476.342C467.842 154.242 463.934 158.776 463.934 164.409C463.934 170.592 468.321 174.576 474.286 174.576C478.125 174.576 481.348 173.34 484.295 170.111V173.889H491.974ZM476.48 168.188C473.531 168.188 471.748 166.745 471.748 163.928C471.748 161.593 473.189 159.875 476.823 159.875H484.09V164.959C481.348 167.294 479.085 168.188 476.48 168.188Z" fill="#7B818D"/>
<path d="M510.158 173.889V149.64C513.45 147.166 516.192 146.342 518.318 146.342C521.403 146.342 522.91 147.922 522.91 151.632V173.889H531V150.464C531 142.976 527.299 138.923 520.786 138.923C517.358 138.923 514.135 140.022 509.884 143.8V139.61H502.069V173.889H510.158Z" fill="#7B818D"/>
<path d="M95.1807 128.075C95.1807 125.522 96.8006 123.446 98.7921 123.446C100.784 123.446 102.403 125.522 102.403 128.075C102.403 130.627 100.784 132.703 98.7921 132.703C96.8006 132.703 95.1807 130.627 95.1807 128.075Z" fill="#7B818D"/>
<path d="M116.762 134.187C116.642 132.352 115.411 131.119 113.699 131.119C111.987 131.119 110.755 132.352 110.637 134.187C110.618 134.46 110.61 134.74 110.61 135.019C110.61 137.941 111.199 140.324 112.582 142.987L112.634 143.089L112.636 143.093C112.837 143.487 113.139 144.08 113.699 144.08C114.261 144.08 114.563 143.484 114.763 143.089L114.816 142.987C116.199 140.324 116.788 137.941 116.788 135.019C116.788 134.74 116.78 134.46 116.762 134.187Z" fill="#7B818D"/>
<path d="M133.278 127.352C132.802 125.842 131.404 124.678 129.798 124.456C127.556 124.147 125.277 125.489 123.7 128.044C123.226 128.809 123.442 129.457 123.802 129.808C124.048 130.048 124.376 130.18 124.748 130.189C124.757 130.19 124.765 130.19 124.772 130.19C125.213 130.19 125.622 129.9 125.922 129.687L125.925 129.685L126.061 129.591C127.687 128.492 129.056 128.413 130.503 129.331C131.303 129.839 132.131 129.889 132.716 129.463C133.321 129.021 133.542 128.192 133.278 127.352Z" fill="#7B818D"/>
<path fill-rule="evenodd" clip-rule="evenodd" d="M150.122 129.844L144.19 125.45C144.795 119.63 144.298 108.218 133.908 98.9519C131.732 97.0513 128.431 97.0599 126.233 98.97C122.761 101.987 118.314 103.648 113.709 103.648C109.104 103.648 104.657 101.987 101.186 98.97C98.9868 97.0589 95.6855 97.0523 93.5084 98.9538C82.8193 108.543 82.6642 119.893 83.2396 125.442L77.3149 129.83C74.3257 132.001 72.54 135.503 72.54 139.196V144.999C72.54 162.828 79.5467 180.234 90.8245 190.424C99.9078 198.63 107.179 202.457 113.713 202.468C120.24 202.457 127.511 198.63 136.594 190.424C147.873 180.234 154.878 162.828 154.878 144.999V139.196C154.878 135.503 153.094 132.001 150.122 129.844ZM141.061 177.758L141.059 177.761C142.637 173.294 143.587 168.616 143.726 164.118C143.738 163.737 143.744 163.358 143.744 162.98M141.061 177.758L141.059 177.761C144.42 172.449 146.962 166.246 148.495 159.623C149.587 154.905 150.167 149.974 150.167 144.999L150.167 139.195C150.167 136.967 149.133 134.94 147.331 133.631L143.223 130.588C143.031 131.26 142.81 131.94 142.56 132.623C142.374 133.133 142.172 133.644 141.954 134.154C141.048 136.276 139.875 138.381 138.464 140.293C138.129 140.746 137.78 141.189 137.419 141.618C140.096 145.733 141.955 150.262 142.935 155.015C143.471 157.613 143.744 160.279 143.744 162.98M125.526 193.223C121.001 196.258 117.093 197.762 113.713 197.767C112.022 197.765 110.197 197.383 108.233 196.632C115.339 189.326 119.373 179.52 119.373 169.282C119.373 163.3 118.081 157.459 115.702 152.485C122.616 152.067 129.035 149.464 134.109 145.013C137.4 150.421 139.135 156.587 139.135 162.979C139.135 173.968 133.313 186.841 125.526 193.223ZM77.2526 144.999V139.196C77.2526 136.968 78.2857 134.939 80.1068 133.617L84.2593 130.542C84.9415 132.894 85.9006 135.151 87.1165 137.267C87.2141 137.437 87.3132 137.606 87.414 137.774C88.0428 138.821 88.7356 139.832 89.4897 140.801L78.7787 158.967C77.7829 154.448 77.2526 149.744 77.2526 144.999ZM113.709 127.383C115.164 127.383 116.3 126.005 117.75 124.245C118.348 123.52 119 122.73 119.749 121.944C124.37 117.033 130.276 115.804 134.568 117.508C138.237 118.964 139.997 122.324 139.51 126.607C138.601 131.942 136.131 136.793 132.319 140.579C127.445 145.418 120.904 148.083 113.709 148.083C106.514 148.083 99.973 145.418 95.0995 140.579C91.2861 136.793 88.8157 131.942 87.9081 126.607C87.4208 122.324 89.1816 118.964 92.8495 117.508C97.1438 115.804 103.049 117.033 107.669 121.944C108.419 122.73 109.071 123.521 109.669 124.246C111.118 126.006 112.253 127.383 113.709 127.383Z" fill="#7B818D"/>
</g>
<defs>
<clipPath id="clip0_1794_3578">
<rect width="462" height="112" fill="white" transform="translate(69 94)"/>
</clipPath>
</defs>
</svg>
