<svg fill="none" height="120" viewBox="0 0 301 120" width="301" xmlns="http://www.w3.org/2000/svg"><g fill="#000"><path d="m145.757 76.919c-1.65 1.5717-3.565 2.8816-5.743 3.7984-2.113.9168-4.49 1.3752-6.999 1.3752-1.32 0-2.575-.1307-3.763-.3925-1.188-.2619-2.377-.6549-3.499-1.1133-1.123-.5237-2.179-1.1134-3.169-1.7683-.99-.7209-1.915-1.5064-2.707-2.3579l31.228-11.9842 13.27-5.108c-.726-4.5843-2.376-8.9066-4.885-12.6395-5.678-8.5134-15.449-14.0799-26.475-14.0799-17.496 0-31.756 14.1456-31.756 31.4997 0 1.6376.132 3.2093.396 4.7811.726 4.5839 2.377 8.9066 4.885 12.6391 1.453 2.0954 3.103 4.0602 5.018 5.7632 1.915 1.7029 3.961 3.2087 6.272 4.4533 2.245 1.244 4.688 2.2267 7.262 2.881 2.575.6549 5.216.9827 7.989.9827 4.357 0 8.583-.8515 12.346-2.4885 3.83-1.5717 7.197-3.9296 10.101-6.7453 2.906-2.8816 5.216-6.2216 6.801-10.02.66-1.5717 1.188-3.2747 1.584-4.977h-14.392c-.859 2.0954-2.113 3.929-3.764 5.5007zm-12.676-30.7794c5.15 0 9.837 2.2268 13.139 5.6321l-31.229 11.9845c.198-9.6926 8.253-17.6166 18.09-17.6166z"/><path d="m88.2917 69.397-.0662-69.397h-13.8124l.0662 69.0674c0 14.5786 9.7813 24.9354 24.0563 25.9906v-13.5891c-6.0137-.9894-10.2439-5.739-10.2439-12.0719z"/><path d="m88.1394 69.527-.0662-69.396995h-13.8125l.0662 69.067495c0 14.5785 9.7813 24.9353 24.0563 25.9906v-13.5892c-6.0136-.9894-10.2438-5.739-10.2438-12.0719z"/><path d="m234.377 63.0322c-.671-16.7652-14.814-30.2557-32.176-30.2557-17.763 0-32.242 14.1456-32.242 31.4996 0 17.3541 14.479 31.5004 32.242 31.5004 6.838 0 13.206-2.096 18.434-5.6979v5.1083h13.876l-.134-32.0241zm-32.176 19.2537c-10.121 0-18.366-8.0551-18.366-17.9439 0-9.8887 8.245-17.9439 18.366-17.9439 10.122 0 18.367 8.055 18.367 17.9439 0 9.889-8.245 17.9439-18.367 17.9439z"/><path d="m270.561 32.4187c-16.361 0-29.624 13.2135-29.624 29.5134v33.4192h14.082v-33.4414c0-8.4761 6.897-15.3474 15.405-15.3474h.273c8.508 0 15.405 6.8713 15.405 15.3474v33.4414h14.082v-33.4192c0-16.2999-13.263-29.5134-29.623-29.5134z"/><path d="m77.8311 96.3425c-.9347 1.3241-1.9296 2.6122-2.9795 3.8455-1.0502 1.24-2.1495 2.426-3.3028 3.569-1.1472 1.142-2.3492 2.231-3.5996 3.271-1.2443 1.04-2.5368 2.02-3.8721 2.945-1.3293.932-2.702 1.802-4.1103 2.613-1.402.804-2.8464 1.548-4.3213 2.231-1.4689.683-2.9683 1.3-4.5039 1.851-1.5173.556-3.0714 1.04-4.6494 1.451-1.5599.417-3.1445.769-4.7529 1.047-1.5904.278-3.1993.49-4.8321.623-1.6025.139-3.2234.211-4.8623.211s-3.2598-.072-4.8623-.211c-1.6328-.133-3.2478-.345-4.832-.623-1.6083-.278-3.1983-.63-4.752-1.047l3.5752-13.292c1.1714.32 2.3674.58 3.5752.786 1.1957.212 2.4097.369 3.6358.472 1.2079.103 2.4279.157 3.6601.157s2.4522-.054 3.6602-.157c1.226-.103 2.44-.26 3.6357-.472 1.2078-.206 2.4038-.466 3.5752-.786 1.1898-.309 2.3557-.672 3.5029-1.089 1.1532-.411 2.2821-.877 3.3868-1.391 1.1107-.514 2.1977-1.069 3.2539-1.68 1.0622-.605 2.1-1.2647 3.1015-1.9602 1.0077-.6954 1.9793-1.4328 2.9141-2.2129.9409-.7801 1.8449-1.6032 2.7129-2.4619.868-.8647 1.7002-1.7533 2.4892-2.6846.7892-.9313 1.5421-1.8987 2.2461-2.8965zm-12.3741-63.9248-8.9609 11.4258c4.6248 5.5097 7.41 12.6045 7.4101 20.3486 0 17.5307-14.2641 31.742-31.8603 31.7422-17.5964 0-31.86133-14.2115-31.86133-31.7422.000249-17.5304 14.26513-31.7412 31.86133-31.7412 4.7993.0001 9.3499 1.0588 13.4316 2.9522l9.0274-11.5098zm-33.4111 13.6651c-10.0389 0-18.1775 8.108-18.1777 18.1093 0 10.0016 8.1386 18.1104 18.1777 18.1104 10.0389-.0002 18.1768-8.1089 18.1768-18.1104-.0003-10.0012-8.138-18.1092-18.1768-18.1093z"/></g></svg>