<svg fill="none" height="300" viewBox="0 0 600 300" width="600" xmlns="http://www.w3.org/2000/svg"><g fill="#364153"><path d="m123.097 93c-31.5313 0-57.097 25.566-57.097 57.097s25.5657 57.096 57.097 57.096c31.531 0 57.096-25.531 57.096-57.096 0-31.531-25.565-57.097-57.096-57.097zm-36.7467 35.826c.409-.75 1.1249-1.261 1.6362-1.534l33.3715-19.225c1.227-.716 2.42-.682 3.682.034l3.749 2.147c.171.068.341.307.307.648 0 .307-.204.545-.341.614l-14.453 8.385s-.136.068-.17.273c-.034.238.17.341.17.341l14.385 8.215c.136.034.375.272.409.647.068.41-.136.682-.307.784l-.647.375-19.055 11.079c-.068.034-.307.17-.375.409-.103.239-.068.341-.103.477v7.363c0 .136-.068.443-.374.614-.239.136-.512.034-.614 0l-5.25-3.034c-.102-.034-.272-.171-.375-.307-.102-.136-.102-.341-.102-.443l-.068-6.17c0-1.466.818-2.931 2.148-3.715l11.998-6.954s.171-.068.171-.273-.171-.341-.171-.341l-8.828-5.079c-.068-.034-.171-.034-.239 0l-13.9417 8.045c-.0682.034-.2727.17-.3409.307-.1363.238-.1363.443-.1363.545l-.1023 6.511c0 .068-.0341.341-.2386.545-.2386.205-.5454.17-.784.034l-5.2154-3s-.1705-.068-.2727-.238c-.1364-.171-.1364-.409-.1364-.477v-5.523c.1023-.545.2045-1.363.6136-2.079zm44.7227 41.11c-.068.136-.238.272-.307.306l-5.317 3.171c-1.261.75-2.966.75-4.261 0l-12.033-6.886s-.136-.102-.341 0-.205.307-.205.307l.035 10.158c0 .068.034.17.102.204l13.942 8.045c.068.034.272.136.443.136.273 0 .443-.102.545-.17l5.693-3.17c.068-.034.307-.137.579-.068.307.102.443.409.443.647v6s0 .17-.068.375c-.102.204-.307.306-.341.341l-4.772 2.761c-.545.238-1.329.545-2.147.545-.853 0-1.671-.341-2.148-.648l-33.3376-19.225c-1.2271-.716-1.8066-1.739-1.8066-3.204v-4.329c0-.171.1023-.444.4091-.614.2727-.136.5454-.102.7158 0l14.4873 8.317s.136.103.341 0c.204-.102.204-.34.204-.34l-.068-16.567c-.034-.136.034-.443.341-.682.307-.238.648-.238.852-.136l.648.375 19.123 10.942c.068.034.307.17.545.136.239-.034.307-.102.444-.17l6.374-3.682c.102-.068.443-.17.716 0 .238.137.307.444.307.546v6.067c-.035.137-.035.375-.137.512zm27.543 2.829-3.75 2.182c-.136.102-.443.136-.715-.035-.273-.17-.375-.443-.375-.613l-.035-16.703s0-.17-.17-.307c-.205-.136-.375 0-.375 0l-14.317 8.352c-.102.102-.409.204-.784.034-.375-.137-.511-.443-.545-.648v-.75l-.102-22.055c0-.068 0-.34-.137-.545-.17-.204-.238-.239-.341-.307l-6.374-3.647c-.102-.068-.375-.273-.375-.614 0-.272.239-.477.307-.545l5.249-3.034c.068-.068.273-.136.443-.17.171 0 .375.068.444.102l5.385 3.034c1.296.716 2.114 2.181 2.148 3.715l.034 13.874s0 .17.17.307c.171.136.375 0 .375 0l8.795-5.113c.068-.034.102-.103.102-.205l-.034-16.089c0-.068 0-.307-.102-.443-.136-.239-.341-.341-.409-.375l-5.59-3.341c-.035-.034-.273-.204-.341-.477-.069-.307.136-.58.341-.682l5.215-3.034s.136-.102.341-.102c.204 0 .409.102.477.136l4.806 2.761c.478.375 1.125.853 1.568 1.568.444.75.546 1.603.512 2.182v38.485c0 1.329-.614 2.352-1.841 3.102z"/><path d="m517.216 183.332c-4.124 0-7.669-.647-10.567-1.875-2.999-1.295-5.386-3.033-7.124-5.147-1.841-2.113-3.17-4.602-4.022-7.397-.819-2.829-1.262-5.829-1.262-8.863 0-3.511.512-6.715 1.5-9.476 1.057-2.931 2.42-5.318 4.159-7.261 1.807-2.011 3.988-3.579 6.442-4.601 2.455-1.057 5.25-1.603 8.318-1.603 3.784 0 6.886.784 9.272 2.352 2.318 1.534 4.192 3.58 5.59 6.068 1.329 2.454 2.25 5.215 2.761 8.283.443 2.523.682 5.079.716 7.602v1.704h-30.917c.136 1.296.443 2.693.954 4.159.477 1.534 1.295 2.966 2.42 4.329 1.057 1.295 2.523 2.42 4.227 3.238 1.67.853 3.886 1.296 6.579 1.296.954 0 1.977-.068 2.966-.205.818-.068 1.704-.204 2.692-.341l.989-.136c1.125-.17 2.386-.443 3.818-.818.647-.136 1.227-.341 1.772-.546l.989-.306 1.329-.478v7.363l-1.159.409c-2.488.921-4.772 1.5-6.783 1.739-2.079.341-4.022.511-5.659.511zm-179.13 0c-4.125 0-7.67-.647-10.567-1.875-3-1.295-5.386-3.033-7.124-5.147-1.841-2.113-3.205-4.636-4.023-7.465-.818-2.795-1.261-5.761-1.261-8.863 0-3.511.511-6.715 1.5-9.476.954-2.795 2.352-5.25 4.159-7.261 1.806-2.011 3.988-3.579 6.442-4.602 2.454-1.056 5.25-1.602 8.318-1.602 3.783 0 6.885.784 9.271 2.352 2.318 1.534 4.193 3.58 5.591 6.068 1.329 2.454 2.25 5.215 2.761 8.283.443 2.523.682 5.079.716 7.602v1.704h-30.884c.137 1.295.443 2.693.955 4.159.477 1.534 1.295 2.965 2.42 4.329 1.057 1.295 2.488 2.42 4.227 3.306 1.67.853 3.886 1.296 6.579 1.296.954 0 1.977-.068 2.965-.205 1.227-.136 2.489-.272 3.648-.477 1.159-.17 2.386-.443 3.818-.818.647-.136 1.227-.341 1.772-.546l.989-.306 1.329-.478v7.363l-1.159.409c-2.454.921-4.738 1.5-6.783 1.739-2.114.341-4.057.511-5.659.511zm148.145-1.295h-8.079c-2.863 0-5.147-.75-6.954-2.25-1.841-1.534-2.727-3.613-2.727-6.306v-27.816h-7.329v-7.26h7.329v-12.51h7.977v12.442h10.669v7.226h-10.703v23.452c0 1.807.272 3.239.818 4.295.511.921 1.909 1.398 4.192 1.398h4.807zm-36.883 0h-7.908v-43.632h7.976v42.575zm-34.224 0h-7.772v-43.632h5.693l.409 1.159.579 1.704c1.364-1.022 2.864-1.943 4.398-2.727 1.704-.852 3.476-1.261 5.283-1.261 1.466 0 3.136.238 4.806.682.819.204 1.569.443 2.182.681l1.091.375 1.057.409-3.136 6.375-1.432-.477c-.648-.171-1.295-.375-2.114-.512-1.193-.238-2.386-.375-3.511-.375-1.704 0-3.17.307-4.329.887-1.193.613-2.284 1.329-3.204 2.147zm-39.985 0h-13.601v-65.141h7.772v22.361c1.807-.614 3.818-1.125 5.761-1.5 2.079-.443 4.295-.682 6.477-.682 3.272 0 6.136.682 8.488 1.977 2.386 1.33 4.295 3.034 5.726 5.114 1.466 2.045 2.523 4.363 3.136 6.953.648 2.591.955 5.148.955 7.568 0 3.647-.477 6.988-1.398 9.919-.92 2.864-2.386 5.352-4.397 7.363-1.943 1.943-4.534 3.477-7.738 4.568-3.17.989-6.92 1.5-11.181 1.5zm-78.231 0h-8.658l-.477-1.091-16.669-42.575h8.454l.409 1.09 12.578 33.747 12.851-34.224.273-.613h8.454l-.955 2.352-15.987 40.734zm-33.576 0h-7.976v-43.632h7.976zm-18.816 0h-8.011v-30.815c0-2.489-.784-4.261-2.386-5.25-1.602-1.022-3.613-1.534-5.965-1.534-2.421 0-4.704.409-6.75 1.262-1.943.784-3.954 1.874-6.033 3.204v32.962h-7.84v-64.97h7.772v24.236c1.908-1.125 3.988-2.08 6.135-2.829 2.318-.819 4.841-1.194 7.5-1.194 2.079 0 4.124.341 6.067.955 1.875.648 3.511 1.568 4.909 2.761 1.363 1.125 2.42 2.557 3.306 4.431.784 1.739 1.159 3.784 1.159 6v29.758zm124.828-7.261h5.829c6 0 10.363-1.329 12.954-3.92 2.556-2.59 3.852-6.817 3.852-12.476 0-1.602-.205-3.238-.58-4.943-.375-1.67-.954-3.204-1.772-4.567-.784-1.33-1.875-2.421-3.239-3.273-1.295-.852-2.965-1.295-4.942-1.295-.682 0-1.534.034-2.591.136-.886.068-1.875.205-2.898.307l-.477.068c-1.227.205-2.318.375-3.443.648-1.09.273-1.977.511-2.761.818v28.497zm132.976-17.998h22.532c-.205-1.738-.511-3.238-.886-4.534-.477-1.534-1.091-2.863-1.943-4.09-.852-1.193-1.909-2.114-3.136-2.795-1.193-.716-2.693-1.057-4.466-1.057-1.568 0-3.068.307-4.499.92-1.364.614-2.591 1.5-3.648 2.591-1.056 1.125-1.943 2.488-2.659 4.056-.647 1.5-1.056 3.171-1.295 4.909zm-179.13 0h22.532c-.205-1.773-.512-3.272-.887-4.534-.477-1.602-1.124-2.965-1.943-4.09-.852-1.193-1.908-2.148-3.136-2.795-1.193-.716-2.693-1.057-4.465-1.057-1.568 0-3.068.307-4.5.92-1.363.614-2.59 1.5-3.647 2.591-1.057 1.125-1.943 2.488-2.659 4.056-.613 1.5-1.057 3.171-1.295 4.909zm122.204-26.997c-2.557 0-4.67-2.08-4.67-4.67 0-2.591 2.079-4.67 4.67-4.67 2.556 0 4.67 2.079 4.67 4.67.034 1.227-.443 2.386-1.295 3.238-.921.954-2.114 1.432-3.375 1.432zm-185.846 0c-2.556 0-4.67-2.08-4.67-4.67 0-2.591 2.08-4.67 4.67-4.67 2.557 0 4.67 2.079 4.67 4.67.034 1.227-.443 2.386-1.295 3.238-.92.954-2.113 1.432-3.375 1.432z"/></g></svg>