<svg width="600" height="300" viewBox="0 0 600 300" fill="none" xmlns="http://www.w3.org/2000/svg">
<path d="M123.097 93C91.5657 93 66 118.566 66 150.097C66 181.628 91.5657 207.193 123.097 207.193C154.628 207.193 180.193 181.662 180.193 150.097C180.193 118.566 154.628 93 123.097 93ZM86.3503 128.826C86.7593 128.076 87.4752 127.565 87.9865 127.292L121.358 108.067C122.585 107.351 123.778 107.385 125.04 108.101L128.789 110.248C128.96 110.316 129.13 110.555 129.096 110.896C129.096 111.203 128.892 111.441 128.755 111.51L114.302 119.895C114.302 119.895 114.166 119.963 114.132 120.168C114.098 120.406 114.302 120.509 114.302 120.509L128.687 128.724C128.823 128.758 129.062 128.996 129.096 129.371C129.164 129.781 128.96 130.053 128.789 130.155L128.142 130.53L109.087 141.609C109.019 141.643 108.78 141.779 108.712 142.018C108.609 142.257 108.644 142.359 108.609 142.495V149.858C108.609 149.994 108.541 150.301 108.235 150.472C107.996 150.608 107.723 150.506 107.621 150.472L102.371 147.438C102.269 147.404 102.099 147.267 101.996 147.131C101.894 146.995 101.894 146.79 101.894 146.688L101.826 140.518C101.826 139.052 102.644 137.587 103.974 136.803L115.972 129.849C115.972 129.849 116.143 129.781 116.143 129.576C116.143 129.371 115.972 129.235 115.972 129.235L107.144 124.156C107.076 124.122 106.973 124.122 106.905 124.156L92.9633 132.201C92.8951 132.235 92.6906 132.371 92.6224 132.508C92.4861 132.746 92.4861 132.951 92.4861 133.053L92.3838 139.564C92.3838 139.632 92.3497 139.905 92.1452 140.109C91.9066 140.314 91.5998 140.279 91.3612 140.143L86.1458 137.143C86.1458 137.143 85.9753 137.075 85.8731 136.905C85.7367 136.734 85.7367 136.496 85.7367 136.428V130.905C85.839 130.36 85.9412 129.542 86.3503 128.826ZM131.073 169.936C131.005 170.072 130.835 170.208 130.766 170.242L125.449 173.413C124.188 174.163 122.483 174.163 121.188 173.413L109.155 166.527C109.155 166.527 109.019 166.425 108.814 166.527C108.609 166.629 108.609 166.834 108.609 166.834L108.644 176.992C108.644 177.06 108.678 177.162 108.746 177.196L122.688 185.241C122.756 185.275 122.96 185.377 123.131 185.377C123.404 185.377 123.574 185.275 123.676 185.207L129.369 182.037C129.437 182.003 129.676 181.9 129.948 181.969C130.255 182.071 130.391 182.378 130.391 182.616V188.616C130.391 188.616 130.391 188.786 130.323 188.991C130.221 189.195 130.016 189.297 129.982 189.332L125.21 192.093C124.665 192.331 123.881 192.638 123.063 192.638C122.21 192.638 121.392 192.297 120.915 191.99L87.5774 172.765C86.3503 172.049 85.7708 171.026 85.7708 169.561V165.232C85.7708 165.061 85.8731 164.788 86.1799 164.618C86.4526 164.482 86.7253 164.516 86.8957 164.618L101.383 172.935C101.383 172.935 101.519 173.038 101.724 172.935C101.928 172.833 101.928 172.595 101.928 172.595L101.86 156.028C101.826 155.892 101.894 155.585 102.201 155.346C102.508 155.108 102.849 155.108 103.053 155.21L103.701 155.585L122.824 166.527C122.892 166.561 123.131 166.697 123.369 166.663C123.608 166.629 123.676 166.561 123.813 166.493L130.187 162.811C130.289 162.743 130.63 162.641 130.903 162.811C131.141 162.948 131.21 163.255 131.21 163.357V169.424C131.175 169.561 131.175 169.799 131.073 169.936ZM158.616 172.765L154.866 174.947C154.73 175.049 154.423 175.083 154.151 174.912C153.878 174.742 153.776 174.469 153.776 174.299L153.741 157.596C153.741 157.596 153.741 157.426 153.571 157.289C153.366 157.153 153.196 157.289 153.196 157.289L138.879 165.641C138.777 165.743 138.47 165.845 138.095 165.675C137.72 165.538 137.584 165.232 137.55 165.027V164.277L137.448 142.222C137.448 142.154 137.448 141.882 137.311 141.677C137.141 141.473 137.073 141.438 136.97 141.37L130.596 137.723C130.494 137.655 130.221 137.45 130.221 137.109C130.221 136.837 130.46 136.632 130.528 136.564L135.777 133.53C135.845 133.462 136.05 133.394 136.22 133.36C136.391 133.36 136.595 133.428 136.664 133.462L142.049 136.496C143.345 137.212 144.163 138.677 144.197 140.211L144.231 154.085C144.231 154.085 144.231 154.255 144.401 154.392C144.572 154.528 144.776 154.392 144.776 154.392L153.571 149.279C153.639 149.245 153.673 149.176 153.673 149.074L153.639 132.985C153.639 132.917 153.639 132.678 153.537 132.542C153.401 132.303 153.196 132.201 153.128 132.167L147.538 128.826C147.503 128.792 147.265 128.622 147.197 128.349C147.128 128.042 147.333 127.769 147.538 127.667L152.753 124.633C152.753 124.633 152.889 124.531 153.094 124.531C153.298 124.531 153.503 124.633 153.571 124.667L158.377 127.428C158.855 127.803 159.502 128.281 159.945 128.996C160.389 129.746 160.491 130.599 160.457 131.178V169.663C160.457 170.992 159.843 172.015 158.616 172.765Z" fill="#969CA5"/>
<path d="M517.217 183.332C513.093 183.332 509.548 182.685 506.65 181.457C503.651 180.162 501.264 178.424 499.526 176.31C497.685 174.197 496.356 171.708 495.504 168.913C494.685 166.084 494.242 163.084 494.242 160.05C494.242 156.539 494.754 153.335 495.742 150.574C496.799 147.643 498.162 145.256 499.901 143.313C501.708 141.302 503.889 139.734 506.343 138.712C508.798 137.655 511.593 137.109 514.661 137.109C518.445 137.109 521.547 137.893 523.933 139.461C526.251 140.995 528.125 143.041 529.523 145.529C530.852 147.983 531.773 150.744 532.284 153.812C532.727 156.335 532.966 158.891 533 161.414V163.118H502.083C502.219 164.414 502.526 165.811 503.037 167.277C503.514 168.811 504.332 170.243 505.457 171.606C506.514 172.901 507.98 174.026 509.684 174.844C511.354 175.697 513.57 176.14 516.263 176.14C517.217 176.14 518.24 176.072 519.229 175.935C520.047 175.867 520.933 175.731 521.921 175.594L522.91 175.458C524.035 175.288 525.296 175.015 526.728 174.64C527.375 174.504 527.955 174.299 528.5 174.094L529.489 173.788L530.818 173.31V180.673L529.659 181.082C527.171 182.003 524.887 182.582 522.876 182.821C520.797 183.162 518.854 183.332 517.217 183.332ZM338.087 183.332C333.962 183.332 330.417 182.685 327.52 181.457C324.52 180.162 322.134 178.424 320.396 176.31C318.555 174.197 317.191 171.674 316.373 168.845C315.555 166.05 315.112 163.084 315.112 159.982C315.112 156.471 315.623 153.267 316.612 150.506C317.566 147.711 318.964 145.256 320.771 143.245C322.577 141.234 324.759 139.666 327.213 138.643C329.667 137.587 332.463 137.041 335.531 137.041C339.314 137.041 342.416 137.825 344.802 139.393C347.12 140.927 348.995 142.973 350.393 145.461C351.722 147.915 352.643 150.676 353.154 153.744C353.597 156.267 353.836 158.823 353.87 161.346V163.05H322.986C323.123 164.345 323.429 165.743 323.941 167.209C324.418 168.743 325.236 170.174 326.361 171.538C327.418 172.833 328.849 173.958 330.588 174.844C332.258 175.697 334.474 176.14 337.167 176.14C338.121 176.14 339.144 176.072 340.132 175.935C341.36 175.799 342.621 175.663 343.78 175.458C344.939 175.288 346.166 175.015 347.598 174.64C348.245 174.504 348.825 174.299 349.37 174.094L350.359 173.788L351.688 173.31V180.673L350.529 181.082C348.075 182.003 345.791 182.582 343.746 182.821C341.632 183.162 339.689 183.332 338.087 183.332ZM486.232 182.037H478.153C475.29 182.037 473.006 181.287 471.199 179.787C469.358 178.253 468.472 176.174 468.472 173.481V145.665H461.143V138.405H468.472V125.895H476.449V138.337H487.118V145.563H476.415V169.015C476.415 170.822 476.687 172.254 477.233 173.31C477.744 174.231 479.142 174.708 481.425 174.708H486.232V182.037ZM449.349 182.037H441.441V138.405H449.417V180.98L449.349 182.037ZM415.125 182.037H407.353V138.405H413.046L413.455 139.564L414.034 141.268C415.398 140.246 416.898 139.325 418.432 138.541C420.136 137.689 421.908 137.28 423.715 137.28C425.181 137.28 426.851 137.518 428.521 137.962C429.34 138.166 430.09 138.405 430.703 138.643L431.794 139.018L432.851 139.427L429.715 145.802L428.283 145.325C427.635 145.154 426.988 144.95 426.169 144.813C424.976 144.575 423.783 144.438 422.658 144.438C420.954 144.438 419.488 144.745 418.329 145.325C417.136 145.938 416.045 146.654 415.125 147.472V182.037ZM375.14 182.037H361.539V116.896H369.311V139.257C371.118 138.643 373.129 138.132 375.072 137.757C377.151 137.314 379.367 137.075 381.549 137.075C384.821 137.075 387.685 137.757 390.037 139.052C392.423 140.382 394.332 142.086 395.763 144.166C397.229 146.211 398.286 148.529 398.899 151.119C399.547 153.71 399.854 156.267 399.854 158.687C399.854 162.334 399.377 165.675 398.456 168.606C397.536 171.47 396.07 173.958 394.059 175.969C392.116 177.912 389.525 179.446 386.321 180.537C383.151 181.526 379.401 182.037 375.14 182.037ZM296.909 182.037H288.251L287.774 180.946L271.105 138.371H279.559L279.968 139.461L292.546 173.208L305.397 138.984L305.67 138.371H314.124L313.169 140.723L297.182 181.457L296.909 182.037ZM263.333 182.037H255.357V138.405H263.333V182.037ZM244.517 182.037H236.506V151.222C236.506 148.733 235.722 146.961 234.12 145.972C232.518 144.95 230.507 144.438 228.155 144.438C225.734 144.438 223.451 144.847 221.405 145.7C219.462 146.484 217.451 147.574 215.372 148.904V181.866H207.532V116.896H215.304V141.132C217.212 140.007 219.292 139.052 221.439 138.303C223.757 137.484 226.28 137.109 228.939 137.109C231.018 137.109 233.063 137.45 235.006 138.064C236.881 138.712 238.517 139.632 239.915 140.825C241.278 141.95 242.335 143.382 243.221 145.256C244.005 146.995 244.38 149.04 244.38 151.256V181.014L244.517 182.037ZM369.345 174.776H375.174C381.174 174.776 385.537 173.447 388.128 170.856C390.684 168.266 391.98 164.039 391.98 158.38C391.98 156.778 391.775 155.142 391.4 153.437C391.025 151.767 390.446 150.233 389.628 148.87C388.844 147.54 387.753 146.449 386.389 145.597C385.094 144.745 383.424 144.302 381.447 144.302C380.765 144.302 379.913 144.336 378.856 144.438C377.97 144.506 376.981 144.643 375.958 144.745L375.481 144.813C374.254 145.018 373.163 145.188 372.038 145.461C370.948 145.734 370.061 145.972 369.277 146.279V174.776H369.345ZM502.321 156.778H524.853C524.648 155.04 524.342 153.54 523.967 152.244C523.49 150.71 522.876 149.381 522.024 148.154C521.172 146.961 520.115 146.04 518.888 145.359C517.695 144.643 516.195 144.302 514.422 144.302C512.854 144.302 511.354 144.609 509.923 145.222C508.559 145.836 507.332 146.722 506.275 147.813C505.219 148.938 504.332 150.301 503.616 151.869C502.969 153.369 502.56 155.04 502.321 156.778ZM323.191 156.778H345.723C345.518 155.005 345.211 153.506 344.836 152.244C344.359 150.642 343.712 149.279 342.893 148.154C342.041 146.961 340.985 146.006 339.757 145.359C338.564 144.643 337.064 144.302 335.292 144.302C333.724 144.302 332.224 144.609 330.792 145.222C329.429 145.836 328.202 146.722 327.145 147.813C326.088 148.938 325.202 150.301 324.486 151.869C323.873 153.369 323.429 155.04 323.191 156.778ZM445.395 129.781C442.838 129.781 440.725 127.701 440.725 125.111C440.725 122.52 442.804 120.441 445.395 120.441C447.951 120.441 450.065 122.52 450.065 125.111C450.099 126.338 449.622 127.497 448.77 128.349C447.849 129.303 446.656 129.781 445.395 129.781ZM259.549 129.781C256.993 129.781 254.879 127.701 254.879 125.111C254.879 122.52 256.959 120.441 259.549 120.441C262.106 120.441 264.219 122.52 264.219 125.111C264.253 126.338 263.776 127.497 262.924 128.349C262.004 129.303 260.811 129.781 259.549 129.781Z" fill="#969CA5"/>
</svg>
