<svg fill="none" height="240" viewBox="0 0 600 240" width="600" xmlns="http://www.w3.org/2000/svg"><path d="m481.899 75.0022c-11.771 0-21.266 9.4935-21.266 21.2659 0 11.7719 9.495 21.2659 21.266 21.2659s21.266-9.494 21.266-21.2659c0-12.1519-9.495-21.2659-21.266-21.2659z" fill="#364153"/><path d="m483.036 123.609c-.761 2.658-1.14 4.937-1.901 6.456l-.379.759c-.379 1.899-1.898 3.038-3.799 3.038h-1.136c-.761 0-1.519-.38-2.28-1.139-.379-.76-.758-1.519-.758-2.279l1.137-7.595c0-.379.382-1.139.761-1.518-11.014-2.659-18.986-12.532-18.986-24.3042 0-1.8986.378-3.4177.378-5.3164h-31.14c-1.897 0-3.416-1.1392-3.798-3.0378l-1.519-6.4557c-.758-2.2785-2.655-4.1775-5.314-4.1775h-9.116c-1.898 0-3.038 1.5192-3.038 3.0383 0 1.8986 1.519 3.0379 3.038 3.0379h4.939c1.897 0 3.416 1.1392 3.795 3.0378l12.153 49.3666c.758 2.278 2.659 4.177 5.318 4.177h49.744c2.658 0 4.56-1.519 5.317-4.177l4.178-16.709c-2.659 1.14-5.318 1.52-7.977 1.899.762 1.139.762 1.519.383 1.899zm-55.823-13.671c-.382-1.899-1.14-3.797-1.518-5.316l-.383-1.519c-.379-.76 0-1.519.383-2.279.378-.759 1.518-1.1388 2.276-1.1388h3.42c1.897 0 3.416 1.1388 3.416 3.0378l1.14 6.835c0 .76 0 1.519-.761 2.279-.379.759-1.519 1.139-2.276 1.139h-1.902c-1.897-.38-3.416-1.519-3.795-3.038zm11.772 22.785c-.379.759-1.519 1.139-2.28 1.139h-.379c-1.898 0-3.416-1.139-3.799-3.038l-.379-.759c-.378-1.899-1.14-4.178-1.897-6.836-.379-.759 0-1.519.379-2.278.378-.76 1.518-1.14 2.28-1.14h1.897c1.898 0 3.416 1.14 3.799 3.038l1.136 7.595c0 .76 0 1.899-.757 2.279zm14.051-1.519c0 1.519-1.14 2.658-2.659 2.658s-3.037-1.139-3.037-2.658l-1.14-7.975c0-.759 0-1.519.757-2.278.383-.76 1.523-1.14 2.28-1.14h1.14c1.898 0 3.416 1.52 3.416 3.418v7.975zm0-21.646c0 1.899-1.519 3.418-3.42 3.418h-2.659c-1.897 0-3.416-1.139-3.795-3.038l-.761-7.215c0-.76 0-1.519.761-2.278.758-.7598 1.519-1.1397 2.276-1.1397h4.56c1.898 0 3.038 1.5187 3.038 3.4177zm14.43 13.671-1.14 7.975c-.379 1.519-1.519 2.658-3.038 2.658-1.518 0-2.658-1.139-2.658-2.658v-7.975c0-1.898 1.518-3.418 3.416-3.418h1.14c.761 0 1.519.38 2.28 1.14z" fill="#364153"/><path d="m481.897 78.0394 5.318 10.6332 12.15 1.8986-8.734 8.3542 1.901 11.7716-10.635-5.316-10.631 5.316 1.898-11.7716-8.355-8.3542 11.771-1.8986z" fill="#fff"/><g fill="#364153"><path d="m434.808 165.002c5.032 0 9.112-4.25 9.112-9.493s-4.08-9.494-9.112-9.494c-5.033 0-9.113 4.251-9.113 9.494s4.08 9.493 9.113 9.493z"/><path d="m478.859 165.002c5.032 0 9.112-4.25 9.112-9.493s-4.08-9.494-9.112-9.494c-5.033 0-9.113 4.251-9.113 9.494s4.08 9.493 9.113 9.493z"/><path d="m200.126 146.395c-4.177 3.038-10.632 4.178-19.366 4.178h-12.532c-1.899 0-3.418 0-5.696 0-1.899 0-3.798-.38-5.696-.76-1.899-.38-3.798-1.139-5.317-1.519-1.899-.759-3.417-1.899-4.557-3.038-1.139-1.139-2.278-3.038-3.038-4.936-.759-1.899-1.139-4.178-1.139-7.216v-43.2904h11.392v42.9114c0 4.556 4.177 6.835 12.912 6.835h15.569c8.354 0 12.532-2.279 12.532-6.835v-42.9114h11.392v43.6704c-.38 5.696-2.278 10.253-6.456 12.911z"/><path d="m292.406 151.33v-39.873l-24.683 36.455c-.76 1.14-1.899 2.279-3.038 3.038-1.139.76-2.278 1.14-3.798 1.14-2.658 0-4.936-1.14-6.835-3.798l-24.683-37.215v40.253h-11.392v-55.0626c0-2.2785.759-3.7976 1.898-4.9369 1.139-1.1392 2.658-1.8986 4.557-1.8986 2.658 0 4.937 1.1392 6.456 3.0379l30.759 44.0502 30.379-43.6704c1.519-2.2785 3.418-3.4177 6.076-3.4177 1.899 0 3.418.7594 4.557 1.8986 1.139 1.1393 1.899 3.0383 1.899 5.3164v54.3031h-12.152z"/><path d="m315.191 150.952v-61.1384h11.393v61.1384z"/><path d="m404.05 151.332-9.495-16.709h-35.696l-9.114 16.709h-13.671l34.177-57.3413c1.519-2.658 3.798-4.1771 6.454-4.1771 2.659 0 4.939 1.5191 6.458 4.1771l33.416 57.3413zm-27.345-46.329-11.011 18.228h22.025z"/><path d="m131.393 123.611c0 18.607-6.836 26.582-18.987 29.24-11.772 2.279-15.5701 2.279-15.5701 2.279v-12.532c4.5571-.38 11.7721-1.139 16.3291-2.658 4.177-1.519 7.215-5.696 7.215-16.329l.38-22.405v-11.3924h11.392z"/></g></svg>