<svg fill="none" height="240" viewBox="0 0 600 240" width="600" xmlns="http://www.w3.org/2000/svg" xmlns:xlink="http://www.w3.org/1999/xlink"><mask id="a" height="114" maskUnits="userSpaceOnUse" width="330" x="135" y="63"><path d="m464.544 63.7507h-329.083v112.5003h329.083z" fill="#fff"/></mask><mask id="b" height="96" maskUnits="userSpaceOnUse" width="213" x="252" y="76"><path d="m464.796 76.0414h-212.241v95.2036h212.241z" fill="#fff"/></mask><g fill="#364153" mask="url(#a)"><path d="m135.574 117.835 6.949-36.6427c.414-2.1656 1.944-3.9487 4.026-4.668l36.558-12.7042c.896-.3139 1.791.459 1.615 1.3927l-3.589 18.9492c-.084.4286-.39.7882-.804.9337l-20.288 7.0868"/><path d="m156.675 93.3525c-10.906 3.8036-18.949 13.1325-21.107 24.4825-.406 2.158.359 4.362 2.02 5.801l29.349 25.431c.72.62 1.837.23 2.013-.704l3.636-19.179c.084-.428-.077-.872-.406-1.163l-16.286-14.028 4.133-21.8112"/><path d="m228.053 97.6312-6.949 36.6428c-.413 2.166-1.944 3.949-4.025 4.668l-36.552 12.697c-.895.314-1.79-.459-1.614-1.393l3.589-18.949c.084-.428.391-.788.804-.934l20.288-7.086"/><path d="m203.597 123.284 4.133-21.811-16.286-14.0283c-.337-.291-.49-.7271-.406-1.1633l3.636-19.1786c.176-.9337 1.301-1.3241 2.012-.7042l29.35 25.4313c1.661 1.4389 2.426 3.6428 2.02 5.8009-2.15 11.3492-10.201 20.6782-21.107 24.4822"/><g mask="url(#b)"><path d="m355.023 82.8521c0-3.7421 3.062-6.8111 6.72-6.8111s6.811 3.0611 6.811 6.8111-3.061 6.7197-6.811 6.7197-6.72-3.0615-6.72-6.7197z"/><path d="m252.555 82.8147h11.915v30.6353c.337-.597 3.062-4.684 5.021-7.232l17.533-23.4033h13.875l-19.232 25.1863 21.612 29.954h-13.959l-14.977-21.192-9.873 12.085v9.107h-11.915z"/><path d="m367.524 95.4116h-11.403v42.5514h11.403z"/><path d="m376.207 82.8147h11.4v30.2983l14.644-17.7013h13.875l-16.594 18.5513 19.399 24h-13.695l-12.765-16.256-4.856 5.786v10.47h-11.4v-55.1483z"/><path d="m419.27 116.678c0-12.337 10.038-22.1251 22.721-22.1251 12.679 0 22.804 9.7881 22.804 22.1251s-10.039 22.125-22.804 22.125c-12.769 0-22.721-9.788-22.721-22.125zm33.87 0c0-6.635-4.77-11.572-11.149-11.572-6.386 0-11.153 4.937-11.153 11.572s4.767 11.571 11.153 11.571c6.379 0 11.149-4.852 11.149-11.571z"/><path d="m336.295 95.4042v3.4211c-2.961-2.403-6.658-3.8801-10.454-4.2397-6.819-.6582-13.829 2.4337-18.359 7.4924-3.582 3.995-5.564 9.237-5.564 14.602s1.982 10.607 5.564 14.602c4.53 5.059 11.54 8.151 18.359 7.492 3.804-.36 7.5-1.836 10.454-4.24v3.414h11.151v-42.5438zm-11.663 32.8468c-6.382 0-11.151-4.936-11.151-11.571s4.769-11.572 11.151-11.572c6.383 0 11.151 4.937 11.151 11.572s-4.761 11.571-11.151 11.571z"/><path d="m255.654 170.64c-.926-.398-1.661-.957-2.204-1.676-.536-.712-.834-1.538-.895-2.464h2.617c.076.765.428 1.385 1.072 1.867.642.482 1.484.727 2.525.727.964 0 1.729-.214 2.288-.642.559-.429.834-.965.834-1.616 0-.65-.298-1.163-.895-1.492-.597-.321-1.515-.643-2.763-.964-1.133-.299-2.058-.597-2.77-.903s-1.332-.766-1.837-1.363c-.513-.604-.765-1.4-.765-2.38 0-.78.229-1.492.696-2.142.467-.651 1.125-1.164 1.982-1.546.858-.383 1.83-.574 2.924-.574 1.691 0 3.053.428 4.094 1.278 1.041.857 1.599 2.028 1.668 3.513h-2.533c-.053-.796-.375-1.439-.964-1.921-.582-.482-1.37-.727-2.357-.727-.911 0-1.638.199-2.174.581-.535.39-.811.903-.811 1.531 0 .505.161.918.49 1.24.321.329.735.581 1.224.78.49.199 1.179.414 2.052.658 1.094.299 1.989.59 2.678.881.689.29 1.278.719 1.768 1.293s.75 1.332.765 2.257c0 .835-.229 1.592-.696 2.258s-1.117 1.194-1.967 1.577c-.85.382-1.814.574-2.916.574-1.171 0-2.219-.199-3.153-.597h.023z"/><path d="m289.489 156.168c.926.49 1.66 1.232 2.204 2.219.535.988.811 2.182.811 3.597v9h-2.51v-8.64c0-1.523-.376-2.686-1.133-3.497-.75-.811-1.768-1.21-3.053-1.21-1.286 0-2.373.421-3.153 1.271-.781.849-1.171 2.066-1.171 3.665v8.419h-2.511v-8.64c0-1.523-.375-2.687-1.125-3.498s-1.767-1.209-3.053-1.209-2.373.421-3.153 1.27c-.781.85-1.171 2.067-1.171 3.666v8.419h-2.533v-15.276h2.533v2.204c.505-.796 1.178-1.408 2.02-1.836.842-.429 1.776-.644 2.801-.644 1.286 0 2.418.291 3.398.866.988.574 1.722 1.423 2.205 2.533.428-1.08 1.132-1.914 2.119-2.511s2.082-.895 3.291-.895 2.25.245 3.176.742v-.015z"/><path d="m296.652 159.183c.635-1.179 1.5-2.097 2.61-2.748 1.102-.65 2.334-.972 3.696-.972 1.363 0 2.503.291 3.482.865.987.574 1.722 1.301 2.204 2.174v-2.786h2.564v15.275h-2.564v-2.847c-.505.896-1.247 1.631-2.242 2.22-.995.582-2.15.88-3.467.88-1.316 0-2.586-.337-3.681-1.003-1.094-.665-1.959-1.607-2.594-2.816-.636-1.209-.949-2.579-.949-4.125s.313-2.931.949-4.109h-.008zm11.288 1.125c-.466-.857-1.094-1.508-1.882-1.967s-1.661-.681-2.61-.681-1.814.222-2.594.666c-.781.444-1.401 1.094-1.868 1.951-.467.858-.696 1.86-.696 3.008s.229 2.189.696 3.053c.467.865 1.087 1.523 1.868 1.983.78.459 1.645.681 2.594.681s1.814-.23 2.61-.681c.788-.452 1.416-1.118 1.882-1.983.467-.864.697-1.875.697-3.023s-.23-2.158-.697-3.007z"/><path d="m319.939 156.16c.826-.482 1.837-.727 3.023-.727v2.617h-.666c-2.839 0-4.263 1.546-4.263 4.63v8.304h-2.533v-15.275h2.533v2.479c.444-.873 1.079-1.554 1.906-2.036z"/><path d="m328.988 157.815v8.992c0 .743.161 1.271.474 1.577.314.306.866.459 1.646.459h1.867v2.143h-2.288c-1.416 0-2.472-.322-3.176-.972s-1.056-1.722-1.056-3.207v-8.992h-1.982v-2.097h1.982v-5.349h2.533v5.349h3.987v2.097z"/><path d="m343.48 159.184c.635-1.179 1.5-2.097 2.61-2.747 1.102-.65 2.349-.972 3.719-.972 1.186 0 2.296.275 3.314.819 1.018.551 1.798 1.27 2.342 2.158v-8.082h2.564v20.625h-2.564v-2.87c-.505.911-1.248 1.661-2.227 2.243-.987.581-2.135.88-3.459.88-1.325 0-2.587-.337-3.697-1.003-1.102-.665-1.975-1.607-2.61-2.816s-.949-2.579-.949-4.125.314-2.931.949-4.11zm11.288 1.133c-.467-.857-1.094-1.508-1.882-1.967s-1.661-.681-2.61-.681-1.814.222-2.594.666c-.781.444-1.401 1.094-1.868 1.951s-.696 1.86-.696 3.008.229 2.189.696 3.053c.467.865 1.087 1.524 1.868 1.983.78.459 1.645.681 2.594.681s1.814-.23 2.61-.681c.788-.452 1.415-1.118 1.882-1.983.467-.864.697-1.875.697-3.023 0-1.147-.23-2.157-.697-3.007z"/><path d="m362.324 159.183c.635-1.179 1.5-2.097 2.61-2.748 1.102-.65 2.334-.972 3.696-.972s2.502.291 3.482.865c.987.574 1.722 1.301 2.204 2.174v-2.786h2.563v15.275h-2.563v-2.847c-.505.896-1.247 1.631-2.242 2.22-.995.582-2.151.88-3.467.88s-2.587-.337-3.681-1.003c-1.094-.665-1.959-1.607-2.594-2.816-.636-1.209-.949-2.579-.949-4.125s.313-2.931.949-4.109zm11.288 1.125c-.467-.857-1.094-1.508-1.883-1.967-.787-.459-1.66-.681-2.609-.681s-1.814.222-2.594.666c-.781.444-1.401 1.094-1.868 1.951-.467.858-.696 1.86-.696 3.008s.229 2.189.696 3.053c.467.865 1.087 1.523 1.868 1.983.78.459 1.645.681 2.594.681s1.814-.23 2.609-.681c.789-.452 1.416-1.118 1.883-1.983.467-.864.697-1.875.697-3.023s-.23-2.158-.697-3.007z"/><path d="m384.257 157.807v9c0 .743.158 1.271.473 1.577s.866.459 1.646.459h1.867v2.143h-2.287c-1.418 0-2.475-.322-3.176-.972-.705-.65-1.058-1.722-1.058-3.207v-9h-1.98v-2.089h1.98v-5.349h2.535v5.349h3.986v2.089z"/><path d="m391.305 159.183c.633-1.179 1.5-2.097 2.61-2.748 1.102-.65 2.336-.972 3.697-.972s2.501.291 3.48.865c.986.574 1.725 1.301 2.205 2.174v-2.786h2.565v15.275h-2.565v-2.847c-.506.896-1.245 1.631-2.242 2.22-.994.582-2.153.88-3.469.88s-2.584-.337-3.679-1.003c-1.095-.665-1.961-1.607-2.595-2.816s-.949-2.579-.949-4.125.315-2.931.949-4.109zm11.287 1.125c-.465-.857-1.091-1.508-1.882-1.967-.788-.459-1.662-.681-2.607-.681-.952 0-1.818.222-2.598.666s-1.399 1.094-1.868 1.951c-.465.858-.694 1.86-.694 3.008s.229 2.189.694 3.053c.469.865 1.088 1.523 1.868 1.983.78.459 1.646.681 2.598.681.945 0 1.812-.23 2.607-.681.791-.452 1.417-1.118 1.882-1.983.469-.864.698-1.875.698-3.023s-.229-2.158-.698-3.007z"/></g></g></svg>