<svg fill="none" height="300" viewBox="0 0 600 300" width="600" xmlns="http://www.w3.org/2000/svg" xmlns:xlink="http://www.w3.org/1999/xlink"><clipPath id="a"><path d="m105.141 102.96h388.86v94.8116h-388.86z"/></clipPath><g clip-path="url(#a)" fill="#364153"><path d="m128.101 103.93c-8.627 1.164-14.997 3.105-16.922 5.11-3.716 3.816-6.038 19.469-6.038 40.231 0 21.539 2.123 36.803 5.706 41.007 2.124 2.394 7.101 4.205 15.661 5.628 8.627 1.487 42.602 1.681 51.627.323 11.48-1.682 16.789-3.751 18.514-7.18 3.251-6.209 4.91-19.986 4.844-40.166-.066-16.299-1.128-27.101-3.451-34.41-1.99-6.274-3.583-7.373-14.267-9.702-5.176-1.164-8.892-1.358-27.538-1.552-15.993-.13-23.292.064-28.136.711zm23.49 42.948v28.977l-1.526 2.199c-2.19 3.234-5.242 4.463-10.883 4.463h-4.844v-28.46c0-31.24 0-31.24 3.915-34.474 1.991-1.617 2.655-1.747 7.764-1.747h5.574zm23.624-11.837c.266.971.266 4.463.066 7.762-.597 10.026-3.45 12.742-12.873 12.419l-5.176-.194-.199-6.145c-.332-11.513 3.052-15.394 13.603-15.523 3.915 0 4.181.064 4.579 1.681zm-4.579 27.166c3.186 2.329 4.247 4.851 4.645 11.125.2 3.169.2 6.598-.066 7.568l-.464 1.746-5.774-.259c-6.702-.258-8.626-1.229-10.75-5.433-1.061-2.07-1.327-3.881-1.327-9.055 0-3.622.199-6.727.531-6.985.265-.259 2.92-.389 5.906-.259 4.247.129 5.839.517 7.299 1.552z"/><path d="m224.919 116.737c-1.593 1.552-2.323 2.975-2.655 5.045-.199 1.552-.332 16.493-.199 33.246l.199 30.399h5.442c5.308 0 5.574-.064 7.631-2.134l2.19-2.07.199-7.762c.132-4.268.464-7.761.663-7.761.266 0 1.327.517 2.323 1.164 1.327.776 3.185 3.557 5.972 8.861 5.11 9.638 5.707 10.026 15.594 10.026 4.778 0 6.769-.194 6.769-.776 0-.389-3.119-6.21-6.968-12.872s-6.967-12.354-6.967-12.677c0-.259 3.185-6.015 6.967-12.807 3.849-6.727 6.968-12.677 6.968-13.195 0-.646-1.46-.776-7.432-.582-9.821.324-10.153.518-15.13 10.284-3.65 7.115-5.707 9.638-7.764 9.638-.663 0-.863-4.01-.863-19.081v-19.081h-5.375c-5.176 0-5.441.065-7.564 2.135z"/><path d="m381.255 115.637c-3.318 2.329-3.384 2.976-3.384 37.774v32.34h4.512c3.119 0 5.243-.388 6.968-1.229 2.389-1.164 2.721-1.164 4.977-.259 3.849 1.617 12.741 1.423 17.718-.453 4.777-1.811 10.551-7.115 12.94-11.966 1.526-2.975 1.659-3.945 1.659-12.936v-9.702l-2.257-4.074c-5.109-9.185-15.66-14.295-25.813-12.419-1.991.323-3.915.647-4.247.647-.265 0-.597-4.14-.664-9.25l-.199-9.184-5.308-.194c-4.115-.13-5.641.064-6.902.905zm26.278 33.246c3.185 1.876 4.181 4.334 4.181 10.155 0 7.826-2.92 11.189-9.688 11.189-2.721 0-3.385-.323-5.641-2.522l-2.588-2.523v-6.274-6.274l2.588-2.522c2.256-2.264 2.92-2.523 5.773-2.523 2.057 0 4.048.453 5.375 1.294z"/><path d="m435.408 115.314c-2.124 1.229-3.119 4.204-3.119 9.314v4.851h5.641c5.242 0 5.773-.13 7.763-1.876 2.058-1.811 2.124-2.005 2.19-7.244v-5.433l-5.64-.13c-3.119-.129-6.172.13-6.835.518z"/><path d="m288.69 132.713c-9.821 1.682-17.784 9.702-19.775 19.986-.929 4.981-.266 13.195 1.526 17.852 1.991 5.304 8.029 11.19 13.537 13.259 3.65 1.423 5.176 1.553 17.784 1.811l13.736.259v-4.657c0-5.368-1.061-7.891-4.18-9.702-1.858-1.099-3.384-1.294-11.281-1.294-9.357 0-11.679-.517-13.67-2.845-.796-.906.398-1.035 12.276-1.035 11.746 0 13.405-.13 15.263-1.229 3.981-2.393 5.176-7.827 3.318-14.812-1.327-4.722-3.783-8.538-7.698-11.966-5.375-4.722-13.404-6.921-20.836-5.627zm11.347 17.658c1.194 1.293 2.19 2.652 2.19 3.04s-3.318.646-8.959.646c-4.91 0-8.958-.194-8.958-.517 0-1.035 2.19-3.493 4.247-4.722 1.593-1.035 2.92-1.229 5.64-1.035 3.119.194 3.916.583 5.84 2.588z"/><path d="m342.705 132.972c-7.631 1.617-13.537 6.209-16.988 13.065-1.858 3.687-1.924 4.14-1.924 12.871 0 8.474.133 9.314 1.792 12.742 5.972 12.419 20.903 17.335 33.71 11.061 5.242-2.523 8.626-5.886 11.214-11.19 1.593-3.299 1.726-4.204 1.726-12.613 0-8.473-.133-9.314-1.792-12.742-3.318-6.92-10.153-11.965-18.116-13.388-4.579-.841-4.91-.841-9.622.194zm9.888 15.782c3.317 1.746 4.711 4.721 4.711 10.025 0 7.632-3.119 11.448-9.29 11.448-3.783 0-7.101-1.94-8.361-4.851-1.261-3.04-1.195-10.219.199-13.065 2.123-4.398 7.963-6.015 12.741-3.557z"/><path d="m432.949 155.416c0 22.508.067 23.608 1.327 25.678 1.792 2.846 6.304 4.786 10.485 4.527l3.119-.194.199-22.314c.133-22.056.133-22.38-1.327-25.226-1.858-3.557-4.446-5.045-9.689-5.562l-4.114-.453z"/><path d="m453.522 137.564c0 5.11.133 5.627 1.925 7.567l1.924 2.135 8.693.194 8.693.259-8.096 8.732c-13.869 14.876-13.139 13.841-13.139 19.21 0 9.702.996 10.09 23.425 10.09h17.054v-5.563c0-8.796-.796-9.508-12.343-9.961l-8.029-.323 10.153-10.996 10.153-10.995.066-5.692c0-3.169-.266-6.209-.664-6.856-1.526-2.781-4.977-3.299-22.893-3.299h-16.922z"/></g></svg>