<svg fill="none" height="240" viewBox="0 0 600 240" width="600" xmlns="http://www.w3.org/2000/svg" xmlns:xlink="http://www.w3.org/1999/xlink"><mask id="a" height="120" maskUnits="userSpaceOnUse" width="354" x="123" y="60"><path d="m476.073 60h-352.143v120h352.143z" fill="#fff"/></mask><g mask="url(#a)"><path d="m183.927 170c26.825 0 48.571-21.746 48.571-48.571 0-26.8256-21.746-48.5718-48.571-48.5718s-48.572 21.7462-48.572 48.5718c0 26.825 21.747 48.571 48.572 48.571z" fill="#fff"/><g fill="#364153"><path d="m365.553 115.122c-6.698 0-8.874 6.008-8.874 14.072l.13 15.477c0 .687-.535 1.24-1.215 1.24h-4.754c-.665 0-1.215-.556-1.215-1.224v-34.497c0-.669.553-1.225 1.215-1.225h4.754c.665 0 1.215.556 1.215 1.225v5.877c1.67-4.913 4.461-7.102 9.619-7.102h5.452c.666 0 1.214.556 1.214 1.225v3.705c0 .669-.55 1.225-1.214 1.225z"/><path d="m303.57 94.1978h5.629c1.055 0 1.605 1.2573.892 2.0568l-17.956 19.8184 20.244 27.901c.585.817 0 1.942-.99 1.942h-6.294c-.39 0-.763-.196-.99-.521l-17.097-24.228-9.764 10.626v12.882c0 .669-.553 1.226-1.218 1.226h-4.753c-.666 0-1.218-.554-1.218-1.226v-49.2521c0-.669.552-1.2251 1.218-1.2251h4.753c.665 0 1.218.5561 1.218 1.2251v23.9651c0 1.698-.518 3.918-1.103 5.616h.145c.585-1.55 1.688-3.542 2.856-4.947l22.63-25.0601c.455-.5059 1.118-.7991 1.798-.7991z"/><path d="m340.037 108.975h5.076c.86 0 1.443.882 1.136 1.681l-16.059 40.487c-2.935 8.194-8.954 10.334-13.058 10.334h-5.239c-.665 0-1.217-.554-1.217-1.225v-3.462c0-.669.552-1.225 1.217-1.225h2.531c1.833 0 6.684-.962 8.224-5.093l1.916-5.91-13.431-33.926c-.324-.799.276-1.681 1.136-1.681h5.078c.503 0 .958.311 1.136.784l9.164 23.444c.583 1.699.958 3.77.958 5.469h.145c0-1.779.292-3.77.875-5.469l9.31-23.459c.177-.458.632-.766 1.135-.766z"/><path d="m376.695 99.2569v-3.8355c0-.6687.552-1.2252 1.215-1.2252h4.98c.668 0 1.219.5565 1.219 1.2252v3.8355c0 .669-.555 1.2251-1.219 1.2251h-4.98c-.667 0-1.215-.5561-1.215-1.2251zm7.268 10.9381v34.479c0 .669-.555 1.225-1.219 1.225h-4.691c-.664 0-1.215-.554-1.215-1.225v-34.479c0-.669.555-1.225 1.215-1.225h4.691c.664 0 1.219.554 1.219 1.225z"/><path d="m412.998 108.53c10.863.065 17.388 6.123 17.388 18.904 0 12.782-6.536 18.905-17.388 18.905-4.917 0-10.872-2.14-14.247-5.534-1.166-1.175-1.976-3.33-2.497-4.881l-.146.083c.521 1.551.96 3.69.96 5.389v3.282c0 .669-.555 1.225-1.219 1.225h-4.755c-.664 0-1.215-.554-1.215-1.225v-49.2529c0-.669.551-1.2251 1.215-1.2251h4.755c.664 0 1.219.5561 1.219 1.2251v18.3509c0 1.698-.439 3.77-.96 5.469h.146c.517-1.551 1.312-3.691 2.497-4.88 3.375-3.543 9.394-5.828 14.247-5.828zm10.267 18.904c0-8.57-3.892-12.701-12.701-12.929-6.454 0-13.493 4.88-13.493 12.929 0 8.05 7.039 12.636 13.493 12.636 9.101 0 12.701-3.918 12.701-12.636z"/><path d="m472.642 139.916h-.034c-1.537 0-2.201-.521-2.201-2.368v-14.334c0-10.923-8.891-14.466-17.846-14.466-7.59 0-15.506 2.856-17.179 10.858-.146.702.326 1.403 1.039 1.486l4.219.571c.6.083 1.2-.278 1.331-.864 1.166-4.848 5.302-6.221 10.59-6.221 6.832 0 10.432 2.074 10.657 7.754 0 2.888-7.121 2.595-14.388 2.743-7.347.213-14.682 2.433-14.682 10.334 0 4.211 2.794 7.313 6.604 9.094 3.743 1.764 7.039 1.616 7.931 1.616 5.434 0 12.619-2.22 14.535-9.307v3.249c0 3.249 2.415 5.827 6.162 5.827h3.262c.664 0 1.215-.538 1.215-1.225v-3.527c0-.669-.555-1.225-1.215-1.225zm-9.424-7.085c0 3.019-2.433 5.306-5.662 6.644-3.225 1.323-5.869 1.468-7.264 1.468-3.004 0-8.809-1.029-8.809-5.682 0-8.931 15.638-3.542 21.735-7.313z"/><path clip-rule="evenodd" d="m243.706 120.001c0 33.137-26.813 60-59.888 60s-59.888-26.863-59.888-60c0-33.1372 26.813-60.0003 59.888-60.0003s59.888 26.8631 59.888 60.0003zm-52.818 37.945c.597 1.252 1.841 1.984 3.14 1.984.503 0 1.014-.111 1.497-.342 1.733-.829 2.467-2.909 1.64-4.645l-12.272-25.744c-2.794-5.86-2.794-12.582.001-18.441l12.271-25.7298c.827-1.7362.093-3.816-1.64-4.6451-1.731-.8291-3.808-.0941-4.636 1.6421l-12.271 25.7298c-1.809 3.793-2.765 8.019-2.765 12.223s.954 8.431 2.763 12.224zm-17.176 2.013c-1.587-.001-3.019-1.096-3.386-2.711l-6.411-28.17c-1.355-5.952-1.354-12.246.002-18.197l6.409-28.1283c.428-1.8757 2.292-3.0498 4.164-2.6212s3.044 2.2957 2.616 4.1715l-6.409 28.128c-1.125 4.939-1.125 10.159-.003 15.098l6.412 28.17c.427 1.876-.745 3.745-2.617 4.172-.26.059-.521.088-.777.088zm-20.3-14.324c-1.921 0-3.478-1.56-3.478-3.485v-44.3429c0-1.9241 1.557-3.4841 3.478-3.4841s3.477 1.56 3.477 3.4841v44.3429c0 1.925-1.556 3.485-3.477 3.485zm60.917-.001c-.713 0-1.433-.219-2.053-.673l-17.241-12.656c-3.965-2.911-6.239-7.403-6.239-12.326 0-4.925 2.274-9.416 6.239-12.327l17.241-12.6555c1.549-1.137 3.726-.8014 4.86.7511 1.135 1.5529.8 3.7328-.75 4.8694l-17.241 12.656c-2.157 1.583-3.394 4.028-3.394 6.706 0 2.677 1.237 5.122 3.394 6.705l17.241 12.656c1.55 1.137 1.885 3.317.75 4.87-.681.931-1.737 1.424-2.807 1.424z" fill-rule="evenodd"/></g></g></svg>