<svg width="600" height="300" viewBox="0 0 600 300" fill="none" xmlns="http://www.w3.org/2000/svg">
<g clip-path="url(#clip0_615_141)">
<path d="M378.124 144.228C370.192 144.228 367.616 151.337 367.616 160.88L367.77 179.194C367.77 180.007 367.136 180.662 366.331 180.662H360.702C359.914 180.662 359.262 180.004 359.262 179.212V138.391C359.262 137.599 359.917 136.941 360.702 136.941H366.331C367.118 136.941 367.77 137.599 367.77 138.391V145.346C369.748 139.532 373.052 136.941 379.16 136.941H385.616C386.405 136.941 387.055 137.599 387.055 138.391V142.775C387.055 143.567 386.402 144.225 385.616 144.225L378.124 144.228Z" fill="#7B818D"/>
<path d="M304.728 119.467H311.394C312.643 119.467 313.295 120.955 312.451 121.901L291.187 145.353L315.16 178.369C315.853 179.335 315.16 180.666 313.988 180.666H306.535C306.073 180.666 305.632 180.435 305.362 180.05L285.117 151.38L273.554 163.955V179.199C273.554 179.991 272.899 180.649 272.112 180.649H266.483C265.695 180.649 265.041 179.993 265.041 179.199V120.917C265.041 120.125 265.695 119.467 266.483 119.467H272.112C272.9 119.467 273.554 120.125 273.554 120.917V149.275C273.554 151.285 272.941 153.912 272.248 155.922H272.42C273.113 154.087 274.418 151.73 275.801 150.067L302.599 120.413C303.138 119.814 303.923 119.467 304.728 119.467Z" fill="#7B818D"/>
<path d="M347.913 136.954H353.924C354.942 136.954 355.632 137.997 355.268 138.943L336.252 186.852C332.776 196.549 325.648 199.081 320.789 199.081H314.586C313.798 199.081 313.143 198.426 313.143 197.631V193.535C313.143 192.743 313.798 192.085 314.586 192.085H317.582C319.753 192.085 325.497 190.946 327.321 186.058L329.589 179.065L313.685 138.919C313.3 137.974 314.011 136.93 315.03 136.93H321.044C321.639 136.93 322.178 137.298 322.388 137.858L333.24 165.6C333.93 167.61 334.375 170.061 334.375 172.071H334.546C334.546 169.967 334.893 167.61 335.582 165.6L346.607 137.84C346.817 137.298 347.356 136.933 347.951 136.933L347.913 136.954Z" fill="#7B818D"/>
<path d="M391.321 125.454V120.916C391.321 120.124 391.973 119.466 392.759 119.466H398.657C399.445 119.466 400.098 120.124 400.098 120.916V125.454C400.098 126.246 399.442 126.904 398.657 126.904H392.759C391.971 126.904 391.321 126.246 391.321 125.454ZM399.925 138.397V179.198C399.925 179.989 399.269 180.647 398.484 180.647H392.929C392.144 180.647 391.491 179.992 391.491 179.198V138.397C391.491 137.606 392.146 136.948 392.929 136.948H398.484C399.269 136.948 399.925 137.603 399.925 138.397Z" fill="#7B818D"/>
<path d="M434.309 136.427C447.176 136.504 454.901 143.672 454.901 158.797C454.901 173.922 447.159 181.167 434.309 181.167C428.488 181.167 421.439 178.636 417.442 174.619C416.06 173.228 415.098 170.679 414.483 168.844L414.31 168.942C414.925 170.777 415.445 173.308 415.445 175.318V179.202C415.445 179.993 414.789 180.652 414.001 180.652H408.373C407.584 180.652 406.934 179.996 406.934 179.202V120.92C406.934 120.128 407.587 119.47 408.373 119.47H414.001C414.789 119.47 415.445 120.128 415.445 120.92V142.635C415.445 144.645 414.925 147.096 414.31 149.106H414.483C415.096 147.271 416.037 144.739 417.442 143.331C421.436 139.14 428.564 136.436 434.309 136.436V136.427ZM446.47 158.797C446.47 148.656 441.86 143.767 431.43 143.497C423.785 143.497 415.45 149.272 415.45 158.797C415.45 168.322 423.785 173.75 431.43 173.75C442.206 173.75 446.47 169.114 446.47 158.797Z" fill="#7B818D"/>
<path d="M504.941 173.567H504.901C503.077 173.567 502.291 172.951 502.291 170.766V153.803C502.291 140.878 491.764 136.686 481.16 136.686C472.171 136.686 462.795 140.066 460.818 149.534C460.645 150.364 461.201 151.194 462.046 151.292L467.042 151.968C467.751 152.066 468.463 151.639 468.616 150.945C470.001 145.209 474.897 143.584 481.16 143.584C489.248 143.584 493.511 146.039 493.781 152.76C493.781 156.178 485.347 155.831 476.741 156.006C468.04 156.258 459.357 158.884 459.357 168.234C459.357 173.218 462.662 176.888 467.175 178.996C471.609 181.083 475.51 180.908 476.568 180.908C483.001 180.908 491.512 178.281 493.778 169.894V173.74C493.778 177.584 496.64 180.635 501.077 180.635H504.938C505.724 180.635 506.376 179.997 506.376 179.185V175.011C506.376 174.22 505.721 173.562 504.938 173.562L504.941 173.567ZM493.781 165.184C493.781 168.756 490.899 171.463 487.075 173.046C483.254 174.611 480.122 174.783 478.471 174.783C474.917 174.783 468.04 173.565 468.04 168.06C468.04 157.491 486.559 163.868 493.781 159.406V165.184Z" fill="#7B818D"/>
<path fill-rule="evenodd" clip-rule="evenodd" d="M233.836 150.001C233.836 189.213 202.085 221.001 162.918 221.001C123.751 221.001 92 189.213 92 150.001C92 110.789 123.751 79.0012 162.918 79.0012C202.085 79.0012 233.836 110.789 233.836 150.001ZM171.29 194.903C171.997 196.384 173.472 197.25 175.009 197.25C175.605 197.25 176.21 197.12 176.782 196.846C178.834 195.865 179.703 193.404 178.723 191.349L164.191 160.886C160.883 153.951 160.883 145.997 164.193 139.064L178.723 108.617C179.703 106.563 178.834 104.101 176.782 103.12C174.732 102.139 172.272 103.009 171.292 105.063L156.761 135.51C154.618 139.999 153.486 144.999 153.486 149.974C153.486 154.949 154.617 159.951 156.758 164.439L171.29 194.903ZM150.951 197.285C149.073 197.284 147.377 195.989 146.942 194.077L139.35 160.743C137.745 153.699 137.747 146.252 139.352 139.209L146.942 105.924C147.448 103.705 149.656 102.315 151.872 102.822C154.089 103.33 155.477 105.539 154.97 107.759L147.381 141.044C146.048 146.888 146.048 153.065 147.378 158.91L154.97 192.244C155.476 194.464 154.088 196.675 151.871 197.18C151.563 197.251 151.255 197.285 150.951 197.285ZM126.912 180.334C124.638 180.334 122.794 178.489 122.794 176.212V123.739C122.794 121.462 124.638 119.616 126.912 119.616C129.187 119.616 131.03 121.462 131.03 123.739V176.212C131.03 178.489 129.187 180.334 126.912 180.334ZM199.049 180.334C198.205 180.334 197.352 180.074 196.618 179.537L176.201 164.561C171.507 161.117 168.814 155.801 168.814 149.975C168.814 144.148 171.507 138.833 176.201 135.389L196.618 120.413C198.452 119.067 201.03 119.464 202.373 121.302C203.717 123.139 203.321 125.718 201.485 127.064L181.069 142.04C178.514 143.913 177.05 146.806 177.05 149.975C177.05 153.144 178.514 156.037 181.069 157.91L201.485 172.886C203.321 174.231 203.717 176.811 202.373 178.648C201.566 179.75 200.316 180.334 199.049 180.334Z" fill="#7B818D"/>
</g>
<defs>
<clipPath id="clip0_615_141">
<rect width="417" height="142" fill="white" transform="translate(92 79)"/>
</clipPath>
</defs>
</svg>
