<svg fill="none" height="300" viewBox="0 0 600 300" width="600" xmlns="http://www.w3.org/2000/svg" xmlns:xlink="http://www.w3.org/1999/xlink"><clipPath id="a"><path d="m129.181 101h341.25v97h-341.25z"/></clipPath><g clip-path="url(#a)" fill="#364153"><path d="m133.556 148.917v48h8 8v-48-48h-8-8z"/><path d="m450.556 148.917v48h7.833 7.833v-48-48h-7.833-7.833z"/><path d="m404.055 125.283c-11.733 1.567-21.133 8.3-26.333 18.8-3.3 6.634-4.533 13.7-3.833 21.834.7 8.466 2.9 14.1 7.833 20.266 6.067 7.534 15.2 11.734 25.5 11.734 5.933 0 12.333-1.667 16.867-4.367 4.933-2.933 9.433-8.567 11.833-14.767 1-2.6 2.133-7.133 1.867-7.433-.1-.067-.9.9-1.834 2.167-3.033 4.066-6.433 6.866-10.833 8.9-4.233 1.966-6.1 2.3-12.233 2.3-5.067 0-5.734-.1-8.2-.9-6.6-2.167-12.167-7.7-14.267-14.167-1.167-3.567-1.567-5.833-1.8-10.267l-.233-3.8h24.3 24.3l-.234-2.9c-1.1-14.433-8-23.466-20.3-26.6-3.6-.9-9-1.266-12.4-.8zm7.5 7c6.334 1.034 10.3 6.434 10.734 14.634l.1 2.166h-16.234c-8.9 0-16.333-.133-16.466-.266-.434-.434.466-3.167 2.1-6.567 3.833-7.967 10.766-11.433 19.766-9.967z"/><path d="m192.389 125.75c-9.034 1.667-16.434 5.133-21.034 9.8-2.7 2.767-3.733 4.667-4.166 7.933-.467 3.167-.067 4.9 1.433 6.634 1.3 1.466 2.333 2 4.467 2.3 4.7.633 8.3-2.334 12.2-9.967 2.1-4.1 5.266-7.5 8.6-9.233 2.066-1.067 2.333-1.134 5.5-1.067 7.333.067 10.966 3.2 11.866 10.1.467 3.4.1 5.1-1.4 6.833-1.3 1.467-2.966 2.067-13.133 4.7-4.567 1.2-9.9 2.7-11.8 3.334-8.7 2.9-14.967 7.333-17.5 12.466-1.6 3.167-2 4.967-2 9 .033 6.334 1.333 9.834 4.967 13.534 4.633 4.7 12.433 6.733 20.4 5.333 9.066-1.567 14.833-6.4 18.633-15.567.667-1.633 1.333-2.966 1.467-2.966.5 0 .666 2.666.666 10.233v7.767h7.534 7.533l-.167-26.934c-.133-22.7-.233-27.233-.666-29.1-1.667-7.166-7.267-12.8-14.734-14.833-2.866-.8-14.966-.967-18.666-.3zm18.766 39.167c-.133 7.466-.166 7.933-1 10.3-1.733 4.766-4.8 8.266-9.1 10.4-6.1 3-13.6 2.3-17.2-1.6-2.266-2.467-2.8-4-2.8-8.267 0-3.333.1-3.867.967-5.733 1.2-2.634 3.8-5.134 6.633-6.434 1.167-.533 4.934-1.8 8.4-2.833 8.167-2.433 11.1-3.6 12.7-4.967l1.3-1.133.1 1.233c.067.667.067 4.734 0 9.034z"/><path d="m353.589 125.75c-7.2 1.333-12.3 6.533-15.2 15.5-.5 1.567-1 2.967-1.1 3.167-.466.8-.666-1.9-.7-9.634l-.033-8.266-9.8.1c-5.4.066-9.9.233-10.033.333-.1.133.4 1.033 1.133 2 1.867 2.5 2.7 4.9 3.067 8.8.133 1.833.266 15.9.3 31.233v27.934h7.633 7.667l.1-22.267c.133-20.333.166-22.4.733-24.067 1.667-5.066 5-9.366 8.733-11.2 1.7-.833 2.334-.966 4.834-.966 2.666 0 2.966.066 4.666 1.133 3.467 2.2 5.234 3.033 7.134 3.4 4.066.733 7.266-1.1 8.333-4.833.9-3.067-.1-6.1-2.8-8.667-3.6-3.333-9.1-4.733-14.667-3.7z"/><path d="m237.755 126.883-1.333.2 1.033 1.167c1.5 1.733 2.634 4.233 3.234 7.1.433 2.1.533 5.133.533 17.133 0 23.267.467 27.7 3.367 33.7 1.033 2.167 1.933 3.4 3.9 5.4 4.366 4.4 9.4 6.3 16.566 6.3 10.5 0 17.334-4.466 21.034-13.833.7-1.733 1.366-3.133 1.533-3.133.133 0 .267 3.6.267 8v8h7.833 7.833v-35.167-35.167l-8.9.034c-4.933 0-9.5.1-10.166.233l-1.2.233 1.466 1.934c.9 1.233 1.734 2.866 2.2 4.333.767 2.367.767 2.567.767 22.567 0 20.133 0 20.166-.733 22-2.034 4.933-5.567 7.366-11.667 8.066-10.667 1.167-17.3-3.2-18.133-11.9-.134-1.466-.267-12.766-.267-25.1l-.033-22.4-8.9.034c-4.934.033-9.534.166-10.234.266z"/></g></svg>