<svg fill="none" height="240" viewBox="0 0 600 240" width="600" xmlns="http://www.w3.org/2000/svg" xmlns:xlink="http://www.w3.org/1999/xlink"><mask id="a" height="98" maskUnits="userSpaceOnUse" width="436" x="82" y="71"><path d="m517.5 71.5688h-435v96.8662h435z" fill="#fff"/></mask><g fill="#364153" mask="url(#a)"><path d="m170.783 128.28h-37.608c2.215 6.025 7.77 8.366 14.643 8.366 6.318 0 12.868-1.786 18.081-5.131l7.446 12.271c-8.803 7.906-20.979 9.926-27.079 9.926-21.298 0-33.168-12.493-33.168-31.342s12.428-31.5623 30.506-31.5623c19.636 0 31.509 13.9443 27.179 37.4723zm-38.047-13.387h20.187c-.665-6.025-4.879-8.808-9.65-8.808-5.324 0-8.986 3.235-10.537 8.808zm81.912-23.3094h18.307v49.4044c0 19.517-15.198 27.436-32.616 27.436-6.318 0-18.985-3.209-24.995-5.912l5.915-15.393c4.553 2.564 10.987 4.684 18.307 4.684 8.43 0 13.088-2.898 13.201-8.703-3.882 2.343-8.656 3.348-13.422 3.348-14.643 0-25.293-9.481-25.293-27.099 0-17.619 10.76-28.215 25.401-28.215 6.213 0 11.539 1.8986 15.198 5.2417v-4.7973zm-.552 27.7724c0-6.804-4.324-10.709-9.651-10.709-5.326 0-9.43 4.013-9.43 10.709s4.104 10.71 9.43 10.71c5.327 0 9.651-3.793 9.651-10.71zm138.442-28.0011c5.059 0 9.566-3.1913 11.274-7.9778l1.372-3.8389h12.76v12.0454h11.427l-1.752 15.5624-9.675-.036v22.164c0 3.348 1.665 4.571 4.107 4.571 1.327 0 3.101-.336 4.987-1.336v19.517c-3.101 1.007-6.765 1.67-10.871 1.67-12.195 0-18.524-5.912-18.524-19.404v-27.184h-5.105zm128.07 0c5.059 0 9.566-3.1913 11.28-7.9778l1.373-3.8389h12.753v12.0454h11.438l-1.763 15.5624-9.675-.036v22.164c0 3.348 1.665 4.571 4.107 4.571 1.331 0 3.105-.336 4.991-1.336v19.517c-3.105 1.007-6.765 1.67-10.875 1.67-12.195 0-18.525-5.912-18.525-19.404v-27.184h-5.104zm-2.34 15.7581c-2.107-1.228-4.444-1.762-6.555-1.762-3.99 0-6.986 2.119-6.986 7.695v40.221h-20.19v-61.65h17.085v4.7996c2.996-3.7924 7.32-5.5755 12.09-5.5755 1.556 0 2.996.2209 4.556.5576m-190.41 23.0453v38.785h-19.342v-3.659c-3.307 2.744-8.079 4.347-13.436 4.347-12.055 0-19.802-8.009-19.802-20.938s7.852-20.817 20.028-20.817c4.558 0 8.649 1.03 11.838 2.975v-.349c0-5.948-3.865-8.924-11.151-8.924-5.35 0-8.143.198-12.244 2.598l-2.782-15.2955c6.366-2.4 13.766-3.6589 20.48-3.6589 16.953 0 26.401 8.235 26.401 24.9384l.005-.005zm-19.915 18.193c0-4.118-2.616-6.749-6.375-6.749s-6.367 2.744-6.367 6.749c0 4.006 2.616 6.75 6.367 6.75s6.375-2.628 6.375-6.75zm174.006-18.193v38.785h-19.342v-3.659c-3.308 2.744-8.081 4.347-13.436 4.347-12.053 0-19.8-8.009-19.8-20.938s7.852-20.817 20.028-20.817c4.557 0 8.648 1.03 11.835 2.975v-.349c0-5.948-3.862-8.924-11.148-8.924-5.352 0-8.145.198-12.24 2.598l-2.783-15.2955c6.364-2.4 13.766-3.6589 20.479-3.6589 16.957 0 26.404 8.235 26.404 24.9384v-.005zm-19.916 18.193c0-4.118-2.614-6.749-6.371-6.749-3.761 0-6.368 2.744-6.368 6.749 0 4.006 2.614 6.75 6.368 6.75 3.75 0 6.371-2.628 6.371-6.75z"/><g clip-rule="evenodd" fill-rule="evenodd"><path d="m314.656 153.699c-13.562-1.223-24.215-12.518-24.215-26.38v-51.5322l20.486-4.2165v49.8847c.111 3.202.648 8.372 2.932 10.653 2.315 2.31 5.989 2.945 7.557 3.197l.531.082"/><path d="m345.848 116.738-4.571-4.008c-1.667-1.334-2.338-2.339-2.338-3.451 0-1.447 1.113-2.181 3.117-2.181.935 0 1.976.002 3.134.005 1.463.002 3.115.008 4.993.008v-15.7535c-2.176 0-4.065.0127-5.856.0229-1.611.0105-3.14.018-4.722.018-13.14 0-20.938 5.9689-20.938 17.8886 0 6.015 2.004 10.914 6.906 15.478l3.68 3.451c2.225 2.004 3.116 3.342 3.116 4.676 0 1.783-1.284 2.482-3.507 2.482h-3.836l-7.305 18.325h13.764c14.03 0 22.606-7.341 22.606-20.036 0-6.907-2.559-11.92-8.24-16.93zm-235.085 17.855v19.106h-1.644c-5.761 0-11.4157-1.77-16.0252-5.229-6.4313-4.825-10.5938-12.487-10.5938-21.151v-51.5322l20.489-4.2165v49.8847c.11 3.199.647 8.372 2.931 10.653 1.144 1.139 3.127 1.953 4.843 2.485z"/></g></g></svg>