<svg width="600" height="300" viewBox="0 0 600 300" fill="none" xmlns="http://www.w3.org/2000/svg">
<path fill-rule="evenodd" clip-rule="evenodd" d="M138.164 119.515C137.8 117.793 134.86 113.836 131.565 113.836C130.827 113.836 130.341 113.96 129.855 114.089C133.03 115.324 135.473 118.523 136.211 120.754L138.041 119.643V119.515H138.164ZM158.937 194.492L147.067 186.463C145.64 185.497 143.979 183.672 143.979 180.267V151.192L142.791 151.925L142.319 152.169V181.114C142.319 183.549 143.62 186.102 145.397 187.318L157.394 195.466L158.937 194.492ZM107.664 165.326C107.897 160.394 106.852 154.377 105.8 148.599C104.747 142.705 103.807 136.687 103.926 131.4C104.045 128.154 104.63 125.026 105.913 122.137C103.695 125.624 102.296 129.592 102.176 133.805C101.827 144.032 106.616 157.381 106.145 167.735C106.048 169.14 105.933 170.543 105.8 171.945L106.03 171.702C106.967 170.376 107.55 168.336 107.664 165.326ZM124.315 194.317C122.535 190.734 118.266 188.548 113.278 188.548C112.799 188.659 112.324 188.659 111.852 188.659C116.721 189.471 120.873 192.12 122.42 195.466L124.315 194.317ZM167.246 151.538L163.091 147.041L163.218 150.037L165.41 152.575L167.246 151.538ZM281.07 126.288L271.11 120.37L272.606 119.37L282.189 125.033C281.815 125.408 281.441 125.783 281.07 126.288ZM283.438 195.466L279.35 192.585C276.664 190.669 275.265 187.432 275.265 183.837V143.805C275.265 138.292 276.435 134.455 278.299 131.822C277.249 134.455 276.781 137.692 276.781 141.41L276.896 182.395C276.896 186.831 278.184 189.709 281.221 191.866L284.959 194.508L283.44 195.466H283.438ZM250.338 195.101C250.338 195.101 249.953 195.343 249.698 195.466H248.673V128.549C248.673 125.312 248.417 125.312 246.366 123.869L243.413 121.711L245.342 120.754C246.88 121.949 249.189 123.631 249.189 123.753C250.087 124.59 250.338 125.067 250.338 126.988V195.218V195.101ZM201.379 112.452C200.357 115.122 200.484 117.674 201.764 119.764C202.921 121.618 204.967 122.897 207.407 123.479C199.844 124.056 196.518 118.605 201.379 112.452ZM219.181 170.562C219.673 168.654 219.873 166.508 219.873 164.246V129.581C219.873 125.413 219.673 124.942 218.486 123.631H218.687C220.365 123.272 221.256 123.631 221.256 127.2V161.984C221.256 166.035 220.666 168.654 219.181 170.562ZM222.156 195.467C221.166 192.194 218.173 189.425 212.946 188.668C213.698 188.548 214.442 188.548 215.193 188.548C221.657 188.667 223.527 192.693 223.902 193.954L224.025 194.327L222.156 195.467ZM399.902 194.616L396.336 192.44C393.119 190.497 391.452 187.479 391.452 182.878V150.084C391.452 148.149 391.337 148.271 390.617 147.664C390.617 147.664 388.118 145.605 386.451 144.274L384.669 145.249L388.117 147.906C390.025 149.355 389.789 149.476 389.789 152.383V184.206C389.789 188.563 391.572 191.588 394.071 193.047L398.355 195.466L399.902 194.616ZM366.666 195.217V146.081L364.804 144.274L362.511 145.363L364.658 147.413V195.466H365.814C366.096 195.341 366.526 195.217 366.526 195.217H366.666ZM327.89 194.615L314.044 186.193C311.271 184.487 310.194 182.416 310.194 178.755V151.192L308.989 151.802L308.502 152.044V180.097C308.502 183.392 309.945 185.825 312.478 187.296L326.319 195.466L327.89 194.615ZM334.814 178.863V151.531C334.814 150.092 334.357 149.608 333.313 149.013L327.89 145.658V147.456L331.006 149.251C333.313 150.568 333.313 150.81 333.313 153.332L333.202 177.904L334.814 178.863ZM444.218 129.5V129.148C444.218 125.849 442.309 122.437 439.382 120.666C438.26 119.958 437.255 119.37 437.255 119.37L435.909 120.315L436.69 120.78C440.506 123.025 442.651 125.849 442.651 130.438L444.218 129.5ZM488.533 194.492L476.632 186.463C475.222 185.497 473.568 183.672 473.568 180.267V151.192L472.388 151.925L471.915 152.169V180.745C471.915 183.91 473.099 186.102 475.097 187.441L486.88 195.466L488.533 194.492ZM437.293 195.871L424.58 187.56C421.531 185.612 420.938 183.775 420.938 180.225V153.959L419.995 154.452L419.29 154.814V180.839C419.29 185.001 420.586 186.834 422.585 188.174L435.759 196.849L437.293 195.871ZM495.457 151.536L491.303 147.041L491.426 150.037L493.621 152.575L495.457 151.536ZM446.987 180.247V141.507L444.218 142.611V179.143L446.987 180.247Z" fill="#969CA5"/>
<path fill-rule="evenodd" clip-rule="evenodd" d="M141.2 183.97L139.757 181.077L136.023 183.481C133.252 180.104 128.784 176.131 118.172 176.131C106.952 176.012 93.1963 184.923 86.9243 192.636L88.0114 194.082C96.5712 188.417 105.383 185.894 113.104 185.894C119.377 185.894 124.562 188.905 126.731 193.36L141.2 183.97ZM152.788 117.937C150.614 114.563 144.825 108.301 133.364 108.301C119.617 108.184 107.559 118.904 107.074 131.917C106.708 142.279 111.656 155.651 111.17 166.013C110.934 169.509 110.204 172.038 108.762 173.961L110.204 175.653L118.651 169.51C122.756 166.487 125.045 162.757 124.923 156.256C124.803 148.181 121.061 135.772 121.061 126.257C121.061 118.061 124.201 111.917 131.317 111.917C136.144 111.917 140.003 116.856 140.603 119.627C140.849 120.949 140.603 121.553 139.398 122.396L136.023 124.693V128.423L152.79 117.935L152.788 117.937ZM183.864 149.988L167.7 132.157L142.485 146.852V150.225L147.674 147.339V180.713C147.674 182.636 148.4 183.843 149.603 184.689L162.995 193.36L181.937 182.393L180.368 179.019L170.474 184.321L161.55 178.174C160.463 177.457 160.343 176.732 160.343 175.165V164.322L183.864 149.988ZM171.197 152.639L160.343 159.384V141.792L161.308 141.193L171.197 152.639ZM225.992 193.717C224.779 190.322 221.268 186.816 214.963 186.575C209.019 186.453 200.535 188.757 193.511 194.082L192.174 192.385C197.267 186.816 209.145 177.864 221.624 177.738C228.174 177.738 232.778 179.92 236.05 183.429L241.508 180.402L243.084 183.552L225.992 193.717ZM300.77 119.524C296.035 122.305 294.459 126.062 294.459 131.872V178.22C294.459 181.132 294.828 182.456 296.401 183.309L297.978 184.159L302.34 181.608L303.797 184.522L288.644 193.601L283.437 190.085C281.126 188.513 280.154 186.575 280.154 182.822V141.431C280.154 133.688 282.585 129.567 285.978 127.031L287.918 125.578L273.617 117.223L267.193 121.093V181.369C267.193 186.452 266.466 187.18 261.975 189.476C261.975 189.476 258.469 191.174 253.629 193.716H252.656V126.91C252.656 123.645 252.287 122.913 250.469 121.463L245.384 117.35L239.201 120.856V155.475C239.201 161.522 238.231 165.88 233.384 168.903L221.267 176.529L220.048 174.474C223.809 171.565 224.655 167.446 224.655 162.608V127.27C224.655 122.065 223.935 120.009 218.475 120.978C216.417 121.337 213.265 121.823 211.326 122.065C203.324 123.157 199.929 117.466 205.385 110.327C205.385 110.327 206.72 108.51 210.112 104.149L212.784 105.97L210.839 108.753C208.296 112.39 210.355 114.326 214.481 112.867C216.417 112.139 220.173 110.692 222.838 109.596C234.348 105.123 238.594 112.506 239.201 116.863L253.505 108.271L265.858 117.707L281.126 108.271L292.886 114.93C296.883 117.223 298.823 116.256 301.612 114.801L303.916 113.594L305.732 116.622L300.77 119.524ZM355.419 177.958L354.333 175.323L350.119 177.475V145.003C350.119 143.333 349.521 142.011 347.834 141.046L332.293 131.822L307.117 146.439V149.918L312.302 146.922V178.676C312.302 181.549 313.016 182.632 314.832 183.708L330.126 192.699L355.419 177.958ZM415.136 184.789L413.932 182.031L409.472 184.554L407.914 183.591C406.227 182.632 405.863 181.428 405.863 178.555V144.166C405.863 141.407 405.262 140.215 403.571 139.014L394.295 132.061L379.962 140.215L372.377 132.061L357.199 141.293L359.248 143.683L364.425 140.576L368.159 144.767V192.464H369.122C375.147 189.817 377.073 188.983 377.073 188.983C379.963 187.782 380.809 186.824 380.809 183.473V143.682L385.752 140.81L391.532 145.366C393.093 146.68 393.332 147.759 393.332 149.793L393.454 182.393C393.454 185.983 394.54 188.022 396.944 189.461L402.009 192.464L415.136 184.789ZM337.47 182.994L336.751 183.115L326.869 177.359C325.189 176.4 324.819 175.323 324.819 173.161L324.947 141.648L325.664 141.406L335.184 146.922C337.106 148.001 337.47 148.96 337.47 150.994V182.994ZM448.545 184.27L447.82 184.392L439.235 178.811C437.548 177.724 436.943 176.874 436.943 174.7V143.804L447.698 137.253L448.545 137.74V184.27ZM466.435 179.302L465.351 176.514L460.995 178.811V127.446C460.995 119.934 457.613 115.092 452.053 111.697L446.615 108.301L429.565 118.234L432.949 119.813L438.516 116.785L442.135 118.843C446.006 121.025 448.545 125.391 448.545 129.87V131.804L419.29 148.765V152.04L424.245 149.374V180.15C424.245 182.809 424.97 183.905 426.662 184.994L441.168 194.082L466.435 179.302ZM513.461 150.466L497.137 132.535L471.873 147.311V150.703L477.071 147.801V181.363C477.071 183.297 477.796 184.511 479.004 185.362L492.426 194.082L511.401 183.053L509.957 179.661L500.041 184.994L491.094 178.809C489.882 177.965 489.764 177.361 489.764 175.786V164.881L513.461 150.466ZM500.647 153.132L489.766 159.915V142.224L490.856 141.62L500.647 153.132Z" fill="#969CA5"/>
</svg>
