<svg width="600" height="240" viewBox="0 0 600 240" fill="none" xmlns="http://www.w3.org/2000/svg">
<path fill-rule="evenodd" clip-rule="evenodd" d="M125.432 85.4842C125.038 83.5657 121.857 79.158 118.292 79.158C117.493 79.158 116.967 79.2967 116.441 79.44C119.877 80.8162 122.52 84.3795 123.319 86.8635L125.298 85.626V85.4842H125.432ZM147.908 168.998L135.065 160.055C133.52 158.979 131.724 156.946 131.724 153.154V120.768L130.438 121.584L129.927 121.856V154.097C129.927 156.809 131.336 159.652 133.258 161.007L146.239 170.083L147.908 168.998ZM92.4309 136.512C92.6825 131.017 91.5526 124.315 90.4137 117.88C89.2749 111.315 88.2575 104.611 88.3865 98.7225C88.5155 95.1067 89.1477 91.6226 90.5367 88.4047C88.1364 92.2882 86.6229 96.708 86.4924 101.401C86.1147 112.792 91.2965 127.661 90.7869 139.195C90.6826 140.759 90.5581 142.323 90.4137 143.884L90.6627 143.613C91.6771 142.137 92.3079 139.863 92.4309 136.512ZM110.448 168.804C108.521 164.812 103.902 162.377 98.5055 162.377C97.9869 162.501 97.4727 162.501 96.962 162.501C102.23 163.405 106.722 166.356 108.396 170.083L110.448 168.804ZM156.899 121.153L152.403 116.144L152.54 119.481L154.912 122.309L156.899 121.153ZM280.057 93.0281L269.28 86.4368L270.899 85.3226L281.268 91.6301C280.863 92.0479 280.459 92.4656 280.057 93.0281ZM282.62 170.083L278.196 166.874C275.289 164.74 273.776 161.134 273.776 157.13V112.54C273.776 106.398 275.042 102.125 277.059 99.1924C275.923 102.125 275.417 105.731 275.417 109.872L275.541 155.524C275.541 160.465 276.935 163.67 280.22 166.073L284.265 169.016L282.62 170.083ZM246.804 169.676C246.804 169.676 246.387 169.945 246.112 170.083H245.003V95.5462C245.003 91.9414 244.726 91.9414 242.507 90.3341L239.312 87.93L241.399 86.8635C243.063 88.1951 245.562 90.069 245.562 90.2047C246.533 91.137 246.804 91.6687 246.804 93.8077V169.807V169.676ZM193.83 77.6171C192.725 80.5913 192.863 83.433 194.247 85.7618C195.5 87.8269 197.713 89.2507 200.353 89.8995C192.17 90.5422 188.571 84.4703 193.83 77.6171ZM213.093 142.343C213.624 140.218 213.842 137.827 213.842 135.308V96.6956C213.842 92.0539 213.624 91.5285 212.34 90.069H212.558C214.374 89.6685 215.337 90.069 215.337 94.0436V132.788C215.337 137.301 214.699 140.218 213.093 142.343ZM216.311 170.084C215.24 166.438 212.002 163.354 206.347 162.511C207.161 162.377 207.965 162.377 208.777 162.377C215.772 162.51 217.795 166.995 218.201 168.398L218.334 168.814L216.311 170.084ZM408.633 169.137L404.774 166.712C401.294 164.549 399.491 161.186 399.491 156.062V119.533C399.491 117.379 399.367 117.514 398.587 116.838C398.587 116.838 395.883 114.545 394.079 113.062L392.152 114.149L395.883 117.108C397.946 118.721 397.691 118.857 397.691 122.095V157.541C397.691 162.394 399.622 165.763 402.326 167.389L406.961 170.083L408.633 169.137ZM372.672 169.805V115.075L370.658 113.062L368.177 114.275L370.499 116.559V170.083H371.75C372.056 169.944 372.52 169.805 372.52 169.805H372.672ZM330.716 169.135L315.735 159.754C312.735 157.854 311.569 155.547 311.569 151.47V120.768L310.265 121.448L309.738 121.717V152.964C309.738 156.634 311.299 159.345 314.04 160.983L329.016 170.083L330.716 169.135ZM338.208 151.59V121.145C338.208 119.542 337.713 119.003 336.584 118.341L330.716 114.603V116.607L334.087 118.606C336.584 120.073 336.584 120.342 336.584 123.152L336.464 150.522L338.208 151.59ZM456.584 96.6064V96.2134C456.584 92.5395 454.518 88.7392 451.349 86.7664C450.138 85.9774 449.051 85.3226 449.051 85.3226L447.592 86.3752L448.439 86.8927C452.568 89.394 454.889 92.5395 454.889 97.6511L456.584 96.6064ZM504.532 168.998L491.654 160.055C490.132 158.979 488.339 156.946 488.339 153.154V120.768L487.064 121.584L486.551 121.856V153.685C486.551 157.212 487.833 159.652 489.997 161.145L502.743 170.083L504.532 168.998ZM449.092 170.534L435.337 161.277C432.037 159.107 431.396 157.06 431.396 153.106V123.85L430.376 124.398L429.611 124.802V153.79C429.611 158.426 431.013 160.468 433.177 161.961L447.431 171.624L449.092 170.534ZM512.024 121.152L507.528 116.144L507.663 119.481L510.037 122.309L512.024 121.152ZM459.581 153.131V109.98L456.584 111.21V151.901L459.581 153.131Z" fill="#364153"/>
<path fill-rule="evenodd" clip-rule="evenodd" d="M128.718 157.279L127.157 154.057L123.117 156.735C120.119 152.973 115.285 148.547 103.803 148.547C91.6623 148.415 76.7782 158.341 69.9922 166.932L71.1682 168.543C80.4299 162.232 89.9643 159.423 98.3182 159.423C105.106 159.423 110.716 162.776 113.063 167.739L128.718 157.279ZM141.257 83.7274C138.904 79.9699 132.641 72.9949 120.24 72.9949C105.365 72.864 92.3186 84.8044 91.7939 99.3C91.3983 110.841 96.7522 125.736 96.2264 137.277C95.9703 141.172 95.1806 143.989 93.6206 146.131L95.1806 148.015L104.321 141.173C108.762 137.806 111.239 133.651 111.107 126.409C110.977 117.415 106.928 103.593 106.928 92.9955C106.928 83.8657 110.325 77.022 118.026 77.022C123.247 77.022 127.423 82.5236 128.072 85.6106C128.339 87.0821 128.072 87.7556 126.769 88.6942L123.117 91.2525V95.4071L141.257 83.7274ZM174.882 119.428L157.392 99.5666L130.109 115.935V119.692L135.723 116.477V153.651C135.723 155.793 136.509 157.137 137.811 158.08L152.3 167.739L172.796 155.522L171.098 151.765L160.393 157.671L150.738 150.823C149.561 150.025 149.431 149.218 149.431 147.472V135.394L174.882 119.428ZM161.176 122.381L149.431 129.894V110.299L150.475 109.632L161.176 122.381ZM220.464 168.136C219.151 164.354 215.352 160.449 208.53 160.181C202.099 160.045 192.919 162.611 185.32 168.543L183.872 166.652C189.383 160.449 202.235 150.478 215.737 150.338C222.825 150.338 227.806 152.768 231.347 156.676L237.252 153.304L238.957 156.814L220.464 168.136ZM301.374 85.4947C296.251 88.5926 294.546 92.778 294.546 99.249V150.874C294.546 154.118 294.944 155.593 296.646 156.543L298.353 157.49L303.073 154.648L304.65 157.894L288.254 168.007L282.62 164.091C280.119 162.34 279.067 160.181 279.067 156V109.897C279.067 101.272 281.698 96.6817 285.369 93.8569L287.469 92.2387L271.994 82.932L265.043 87.2426V154.382C265.043 160.044 264.256 160.854 259.397 163.413C259.397 163.413 255.604 165.304 250.368 168.135H249.314V93.7226C249.314 90.0859 248.916 89.2706 246.948 87.6555L241.446 83.0737L234.756 86.979V125.54C234.756 132.275 233.707 137.129 228.462 140.497L215.351 148.991L214.032 146.703C218.102 143.461 219.018 138.874 219.018 133.485V94.1235C219.018 88.326 218.238 86.0359 212.33 87.1144C210.103 87.5152 206.693 88.056 204.595 88.326C195.937 89.5417 192.263 83.2031 198.167 75.2512C198.167 75.2512 199.612 73.2277 203.281 68.3704L206.173 70.3984L204.068 73.4974C201.317 77.5489 203.545 79.7051 208.009 78.0806C210.103 77.2699 214.167 75.6581 217.052 74.4375C229.505 69.4552 234.099 77.6782 234.756 82.5315L250.233 72.9611L263.599 83.4712L280.119 72.9611L292.843 80.3782C297.168 82.932 299.267 81.8546 302.285 80.235L304.778 78.8899L306.743 82.263L301.374 85.4947ZM360.505 150.583L359.33 147.647L354.77 150.045V113.875C354.77 112.015 354.123 110.542 352.298 109.468L335.482 99.1935L308.241 115.475V119.35L313.851 116.013V151.383C313.851 154.582 314.625 155.789 316.589 156.988L333.138 167.002L360.505 150.583ZM425.119 158.191L423.817 155.12L418.991 157.929L417.304 156.857C415.477 155.789 415.084 154.448 415.084 151.247V112.943C415.084 109.87 414.435 108.542 412.605 107.204L402.57 99.4601L387.06 108.542L378.851 99.4601L362.43 109.743L364.648 112.405L370.249 108.944L374.289 113.612V166.74H375.33C381.851 163.792 383.932 162.862 383.932 162.862C387.06 161.525 387.975 160.458 387.975 156.726V112.404L393.326 109.204L399.577 114.279C401.269 115.743 401.527 116.946 401.527 119.211L401.659 155.522C401.659 159.521 402.832 161.793 405.435 163.396L410.914 166.74L425.119 158.191ZM341.084 156.193L340.306 156.327L329.613 149.916C327.796 148.848 327.396 147.647 327.396 145.24L327.534 110.139L328.309 109.869L338.61 116.013C340.69 117.215 341.084 118.283 341.084 120.549V156.193ZM461.269 157.614L460.481 157.749L451.192 151.532C449.37 150.322 448.714 149.375 448.714 146.954V112.539L460.35 105.243L461.269 105.785V157.614ZM480.622 152.079L479.452 148.974L474.739 151.532V94.3192C474.739 85.9526 471.079 80.5586 465.064 76.7767L459.18 72.9949L440.73 84.0585L444.394 85.8169L450.416 82.4449L454.331 84.7365C458.52 87.1669 461.269 92.0306 461.269 97.0192V99.1736L429.615 118.066V121.714L434.974 118.744V153.024C434.974 155.986 435.757 157.207 437.591 158.419L453.285 168.543L480.622 152.079ZM531.506 119.96L513.844 99.9874L486.51 116.446V120.225L492.131 116.992V154.375C492.131 156.53 492.919 157.882 494.224 158.829L508.747 168.543L529.279 156.257L527.715 152.48L516.986 158.419L507.304 151.531C505.995 150.591 505.867 149.917 505.867 148.164V136.017L531.506 119.96ZM517.642 122.929L505.867 130.486V110.779L507.049 110.108L517.642 122.929Z" fill="#364153"/>
</svg>
