<svg width="600" height="240" viewBox="0 0 600 240" fill="none" xmlns="http://www.w3.org/2000/svg">
<mask id="mask0_1904_3486" style="mask-type:luminance" maskUnits="userSpaceOnUse" x="75" y="66" width="450" height="108">
<path d="M525 66.504H75V173.495H525V66.504Z" fill="white"/>
</mask>
<g mask="url(#mask0_1904_3486)">
<path fill-rule="evenodd" clip-rule="evenodd" d="M53.2266 366.772H546.774V-126.777H53.2266V366.772Z" fill="white"/>
<path fill-rule="evenodd" clip-rule="evenodd" d="M75 173.494H525V66.5037H75V173.494Z" fill="#364153"/>
<path fill-rule="evenodd" clip-rule="evenodd" d="M489.62 142.253C489.117 142.347 488.15 142.547 488.131 142.55C486.755 142.808 485.412 142.86 484.077 142.86C479.457 142.86 477.818 140.49 477.818 133.8V112.686H489.556V100.509H477.818V83.3355L460.482 89.1608V100.509H450.305V106.575H459.02C459.612 106.575 460.197 107.161 460.205 107.75V135.061C460.205 147.155 463.22 155.211 479.198 155.211C482.551 155.211 485.142 154.838 487.741 154.473C487.741 154.473 488.862 154.322 489.62 154.22V142.294V142.253Z" fill="white"/>
<path fill-rule="evenodd" clip-rule="evenodd" d="M324.908 99.2771C307.91 99.2771 296.461 110.533 296.461 127.284C296.461 143.974 307.912 155.188 324.908 155.188C341.92 155.188 353.375 143.974 353.375 127.284C353.375 110.533 341.92 99.2771 324.908 99.2771ZM324.908 141.911C315.183 141.911 314.212 130.614 314.212 127.284C314.212 123.93 315.183 112.555 324.908 112.555C334.635 112.555 335.605 123.93 335.605 127.284C335.605 130.614 334.635 141.911 324.908 141.911Z" fill="white"/>
<path fill-rule="evenodd" clip-rule="evenodd" d="M370.916 96.0094C376.446 96.0094 380.946 91.5109 380.946 85.98C380.946 80.4495 376.446 75.9506 370.916 75.9506C365.386 75.9506 360.887 80.4495 360.887 85.98C360.887 91.5109 365.386 96.0094 370.916 96.0094Z" fill="white"/>
<path fill-rule="evenodd" clip-rule="evenodd" d="M381.443 147.946C380.85 147.946 380.258 147.356 380.258 146.762V100.51L356.016 100.518V106.573H361.29C361.879 106.573 362.468 107.16 362.473 107.751V146.761C362.473 147.355 361.882 147.946 361.288 147.946H356.016V154.002H386.715V147.946H381.443Z" fill="white"/>
<path fill-rule="evenodd" clip-rule="evenodd" d="M447.36 146.763V120.758C447.36 110.385 442.473 99.3004 428.347 99.3004C420.926 99.3004 415.346 102.27 411.753 108.134L411.258 108.938V101.671C411.258 101.088 410.685 100.527 410.107 100.509L388.301 100.506V106.572H393.573C394.151 106.572 394.728 107.133 394.758 107.699V154.001H412.751L412.762 129.288C412.762 118.461 416.036 114.241 422.385 114.241C423.547 114.231 425.745 114.53 427.395 116.648C428.902 118.583 429.633 121.945 429.633 126.925V154.001L453.817 154.002V147.945H448.503C447.926 147.924 447.36 147.345 447.36 146.763Z" fill="white"/>
<path fill-rule="evenodd" clip-rule="evenodd" d="M191.868 99.3439C175.096 99.3439 165.223 111.732 165.223 127.247C165.223 143.998 176.823 155.253 194.119 155.253C201.118 155.253 207.609 153.539 212.656 151.353C212.656 151.353 212.823 151.283 212.961 151.224V138.148C212.635 138.336 212.226 138.551 212.226 138.551C206.073 141.825 199.445 142.515 196.906 142.515C189.124 142.515 184.032 138.8 182.994 133.412L182.933 133.094C182.933 133.094 216.51 133.094 217.032 133.094C217.032 132.63 217.032 129.262 217.032 129.262C217.032 110.249 207.286 99.3439 191.868 99.3439ZM182.663 121.739L182.695 121.445C183.079 117.834 185.184 111.411 191.962 111.411C198.44 111.411 200.318 116.591 200.735 120.231C200.877 121.161 200.241 121.75 199.547 121.739H182.663Z" fill="white"/>
<path fill-rule="evenodd" clip-rule="evenodd" d="M264.919 84.1072L237.699 84.1099V90.1654H242.971C243.565 90.1654 244.154 90.7545 244.155 91.3485V146.769C244.15 147.361 243.564 147.946 242.971 147.946H237.699V154.002H268.658V147.946H263.385C262.791 147.946 262.202 147.356 262.202 146.762L262.2 129.918H268.229C284.472 129.918 294.388 120.253 294.388 107.167C294.388 93.3814 285.047 84.1072 264.919 84.1072ZM266.02 116.528H262.199V97.3912H266.02C272.526 97.3912 276.32 100.938 276.32 106.873C276.32 113.02 272.62 116.528 266.02 116.528Z" fill="white"/>
<path fill-rule="evenodd" clip-rule="evenodd" d="M157.539 138.777C157.539 139.365 156.956 139.949 156.366 139.949L136.706 139.951V93.0641C136.706 92.475 137.291 91.8911 137.88 91.8911H143.099V85.8945L112.156 85.8923V91.8889H117.376C117.955 91.8889 118.527 92.4522 118.547 93.0308V146.864C118.527 147.442 117.955 148.006 117.376 148.006L112.156 148.007V154.002L163.535 154.001V133.557H157.539V138.777Z" fill="white"/>
</g>
</svg>
