<svg width="600" height="240" viewBox="0 0 600 240" fill="none" xmlns="http://www.w3.org/2000/svg">
<mask id="mask0_1904_3501" style="mask-type:luminance" maskUnits="userSpaceOnUse" x="54" y="63" width="492" height="114">
<path d="M545.765 63.7515H54.2305V176.252H545.765V63.7515Z" fill="white"/>
</mask>
<g mask="url(#mask0_1904_3501)">
<path d="M212.666 128.394C211.841 128.669 211.016 128.944 210.191 128.944C208.54 128.944 207.715 127.844 207.715 125.093V70.3556C207.715 70.3556 205.515 70.0804 201.114 70.9058C197.263 71.7308 195.062 72.831 195.062 72.831V126.193C195.062 134.445 199.463 138.846 206.89 138.846C209.916 138.846 212.941 138.296 215.417 137.196C215.417 137.196 215.417 135.27 214.867 132.519C214.042 129.494 212.666 128.394 212.666 128.394ZM241.823 89.0599C228.07 89.0599 220.368 100.062 220.368 114.365C220.368 129.219 228.345 139.121 243.473 139.121C250.9 139.121 256.676 136.37 261.352 132.795C261.352 132.795 261.077 131.144 259.152 128.944C257.501 126.743 255.851 125.918 255.851 125.918C251.725 128.669 248.424 130.044 244.573 130.044C238.522 130.044 234.121 127.293 233.296 118.216H262.727C262.727 116.841 263.002 114.915 263.002 113.265C263.002 97.8619 255.026 89.0599 241.823 89.0599ZM250.625 109.964H233.571C234.121 101.163 237.422 97.5866 242.373 97.5866C248.424 97.5866 250.9 102.263 250.9 109.414V109.964H250.625ZM292.159 109.414C283.907 106.939 282.257 105.839 282.257 103.088C282.257 100.613 284.457 98.6869 289.133 98.6869C292.984 98.6869 299.861 100.887 303.712 104.463C303.712 104.188 304.537 102.813 305.087 100.062C305.637 97.0365 305.362 95.3862 305.362 95.3862C300.961 91.8105 295.185 89.61 288.308 89.61C277.031 89.61 269.604 95.6614 269.604 103.638C269.604 110.79 274.005 115.466 283.632 118.216C292.434 120.692 294.085 121.792 294.085 125.368C294.085 128.394 291.059 130.319 286.383 130.319C281.982 130.319 278.131 128.669 274.555 126.193C273.73 125.643 273.18 125.093 273.18 125.093C273.18 125.093 271.529 125.918 269.879 128.394C267.953 130.869 267.679 132.519 267.679 132.519C272.08 136.646 278.681 139.396 286.933 139.396C298.21 139.396 307.287 133.895 307.287 123.993C306.737 115.741 301.511 111.89 292.159 109.414Z" fill="#364153"/>
<path d="M425.837 89.8864C424.187 89.3362 422.81 89.061 421.16 89.061C415.659 89.061 410.983 92.9119 408.785 99.5134L408.508 98.4131V90.1612C408.508 90.1612 406.307 89.061 402.459 89.061C398.608 89.061 396.407 90.1612 396.407 90.1612V137.197C396.958 137.472 399.156 138.022 402.733 138.022C406.307 138.022 408.508 137.197 409.059 137.197V113.266C410.709 105.565 413.462 101.439 419.237 101.439C420.613 101.439 422.263 101.714 423.635 102.264C425.012 97.863 427.213 94.2874 429.965 91.2615L425.837 89.8864ZM493.779 76.1332C493.779 76.1332 491.578 75.5831 487.175 76.6834C483.324 77.5084 481.127 78.6086 481.127 78.6086V90.4365H474.523V99.2385H481.127V126.47C481.127 134.721 485.525 139.122 492.954 139.122C495.977 139.122 499.003 138.572 501.478 137.472C501.478 137.472 501.478 135.546 500.93 132.796C500.105 129.77 499.003 128.395 499.003 128.395C498.178 128.67 497.353 128.945 496.528 128.945C494.878 128.945 494.053 127.845 494.053 125.094V99.5134H502.303L503.679 90.7114H494.327V76.1332H493.779ZM374.951 90.4365V123.444C372.751 127.295 369.725 129.495 366.425 129.495C362.849 129.495 361.198 127.845 361.198 122.619V90.4365H330.667V86.0355C330.667 81.6345 332.317 79.7089 336.718 79.7089C338.918 79.7089 341.394 80.259 344.42 81.3593C344.42 81.3593 345.52 80.259 346.62 77.5084C347.445 75.3079 347.72 73.1074 347.72 73.1074C344.144 71.457 340.019 70.3568 335.343 70.3568C323.79 70.3568 318.014 77.2335 318.014 85.7602V90.4365H312.512C312.512 93.7372 312.238 97.038 311.688 100.063H318.289V137.472C318.839 137.747 321.04 138.297 324.615 138.297C328.191 138.297 330.392 137.472 330.942 137.472V100.063H348.821V124.269C348.821 133.346 353.222 138.847 362.024 138.847C368.35 138.847 373.026 136.372 376.325 131.145L376.877 137.472C377.15 137.472 379.078 138.297 382.378 138.297C385.678 138.297 387.605 137.472 387.879 137.472V90.4365C387.879 90.4365 385.678 89.3362 381.553 89.3362C377.15 89.3362 374.951 90.4365 374.951 90.4365ZM448.944 89.061C435.189 89.061 427.487 100.064 427.487 114.367C427.487 129.22 435.467 139.122 450.594 139.122C458.019 139.122 463.798 136.372 468.47 132.796C468.47 132.796 468.197 131.145 466.273 128.945C464.623 126.744 463.247 125.919 462.969 125.919L462.695 126.194C458.57 128.945 455.27 130.045 451.419 130.045C445.367 130.045 440.968 127.294 440.139 118.218H469.573C469.573 116.842 469.847 114.917 469.847 113.266C470.124 97.863 462.144 89.061 448.944 89.061ZM457.745 109.966H440.69C441.242 101.164 444.542 97.5881 449.492 97.5881C455.544 97.5881 458.019 102.264 458.019 109.416V109.966H457.745ZM530.912 109.416C522.658 106.94 521.008 105.84 521.008 103.089C521.008 100.614 523.209 98.6884 527.886 98.6884C531.737 98.6884 538.614 100.888 542.466 104.464C542.466 104.189 543.29 102.814 543.838 99.7886C544.389 96.7627 544.116 95.1124 544.116 95.1124C539.713 91.5367 533.938 89.3362 527.061 89.3362C515.784 89.3362 508.355 95.3876 508.355 103.364C508.355 110.516 512.758 115.192 522.384 117.942C531.185 120.418 532.835 121.518 532.835 125.094C532.835 128.12 529.809 130.045 525.133 130.045C520.734 130.045 516.883 128.395 513.306 125.919C512.481 125.369 511.933 124.819 511.933 124.819C511.933 124.819 510.283 125.644 508.633 128.12C506.705 130.595 506.432 132.246 506.432 132.246C510.83 136.372 517.434 139.122 525.684 139.122C536.964 139.122 546.039 133.621 546.039 123.719C545.765 115.742 540.538 111.891 530.912 109.416Z" fill="#364153"/>
<path d="M60.007 98.9617C60.2818 98.6865 60.2818 98.4116 60.007 98.1364C59.4568 97.0361 56.7062 96.486 55.8808 96.486C54.7806 96.2111 54.5057 97.0361 54.2305 97.3114V99.2366C54.5057 99.2366 54.7806 99.2366 55.0558 99.5119C55.3307 100.062 55.0558 100.887 55.0558 100.887H55.3307C55.606 101.162 55.8808 101.437 56.431 101.437H57.2563L56.9811 101.162C56.1561 100.337 57.2563 98.9617 58.3566 99.7867C58.3566 100.337 59.4568 99.7867 60.007 98.9617Z" fill="#364153"/>
<path d="M103.468 137.747C103.193 137.747 103.193 138.022 102.918 138.022C101.543 138.572 99.0668 138.297 97.6917 138.022C100.992 137.747 102.918 136.921 103.743 136.647C105.668 135.546 107.319 133.621 107.594 128.945C107.869 126.469 103.743 123.718 101.543 122.893H101.267C100.717 122.619 99.6169 122.343 98.5167 122.343C99.8922 117.392 101.543 111.891 102.643 108.865C104.293 104.739 104.843 96.4875 102.643 91.5364V90.4361C102.368 86.5852 99.6169 84.1099 96.0413 84.1099C95.4912 84.1099 94.9411 84.1099 94.3909 84.3851C91.6403 83.2849 88.6148 82.4595 85.8642 82.1846C85.5889 81.6345 85.3141 81.0844 84.7639 80.259C83.6637 79.1587 82.0133 78.8839 80.3629 79.434C78.9874 79.7089 77.3371 81.3592 76.5121 82.7347C74.5864 83.2849 72.9361 84.1099 71.5609 84.66C70.7356 84.9352 70.4607 85.2101 69.9106 85.4854C69.9106 85.2101 69.6353 84.66 69.0852 84.1099C67.9849 82.7347 66.3346 81.9094 64.6842 81.9094C64.1341 81.9094 63.5839 82.1846 63.0338 82.4595L61.9336 82.1846C61.6587 82.1846 61.3834 82.1846 61.3834 82.4595L60.5584 84.3851V84.66L60.8333 85.2101C60.2832 86.5852 60.0083 87.9607 60.2832 89.6111C60.5584 92.3617 62.2088 94.5622 64.4093 95.3872C67.1599 96.4875 69.0852 94.287 69.0852 94.287C69.3604 95.6625 68.8103 99.5134 74.8617 101.439C76.2368 101.989 81.1879 102.539 80.6378 107.215C80.3629 108.59 78.9874 109.69 77.0622 110.241C77.0622 109.416 76.5121 107.765 74.3116 108.865C71.5609 110.241 66.0597 110.241 60.8333 106.39L59.1829 105.289C59.1829 105.289 59.1829 105.565 58.9081 105.565C59.1829 106.665 60.2832 108.59 63.3091 110.516C64.1341 111.066 66.3346 112.166 67.4348 112.716C67.9849 113.266 69.3604 113.817 70.1854 114.367C71.5609 115.192 72.9361 118.218 73.2113 119.593C73.2113 120.143 73.4862 123.718 73.4862 124.269V126.194C74.0363 127.845 75.1366 129.77 75.4118 130.045C76.7869 131.42 78.7126 132.796 80.6378 132.796C84.4887 132.52 93.0154 128.67 98.5167 123.718C98.7919 123.444 99.0668 124.269 99.0668 124.544C100.167 124.819 102.918 125.644 104.568 127.019C105.668 127.845 106.218 128.945 105.118 129.77C104.843 130.045 102.918 131.145 102.368 130.32C102.093 129.77 102.368 129.495 102.093 128.945C101.817 128.67 101.267 128.395 100.442 128.119C99.6169 127.845 96.3162 128.395 95.4912 127.569C91.0902 131.145 85.3141 134.721 80.3629 134.721C76.5121 134.996 73.4862 130.045 71.5609 127.294C71.2857 127.294 71.0108 127.569 70.7356 127.569C70.1854 127.845 68.8103 128.395 68.5351 129.22C68.2602 129.495 68.2602 129.77 68.2602 130.045C67.9849 130.595 68.5351 132.52 68.5351 133.346C68.8103 133.896 69.0852 134.721 69.9106 135.271C69.3604 135.271 68.8103 134.996 67.9849 134.446C67.4348 135.546 67.1599 136.921 67.9849 138.572C67.9849 138.847 68.2602 139.122 68.2602 139.122C67.4348 139.947 66.6098 140.772 66.3346 141.322C63.3091 144.623 60.8333 147.649 58.6328 150.95C67.4348 162.227 79.8128 170.754 94.1157 174.33C94.3909 158.652 98.5167 148.199 104.018 139.122C103.743 138.572 103.743 138.022 103.468 137.747ZM69.3604 90.1612C69.0852 89.3359 68.2602 88.7857 67.4348 88.5109L67.1599 90.1612L66.3346 88.7857C65.5096 89.061 64.6842 89.886 64.6842 90.9862C64.6842 92.3617 65.5096 93.462 66.8847 93.462C67.1599 93.462 67.7101 93.462 67.9849 93.1867C67.7101 93.7369 66.8847 94.0121 66.3346 94.0121C64.4093 94.287 62.2088 92.0865 61.9336 89.3359C61.6587 86.3104 62.7589 83.835 64.9594 83.5597H65.2343C67.1599 83.5597 68.8103 85.7602 69.3604 88.2356V90.1612ZM78.1624 94.0121L77.8872 95.6625L77.0622 94.0121C76.2368 94.287 75.9619 95.1124 75.6867 95.9374C75.6867 97.3129 76.5121 98.1379 77.8872 98.4131H78.7126C78.1624 98.9632 77.6123 99.5134 77.0622 99.5134C75.1366 99.7882 72.9361 97.863 72.6612 95.1124C72.3859 93.7369 72.6612 92.3617 73.2113 91.2615C73.7614 90.1612 74.5864 89.6111 75.4118 89.6111C77.3371 89.3359 79.2627 91.2615 79.8128 94.0121V95.1124C79.5376 94.5622 78.9874 94.287 78.1624 94.0121ZM85.3141 94.5622C85.0388 93.7369 85.0388 93.462 84.2138 92.0865C83.6637 90.9862 82.8383 89.886 82.0133 89.061C79.8128 87.1354 77.8872 86.5852 76.5121 86.3104C75.1366 86.0351 73.4862 86.3104 73.7614 86.3104C74.3116 85.4854 75.1366 84.1099 81.7381 86.3104C81.7381 86.3104 83.9386 87.1354 84.2138 87.4106C83.3884 87.4106 83.3884 87.6855 83.3884 87.6855C83.3884 87.6855 85.5889 89.061 85.3141 89.061C84.4887 88.7857 84.4887 89.061 84.4887 89.061C84.4887 89.061 85.8642 90.4361 85.8642 90.9862C85.8642 90.9862 84.7639 90.4361 84.7639 90.7114C84.7639 91.5364 85.5889 92.9119 85.3141 94.5622ZM95.4912 86.5852C96.0413 86.5852 96.3162 86.3104 96.8663 86.5852C99.0668 86.8605 100.442 88.5109 100.442 90.7114C100.442 92.6366 98.7919 94.0121 97.1416 94.287C97.4164 93.462 97.9666 92.6366 97.9666 91.8116C97.6917 89.061 96.8663 87.6855 95.4912 86.5852ZM74.0363 138.847L73.7614 139.672C73.2113 141.322 73.4862 142.698 73.4862 143.798V153.15C73.4862 153.425 73.2113 153.7 72.9361 153.7C72.6612 153.7 72.3859 153.425 72.3859 153.15V143.798C72.3859 142.423 72.3859 141.048 72.9361 139.122L73.2113 138.297C72.6612 138.022 72.3859 137.197 72.3859 136.371C72.3859 135.271 73.2113 134.171 74.3116 134.171C75.4118 134.171 76.2368 135.271 76.2368 136.371C75.9619 137.747 75.1366 138.847 74.0363 138.847ZM90.5401 140.772C91.0902 142.423 91.0902 143.523 91.0902 145.173V157.276C91.0902 157.551 90.8149 157.826 90.5401 157.826C90.2648 157.826 89.9899 157.551 89.9899 157.276V145.173C89.9899 143.523 89.7147 142.423 89.4398 141.048L89.1646 140.222C88.0647 140.222 86.9644 139.122 86.9644 138.022C86.9644 136.921 88.0647 135.821 89.1646 135.821C90.2648 135.821 91.3651 136.921 91.3651 138.022C91.3651 138.847 90.8149 139.672 90.2648 139.947L90.5401 140.772Z" fill="#364153"/>
<path d="M74.0363 135.544C73.7611 135.544 73.2109 136.094 73.2109 136.644V137.194L73.4862 136.644C73.4862 136.369 73.7611 136.094 74.0363 136.369C74.3112 136.369 74.5864 136.644 74.3112 136.919L74.0363 137.744C74.3112 137.469 74.5864 137.194 74.5864 136.644C74.8613 136.094 74.5864 135.544 74.0363 135.544ZM89.1646 136.644C88.6144 136.644 88.0643 137.194 88.0643 137.744C88.0643 138.294 88.3396 138.844 88.8897 138.844L88.6144 138.019C88.6144 137.744 88.6144 137.469 88.8897 137.469C89.1646 137.469 89.4398 137.469 89.4398 137.744L89.7147 138.844C89.9899 138.569 90.2648 138.294 90.2648 138.019C90.5401 137.194 89.9899 136.644 89.1646 136.644ZM111.444 87.6833C112.27 95.1098 115.295 98.1352 116.671 102.261C119.696 111.063 120.522 116.84 119.972 120.69C119.146 128.942 137.85 131.418 142.527 127.567C143.627 126.742 144.177 125.641 144.177 124.541V117.115L145.552 103.912C145.552 103.912 146.378 101.986 148.303 99.2355C152.154 94.0095 155.179 88.7831 153.529 83.5571C151.878 79.1561 147.203 73.6549 147.203 71.7296C147.753 69.804 148.028 67.8787 147.203 65.9531C146.652 64.8529 145.002 63.7526 143.352 63.7526C142.251 63.7526 141.426 64.0279 140.876 64.578C139.501 64.0279 138.401 64.0279 136.475 64.0279C133.725 64.0279 123.822 65.1281 123.822 65.1281C123.822 65.1281 120.246 65.403 118.321 67.0534C118.046 66.7785 116.671 65.1281 113.645 65.9531C111.444 66.5032 110.344 68.4289 110.069 70.0792C109.794 72.8299 110.894 74.7551 112.82 77.2309C111.995 80.5316 111.17 84.3825 111.444 87.6833ZM143.352 94.0095C142.802 94.5596 141.701 95.3846 140.051 95.3846C138.676 95.3846 137.025 95.1097 136.2 94.8345C134.825 94.2844 134 93.4594 134 93.4594C134 93.4594 137.025 92.9092 139.776 93.1841C141.977 92.634 145.002 92.3591 145.002 92.3591C144.452 92.634 143.902 93.4594 143.352 94.0095ZM137.85 69.2539C138.126 68.4289 138.676 67.8787 139.501 67.8787C139.226 68.4289 139.501 68.4289 139.501 68.4289C139.501 68.4289 140.051 67.8787 140.876 67.8787V68.4289C140.876 68.4289 141.426 67.8787 142.251 68.1536L141.977 68.4289C143.352 68.7037 144.727 68.7038 145.827 69.804C146.378 70.0793 146.378 70.6294 146.378 70.6294C145.002 69.804 144.452 69.804 144.452 69.804C141.426 69.2539 140.326 70.3541 139.226 70.3541C139.226 70.3541 138.401 70.3541 138.401 69.5291C137.85 69.5291 137.85 69.2539 137.85 69.2539ZM133.725 78.3311C134.55 77.5057 134.55 76.9556 134.825 76.6808C135.1 76.4055 135.375 75.3052 136.75 75.3052C137.3 75.3052 137.85 75.3053 138.951 76.1306C139.501 76.4055 139.776 76.9556 140.326 77.2309C140.601 75.0304 142.527 73.9301 144.177 74.205C145.552 74.7551 146.652 76.1306 146.378 77.5057C146.378 77.781 145.827 78.0559 145.002 78.3311C145.002 78.0559 145.277 77.781 145.277 77.5057C145.277 76.4055 144.452 75.5805 143.627 75.5805L143.352 77.2309L142.527 75.8554C141.977 76.1306 141.426 76.6807 141.426 77.5057C141.426 77.781 141.426 78.3311 141.701 78.606C143.352 79.9815 145.002 81.0817 146.652 81.6319C150.228 82.7321 152.154 86.0329 150.778 88.5082C148.303 92.0839 143.627 90.9836 140.051 90.7087C137.576 90.7087 135.375 92.0839 132.899 92.3591C130.424 92.634 127.123 92.9093 124.647 92.3591C123.272 91.2589 121.347 89.6085 122.997 87.408C123.547 86.583 126.023 85.2075 129.048 82.7321C131.799 80.5316 132.899 79.4314 133.725 78.3311ZM126.298 77.2309L126.023 78.8812L125.198 77.5057C124.647 77.781 124.097 78.3311 124.097 79.1561C124.097 79.9815 124.373 80.5316 124.923 80.8065C123.822 81.0818 122.997 80.8065 122.997 80.2564C122.172 77.781 124.097 75.8554 125.748 75.8554C127.398 75.8554 129.048 76.9556 129.048 78.3311C129.048 78.8812 128.498 79.4314 127.673 79.7062V79.1561C127.948 78.0559 127.123 77.2309 126.298 77.2309ZM119.146 73.1048C120.246 71.7296 121.347 70.6294 123.822 70.0792C124.923 69.804 126.573 69.2539 128.223 69.2539C128.223 68.979 128.223 68.979 127.673 68.7037C128.498 68.4289 129.324 69.2539 129.324 69.2539C129.324 69.2539 129.324 68.7037 129.048 68.4289H129.599L130.699 68.979C130.699 68.979 130.699 68.7037 130.424 68.1536C130.424 68.1536 130.974 68.1536 130.974 68.4289C131.249 68.7037 131.799 68.979 132.349 69.804C132.349 70.0793 132.624 70.3541 132.624 70.6294C132.624 71.1795 132.349 71.4544 132.074 71.4544H131.249C128.223 71.1795 124.373 71.1795 121.897 72.8299C119.421 74.205 118.321 77.5057 117.771 80.2564C117.771 78.0559 117.771 75.0304 119.146 73.1048Z" fill="#364153"/>
<path d="M136.201 87.1331C136.477 86.8582 136.752 86.583 137.302 86.583C137.852 86.583 138.402 87.1331 138.402 87.6832C138.402 87.9585 138.402 88.2334 138.127 88.2334C138.402 88.2334 138.952 88.5086 139.227 88.5086C139.502 88.5086 140.052 88.2334 140.328 88.2334C140.052 87.9585 140.052 87.9585 140.052 87.6832C140.052 87.1331 140.602 86.583 141.152 86.583C141.428 86.583 141.703 86.583 141.978 86.8582C142.528 86.3081 142.253 85.758 141.978 85.2079C141.152 84.6577 140.052 83.5575 138.952 83.5575C137.577 83.5575 136.477 84.6577 135.927 85.2079C135.376 85.758 135.651 86.3081 135.927 86.8582L136.201 87.1331ZM149.955 137.194H153.805C155.456 135.269 153.805 130.868 153.53 130.318V130.043L148.854 125.642C148.579 125.367 148.029 125.092 147.754 124.542C147.204 123.991 146.654 123.716 146.379 123.441C146.104 123.166 145.554 123.441 145.829 123.991C146.654 125.642 147.754 127.842 147.754 129.768C147.204 133.894 145.829 138.019 144.453 141.87C142.253 148.747 140.878 152.873 138.127 159.474C137.577 161.125 136.752 164.15 136.201 167.451C142.528 160.575 148.579 150.947 152.155 141.595L149.404 138.019C149.404 137.745 149.129 137.745 149.404 137.469C149.404 137.469 149.68 137.194 149.955 137.194ZM118.048 134.444L113.371 137.469C116.122 141.87 126.574 154.798 135.651 163.6C135.927 162.775 135.927 161.95 136.201 161.4C135.927 161.4 135.376 160.575 134.826 160.024C134.001 159.199 128.775 149.297 125.749 143.521C122.999 138.57 121.073 133.068 118.598 127.842C117.222 123.991 118.598 121.241 119.148 120.141V119.59C118.873 119.315 118.323 119.04 118.048 119.315C118.048 119.315 115.572 120.966 113.097 124.266L112.271 125.917C110.896 128.667 111.171 131.143 112.821 133.068L117.772 133.618C118.048 133.618 118.048 133.894 118.323 133.894C118.323 134.169 118.323 134.444 118.048 134.444Z" fill="#364153"/>
<path d="M112.269 137.748C111.994 137.473 112.269 137.198 112.544 136.923L116.395 134.172L112.544 133.898C112.544 133.898 112.269 133.898 112.269 133.622C111.444 132.522 110.894 131.697 110.619 130.322C104.843 138.849 99.6165 147.375 97.1408 160.028L96.5906 162.779C96.0405 166.355 95.7656 170.205 95.7656 174.332C100.441 175.432 105.393 175.982 110.344 175.982C118.871 175.982 127.123 174.332 134.549 171.306C134.824 169.105 135.099 166.63 135.374 164.704C126.022 155.903 114.745 142.149 112.269 137.748ZM160.68 146.825C159.305 142.974 157.929 139.399 156.279 137.198C156.004 136.923 155.729 136.373 155.454 136.098C155.179 136.923 154.904 137.473 154.354 138.299L154.078 138.573H151.053L153.253 141.324C153.253 141.599 153.528 141.599 153.253 141.874C149.127 151.776 142.526 162.504 135.924 169.38C135.924 169.93 135.924 170.756 135.65 171.306C145.827 166.905 154.629 160.303 161.505 151.501C160.955 148.751 160.68 146.825 160.68 146.825Z" fill="#364153"/>
</g>
</svg>
