<svg width="600" height="300" viewBox="0 0 600 300" fill="none" xmlns="http://www.w3.org/2000/svg">
<g clip-path="url(#clip0_1334_18551)">
<path d="M439.989 193.433V131.855H449.172V141.461C451.379 138.505 454.073 136.001 457.257 133.948C460.441 131.896 464.522 130.869 469.503 130.869C473.749 130.869 477.709 131.896 481.383 133.948C485.137 135.919 488.159 138.916 490.445 142.939C492.812 146.88 493.996 151.765 493.996 157.594V193.433H484.812V157.841C484.812 152.258 483.219 147.783 480.035 144.417C476.851 140.968 472.728 139.244 467.665 139.244C464.236 139.244 461.135 140.024 458.358 141.584C455.582 143.144 453.338 145.361 451.624 148.235C449.989 151.026 449.172 154.269 449.172 157.964V193.433H439.989Z" fill="#7B818D"/>
<path d="M399.008 194.418C392.802 194.418 387.373 193.022 382.719 190.231C378.066 187.357 374.433 183.498 371.821 178.654C369.289 173.81 368.024 168.473 368.024 162.644C368.024 156.732 369.248 151.395 371.698 146.633C374.147 141.789 377.658 137.971 382.229 135.18C386.803 132.306 392.191 130.869 398.397 130.869C404.682 130.869 410.071 132.306 414.562 135.18C419.133 137.971 422.644 141.789 425.093 146.633C427.543 151.395 428.767 156.732 428.767 162.644V166.338H377.454C377.944 169.951 379.087 173.276 380.883 176.314C382.76 179.27 385.251 181.651 388.353 183.457C391.456 185.181 395.048 186.043 399.131 186.043C403.458 186.043 407.09 185.099 410.03 183.211C412.969 181.24 415.255 178.736 416.887 175.698H426.931C424.807 181.199 421.42 185.715 416.766 189.246C412.195 192.694 406.275 194.418 399.008 194.418ZM377.576 157.718H419.215C418.398 152.463 416.194 148.07 412.602 144.54C409.009 141.009 404.275 139.244 398.397 139.244C392.516 139.244 387.782 141.009 384.189 144.54C380.68 148.07 378.475 152.463 377.576 157.718Z" fill="#7B818D"/>
<path d="M339.627 193.437V139.987H329.095V131.859H339.627V126.44C339.627 119.707 341.627 114.658 345.628 111.292C349.71 107.926 355.263 106.242 362.283 106.242H363.018V114.987H361.793C357.547 114.987 354.322 115.972 352.118 117.942C349.914 119.831 348.812 122.91 348.812 127.179V131.859H363.018V139.987H348.812V193.437H339.627Z" fill="#7B818D"/>
<path d="M309.976 121.514V109.444H319.897V121.514H309.976ZM310.343 193.437V131.859H319.528V193.437H310.343Z" fill="#7B818D"/>
<path d="M285.229 193.438V107.229H294.414V193.438H285.229Z" fill="#7B818D"/>
<path d="M192.01 127.321V106H148.483C148.483 130.126 129.016 149.682 105 149.682V193.365C126.79 193.365 146.705 185.305 161.963 172.004V193.365H205.447C205.447 169.239 224.914 149.682 248.93 149.682V106C227.158 106 207.264 114.042 192.01 127.321Z" fill="#7B818D"/>
</g>
<defs>
<clipPath id="clip0_1334_18551">
<rect width="389" height="89" fill="white" transform="translate(105 106)"/>
</clipPath>
</defs>
</svg>
