<svg fill="none" height="300" viewBox="0 0 600 300" width="600" xmlns="http://www.w3.org/2000/svg" xmlns:xlink="http://www.w3.org/1999/xlink"><mask id="a" height="89" maskUnits="userSpaceOnUse" width="389" x="105" y="106"><path d="m494 106h-389v89h389z" fill="#fff"/></mask><g fill="#364153" mask="url(#a)"><path d="m439.988 193.433v-61.578h9.183v9.606c2.207-2.956 4.901-5.46 8.085-7.513 3.184-2.052 7.265-3.079 12.246-3.079 4.246 0 8.206 1.027 11.88 3.079 3.754 1.971 6.776 4.968 9.062 8.991 2.367 3.941 3.551 8.826 3.551 14.655v35.839h-9.184v-35.592c0-5.583-1.593-10.058-4.777-13.424-3.184-3.449-7.307-5.173-12.37-5.173-3.429 0-6.53.78-9.307 2.34-2.776 1.56-5.02 3.777-6.734 6.651-1.635 2.791-2.452 6.034-2.452 9.729v35.469z"/><path d="m399.007 194.418c-6.206 0-11.635-1.396-16.289-4.187-4.653-2.874-8.286-6.733-10.898-11.577-2.532-4.844-3.797-10.181-3.797-16.01 0-5.912 1.224-11.249 3.674-16.011 2.449-4.844 5.96-8.662 10.531-11.453 4.574-2.874 9.962-4.311 16.168-4.311 6.285 0 11.674 1.437 16.165 4.311 4.571 2.791 8.082 6.609 10.531 11.453 2.45 4.762 3.674 10.099 3.674 16.011v3.694h-51.313c.49 3.613 1.633 6.938 3.429 9.976 1.877 2.956 4.368 5.337 7.47 7.143 3.103 1.724 6.695 2.586 10.778 2.586 4.327 0 7.959-.944 10.899-2.832 2.939-1.971 5.225-4.475 6.857-7.513h10.044c-2.124 5.501-5.511 10.017-10.165 13.548-4.571 3.448-10.491 5.172-17.758 5.172zm-21.432-36.7h41.639c-.817-5.255-3.021-9.648-6.613-13.178-3.593-3.531-8.327-5.296-14.205-5.296-5.881 0-10.615 1.765-14.208 5.296-3.509 3.53-5.714 7.923-6.613 13.178z"/><path d="m339.626 193.437v-53.45h-10.532v-8.128h10.532v-5.419c0-6.733 2-11.782 6.001-15.148 4.082-3.366 9.635-5.05 16.655-5.05h.735v8.745h-1.225c-4.246 0-7.471.985-9.675 2.955-2.204 1.889-3.306 4.968-3.306 9.237v4.68h14.206v8.128h-14.206v53.45z"/><path d="m309.977 121.514v-12.07h9.921v12.07zm.367 71.923v-61.578h9.185v61.578z"/><path d="m285.23 193.438v-86.209h9.185v86.209z"/><path d="m192.01 127.321v-21.321h-43.527c0 24.126-19.467 43.682-43.483 43.682v43.683c21.79 0 41.705-8.06 56.963-21.361v21.361h43.484c0-24.126 19.467-43.683 43.483-43.683v-43.682c-21.772 0-41.666 8.042-56.92 21.321z"/></g></svg>