<svg fill="none" height="240" viewBox="0 0 600 240" width="600" xmlns="http://www.w3.org/2000/svg"><g fill="#364153"><path d="m210.4 97.3278c-5.945-5.9457-12.296-2.0974-16.271 1.8773l-18.773 18.7739-18.774 18.774c-3.975 3.974-8.135 10.013-1.878 16.27 6.258 6.258 12.297 2.097 16.27-1.877l18.774-18.774 18.774-18.773c3.975-3.975 7.823-10.326 1.878-16.2712z"/><path d="m174.53 95.7889 7.95 7.9501 8.093-8.0926c.549-.5508 1.107-1.0617 1.668-1.5438-.847-4.2757-3.287-8.1412-9.765-8.1412-6.49 0-8.926 3.8808-9.769 8.1658.606.524 1.211 1.0495 1.823 1.6617z"/><path d="m190.57 154.846-8.087-8.088-7.947 7.946c-.603.604-1.204 1.155-1.802 1.673.912 4.359 3.49 8.351 9.745 8.351 6.271 0 8.847-4.013 9.752-8.386-.556-.478-1.113-.948-1.661-1.496z"/><path d="m171.156 115.064h-15.327c-5.621 0-12.833 1.77-12.833 10.178 0 6.273 4.015 8.849 8.389 9.753.517-.597 19.771-19.931 19.771-19.931z"/><path d="m213.6 115.472c-.486.564-19.78 19.947-19.78 19.947h15.11c5.621 0 12.833-1.328 12.833-10.178 0-6.489-3.879-8.927-8.163-9.769z"/><path d="m176.179 110.033 2.738-2.738-7.945-7.9467c-3.975-3.9744-10.013-8.1348-16.271-1.8773-4.588 4.588-3.569 9.054-1.135 12.68.741-.055 22.613-.118 22.613-.118z"/><path d="m188.777 140.45-2.746 2.745 8.094 8.093c3.974 3.975 10.325 7.822 16.27 1.878 4.436-4.437 3.418-9.096.966-12.829-.79.057-22.584.113-22.584.113z"/><path d="m379.388 99.147c-1.358 0-3.732.3396-6.336 1.471-3.393 1.471-5.204 2.602-6.108 4.072-3.395-3.959-7.807-5.2034-12.785-5.2034-14.595 0-25.003 12.3314-25.003 29.8674 0 14.707 7.919 25.568 19.12 25.568 3.393 0 6.448-1.358 10.069-4.751 2.828-2.603 4.186-4.299 4.186-5.883 0-1.132-.792-1.924-1.924-1.924-1.584 0-3.281 1.357-5.43 1.357-4.639 0-7.807-7.127-7.807-17.649 0-10.521 4.186-17.648 10.521-17.648 4.186 0 7.353 3.167 7.353 8.598v33.035c0 3.62 3.396 4.638 9.617 4.638 6.111 0 8.485-1.131 8.485-4.638v-47.289c0-2.263-1.469-3.621-3.958-3.621z"/><path d="m309.588 99.147c-4.413 0-9.051 1.584-13.125 4.752-2.262 1.81-4.186 3.846-4.186 5.544 0 1.47 1.018 2.262 2.489 2.262 2.49 0 3.282-1.018 5.658-1.018 2.375 0 3.507 2.263 3.507 6.222v33.149c0 3.62 3.394 4.638 9.616 4.638 6.109 0 8.485-1.131 8.485-4.638v-36.317c0-8.598-5.091-14.594-12.444-14.594z"/><path d="m277.794 99.147c-4.638 0-8.825 1.584-12.897 4.752-2.263 1.81-4.186 3.846-4.186 5.544 0 1.47 1.018 2.262 2.489 2.262 2.488 0 3.281-1.018 5.431-1.018s3.281 2.263 3.281 6.222v33.149c0 3.62 3.393 4.638 9.616 4.638 6.109 0 8.485-1.131 8.485-4.638v-36.317c0-8.598-5.092-14.594-12.219-14.594z"/><path d="m254.036 99.147c-1.696 0-3.733.3396-6.335 1.471-5.657 2.489-7.806 4.072-7.806 7.58v41.86c0 3.619 3.393 4.638 9.616 4.638 6.11 0 8.485-1.132 8.485-4.638v-47.29c0-2.263-1.47-3.621-3.96-3.621z"/><path d="m453.041 139.421c-4.527 1.131-5.885 1.471-7.47 1.471-1.92 0-2.6-.566-2.6-2.602v-28.284h10.297c2.712 0 3.731-1.018 3.731-3.733 0-2.262-1.019-3.395-3.731-3.395h-10.297v-10.9735c0-3.3945-1.131-4.7517-3.508-4.7517-2.262 0-5.432 2.0364-12.218 7.8067-6.901 5.8835-10.862 9.7295-10.862 12.4445 0 1.584 1.134 2.602 2.942 2.602h5.543v30.546c0 8.938 4.413 14.142 12.106 14.142 5.092 0 8.824-1.923 13.236-5.317 4.074-3.168 6.674-5.657 6.674-7.806.004-1.81-1.354-2.829-3.843-2.15z"/><path d="m407.223 75.2716c-.905 0-3.732.3393-6.336 1.471-5.658 2.3754-7.805 4.0722-7.805 7.5798v65.7306c0 3.621 3.393 4.639 9.617 4.639 6.108 0 8.482-1.131 8.482-4.639v-71.1609c0-2.2633-1.47-3.6205-3.958-3.6205z"/></g></svg>