<svg width="600" height="300" viewBox="0 0 600 300" fill="none" xmlns="http://www.w3.org/2000/svg">
<path d="M183.439 120.61C175.726 112.898 167.487 117.889 162.331 123.045L137.979 147.399L113.624 171.754C108.468 176.909 103.071 184.743 111.189 192.859C119.306 200.978 127.14 195.581 132.294 190.425L156.648 166.071L181.002 141.717C186.159 136.561 191.15 128.322 183.439 120.61Z" fill="#969CA5"/>
<path d="M136.904 118.615L147.218 128.928L157.716 118.43C158.429 117.716 159.152 117.053 159.88 116.428C158.781 110.881 155.616 105.867 147.213 105.867C138.794 105.867 135.633 110.901 134.54 116.46C135.326 117.139 136.11 117.821 136.904 118.615Z" fill="#969CA5"/>
<path d="M157.71 195.224L147.219 184.732L136.911 195.039C136.128 195.823 135.349 196.538 134.573 197.21C135.755 202.865 139.101 208.044 147.214 208.044C155.349 208.044 158.69 202.837 159.865 197.164C159.143 196.544 158.421 195.935 157.71 195.224Z" fill="#969CA5"/>
<path d="M132.53 143.617H112.647C105.356 143.617 96 145.913 96 156.819C96 164.957 101.209 168.299 106.882 169.472C107.554 168.697 132.53 143.617 132.53 143.617Z" fill="#969CA5"/>
<path d="M187.587 144.146C186.957 144.878 161.929 170.022 161.929 170.022H181.53C188.821 170.022 198.177 168.3 198.177 156.82C198.177 148.402 193.144 145.239 187.587 144.146Z" fill="#969CA5"/>
<path d="M139.045 137.09L142.597 133.538L132.29 123.23C127.134 118.074 119.301 112.677 111.184 120.795C105.231 126.747 106.553 132.54 109.711 137.243C110.672 137.172 139.045 137.09 139.045 137.09Z" fill="#969CA5"/>
<path d="M155.388 176.549L151.827 180.11L162.326 190.608C167.482 195.765 175.721 200.756 183.432 193.044C189.187 187.289 187.866 181.245 184.685 176.403C183.661 176.477 155.388 176.549 155.388 176.549Z" fill="#969CA5"/>
<path d="M402.654 122.967C400.893 122.967 397.811 123.407 394.435 124.875C390.033 126.783 387.684 128.25 386.51 130.158C382.108 125.022 376.383 123.407 369.926 123.407C350.993 123.407 337.492 139.404 337.492 162.152C337.492 181.231 347.765 195.32 362.294 195.32C366.696 195.32 370.659 193.558 375.357 189.156C379.025 185.78 380.787 183.58 380.787 181.525C380.787 180.056 379.759 179.029 378.291 179.029C376.236 179.029 374.035 180.79 371.246 180.79C365.229 180.79 361.119 171.544 361.119 157.895C361.119 144.247 366.549 135.001 374.768 135.001C380.198 135.001 384.308 139.109 384.308 146.155V189.009C384.308 193.705 388.71 195.026 396.782 195.026C404.708 195.026 407.789 193.558 407.789 189.009V127.664C407.79 124.728 405.882 122.967 402.654 122.967Z" fill="#969CA5"/>
<path d="M312.103 122.967C306.379 122.967 300.362 125.022 295.078 129.131C292.143 131.479 289.647 134.121 289.647 136.322C289.647 138.23 290.968 139.257 292.876 139.257C296.106 139.257 297.133 137.936 300.215 137.936C303.297 137.936 304.764 140.872 304.764 146.009V189.01C304.764 193.706 309.168 195.027 317.239 195.027C325.164 195.027 328.246 193.559 328.246 189.01V141.899C328.246 130.745 321.642 122.967 312.103 122.967Z" fill="#969CA5"/>
<path d="M270.862 122.967C264.845 122.967 259.415 125.022 254.132 129.131C251.197 131.479 248.702 134.121 248.702 136.322C248.702 138.23 250.022 139.257 251.931 139.257C255.158 139.257 256.187 137.936 258.975 137.936C261.764 137.936 263.232 140.872 263.232 146.009V189.01C263.232 193.706 267.634 195.027 275.705 195.027C283.631 195.027 286.713 193.559 286.713 189.01V141.899C286.713 130.745 280.108 122.967 270.862 122.967Z" fill="#969CA5"/>
<path d="M240.042 122.967C237.841 122.967 235.2 123.407 231.823 124.875C224.485 128.104 221.697 130.158 221.697 134.708V189.01C221.697 193.705 226.1 195.026 234.172 195.026C242.098 195.026 245.179 193.559 245.179 189.01V127.664C245.179 124.728 243.271 122.967 240.042 122.967Z" fill="#969CA5"/>
<path d="M498.196 175.213C492.325 176.681 490.564 177.121 488.509 177.121C486.015 177.121 485.133 176.387 485.133 173.746V137.055H498.489C502.012 137.055 503.332 135.735 503.332 132.213C503.332 129.277 502.012 127.809 498.489 127.809H485.133V113.573C485.133 109.17 483.667 107.409 480.584 107.409C477.649 107.409 473.539 110.051 464.734 117.536C455.782 125.168 450.644 130.157 450.644 133.68C450.644 135.735 452.113 137.055 454.46 137.055H461.652V176.681C461.652 188.276 467.375 195.026 477.355 195.026C483.959 195.026 488.803 192.531 494.526 188.128C499.81 184.019 503.185 180.79 503.185 178.002C503.185 175.654 501.424 174.333 498.196 175.213Z" fill="#969CA5"/>
<path d="M438.758 92C437.584 92 433.915 92.4403 430.539 93.9079C423.2 96.9897 420.413 99.1908 420.413 103.741V189.009C420.413 193.706 424.815 195.027 432.887 195.027C440.813 195.027 443.894 193.559 443.894 189.009V96.6965C443.894 93.7608 441.986 92 438.758 92Z" fill="#969CA5"/>
</svg>
