<svg width="600" height="240" viewBox="0 0 600 240" fill="none" xmlns="http://www.w3.org/2000/svg">
<path d="M516.674 149.935C514.491 152.313 511.124 152.908 506.564 152.908C503.192 152.908 500.417 152.908 498.632 151.917C496.847 150.926 496.255 149.34 496.255 144.582V107.71C496.255 99.582 497.245 99.1856 504.58 98.5909V95.4191H485.549V107.71V117.424V144.186C485.549 144.78 485.549 145.375 485.549 145.97C485.549 150.133 482.181 153.701 477.82 153.701C477.422 153.701 477.025 153.701 476.627 153.701H476.429C472.465 153.106 469.889 151.719 465.726 146.763C459.779 139.626 451.255 129.516 444.711 120.397C449.867 115.045 455.02 109.89 459.977 105.331C465.527 100.375 468.7 99.1856 475.24 98.5909V95.4191H451.255V98.5909L453.235 98.7892C457.596 99.384 457.596 100.573 455.219 103.745C451.652 108.106 446.695 113.459 440.747 119.406C437.972 122.181 435.79 123.569 433.81 124.164V107.908C433.81 99.7804 434.601 99.1856 441.542 98.5909V95.4191H414.977V98.5909C422.312 99.1856 423.104 99.7804 423.104 107.908V144.186C423.104 144.78 423.104 145.375 423.104 145.97C423.104 150.133 419.736 153.701 415.375 153.701C412.596 153.701 410.219 152.313 408.831 150.133C407.841 148.745 406.847 146.565 405.659 143.393C399.512 127.137 393.569 110.485 387.422 94.0316L383.26 95.0227L362.444 148.547C361.453 150.331 359.668 151.521 357.488 151.521C355.704 151.521 354.316 150.727 353.325 149.538L353.126 149.34C352.928 149.142 352.73 148.943 352.532 148.745L340.241 127.137C345.99 124.758 350.748 120.992 351.937 114.45C352.135 113.459 352.135 112.666 352.135 111.477C352.135 105.727 349.558 101.565 345.792 98.9876C342.025 96.4102 337.466 95.6175 329.536 95.6175H312.29C312.29 95.6175 312.29 99.9787 312.29 107.71V144.384C312.29 144.979 312.29 145.573 312.29 146.168C312.29 150.331 308.92 153.899 304.558 153.899C300.395 153.899 296.827 150.529 296.827 146.168C296.827 145.573 296.827 145.177 296.827 144.582V107.71C296.827 99.582 297.62 99.1856 304.955 98.5909V95.4191H277.796V98.5909C285.131 99.1856 286.122 99.7804 286.122 107.71V144.384C286.122 144.979 286.122 145.375 286.122 145.97C286.122 150.133 282.752 153.701 278.391 153.701C274.228 153.701 270.659 150.331 270.659 145.97C270.659 144.979 270.659 143.988 270.659 142.798L269.668 108.304C269.272 99.7804 269.272 95.4191 269.272 95.4191H259.757L239.536 139.032L219.712 95.4191H201.871V98.5909C210.197 99.384 210.792 100.177 209.999 111.675L208.611 130.507C207.818 140.419 207.223 144.979 206.827 148.151C206.034 151.719 204.25 153.106 198.699 153.701V156.675H221.298V153.701C214.955 153.106 212.972 152.313 212.774 148.151C212.576 144.78 212.576 140.419 212.774 132.688L214.162 107.115H214.36L234.58 156.278H236.959L258.964 106.124H259.36L259.558 142.996C259.558 152.313 259.162 152.908 251.827 153.701V156.675H277.598H278.589H303.765H304.757H330.924V153.701C323.589 152.908 322.796 152.313 322.796 144.384V130.309H324.977C328.942 130.309 330.527 131.499 332.113 134.274C334.889 139.032 337.069 145.771 339.845 149.935C340.241 150.529 340.439 150.926 340.836 151.322C341.232 151.917 341.629 152.313 342.025 152.908C344.206 155.684 347.576 157.666 351.144 158.459C351.937 158.657 352.928 158.657 353.92 158.657C354.316 158.657 354.712 158.657 354.911 158.657C360.461 158.261 365.219 154.89 367.4 150.133C367.598 149.935 367.598 149.538 367.796 149.142C367.796 149.142 367.796 149.142 367.796 148.943C367.796 148.943 367.796 148.745 367.994 148.745C367.994 148.547 367.994 148.547 368.193 148.349C368.193 148.15 368.391 147.952 368.391 147.754C369.779 144.186 370.968 138.635 372.157 135.265H391.187C392.972 139.824 394.559 144.384 395.747 147.556C397.135 151.322 396.542 152.313 390.595 153.304V156.278H415.176H441.936V153.701C434.402 152.908 433.412 152.313 433.412 144.186V126.939C434.8 126.741 436.187 127.137 438.171 129.913C445.705 139.626 453.632 149.736 459.182 156.477H476.234H476.429H521.429C522.224 153.701 524.207 144.582 524.8 141.014L521.826 140.221C520.24 144.78 518.459 147.952 516.674 149.935ZM335.88 124.164C333.501 125.948 330.527 126.741 325.968 126.741H322.796V103.745C322.796 101.565 322.994 100.573 323.787 99.9787C324.382 99.582 325.571 99.1856 327.554 98.9876C327.752 98.9876 328.148 98.9876 328.545 98.9876C334.69 98.9876 340.836 102.556 340.836 112.666C340.836 113.26 340.836 113.855 340.836 114.45C340.241 118.613 338.854 121.785 335.88 124.164ZM373.743 130.904C376.319 123.767 379.097 116.432 381.872 109.098H382.067L389.8 130.904H373.743Z" fill="#364153"/>
<path d="M169.757 84.912C169.757 84.7136 169.757 84.7136 169.558 84.7136V84.5156C169.558 84.5156 169.558 84.3172 169.36 84.3172C169.36 84.1192 169.162 83.9209 169.162 83.9209C168.369 82.335 166.981 81.1455 165.396 80.1544C154.096 73.8109 140.219 70.4407 125.946 70.4407C113.061 70.4407 100.77 73.0177 90.2636 78.1721C86.6951 79.758 83.5233 82.533 80.5496 87.489L76.3867 94.824C76.7831 94.2292 77.1798 93.6345 77.7746 93.0397C78.3693 92.247 79.3605 91.6522 80.1532 91.0575C80.5496 90.8591 80.9463 90.4627 81.3427 90.2644C81.5411 90.2644 81.5411 90.0664 81.7391 90.0664C81.9375 90.0664 81.9375 89.868 82.1358 89.868C82.3338 89.868 82.3338 89.6696 82.5322 89.6696C82.7302 89.6696 82.9286 89.4716 82.9286 89.4716C83.127 89.4716 83.127 89.2732 83.325 89.2732C83.5233 89.2732 83.5233 89.0749 83.7217 89.0749C86.8935 87.489 90.2636 86.2999 93.6333 85.3084C93.8317 85.3084 93.8317 85.3084 94.0301 85.1104C94.4265 84.912 95.0212 84.912 95.4176 84.7136H95.616H95.814H96.0123H96.2107H96.4087C101.959 83.5245 108.303 82.533 114.845 82.7314C140.219 82.7314 151.321 88.0837 150.924 100.969C150.924 101.167 150.924 101.366 150.924 101.564C150.33 113.656 144.382 131.696 125.352 145.969C125.55 145.969 125.55 146.167 125.748 146.167C136.651 152.908 146.761 145.969 159.448 123.965C162.62 118.414 164.999 112.665 166.783 107.313C166.783 107.115 166.783 107.115 166.981 106.917C167.378 105.925 167.576 104.934 167.775 103.744C168.369 101.366 168.964 98.9869 169.162 96.6082V96.4099C169.162 96.2115 169.162 95.8151 169.162 95.6167C169.162 95.4187 169.162 95.4187 169.162 95.2204C169.162 94.824 169.162 94.6256 169.36 94.2292C169.36 94.0309 169.36 93.8329 169.36 93.4361C169.558 92.0486 169.558 90.4627 169.558 88.8769C170.55 87.489 170.352 86.1015 169.757 84.912Z" fill="#364153"/>
<g opacity="0.8">
<mask id="mask0_1904_3538" style="mask-type:luminance" maskUnits="userSpaceOnUse" x="76" y="70" width="95" height="79">
<g opacity="0.8">
<path d="M170.55 70.4407H76.3867V148.348H170.55V70.4407Z" fill="white"/>
</g>
</mask>
<g mask="url(#mask0_1904_3538)">
<mask id="mask1_1904_3538" style="mask-type:luminance" maskUnits="userSpaceOnUse" x="76" y="70" width="95" height="79">
<g opacity="0.8">
<path d="M169.757 84.912C169.757 84.7136 169.757 84.7136 169.558 84.7136V84.5156C169.558 84.5156 169.558 84.3172 169.36 84.3172C169.36 84.1192 169.162 83.9209 169.162 83.9209C168.369 82.335 166.981 81.1455 165.396 80.1544C154.096 73.8109 140.219 70.4407 125.946 70.4407C113.061 70.4407 100.77 73.0177 90.2636 78.1721C86.6951 79.758 83.5233 82.533 80.5496 87.489L76.3867 94.824C76.7831 94.2292 77.1798 93.6345 77.7746 93.0397C78.3693 92.247 79.3605 91.6522 80.1532 91.0575C80.5496 90.8591 80.9463 90.4627 81.3427 90.2644C81.5411 90.2644 81.5411 90.0664 81.7391 90.0664C81.9375 90.0664 81.9375 89.868 82.1358 89.868C82.3338 89.868 82.3338 89.6696 82.5322 89.6696C82.7302 89.6696 82.9286 89.4716 82.9286 89.4716C83.127 89.4716 83.127 89.2732 83.325 89.2732C83.5233 89.2732 83.5233 89.0749 83.7217 89.0749C86.8935 87.489 90.2636 86.2999 93.6333 85.3084C93.8317 85.3084 93.8317 85.3084 94.0301 85.1104C94.4265 84.912 95.0212 84.912 95.4176 84.7136H95.616H95.814H96.0123H96.2107H96.4087C101.959 83.5245 108.303 82.533 114.845 82.7314C140.219 82.7314 151.321 88.0837 150.924 100.969C150.924 101.167 150.924 101.366 150.924 101.564C150.33 113.656 144.382 131.696 125.352 145.969C125.55 145.969 125.55 146.167 125.748 146.167C136.651 152.908 146.761 145.969 159.448 123.965C162.62 118.414 164.999 112.665 166.783 107.313C166.783 107.115 166.783 107.115 166.981 106.917C167.378 105.925 167.576 104.934 167.973 103.744C168.567 101.366 169.162 98.9869 169.36 96.6082V96.4099C169.36 96.2115 169.36 95.8151 169.36 95.6167C169.36 95.4187 169.36 95.4187 169.36 95.2204C169.36 94.824 169.36 94.6256 169.558 94.2292C169.558 94.0309 169.558 93.8329 169.558 93.4361C169.757 91.8502 169.757 90.4627 169.757 88.8769C170.55 87.489 170.352 86.1015 169.757 84.912Z" fill="white"/>
</g>
</mask>
<g mask="url(#mask1_1904_3538)">
<path d="M79.7564 169.956L61.3203 73.4137L167.378 53.1934L185.814 149.934L79.7564 169.956Z" fill="url(#paint0_linear_1904_3538)"/>
</g>
</g>
</g>
<path d="M90.2636 78.1721C86.6951 79.758 83.5233 82.533 80.5496 87.489L76.3867 94.6256C76.7831 94.0309 77.1798 93.4361 77.7746 92.8414C78.3693 92.0486 79.3605 91.4539 80.1532 90.8591C80.5496 90.8591 80.9463 90.4627 81.3427 90.2644C81.5411 90.2644 81.5411 90.0664 81.7391 90.0664C81.9375 90.0664 81.9375 89.868 82.1358 89.868C82.3338 89.868 82.3338 89.6696 82.5322 89.6696C82.7302 89.6696 82.9286 89.4716 82.9286 89.4716C83.127 89.4716 83.127 89.2732 83.325 89.2732C83.5233 89.2732 83.5233 89.0749 83.7217 89.0749C86.8935 87.489 90.2636 86.2999 93.6333 85.3084C93.8317 85.3084 93.8317 85.3084 94.0301 85.1104C94.4265 84.912 95.0212 84.912 95.4176 84.7136H95.616H95.814H96.0123H96.2107H96.4087C101.959 83.5245 108.303 82.533 114.845 82.7314C140.219 82.7314 151.321 88.0837 150.924 100.969C150.924 101.167 150.924 101.366 150.924 101.564C150.33 113.656 144.382 131.696 125.352 145.969C125.55 145.969 125.55 146.167 125.748 146.167C136.651 152.908 146.761 145.969 159.448 123.965C162.62 118.414 164.999 112.665 166.783 107.313C166.783 107.115 166.783 107.115 166.981 106.917C167.378 105.925 167.576 104.934 167.775 103.744C167.775 103.744 167.775 103.744 167.775 103.546C168.369 101.167 168.766 98.7889 169.162 96.4099V96.2115C169.162 96.0135 169.162 95.6167 169.162 95.4187C169.162 95.2204 169.162 95.2204 169.162 95.022C169.162 94.6256 169.162 94.4276 169.36 94.0309C169.36 93.8329 169.36 93.6345 169.36 93.2381C169.558 91.6522 169.558 90.2644 169.558 88.6785C169.558 87.291 169.162 86.1015 168.766 84.912C168.766 84.912 168.766 84.912 168.766 84.7136V84.5156V84.3172C168.766 84.3172 168.766 84.1192 168.567 84.1192C168.567 83.9209 168.369 83.7225 168.369 83.7225C167.576 82.1366 166.189 80.9471 164.602 79.956C154.096 73.8109 140.219 70.4407 125.946 70.4407C113.061 70.4407 100.77 73.0177 90.2636 78.1721Z" fill="#364153"/>
<path d="M77.1806 93.6338C76.9822 93.8321 76.9823 93.8321 76.9823 93.8321C76.9823 93.8321 76.9822 94.0301 76.7842 94.0301C76.7842 94.0301 76.7842 94.2285 76.5859 94.2285C76.5859 94.4269 76.3875 94.6249 76.3875 94.6249C75.5948 96.2108 75 97.995 75 99.7793C75.3964 112.863 79.3612 126.343 86.4979 138.832C92.8414 149.933 101.366 159.251 110.881 165.991C114.053 168.171 118.018 169.559 123.766 169.559H132.093C131.3 169.559 130.705 169.559 129.912 169.361C128.921 169.163 127.929 168.766 126.938 168.369C126.542 168.171 126.146 167.973 125.749 167.577C125.551 167.577 125.551 167.378 125.352 167.378C125.154 167.378 125.154 167.18 124.956 167.18C124.758 167.18 124.758 166.982 124.56 166.982C124.361 166.982 124.361 166.784 124.163 166.784C123.965 166.784 123.965 166.586 123.766 166.586C123.568 166.586 123.568 166.387 123.37 166.387C120.396 164.405 117.621 162.026 115.242 159.647L115.044 159.449C114.648 159.052 114.251 158.656 114.053 158.259L113.855 158.061C113.855 158.061 113.854 158.061 113.656 157.863L113.458 157.665C113.458 157.665 113.458 157.665 113.26 157.466L113.062 157.268C109.097 153.105 105.33 147.951 101.96 142.4C89.2732 120.396 88.2821 108.105 99.5816 101.96C99.7796 101.96 99.7796 101.762 99.978 101.762C110.881 96.2108 129.515 92.2463 151.322 101.762C151.322 101.563 151.322 101.365 151.322 101.167C151.718 88.2814 140.617 82.929 115.242 82.929C108.899 82.929 102.555 83.7218 97.2026 84.9113C97.0043 84.9113 97.0043 84.9113 96.8063 84.9113C95.8151 85.1096 94.8236 85.3076 93.6345 85.7044C91.4539 86.1008 89.2733 86.8935 86.8943 87.6866H86.6959C86.4979 87.6866 86.2995 87.885 85.9031 87.885C85.9031 88.083 85.7048 88.2814 85.7048 88.2814C85.3084 88.4798 85.11 88.4798 84.7136 88.6778C84.5152 88.6778 84.3172 88.8761 84.1189 89.0741C82.7314 89.6689 81.3435 90.462 80.154 91.0568C78.9649 91.6515 77.9737 92.6426 77.1806 93.6338Z" fill="#364153"/>
<g opacity="0.8">
<mask id="mask2_1904_3538" style="mask-type:luminance" maskUnits="userSpaceOnUse" x="75" y="82" width="77" height="88">
<g opacity="0.8">
<path d="M151.718 82.5319H75V169.558H151.718V82.5319Z" fill="white"/>
</g>
</mask>
<g mask="url(#mask2_1904_3538)">
<mask id="mask3_1904_3538" style="mask-type:luminance" maskUnits="userSpaceOnUse" x="75" y="82" width="77" height="88">
<g opacity="0.8">
<path d="M77.1806 93.633C76.9822 93.831 76.9823 93.831 76.9823 93.831C76.9823 93.831 76.9822 94.0294 76.7842 94.0294C76.7842 94.0294 76.7842 94.2277 76.5859 94.2277C76.5859 94.4257 76.3875 94.6241 76.3875 94.6241C75.5948 96.21 75 97.9942 75 99.7781C75.3964 112.862 79.3612 126.342 86.4979 138.831C92.8414 149.932 101.366 159.25 110.881 165.99C114.053 168.17 118.018 169.558 123.766 169.558H132.093C131.3 169.558 130.705 169.558 129.912 169.36C128.921 169.161 127.929 168.765 126.938 168.369C126.542 168.17 126.146 167.972 125.749 167.575C125.551 167.575 125.551 167.377 125.352 167.377C125.154 167.377 125.154 167.179 124.956 167.179C124.758 167.179 124.758 166.981 124.56 166.981C124.361 166.981 124.361 166.783 124.163 166.783C123.965 166.783 123.965 166.584 123.766 166.584C123.568 166.584 123.568 166.386 123.37 166.386C120.396 164.404 117.621 162.025 115.242 159.646L115.044 159.448C114.648 159.051 114.251 158.655 114.053 158.258L113.855 158.06C113.855 158.06 113.854 158.06 113.656 157.862L113.458 157.664C113.458 157.664 113.458 157.664 113.26 157.465L113.062 157.267C109.097 153.104 105.33 147.95 101.96 142.399C89.2732 120.395 88.2821 108.104 99.5816 101.959C99.7796 101.959 99.7796 101.761 99.978 101.761C110.881 96.21 129.515 92.2451 151.322 101.761C151.322 101.562 151.322 101.364 151.322 101.166C151.718 88.2802 140.617 82.9279 115.242 82.9279C108.899 82.9279 102.555 83.721 97.2026 84.9105C97.0043 84.9105 97.0043 84.9105 96.8063 84.9105C95.8151 85.1085 94.8236 85.3069 93.6345 85.7032C91.4539 86.1 89.2733 86.8927 86.8943 87.6859H86.6959C86.4979 87.6859 86.2995 87.8839 85.9031 87.8839C85.9031 88.0822 85.7048 88.2802 85.7048 88.2802C85.3084 88.4786 85.11 88.4786 84.7136 88.677C84.5152 88.677 84.3172 88.875 84.1189 88.875C82.7314 89.4697 81.3435 90.2629 80.154 90.8576C78.9649 91.6504 77.9737 92.6415 77.1806 93.633Z" fill="white"/>
</g>
</mask>
<g mask="url(#mask3_1904_3538)">
<path d="M46.4531 158.854L84.5149 57.1579L180.66 93.0386L142.599 194.735L46.4531 158.854Z" fill="url(#paint1_linear_1904_3538)"/>
</g>
</g>
</g>
<path d="M77.1806 93.6334C76.9822 93.8314 76.9823 93.8314 76.9823 93.8314C76.9823 93.8314 76.9822 94.0298 76.7842 94.0298C76.7842 94.0298 76.7842 94.2282 76.5859 94.2282C76.5859 94.4262 76.3875 94.6245 76.3875 94.6245C75.5948 96.2104 75 97.9946 75 99.7785C75.3964 112.862 79.3612 126.343 86.4979 138.831C92.8414 149.933 101.366 159.25 110.881 165.99C114.053 168.171 118.018 169.559 123.766 169.559H132.093C131.3 169.559 130.705 169.559 129.912 169.36C128.921 169.162 127.929 168.765 126.938 168.369C126.542 168.171 126.146 167.973 125.749 167.576C125.551 167.576 125.551 167.378 125.352 167.378C125.154 167.378 125.154 167.18 124.956 167.18C124.758 167.18 124.758 166.982 124.56 166.982C124.361 166.982 124.361 166.783 124.163 166.783C123.965 166.783 123.965 166.585 123.766 166.585C123.568 166.585 123.568 166.387 123.37 166.387C120.396 164.404 117.621 162.026 115.242 159.647L115.044 159.448C114.648 159.052 114.251 158.655 114.053 158.259L113.855 158.061C113.855 158.061 113.854 158.061 113.656 157.862L113.458 157.664C113.458 157.664 113.458 157.664 113.26 157.466L113.062 157.268C109.097 153.105 105.33 147.951 101.96 142.4C89.2732 120.395 88.2821 108.105 99.5816 101.959C99.7796 101.959 99.7796 101.761 99.978 101.761C110.881 96.2104 129.515 92.2455 151.322 101.761C151.322 101.563 151.322 101.365 151.322 101.166C151.718 88.281 140.617 82.9286 115.242 82.9286C108.899 82.9286 102.555 83.7214 97.2026 84.9109C97.0043 84.9109 97.0043 84.9109 96.8063 84.9109C95.8151 85.1093 94.8236 85.3073 93.6345 85.7036C91.4539 86.1004 89.2733 86.8931 86.8943 87.6863H86.6959C86.4979 87.6863 86.2995 87.8843 85.9031 87.8843C85.9031 88.0827 85.7048 88.281 85.7048 88.281C85.3084 88.479 85.11 88.479 84.7136 88.6774C84.5152 88.6774 84.3172 88.8758 84.1189 88.8758C82.7314 89.4705 81.3435 90.2633 80.154 90.858C78.9649 91.6508 77.9737 92.6423 77.1806 93.6334Z" fill="#364153"/>
<path d="M130.902 169.559C131.1 169.559 131.1 169.559 131.1 169.559H131.299H131.497C131.695 169.559 131.893 169.559 132.091 169.559C133.876 169.559 135.66 169.163 137.246 168.171C148.347 161.432 158.06 151.123 165.197 138.634C171.541 127.533 175.505 115.638 176.497 103.943C176.893 99.9777 175.902 96.0132 173.126 91.0572L168.964 83.9205C169.36 84.5153 169.558 85.308 169.757 85.9028C170.153 86.8939 170.153 87.8854 170.351 88.8765C170.351 89.2729 170.351 89.8677 170.351 90.264C170.351 90.4624 170.351 90.4624 170.351 90.6604C170.351 90.8588 170.351 90.8588 170.351 91.0572C170.351 91.2552 170.351 91.2552 170.351 91.4535C170.351 91.6519 170.351 91.6519 170.351 91.8499C170.351 92.0483 170.351 92.0483 170.351 92.2463C170.351 92.4447 170.351 92.4447 170.351 92.643C169.955 96.2112 169.36 99.7797 168.567 103.149C168.567 103.348 168.567 103.348 168.369 103.546C168.171 103.943 168.171 104.537 167.972 104.934V105.132C167.972 105.132 167.972 105.132 167.972 105.33V105.528V105.727V105.925C166.188 111.476 163.81 117.224 160.638 122.973C147.95 144.978 137.642 151.916 126.937 145.176C126.739 145.176 126.739 144.978 126.541 144.978C116.232 138.436 103.743 124.163 100.77 100.572C100.571 100.572 100.373 100.771 100.373 100.771C89.0739 106.718 90.065 119.009 102.752 141.211C105.924 146.762 109.69 151.718 113.457 155.881L113.655 156.079C114.448 156.872 115.043 157.665 115.836 158.458C117.62 160.242 119.404 161.828 121.387 163.216C121.387 163.216 121.585 163.216 121.585 163.414C121.783 163.612 121.981 163.81 122.179 163.81C122.378 163.81 122.378 164.009 122.576 164.009C122.774 164.207 123.171 164.405 123.369 164.603C123.567 164.802 123.766 164.802 123.964 165C125.153 165.793 126.343 166.586 127.73 167.379C128.325 168.965 129.713 169.361 130.902 169.559Z" fill="#364153"/>
<g opacity="0.8">
<path d="M130.902 169.559C131.1 169.559 131.1 169.559 131.1 169.559H131.299H131.497C131.695 169.559 131.893 169.559 132.091 169.559C133.876 169.559 135.66 169.162 137.246 168.171C148.347 161.431 158.06 151.123 165.197 138.634C171.541 127.532 175.505 115.638 176.497 103.942C176.893 99.9772 175.902 96.0124 173.126 91.0564L168.964 83.9201C169.36 84.5149 169.558 85.3076 169.757 85.9024C170.153 86.8935 170.153 87.8846 170.351 88.8757C170.351 89.2725 170.351 89.8672 170.351 90.2636C170.351 90.462 170.351 90.462 170.351 90.66C170.351 90.8584 170.351 90.8584 170.351 91.0564C170.351 91.2547 170.351 91.2547 170.351 91.4531C170.351 91.6511 170.351 91.6511 170.351 91.8495C170.351 92.0479 170.351 92.0479 170.351 92.2459C170.351 92.4442 170.351 92.4442 170.351 92.6426C169.955 96.2107 169.36 99.7789 168.567 103.149C168.567 103.347 168.567 103.347 168.369 103.545C168.171 103.942 168.171 104.537 167.972 104.933V105.131C167.972 105.131 167.972 105.131 167.972 105.33V105.528V105.726V105.924C166.188 111.475 163.81 117.224 160.638 122.973C147.95 144.977 137.642 151.915 126.937 145.176C126.739 145.176 126.739 144.977 126.541 144.977C116.232 138.435 103.743 124.162 100.77 100.572C100.571 100.572 100.373 100.77 100.373 100.77C89.0739 106.717 90.065 119.008 102.752 141.211C105.924 146.761 109.69 151.717 113.457 155.88L113.655 156.079C114.448 156.871 115.043 157.665 115.836 158.457C117.62 160.242 119.404 161.827 121.387 163.215C121.387 163.215 121.585 163.215 121.585 163.413C121.783 163.612 121.981 163.81 122.179 163.81C122.378 163.81 122.378 164.008 122.576 164.008C122.774 164.206 123.171 164.404 123.369 164.603C123.567 164.801 123.766 164.801 123.964 164.999C125.153 165.792 126.343 166.585 127.73 167.378C128.325 168.964 129.713 169.36 130.902 169.559Z" fill="#364153"/>
</g>
<path d="M130.902 169.559C131.1 169.559 131.1 169.559 131.1 169.559H131.299H131.497C131.695 169.559 131.893 169.559 132.091 169.559C133.876 169.559 135.66 169.162 137.246 168.171C148.347 161.431 158.06 151.123 165.197 138.634C171.541 127.532 175.505 115.638 176.497 103.942C176.893 99.9772 175.902 96.0124 173.126 91.0564L168.964 83.9201C169.36 84.5149 169.558 85.3076 169.757 85.9024C170.153 86.8935 170.153 87.8846 170.351 88.8757C170.351 89.2725 170.351 89.8672 170.351 90.2636C170.351 90.462 170.351 90.462 170.351 90.66C170.351 90.8584 170.351 90.8584 170.351 91.0564C170.351 91.2547 170.351 91.2547 170.351 91.4531C170.351 91.6511 170.351 91.6511 170.351 91.8495C170.351 92.0479 170.351 92.0479 170.351 92.2459C170.351 92.4442 170.351 92.4442 170.351 92.6426C169.955 96.2107 169.36 99.7789 168.567 103.149C168.567 103.347 168.567 103.347 168.369 103.545C168.171 103.942 168.171 104.537 167.972 104.933V105.131C167.972 105.131 167.972 105.131 167.972 105.33V105.528V105.726V105.924C166.188 111.475 163.81 117.224 160.638 122.973C147.95 144.977 137.642 151.915 126.937 145.176C126.739 145.176 126.739 144.977 126.541 144.977C116.232 138.435 103.743 124.162 100.77 100.572C100.571 100.572 100.373 100.77 100.373 100.77C89.0739 106.717 90.065 119.008 102.752 141.211C105.924 146.761 109.69 151.717 113.457 155.88L113.655 156.079C114.448 156.871 115.043 157.665 115.836 158.457C117.62 160.242 119.404 161.827 121.387 163.215C121.387 163.215 121.585 163.215 121.585 163.413C121.783 163.612 121.981 163.81 122.179 163.81C122.378 163.81 122.378 164.008 122.576 164.008C122.774 164.206 123.171 164.404 123.369 164.603C123.567 164.801 123.766 164.801 123.964 164.999C125.153 165.792 126.343 166.585 127.73 167.378C128.325 168.964 129.713 169.36 130.902 169.559Z" fill="#364153"/>
<defs>
<linearGradient id="paint0_linear_1904_3538" x1="130.452" y1="147.744" x2="112.972" y2="55.9732" gradientUnits="userSpaceOnUse">
<stop stop-color="#8E9CAC"/>
<stop offset="0.0666656" stop-color="#8E9CAC"/>
<stop offset="0.2326" stop-color="#8E9CAC"/>
<stop offset="0.5642" stop-color="#8E9CAC"/>
<stop offset="1" stop-color="#8E9CAC"/>
</linearGradient>
<linearGradient id="paint1_linear_1904_3538" x1="99.6548" y1="163.347" x2="138.091" y2="60.3367" gradientUnits="userSpaceOnUse">
<stop stop-color="#8E9CAC"/>
<stop offset="0.3992" stop-color="#8E9CAC"/>
<stop offset="0.808" stop-color="#8E9CAC"/>
<stop offset="1" stop-color="#8E9CAC"/>
</linearGradient>
</defs>
</svg>
