<svg fill="none" height="240" viewBox="0 0 600 240" width="600" xmlns="http://www.w3.org/2000/svg" xmlns:xlink="http://www.w3.org/1999/xlink"><linearGradient id="a" gradientUnits="userSpaceOnUse" x1="144.793" x2="128.782" y1="145.806" y2="61.7484"><stop offset="0" stop-color="#8e9cac"/><stop offset=".0666656" stop-color="#8e9cac"/><stop offset=".2326" stop-color="#8e9cac"/><stop offset=".5642" stop-color="#8e9cac"/><stop offset="1" stop-color="#8e9cac"/></linearGradient><linearGradient id="b" gradientUnits="userSpaceOnUse" x1="116.584" x2="151.79" y1="160.098" y2="65.7451"><stop offset="0" stop-color="#8e9cac"/><stop offset=".3992" stop-color="#8e9cac"/><stop offset=".808" stop-color="#8e9cac"/><stop offset="1" stop-color="#8e9cac"/></linearGradient><mask id="c" height="72" maskUnits="userSpaceOnUse" width="87" x="95" y="75"><path d="m181.52 75h-86.249v71.36h86.249z" fill="#fff" opacity=".8"/></mask><mask id="d" height="72" maskUnits="userSpaceOnUse" width="87" x="95" y="75"><path d="m180.794 88.2551c0-.1817 0-.1817-.181-.1817v-.1814s0-.1817-.182-.1817c0-.1813-.181-.363-.181-.363-.727-1.4526-1.998-2.5422-3.45-3.45-10.35-5.8104-23.061-8.8973-36.134-8.8973-11.803 0-23.061 2.3604-32.684 7.0816-3.269 1.4526-6.174 3.9944-8.898 8.5339l-3.813 6.7186c.3631-.5448.7265-1.0896 1.2712-1.6343.5448-.7262 1.4526-1.2709 2.1788-1.8157.363-.1817.7264-.5448 1.0895-.7265.1817 0 .1817-.1813.3635-.1813.181 0 .181-.1817.363-.1817.181 0 .181-.1817.363-.1817.181 0 .363-.1814.363-.1814.182 0 .182-.1817.363-.1817.182 0 .182-.1817.364-.1817 2.905-1.4526 5.992-2.5418 9.078-3.45.182 0 .182 0 .364-.1813.363-.1817.907-.1817 1.271-.3634h.181.182.181.182.181c5.085-1.0892 10.895-1.9974 16.887-1.8157 23.242 0 33.411 4.9026 33.047 16.7053v.545c-.544 11.076-5.992 27.6-23.423 40.673.181 0 .181.182.363.182 9.987 6.173 19.247-.182 30.868-20.337 2.905-5.084 5.084-10.35 6.718-15.253 0-.181 0-.181.182-.363.363-.908.545-1.816.908-2.905.545-2.179 1.09-4.358 1.271-6.5366v-.1817c0-.1817 0-.5448 0-.7265 0-.1814 0-.1814 0-.3631 0-.363 0-.5447.182-.9078 0-.1817 0-.3631 0-.7265.181-1.4526.181-2.7235.181-4.1761.726-1.2712.545-2.5421 0-3.6316z" fill="#fff" opacity=".8"/></mask><mask id="e" height="80" maskUnits="userSpaceOnUse" width="71" x="94" y="86"><path d="m164.271 86.075h-70.271v79.713h70.271z" fill="#fff" opacity=".8"/></mask><mask id="f" height="80" maskUnits="userSpaceOnUse" width="70" x="94" y="86"><path d="m95.9974 96.2431c-.1817.1813-.1817.1813-.1817.1813s0 .1817-.1814.1817c0 0 0 .1818-.1817.1818 0 .1813-.1817.363-.1817.363-.7261 1.4526-1.2709 3.0871-1.2709 4.7211.3631 11.984 3.9947 24.331 10.532 35.771 5.81 10.168 13.618 18.702 22.334 24.876 2.905 1.997 6.537 3.268 11.802 3.268h7.627c-.727 0-1.272 0-1.998-.181-.908-.182-1.816-.545-2.724-.908-.363-.182-.726-.363-1.089-.727-.182 0-.182-.181-.363-.181-.182 0-.182-.182-.363-.182-.182 0-.182-.181-.363-.181-.182 0-.182-.182-.364-.182-.181 0-.181-.181-.363-.181s-.182-.182-.363-.182c-2.724-1.816-5.266-3.995-7.445-6.174l-.181-.181c-.363-.363-.726-.726-.908-1.09l-.182-.181s0 0-.181-.182l-.182-.181s0 0-.182-.182l-.181-.182c-3.632-3.813-7.082-8.534-10.168-13.618-11.621-20.155-12.529-31.413-2.179-37.042.181 0 .181-.181.363-.181 9.987-5.0845 27.055-8.7162 47.028 0 0-.182 0-.364 0-.545.364-11.8028-9.805-16.7054-33.047-16.7054-5.81 0-11.621.7265-16.523 1.816-.182 0-.182 0-.363 0-.908.1814-1.816.3631-2.906.7262-1.997.3634-3.994 1.0895-6.173 1.816h-.182c-.181 0-.363.1813-.726.1813 0 .1817-.182.3631-.182.3631-.363.1817-.545.1817-.908.3634-.181 0-.363.1814-.544.1814-1.271.5447-2.5426 1.2712-3.6321 1.816-1.0892.7261-1.9971 1.6339-2.7235 2.5421z" fill="#fff" opacity=".8"/></mask><path d="m498.556 147.813c-1.999 2.179-5.083 2.724-9.26 2.724-3.088 0-5.63 0-7.265-.908s-2.177-2.36-2.177-6.719v-33.773c0-7.445.907-7.808 7.625-8.353v-2.9048h-17.432v11.2578 8.898 24.512 1.635c0 3.813-3.084 7.081-7.079 7.081-.364 0-.728 0-1.092 0h-.182c-3.631-.545-5.991-1.816-9.803-6.355-5.448-6.537-13.255-15.797-19.249-24.15 4.723-4.903 9.442-9.624 13.983-13.8 5.084-4.539 7.989-5.629 13.98-6.174v-2.9048h-21.969v2.9048l1.813.182c3.995.545 3.995 1.634 1.817 4.54-3.266 3.994-7.807 8.897-13.255 14.344-2.542 2.542-4.541 3.813-6.354 4.358v-14.889c0-7.445.724-7.99 7.082-8.535v-2.9048h-24.332v2.9048c6.718.545 7.443 1.09 7.443 8.535v33.228 1.635c0 3.813-3.084 7.081-7.079 7.081-2.545 0-4.723-1.271-5.994-3.268-.907-1.271-1.817-3.269-2.906-6.174-5.629-14.889-11.074-30.142-16.703-45.2127l-3.813.9078-19.067 49.0259c-.908 1.634-2.542 2.724-4.539 2.724-1.634 0-2.906-.727-3.813-1.816l-.182-.181c-.182-.182-.363-.364-.545-.545l-11.258-19.792c5.266-2.179 9.624-5.629 10.714-11.621.181-.908.181-1.635.181-2.724 0-5.266-2.36-9.079-5.81-11.439-3.45-2.361-7.627-3.0871-14.89-3.0871h-15.797v11.0761 33.592 1.634c0 3.813-3.087 7.082-7.082 7.082-3.813 0-7.081-3.087-7.081-7.082 0-.544 0-.908 0-1.453v-33.773c0-7.445.726-7.808 7.444-8.353v-2.9048h-24.876v2.9048c6.719.545 7.627 1.09 7.627 8.353v33.592 1.453c0 3.813-3.087 7.081-7.082 7.081-3.813 0-7.082-3.087-7.082-7.081 0-.908 0-1.816 0-2.906l-.907-31.594c-.364-7.808-.364-11.8028-.364-11.8028h-8.715l-18.521 39.9468-18.158-39.9468h-16.342v2.9048c7.626.727 8.171 1.453 7.445 11.985l-1.271 17.249c-.727 9.079-1.272 13.256-1.635 16.161-.726 3.268-2.36 4.539-7.444 5.084v2.724h20.699v-2.724c-5.81-.545-7.626-1.271-7.807-5.084-.182-3.087-.182-7.082 0-14.163l1.271-23.424h.181l18.521 45.032h2.179l20.155-45.94h.363l.182 33.774c0 8.534-.363 9.079-7.081 9.805v2.724h23.605.908 23.06.908 23.968v-2.724c-6.718-.726-7.445-1.271-7.445-8.534v-12.892h1.998c3.631 0 5.084 1.09 6.537 3.632 2.542 4.357 4.539 10.531 7.081 14.344.363.545.545.908.908 1.271.363.545.727.908 1.09 1.453 1.997 2.542 5.084 4.358 8.352 5.084.727.182 1.634.182 2.542.182h.908c5.084-.364 9.442-3.451 11.44-7.808.181-.182.181-.545.363-.908 0 0 0 0 0-.182 0 0 0-.181.181-.181 0-.182 0-.182.182-.363 0-.182.181-.364.181-.545 1.272-3.269 2.361-8.353 3.45-11.439h17.431c1.635 4.176 3.088 8.352 4.177 11.257 1.271 3.45.728 4.358-4.72 5.266v2.724h22.516 24.511v-2.361c-6.901-.726-7.807-1.271-7.807-8.716v-15.797c1.27-.182 2.541.182 4.358 2.724 6.901 8.897 14.162 18.158 19.246 24.331h15.618.179 41.218c.728-2.542 2.545-10.895 3.088-14.163l-2.724-.726c-1.453 4.176-3.085 7.081-4.72 8.897zm-165.599-23.605c-2.179 1.634-4.903 2.36-9.079 2.36h-2.906v-21.062c0-1.998.182-2.906.908-3.45.545-.364 1.635-.727 3.45-.908h.908c5.629 0 11.258 3.268 11.258 12.528v1.635c-.545 3.813-1.816 6.718-4.539 8.897zm34.681 6.174c2.359-6.537 4.904-13.256 7.446-19.974h.179l7.082 19.974z" fill="#364153"/><path d="m180.794 88.2551c0-.1817 0-.1817-.181-.1817v-.1814s0-.1817-.182-.1817c0-.1813-.181-.363-.181-.363-.727-1.4526-1.998-2.5422-3.45-3.45-10.35-5.8104-23.061-8.8973-36.134-8.8973-11.803 0-23.061 2.3604-32.684 7.0816-3.269 1.4526-6.174 3.9944-8.898 8.5339l-3.813 6.7186c.3631-.5448.7265-1.0896 1.2712-1.6343.5448-.7262 1.4526-1.2709 2.1788-1.8157.363-.1817.7264-.5448 1.0895-.7265.1817 0 .1817-.1813.3635-.1813.181 0 .181-.1817.363-.1817.181 0 .181-.1817.363-.1817.181 0 .363-.1814.363-.1814.182 0 .182-.1817.363-.1817.182 0 .182-.1817.364-.1817 2.905-1.4526 5.992-2.5418 9.078-3.45.182 0 .182 0 .364-.1813.363-.1817.907-.1817 1.271-.3634h.181.182.181.182.181c5.085-1.0892 10.895-1.9974 16.887-1.8157 23.242 0 33.411 4.9026 33.047 16.7053v.545c-.544 11.076-5.992 27.6-23.423 40.673.181 0 .181.182.363.182 9.987 6.173 19.247-.182 30.868-20.337 2.905-5.084 5.084-10.35 6.718-15.253 0-.181 0-.181.182-.363.363-.908.545-1.816.727-2.905.544-2.179 1.089-4.358 1.271-6.5366v-.1817c0-.1817 0-.5448 0-.7265 0-.1814 0-.1814 0-.3631 0-.363 0-.5447.181-.9078 0-.1817 0-.3631 0-.7265.182-1.2709.182-2.7235.182-4.1761.907-1.2712.726-2.5421.181-3.6316z" fill="#364153"/><g mask="url(#c)" opacity=".8"><g mask="url(#d)"><path d="m98.3579 166.152-16.8867-88.4288 97.1448-18.5211 16.886 88.6099z" fill="url(#a)"/></g></g><path d="m107.982 82.0816c-3.269 1.4526-6.174 3.9944-8.898 8.5339l-3.813 6.5369c.3631-.5448.7265-1.0896 1.2712-1.6343.5448-.7262 1.4526-1.2709 2.1788-1.8157.363 0 .7264-.3631 1.0895-.5448.1817 0 .1817-.1813.3635-.1813.181 0 .181-.1817.363-.1817.181 0 .181-.1817.363-.1817.181 0 .363-.1814.363-.1814.182 0 .182-.1817.363-.1817.182 0 .182-.1817.364-.1817 2.905-1.4526 5.992-2.5418 9.078-3.45.182 0 .182 0 .364-.1813.363-.1817.907-.1817 1.271-.3634h.181.182.181.182.181c5.085-1.0892 10.895-1.9974 16.887-1.8157 23.242 0 33.411 4.9026 33.047 16.7053v.545c-.544 11.076-5.992 27.6-23.423 40.673.181 0 .181.182.363.182 9.987 6.173 19.247-.182 30.868-20.337 2.905-5.084 5.084-10.35 6.718-15.253 0-.181 0-.181.182-.363.363-.908.545-1.816.727-2.905 0 0 0 0 0-.181.544-2.18.907-4.358 1.27-6.5373v-.1817c0-.1814 0-.5448 0-.7262 0-.1817 0-.1817 0-.3634 0-.363.001-.5444.182-.9078 0-.1814 0-.3631 0-.7261.182-1.4526.182-2.7239.182-4.1765 0-1.2709-.363-2.3604-.727-3.4499 0 0 0 0 0-.1817v-.1814-.1817s0-.1813-.181-.1813c0-.1817-.182-.3635-.182-.3635-.726-1.4526-1.997-2.5421-3.45-3.4499-9.623-5.6287-22.334-8.7156-35.407-8.7156-11.803 0-23.061 2.3604-32.684 7.0816z" fill="#364153"/><path d="m95.9974 96.2437c-.1817.1817-.1817.1817-.1817.1817s0 .1814-.1814.1814c0 0 0 .1817-.1817.1817 0 .1817-.1817.363-.1817.363-.7261 1.4526-1.2709 3.0865-1.2709 4.7215.3631 11.984 3.9947 24.331 10.532 35.771 5.81 10.168 13.618 18.702 22.334 24.876 2.905 1.997 6.537 3.268 11.802 3.268h7.627c-.727 0-1.272 0-1.998-.182-.908-.181-1.816-.544-2.724-.907-.363-.182-.726-.364-1.089-.727-.182 0-.182-.181-.363-.181-.182 0-.182-.182-.363-.182-.182 0-.182-.181-.363-.181-.182 0-.182-.182-.364-.182-.181 0-.181-.181-.363-.181s-.182-.182-.363-.182c-2.724-1.816-5.266-3.995-7.445-6.174l-.181-.181c-.363-.364-.726-.727-.908-1.09l-.182-.182s0 0-.181-.181l-.182-.182s0 0-.182-.181l-.181-.182c-3.632-3.813-7.082-8.534-10.168-13.618-11.621-20.155-12.529-31.413-2.179-37.042.181 0 .181-.182.363-.182 9.987-5.0839 27.055-8.7152 47.028 0 0-.181 0-.363 0-.544.364-11.8028-9.805-16.7054-33.047-16.7054-5.81 0-11.621.7261-16.523 1.8157-.182 0-.182 0-.363 0-.908.1817-1.816.363-2.906.7264-1.997.3631-3.994 1.0892-6.173 1.8157h-.182c-.181 0-.363.1817-.726.1817 0 .1814-.182.3631-.182.3631-.363.1817-.545.1817-.908.363-.181 0-.363.1817-.544.3631-1.271.5447-2.5426 1.2712-3.6321 1.816-1.0892.5448-1.9971 1.4526-2.7235 2.3604z" fill="#364153"/><g mask="url(#e)" opacity=".8"><g mask="url(#f)"><path d="m67.853 155.983 34.863-93.1496 88.065 32.8653-34.863 93.1493z" fill="url(#b)"/></g></g><g fill="#364153"><path d="m95.9974 96.2435c-.1817.1813-.1817.1813-.1817.1813s0 .1817-.1814.1817c0 0 0 .1817-.1817.1817 0 .1814-.1817.3631-.1817.3631-.7261 1.4526-1.2709 3.0867-1.2709 4.7207.3631 11.984 3.9947 24.332 10.532 35.771 5.81 10.169 13.618 18.703 22.334 24.876 2.905 1.998 6.537 3.269 11.802 3.269h7.627c-.727 0-1.272 0-1.998-.182-.908-.181-1.816-.545-2.724-.908-.363-.181-.726-.363-1.089-.726-.182 0-.182-.182-.363-.182-.182 0-.182-.181-.363-.181-.182 0-.182-.182-.363-.182-.182 0-.182-.181-.364-.181-.181 0-.181-.182-.363-.182s-.182-.181-.363-.181c-2.724-1.816-5.266-3.995-7.445-6.174l-.181-.182c-.363-.363-.726-.726-.908-1.089l-.182-.182s0 0-.181-.181l-.182-.182s0 0-.182-.182l-.181-.181c-3.632-3.813-7.082-8.534-10.168-13.618-11.621-20.156-12.529-31.413-2.179-37.042.181 0 .181-.182.363-.182 9.987-5.0841 27.055-8.7158 47.028 0 0-.182 0-.363 0-.545.364-11.8021-9.805-16.7046-33.047-16.7046-5.81 0-11.621.7261-16.523 1.8156-.182 0-.182 0-.363 0-.908.1817-1.816.3631-2.906.7261-1.997.3634-3.994 1.0896-6.173 1.816h-.182c-.181 0-.363.1814-.726.1814 0 .1817-.182.3634-.182.3634-.363.1814-.545.1814-.908.3631-.181 0-.363.1817-.544.1817-1.271.5447-2.5426 1.2709-3.6321 1.8156-1.0892.7262-1.9971 1.6343-2.7235 2.5422z"/><path d="m145.206 165.789h.181.182.182.544c1.635 0 3.269-.363 4.721-1.272 10.169-6.173 19.066-15.615 25.603-27.055 5.81-10.168 9.442-21.063 10.35-31.776.363-3.631-.545-7.2627-3.087-11.8022l-3.813-6.5369c.363.5448.545 1.2709.726 1.8157.363.9078.363 1.816.545 2.7238v1.2709.3631.3634.363.3631.3631.3634c-.363 3.2682-.908 6.5366-1.634 9.6236 0 .182 0 .182-.182.363-.181.363-.181.908-.363 1.271v.182.181.182.182.181c-1.634 5.084-3.813 10.35-6.718 15.616-11.621 20.155-21.063 26.51-30.869 20.336-.181 0-.181-.181-.363-.181-9.442-5.992-20.881-19.066-23.605-40.674-.182 0-.363.182-.363.182-10.35 5.447-9.442 16.705 2.179 37.042 2.905 5.084 6.355 9.624 9.805 13.437l.182.181c.726.726 1.271 1.453 1.997 2.179 1.634 1.634 3.269 3.087 5.084 4.358 0 0 .182 0 .182.182.181.181.363.363.544.363.182 0 .182.181.364.181.181.182.544.363.726.545s.363.182.545.363c1.089.727 2.179 1.453 3.45 2.179.544 1.453 1.816 1.816 2.905 1.998z"/><path d="m145.206 165.788h.181.182.182.544c1.635 0 3.269-.363 4.721-1.271 10.169-6.173 19.066-15.616 25.603-27.055 5.81-10.168 9.442-21.063 10.35-31.776.363-3.632-.545-7.2634-3.087-11.8029l-3.813-6.5365c.363.5447.545 1.2709.726 1.8156.363.9079.363 1.8157.545 2.7235v1.2712.3631.3631.3634.363.3631.3634c-.363 3.2683-.908 6.537-1.634 9.623 0 .182 0 .182-.182.363-.181.364-.181.909-.363 1.272v.181.182.182.181.182c-1.634 5.084-3.813 10.349-6.718 15.615-11.621 20.155-21.063 26.511-30.869 20.337-.181 0-.181-.182-.363-.182-9.442-5.992-20.881-19.065-23.605-40.673-.182 0-.363.182-.363.182-10.35 5.447-9.442 16.705 2.179 37.041 2.905 5.085 6.355 9.624 9.805 13.437l.182.182c.726.726 1.271 1.453 1.997 2.179 1.634 1.634 3.269 3.087 5.084 4.357 0 0 .182 0 .182.182.181.182.363.363.544.363.182 0 .182.182.364.182.181.182.544.363.726.545.182.181.363.181.545.363 1.089.726 2.179 1.452 3.45 2.179.544 1.452 1.816 1.815 2.905 1.997z" opacity=".8"/><path d="m145.206 165.788h.181.182.182.544c1.635 0 3.269-.363 4.721-1.271 10.169-6.173 19.066-15.616 25.603-27.055 5.81-10.168 9.442-21.063 10.35-31.776.363-3.632-.545-7.2634-3.087-11.8029l-3.813-6.5365c.363.5447.545 1.2709.726 1.8156.363.9079.363 1.8157.545 2.7235v1.2712.3631.3631.3634.363.3631.3634c-.363 3.2683-.908 6.537-1.634 9.623 0 .182 0 .182-.182.363-.181.364-.181.909-.363 1.272v.181.182.182.181.182c-1.634 5.084-3.813 10.349-6.718 15.615-11.621 20.155-21.063 26.511-30.869 20.337-.181 0-.181-.182-.363-.182-9.442-5.992-20.881-19.065-23.605-40.673-.182 0-.363.182-.363.182-10.35 5.447-9.442 16.705 2.179 37.041 2.905 5.085 6.355 9.624 9.805 13.437l.182.182c.726.726 1.271 1.453 1.997 2.179 1.634 1.634 3.269 3.087 5.084 4.357 0 0 .182 0 .182.182.181.182.363.363.544.363.182 0 .182.182.364.182.181.182.544.363.726.545.182.181.363.181.545.363 1.089.726 2.179 1.452 3.45 2.179.544 1.452 1.816 1.815 2.905 1.997z"/></g></svg>