<svg width="600" height="240" viewBox="0 0 600 240" fill="none" xmlns="http://www.w3.org/2000/svg">
<path d="M498.556 147.813C496.557 149.992 493.473 150.537 489.296 150.537C486.208 150.537 483.666 150.537 482.031 149.629C480.396 148.721 479.854 147.269 479.854 142.91V109.137C479.854 101.692 480.761 101.329 487.479 100.784V97.8792H470.047V109.137V118.035V142.547C470.047 143.092 470.047 143.637 470.047 144.182C470.047 147.995 466.963 151.263 462.968 151.263C462.604 151.263 462.24 151.263 461.876 151.263H461.694C458.063 150.718 455.703 149.447 451.891 144.908C446.443 138.371 438.636 129.111 432.642 120.758C437.365 115.855 442.084 111.134 446.625 106.958C451.709 102.419 454.614 101.329 460.605 100.784V97.8792H438.636V100.784L440.449 100.966C444.444 101.511 444.444 102.6 442.266 105.506C439 109.5 434.459 114.403 429.011 119.85C426.469 122.392 424.47 123.663 422.657 124.208V109.319C422.657 101.874 423.381 101.329 429.739 100.784V97.8792H405.407V100.784C412.125 101.329 412.85 101.874 412.85 109.319V142.547C412.85 143.092 412.85 143.637 412.85 144.182C412.85 147.995 409.766 151.263 405.771 151.263C403.226 151.263 401.048 149.992 399.777 147.995C398.87 146.724 397.96 144.726 396.871 141.821C391.242 126.932 385.797 111.679 380.168 96.6083L376.355 97.5161L357.288 146.542C356.38 148.176 354.746 149.266 352.749 149.266C351.115 149.266 349.843 148.539 348.936 147.45L348.754 147.269C348.572 147.087 348.391 146.905 348.209 146.724L336.951 126.932C342.217 124.753 346.575 121.303 347.665 115.311C347.846 114.403 347.846 113.676 347.846 112.587C347.846 107.321 345.486 103.508 342.036 101.148C338.586 98.787 334.409 98.0609 327.146 98.0609H311.349C311.349 98.0609 311.349 102.056 311.349 109.137V142.729C311.349 143.274 311.349 143.819 311.349 144.363C311.349 148.176 308.262 151.445 304.267 151.445C300.454 151.445 297.186 148.358 297.186 144.363C297.186 143.819 297.186 143.455 297.186 142.91V109.137C297.186 101.692 297.912 101.329 304.63 100.784V97.8792H279.754V100.784C286.473 101.329 287.381 101.874 287.381 109.137V142.729C287.381 143.274 287.381 143.637 287.381 144.182C287.381 147.995 284.294 151.263 280.299 151.263C276.486 151.263 273.217 148.176 273.217 144.182C273.217 143.274 273.217 142.366 273.217 141.276L272.31 109.682C271.946 101.874 271.946 97.8792 271.946 97.8792H263.231L244.71 137.826L226.552 97.8792H210.21V100.784C217.836 101.511 218.381 102.237 217.655 112.769L216.384 130.018C215.657 139.097 215.112 143.274 214.749 146.179C214.023 149.447 212.389 150.718 207.305 151.263V153.987H228.004V151.263C222.194 150.718 220.378 149.992 220.197 146.179C220.015 143.092 220.015 139.097 220.197 132.016L221.468 108.592H221.649L240.17 153.624H242.349L262.504 107.684H262.867L263.049 141.458C263.049 149.992 262.686 150.537 255.968 151.263V153.987H279.573H280.481H303.541H304.449H328.417V151.263C321.699 150.537 320.972 149.992 320.972 142.729V129.837H322.97C326.601 129.837 328.054 130.927 329.507 133.469C332.049 137.826 334.046 144 336.588 147.813C336.951 148.358 337.133 148.721 337.496 149.084C337.859 149.629 338.223 149.992 338.586 150.537C340.583 153.079 343.67 154.895 346.938 155.621C347.665 155.803 348.572 155.803 349.48 155.803C349.843 155.803 350.206 155.803 350.388 155.803C355.472 155.439 359.83 152.352 361.828 147.995C362.009 147.813 362.009 147.45 362.191 147.087C362.191 147.087 362.191 147.087 362.191 146.905C362.191 146.905 362.191 146.724 362.372 146.724C362.372 146.542 362.372 146.542 362.554 146.361C362.554 146.179 362.735 145.997 362.735 145.816C364.007 142.547 365.096 137.463 366.185 134.377H383.616C385.251 138.553 386.704 142.729 387.793 145.634C389.064 149.084 388.521 149.992 383.073 150.9V153.624H405.589H430.1V151.263C423.199 150.537 422.293 149.992 422.293 142.547V126.75C423.563 126.568 424.834 126.932 426.651 129.474C433.552 138.371 440.813 147.632 445.897 153.805H461.515H461.694H502.912C503.64 151.263 505.457 142.91 506 139.642L503.276 138.916C501.823 143.092 500.191 145.997 498.556 147.813ZM332.957 124.208C330.778 125.842 328.054 126.568 323.878 126.568H320.972V105.506C320.972 103.508 321.154 102.6 321.88 102.056C322.425 101.692 323.515 101.329 325.33 101.148C325.512 101.148 325.875 101.148 326.238 101.148C331.867 101.148 337.496 104.416 337.496 113.676C337.496 114.221 337.496 114.766 337.496 115.311C336.951 119.124 335.68 122.029 332.957 124.208ZM367.638 130.382C369.997 123.845 372.542 117.126 375.084 110.408H375.263L382.345 130.382H367.638Z" fill="#364153"/>
<path d="M180.794 88.2551C180.794 88.0734 180.794 88.0734 180.613 88.0734V87.892C180.613 87.892 180.613 87.7103 180.431 87.7103C180.431 87.529 180.25 87.3473 180.25 87.3473C179.523 85.8947 178.252 84.8051 176.8 83.8973C166.45 78.0869 153.739 75 140.666 75C128.863 75 117.605 77.3604 107.982 82.0816C104.713 83.5342 101.808 86.076 99.084 90.6155L95.271 97.3341C95.6341 96.7893 95.9975 96.2445 96.5422 95.6998C97.087 94.9736 97.9948 94.4289 98.721 93.8841C99.084 93.7024 99.4474 93.3393 99.8105 93.1576C99.9922 93.1576 99.9922 92.9763 100.174 92.9763C100.355 92.9763 100.355 92.7946 100.537 92.7946C100.718 92.7946 100.718 92.6129 100.9 92.6129C101.081 92.6129 101.263 92.4315 101.263 92.4315C101.445 92.4315 101.445 92.2498 101.626 92.2498C101.808 92.2498 101.808 92.0681 101.99 92.0681C104.895 90.6155 107.982 89.5263 111.068 88.6181C111.25 88.6181 111.25 88.6181 111.432 88.4368C111.795 88.2551 112.339 88.2551 112.703 88.0734H112.884H113.066H113.247H113.429H113.61C118.695 86.9842 124.505 86.076 130.497 86.2577C153.739 86.2577 163.908 91.1603 163.544 102.963C163.544 103.144 163.544 103.326 163.544 103.508C163 114.584 157.552 131.108 140.121 144.181C140.302 144.181 140.302 144.363 140.484 144.363C150.471 150.536 159.731 144.181 171.352 124.026C174.257 118.942 176.436 113.676 178.07 108.773C178.07 108.592 178.07 108.592 178.252 108.41C178.615 107.502 178.797 106.594 178.979 105.505C179.523 103.326 180.068 101.147 180.25 98.9684V98.7867C180.25 98.605 180.25 98.2419 180.25 98.0602C180.25 97.8788 180.25 97.8788 180.25 97.6971C180.25 97.3341 180.25 97.1524 180.431 96.7893C180.431 96.6076 180.431 96.4262 180.431 96.0628C180.613 94.7919 180.613 93.3393 180.613 91.8867C181.52 90.6155 181.339 89.3446 180.794 88.2551Z" fill="#364153"/>
<g opacity="0.8">
<mask id="mask0_1927_21557" style="mask-type:luminance" maskUnits="userSpaceOnUse" x="95" y="75" width="87" height="72">
<g opacity="0.8">
<path d="M181.52 75H95.271V146.36H181.52V75Z" fill="white"/>
</g>
</mask>
<g mask="url(#mask0_1927_21557)">
<mask id="mask1_1927_21557" style="mask-type:luminance" maskUnits="userSpaceOnUse" x="95" y="75" width="87" height="72">
<g opacity="0.8">
<path d="M180.794 88.2551C180.794 88.0734 180.794 88.0734 180.613 88.0734V87.892C180.613 87.892 180.613 87.7103 180.431 87.7103C180.431 87.529 180.25 87.3473 180.25 87.3473C179.523 85.8947 178.252 84.8051 176.8 83.8973C166.45 78.0869 153.739 75 140.666 75C128.863 75 117.605 77.3604 107.982 82.0816C104.713 83.5342 101.808 86.076 99.084 90.6155L95.271 97.3341C95.6341 96.7893 95.9975 96.2445 96.5422 95.6998C97.087 94.9736 97.9948 94.4289 98.721 93.8841C99.084 93.7024 99.4474 93.3393 99.8105 93.1576C99.9922 93.1576 99.9922 92.9763 100.174 92.9763C100.355 92.9763 100.355 92.7946 100.537 92.7946C100.718 92.7946 100.718 92.6129 100.9 92.6129C101.081 92.6129 101.263 92.4315 101.263 92.4315C101.445 92.4315 101.445 92.2498 101.626 92.2498C101.808 92.2498 101.808 92.0681 101.99 92.0681C104.895 90.6155 107.982 89.5263 111.068 88.6181C111.25 88.6181 111.25 88.6181 111.432 88.4368C111.795 88.2551 112.339 88.2551 112.703 88.0734H112.884H113.066H113.247H113.429H113.61C118.695 86.9842 124.505 86.076 130.497 86.2577C153.739 86.2577 163.908 91.1603 163.544 102.963C163.544 103.144 163.544 103.326 163.544 103.508C163 114.584 157.552 131.108 140.121 144.181C140.302 144.181 140.302 144.363 140.484 144.363C150.471 150.536 159.731 144.181 171.352 124.026C174.257 118.942 176.436 113.676 178.07 108.773C178.07 108.592 178.07 108.592 178.252 108.41C178.615 107.502 178.797 106.594 179.16 105.505C179.705 103.326 180.25 101.147 180.431 98.9684V98.7867C180.431 98.605 180.431 98.2419 180.431 98.0602C180.431 97.8788 180.431 97.8788 180.431 97.6971C180.431 97.3341 180.431 97.1524 180.613 96.7893C180.613 96.6076 180.613 96.4262 180.613 96.0628C180.794 94.6102 180.794 93.3393 180.794 91.8867C181.52 90.6155 181.339 89.3446 180.794 88.2551Z" fill="white"/>
</g>
</mask>
<g mask="url(#mask1_1927_21557)">
<path d="M98.3579 166.152L81.4712 77.7232L178.616 59.2021L195.502 147.812L98.3579 166.152Z" fill="url(#paint0_linear_1927_21557)"/>
</g>
</g>
</g>
<path d="M107.982 82.0816C104.713 83.5342 101.808 86.076 99.084 90.6155L95.271 97.1524C95.6341 96.6076 95.9975 96.0628 96.5422 95.5181C97.087 94.7919 97.9948 94.2472 98.721 93.7024C99.084 93.7024 99.4474 93.3393 99.8105 93.1576C99.9922 93.1576 99.9922 92.9763 100.174 92.9763C100.355 92.9763 100.355 92.7946 100.537 92.7946C100.718 92.7946 100.718 92.6129 100.9 92.6129C101.081 92.6129 101.263 92.4315 101.263 92.4315C101.445 92.4315 101.445 92.2498 101.626 92.2498C101.808 92.2498 101.808 92.0681 101.99 92.0681C104.895 90.6155 107.982 89.5263 111.068 88.6181C111.25 88.6181 111.25 88.6181 111.432 88.4368C111.795 88.2551 112.339 88.2551 112.703 88.0734H112.884H113.066H113.247H113.429H113.61C118.695 86.9842 124.505 86.076 130.497 86.2577C153.739 86.2577 163.908 91.1603 163.544 102.963C163.544 103.144 163.544 103.326 163.544 103.508C163 114.584 157.552 131.108 140.121 144.181C140.302 144.181 140.302 144.363 140.484 144.363C150.471 150.536 159.731 144.181 171.352 124.026C174.257 118.942 176.436 113.676 178.07 108.773C178.07 108.592 178.07 108.592 178.252 108.41C178.615 107.502 178.797 106.594 178.979 105.505C178.979 105.505 178.979 105.505 178.979 105.324C179.523 103.144 179.886 100.966 180.249 98.7867V98.605C180.249 98.4236 180.249 98.0602 180.249 97.8788C180.249 97.6971 180.249 97.6971 180.249 97.5154C180.249 97.1524 180.25 96.971 180.431 96.6076C180.431 96.4262 180.431 96.2445 180.431 95.8815C180.613 94.4289 180.613 93.1576 180.613 91.705C180.613 90.4341 180.25 89.3446 179.886 88.2551C179.886 88.2551 179.886 88.2551 179.886 88.0734V87.892V87.7103C179.886 87.7103 179.886 87.529 179.705 87.529C179.705 87.3473 179.523 87.1655 179.523 87.1655C178.797 85.7129 177.526 84.6234 176.073 83.7156C166.45 78.0869 153.739 75 140.666 75C128.863 75 117.605 77.3604 107.982 82.0816Z" fill="#364153"/>
<path d="M95.9974 96.2437C95.8157 96.4254 95.8157 96.4254 95.8157 96.4254C95.8157 96.4254 95.8157 96.6068 95.6343 96.6068C95.6343 96.6068 95.6343 96.7885 95.4526 96.7885C95.4526 96.9702 95.2709 97.1515 95.2709 97.1515C94.5448 98.6041 94 100.238 94 101.873C94.3631 113.857 97.9947 126.204 104.532 137.644C110.342 147.812 118.15 156.346 126.866 162.52C129.771 164.517 133.403 165.788 138.668 165.788H146.295C145.568 165.788 145.023 165.788 144.297 165.606C143.389 165.425 142.481 165.062 141.573 164.699C141.21 164.517 140.847 164.335 140.484 163.972C140.302 163.972 140.302 163.791 140.121 163.791C139.939 163.791 139.939 163.609 139.758 163.609C139.576 163.609 139.576 163.428 139.395 163.428C139.213 163.428 139.213 163.246 139.031 163.246C138.85 163.246 138.85 163.065 138.668 163.065C138.486 163.065 138.486 162.883 138.305 162.883C135.581 161.067 133.039 158.888 130.86 156.709L130.679 156.528C130.316 156.164 129.953 155.801 129.771 155.438L129.589 155.256C129.589 155.256 129.589 155.256 129.408 155.075L129.226 154.893C129.226 154.893 129.226 154.893 129.044 154.712L128.863 154.53C125.231 150.717 121.781 145.996 118.695 140.912C107.074 120.757 106.166 109.499 116.516 103.87C116.697 103.87 116.697 103.688 116.879 103.688C126.866 98.6041 143.934 94.9728 163.907 103.688C163.907 103.507 163.907 103.325 163.907 103.144C164.271 91.3412 154.102 86.4386 130.86 86.4386C125.05 86.4386 119.239 87.1647 114.337 88.2543C114.155 88.2543 114.155 88.2543 113.974 88.2543C113.066 88.436 112.158 88.6173 111.068 88.9807C109.071 89.3438 107.074 90.0699 104.895 90.7964H104.713C104.532 90.7964 104.35 90.9781 103.987 90.9781C103.987 91.1595 103.805 91.3412 103.805 91.3412C103.442 91.5229 103.26 91.5229 102.897 91.7042C102.716 91.7042 102.534 91.8859 102.353 92.0673C101.082 92.612 99.8104 93.3385 98.7209 93.8833C97.6317 94.4281 96.7238 95.3359 95.9974 96.2437Z" fill="#364153"/>
<g opacity="0.8">
<mask id="mask2_1927_21557" style="mask-type:luminance" maskUnits="userSpaceOnUse" x="94" y="86" width="71" height="80">
<g opacity="0.8">
<path d="M164.271 86.075H94V165.788H164.271V86.075Z" fill="white"/>
</g>
</mask>
<g mask="url(#mask2_1927_21557)">
<mask id="mask3_1927_21557" style="mask-type:luminance" maskUnits="userSpaceOnUse" x="94" y="86" width="70" height="80">
<g opacity="0.8">
<path d="M95.9974 96.2431C95.8157 96.4244 95.8157 96.4244 95.8157 96.4244C95.8157 96.4244 95.8157 96.6061 95.6343 96.6061C95.6343 96.6061 95.6343 96.7879 95.4526 96.7879C95.4526 96.9692 95.2709 97.1509 95.2709 97.1509C94.5448 98.6035 94 100.238 94 101.872C94.3631 113.856 97.9947 126.203 104.532 137.643C110.342 147.811 118.15 156.345 126.866 162.519C129.771 164.516 133.403 165.787 138.668 165.787H146.295C145.568 165.787 145.023 165.787 144.297 165.606C143.389 165.424 142.481 165.061 141.573 164.698C141.21 164.516 140.847 164.335 140.484 163.971C140.302 163.971 140.302 163.79 140.121 163.79C139.939 163.79 139.939 163.608 139.758 163.608C139.576 163.608 139.576 163.427 139.395 163.427C139.213 163.427 139.213 163.245 139.031 163.245C138.85 163.245 138.85 163.064 138.668 163.064C138.486 163.064 138.486 162.882 138.305 162.882C135.581 161.066 133.039 158.887 130.86 156.708L130.679 156.527C130.316 156.164 129.953 155.801 129.771 155.437L129.589 155.256C129.589 155.256 129.589 155.256 129.408 155.074L129.226 154.893C129.226 154.893 129.226 154.893 129.044 154.711L128.863 154.529C125.231 150.716 121.781 145.995 118.695 140.911C107.074 120.756 106.166 109.498 116.516 103.869C116.697 103.869 116.697 103.688 116.879 103.688C126.866 98.6035 143.934 94.9718 163.907 103.688C163.907 103.506 163.907 103.324 163.907 103.143C164.271 91.3402 154.102 86.4376 130.86 86.4376C125.05 86.4376 119.239 87.1641 114.337 88.2536C114.155 88.2536 114.155 88.2536 113.974 88.2536C113.066 88.435 112.158 88.6167 111.068 88.9798C109.071 89.3432 107.074 90.0693 104.895 90.7958H104.713C104.532 90.7958 104.35 90.9771 103.987 90.9771C103.987 91.1588 103.805 91.3402 103.805 91.3402C103.442 91.5219 103.26 91.5219 102.897 91.7036C102.716 91.7036 102.534 91.885 102.353 91.885C101.082 92.4297 99.8104 93.1562 98.7209 93.701C97.6317 94.4271 96.7238 95.3349 95.9974 96.2431Z" fill="white"/>
</g>
</mask>
<g mask="url(#mask3_1927_21557)">
<path d="M67.853 155.983L102.716 62.8334L190.781 95.6987L155.918 188.848L67.853 155.983Z" fill="url(#paint1_linear_1927_21557)"/>
</g>
</g>
</g>
<path d="M95.9974 96.2435C95.8157 96.4248 95.8157 96.4248 95.8157 96.4248C95.8157 96.4248 95.8157 96.6065 95.6343 96.6065C95.6343 96.6065 95.6343 96.7882 95.4526 96.7882C95.4526 96.9696 95.2709 97.1513 95.2709 97.1513C94.5448 98.6039 94 100.238 94 101.872C94.3631 113.856 97.9947 126.204 104.532 137.643C110.342 147.812 118.15 156.346 126.866 162.519C129.771 164.517 133.403 165.788 138.668 165.788H146.295C145.568 165.788 145.023 165.788 144.297 165.606C143.389 165.425 142.481 165.061 141.573 164.698C141.21 164.517 140.847 164.335 140.484 163.972C140.302 163.972 140.302 163.79 140.121 163.79C139.939 163.79 139.939 163.609 139.758 163.609C139.576 163.609 139.576 163.427 139.395 163.427C139.213 163.427 139.213 163.246 139.031 163.246C138.85 163.246 138.85 163.064 138.668 163.064C138.486 163.064 138.486 162.883 138.305 162.883C135.581 161.067 133.039 158.888 130.86 156.709L130.679 156.527C130.316 156.164 129.953 155.801 129.771 155.438L129.589 155.256C129.589 155.256 129.589 155.256 129.408 155.075L129.226 154.893C129.226 154.893 129.226 154.893 129.044 154.711L128.863 154.53C125.231 150.717 121.781 145.996 118.695 140.912C107.074 120.756 106.166 109.499 116.516 103.87C116.697 103.87 116.697 103.688 116.879 103.688C126.866 98.6039 143.934 94.9722 163.907 103.688C163.907 103.506 163.907 103.325 163.907 103.143C164.271 91.3409 154.102 86.4384 130.86 86.4384C125.05 86.4384 119.239 87.1645 114.337 88.254C114.155 88.254 114.155 88.254 113.974 88.254C113.066 88.4357 112.158 88.6171 111.068 88.9801C109.071 89.3435 107.074 90.0697 104.895 90.7961H104.713C104.532 90.7961 104.35 90.9775 103.987 90.9775C103.987 91.1592 103.805 91.3409 103.805 91.3409C103.442 91.5223 103.26 91.5223 102.897 91.704C102.716 91.704 102.534 91.8857 102.353 91.8857C101.082 92.4304 99.8104 93.1566 98.7209 93.7013C97.6317 94.4275 96.7238 95.3356 95.9974 96.2435Z" fill="#364153"/>
<path d="M145.206 165.789C145.387 165.789 145.387 165.789 145.387 165.789H145.569H145.751C145.932 165.789 146.114 165.789 146.295 165.789C147.93 165.789 149.564 165.426 151.016 164.517C161.185 158.344 170.082 148.902 176.619 137.462C182.429 127.294 186.061 116.399 186.969 105.686C187.332 102.055 186.424 98.4233 183.882 93.8838L180.069 87.3469C180.432 87.8917 180.614 88.6178 180.795 89.1626C181.158 90.0704 181.158 90.9786 181.34 91.8864C181.34 92.2495 181.34 92.7943 181.34 93.1573C181.34 93.339 181.34 93.339 181.34 93.5204C181.34 93.7021 181.34 93.7021 181.34 93.8838C181.34 94.0651 181.34 94.0651 181.34 94.2468C181.34 94.4286 181.34 94.4286 181.34 94.6099C181.34 94.7916 181.34 94.7916 181.34 94.973C181.34 95.1547 181.34 95.1547 181.34 95.3364C180.977 98.6046 180.432 101.873 179.706 104.96C179.706 105.142 179.706 105.142 179.524 105.323C179.343 105.686 179.343 106.231 179.161 106.594V106.776C179.161 106.776 179.161 106.776 179.161 106.957V107.139V107.321V107.502C177.527 112.586 175.348 117.852 172.443 123.118C160.822 143.273 151.38 149.628 141.574 143.454C141.393 143.454 141.393 143.273 141.211 143.273C131.769 137.281 120.33 124.207 117.606 102.599C117.424 102.599 117.243 102.781 117.243 102.781C106.893 108.228 107.801 119.486 119.422 139.823C122.327 144.907 125.777 149.447 129.227 153.26L129.409 153.441C130.135 154.167 130.68 154.894 131.406 155.62C133.04 157.254 134.675 158.707 136.49 159.978C136.49 159.978 136.672 159.978 136.672 160.16C136.853 160.341 137.035 160.523 137.216 160.523C137.398 160.523 137.398 160.704 137.58 160.704C137.761 160.886 138.124 161.067 138.306 161.249C138.488 161.431 138.669 161.431 138.851 161.612C139.94 162.339 141.03 163.065 142.301 163.791C142.845 165.244 144.117 165.607 145.206 165.789Z" fill="#364153"/>
<g opacity="0.8">
<path d="M145.206 165.788C145.387 165.788 145.387 165.788 145.387 165.788H145.569H145.751C145.932 165.788 146.114 165.788 146.295 165.788C147.93 165.788 149.564 165.425 151.016 164.517C161.185 158.344 170.082 148.901 176.619 137.462C182.429 127.294 186.061 116.399 186.969 105.686C187.332 102.054 186.424 98.4226 183.882 93.8831L180.069 87.3466C180.432 87.8913 180.614 88.6175 180.795 89.1622C181.158 90.0701 181.158 90.9779 181.34 91.8857C181.34 92.2491 181.34 92.7939 181.34 93.1569C181.34 93.3386 181.34 93.3387 181.34 93.52C181.34 93.7017 181.34 93.7017 181.34 93.8831C181.34 94.0648 181.34 94.0648 181.34 94.2465C181.34 94.4278 181.34 94.4278 181.34 94.6095C181.34 94.7912 181.34 94.7912 181.34 94.9726C181.34 95.1543 181.34 95.1543 181.34 95.336C180.977 98.6043 180.432 101.873 179.706 104.959C179.706 105.141 179.706 105.141 179.524 105.322C179.343 105.686 179.343 106.231 179.161 106.594V106.775C179.161 106.775 179.161 106.775 179.161 106.957V107.139V107.32V107.502C177.527 112.586 175.348 117.851 172.443 123.117C160.822 143.272 151.38 149.628 141.574 143.454C141.393 143.454 141.393 143.272 141.211 143.272C131.769 137.28 120.33 124.207 117.606 102.599C117.424 102.599 117.243 102.781 117.243 102.781C106.893 108.228 107.801 119.486 119.422 139.822C122.327 144.907 125.777 149.446 129.227 153.259L129.409 153.441C130.135 154.167 130.68 154.894 131.406 155.62C133.04 157.254 134.675 158.707 136.49 159.977C136.49 159.977 136.672 159.977 136.672 160.159C136.853 160.341 137.035 160.522 137.216 160.522C137.398 160.522 137.398 160.704 137.58 160.704C137.761 160.886 138.124 161.067 138.306 161.249C138.488 161.43 138.669 161.43 138.851 161.612C139.94 162.338 141.03 163.064 142.301 163.791C142.845 165.243 144.117 165.606 145.206 165.788Z" fill="#364153"/>
</g>
<path d="M145.206 165.788C145.387 165.788 145.387 165.788 145.387 165.788H145.569H145.751C145.932 165.788 146.114 165.788 146.295 165.788C147.93 165.788 149.564 165.425 151.016 164.517C161.185 158.344 170.082 148.901 176.619 137.462C182.429 127.294 186.061 116.399 186.969 105.686C187.332 102.054 186.424 98.4226 183.882 93.8831L180.069 87.3466C180.432 87.8913 180.614 88.6175 180.795 89.1622C181.158 90.0701 181.158 90.9779 181.34 91.8857C181.34 92.2491 181.34 92.7939 181.34 93.1569C181.34 93.3386 181.34 93.3387 181.34 93.52C181.34 93.7017 181.34 93.7017 181.34 93.8831C181.34 94.0648 181.34 94.0648 181.34 94.2465C181.34 94.4278 181.34 94.4278 181.34 94.6095C181.34 94.7912 181.34 94.7912 181.34 94.9726C181.34 95.1543 181.34 95.1543 181.34 95.336C180.977 98.6043 180.432 101.873 179.706 104.959C179.706 105.141 179.706 105.141 179.524 105.322C179.343 105.686 179.343 106.231 179.161 106.594V106.775C179.161 106.775 179.161 106.775 179.161 106.957V107.139V107.32V107.502C177.527 112.586 175.348 117.851 172.443 123.117C160.822 143.272 151.38 149.628 141.574 143.454C141.393 143.454 141.393 143.272 141.211 143.272C131.769 137.28 120.33 124.207 117.606 102.599C117.424 102.599 117.243 102.781 117.243 102.781C106.893 108.228 107.801 119.486 119.422 139.822C122.327 144.907 125.777 149.446 129.227 153.259L129.409 153.441C130.135 154.167 130.68 154.894 131.406 155.62C133.04 157.254 134.675 158.707 136.49 159.977C136.49 159.977 136.672 159.977 136.672 160.159C136.853 160.341 137.035 160.522 137.216 160.522C137.398 160.522 137.398 160.704 137.58 160.704C137.761 160.886 138.124 161.067 138.306 161.249C138.488 161.43 138.669 161.43 138.851 161.612C139.94 162.338 141.03 163.064 142.301 163.791C142.845 165.243 144.117 165.606 145.206 165.788Z" fill="#364153"/>
<defs>
<linearGradient id="paint0_linear_1927_21557" x1="144.793" y1="145.806" x2="128.782" y2="61.7484" gradientUnits="userSpaceOnUse">
<stop stop-color="#8E9CAC"/>
<stop offset="0.0666656" stop-color="#8E9CAC"/>
<stop offset="0.2326" stop-color="#8E9CAC"/>
<stop offset="0.5642" stop-color="#8E9CAC"/>
<stop offset="1" stop-color="#8E9CAC"/>
</linearGradient>
<linearGradient id="paint1_linear_1927_21557" x1="116.584" y1="160.098" x2="151.79" y2="65.7451" gradientUnits="userSpaceOnUse">
<stop stop-color="#8E9CAC"/>
<stop offset="0.3992" stop-color="#8E9CAC"/>
<stop offset="0.808" stop-color="#8E9CAC"/>
<stop offset="1" stop-color="#8E9CAC"/>
</linearGradient>
</defs>
</svg>
