<svg fill="none" height="240" viewBox="0 0 600 240" width="600" xmlns="http://www.w3.org/2000/svg" xmlns:xlink="http://www.w3.org/1999/xlink"><mask id="a" height="72" maskUnits="userSpaceOnUse" width="376" x="112" y="84"><path d="m488 84.4016h-376v71.0554h376z" fill="#fff"/></mask><g fill="#364153" mask="url(#a)"><path d="m324.887 91.4076c0-3.9506 3.162-7.006 7.122-7.006 3.86 0 7.022 3.0554 7.022 7.006 0 3.9507-3.162 7.0061-7.022 7.0061-3.946 0-7.122-3.0554-7.122-7.0061zm1.196 62.5714v-49.739h11.866v49.739z"/><path d="m193.518 113.52c4.174 0 8.091 1.62 11.054 4.562 2.948 2.941 4.572 6.864 4.572 11.027 0 4.164-1.624 8.072-4.572 11.028-2.949 2.942-6.88 4.562-11.054 4.562-4.173 0-8.091-1.62-11.053-4.562-2.949-2.942-4.573-6.864-4.573-11.028 0-4.163 1.624-8.071 4.573-11.027 2.948-2.942 6.88-4.562 11.053-4.562zm0-10.758c-14.586 0-26.409 11.795-26.409 26.347s11.823 26.348 26.409 26.348 26.409-11.796 26.409-26.348-11.823-26.347-26.409-26.347z"/><path d="m349.551 153.979v-49.739h11.766v22.34l17.805-22.34h13.305l-20.028 24.4 20.81 25.339h-13.447l-18.46-22.695v22.695z"/><path d="m434.844 104.24v5.045c-3.745-3.851-8.503-6.523-14.841-6.523-14.587 0-26.409 11.795-26.409 26.347s11.822 26.348 26.409 26.348c6.338 0 11.096-2.672 14.841-6.523v5.045h11.881v-49.739zm-3.801 35.883c-2.949 2.942-6.881 4.562-11.055 4.562-4.175 0-8.092-1.62-11.052-4.562-2.949-2.942-4.574-6.864-4.574-11.028s1.625-8.072 4.574-11.028c2.946-2.941 6.877-4.562 11.052-4.562 4.174 0 8.091 1.621 11.055 4.562 2.946 2.942 4.571 6.864 4.571 11.028.015 4.178-1.625 8.086-4.571 11.028z"/><path d="m458.305 153.979v-49.739h11.765v5.045c4.272-4.221 6.354-5.045 14.842-5.045h2.664v11.255c-1.424 0-2.264 0-4.047 0-8.204 0-13.444 5.13-13.444 13.33v25.168h-11.78z"/><path d="m229.629 153.979v-49.739h11.766v5.045c4.273-4.221 6.353-5.045 14.842-5.045h2.664v11.255c-1.424 0-2.265 0-4.045 0-8.205 0-13.447 5.13-13.447 13.33v25.168h-11.78z"/><path d="m295.607 103.246c-9.601 0-12.55 3.481-15.142 6.025v-5.045h-11.766v49.739h11.766v-28.607c0-6.807 4.843-11.553 11.581-11.553 6.623 0 10.583 4.249 10.583 11.056v29.118h11.866v-30.795c0-12.335-7.023-19.938-18.888-19.938z"/><path d="m156.456 102.762h-39.058c-2.976 0-5.398 2.402-5.398 5.372s2.422 5.386 5.398 5.386h39.072c2.978 0 5.399-2.416 5.399-5.386-.014-2.97-2.421-5.372-5.413-5.372zm-5.526 21.516h-20.028c-2.977 0-5.399 2.415-5.399 5.386 0 2.97 2.422 5.386 5.399 5.386h20.028c2.977 0 5.398-2.416 5.398-5.386-.014-2.971-2.421-5.386-5.398-5.386z"/></g></svg>