<svg width="600" height="240" viewBox="0 0 600 240" fill="none" xmlns="http://www.w3.org/2000/svg">
<mask id="mask0_1904_3601" style="mask-type:luminance" maskUnits="userSpaceOnUse" x="136" y="67" width="328" height="106">
<path d="M463.025 67.5H136.973V172.5H463.025V67.5Z" fill="white"/>
</mask>
<g mask="url(#mask0_1904_3601)">
<path fill-rule="evenodd" clip-rule="evenodd" d="M309.398 97.0339V142.162C309.398 150.999 311.689 157.481 316.016 161.88C320.354 166.196 326.48 168.451 334.612 168.451C339.912 168.451 344.507 167.768 348.428 166.434C352.418 165.08 355.778 163.353 358.53 161.275L361.224 159.241V168.851H381.287V97.0369H360.249V140.109C360.249 144.356 358.732 148.641 355.118 150.872C351.731 152.978 347.818 154.082 343.83 154.057C339.672 154.057 336.232 153.104 333.794 150.921L333.761 150.894L333.731 150.863C331.377 148.52 330.368 145.049 330.368 140.814V97.0339H309.398Z" fill="#364153"/>
<path fill-rule="evenodd" clip-rule="evenodd" d="M250.762 96.6184V167.601H271.292L271.275 124.015L272.077 123.529C275.337 121.55 279.338 119.81 284.052 118.29C288.186 116.855 292.464 115.877 296.81 115.372V97.2983C292.927 97.7678 289.037 98.6715 285.141 100.011L285.124 100.017L285.108 100.023C280.562 101.487 276.813 103.134 273.834 104.941L271.27 106.494L271.289 96.6184H250.762Z" fill="#364153"/>
<path fill-rule="evenodd" clip-rule="evenodd" d="M427.119 97.1206C415.651 97.1206 407.622 99.0162 402.714 102.517L402.71 102.522C397.962 105.882 395.559 110.71 395.559 117.245C395.559 122.94 397.122 126.99 399.995 129.687C403.197 132.492 407.952 135.048 414.372 137.313C420.005 139.212 424.419 140.657 427.621 141.654C431 142.704 433.632 144.583 433.632 147.758C433.632 148.982 433.284 150.14 432.44 151.06C431.622 151.955 430.497 152.456 429.271 152.702C427.171 153.141 423.901 153.337 419.566 153.337C415.816 153.337 411.59 152.922 406.887 152.11C403.13 151.458 399.702 150.579 396.616 149.463V164.34C399.365 165.307 402.957 166.152 407.435 166.854C412.749 167.661 418.119 168.056 423.492 168.034C434.322 168.034 442.242 166.147 447.481 162.61C452.634 159.129 455.206 154.202 455.206 147.606C455.206 143.663 454.572 140.524 453.406 138.112C452.266 135.75 450.301 133.669 447.395 131.895L447.38 131.887L447.361 131.876C444.425 129.988 440.21 128.19 434.641 126.51L434.626 126.504L434.615 126.501C429.286 124.799 425.247 123.611 422.484 122.923L422.454 122.915L422.427 122.909C420.875 122.467 419.529 121.826 418.55 120.889C418.051 120.424 417.65 119.859 417.38 119.231C417.11 118.603 416.971 117.926 416.979 117.242C416.979 115.921 417.496 114.755 418.524 113.898C419.472 113.103 420.747 112.669 422.146 112.442C424.895 111.917 428.172 111.666 431.956 111.666C434.99 111.666 438.357 111.978 442.051 112.592C444.834 113.05 447.406 113.716 449.765 114.589V100.143C447.234 99.4141 444.084 98.7481 440.304 98.1484C435.942 97.4599 431.532 97.1179 427.119 97.1206Z" fill="#364153"/>
<path fill-rule="evenodd" clip-rule="evenodd" d="M186.319 71.5639C169.914 71.5639 158.362 75.4133 150.525 82.8293C142.75 90.1849 138.66 102.509 138.66 120.248C138.66 136.946 142.736 148.902 150.542 156.482C158.381 164.088 169.928 168.032 186.322 168.032C201.892 168.032 214.268 164.08 222.099 156.482C229.908 148.902 233.981 136.946 233.981 120.248C233.981 102.509 229.891 90.1849 222.116 82.8267C214.285 75.4159 201.901 71.5613 186.322 71.5613L186.319 71.5639ZM166.065 96.3248C170.351 91.2765 177.83 88.9665 186.319 88.9665C194.7 88.9665 202.083 91.2735 206.269 96.3248C210.499 101.21 212.406 109.339 212.406 120.251C212.406 130.328 210.472 138.101 206.294 143.246C202.111 148.416 194.719 150.781 186.319 150.781C177.82 150.781 170.337 148.419 166.054 143.26L166.043 143.246L166.029 143.229C161.959 138.087 160.08 130.32 160.08 120.251C160.08 109.337 161.94 101.204 166.065 96.3248Z" fill="#364153"/>
</g>
</svg>
