<svg fill="none" height="240" viewBox="0 0 600 240" width="600" xmlns="http://www.w3.org/2000/svg" xmlns:xlink="http://www.w3.org/1999/xlink"><mask id="a" height="88" maskUnits="userSpaceOnUse" width="382" x="109" y="76"><path d="m491 76.4386h-382v87.1224h382z" fill="#fff"/></mask><g mask="url(#a)"><path clip-rule="evenodd" d="m367.007 110.708c4.752-.664 8.421.595 9.393.941 5.673 2.039 11.912 7.376 9.51 21.241-.865 5.667-3.08 9.293-4.661 11.647-7.56 11.241-20.454 17.644-35.98 18.859-26.596 2.081-49.75-15.661-51.717-39.629-1.969-23.9674 17.996-45.0826 44.592-47.1638 11.897-.9316 23.074 2.1419 32.003 7.9305.617.4021.781 1.2338.375 1.842l-6.512 9.8117c-.407.6145-1.228.7559-1.847.3388-6.157-4.1618-14.086-6.3881-22.853-5.7039-18.991 1.4858-32.036 15.7437-30.703 31.9697 1.332 16.224 16.536 28.272 35.527 26.785 11.174-.874 20.185-6.235 25.524-13.752 2.59-4.186 2.65-6.315 2.329-8.897-.198-1.584-1.803-2.064-3.395-1.792l-16.644 2.358c-.732.105-1.411-.393-1.517-1.107l-1.745-11.765c-.107-.714.401-1.377 1.133-1.481zm42.463 9.494c0 16.276 14.171 29.471 33.224 29.471 19.049 0 33.22-13.195 33.22-29.471s-14.171-29.4718-33.22-29.4718c-19.053 0-33.224 13.1958-33.224 29.4718zm-8.82-21.598c8.294-13.2088 23.999-22.1385 42.044-22.1385 26.679 0 48.306 19.4907 48.306 43.5365 0 24.043-21.627 43.534-48.306 43.534-20.119 0-37.356-11.089-44.621-26.852-.063-.137-.117-.278-.171-.419-.05-.125-.097-.25-.15-.374-2.148-4.926-3.368-10.276-3.368-15.889 0-5.615 1.22-10.963 3.368-15.891.827-1.905 1.789-3.745 2.898-5.507zm-168.901 30.478c5.507 2.748 12.039 4.134 19.144 3.578 4.997-.391 9.489-1.766 13.486-3.745l-16.361-38.3296zm16.276-52.5981c2.483 0 4.723.7037 6.434 1.8269 2.575 1.3487 5.082 4.0378 7.661 9.5594l32.025 70.9028c.392.863-.258 1.836-1.226 1.836h-14.144c-.541 0-1.03-.32-1.237-.806l-7.535-17.683c-5.397 2.346-11.427 3.846-17.975 4.359-9.234.723-18.023-.988-25.675-4.488l-7.879 17.827c-.211.48-.694.791-1.228.791h-14.165c-.965 0-1.613-.969-1.226-1.834l31.84-70.9266c2.92-6.249 5.783-8.9294 8.763-10.059 1.575-.8169 3.489-1.3055 5.567-1.3055zm-30.635 2.5973-8.453-1.7636c-1.148-.2694-2.307-.5103-3.48-.7255-.701-.126-1.399.3107-1.577.9838l-.379 1.9985c-.2 1.2358-.447 2.6653-.72 4.0338-3.939 18.6108-19.291 32.5038-39.059 32.5038-19.569 0-34.826-13.609-38.951-31.9348l-.018.0261c-.211-1.0361-.785-4.5052-1.099-6.4384l-.02-.0955c-.167-.6299-.79-1.034-1.442-.9818l-12.104 2.5263c-.697.1434-1.175.8058-1.075 1.4945.632 4.3594 1.68 8.5732 3.155 12.5677.061.1639.116.3315.171.499.063.1923.126.385.199.572 7.438 19.0239 24.001 32.9339 43.875 35.7269v29.316c0 .721.601 1.307 1.339 1.307h12.421c.741 0 1.341-.586 1.341-1.307v-29.367c24.184-3.63 43.335-23.812 46.955-49.4473.096-.6887-.382-1.3488-1.079-1.4945z" fill="#364153" fill-rule="evenodd"/></g></svg>