<svg width="600" height="240" viewBox="0 0 600 240" fill="none" xmlns="http://www.w3.org/2000/svg">
<mask id="mask0_1904_3587" style="mask-type:luminance" maskUnits="userSpaceOnUse" x="142" y="63" width="316" height="114">
<path d="M457.5 63.75H142.5V176.25H457.5V63.75Z" fill="white"/>
</mask>
<g mask="url(#mask0_1904_3587)">
<mask id="mask1_1904_3587" style="mask-type:luminance" maskUnits="userSpaceOnUse" x="142" y="63" width="316" height="114">
<path d="M457.5 63.75H142.5V176.25H457.5V63.75Z" fill="white"/>
</mask>
<g mask="url(#mask1_1904_3587)">
<path d="M402.228 109.701C402.1 109.821 401.939 109.899 401.767 109.928C401.594 109.957 401.414 109.936 401.253 109.866C401.092 109.8 400.957 109.684 400.859 109.539C400.762 109.395 400.709 109.225 400.709 109.052C400.709 104.631 400.69 101.213 400.758 97.263C400.758 96.7751 400.964 95.4859 402.224 95.1967C412.218 92.3497 421.867 89.9242 432.374 91.5439C443.268 93.2257 448.762 99.7751 448.84 110.572C448.9 118.738 448.84 126.899 448.855 135.076C448.855 136.056 448.855 137.035 448.893 138.014C449.167 143.2 450.667 144.626 455.557 144.117C455.632 144.113 455.71 144.121 455.785 144.146C455.86 144.171 455.928 144.213 455.98 144.27C456.037 144.324 456.078 144.39 456.104 144.46C456.13 144.535 456.142 144.613 456.134 144.688C455.857 147.696 452.894 150.708 449.122 151.692C442.492 153.411 438.063 151.076 433.747 143.159C433.417 143.746 433.03 144.303 432.603 144.828C426.348 151.597 418.57 153.795 409.769 151.522C402.524 149.65 398.219 144.7 396.847 137.469C395.478 130.233 397.927 124.407 403.859 120.072C409.518 115.932 416.073 114.705 422.958 115.126C426.487 115.345 429.989 115.977 433.735 116.448C433.758 111.345 434.358 106.213 432.434 101.263C430.608 96.5685 427.143 94.9117 422.328 96.6015C414.922 99.201 408.854 103.874 403.068 108.945C402.798 109.192 402.539 109.416 402.228 109.701ZM433.81 130.122C433.81 127.428 433.882 124.734 433.754 122.047C433.728 121.436 433.072 120.444 432.58 120.366C427.949 119.601 423.307 119.386 418.945 121.552C414.584 123.717 412.259 127.316 412.289 132.18C412.319 137.043 414.262 140.961 418.855 143.126C423.34 145.233 427.537 144.349 431.448 141.46C433.192 140.179 433.919 138.704 433.855 136.481C433.863 134.494 433.814 132.241 433.81 130.122Z" fill="#364153"/>
<path d="M264.733 120.03H229.711C230.297 127.605 231.638 134.74 237.729 139.024C247.372 145.809 256.111 142.167 264.639 136.446C264.757 136.368 264.895 136.33 265.034 136.343C265.173 136.351 265.304 136.408 265.408 136.507C265.512 136.602 265.583 136.73 265.611 136.874C265.638 137.014 265.621 137.163 265.561 137.294V137.311C260.361 147.852 249.123 153.862 237.993 152.074C225.675 150.102 216.789 141.376 214.777 128.907C213.197 119.111 214.109 109.674 220.15 101.493C227.851 91.0421 244.066 87.8493 255.003 94.5022C262.088 98.8192 267.264 109.085 266.918 117.88C266.893 118.461 266.65 119.013 266.243 119.412C265.836 119.816 265.294 120.034 264.733 120.03ZM229.447 117.101C237.072 116.154 244.348 115.268 251.601 114.304C251.762 114.288 251.918 114.234 252.059 114.151C252.201 114.069 252.324 113.954 252.424 113.822C252.523 113.686 252.595 113.534 252.636 113.373C252.677 113.208 252.686 113.04 252.663 112.87C251.897 109.002 251.572 104.879 249.999 101.373C246.589 93.7608 237.65 93.4353 233.209 100.455C230.122 105.34 229.652 110.905 229.447 117.101Z" fill="#364153"/>
<path d="M325.52 91.0818H314.52C314.355 91.0818 314.193 91.1189 314.046 91.1936C313.899 91.2644 313.77 91.3721 313.67 91.5011C313.57 91.6338 313.5 91.7831 313.468 91.9451C313.435 92.1071 313.44 92.2732 313.482 92.4348C313.583 92.8128 313.678 93.1739 313.789 93.5309C315.324 98.6954 315.142 103.715 312.96 108.721C310.56 114.214 308.381 119.798 306.109 125.361C305.588 126.631 305.075 127.918 304.483 129.396L303.724 131.688C303.724 131.688 293.624 109.589 291.782 104.819C289.94 100.045 291.042 95.2788 291.625 93.4316C292.208 91.5881 290.959 91.0233 290.959 91.0233H268.523C268.236 91.0233 267.954 91.0983 267.707 91.2434C267.46 91.3889 267.257 91.6004 267.12 91.8539C266.984 92.1071 266.919 92.3936 266.931 92.6801C266.944 92.9666 267.035 93.2444 267.194 93.4852C268.839 96.0344 270.445 98.4089 271.666 100.987C279.523 117.506 287.212 134.112 294.928 150.698L294.959 150.789L295.217 152.08C295.355 153.741 295.336 157.402 289.827 160.251C288.07 161.035 286.209 161.566 284.302 161.82C282.154 162.127 279.953 162.214 277.734 162.314L275.954 162.409C275.685 162.426 275.432 162.542 275.247 162.737C275.062 162.933 274.959 163.194 274.959 163.464V173.809C274.962 174.133 275.028 174.453 275.154 174.748C275.28 175.047 275.463 175.317 275.694 175.545C275.924 175.773 276.197 175.952 276.496 176.072C276.796 176.193 277.116 176.255 277.44 176.251C281.982 176.193 286.702 174.337 289.633 170.783C290.389 169.861 291.134 168.936 291.856 167.968C291.856 167.968 292.138 167.599 292.608 166.935C293.954 165.095 295.184 163.169 296.291 161.172C297.968 158.245 299.436 155.202 300.683 152.068C304.366 142.893 306.76 136.765 306.76 136.765C308.946 131.431 311.134 126.096 313.326 120.765C317.024 111.798 320.333 102.652 325.483 94.3571C325.814 93.8174 326.127 93.2654 326.462 92.6673C326.549 92.5016 326.593 92.3189 326.589 92.1359C326.584 91.9492 326.532 91.7666 326.437 91.6087C326.343 91.4471 326.208 91.3184 326.048 91.2228C325.887 91.1313 325.705 91.0818 325.52 91.0818Z" fill="#364153"/>
<path d="M194.749 107.158C189.275 103.004 183.008 100.447 176.658 98.0343C171.004 95.8829 165.353 93.6528 160.73 89.5615C154.448 84.007 155.33 75.2275 162.583 71.0204C167.16 68.3673 172.054 68.1516 177.02 69.7934C184.692 72.3216 190.583 77.5116 196.253 83.0039C198.06 84.7491 198.396 85.2006 200.134 87.0288L200.568 87.493C200.66 87.5883 201.246 88.1436 201.705 87.895C201.862 87.8039 201.993 87.6753 202.086 87.5178C202.178 87.3603 202.229 87.1863 202.232 87.004C202.232 82.1166 202.164 77.9549 202.164 73.2876C202.176 72.5954 201.978 71.9155 201.595 71.3354C201.212 70.759 200.663 70.3113 200.02 70.0544C196.329 68.5165 193.303 67.3229 189.471 66.2241C179.807 63.4638 170.07 62.6016 160.286 65.7891C150.187 69.0801 143.21 77.2255 142.557 86.8173C141.944 95.8041 146.303 102.395 153.667 106.702C159.18 109.935 165.27 112.252 171.203 114.735C176.637 117.011 182.202 119.001 186.595 123.125C190.776 127.054 192.203 131.867 190.577 137.43C188.978 142.926 184.941 145.674 179.608 146.723C173.31 147.954 167.662 146.093 162.372 142.785C156.142 138.885 151.122 133.612 146.178 128.265C146.021 128.099 145.871 127.933 145.7 127.771C145.551 127.626 145.364 127.523 145.159 127.481C144.955 127.436 144.743 127.452 144.547 127.527C144.351 127.597 144.181 127.726 144.055 127.892C143.929 128.062 143.854 128.261 143.838 128.468C143.457 133.521 143.546 136.825 143.546 141.678C143.546 143.83 144.539 144.684 145.246 144.974C148.87 146.462 152.5 147.958 156.221 149.169C165.359 152.137 174.667 153.492 184.199 151.316C191.701 149.6 198.204 146.226 202.256 139.336C208.664 128.439 205.568 115.365 194.749 107.158Z" fill="#364153"/>
<path d="M357.901 100.923C365.942 98.7176 372.951 102.759 373.443 110.74C373.986 119.527 373.72 128.389 373.305 137.202C373.114 141.337 371.977 145.436 371.146 149.674C371.123 149.797 371.128 149.924 371.161 150.043C371.194 150.166 371.254 150.277 371.337 150.375C371.42 150.469 371.524 150.547 371.641 150.601C371.758 150.654 371.886 150.682 372.015 150.682H390.478C390.61 150.682 390.741 150.654 390.861 150.601C390.977 150.543 391.082 150.465 391.165 150.367C391.247 150.268 391.307 150.154 391.337 150.031C391.367 149.904 391.371 149.777 391.345 149.654C391.202 149.006 391.075 148.437 391.003 147.85C390.235 141.85 389.173 135.857 388.825 129.832C388.438 123.29 388.825 116.712 388.701 110.149C388.472 98.9677 381.448 91.7047 370.477 91.0695C363.34 90.6596 357.351 93.0037 352.458 98.0167C351.554 98.9471 350.7 99.9228 349.288 101.464C349.288 98.3981 349.379 95.9962 349.228 93.6228C349.188 92.967 348.434 91.8236 347.973 91.7988C342.97 91.6882 337.964 91.7088 332.979 91.7171C332.799 91.7208 332.621 91.7621 332.458 91.8356C332.295 91.9095 332.151 92.0201 332.035 92.1555C331.919 92.2867 331.835 92.4465 331.788 92.6145C331.741 92.7825 331.732 92.9587 331.761 93.1308C335.254 111.83 335.24 130.98 331.718 149.67C331.694 149.793 331.699 149.92 331.732 150.043C331.764 150.162 331.824 150.277 331.907 150.371C331.989 150.469 332.093 150.547 332.21 150.601C332.327 150.65 332.455 150.679 332.584 150.679H351.074C351.212 150.679 351.347 150.65 351.47 150.588C351.593 150.527 351.699 150.441 351.781 150.334C351.864 150.228 351.919 150.105 351.943 149.974C351.966 149.842 351.958 149.707 351.918 149.58C348.431 138.493 349.392 127.315 349.282 116.211C349.263 114.351 349.21 112.461 349.219 110.633C349.232 110.645 349.711 103.825 357.901 100.923Z" fill="#364153"/>
</g>
</g>
</svg>
