<svg fill="none" height="300" viewBox="0 0 600 300" width="600" xmlns="http://www.w3.org/2000/svg" xmlns:xlink="http://www.w3.org/1999/xlink"><clipPath id="a"><path d="m135 100h330v101h-330z"/></clipPath><g clip-path="url(#a)" fill="#364153"><path d="m313.854 99.5264c2.728-.001 5.455.0138 8.183.0443.142 2.4223.043 5.8193.043 8.3203l-.001 15.462.032 51.955-.084.012c-10.544 1.536-9.027.465-8.904-8.441-1.035 1.005-1.916 2.156-2.918 3.198-8.51 8.837-22.396 9.114-32.362 2.388-2.539-1.641-4.247-3.127-6.165-5.494-4.501-5.468-6.619-12.502-5.883-19.534.749-6.99 4.268-13.394 9.774-17.792 6.054-4.822 13.264-6.955 20.981-6.072 7.184.823 12.171 4.655 16.52 10.12.262-8.279-.181-24.851.113-33.8458.004-.1659.433-.2457.671-.3208zm-17.761 69.8216c10.61-1.23 18.208-10.8 16.962-21.367-1.245-10.567-10.86-18.124-21.47-16.873-10.594 1.249-18.169 10.81-16.926 21.362 1.244 10.553 10.837 18.107 21.434 16.878z"/><path d="m377.513 99.6228c1.05-.1941 6.87-.0799 8.356-.0775.364 25.1177-.153 50.5857.045 75.7517-1.361.171-7.53.88-8.392.003-1.036-1.053-.549-6.703-.493-8.467-1.319 1.213-2.404 2.641-3.715 3.909-10.289 9.945-27.28 7.641-36.611-2.427-3.239-3.496-6.571-9.218-6.784-14.166l.127-.108c-.058-1.334.266-7.509-.077-8.283-.129-4.318 4.523-11.509 7.541-14.44 5.332-5.226 12.563-8.075 20.043-7.897 6.36.105 11.297 2.115 15.967 6.492 1.21 1.136 2.312 2.502 3.5 3.725-.1-3.226-.226-8.645-.023-11.826.053-.407.023-1.246.21-1.498l.169.612c-.036.973-.205 10.476-.089 10.841.413-.57.214-9.509.218-10.863.135-1.319.075-7.748.021-9.358-.115-3.405.201-8.721-.013-11.9232zm-17.615 69.7292c10.62-1.208 18.238-10.77 17.006-21.344-1.233-10.574-10.849-18.143-21.463-16.896-10.587 1.245-18.163 10.791-16.934 21.336 1.23 10.546 10.801 18.109 21.391 16.904z"/><path d="m229.185 123.45c.497-.032.996-.047 1.494-.046 6.272.042 11.198 2.003 15.899 6.22 1.38 1.238 2.41 2.574 3.699 3.875.093-2.196-.052-4.452-.003-6.657.035-1.584.479-2.143 2.096-2.142 2.341.001 4.661.121 6.987.328l.031 50.195c-2.583.4-6.486.71-9.014.183-.191-2.117-.134-6.413.02-8.557-1.599 1.419-2.697 3.05-4.617 4.695-4.496 3.38-8.399 5.32-14.166 5.573-7.455.291-14.721-2.386-20.192-7.439-10.831-9.961-11.33-26.899-1.285-37.602 4.961-5.264 11.808-8.363 19.051-8.626zm4.061 45.889c10.634-1.211 18.255-10.801 16.995-21.387s-10.92-18.136-21.544-16.838c-10.562 1.291-18.089 10.844-16.837 21.368 1.253 10.525 10.813 18.061 21.386 16.857z"/><path d="m435.45 123.598c.114-.022.169-.026.284-.033 7.373-.468 13.999.848 19.645 5.92 5.306 4.764 7.723 11.844 8.777 18.727.227 1.485.29 3.94.366 5.493-14.512.219-29.331.02-43.87.031-.184.249-.263.6-.205.911 2.825 15.327 20.975 21.239 31.495 8.95l1.339-1.83c3.062-.121 6.528-.034 9.615.004-.708 1.727-1.497 3.049-2.619 4.557-9.249 12.038-26.896 14.286-38.831 4.933-14.75-11.559-13.393-34.029 2.499-43.765 3.848-2.358 7.024-3.297 11.505-3.898zm-15.042 23.088c5.642.227 12.772.011 18.569.017l10.809.026c1.566.008 4.112.105 5.607.022-.377-5.117-1.954-8.976-5.936-12.412-3.093-2.672-8.271-4.535-12.375-3.992-8.533.416-16.105 7.91-16.674 16.339z"/><path d="m148.333 123.518c4.69-.162 9.589.08 14.178-.045 10.116-.277 18.858-.111 26.63 7.344 5.797 5.561 7.868 10.945 8.19 18.728l.047-2.398c.343 2.044.417 3.961-.009 6.007l-.045-2.019c-.356 7.824-2.639 13.347-8.542 18.84-9.166 8.53-19.867 7.049-31.378 7.046-.219 1.743-.125 4.202-.118 6.022l.017 9.196c.002 1.033-.09 7.335.011 8.018-1.106.261-7.792.274-8.991-.3l-.023-19.96c-.002-3.254-.149-7.843.086-10.968l13.91.007c7.811.029 15.197.95 21.028-5.095 9.591-9.944 5.812-29.121-8.572-32.08-3.218-.661-6.126-.492-9.37-.498-5.45-.15-11.634.263-17.005.001-.122-2.706-.099-5.134-.044-7.846z"/><path d="m395.792 99.5181c2.774.0747 5.563-.0132 8.357.0653.265 2.1766.16 6.9826.162 9.3416l-.016 17.347-.021 33.586c-.002 1.799.195 14.813-.226 15.431l-.695.052c-3.183.381-4.732.374-7.927.05-.382-5.527-.171-12.976-.166-18.629v-31.566l-.002-17.988c.007-2.243-.001-4.772.098-7.025.02-.4327.158-.4714.436-.6649z"/><path d="m148.311 136.389 2.243-.077c.291 1.523.442 2.94 1.019 4.473 1.357 3.609 4.314 6.428 8 7.621 1.223.359 2.83.102 3.738 1.114.345.243.243 1.809-.096 1.94-.314.121-1.11.239-1.46.286-4.012.529-7.352 2.787-9.37 6.279-1.179 2.04-1.455 3.991-1.859 6.304l-2.117-.047c-.238-1.383-.438-2.939-.912-4.287-1.33-3.821-4.558-6.852-8.477-7.903-1.422-.381-3.845.006-3.624-2-.036-.169.254-1.016.373-1.034 2.865-.44 5.092-.846 7.423-2.64 3.599-2.77 4.637-5.727 5.119-10.029z"/><path d="m376.998 121.812c-.173-1.422-.071-21.808.025-22.0693l.49-.1206c.215 3.2019-.101 8.5179.013 11.9229.055 1.611.114 8.04-.021 9.358l-.129.022-.169-.612c-.187.252-.156 1.092-.209 1.499z"/><path d="m148.323 199.957c1.199.574 7.885.56 8.991.299-.053.344-.084.394-.226.716-.818.15-7.421.087-8.42.014-.37-.384-.262-.388-.345-1.029z"/><path d="m329.92 154.149c-.722-1.302-.324-6.776.05-8.391.343.773.019 6.948.077 8.282z"/><path d="m377.376 120.926.129-.022c-.004 1.353.195 10.293-.218 10.863-.116-.365.053-9.869.089-10.841z"/></g></svg>