<svg width="600" height="300" viewBox="0 0 600 300" fill="none" xmlns="http://www.w3.org/2000/svg">
<path fill-rule="evenodd" clip-rule="evenodd" d="M149.674 107.09C126.448 107.09 107.616 126.303 107.616 150C107.616 173.697 126.447 192.91 149.674 192.91C172.901 192.91 191.732 173.697 191.732 150C191.732 126.303 172.901 107.09 149.674 107.09ZM165.672 176.817C167.95 172.329 171.564 168.647 175.958 166.323C181.741 163.265 185.69 157.104 185.69 150.001C185.69 142.897 181.741 136.736 175.958 133.679C171.564 131.354 167.951 127.667 165.672 123.185C162.675 117.284 156.636 113.255 149.675 113.255C142.712 113.255 136.674 117.284 133.677 123.185C131.398 127.667 127.785 131.354 123.391 133.679C117.608 136.736 113.659 142.897 113.659 150.001C113.659 157.104 117.608 163.265 123.391 166.323C127.789 168.647 131.398 172.334 133.677 176.817C136.673 182.716 142.712 186.745 149.675 186.745C156.637 186.745 162.676 182.716 165.672 176.817Z" fill="#7B818D"/>
<path fill-rule="evenodd" clip-rule="evenodd" d="M219.634 111.478H249.475C265.09 111.478 275.576 120.983 275.576 134.661C275.576 148.338 265.083 157.967 249.468 157.967H228.724V188.512H219.634L219.634 111.478ZM228.73 149.41H250.871C261.713 149.41 265.909 145.128 265.909 134.667C265.909 124.206 261.707 120.158 250.871 120.158H228.73V149.41Z" fill="#7B818D"/>
<path d="M378.644 140.948V132.624H363.105V111.579H354.129V132.624H340.424V140.948H354.129V174.838C354.129 183.044 359.493 188.515 367.535 188.515H378.606V180.191H363.105V140.946L378.644 140.948Z" fill="#7B818D"/>
<path fill-rule="evenodd" clip-rule="evenodd" d="M324.764 132.628V141.565C320.527 135.124 313.874 131.438 305.461 131.438C305.213 131.438 304.967 131.441 304.721 131.445C304.489 131.438 304.255 131.438 304.019 131.438C288.283 131.438 277.797 143.095 277.797 160.566C277.797 178.038 288.29 189.694 304.019 189.694C304.255 189.694 304.489 189.691 304.722 189.687C304.844 189.69 304.965 189.69 305.088 189.694C305.212 189.695 305.336 189.697 305.461 189.697C313.873 189.697 320.527 186.012 324.764 179.57V188.508H333.739V132.63L324.764 132.628ZM306.114 181.378C293.063 181.378 287.001 174.718 287.001 160.573C287.001 146.428 293.063 139.768 306.114 139.768C319.165 139.768 325.227 146.427 325.227 160.573C325.227 174.718 319.171 181.378 306.114 181.378Z" fill="#7B818D"/>
<path d="M392.844 160.568C392.845 174.832 398.908 181.49 411.843 181.49C420.19 181.49 425.243 178.657 427.966 170.009L437.17 171.542C433.095 183.738 423.884 189.702 411.957 189.702C395.174 189.702 383.634 178.052 383.634 160.574C383.634 143.096 395.168 131.446 411.957 131.446C423.827 131.446 433 137.346 437.1 149.412L427.826 150.731C425.071 142.395 420.056 139.646 411.836 139.646C398.908 139.646 392.846 146.304 392.844 160.568Z" fill="#7B818D"/>
<path d="M466.044 131.908C466.186 131.876 466.329 131.842 466.475 131.811V131.818C470.885 130.855 475.445 131.079 479.347 132.332C487.796 134.761 492.38 142.042 492.38 153.31V188.507H483.404V153.908C483.404 144.747 478.045 139.757 469.889 139.757C459.168 139.757 452.408 148.197 452.408 162.706V188.507H443.432V111.474H452.408V143.035C454.925 137.375 459.167 133.248 466.044 131.908Z" fill="#7B818D"/>
</svg>
