<svg fill="none" height="263" viewBox="0 0 600 263" width="600" xmlns="http://www.w3.org/2000/svg" xmlns:xlink="http://www.w3.org/1999/xlink"><mask id="a" height="261" maskUnits="userSpaceOnUse" width="520" x="40" y="1"><path d="m560.001 1.25253h-520.001v260.49547h520.001z" fill="#fff"/></mask><mask id="b" height="261" maskUnits="userSpaceOnUse" width="520" x="40" y="1"><path d="m560.001 1.25253h-520.001v260.49547h520.001z" fill="#fff"/></mask><g mask="url(#a)"><g fill="#364153" mask="url(#b)"><path clip-rule="evenodd" d="m169.716 94.2404c-20.129 0-36.45 16.6826-36.45 37.2596 0 20.576 16.32 37.26 36.45 37.26s36.45-16.684 36.45-37.26c0-20.577-16.32-37.2596-36.45-37.2596zm13.865 60.5456c1.975-3.897 5.106-7.094 8.914-9.113 5.012-2.654 8.435-8.004 8.435-14.172s-3.423-11.519-8.435-14.173c-3.807-2.019-6.939-5.22-8.914-9.112-2.597-5.123-7.831-8.6217-13.864-8.6217-6.034 0-11.268 3.4987-13.865 8.6217-1.975 3.893-5.107 7.094-8.915 9.112-5.012 2.655-8.434 8.005-8.434 14.173 0 6.167 3.422 11.517 8.434 14.172 3.812 2.019 6.94 5.22 8.915 9.113 2.597 5.123 7.83 8.621 13.865 8.621 6.033 0 11.267-3.498 13.864-8.621z" fill-rule="evenodd"/><path clip-rule="evenodd" d="m230.348 98.0509h25.862c13.533 0 22.621 8.2541 22.621 20.1301s-9.094 20.237-22.627 20.237h-17.978v26.523h-7.878zm7.883 32.9371h19.189c9.396 0 13.033-3.718 13.033-12.802 0-9.083-3.642-12.598-13.033-12.598h-19.189z" fill-rule="evenodd"/><path d="m368.159 123.64v-7.228h-13.467v-18.2732h-7.779v18.2732h-11.878v7.228h11.878v29.427c0 7.126 4.648 11.876 11.618 11.876h9.595v-7.227h-13.434v-34.077z"/><path clip-rule="evenodd" d="m321.462 116.416v7.761c-3.672-5.594-9.438-8.794-16.729-8.794-.215 0-.429.003-.641.006-.202-.006-.404-.006-.608-.006-13.638 0-22.726 10.122-22.726 25.292 0 15.172 9.094 25.293 22.726 25.293.204 0 .406-.003.608-.006.106.002.211.002.317.006.108.001.215.002.324.002 7.29 0 13.057-3.2 16.729-8.793v7.761h7.779v-48.52zm-16.163 42.33c-11.311 0-16.565-5.783-16.565-18.065 0-12.283 5.253-18.066 16.565-18.066 11.31 0 16.564 5.783 16.564 18.066 0 12.282-5.248 18.065-16.564 18.065z" fill-rule="evenodd"/><path d="m380.462 140.676c0 12.386 5.257 18.167 16.466 18.167 7.234 0 11.614-2.459 13.973-9.969l7.976 1.332c-3.529 10.59-11.513 15.768-21.851 15.768-14.543 0-24.546-10.116-24.546-25.292 0-15.177 9.996-25.293 24.546-25.293 10.29 0 18.24 5.123 21.791 15.601l-8.036 1.145c-2.389-7.239-6.735-9.625-13.86-9.625-11.202 0-16.455 5.781-16.459 18.166z"/><path d="m443.902 115.79c.124-.028.248-.056.375-.084v.006c3.821-.836 7.774-.641 11.156.447 7.32 2.109 11.295 8.432 11.295 18.216v30.562h-7.781v-30.043c0-7.955-4.642-12.288-11.711-12.288-9.293 0-15.15 7.329-15.15 19.927v22.404h-7.781v-66.8895h7.781v27.4045c2.179-4.914 5.857-8.497 11.816-9.662z"/></g></g></svg>