<svg fill="none" viewBox="0 0 600 300" xmlns="http://www.w3.org/2000/svg">
<g transform="translate(.88369 8.0676)" fill="#969ca5" stroke-width="3.5677">
<path d="m148.79 99.022c-23.226 0-42.058 19.213-42.058 42.91 0 23.697 18.831 42.91 42.058 42.91 23.227 0 42.058-19.213 42.058-42.91 0-23.697-18.831-42.91-42.058-42.91zm15.998 69.727c2.2787-4.4875 5.8921-8.1697 10.286-10.494 5.7829-3.0572 9.732-9.2186 9.732-16.322 0-7.1033-3.9491-13.265-9.732-16.322-4.3936-2.3249-8.007-6.0114-10.286-10.494-2.9965-5.9001-9.0353-9.9291-15.997-9.9291-6.9623 0-13.001 4.029-15.998 9.9291-2.2788 4.4829-5.892 8.1694-10.286 10.494-5.7829 3.0571-9.7319 9.2185-9.7319 16.322 0 7.103 3.949 13.264 9.7319 16.322 4.398 2.3247 8.0071 6.0112 10.286 10.494 2.9963 5.8999 9.0352 9.9289 15.998 9.9289 6.962 0 13.001-4.029 15.997-9.9289z" clip-rule="evenodd" fill-rule="evenodd"/>
<path d="m218.75 103.41h29.841c15.615 0 26.101 9.5058 26.101 23.183 0 13.677-10.493 23.306-26.108 23.306h-20.744v30.545h-9.0898zm9.0962 37.932h22.141c10.842 0 15.038-4.282 15.038-14.743 0-10.461-4.2021-14.509-15.038-14.509h-22.141z" clip-rule="evenodd" fill-rule="evenodd"/>
<path d="m377.76 132.88v-8.3234h-15.539v-21.045h-8.9757v21.045h-13.705v8.3234h13.705v33.89c0 8.2065 5.3637 13.677 13.406 13.677h11.071v-8.3231h-15.501v-39.245z"/>
<path d="m323.88 124.56v8.9377c-4.2367-6.4414-10.89-10.127-19.303-10.127-0.24759 0-0.49412 3e-3 -0.73923 7e-3 -0.23261-7e-3 -0.46666-7e-3 -0.70212-7e-3 -15.736 0-26.222 11.657-26.222 29.128 0 17.472 10.493 29.128 26.222 29.128 0.23546 0 0.46951-3e-3 0.70248-7e-3 0.12165 3e-3 0.24333 3e-3 0.36568 7e-3 0.12412 1e-3 0.24832 3e-3 0.37319 3e-3 8.4127 0 15.066-3.6855 19.303-10.127v8.9378h8.9756v-55.878zm-18.65 48.75c-13.051 0-19.113-6.6599-19.113-20.805 0-14.145 6.0619-20.805 19.113-20.805 13.051 0 19.113 6.6598 19.113 20.805 0 14.145-6.0555 20.805-19.113 20.805z" clip-rule="evenodd" fill-rule="evenodd"/>
<path d="m391.96 152.5c1e-3 14.264 6.064 20.922 18.999 20.922 8.347 0 13.4-2.8328 16.123-11.481l9.204 1.5334c-4.075 12.196-13.286 18.16-25.213 18.16-16.783 0-28.323-11.65-28.323-29.128 0-17.478 11.534-29.128 28.323-29.128 11.87 0 21.043 5.8997 25.143 17.966l-9.2739 1.319c-2.7546-8.3363-7.7694-11.085-15.99-11.085-12.928 0-18.99 6.6581-18.992 20.922z"/>
<path d="m465.16 123.84c0.14269-0.0321 0.28542-0.0656 0.4317-0.097v7e-3c4.4097-0.96271 8.9692-0.73887 12.872 0.51451 8.4484 2.4287 13.033 9.7102 13.033 20.978v35.197h-8.9764v-34.599c0-9.1612-5.3587-14.151-13.515-14.151-10.721 0-17.481 8.4402-17.481 22.949v25.801h-8.9756v-77.033h8.9756v31.561c2.5167-5.6602 6.7583-9.7862 13.635-11.127z"/>
</g>
</svg>
