<?xml version="1.0" encoding="UTF-8" standalone="no"?>
<svg
   width="600"
   height="300"
   viewBox="0 0 600 300"
   fill="none"
   version="1.1"
   id="svg6"
   sodipodi:docname="patch.svg"
   inkscape:version="1.4.2 (ebf0e940, 2025-05-08)"
   xmlns:inkscape="http://www.inkscape.org/namespaces/inkscape"
   xmlns:sodipodi="http://sodipodi.sourceforge.net/DTD/sodipodi-0.dtd"
   xmlns="http://www.w3.org/2000/svg"
   xmlns:svg="http://www.w3.org/2000/svg">
  <defs
     id="defs6" />
  <sodipodi:namedview
     id="namedview6"
     pagecolor="#ffffff"
     bordercolor="#000000"
     borderopacity="0.25"
     inkscape:showpageshadow="2"
     inkscape:pageopacity="0.0"
     inkscape:pagecheckerboard="0"
     inkscape:deskcolor="#d1d1d1"
     inkscape:zoom="1.3866667"
     inkscape:cx="299.99999"
     inkscape:cy="150"
     inkscape:window-width="2560"
     inkscape:window-height="1301"
     inkscape:window-x="0"
     inkscape:window-y="25"
     inkscape:window-maximized="0"
     inkscape:current-layer="svg6" />
  <g
     id="g1"
     transform="translate(0.88369,8.067603)">
    <path
       fill-rule="evenodd"
       clip-rule="evenodd"
       d="m 148.78844,99.022234 c -23.22647,0 -42.05767,19.212916 -42.05767,42.910316 0,23.69714 18.8312,42.91001 42.05767,42.91001 23.22655,0 42.05766,-19.21287 42.05766,-42.91001 0,-23.6974 -18.83111,-42.910316 -42.05766,-42.910316 z m 15.99765,69.726716 c 2.27869,-4.48749 5.89207,-8.16972 10.28571,-10.49445 5.78291,-3.05717 9.73203,-9.21862 9.73203,-16.32159 0,-7.10332 -3.94912,-13.26469 -9.73203,-16.3218 -4.39364,-2.32493 -8.00702,-6.01142 -10.28571,-10.49433 -2.99654,-5.9001 -9.03526,-9.92914 -15.9973,-9.92914 -6.96228,0 -13.00118,4.02904 -15.99752,9.92914 -2.27879,4.48291 -5.89202,8.1694 -10.28587,10.49433 -5.78289,3.05711 -9.73189,9.21848 -9.73189,16.3218 0,7.10297 3.949,13.26442 9.73189,16.32159 4.39803,2.32473 8.00708,6.01125 10.28587,10.49445 2.99634,5.89993 9.03524,9.92894 15.99752,9.92894 6.96204,0 13.00076,-4.02901 15.9973,-9.92894 z"
       fill="#969ca5"
       id="path1"
       style="stroke-width:3.56771" />
    <path
       fill-rule="evenodd"
       clip-rule="evenodd"
       d="m 218.74743,103.40674 h 29.84074 c 15.61518,0 26.1014,9.5058 26.1014,23.18296 0,13.67709 -10.49264,23.30636 -26.10782,23.30636 h -20.74449 v 30.54464 h -9.08983 z m 9.09625,37.93215 h 22.14089 c 10.84194,0 15.03757,-4.28198 15.03757,-14.7427 0,-10.4609 -4.20206,-14.50882 -15.03757,-14.50882 h -22.14089 z"
       fill="#969ca5"
       id="path2"
       style="stroke-width:3.56771" />
    <path
       d="m 377.76305,132.87948 v -8.32338 h -15.53883 v -21.04529 h -8.97567 v 21.04529 h -13.70466 v 8.32338 h 13.70466 v 33.89045 c 0,8.20647 5.36371,13.67719 13.40606,13.67719 h 11.07061 V 172.124 h -15.501 v -39.24452 z"
       fill="#969ca5"
       id="path3"
       style="stroke-width:3.56771" />
    <path
       fill-rule="evenodd"
       clip-rule="evenodd"
       d="m 323.87769,124.55646 v 8.93774 c -4.23667,-6.44137 -10.8901,-10.12679 -19.30278,-10.12679 -0.24759,0 -0.49412,0.003 -0.73923,0.007 -0.23261,-0.007 -0.46666,-0.007 -0.70212,-0.007 -15.73578,0 -26.22237,11.65663 -26.22237,29.12809 0,17.47182 10.49302,29.12826 26.22237,29.12826 0.23546,0 0.46951,-0.003 0.70248,-0.007 0.12165,0.003 0.24333,0.003 0.36568,0.007 0.12412,0.001 0.24832,0.003 0.37319,0.003 8.41268,0 15.06611,-3.68546 19.30278,-10.12697 v 8.93784 h 8.97565 v -55.87826 z m -18.64953,48.75025 c -13.05071,0 -19.11261,-6.65987 -19.11261,-20.8048 0,-14.14492 6.0619,-20.80477 19.11261,-20.80477 13.05106,0 19.11297,6.65985 19.11297,20.80477 0,14.14493 -6.05548,20.8048 -19.11297,20.8048 z"
       fill="#969ca5"
       id="path4"
       style="stroke-width:3.56771" />
    <path
       d="m 391.95686,152.50157 c 10e-4,14.26407 6.06404,20.92179 18.99879,20.92179 8.34703,0 13.39999,-2.83276 16.12323,-11.48091 l 9.204,1.5334 c -4.07505,12.19588 -13.28583,18.1604 -25.21306,18.1604 -16.78325,0 -28.32339,-11.65003 -28.32339,-29.1279 0,-17.47825 11.53372,-29.12824 28.32339,-29.12824 11.87015,0 21.04274,5.89968 25.14312,17.96556 l -9.27392,1.31899 c -2.75463,-8.33634 -7.76941,-11.0849 -15.98979,-11.0849 -12.92833,0 -18.99024,6.65808 -18.99237,20.92181 z"
       fill="#969ca5"
       id="path5"
       style="stroke-width:3.56771" />
    <path
       d="m 465.16496,123.84273 c 0.14269,-0.0321 0.28542,-0.0656 0.4317,-0.097 v 0.007 c 4.40969,-0.96271 8.96924,-0.73887 12.87232,0.51451 8.44836,2.42868 13.03287,9.71018 13.03287,20.97845 v 35.1966 h -8.97638 v -34.599 c 0,-9.16119 -5.35871,-14.15136 -13.51451,-14.15136 -10.72064,0 -17.4811,8.44015 -17.4811,22.94898 v 25.80138 h -8.97565 v -77.03346 h 8.97565 v 31.56141 c 2.51667,-5.66015 6.75833,-9.78618 13.6351,-11.12671 z"
       fill="#969ca5"
       id="path6"
       style="stroke-width:3.56771" />
  </g>
</svg>
