<svg width="600" height="240" viewBox="0 0 600 240" fill="none" xmlns="http://www.w3.org/2000/svg">
<mask id="mask0_1904_3640" style="mask-type:luminance" maskUnits="userSpaceOnUse" x="101" y="63" width="398" height="114">
<path d="M498.642 63.7504H101.355V176.25H498.642V63.7504Z" fill="white"/>
</mask>
<g mask="url(#mask0_1904_3640)">
<path d="M134.531 78.4072C136.813 75.8291 138.892 73.6237 140.883 71.7806C107.295 70.6834 117.07 94.974 106.126 119.648C93.5093 148.064 107.613 158.892 128.617 162.266C125.684 158.777 123.293 154.866 121.524 150.664C107.904 133.532 113.378 102.319 134.531 78.4072Z" fill="#364153"/>
<path d="M215.355 108.603C212.228 117.408 206.496 127.255 198.388 136.997C192.576 144.07 185.61 150.109 177.784 154.858C169.402 160.289 159.001 163.493 147.372 163.493C141.092 163.552 134.817 163.117 128.605 162.193C132.061 166.315 136.342 169.668 141.173 172.034C171.541 186.713 173.456 159.417 205.585 145.599C223.627 137.826 223.693 122.63 215.355 108.603Z" fill="#364153"/>
<path d="M177.778 80.2894C182.173 81.0592 186.409 82.5611 190.307 84.7327C200.505 90.498 209.797 99.33 215.354 108.678C220.84 93.2681 218.278 81.156 206.303 78.9671C193.137 76.5592 182.868 75.7856 172.989 68.8901C160.816 60.3874 150.141 63.1905 140.887 71.781C141.54 71.781 142.203 71.8305 142.894 71.8687C155.736 72.6315 167.991 75.1275 177.778 80.2894Z" fill="#364153"/>
<path d="M134.531 78.4091C113.373 102.321 107.898 133.534 121.508 150.666C115.397 136.326 115.819 118.438 124.431 104.153C135.902 85.1344 158.898 76.851 177.774 80.2905C167.993 75.1286 155.733 72.6109 142.891 71.8702C142.2 71.8316 141.536 71.8042 140.883 71.7825C138.919 73.6256 136.818 75.8306 134.531 78.4091Z" fill="#364153"/>
<path d="M190.307 84.7301C186.408 82.5585 182.173 81.0566 177.777 80.2867C190.652 87.0889 199.226 98.5099 199.128 116.7C199.039 132.488 190.899 146.438 177.783 154.93C185.609 150.18 192.575 144.141 198.387 137.068C206.495 127.348 212.227 117.479 215.354 108.675C209.797 99.3052 200.505 90.4954 190.307 84.7301Z" fill="#364153"/>
<path d="M175.673 146.281C168.689 150.769 160.212 152.307 152.096 150.559C143.98 148.812 136.888 143.92 132.37 136.955C122.989 122.473 127.63 103.822 141.695 93.8107C157.439 82.6147 177.637 87.0304 185.004 103.136C192.179 118.82 190.199 136.939 175.673 146.281ZM177.78 80.2886C158.904 76.8491 135.908 85.1325 124.438 104.151C115.825 118.414 115.403 136.324 121.514 150.664C123.282 154.866 125.673 158.777 128.607 162.266C134.819 163.191 141.093 163.626 147.373 163.566C159.003 163.566 169.403 160.362 177.785 154.932C190.891 146.44 199.042 132.49 199.13 116.702C199.229 98.5121 190.655 87.0907 177.78 80.2886Z" fill="#364153"/>
<path d="M263.289 106.943V122.27C263.289 122.389 263.312 122.506 263.358 122.616C263.404 122.725 263.471 122.825 263.556 122.908C263.641 122.991 263.742 123.057 263.852 123.101C263.962 123.145 264.08 123.166 264.199 123.164H275.51C277.503 123.165 279.415 122.376 280.826 120.969C282.238 119.562 283.033 117.652 283.037 115.66V113.729C283.037 111.692 282.228 109.738 280.787 108.298C279.347 106.858 277.394 106.049 275.357 106.049H264.183C263.946 106.049 263.718 106.143 263.551 106.311C263.383 106.478 263.289 106.706 263.289 106.943ZM256.344 147.339V100.448C256.343 100.271 256.377 100.096 256.445 99.933C256.512 99.7695 256.611 99.621 256.736 99.4961C256.861 99.3712 257.009 99.2722 257.173 99.2047C257.336 99.1376 257.511 99.1031 257.688 99.1039H274.754C276.751 99.1031 278.729 99.4961 280.574 100.26C282.42 101.024 284.097 102.144 285.509 103.556C286.922 104.968 288.043 106.644 288.807 108.49C289.571 110.335 289.965 112.313 289.965 114.31V114.721C289.965 118.804 288.343 122.719 285.457 125.606C282.57 128.493 278.655 130.114 274.573 130.114H264.183C263.946 130.114 263.718 130.209 263.551 130.376C263.383 130.544 263.289 130.771 263.289 131.008V147.339C263.289 147.696 263.147 148.038 262.895 148.29C262.643 148.542 262.301 148.683 261.945 148.683H257.688C257.331 148.683 256.99 148.542 256.738 148.29C256.486 148.038 256.344 147.696 256.344 147.339ZM308.924 131.579L317.031 114.447C317.096 114.311 317.198 114.196 317.325 114.116C317.452 114.036 317.599 113.993 317.75 113.993C317.9 113.993 318.048 114.036 318.175 114.116C318.302 114.196 318.404 114.311 318.469 114.447L326.527 131.518C326.58 131.633 326.604 131.759 326.596 131.885C326.588 132.011 326.548 132.133 326.48 132.24C326.413 132.346 326.319 132.435 326.208 132.495C326.097 132.556 325.973 132.588 325.847 132.588H309.571C309.451 132.591 309.333 132.562 309.227 132.506C309.122 132.45 309.032 132.367 308.967 132.267C308.902 132.166 308.864 132.051 308.857 131.931C308.849 131.812 308.872 131.692 308.924 131.584V131.579ZM335.386 148.678H340.241C340.45 148.678 340.655 148.626 340.838 148.525C341.022 148.425 341.177 148.28 341.289 148.104C341.401 147.927 341.467 147.726 341.48 147.517C341.494 147.309 341.454 147.1 341.365 146.911L319.423 99.8119C319.323 99.5977 319.165 99.417 318.965 99.2906C318.766 99.1639 318.535 99.0975 318.298 99.0986H317.278C317.047 99.102 316.822 99.1702 316.628 99.2955C316.435 99.4204 316.279 99.5974 316.181 99.8062L293.926 146.906C293.837 147.095 293.798 147.304 293.812 147.513C293.825 147.721 293.891 147.923 294.003 148.1C294.115 148.276 294.269 148.422 294.452 148.523C294.635 148.624 294.841 148.677 295.051 148.678H300.081C300.316 148.677 300.547 148.609 300.746 148.483C300.945 148.357 301.104 148.177 301.205 147.964L304.963 140.021C305.064 139.809 305.224 139.63 305.423 139.505C305.622 139.38 305.852 139.314 306.088 139.314H329.44C329.671 139.317 329.897 139.386 330.091 139.512C330.285 139.638 330.44 139.817 330.537 140.027L334.278 147.964C334.378 148.175 334.535 148.353 334.731 148.479C334.927 148.605 335.153 148.674 335.386 148.678ZM375.289 148.678H381.086C381.217 148.678 381.345 148.645 381.457 148.582C381.574 148.52 381.667 148.431 381.739 148.321C381.806 148.212 381.851 148.087 381.859 147.957C381.866 147.828 381.844 147.698 381.787 147.58L371.29 124.069C371.149 123.761 371.075 123.426 371.075 123.087C371.075 122.748 371.149 122.413 371.29 122.105L380.88 100.711C380.959 100.539 380.992 100.348 380.977 100.159C380.966 99.9694 380.902 99.7864 380.801 99.6262C380.7 99.4665 380.557 99.3349 380.392 99.2434C380.224 99.1522 380.036 99.1042 379.849 99.1039H374.91C374.684 99.1046 374.464 99.1721 374.276 99.2981C374.088 99.4237 373.942 99.6026 373.857 99.8119L367.307 115.588C367.267 115.702 367.193 115.8 367.094 115.87C366.996 115.939 366.879 115.977 366.758 115.977C366.638 115.977 366.52 115.939 366.422 115.87C366.324 115.8 366.25 115.702 366.21 115.588L359.698 99.828C359.615 99.6139 359.469 99.4301 359.279 99.3007C359.089 99.1714 358.864 99.1027 358.634 99.1039H353.752C353.551 99.1012 353.352 99.1496 353.175 99.2441C352.997 99.339 352.847 99.4774 352.737 99.6461C352.627 99.8149 352.562 100.008 352.548 100.209C352.534 100.41 352.57 100.611 352.655 100.794L362.183 122.149C362.324 122.455 362.397 122.788 362.397 123.126C362.397 123.463 362.324 123.796 362.183 124.102L351.613 147.613C351.559 147.731 351.535 147.86 351.544 147.989C351.552 148.118 351.593 148.243 351.662 148.352C351.731 148.461 351.827 148.551 351.94 148.614C352.053 148.676 352.18 148.71 352.309 148.711H358.118C358.273 148.71 358.423 148.664 358.551 148.578C358.679 148.492 358.778 148.37 358.837 148.228L366.215 130.575C366.258 130.478 366.328 130.395 366.418 130.337C366.507 130.279 366.611 130.248 366.717 130.248C366.824 130.248 366.928 130.279 367.017 130.337C367.106 130.395 367.176 130.478 367.219 130.575L374.57 148.189C374.626 148.334 374.725 148.458 374.854 148.545C374.982 148.632 375.135 148.678 375.289 148.678ZM418.207 104.771C414.892 104.804 411.645 105.701 408.784 107.374C405.919 109.047 403.545 111.438 401.887 114.31C400.211 117.292 399.352 120.664 399.394 124.086C399.371 126.568 399.844 129.029 400.781 131.328C401.719 133.626 403.099 135.716 404.85 137.476C406.601 139.236 408.682 140.632 410.974 141.582C413.269 142.532 415.725 143.017 418.207 143.011C421.586 143.032 424.909 142.161 427.841 140.488C430.725 138.865 433.106 136.484 434.73 133.603C436.395 130.628 437.25 127.269 437.212 123.861C437.254 120.489 436.399 117.167 434.737 114.233C433.069 111.359 430.657 108.986 427.759 107.36C424.86 105.675 421.564 104.789 418.207 104.793V104.771ZM418.384 149.874C411.09 149.874 404.839 147.339 399.814 142.336C397.376 139.975 395.445 137.139 394.14 134.003C392.839 130.867 392.19 127.497 392.239 124.102C392.216 119.476 393.405 114.925 395.689 110.904C397.912 106.948 401.152 103.659 405.075 101.375C408.997 99.0911 413.456 97.896 417.994 97.9136C425.437 97.9136 431.756 100.437 436.789 105.412C441.817 110.388 444.364 116.603 444.364 123.877C444.386 127.296 443.73 130.685 442.432 133.848C441.135 137.01 439.222 139.884 436.804 142.302C434.389 144.72 431.516 146.635 428.355 147.934C425.19 149.234 421.804 149.893 418.384 149.874ZM468.847 149.874C465.851 149.897 462.915 149.032 460.41 147.388C457.931 145.743 455.625 143.033 453.574 139.281C453.435 139.024 453.397 138.724 453.472 138.442C453.551 138.16 453.731 137.919 453.979 137.767L458.006 135.353C458.137 135.276 458.284 135.225 458.434 135.205C458.584 135.185 458.737 135.195 458.887 135.236C459.034 135.276 459.169 135.346 459.289 135.441C459.409 135.535 459.506 135.652 459.581 135.786C462.187 140.581 465.15 143.011 468.397 143.011C469.77 143.015 471.127 142.68 472.339 142.035C473.479 141.462 474.431 140.577 475.084 139.484C475.699 138.462 476.025 137.292 476.021 136.099C475.987 134.646 475.496 133.24 474.619 132.084C473.212 130.092 470.569 127.618 466.755 124.744C462.679 121.666 460.174 119.478 459.157 118.04C457.395 115.783 456.431 113.005 456.416 110.141C456.397 107.964 456.967 105.823 458.062 103.942C459.154 102.069 460.747 100.537 462.66 99.5156C464.614 98.4502 466.811 97.899 469.039 97.9136C471.431 97.9046 473.782 98.5275 475.856 99.7185C477.956 100.914 480.086 103.01 482.37 106.126C482.542 106.364 482.617 106.663 482.576 106.956C482.535 107.25 482.377 107.515 482.145 107.694L478.305 110.624C478.185 110.714 478.05 110.779 477.907 110.817C477.761 110.854 477.611 110.863 477.465 110.843C477.319 110.823 477.176 110.773 477.049 110.698C476.921 110.623 476.809 110.523 476.719 110.404C475.035 108.172 473.606 106.702 472.489 106.016C471.427 105.374 470.209 105.04 468.967 105.051C468.255 105.017 467.542 105.126 466.871 105.37C466.204 105.615 465.589 105.991 465.067 106.477C464.587 106.916 464.212 107.452 463.957 108.049C463.702 108.646 463.582 109.29 463.597 109.938C463.597 110.81 463.785 111.672 464.145 112.467C464.677 113.523 465.39 114.476 466.256 115.281C466.646 115.654 468.011 116.773 472.241 119.9C476.471 123.027 479.336 125.77 480.949 128.271C482.505 130.548 483.364 133.231 483.416 135.989C483.424 137.822 483.049 139.635 482.314 141.315C481.582 142.995 480.51 144.505 479.164 145.748C477.806 147.089 476.194 148.145 474.424 148.853C472.65 149.562 470.752 149.908 468.847 149.874Z" fill="#364153"/>
<path d="M498.643 144.522C498.643 147.429 496.359 149.71 493.389 149.71C490.453 149.71 488.109 147.429 488.109 144.522C488.109 141.678 490.453 139.396 493.389 139.396C496.359 139.396 498.643 141.678 498.643 144.522ZM489.422 144.522C489.422 146.804 491.109 148.617 493.423 148.617C495.673 148.617 497.331 146.804 497.331 144.554C497.331 142.271 495.673 140.427 493.389 140.427C491.109 140.427 489.422 142.271 489.422 144.522ZM492.579 147.21H491.391V142.084C491.859 141.99 492.516 141.927 493.359 141.927C494.327 141.927 494.766 142.084 495.141 142.303C495.422 142.522 495.643 142.927 495.643 143.428C495.643 143.99 495.204 144.428 494.578 144.616V144.679C495.077 144.866 495.362 145.241 495.516 145.928C495.673 146.71 495.767 147.023 495.891 147.21H494.608C494.454 147.023 494.361 146.554 494.203 145.96C494.109 145.398 493.794 145.147 493.142 145.147H492.579V147.21ZM492.609 144.303H493.172C493.828 144.303 494.361 144.084 494.361 143.554C494.361 143.084 494.016 142.771 493.266 142.771C492.951 142.771 492.733 142.803 492.609 142.835V144.303Z" fill="#364153"/>
</g>
</svg>
