<svg width="600" height="300" viewBox="0 0 600 300" fill="none" xmlns="http://www.w3.org/2000/svg">
<path d="M402.72 133.233H396.657C396.015 133.233 395.444 133.661 395.23 134.232C394.945 135.088 394.731 135.659 394.659 136.015L383.745 168.765C383.674 169.05 383.317 169.835 382.747 171.12C382.461 171.69 381.605 171.69 381.32 171.12C380.963 170.335 380.678 169.55 380.393 168.765L369.336 135.016L369.122 134.232C368.908 133.589 368.337 133.161 367.695 133.161H361.703C360.633 133.161 359.92 134.16 360.277 135.159L360.491 135.73L377.325 182.75L377.397 182.892C377.539 183.249 377.539 183.606 377.397 183.963L377.111 184.962C376.041 187.887 373.259 189.813 370.121 189.813H363.843C362.987 189.813 362.345 190.527 362.345 191.312V196.164C362.345 197.02 362.987 197.662 363.843 197.662H370.121C376.255 197.662 381.819 194.094 384.245 188.6L384.53 187.887C384.601 187.673 389.095 175.329 403.79 134.588C403.933 133.946 403.433 133.233 402.72 133.233ZM322.684 175.187C323.968 175.615 325.466 175.9 327.178 175.9C332.243 175.9 336.166 173.688 339.091 171.048C341.445 168.694 342.586 165.84 342.586 162.344V158.562C342.586 158.134 342.229 157.777 341.801 157.777L340.66 157.92L335.952 158.491L326.607 159.918C321.543 160.703 318.547 162.772 317.548 165.84C317.263 166.553 317.12 167.338 317.12 168.194C317.049 171.476 319.403 174.259 322.684 175.187ZM350.932 178.469V181.394C350.932 182.25 350.219 182.892 349.434 182.892H344.583C343.727 182.892 343.085 182.25 343.085 181.394L343.014 176.542C343.014 176.186 342.586 176.043 342.372 176.257L341.516 177.113C337.593 180.966 332.243 182.892 325.395 182.892C320.473 182.892 316.407 181.608 313.268 178.968C310.129 176.4 308.56 172.832 308.56 168.123C308.56 165.697 308.988 163.557 309.915 161.773C310.843 159.989 311.984 158.633 313.482 157.634C314.98 156.636 316.478 155.851 317.762 155.351C319.117 154.852 320.544 154.495 322.042 154.281C329.318 153.282 333.241 152.711 333.955 152.569C334.597 152.497 336.951 152.212 341.088 151.641L341.944 151.498C342.301 151.427 342.586 151.142 342.586 150.785V148.716C342.586 145.648 341.801 143.222 340.089 141.509C338.377 139.797 335.381 138.941 330.959 138.941C328.605 138.941 326.607 139.226 324.967 139.726C323.255 140.296 322.042 141.081 321.186 142.151C320.473 143.008 319.902 143.935 319.545 144.934C319.403 145.291 319.331 145.576 319.26 145.933C319.117 146.647 318.475 147.146 317.762 147.146H312.198C311.342 147.146 310.629 146.432 310.7 145.505V145.22C310.771 144.649 310.843 144.221 310.914 143.793C311.199 142.508 311.77 141.153 312.626 139.726C313.482 138.299 314.623 137.086 316.05 136.015C317.477 134.945 319.403 134.089 321.899 133.375C324.467 132.662 327.392 132.305 330.745 132.305C344.298 132.305 350.932 137.585 350.932 148.359V178.469ZM462.212 134.303V181.18C462.212 182.036 462.925 182.678 463.71 182.678H469.773C470.558 182.678 471.271 181.965 471.271 181.18V134.303C471.271 133.447 470.558 132.805 469.773 132.805H463.71C462.925 132.805 462.212 133.447 462.212 134.303ZM462.212 119.391V125.313C462.212 126.169 462.925 126.811 463.71 126.811H469.773C470.629 126.811 471.271 126.169 471.271 125.313V119.391C471.271 118.535 470.629 117.892 469.773 117.892H463.71C462.925 117.892 462.212 118.535 462.212 119.391ZM499.662 140.653H512.502C513.358 140.653 514 139.94 514 139.155V134.303C514 133.447 513.287 132.805 512.502 132.805H499.662C499.234 132.805 498.877 132.448 498.877 132.02V119.391C498.877 118.535 498.164 117.892 497.379 117.892H491.316C490.46 117.892 489.818 118.535 489.818 119.391V132.02C489.818 132.448 489.461 132.805 489.033 132.805H483.469C482.613 132.805 481.971 133.447 481.971 134.303V139.155C481.971 140.011 482.685 140.653 483.469 140.653H489.033C489.461 140.653 489.818 141.01 489.818 141.438V168.123C490.103 176.257 496.88 182.75 505.155 182.75H511.931C512.787 182.75 513.429 182.036 513.429 181.251V176.4C513.429 175.543 512.716 174.901 511.931 174.901H505.155C501.659 174.901 498.877 172.119 498.877 168.694V141.438C498.949 141.01 499.234 140.653 499.662 140.653ZM301.783 138.085C301.783 127.097 292.867 118.178 281.739 117.892H252.777C251.921 117.892 251.279 118.535 251.279 119.391V181.18C251.279 182.036 251.993 182.678 252.777 182.678H258.841C259.697 182.678 260.339 181.965 260.339 181.18V158.99C260.339 158.562 260.624 158.205 261.052 158.205H281.596C292.795 157.991 301.712 149.072 301.783 138.085ZM293.723 138.085C293.723 144.863 288.159 150.357 281.239 150.357H261.123C260.695 150.357 260.41 150 260.41 149.572V126.526C260.41 126.098 260.695 125.741 261.123 125.741H281.239C288.159 125.741 293.723 131.306 293.723 138.085ZM422.551 158.063H445.377C446.233 158.063 446.875 157.349 446.875 156.564V151.712C446.875 150.856 446.162 150.214 445.377 150.214H422.551C422.123 150.214 421.766 149.857 421.766 149.501V126.597C421.766 126.169 422.123 125.812 422.551 125.812H450.585C451.441 125.812 452.083 125.099 452.083 124.314V119.462C452.083 118.606 451.369 117.964 450.585 117.964H414.205C413.349 117.964 412.707 118.606 412.707 119.462V181.251C412.707 182.108 413.349 182.75 414.205 182.75H420.268C421.124 182.75 421.766 182.036 421.766 181.251V158.847C421.837 158.419 422.123 158.063 422.551 158.063ZM152.055 85C188.506 85 218.038 114.111 218.038 150C218.038 185.889 188.506 215 152.055 215C115.603 215 86 185.889 86 150C86 114.111 115.532 85 152.055 85ZM139.714 119.748H129.941C129.228 119.748 128.586 120.247 128.443 120.96V121.246V173.332C128.443 179.61 133.651 184.748 139.999 184.748C146.419 184.748 151.555 179.61 151.555 173.332C151.555 173.189 151.555 173.189 151.555 173.117V160.203C151.555 159.846 151.769 159.561 152.126 159.49L152.34 159.418H167.748C178.519 158.99 187.079 150.214 187.079 139.583C187.079 128.88 178.519 120.176 167.605 119.748H167.463C166.25 119.748 156.977 119.748 139.714 119.748ZM152.982 125.598H166.892C174.739 125.598 181.159 131.877 181.159 139.583C181.159 147.146 175.095 153.282 167.463 153.568H152.34C151.912 153.568 151.555 153.211 151.627 152.783V143.293C151.627 142.865 151.912 142.508 152.34 142.508H166.892C168.533 142.508 169.817 141.224 169.888 139.583C169.888 137.942 168.533 136.658 166.892 136.658H147.133C146.277 136.658 145.635 137.371 145.635 138.156V172.975C145.777 176.186 143.209 178.897 139.999 178.897C136.932 178.897 134.364 176.471 134.364 173.332C134.364 173.189 134.364 173.117 134.364 173.046V126.312C134.364 125.884 134.721 125.598 135.077 125.598H152.982Z" fill="#969CA5"/>
</svg>
