<svg fill="none" height="263" viewBox="0 0 600 263" width="600" xmlns="http://www.w3.org/2000/svg" xmlns:xlink="http://www.w3.org/1999/xlink"><mask id="a" height="261" maskUnits="userSpaceOnUse" width="520" x="40" y="1"><path d="m560.001 1.25256h-520.001v260.49544h520.001z" fill="#fff"/></mask><mask id="b" height="261" maskUnits="userSpaceOnUse" width="520" x="40" y="1"><path d="m560.001 1.25256h-520.001v260.49544h520.001z" fill="#fff"/></mask><g mask="url(#a)"><g mask="url(#b)"><path d="m389.024 116.941h-5.258c-.555 0-1.05.372-1.237.867-.244.744-.432 1.239-.492 1.549l-9.46 28.437c-.061.248-.371.929-.865 2.045-.248.495-.99.495-1.237 0-.309-.682-.556-1.363-.803-2.045l-9.583-29.305-.185-.681c-.186-.558-.681-.93-1.237-.93h-5.193c-.928 0-1.546.868-1.236 1.735l.185.496 14.59 40.828.062.124c.123.31.123.62 0 .93l-.248.867c-.927 2.54-3.338 4.212-6.058 4.212h-5.44c-.742 0-1.299.62-1.299 1.302v4.213c0 .743.557 1.301 1.299 1.301h5.44c5.316 0 10.139-3.098 12.241-7.869l.247-.619c.062-.186 3.958-10.904 16.693-46.281.124-.557-.311-1.176-.926-1.176zm-69.367 36.429c1.113.372 2.411.62 3.895.62 4.39 0 7.79-1.921 10.325-4.214 2.04-2.044 3.029-4.522 3.029-7.558v-3.283c0-.372-.309-.682-.681-.682l-.989.124-4.08.496-8.099 1.239c-4.388.682-6.985 2.478-7.851 5.142-.247.619-.371 1.301-.371 2.044-.061 2.85 1.979 5.266 4.822 6.072zm24.482 2.85v2.54c0 .743-.618 1.301-1.298 1.301h-4.205c-.741 0-1.298-.558-1.298-1.301l-.061-4.213c0-.309-.371-.434-.557-.248l-.742.744c-3.4 3.345-8.036 5.018-13.971 5.018-4.266 0-7.79-1.115-10.51-3.408-2.721-2.23-4.08-5.328-4.08-9.417 0-2.106.37-3.964 1.174-5.513s1.793-2.727 3.091-3.594c1.299-.867 2.597-1.549 3.71-1.983 1.174-.433 2.411-.743 3.709-.929 6.306-.867 9.706-1.363 10.324-1.486.557-.063 2.597-.31 6.183-.806l.741-.124c.31-.062.557-.309.557-.619v-1.797c0-2.664-.681-4.771-2.164-6.258-1.484-1.486-4.081-2.23-7.913-2.23-2.04 0-3.772.248-5.193.682-1.484.495-2.535 1.176-3.277 2.106-.618.744-1.113 1.549-1.422 2.416-.123.31-.186.558-.247.868-.124.62-.681 1.053-1.298 1.053h-4.822c-.742 0-1.36-.62-1.299-1.425v-.248c.062-.495.124-.867.186-1.239.247-1.116.741-2.292 1.484-3.531.741-1.239 1.73-2.293 2.967-3.222 1.237-.93 2.906-1.673 5.069-2.293 2.226-.619 4.761-.929 7.667-.929 11.745 0 17.495 4.585 17.495 13.94zm96.443-38.35v40.704c0 .744.619 1.301 1.298 1.301h5.254c.682 0 1.297-.619 1.297-1.301v-40.704c0-.743-.615-1.301-1.297-1.301h-5.254c-.679 0-1.298.558-1.298 1.301zm0-12.948v5.142c0 .743.619 1.301 1.298 1.301h5.254c.742 0 1.297-.558 1.297-1.301v-5.142c0-.744-.555-1.302-1.297-1.302h-5.254c-.679 0-1.298.558-1.298 1.302zm32.457 18.462h11.126c.742 0 1.301-.619 1.301-1.301v-4.213c0-.743-.619-1.301-1.301-1.301h-11.126c-.372 0-.683-.31-.683-.681v-10.966c0-.744-.615-1.302-1.297-1.302h-5.254c-.743 0-1.297.558-1.297 1.302v10.966c0 .371-.312.681-.683.681h-4.822c-.739 0-1.298.558-1.298 1.301v4.213c0 .743.619 1.301 1.298 1.301h4.822c.371 0 .683.31.683.681v23.171c.247 7.063 6.12 12.701 13.29 12.701h5.872c.743 0 1.301-.619 1.301-1.301v-4.213c0-.743-.618-1.301-1.301-1.301h-5.872c-3.03 0-5.442-2.416-5.442-5.39v-23.667c.064-.371.311-.681.683-.681zm-171.496-2.23c0-9.541-7.727-17.286-17.371-17.534h-25.101c-.742 0-1.298.558-1.298 1.302v53.652c0 .744.619 1.301 1.298 1.301h5.256c.742 0 1.298-.619 1.298-1.301v-19.268c0-.371.247-.681.618-.681h17.805c9.705-.186 17.433-7.931 17.495-17.471zm-6.985 0c0 5.886-4.822 10.656-10.82 10.656h-17.433c-.372 0-.618-.31-.618-.682v-20.011c0-.371.246-.681.618-.681h17.433c5.998 0 10.82 4.832 10.82 10.718zm111.652 17.347h19.781c.743 0 1.298-.62 1.298-1.301v-4.213c0-.744-.619-1.301-1.298-1.301h-19.781c-.371 0-.683-.31-.683-.619v-19.888c0-.372.312-.682.683-.682h24.296c.739 0 1.298-.619 1.298-1.301v-4.213c0-.743-.619-1.301-1.298-1.301h-31.53c-.742 0-1.297.558-1.297 1.301v53.653c0 .744.555 1.301 1.297 1.301h5.254c.742 0 1.297-.619 1.297-1.301v-19.454c.064-.372.312-.681.683-.681zm-234.431-63.4416c31.591 0 57.185 25.2776 57.185 56.4406s-25.594 56.441-57.185 56.441c-31.592 0-57.248-25.278-57.248-56.441s25.595-56.4406 57.248-56.4406zm-10.696 30.1726h-8.47c-.617 0-1.174.433-1.298 1.052v.248 45.228c0 5.451 4.514 9.912 10.016 9.912 5.563 0 10.015-4.461 10.015-9.912 0-.125 0-.125 0-.187v-11.214c0-.31.185-.557.494-.618l.186-.063h13.354c9.334-.372 16.753-7.992 16.753-17.223 0-9.294-7.419-16.852-16.878-17.223h-.123c-1.051 0-9.087 0-24.049 0zm11.499 5.079h12.055c6.801 0 12.365 5.453 12.365 12.144 0 6.567-5.255 11.895-11.87 12.143h-13.106c-.371 0-.68-.31-.618-.681v-8.241c0-.372.247-.681.618-.681h12.611c1.423 0 2.536-1.115 2.597-2.54 0-1.425-1.174-2.54-2.597-2.54h-17.124c-.742 0-1.298.619-1.298 1.301v30.234c.123 2.788-2.103 5.142-4.884 5.142-2.659 0-4.885-2.107-4.885-4.832 0-.125 0-.187 0-.249v-40.58c0-.371.31-.62.619-.62z" fill="#364153"/></g></g></svg>