<svg fill="none" height="240" viewBox="0 0 600 240" width="600" xmlns="http://www.w3.org/2000/svg" xmlns:xlink="http://www.w3.org/1999/xlink"><mask id="a" height="84" maskUnits="userSpaceOnUse" width="461" x="69" y="78"><path d="m529.999 78.511h-460.0029v82.978h460.0029z" fill="#fff"/></mask><g fill="#364153" mask="url(#a)"><path d="m187.764 135.998v18.444h-8.467v-55.0032h7.257c.101.6582.211 1.3532.32 2.0722 9.844-4.9987 17.739-4.0751 23.497 2.706 5.946 7.002 6.279 19.993.703 27.608-5.222 7.133-12.93 8.572-23.31 4.178zm-1.036-16.612c.061.495.171 2.052.451 3.573.918 4.978 3.679 7.676 8.053 7.963 5.162.339 8.443-1.897 9.99-6.962 1.096-3.576 1.113-7.239.069-10.815-1.121-3.834-3.439-6.54-7.655-7.15-6.871-.993-10.896 3.54-10.908 13.391z"/><path d="m257.391 120.78h-27.557c.609 4.451 2.111 8.04 6.664 9.422 4.832 1.467 8.873-.152 12.28-4.971 2.68.813 5.417 1.643 8.179 2.481-3.793 8.956-13.982 13.179-23.57 9.933-9.937-3.364-14.892-13.828-11.968-25.269 2.534-9.917 11.379-15.6066 21.625-13.9143 9.828 1.6223 15.391 10.1493 14.347 22.3223zm-27.066-6.602h18.262c-.211-5.477-3.326-8.49-8.613-8.473-5.625.016-9.499 3.405-9.649 8.473z"/><path d="m529.658 120.794h-27.408c.551 4.317 1.963 7.849 6.37 9.316 4.882 1.627 8.732.139 12.621-4.864 2.657.801 5.35 1.618 8.05 2.432-2.945 8.469-13.489 13.031-23.043 10.113-10.144-3.103-15.423-13.849-12.445-25.335 2.723-10.517 12.094-16.1258 22.939-13.7265 9.017 1.9905 14.771 11.6985 12.919 22.0695zm-8.611-6.576c-.419-5.834-3.512-8.67-9.174-8.511-5.255.147-9.062 3.675-9.154 8.511z"/><path d="m433.959 112.472c-.187-2.931-1.249-5.151-4.244-5.964-5.271-1.439-9.462.221-11.978 4.848-2.435-.761-4.912-1.537-7.608-2.383 1.576-5.171 4.79-8.429 9.813-9.9373 9.37-2.8162 19.157.6091 21.513 7.7333.708 2.138.891 4.525.918 6.802.098 7.795.026 15.594.009 23.393 0 .119-.098.241-.203.475h-7.241v-4.914c-4.728 5.568-10.35 6.814-16.644 5.796-5.085-.821-8.844-4.565-9.463-9.278-.78-5.919 1.632-10.522 6.838-12.721 5.796-2.452 12.081-2.731 18.29-3.85zm-.253 7.067c-4.521.838-9.01 1.169-13.165 2.898-2.274.944-3.84 2.555-3.378 5.347.426 2.575 2.268 3.617 4.545 3.936 7.401 1.034 12.912-4.496 12.005-12.181z"/><path d="m451.557 99.3709h7.536v3.8631c6.137-5.4777 12.828-6.7326 19.872-3.3113 5.783 2.8083 7.313 8.4903 7.507 14.3723.252 7.639.062 15.291.062 23.103h-8.548c0-5.069.052-10.178-.02-15.288-.043-2.767-.017-5.588-.534-8.285-1.039-5.408-4.171-7.91-8.87-7.575-4.839.344-8.034 3.499-8.211 8.87-.239 7.366-.059 14.749-.059 22.282h-8.741v-38.0311z"/><path d="m343.584 137.477h-8.633c0-5.584 0-11.171 0-16.759 0-2.845.04-5.69-.861-8.449-1.284-3.941-3.883-6.111-8.098-6.021-4.321.09-7.253 2.236-8.195 6.47-1.486 6.688-.394 13.506-.682 20.262-.061 1.415-.008 2.833-.008 4.415h-8.431v-37.9858h7.35c.057 1.1238.114 2.2478.191 3.7648 2.652-2.42 5.401-4.0918 8.723-4.7091 10.36-1.921 17.544 3.7201 18.47 14.6091.121 1.414.162 2.845.166 4.263.016 6.634.008 13.273.008 20.136z"/><path d="m290.414 137.409c0-7.546.276-15.002-.09-22.425-.284-5.731-3.598-8.743-8.447-8.755-4.946-.013-8.183 2.848-8.702 8.538-.459 5.049-.244 10.158-.305 15.243-.028 2.428-.004 4.852-.004 7.411h-8.479v-38.0557h7.35c.061 1.1207.122 2.2437.203 3.8177 2.672-2.416 5.417-4.0955 8.731-4.7128 10.425-1.9417 17.564 3.7278 18.526 14.8098.11 1.283.126 2.575.13 3.862.013 6.708.004 13.416.004 20.271h-8.917z"/><path d="m364.493 154.524h-7.968c2.084-5.784 4.11-11.404 6.205-17.221-5.068-12.504-10.185-25.134-15.375-37.9492h8.85c3.464 8.8782 6.968 17.8672 10.639 27.2842 3.545-9.336 6.956-18.324 10.367-27.3045h8.509c-7.114 18.5005-14.168 36.8335-21.231 55.1905z"/><path d="m400.153 137.467h-8.286v-51.9331h8.286z"/><path d="m110.978 106.279c-9.645 6.43-10.534 20.107-.093 27.407-5.625 3.9-14.3396 2.473-19.4525-3.176-5.2182-5.767-5.3604-14.621-.3329-20.691 4.8692-5.878 13.5844-7.476 19.8784-3.54z"/><path d="m111.481 133.674c9.507-6.299 10.676-20.001.093-27.436 5.653-3.802 14.425-2.416 19.363 3.049 5.308 5.878 5.502 14.789.455 20.851-4.914 5.898-13.491 7.48-19.915 3.532z"/><path d="m111.215 161.491c-22.7292 0-41.2189-18.611-41.2189-41.489 0-22.8785 18.4897-41.4893 41.2189-41.4893 22.73 0 41.219 18.6108 41.219 41.4893 0 22.878-18.489 41.489-41.219 41.489zm0-73.9856c-17.8033 0-32.2847 14.5766-32.2847 32.4966s14.4814 32.496 32.2847 32.496c17.804 0 32.285-14.576 32.285-32.496s-14.481-32.4966-32.285-32.4966z"/></g></svg>