<svg width="600" height="300" viewBox="0 0 600 300" fill="none" xmlns="http://www.w3.org/2000/svg">
<g clip-path="url(#clip0_1505_26129)">
<path d="M160.18 170.359V193.253H149.67V124.978H158.678C158.804 125.795 158.94 126.658 159.076 127.551C171.295 121.345 181.095 122.492 188.243 130.91C195.623 139.601 196.036 155.726 189.115 165.179C182.632 174.033 173.065 175.819 160.18 170.364V170.359ZM158.895 149.739C158.97 150.353 159.106 152.286 159.454 154.173C160.593 160.353 164.021 163.702 169.45 164.057C175.857 164.478 179.93 161.703 181.851 155.417C183.212 150.977 183.232 146.431 181.937 141.991C180.545 137.232 177.667 133.873 172.434 133.117C163.905 131.884 158.91 137.511 158.895 149.739Z" fill="#969CA5"/>
<path d="M246.611 151.464H212.404C213.16 156.99 215.025 161.444 220.676 163.159C226.675 164.981 231.69 162.972 235.92 156.99C239.247 157.999 242.644 159.029 246.072 160.069C241.364 171.186 228.716 176.428 216.815 172.399C204.48 168.223 198.33 155.234 201.959 141.032C205.105 128.723 216.084 121.66 228.802 123.761C241.001 125.775 247.907 136.359 246.611 151.469V151.464ZM213.014 143.27H235.683C235.421 136.471 231.554 132.731 224.991 132.752C218.009 132.772 213.2 136.978 213.014 143.27Z" fill="#969CA5"/>
<path d="M584.572 151.484H550.551C551.236 156.842 552.991 161.226 558.46 163.048C564.519 165.067 569.298 163.22 574.127 157.01C577.424 158.004 580.766 159.019 584.118 160.029C580.463 170.542 567.372 176.204 555.516 172.582C542.924 168.73 536.371 155.391 540.066 141.134C543.448 128.078 555.078 121.117 568.542 124.095C579.732 126.566 586.875 138.617 584.577 151.489L584.572 151.484ZM573.885 143.32C573.366 136.08 569.525 132.559 562.498 132.757C555.975 132.939 551.247 137.318 551.136 143.32H573.885Z" fill="#969CA5"/>
<path d="M465.783 141.154C465.551 137.516 464.231 134.761 460.516 133.751C453.972 131.965 448.77 134.025 445.645 139.769C442.625 138.825 439.551 137.861 436.203 136.811C438.159 130.392 442.147 126.348 448.382 124.476C460.016 120.98 472.165 125.232 475.089 134.076C475.966 136.729 476.193 139.693 476.228 142.519C476.349 152.195 476.258 161.876 476.238 171.557C476.238 171.704 476.117 171.856 475.986 172.145H466.998V166.046C461.131 172.957 454.149 174.505 446.336 173.241C440.024 172.221 435.362 167.574 434.59 161.723C433.622 154.376 436.617 148.663 443.079 145.933C450.273 142.889 458.071 142.544 465.778 141.154H465.783ZM465.471 149.927C459.855 150.967 454.285 151.378 449.128 153.524C446.305 154.696 444.36 156.695 444.934 160.161C445.464 163.357 447.747 164.651 450.575 165.047C459.764 166.33 466.605 159.466 465.476 149.927H465.471Z" fill="#969CA5"/>
<path d="M487.626 124.892H496.982V129.687C504.598 122.888 512.906 121.33 521.647 125.577C528.825 129.063 530.725 136.115 530.967 143.417C531.28 152.9 531.043 162.398 531.043 172.094H520.432C520.432 165.803 520.497 159.46 520.406 153.118C520.356 149.683 520.386 146.182 519.746 142.833C518.456 136.121 514.569 133.015 508.737 133.431C502.728 133.858 498.761 137.775 498.544 144.442C498.247 153.585 498.469 162.748 498.469 172.099H487.621V124.892H487.626Z" fill="#969CA5"/>
<path d="M353.604 172.191H342.887C342.887 165.26 342.887 158.324 342.887 151.388C342.887 147.856 342.937 144.325 341.818 140.9C340.225 136.009 336.999 133.315 331.767 133.426C326.403 133.538 322.764 136.202 321.594 141.458C319.749 149.759 321.105 158.222 320.747 166.61C320.672 168.365 320.737 170.126 320.737 172.089H310.272V124.938H319.396C319.467 126.333 319.538 127.728 319.633 129.611C322.925 126.607 326.338 124.532 330.461 123.766C343.32 121.381 352.238 128.383 353.387 141.9C353.538 143.655 353.589 145.431 353.594 147.192C353.614 155.427 353.604 163.667 353.604 172.186V172.191Z" fill="#969CA5"/>
<path d="M287.598 172.11C287.598 162.743 287.941 153.488 287.488 144.274C287.135 137.161 283.021 133.421 277.003 133.406C270.863 133.391 266.845 136.943 266.2 144.005C265.63 150.272 265.897 156.614 265.822 162.926C265.787 165.94 265.817 168.949 265.817 172.125H255.292V124.887H264.415C264.491 126.277 264.567 127.673 264.668 129.626C267.984 126.627 271.392 124.542 275.505 123.776C288.445 121.366 297.307 128.403 298.502 142.158C298.638 143.752 298.658 145.355 298.663 146.953C298.678 155.28 298.668 163.606 298.668 172.115H287.598V172.11Z" fill="#969CA5"/>
<path d="M379.554 193.354H369.664C372.25 186.175 374.765 179.198 377.367 171.978C371.076 156.457 364.724 140.778 358.282 124.872H369.266C373.566 135.892 377.916 147.05 382.473 158.74C386.874 147.151 391.108 135.994 395.342 124.846H405.903C397.071 147.811 388.315 170.567 379.549 193.354H379.554Z" fill="#969CA5"/>
<path d="M423.823 172.181H413.535V107.717H423.823V172.181Z" fill="#969CA5"/>
<path d="M64.8672 133.467C52.8951 141.448 51.7912 158.425 64.7513 167.487C57.7697 172.328 46.952 170.557 40.6055 163.545C34.128 156.386 33.9515 145.396 40.1921 137.861C46.2361 130.565 57.0539 128.581 64.8672 133.467Z" fill="#969CA5"/>
<path d="M65.4923 167.472C77.293 159.653 78.7448 142.646 65.6083 133.416C72.6252 128.698 83.5135 130.418 89.6432 137.201C96.2316 144.498 96.4736 155.559 90.2077 163.083C84.1083 170.405 73.462 172.369 65.4873 167.467L65.4923 167.472Z" fill="#969CA5"/>
<path d="M65.1649 202C36.9511 202 14 178.899 14 150.5C14 122.101 36.9511 99 65.1649 99C93.3787 99 116.33 122.101 116.33 150.5C116.33 178.899 93.3787 202 65.1649 202ZM65.1649 110.163C43.0657 110.163 25.0899 128.256 25.0899 150.5C25.0899 172.744 43.0657 190.837 65.1649 190.837C87.2641 190.837 105.24 172.744 105.24 150.5C105.24 128.256 87.2641 110.163 65.1649 110.163Z" fill="#969CA5"/>
</g>
<defs>
<clipPath id="clip0_1505_26129">
<rect width="571" height="103" fill="white" transform="translate(14 99)"/>
</clipPath>
</defs>
</svg>
