<svg fill="none" height="240" viewBox="0 0 600 240" width="600" xmlns="http://www.w3.org/2000/svg" xmlns:xlink="http://www.w3.org/1999/xlink"><clipPath id="a"><path d="m66.2412 61.3565h466.517v117.643h-466.517z"/></clipPath><g clip-path="url(#a)" fill="#364153"><path d="m135.28 145.328v4.991c0 2.422-1.349 3.78-3.783 3.78h-61.473c-2.4235 0-3.7828-1.348-3.7828-3.78v-4.991c0-2.422 1.3487-3.781 3.7828-3.781h61.483c2.424 0 3.783 1.348 3.783 3.781zm-4.194-37.762-16.027-9.2454c-.527-.3054-.527-1.053 0-1.3584l16.027-9.2455c1.812-1.0425 2.423-3.3592 1.38-5.1598l-2.497-4.3174c-1.043-1.8112-3.351-2.422-5.163-1.3795l-16.027 9.2455c-.526.3054-1.18-.0737-1.18-.6739v-18.5121c0-2.085-1.696-3.7803-3.783-3.7803h-4.9943c-2.0864 0-3.7828 1.6953-3.7828 3.7803v18.5016c0 .6002-.6533.9793-1.1802.6739l-16.0268-9.2455c-1.8123-1.0425-4.1199-.4212-5.1631 1.3795l-2.4973 4.3173c-1.0431 1.8112-.4215 4.1174 1.3804 5.1598l16.0268 9.2456c.5268.3054.5268 1.053 0 1.3584l-16.0268 9.2449c-1.8124 1.043-2.4235 3.349-1.3804 5.161l2.4973 4.317c1.0432 1.811 3.3508 2.422 5.1631 1.379l16.0268-9.245c.5269-.306 1.1802.074 1.1802.674v18.501c0 2.085 1.6964 3.781 3.7828 3.781h4.9943c2.087 0 3.783-1.696 3.783-3.781v-18.501c0-.6.654-.98 1.18-.674l16.027 9.245c1.812 1.043 4.12.421 5.163-1.379l2.497-4.317c1.043-1.812.422-4.118-1.38-5.161z"/><path d="m172.95 109.923c3.298-5.212 10.105-8.824 17.133-8.824 14.362 0 25.753 11.91 25.753 27.115 0 15.206-11.38 27.116-25.753 27.116-7.028 0-13.835-3.612-17.133-8.824v29.052c0 .432-.348.78-.78.78h-10.99c-.432 0-.78-.348-.78-.78v-72.405c0-.432.348-.78.78-.78h10.99c.432 0 .78.348.78.78zm14.899 2.233c-8.724 0-15.426 6.918-15.426 16.058 0 9.151 6.702 16.059 15.426 16.059 8.831 0 15.532-6.908 15.532-16.059 0-9.15-6.701-16.058-15.532-16.058z"/><path d="m263.948 135.988c1.728 1.117 6.269 4.033 7.945 5.108.358.231.463.695.252 1.063-5.058 8.519-13.603 13.163-23.35 13.163-14.583 0-26.816-11.805-26.816-27.116 0-15.31 12.233-27.115 26.606-27.115 15.099 0 25.763 11.678 25.552 29.422 0 .431-.358.779-.79.779h-39.556c1.275 8.192 7.554 13.289 15.004 13.289 6.934 0 10.843-3.033 14.057-8.34.232-.379.727-.505 1.096-.263zm-29.631-13.31h27.344c-.854-5.844-5.427-10.951-13.087-10.951-6.702 0-12.244 4.254-14.257 10.951z"/><path d="m314.065 103.125c.116-.39-.084-.79-.453-.948-1.117-.464-2.423-.769-4.468-.769-6.491 0-11.706 3.928-14.256 9.035v-7.297c0-.432-.348-.779-.78-.779h-10.99c-.432 0-.78.347-.78.779v50.113c0 .432.348.779.78.779h10.99c.432 0 .78-.347.78-.779v-25.589c0-8.403 5.215-13.931 12.77-13.931.886 0 1.729.063 2.54.189.4.064.78-.168.885-.547.6-2.053 2.392-8.235 2.982-10.256z"/><path d="m315.991 140.927 9.41-3.412c.411-.147.853.074 1.001.474 1.696 4.486 5.111 7.55 9.957 7.55 3.826 0 7.345-2.338 7.345-6.592 0-9.677-25.331-3.19-25.331-21.692 0-8.93 7.555-16.164 18.197-16.164 8.725 0 15.268 4.749 17.734 11.573.147.411-.095.874-.516 1l-9.473 2.938c-.4.126-.811-.095-.959-.495-1.254-3.464-3.72-5.244-7.207-5.244-3.299 0-6.07 2.127-6.07 5.529 0 9.245 25.542 2.874 25.542 21.797 0 9.993-9.157 17.122-19.578 17.122-9.409 0-17.818-5.223-20.526-13.426-.126-.4.095-.832.485-.969z"/><path d="m388.305 101.091c14.9 0 27.46 11.805 27.46 27.115 0 15.311-12.56 27.116-27.46 27.116-14.899 0-27.354-11.805-27.354-27.116 0-15.31 12.455-27.115 27.354-27.115zm0 43.185c8.83 0 15.532-6.908 15.532-16.059s-6.702-16.058-15.532-16.058c-8.724 0-15.426 6.918-15.426 16.058 0 9.151 6.702 16.059 15.426 16.059z"/><path d="m446.631 112.296c-6.923 0-11.495 5.317-11.495 13.499v27.505c0 .432-.348.779-.78.779h-10.99c-.432 0-.78-.347-.78-.779v-50.113c0-.432.348-.779.78-.779h10.99c.432 0 .78.347.78.779v6.128c3.403-4.78 8.724-8.192 15.963-8.192 11.707 0 18.513 8.087 18.513 18.712v33.455c0 .431-.347.779-.779.779h-10.99c-.432 0-.78-.348-.78-.779v-30.053c0-6.698-3.825-10.952-10.432-10.952z"/><path d="m531.77 103.155v50.113c0 .432-.348.78-.778.78h-10.99c-.434 0-.783-.348-.783-.78v-6.771c-3.193 5.213-10 8.825-17.026 8.825-14.36 0-25.752-11.91-25.752-27.116 0-15.205 11.392-27.115 25.752-27.115 7.026 0 13.833 3.623 17.026 8.825v-6.771c0-.432.349-.78.783-.78h10.99c.43 0 .778.348.778.78zm-27.459 41.121c8.831 0 15.533-6.908 15.533-16.059s-6.702-16.058-15.533-16.058c-8.726 0-15.428 6.918-15.428 16.058 0 9.151 6.702 16.059 15.428 16.059z"/></g></svg>