<svg fill="none" height="300" viewBox="0 0 600 300" width="600" xmlns="http://www.w3.org/2000/svg"><g fill="#364153"><path clip-rule="evenodd" d="m32 133.424c0-9.121 0-13.681 1.4901-17.279 1.9868-4.796 5.7977-8.607 10.5943-10.594 3.5974-1.49 8.158-1.49 17.279-1.49h39.1516c9.121 0 13.681 0 17.279 1.49 4.796 1.987 8.607 5.798 10.594 10.594 1.49 3.598 1.49 8.158 1.49 17.279v39.152c0 9.121 0 13.681-1.49 17.279-1.987 4.796-5.798 8.607-10.594 10.594-3.598 1.49-8.158 1.49-17.279 1.49h-39.1516c-9.121 0-13.6816 0-17.279-1.49-4.7966-1.987-8.6075-5.798-10.5943-10.594-1.4901-3.598-1.4901-8.158-1.4901-17.279zm28.6783 4.943c-3.7299 0-6.7536-3.024-6.7536-6.754 0-3.729 3.0237-6.753 6.7536-6.753h30.3912c10.5675 0 19.1355 8.567 19.1355 19.135s-8.568 19.135-19.1355 19.135h-23.6376v11.256c0 3.729-3.0238 6.753-6.7536 6.753-3.7299 0-6.7536-3.024-6.7536-6.753v-18.01c0-3.73 3.0237-6.753 6.7536-6.753h30.3912c3.1082 0 5.6279-2.52 5.6279-5.628s-2.5197-5.628-5.6279-5.628zm30.3912 30.391h-2.798l10.404 10.404c1.2222 1.222 2.9105 1.978 4.7755 1.978 3.73 0 6.754-3.024 6.754-6.754 0-1.865-.756-3.553-1.978-4.775l-4.393-4.392c-3.727 2.246-8.095 3.539-12.7645 3.539z" fill-rule="evenodd"/><path clip-rule="evenodd" d="m156.68 180.965h12.415v-17.944h11.587c12 0 20.276-8.157 20.276-19.576s-8.276-19.575-20.276-19.575h-24.002zm12.415-28.955v-17.129h10.345c5.793 0 9.104 3.263 9.104 8.564 0 5.302-3.311 8.565-9.104 8.565z" fill-rule="evenodd"/><path d="m217.294 180.965h-11.677v-57.095h11.677v18.352h.418c2.918-3.263 6.254-5.302 11.258-5.302 9.592 0 16.265 6.525 16.265 17.537v26.508h-11.677v-24.877c0-5.71-2.919-8.972-7.924-8.972-5.004 0-8.34 3.67-8.34 8.972z"/><path d="m316.48 180.965h7.99v-10.626h-5.993c-2.398 0-3.996-1.635-3.996-4.087v-17.983h9.989v-10.626h-9.989v-11.443h-9.588l-1.598 11.443h-6.791v10.626h6.791v20.027c0 8.174 4.395 12.669 13.185 12.669z"/><g clip-rule="evenodd" fill-rule="evenodd"><path d="m329.129 159.409c0 14.459 8.291 22.721 21.556 22.721s21.557-8.262 21.557-22.721c0-14.46-8.292-22.722-21.557-22.722s-21.556 8.262-21.556 22.722zm31.505 0c0 8.675-4.559 12.393-9.949 12.393-5.388 0-9.949-3.718-9.949-12.393 0-8.676 4.561-12.394 9.949-12.394 5.39 0 9.949 3.718 9.949 12.394z"/><path d="m429.337 182.13c-12.907 0-20.974-8.262-20.974-22.721 0-14.46 8.067-22.722 20.974-22.722s20.974 8.262 20.974 22.722c0 14.459-8.067 22.721-20.974 22.721zm0-10.328c5.243 0 9.68-3.718 9.68-12.393 0-8.676-4.437-12.394-9.68-12.394s-9.68 3.718-9.68 12.394c0 8.675 4.437 12.393 9.68 12.393z"/><path d="m477.116 182.13c-12.908 0-20.975-8.262-20.975-22.721 0-14.46 8.067-22.722 20.975-22.722 12.906 0 20.973 8.262 20.973 22.722 0 14.459-8.067 22.721-20.973 22.721zm0-10.328c5.243 0 9.68-3.718 9.68-12.393 0-8.676-4.437-12.394-9.68-12.394-5.245 0-9.682 3.718-9.682 12.394 0 8.675 4.437 12.393 9.682 12.393z"/></g><path d="m505.078 180.965h11.44v-25.419c0-5.739 3.269-8.609 6.946-8.609 4.086 0 7.355 2.459 7.355 8.609v25.419h11.44v-25.419c0-5.739 3.269-8.609 6.945-8.609 4.087 0 7.356 2.459 7.356 8.609v25.419h11.44v-27.059c0-10.659-6.537-17.219-15.935-17.219-5.557 0-11.032 2.952-13.075 6.97h-.408c-2.124-4.264-6.701-6.97-11.85-6.97-4.495 0-7.763 2.05-10.214 5.74h-.408l-1.226-4.92h-9.806z"/><path d="m389.441 180.965h-11.371v-43.113h9.747l1.216 4.881h.408c2.435-3.661 6.089-4.881 10.15-4.881h5.279v10.982h-4.467c-6.903 0-10.962 4.067-10.962 10.575z"/><path clip-rule="evenodd" d="m272.618 182.13c-13.265 0-21.556-8.262-21.556-22.721 0-14.46 8.291-22.722 21.556-22.722 13.266 0 21.558 8.262 21.558 22.722 0 14.459-8.292 22.721-21.558 22.721zm0-10.328c5.389 0 9.95-3.718 9.95-12.393 0-8.676-4.561-12.394-9.95-12.394-5.388 0-9.949 3.718-9.949 12.394 0 8.675 4.561 12.393 9.949 12.393z" fill-rule="evenodd"/></g></svg>