<svg width="600" height="300" viewBox="0 0 600 300" fill="none" xmlns="http://www.w3.org/2000/svg">
<g clip-path="url(#clip0_1505_26232)">
<path d="M189.407 130.552H203.347C214.825 130.552 224.884 133.742 224.884 145.573C224.884 156.43 216.977 160.784 202.959 160.784H199.709V177.623H189.396V130.552H189.407ZM203.48 152.398C211.975 152.398 214.57 150.514 214.57 146.094C214.57 140.887 210.999 139.591 203.214 139.591H199.709V152.398H203.469H203.48Z" fill="#969CA5"/>
<path d="M230.662 127.948H240.521V148.498L240.654 148.565C242.994 146.615 246.366 144.92 250.381 144.92C253.752 144.92 256.735 146.094 258.754 148.177C260.694 150.26 261.537 153.051 261.537 157.671V177.623H251.678V159.288C251.678 156.884 251.356 155.71 250.58 154.802C249.737 153.827 248.573 153.439 247.209 153.439C244.68 153.439 242.285 154.735 240.532 156.109V177.634H230.673V127.959L230.662 127.948Z" fill="#969CA5"/>
<path d="M285.337 144.92C295.518 144.92 303.103 152.198 303.103 161.626C303.103 171.053 295.518 178.332 285.337 178.332C275.156 178.332 267.57 171.053 267.57 161.626C267.57 152.198 275.156 144.92 285.337 144.92ZM285.337 169.813C289.806 169.813 293.244 166.168 293.244 161.615C293.244 157.062 289.806 153.428 285.337 153.428C280.867 153.428 277.43 157.073 277.43 161.615C277.43 166.157 280.867 169.813 285.337 169.813Z" fill="#969CA5"/>
<path d="M311.677 165.592V153.827H306.486V145.629H311.677V137.309L321.536 135.625V145.64H329.964V153.827H321.536V164.551C321.536 167.675 322.246 170.012 325.229 170.012C326.848 170.012 328.667 169.358 329.964 168.705V176.57C328.478 177.545 325.55 178.321 322.767 178.321C319.528 178.321 316.479 177.279 314.46 175.13C312.774 173.313 311.677 170.644 311.677 165.581" fill="#969CA5"/>
<path d="M351.312 144.92C361.493 144.92 369.079 152.198 369.079 161.626C369.079 171.053 361.493 178.332 351.312 178.332C341.132 178.332 333.546 171.053 333.546 161.626C333.546 152.198 341.132 144.92 351.312 144.92ZM351.312 169.813C355.782 169.813 359.231 166.168 359.231 161.615C359.231 157.062 355.793 153.428 351.312 153.428C346.832 153.428 343.394 157.073 343.394 161.615C343.394 166.168 346.832 169.813 351.312 169.813Z" fill="#969CA5"/>
<path d="M375.435 130.552H390.151C400.853 130.552 410.391 133.476 410.391 144.72C410.391 150.769 407.075 155.71 400.853 157.726L414.084 177.623H402.217L390.351 159.022H385.748V177.623H375.435V130.552ZM390.939 151.29C396.772 151.29 400.077 149.794 400.077 145.441C400.077 141.342 397.36 139.591 389.697 139.591H385.737V151.29H390.928H390.939Z" fill="#969CA5"/>
<path d="M432.261 144.92C442.442 144.92 450.027 152.198 450.027 161.626C450.027 171.053 442.442 178.332 432.261 178.332C422.08 178.332 414.494 171.053 414.494 161.626C414.494 152.198 422.08 144.92 432.261 144.92ZM432.261 169.813C436.73 169.813 440.179 166.168 440.179 161.615C440.179 157.062 436.741 153.428 432.261 153.428C427.78 153.428 424.342 157.073 424.342 161.615C424.342 166.157 427.78 169.813 432.261 169.813Z" fill="#969CA5"/>
<path d="M471.952 144.92C482.133 144.92 489.719 152.198 489.719 161.626C489.719 171.053 482.133 178.332 471.952 178.332C461.771 178.332 454.186 171.053 454.186 161.626C454.186 152.198 461.771 144.92 471.952 144.92ZM471.952 169.813C476.433 169.813 479.871 166.168 479.871 161.615C479.871 157.062 476.433 153.428 471.952 153.428C467.472 153.428 464.034 157.073 464.034 161.615C464.034 166.157 467.472 169.813 471.952 169.813Z" fill="#969CA5"/>
<path d="M537.141 159.155C537.141 156.752 536.753 155.644 535.976 154.802C535.067 153.827 533.902 153.439 532.605 153.439C530.331 153.439 528.002 154.613 526.317 156.109C526.383 156.563 526.383 157.084 526.383 157.538V177.623H516.524V159.155C516.524 157.006 516.191 155.71 515.36 154.802C514.45 153.827 513.286 153.439 511.988 153.439C509.715 153.439 507.386 154.68 505.766 156.043V177.634H495.907V145.651H505.633V148.509L505.766 148.576C508.228 146.493 511.478 144.931 515.371 144.931C518.809 144.931 522.768 146.294 524.642 149.484C528.08 146.427 531.84 144.931 535.865 144.931C539.425 144.931 542.22 146.172 544.105 148.122C546.113 150.204 547.022 152.996 547.022 157.549V177.634H537.163V159.178L537.141 159.155Z" fill="#969CA5"/>
<mask id="mask0_1505_26232" style="mask-type:luminance" maskUnits="userSpaceOnUse" x="51" y="106" width="89" height="95">
<path d="M55.2255 109.913C50.7007 114.078 50.4234 121.113 54.6044 125.622L120.225 196.467C122.421 198.837 125.416 200.045 128.421 200.045C131.127 200.045 133.844 199.07 135.985 197.098C140.509 192.933 140.787 185.898 136.606 181.389L70.9847 110.545C68.7889 108.174 65.7945 106.966 62.789 106.966C60.083 106.966 57.3659 107.941 55.2255 109.924" fill="white"/>
</mask>
<g mask="url(#mask0_1505_26232)">
<path d="M99.4805 62.0004L3.99121 149.497L91.6955 245.005L187.185 157.508L99.4805 62.0004Z" fill="#969CA5"/>
</g>
<mask id="mask1_1505_26232" style="mask-type:luminance" maskUnits="userSpaceOnUse" x="51" y="106" width="90" height="94">
<path d="M62.9445 106.645C56.7894 106.645 51.7988 111.619 51.7988 117.767C51.7988 123.916 56.7894 128.89 62.9445 128.89H108.337C113.605 128.89 117.897 133.166 117.897 138.417C117.897 143.668 113.605 147.944 108.337 147.944H62.9445C56.7894 147.944 51.7988 152.918 51.7988 159.067V188.612C51.7988 194.75 56.7894 199.735 62.9445 199.735C69.0996 199.735 74.0902 194.761 74.0902 188.612V170.189H108.337C125.904 170.189 140.188 155.943 140.188 138.417C140.188 120.892 125.893 106.645 108.337 106.645H62.9445Z" fill="white"/>
</mask>
<g mask="url(#mask1_1505_26232)">
<path d="M93.7161 62.5451L5.25781 155.562L98.2551 243.809L186.713 150.793L93.7161 62.5451Z" fill="#969CA5"/>
</g>
</g>
<defs>
<clipPath id="clip0_1505_26232">
<rect width="543" height="183" fill="white" transform="translate(4 62)"/>
</clipPath>
</defs>
</svg>
