<svg width="600" height="300" viewBox="0 0 600 300" fill="none" xmlns="http://www.w3.org/2000/svg">
<path fill-rule="evenodd" clip-rule="evenodd" d="M32 133.424C32 124.303 32 119.743 33.4901 116.145C35.4769 111.349 39.2878 107.538 44.0844 105.551C47.6818 104.061 52.2424 104.061 61.3634 104.061H100.515C109.636 104.061 114.196 104.061 117.794 105.551C122.59 107.538 126.401 111.349 128.388 116.145C129.878 119.743 129.878 124.303 129.878 133.424V172.576C129.878 181.697 129.878 186.257 128.388 189.855C126.401 194.651 122.59 198.462 117.794 200.449C114.196 201.939 109.636 201.939 100.515 201.939H61.3634C52.2424 201.939 47.6818 201.939 44.0844 200.449C39.2878 198.462 35.4769 194.651 33.4901 189.855C32 186.257 32 181.697 32 172.576V133.424ZM60.6783 138.367C56.9484 138.367 53.9247 135.343 53.9247 131.613C53.9247 127.884 56.9484 124.86 60.6783 124.86H91.0695C101.637 124.86 110.205 133.427 110.205 143.995C110.205 154.563 101.637 163.13 91.0695 163.13H67.4319V174.386C67.4319 178.115 64.4081 181.139 60.6783 181.139C56.9484 181.139 53.9247 178.115 53.9247 174.386V156.376C53.9247 152.646 56.9484 149.623 60.6783 149.623H91.0695C94.1777 149.623 96.6975 147.103 96.6975 143.995C96.6975 140.887 94.1777 138.367 91.0695 138.367H60.6783ZM91.0695 168.758H88.2715L98.6755 179.162C99.8977 180.384 101.586 181.14 103.451 181.14C107.181 181.14 110.205 178.116 110.205 174.386C110.205 172.521 109.449 170.833 108.227 169.611L103.834 165.219C100.107 167.465 95.739 168.758 91.0695 168.758Z" fill="#969CA5"/>
<path fill-rule="evenodd" clip-rule="evenodd" d="M156.678 180.965H169.093V163.021H180.68C192.68 163.021 200.956 154.864 200.956 143.445C200.956 132.026 192.68 123.87 180.68 123.87H156.678V180.965ZM169.093 152.01V134.881H179.438C185.231 134.881 188.542 138.144 188.542 143.445C188.542 148.747 185.231 152.01 179.438 152.01H169.093Z" fill="#969CA5"/>
<path d="M217.294 180.965H205.617V123.87H217.294V142.222H217.712C220.63 138.959 223.966 136.92 228.97 136.92C238.562 136.92 245.235 143.445 245.235 154.457V180.965H233.558V156.088C233.558 150.378 230.639 147.116 225.634 147.116C220.63 147.116 217.294 150.786 217.294 156.088V180.965Z" fill="#969CA5"/>
<path d="M316.48 180.965H324.47V170.339H318.477C316.079 170.339 314.481 168.704 314.481 166.252V148.269H324.47V137.643H314.481V126.2H304.893L303.295 137.643H296.504V148.269H303.295V168.296C303.295 176.47 307.69 180.965 316.48 180.965Z" fill="#969CA5"/>
<path fill-rule="evenodd" clip-rule="evenodd" d="M329.13 159.409C329.13 173.868 337.421 182.13 350.686 182.13C363.951 182.13 372.243 173.868 372.243 159.409C372.243 144.949 363.951 136.687 350.686 136.687C337.421 136.687 329.13 144.949 329.13 159.409ZM360.635 159.409C360.635 168.084 356.076 171.802 350.686 171.802C345.298 171.802 340.737 168.084 340.737 159.409C340.737 150.733 345.298 147.015 350.686 147.015C356.076 147.015 360.635 150.733 360.635 159.409Z" fill="#969CA5"/>
<path fill-rule="evenodd" clip-rule="evenodd" d="M429.339 182.13C416.432 182.13 408.365 173.868 408.365 159.409C408.365 144.949 416.432 136.687 429.339 136.687C442.246 136.687 450.313 144.949 450.313 159.409C450.313 173.868 442.246 182.13 429.339 182.13ZM429.339 171.802C434.582 171.802 439.019 168.084 439.019 159.409C439.019 150.733 434.582 147.015 429.339 147.015C424.096 147.015 419.659 150.733 419.659 159.409C419.659 168.084 424.096 171.802 429.339 171.802Z" fill="#969CA5"/>
<path fill-rule="evenodd" clip-rule="evenodd" d="M477.114 182.13C464.206 182.13 456.139 173.868 456.139 159.409C456.139 144.949 464.206 136.687 477.114 136.687C490.02 136.687 498.087 144.949 498.087 159.409C498.087 173.868 490.02 182.13 477.114 182.13ZM477.114 171.802C482.357 171.802 486.794 168.084 486.794 159.409C486.794 150.733 482.357 147.015 477.114 147.015C471.869 147.015 467.432 150.733 467.432 159.409C467.432 168.084 471.869 171.802 477.114 171.802Z" fill="#969CA5"/>
<path d="M505.078 180.965H516.518V155.546C516.518 149.807 519.787 146.937 523.464 146.937C527.55 146.937 530.819 149.396 530.819 155.546V180.965H542.259V155.546C542.259 149.807 545.528 146.937 549.204 146.937C553.291 146.937 556.56 149.396 556.56 155.546V180.965H568V153.906C568 143.247 561.463 136.687 552.065 136.687C546.508 136.687 541.033 139.639 538.99 143.657H538.582C536.458 139.393 531.881 136.687 526.732 136.687C522.237 136.687 518.969 138.737 516.518 142.427H516.11L514.884 137.507H505.078V180.965Z" fill="#969CA5"/>
<path d="M389.441 180.965H378.07V137.852H387.817L389.033 142.733H389.441C391.876 139.072 395.53 137.852 399.591 137.852H404.87V148.834H400.403C393.5 148.834 389.441 152.901 389.441 159.409V180.965Z" fill="#969CA5"/>
<path fill-rule="evenodd" clip-rule="evenodd" d="M272.617 182.13C259.352 182.13 251.061 173.868 251.061 159.409C251.061 144.949 259.352 136.687 272.617 136.687C285.883 136.687 294.174 144.949 294.174 159.409C294.174 173.868 285.883 182.13 272.617 182.13ZM272.617 171.802C278.006 171.802 282.567 168.084 282.567 159.409C282.567 150.733 278.006 147.015 272.617 147.015C267.229 147.015 262.668 150.733 262.668 159.409C262.668 168.084 267.229 171.802 272.617 171.802Z" fill="#969CA5"/>
</svg>
