<svg fill="none" height="300" viewBox="0 0 600 300" width="600" xmlns="http://www.w3.org/2000/svg" xmlns:xlink="http://www.w3.org/1999/xlink"><clipPath id="a"><path d="m73 113h454v73h-454z"/></clipPath><g clip-path="url(#a)" fill="#364153"><path d="m73 161.691v-20.355c-.0007-1.474.3507-2.928 1.0253-4.241s1.6531-2.448 2.8551-3.311l26.3616-18.914c1.693-1.215 3.728-1.87 5.816-1.87h.083c2.167 0 4.264.674 6.01 1.927l26.284 18.857c1.202.863 2.181 1.998 2.855 3.311.675 1.313 1.026 2.767 1.026 4.241v16.328c0 1.474-.351 2.928-1.026 4.24-.675 1.313-1.654 2.448-2.856 3.311l-26.336 18.876c-1.73 1.241-3.808 1.909-5.941 1.909-2.14 0-4.225-.668-5.962-1.911-3.4464-2.468-8.9892-6.444-8.9892-6.444v-25.123c0-.33.3739-.521.6436-.329l14.0716 10.094c.141.102.332.102.474 0l17.365-12.458c.053-.037.095-.087.125-.144.029-.057.045-.121.045-.185s-.016-.128-.045-.185c-.03-.057-.072-.107-.125-.144l-17.365-12.458c-.069-.05-.152-.076-.237-.076s-.168.026-.237.076l-35.2774 25.307c-.0607.044-.1325.07-.2072.075-.0747.006-.1495-.009-.2162-.043-.0666-.034-.1225-.086-.1613-.15-.0389-.063-.0593-.137-.0589-.211zm160.596 20.327v-46.146h10.63v7.647h.131c.845-2.65 2.172-4.661 3.98-6.031 1.838-1.368 4.244-2.053 7.218-2.053.758 0 1.429.013 2.012.044.613.029 1.138.073 1.576.131v9.789c-.684-.092-1.369-.165-2.057-.219-1.047-.09-2.098-.134-3.15-.132-1.719 0-3.295.408-4.724 1.224-1.399.787-2.522 1.982-3.368 3.584-.817 1.602-1.225 3.613-1.225 6.03v26.132zm49.367 1.049c-4.52 0-8.5-1.005-11.942-3.016-3.413-2.039-6.08-4.864-8.005-8.477-1.896-3.613-2.844-7.807-2.844-12.585 0-4.779.948-8.973 2.844-12.586 1.925-3.642 4.592-6.482 8.005-8.521 3.442-2.04 7.422-3.059 11.942-3.059 4.549 0 8.53 1.019 11.942 3.059 3.413 2.039 6.066 4.879 7.962 8.521 1.924 3.613 2.887 7.807 2.887 12.586 0 4.778-.963 8.972-2.887 12.585-1.896 3.613-4.549 6.438-7.962 8.477-3.412 2.011-7.393 3.016-11.942 3.016zm0-9.221c2.362 0 4.404-.597 6.124-1.792 1.75-1.194 3.091-2.898 4.024-5.112.963-2.243 1.444-4.894 1.444-7.953 0-3.089-.481-5.739-1.444-7.953-.933-2.243-2.274-3.962-4.024-5.157-1.72-1.224-3.762-1.835-6.124-1.835s-4.419.61-6.168 1.835c-1.749 1.195-3.106 2.914-4.068 5.157-.934 2.214-1.4 4.864-1.4 7.953 0 3.088.466 5.739 1.4 7.953.962 2.214 2.319 3.918 4.068 5.112 1.749 1.195 3.806 1.792 6.168 1.792zm76.162 9.221c-4.519 0-8.5-1.005-11.941-3.016-3.412-2.039-6.081-4.864-8.005-8.477-1.896-3.613-2.843-7.807-2.843-12.585 0-4.779.947-8.973 2.843-12.586 1.924-3.642 4.593-6.482 8.005-8.521 3.441-2.04 7.422-3.059 11.941-3.059 4.55 0 8.53 1.019 11.943 3.059 3.412 2.039 6.065 4.879 7.961 8.521 1.925 3.613 2.887 7.807 2.887 12.586 0 4.778-.962 8.972-2.887 12.585-1.896 3.613-4.549 6.438-7.961 8.477-3.413 2.011-7.393 3.016-11.943 3.016zm0-9.221c2.363 0 4.404-.597 6.125-1.792 1.75-1.194 3.092-2.898 4.025-5.112.961-2.243 1.444-4.894 1.444-7.953 0-3.089-.483-5.739-1.444-7.953-.933-2.243-2.275-3.962-4.025-5.157-1.721-1.224-3.762-1.835-6.125-1.835-2.362 0-4.417.61-6.167 1.835-1.749 1.195-3.106 2.914-4.068 5.157-.933 2.214-1.4 4.864-1.4 7.953 0 3.088.467 5.739 1.4 7.953.962 2.214 2.319 3.918 4.068 5.112 1.75 1.195 3.805 1.792 6.167 1.792zm142.941 9.089c-3.995 0-7.51-1.004-10.542-3.014-3.003-2.011-5.337-4.822-7-8.435-1.633-3.611-2.449-7.807-2.449-12.585 0-4.72.831-8.885 2.493-12.498 1.663-3.612 3.996-6.424 7-8.434 3.003-2.01 6.473-3.015 10.411-3.015 2.011 0 3.878.276 5.599.83 1.749.524 3.324 1.341 4.724 2.447 1.4 1.107 2.596 2.506 3.587 4.195h.088v-25.519h11.023v65.111h-10.848v-7.034h-.088c-.963 1.776-2.158 3.262-3.587 4.455-1.406 1.169-3.024 2.06-4.768 2.623-1.749.583-3.631.873-5.643.873zm2.581-9.22c2.421 0 4.52-.598 6.299-1.792 1.778-1.222 3.164-2.941 4.155-5.155.992-2.243 1.488-4.866 1.488-7.867 0-3-.496-5.608-1.488-7.822-.991-2.213-2.377-3.932-4.155-5.156-1.779-1.224-3.878-1.836-6.299-1.836-2.246 0-4.229.583-5.949 1.748-1.721 1.137-3.063 2.812-4.024 5.025-.963 2.185-1.444 4.866-1.444 8.041 0 3.176.481 5.871 1.444 8.084.961 2.214 2.303 3.889 4.024 5.026 1.72 1.136 3.703 1.704 5.949 1.704z"/><path clip-rule="evenodd" d="m181.342 182.018v-65.112h24.89c4.783 0 8.909.846 12.379 2.535 3.5 1.69 6.183 4.094 8.049 7.21 1.895 3.118 2.843 6.802 2.843 11.056 0 4.283-.963 7.982-2.887 11.1-1.925 3.117-4.652 5.535-8.18 7.254-3.5 1.689-7.64 2.535-12.423 2.535h-13.124v23.422zm30.927-34.61c-1.867.875-4.098 1.312-6.694 1.312h-12.686v-21.938h12.686c2.596 0 4.827.452 6.694 1.354 1.894.876 3.338 2.128 4.33 3.759 1.02 1.602 1.53 3.54 1.53 5.812 0 2.273-.51 4.24-1.53 5.9-.992 1.631-2.436 2.899-4.33 3.801z" fill-rule="evenodd"/><path d="m335.349 135.872v8.871h-9.406v37.275h-11.067v-37.275h-8.311v-8.871h8.311v-6.73c0-2.652.54-4.88 1.619-6.686 1.079-1.835 2.654-3.219 4.724-4.151 2.1-.933 4.667-1.399 7.699-1.399h6.431v8.872h-4.244c-1.866 0-3.194.393-3.98 1.18-.788.785-1.182 2.126-1.182 4.02v4.894zm67.983 47.063c-3.209 0-6.052-.683-8.53-2.053-2.48-1.399-4.419-3.452-5.818-6.161-1.401-2.74-2.101-6.075-2.101-10.008v-28.841h11.025v27.093c0 3.38.815 5.944 2.448 7.692 1.663 1.748 3.952 2.621 6.868 2.621 1.955 0 3.689-.393 5.206-1.18 1.516-.786 2.712-2.009 3.587-3.67.874-1.691 1.312-3.846 1.312-6.467v-26.089h11.067v46.146h-10.848v-7.179c-1.173 1.955-2.558 3.576-4.155 4.863-2.684 2.156-6.037 3.233-10.061 3.233zm43.243-27.006v26.089h-11.024v-46.146h10.849v7.146c1.162-1.947 2.538-3.565 4.111-4.83 2.712-2.156 6.067-3.233 10.062-3.233 3.237 0 6.094.698 8.574 2.097 2.478 1.369 4.417 3.408 5.818 6.118 1.399 2.708 2.099 6.045 2.099 10.008v28.84h-11.067v-27.093c0-3.38-.817-5.944-2.45-7.692-1.604-1.748-3.893-2.621-6.868-2.621-1.924 0-3.645.393-5.162 1.18-1.516.787-2.727 2.009-3.631 3.67-.874 1.661-1.311 3.817-1.311 6.467z"/></g></svg>