<svg xmlns="http://www.w3.org/2000/svg" id="profound-logotype" viewBox="0 0 340 55">
      <path fill="currentColor" d="M0 36.685V21.349a7.017 7.017 0 0 1 2.906-5.69l19.742-14.25A7.443 7.443 0 0 1 27.004 0h.062c1.623 0 3.193.508 4.501 1.452l19.684 14.207a7.016 7.016 0 0 1 2.906 5.69v12.302a7.013 7.013 0 0 1-2.907 5.689L31.527 53.562A7.605 7.605 0 0 1 27.078 55a7.641 7.641 0 0 1-4.465-1.44c-2.581-1.859-6.732-4.855-6.732-4.855V29.777c0-.249.28-.393.482-.248l10.538 7.605c.106.077.249.077.355 0l13.005-9.386a.306.306 0 0 0 0-.496l-13.005-9.386a.303.303 0 0 0-.355 0L.482 36.933A.304.304 0 0 1 0 36.685ZM120.27 52V17.232h7.961v5.762h.098c.633-1.997 1.627-3.512 2.981-4.544 1.376-1.031 3.178-1.547 5.405-1.547.568 0 1.07.01 1.507.033.459.022.852.055 1.18.099v7.375a28.27 28.27 0 0 0-1.54-.165 26.737 26.737 0 0 0-2.359-.099c-1.288 0-2.468.307-3.538.922-1.048.593-1.889 1.493-2.522 2.7-.612 1.207-.918 2.722-.918 4.543V52h-8.255ZM157.241 52.79c-3.385 0-6.366-.757-8.943-2.272-2.556-1.536-4.554-3.665-5.995-6.387-1.42-2.722-2.13-5.882-2.13-9.482 0-3.6.71-6.76 2.13-9.482 1.441-2.744 3.439-4.884 5.995-6.42 2.577-1.537 5.558-2.305 8.943-2.305 3.407 0 6.388.768 8.943 2.305 2.556 1.536 4.543 3.676 5.963 6.42 1.441 2.722 2.162 5.882 2.162 9.482 0 3.6-.721 6.76-2.162 9.482-1.42 2.722-3.407 4.851-5.963 6.387-2.555 1.515-5.536 2.272-8.943 2.272Zm0-6.947c1.769 0 3.298-.45 4.586-1.35 1.311-.9 2.315-2.184 3.014-3.852.721-1.69 1.081-3.687 1.081-5.992 0-2.327-.36-4.324-1.081-5.992-.699-1.69-1.703-2.985-3.014-3.885-1.288-.922-2.817-1.383-4.586-1.383-1.769 0-3.309.46-4.619 1.383-1.31.9-2.326 2.195-3.047 3.885-.699 1.668-1.048 3.665-1.048 5.992s.349 4.324 1.048 5.992c.721 1.668 1.737 2.952 3.047 3.852 1.31.9 2.85 1.35 4.619 1.35ZM214.279 52.79c-3.385 0-6.366-.757-8.943-2.272-2.555-1.536-4.554-3.665-5.995-6.387-1.42-2.722-2.129-5.882-2.129-9.482 0-3.6.709-6.76 2.129-9.482 1.441-2.744 3.44-4.884 5.995-6.42 2.577-1.537 5.558-2.305 8.943-2.305 3.407 0 6.388.768 8.944 2.305 2.555 1.536 4.542 3.676 5.962 6.42 1.441 2.722 2.162 5.882 2.162 9.482 0 3.6-.721 6.76-2.162 9.482-1.42 2.722-3.407 4.851-5.962 6.387-2.556 1.515-5.537 2.272-8.944 2.272Zm0-6.947c1.769 0 3.298-.45 4.587-1.35 1.31-.9 2.315-2.184 3.014-3.852.72-1.69 1.081-3.687 1.081-5.992 0-2.327-.361-4.324-1.081-5.992-.699-1.69-1.704-2.985-3.014-3.885-1.289-.922-2.818-1.383-4.587-1.383-1.769 0-3.308.46-4.619 1.383-1.31.9-2.326 2.195-3.046 3.885-.699 1.668-1.049 3.665-1.049 5.992s.35 4.324 1.049 5.992c.72 1.668 1.736 2.952 3.046 3.852 1.311.9 2.85 1.35 4.619 1.35ZM321.327 52.691c-2.992 0-5.624-.757-7.895-2.271-2.249-1.515-3.997-3.633-5.242-6.355-1.223-2.721-1.834-5.882-1.834-9.482 0-3.556.622-6.694 1.867-9.416 1.245-2.722 2.992-4.84 5.242-6.355 2.249-1.514 4.848-2.271 7.797-2.271 1.506 0 2.904.208 4.193.625 1.31.395 2.489 1.01 3.538 1.844 1.048.834 1.944 1.888 2.686 3.16h.066V2.944H340V52h-8.124v-5.3h-.066c-.721 1.338-1.616 2.458-2.686 3.357a10.74 10.74 0 0 1-3.571 1.976c-1.31.439-2.719.658-4.226.658Zm1.933-6.947c1.813 0 3.385-.45 4.717-1.35 1.332-.921 2.37-2.216 3.112-3.884.743-1.69 1.114-3.666 1.114-5.927 0-2.26-.371-4.225-1.114-5.893-.742-1.668-1.78-2.963-3.112-3.885-1.332-.922-2.904-1.383-4.717-1.383-1.682 0-3.167.439-4.455 1.317-1.289.856-2.294 2.118-3.014 3.786-.721 1.646-1.081 3.666-1.081 6.058 0 2.393.36 4.423 1.081 6.091.72 1.668 1.725 2.93 3.014 3.786 1.288.856 2.773 1.284 4.455 1.284Z"/>
      <path fill="currentColor" fill-rule="evenodd" d="M81.137 52V2.943h18.64c3.582 0 6.672.637 9.271 1.91 2.621 1.273 4.63 3.084 6.028 5.432 1.419 2.349 2.129 5.125 2.129 8.33 0 3.227-.721 6.014-2.162 8.363-1.442 2.348-3.484 4.17-6.126 5.465-2.621 1.273-5.722 1.91-9.304 1.91h-9.828V52h-8.648Zm23.161-26.076c-1.398.659-3.069.988-5.013.988h-9.5V10.384h9.5c1.944 0 3.615.34 5.013 1.02 1.419.66 2.5 1.603 3.243 2.832.764 1.207 1.146 2.667 1.146 4.379 0 1.712-.382 3.194-1.146 4.445-.743 1.229-1.824 2.184-3.243 2.864Z" clip-rule="evenodd"/>
      <path fill="currentColor" d="M196.473 17.232v6.684h-7.044V52h-8.288V23.916h-6.224v-6.684h6.224v-5.07c0-1.998.404-3.677 1.212-5.038.808-1.382 1.988-2.425 3.538-3.127 1.573-.703 3.495-1.054 5.766-1.054h4.816v6.684h-3.178c-1.398 0-2.392.296-2.981.889-.59.592-.885 1.602-.885 3.029v3.687h7.044ZM247.385 52.691c-2.403 0-4.532-.515-6.388-1.547-1.857-1.054-3.309-2.601-4.357-4.642-1.049-2.064-1.573-4.577-1.573-7.54v-21.73h8.256v20.413c0 2.546.611 4.478 1.834 5.795 1.245 1.317 2.959 1.975 5.143 1.975 1.464 0 2.763-.296 3.899-.889 1.135-.592 2.031-1.514 2.686-2.765.655-1.274.983-2.898.983-4.873V17.232h8.288V52h-8.124v-5.409c-.879 1.473-1.916 2.694-3.112 3.664-2.01 1.624-4.521 2.436-7.535 2.436ZM279.77 32.344V52h-8.256V17.232h8.125v5.384c.87-1.467 1.901-2.686 3.079-3.639 2.031-1.624 4.543-2.436 7.535-2.436 2.424 0 4.564.526 6.421 1.58 1.856 1.032 3.308 2.568 4.357 4.61 1.048 2.04 1.572 4.554 1.572 7.54V52h-8.288V31.587c0-2.546-.612-4.478-1.835-5.795-1.201-1.317-2.915-1.975-5.143-1.975-1.441 0-2.73.296-3.866.889-1.135.593-2.042 1.514-2.719 2.765-.655 1.252-.982 2.876-.982 4.873Z"/>
    </svg>