<svg fill="none" height="240" viewBox="0 0 600 240" width="600" xmlns="http://www.w3.org/2000/svg"><g fill="#364153"><g clip-rule="evenodd" fill-rule="evenodd"><path d="m212.167 159.108c-.263-.264-.511-.527-.774-.804 22.009-11.224 34.884-30.588 34.884-54.263 0-32.6331-25.56-59.041-57.083-59.041-22.36 0-41.709 13.2844-51.077 32.6482l19.364 11.2965c4.881-13.1235 16.061-22.2281 32.02-22.2281 21.512 0 34.767 17.0839 34.752 38.1434 0 16.426-9.426 29.521-22.652 34.533 0 0 1.783 14.936 9.821 18.896"/><path d="m329.388 157.732h-19.831c-2.484-3.157-3.712-7.293-3.712-12.437-5.378 9.762-13.942 14.643-25.721 14.673-7.643 0-13.869-2.236-18.677-6.694-4.808-4.457-7.205-10.361-7.205-17.712 0-7.439 2.558-13.284 7.673-17.552 5.115-4.267 11.691-7.029 19.758-8.271l23.105-3.625v-3.025c0-7.8768-4.706-11.808-14.103-11.808-4.34 0-7.716.8475-10.156 2.5283-2.441 1.6804-3.639 3.7849-3.639 6.2987 0 .643.102 1.286.307 1.885l-17.508 5.992c-.921-2.075-1.403-4.326-1.403-6.606 0-6.4008 2.952-11.9981 8.841-16.7767 5.89-4.779 13.738-7.161 23.544-7.161 10.946 0 19.276 2.3674 25.019 7.0879 5.744 4.7205 8.608 11.8083 8.593 21.2488v32.59c.015 7.877 1.71 14.322 5.115 19.364zm-44.631-13.855c5.889 0 10.697-1.972 14.409-5.904 3.712-3.946 5.568-9.528 5.554-16.762v-1.418l-18.59 3.142c-8.578 1.476-12.86 5.305-12.86 11.502 0 3.04 1.038 5.378 3.098 7 2.061 1.622 4.852 2.44 8.389 2.44z"/><path d="m393.487 78.6394-9.09 17.8294c-1.376-.3067-2.794-.4676-4.211-.4676-5.684 0-10.2 2.1776-13.561 6.5328-3.361 4.355-5.042 9.894-5.042 16.601v38.582h-19.524v-78.0984h19.524v12.4368c4.75-9.777 11.867-14.6726 21.366-14.6726 2.412.0439 8.475.6285 10.538 1.2566z"/><path d="m467.726 123.403h-59.186c.615 5.977 2.835 10.727 6.663 14.249 3.829 3.522 8.637 5.275 14.438 5.275 9.499 0 16.575-4.779 21.221-14.336l14.569 8.505c-7.234 15.228-19.275 22.828-36.109 22.828-10.946 0-20.272-3.858-27.975-11.575-7.699-7.716-11.542-17.61-11.542-29.681 0-12.174 3.9-22.0969 11.688-29.7548 7.793-7.6578 17.378-11.5012 28.748-11.5012 10.946 0 19.935 3.6536 26.962 10.9459 7.032 7.2926 10.538 16.6601 10.538 28.1031zm-38.115-30.8654c-4.823-.0877-9.514 1.5638-13.238 4.6474-3.727 3.01-6.446 7.102-7.818 11.735h41.212c-.937-5.144-3.157-9.1483-6.664-12.0421-3.525-2.8789-8.025-4.3403-13.492-4.3403z"/></g><path d="m158.228 87.0566c2.484-5.6119.087-12.2029-5.393-14.8189s-12.013-.2775-14.658 5.2613c-3.975 8.2571-6.05 17.3325-6.079 26.539 0 32.619 25.56 59.056 57.097 59.056h.541c5.013 8.988 15.272 19.335 29.448 22.915l9.674-18.589c-24.625-4.282-25.721-28.629-25.721-28.629-4.326 1.87-8.973 2.849-13.664 2.835-19.203 0-34.767-15.667-34.767-36.74-.088-6.138 1.125-12.2175 3.522-17.8294z"/><path d="m287.93 194.986v-18.414h3.609v1.432c.775-1.009 2.061-1.637 3.741-1.637 3.698 0 6.036 2.674 6.036 6.766s-2.557 6.767-6.328 6.767c-1.476 0-2.762-.497-3.463-1.374v6.474h-3.595zm3.419-11.867c0 2.192 1.272 3.639 3.201 3.639s3.2-1.462 3.2-3.639c0-2.207-1.271-3.668-3.2-3.668s-3.201 1.461-3.201 3.668z"/><path d="m307.378 189.885c-2.528 0-4.296-1.695-4.296-3.931 0-2.572 1.929-4.136 4.808-4.136h2.192c.643 0 .994-.424.994-.964 0-1.096-.833-1.842-2.309-1.842-1.593 0-2.426.994-2.441 2.076h-3.229c.131-2.631 2.265-4.736 5.86-4.736 3.332 0 5.743 1.93 5.743 4.896v8.433h-3.609v-1.827c-.453 1.227-1.915 2.031-3.713 2.031zm-.803-4.077c0 .862.73 1.461 1.739 1.461 1.739 0 2.762-1.3 2.762-2.966v-.176h-2.631c-1.11-.014-1.87.658-1.87 1.681z"/><path d="m323.762 179.583c-1.798 0-2.602 1.491-2.602 3.726v6.372h-3.609v-13.109h3.609v2.192c.702-1.636 1.696-2.192 3.303-2.192h1.462v3.025h-2.163z"/><path d="m344.325 171.469h3.902v18.21h-3.902v-7.629h-7.497v7.629h-3.902v-18.21h3.902v7.235h7.497z"/><path d="m357.214 189.885c-4.443 0-6.737-3.492-6.737-6.795 0-3.332 2.031-6.738 6.474-6.738 4.633 0 6.474 3.406 6.474 6.402 0 .497-.029.891-.059 1.169h-9.426c.263 1.841 1.433 2.996 3.259 2.996 1.462 0 2.426-.57 2.704-1.696h3.537c-.497 2.85-2.996 4.662-6.226 4.662zm-3.201-8.242h5.802c-.102-1.461-1.125-2.631-2.864-2.631-1.637 0-2.616.804-2.938 2.631z"/><path d="m369.519 189.885c-2.528 0-4.296-1.695-4.296-3.931 0-2.572 1.929-4.136 4.808-4.136h2.192c.643 0 .994-.424.994-.964 0-1.096-.833-1.842-2.31-1.842-1.592 0-2.426.994-2.44 2.076h-3.23c.132-2.631 2.265-4.736 5.86-4.736 3.333 0 5.743 1.93 5.743 4.896v8.433h-3.609v-1.827c-.467 1.227-1.914 2.031-3.712 2.031zm-.804-4.077c0 .862.731 1.461 1.739 1.461 1.74 0 2.763-1.3 2.763-2.966v-.176h-2.631c-1.125-.014-1.871.658-1.871 1.681z"/><path d="m379.676 189.678v-18.809h3.611v18.809z"/><path d="m387.58 172.685h3.641v3.873h3.506v3.025h-3.506v5.174c0 1.271.656 1.87 1.826 1.87h1.695v3.055h-2.164c-3.026 0-4.998-1.725-4.998-4.765v-5.334h-2.498v-3.025h2.498z"/><path d="m396.879 189.678v-18.809h3.611v7.526c.728-1.271 2.19-2.031 4.001-2.031 2.94 0 4.868 2.134 4.868 5.159v8.155h-3.638v-7.366c0-1.593-1.008-2.733-2.527-2.733-1.594 0-2.704 1.228-2.704 2.908v7.191z"/><path d="m423.623 171.469h3.9v18.21h-3.9v-7.629h-7.5v7.629h-3.9v-18.21h3.9v7.235h7.5z"/><path d="m436.528 189.885c-4.444 0-6.739-3.492-6.739-6.795 0-3.332 2.033-6.738 6.476-6.738 4.632 0 6.473 3.406 6.473 6.402 0 .497-.03.891-.056 1.169h-9.428c.263 1.841 1.433 2.996 3.259 2.996 1.462 0 2.426-.57 2.704-1.696h3.536c-.495 2.85-2.996 4.662-6.225 4.662zm-3.203-8.242h5.805c-.105-1.461-1.125-2.631-2.865-2.631-1.638 0-2.617.804-2.94 2.631z"/><path d="m451.303 179.583c-1.8 0-2.602 1.491-2.602 3.726v6.372h-3.623v-13.109h3.623v2.192c.701-1.636 1.695-2.192 3.303-2.192h1.459v3.025h-2.16z"/><path d="m460.977 189.885c-4.035 0-6.926-2.864-6.926-6.766s2.891-6.767 6.926-6.767c4.031 0 6.926 2.865 6.926 6.767s-2.895 6.766-6.926 6.766zm-3.274-6.766c0 2.163 1.332 3.639 3.274 3.639 1.943 0 3.274-1.476 3.274-3.639 0-2.192-1.331-3.668-3.274-3.668-1.942 0-3.274 1.49-3.274 3.668z"/></g></svg>