<svg width="600" height="300" viewBox="0 0 600 300" fill="none" xmlns="http://www.w3.org/2000/svg">
<path d="M316.31 192.914H304.548V134.718H316.31V141.09C320.663 135.102 326.697 133.413 331.432 133.413C344.263 133.413 356.025 144.469 356.025 158.826V192.914H343.27V159.44C343.27 151.071 336.855 145.083 329.446 145.083C322.038 145.083 316.31 151.378 316.31 159.44V192.914Z" fill="#969CA5"/>
<path fill-rule="evenodd" clip-rule="evenodd" d="M394.442 164.2C394.442 147.156 407.884 133.413 425.068 133.413C442.863 133.413 456 147.156 456 164.2C456 181.628 442.558 194.296 425.068 194.296C407.578 194.296 394.442 181.551 394.442 164.2ZM407.578 164.2C407.578 174.181 415.292 182.242 425.068 182.242C435.455 182.242 443.245 174.181 443.245 164.2C443.245 153.451 435.15 145.774 425.068 145.774C415.674 145.774 407.578 153.528 407.578 164.2Z" fill="#969CA5"/>
<path d="M392.379 180.553V192.914C376.952 197.597 362.822 190.611 362.822 169.881V119.747H375.271V134.795H391.005V146.465H375.195V171.878C375.195 181.551 383.596 184.929 392.379 180.553Z" fill="#969CA5"/>
<path fill-rule="evenodd" clip-rule="evenodd" d="M236.268 164.2C236.268 147.156 249.71 133.413 266.895 133.413C284.69 133.413 297.827 147.156 297.827 164.2C297.827 181.628 284.385 194.296 266.895 194.296C249.405 194.296 236.268 181.551 236.268 164.2ZM249.405 164.2C249.405 174.181 257.119 182.242 266.895 182.242C276.976 182.242 285.072 174.181 285.072 164.2C285.072 153.451 276.976 145.774 266.895 145.774C257.119 145.774 249.405 153.528 249.405 164.2Z" fill="#969CA5"/>
<path fill-rule="evenodd" clip-rule="evenodd" d="M145 151.455C145 126.426 163.559 108 187.77 108C212.668 108 231.151 126.426 231.228 151.839C231.228 163.354 226.855 173.766 219.507 181.433C222.734 182.418 226.25 183.104 230.072 183.506L228.697 196C220.696 195.103 213.646 193.172 207.513 190.16C201.662 193.006 194.982 194.603 187.77 194.603C163.483 194.603 145 175.563 145 151.455ZM194.563 180.854C192.402 181.312 190.131 181.551 187.77 181.551C170.968 181.551 158.518 168.883 158.518 151.455C158.518 133.413 170.968 120.054 187.77 120.054C204.955 120.054 217.404 133.413 217.404 151.148C217.404 161.151 213.443 169.543 206.906 174.958C200.842 170.133 196.439 163.261 193.406 154.095L181.26 158.131C184.391 167.452 188.805 174.997 194.563 180.854Z" fill="#969CA5"/>
</svg>
