<svg fill="none" height="263" viewBox="0 0 600 263" width="600" xmlns="http://www.w3.org/2000/svg" xmlns:xlink="http://www.w3.org/1999/xlink"><mask id="a" height="261" maskUnits="userSpaceOnUse" width="520" x="40" y="1"><path d="m560.001 1.25253h-520.001v260.49547h520.001z" fill="#fff"/></mask><mask id="b" height="261" maskUnits="userSpaceOnUse" width="520" x="40" y="1"><path d="m560.001 1.25253h-520.001v260.49547h520.001z" fill="#fff"/></mask><g mask="url(#a)"><g fill="#364153" mask="url(#b)"><path d="m314.135 168.763h-10.194v-50.532h10.194v5.533c3.773-5.2 9.002-6.667 13.106-6.667 11.12 0 21.314 9.601 21.314 22.067v29.599h-11.054v-29.066c0-7.267-5.56-12.466-11.981-12.466s-11.385 5.466-11.385 12.466z"/><path clip-rule="evenodd" d="m381.852 143.83c0-14.799 11.647-26.733 26.542-26.733 15.42 0 26.805 11.934 26.805 26.733 0 15.133-11.647 26.133-26.805 26.133-15.157 0-26.542-11.066-26.542-26.133zm11.385 0c0 8.667 6.682 15.667 15.157 15.667 9 0 15.754-7 15.754-15.667 0-9.333-7.016-15.999-15.754-15.999-8.141 0-15.157 6.733-15.157 15.999z" fill-rule="evenodd"/><path d="m380.063 158.03v10.733c-13.372 4.066-25.618-2-25.618-20v-43.532h10.789v13.066h13.637v10.133h-13.703v22.067c0 8.399 7.281 11.333 14.895 7.533z"/><g clip-rule="evenodd" fill-rule="evenodd"><path d="m244.766 143.83c0-14.799 11.649-26.733 26.543-26.733 15.423 0 26.808 11.934 26.808 26.733 0 15.133-11.65 26.133-26.808 26.133s-26.543-11.066-26.543-26.133zm11.385 0c0 8.667 6.686 15.667 15.158 15.667 8.737 0 15.754-7 15.754-15.667 0-9.333-7.017-15.999-15.754-15.999-8.472 0-15.158 6.733-15.158 15.999z"/><path d="m165.668 132.764c0-21.734 16.084-37.7335 37.068-37.7335 21.578 0 37.596 15.9995 37.663 38.0665 0 9.999-3.79 19.039-10.158 25.697 2.796.855 5.844 1.451 9.156 1.8l-1.192 10.849c-6.934-.779-13.044-2.456-18.359-5.071-5.071 2.471-10.86 3.858-17.11 3.858-21.049 0-37.068-16.533-37.068-37.466zm42.955 25.527c-1.873.398-3.841.605-5.887.605-14.562 0-25.352-10.999-25.352-26.132 0-15.667 10.79-27.267 25.352-27.267 14.893 0 25.682 11.6 25.682 27 0 8.686-3.433 15.973-9.098 20.675-5.256-4.19-9.071-10.157-11.7-18.116l-10.527 3.504c2.714 8.094 6.54 14.645 11.53 19.731z"/></g></g></g></svg>