<svg width="600" height="240" viewBox="0 0 600 240" fill="none" xmlns="http://www.w3.org/2000/svg">
<path fill-rule="evenodd" clip-rule="evenodd" d="M132.312 119.113C132.312 93.714 152.901 73.125 178.301 73.125C203.692 73.125 224.281 93.714 224.281 119.106C224.281 131.64 219.262 142.998 211.134 151.291L223.308 166.875H204.738L173.411 126.887H192.075L201.58 139.06C205.906 133.644 208.51 126.692 208.51 119.113C208.51 101.813 194.988 87.786 178.301 87.786C161.613 87.786 148.091 101.813 148.091 119.113C148.091 136.413 161.62 150.44 178.301 150.44C179.858 150.44 181.394 150.318 182.894 150.079L188.555 163.954C185.26 164.704 181.827 165.101 178.301 165.101C152.901 165.101 132.312 144.512 132.312 119.113ZM264.17 85.7737C245.759 85.7737 230.831 100.702 230.831 119.113C230.831 137.524 245.759 152.452 264.17 152.452C282.581 152.452 297.509 137.524 297.509 119.113C297.509 100.702 282.581 85.7737 264.17 85.7737ZM264.17 139.074C253.54 139.074 244.915 130.139 244.915 119.113C244.915 108.087 253.532 99.1515 264.17 99.1515C274.807 99.1515 283.424 108.087 283.424 119.113C283.424 130.139 274.807 139.074 264.17 139.074ZM457.394 87.519C450.932 87.519 445.634 90.4901 442.019 95.4011V87.519H427.675V150.707H442.019V115.557C442.019 105.865 447.58 100.053 456.752 100.053H467.687V87.519H457.401H457.394ZM356.608 119.819C356.608 100.441 371.982 85.8382 389.687 85.8382H389.695C407.26 85.8382 420.572 99.2734 420.572 116.458C420.572 118.009 420.445 120.079 420.055 122.92H370.692C372.112 133.514 380.125 140.105 390.077 140.105C397.57 140.105 403.904 136.355 405.58 130.672H419.796C416.695 143.076 405.062 152.379 389.166 152.379C370.302 152.379 356.608 137.906 356.608 119.819ZM389.687 98.1124C381.546 98.1124 374.564 103.153 371.723 111.165H371.73H405.842C405.321 103.925 398.601 98.1124 389.687 98.1124ZM344.879 87.519L327.369 132.483L309.86 87.519H293.706L319.487 150.707H334.473L360.384 87.519H344.879Z" fill="#364153"/>
</svg>
