<svg fill="none" height="240" viewBox="0 0 600 240" width="600" xmlns="http://www.w3.org/2000/svg" xmlns:xlink="http://www.w3.org/1999/xlink"><mask id="a" height="76" maskUnits="userSpaceOnUse" width="456" x="72" y="82"><path d="m527.679 82.5007h-455.3587v75.0003h455.3587z" fill="#fff"/></mask><mask id="b" height="76" maskUnits="userSpaceOnUse" width="456" x="72" y="82"><path d="m527.677 82.5007h-455.3567v75.0003h455.3567z" fill="#fff"/></mask><g mask="url(#a)"><g fill="#364153" mask="url(#b)"><path d="m187.469 131.526h7.242c.425 4.259 3.886 6.916 8.987 6.916 5.102 0 8.245-2.494 8.245-6.04 0-9.483-23.73-2.968-23.73-17.452 0-7.42 6.429-11.827 14.59-11.827 8.449 0 14.742 4.192 15.638 11.746h-7.326c-.569-3.465-3.75-6.04-8.221-6.04-3.887 0-7.5 1.655-7.5 5.394 0 8.778 23.958 2.018 23.958 17.474 0 7.42-6.43 12.614-15.654 12.614-9.223 0-15.531-4.667-16.229-12.785z"/><path d="m227.109 87.0187h7.408v21.8963c1.511-1.793 3.41-3.236 5.56-4.224 2.151-.987 4.499-1.497 6.875-1.49 9.489 0 15.987 6.604 15.987 17.622v22.616h-7.592v-22.452c0-6.292-3.696-10.952-10.05-10.952s-10.719 4.355-10.719 11.345v22.059h-7.5z"/><path d="m399.031 138.208v5.142h-7.593v-56.3313h7.593v22.2593c1.811-1.976 4.039-3.55 6.525-4.618 2.486-1.067 5.179-1.602 7.898-1.57 11.538 0 20.269 8.778 20.269 20.672s-8.731 20.516-20.269 20.516c-2.708.029-5.393-.498-7.875-1.549-2.487-1.051-4.718-2.601-6.548-4.551zm13.661-.972c2.757.041 5.464-.72 7.774-2.188 2.31-1.467 4.121-3.574 5.205-6.051 1.08-2.478 1.38-5.214.867-7.86-.514-2.646-1.823-5.082-3.762-6.998-1.939-1.915-4.414-3.224-7.117-3.759-2.7-.534-5.502-.27-8.048.758-2.55 1.028-4.725 2.774-6.251 5.016-1.53 2.242-2.34 4.877-2.329 7.571-.082 1.782.21 3.562.866 5.228.657 1.665 1.658 3.18 2.941 4.449 1.282 1.269 2.823 2.265 4.518 2.925s3.514.969 5.336.909z"/><path d="m449.656 104.079v39.325h-7.653v-39.325zm1.167-10.7959c0 .7316-.165 1.4535-.484 2.115-.326.6585-.795 1.2405-1.373 1.7063-.581.4627-1.256.7946-1.98.972-.723.1773-1.481.1961-2.212.054-.735-.1418-1.425-.4403-2.025-.8742-.6-.4342-1.095-.9926-1.451-1.6357-.357-.6431-.563-1.356-.6-2.0865-.038-.7305.093-1.4603.378-2.1353.45-1.0586 1.26-1.9323 2.295-2.4735 1.032-.5407 2.228-.7155 3.379-.4946 1.148.2246 2.179.8306 2.921 1.7149.747.8846 1.152 1.9931 1.152 3.1376z"/><path d="m305.866 137.239v-18.267c0-9.646-6.428-15.849-16.882-15.849-9.641 0-16.975 5.795-17.316 13.838h7.591c.334-4.452 4.488-7.717 9.55-7.717 5.929 0 9.482 3.451 9.482 9.09v1.283h-8.16c-12.193 0-18.858 5.231-18.858 12.948 0 7.079 5.702 11.746 14.508 11.746 2.45-.006 4.864-.565 7.055-1.635s4.1-2.62 5.577-4.531c.084.645.255 1.275.507 1.877.373.883.92 1.685 1.611 2.359 1.055 1.017 2.392 1.71 3.848 1.992 1.454.282 2.961.142 4.334-.404.911-.363 1.739-.897 2.437-1.573.718-.67 1.291-1.475 1.686-2.367.373-.884.566-1.832.568-2.79zm-10.839-2.285c-1.132 1.128-2.482 2.026-3.971 2.642-1.49.614-3.089.929-4.706.927v.082c-4.95 0-7.667-2.575-7.667-6.203 0-4.734 4.121-7.242 11.698-7.242h8.069v1.224c.045 1.579-.235 3.151-.819 4.623-.595 1.47-1.479 2.811-2.604 3.947z"/><path d="m342.647 124.031c-.059-4.087 1.126-8.098 3.405-11.525 2.278-3.427 5.548-6.115 9.393-7.722 2.548-1.073 5.287-1.641 8.062-1.669 2.565-.049 5.115.409 7.493 1.346 2.38.937 4.541 2.334 6.356 4.107 1.815 1.772 3.244 3.885 4.204 6.21.96 2.326 1.429 4.817 1.38 7.324-.015 1.102-.097 2.202-.251 3.295h-32.657c.131 3.461 1.649 6.733 4.224 9.112 2.577 2.379 6.005 3.674 9.548 3.605 5.359 0 10.043-2.82 11.212-6.989h7.5c-1.89 7.716-9.307 13.192-19.191 13.192-2.732.047-5.444-.447-7.976-1.451-2.531-1.005-4.829-2.5-6.752-4.395-1.925-1.896-3.438-4.152-4.449-6.633-1.009-2.482-1.494-5.137-1.426-7.807zm32.553-4.838c-.412-5.461-5.279-9.727-11.693-9.727-2.952-.01-5.821.941-8.157 2.702-2.337 1.762-4.007 4.233-4.748 7.025z"/><path d="m473.01 110.525 11.306.037v-6.441h-11.389v-10.5435h-7.507v10.5435h-7.826v6.448h7.826v26.711c0 .959.214 1.905.622 2.775.424.897 1.028 1.7 1.778 2.36 1.414 1.2 3.176 1.933 5.04 2.095 1.864.163 3.735-.253 5.344-1.19 1.324-.766 2.381-1.903 3.037-3.265.409-.873.626-1.821.638-2.782h-8.869c-.135-5.009 0-26.748 0-26.748z"/><path d="m487.433 124.03c-.042-2.712.465-5.406 1.488-7.927 1.028-2.521 2.55-4.82 4.485-6.764 1.954-1.941 4.275-3.491 6.833-4.564 2.55-1.068 5.291-1.633 8.062-1.661 2.558-.04 5.1.425 7.47 1.366 2.374.941 4.527 2.339 6.334 4.111 1.808 1.772 3.233 3.881 4.189 6.202.952 2.321 1.421 4.807 1.372 7.308-.022 1.102-.101 2.201-.236 3.295h-32.685c.131 3.459 1.643 6.731 4.219 9.109 2.572 2.379 6 3.675 9.544 3.608 5.358 0 10.132-2.819 11.197-6.989h7.504c-1.886 7.716-9.304 13.192-19.189 13.192-2.73.048-5.445-.445-7.972-1.45-2.535-1.004-4.83-2.499-6.754-4.395s-3.435-4.152-4.444-6.634c-1.005-2.482-1.489-5.138-1.417-7.807zm32.535-4.838c-.424-5.46-5.265-9.727-11.697-9.727-2.947-.002-5.816.952-8.148 2.712-2.337 1.76-4.009 4.227-4.755 7.015z"/><path d="m326.742 119.735v-.163c.007-.647.084-1.291.229-1.922v-.089c.046-.219.107-.434.182-.645v-.09c0-.081.061-.17.098-.259.668-1.863 1.909-3.478 3.554-4.623 1.644-1.145 3.612-1.764 5.632-1.773h4.661v-6.5h-4.327c-4.411 0-8.829 2.76-10.188 6.285v-6.285h-7.591v39.704h7.659v-21.659c0-.66 0-1.321.054-1.959z"/><path d="m115.273 116.738.342.067c4.653.75 9.42-.336 13.253-3.021 3.834-2.685 6.418-6.748 7.186-11.296.768-4.5477-.343-9.2075-3.09-12.9541s-6.904-6.273-11.557-7.0238h-.341z"/><path d="m106.728 126.895-.114-.312c-1.684-4.28-5.032-7.737-9.3125-9.615-4.281-1.878-9.1478-2.026-13.5398-.412-4.392 1.615-7.9526 4.862-9.906 9.032s-2.1405 8.926-.5212 13.231l.1215.311z"/><path d="m120.021 129.045-.228.252c-2.93 3.568-4.302 8.122-3.819 12.673.484 4.551 2.784 8.732 6.402 11.636 3.618 2.903 8.262 4.294 12.923 3.872 4.662-.422 8.964-2.625 11.974-6.129l.213-.26z"/><path d="m100.543 112.194c2.24.09 4.457-.47 6.37-1.611s3.437-2.811 4.378-4.799c.942-1.988 1.259-4.205.911-6.3688-.347-2.1642-1.344-4.1787-2.864-5.7889-1.52-1.6103-3.494-2.7435-5.673-3.2561-2.179-.513-4.4644-.3825-6.5678.375-2.103.7571-3.9285 2.1075-5.2462 3.8797-1.3174 1.7719-2.0674 3.8865-2.1551 6.0751-.1152 2.929.9618 5.783 2.9951 7.937 2.0329 2.154 4.8566 3.433 7.852 3.557z"/><path d="m99.6476 157.487c2.2354.089 4.4484-.472 6.3584-1.612 1.91-1.139 3.431-2.807 4.372-4.792.941-1.984 1.258-4.197.913-6.358-.346-2.161-1.339-4.173-2.854-5.783-1.515-1.609-3.485-2.744-5.659-3.26-2.175-.516-4.4572-.39-6.5587.362-2.1015.751-3.9277 2.094-5.2485 3.86-1.3207 1.766-2.076 3.875-2.1712 6.06-.0642 1.453.1661 2.905.6768 4.271.5108 1.367 1.2927 2.621 2.3003 3.691 1.0076 1.071 2.2219 1.936 3.5726 2.547 1.3504.612 2.811.956 4.2983 1.014z"/><path d="m140.228 135.575c2.236.088 4.449-.474 6.358-1.616 1.91-1.141 3.43-2.81 4.369-4.795.939-1.986 1.255-4.199.907-6.36-.347-2.162-1.342-4.173-2.859-5.782-1.518-1.608-3.488-2.741-5.664-3.254-2.175-.514-4.458-.386-6.559.368s-3.926 2.1-5.244 3.868c-1.319 1.767-2.072 3.877-2.164 6.063-.119 2.932.957 5.791 2.992 7.949 2.036 2.158 4.864 3.438 7.864 3.559z"/></g></g></svg>