<svg fill="none" height="240" viewBox="0 0 600 240" width="600" xmlns="http://www.w3.org/2000/svg"><g fill="#364153"><path d="m207.047 60.9491h-101.142c-4.572 0-8.3816 3.8093-8.3816 8.3809v100.571c0 4.572 3.8096 8.381 8.3816 8.381h101.142c4.572 0 8.381-3.809 8.381-8.381v-100.571c0-4.7621-3.809-8.3809-8.381-8.3809zm-35.619 88.1899c-10.285 10.286-26.666 10.667-37.524 1.334l-.19-.191c-.571-.571-.762-1.714 0-2.476l36.571-36.381c.762-.571 1.715-.571 2.477 0 9.523 11.048 9.142 27.429-1.334 37.714zm7.619-58.095-36.571 36.381c-.762.571-1.714.571-2.476 0-9.524-10.857-9.143-27.238 1.143-37.5237 10.286-10.2858 26.666-10.6668 37.523-1.3335 0 0 .191 0 .191.1905.952.5715.952 1.7146.19 2.2857z"/><path clip-rule="evenodd" d="m371.431 93.5242h-.191c-4.571 0-8.571 1.905-11.428 4.7622-2.857-2.8572-7.048-4.7622-11.429-4.7622h-.19c-8.762 0-16 7.0478-16 15.9998v31.048c.19 2.476 2.095 4.381 4.571 4.381 2.477 0 4.381-1.905 4.572-4.381v-31.048c0-3.809 3.047-6.857 6.857-6.857h.19c3.81 0 6.667 2.857 6.858 6.667v31.238c.23 2.251 1.815 4.381 4.38 4.381 2.477 0 4.382-1.905 4.572-4.381v-31.429c.191-3.619 3.238-6.666 6.857-6.666h.19c3.81 0 6.859 3.047 6.859 6.857v31.238c.188 2.476 2.093 4.381 4.571 4.381 2.475 0 4.38-1.905 4.572-4.381v-31.048c.187-8.762-7.05-15.9998-15.811-15.9998zm-54.095 0c-2.476 0-4.381 1.905-4.572 4.3812v31.0476c0 3.809-3.047 6.857-7.047 6.857h-.191c-3.809 0-7.047-3.048-7.047-6.857v-31.2381c-.191-2.4762-2.096-4.3812-4.572-4.3812s-4.381 1.905-4.571 4.3812v31.0481c0 8.761 7.238 15.999 16.19 15.999h.191c8.952 0 16.19-7.238 16.19-15.999v-30.8576c0-2.4762-2.095-4.3812-4.571-4.3812zm108.189 0c-2.475 0-4.38 1.905-4.571 4.3812v31.0476c0 3.809-3.049 6.857-7.046 6.857h-.191c-3.81 0-7.047-3.048-7.047-6.857v-31.2381c-.191-2.4762-2.096-4.3812-4.571-4.3812-2.479 0-4.384 1.905-4.571 4.3812v31.0481c0 8.761 7.237 15.999 16.189 15.999h.191c8.951 0 16.189-7.238 16.189-15.999v-30.8576c-.192-2.4762-2.093-4.3812-4.572-4.3812z" fill-rule="evenodd"/><path d="m455.81 93.5171h-.188c-9.142 0-16.384 7.2379-16.384 16.1899v56.381c0 2.477 2.097 4.572 4.572 4.572 2.478 0 4.571-2.095 4.571-4.572v-23.428c1.717 1.524 4.575 2.286 7.241 2.286h.188c9.146 0 16.001-7.81 16.001-16.762v-18.858c0-8.952-6.855-15.8089-16.001-15.8089zm7.241 35.0479c0 4.952-3.24 7.047-7.05 7.047h-.191c-3.998 0-7.047-2.095-7.047-7.047v-18.858c0-3.809 3.24-7.047 7.047-7.047h.191c4.001 0 7.05 3.048 7.05 7.047z"/><path clip-rule="evenodd" d="m266.855 113.902c-5.143-2.095-8.381-3.428-8.381-6.476 0-2.476 1.905-4.762 6.286-4.762 2.666 0 4.952 1.143 6.666 3.428 1.143 1.334 2.286 2.096 3.619 2.096 2.667 0 4.762-2.096 4.762-4.572 0-.952-.19-1.904-.762-2.476-2.857-4.381-8.761-7.4286-14.285-7.4286-7.619 0-15.429 4.7622-15.429 13.9046 0 9.334 7.619 12.381 13.905 14.667 4.952 1.905 9.333 3.619 9.333 7.619 0 3.048-2.857 6.095-8.19 6.095-1.715 0-4.762-.381-6.858-2.857-1.143-1.333-2.476-1.905-3.619-1.905-2.476 0-4.761 2.096-4.761 4.572 0 .952.381 1.905.952 2.667 2.857 4.38 9.333 6.476 14.286 6.476 8.381 0 17.523-5.334 17.523-15.048-.19-10.286-8.38-13.524-15.047-16z" fill-rule="evenodd"/><path d="m493.139 93.5183c-4.95 0-9.143 4.0001-9.143 9.1427 0 4.953 4.001 9.143 9.143 9.143 4.953 0 9.146-4 9.146-9.143 0-4.9521-4.001-9.1427-9.146-9.1427zm0 15.9997c-3.807 0-6.855-3.047-6.855-6.857 0-3.8091 3.048-6.8567 6.855-6.8567 3.81 0 6.858 3.0476 6.858 6.8567 0 3.81-3.048 6.857-6.858 6.857z"/><path d="m494.095 103.043c1.14-.19 1.905-1.142 1.905-2.285 0-1.5244-1.144-2.4765-2.858-2.4765h-2.287c-.57 0-.953.381-.953.9521v6.2854c0 .572.383.953.953.953s.952-.381.952-.953v-2.285l2.288 2.857c.187.381.379.381.952.381.762 0 .953-.572.953-.953s-.191-.571-.383-.761zm-.765-1.333h-1.14v-1.9049h1.14c.574 0 .952.3809.952.9529 0 .381-.378.952-.952.952z"/></g></svg>