<svg fill="none" height="300" viewBox="0 0 600 300" width="600" xmlns="http://www.w3.org/2000/svg" xmlns:xlink="http://www.w3.org/1999/xlink"><clipPath id="a"><path d="m76 108h455v86h-455z"/></clipPath><g clip-path="url(#a)" fill="#364153"><path d="m211.92 130.942h-26.949c-.274-.014-.549.026-.807.121-.258.094-.495.24-.697.429s-.364.417-.477.67c-.114.254-.175.528-.182.806v1.276c.007.547.226 1.069.611 1.453.384.384.903.6 1.443.6h9.448c.301.013.586.14.798.356.213.216.339.504.352.809v31.348c.014.601.26 1.173.685 1.593s.995.654 1.588.654h1.507c.593 0 1.163-.234 1.588-.654s.67-.992.685-1.593v-31.376c.013-.309.143-.602.361-.818.219-.216.511-.34.816-.347h9.394c.54 0 1.058-.215 1.443-.6.384-.384.604-.906.611-1.453v-1.248c-.014-.281-.083-.556-.202-.81s-.286-.481-.492-.669c-.207-.188-.447-.333-.709-.427-.261-.094-.538-.134-.815-.12z"/><path d="m295.969 133.161c-.003-.295-.064-.586-.179-.857-.115-.272-.281-.517-.49-.723-.208-.206-.455-.369-.725-.479-.271-.109-.56-.164-.851-.16h-1.37c-.291-.004-.58.051-.851.16-.27.11-.517.273-.725.479-.209.206-.375.451-.49.723-.115.271-.176.562-.179.857v22.194c-.009 1.275-.266 2.536-.756 3.71-.49 1.175-1.204 2.24-2.1 3.135-.897.896-1.958 1.603-3.125 2.083-1.166.479-2.414.721-3.673.712s-2.504-.269-3.663-.765c-1.16-.497-2.211-1.22-3.095-2.128s-1.582-1.983-2.056-3.165c-.473-1.181-.712-2.446-.703-3.721v-22.193c-.004-.295-.065-.587-.179-.858-.115-.271-.282-.517-.49-.723-.209-.206-.455-.369-.726-.478-.27-.11-.559-.164-.851-.161h-1.424c-.291-.003-.58.051-.851.161-.27.109-.517.272-.725.478-.209.206-.375.452-.49.723s-.176.563-.18.858v22.582c0 4.179 1.639 8.187 4.557 11.142 2.917 2.955 6.873 4.615 10.999 4.615s8.082-1.66 10.999-4.615c2.918-2.955 4.557-6.963 4.557-11.142z"/><path d="m373.473 165.675h-13.529c-.153.004-.306-.023-.449-.08-.142-.057-.272-.142-.382-.251s-.197-.238-.257-.381c-.059-.144-.09-.298-.09-.453v-31.321c-.014-.601-.26-1.172-.685-1.592-.424-.42-.994-.655-1.588-.655h-1.506c-.594 0-1.164.235-1.588.655-.425.42-.671.991-.685 1.592v35.677c.007.583.241 1.141.651 1.551s.963.64 1.54.64h18.431c.259.004.516-.044.757-.141.24-.097.46-.241.645-.424.186-.183.334-.401.437-.642.102-.241.157-.5.16-.762v-1.304c.041-.268.023-.541-.053-.8-.076-.26-.208-.499-.386-.7-.178-.202-.398-.361-.644-.466s-.512-.154-.779-.143z"/><path d="m245.441 154.884c2.367-.897 4.414-2.492 5.879-4.578 1.464-2.087 2.278-4.57 2.337-7.129.003-1.615-.309-3.214-.92-4.706-.611-1.491-1.508-2.845-2.639-3.983s-2.473-2.037-3.95-2.646c-1.476-.608-3.057-.914-4.651-.9h-13.94c-.583.008-1.141.248-1.551.668-.41.421-.64.988-.64 1.579v1.082 34.484c0 .591.23 1.158.64 1.579.41.42.968.66 1.551.668h1.342c.581-.015 1.135-.257 1.543-.676.409-.419.641-.982.648-1.571v-12.235c-.004-.151.023-.302.077-.443.055-.142.137-.27.242-.379.105-.108.23-.195.368-.254.138-.058.286-.089.436-.089h6.901c.12 0 .238.03.344.088.105.059.194.143.259.245l7.175 14.232c.288.51.76.887 1.316 1.052.557.166 1.155.107 1.669-.164l1.205-.694c.513-.297.89-.787 1.049-1.363.159-.577.087-1.193-.2-1.716zm-4.328-4.467h-8.763c-.289.001-.566-.112-.775-.313-.21-.202-.334-.477-.348-.769v-10.819-.666c-.008-.292.096-.577.29-.794s.462-.35.751-.371h8.654c1.816-.026 3.567.68 4.869 1.963 1.302 1.282 2.048 3.036 2.073 4.875.026 1.84-.671 3.614-1.937 4.933s-2.998 2.074-4.814 2.1z"/><path d="m336.474 165.731h-16.213c-.153.003-.306-.024-.448-.081-.143-.057-.273-.142-.383-.251-.11-.108-.197-.238-.256-.381-.06-.143-.09-.297-.09-.452v-10.015c0-.156.03-.309.09-.453.059-.143.146-.272.256-.381s.24-.194.383-.251c.142-.057.295-.084.448-.08h13.447c.543 0 1.064-.215 1.453-.598.389-.384.614-.906.628-1.455v-1.304c-.014-.55-.239-1.072-.628-1.455-.389-.384-.91-.598-1.453-.598h-13.447c-.153.004-.306-.024-.448-.081-.143-.057-.273-.142-.383-.25-.11-.109-.197-.239-.256-.382-.06-.143-.09-.297-.09-.452v-9.294c0-.155.03-.309.09-.452.059-.143.146-.273.256-.382.11-.108.24-.193.383-.25.142-.057.295-.085.448-.081h16.213c.27.004.538-.046.788-.148.251-.101.479-.251.673-.442.193-.19.347-.418.454-.669.106-.251.163-.521.166-.794v-1.331c-.003-.274-.06-.544-.166-.795-.107-.251-.261-.478-.454-.669-.194-.19-.422-.34-.673-.442-.25-.101-.518-.151-.788-.147h-21.142c-.291-.012-.582.037-.854.142s-.52.265-.73.469c-.209.205-.376.45-.49.722-.114.271-.172.563-.172.858v35.76c.014.591.258 1.152.679 1.563.42.41.983.636 1.567.628h21.142c.526.008 1.033-.195 1.412-.563.38-.369.6-.874.615-1.406v-1.304c.003-.271-.047-.54-.147-.79-.101-.251-.25-.479-.439-.67-.189-.192-.414-.343-.661-.445-.248-.101-.513-.152-.78-.148z"/><path d="m486.47 165.731h-16.103c-.306-.007-.598-.131-.816-.347-.219-.217-.348-.509-.362-.818v-.888-9.127c.014-.309.143-.602.362-.818.218-.216.51-.341.816-.347h13.419c.27.003.538-.047.788-.148.251-.101.479-.251.673-.442.193-.191.347-.418.454-.669.106-.251.163-.521.166-.794v-1.304c-.014-.55-.239-1.072-.628-1.455-.389-.384-.91-.598-1.453-.598h-13.419c-.154.004-.306-.024-.449-.081-.143-.056-.273-.142-.382-.25-.11-.109-.197-.239-.257-.382-.059-.143-.09-.297-.09-.452v-8.628-.666c-.004-.156.024-.312.082-.457s.145-.276.256-.385c.111-.11.242-.195.387-.25.144-.056.298-.081.453-.073h16.212c.543 0 1.064-.214 1.453-.598.389-.383.615-.905.629-1.455v-1.331c-.004-.274-.06-.543-.167-.794-.106-.252-.261-.479-.454-.67-.193-.19-.422-.34-.672-.442-.251-.101-.519-.151-.789-.147h-21.169c-.289-.008-.576.044-.845.15-.269.107-.514.267-.721.472-.206.204-.371.448-.483.718-.112.269-.17.559-.17.851v35.76c.004.291.064.579.178.847.113.268.277.51.483.714.206.203.45.364.717.472s.553.162.841.158h21.169c.526.008 1.033-.195 1.413-.563.379-.369.6-.874.614-1.406v-1.304c.001-.279-.055-.556-.164-.812-.109-.257-.268-.488-.468-.681-.2-.192-.436-.34-.695-.437-.258-.096-.534-.138-.809-.123z"/><path d="m420.441 167.506-16.897-36.064c-.108-.171-.253-.315-.424-.421s-.363-.171-.562-.189h-.658c-.196.016-.385.08-.552.187-.167.106-.306.251-.406.423l-16.98 36.064c-.114.251-.177.523-.186.799-.01.276.036.551.132.809.097.259.244.495.432.695s.413.361.663.472l1.26.527c.515.229 1.097.253 1.63.068.532-.185.977-.566 1.245-1.067l3.341-7.157c.113-.109.257-.177.411-.195h18.377c.114.007.226.04.326.098s.185.138.249.235l3.341 7.074c.259.511.701.903 1.236 1.093.535.191 1.121.168 1.639-.066l1.26-.555c.518-.226.927-.65 1.137-1.18.211-.53.206-1.123-.014-1.65zm-11.886-9.959h-12.789c-.163 0-.319-.063-.436-.177-.118-.114-.187-.269-.194-.433-.017-.03-.026-.063-.026-.097s.009-.068.026-.097l6.764-14.482c.035-.015.072-.023.11-.023s.075.008.109.023c.062-.023.13-.023.192 0l6.792 14.482c.031.065.049.136.053.208.003.073-.009.145-.035.213-.025.067-.065.129-.115.181-.05.051-.11.092-.177.119-.098.028-.203.028-.301 0z"/><path d="m451.196 132.412-1.37-1.026c-.235-.178-.502-.308-.787-.381s-.581-.088-.871-.044c-.291.044-.569.146-.821.3-.251.154-.47.357-.643.597l-10.078 13.871c-.075.068-.173.106-.274.106s-.199-.038-.274-.106l-10.16-13.871c-.362-.46-.882-.764-1.456-.851-.574-.088-1.159.048-1.639.379l-1.397 1.026c-.348.376-.542.872-.542 1.388 0 .515.194 1.011.542 1.387l12.023 16.645v17.033c.014.601.26 1.173.685 1.593s.995.655 1.588.654h1.452c.593.001 1.163-.234 1.588-.654s.67-.992.685-1.593v-17.172l11.749-16.479c.362-.373.566-.876.566-1.401 0-.524-.204-1.027-.566-1.401z"/><path d="m522.757 154.911c2.365-.9 4.411-2.495 5.874-4.581 1.464-2.086 2.28-4.567 2.342-7.126.004-1.609-.306-3.203-.912-4.69-.605-1.488-1.494-2.84-2.616-3.979-1.122-1.138-2.454-2.042-3.921-2.659-1.467-.616-3.04-.934-4.629-.934h-14.021c-.584.008-1.141.248-1.551.668-.411.421-.64.988-.64 1.579v35.621c0 .591.229 1.159.64 1.579.41.421.967.661 1.551.668h1.314c.584-.007 1.141-.247 1.551-.668.41-.42.64-.988.64-1.579v-12.345c0-.152.03-.302.088-.442s.143-.266.251-.372c.107-.106.234-.189.373-.245.14-.055.289-.082.438-.078h6.902c.121-.007.241.021.347.08.107.059.195.146.255.252l7.175 14.232c.138.258.325.485.549.67.225.184.484.321.761.404.278.082.569.108.856.076.288-.031.566-.121.82-.262l1.177-.666c.518-.292.9-.78 1.065-1.357.164-.577.096-1.196-.188-1.722zm-4.382-4.466h-8.764c-.288 0-.566-.112-.775-.313-.209-.202-.333-.477-.347-.769v-11.652c-.004-.151.022-.302.077-.443.055-.142.137-.27.242-.379.104-.108.229-.195.367-.254.138-.058.287-.089.436-.089h8.627c1.712.137 3.312.918 4.484 2.19s1.832 2.942 1.849 4.682-.609 3.423-1.756 4.719c-1.147 1.295-2.731 2.109-4.44 2.28z"/><path d="m80.5455 173.415 34.8085 19.669c.796.587 1.754.903 2.738.903.985 0 1.943-.316 2.739-.903l36.945-21.028c1.287-.832 2.191-1.498 2.191-2.996-.036-.558-.22-1.095-.534-1.554-.313-.459-.744-.824-1.247-1.054l-9.914-6.575 9.449-5.409c.882-.41 1.641-1.05 2.2-1.854.558-.804.895-1.744.977-2.724v-14.592c.124-1.154-.124-2.318-.706-3.318-.583-1-1.469-1.783-2.526-2.231 0 0-36.26-20.667-36.26-20.667-.991-.705-2.172-1.082-3.382-1.082s-2.391.377-3.382 1.082l-36.2874 20.945c-.6373.329-1.1733.829-1.5499 1.445-.3766.617-.5793 1.326-.5862 2.05 0 1.776 1.8622 3.135 2.1361 3.357l9.4484 5.549-9.9961 6.02c-.4734.297-.8711.703-1.1612 1.185-.2902.482-.4647 1.026-.5094 1.589v14.093c-.2471 1.653.051 3.343.8481 4.808.7972 1.464 2.0489 2.621 3.5611 3.292zm72.9035-4.106-35.357 19.669-34.1505-19.114 10.6807-6.075 22.1828 12.595c.383.195.805.296 1.233.296s.85-.101 1.232-.296l23.963-13.871zm2.957-20.945-9.53-5.798 9.53-5.548zm-35.602-33.873 32.425 18.893-10.68 6.491-21.91-13.205zm-2.739 16.285 19.746 11.929-19.746 11.291-20.1564-11.568 20.2384-11.652zm-35.7941 2.746 33.2201-19.031v12.179l-23.0597 12.956zm10.489 11.846 24.0451 13.677c.393.209.83.318 1.274.318.443 0 .88-.109 1.273-.318l23.06-13.677 10.407 6.298-34.781 19.641-35.3563-20.196zm-12.0774 10.32 9.3388 5.271-9.3388 5.299z"/></g></svg>