<svg fill="none" height="300" viewBox="0 0 600 300" width="600" xmlns="http://www.w3.org/2000/svg" xmlns:xlink="http://www.w3.org/1999/xlink"><clipPath id="a"><path d="m116 78h369v143h-369z"/></clipPath><g clip-path="url(#a)"><path d="m165.349 221c28.588 0 43.37-8.81 47.832-17.645.257-.509-.235-1.086-.778-.907-5.032 1.656-8.789-1.419-9.21-4.968 0 0-1.407-15.05-6.439-16.519.298-.61 1.511-5.42-2.238-9.864 1.025-3.144.178-5.213-.589-6.778.934-1.14 1.652-2.61 1.963-4.042.077-.34.075-.639.352-.959 1.768-1.461 3.719-2.666 4.906-4.805 2.139-3.864.706-8.278-1.886-11.535-.263-.359-.469-.532-.488-1.456.007-1.579-.281-3.203-1.134-4.537-.435-.678-1.006-1.264-1.604-1.807-2.491-2.31-5.47-4.016-8.332-5.857-.393-.251-.851-.585-1.022-1.041-.901-3.335-3.23-5.914-6.127-6.616-.061-2.233-2.429-5.62-6.012-5.62-1.093 0-1.997.59-2.561-.427-1.31-2.471-3.921-2.93-5.283-2.992-.229-.011-.294-.317-.086-.415.437-.208 1.098-.496 2.079-.872 4.92-2.342 2.884-15.6831.87-22.7231-.943-2.6281-3.332-10.1026-9.185-10.5967-.403-.0337-.815-.0245-1.204.0872-1.127.3228-1.962 1.2207-2.549 2.4644-1.936 3.8704-2.42 14.3172-3.132 18.7841-1.01 6.3701-1.925 13.2031-5.115 16.0041-1.359-3.566-3.326-5.218-4.401-5.155-.936.219.331 2.029-.209 4.698-.375 1.536-1.23 2.969-2.686 2.969-4.266 0-8.109-21.2223-9.256-33.9714-.03-.3335-.063-.6654-.124-.9959-.563-3.0809-2.193-4.8998-3.915-4.8998-.873 0-4.008-.3167-7.598 5.2976-2.468 4.3782-4.036 8.9553-4.188 17.4795.003 8.589 3.856 14.334 5.417 17.159 6.377 10.432 7.229 14.033 6.022 20.392-1.227 6.165 2.515 9.631 2.515 9.631-.529.816-1.227 3-1.388 5.397-.103 1.527.211 4.265.944 5.96-1.61 3.45-1.571 6.191-1.571 7.92 0 4.005-1.758 5.636-4.042 6.349.616 2.184 4.714 3.354 7.084 1.02-.699 6.861-1.992 13.041-3.797 20.69-1.123 5.237-.933 8.171-.083 10.655.383 1.12.982 2.151 1.716 3.081 8.743 11.092 25.15 11.966 36.532 11.966zm-.014-14.972c-3.15-.509-6.097-2.071-8.248-4.436-5.732 1.887-11.692-2.91-9.88-9.243.289-.829 1.531-.525 1.408.339-.178 1.116.028 2.257.509 3.239 1.281 2.911 5.098 3.694 7.438 1.666.866-.759 2.117-.47 2.705.471 5.124 6.916 15.756 5.619 19.322-2.145.522-1.084.864-2.233 1.062-3.423.14-.845 1.413-.765 1.448.088.288 8.356-7.577 14.75-15.765 13.445z" fill="#364153"/><path d="m197.48 146.366c-.547 0-1.136.76-1.287 1.944-.326 1.669-.214 4.754-1.71 4.754-1.034 0-1.128-2.068-2.867-3.974-1.804-1.849-4.39-2.038-6.049-3.368-.922-.637-1.471-1.42-1.411-2.765 0 0 .197-2.141 3.103-1.75 1.382.144 3.622.479 5.009.637 2.477.278 3.081-1.555 3.155-2.177.158-1.46-1.399-2.668-2.385-3.519-1.245-1.078-2.603-2.047-4.01-2.916-.255-.157-.515-.321-.775-.486-3.528-2.238-9.801-5.984-13.319-1.707-1.261 1.679-1.808 3.615-2.203 5.218-.73 2.934-2.263 4.066-3.352 5.856-1.73 2.841-2.918 6.067-3.009 9.386-.015 4.793 2.964 9.488 7.718 12.422 3.946 2.059 5.971 2.059 7.551 1.639.289-.098.923-.537.487-1.264-.078-.155-.298-.494-.432-.714-.45-.825.166-1.579 1.08-.874.601.468 1.214.936 1.922 1.222.595.241 1.273.335 1.888.173h.001c.72-.234 1.084-.703 1.126-1.303.041-.716-.285-1.27-.824-1.565-.821-.398-2.639-1.392-3.406-1.955-.866-.603-1.791-1.504-2.113-1.843-1.047-1.108-1.346-2.19-1.998-2.19-.109.007-.216.068-.289.15-.409.435-.412 1.151-.432 1.559-.014.302.033.76-.391.76-1.052 0-1.048-2.181-1.047-2.773 0-.811.298-2.914 1.558-2.914.389 0 .917.518 1.125.722 2.775 3.064 6.001 5.447 10.088 5.447 3.128 0 5.742-1.757 7.386-3.405 1.287-1.285 2.134-2.894 2.191-4.557.035-1.054-.474-3.869-2.079-3.869zm-17.927 2.851c-.38.21-.834-.05-1.247-.185-.832-.272-1.776.003-2.462.545-.47.373-.83.861-1.122 1.387-.318.575-.378 1.334-1.063 1.334-.562 0-.845-.776-.907-1.095-.33-1.737.512-3.669 2.079-4.501s3.739-.392 4.752 1.059c.157.225.291.479.309.752.019.274-.096.571-.338.704z" fill="#fff"/><path d="m158.938 129.345c-1.496.022-2.947.661-4.005 1.741-.595.607-1.92 2.572-1.791 5.599-.022.445-.611.604-.848.225-.954-1.701-1.01-3.476-.639-4.785.822-2.647 3.146-4.846 6.285-4.846 4.119 0 5.152 2.68 5.358 3.51.099.345-.329.599-.592.354-.682-.632-1.735-1.798-3.771-1.798z" fill="#fff"/><path d="m159.275 135.339c-.984.087-1.761-.545-1.848-1.522-.087-.961.564-1.753 1.548-1.84.984-.088 1.782.578 1.868 1.538.088.98-.584 1.737-1.567 1.824z" fill="#fff"/><path d="m127.028 117.044c-1.451 0-6.21-7.679-6.21-18.5221 0-4.8662 1.256-10.0598 3.54-10.0598 1.405 0 1.723 2.977 1.788 3.8596.739 9.3133-.468 15.6393 1.294 24.0753.117.494-.183.649-.412.649z" fill="#fff"/><g fill="#364153"><path d="m392.002 186.358c-1.561-1.91-2.412-4.297-2.412-6.758v-17.775c0-12.614-5.977-19.838-16.546-19.838-14.072 0-16.797 7.628-20.544 14.117-.181.314-.582.425-.904.254l-.782-.418c-.335-.179-.457-.596-.268-.925l1.069-1.859c.675-1.153 1.036-2.463 1.036-3.798v-2.682c0-1.73-1.41-3.133-3.149-3.133h-15.324c-2.308 0-3.552 2.696-2.046 4.436l2.232 2.584c2.251 2.605 3.489 5.927 3.489 9.362v18.451c0 2.047-.44 4.071-1.29 5.934l-1.775 3.892c-.81 1.777.495 3.795 2.459 3.795h19.145c2.28 0 3.533-2.637 2.086-4.39l-1.55-1.877c-1.58-1.917-2.446-4.319-2.446-6.799v-10.18c0-3.554.855-7.082 2.646-10.156 2.174-3.733 5.013-5.641 8.566-5.641 4.781 0 7.35 3.389 7.35 9.509v16.537c0 1.998-.418 3.973-1.23 5.801l-1.52 3.425c-.787 1.776.518 3.771 2.469 3.771h18.172c2.274 0 3.528-2.625 2.094-4.38l-1.029-1.259z"/><path d="m426.132 184.907c-.612.12-1.211.205-1.739.217-4.938 0-7.315-3.093-7.315-9.456v-25.282h8.993c1.041 0 1.885-.84 1.885-1.876v-3.062c0-1.036-.844-1.876-1.885-1.876h-11.508c-.323 0-.585-.26-.585-.581v-.858c0-.32.259-.58.58-.582h1.168c.746.002 1.352-.599 1.352-1.341v-6.688c0-1.276-1.039-2.309-2.32-2.309h-6.619c-1.206 0-2.273.777-2.631 1.923-.764 2.509-2.603 10.438-8.584 10.438h-1.779c-1.036 0-1.878.838-1.878 1.875v3.063c0 1.037.842 1.875 1.878 1.875h5.485v25.922c0 10.547 5.393 16.366 15.169 16.366 4.878 0 9.302-1.773 11.981-4.969 1.043-1.248-.043-3.111-1.648-2.798z"/><path d="m330.04 183c-2.914.524-4.885-1.748-4.885-5.312v-17.155c0-12.235-7.794-18.807-22.932-18.807-13.557 0-22.816 5.186-22.841 13.018-.006 1.406.524 2.784 1.305 4.111 1.257 1.918 3.526 3.204 6.126 3.204 3.957 0 7.166-2.97 7.166-6.634-.012-3.757-3.201-5.662-4.168-6.02.687-.583 3.656-2.859 8.04-2.859 6.968 0 10.699 5.255 10.699 13.436v3.252c-5.231 0-11.096.522-15.223 1.524-10.097 2.195-15.418 7.912-15.418 15.033 0 8.031 6.424 13.049 16.605 13.049 7.067 0 12.938-2.46 15.69-6.572 1.739 3.473 5.594 5.662 10.551 5.662 6.411 0 9.769-3.329 10.83-7.285.274-1.126-.581-1.833-1.545-1.646zm-21.49-3.847c-.546 3.829-3.206 6.115-7.06 6.115-4.224 0-7.067-2.829-7.067-7.302 0-3.468 1.558-6.5 4.957-7.959 2.291-1.007 5.866-1.556 9.17-1.646v10.794z"/><path d="m483.402 183c-2.914.524-4.885-1.748-4.885-5.312v-17.155c0-12.235-7.793-18.807-22.932-18.807-13.557 0-22.816 5.186-22.841 13.018-.006 1.406.525 2.784 1.306 4.111 1.256 1.918 3.525 3.204 6.125 3.204 3.958 0 7.166-2.97 7.166-6.634-.012-3.757-3.201-5.662-4.168-6.02.688-.583 3.656-2.859 8.04-2.859 6.968 0 10.699 5.255 10.699 13.436v3.252c-5.23 0-11.096.522-15.222 1.524-10.097 2.195-15.419 7.912-15.419 15.033 0 8.031 6.424 13.049 16.605 13.049 7.067 0 12.939-2.46 15.691-6.572 1.739 3.473 5.593 5.662 10.55 5.662 6.411 0 9.769-3.329 10.83-7.285.274-1.126-.581-1.833-1.545-1.646zm-21.49-3.847c-.545 3.829-3.205 6.115-7.06 6.115-4.223 0-7.066-2.829-7.066-7.302 0-3.468 1.557-6.5 4.957-7.959 2.291-1.007 5.865-1.556 9.169-1.646v10.794z"/><path d="m280.515 127.393h-8.321c-1.791 0-2.863 1.981-1.879 3.468l1.425 2.156c1.218 1.842 1.456 4.158.638 6.206l-14.927 37.359c-.688 1.799-1.384 3.032-1.699 3.335-.169.162-.452.211-.672.047l-.787-.623c-.251-.186-.236-.457-.007-.713.439-.578.711-1.275.863-1.91.183-.762.121-1.562-.158-2.295l-12.642-33.249c-.835-2.194-.802-4.622.091-6.794l1.35-3.283c.727-1.767-.58-3.704-2.498-3.704h-20.371c-2.744 0-4.176 3.25-2.315 5.257l1.296 1.399c2.381 2.572 4.263 5.558 5.552 8.81l18.15 47.197c.475 1.198 1.636 1.984 2.93 1.984h10.051c1.292 0 2.452-.785 2.927-1.978l23.512-58.991c.703-1.764-.603-3.676-2.509-3.676z"/></g></g></svg>