<svg fill="none" height="240" viewBox="0 0 600 240" width="600" xmlns="http://www.w3.org/2000/svg" xmlns:xlink="http://www.w3.org/1999/xlink"><mask id="a" height="76" maskUnits="userSpaceOnUse" width="370" x="115" y="82"><path d="m484.841 82.5h-369.677v75h369.677z" fill="#fff"/></mask><g fill="#364153" mask="url(#a)"><path d="m142.02 157.503c-1.412-.003-2.8-.367-4.032-1.057s-2.267-1.684-3.007-2.886c-.74-1.203-1.16-2.575-1.22-3.986s.242-2.814.876-4.075l18.291-36.306c1.012-1.921 2.736-3.368 4.803-4.029 2.067-.662 4.312-.486 6.25.49 1.939.976 3.417 2.674 4.116 4.728.7 2.055.565 4.302-.376 6.258l-18.295 36.3c-.691 1.372-1.751 2.524-3.059 3.328-1.309.804-2.815 1.228-4.351 1.225z" opacity=".35"/><path d="m439.679 157.499c-1.414-.003-2.801-.367-4.031-1.058-1.234-.69-2.269-1.684-3.008-2.887-.738-1.202-1.158-2.574-1.218-3.985-.06-1.41.24-2.813.877-4.074l18.293-36.301c1.005-1.93 2.73-3.385 4.8-4.053 2.073-.668 4.323-.493 6.266.486 1.942.979 3.42 2.683 4.117 4.745.694 2.061.552 4.313-.401 6.27l-18.296 36.3c-.69 1.371-1.748 2.522-3.053 3.327-1.308.805-2.812 1.23-4.346 1.23z" opacity=".35"/><path d="m178.899 157.497c-1.524-.001-3.018-.422-4.318-1.217s-2.355-1.934-3.049-3.291l-18.586-36.299c-.495-.967-.796-2.022-.884-3.106-.088-1.083.039-2.174.372-3.208.673-2.09 2.149-3.826 4.103-4.827 1.953-1.002 4.225-1.186 6.314-.513 1.035.334 1.994.868 2.822 1.571.828.705 1.51 1.565 2.006 2.532l11.171 21.798 10.963-21.755c.989-1.961 2.717-3.45 4.803-4.138 2.087-.688 4.361-.519 6.323.47 1.961.989 3.45 2.717 4.137 4.803.688 2.087.519 4.361-.47 6.322l-18.295 36.301c-.687 1.365-1.74 2.513-3.04 3.316s-2.797 1.231-4.325 1.235z"/><path d="m142.035 157.493c-1.525.001-3.02-.419-4.321-1.215s-2.358-1.935-3.052-3.293l-18.587-36.292c-1.001-1.954-1.185-4.225-.512-6.314.674-2.09 2.15-3.826 4.104-4.827 1.953-1.001 4.224-1.185 6.314-.512 2.089.674 3.825 2.15 4.826 4.103l18.585 36.301c.645 1.261.955 2.667.902 4.083-.054 1.415-.47 2.793-1.208 4.002s-1.775 2.209-3.009 2.903c-1.235.694-2.625 1.059-4.042 1.061z"/><path d="m402.8 157.499c-1.414-.003-2.801-.368-4.031-1.058-1.234-.69-2.269-1.684-3.008-2.887-.738-1.203-1.158-2.574-1.218-3.985s.24-2.813.877-4.075l18.289-36.3c.686-1.365 1.74-2.513 3.037-3.316 1.302-.804 2.798-1.231 4.328-1.235h.026c1.523 0 3.015.421 4.316 1.217 1.298.795 2.355 1.934 3.049 3.291l18.585 36.3c1.001 1.954 1.185 4.225.51 6.315-.671 2.089-2.149 3.825-4.102 4.826-1.954 1.001-4.227 1.185-6.315.512-2.089-.674-3.825-2.15-4.827-4.103l-11.16-21.802-10.953 21.755c-.69 1.369-1.752 2.518-3.057 3.321-1.308.802-2.812 1.226-4.346 1.224z"/><path d="m476.574 157.493c-1.523.001-3.019-.419-4.32-1.215-1.301-.795-2.355-1.935-3.053-3.292l-18.585-36.301c-.495-.967-.795-2.023-.881-3.106-.09-1.083.038-2.174.371-3.208.334-1.035.867-1.993 1.572-2.822.705-.828 1.563-1.509 2.531-2.005.967-.496 2.021-.796 3.105-.884 1.084-.087 2.175.039 3.21.373 1.035.333 1.991.867 2.82 1.571s1.511 1.564 2.006 2.532l18.585 36.3c.645 1.262.956 2.667.9 4.083-.052 1.416-.469 2.794-1.207 4.003-.739 1.209-1.774 2.208-3.008 2.903-1.234.694-2.629 1.06-4.046 1.062z"/><path d="m324.287 143.043-16.739-13.086 16.553-11.105c1.727-1.158 2.924-2.955 3.327-4.995.402-2.04-.022-4.157-1.18-5.885-1.158-1.727-2.955-2.924-4.995-3.327-2.041-.402-4.158.022-5.885 1.18l-23.003 15.422v-30.542c0-2.1758-.865-4.2626-2.403-5.8013-1.538-1.5386-3.625-2.403-5.801-2.403s-4.263.8644-5.801 2.403c-1.539 1.5387-2.403 3.6255-2.403 5.8013v58.371c0 2.175.864 4.262 2.403 5.8 1.538 1.539 3.625 2.403 5.801 2.403s4.263-.864 5.801-2.403c1.538-1.538 2.403-3.625 2.403-5.8v-11.072l22.264 17.386c.808.663 1.74 1.157 2.742 1.454 1.001.298 2.052.392 3.091.277 1.038-.115 2.043-.436 2.956-.945s1.714-1.195 2.358-2.018 1.117-1.766 1.39-2.774c.274-1.009.343-2.062.205-3.097-.139-1.036-.484-2.033-1.014-2.934-.529-.9-1.232-1.686-2.07-2.31z"/><path d="m263.403 130.924c-.035-5.745-1.953-11.32-5.46-15.871s-8.41-7.827-13.957-9.324c-5.547-1.498-11.432-1.135-16.753 1.033-5.321 2.167-9.784 6.02-12.706 10.967-2.921 4.948-4.14 10.717-3.468 16.423.671 5.706 3.195 11.035 7.185 15.169s9.226 6.845 14.904 7.719c5.679.874 11.488-.139 16.536-2.884.924 1.311 2.242 2.294 3.762 2.805 1.52.512 3.163.526 4.692.04 1.529-.485 2.863-1.445 3.81-2.74.946-1.295 1.456-2.857 1.455-4.461zm-26.262 11.616c-2.269 0-4.487-.672-6.374-1.933-1.886-1.26-3.356-3.052-4.224-5.148s-1.096-4.402-.653-6.627c.442-2.226 1.535-4.27 3.139-5.874 1.605-1.604 3.648-2.697 5.874-3.139 2.225-.443 4.531-.216 6.627.652 2.096.869 3.888 2.339 5.148 4.225 1.261 1.887 1.933 4.105 1.933 6.373 0 3.043-1.208 5.96-3.359 8.112-2.152 2.151-5.069 3.359-8.111 3.359z"/><path d="m387.116 130.924c-.038-5.745-1.954-11.32-5.46-15.871-3.51-4.551-8.412-7.827-13.959-9.324-5.547-1.498-11.432-1.135-16.753 1.033-5.321 2.167-9.784 6.02-12.706 10.967-2.921 4.948-4.14 10.717-3.468 16.423.671 5.706 3.195 11.035 7.185 15.169s9.226 6.845 14.904 7.719c5.679.874 11.488-.139 16.536-2.884.925 1.31 2.242 2.291 3.761 2.802 1.522.51 3.165.524 4.691.039 1.53-.486 2.861-1.444 3.81-2.738.945-1.294 1.455-2.856 1.459-4.459zm-26.264 11.616c-2.269 0-4.487-.672-6.373-1.933-1.887-1.26-3.357-3.052-4.226-5.148-.868-2.096-1.095-4.402-.652-6.627.442-2.226 1.535-4.27 3.139-5.874 1.605-1.604 3.648-2.697 5.874-3.139 2.225-.443 4.531-.216 6.627.652 2.096.869 3.888 2.339 5.148 4.225 1.261 1.887 1.934 4.105 1.934 6.373 0 3.043-1.209 5.96-3.36 8.112-2.151 2.151-5.069 3.359-8.111 3.359z"/></g></svg>