<svg fill="none" height="300" viewBox="0 0 600 300" width="600" xmlns="http://www.w3.org/2000/svg" xmlns:xlink="http://www.w3.org/1999/xlink"><mask id="a" height="108" maskUnits="userSpaceOnUse" width="108" x="34" y="96"><path d="m34 96h107.911v108h-107.911z" fill="#fff"/></mask><g fill="#364153"><path d="m248.369 178.181c-8.345 0-14.865-4.723-14.865-13.652 0-9.769 7.824-13.522 16.364-13.522h6.977c4.303 0 6.259-1.682 6.259-4.658 0-3.882-3.586-5.758-8.215-5.758-5.542 0-9.063 2.652-9.389 7.375h-10.301c.652-9.187 6.65-15.139 19.559-15.139 12.91 0 18.191 6.211 18.191 14.816v18.309c0 2.071.782 2.847 2.869 2.847h1.63v8.023h-6.716c-4.694 0-7.302-2.329-7.302-6.341v-1.617h-.13c-2.739 6.341-8.28 9.317-14.931 9.317zm3.065-7.894c5.867 0 11.67-3.623 11.67-12.487v-3.946h-.13c-1.304 2.653-3.847 3.946-8.281 4.141l-3.195.129c-5.15.129-7.367 2.717-7.367 6.082 0 3.364 2.217 6.146 7.367 6.146z"/><path d="m284.163 165.305v-23.097h-8.28v-8.023h8.28v-11.645h9.91v11.645h12.975v8.023h-12.975v21.674c0 3.623 1.891 5.047 5.151 5.047h8.02v8.022h-11.41c-7.694 0-11.736-3.817-11.736-11.581z"/><path d="m309.652 155.536c0-14.169 8.867-22.645 21.255-22.645s20.668 7.311 20.668 21.027v4.4h-31.426c.326 7.311 4.434 12.098 11.019 12.098 4.759 0 8.345-2.588 9.715-6.664h10.17c-1.89 8.541-9.388 14.428-20.016 14.428-12.713 0-21.32-8.54-21.32-22.644zm32.013-4.271c0-6.211-3.782-10.61-10.497-10.61-6.716 0-10.302 4.658-10.954 10.61z"/><path d="m358.355 134.184h9.715v6.729h.13c2.021-4.27 4.76-6.729 10.497-6.729h4.173v8.023h-5.933c-5.933 0-8.671 3.17-8.671 10.158v24.521h-9.846v-42.702z"/><path d="m385.218 162.717h10.171c.26 5.37 3.651 7.699 8.736 7.699 5.086 0 8.216-2.458 8.216-6.275 0-3.365-2.087-5.37-7.433-5.37h-4.694c-8.998 0-14.214-4.917-14.214-12.099 0-8.152 6.65-13.781 17.929-13.781 11.28 0 17.93 6.082 18.191 15.14h-10.106c-.26-4.788-2.869-7.376-8.149-7.376-4.695 0-7.564 2.2-7.564 5.693 0 3.171 2.413 4.723 6.39 4.723h5.151c10.301 0 14.995 5.758 14.995 12.746 0 8.476-6.715 14.428-18.712 14.428-11.996 0-18.712-6.082-18.973-15.463z"/><path d="m429.688 122.668h9.843v10.999c0 1.941 0 3.429-.13 7.052h.13c2.282-4.658 6.716-7.828 12.91-7.828 8.801 0 14.865 6.082 14.865 16.433v27.562h-9.845v-25.621c0-7.634-3.26-10.546-8.15-10.546s-9.78 3.171-9.78 11.711v24.456h-9.843z"/><path d="m474.02 155.536c0-14.169 8.802-22.645 21.255-22.645s20.668 7.311 20.668 21.027v4.4h-31.426c.326 7.311 4.434 12.098 11.018 12.098 4.76 0 8.346-2.588 9.715-6.664h10.171c-1.891 8.541-9.389 14.428-20.016 14.428-12.779 0-21.32-8.54-21.32-22.644zm32.012-4.271c0-6.211-3.781-10.61-10.497-10.61-6.715 0-10.301 4.658-10.953 10.61z"/><path d="m520.832 155.536c0-14.817 9.128-22.645 19.169-22.645 6.584 0 11.8 3.364 14.408 8.799h.131c-.131-1.488-.131-2.782-.131-4.335v-14.687h9.845v54.218h-9.779v-2.847c0-1.553 0-2.976.065-4.594h-.131c-2.608 5.436-7.824 8.8-14.408 8.8-10.041 0-19.169-7.829-19.169-22.645zm22.102 14.88c7.172 0 11.475-5.887 11.475-14.88 0-8.994-4.303-14.881-11.475-14.881s-11.54 5.887-11.54 14.881c0 8.993 4.303 14.88 11.54 14.88z"/><path clip-rule="evenodd" d="m197.495 156.546 9.083 19.952h8.084l24.645-54.282h-11.344l-17.278 40.436h-.195l-17.147-40.436h-11.476l10.755 23.625-8.147 19.011h-.13l-17.212-42.636h-11.41l24.71 54.282h8.02z" fill-rule="evenodd"/></g><g mask="url(#a)"><path clip-rule="evenodd" d="m43.5736 145.791c-.1296 1.385-.1958 2.789-.1958 4.209 0 17.683 10.2814 32.965 25.1894 40.182-.6142-1.035-1.1932-2.105-1.7363-3.198-4.8087-9.682-7.6483-22.729-7.6483-36.884 0-4.466.2827-8.823.8209-12.998-4.0501-.125-6.7664.687-8.717 1.699-2.5722 1.335-4.1555 3.086-6.0638 5.196-.5171.572-1.0581 1.17-1.6491 1.794zm4.5766-15.895c3.6631-1.645 8.0668-2.477 13.5436-2.106 1.28-5.383 3.0172-10.305 5.1371-14.574.5923-1.192 1.2274-2.356 1.9042-3.48-8.8873 4.257-16.1456 11.374-20.5849 20.16zm35.1164-22.632c-2.7039 1.772-5.5038 5.029-8.0386 10.132-1.7018 3.427-3.1538 7.463-4.2641 11.961 5.0421 1.363 9.0237 3.615 12.3026 6.315zm-.0001 42.24c-3.642-5.026-7.6233-8.943-14.0044-10.871-.4561 3.648-.7017 7.489-.7017 11.467 0 13.021 2.6312 24.577 6.6676 32.704 2.5347 5.103 5.3346 8.36 8.0385 10.132zm9.3776 43.865v-30.086c3.131 3.988 6.9926 7.751 12.2809 10.29-.99 3.412-2.183 6.513-3.533 9.231-2.7567 5.552-5.8278 8.917-8.7479 10.565zm14.3689-29.33c-5.036-3.105-8.2331-8.044-12.1287-14.063-.3091-.477-.6221-.961-.941-1.451-.423-.651-.8551-1.309-1.2992-1.97l.0005-39.724c2.9196 1.648 5.9907 5.014 8.7474 10.565 4.037 8.127 6.668 19.683 6.668 32.704 0 4.887-.37 9.569-1.047 13.939zm8.943 3.391c.966-5.458 1.482-11.293 1.482-17.33 0-14.155-2.839-27.202-7.649-36.884-.505-1.017-1.041-2.014-1.608-2.982 14.454 7.377 24.352 22.415 24.352 39.766 0 3.503-.403 6.911-1.166 10.182-.126-.032-.126-.034-.126-.034l.002-.005.002-.009.004-.015.003-.012s-.004.014-.013.043c-.016.056-.049.166-.102.318-.107.309-.289.778-.567 1.335-.563 1.131-1.46 2.5-2.807 3.64-1.864 1.578-5.333 3.347-11.807 1.987zm-2.135 9.136c-1.116 3.776-2.47 7.274-4.032 10.418-.455.918-.936 1.819-1.443 2.697 5.889-3.036 11.014-7.347 15.012-12.568-2.809.352-5.979.219-9.537-.547zm-25.0423 27.428c29.4173-.441 53.1323-24.445 53.1323-53.994 0-29.825-24.158-54-53.9556-54-29.7974 0-53.9554 24.175-53.9554 54s24.158 54 53.9554 54c.0744 0 .1484 0 .2228-.001.0443.001.088.001.1322.001.1565 0 .3124-.002.4683-.006z" fill="#364153" fill-rule="evenodd"/></g></svg>