<svg width="600" height="300" viewBox="0 0 600 300" fill="none" xmlns="http://www.w3.org/2000/svg">
<path d="M248.369 178.181C240.024 178.181 233.504 173.458 233.504 164.529C233.504 154.76 241.328 151.007 249.869 151.007H256.845C261.148 151.007 263.104 149.325 263.104 146.349C263.104 142.467 259.518 140.591 254.889 140.591C249.347 140.591 245.826 143.243 245.5 147.966H235.199C235.851 138.779 241.849 132.827 254.759 132.827C267.668 132.827 272.949 139.038 272.949 147.643V165.952C272.949 168.023 273.731 168.799 275.818 168.799H277.448V176.822H270.733C266.038 176.822 263.43 174.493 263.43 170.481V168.864H263.3C260.561 175.205 255.02 178.181 248.369 178.181ZM251.434 170.287C257.301 170.287 263.104 166.664 263.104 157.8V153.854H262.974C261.67 156.507 259.127 157.8 254.693 157.995L251.499 158.124C246.348 158.253 244.132 160.841 244.132 164.206C244.132 167.57 246.348 170.352 251.499 170.352L251.434 170.287Z" fill="#969CA5"/>
<path d="M284.163 165.305V142.208H275.883V134.185H284.163V122.54H294.073V134.185H307.047V142.208H294.073V163.882C294.073 167.505 295.964 168.929 299.224 168.929H307.243V176.951H295.833C288.14 176.951 284.098 173.134 284.098 165.37L284.163 165.305Z" fill="#969CA5"/>
<path d="M309.652 155.536C309.652 141.367 318.519 132.891 330.907 132.891C343.295 132.891 351.575 140.202 351.575 153.918V158.318H320.149C320.475 165.629 324.583 170.416 331.168 170.416C335.928 170.416 339.513 167.828 340.883 163.752H351.053C349.163 172.293 341.665 178.18 331.038 178.18C318.324 178.18 309.718 169.64 309.718 155.536H309.652ZM341.665 151.265C341.665 145.054 337.883 140.655 331.168 140.655C324.452 140.655 320.866 145.313 320.215 151.265H341.665Z" fill="#969CA5"/>
<path d="M358.357 134.184H368.072V140.913H368.203C370.224 136.643 372.962 134.184 378.7 134.184H382.873V142.207H376.939C371.006 142.207 368.268 145.377 368.268 152.365V176.886H358.423V134.184H358.357Z" fill="#969CA5"/>
<path d="M385.219 162.717H395.39C395.65 168.087 399.041 170.416 404.126 170.416C409.211 170.416 412.341 167.958 412.341 164.141C412.341 160.776 410.255 158.771 404.909 158.771H400.214C391.217 158.771 386.001 153.854 386.001 146.672C386.001 138.52 392.651 132.891 403.93 132.891C415.21 132.891 421.86 138.973 422.121 148.031H412.015C411.754 143.243 409.146 140.655 403.866 140.655C399.171 140.655 396.302 142.855 396.302 146.348C396.302 149.519 398.714 151.071 402.692 151.071H407.843C418.144 151.071 422.838 156.829 422.838 163.817C422.838 172.293 416.123 178.245 404.126 178.245C392.13 178.245 385.414 172.163 385.153 162.782L385.219 162.717Z" fill="#969CA5"/>
<path d="M429.687 122.668H439.531V133.667C439.531 135.608 439.531 137.096 439.401 140.719H439.531C441.813 136.061 446.247 132.891 452.441 132.891C461.242 132.891 467.306 138.973 467.306 149.324V176.886H457.461V151.265C457.461 143.631 454.201 140.719 449.311 140.719C444.421 140.719 439.531 143.89 439.531 152.43V176.886H429.687V122.668Z" fill="#969CA5"/>
<path d="M474.019 155.536C474.019 141.367 482.82 132.891 495.273 132.891C507.726 132.891 515.941 140.202 515.941 153.918V158.318H484.516C484.841 165.629 488.949 170.416 495.534 170.416C500.293 170.416 503.88 167.828 505.248 163.752H515.42C513.528 172.293 506.031 178.18 495.404 178.18C482.624 178.18 474.083 169.64 474.083 155.536H474.019ZM506.031 151.265C506.031 145.054 502.25 140.655 495.534 140.655C488.819 140.655 485.233 145.313 484.58 151.265H506.031Z" fill="#969CA5"/>
<path d="M520.832 155.536C520.832 140.719 529.96 132.891 540.001 132.891C546.585 132.891 551.801 136.255 554.41 141.69H554.54C554.41 140.202 554.41 138.908 554.41 137.355V122.668H564.254V176.886H554.475V174.039C554.475 172.486 554.475 171.063 554.54 169.445H554.41C551.801 174.881 546.585 178.245 540.001 178.245C529.96 178.245 520.832 170.416 520.832 155.6V155.536ZM542.934 170.416C550.107 170.416 554.41 164.529 554.41 155.536C554.41 146.542 550.107 140.655 542.934 140.655C535.763 140.655 531.394 146.542 531.394 155.536C531.394 164.529 535.697 170.416 542.934 170.416Z" fill="#969CA5"/>
<path fill-rule="evenodd" clip-rule="evenodd" d="M197.494 156.546L206.577 176.498H214.661L239.306 122.216H227.962L210.684 162.652H210.489L193.342 122.216H181.866L192.621 145.841L184.474 164.852H184.344L167.132 122.216H155.722L180.432 176.498H188.452L197.494 156.546Z" fill="#969CA5"/>
<mask id="mask0_1505_26147" style="mask-type:luminance" maskUnits="userSpaceOnUse" x="34" y="96" width="108" height="108">
<path d="M34 96H141.911V204H34V96Z" fill="white"/>
</mask>
<g mask="url(#mask0_1505_26147)">
<path fill-rule="evenodd" clip-rule="evenodd" d="M43.5736 145.791C43.444 147.176 43.3778 148.58 43.3778 150C43.3778 167.683 53.6592 182.965 68.5672 190.182C67.953 189.147 67.374 188.077 66.8309 186.984C62.0222 177.302 59.1826 164.255 59.1826 150.1C59.1826 145.634 59.4653 141.277 60.0035 137.102C55.9534 136.977 53.2371 137.789 51.2865 138.801C48.7143 140.136 47.131 141.887 45.2227 143.997C44.7056 144.569 44.1646 145.167 43.5736 145.791ZM48.1502 129.896C51.8133 128.251 56.217 127.419 61.6938 127.79C62.9738 122.407 64.711 117.485 66.8309 113.216C67.4232 112.024 68.0583 110.86 68.7351 109.736C59.8478 113.993 52.5895 121.11 48.1502 129.896ZM83.2666 107.264C80.5627 109.036 77.7628 112.293 75.228 117.396C73.5262 120.823 72.0742 124.859 70.9639 129.357C76.006 130.72 79.9876 132.972 83.2665 135.672L83.2666 107.264ZM83.2665 149.504C79.6244 144.478 75.6432 140.561 69.2621 138.633C68.806 142.281 68.5604 146.122 68.5604 150.1C68.5604 163.121 71.1916 174.677 75.228 182.804C77.7627 187.907 80.5626 191.164 83.2665 192.936L83.2665 149.504ZM92.6441 193.369V163.283C95.7751 167.271 99.6367 171.034 104.925 173.573C103.935 176.985 102.742 180.086 101.392 182.804C98.6353 188.356 95.5642 191.721 92.6441 193.369ZM107.013 164.039C101.977 160.934 98.7799 155.995 94.8843 149.976C94.5752 149.499 94.2622 149.015 93.9433 148.525C93.5203 147.874 93.0882 147.216 92.6441 146.555L92.6446 106.831C95.5642 108.479 98.6353 111.845 101.392 117.396C105.429 125.523 108.06 137.079 108.06 150.1C108.06 154.987 107.69 159.669 107.013 164.039ZM115.956 167.43C116.922 161.972 117.438 156.137 117.438 150.1C117.438 135.945 114.599 122.898 109.789 113.216C109.284 112.199 108.748 111.202 108.181 110.234C122.635 117.611 132.533 132.649 132.533 150C132.533 153.503 132.13 156.911 131.367 160.182C131.241 160.15 131.241 160.149 131.241 160.148L131.243 160.143L131.245 160.134L131.249 160.119L131.252 160.107C131.252 160.107 131.248 160.121 131.239 160.15C131.223 160.206 131.19 160.316 131.137 160.468C131.03 160.777 130.848 161.246 130.57 161.803C130.007 162.934 129.11 164.303 127.763 165.443C125.899 167.021 122.43 168.79 115.956 167.43ZM113.821 176.566C112.705 180.342 111.351 183.84 109.789 186.984C109.334 187.902 108.853 188.803 108.346 189.681C114.235 186.645 119.36 182.334 123.358 177.113C120.549 177.465 117.379 177.332 113.821 176.566ZM88.7787 203.994C118.196 203.553 141.911 179.549 141.911 150C141.911 120.175 117.753 96 87.9554 96C58.158 96 34 120.175 34 150C34 179.825 58.158 204 87.9554 204C88.0298 204 88.1038 204 88.1782 203.999C88.2225 204 88.2662 204 88.3104 204C88.4669 204 88.6228 203.998 88.7787 203.994Z" fill="#969CA5"/>
</g>
</svg>
