<svg fill="none" height="240" viewBox="0 0 600 240" width="600" xmlns="http://www.w3.org/2000/svg"><path d="m152.983 70c-27.56 0-49.983 22.4197-49.983 49.975 0 27.556 22.423 49.976 49.983 49.976s49.982-22.42 49.982-49.976c0-27.5553-22.422-49.975-49.982-49.975zm0 4.2963c3.852 0 7.606.4937 11.211 1.3827-1.383 11.9013-5.235 25.333-11.211 25.333s-9.829-13.4317-11.212-25.333c3.556-.9383 7.31-1.3827 11.212-1.3827zm-19.904 4.4937c2.815 11.457 11.508 24.988 19.855 25.037 8.396 0 17.039-13.5307 19.855-25.037 2.271 1.0867 4.444 2.3707 6.519 3.852-4.396 10.3703-14.126 25.037-26.374 25.383-12.2-.346-21.979-15.0127-26.375-25.383 2.075-1.432 4.248-2.716 6.52-3.852zm19.904 86.914c-3.853 0-7.606-.494-11.212-1.383 1.383-11.901 5.236-25.333 11.212-25.333s9.828 13.432 11.211 25.333c-3.605.939-7.359 1.383-11.211 1.383zm19.855-4.543c-2.816-11.457-11.508-24.988-19.855-25.038-8.396 0-17.04 13.532-19.855 25.038-2.272-1.087-4.445-2.371-6.519-3.852 4.395-10.37 14.125-25.038 26.374-25.383 12.199.345 21.978 15.013 26.374 25.383-2.074 1.481-4.247 2.765-6.519 3.852zm13.681-10.124c-6.125-9.136-19.361-21.926-33.536-21.926s-27.412 12.79-33.536 21.926c-1.679-1.827-3.211-3.753-4.594-5.827 6.471-8.346 20.053-20.346 38.13-20.346 18.027 0 31.659 12 38.129 20.346-1.383 2.074-2.914 4-4.593 5.827zm12.15-31.062c0 5.778-1.087 11.309-3.063 16.395-10.322-8.592-26.176-14.271-42.672-14.271-16.497 0-32.351 5.679-42.674 14.321-1.975-5.087-3.062-10.617-3.062-16.395s1.087-11.309 3.062-16.395c10.323 8.592 26.177 14.321 42.674 14.321 16.496 0 32.35-5.679 42.672-14.272 1.976 4.988 3.063 10.519 3.063 16.296zm-45.686-4.889c-18.028 0-31.659-12-38.13-20.3453 1.383-2.074 2.915-4 4.594-5.827 6.124 9.1356 19.361 21.9263 33.536 21.9263s27.411-12.7907 33.536-21.9263c1.679 1.827 3.21 3.753 4.544 5.827-6.471 8.3453-20.053 20.3453-38.08 20.3453zm277.573-8.592c-.594 1.136-3.211 4.741-8.645 4.741-4.294 0-7.011-2.272-8.198-5.828.593.05 1.233.099 1.827.099 8.448 0 14.029-3.506 14.029-8.543 0-4.5433-4.544-7.753-10.769-7.753-9.234 0-15.112 5.8763-15.112 14.667 0 8.543 5.481 14.074 13.432 14.074 9.632 0 13.586-8.149 13.979-11.358.1-.395-.297-.593-.543-.099zm-17.533-5.531c0-4.4443 1.48-10.1233 5.037-10.1233 1.434 0 2.371 1.432 2.321 4.4443 0 5.037-2.517 8.198-6.965 9.136-.196-1.037-.393-2.222-.393-3.457zm-195.734-18.173c-.296-.296-.346-.938.395-.9877h.099 13.286c.493 0 .493.099.691.247.791.395 5.433 10.4197 3.457 19.8027 4.396-8.0497 8.199-13.4323 8.249-13.6297.296-.3953.543-.494.839-.3456.395.1973.346.543.297.6913-1.531 7.4567-.396 15.358 1.975 19.407 2.272 3.803 6.866 4.889 8.495.988 4.1-9.4813-6.174-20.889-8.198-23.0123-.939-.9877-.642-1.7777-.395-2.074 4.444-4.247 10.421-2.716 12.446.5923 1.975 3.2593 3.802 8.3457 1.284 17.284-1.383 4.938-4.643 14.617-15.657 16.296-2.124.297-2.865-.493-3.605-1.53-1.482-2.075-3.309-6.519-2.569-12.247.346-2.667.939-4.3953 1.729-6.7163l-.395.6913c-3.408 6.321-7.013 13.481-10.52 18.716l-.395.593c-.396.592-.84.691-1.087.543-.247-.099-.197-.543-.049-1.136 4.099-16.593-6.964-30.1233-10.372-34.173zm142.787 33.877c1.136-1.976 1.679-3.852 1.728-6.025v-.395-12.494c0-3.2097-.889-4.4443-1.481-5.185-.099-.099-.099-.3457.049-.395h.049l9.682-2.667c.543-.1973.69-.1973.887-.1973.2 0 .297.0986.297.2963 0 .9877-.097 3.4567-.197 6.074 1.68-4.0493 4.691-6.3703 8.198-6.3703 3.41 0 5.781 2.2223 6.521 6.1233l.05.2963h.096c1.484-4.148 4.544-6.469 8.102-6.469 4.247 0 6.717 3.3087 6.864 8.9877v12.049c0 2.223.543 4.593 1.484 6.371.046.197 0 .345-.1.345h-.05-12.002c-.197 0-.297-.197-.197-.345.937-1.926 1.434-3.803 1.48-5.926v-.395-11.457c0-2.42-.937-3.852-2.42-3.852-1.777 0-2.964 1.926-3.011 5.333v9.976c0 2.222.641 4.543 1.481 6.37.05.198 0 .346-.097.346h-.05-12.002c-.2 0-.297-.198-.2-.346.89-1.975 1.434-3.802 1.484-5.926v-.395-11.4567c0-2.4196-.94-3.852-2.421-3.852-1.777 0-2.963 1.926-3.013 5.3337v.296 9.679c0 2.222.593 4.593 1.483 6.37.097.198 0 .346-.1.346h-.1-12.247c-.247-.099-.297-.296-.247-.444zm-42.772 1.333c7.754 0 11.656-5.333 13.088-9.086 1.482 4.987 5.631 9.086 14.077 9.086 8.248 0 14.273-6.37 14.273-15.111 0-7.358-4.889-13.679-14.57-13.679-8.396 0-14.57 6.321-14.471 14.913 0 1.136.099 2.223.296 3.26-1.136 1.481-3.704 3.901-8.051 3.901-5.827 0-8.791-4.395-8.791-10.469 0-4.247 1.432-9.9753 4.593-9.9753 2.569 0 3.408 4 2.371 8.9873-.197.692.05.84.395.692l7.507-2.2227.099-.0493c.988-.395 1.087-1.3827.395-2.568-2.617-4.5927-6.223-6.5187-10.717-6.5187-7.557 0-14.027 5.284-14.027 14.6667.099 8.543 5.482 14.173 13.533 14.173zm26.226-27.1603h.099.197c2.717.0986 4.05 4.543 4.544 12.5923.395 8.346-.593 12.84-3.457 13.037-2.914.099-4.297-4.296-4.741-12.691-.445-8.2967.493-12.741 3.358-12.9383zm-54.131 15.8023c.049-.494-.347-.642-.593-.198-.593 1.136-3.21 4.741-8.643 4.741-4.298 0-7.014-2.271-8.199-5.827.543.049 1.136.099 1.827.099 8.446 0 14.027-3.506 14.027-8.5433 0-4.5434-4.445-7.7534-10.767-7.7534-9.236 0-15.114 5.8767-15.163 14.6667 0 8.543 5.532 14.074 13.483 14.074 9.681.099 13.632-8.049 14.028-11.259zm-18.127-5.679c0-4.4443 1.482-10.1233 5.038-10.1233 1.432 0 2.371 1.432 2.371 4.4443 0 5.037-2.568 8.198-7.013 9.136-.248-1.037-.396-2.222-.396-3.457zm17.287-17.432c-.099-.099-.099-.3457.049-.3953h.049l11.311-3.259c.395-.1977.642-.247.79-.247.198 0 .296.0986.296.2963 0 .2963-.197 1.4813-.197 3.4073v26.9137c0 2.222.79 4.543 1.729 6.37.099.198 0 .346-.099.346h-.05-12.495c-.198 0-.296-.198-.198-.346.988-1.975 1.63-3.802 1.729-5.926v-19.9997c0-2.5183-.84-4.5433-2.223-6.2223l-.198-.2467zm207.883 63.21c-.593 1.136-3.21 4.741-8.645 4.741-4.293 0-7.011-2.321-8.197-5.877.543.05 1.136.099 1.827.099 8.447 0 14.028-3.506 14.028-8.543 0-4.544-4.447-7.753-10.768-7.753-9.138 0-15.112 5.876-15.162 14.765 0 8.543 5.531 14.074 13.482 14.074 9.631 0 13.582-8.148 13.979-11.358.1-.444-.347-.642-.544-.148zm-17.583-5.58c0-4.445 1.481-10.124 5.038-10.124 1.48 0 2.37 1.432 2.32 4.445 0 5.037-2.517 8.148-6.964 9.136-.197-1.038-.394-2.223-.394-3.457zm-10.471 15.654c.05.198 0 .346-.097.346h-.05-12.448c-.197 0-.294-.198-.197-.346.987-1.975 1.63-3.802 1.68-5.926v-.395-19.555c0-2.519-.84-4.544-2.223-6.223l-.197-.247-.544-.642c-.1-.098-.1-.345.05-.395h.05l11.309-3.259c.397-.198.643-.247.79-.247.2 0 .297.099.297.296 0 .297-.197 1.482-.197 3.408v26.963c.05 2.024.84 4.346 1.777 6.222zm-177.508-26.123v.049l-.889 2.074c-.049.099-.099.247-.296.247h-.049-5.532v17.136c0 2.568 1.136 3.703 3.259 3.703 1.284 0 2.273-.296 2.816-.938.197-.197.247-.247.345-.247.247 0 .247.247.198.543-1.185 3.21-4.247 4.889-8.446 4.889-4.988 0-7.557-2.617-7.655-7.259v-.247-17.531h-3.803c-.198 0-.297-.099-.297-.247 0-.198.099-.345.544-.642l.098-.049 11.904-7.951c.493-.296.691-.395.889-.395.197 0 .296.099.296.297 0 .395-.198 2.815-.198 6.123v.296h6.52c.247-.098.395-.049.296.149zm56.848 16.049c-.592 1.136-3.21 4.741-8.643 4.741-4.297 0-7.013-2.321-8.199-5.877.544.05 1.136.099 1.828.099 8.445 0 14.026-3.506 14.026-8.543 0-4.544-4.543-7.753-10.766-7.753-9.237 0-15.114 5.876-15.114 14.765 0 8.543 5.482 14.074 13.434 14.074 9.631 0 13.582-8.148 13.977-11.358.099-.444-.345-.642-.543-.148zm-17.583-5.58c0-4.445 1.482-10.124 5.038-10.124 1.432 0 2.321 1.432 2.371 4.445 0 5.037-2.569 8.148-7.014 9.136-.197-1.038-.395-2.223-.395-3.457zm-10.174 15.703c.049.198 0 .346-.099.346h-.049-12.496c-.197 0-.296-.197-.197-.346.987-1.975 1.629-3.802 1.679-5.925v-.396-11.16c0-2.716-.939-4.148-2.717-4.148-2.074 0-3.259 1.925-3.309 5.629v9.679c0 2.223.79 4.543 1.729 6.371.049.197 0 .346-.099.346h-.049-12.446c-.198 0-.297-.198-.198-.346.988-1.975 1.63-3.803 1.679-5.926v-.395-19.556c0-2.519-.839-4.543-2.223-6.222l-.197-.247-.543-.642c-.099-.099-.099-.346.049-.395h.049l11.311-3.259c.493-.247.642-.297.79-.297.198 0 .296.099.296.297 0 .296-.197 1.481-.197 3.407v11.753c1.728-3.852 4.642-6.024 8.396-6.024 4.544 0 7.063 3.308 7.162 9.284v11.753c-.049 2.222.741 4.543 1.679 6.419zm47.762-34.469c-1.138 1.185-2.027 2.519-2.076 4.939v22.617c0 9.778-4.742 14.222-15.064 14.222-.543 0-.988-.049-1.235-.099-.395-.099-.494-.493-.099-.691 4.1-1.778 6.471-5.581 6.619-10.519v-25.135c0-2.618-.939-4.05-2.075-5.284-.099-.099-.197-.395.05-.494h13.73v.049c.296-.049.296.247.15.395zm29.384 34.469c.05.198 0 .346-.097.346h-.05-10.521c-.197 0-.297-.05-.297-.247v-.049-5.037c-1.677 4.049-4.691 6.37-8.494 6.37-4.544 0-7.062-3.308-7.162-9.234v-11.013c0-3.21-.84-4.543-1.48-5.185-.1-.099-.1-.346.05-.395h.047l9.681-2.667c.544-.198.694-.197.891-.197.196 0 .296.049.296.247v18.666c0 2.716.937 4.149 2.717 4.149 2.074 0 3.257-1.926 3.307-5.63v-8.938c0-3.21-.84-4.544-1.48-5.186-.1-.098-.1-.345.047-.395h.05l9.681-2.666c.347-.297.544-.346.69-.346.201 0 .297.049.297.247v.049 20.741c.15 2.173.89 4.494 1.827 6.37zm29.785 0c.046.198 0 .346-.1.346h-.05-12.446c-.196 0-.296-.197-.196-.346.987-1.975 1.63-3.802 1.677-5.925v-.396-11.16c0-2.716-.937-4.148-2.714-4.148-2.077 0-3.261 1.925-3.311 5.629v.297 9.382c0 2.223.644 4.593 1.731 6.371.046.197 0 .346-.1.346h-.05-12.446c-.246 0-.296-.198-.246-.346 1.133-1.975 1.677-3.852 1.727-6.025v-.395-12.494c0-3.259-.887-4.444-1.481-5.185-.1-.099-.1-.346.047-.395h.05l9.682-2.667c.543-.198.69-.197.89-.197.196 0 .296.099.296.296 0 .988-.1 3.457-.2 6.074 1.484-4.099 4.544-6.42 8.398-6.42 4.444 0 7.015 3.309 7.161 9.284v.297 11.456c-.05 2.124.691 4.445 1.681 6.321zm-175.88-27.506c-8.396 0-14.57 6.222-14.57 14.815 0 2.519.494 4.988 1.63 7.21-1.235 1.481-2.618 2.272-4.247 2.272-2.075 0-3.26-1.235-3.26-3.457v-17.136h6.075.049c.099 0 .099-.099.247-.296l.988-2.025v-.049c0-.198-.198-.247-.346-.247h-7.063v-.297c.05-3.309.247-5.728.247-6.123 0-.198-.098-.296-.296-.296s-.395.098-.791.345l-11.902 7.951-.099.049c-.395.297-.543.494-.543.642 0 .099.098.247.296.247h3.754v17.778c.098 4.642 3.012 7.259 8.099 7.259 4.298 0 7.755-1.975 9.583-5.531 2.222 3.309 6.124 5.63 12.495 5.63 8.248 0 14.274-6.37 14.274-15.111-.049-7.309-4.89-13.63-14.62-13.63zm.741 27.309c-2.914.197-4.297-4.296-4.741-12.691-.395-8.346.543-12.791 3.408-12.988h.098.198c2.716.099 4.099 4.543 4.544 12.592.345 8.396-.642 12.889-3.507 13.087zm195.932-2.963h-9.782c-2.123-.05-3.307-.79-3.307-2.074 0-.642.197-1.185.544-1.729 1.63.544 3.507.791 5.777.791 7.261 0 12.495-4.741 12.495-11.112 0-3.753-2.023-7.061-6.024-8.839h6.914c.197 0 .247-.099.247-.296 0-2.025-2.617-4.642-3.607-4.642-.097 0-.293.049-.59.246-1.237.692-2.864 2.075-4.447 4.248-1.481-.396-3.208-.642-5.185-.642-7.311 0-12.742 4.592-12.742 10.864 0 3.605 1.677 7.308 6.125 9.136-3.607.987-6.028 3.506-6.028 6.172 0 2.223 1.187 3.803 3.411 4.741-2.127 1.63-3.211 3.457-3.211 5.037 0 2.667 2.961 4.395 7.011 4.395 6.965 0 19.61-5.234 19.61-11.407 0-3.161-2.571-4.889-7.211-4.889zm-7.558-22.667h.1.097c2.123.099 3.41 3.21 3.754 8.84.346 5.728-.494 9.036-2.864 9.136-2.124.049-3.604-2.716-4.001-8.939-.296-5.827.74-8.938 2.914-9.037zm2.274 35.26c-3.704 0-8.398-.988-10.422-5.631 1.184.395 2.667.643 4.394.643h8.101c2.371 0 3.457.79 3.457 2.123 0 1.679-2.273 2.865-5.53 2.865z" fill="#364153"/></svg>