<svg width="600" height="240" viewBox="0 0 600 240" fill="none" xmlns="http://www.w3.org/2000/svg">
<path d="M152.983 70C125.423 70 103 92.4197 103 119.975C103 147.531 125.423 169.951 152.983 169.951C180.543 169.951 202.965 147.531 202.965 119.975C202.965 92.4197 180.543 70 152.983 70ZM152.983 74.2963C156.835 74.2963 160.589 74.79 164.194 75.679C162.811 87.5803 158.959 101.012 152.983 101.012C147.007 101.012 143.154 87.5803 141.771 75.679C145.327 74.7407 149.081 74.2963 152.983 74.2963ZM133.079 78.79C135.894 90.247 144.587 103.778 152.934 103.827C161.33 103.827 169.973 90.2963 172.789 78.79C175.06 79.8767 177.233 81.1607 179.308 82.642C174.912 93.0123 165.182 107.679 152.934 108.025C140.734 107.679 130.955 93.0123 126.559 82.642C128.634 81.21 130.807 79.926 133.079 78.79ZM152.983 165.704C149.13 165.704 145.377 165.21 141.771 164.321C143.154 152.42 147.007 138.988 152.983 138.988C158.959 138.988 162.811 152.42 164.194 164.321C160.589 165.26 156.835 165.704 152.983 165.704ZM172.838 161.161C170.022 149.704 161.33 136.173 152.983 136.123C144.587 136.123 135.943 149.655 133.128 161.161C130.856 160.074 128.683 158.79 126.609 157.309C131.004 146.939 140.734 132.271 152.983 131.926C165.182 132.271 174.961 146.939 179.357 157.309C177.283 158.79 175.11 160.074 172.838 161.161ZM186.519 151.037C180.394 141.901 167.158 129.111 152.983 129.111C138.808 129.111 125.571 141.901 119.447 151.037C117.768 149.21 116.236 147.284 114.853 145.21C121.324 136.864 134.906 124.864 152.983 124.864C171.01 124.864 184.642 136.864 191.112 145.21C189.729 147.284 188.198 149.21 186.519 151.037ZM198.669 119.975C198.669 125.753 197.582 131.284 195.606 136.37C185.284 127.778 169.43 122.099 152.934 122.099C136.437 122.099 120.583 127.778 110.26 136.42C108.285 131.333 107.198 125.803 107.198 120.025C107.198 114.247 108.285 108.716 110.26 103.63C120.583 112.222 136.437 117.951 152.934 117.951C169.43 117.951 185.284 112.272 195.606 103.679C197.582 108.667 198.669 114.198 198.669 119.975ZM152.983 115.086C134.955 115.086 121.324 103.086 114.853 94.7407C116.236 92.6667 117.768 90.7407 119.447 88.9137C125.571 98.0493 138.808 110.84 152.983 110.84C167.158 110.84 180.394 98.0493 186.519 88.9137C188.198 90.7407 189.729 92.6667 191.063 94.7407C184.592 103.086 171.01 115.086 152.983 115.086ZM430.556 106.494C429.962 107.63 427.345 111.235 421.911 111.235C417.617 111.235 414.9 108.963 413.713 105.407C414.306 105.457 414.946 105.506 415.54 105.506C423.988 105.506 429.569 102 429.569 96.963C429.569 92.4197 425.025 89.21 418.8 89.21C409.566 89.21 403.688 95.0863 403.688 103.877C403.688 112.42 409.169 117.951 417.12 117.951C426.752 117.951 430.706 109.802 431.099 106.593C431.199 106.198 430.802 106 430.556 106.494ZM413.023 100.963C413.023 96.5187 414.503 90.8397 418.06 90.8397C419.494 90.8397 420.431 92.2717 420.381 95.284C420.381 100.321 417.864 103.482 413.416 104.42C413.22 103.383 413.023 102.198 413.023 100.963ZM217.289 82.79C216.993 82.494 216.943 81.852 217.684 81.8023H217.783H231.069C231.562 81.8023 231.562 81.9013 231.76 82.0493C232.551 82.4443 237.193 92.469 235.217 101.852C239.613 93.8023 243.416 88.4197 243.466 88.2223C243.762 87.827 244.009 87.7283 244.305 87.8767C244.7 88.074 244.651 88.4197 244.602 88.568C243.071 96.0247 244.206 103.926 246.577 107.975C248.849 111.778 253.443 112.864 255.072 108.963C259.172 99.4817 248.898 88.074 246.874 85.9507C245.935 84.963 246.232 84.173 246.479 83.8767C250.923 79.6297 256.9 81.1607 258.925 84.469C260.9 87.7283 262.727 92.8147 260.209 101.753C258.826 106.691 255.566 116.37 244.552 118.049C242.428 118.346 241.687 117.556 240.947 116.519C239.465 114.444 237.638 110 238.378 104.272C238.724 101.605 239.317 99.8767 240.107 97.5557L239.712 98.247C236.304 104.568 232.699 111.728 229.192 116.963L228.797 117.556C228.401 118.148 227.957 118.247 227.71 118.099C227.463 118 227.513 117.556 227.661 116.963C231.76 100.37 220.697 86.8397 217.289 82.79ZM360.076 116.667C361.212 114.691 361.755 112.815 361.804 110.642V110.247V97.753C361.804 94.5433 360.915 93.3087 360.323 92.568C360.224 92.469 360.224 92.2223 360.372 92.173H360.421L370.103 89.506C370.646 89.3087 370.793 89.3087 370.99 89.3087C371.19 89.3087 371.287 89.4073 371.287 89.605C371.287 90.5927 371.19 93.0617 371.09 95.679C372.77 91.6297 375.781 89.3087 379.288 89.3087C382.698 89.3087 385.069 91.531 385.809 95.432L385.859 95.7283H385.955C387.439 91.5803 390.499 89.2593 394.057 89.2593C398.304 89.2593 400.774 92.568 400.921 98.247V110.296C400.921 112.519 401.464 114.889 402.405 116.667C402.451 116.864 402.405 117.012 402.305 117.012H402.255H390.253C390.056 117.012 389.956 116.815 390.056 116.667C390.993 114.741 391.49 112.864 391.536 110.741V110.346V98.889C391.536 96.469 390.599 95.037 389.116 95.037C387.339 95.037 386.152 96.963 386.105 100.37V110.346C386.105 112.568 386.746 114.889 387.586 116.716C387.636 116.914 387.586 117.062 387.489 117.062H387.439H375.437C375.237 117.062 375.14 116.864 375.237 116.716C376.127 114.741 376.671 112.914 376.721 110.79V110.395V98.9383C376.721 96.5187 375.781 95.0863 374.3 95.0863C372.523 95.0863 371.337 97.0123 371.287 100.42V100.716V110.395C371.287 112.617 371.88 114.988 372.77 116.765C372.867 116.963 372.77 117.111 372.67 117.111H372.57H360.323C360.076 117.012 360.026 116.815 360.076 116.667ZM317.304 118C325.058 118 328.96 112.667 330.392 108.914C331.874 113.901 336.023 118 344.469 118C352.717 118 358.742 111.63 358.742 102.889C358.742 95.531 353.853 89.21 344.172 89.21C335.776 89.21 329.602 95.531 329.701 104.123C329.701 105.259 329.8 106.346 329.997 107.383C328.861 108.864 326.293 111.284 321.946 111.284C316.119 111.284 313.155 106.889 313.155 100.815C313.155 96.568 314.587 90.8397 317.748 90.8397C320.317 90.8397 321.156 94.8397 320.119 99.827C319.922 100.519 320.169 100.667 320.514 100.519L328.021 98.2963L328.12 98.247C329.108 97.852 329.207 96.8643 328.515 95.679C325.898 91.0863 322.292 89.1603 317.798 89.1603C310.241 89.1603 303.771 94.4443 303.771 103.827C303.87 112.37 309.253 118 317.304 118ZM343.53 90.8397H343.629H343.826C346.543 90.9383 347.876 95.3827 348.37 103.432C348.765 111.778 347.777 116.272 344.913 116.469C341.999 116.568 340.616 112.173 340.172 103.778C339.727 95.4813 340.665 91.037 343.53 90.8397ZM289.399 106.642C289.448 106.148 289.052 106 288.806 106.444C288.213 107.58 285.596 111.185 280.163 111.185C275.865 111.185 273.149 108.914 271.964 105.358C272.507 105.407 273.1 105.457 273.791 105.457C282.237 105.457 287.818 101.951 287.818 96.9137C287.818 92.3703 283.373 89.1603 277.051 89.1603C267.815 89.1603 261.937 95.037 261.888 103.827C261.888 112.37 267.42 117.901 275.371 117.901C285.052 118 289.003 109.852 289.399 106.642ZM271.272 100.963C271.272 96.5187 272.754 90.8397 276.31 90.8397C277.742 90.8397 278.681 92.2717 278.681 95.284C278.681 100.321 276.113 103.482 271.668 104.42C271.42 103.383 271.272 102.198 271.272 100.963ZM288.559 83.531C288.46 83.432 288.46 83.1853 288.608 83.1357H288.657L299.968 79.8767C300.363 79.679 300.61 79.6297 300.758 79.6297C300.956 79.6297 301.054 79.7283 301.054 79.926C301.054 80.2223 300.857 81.4073 300.857 83.3333V110.247C300.857 112.469 301.647 114.79 302.586 116.617C302.685 116.815 302.586 116.963 302.487 116.963H302.437H289.942C289.744 116.963 289.646 116.765 289.744 116.617C290.732 114.642 291.374 112.815 291.473 110.691V90.6913C291.473 88.173 290.633 86.148 289.25 84.469L289.052 84.2223L288.559 83.531ZM496.442 146.741C495.849 147.877 493.232 151.482 487.797 151.482C483.504 151.482 480.786 149.161 479.6 145.605C480.143 145.655 480.736 145.704 481.427 145.704C489.874 145.704 495.455 142.198 495.455 137.161C495.455 132.617 491.008 129.408 484.687 129.408C475.549 129.408 469.575 135.284 469.525 144.173C469.525 152.716 475.056 158.247 483.007 158.247C492.638 158.247 496.589 150.099 496.986 146.889C497.086 146.445 496.639 146.247 496.442 146.741ZM478.859 141.161C478.859 136.716 480.34 131.037 483.897 131.037C485.377 131.037 486.267 132.469 486.217 135.482C486.217 140.519 483.7 143.63 479.253 144.618C479.056 143.58 478.859 142.395 478.859 141.161ZM468.388 156.815C468.438 157.013 468.388 157.161 468.291 157.161H468.241H455.793C455.596 157.161 455.499 156.963 455.596 156.815C456.583 154.84 457.226 153.013 457.276 150.889V150.494V130.939C457.276 128.42 456.436 126.395 455.053 124.716L454.856 124.469L454.312 123.827C454.212 123.729 454.212 123.482 454.362 123.432H454.412L465.721 120.173C466.118 119.975 466.364 119.926 466.511 119.926C466.711 119.926 466.808 120.025 466.808 120.222C466.808 120.519 466.611 121.704 466.611 123.63V150.593C466.661 152.617 467.451 154.939 468.388 156.815ZM290.88 130.692V130.741L289.991 132.815C289.942 132.914 289.892 133.062 289.695 133.062H289.646H284.114V150.198C284.114 152.766 285.25 153.901 287.373 153.901C288.657 153.901 289.646 153.605 290.189 152.963C290.386 152.766 290.436 152.716 290.534 152.716C290.781 152.716 290.781 152.963 290.732 153.259C289.547 156.469 286.485 158.148 282.286 158.148C277.298 158.148 274.729 155.531 274.631 150.889V150.642V133.111H270.828C270.63 133.111 270.531 133.012 270.531 132.864C270.531 132.666 270.63 132.519 271.075 132.222L271.173 132.173L283.077 124.222C283.57 123.926 283.768 123.827 283.966 123.827C284.163 123.827 284.262 123.926 284.262 124.124C284.262 124.519 284.064 126.939 284.064 130.247V130.543H290.584C290.831 130.445 290.979 130.494 290.88 130.692ZM347.728 146.741C347.136 147.877 344.518 151.482 339.085 151.482C334.788 151.482 332.072 149.161 330.886 145.605C331.43 145.655 332.022 145.704 332.714 145.704C341.159 145.704 346.74 142.198 346.74 137.161C346.74 132.617 342.197 129.408 335.974 129.408C326.737 129.408 320.86 135.284 320.86 144.173C320.86 152.716 326.342 158.247 334.294 158.247C343.925 158.247 347.876 150.099 348.271 146.889C348.37 146.445 347.926 146.247 347.728 146.741ZM330.145 141.161C330.145 136.716 331.627 131.037 335.183 131.037C336.615 131.037 337.504 132.469 337.554 135.482C337.554 140.519 334.985 143.63 330.54 144.618C330.343 143.58 330.145 142.395 330.145 141.161ZM319.971 156.864C320.02 157.062 319.971 157.21 319.872 157.21H319.823H307.327C307.13 157.21 307.031 157.013 307.13 156.864C308.117 154.889 308.759 153.062 308.809 150.939V150.543V139.383C308.809 136.667 307.87 135.235 306.092 135.235C304.018 135.235 302.833 137.16 302.783 140.864V150.543C302.783 152.766 303.573 155.086 304.512 156.914C304.561 157.111 304.512 157.26 304.413 157.26H304.364H291.918C291.72 157.26 291.621 157.062 291.72 156.914C292.708 154.939 293.35 153.111 293.399 150.988V150.593V131.037C293.399 128.518 292.56 126.494 291.176 124.815L290.979 124.568L290.436 123.926C290.337 123.827 290.337 123.58 290.485 123.531H290.534L301.845 120.272C302.338 120.025 302.487 119.975 302.635 119.975C302.833 119.975 302.931 120.074 302.931 120.272C302.931 120.568 302.734 121.753 302.734 123.679V135.432C304.462 131.58 307.376 129.408 311.13 129.408C315.674 129.408 318.193 132.716 318.292 138.692V150.445C318.243 152.667 319.033 154.988 319.971 156.864ZM367.733 122.395C366.595 123.58 365.706 124.914 365.657 127.334V149.951C365.657 159.729 360.915 164.173 350.593 164.173C350.05 164.173 349.605 164.124 349.358 164.074C348.963 163.975 348.864 163.581 349.259 163.383C353.359 161.605 355.73 157.802 355.878 152.864V127.729C355.878 125.111 354.939 123.679 353.803 122.445C353.704 122.346 353.606 122.05 353.853 121.951H367.583V122C367.879 121.951 367.879 122.247 367.733 122.395ZM397.117 156.864C397.167 157.062 397.117 157.21 397.02 157.21H396.97H386.449C386.252 157.21 386.152 157.16 386.152 156.963V156.914V151.877C384.475 155.926 381.461 158.247 377.658 158.247C373.114 158.247 370.596 154.939 370.496 149.013V138C370.496 134.79 369.656 133.457 369.016 132.815C368.916 132.716 368.916 132.469 369.066 132.42H369.113L378.794 129.753C379.338 129.555 379.488 129.556 379.685 129.556C379.881 129.556 379.981 129.605 379.981 129.803V148.469C379.981 151.185 380.918 152.618 382.698 152.618C384.772 152.618 385.955 150.692 386.005 146.988V138.05C386.005 134.84 385.165 133.506 384.525 132.864C384.425 132.766 384.425 132.519 384.572 132.469H384.622L394.303 129.803C394.65 129.506 394.847 129.457 394.993 129.457C395.194 129.457 395.29 129.506 395.29 129.704V129.753V150.494C395.44 152.667 396.18 154.988 397.117 156.864ZM426.902 156.864C426.948 157.062 426.902 157.21 426.802 157.21H426.752H414.306C414.11 157.21 414.01 157.013 414.11 156.864C415.097 154.889 415.74 153.062 415.787 150.939V150.543V139.383C415.787 136.667 414.85 135.235 413.073 135.235C410.996 135.235 409.812 137.16 409.762 140.864V141.161V150.543C409.762 152.766 410.406 155.136 411.493 156.914C411.539 157.111 411.493 157.26 411.393 157.26H411.343H398.897C398.651 157.26 398.601 157.062 398.651 156.914C399.784 154.939 400.328 153.062 400.378 150.889V150.494V138C400.378 134.741 399.491 133.556 398.897 132.815C398.797 132.716 398.797 132.469 398.944 132.42H398.994L408.676 129.753C409.219 129.555 409.366 129.556 409.566 129.556C409.762 129.556 409.862 129.655 409.862 129.852C409.862 130.84 409.762 133.309 409.662 135.926C411.146 131.827 414.206 129.506 418.06 129.506C422.504 129.506 425.075 132.815 425.221 138.79V139.087V150.543C425.171 152.667 425.912 154.988 426.902 156.864ZM251.022 129.358C242.626 129.358 236.452 135.58 236.452 144.173C236.452 146.692 236.946 149.161 238.082 151.383C236.847 152.864 235.464 153.655 233.835 153.655C231.76 153.655 230.575 152.42 230.575 150.198V133.062H236.65H236.699C236.798 133.062 236.798 132.963 236.946 132.766L237.934 130.741V130.692C237.934 130.494 237.736 130.445 237.588 130.445H230.525V130.148C230.575 126.839 230.772 124.42 230.772 124.025C230.772 123.827 230.674 123.729 230.476 123.729C230.278 123.729 230.081 123.827 229.685 124.074L217.783 132.025L217.684 132.074C217.289 132.371 217.141 132.568 217.141 132.716C217.141 132.815 217.239 132.963 217.437 132.963H221.191V150.741C221.289 155.383 224.203 158 229.29 158C233.588 158 237.045 156.025 238.873 152.469C241.095 155.778 244.997 158.099 251.368 158.099C259.616 158.099 265.642 151.729 265.642 142.988C265.593 135.679 260.752 129.358 251.022 129.358ZM251.763 156.667C248.849 156.864 247.466 152.371 247.022 143.976C246.627 135.63 247.565 131.185 250.43 130.988H250.528H250.726C253.442 131.087 254.825 135.531 255.27 143.58C255.615 151.976 254.628 156.469 251.763 156.667ZM447.695 153.704H437.913C435.79 153.654 434.606 152.914 434.606 151.63C434.606 150.988 434.803 150.445 435.15 149.901C436.78 150.445 438.657 150.692 440.927 150.692C448.188 150.692 453.422 145.951 453.422 139.58C453.422 135.827 451.399 132.519 447.398 130.741H454.312C454.509 130.741 454.559 130.642 454.559 130.445C454.559 128.42 451.942 125.803 450.952 125.803C450.855 125.803 450.659 125.852 450.362 126.049C449.125 126.741 447.498 128.124 445.915 130.297C444.434 129.901 442.707 129.655 440.73 129.655C433.419 129.655 427.988 134.247 427.988 140.519C427.988 144.124 429.665 147.827 434.113 149.655C430.506 150.642 428.085 153.161 428.085 155.827C428.085 158.05 429.272 159.63 431.496 160.568C429.369 162.198 428.285 164.025 428.285 165.605C428.285 168.272 431.246 170 435.296 170C442.261 170 454.906 164.766 454.906 158.593C454.906 155.432 452.335 153.704 447.695 153.704ZM440.137 131.037H440.237H440.334C442.457 131.136 443.744 134.247 444.088 139.877C444.434 145.605 443.594 148.913 441.224 149.013C439.1 149.062 437.62 146.297 437.223 140.074C436.927 134.247 437.963 131.136 440.137 131.037ZM442.411 166.297C438.707 166.297 434.013 165.309 431.989 160.666C433.173 161.061 434.656 161.309 436.383 161.309H444.484C446.855 161.309 447.941 162.099 447.941 163.432C447.941 165.111 445.668 166.297 442.411 166.297Z" fill="#364153"/>
</svg>
