<svg fill="none" height="300" viewBox="0 0 600 300" width="600" xmlns="http://www.w3.org/2000/svg" xmlns:xlink="http://www.w3.org/1999/xlink"><clipPath id="a"><path d="m48 101h504v98h-504z"/></clipPath><g clip-path="url(#a)"><path d="m145.651 149.637c0 37.603-11.054 48.636-48.7268 48.636-37.673 0-48.7269-11.033-48.7269-48.636 0-37.604 11.0539-48.637 48.7269-48.637 37.6728 0 48.7268 11.033 48.7268 48.637z" fill="#fff"/><g fill="#364153"><path d="m96.9327 101c-37.6815 0-48.7354 11.033-48.7354 48.645s11.0539 48.645 48.7354 48.645c37.6813 0 48.7353-11.033 48.7353-48.645s-11.054-48.645-48.7353-48.645zm27.0173 54.914-2.836 4.427c-5.891 9.191-9.099 11.802-12.984 11.802-4.105 0-6.339-2.011-11.8236-10.873l-3.2079-5.179c-.6686-1.115-1.8621-.633-1.5658.634l.5586 2.272c1.9806 8.001-.9733 13.146-5.9332 13.146-3.8427 0-6.8981-2.121-13.5423-12.174l-2.7593-4.173c-4.215-6.37-5.7809-9.682-5.7809-13.999 0-5.433 3.9527-9.868 10.0298-9.868 4.6637 0 7.643 2.087 10.2583 7.181l.6687 1.301c.5247.972 1.4135.896 1.752 0l.4825-1.267c1.862-4.875 4.8837-7.223 9.6235-7.223 4.7396 0 7.9056 2.348 9.7336 7.223l.482 1.301c.339.853 1.304.929 1.752 0l.669-1.343c2.573-5.137 5.485-7.181 10.148-7.181 6.077 0 10.072 4.427 10.072 9.867 0 4.317-1.675 7.629-5.814 14.109z"/><path d="m201.929 152.872c-.39-1.461-1.566-1.461-1.956 0l-6.635 26.401h-18.054l-11.418-53.089h18.248l4.588 26.595c.195 1.268 1.76 1.268 2.048.102l7.025-26.697h12.688l6.932 26.494c.389 1.462 1.955 1.462 2.15.093l4.485-26.595h16.107l-11.418 53.089h-17.96l-6.83-26.401z"/><path d="m241.159 179.273v-66.251h18.054v22.016c0 1.166 1.362 1.462 2.15.194 4.486-7.113 8.294-10.036 15.717-10.036 10.445 0 15.718 7.502 15.718 19.194v34.875h-18.054v-24.644c0-7.012-1.566-11.785-7.414-11.785-5.273 0-8.1 3.996-8.1 11.591v24.838h-18.054z"/><path d="m337.394 179.273-1.761-7.502c-.296-1.36-1.269-1.36-2.243.093-3.419 5.162-7.219 8.381-15.125 8.381-10.927 0-21.083-9.454-21.083-27.567s10.148-27.474 21.083-27.474c7.906 0 11.714 3.219 15.125 8.381.974 1.462 1.956 1.462 2.243.101l1.761-7.502h15.421v53.089zm-12.104-38.972c-5.078 0-9.073 4.191-9.073 12.47s4.004 12.368 9.073 12.368c5.07 0 9.074-4.384 9.074-12.469s-4.004-12.369-9.074-12.369z"/><path d="m363.937 141.476h-6.542v-15.292c7.126-.093 9.758-1.951 11.324-11.396h13.272v11.396h13.567v15.292h-13.567v18.214c0 4.478 2.827 6.429 7.025 6.429 2.344 0 4.68-.684 6.542-1.656v14.709c-3.123.971-6.635 1.563-10.833 1.563-11.909 0-20.788-6.624-20.788-20.065z"/><path d="m400.146 179.273v-53.097h15.81l1.955 8.862c.297 1.166 1.659 1.462 2.438.194 4.486-7.113 8.295-10.036 15.718-10.036 10.444 0 15.717 7.502 15.717 19.194v34.875h-18.054v-24.644c0-7.012-1.557-11.785-7.414-11.785-5.273 0-8.1 3.996-8.1 11.591v24.838h-18.054z"/><path d="m456.169 153.16c0-17.632 11.714-28.446 28.109-28.446 16.394 0 28.108 10.814 28.108 28.446 0 17.631-11.714 27.566-28.108 27.566-16.395 0-28.109-10.518-28.109-27.566zm28.109-12.859c-5.079 0-9.074 4.191-9.074 12.47s4.004 12.368 9.074 12.368 9.073-4.384 9.073-12.469-4.003-12.369-9.073-12.369z"/><path d="m519.8 141.476h-6.542v-15.292c7.126-.093 9.759-1.951 11.325-11.396h13.271v11.396h13.568v15.292h-13.568v18.214c0 4.478 2.827 6.429 7.025 6.429 2.345 0 4.689-.684 6.543-1.656v14.709c-3.123.971-6.636 1.563-10.834 1.563-11.909 0-20.788-6.624-20.788-20.065z"/></g></g></svg>