<svg width="600" height="300" viewBox="0 0 600 300" fill="none" xmlns="http://www.w3.org/2000/svg">
<g clip-path="url(#clip0_2181_22572)">
<path d="M96.9329 101C59.2514 101 48.1975 112.033 48.1975 149.645C48.1975 187.257 59.2514 198.29 96.9329 198.29C134.614 198.29 145.668 187.257 145.668 149.645C145.668 112.033 134.614 101 96.9329 101ZM123.95 155.914L121.114 160.341C115.224 169.532 112.016 172.143 108.131 172.143C104.026 172.143 101.791 170.132 96.3066 161.27L93.0988 156.091C92.4301 154.976 91.2367 155.458 91.5329 156.725L92.0916 158.997C94.0721 166.998 91.1182 172.143 86.1583 172.143C82.3157 172.143 79.2602 170.022 72.616 159.969L69.8568 155.796C65.6417 149.426 64.0759 146.114 64.0759 141.797C64.0759 136.364 68.0285 131.929 74.1057 131.929C78.7693 131.929 81.7486 134.016 84.364 139.11L85.0326 140.411C85.5574 141.383 86.4461 141.307 86.7847 140.411L87.2671 139.144C89.1292 134.269 92.1508 131.921 96.8906 131.921C101.63 131.921 104.796 134.269 106.624 139.144L107.107 140.445C107.445 141.298 108.41 141.374 108.859 140.445L109.527 139.102C112.1 133.965 115.012 131.921 119.676 131.921C125.753 131.921 129.748 136.348 129.748 141.788C129.748 146.105 128.072 149.417 123.933 155.897L123.95 155.914Z" fill="#7B818D"/>
<path d="M201.928 152.873C201.539 151.411 200.362 151.411 199.973 152.873L193.337 179.273H175.284L163.866 126.184H182.114L186.702 152.78C186.896 154.047 188.462 154.047 188.75 152.881L195.775 126.184H208.462L215.394 152.678C215.784 154.14 217.35 154.14 217.544 152.771L222.03 126.176H238.137L226.719 179.265H208.759L201.928 152.864V152.873Z" fill="#7B818D"/>
<path d="M241.159 179.273V113.022H259.212V135.038C259.212 136.204 260.575 136.5 261.362 135.232C265.848 128.119 269.657 125.196 277.08 125.196C287.524 125.196 292.797 132.698 292.797 144.39V179.265H274.744V154.621C274.744 147.609 273.178 142.836 267.329 142.836C262.056 142.836 259.229 146.832 259.229 154.427V179.265H241.176L241.159 179.273Z" fill="#7B818D"/>
<path d="M337.394 179.273L335.633 171.771C335.337 170.411 334.364 170.411 333.39 171.864C329.971 177.026 326.171 180.245 318.265 180.245C307.338 180.245 297.182 170.791 297.182 152.678C297.182 134.565 307.33 125.204 318.265 125.204C326.171 125.204 329.979 128.423 333.39 133.585C334.364 135.047 335.345 135.047 335.633 133.686L337.394 126.184H352.815V179.273H337.394ZM325.29 140.301C320.212 140.301 316.217 144.492 316.217 152.771C316.217 161.05 320.22 165.139 325.29 165.139C330.36 165.139 334.364 160.755 334.364 152.67C334.364 144.585 330.36 140.301 325.29 140.301Z" fill="#7B818D"/>
<path d="M363.937 141.476H357.394V126.184C364.521 126.091 367.153 124.233 368.719 114.788H381.99V126.184H395.558V141.476H381.99V159.69C381.99 164.168 384.817 166.119 389.015 166.119C391.36 166.119 393.696 165.435 395.558 164.463V179.172C392.435 180.143 388.922 180.735 384.724 180.735C372.815 180.735 363.937 174.111 363.937 160.67V141.476Z" fill="#7B818D"/>
<path d="M400.146 179.273V126.176H415.956L417.911 135.038C418.208 136.204 419.57 136.5 420.349 135.233C424.835 128.119 428.644 125.196 436.067 125.196C446.511 125.196 451.784 132.698 451.784 144.391V179.265H433.73V154.621C433.73 147.609 432.173 142.836 426.316 142.836C421.043 142.836 418.216 146.832 418.216 154.427V179.265H400.162L400.146 179.273Z" fill="#7B818D"/>
<path d="M456.168 153.16C456.168 135.528 467.882 124.714 484.277 124.714C500.672 124.714 512.386 135.528 512.386 153.16C512.386 170.791 500.672 180.726 484.277 180.726C467.882 180.726 456.168 170.208 456.168 153.16ZM484.277 140.301C479.199 140.301 475.204 144.492 475.204 152.771C475.204 161.05 479.207 165.139 484.277 165.139C489.347 165.139 493.35 160.755 493.35 152.67C493.35 144.585 489.347 140.301 484.277 140.301Z" fill="#7B818D"/>
<path d="M519.8 141.476H513.258V126.184C520.384 126.091 523.017 124.233 524.582 114.788H537.854V126.184H551.422V141.476H537.854V159.69C537.854 164.168 540.681 166.119 544.879 166.119C547.224 166.119 549.568 165.435 551.422 164.463V179.172C548.298 180.143 544.786 180.735 540.588 180.735C528.679 180.735 519.8 174.111 519.8 160.67V141.476Z" fill="#7B818D"/>
</g>
<defs>
<clipPath id="clip0_2181_22572">
<rect width="504" height="98" fill="white" transform="translate(48 101)"/>
</clipPath>
</defs>
</svg>
