<svg fill="none" height="240" viewBox="0 0 600 240" width="600" xmlns="http://www.w3.org/2000/svg"><path d="m142.468 164.078c-17.97 0-20.693-2.112-19.771-6.167.67-2.872 15.373-58.1168 15.708-59.384 1.466-5.9131 7.624-4.4771 7.875-4.4349.168.0425.293.2113.252.3803-.545 4.7305-9.174 51.4016-9.258 51.9926-.712 4.604 0 5.069 5.655 5.069 27.94 0 38.077-19.471 40.842-35.014 4.776-26.9471-21.447-35.0143-58.016-31.7198-.335.0422-2.765.1691-3.812-.3378-1.383-.676-2.556-2.3654-2.849-3.2945-.125-.3378-.125-.6757 0-.8869.084-.1269.168-.2535.293-.2956 11.813-2.112 28.234-4.9418 38.832-3.8014 40.13 4.2657 40.13 29.734 37.784 42.616-1.299 7.476-8.085 45.278-53.535 45.278zm143.848-16.641c-2.597 8.911-10.514 15.078-19.73 15.331-7.749.423-15.499-4.012-18.892-10.854-1.34-2.577-2.094-5.364-2.387-8.659-1.174.549-2.388 1.056-3.603 1.436-1.592 4.52-4.357 8.701-8.169 11.573-8.168 6.124-19.226 7.898-29.154 2.408-12.232-8.49-10.724-25.596-2.179-35.648 8.504-10.052 24.129-11.742 31.962-6.8 5.32 3.463 8.168 9.419 8.922 15.628 1.131-.803 2.137-1.817 3.31-3.168 1.089-1.309 3.225-4.52 3.225-4.52 1.257-1.942 2.807-3.758 4.524-5.321 3.603-3.168 8.168-4.731 12.776-4.731 3.98 0 8.043 1.183 11.562 3.59 1.131.761 1.424 1.183 1.047 1.816-.503.93-1.047 1.774-1.717 2.577-1.257 1.52-2.556.971-3.435.591-.126-.042-.252-.127-.377-.169-3.938-1.394-7.163-1.098-10.515.929-7.246 4.435-8.336 13.051-6.995 19.64 1.382 6.716 5.069 8.997 7.959 9.715 5.278 1.351 12.357-1.521 16.839-6.843 1.341-1.605 3.393-.549 4.859.634.084.042.126.084.168.127.209.253 0 .675 0 .718zm-55.084-22.639c-5.404-6.758-15.206-4.477-20.735 1.774-5.53 6.293-5.614 16.599.419 20.949 5.654 4.055 14.661 1.901 19.101-4.604 3.1-4.561 5.906-12.248 1.215-18.119zm135.218 14.191c-.754 6.589-4.105 13.263-9.467 17.317-8.168 6.124-19.227 7.898-29.155 2.408-1.256-.887-2.388-1.859-3.351-2.915-1.675 1.521-3.644 3.041-5.823 4.351-6.66 4.054-15.959 2.999-21.698-2.408-3.645-3.294-5.404-8.743-4.733-14.276.586-4.899 4.942-21.794 9.006-36.914-3.98.126-7.457 0-9.384-.929-3.099-1.521-2.346-6.7157-2.052-8.1942.042-.211.251-.38.461-.38 1.508 0 7.205-.0422 13.53-.0844 2.639-9.7144 4.733-17.0212 4.733-17.0212.754-2.5767 3.561-3.9705 6.116-3.9705.503 0 .964.0425 1.424.1691.168.0422.252.2112.21.4225-.67 4.1814-1.969 11.7838-3.519 20.4001 3.435 0 6.535.0422 8.629.0844 7.373.169 17.091.5912 19.06.6756.209 0 .419.1691.461.3804.209.929.377 3.2522-2.262 4.7722-2.263 1.267-18.683 2.45-26.223 2.957-.419.042-.796.042-1.215.084-3.141 17.486-6.493 35.605-6.66 36.408-.838 4.224 1.801 6.8 4.147 7.307 4.314.929 7.833-.929 10.765-3.632-1.633-7.899.922-16.768 6.158-22.977 8.504-10.052 24.128-11.742 31.962-6.8 7.371 4.857 9.97 14.403 8.88 22.765zm-11.729-14.191c-5.404-6.758-15.206-4.477-20.735 1.774-5.529 6.293-5.613 16.599.419 20.949 5.655 4.055 14.661 1.901 19.101-4.604 3.1-4.561 5.907-12.248 1.215-18.119zm60.825-21.16c2.429 1.605 5.485.844 7.454-.634 1.34-1.013 2.219-2.661 2.429-4.4349.254-1.8582-.21-4.477-2.26-5.8283-.798-.5069-1.719-.7181-2.683-.7181-1.506 0-3.056.549-4.27 1.2669-.379.2534-.67.5069-.965.8447-.169.2113-.335.4647-.46.7181-1.719 3.0411-2.094 6.7996.755 8.7856zm56.296 12.671c-5.57-3.548-15.162-3.675-23.289.211 1.759-9.757 5.572-36.5346 6.117-39.9135.041-.1269 0-.2113-.044-.2957-.041-.0846-.125-.1268-.21-.1268-.46-.0844-.92-.1688-1.424-.1688-2.555 0-5.36 1.3938-6.114 3.9702 0 0-14.912 60.6936-15.416 63.5236-3.434 5.364-7.582 7.433-12.106 6.039-3.77-1.182-3.56-4.097-3.435-5.533.21-2.28 4.105-24.792 4.818-29.818.041-.338-.169-.634-.504-.718-.795-.127-1.634-.212-2.47-.212-2.764 0-5.613 1.014-7.288 5.238-.044.169-4.943 17.443-5.867 21.16-.125.465-.21.929-.335 1.394-3.6 5.491-9.173 10.305-17.216 8.574-2.344-.507-4.943-2.239-4.148-7.307.21-1.352 7.583-44.3481 9.721-58.0749.041-.2112-.044-.38-.21-.4222-.46-.1269-.964-.169-1.424-.169-2.555 0-5.322 1.3938-6.118 3.9701 0 0-11.771 43.546-14.282 55.836-1.133 5.406-.335 10.686 4.44 14.952 4.439 4.012 12.986 5.28 20.064 2.281 4.105-1.732 7.539-4.562 9.928-7.011 3.099 6.251 10.516 10.305 17.341 8.658 5.278-1.267 9.301-5.111 11.94-8.321 1.046 1.521 2.26 2.872 3.56 3.928 6.073 4.857 14.661 5.745 22.453 3.421 3.938-.886 7.708-2.618 10.976-5.068 5.36-4.097 8.754-10.728 9.464-17.317 1.09-8.362-1.549-17.908-8.922-22.68zm-3.854 27.58c-4.396 6.504-14.492 8.954-20.146 4.899-6.074-4.35-4.903-14.994.626-21.245 5.532-6.293 15.331-8.531 20.738-1.774 4.69 5.829 1.884 13.516-1.218 18.12z" fill="#fff"/></svg>