<svg width="600" height="240" viewBox="0 0 600 240" fill="none" xmlns="http://www.w3.org/2000/svg">
<path transform="translate(155, 75) scale(3)" d="M95.01 7.799c-.85-.952-2.007-1.429-3.47-1.429-.951 0-1.768.23-2.449.689-.68.442-1.181 1.072-1.505 1.888v-2.27H84.6V19.33h3.061v-6.683c0-1.225.248-2.152.74-2.781.493-.646 1.208-.97 2.144-.97.885 0 1.546.273 1.99.816.46.528.689 1.31.689 2.348v7.27h3.062v-7.704c0-1.615-.426-2.891-1.276-3.827Zm-16.283.484c-.34-.543-.885-.995-1.633-1.352a5.553 5.553 0 0 0-2.424-.536c-1.19 0-2.261.273-3.215.817a5.8 5.8 0 0 0-2.245 2.194c-.544.936-.816 1.99-.816 3.164 0 1.174.263 2.236.79 3.19a6.026 6.026 0 0 0 2.22 2.22c.952.527 2.016.79 3.19.79.885 0 1.692-.17 2.424-.51.748-.357 1.258-.817 1.53-1.378v1.403c0 1.192-.288 2.109-.867 2.756-.579.663-1.411.995-2.5.995-.952 0-1.735-.23-2.348-.689-.612-.441-.961-1.08-1.046-1.913l-2.934.28c.102 1.514.722 2.705 1.862 3.573 1.14.867 2.644 1.3 4.517 1.3 1.99 0 3.546-.62 4.669-1.862 1.14-1.242 1.71-2.95 1.71-5.128V6.677h-2.884v1.608-.002Zm-1.02 6.914c-.681.68-1.547 1.02-2.603 1.02-1.056 0-1.921-.34-2.603-1.02-.68-.697-1.02-1.574-1.02-2.629 0-1.054.34-1.921 1.02-2.602.697-.681 1.565-1.02 2.603-1.02 1.038 0 1.922.339 2.603 1.02.697.68 1.046 1.548 1.046 2.602 0 1.055-.35 1.932-1.046 2.629ZM65.89 6.677h-3.062V19.33h3.062V6.677ZM64.358.4c-.612 0-1.13.211-1.556.637-.408.408-.612.91-.612 1.506 0 .594.204 1.13.612 1.556.426.408.944.612 1.556.612.613 0 1.105-.204 1.531-.612.426-.426.638-.944.638-1.556 0-.613-.212-1.098-.638-1.506A2.088 2.088 0 0 0 64.36.4ZM53.407 8.896c.409-.307.944-.46 1.608-.46.799 0 1.437.23 1.913.69.493.44.766 1.053.817 1.836l2.73-.178c-.018-1.378-.528-2.475-1.53-3.292-.988-.816-2.297-1.225-3.93-1.225-1.003 0-1.896.18-2.68.536-.782.357-1.395.85-1.837 1.48a3.582 3.582 0 0 0-.637 2.092c0 1.039.34 1.889 1.02 2.552.681.663 1.692 1.105 3.037 1.327l1.48.23c.56.101.987.288 1.275.56.289.256.434.58.434.97 0 .477-.196.86-.587 1.149-.375.272-.893.408-1.556.408-.766 0-1.386-.212-1.863-.638-.477-.426-.732-1.003-.765-1.735l-2.73.178c.033 1.31.535 2.364 1.505 3.164.987.8 2.27 1.2 3.853 1.2 1.582 0 2.789-.366 3.725-1.098.952-.747 1.429-1.727 1.429-2.934 0-1.02-.35-1.863-1.046-2.526-.697-.663-1.718-1.105-3.062-1.327l-1.48-.23c-1.14-.204-1.71-.722-1.71-1.556 0-.493.197-.885.587-1.173ZM42.659 6.37c-.952 0-1.769.23-2.45.689-.68.442-1.181 1.072-1.505 1.888v-2.27h-2.985V19.33h3.062v-6.683c0-1.225.247-2.152.74-2.781.492-.646 1.207-.97 2.143-.97.885 0 1.548.273 1.99.816.46.528.689 1.31.689 2.348v7.27h3.062v-7.704c0-1.615-.426-2.891-1.276-3.827-.85-.952-2.008-1.429-3.47-1.429ZM31.147.4c-.612 0-1.13.211-1.556.637-.408.408-.613.91-.613 1.506 0 .594.205 1.13.613 1.556.426.408.944.612 1.556.612.613 0 1.105-.204 1.531-.612.426-.426.638-.944.638-1.556 0-.613-.212-1.098-.638-1.506A2.088 2.088 0 0 0 31.148.4Zm1.532 6.277h-3.062V19.33h3.062V6.677ZM.296 19.204l9.567 5.253 9.566-5.253V1.337H.296v17.867Zm3.129-14.77h12.877v12.959L9.864 20.92l-6.438-3.527V4.434h-.001Z" fill="white"/>
</svg>
