<svg fill="none" height="300" viewBox="0 0 600 300" width="600" xmlns="http://www.w3.org/2000/svg" xmlns:xlink="http://www.w3.org/1999/xlink"><clipPath id="a"><path d="m54 66h493v168h-493z"/></clipPath><g clip-path="url(#a)"><circle cx="138" cy="152" fill="#1c2529" r="68"/><g fill="#fff"><path d="m392.272 143.171c-9.378 0-12.424 8.41-12.424 19.701l.182 21.668c0 .961-.749 1.736-1.701 1.736h-6.655c-.931 0-1.702-.779-1.702-1.715v-48.296c0-.936.774-1.715 1.702-1.715h6.655c.931 0 1.701.779 1.701 1.715v8.228c2.339-6.877 6.245-9.943 13.466-9.943h7.633c.932 0 1.7.779 1.7 1.715v5.187c0 .937-.771 1.716-1.7 1.716z"/><path d="m305.499 113.877h7.88c1.478 0 2.248 1.76 1.25 2.879l-25.139 27.746 28.342 39.061c.819 1.144 0 2.719-1.386 2.719h-8.812c-.546 0-1.067-.274-1.386-.73l-23.935-33.919-13.67 14.878v18.035c0 .936-.774 1.715-1.705 1.715h-6.655c-.931 0-1.705-.776-1.705-1.715v-68.954c0-.936.774-1.715 1.705-1.715h6.655c.931 0 1.705.779 1.705 1.715v33.551c0 2.378-.725 5.485-1.544 7.863h.203c.819-2.171 2.363-4.959 3.998-6.927l31.682-35.083c.637-.709 1.565-1.119 2.517-1.119z"/><path d="m356.554 134.565h7.106c1.205 0 2.02 1.235 1.59 2.353l-22.482 56.682c-4.11 11.472-12.536 14.468-18.281 14.468h-7.334c-.932 0-1.705-.775-1.705-1.716v-4.846c0-.937.773-1.716 1.705-1.716h3.542c2.567 0 9.358-1.346 11.514-7.13l2.682-8.274-18.802-47.495c-.455-1.119.385-2.354 1.589-2.354h7.11c.704 0 1.341.435 1.589 1.098l12.831 32.821c.815 2.378 1.34 5.279 1.34 7.656h.203c0-2.49.41-5.278 1.226-7.656l13.033-32.842c.249-.642.886-1.073 1.59-1.073z"/><path d="m407.874 120.96v-5.37c0-.936.771-1.715 1.7-1.715h6.972c.933 0 1.704.779 1.704 1.715v5.37c0 .936-.775 1.715-1.704 1.715h-6.972c-.932 0-1.7-.779-1.7-1.715zm10.171 15.313v48.271c0 .936-.774 1.715-1.703 1.715h-6.567c-.929 0-1.7-.775-1.7-1.715v-48.271c0-.937.774-1.715 1.7-1.715h6.567c.929 0 1.703.775 1.703 1.715z"/><path d="m458.696 133.942c15.213.091 24.345 8.571 24.345 26.466 0 17.894-9.152 26.466-24.345 26.466-6.882 0-15.216-2.995-19.941-7.748-1.633-1.645-2.77-4.661-3.498-6.832l-.205.116c.728 2.171 1.342 5.166 1.342 7.544v4.594c0 .937-.775 1.716-1.707 1.716h-6.654c-.932 0-1.7-.775-1.7-1.716v-68.953c0-.937.771-1.715 1.7-1.715h6.654c.932 0 1.707.778 1.707 1.715v25.691c0 2.378-.614 5.279-1.342 7.656h.205c.724-2.171 1.838-5.166 3.498-6.832 4.722-4.959 13.15-8.158 19.941-8.158zm14.378 26.466c0-11.999-5.45-17.782-17.782-18.102-9.038 0-18.892 6.833-18.892 18.102s9.854 17.691 18.892 17.691c12.741 0 17.782-5.486 17.782-17.691z"/><path d="m542.201 177.883h-.047c-2.157 0-3.086-.73-3.086-3.315v-20.068c0-15.292-12.445-20.252-24.982-20.252-10.628 0-21.712 3.999-24.049 15.201-.205.982.452 1.964 1.452 2.08l5.906.799c.838.116 1.68-.389 1.861-1.209 1.637-6.787 7.425-8.709 14.83-8.709 9.562 0 14.603 2.904 14.921 10.855 0 4.044-9.97 3.633-20.146 3.84-10.286.298-20.551 3.406-20.551 14.468 0 5.896 3.907 10.238 9.242 12.732 5.242 2.469 9.854 2.262 11.105 2.262 7.606 0 17.667-3.108 20.347-13.03v4.549c0 4.549 3.384 8.158 8.629 8.158h4.564c.929 0 1.701-.754 1.701-1.715v-4.938c0-.937-.775-1.715-1.701-1.715zm-13.194-9.919c0 4.226-3.407 7.429-7.928 9.301-4.518 1.852-8.22 2.056-10.172 2.056-4.202 0-12.332-1.442-12.332-7.955 0-12.503 21.894-4.959 30.432-10.238z"/></g><path clip-rule="evenodd" d="m221.687 150.001c0 46.392-37.538 84-83.843 84-46.3059 0-83.844-37.608-83.844-84 0-46.391 37.5381-83.9995 83.844-83.9995 46.305 0 83.843 37.6085 83.843 83.9995zm-73.946 53.124c.836 1.752 2.579 2.776 4.397 2.776.704 0 1.42-.154 2.096-.477 2.426-1.161 3.454-4.073 2.295-6.504l-17.181-36.041c-3.91-8.204-3.91-17.615.002-25.817l17.179-36.022c1.159-2.4308.131-5.3427-2.295-6.5035-2.424-1.1609-5.332-.1317-6.491 2.2989l-17.179 36.0216c-2.533 5.311-3.872 11.227-3.872 17.113 0 5.885 1.337 11.803 3.869 17.113zm-24.046 2.818c-2.221-.001-4.226-1.534-4.74-3.795l-8.976-39.438c-1.897-8.334-1.895-17.144.004-25.477l8.972-39.3792c.599-2.6257 3.208-4.2694 5.829-3.6695s4.262 3.2143 3.663 5.8397l-8.973 39.38c-1.575 6.914-1.575 14.223-.003 21.137l8.976 39.438c.597 2.626-1.043 5.242-3.664 5.84-.364.083-.729.124-1.088.124zm-28.4198-20.054c-2.689 0-4.8683-2.184-4.8683-4.878v-62.081c0-2.694 2.1793-4.877 4.8683-4.877s4.8688 2.183 4.8688 4.877v62.081c0 2.694-2.1798 4.878-4.8688 4.878zm85.2838-.001c-.998 0-2.006-.307-2.874-.943l-24.138-17.718c-5.55-4.074-8.734-10.363-8.734-17.257 0-6.893 3.184-13.182 8.734-17.256l24.138-17.719c2.168-1.592 5.216-1.122 6.804 1.052 1.589 2.174 1.12 5.225-1.049 6.817l-24.138 17.719c-3.02 2.216-4.752 5.638-4.752 9.387s1.732 7.172 4.752 9.388l24.138 17.718c2.169 1.592 2.638 4.644 1.049 6.817-.954 1.304-2.432 1.995-3.93 1.995z" fill="#e6ff00" fill-rule="evenodd"/></g></svg>