<svg width="24" height="24" viewBox="0 0 24 24" fill="none" xmlns="http://www.w3.org/2000/svg">
<path fill-rule="evenodd" clip-rule="evenodd" d="M11 4C10.4477 4 10 4.44772 10 5C10 5.30269 10.1345 5.57398 10.347 5.75735C8.43844 5.93511 6.55189 6.4214 4.76354 7.21622C3.98491 7.56228 3.40727 8.21771 3.14922 9.00002C3.05186 9.29518 3 9.60841 3 9.92989V10H1V12H3V17.6154C3 19.4846 4.79086 21 7 21H17C19.2091 21 21 19.4846 21 17.6154V12H23V10H21V9.92989C21 9.60841 20.9481 9.29518 20.8508 9.00002C20.5927 8.21771 20.0151 7.56228 19.2365 7.21622C17.4481 6.4214 15.5616 5.93511 13.653 5.75735C13.8655 5.57398 14 5.30269 14 5C14 4.44772 13.5523 4 13 4H11ZM5 12V17.6154C5 18.5501 5.89543 19.3077 7 19.3077H17C18.1046 19.3077 19 18.5501 19 17.6154V12V11H5V12ZM5.67535 9.00002C9.70813 7.24072 14.2919 7.24072 18.3247 9.00002H5.67535Z" fill="#111418"/>
</svg>
