<svg width="300" height="98" viewBox="0 0 300 98" fill="none" xmlns="http://www.w3.org/2000/svg">
<g clip-path="url(#clip0_1618_70587)">
<rect width="300" height="98" fill="#EDE9FE"/>
<g filter="url(#filter0_d_1618_70587)">
<rect x="10" y="11" width="581" height="98" rx="8" fill="white" shape-rendering="crispEdges"/>
<path d="M33.333 38.5222C32.8903 38.7081 32.4255 38.8453 31.9386 38.9339C31.4516 39.0312 30.9337 39.0799 30.3848 39.0799C29.3667 39.0799 28.4946 38.8896 27.7686 38.5089C27.0515 38.1371 26.4982 37.5926 26.1086 36.8755C25.7279 36.1583 25.5376 35.2996 25.5376 34.2991C25.5376 33.3961 25.6793 32.5727 25.9626 31.8291C26.2459 31.0854 26.6487 30.4435 27.171 29.9035C27.7022 29.3546 28.3264 28.934 29.0435 28.6419C29.7606 28.3408 30.553 28.1903 31.4206 28.1903C32.4211 28.1903 33.2931 28.3851 34.0368 28.7747C34.7805 29.1642 35.3559 29.7131 35.7632 30.4214C36.1705 31.1296 36.3741 31.9663 36.3741 32.9313C36.3741 33.6396 36.2678 34.2637 36.0554 34.8038C35.8429 35.3438 35.5507 35.7688 35.1789 36.0787C34.807 36.3797 34.3777 36.5302 33.8907 36.5302C33.4835 36.5302 33.147 36.4107 32.8814 36.1716C32.6247 35.9326 32.483 35.6094 32.4565 35.2022L32.6557 35.1491C32.5494 35.4058 32.3812 35.6448 32.151 35.8662C31.9209 36.0875 31.6597 36.2646 31.3675 36.3974C31.0754 36.5213 30.7743 36.5833 30.4645 36.5833C29.9421 36.5833 29.4995 36.4815 29.1365 36.2779C28.7823 36.0742 28.5123 35.7909 28.3264 35.4279C28.1405 35.065 28.0475 34.6444 28.0475 34.1663C28.0475 33.5732 28.1626 33.0331 28.3928 32.5462C28.6318 32.0592 28.9594 31.6741 29.3755 31.3908C29.8005 31.0987 30.2963 30.9526 30.8629 30.9526C31.3321 30.9526 31.7305 31.0588 32.0581 31.2713C32.3945 31.4749 32.607 31.745 32.6955 32.0814L32.5627 32.2142L32.6557 30.9791H33.6251L33.4126 33.7679C33.4038 33.9627 33.3861 34.184 33.3595 34.4319C33.3418 34.6798 33.333 34.8835 33.333 35.0428C33.333 35.2376 33.3861 35.3881 33.4923 35.4943C33.5986 35.6006 33.7579 35.6537 33.9704 35.6537C34.4219 35.6537 34.7761 35.4147 35.0328 34.9366C35.2895 34.4585 35.4179 33.8034 35.4179 32.9711C35.4179 32.1478 35.263 31.4484 34.9531 30.8729C34.6433 30.2974 34.1873 29.8636 33.5853 29.5715C32.9921 29.2704 32.2617 29.1199 31.3941 29.1199C30.6681 29.1199 30.0041 29.2439 29.4021 29.4918C28.8001 29.7397 28.2821 30.0938 27.8483 30.5542C27.4145 31.0057 27.0781 31.5458 26.839 32.1743C26.6089 32.8029 26.4938 33.5023 26.4938 34.2726C26.4938 35.0959 26.6443 35.7998 26.9453 36.3841C27.2551 36.9596 27.7022 37.3978 28.2866 37.6988C28.8709 37.9998 29.5791 38.1503 30.4114 38.1503C30.8894 38.1503 31.3587 38.1016 31.819 38.0043C32.2883 37.9157 32.7177 37.7874 33.1072 37.6191L33.333 38.5222ZM30.5973 35.7068C31.0399 35.7068 31.3985 35.6006 31.673 35.3881C31.9563 35.1668 32.1643 34.8879 32.2971 34.5515C32.4388 34.2062 32.5096 33.852 32.5096 33.4891C32.5096 33.1792 32.4565 32.9003 32.3502 32.6524C32.2529 32.3957 32.0891 32.1965 31.8589 32.0548C31.6375 31.9043 31.341 31.8291 30.9691 31.8291C30.5707 31.8291 30.2343 31.9353 29.9598 32.1478C29.6942 32.3514 29.4906 32.6259 29.349 32.9711C29.2073 33.3076 29.1365 33.6794 29.1365 34.0867C29.1365 34.547 29.2427 34.9322 29.4552 35.242C29.6765 35.5519 30.0572 35.7068 30.5973 35.7068ZM41.1715 37.8316C40.4455 37.8316 39.8125 37.6944 39.2724 37.4199C38.7324 37.1455 38.303 36.7692 37.9843 36.2911C37.6744 35.8042 37.4929 35.242 37.4398 34.6046L38.635 34.5249C38.697 34.9941 38.8342 35.3925 39.0467 35.7201C39.2592 36.0477 39.5425 36.2956 39.8966 36.4638C40.2596 36.632 40.6934 36.7161 41.198 36.7161C41.6407 36.7161 42.017 36.6586 42.3268 36.5435C42.6367 36.4284 42.8713 36.2602 43.0307 36.0388C43.1989 35.8175 43.283 35.5475 43.283 35.2287C43.283 34.9366 43.2122 34.6798 43.0705 34.4585C42.9377 34.2283 42.6765 34.0203 42.287 33.8343C41.9063 33.6396 41.3397 33.4492 40.5872 33.2633C39.8612 33.0774 39.2813 32.8738 38.8475 32.6524C38.4225 32.4311 38.1127 32.1611 37.9179 31.8423C37.732 31.5236 37.639 31.1296 37.639 30.6604C37.639 30.1292 37.7629 29.6644 38.0108 29.266C38.2676 28.8588 38.6306 28.5445 39.0998 28.3231C39.569 28.093 40.1268 27.9779 40.7731 27.9779C41.4636 27.9779 42.0568 28.1107 42.5526 28.3763C43.0484 28.633 43.4424 28.9871 43.7345 29.4387C44.0267 29.8902 44.2082 30.4037 44.279 30.9791L43.0838 31.0588C43.0307 30.6781 42.9067 30.3417 42.712 30.0495C42.526 29.7485 42.2693 29.5139 41.9417 29.3457C41.6141 29.1775 41.2157 29.0934 40.7465 29.0934C40.1622 29.0934 39.6974 29.235 39.3521 29.5183C39.0068 29.7928 38.8342 30.1558 38.8342 30.6073C38.8342 30.8995 38.9006 31.1429 39.0334 31.3377C39.1751 31.5236 39.4229 31.6918 39.7771 31.8423C40.1312 31.984 40.6403 32.1389 41.3043 32.3071C42.0922 32.5019 42.7164 32.7365 43.1768 33.011C43.646 33.2766 43.978 33.5864 44.1728 33.9406C44.3764 34.2947 44.4782 34.6975 44.4782 35.1491C44.4782 35.698 44.3365 36.176 44.0532 36.5833C43.7699 36.9817 43.3804 37.2916 42.8846 37.5129C42.3888 37.7254 41.8178 37.8316 41.1715 37.8316ZM48.0295 37.7785C47.3035 37.7785 46.7236 37.6103 46.2898 37.2739C45.8648 36.9374 45.6523 36.4682 45.6523 35.8662C45.6523 35.2642 45.8294 34.7905 46.1835 34.4452C46.5377 34.0999 47.0999 33.8565 47.8701 33.7148L50.3667 33.25C50.3667 32.6568 50.2251 32.2142 49.9418 31.922C49.6673 31.6299 49.2512 31.4838 48.6935 31.4838C48.2065 31.4838 47.8214 31.5944 47.5381 31.8158C47.2548 32.0283 47.06 32.3381 46.9538 32.7454L45.7719 32.6524C45.9047 31.9884 46.2234 31.4528 46.728 31.0455C47.2415 30.6294 47.8967 30.4214 48.6935 30.4214C49.5965 30.4214 50.2871 30.6781 50.7651 31.1916C51.2432 31.6963 51.4823 32.3957 51.4823 33.2899V36.1982C51.4823 36.3575 51.5088 36.4726 51.5619 36.5435C51.6239 36.6054 51.7213 36.6364 51.8541 36.6364H52.133V37.6191C52.0976 37.628 52.04 37.6324 51.9603 37.6324C51.8807 37.6413 51.7966 37.6457 51.708 37.6457C51.3893 37.6457 51.1281 37.597 50.9245 37.4996C50.7297 37.3934 50.5881 37.234 50.4995 37.0215C50.411 36.8002 50.3667 36.5125 50.3667 36.1583L50.4995 36.1849C50.4376 36.4859 50.2871 36.7604 50.048 37.0083C49.809 37.2473 49.5124 37.4376 49.1583 37.5793C48.8041 37.7121 48.4279 37.7785 48.0295 37.7785ZM48.1357 36.7958C48.6049 36.7958 49.0033 36.7072 49.3309 36.5302C49.6673 36.3443 49.9241 36.0964 50.1011 35.7865C50.2782 35.4678 50.3667 35.1136 50.3667 34.7241V34.2195L48.0826 34.6444C47.6045 34.733 47.2725 34.8702 47.0866 35.0561C46.9095 35.2332 46.821 35.4678 46.821 35.7599C46.821 36.0875 46.9361 36.3443 47.1663 36.5302C47.4053 36.7072 47.7284 36.7958 48.1357 36.7958ZM53.1273 37.6191V30.5807H54.11L54.1632 32.3603L54.0569 32.3204C54.1455 31.7184 54.3358 31.2802 54.628 31.0057C54.929 30.7224 55.3274 30.5807 55.8232 30.5807H56.5137V31.6431H55.8364C55.4823 31.6431 55.1857 31.7095 54.9467 31.8423C54.7165 31.9663 54.5394 32.1566 54.4155 32.4134C54.3004 32.6613 54.2428 32.98 54.2428 33.3695V37.6191H53.1273ZM59.2609 37.7785C58.5349 37.7785 57.955 37.6103 57.5212 37.2739C57.0963 36.9374 56.8838 36.4682 56.8838 35.8662C56.8838 35.2642 57.0609 34.7905 57.415 34.4452C57.7691 34.0999 58.3313 33.8565 59.1016 33.7148L61.5982 33.25C61.5982 32.6568 61.4565 32.2142 61.1732 31.922C60.8988 31.6299 60.4827 31.4838 59.9249 31.4838C59.438 31.4838 59.0529 31.5944 58.7696 31.8158C58.4862 32.0283 58.2915 32.3381 58.1852 32.7454L57.0033 32.6524C57.1361 31.9884 57.4548 31.4528 57.9595 31.0455C58.473 30.6294 59.1281 30.4214 59.9249 30.4214C60.828 30.4214 61.5185 30.6781 61.9966 31.1916C62.4747 31.6963 62.7137 32.3957 62.7137 33.2899V36.1982C62.7137 36.3575 62.7403 36.4726 62.7934 36.5435C62.8554 36.6054 62.9528 36.6364 63.0856 36.6364H63.3644V37.6191C63.329 37.628 63.2715 37.6324 63.1918 37.6324C63.1121 37.6413 63.028 37.6457 62.9395 37.6457C62.6208 37.6457 62.3596 37.597 62.156 37.4996C61.9612 37.3934 61.8195 37.234 61.731 37.0215C61.6425 36.8002 61.5982 36.5125 61.5982 36.1583L61.731 36.1849C61.669 36.4859 61.5185 36.7604 61.2795 37.0083C61.0404 37.2473 60.7438 37.4376 60.3897 37.5793C60.0356 37.7121 59.6593 37.7785 59.2609 37.7785ZM59.3672 36.7958C59.8364 36.7958 60.2348 36.7072 60.5624 36.5302C60.8988 36.3443 61.1555 36.0964 61.3326 35.7865C61.5097 35.4678 61.5982 35.1136 61.5982 34.7241V34.2195L59.314 34.6444C58.836 34.733 58.504 34.8702 58.318 35.0561C58.141 35.2332 58.0524 35.4678 58.0524 35.7599C58.0524 36.0875 58.1675 36.3443 58.3977 36.5302C58.6368 36.7072 58.9599 36.7958 59.3672 36.7958ZM64.3069 37.6191V28.1903H65.4224V32.1345L65.2896 32.1079C65.3782 31.7184 65.5287 31.3997 65.7411 31.1518C65.9536 30.9039 66.2148 30.7224 66.5247 30.6073C66.8345 30.4834 67.1754 30.4214 67.5472 30.4214C68.0519 30.4214 68.4768 30.5365 68.8221 30.7667C69.1762 30.988 69.4418 31.3023 69.6189 31.7095C69.8048 32.1079 69.8978 32.5683 69.8978 33.0907V37.6191H68.7823V33.4094C68.7823 32.7277 68.6583 32.223 68.4104 31.8955C68.1714 31.5679 67.804 31.4041 67.3082 31.4041C66.7416 31.4041 66.2856 31.5767 65.9403 31.922C65.5951 32.2673 65.4224 32.7675 65.4224 33.4227V37.6191H64.3069ZM82.1427 38.5222C81.7 38.7081 81.2352 38.8453 80.7483 38.9339C80.2613 39.0312 79.7434 39.0799 79.1945 39.0799C78.1764 39.0799 77.3043 38.8896 76.5783 38.5089C75.8612 38.1371 75.3079 37.5926 74.9183 36.8755C74.5377 36.1583 74.3473 35.2996 74.3473 34.2991C74.3473 33.3961 74.489 32.5727 74.7723 31.8291C75.0556 31.0854 75.4584 30.4435 75.9807 29.9035C76.5119 29.3546 77.1361 28.934 77.8532 28.6419C78.5703 28.3408 79.3627 28.1903 80.2303 28.1903C81.2308 28.1903 82.1028 28.3851 82.8465 28.7747C83.5902 29.1642 84.1657 29.7131 84.5729 30.4214C84.9802 31.1296 85.1838 31.9663 85.1838 32.9313C85.1838 33.6396 85.0775 34.2637 84.8651 34.8038C84.6526 35.3438 84.3604 35.7688 83.9886 36.0787C83.6167 36.3797 83.1874 36.5302 82.7004 36.5302C82.2932 36.5302 81.9567 36.4107 81.6911 36.1716C81.4344 35.9326 81.2927 35.6094 81.2662 35.2022L81.4654 35.1491C81.3591 35.4058 81.1909 35.6448 80.9607 35.8662C80.7306 36.0875 80.4694 36.2646 80.1772 36.3974C79.8851 36.5213 79.5841 36.5833 79.2742 36.5833C78.7518 36.5833 78.3092 36.4815 77.9462 36.2779C77.5921 36.0742 77.322 35.7909 77.1361 35.4279C76.9502 35.065 76.8572 34.6444 76.8572 34.1663C76.8572 33.5732 76.9723 33.0331 77.2025 32.5462C77.4415 32.0592 77.7691 31.6741 78.1852 31.3908C78.6102 31.0987 79.106 30.9526 79.6726 30.9526C80.1418 30.9526 80.5402 31.0588 80.8678 31.2713C81.2042 31.4749 81.4167 31.745 81.5052 32.0814L81.3724 32.2142L81.4654 30.9791H82.4348L82.2223 33.7679C82.2135 33.9627 82.1958 34.184 82.1692 34.4319C82.1515 34.6798 82.1427 34.8835 82.1427 35.0428C82.1427 35.2376 82.1958 35.3881 82.302 35.4943C82.4083 35.6006 82.5676 35.6537 82.7801 35.6537C83.2316 35.6537 83.5858 35.4147 83.8425 34.9366C84.0993 34.4585 84.2276 33.8034 84.2276 32.9711C84.2276 32.1478 84.0727 31.4484 83.7628 30.8729C83.453 30.2974 82.997 29.8636 82.395 29.5715C81.8018 29.2704 81.0714 29.1199 80.2038 29.1199C79.4778 29.1199 78.8138 29.2439 78.2118 29.4918C77.6098 29.7397 77.0918 30.0938 76.658 30.5542C76.2242 31.0057 75.8878 31.5458 75.6487 32.1743C75.4186 32.8029 75.3035 33.5023 75.3035 34.2726C75.3035 35.0959 75.454 35.7998 75.755 36.3841C76.0649 36.9596 76.5119 37.3978 77.0963 37.6988C77.6806 37.9998 78.3889 38.1503 79.2211 38.1503C79.6991 38.1503 80.1684 38.1016 80.6287 38.0043C81.098 37.9157 81.5274 37.7874 81.9169 37.6191L82.1427 38.5222ZM79.407 35.7068C79.8497 35.7068 80.2082 35.6006 80.4827 35.3881C80.766 35.1668 80.974 34.8879 81.1068 34.5515C81.2485 34.2062 81.3193 33.852 81.3193 33.4891C81.3193 33.1792 81.2662 32.9003 81.1599 32.6524C81.0626 32.3957 80.8988 32.1965 80.6686 32.0548C80.4473 31.9043 80.1507 31.8291 79.7788 31.8291C79.3804 31.8291 79.044 31.9353 78.7695 32.1478C78.5039 32.3514 78.3003 32.6259 78.1587 32.9711C78.017 33.3076 77.9462 33.6794 77.9462 34.0867C77.9462 34.547 78.0524 34.9322 78.2649 35.242C78.4862 35.5519 78.8669 35.7068 79.407 35.7068ZM89.4101 37.8316C88.8258 37.8316 88.3079 37.6944 87.8564 37.4199C87.4049 37.1366 87.0507 36.7471 86.794 36.2513C86.5461 35.7555 86.4177 35.1845 86.4089 34.5382L87.5775 34.4585C87.5864 35.1845 87.7501 35.7422 88.0689 36.1318C88.3876 36.5213 88.8347 36.7161 89.4101 36.7161C90.0122 36.7161 90.4725 36.508 90.7913 36.0919C91.1188 35.6758 91.2826 35.0871 91.2826 34.3257V28.1903H92.4247V34.3257C92.4247 35.0428 92.3008 35.667 92.0529 36.1982C91.805 36.7205 91.4553 37.1234 91.0037 37.4067C90.5611 37.69 90.0299 37.8316 89.4101 37.8316ZM96.9888 37.7785C96.3425 37.7785 95.7759 37.628 95.2889 37.327C94.802 37.026 94.4257 36.601 94.1601 36.0521C93.8945 35.4943 93.7617 34.8436 93.7617 34.0999C93.7617 33.3474 93.8945 32.6967 94.1601 32.1478C94.4257 31.5989 94.802 31.1739 95.2889 30.8729C95.7759 30.5719 96.3425 30.4214 96.9888 30.4214C97.6351 30.4214 98.1973 30.5719 98.6753 30.8729C99.1623 31.1739 99.5385 31.5989 99.8041 32.1478C100.07 32.6967 100.203 33.3474 100.203 34.0999C100.203 34.8436 100.07 35.4943 99.8041 36.0521C99.5385 36.601 99.1623 37.026 98.6753 37.327C98.1973 37.628 97.6351 37.7785 96.9888 37.7785ZM96.9888 36.7161C97.6351 36.7161 98.1353 36.4859 98.4894 36.0255C98.8524 35.5563 99.0339 34.9144 99.0339 34.0999C99.0339 33.2854 98.8524 32.648 98.4894 32.1876C98.1353 31.7184 97.6351 31.4838 96.9888 31.4838C96.3425 31.4838 95.8378 31.7184 95.4749 32.1876C95.1119 32.648 94.9304 33.2854 94.9304 34.0999C94.9304 34.9144 95.1119 35.5563 95.4749 36.0255C95.8378 36.4859 96.3425 36.7161 96.9888 36.7161ZM101.457 37.6191V28.1903H102.573V32.1345L102.44 32.1079C102.528 31.7184 102.679 31.3997 102.891 31.1518C103.104 30.9039 103.365 30.7224 103.675 30.6073C103.985 30.4834 104.326 30.4214 104.698 30.4214C105.202 30.4214 105.627 30.5365 105.972 30.7667C106.327 30.988 106.592 31.3023 106.769 31.7095C106.955 32.1079 107.048 32.5683 107.048 33.0907V37.6191H105.933V33.4094C105.933 32.7277 105.809 32.223 105.561 31.8955C105.322 31.5679 104.954 31.4041 104.458 31.4041C103.892 31.4041 103.436 31.5767 103.091 31.922C102.745 32.2673 102.573 32.7675 102.573 33.4227V37.6191H101.457ZM108.649 37.6191V30.5807H109.671L109.711 32.3735L109.578 32.254C109.667 31.8379 109.822 31.4971 110.043 31.2315C110.264 30.957 110.53 30.7534 110.84 30.6206C111.159 30.4878 111.499 30.4214 111.862 30.4214C112.402 30.4214 112.845 30.5409 113.19 30.7799C113.545 31.019 113.806 31.3421 113.974 31.7494C114.151 32.1478 114.239 32.5949 114.239 33.0907V37.6191H113.124V33.4094C113.124 32.9756 113.071 32.6126 112.965 32.3204C112.867 32.0194 112.708 31.7936 112.487 31.6431C112.265 31.4838 111.977 31.4041 111.623 31.4041C111.083 31.4041 110.636 31.5767 110.282 31.922C109.937 32.2584 109.764 32.7542 109.764 33.4094V37.6191H108.649Z" fill="#6AA668"/>
<path d="M120.562 37.6191L118.384 30.5807H119.605L121.252 36.4505L122.925 30.5807H124.121L125.794 36.4505L127.454 30.5807H128.676L126.498 37.6191H125.09L123.523 32.2673L121.956 37.6191H120.562ZM129.639 37.6191V28.1903H130.755V32.1345L130.622 32.1079C130.711 31.7184 130.861 31.3997 131.074 31.1518C131.286 30.9039 131.547 30.7224 131.857 30.6073C132.167 30.4834 132.508 30.4214 132.88 30.4214C133.384 30.4214 133.809 30.5365 134.155 30.7667C134.509 30.988 134.774 31.3023 134.951 31.7095C135.137 32.1079 135.23 32.5683 135.23 33.0907V37.6191H134.115V33.4094C134.115 32.7277 133.991 32.223 133.743 31.8955C133.504 31.5679 133.136 31.4041 132.641 31.4041C132.074 31.4041 131.618 31.5767 131.273 31.922C130.927 32.2673 130.755 32.7675 130.755 33.4227V37.6191H129.639ZM138.859 37.7785C138.133 37.7785 137.554 37.6103 137.12 37.2739C136.695 36.9374 136.482 36.4682 136.482 35.8662C136.482 35.2642 136.659 34.7905 137.014 34.4452C137.368 34.0999 137.93 33.8565 138.7 33.7148L141.197 33.25C141.197 32.6568 141.055 32.2142 140.772 31.922C140.497 31.6299 140.081 31.4838 139.523 31.4838C139.037 31.4838 138.651 31.5944 138.368 31.8158C138.085 32.0283 137.89 32.3381 137.784 32.7454L136.602 32.6524C136.735 31.9884 137.053 31.4528 137.558 31.0455C138.072 30.6294 138.727 30.4214 139.523 30.4214C140.427 30.4214 141.117 30.6781 141.595 31.1916C142.073 31.6963 142.312 32.3957 142.312 33.2899V36.1982C142.312 36.3575 142.339 36.4726 142.392 36.5435C142.454 36.6054 142.551 36.6364 142.684 36.6364H142.963V37.6191C142.928 37.628 142.87 37.6324 142.79 37.6324C142.711 37.6413 142.627 37.6457 142.538 37.6457C142.219 37.6457 141.958 37.597 141.755 37.4996C141.56 37.3934 141.418 37.234 141.33 37.0215C141.241 36.8002 141.197 36.5125 141.197 36.1583L141.33 36.1849C141.268 36.4859 141.117 36.7604 140.878 37.0083C140.639 37.2473 140.342 37.4376 139.988 37.5793C139.634 37.7121 139.258 37.7785 138.859 37.7785ZM138.966 36.7958C139.435 36.7958 139.833 36.7072 140.161 36.5302C140.497 36.3443 140.754 36.0964 140.931 35.7865C141.108 35.4678 141.197 35.1136 141.197 34.7241V34.2195L138.913 34.6444C138.435 34.733 138.103 34.8702 137.917 35.0561C137.74 35.2332 137.651 35.4678 137.651 35.7599C137.651 36.0875 137.766 36.3443 137.996 36.5302C138.235 36.7072 138.558 36.7958 138.966 36.7958ZM146.183 37.6191C145.546 37.6191 145.072 37.4731 144.763 37.1809C144.462 36.8887 144.311 36.4328 144.311 35.8131V28.934H145.427V35.7865C145.427 36.1052 145.497 36.3266 145.639 36.4505C145.781 36.5744 145.998 36.6364 146.29 36.6364H147.299V37.6191H146.183ZM143.275 31.5635V30.5807H147.299V31.5635H143.275ZM148.29 31.7228L148.077 29.2527V28.1903H149.246V29.2527L149.033 31.7228H148.29ZM153.07 37.7785C152.442 37.7785 151.906 37.6767 151.463 37.4731C151.029 37.2694 150.689 36.9906 150.441 36.6364C150.202 36.2734 150.064 35.8618 150.029 35.4014L151.198 35.3217C151.268 35.7467 151.45 36.0875 151.742 36.3443C152.034 36.5922 152.477 36.7161 153.07 36.7161C153.548 36.7161 153.929 36.6408 154.212 36.4903C154.504 36.331 154.65 36.0787 154.65 35.7334C154.65 35.5475 154.606 35.3925 154.518 35.2686C154.429 35.1446 154.256 35.0384 154 34.9499C153.743 34.8525 153.362 34.7595 152.858 34.671C152.185 34.547 151.654 34.3965 151.264 34.2195C150.883 34.0335 150.609 33.8078 150.441 33.5422C150.281 33.2677 150.202 32.9446 150.202 32.5727C150.202 31.9442 150.432 31.4307 150.892 31.0323C151.353 30.625 152.008 30.4214 152.858 30.4214C153.433 30.4214 153.916 30.5276 154.305 30.7401C154.704 30.9437 155.013 31.2182 155.235 31.5635C155.465 31.8999 155.615 32.2717 155.686 32.679L154.518 32.7587C154.465 32.5108 154.367 32.2939 154.225 32.1079C154.084 31.9132 153.898 31.7627 153.668 31.6564C153.438 31.5413 153.163 31.4838 152.844 31.4838C152.34 31.4838 151.968 31.5812 151.729 31.7759C151.49 31.9707 151.37 32.2186 151.37 32.5196C151.37 32.7498 151.423 32.9402 151.53 33.0907C151.645 33.2323 151.826 33.3518 152.074 33.4492C152.322 33.5378 152.654 33.6174 153.07 33.6883C153.787 33.8122 154.345 33.9627 154.743 34.1398C155.142 34.3168 155.421 34.5338 155.58 34.7905C155.739 35.0472 155.819 35.3615 155.819 35.7334C155.819 36.1672 155.695 36.539 155.447 36.8489C155.208 37.1499 154.881 37.3801 154.465 37.5395C154.057 37.6988 153.592 37.7785 153.07 37.7785ZM162.836 37.6191C162.199 37.6191 161.725 37.4731 161.415 37.1809C161.114 36.8887 160.964 36.4328 160.964 35.8131V28.934H162.079V35.7865C162.079 36.1052 162.15 36.3266 162.292 36.4505C162.434 36.5744 162.65 36.6364 162.943 36.6364H163.952V37.6191H162.836ZM159.928 31.5635V30.5807H163.952V31.5635H159.928ZM165.117 37.6191V28.1903H166.233V32.1345L166.1 32.1079C166.188 31.7184 166.339 31.3997 166.551 31.1518C166.764 30.9039 167.025 30.7224 167.335 30.6073C167.645 30.4834 167.986 30.4214 168.357 30.4214C168.862 30.4214 169.287 30.5365 169.632 30.7667C169.986 30.988 170.252 31.3023 170.429 31.7095C170.615 32.1079 170.708 32.5683 170.708 33.0907V37.6191H169.593V33.4094C169.593 32.7277 169.469 32.223 169.221 31.8955C168.982 31.5679 168.614 31.4041 168.118 31.4041C167.552 31.4041 167.096 31.5767 166.751 31.922C166.405 32.2673 166.233 32.7675 166.233 33.4227V37.6191H165.117ZM175.161 37.7785C174.497 37.7785 173.922 37.628 173.435 37.327C172.957 37.026 172.585 36.601 172.319 36.0521C172.063 35.4943 171.934 34.8436 171.934 34.0999C171.934 33.3563 172.063 32.71 172.319 32.1611C172.585 31.6122 172.952 31.1872 173.422 30.8862C173.9 30.5763 174.462 30.4214 175.108 30.4214C175.719 30.4214 176.259 30.5675 176.728 30.8596C177.198 31.1429 177.561 31.559 177.817 32.1079C178.083 32.6568 178.216 33.3253 178.216 34.1132V34.4452H173.103C173.147 35.1978 173.346 35.7644 173.7 36.1451C174.063 36.5258 174.55 36.7161 175.161 36.7161C175.622 36.7161 175.998 36.6099 176.29 36.3974C176.591 36.176 176.799 35.8883 176.914 35.5342L178.109 35.6271C177.924 36.2557 177.569 36.7736 177.047 37.1809C176.534 37.5793 175.905 37.7785 175.161 37.7785ZM173.103 33.4625H176.994C176.941 32.7808 176.742 32.2806 176.396 31.9619C176.06 31.6431 175.631 31.4838 175.108 31.4838C174.568 31.4838 174.121 31.652 173.767 31.9884C173.422 32.316 173.2 32.8074 173.103 33.4625ZM185.142 37.7785C184.531 37.7785 184 37.628 183.548 37.327C183.106 37.026 182.765 36.601 182.526 36.0521C182.287 35.5032 182.167 34.8525 182.167 34.0999C182.167 33.3474 182.287 32.6967 182.526 32.1478C182.765 31.5989 183.106 31.1739 183.548 30.8729C184 30.5719 184.531 30.4214 185.142 30.4214C185.611 30.4214 186.04 30.5232 186.43 30.7268C186.82 30.9216 187.112 31.2005 187.306 31.5635V28.1903H188.422V37.6191H187.413L187.373 36.5567C187.178 36.9374 186.882 37.2384 186.483 37.4598C186.085 37.6723 185.638 37.7785 185.142 37.7785ZM185.368 36.7161C185.784 36.7161 186.133 36.6099 186.417 36.3974C186.709 36.1849 186.93 35.8839 187.081 35.4943C187.231 35.0959 187.306 34.6311 187.306 34.0999C187.306 33.551 187.231 33.0818 187.081 32.6923C186.93 32.3027 186.709 32.0061 186.417 31.8025C186.133 31.59 185.784 31.4838 185.368 31.4838C184.748 31.4838 184.252 31.7184 183.88 32.1876C183.517 32.648 183.336 33.2854 183.336 34.0999C183.336 34.9056 183.517 35.543 183.88 36.0123C184.252 36.4815 184.748 36.7161 185.368 36.7161ZM192.897 37.7785C192.233 37.7785 191.657 37.628 191.17 37.327C190.692 37.026 190.321 36.601 190.055 36.0521C189.798 35.4943 189.67 34.8436 189.67 34.0999C189.67 33.3563 189.798 32.71 190.055 32.1611C190.321 31.6122 190.688 31.1872 191.157 30.8862C191.635 30.5763 192.197 30.4214 192.844 30.4214C193.455 30.4214 193.995 30.5675 194.464 30.8596C194.933 31.1429 195.296 31.559 195.553 32.1079C195.818 32.6568 195.951 33.3253 195.951 34.1132V34.4452H190.838C190.883 35.1978 191.082 35.7644 191.436 36.1451C191.799 36.5258 192.286 36.7161 192.897 36.7161C193.357 36.7161 193.733 36.6099 194.026 36.3974C194.327 36.176 194.535 35.8883 194.65 35.5342L195.845 35.6271C195.659 36.2557 195.305 36.7736 194.783 37.1809C194.269 37.5793 193.641 37.7785 192.897 37.7785ZM190.838 33.4625H194.729C194.676 32.7808 194.477 32.2806 194.132 31.9619C193.795 31.6431 193.366 31.4838 192.844 31.4838C192.304 31.4838 191.857 31.652 191.502 31.9884C191.157 32.316 190.936 32.8074 190.838 33.4625ZM199.277 37.7785C198.551 37.7785 197.971 37.6103 197.538 37.2739C197.113 36.9374 196.9 36.4682 196.9 35.8662C196.9 35.2642 197.077 34.7905 197.431 34.4452C197.785 34.0999 198.348 33.8565 199.118 33.7148L201.615 33.25C201.615 32.6568 201.473 32.2142 201.19 31.922C200.915 31.6299 200.499 31.4838 199.941 31.4838C199.454 31.4838 199.069 31.5944 198.786 31.8158C198.503 32.0283 198.308 32.3381 198.202 32.7454L197.02 32.6524C197.152 31.9884 197.471 31.4528 197.976 31.0455C198.489 30.6294 199.144 30.4214 199.941 30.4214C200.844 30.4214 201.535 30.6781 202.013 31.1916C202.491 31.6963 202.73 32.3957 202.73 33.2899V36.1982C202.73 36.3575 202.757 36.4726 202.81 36.5435C202.872 36.6054 202.969 36.6364 203.102 36.6364H203.381V37.6191C203.345 37.628 203.288 37.6324 203.208 37.6324C203.128 37.6413 203.044 37.6457 202.956 37.6457C202.637 37.6457 202.376 37.597 202.172 37.4996C201.978 37.3934 201.836 37.234 201.747 37.0215C201.659 36.8002 201.615 36.5125 201.615 36.1583L201.747 36.1849C201.685 36.4859 201.535 36.7604 201.296 37.0083C201.057 37.2473 200.76 37.4376 200.406 37.5793C200.052 37.7121 199.676 37.7785 199.277 37.7785ZM199.383 36.7958C199.853 36.7958 200.251 36.7072 200.579 36.5302C200.915 36.3443 201.172 36.0964 201.349 35.7865C201.526 35.4678 201.615 35.1136 201.615 34.7241V34.2195L199.33 34.6444C198.852 34.733 198.52 34.8702 198.334 35.0561C198.157 35.2332 198.069 35.4678 198.069 35.7599C198.069 36.0875 198.184 36.3443 198.414 36.5302C198.653 36.7072 198.976 36.7958 199.383 36.7958ZM206.846 37.7785C206.235 37.7785 205.704 37.628 205.252 37.327C204.81 37.026 204.469 36.601 204.23 36.0521C203.991 35.5032 203.871 34.8525 203.871 34.0999C203.871 33.3474 203.991 32.6967 204.23 32.1478C204.469 31.5989 204.81 31.1739 205.252 30.8729C205.704 30.5719 206.235 30.4214 206.846 30.4214C207.315 30.4214 207.744 30.5232 208.134 30.7268C208.524 30.9216 208.816 31.2005 209.01 31.5635V28.1903H210.126V37.6191H209.117L209.077 36.5567C208.882 36.9374 208.585 37.2384 208.187 37.4598C207.789 37.6723 207.342 37.7785 206.846 37.7785ZM207.072 36.7161C207.488 36.7161 207.837 36.6099 208.121 36.3974C208.413 36.1849 208.634 35.8839 208.785 35.4943C208.935 35.0959 209.01 34.6311 209.01 34.0999C209.01 33.551 208.935 33.0818 208.785 32.6923C208.634 32.3027 208.413 32.0061 208.121 31.8025C207.837 31.59 207.488 31.4838 207.072 31.4838C206.452 31.4838 205.956 31.7184 205.584 32.1876C205.221 32.648 205.04 33.2854 205.04 34.0999C205.04 34.9056 205.221 35.543 205.584 36.0123C205.956 36.4815 206.452 36.7161 207.072 36.7161ZM213.233 37.6191C212.826 37.6191 212.494 37.5129 212.237 37.3004C211.98 37.0879 211.852 36.7515 211.852 36.2911V28.1903H212.967V36.1982C212.967 36.3398 213.003 36.4505 213.074 36.5302C213.153 36.601 213.264 36.6364 213.406 36.6364H214.016V37.6191H213.233ZM215.023 37.6191V30.5807H216.138V37.6191H215.023ZM214.996 29.4785V28.1771H216.165V29.4785H214.996ZM218.129 37.6191V30.5807H219.152L219.192 32.3735L219.059 32.254C219.147 31.8379 219.302 31.4971 219.524 31.2315C219.745 30.957 220.011 30.7534 220.32 30.6206C220.639 30.4878 220.98 30.4214 221.343 30.4214C221.883 30.4214 222.326 30.5409 222.671 30.7799C223.025 31.019 223.286 31.3421 223.455 31.7494C223.632 32.1478 223.72 32.5949 223.72 33.0907V37.6191H222.605V33.4094C222.605 32.9756 222.551 32.6126 222.445 32.3204C222.348 32.0194 222.189 31.7936 221.967 31.6431C221.746 31.4838 221.458 31.4041 221.104 31.4041C220.564 31.4041 220.117 31.5767 219.763 31.922C219.417 32.2584 219.245 32.7542 219.245 33.4094V37.6191H218.129ZM228.173 37.7785C227.509 37.7785 226.934 37.628 226.447 37.327C225.969 37.026 225.597 36.601 225.331 36.0521C225.075 35.4943 224.946 34.8436 224.946 34.0999C224.946 33.3563 225.075 32.71 225.331 32.1611C225.597 31.6122 225.964 31.1872 226.434 30.8862C226.912 30.5763 227.474 30.4214 228.12 30.4214C228.731 30.4214 229.271 30.5675 229.74 30.8596C230.21 31.1429 230.573 31.559 230.829 32.1079C231.095 32.6568 231.228 33.3253 231.228 34.1132V34.4452H226.115C226.159 35.1978 226.358 35.7644 226.713 36.1451C227.076 36.5258 227.563 36.7161 228.173 36.7161C228.634 36.7161 229.01 36.6099 229.302 36.3974C229.603 36.176 229.811 35.8883 229.926 35.5342L231.122 35.6271C230.936 36.2557 230.581 36.7736 230.059 37.1809C229.546 37.5793 228.917 37.7785 228.173 37.7785ZM226.115 33.4625H230.006C229.953 32.7808 229.754 32.2806 229.408 31.9619C229.072 31.6431 228.643 31.4838 228.12 31.4838C227.58 31.4838 227.133 31.652 226.779 31.9884C226.434 32.316 226.212 32.8074 226.115 33.4625ZM236.348 37.6191V29.9433C236.348 29.421 236.498 29.0004 236.799 28.6817C237.1 28.3541 237.57 28.1903 238.207 28.1903H239.323V29.1731H238.287C238.012 29.1731 237.804 29.2483 237.663 29.3988C237.53 29.5493 237.463 29.7574 237.463 30.023V37.6191H236.348ZM235.392 31.5635V30.5807H239.23V31.5635H235.392ZM242.796 37.7785C242.15 37.7785 241.584 37.628 241.097 37.327C240.61 37.026 240.233 36.601 239.968 36.0521C239.702 35.4943 239.569 34.8436 239.569 34.0999C239.569 33.3474 239.702 32.6967 239.968 32.1478C240.233 31.5989 240.61 31.1739 241.097 30.8729C241.584 30.5719 242.15 30.4214 242.796 30.4214C243.443 30.4214 244.005 30.5719 244.483 30.8729C244.97 31.1739 245.346 31.5989 245.612 32.1478C245.877 32.6967 246.01 33.3474 246.01 34.0999C246.01 34.8436 245.877 35.4943 245.612 36.0521C245.346 36.601 244.97 37.026 244.483 37.327C244.005 37.628 243.443 37.7785 242.796 37.7785ZM242.796 36.7161C243.443 36.7161 243.943 36.4859 244.297 36.0255C244.66 35.5563 244.842 34.9144 244.842 34.0999C244.842 33.2854 244.66 32.648 244.297 32.1876C243.943 31.7184 243.443 31.4838 242.796 31.4838C242.15 31.4838 241.645 31.7184 241.282 32.1876C240.92 32.648 240.738 33.2854 240.738 34.0999C240.738 34.9144 240.92 35.5563 241.282 36.0255C241.645 36.4859 242.15 36.7161 242.796 36.7161ZM247.265 37.6191V30.5807H248.248L248.301 32.3603L248.194 32.3204C248.283 31.7184 248.473 31.2802 248.765 31.0057C249.066 30.7224 249.465 30.5807 249.961 30.5807H250.651V31.6431H249.974C249.62 31.6431 249.323 31.7095 249.084 31.8423C248.854 31.9663 248.677 32.1566 248.553 32.4134C248.438 32.6613 248.38 32.98 248.38 33.3695V37.6191H247.265ZM28.5787 57.6191C27.9413 57.6191 27.4676 57.4731 27.1578 57.1809C26.8567 56.8887 26.7062 56.4328 26.7062 55.8131V48.934H27.8218V55.7865C27.8218 56.1052 27.8926 56.3266 28.0342 56.4505C28.1759 56.5744 28.3928 56.6364 28.685 56.6364H29.6942V57.6191H28.5787ZM25.6704 51.5635V50.5807H29.6942V51.5635H25.6704ZM30.8595 57.6191V48.1903H31.975V52.1345L31.8422 52.1079C31.9307 51.7184 32.0812 51.3997 32.2937 51.1518C32.5062 50.9039 32.7674 50.7224 33.0772 50.6073C33.3871 50.4834 33.7279 50.4214 34.0998 50.4214C34.6044 50.4214 35.0294 50.5365 35.3747 50.7667C35.7288 50.988 35.9944 51.3023 36.1715 51.7095C36.3574 52.1079 36.4503 52.5683 36.4503 53.0907V57.6191H35.3348V53.4094C35.3348 52.7277 35.2109 52.223 34.963 51.8955C34.7239 51.5679 34.3565 51.4041 33.8607 51.4041C33.2941 51.4041 32.8382 51.5767 32.4929 51.922C32.1476 52.2673 31.975 52.7675 31.975 53.4227V57.6191H30.8595ZM38.1806 57.6191V50.5807H39.2961V57.6191H38.1806ZM38.154 49.4785V48.1771H39.3227V49.4785H38.154ZM43.5905 57.7785C42.9619 57.7785 42.4263 57.6767 41.9836 57.4731C41.5498 57.2694 41.209 56.9906 40.9611 56.6364C40.722 56.2734 40.5848 55.8618 40.5494 55.4014L41.718 55.3217C41.7889 55.7467 41.9704 56.0875 42.2625 56.3443C42.5547 56.5922 42.9973 56.7161 43.5905 56.7161C44.0686 56.7161 44.4493 56.6408 44.7326 56.4903C45.0248 56.331 45.1708 56.0787 45.1708 55.7334C45.1708 55.5475 45.1266 55.3925 45.038 55.2686C44.9495 55.1446 44.7769 55.0384 44.5201 54.9499C44.2634 54.8525 43.8827 54.7595 43.378 54.671C42.7052 54.547 42.174 54.3965 41.7844 54.2195C41.4037 54.0335 41.1293 53.8078 40.9611 53.5422C40.8017 53.2677 40.722 52.9446 40.722 52.5727C40.722 51.9442 40.9522 51.4307 41.4126 51.0323C41.873 50.625 42.5281 50.4214 43.378 50.4214C43.9535 50.4214 44.436 50.5276 44.8256 50.7401C45.224 50.9437 45.5338 51.2182 45.7552 51.5635C45.9853 51.8999 46.1358 52.2717 46.2067 52.679L45.038 52.7587C44.9849 52.5108 44.8875 52.2939 44.7459 52.1079C44.6042 51.9132 44.4183 51.7627 44.1881 51.6564C43.9579 51.5413 43.6835 51.4838 43.3648 51.4838C42.8601 51.4838 42.4883 51.5812 42.2492 51.7759C42.0102 51.9707 41.8907 52.2186 41.8907 52.5196C41.8907 52.7498 41.9438 52.9402 42.05 53.0907C42.1651 53.2323 42.3466 53.3518 42.5945 53.4492C42.8424 53.5378 43.1744 53.6174 43.5905 53.6883C44.3076 53.8122 44.8654 53.9627 45.2638 54.1398C45.6622 54.3168 45.9411 54.5338 46.1004 54.7905C46.2598 55.0472 46.3395 55.3615 46.3395 55.7334C46.3395 56.1672 46.2155 56.539 45.9676 56.8489C45.7286 57.1499 45.401 57.3801 44.9849 57.5395C44.5777 57.6988 44.1129 57.7785 43.5905 57.7785ZM49.2395 54.9499C49.2395 54.3124 49.3369 53.8078 49.5317 53.4359C49.7353 53.0552 50.0673 52.7232 50.5277 52.4399C50.8729 52.2275 51.1341 52.0415 51.3112 51.8822C51.4971 51.714 51.621 51.5413 51.683 51.3643C51.745 51.1783 51.776 50.9526 51.776 50.687C51.776 50.2266 51.621 49.8459 51.3112 49.5449C51.0102 49.2439 50.5896 49.0934 50.0496 49.0934C49.3944 49.0934 48.8898 49.2616 48.5357 49.598C48.1904 49.9344 47.9823 50.4214 47.9115 51.0588L46.7163 50.9791C46.7694 50.3948 46.9376 49.8769 47.2209 49.4254C47.5042 48.9739 47.8849 48.6197 48.363 48.363C48.8411 48.1062 49.4033 47.9779 50.0496 47.9779C50.625 47.9779 51.1297 48.093 51.5635 48.3231C52.0062 48.5533 52.3514 48.872 52.5993 49.2793C52.8472 49.6866 52.9712 50.1558 52.9712 50.687C52.9712 51.0588 52.9092 51.382 52.7853 51.6564C52.6702 51.9309 52.4887 52.1832 52.2408 52.4134C51.9929 52.6436 51.6786 52.8826 51.2979 53.1305C50.9438 53.3607 50.7003 53.6042 50.5675 53.8609C50.4435 54.1176 50.3816 54.4806 50.3816 54.9499H49.2395ZM49.027 57.6191V56.1185H50.5277V57.6191H49.027Z" fill="#2A3241"/>
<path d="M33.8026 79.1734C34.966 78.0099 36.8524 78.0099 38.0158 79.1734C39.1792 80.3368 39.1792 82.2231 38.0158 83.3865L34.9517 86.4507C34.2113 87.1911 33.0109 87.1911 32.2705 86.4507C31.5302 85.7103 31.5302 84.5099 32.2705 83.7695L35.5262 80.5139L36.6753 81.663L33.3408 85.0009C33.2361 85.1057 33.2361 85.2755 33.3409 85.3802C33.4456 85.4849 33.6154 85.485 33.7201 85.3803L36.8668 82.2375C37.3956 81.7087 37.3956 80.8512 36.8668 80.3224C36.3379 79.7936 35.4805 79.7936 34.9516 80.3224L31.8875 83.3865C30.9356 84.3384 30.9356 85.8818 31.8875 86.8337C32.8394 87.7856 34.3828 87.7856 35.3347 86.8337L38.5903 83.578L39.7394 84.7271L36.4838 87.9827C34.8972 89.5692 32.325 89.5692 30.7385 87.9827C29.152 86.3962 29.152 83.824 30.7385 82.2375L33.8026 79.1734Z" fill="#545D6C"/>
<path d="M58.6118 84.2324C59.958 84.2325 61.0493 85.3238 61.0493 86.6699C61.0491 88.0159 59.9578 89.1074 58.6118 89.1074C57.2658 89.1074 56.1746 88.0159 56.1743 86.6699C56.1743 85.3237 57.2656 84.2324 58.6118 84.2324ZM66.7368 88.8359H61.3198L64.0288 84.5029L66.7368 88.8359ZM60.7788 83.4199H56.4448V79.0859H60.7788V83.4199ZM64.5698 80.7109H66.1948V81.7949H64.5698V83.4199H63.4868V81.7949H61.8618V80.7109H63.4868V79.0859H64.5698V80.7109Z" fill="#545D6C"/>
<path d="M88.8502 85.208C90.2253 85.2081 91.3404 86.3232 91.3404 87.6982V89.6348H84.6998V87.6982C84.6999 86.3231 85.8149 85.208 87.19 85.208H88.8502ZM89.1266 79.1221H89.9566C91.3318 79.1221 92.4469 80.2371 92.4469 81.6123V82.165C92.4467 83.5401 91.3317 84.6553 89.9566 84.6553H86.0836C84.7085 84.6553 83.5936 83.5401 83.5934 82.165V81.6123C83.5934 80.2371 84.7084 79.1221 86.0836 79.1221H86.9137V78.5684H89.1266V79.1221ZM85.8063 80.2285C85.1954 80.2288 84.7 80.7241 84.6998 81.335C84.7 81.9458 85.1954 82.4421 85.8063 82.4424C86.4173 82.4424 86.9135 81.946 86.9137 81.335C86.9134 80.724 86.4173 80.2285 85.8063 80.2285ZM90.233 80.2285C89.6221 80.2287 89.1268 80.7241 89.1266 81.335C89.1268 81.9459 89.6221 82.4422 90.233 82.4424C90.8441 82.4424 91.3402 81.946 91.3404 81.335C91.3402 80.724 90.8441 80.2285 90.233 80.2285Z" fill="#545D6C"/>
</g>
</g>
<defs>
<filter id="filter0_d_1618_70587" x="6.52486" y="9.26243" width="587.95" height="104.95" filterUnits="userSpaceOnUse" color-interpolation-filters="sRGB">
<feFlood flood-opacity="0" result="BackgroundImageFix"/>
<feColorMatrix in="SourceAlpha" type="matrix" values="0 0 0 0 0 0 0 0 0 0 0 0 0 0 0 0 0 0 127 0" result="hardAlpha"/>
<feOffset dy="1.73757"/>
<feGaussianBlur stdDeviation="1.73757"/>
<feComposite in2="hardAlpha" operator="out"/>
<feColorMatrix type="matrix" values="0 0 0 0 0 0 0 0 0 0 0 0 0 0 0 0 0 0 0.08 0"/>
<feBlend mode="normal" in2="BackgroundImageFix" result="effect1_dropShadow_1618_70587"/>
<feBlend mode="normal" in="SourceGraphic" in2="effect1_dropShadow_1618_70587" result="shape"/>
</filter>
<clipPath id="clip0_1618_70587">
<rect width="300" height="98" fill="white"/>
</clipPath>
</defs>
</svg>
