<svg width="460" height="64" viewBox="0 0 460 64" fill="none" xmlns="http://www.w3.org/2000/svg">
<mask id="mask0_647_12889" style="mask-type:alpha" maskUnits="userSpaceOnUse" x="0" y="0" width="460" height="64">
<rect width="460" height="64" fill="url(#paint0_linear_647_12889)"/>
</mask>
<g mask="url(#mask0_647_12889)">
<path d="M0 32C0 28.0476 0 26.0714 0.434446 24.4501C1.6134 20.0501 5.05013 16.6134 9.45006 15.4344C11.0714 15 13.0476 15 17 15C20.9524 15 22.9286 15 24.5499 15.4344C28.9499 16.6134 32.3866 20.0501 33.5656 24.4501C34 26.0714 34 28.0476 34 32C34 35.9524 34 37.9286 33.5656 39.5499C32.3866 43.9499 28.9499 47.3866 24.5499 48.5656C22.9286 49 20.9524 49 17 49C13.0476 49 11.0714 49 9.45006 48.5656C5.05013 47.3866 1.6134 43.9499 0.434446 39.5499C0 37.9286 0 35.9524 0 32Z" fill="white"/>
<path d="M17 15.2656C20.9695 15.2656 22.9024 15.2683 24.4814 15.6914C28.7894 16.8459 32.1541 20.2106 33.3086 24.5186C33.7317 26.0976 33.7344 28.0305 33.7344 32C33.7344 35.9695 33.7317 37.9024 33.3086 39.4814C32.1541 43.7894 28.7894 47.1541 24.4814 48.3086C22.9024 48.7317 20.9695 48.7344 17 48.7344C13.0305 48.7344 11.0976 48.7317 9.51855 48.3086C5.21057 47.1541 1.84585 43.7894 0.691406 39.4814C0.268293 37.9024 0.265625 35.9695 0.265625 32C0.265625 28.0305 0.268293 26.0976 0.691406 24.5186C1.84586 20.2106 5.21057 16.8459 9.51855 15.6914C11.0976 15.2683 13.0305 15.2656 17 15.2656Z" stroke="#2A3241" stroke-opacity="0.1" stroke-width="0.53125"/>
<path d="M10.3662 32.6666H14.0182C14.1375 34.8458 14.8383 36.8701 15.968 38.5872C12.9917 38.1246 10.6667 35.6934 10.3662 32.6666ZM10.3662 31.3332C10.6667 28.3064 12.9917 25.8751 15.968 25.4126C14.8383 27.1296 14.1375 29.154 14.0182 31.3332H10.3662ZM23.6337 31.3332H19.9817C19.8624 29.154 19.1617 27.1296 18.0319 25.4126C21.0082 25.8751 23.3332 28.3064 23.6337 31.3332ZM23.6337 32.6666C23.3332 35.6934 21.0082 38.1246 18.0319 38.5872C19.1617 36.8701 19.8624 34.8458 19.9817 32.6666H23.6337ZM15.3538 32.6666H18.6461C18.5317 34.5218 17.9431 36.2487 16.9999 37.7276C16.0568 36.2487 15.4682 34.5218 15.3538 32.6666ZM15.3538 31.3332C15.4682 29.478 16.0568 27.7511 16.9999 26.2722C17.9431 27.7511 18.5317 29.478 18.6461 31.3332H15.3538Z" fill="#2A3241"/>
<path d="M40 32C40 27.3501 40 25.0252 40.5111 23.1177C41.8981 17.9413 45.9413 13.8981 51.1177 12.5111C53.0252 12 55.3501 12 60 12C64.6499 12 66.9748 12 68.8823 12.5111C74.0587 13.8981 78.1019 17.9413 79.4889 23.1177C80 25.0252 80 27.3501 80 32C80 36.6499 80 38.9748 79.4889 40.8823C78.1019 46.0587 74.0587 50.1019 68.8823 51.4889C66.9748 52 64.6499 52 60 52C55.3501 52 53.0252 52 51.1177 51.4889C45.9413 50.1019 41.8981 46.0587 40.5111 40.8823C40 38.9748 40 36.6499 40 32Z" fill="white"/>
<path d="M60 12.3125C64.67 12.3125 66.944 12.3147 68.8018 12.8125C73.8701 14.1706 77.8294 18.1299 79.1875 23.1982C79.6853 25.056 79.6875 27.33 79.6875 32C79.6875 36.67 79.6853 38.944 79.1875 40.8018C77.8294 45.8701 73.8701 49.8294 68.8018 51.1875C66.944 51.6853 64.67 51.6875 60 51.6875C55.33 51.6875 53.056 51.6853 51.1982 51.1875C46.1299 49.8294 42.1706 45.8701 40.8125 40.8018C40.3147 38.944 40.3125 36.67 40.3125 32C40.3125 27.33 40.3147 25.056 40.8125 23.1982C42.1706 18.1299 46.1299 14.1706 51.1982 12.8125C53.056 12.3147 55.33 12.3125 60 12.3125Z" stroke="#2A3241" stroke-opacity="0.1" stroke-width="0.625"/>
<path d="M65.668 27.948L60 24.6665L54.3319 27.948L60 31.2295L65.668 27.948ZM53.6666 29.1035V35.6665L59.3333 38.9472V32.3842L53.6666 29.1035ZM60.6666 38.9472L66.3333 35.6665V29.1035L60.6666 32.3842V38.9472Z" fill="#2A3241"/>
<path d="M86 32C86 26.6527 86 23.979 86.5878 21.7854C88.1828 15.8325 92.8325 11.1828 98.7854 9.58778C100.979 9 103.653 9 109 9C114.347 9 117.021 9 119.215 9.58778C125.167 11.1828 129.817 15.8325 131.412 21.7854C132 23.979 132 26.6527 132 32C132 37.3473 132 40.021 131.412 42.2146C129.817 48.1675 125.167 52.8172 119.215 54.4122C117.021 55 114.347 55 109 55C103.653 55 100.979 55 98.7854 54.4122C92.8325 52.8172 88.1828 48.1675 86.5878 42.2146C86 40.021 86 37.3473 86 32Z" fill="white"/>
<path d="M109 9.35938C114.37 9.35938 116.986 9.36212 119.122 9.93457C124.951 11.4965 129.504 16.0494 131.065 21.8779C131.638 24.0143 131.641 26.6295 131.641 32C131.641 37.3705 131.638 39.9857 131.065 42.1221C129.504 47.9506 124.951 52.5035 119.122 54.0654C116.986 54.6379 114.37 54.6406 109 54.6406C103.63 54.6406 101.014 54.6379 98.8779 54.0654C93.0494 52.5035 88.4965 47.9506 86.9346 42.1221C86.3621 39.9857 86.3594 37.3705 86.3594 32C86.3594 26.6295 86.3621 24.0143 86.9346 21.8779C88.4965 16.0494 93.0494 11.4965 98.8779 9.93457C101.014 9.36212 103.63 9.35938 109 9.35938Z" stroke="#2A3241" stroke-opacity="0.1" stroke-width="0.71875"/>
<path d="M113.64 40.0292C111.715 40.8168 109.921 41.1668 108.04 41.1668C102.242 41.1668 98.9166 38.2134 98.9166 33.0503C98.9166 26.9027 103.205 22.8335 109.658 22.8335C115.259 22.8335 119.044 25.8963 119.044 30.5344C119.044 34.4286 117.009 36.7038 114.034 36.7038C112.524 36.7038 111.518 36.0694 111.081 35.063C110.359 36.135 108.98 36.8351 107.733 36.8351C105.261 36.8351 103.773 35.2818 103.773 32.6784C103.773 29.5499 105.589 27.3621 108.193 27.3621C109.374 27.3621 110.359 27.7559 110.927 28.4341L111.015 27.559H114.078L113.64 31.6939C113.575 32.394 113.509 33.094 113.509 33.5535C113.509 34.0785 113.925 34.4286 114.515 34.4286C115.828 34.4286 116.637 33.2034 116.637 30.9282C116.637 26.9465 114.34 25.0212 109.527 25.0212C104.649 25.0212 101.323 28.1278 101.323 32.8534C101.323 36.7038 103.795 38.9791 108.127 38.9791C109.987 38.9791 111.321 38.7384 113.049 38.0165L113.64 40.0292ZM108.696 34.2098C109.746 34.2098 110.468 33.2253 110.468 31.8251C110.468 30.6656 109.943 29.9874 109.046 29.9874C107.996 29.9874 107.274 30.9719 107.274 32.394C107.274 33.5316 107.799 34.2098 108.696 34.2098Z" fill="#2A3241"/>
<path d="M138 32C138 25.7227 138 22.584 138.69 20.0089C140.562 13.0208 146.021 7.56246 153.009 5.69C155.584 5 158.723 5 165 5C171.277 5 174.416 5 176.991 5.69C183.979 7.56246 189.438 13.0208 191.31 20.0089C192 22.584 192 25.7227 192 32C192 38.2773 192 41.416 191.31 43.9911C189.438 50.9792 183.979 56.4375 176.991 58.31C174.416 59 171.277 59 165 59C158.723 59 155.584 59 153.009 58.31C146.021 56.4375 140.562 50.9792 138.69 43.9911C138 41.416 138 38.2773 138 32Z" fill="white"/>
<path d="M165 5.42188C171.304 5.42188 174.374 5.42566 176.882 6.09766C183.724 7.93111 189.069 13.2756 190.902 20.1182C191.574 22.6261 191.578 25.6955 191.578 32C191.578 38.3045 191.574 41.3739 190.902 43.8818C189.069 50.7244 183.724 56.0689 176.882 57.9023C174.374 58.5743 171.304 58.5781 165 58.5781C158.696 58.5781 155.626 58.5743 153.118 57.9023C146.276 56.0689 140.931 50.7244 139.098 43.8818C138.426 41.3739 138.422 38.3045 138.422 32C138.422 25.6955 138.426 22.6261 139.098 20.1182C140.931 13.2756 146.276 7.93111 153.118 6.09766C155.626 5.42566 158.696 5.42188 165 5.42188Z" stroke="#2A3241" stroke-opacity="0.1" stroke-width="0.84375"/>
<path fill-rule="evenodd" clip-rule="evenodd" d="M168.097 21.8666C168.964 21.6098 169.903 21.5895 170.729 22.064C171.555 22.5385 172.007 23.3579 172.216 24.2326C172.425 25.1046 172.421 26.1263 172.265 27.2028C172.236 27.406 172.198 27.6126 172.157 27.8232C172.362 27.8935 172.56 27.9653 172.752 28.0417C173.767 28.4457 174.659 28.953 175.314 29.5688C175.971 30.1867 176.458 30.9861 176.458 31.9348C176.458 32.8837 175.971 33.6829 175.314 34.3008C174.659 34.9167 173.768 35.424 172.752 35.8279C172.56 35.9043 172.361 35.9762 172.157 36.0465C172.198 36.2574 172.236 36.4644 172.265 36.6679C172.421 37.7444 172.425 38.7661 172.216 39.638C172.007 40.5128 171.555 41.3322 170.729 41.8067C169.903 42.2812 168.964 42.2608 168.097 42.0041C167.234 41.748 166.346 41.2335 165.487 40.561C165.325 40.4339 165.163 40.2987 165 40.1582C164.837 40.2987 164.675 40.4339 164.513 40.561C163.653 41.2335 162.766 41.748 161.902 42.0041C161.036 42.2608 160.097 42.2812 159.271 41.8067C158.445 41.3322 157.993 40.5128 157.784 39.638C157.575 38.7661 157.579 37.7444 157.735 36.6679C157.764 36.4645 157.801 36.2574 157.842 36.0465C157.638 35.9762 157.439 35.9042 157.247 35.8279C156.232 35.424 155.341 34.9167 154.686 34.3008C154.029 33.6829 153.542 32.8837 153.542 31.9348C153.542 30.9861 154.029 30.1867 154.686 29.5688C155.341 28.953 156.232 28.4457 157.247 28.0417C157.439 27.9654 157.638 27.8934 157.842 27.8232C157.801 27.6126 157.764 27.4059 157.735 27.2028C157.579 26.1263 157.575 25.1046 157.784 24.2326C157.993 23.3579 158.445 22.5385 159.271 22.064C160.097 21.5895 161.036 21.6098 161.902 21.8666C162.766 22.1227 163.653 22.6371 164.513 23.3097C164.675 23.4366 164.837 23.5711 165 23.7115C165.163 23.5711 165.325 23.4366 165.487 23.3097C166.346 22.6371 167.234 22.1227 168.097 21.8666ZM159.855 36.6001C159.833 36.7228 159.814 36.8437 159.797 36.9624C159.663 37.8849 159.682 38.6262 159.81 39.1584C159.937 39.687 160.142 39.9147 160.312 40.0125C160.483 40.1102 160.784 40.1737 161.307 40.0185C161.834 39.8623 162.489 39.508 163.225 38.9317C163.319 38.8577 163.414 38.7801 163.51 38.6999C163.026 38.1677 162.549 37.5836 162.085 36.9563C161.307 36.8701 160.56 36.751 159.855 36.6001ZM170.144 36.6001C169.439 36.7509 168.692 36.8701 167.914 36.9563C167.45 37.5836 166.973 38.1677 166.489 38.6999C166.585 38.7802 166.68 38.8575 166.775 38.9317C167.511 39.508 168.166 39.8623 168.693 40.0185C169.216 40.1737 169.517 40.1102 169.687 40.0125C169.858 39.9147 170.063 39.687 170.19 39.1584C170.317 38.6262 170.337 37.8849 170.203 36.9624C170.186 36.8437 170.166 36.7229 170.144 36.6001ZM165 37.1162C164.96 37.1162 164.921 37.1143 164.881 37.1142C164.92 37.1587 164.96 37.203 164.999 37.2467C165.038 37.2028 165.078 37.1589 165.118 37.1142C165.079 37.1143 165.039 37.1162 165 37.1162ZM165 28.826C164.394 28.826 163.803 28.8492 163.231 28.8898C162.91 29.3615 162.597 29.8593 162.294 30.3804C161.992 30.9017 161.714 31.4214 161.464 31.9338C161.715 32.4469 161.991 32.9672 162.294 33.4892C162.596 34.0103 162.91 34.5082 163.231 34.9799C163.803 35.0205 164.394 35.0436 165 35.0436C165.606 35.0436 166.196 35.0205 166.768 34.9799C167.089 34.508 167.403 34.0105 167.706 33.4892C168.009 32.9673 168.284 32.4468 168.535 31.9338C168.285 31.4216 168.008 30.9016 167.706 30.3804C167.403 29.8591 167.089 29.3617 166.768 28.8898C166.196 28.8492 165.606 28.826 165 28.826ZM169.51 34.5255C169.491 34.5598 169.469 34.5936 169.449 34.6277C169.508 34.616 169.566 34.6034 169.624 34.5913C169.606 34.5352 169.588 34.4788 169.568 34.4223C169.549 34.4565 169.53 34.4913 169.51 34.5255ZM160.375 34.5913C160.432 34.6034 160.491 34.615 160.549 34.6267C160.53 34.593 160.509 34.5594 160.489 34.5255C160.47 34.4912 160.45 34.4566 160.43 34.4223C160.411 34.4788 160.393 34.5352 160.375 34.5913ZM171.633 29.835C171.412 30.5181 171.143 31.2214 170.829 31.9348C171.143 32.648 171.412 33.3509 171.633 34.0337C171.751 33.9913 171.867 33.9486 171.978 33.9042C172.848 33.558 173.483 33.1709 173.883 32.795C174.279 32.4215 174.375 32.1303 174.375 31.9348C174.375 31.7393 174.279 31.448 173.883 31.0747C173.483 30.6988 172.848 30.3116 171.978 29.9655C171.866 29.921 171.751 29.8774 171.633 29.835ZM158.365 29.835C158.248 29.8773 158.133 29.9211 158.022 29.9655C157.152 30.3116 156.517 30.6988 156.117 31.0747C155.721 31.448 155.625 31.7393 155.625 31.9348C155.625 32.1303 155.72 32.4215 156.117 32.795C156.517 33.1709 157.152 33.558 158.022 33.9042C158.133 33.9485 158.248 33.9914 158.365 34.0337C158.587 33.3509 158.856 32.648 159.17 31.9348C158.856 31.2214 158.587 30.5181 158.365 29.835ZM160.375 29.2784C160.393 29.3341 160.411 29.3902 160.43 29.4464C160.45 29.4124 160.47 29.3781 160.489 29.3442C160.509 29.3102 160.53 29.2768 160.549 29.243C160.491 29.2546 160.432 29.2663 160.375 29.2784ZM169.51 29.3442C169.53 29.378 169.549 29.4126 169.568 29.4464C169.588 29.3902 169.606 29.3341 169.624 29.2784C169.566 29.2663 169.508 29.2536 169.449 29.242C169.469 29.2761 169.491 29.3098 169.51 29.3442ZM161.307 23.8521C160.784 23.697 160.483 23.7605 160.312 23.8582C160.142 23.9559 159.937 24.1836 159.81 24.7123C159.682 25.2445 159.663 25.9858 159.797 26.9083C159.814 27.0266 159.833 27.1472 159.855 27.2696C160.56 27.1187 161.307 26.9986 162.085 26.9124C162.549 26.2851 163.026 25.7009 163.51 25.1687C163.414 25.0889 163.319 25.0127 163.225 24.939C162.489 24.3626 161.834 24.0084 161.307 23.8521ZM169.687 23.8582C169.517 23.7605 169.216 23.697 168.693 23.8521C168.166 24.0084 167.511 24.3626 166.775 24.939C166.681 25.0129 166.585 25.0887 166.489 25.1687C166.973 25.7009 167.45 26.2851 167.914 26.9124C168.692 26.9985 169.439 27.1187 170.144 27.2696C170.166 27.1471 170.186 27.0267 170.203 26.9083C170.337 25.9858 170.317 25.2445 170.19 24.7123C170.063 24.1836 169.858 23.9559 169.687 23.8582ZM164.882 26.7545C164.921 26.7543 164.961 26.7535 165 26.7535C165.039 26.7535 165.078 26.7543 165.117 26.7545C165.078 26.7099 165.038 26.6656 164.999 26.6219C164.96 26.6655 164.921 26.7101 164.882 26.7545Z" fill="#2A3241"/>
<path d="M198 32C198 24.5602 198 20.8403 198.818 17.7883C201.037 9.50613 207.506 3.03699 215.788 0.817781C218.84 0 222.56 0 230 0C237.44 0 241.16 0 244.212 0.817781C252.494 3.03699 258.963 9.50613 261.182 17.7883C262 20.8403 262 24.5602 262 32C262 39.4398 262 43.1597 261.182 46.2117C258.963 54.4939 252.494 60.963 244.212 63.1822C241.16 64 237.44 64 230 64C222.56 64 218.84 64 215.788 63.1822C207.506 60.963 201.037 54.4939 198.818 46.2117C198 43.1597 198 39.4398 198 32Z" fill="white"/>
<path d="M230 0.5C237.472 0.5 241.11 0.504384 244.082 1.30078C252.192 3.47376 258.526 9.80831 260.699 17.918C261.496 20.8903 261.5 24.5282 261.5 32C261.5 39.4718 261.496 43.1097 260.699 46.082C258.526 54.1917 252.192 60.5262 244.082 62.6992C241.11 63.4956 237.472 63.5 230 63.5C222.528 63.5 218.89 63.4956 215.918 62.6992C207.808 60.5262 201.474 54.1917 199.301 46.082C198.504 43.1097 198.5 39.4718 198.5 32C198.5 24.5282 198.504 20.8903 199.301 17.918C201.474 9.80831 207.808 3.47376 215.918 1.30078C218.89 0.504384 222.528 0.5 230 0.5Z" stroke="#2A3241" stroke-opacity="0.1"/>
<path d="M225 22C225 19.9289 226.679 18.25 228.75 18.25C230.821 18.25 232.5 19.9289 232.5 22C232.5 22.4383 232.425 22.859 232.287 23.25H237.5C238.19 23.25 238.75 23.8096 238.75 24.5V29.7134C239.141 29.5752 239.562 29.5 240 29.5C242.071 29.5 243.75 31.1789 243.75 33.25C243.75 35.3211 242.071 37 240 37C239.562 37 239.141 36.9247 238.75 36.7866V42C238.75 42.6904 238.19 43.25 237.5 43.25H220C219.31 43.25 218.75 42.6904 218.75 42V24.5C218.75 23.8096 219.31 23.25 220 23.25H225.213C225.075 22.859 225 22.4383 225 22Z" fill="#2A3241"/>
<path d="M268 32C268 25.7227 268 22.584 268.69 20.0089C270.562 13.0208 276.021 7.56246 283.009 5.69C285.584 5 288.723 5 295 5C301.277 5 304.416 5 306.991 5.69C313.979 7.56246 319.438 13.0208 321.31 20.0089C322 22.584 322 25.7227 322 32C322 38.2773 322 41.416 321.31 43.9911C319.438 50.9792 313.979 56.4375 306.991 58.31C304.416 59 301.277 59 295 59C288.723 59 285.584 59 283.009 58.31C276.021 56.4375 270.562 50.9792 268.69 43.9911C268 41.416 268 38.2773 268 32Z" fill="white"/>
<path d="M295 5.42188C301.304 5.42188 304.374 5.42566 306.882 6.09766C313.724 7.93111 319.069 13.2756 320.902 20.1182C321.574 22.6261 321.578 25.6955 321.578 32C321.578 38.3045 321.574 41.3739 320.902 43.8818C319.069 50.7244 313.724 56.0689 306.882 57.9023C304.374 58.5743 301.304 58.5781 295 58.5781C288.696 58.5781 285.626 58.5743 283.118 57.9023C276.276 56.0689 270.931 50.7244 269.098 43.8818C268.426 41.3739 268.422 38.3045 268.422 32C268.422 25.6955 268.426 22.6261 269.098 20.1182C270.931 13.2756 276.276 7.93111 283.118 6.09766C285.626 5.42566 288.696 5.42188 295 5.42188Z" stroke="#2A3241" stroke-opacity="0.1" stroke-width="0.84375"/>
<path d="M292.491 20.0547V22.1639H298.819V20.0547H300.928V22.1639C302.686 22.1639 304.443 22.1639 306.201 22.1639V41.1464C299.17 41.1464 292.14 41.1464 285.109 41.1464V22.1639C286.867 22.1639 288.624 22.1639 290.382 22.1639V20.0547H292.491ZM304.092 30.6005H287.218V39.0372H304.092V30.6005ZM290.382 24.273H287.218V28.4914H304.092V24.273H300.928V26.3822H298.819V24.273H292.491V26.3822H290.382V24.273Z" fill="#2A3241"/>
<path d="M328 32C328 26.6527 328 23.979 328.588 21.7854C330.183 15.8325 334.833 11.1828 340.785 9.58778C342.979 9 345.653 9 351 9C356.347 9 359.021 9 361.215 9.58778C367.167 11.1828 371.817 15.8325 373.412 21.7854C374 23.979 374 26.6527 374 32C374 37.3473 374 40.021 373.412 42.2146C371.817 48.1675 367.167 52.8172 361.215 54.4122C359.021 55 356.347 55 351 55C345.653 55 342.979 55 340.785 54.4122C334.833 52.8172 330.183 48.1675 328.588 42.2146C328 40.021 328 37.3473 328 32Z" fill="white"/>
<path d="M351 9.35938C356.37 9.35938 358.986 9.36212 361.122 9.93457C366.951 11.4965 371.504 16.0494 373.065 21.8779C373.638 24.0143 373.641 26.6295 373.641 32C373.641 37.3705 373.638 39.9857 373.065 42.1221C371.504 47.9506 366.951 52.5035 361.122 54.0654C358.986 54.6379 356.37 54.6406 351 54.6406C345.63 54.6406 343.014 54.6379 340.878 54.0654C335.049 52.5035 330.496 47.9506 328.935 42.1221C328.362 39.9857 328.359 37.3705 328.359 32C328.359 26.6295 328.362 24.0143 328.935 21.8779C330.496 16.0494 335.049 11.4965 340.878 9.93457C343.014 9.36212 345.63 9.35938 351 9.35938Z" stroke="#2A3241" stroke-opacity="0.1" stroke-width="0.71875"/>
<path d="M351 21.9165C353.531 21.9165 355.583 23.9685 355.583 26.4998V30.1665C355.583 32.6978 353.531 34.7498 351 34.7498C348.469 34.7498 346.416 32.6978 346.416 30.1665V26.4998C346.416 23.9685 348.469 21.9165 351 21.9165ZM342.8 31.0832H344.648C345.093 34.1928 347.767 36.5832 351 36.5832C354.232 36.5832 356.907 34.1928 357.352 31.0832H359.199C358.777 34.9071 355.74 37.9434 351.917 38.3662V42.0832H350.083V38.3662C346.259 37.9434 343.223 34.9071 342.8 31.0832Z" fill="#2A3241"/>
<path d="M380 32C380 27.3501 380 25.0252 380.511 23.1177C381.898 17.9413 385.941 13.8981 391.118 12.5111C393.025 12 395.35 12 400 12C404.65 12 406.975 12 408.882 12.5111C414.059 13.8981 418.102 17.9413 419.489 23.1177C420 25.0252 420 27.3501 420 32C420 36.6499 420 38.9748 419.489 40.8823C418.102 46.0587 414.059 50.1019 408.882 51.4889C406.975 52 404.65 52 400 52C395.35 52 393.025 52 391.118 51.4889C385.941 50.1019 381.898 46.0587 380.511 40.8823C380 38.9748 380 36.6499 380 32Z" fill="white"/>
<path d="M400 12.3125C404.67 12.3125 406.944 12.3147 408.802 12.8125C413.87 14.1706 417.829 18.1299 419.188 23.1982C419.685 25.056 419.688 27.33 419.688 32C419.688 36.67 419.685 38.944 419.188 40.8018C417.829 45.8701 413.87 49.8294 408.802 51.1875C406.944 51.6853 404.67 51.6875 400 51.6875C395.33 51.6875 393.056 51.6853 391.198 51.1875C386.13 49.8294 382.171 45.8701 380.812 40.8018C380.315 38.944 380.312 36.67 380.312 32C380.312 27.33 380.315 25.056 380.812 23.1982C382.171 18.1299 386.13 14.1706 391.198 12.8125C393.056 12.3147 395.33 12.3125 400 12.3125Z" stroke="#2A3241" stroke-opacity="0.1" stroke-width="0.625"/>
<path d="M393.333 28.5069V37.3332H406.667V28.5069L400 34.5675L393.333 28.5069Z" fill="#2A3241"/>
<path d="M406.667 26.7049V26.6665H393.333V26.7049L400 32.7655L406.667 26.7049Z" fill="#2A3241"/>
<path d="M426 32C426 28.0476 426 26.0714 426.434 24.4501C427.613 20.0501 431.05 16.6134 435.45 15.4344C437.071 15 439.048 15 443 15C446.952 15 448.929 15 450.55 15.4344C454.95 16.6134 458.387 20.0501 459.566 24.4501C460 26.0714 460 28.0476 460 32C460 35.9524 460 37.9286 459.566 39.5499C458.387 43.9499 454.95 47.3866 450.55 48.5656C448.929 49 446.952 49 443 49C439.048 49 437.071 49 435.45 48.5656C431.05 47.3866 427.613 43.9499 426.434 39.5499C426 37.9286 426 35.9524 426 32Z" fill="white"/>
<path d="M443 15.2656C446.969 15.2656 448.902 15.2683 450.481 15.6914C454.789 16.8459 458.154 20.2106 459.309 24.5186C459.732 26.0976 459.734 28.0305 459.734 32C459.734 35.9695 459.732 37.9024 459.309 39.4814C458.154 43.7894 454.789 47.1541 450.481 48.3086C448.902 48.7317 446.969 48.7344 443 48.7344C439.031 48.7344 437.098 48.7317 435.519 48.3086C431.211 47.1541 427.846 43.7894 426.691 39.4814C426.268 37.9024 426.266 35.9695 426.266 32C426.266 28.0305 426.268 26.0976 426.691 24.5186C427.846 20.2106 431.211 16.8459 435.519 15.6914C437.098 15.2683 439.031 15.2656 443 15.2656Z" stroke="#2A3241" stroke-opacity="0.1" stroke-width="0.53125"/>
<path d="M449 26.0713C449 30.0713 449 34.0713 449 38.0713H437C437 34.0713 437 30.0713 437 26.0713H449ZM442.459 32.8436L438.333 33.5706V36.738H443.145L442.459 32.8436ZM447.667 27.4046H442.854L444.499 36.738H447.667V27.4046ZM441.5 27.4046H438.333V32.2166L442.228 31.5305L441.5 27.4046Z" fill="#2A3241"/>
</g>
<defs>
<linearGradient id="paint0_linear_647_12889" x1="0" y1="32" x2="460" y2="32" gradientUnits="userSpaceOnUse">
<stop stop-color="white" stop-opacity="0"/>
<stop offset="0.514423" stop-color="white"/>
<stop offset="1" stop-color="white" stop-opacity="0"/>
</linearGradient>
</defs>
</svg>
