<svg width="24" height="24" viewBox="0 0 24 24" fill="none" xmlns="http://www.w3.org/2000/svg">
<path d="M12.5469 6.76172L16 4L15.4004 7H18C20.2091 7 22 8.79086 22 11V17C22 19.2091 20.2091 21 18 21H6C3.79086 21 2 19.2091 2 17V11C2 8.79086 3.79086 7 6 7H7.25L13.5 2L12.5469 6.76172ZM3.70898 10C3.3176 10 3 10.3176 3 10.709V16.291C3 16.6824 3.3176 17 3.70898 17H6.19727C7.37275 17 8.52194 16.652 9.5 16L10.168 15.5547C10.7105 15.193 11.348 15 12 15C12.652 15 13.2895 15.193 13.832 15.5547L14.5 16C15.4781 16.652 16.6272 17 17.8027 17H20.291C20.6824 17 21 16.6824 21 16.291V10.709C21 10.3176 20.6824 10 20.291 10H17.8027C16.6272 10 15.4781 10.348 14.5 11L13.832 11.4453C13.2895 11.807 12.652 12 12 12C11.348 12 10.7105 11.807 10.168 11.4453L9.5 11C8.52194 10.348 7.37275 10 6.19727 10H3.70898ZM6.5 11C7.88071 11 9 12.1193 9 13.5C9 14.8807 7.88071 16 6.5 16C5.11929 16 4 14.8807 4 13.5C4 12.1193 5.11929 11 6.5 11ZM17.5 11C18.8807 11 20 12.1193 20 13.5C20 14.8807 18.8807 16 17.5 16C16.1193 16 15 14.8807 15 13.5C15 12.1193 16.1193 11 17.5 11Z" fill="#111418"/>
</svg>
