<svg width="24" height="24" viewBox="0 0 24 24" fill="none" xmlns="http://www.w3.org/2000/svg">
<path d="M22 16C22 18.2091 20.2091 20 18 20H6C3.79086 20 2 18.2091 2 16V13.1104L4.02051 15.3564C4.90013 16.3338 6.31394 16.6243 7.50781 16.0732L10.3242 14.7734C11.3875 14.2828 12.6125 14.2828 13.6758 14.7734L16.4922 16.0732C17.6861 16.6243 19.0999 16.3338 19.9795 15.3564L22 13.1104V16ZM8.96289 12.0889C8.98508 12.2228 9 12.3598 9 12.5C9 13.8807 7.88071 15 6.5 15C5.11929 15 4 13.8807 4 12.5C4 11.843 4.25544 11.247 4.66992 10.8008L8.96289 12.0889ZM19.3291 10.8008C19.7438 11.247 20 11.8427 20 12.5C20 13.8807 18.8807 15 17.5 15C16.1193 15 15 13.8807 15 12.5C15 12.3598 15.014 12.2228 15.0361 12.0889L19.3291 10.8008ZM12.5469 5.76172L16 3L15.4004 6H18C20.2091 6 22 7.79086 22 10V10.4541L19.7217 9.21191C18.365 8.4719 16.7029 8.57933 15.4531 9.48828L14.3525 10.2891C12.95 11.309 11.05 11.309 9.64746 10.2891L8.54688 9.48828C7.29707 8.57933 5.63501 8.4719 4.27832 9.21191L2 10.4541V10C2 7.79086 3.79086 6 6 6H7.25L13.5 1L12.5469 5.76172Z" fill="#111418"/>
</svg>
